<?xml version="1.0" encoding="utf-8"?>
<!-- Generator: Adobe Illustrator 27.5.0, SVG Export Plug-In . SVG Version: 6.00 Build 0)  -->
<svg version="1.1" id="レイヤー_1" xmlns="http://www.w3.org/2000/svg" xmlns:xlink="http://www.w3.org/1999/xlink" x="0px"
	 y="0px" viewBox="0 0 569.7021484 445.6170349" style="enable-background:new 0 0 569.7021484 445.6170349;" xml:space="preserve">
<style type="text/css">
	.st0{fill-rule:evenodd;clip-rule:evenodd;fill:#F0F0F0;}
	.st1{fill:none;stroke:#D7D7D7;stroke-width:0.5142857;stroke-linecap:square;stroke-miterlimit:10;}
	.st2{fill-rule:evenodd;clip-rule:evenodd;fill:#A0FFC0;}
	.st3{fill:none;stroke:#000000;stroke-width:0.5142857;stroke-linecap:square;stroke-miterlimit:10;}
	.st4{fill:#003060;}
	.st5{font-family:'YuGothicUI-Regular';}
	.st6{font-size:6.6857147px;}
	.st7{fill-rule:evenodd;clip-rule:evenodd;fill:#FFFFCC;}
	.st8{fill-rule:evenodd;clip-rule:evenodd;fill:#FFCCFF;}
	.st9{font-family:'YuGothicUI-Bold';}
	.st10{font-size:8.2285719px;}
	.st11{fill:none;stroke:#000000;stroke-width:1.0285715;stroke-linecap:round;stroke-linejoin:bevel;stroke-miterlimit:10;}
	.st12{font-size:7.0386257px;}
	.st13{fill:none;stroke:#000000;stroke-width:0.1910204;stroke-miterlimit:10;}
	.st14{fill-rule:evenodd;clip-rule:evenodd;fill:#CCFFCC;}
	.st15{fill-rule:evenodd;clip-rule:evenodd;}
	.st16{fill-rule:evenodd;clip-rule:evenodd;fill:#FFFFFF;}
</style>
<path class="st0" d="M137.5412903,166.465683c0.8414612,0,1.5236053,0.6907959,1.5236053,1.5428467h0.0000153v45.2571411
	l-0.0000153,0.000061c0,0.8520508-0.6821442,1.5428467-1.5236206,1.5428467l0,0h0.0000153H46.6318436h-0.0000076
	c-0.8414688,0-1.5236282-0.6907959-1.5236282-1.5429077h0.0000076v-45.2571411c0-0.8520508,0.6821518-1.5428467,1.5236282-1.5428467
	l0,0H137.5412903L137.5412903,166.465683L137.5412903,166.465683z"/>
<path class="st1" d="M137.5412903,166.465683c0.8414612,0,1.5236053,0.6907959,1.5236053,1.5428467h0.0000153v45.2571411
	l-0.0000153,0.000061c0,0.8520508-0.6821442,1.5428467-1.5236206,1.5428467l0,0h0.0000153H46.6318436h-0.0000076
	c-0.8414688,0-1.5236282-0.6907959-1.5236282-1.5429077h0.0000076v-45.2571411c0-0.8520508,0.6821518-1.5428467,1.5236282-1.5428467
	l0,0H137.5412903L137.5412903,166.465683L137.5412903,166.465683z"/>
<polygon class="st2" points="50.1869583,190.6371307 58.820816,190.6371307 58.820816,181.8942719 50.1869583,181.8942719 "/>
<polygon class="st3" points="50.1869583,190.6371307 58.820816,190.6371307 58.820816,181.8942719 50.1869583,181.8942719 "/>
<text transform="matrix(0.85 0 0 1 61.3598633 189.1015625)" class="st4 st5 st6">GMLで定義されたクラス</text>
<polygon class="st7" points="50.1869583,200.4085541 58.820816,200.4085541 58.820816,191.6656952 50.1869583,191.6656952 "/>
<polygon class="st3" points="50.1869583,200.4085541 58.820816,200.4085541 58.820816,191.6656952 50.1869583,191.6656952 "/>
<text transform="matrix(0.85 0 0 1 61.3598633 198.8671875)" class="st4 st5 st6">CityGMLで定義されたクラス</text>
<polygon class="st8" points="50.1869583,210.1799774 58.820816,210.1799774 58.820816,201.4371185 50.1869583,201.4371185 "/>
<polygon class="st3" points="50.1869583,210.1799774 58.820816,210.1799774 58.820816,201.4371185 50.1869583,201.4371185 "/>
<text transform="matrix(0.85 0 0 1 61.3598633 208.640625)" class="st4 st5 st6">i-URで定義されたクラス</text>
<text transform="matrix(0.85 0 0 1 86.2504883 179.5185547)" class="st4 st9 st10">凡例</text>
<polygon class="st8" points="166.9979858,216.8657074 278.7302856,216.8657074 278.7302856,171.6085052 166.9979858,171.6085052 "/>
<polygon class="st11" points="166.9979858,216.8657074 278.7302856,216.8657074 278.7302856,171.6085052 166.9979858,171.6085052 
	"/>
<text transform="matrix(0.85 0 0 1 205.0864258 181.8984375)" class="st5 st6">«DataType»</text>
<text transform="matrix(0.85 0 -0.3126727 0.9498609 196.4598541 190.6329498)" class="st5 st12">u</text>
<text transform="matrix(0.85 0 -0.3126727 0.9498609 196.4598541 190.6329498)" class="st13 st5 st12">u</text>
<text transform="matrix(0.85 0 -0.3126727 0.9498609 200.5194244 190.6329498)" class="st5 st12">r</text>
<text transform="matrix(0.85 0 -0.3126727 0.9498609 200.5194244 190.6329498)" class="st13 st5 st12">r</text>
<text transform="matrix(0.85 0 -0.3126727 0.9498609 203.0526276 190.6329498)" class="st5 st12">o</text>
<text transform="matrix(0.85 0 -0.3126727 0.9498609 203.0526276 190.6329498)" class="st13 st5 st12">o</text>
<text transform="matrix(0.85 0 -0.3126727 0.9498609 207.1131744 190.6329498)" class="st5 st12">::</text>
<text transform="matrix(0.85 0 -0.3126727 0.9498609 207.1131744 190.6329498)" class="st13 st5 st12">::</text>
<text transform="matrix(0.85 0 -0.3126727 0.9498609 210.1473541 190.6329498)" class="st5 st12">D</text>
<text transform="matrix(0.85 0 -0.3126727 0.9498609 210.1473541 190.6329498)" class="st13 st5 st12">D</text>
<text transform="matrix(0.85 0 -0.3126727 0.9498609 214.723526 190.6329498)" class="st5 st12">m</text>
<text transform="matrix(0.85 0 -0.3126727 0.9498609 214.723526 190.6329498)" class="st13 st5 st12">m</text>
<text transform="matrix(0.85 0 -0.3126727 0.9498609 220.8133698 190.6329498)" class="st5 st12">A</text>
<text transform="matrix(0.85 0 -0.3126727 0.9498609 220.8133698 190.6329498)" class="st13 st5 st12">A</text>
<text transform="matrix(0.85 0 -0.3126727 0.9498609 225.3827057 190.6329498)" class="st5 st12">tt</text>
<text transform="matrix(0.85 0 -0.3126727 0.9498609 225.3827057 190.6329498)" class="st13 st5 st12">tt</text>
<text transform="matrix(0.85 0 -0.3126727 0.9498609 230.4510651 190.6329498)" class="st5 st12">r</text>
<text transform="matrix(0.85 0 -0.3126727 0.9498609 230.4510651 190.6329498)" class="st13 st5 st12">r</text>
<text transform="matrix(0.85 0 -0.3126727 0.9498609 232.9842682 190.6329498)" class="st5 st12">i</text>
<text transform="matrix(0.85 0 -0.3126727 0.9498609 232.9842682 190.6329498)" class="st13 st5 st12">i</text>
<text transform="matrix(0.85 0 -0.3126727 0.9498609 234.5106354 190.6329498)" class="st5 st12">b</text>
<text transform="matrix(0.85 0 -0.3126727 0.9498609 234.5106354 190.6329498)" class="st13 st5 st12">b</text>
<text transform="matrix(0.85 0 -0.3126727 0.9498609 238.5702057 190.6329498)" class="st5 st12">u</text>
<text transform="matrix(0.85 0 -0.3126727 0.9498609 238.5702057 190.6329498)" class="st13 st5 st12">u</text>
<text transform="matrix(0.85 0 -0.3126727 0.9498609 242.629776 190.6329498)" class="st5 st12">t</text>
<text transform="matrix(0.85 0 -0.3126727 0.9498609 242.629776 190.6329498)" class="st13 st5 st12">t</text>
<text transform="matrix(0.85 0 -0.3126727 0.9498609 245.1649323 190.6329498)" class="st5 st12">e</text>
<text transform="matrix(0.85 0 -0.3126727 0.9498609 245.1649323 190.6329498)" class="st13 st5 st12">e</text>
<line class="st11" x1="166.9979858" y1="194.7513885" x2="278.2224121" y2="194.7513885"/>
<text transform="matrix(0.85 0 0 1 169.5395508 204.015625)" class="st5 st6">+ dmCode: gml::CodeType</text>
<text transform="matrix(0.85 0 0 1 169.5395508 212.7578125)" class="st5 st6">+ meshCode: gml::CodeType [0..1]</text>
<polygon class="st8" points="238.1003723,369.0942383 378.2736206,369.0942383 378.2736206,253.8942719 238.1003723,253.8942719 "/>
<polygon class="st11" points="238.1003723,369.0942383 378.2736206,369.0942383 378.2736206,253.8942719 238.1003723,253.8942719 
	"/>
<text transform="matrix(0.85 0 0 1 290.4145508 264.1796875)" class="st5 st6">«DataType»</text>
<text transform="matrix(0.85 0 0 1 266.0317383 272.9296875)" class="st9 st6">uro::DmGeometricAttribute</text>
<line class="st11" x1="238.1003723" y1="277.0370789" x2="377.7657471" y2="277.0370789"/>
<text transform="matrix(0.85 0 0 1 240.6411133 286.296875)" class="st5 st6">+ geometryType: gml::CodeType</text>
<text transform="matrix(0.85 0 0 1 240.6411133 295.0390625)" class="st5 st6">+ mapLevel: gml::CodeType</text>
<text transform="matrix(0.85 0 0 1 240.6411133 303.78125)" class="st5 st6">+ shapeType: gml::CodeType</text>
<text transform="matrix(0.85 0 0 1 240.6411133 312.5234375)" class="st5 st6">+ visibility: xs::boolean [0..1]</text>
<text transform="matrix(0.85 0 0 1 240.6411133 321.2734375)" class="st5 st6">+ is3d: xs::boolean [0..1]</text>
<text transform="matrix(0.85 0 0 1 240.6411133 330.0078125)" class="st5 st6">+ isInstallation: xs::boolean [0..1]</text>
<text transform="matrix(0.85 0 0 1 240.6411133 338.75)" class="st5 st6">+ isEdited: xs::boolean [0..1]</text>
<text transform="matrix(0.85 0 0 1 240.6411133 347.5)" class="st5 st6">+ isSupplementarySymbol: xs::boolean [0..1]</text>
<text transform="matrix(0.85 0 0 1 240.6411133 356.2421875)" class="st5 st6">+ angle: xs::double [0..1]</text>
<text transform="matrix(0.85 0 0 1 240.6411133 364.9765625)" class="st5 st6">+ elevation: gml::LengthType [0..1]</text>
<polygon class="st14" points="187.3129578,428.7514038 238.1003723,428.7514038 238.1003723,387.608551 187.3129578,387.608551 "/>
<polygon class="st11" points="187.3129578,428.7514038 238.1003723,428.7514038 238.1003723,387.608551 187.3129578,387.608551 "/>
<text transform="matrix(0.85 0 0 1 202.0395508 397.890625)" class="st5 st6">«Type»</text>
<text transform="matrix(0.85 0 -0.3126727 0.9498609 188.8404999 406.6372375)" class="st5 st12">g</text>
<text transform="matrix(0.85 0 -0.3126727 0.9498609 188.8404999 406.6372375)" class="st13 st5 st12">g</text>
<text transform="matrix(0.85 0 -0.3126727 0.9498609 192.9000702 406.6372375)" class="st5 st12">m</text>
<text transform="matrix(0.85 0 -0.3126727 0.9498609 192.9000702 406.6372375)" class="st13 st5 st12">m</text>
<text transform="matrix(0.85 0 -0.3126727 0.9498609 198.9899139 406.6372375)" class="st5 st12">l</text>
<text transform="matrix(0.85 0 -0.3126727 0.9498609 198.9899139 406.6372375)" class="st13 st5 st12">l</text>
<text transform="matrix(0.85 0 -0.3126727 0.9498609 200.5162811 406.6372375)" class="st5 st12">::</text>
<text transform="matrix(0.85 0 -0.3126727 0.9498609 200.5162811 406.6372375)" class="st13 st5 st12">::</text>
<text transform="matrix(0.85 0 -0.3126727 0.9498609 203.5504608 406.6372375)" class="st5 st12">_</text>
<text transform="matrix(0.85 0 -0.3126727 0.9498609 203.5504608 406.6372375)" class="st13 st5 st12">_</text>
<text transform="matrix(0.85 0 -0.3126727 0.9498609 206.092453 406.6372375)" class="st5 st12">G</text>
<text transform="matrix(0.85 0 -0.3126727 0.9498609 206.092453 406.6372375)" class="st13 st5 st12">G</text>
<text transform="matrix(0.85 0 -0.3126727 0.9498609 210.6617889 406.6372375)" class="st5 st12">e</text>
<text transform="matrix(0.85 0 -0.3126727 0.9498609 210.6617889 406.6372375)" class="st13 st5 st12">e</text>
<text transform="matrix(0.85 0 -0.3126727 0.9498609 214.2135468 406.6372375)" class="st5 st12">o</text>
<text transform="matrix(0.85 0 -0.3126727 0.9498609 214.2135468 406.6372375)" class="st13 st5 st12">o</text>
<text transform="matrix(0.85 0 -0.3126727 0.9498609 218.2731171 406.6372375)" class="st5 st12">m</text>
<text transform="matrix(0.85 0 -0.3126727 0.9498609 218.2731171 406.6372375)" class="st13 st5 st12">m</text>
<text transform="matrix(0.85 0 -0.3126727 0.9498609 224.3629608 406.6372375)" class="st5 st12">e</text>
<text transform="matrix(0.85 0 -0.3126727 0.9498609 224.3629608 406.6372375)" class="st13 st5 st12">e</text>
<text transform="matrix(0.85 0 -0.3126727 0.9498609 227.9147186 406.6372375)" class="st5 st12">t</text>
<text transform="matrix(0.85 0 -0.3126727 0.9498609 227.9147186 406.6372375)" class="st13 st5 st12">t</text>
<text transform="matrix(0.85 0 -0.3126727 0.9498609 230.4488983 406.6372375)" class="st5 st12">r</text>
<text transform="matrix(0.85 0 -0.3126727 0.9498609 230.4488983 406.6372375)" class="st13 st5 st12">r</text>
<text transform="matrix(0.85 0 -0.3126727 0.9498609 232.9821014 406.6372375)" class="st5 st12">y</text>
<text transform="matrix(0.85 0 -0.3126727 0.9498609 232.9821014 406.6372375)" class="st13 st5 st12">y</text>
<polygon class="st8" points="395.5413208,385.5513916 524.5413208,385.5513916 524.5413208,217.8942719 395.5413208,217.8942719 "/>
<polygon class="st11" points="395.5413208,385.5513916 524.5413208,385.5513916 524.5413208,217.8942719 395.5413208,217.8942719 
	"/>
<text transform="matrix(0.85 0 0 1 442.2661133 228.1796875)" class="st5 st6">«DataType»</text>
<text transform="matrix(0.85 0 0 1 435.1567383 236.921875)" class="st9 st6">uro::DmElement</text>
<line class="st11" x1="395.5413208" y1="241.0370941" x2="524.0334473" y2="241.0370941"/>
<text transform="matrix(0.85 0 0 1 398.0864258 250.2890625)" class="st5 st6">+ locationType: gml::CodeType [0..1]</text>
<text transform="matrix(0.85 0 0 1 398.0864258 259.0390625)" class="st5 st6">+ infoType: gml::CodeType [0..1]</text>
<text transform="matrix(0.85 0 0 1 398.0864258 267.78125)" class="st5 st6">+ elementKey: xs::string [0..1]</text>
<text transform="matrix(0.85 0 0 1 398.0864258 276.5234375)" class="st5 st6">+ hierarchyLevel: xs::string [0..1]</text>
<text transform="matrix(0.85 0 0 1 398.0864258 285.2734375)" class="st5 st6">+ dataType: gml::CodeType [0..1]</text>
<text transform="matrix(0.85 0 0 1 398.0864258 294.015625)" class="st5 st6">+ annotationType: gml::CodeType [0..1]</text>
<text transform="matrix(0.85 0 0 1 398.0864258 302.7578125)" class="st5 st6">+ precisionType: gml::CodeType [0..1]</text>
<text transform="matrix(0.85 0 0 1 398.0864258 311.4921875)" class="st5 st6">+ dislocationType: gml::CodeType [0..1]</text>
<text transform="matrix(0.85 0 0 1 398.0864258 320.234375)" class="st5 st6">+ breakType: gml::CodeType [0..1]</text>
<text transform="matrix(0.85 0 0 1 398.0864258 328.984375)" class="st5 st6">+ attributeValue: xs::string [0..1]</text>
<text transform="matrix(0.85 0 0 1 398.0864258 337.7265625)" class="st5 st6">+ attributeType: gml::CodeType [0..1]</text>
<text transform="matrix(0.85 0 0 1 398.0864258 346.4609375)" class="st5 st6">+ attributeValueType: xs::string [0..1]</text>
<text transform="matrix(0.85 0 0 1 398.0864258 355.2109375)" class="st5 st6">+ creationDate: xs::gYearMonth [0..1]</text>
<text transform="matrix(0.85 0 0 1 398.0864258 363.953125)" class="st5 st6">+ updateDate: xs::gYearMonth [0..1]</text>
<text transform="matrix(0.85 0 0 1 398.0864258 372.6953125)" class="st5 st6">+ terminationDate: xs::gYearMonth [0..1]</text>
<text transform="matrix(0.85 0 0 1 398.0864258 381.4375)" class="st5 st6">+ freeSpace: xs::string [0..1]</text>
<polygon class="st8" points="80.6594009,351.608551 187.3129578,351.608551 187.3129578,253.8942719 80.6594009,253.8942719 "/>
<polygon class="st11" points="80.6594009,351.608551 187.3129578,351.608551 187.3129578,253.8942719 80.6594009,253.8942719 "/>
<text transform="matrix(0.85 0 0 1 116.2114258 264.1796875)" class="st5 st6">«DataType»</text>
<text transform="matrix(0.85 0 0 1 104.0239258 272.9296875)" class="st9 st6">uro::DmAnnotation</text>
<line class="st11" x1="80.6594009" y1="277.0370789" x2="186.8050842" y2="277.0370789"/>
<text transform="matrix(0.85 0 0 1 83.2036133 286.296875)" class="st5 st6">+ geometryType: gml::CodeType</text>
<text transform="matrix(0.85 0 0 1 83.2036133 295.0390625)" class="st5 st6">+ shapeType: gml::CodeType</text>
<text transform="matrix(0.85 0 0 1 83.2036133 303.78125)" class="st5 st6">+ label: xs::string</text>
<text transform="matrix(0.85 0 0 1 83.2036133 312.5234375)" class="st5 st6">+ isVertical: xs::boolean</text>
<text transform="matrix(0.85 0 0 1 83.2036133 321.2734375)" class="st5 st6">+ size: xs::integer</text>
<text transform="matrix(0.85 0 0 1 83.2036133 330.0078125)" class="st5 st6">+ orientation: xs::integer</text>
<text transform="matrix(0.85 0 0 1 83.2036133 338.75)" class="st5 st6">+ lineWidth: xs::integer</text>
<text transform="matrix(0.85 0 0 1 83.2036133 347.5)" class="st5 st6">+ spacing: xs::integer</text>
<polygon class="st7" points="121.2893295,141.2656708 322.4074707,141.2656708 322.4074707,17.3227959 121.2893295,17.3227959 "/>
<polygon class="st11" points="121.2893295,141.2656708 322.4074707,141.2656708 322.4074707,17.3227959 121.2893295,17.3227959 "/>
<text transform="matrix(0.85 0 0 1 200.0083008 27.609375)" class="st5 st6">«FeatureType»</text>
<text transform="matrix(0.85 0 -0.3126727 0.9498609 186.8070831 36.3552322)" class="st5 st12">b</text>
<text transform="matrix(0.85 0 -0.3126727 0.9498609 186.8070831 36.3552322)" class="st13 st5 st12">b</text>
<text transform="matrix(0.85 0 -0.3126727 0.9498609 190.8666534 36.3552322)" class="st5 st12">l</text>
<text transform="matrix(0.85 0 -0.3126727 0.9498609 190.8666534 36.3552322)" class="st13 st5 st12">l</text>
<text transform="matrix(0.85 0 -0.3126727 0.9498609 192.3930206 36.3552322)" class="st5 st12">dg</text>
<text transform="matrix(0.85 0 -0.3126727 0.9498609 192.3930206 36.3552322)" class="st13 st5 st12">dg</text>
<text transform="matrix(0.85 0 -0.3126727 0.9498609 200.5121613 36.3552322)" class="st5 st12">::</text>
<text transform="matrix(0.85 0 -0.3126727 0.9498609 200.5121613 36.3552322)" class="st13 st5 st12">::</text>
<text transform="matrix(0.85 0 -0.3126727 0.9498609 203.5463409 36.3552322)" class="st5 st12">_</text>
<text transform="matrix(0.85 0 -0.3126727 0.9498609 203.5463409 36.3552322)" class="st13 st5 st12">_</text>
<text transform="matrix(0.85 0 -0.3126727 0.9498609 206.0893097 36.3552322)" class="st5 st12">A</text>
<text transform="matrix(0.85 0 -0.3126727 0.9498609 206.0893097 36.3552322)" class="st13 st5 st12">A</text>
<text transform="matrix(0.85 0 -0.3126727 0.9498609 210.6576691 36.3552322)" class="st5 st12">b</text>
<text transform="matrix(0.85 0 -0.3126727 0.9498609 210.6576691 36.3552322)" class="st13 st5 st12">b</text>
<text transform="matrix(0.85 0 -0.3126727 0.9498609 214.7172394 36.3552322)" class="st5 st12">s</text>
<text transform="matrix(0.85 0 -0.3126727 0.9498609 214.7172394 36.3552322)" class="st13 st5 st12">s</text>
<text transform="matrix(0.85 0 -0.3126727 0.9498609 217.7631378 36.3552322)" class="st5 st12">t</text>
<text transform="matrix(0.85 0 -0.3126727 0.9498609 217.7631378 36.3552322)" class="st13 st5 st12">t</text>
<text transform="matrix(0.85 0 -0.3126727 0.9498609 220.2973175 36.3552322)" class="st5 st12">r</text>
<text transform="matrix(0.85 0 -0.3126727 0.9498609 220.2973175 36.3552322)" class="st13 st5 st12">r</text>
<text transform="matrix(0.85 0 -0.3126727 0.9498609 222.8305206 36.3552322)" class="st5 st12">a</text>
<text transform="matrix(0.85 0 -0.3126727 0.9498609 222.8305206 36.3552322)" class="st13 st5 st12">a</text>
<text transform="matrix(0.85 0 -0.3126727 0.9498609 226.3813019 36.3552322)" class="st5 st12">c</text>
<text transform="matrix(0.85 0 -0.3126727 0.9498609 226.3813019 36.3552322)" class="st13 st5 st12">c</text>
<text transform="matrix(0.85 0 -0.3126727 0.9498609 229.4311066 36.3552322)" class="st5 st12">t</text>
<text transform="matrix(0.85 0 -0.3126727 0.9498609 229.4311066 36.3552322)" class="st13 st5 st12">t</text>
<text transform="matrix(0.85 0 -0.3126727 0.9498609 231.9652863 36.3552322)" class="st5 st12">B</text>
<text transform="matrix(0.85 0 -0.3126727 0.9498609 231.9652863 36.3552322)" class="st13 st5 st12">B</text>
<text transform="matrix(0.85 0 -0.3126727 0.9498609 236.0277863 36.3552322)" class="st5 st12">u</text>
<text transform="matrix(0.85 0 -0.3126727 0.9498609 236.0277863 36.3552322)" class="st13 st5 st12">u</text>
<text transform="matrix(0.85 0 -0.3126727 0.9498609 240.0873566 36.3552322)" class="st5 st12">il</text>
<text transform="matrix(0.85 0 -0.3126727 0.9498609 240.0873566 36.3552322)" class="st13 st5 st12">il</text>
<text transform="matrix(0.85 0 -0.3126727 0.9498609 243.1400909 36.3552322)" class="st5 st12">d</text>
<text transform="matrix(0.85 0 -0.3126727 0.9498609 243.1400909 36.3552322)" class="st13 st5 st12">d</text>
<text transform="matrix(0.85 0 -0.3126727 0.9498609 247.1996613 36.3552322)" class="st5 st12">i</text>
<text transform="matrix(0.85 0 -0.3126727 0.9498609 247.1996613 36.3552322)" class="st13 st5 st12">i</text>
<text transform="matrix(0.85 0 -0.3126727 0.9498609 248.7260284 36.3552322)" class="st5 st12">n</text>
<text transform="matrix(0.85 0 -0.3126727 0.9498609 248.7260284 36.3552322)" class="st13 st5 st12">n</text>
<text transform="matrix(0.85 0 -0.3126727 0.9498609 252.7865753 36.3552322)" class="st5 st12">g</text>
<text transform="matrix(0.85 0 -0.3126727 0.9498609 252.7865753 36.3552322)" class="st13 st5 st12">g</text>
<line class="st11" x1="121.2893295" y1="40.4656792" x2="321.8995972" y2="40.4656792"/>
<text transform="matrix(0.85 0 0 1 123.8286133 49.7265625)" class="st5 st6">+ class: gml::CodeType [0..1]</text>
<text transform="matrix(0.85 0 0 1 123.8286133 58.46875)" class="st5 st6">+ function: gml::CodeType [0..*]</text>
<text transform="matrix(0.85 0 0 1 123.8286133 67.2109375)" class="st5 st6">+ usage: gml::CodeType [0..*]</text>
<text transform="matrix(0.85 0 0 1 123.8286133 75.9609375)" class="st5 st6">+ yearOfConstruction: xs::gYear [0..1]</text>
<text transform="matrix(0.85 0 0 1 123.8286133 84.6953125)" class="st5 st6">+ yearOfDemolition: xs::gYear [0..1]</text>
<text transform="matrix(0.85 0 0 1 123.8286133 93.4375)" class="st5 st6">+ roofType: gml::CodeType [0..1]</text>
<text transform="matrix(0.85 0 0 1 123.8286133 102.1875)" class="st5 st6">+ measuredHeight: gml::LengthType [0..1]</text>
<text transform="matrix(0.85 0 0 1 123.8286133 110.9296875)" class="st5 st6">+ storeysAboveGround: xs::nonNegativeInteger [0..1]</text>
<text transform="matrix(0.85 0 0 1 123.8286133 119.6640625)" class="st5 st6">+ storeysBelowGround: xs::nonNegativeInteger [0..1]</text>
<text transform="matrix(0.85 0 0 1 123.8286133 128.40625)" class="st5 st6">+ storeyHeightsAboveGround: gml::MeasureOrNullListType [0..1]</text>
<text transform="matrix(0.85 0 0 1 123.8286133 137.1484375)" class="st5 st6">+ storeyHeightsBelowGround: gml::MeasureOrNullListType [0..1]</text>
<line class="st11" x1="460.0413208" y1="217.8942719" x2="460.0413208" y2="194.2371063"/>
<line class="st11" x1="460.0413208" y1="194.2371063" x2="278.7302856" y2="194.2371063"/>
<polyline class="st15" points="283.809021,191.6656952 278.7302856,194.2371063 283.809021,196.8085785 288.8877563,194.2371063 
	283.809021,191.6656952 "/>
<polygon class="st11" points="288.8877563,194.2371063 283.809021,196.8085785 278.7302856,194.2371063 283.809021,191.6656952 "/>
<polyline class="st11" points="463.088562,210.1799774 460.0413208,217.8942719 456.9940796,210.1799774 "/>
<line class="st11" x1="305.1397705" y1="253.3799896" x2="305.1397705" y2="242.5799408"/>
<line class="st11" x1="305.1397705" y1="242.5799408" x2="222.8641357" y2="242.5799408"/>
<line class="st11" x1="222.8641357" y1="242.5799408" x2="222.8641357" y2="217.3799896"/>
<polyline class="st16" points="225.911377,225.6085663 219.8168945,225.6085663 222.8641357,217.3799896 225.911377,225.6085663 "/>
<polygon class="st11" points="225.911377,225.6085663 219.8168945,225.6085663 222.8641357,217.3799896 "/>
<line class="st11" x1="308.1870117" y1="369.0942383" x2="308.1870117" y2="408.1799622"/>
<line class="st11" x1="308.1870117" y1="408.1799622" x2="238.1003723" y2="408.1799622"/>
<polyline class="st11" points="245.7184753,405.0942383 238.1003723,408.1799622 245.7184753,411.265686 "/>
<line class="st11" x1="222.3562622" y1="171.094223" x2="222.3562622" y2="141.779953"/>
<polyline class="st15" points="224.8956299,146.9228363 222.3562622,141.779953 219.8168945,146.9228363 222.3562622,152.0656586 
	224.8956299,146.9228363 "/>
<polygon class="st11" points="222.3562622,152.0656586 219.8168945,146.9228363 222.3562622,141.779953 224.8956299,146.9228363 "/>
<polyline class="st11" points="225.4035034,163.3799896 222.3562622,171.094223 219.309021,163.3799896 "/>
<line class="st11" x1="131.4468079" y1="253.3799896" x2="131.4468079" y2="242.5799408"/>
<line class="st11" x1="131.4468079" y1="242.5799408" x2="222.8641357" y2="242.5799408"/>
<line class="st11" x1="133.9861755" y1="351.608551" x2="133.9861755" y2="408.1799622"/>
<line class="st11" x1="133.9861755" y1="408.1799622" x2="187.3129578" y2="408.1799622"/>
<polyline class="st11" points="179.6948395,411.265686 187.3129578,408.1799622 179.6948395,405.0942383 "/>
<text transform="matrix(0.85 0 0 1 135.8779297 398.40625)" class="st5 st6">+lod0AnchorPoint</text>
<text transform="matrix(0.85 0 0 1 179.1879883 422.0703125)" class="st5 st6">1</text>
<text transform="matrix(0.85 0 0 1 405.1958008 215.8359375)" class="st5 st6">+dmElement</text>
<text transform="matrix(0.85 0 0 1 467.6567383 209.6640625)" class="st5 st6">0</text>
<text transform="matrix(0.85 0 0 1 471.215332 209.6640625)" class="st5 st6">..</text>
<text transform="matrix(0.85 0 0 1 474.2504883 209.6640625)" class="st5 st6">1</text>
<text transform="matrix(0.85 0 0 1 159.8911133 165.4375)" class="st5 st6">+bldgDmAttribute</text>
<text transform="matrix(0.85 0 0 1 230.9926758 163.8984375)" class="st5 st6">0</text>
<text transform="matrix(0.85 0 0 1 234.5517578 163.8984375)" class="st5 st6">..</text>
<text transform="matrix(0.85 0 0 1 237.5859375 163.8984375)" class="st5 st6">*</text>
<text transform="matrix(0.85 0 0 1 243.6879883 397.890625)" class="st5 st6">+lod0Geometry</text>
<text transform="matrix(0.85 0 0 1 249.2739258 422.578125)" class="st5 st6">0</text>
<text transform="matrix(0.85 0 0 1 252.8330078 422.578125)" class="st5 st6">..</text>
<text transform="matrix(0.85 0 0 1 255.8671875 422.578125)" class="st5 st6">1</text>
</svg>
