<?xml version="1.0" encoding="utf-8"?>
<!-- Generator: Adobe Illustrator 27.0.0, SVG Export Plug-In . SVG Version: 6.00 Build 0)  -->
<svg version="1.1" id="レイヤー_1" xmlns="http://www.w3.org/2000/svg" xmlns:xlink="http://www.w3.org/1999/xlink" x="0px"
	 y="0px" viewBox="0 0 595.276001 437.9397888" style="enable-background:new 0 0 595.276001 437.9397888;" xml:space="preserve">
<style type="text/css">
	.st0{fill-rule:evenodd;clip-rule:evenodd;fill:#FFFFCC;}
	.st1{fill:none;stroke:#000000;stroke-width:1.0285715;stroke-linecap:round;stroke-linejoin:bevel;stroke-miterlimit:10;}
	.st2{font-family:'YuGothicUI-Regular';}
	.st3{font-size:7.0386257px;}
	.st4{font-size:6.6857147px;}
	.st5{font-family:'YuGothicUI-Bold';}
	.st6{fill-rule:evenodd;clip-rule:evenodd;fill:#FFCCFF;}
	.st7{fill:none;stroke:#000000;stroke-width:0.1910204;stroke-miterlimit:10;}
	.st8{fill-rule:evenodd;clip-rule:evenodd;fill:#FFFFFF;}
	.st9{fill-rule:evenodd;clip-rule:evenodd;}
</style>
<polygon class="st0" points="9.514286,70.7148819 112.1048431,70.7148819 112.1048431,6.4291606 9.514286,6.4291606 "/>
<polygon class="st1" points="9.514286,70.7148819 112.1048431,70.7148819 112.1048431,6.4291606 9.514286,6.4291606 "/>
<text transform="matrix(0.85 0 -0.3126727 0.9498609 78.076683 15.1743689)" class="st2 st3">_CityObject</text>
<text transform="matrix(0.85 0 0 1 38.96875 26.9944839)" class="st2 st4">«FeatureType»</text>
<text transform="matrix(0.85 0 0 1 43.03125 35.7366714)" class="st5 st4">bldg::Room</text>
<line class="st1" x1="9.514286" y1="39.8576889" x2="111.5969696" y2="39.8576889"/>
<text transform="matrix(0.85 0 0 1 12.0546875 49.1038589)" class="st2 st4">+</text>
<text transform="matrix(0.85 0 0 1 16.6240234 49.1038589)" class="st2 st4"> </text>
<text transform="matrix(0.85 0 0 1 23.2265625 49.1038589)" class="st2 st4">class: gml::CodeType [0..1]</text>
<text transform="matrix(0.85 0 0 1 12.0546875 57.8538589)" class="st2 st4">+</text>
<text transform="matrix(0.85 0 0 1 16.6240234 57.8538589)" class="st2 st4"> </text>
<text transform="matrix(0.85 0 0 1 23.2265625 57.8538589)" class="st2 st4">function: gml::CodeType [0..*]</text>
<text transform="matrix(0.85 0 0 1 12.0546875 66.5960464)" class="st2 st4">+</text>
<text transform="matrix(0.85 0 0 1 16.6240234 66.5960464)" class="st2 st4"> </text>
<text transform="matrix(0.85 0 0 1 23.2265625 66.5960464)" class="st2 st4">usage: gml::CodeType [0..*]</text>
<polygon class="st6" points="70.4591675,158.1434631 167.4631348,158.1434631 167.4631348,104.1434708 70.4591675,104.1434708 "/>
<polygon class="st1" points="70.4591675,158.1434631 167.4631348,158.1434631 167.4631348,104.1434708 70.4591675,104.1434708 "/>
<text transform="matrix(0.85 0 0 1 101.4453125 114.4319839)" class="st2 st4">«DataType»</text>
<text transform="matrix(0.85 0 -0.3126727 0.9498609 100.9245377 123.1755905)" class="st2 st3">u</text>
<text transform="matrix(0.85 0 -0.3126727 0.9498609 100.9245377 123.1755905)" class="st7 st2 st3">u</text>
<text transform="matrix(0.85 0 -0.3126727 0.9498609 104.9831314 123.1755905)" class="st2 st3">r</text>
<text transform="matrix(0.85 0 -0.3126727 0.9498609 104.9831314 123.1755905)" class="st7 st2 st3">r</text>
<text transform="matrix(0.85 0 -0.3126727 0.9498609 107.5163345 123.1755905)" class="st2 st3">o</text>
<text transform="matrix(0.85 0 -0.3126727 0.9498609 107.5163345 123.1755905)" class="st7 st2 st3">o</text>
<text transform="matrix(0.85 0 -0.3126727 0.9498609 111.5768814 123.1755905)" class="st2 st3">::</text>
<text transform="matrix(0.85 0 -0.3126727 0.9498609 111.5768814 123.1755905)" class="st7 st2 st3">::</text>
<text transform="matrix(0.85 0 -0.3126727 0.9498609 114.6120377 123.1755905)" class="st2 st3">I</text>
<text transform="matrix(0.85 0 -0.3126727 0.9498609 114.6120377 123.1755905)" class="st7 st2 st3">I</text>
<text transform="matrix(0.85 0 -0.3126727 0.9498609 116.6393814 123.1755905)" class="st2 st3">f</text>
<text transform="matrix(0.85 0 -0.3126727 0.9498609 116.6393814 123.1755905)" class="st7 st2 st3">f</text>
<text transform="matrix(0.85 0 -0.3126727 0.9498609 118.6725845 123.1755905)" class="st2 st3">c</text>
<text transform="matrix(0.85 0 -0.3126727 0.9498609 118.6725845 123.1755905)" class="st7 st2 st3">c</text>
<text transform="matrix(0.85 0 -0.3126727 0.9498609 121.7214127 123.1755905)" class="st2 st3">R</text>
<text transform="matrix(0.85 0 -0.3126727 0.9498609 121.7214127 123.1755905)" class="st7 st2 st3">R</text>
<text transform="matrix(0.85 0 -0.3126727 0.9498609 125.7839127 123.1755905)" class="st2 st3">oo</text>
<text transform="matrix(0.85 0 -0.3126727 0.9498609 125.7839127 123.1755905)" class="st7 st2 st3">oo</text>
<text transform="matrix(0.85 0 -0.3126727 0.9498609 133.9030457 123.1755905)" class="st2 st3">t</text>
<text transform="matrix(0.85 0 -0.3126727 0.9498609 133.9030457 123.1755905)" class="st7 st2 st3">t</text>
<line class="st1" x1="70.4591675" y1="127.286293" x2="166.9552612" y2="127.286293"/>
<text transform="matrix(0.85 0 0 1 72.9921875 136.5413513)" class="st2 st4">+</text>
<text transform="matrix(0.85 0 0 1 77.5615234 136.5413513)" class="st2 st4"> </text>
<text transform="matrix(0.85 0 0 1 84.171875 136.5413513)" class="st2 st4">globalId: xs::string [0..1]</text>
<text transform="matrix(0.85 0 0 1 72.9921875 145.2757263)" class="st2 st4">+</text>
<text transform="matrix(0.85 0 0 1 77.5615234 145.2757263)" class="st2 st4"> </text>
<text transform="matrix(0.85 0 0 1 84.171875 145.2757263)" class="st2 st4">name: xs::string [0..1]</text>
<text transform="matrix(0.85 0 0 1 72.9921875 154.0257263)" class="st2 st4">+</text>
<text transform="matrix(0.85 0 0 1 77.5615234 154.0257263)" class="st2 st4"> </text>
<text transform="matrix(0.85 0 0 1 84.171875 154.0257263)" class="st2 st4">description: xs::string [0..1]</text>
<polygon class="st6" points="217.7426758,52.7148666 283.7662964,52.7148666 283.7662964,11.0577002 217.7426758,11.0577002 "/>
<polygon class="st1" points="217.7426758,52.7148666 283.7662964,52.7148666 283.7662964,11.0577002 217.7426758,11.0577002 "/>
<text transform="matrix(0.85 0 0 1 232.9765625 21.3460464)" class="st2 st4">«DataType»</text>
<text transform="matrix(0.85 0 -0.3126727 0.9498609 226.3726196 30.0818043)" class="st2 st3">u</text>
<text transform="matrix(0.85 0 -0.3126727 0.9498609 226.3726196 30.0818043)" class="st7 st2 st3">u</text>
<text transform="matrix(0.85 0 -0.3126727 0.9498609 230.4321899 30.0818043)" class="st2 st3">r</text>
<text transform="matrix(0.85 0 -0.3126727 0.9498609 230.4321899 30.0818043)" class="st7 st2 st3">r</text>
<text transform="matrix(0.85 0 -0.3126727 0.9498609 232.9653931 30.0818043)" class="st2 st3">o</text>
<text transform="matrix(0.85 0 -0.3126727 0.9498609 232.9653931 30.0818043)" class="st7 st2 st3">o</text>
<text transform="matrix(0.85 0 -0.3126727 0.9498609 237.0259399 30.0818043)" class="st2 st3">::</text>
<text transform="matrix(0.85 0 -0.3126727 0.9498609 237.0259399 30.0818043)" class="st7 st2 st3">::</text>
<text transform="matrix(0.85 0 -0.3126727 0.9498609 240.0601196 30.0818043)" class="st2 st3">I</text>
<text transform="matrix(0.85 0 -0.3126727 0.9498609 240.0601196 30.0818043)" class="st7 st2 st3">I</text>
<text transform="matrix(0.85 0 -0.3126727 0.9498609 242.0874634 30.0818043)" class="st2 st3">f</text>
<text transform="matrix(0.85 0 -0.3126727 0.9498609 242.0874634 30.0818043)" class="st7 st2 st3">f</text>
<text transform="matrix(0.85 0 -0.3126727 0.9498609 244.1206665 30.0818043)" class="st2 st3">c</text>
<text transform="matrix(0.85 0 -0.3126727 0.9498609 244.1206665 30.0818043)" class="st7 st2 st3">c</text>
<text transform="matrix(0.85 0 -0.3126727 0.9498609 247.1704712 30.0818043)" class="st2 st3">A</text>
<text transform="matrix(0.85 0 -0.3126727 0.9498609 247.1704712 30.0818043)" class="st7 st2 st3">A</text>
<text transform="matrix(0.85 0 -0.3126727 0.9498609 251.7398071 30.0818043)" class="st2 st3">tt</text>
<text transform="matrix(0.85 0 -0.3126727 0.9498609 251.7398071 30.0818043)" class="st7 st2 st3">tt</text>
<text transform="matrix(0.85 0 -0.3126727 0.9498609 256.8081665 30.0818043)" class="st2 st3">r</text>
<text transform="matrix(0.85 0 -0.3126727 0.9498609 256.8081665 30.0818043)" class="st7 st2 st3">r</text>
<text transform="matrix(0.85 0 -0.3126727 0.9498609 259.3413696 30.0818043)" class="st2 st3">i</text>
<text transform="matrix(0.85 0 -0.3126727 0.9498609 259.3413696 30.0818043)" class="st7 st2 st3">i</text>
<text transform="matrix(0.85 0 -0.3126727 0.9498609 260.8677368 30.0818043)" class="st2 st3">b</text>
<text transform="matrix(0.85 0 -0.3126727 0.9498609 260.8677368 30.0818043)" class="st7 st2 st3">b</text>
<text transform="matrix(0.85 0 -0.3126727 0.9498609 264.9273071 30.0818043)" class="st2 st3">u</text>
<text transform="matrix(0.85 0 -0.3126727 0.9498609 264.9273071 30.0818043)" class="st7 st2 st3">u</text>
<text transform="matrix(0.85 0 -0.3126727 0.9498609 268.987854 30.0818043)" class="st2 st3">t</text>
<text transform="matrix(0.85 0 -0.3126727 0.9498609 268.987854 30.0818043)" class="st7 st2 st3">t</text>
<text transform="matrix(0.85 0 -0.3126727 0.9498609 271.5220337 30.0818043)" class="st2 st3">e</text>
<text transform="matrix(0.85 0 -0.3126727 0.9498609 271.5220337 30.0818043)" class="st7 st2 st3">e</text>
<polygon class="st6" points="446.2860107,399.3434143 584.9356079,399.3434143 584.9356079,257.9148865 446.2860107,257.9148865 "/>
<polygon class="st1" points="446.2860107,399.3434143 584.9356079,399.3434143 584.9356079,257.9148865 446.2860107,257.9148865 "/>
<text transform="matrix(0.85 0 0 1 498.0859375 268.197113)" class="st2 st4">«DataType»</text>
<text transform="matrix(0.85 0 0 1 475.7421875 276.9393005)" class="st5 st4">uro::IfcSpaceBaseQuantity</text>
<line class="st1" x1="446.2860107" y1="281.0577698" x2="584.4277344" y2="281.0577698"/>
<text transform="matrix(0.85 0 0 1 448.8203125 290.322113)" class="st2 st4">+</text>
<text transform="matrix(0.85 0 0 1 453.3896484 290.322113)" class="st2 st4"> </text>
<text transform="matrix(0.85 0 0 1 459.9921875 290.322113)" class="st2 st4">nominalHeight: gml::LengthType [0..1]</text>
<text transform="matrix(0.85 0 0 1 448.8203125 299.056488)" class="st2 st4">+</text>
<text transform="matrix(0.85 0 0 1 453.3896484 299.056488)" class="st2 st4"> </text>
<text transform="matrix(0.85 0 0 1 459.9921875 299.056488)" class="st2 st4">clearHeight: gml::LengthType [0..1]</text>
<text transform="matrix(0.85 0 0 1 448.8203125 307.7986755)" class="st2 st4">+</text>
<text transform="matrix(0.85 0 0 1 453.3896484 307.7986755)" class="st2 st4"> </text>
<text transform="matrix(0.85 0 0 1 459.9921875 307.7986755)" class="st2 st4">finishCeilingHeight: gml::LengthType [0..1]</text>
<text transform="matrix(0.85 0 0 1 448.8203125 316.540863)" class="st2 st4">+</text>
<text transform="matrix(0.85 0 0 1 453.3896484 316.540863)" class="st2 st4"> </text>
<text transform="matrix(0.85 0 0 1 459.9921875 316.540863)" class="st2 st4">grossPerimeter: gml::LengthType [0..1]</text>
<text transform="matrix(0.85 0 0 1 448.8203125 325.275238)" class="st2 st4">+</text>
<text transform="matrix(0.85 0 0 1 453.3896484 325.275238)" class="st2 st4"> </text>
<text transform="matrix(0.85 0 0 1 459.9921875 325.275238)" class="st2 st4">netPerimeter: gml::LengthType [0..1]</text>
<text transform="matrix(0.85 0 0 1 448.8203125 334.025238)" class="st2 st4">+</text>
<text transform="matrix(0.85 0 0 1 453.3896484 334.025238)" class="st2 st4"> </text>
<text transform="matrix(0.85 0 0 1 459.9921875 334.025238)" class="st2 st4">grossCeilingArea: gml::MeasureType [0..1]</text>
<text transform="matrix(0.85 0 0 1 448.8203125 342.7674255)" class="st2 st4">+</text>
<text transform="matrix(0.85 0 0 1 453.3896484 342.7674255)" class="st2 st4"> </text>
<text transform="matrix(0.85 0 0 1 459.9921875 342.7674255)" class="st2 st4">grossFloorArea: gml::MeasureType [0..1]</text>
<text transform="matrix(0.85 0 0 1 448.8203125 351.509613)" class="st2 st4">+</text>
<text transform="matrix(0.85 0 0 1 453.3896484 351.509613)" class="st2 st4"> </text>
<text transform="matrix(0.85 0 0 1 459.9921875 351.509613)" class="st2 st4">netCeilingArea: gml::MeasureType [0..1]</text>
<text transform="matrix(0.85 0 0 1 448.8203125 360.259613)" class="st2 st4">+</text>
<text transform="matrix(0.85 0 0 1 453.3896484 360.259613)" class="st2 st4"> </text>
<text transform="matrix(0.85 0 0 1 459.9921875 360.259613)" class="st2 st4">netFloorArea: gml::MeasureType [0..1]</text>
<text transform="matrix(0.85 0 0 1 448.8203125 369.0018005)" class="st2 st4">+</text>
<text transform="matrix(0.85 0 0 1 453.3896484 369.0018005)" class="st2 st4"> </text>
<text transform="matrix(0.85 0 0 1 459.9921875 369.0018005)" class="st2 st4">grossWallArea: gml::MeasureType [0..1]</text>
<text transform="matrix(0.85 0 0 1 448.8203125 377.743988)" class="st2 st4">+</text>
<text transform="matrix(0.85 0 0 1 453.3896484 377.743988)" class="st2 st4"> </text>
<text transform="matrix(0.85 0 0 1 459.9921875 377.743988)" class="st2 st4">netWallArea: gml::MeasureType [0..1]</text>
<text transform="matrix(0.85 0 0 1 448.8203125 386.478363)" class="st2 st4">+</text>
<text transform="matrix(0.85 0 0 1 453.3896484 386.478363)" class="st2 st4"> </text>
<text transform="matrix(0.85 0 0 1 459.9921875 386.478363)" class="st2 st4">grossVolume: gml::MeasureType [0..1]</text>
<text transform="matrix(0.85 0 0 1 448.8203125 395.228363)" class="st2 st4">+</text>
<text transform="matrix(0.85 0 0 1 453.3896484 395.228363)" class="st2 st4"> </text>
<text transform="matrix(0.85 0 0 1 459.9921875 395.228363)" class="st2 st4">netVolume: gml::MeasureType [0..1]</text>
<polygon class="st6" points="324.3962097,330.4291687 436.12854,330.4291687 436.12854,299.572052 324.3962097,299.572052 "/>
<polygon class="st1" points="324.3962097,330.4291687 436.12854,330.4291687 436.12854,299.572052 324.3962097,299.572052 "/>
<text transform="matrix(0.85 0 0 1 357.9140625 308.306488)" class="st2 st4">«enumeration»</text>
<text transform="matrix(0.85 0 0 1 328.96875 317.056488)" class="st5 st4">uro::IfcElementCompositionEnum</text>
<polygon class="st6" points="141.561554,432.2577209 322.8725891,432.2577209 322.8725891,381.8576965 141.561554,381.8576965 "/>
<polygon class="st1" points="141.561554,432.2577209 322.8725891,432.2577209 322.8725891,381.8576965 141.561554,381.8576965 "/>
<text transform="matrix(0.85 0 0 1 214.6953125 392.1424255)" class="st2 st4">«DataType»</text>
<text transform="matrix(0.85 0 0 1 212.6640625 400.884613)" class="st5 st4">uro::IfcSpace</text>
<line class="st1" x1="141.561554" y1="405.0005798" x2="322.3647156" y2="405.0005798"/>
<text transform="matrix(0.85 0 0 1 144.1015625 414.2518005)" class="st2 st4">+</text>
<text transform="matrix(0.85 0 0 1 148.6708984 414.2518005)" class="st2 st4"> </text>
<text transform="matrix(0.85 0 0 1 155.2734375 414.2518005)" class="st2 st4">interiorOrExteriorSpace: ifcInternalOrExternalEnum [0..1]</text>
<text transform="matrix(0.85 0 0 1 144.1015625 422.993988)" class="st2 st4">+</text>
<text transform="matrix(0.85 0 0 1 148.6708984 422.993988)" class="st2 st4"> </text>
<text transform="matrix(0.85 0 0 1 155.2734375 422.993988)" class="st2 st4">elevationWithFlooring: gml::LengthType [0..1]</text>
<polygon class="st6" points="324.3962097,365.9148865 436.12854,365.9148865 436.12854,335.0577698 324.3962097,335.0577698 "/>
<polygon class="st1" points="324.3962097,365.9148865 436.12854,365.9148865 436.12854,335.0577698 324.3962097,335.0577698 "/>
<text transform="matrix(0.85 0 0 1 357.9140625 343.790863)" class="st2 st4">«enumeration»</text>
<text transform="matrix(0.85 0 0 1 333.03125 352.540863)" class="st5 st4">uro::ifcInternalOrExternalEnum</text>
<polygon class="st6" points="70.4591675,222.4291687 161.8765259,222.4291687 161.8765259,180.7720032 70.4591675,180.7720032 "/>
<polygon class="st1" points="70.4591675,222.4291687 161.8765259,222.4291687 161.8765259,180.7720032 70.4591675,180.7720032 "/>
<text transform="matrix(0.85 0 0 1 98.390625 191.0569763)" class="st2 st4">«DataType»</text>
<text transform="matrix(0.85 0 -0.3126727 0.9498609 81.1314926 199.7961578)" class="st2 st3">u</text>
<text transform="matrix(0.85 0 -0.3126727 0.9498609 81.1314926 199.7961578)" class="st7 st2 st3">u</text>
<text transform="matrix(0.85 0 -0.3126727 0.9498609 85.1910629 199.7961578)" class="st2 st3">r</text>
<text transform="matrix(0.85 0 -0.3126727 0.9498609 85.1910629 199.7961578)" class="st7 st2 st3">r</text>
<text transform="matrix(0.85 0 -0.3126727 0.9498609 87.7242661 199.7961578)" class="st2 st3">o</text>
<text transform="matrix(0.85 0 -0.3126727 0.9498609 87.7242661 199.7961578)" class="st7 st2 st3">o</text>
<text transform="matrix(0.85 0 -0.3126727 0.9498609 91.7848129 199.7961578)" class="st2 st3">::</text>
<text transform="matrix(0.85 0 -0.3126727 0.9498609 91.7848129 199.7961578)" class="st7 st2 st3">::</text>
<text transform="matrix(0.85 0 -0.3126727 0.9498609 94.8189926 199.7961578)" class="st2 st3">I</text>
<text transform="matrix(0.85 0 -0.3126727 0.9498609 94.8189926 199.7961578)" class="st7 st2 st3">I</text>
<text transform="matrix(0.85 0 -0.3126727 0.9498609 96.8463364 199.7961578)" class="st2 st3">f</text>
<text transform="matrix(0.85 0 -0.3126727 0.9498609 96.8463364 199.7961578)" class="st7 st2 st3">f</text>
<text transform="matrix(0.85 0 -0.3126727 0.9498609 98.8795395 199.7961578)" class="st2 st3">c</text>
<text transform="matrix(0.85 0 -0.3126727 0.9498609 98.8795395 199.7961578)" class="st7 st2 st3">c</text>
<text transform="matrix(0.85 0 -0.3126727 0.9498609 101.9293442 199.7961578)" class="st2 st3">O</text>
<text transform="matrix(0.85 0 -0.3126727 0.9498609 101.9293442 199.7961578)" class="st7 st2 st3">O</text>
<text transform="matrix(0.85 0 -0.3126727 0.9498609 107.0064926 199.7961578)" class="st2 st3">b</text>
<text transform="matrix(0.85 0 -0.3126727 0.9498609 107.0064926 199.7961578)" class="st7 st2 st3">b</text>
<text transform="matrix(0.85 0 -0.3126727 0.9498609 111.0660629 199.7961578)" class="st2 st3">j</text>
<text transform="matrix(0.85 0 -0.3126727 0.9498609 111.0660629 199.7961578)" class="st7 st2 st3">j</text>
<text transform="matrix(0.85 0 -0.3126727 0.9498609 112.5924301 199.7961578)" class="st2 st3">e</text>
<text transform="matrix(0.85 0 -0.3126727 0.9498609 112.5924301 199.7961578)" class="st7 st2 st3">e</text>
<text transform="matrix(0.85 0 -0.3126727 0.9498609 116.1441879 199.7961578)" class="st2 st3">c</text>
<text transform="matrix(0.85 0 -0.3126727 0.9498609 116.1441879 199.7961578)" class="st7 st2 st3">c</text>
<text transform="matrix(0.85 0 -0.3126727 0.9498609 119.1939926 199.7961578)" class="st2 st3">t</text>
<text transform="matrix(0.85 0 -0.3126727 0.9498609 119.1939926 199.7961578)" class="st7 st2 st3">t</text>
<text transform="matrix(0.85 0 -0.3126727 0.9498609 121.7281723 199.7961578)" class="st2 st3">D</text>
<text transform="matrix(0.85 0 -0.3126727 0.9498609 121.7281723 199.7961578)" class="st7 st2 st3">D</text>
<text transform="matrix(0.85 0 -0.3126727 0.9498609 126.3043442 199.7961578)" class="st2 st3">e</text>
<text transform="matrix(0.85 0 -0.3126727 0.9498609 126.3043442 199.7961578)" class="st7 st2 st3">e</text>
<text transform="matrix(0.85 0 -0.3126727 0.9498609 129.8560944 199.7961578)" class="st2 st3">fi</text>
<text transform="matrix(0.85 0 -0.3126727 0.9498609 129.8560944 199.7961578)" class="st7 st2 st3">fi</text>
<text transform="matrix(0.85 0 -0.3126727 0.9498609 133.8043365 199.7961578)" class="st2 st3">n</text>
<text transform="matrix(0.85 0 -0.3126727 0.9498609 133.8043365 199.7961578)" class="st7 st2 st3">n</text>
<text transform="matrix(0.85 0 -0.3126727 0.9498609 137.8639069 199.7961578)" class="st2 st3">i</text>
<text transform="matrix(0.85 0 -0.3126727 0.9498609 137.8639069 199.7961578)" class="st7 st2 st3">i</text>
<text transform="matrix(0.85 0 -0.3126727 0.9498609 139.390274 199.7961578)" class="st2 st3">t</text>
<text transform="matrix(0.85 0 -0.3126727 0.9498609 139.390274 199.7961578)" class="st7 st2 st3">t</text>
<text transform="matrix(0.85 0 -0.3126727 0.9498609 141.9244537 199.7961578)" class="st2 st3">i</text>
<text transform="matrix(0.85 0 -0.3126727 0.9498609 141.9244537 199.7961578)" class="st7 st2 st3">i</text>
<text transform="matrix(0.85 0 -0.3126727 0.9498609 143.4508209 199.7961578)" class="st2 st3">o</text>
<text transform="matrix(0.85 0 -0.3126727 0.9498609 143.4508209 199.7961578)" class="st7 st2 st3">o</text>
<text transform="matrix(0.85 0 -0.3126727 0.9498609 147.5113678 199.7961578)" class="st2 st3">n</text>
<text transform="matrix(0.85 0 -0.3126727 0.9498609 147.5113678 199.7961578)" class="st7 st2 st3">n</text>
<polygon class="st6" points="70.4591675,288.7720032 164.9237671,288.7720032 164.9237671,247.6291809 70.4591675,247.6291809 "/>
<polygon class="st1" points="70.4591675,288.7720032 164.9237671,288.7720032 164.9237671,247.6291809 70.4591675,247.6291809 "/>
<text transform="matrix(0.85 0 0 1 99.9140625 257.915863)" class="st2 st4">«DataType»</text>
<text transform="matrix(0.85 0 -0.3126727 0.9498609 97.3725662 266.6565247)" class="st2 st3">u</text>
<text transform="matrix(0.85 0 -0.3126727 0.9498609 97.3725662 266.6565247)" class="st7 st2 st3">u</text>
<text transform="matrix(0.85 0 -0.3126727 0.9498609 101.4321365 266.6565247)" class="st2 st3">r</text>
<text transform="matrix(0.85 0 -0.3126727 0.9498609 101.4321365 266.6565247)" class="st7 st2 st3">r</text>
<text transform="matrix(0.85 0 -0.3126727 0.9498609 103.9653397 266.6565247)" class="st2 st3">o</text>
<text transform="matrix(0.85 0 -0.3126727 0.9498609 103.9653397 266.6565247)" class="st7 st2 st3">o</text>
<text transform="matrix(0.85 0 -0.3126727 0.9498609 108.0258865 266.6565247)" class="st2 st3">::</text>
<text transform="matrix(0.85 0 -0.3126727 0.9498609 108.0258865 266.6565247)" class="st7 st2 st3">::</text>
<text transform="matrix(0.85 0 -0.3126727 0.9498609 111.0600662 266.6565247)" class="st2 st3">I</text>
<text transform="matrix(0.85 0 -0.3126727 0.9498609 111.0600662 266.6565247)" class="st7 st2 st3">I</text>
<text transform="matrix(0.85 0 -0.3126727 0.9498609 113.08741 266.6565247)" class="st2 st3">f</text>
<text transform="matrix(0.85 0 -0.3126727 0.9498609 113.08741 266.6565247)" class="st7 st2 st3">f</text>
<text transform="matrix(0.85 0 -0.3126727 0.9498609 115.1206131 266.6565247)" class="st2 st3">c</text>
<text transform="matrix(0.85 0 -0.3126727 0.9498609 115.1206131 266.6565247)" class="st7 st2 st3">c</text>
<text transform="matrix(0.85 0 -0.3126727 0.9498609 118.1704178 266.6565247)" class="st2 st3">O</text>
<text transform="matrix(0.85 0 -0.3126727 0.9498609 118.1704178 266.6565247)" class="st7 st2 st3">O</text>
<text transform="matrix(0.85 0 -0.3126727 0.9498609 123.2475662 266.6565247)" class="st2 st3">b</text>
<text transform="matrix(0.85 0 -0.3126727 0.9498609 123.2475662 266.6565247)" class="st7 st2 st3">b</text>
<text transform="matrix(0.85 0 -0.3126727 0.9498609 127.3071365 266.6565247)" class="st2 st3">j</text>
<text transform="matrix(0.85 0 -0.3126727 0.9498609 127.3071365 266.6565247)" class="st7 st2 st3">j</text>
<text transform="matrix(0.85 0 -0.3126727 0.9498609 128.8335114 266.6565247)" class="st2 st3">e</text>
<text transform="matrix(0.85 0 -0.3126727 0.9498609 128.8335114 266.6565247)" class="st7 st2 st3">e</text>
<text transform="matrix(0.85 0 -0.3126727 0.9498609 132.3852692 266.6565247)" class="st2 st3">ct</text>
<text transform="matrix(0.85 0 -0.3126727 0.9498609 132.3852692 266.6565247)" class="st7 st2 st3">ct</text>
<line class="st1" x1="70.4591675" y1="270.7720032" x2="164.4158936" y2="270.7720032"/>
<text transform="matrix(0.85 0 0 1 72.9921875 280.025238)" class="st2 st4">+</text>
<text transform="matrix(0.85 0 0 1 77.5615234 280.025238)" class="st2 st4"> </text>
<text transform="matrix(0.85 0 0 1 84.171875 280.025238)" class="st2 st4">objectType: xs::string [0..1]</text>
<polygon class="st6" points="141.561554,365.4006042 312.2072449,365.4006042 312.2072449,320.1434631 141.561554,320.1434631 "/>
<polygon class="st1" points="141.561554,365.4006042 312.2072449,365.4006042 312.2072449,320.1434631 141.561554,320.1434631 "/>
<text transform="matrix(0.85 0 0 1 209.109375 330.4236755)" class="st2 st4">«DataType»</text>
<text transform="matrix(0.85 0 0 1 179.6484375 339.165863)" class="st5 st4">uro::IfcSpatialStructureElement</text>
<line class="st1" x1="141.561554" y1="343.2862854" x2="311.6993713" y2="343.2862854"/>
<text transform="matrix(0.85 0 0 1 144.1015625 352.540863)" class="st2 st4">+</text>
<text transform="matrix(0.85 0 0 1 148.6708984 352.540863)" class="st2 st4"> </text>
<text transform="matrix(0.85 0 0 1 155.2734375 352.540863)" class="st2 st4">longName: xs::string [0..1]</text>
<text transform="matrix(0.85 0 0 1 144.1015625 361.2830505)" class="st2 st4">+</text>
<text transform="matrix(0.85 0 0 1 148.6708984 361.2830505)" class="st2 st4"> </text>
<text transform="matrix(0.85 0 0 1 155.2734375 361.2830505)" class="st2 st4">compositionType: IfcElementCompositionEnum [0..1]</text>
<polygon class="st6" points="207.5851746,288.7720032 258.3725891,288.7720032 258.3725891,247.6291809 207.5851746,247.6291809 "/>
<polygon class="st1" points="207.5851746,288.7720032 258.3725891,288.7720032 258.3725891,247.6291809 207.5851746,247.6291809 "/>
<text transform="matrix(0.85 0 0 1 215.203125 257.915863)" class="st2 st4">«DataType»</text>
<text transform="matrix(0.85 0 -0.3126727 0.9498609 210.1225739 266.6565247)" class="st2 st3">u</text>
<text transform="matrix(0.85 0 -0.3126727 0.9498609 210.1225739 266.6565247)" class="st7 st2 st3">u</text>
<text transform="matrix(0.85 0 -0.3126727 0.9498609 214.1821442 266.6565247)" class="st2 st3">r</text>
<text transform="matrix(0.85 0 -0.3126727 0.9498609 214.1821442 266.6565247)" class="st7 st2 st3">r</text>
<text transform="matrix(0.85 0 -0.3126727 0.9498609 216.7153473 266.6565247)" class="st2 st3">o</text>
<text transform="matrix(0.85 0 -0.3126727 0.9498609 216.7153473 266.6565247)" class="st7 st2 st3">o</text>
<text transform="matrix(0.85 0 -0.3126727 0.9498609 220.7758942 266.6565247)" class="st2 st3">::</text>
<text transform="matrix(0.85 0 -0.3126727 0.9498609 220.7758942 266.6565247)" class="st7 st2 st3">::</text>
<text transform="matrix(0.85 0 -0.3126727 0.9498609 223.8100739 266.6565247)" class="st2 st3">I</text>
<text transform="matrix(0.85 0 -0.3126727 0.9498609 223.8100739 266.6565247)" class="st7 st2 st3">I</text>
<text transform="matrix(0.85 0 -0.3126727 0.9498609 225.8374176 266.6565247)" class="st2 st3">f</text>
<text transform="matrix(0.85 0 -0.3126727 0.9498609 225.8374176 266.6565247)" class="st7 st2 st3">f</text>
<text transform="matrix(0.85 0 -0.3126727 0.9498609 227.8706207 266.6565247)" class="st2 st3">c</text>
<text transform="matrix(0.85 0 -0.3126727 0.9498609 227.8706207 266.6565247)" class="st7 st2 st3">c</text>
<text transform="matrix(0.85 0 -0.3126727 0.9498609 230.9204254 266.6565247)" class="st2 st3">P</text>
<text transform="matrix(0.85 0 -0.3126727 0.9498609 230.9204254 266.6565247)" class="st7 st2 st3">P</text>
<text transform="matrix(0.85 0 -0.3126727 0.9498609 234.9819489 266.6565247)" class="st2 st3">r</text>
<text transform="matrix(0.85 0 -0.3126727 0.9498609 234.9819489 266.6565247)" class="st7 st2 st3">r</text>
<text transform="matrix(0.85 0 -0.3126727 0.9498609 237.5141754 266.6565247)" class="st2 st3">o</text>
<text transform="matrix(0.85 0 -0.3126727 0.9498609 237.5141754 266.6565247)" class="st7 st2 st3">o</text>
<text transform="matrix(0.85 0 -0.3126727 0.9498609 241.5747223 266.6565247)" class="st2 st3">d</text>
<text transform="matrix(0.85 0 -0.3126727 0.9498609 241.5747223 266.6565247)" class="st7 st2 st3">d</text>
<text transform="matrix(0.85 0 -0.3126727 0.9498609 245.6342926 266.6565247)" class="st2 st3">u</text>
<text transform="matrix(0.85 0 -0.3126727 0.9498609 245.6342926 266.6565247)" class="st7 st2 st3">u</text>
<text transform="matrix(0.85 0 -0.3126727 0.9498609 249.6938629 266.6565247)" class="st2 st3">ct</text>
<text transform="matrix(0.85 0 -0.3126727 0.9498609 249.6938629 266.6565247)" class="st7 st2 st3">ct</text>
<polygon class="st6" points="177.1127319,166.3719788 310.1757507,166.3719788 310.1757507,103.6291885 177.1127319,103.6291885 "/>
<polygon class="st1" points="177.1127319,166.3719788 310.1757507,166.3719788 310.1757507,103.6291885 177.1127319,103.6291885 "/>
<text transform="matrix(0.85 0 0 1 225.8671875 113.9163589)" class="st2 st4">«DataType»</text>
<text transform="matrix(0.85 0 0 1 198.4453125 122.6507339)" class="st5 st4">uro::IfcClassificationReference</text>
<line class="st1" x1="177.1127319" y1="126.7720108" x2="309.6678772" y2="126.7720108"/>
<text transform="matrix(0.85 0 0 1 179.6484375 136.0257263)" class="st2 st4">+</text>
<text transform="matrix(0.85 0 0 1 184.2177734 136.0257263)" class="st2 st4"> </text>
<text transform="matrix(0.85 0 0 1 190.828125 136.0257263)" class="st2 st4">location: xs::anyURI [0..1]</text>
<text transform="matrix(0.85 0 0 1 179.6484375 144.7757263)" class="st2 st4">+</text>
<text transform="matrix(0.85 0 0 1 184.2177734 144.7757263)" class="st2 st4"> </text>
<text transform="matrix(0.85 0 0 1 190.828125 144.7757263)" class="st2 st4">itemReference: gml::CodeType [0..1]</text>
<text transform="matrix(0.85 0 0 1 179.6484375 153.5101013)" class="st2 st4">+</text>
<text transform="matrix(0.85 0 0 1 184.2177734 153.5101013)" class="st2 st4"> </text>
<text transform="matrix(0.85 0 0 1 190.828125 153.5101013)" class="st2 st4">name: xs::string [0..1]</text>
<text transform="matrix(0.85 0 0 1 179.6484375 162.2522888)" class="st2 st4">+</text>
<text transform="matrix(0.85 0 0 1 184.2177734 162.2522888)" class="st2 st4"> </text>
<text transform="matrix(0.85 0 0 1 190.828125 162.2522888)" class="st2 st4">referencedSource: IfcClassification [0..1]</text>
<polygon class="st6" points="177.1127319,238.886322 269.5458069,238.886322 269.5458069,176.1434631 177.1127319,176.1434631 "/>
<polygon class="st1" points="177.1127319,238.886322 269.5458069,238.886322 269.5458069,176.1434631 177.1127319,176.1434631 "/>
<text transform="matrix(0.85 0 0 1 205.5546875 186.4319763)" class="st2 st4">«DataType»</text>
<text transform="matrix(0.85 0 0 1 193.3671875 195.1741638)" class="st5 st4">uro::IfcClassification</text>
<line class="st1" x1="177.1127319" y1="199.2862854" x2="269.0379333" y2="199.2862854"/>
<text transform="matrix(0.85 0 0 1 179.6484375 208.5413513)" class="st2 st4">+</text>
<text transform="matrix(0.85 0 0 1 184.2177734 208.5413513)" class="st2 st4"> </text>
<text transform="matrix(0.85 0 0 1 190.828125 208.5413513)" class="st2 st4">source: xs::string [0..1]</text>
<text transform="matrix(0.85 0 0 1 179.6484375 217.2835388)" class="st2 st4">+</text>
<text transform="matrix(0.85 0 0 1 184.2177734 217.2835388)" class="st2 st4"> </text>
<text transform="matrix(0.85 0 0 1 190.828125 217.2835388)" class="st2 st4">edition: xs::string [0..1]</text>
<text transform="matrix(0.85 0 0 1 179.6484375 226.025238)" class="st2 st4">+</text>
<text transform="matrix(0.85 0 0 1 184.2177734 226.025238)" class="st2 st4"> </text>
<text transform="matrix(0.85 0 0 1 190.828125 226.025238)" class="st2 st4">editionDate: xs::date [0..1]</text>
<text transform="matrix(0.85 0 0 1 179.6484375 234.775238)" class="st2 st4">+</text>
<text transform="matrix(0.85 0 0 1 184.2177734 234.775238)" class="st2 st4"> </text>
<text transform="matrix(0.85 0 0 1 190.828125 234.775238)" class="st2 st4">name: xs::string [0..1]</text>
<polygon class="st6" points="324.3962097,236.3148499 468.6324463,236.3148499 468.6324463,103.6291885 324.3962097,103.6291885 "/>
<polygon class="st1" points="324.3962097,236.3148499 468.6324463,236.3148499 468.6324463,103.6291885 324.3962097,103.6291885 "/>
<text transform="matrix(0.85 0 0 1 378.734375 113.9163589)" class="st2 st4">«DataType»</text>
<text transform="matrix(0.85 0 0 1 356.390625 122.6507339)" class="st5 st4">uro::IfcPsetSpaceCommon</text>
<line class="st1" x1="324.3962097" y1="126.7720108" x2="468.1245728" y2="126.7720108"/>
<text transform="matrix(0.85 0 0 1 326.9375 136.0257263)" class="st2 st4">+</text>
<text transform="matrix(0.85 0 0 1 331.5068359 136.0257263)" class="st2 st4"> </text>
<text transform="matrix(0.85 0 0 1 338.109375 136.0257263)" class="st2 st4">referene: xs::string [0..1]</text>
<text transform="matrix(0.85 0 0 1 326.9375 144.7757263)" class="st2 st4">+</text>
<text transform="matrix(0.85 0 0 1 331.5068359 144.7757263)" class="st2 st4"> </text>
<text transform="matrix(0.85 0 0 1 338.109375 144.7757263)" class="st2 st4">category: xs::string [0..1]</text>
<text transform="matrix(0.85 0 0 1 326.9375 153.5101013)" class="st2 st4">+</text>
<text transform="matrix(0.85 0 0 1 331.5068359 153.5101013)" class="st2 st4"> </text>
<text transform="matrix(0.85 0 0 1 338.109375 153.5101013)" class="st2 st4">floorCovering: xs::string [0..1]</text>
<text transform="matrix(0.85 0 0 1 326.9375 162.2522888)" class="st2 st4">+</text>
<text transform="matrix(0.85 0 0 1 331.5068359 162.2522888)" class="st2 st4"> </text>
<text transform="matrix(0.85 0 0 1 338.109375 162.2522888)" class="st2 st4">wallCovering: xs::string [0..1]</text>
<text transform="matrix(0.85 0 0 1 326.9375 171.0022888)" class="st2 st4">+</text>
<text transform="matrix(0.85 0 0 1 331.5068359 171.0022888)" class="st2 st4"> </text>
<text transform="matrix(0.85 0 0 1 338.109375 171.0022888)" class="st2 st4">ceilingCovering: xs::string [0..1]</text>
<text transform="matrix(0.85 0 0 1 326.9375 179.7444763)" class="st2 st4">+</text>
<text transform="matrix(0.85 0 0 1 331.5068359 179.7444763)" class="st2 st4"> </text>
<text transform="matrix(0.85 0 0 1 338.109375 179.7444763)" class="st2 st4">skirtingBoard: xs::string [0..1]</text>
<text transform="matrix(0.85 0 0 1 326.9375 188.4788513)" class="st2 st4">+</text>
<text transform="matrix(0.85 0 0 1 331.5068359 188.4788513)" class="st2 st4"> </text>
<text transform="matrix(0.85 0 0 1 338.109375 188.4788513)" class="st2 st4">grossPlannedArea: gml::MeasureType [0..1]</text>
<text transform="matrix(0.85 0 0 1 326.9375 197.2288513)" class="st2 st4">+</text>
<text transform="matrix(0.85 0 0 1 331.5068359 197.2288513)" class="st2 st4"> </text>
<text transform="matrix(0.85 0 0 1 338.109375 197.2288513)" class="st2 st4">netPlannedArea: gml::MeasureType [0..1]</text>
<text transform="matrix(0.85 0 0 1 326.9375 205.9710388)" class="st2 st4">+</text>
<text transform="matrix(0.85 0 0 1 331.5068359 205.9710388)" class="st2 st4"> </text>
<text transform="matrix(0.85 0 0 1 338.109375 205.9710388)" class="st2 st4">publiclyAccessible: xs::boolean [0..1]</text>
<text transform="matrix(0.85 0 0 1 326.9375 214.7132263)" class="st2 st4">+</text>
<text transform="matrix(0.85 0 0 1 331.5068359 214.7132263)" class="st2 st4"> </text>
<text transform="matrix(0.85 0 0 1 338.109375 214.7132263)" class="st2 st4">handicapAccessible: xs::boolean [0..1]</text>
<text transform="matrix(0.85 0 0 1 326.9375 223.4549255)" class="st2 st4">+</text>
<text transform="matrix(0.85 0 0 1 331.5068359 223.4549255)" class="st2 st4"> </text>
<text transform="matrix(0.85 0 0 1 338.109375 223.4549255)" class="st2 st4">concealedFlooring: xs::boolean [0..1]</text>
<text transform="matrix(0.85 0 0 1 326.9375 232.197113)" class="st2 st4">+</text>
<text transform="matrix(0.85 0 0 1 331.5068359 232.197113)" class="st2 st4"> </text>
<text transform="matrix(0.85 0 0 1 338.109375 232.197113)" class="st2 st4">concealedCeiling: xs::boolean [0..1]</text>
<line class="st1" x1="128.3568115" y1="103.6291885" x2="128.3568115" y2="78.4291763"/>
<line class="st1" x1="128.3568115" y1="78.4291763" x2="250.7544861" y2="78.4291763"/>
<line class="st1" x1="250.7544861" y1="78.4291763" x2="250.7544861" y2="53.2291489"/>
<polyline class="st8" points="253.8017273,61.4577408 247.7072449,61.4577408 250.7544861,53.2291489 253.8017273,61.4577408 "/>
<polygon class="st1" points="253.8017273,61.4577408 247.7072449,61.4577408 250.7544861,53.2291489 "/>
<line class="st1" x1="217.2348022" y1="31.6291122" x2="112.6127167" y2="31.6291122"/>
<polyline class="st9" points="117.691452,29.0577011 112.6127167,31.6291122 117.691452,34.2005844 122.7702026,31.6291122 
	117.691452,29.0577011 "/>
<polygon class="st1" points="117.691452,29.0577011 112.6127167,31.6291122 117.691452,34.2005844 122.7702026,31.6291122 "/>
<polyline class="st1" points="209.6166687,28.5434189 217.2348022,31.6291122 209.6166687,34.7148666 "/>
<line class="st1" x1="547.8608398" y1="257.4006042" x2="547.8608398" y2="78.4291763"/>
<line class="st1" x1="547.8608398" y1="78.4291763" x2="250.7544861" y2="78.4291763"/>
<line class="st1" x1="227.3922729" y1="381.3434143" x2="227.3922729" y2="365.9148865"/>
<polyline class="st8" points="230.4395142,374.1434631 224.3450317,374.1434631 227.3922729,365.9148865 230.4395142,374.1434631 
	"/>
<polygon class="st1" points="230.4395142,374.1434631 224.3450317,374.1434631 227.3922729,365.9148865 "/>
<line class="st1" x1="114.1363373" y1="180.2577209" x2="114.1363373" y2="158.6577454"/>
<polyline class="st8" points="117.1835785,166.886261 111.0890961,166.886261 114.1363373,158.6577454 117.1835785,166.886261 "/>
<polygon class="st1" points="117.1835785,166.886261 111.0890961,166.886261 114.1363373,158.6577454 "/>
<line class="st1" x1="115.1520844" y1="247.1148987" x2="115.1520844" y2="222.9434509"/>
<polyline class="st8" points="118.1993256,231.1720276 112.1048431,231.1720276 115.1520844,222.9434509 118.1993256,231.1720276 
	"/>
<polygon class="st1" points="118.1993256,231.1720276 112.1048431,231.1720276 115.1520844,222.9434509 "/>
<line class="st1" x1="230.4395142" y1="319.6291809" x2="230.4395142" y2="289.2862854"/>
<polyline class="st8" points="233.4867554,297.5148621 227.3922729,297.5148621 230.4395142,289.2862854 233.4867554,297.5148621 
	"/>
<polygon class="st1" points="233.4867554,297.5148621 227.3922729,297.5148621 230.4395142,289.2862854 "/>
<line class="st1" x1="207.077301" y1="268.200592" x2="165.4316406" y2="268.200592"/>
<polyline class="st8" points="173.5576172,265.1148987 173.5576172,271.2862854 165.4316406,268.200592 173.5576172,265.1148987 "/>
<polygon class="st1" points="173.5576172,265.1148987 173.5576172,271.2862854 165.4316406,268.200592 "/>
<line class="st1" x1="242.1206055" y1="103.1149063" x2="242.1206055" y2="78.4291763"/>
<line class="st1" x1="396.5143433" y1="103.1149063" x2="396.5143433" y2="78.4291763"/>
<text transform="matrix(0.85 0 0 1 149.1796875 25.4554214)" class="st2 st4">+ifcRoomAttribute</text>
<text transform="matrix(0.85 0 0 1 191.84375 42.4319839)" class="st2 st4">0..*</text>
</svg>
