<?xml version="1.0" encoding="utf-8"?>
<!-- Generator: Adobe Illustrator 27.4.1, SVG Export Plug-In . SVG Version: 6.00 Build 0)  -->
<svg version="1.1" id="レイヤー_1" xmlns="http://www.w3.org/2000/svg" xmlns:xlink="http://www.w3.org/1999/xlink" x="0px"
	 y="0px" viewBox="0 0 402.1 438.9" style="enable-background:new 0 0 402.1 438.9;" xml:space="preserve">
<style type="text/css">
	.st0{fill-rule:evenodd;clip-rule:evenodd;fill:#CFD1D8;}
	.st1{fill-rule:evenodd;clip-rule:evenodd;fill:#FFFFCC;}
	.st2{fill:none;stroke:#000000;stroke-width:0.8661;stroke-linecap:round;stroke-linejoin:round;stroke-miterlimit:10;}
	.st3{font-family:'YuGothicUI-Regular';}
	.st4{font-size:5.9358px;}
	.st5{font-size:5.6299px;}
	.st6{stroke:#000000;stroke-width:0.1609;stroke-miterlimit:10;}
	.st7{fill-rule:evenodd;clip-rule:evenodd;fill:#FFCCFF;}
	.st8{font-family:'YuGothicUI-Bold';}
	.st9{fill-rule:evenodd;clip-rule:evenodd;fill:#F0F0F0;}
	.st10{fill:none;stroke:#D7D7D7;stroke-width:0.4331;stroke-linecap:square;stroke-miterlimit:10;}
	.st11{fill-rule:evenodd;clip-rule:evenodd;fill:#CCFFCC;}
	.st12{fill:none;stroke:#000000;stroke-width:0.4331;stroke-linecap:square;stroke-miterlimit:10;}
	.st13{fill:#003060;}
	.st14{fill:#003060;stroke:#003060;stroke-width:0.198;stroke-miterlimit:10;}
	.st15{font-family:'MS-PGothic';}
	.st16{font-size:6.9291px;}
	.st17{fill:none;stroke:#000000;stroke-width:0.8661;stroke-linecap:round;stroke-linejoin:bevel;stroke-miterlimit:10;}
	.st18{fill-rule:evenodd;clip-rule:evenodd;}
	.st19{fill-rule:evenodd;clip-rule:evenodd;fill:#FFFFFF;}
	.st20{font-family:'Calibri';}
	.st21{font-size:4.7638px;}
</style>
<path class="st0" d="M272.2,15.2c0.6,0,1.1,0.5,1.1,1.1h0v32h0c0,0.6-0.5,1.1-1.1,1.1l0,0h0h-71.2h0c-0.6,0-1.1-0.5-1.1-1.1h0v-32
	c0-0.6,0.5-1.1,1.1-1.1v0L272.2,15.2L272.2,15.2L272.2,15.2z"/>
<path class="st1" d="M270.9,13.9c0.6,0,1.1,0.5,1.1,1.1h0v32h0c0,0.6-0.5,1.1-1.1,1.1l0,0h0h-71.2h0c-0.6,0-1.1-0.5-1.1-1.1h0V15
	c0-0.6,0.5-1.1,1.1-1.1l0,0H270.9L270.9,13.9L270.9,13.9z"/>
<path class="st2" d="M270.9,13.9c0.6,0,1.1,0.5,1.1,1.1h0v32h0c0,0.6-0.5,1.1-1.1,1.1l0,0h0h-71.2h0c-0.6,0-1.1-0.5-1.1-1.1h0V15
	c0-0.6,0.5-1.1,1.1-1.1l0,0H270.9L270.9,13.9L270.9,13.9z"/>
<text transform="matrix(0.85 0 -0.3169 0.9485 242.9419 21.2792)" class="st3 st4">_CityObject</text>
<text transform="matrix(0.85 0 0 1 216.9063 31.2217)" class="st3 st5">«FeatureType»</text>
<text transform="matrix(0.85 0 -0.3169 0.9485 204.7346 38.5961)" class="st6 st3 st4">bldg::_BoundarySurface</text>
<path class="st0" d="M107.3,15.2c0.6,0,1.1,0.5,1.1,1.1l0,0v32l0,0c0,0.6-0.5,1.1-1.1,1.1l0,0h0H62.2h0c-0.6,0-1.1-0.5-1.1-1.1h0
	v-32c0-0.6,0.5-1.1,1.1-1.1v0L107.3,15.2L107.3,15.2L107.3,15.2z"/>
<path class="st7" d="M106,13.9c0.6,0,1.1,0.5,1.1,1.1h0v32h0c0,0.6-0.5,1.1-1.1,1.1l0,0h0H60.9h0c-0.6,0-1.1-0.5-1.1-1.1h0V15
	c0-0.6,0.5-1.1,1.1-1.1l0,0H106L106,13.9L106,13.9z"/>
<path class="st2" d="M106,13.9c0.6,0,1.1,0.5,1.1,1.1h0v32h0c0,0.6-0.5,1.1-1.1,1.1l0,0h0H60.9h0c-0.6,0-1.1-0.5-1.1-1.1h0V15
	c0-0.6,0.5-1.1,1.1-1.1l0,0H106L106,13.9L106,13.9z"/>
<text transform="matrix(0.85 0 0 1 68.4532 22.5732)" class="st3 st5">«DataType»</text>
<text transform="matrix(0.85 0 -0.3169 0.9485 62.8082 29.9339)" class="st6 st3 st4">uro::IfcAttribute</text>
<path class="st0" d="M138.1,67.2c0.6,0,1.1,0.5,1.1,1.1h0v42.9h0c0,0.6-0.5,1.1-1.1,1.1c0,0,0,0,0,0h0H57.8l0,0
	c-0.6,0-1.1-0.5-1.1-1.1h0V68.3c0-0.6,0.5-1.1,1.1-1.1l0,0H138.1L138.1,67.2L138.1,67.2z"/>
<path class="st7" d="M136.8,65.9c0.6,0,1.1,0.5,1.1,1.1l0,0v42.9l0,0c0,0.6-0.5,1.1-1.1,1.1l0,0h0H56.5h0c-0.6,0-1.1-0.5-1.1-1.1h0
	V67c0-0.6,0.5-1.1,1.1-1.1l0,0H136.8L136.8,65.9L136.8,65.9z"/>
<path class="st2" d="M136.8,65.9c0.6,0,1.1,0.5,1.1,1.1l0,0v42.9l0,0c0,0.6-0.5,1.1-1.1,1.1l0,0h0H56.5h0c-0.6,0-1.1-0.5-1.1-1.1h0
	V67c0-0.6,0.5-1.1,1.1-1.1l0,0H136.8L136.8,65.9L136.8,65.9z"/>
<text transform="matrix(0.85 0 0 1 81.9063 74.5342)" class="st3 st5">«DataType»</text>
<text transform="matrix(0.85 0 -0.3169 0.9485 81.4704 81.8996)" class="st6 st3 st4">uro::IfcRoot</text>
<line class="st2" x1="55.4" y1="85.4" x2="137.9" y2="85.4"/>
<text transform="matrix(0.85 0 0 1 57.6016 93.1592)" class="st3 st5">+ globalId: xs::string [0..1]</text>
<text transform="matrix(0.85 0 0 1 57.6016 100.5185)" class="st3 st5">+ name: xs::string [0..1]</text>
<text transform="matrix(0.85 0 0 1 57.6016 107.8857)" class="st3 st5">+ description: xs::string [0..1]</text>
<path class="st0" d="M233.2,71.5c0.6,0,1.1,0.5,1.1,1.1h0v28.1h0c0,0.6-0.5,1.1-1.1,1.1l0,0h0h-75.5h0c-0.6,0-1.1-0.5-1.1-1.1h0
	V72.6c0-0.6,0.5-1.1,1.1-1.1l0,0H233.2L233.2,71.5L233.2,71.5z"/>
<path class="st7" d="M231.9,70.2c0.6,0,1.1,0.5,1.1,1.1h0v28.1l0,0c0,0.6-0.5,1.1-1.1,1.1l0,0h0h-75.5h0c-0.6,0-1.1-0.5-1.1-1.1h0
	V71.3c0-0.6,0.5-1.1,1.1-1.1l0,0H231.9L231.9,70.2L231.9,70.2z"/>
<path class="st2" d="M231.9,70.2c0.6,0,1.1,0.5,1.1,1.1h0v28.1l0,0c0,0.6-0.5,1.1-1.1,1.1l0,0h0h-75.5h0c-0.6,0-1.1-0.5-1.1-1.1h0
	V71.3c0-0.6,0.5-1.1,1.1-1.1l0,0H231.9L231.9,70.2L231.9,70.2z"/>
<text transform="matrix(0.85 0 0 1 179.1407 78.8623)" class="st3 st5">«DataType»</text>
<text transform="matrix(0.85 0 -0.3169 0.9485 164.3737 86.2344)" class="st6 st3 st4">uro::IfcObjectDefinition</text>
<path class="st0" d="M235.8,123.5c0.6,0,1.1,0.5,1.1,1.1l0,0v32v0c0,0.6-0.5,1.1-1.1,1.1c0,0,0,0,0,0h0h-78.1l0,0
	c-0.6,0-1.1-0.5-1.1-1.1h0v-32c0-0.6,0.5-1.1,1.1-1.1l0,0H235.8L235.8,123.5L235.8,123.5z"/>
<path class="st7" d="M234.5,122.2c0.6,0,1.1,0.5,1.1,1.1h0v32h0c0,0.6-0.5,1.1-1.1,1.1l0,0h0h-78.1h0c-0.6,0-1.1-0.5-1.1-1.1h0v-32
	c0-0.6,0.5-1.1,1.1-1.1l0,0H234.5L234.5,122.2L234.5,122.2z"/>
<path class="st2" d="M234.5,122.2c0.6,0,1.1,0.5,1.1,1.1h0v32h0c0,0.6-0.5,1.1-1.1,1.1l0,0h0h-78.1h0c-0.6,0-1.1-0.5-1.1-1.1h0v-32
	c0-0.6,0.5-1.1,1.1-1.1l0,0H234.5L234.5,122.2L234.5,122.2z"/>
<text transform="matrix(0.85 0 0 1 180.4376 130.8311)" class="st3 st5">«DataType»</text>
<text transform="matrix(0.85 0 -0.3169 0.9485 178.26 138.2074)" class="st6 st3 st4">uro::IfcObject</text>
<line class="st2" x1="155.3" y1="141.7" x2="235.6" y2="141.7"/>
<text transform="matrix(0.85 0 0 1 157.4376 149.4561)" class="st3 st5">+ objectType: xs::string [0..1]</text>
<path class="st0" d="M116,132.1c0.6,0,1.1,0.5,1.1,1.1h0v19.5h0c0,0.6-0.5,1.1-1.1,1.1l0,0h0H66.5h0c-0.6,0-1.1-0.5-1.1-1.1h0v-19.5
	c0-0.6,0.5-1.1,1.1-1.1v0L116,132.1L116,132.1L116,132.1z"/>
<path class="st7" d="M114.7,130.8c0.6,0,1.1,0.5,1.1,1.1l0,0v19.5v0c0,0.6-0.5,1.1-1.1,1.1l0,0h0H65.2h0c-0.6,0-1.1-0.5-1.1-1.1h0
	v-19.5c0-0.6,0.5-1.1,1.1-1.1l0,0H114.7L114.7,130.8L114.7,130.8z"/>
<path class="st2" d="M114.7,130.8c0.6,0,1.1,0.5,1.1,1.1l0,0v19.5v0c0,0.6-0.5,1.1-1.1,1.1l0,0h0H65.2h0c-0.6,0-1.1-0.5-1.1-1.1h0
	v-19.5c0-0.6,0.5-1.1,1.1-1.1l0,0H114.7L114.7,130.8L114.7,130.8z"/>
<text transform="matrix(0.85 0 0 1 74.961 139.4951)"><tspan x="0" y="0" class="st3 st5">«</tspan><tspan x="3" y="0" class="st3 st5">D</tspan><tspan x="6.9" y="0" class="st3 st5">a</tspan><tspan x="10" y="0" class="st3 st5">t</tspan><tspan x="11.7" y="0" class="st3 st5">a</tspan><tspan x="14.7" y="0" class="st3 st5">T</tspan><tspan x="17.7" y="0" class="st3 st5">y</tspan><tspan x="20.3" y="0" class="st3 st5">p</tspan><tspan x="23.8" y="0" class="st3 st5">e</tspan><tspan x="26.8" y="0" class="st3 st5">»</tspan></text>
<text transform="matrix(0.85 0 -0.3169 0.9485 70.6185 146.8622)"><tspan x="0" y="0" class="st6 st3 st4">u</tspan><tspan x="3.7" y="0" class="st6 st3 st4">r</tspan><tspan x="5.9" y="0" class="st6 st3 st4">o</tspan><tspan x="9.6" y="0" class="st6 st3 st4">::</tspan><tspan x="12.3" y="0" class="st6 st3 st4">I</tspan><tspan x="14.1" y="0" class="st6 st3 st4">f</tspan><tspan x="16" y="0" class="st6 st3 st4">c</tspan><tspan x="18.7" y="0" class="st6 st3 st4">P</tspan><tspan x="22.3" y="0" class="st6 st3 st4">r</tspan><tspan x="24.6" y="0" class="st6 st3 st4">o</tspan><tspan x="28.3" y="0" class="st6 st3 st4">d</tspan><tspan x="31.9" y="0" class="st6 st3 st4">u</tspan><tspan x="35.6" y="0" class="st6 st3 st4">ct</tspan></text>
<path class="st0" d="M120.8,184.1c0.6,0,1.1,0.5,1.1,1.1l0,0v32l0,0c0,0.6-0.5,1.1-1.1,1.1l0,0h0H62.2h0c-0.6,0-1.1-0.5-1.1-1.1h0
	v-32c0-0.6,0.5-1.1,1.1-1.1v0L120.8,184.1L120.8,184.1L120.8,184.1z"/>
<path class="st7" d="M119.5,182.8c0.6,0,1.1,0.5,1.1,1.1l0,0v32l0,0c0,0.6-0.5,1.1-1.1,1.1l0,0h0H60.9h0c-0.6,0-1.1-0.5-1.1-1.1h0
	v-32c0-0.6,0.5-1.1,1.1-1.1l0,0H119.5L119.5,182.8L119.5,182.8z"/>
<path class="st2" d="M119.5,182.8c0.6,0,1.1,0.5,1.1,1.1l0,0v32l0,0c0,0.6-0.5,1.1-1.1,1.1l0,0h0H60.9h0c-0.6,0-1.1-0.5-1.1-1.1h0
	v-32c0-0.6,0.5-1.1,1.1-1.1l0,0H119.5L119.5,182.8L119.5,182.8z"/>
<text transform="matrix(0.85 0 0 1 75.3985 191.4561)" class="st3 st5">«DataType»</text>
<text transform="matrix(0.85 0 -0.3169 0.9485 70.6167 198.8279)" class="st6 st3 st4">uro::IfcElement</text>
<line class="st2" x1="59.8" y1="202.3" x2="120.5" y2="202.3"/>
<text transform="matrix(0.85 0 0 1 61.9376 210.0967)" class="st3 st5">+ tag: xs::string [0..1]</text>
<path class="st0" d="M307.8,179.8c0.6,0,1.1,0.5,1.1,1.1l0,0v94.4l0,0c0,0.6-0.5,1.1-1.1,1.1l0,0h0H166.3h0c-0.6,0-1.1-0.5-1.1-1.1
	h0v-94.4c0-0.6,0.5-1.1,1.1-1.1l0,0H307.8L307.8,179.8L307.8,179.8z"/>
<path class="st7" d="M306.5,178.5c0.6,0,1.1,0.5,1.1,1.1l0,0V274l0,0c0,0.6-0.5,1.1-1.1,1.1l0,0h0H165h0c-0.6,0-1.1-0.5-1.1-1.1h0
	v-94.4c0-0.6,0.5-1.1,1.1-1.1l0,0H306.5L306.5,178.5L306.5,178.5z"/>
<path class="st2" d="M306.5,178.5c0.6,0,1.1,0.5,1.1,1.1l0,0V274l0,0c0,0.6-0.5,1.1-1.1,1.1l0,0h0H165h0c-0.6,0-1.1-0.5-1.1-1.1h0
	v-94.4c0-0.6,0.5-1.1,1.1-1.1l0,0H306.5L306.5,178.5L306.5,178.5z"/>
<text transform="matrix(0.85 0 0 1 220.8126 187.1357)" class="st3 st5">«DataType»</text>
<text transform="matrix(0.85 0 0 1 205.6095 194.4951)" class="st8 st5">uro::IfcBuildingElement</text>
<line class="st2" x1="163.9" y1="198" x2="307.6" y2="198"/>
<text transform="matrix(0.85 0 0 1 166.1095 205.7529)" class="st3 st5">+ elementType: gml::CodeType [0..1]</text>
<text transform="matrix(0.85 0 0 1 166.1095 213.1201)" class="st3 st5">+ predefinedType: gml::CodeType [0..1]</text>
<text transform="matrix(0.85 0 0 1 166.1095 220.4873)" class="st3 st5">+ shapeType: gml::CodeType [0..1]</text>
<text transform="matrix(0.85 0 0 1 166.1095 227.8467)" class="st3 st5">+ numberOfRiser: xs::integer [0..1]</text>
<text transform="matrix(0.85 0 0 1 166.1095 235.2061)" class="st3 st5">+ numberOfTreads: xs::integer [0..1]</text>
<text transform="matrix(0.85 0 0 1 166.1095 242.5732)" class="st3 st5">+ riserHeight: gml::LengthType [0..1]</text>
<text transform="matrix(0.85 0 0 1 166.1095 249.9248)" class="st3 st5">+ treadLength: gml::LengthType [0..1]</text>
<text transform="matrix(0.85 0 0 1 166.1095 257.292)" class="st3 st5">+ operationType: IfcTransportElementTypeEnum [0..1]</text>
<text transform="matrix(0.85 0 0 1 166.1095 264.6514)" class="st3 st5">+ capacityByWeight: gml::MeasureType [0..1]</text>
<text transform="matrix(0.85 0 0 1 166.1095 272.0186)" class="st3 st5">+ capacityByNumber: xs::integer [0..1]</text>
<path class="st0" d="M272.2,309.7c0.6,0,1.1,0.5,1.1,1.1h0v116.5l0,0c0,0.6-0.5,1.1-1.1,1.1c0,0,0,0,0,0h0H149l0,0
	c-0.6,0-1.1-0.5-1.1-1.1h0V310.8c0-0.6,0.5-1.1,1.1-1.1l0,0H272.2L272.2,309.7L272.2,309.7z"/>
<path class="st7" d="M270.9,308.4c0.6,0,1.1,0.5,1.1,1.1l0,0V426l0,0c0,0.6-0.5,1.1-1.1,1.1c0,0,0,0,0,0h0H147.7l0,0
	c-0.6,0-1.1-0.5-1.1-1.1h0V309.5c0-0.6,0.5-1.1,1.1-1.1l0,0H270.9L270.9,308.4L270.9,308.4z"/>
<path class="st2" d="M270.9,308.4c0.6,0,1.1,0.5,1.1,1.1l0,0V426l0,0c0,0.6-0.5,1.1-1.1,1.1c0,0,0,0,0,0h0H147.7l0,0
	c-0.6,0-1.1-0.5-1.1-1.1h0V309.5c0-0.6,0.5-1.1,1.1-1.1l0,0H270.9L270.9,308.4L270.9,308.4z"/>
<text transform="matrix(0.85 0 0 1 194.3282 317.0576)" class="st3 st5">«DataType»</text>
<text transform="matrix(0.85 0 0 1 194.7657 324.417)" class="st8 st5">uro::IfcWall</text>
<line class="st2" x1="146.6" y1="327.9" x2="272" y2="327.9"/>
<text transform="matrix(0.85 0 0 1 148.7501 335.6748)" class="st3 st5">+ nominalLength: gml::LengthType [0..1]</text>
<text transform="matrix(0.85 0 0 1 148.7501 343.042)" class="st3 st5">+ nominalWidth: gml::LengthType [0..1]</text>
<text transform="matrix(0.85 0 0 1 148.7501 350.4092)" class="st3 st5">+ nominalHeight: gml::LengthType [0..1]</text>
<text transform="matrix(0.85 0 0 1 148.7501 357.7686)" class="st3 st5">+ grossFootPrintArea: gml::MeasureType [0..1]</text>
<text transform="matrix(0.85 0 0 1 148.7501 365.1279)" class="st3 st5">+ netFootPrintArea: gml::MeasureType [0..1]</text>
<text transform="matrix(0.85 0 0 1 148.7501 372.4873)" class="st3 st5">+ grossSideArea: gml::MeasureType [0..1]</text>
<text transform="matrix(0.85 0 0 1 148.7501 379.8467)" class="st3 st5">+ netSideArea: gml::MeasureType [0..1]</text>
<text transform="matrix(0.85 0 0 1 148.7501 387.2139)" class="st3 st5">+ grossSideAreaLeft: gml::MeasureType [0..1]</text>
<text transform="matrix(0.85 0 0 1 148.7501 394.5732)" class="st3 st5">+ netSideAreaLeft: gml::MeasureType [0..1]</text>
<text transform="matrix(0.85 0 0 1 148.7501 401.9404)" class="st3 st5">+ grossSideAreaRight: gml::MeasureType [0..1]</text>
<text transform="matrix(0.85 0 0 1 148.7501 409.2998)" class="st3 st5">+ netSideAreaRight: gml::MeasureType [0..1]</text>
<text transform="matrix(0.85 0 0 1 148.7501 416.667)" class="st3 st5">+ grossVolume: gml::MeasureType [0..1]</text>
<text transform="matrix(0.85 0 0 1 148.7501 424.0186)" class="st3 st5">+ netVolume: gml::MeasureType [0..1]</text>
<path class="st0" d="M341.7,366c0.6,0,1.1,0.5,1.1,1.1l0,0v32l0,0c0,0.6-0.5,1.1-1.1,1.1l0,0h0h-53.8h0c-0.6,0-1.1-0.5-1.1-1.1h0
	v-32c0-0.6,0.5-1.1,1.1-1.1v0L341.7,366L341.7,366L341.7,366z"/>
<path class="st7" d="M340.4,364.7c0.6,0,1.1,0.5,1.1,1.1l0,0v32l0,0c0,0.6-0.5,1.1-1.1,1.1l0,0h0h-53.8h0c-0.6,0-1.1-0.5-1.1-1.1h0
	v-32c0-0.6,0.5-1.1,1.1-1.1l0,0H340.4L340.4,364.7L340.4,364.7z"/>
<path class="st2" d="M340.4,364.7c0.6,0,1.1,0.5,1.1,1.1l0,0v32l0,0c0,0.6-0.5,1.1-1.1,1.1l0,0h0h-53.8h0c-0.6,0-1.1-0.5-1.1-1.1h0
	v-32c0-0.6,0.5-1.1,1.1-1.1l0,0H340.4L340.4,364.7L340.4,364.7z"/>
<text transform="matrix(0.85 0 0 1 298.5001 373.3545)" class="st3 st5">«DataType»</text>
<text transform="matrix(0.85 0 0 1 289.3907 380.7217)" class="st8 st5">uro::IfcCurtainWall</text>
<path class="st0" d="M376.4,314c0.6,0,1.1,0.5,1.1,1.1l0,0v32l0,0c0,0.6-0.5,1.1-1.1,1.1l0,0l0,0h-49.5h0c-0.6,0-1.1-0.5-1.1-1.1h0
	v-32c0-0.6,0.5-1.1,1.1-1.1v0L376.4,314L376.4,314L376.4,314z"/>
<path class="st7" d="M375.1,312.7c0.6,0,1.1,0.5,1.1,1.1l0,0v32l0,0c0,0.6-0.5,1.1-1.1,1.1l0,0h0h-49.5h0c-0.6,0-1.1-0.5-1.1-1.1h0
	v-32c0-0.6,0.5-1.1,1.1-1.1l0,0H375.1L375.1,312.7L375.1,312.7z"/>
<path class="st2" d="M375.1,312.7c0.6,0,1.1,0.5,1.1,1.1l0,0v32l0,0c0,0.6-0.5,1.1-1.1,1.1l0,0h0h-49.5h0c-0.6,0-1.1-0.5-1.1-1.1h0
	v-32c0-0.6,0.5-1.1,1.1-1.1l0,0H375.1L375.1,312.7L375.1,312.7z"/>
<text transform="matrix(0.85 0 0 1 335.3985 321.3779)" class="st3 st5">«DataType»</text>
<text transform="matrix(0.85 0 0 1 335.3985 328.7451)" class="st8 st5">uro::IfcRoof</text>
<path class="st0" d="M107.3,353c0.6,0,1.1,0.5,1.1,1.1l0,0v32v0c0,0.6-0.5,1.1-1.1,1.1c0,0,0,0,0,0h0H27.4l0,0
	c-0.6,0-1.1-0.5-1.1-1.1h0v-32c0-0.6,0.5-1.1,1.1-1.1l0,0H107.3L107.3,353L107.3,353z"/>
<path class="st7" d="M106,351.7c0.6,0,1.1,0.5,1.1,1.1h0v32l0,0c0,0.6-0.5,1.1-1.1,1.1c0,0,0,0,0,0h0H26.1l0,0
	c-0.6,0-1.1-0.5-1.1-1.1l0,0v-32c0-0.6,0.5-1.1,1.1-1.1l0,0H106L106,351.7L106,351.7z"/>
<path class="st2" d="M106,351.7c0.6,0,1.1,0.5,1.1,1.1h0v32l0,0c0,0.6-0.5,1.1-1.1,1.1c0,0,0,0,0,0h0H26.1l0,0
	c-0.6,0-1.1-0.5-1.1-1.1l0,0v-32c0-0.6,0.5-1.1,1.1-1.1l0,0H106L106,351.7L106,351.7z"/>
<text transform="matrix(0.85 0 0 1 51.0938 360.3623)" class="st3 st5">«DataType»</text>
<text transform="matrix(0.85 0 0 1 33.7266 367.7295)" class="st8 st5">uro::IfcWallStandardCase</text>
<path class="st9" d="M360.1,65.9c0.7,0,1.3,0.6,1.3,1.3h0v48.9h0c0,0.7-0.6,1.3-1.3,1.3l0,0h0h-77.7h0c-0.7,0-1.3-0.6-1.3-1.3V67.2
	c0-0.7,0.6-1.3,1.3-1.3l0,0H360.1L360.1,65.9L360.1,65.9z"/>
<path class="st10" d="M360.1,65.9c0.7,0,1.3,0.6,1.3,1.3h0v48.9h0c0,0.7-0.6,1.3-1.3,1.3l0,0h0h-77.7h0c-0.7,0-1.3-0.6-1.3-1.3V67.2
	c0-0.7,0.6-1.3,1.3-1.3l0,0H360.1L360.1,65.9L360.1,65.9z"/>
<path class="st11" d="M291.3,78.9c0.6,0,1.1,0.5,1.1,1.1h0v4.8l0,0c0,0.6-0.5,1.1-1.1,1.1l0,0h0h-4.8h0c-0.6,0-1.1-0.5-1.1-1.1h0
	v-4.8c0-0.6,0.5-1.1,1.1-1.1l0,0H291.3L291.3,78.9L291.3,78.9z"/>
<path class="st12" d="M291.3,78.9c0.6,0,1.1,0.5,1.1,1.1h0v4.8l0,0c0,0.6-0.5,1.1-1.1,1.1l0,0h0h-4.8h0c-0.6,0-1.1-0.5-1.1-1.1h0
	v-4.8c0-0.6,0.5-1.1,1.1-1.1l0,0H291.3L291.3,78.9L291.3,78.9z"/>
<text transform="matrix(0.85 0 0 1 295.0313 84.9248)" class="st13 st3 st5">GMLに定義されたクラス</text>
<path class="st1" d="M291.3,87.1c0.6,0,1.1,0.5,1.1,1.1h0v4.8h0c0,0.6-0.5,1.1-1.1,1.1l0,0h0h-4.8h0c-0.6,0-1.1-0.5-1.1-1.1h0v-4.8
	c0-0.6,0.5-1.1,1.1-1.1v0L291.3,87.1L291.3,87.1L291.3,87.1z"/>
<path class="st12" d="M291.3,87.1c0.6,0,1.1,0.5,1.1,1.1h0v4.8h0c0,0.6-0.5,1.1-1.1,1.1l0,0h0h-4.8h0c-0.6,0-1.1-0.5-1.1-1.1h0v-4.8
	c0-0.6,0.5-1.1,1.1-1.1v0L291.3,87.1L291.3,87.1L291.3,87.1z"/>
<text transform="matrix(0.85 0 0 1 295.0313 93.1592)" class="st13 st3 st5">CityGMLに定義されたクラス</text>
<path class="st7" d="M291.3,95.3c0.6,0,1.1,0.5,1.1,1.1h0v4.8h0c0,0.6-0.5,1.1-1.1,1.1l0,0h0h-4.8h0c-0.6,0-1.1-0.5-1.1-1.1h0v-4.8
	c0-0.6,0.5-1.1,1.1-1.1v0L291.3,95.3L291.3,95.3L291.3,95.3z"/>
<path class="st12" d="M291.3,95.3c0.6,0,1.1,0.5,1.1,1.1h0v4.8h0c0,0.6-0.5,1.1-1.1,1.1l0,0h0h-4.8h0c-0.6,0-1.1-0.5-1.1-1.1h0v-4.8
	c0-0.6,0.5-1.1,1.1-1.1v0L291.3,95.3L291.3,95.3L291.3,95.3z"/>
<text transform="matrix(0.85 0 0 1 295.0313 101.3779)" class="st13 st3 st5">i-URに定義されたクラス</text>
<text transform="matrix(0.85 0 0 1 314.5626 74.9639)" class="st14 st15 st16">凡例</text>
<line class="st17" x1="108" y1="31.2" x2="198.2" y2="31.2"/>
<polyline class="st18" points="193.9,33.4 198.2,31.2 193.9,29.1 189.6,31.2 193.9,33.4 "/>
<polygon class="st17" points="189.6,31.2 193.9,29.1 198.2,31.2 193.9,33.4 "/>
<path class="st17" d="M108,31.2l6.5,2.6 M108,31.2l6.5-2.6"/>
<line class="st17" x1="87.6" y1="65.4" x2="87.6" y2="49"/>
<polyline class="st19" points="90.2,55.9 84.9,55.9 87.6,49 90.2,55.9 "/>
<polygon class="st17" points="90.2,55.9 84.9,55.9 87.6,49 "/>
<line class="st17" x1="154.8" y1="82.8" x2="138.8" y2="82.8"/>
<polyline class="st19" points="145.7,80.2 145.7,85.4 138.8,82.8 145.7,80.2 "/>
<polygon class="st17" points="145.7,80.2 145.7,85.4 138.8,82.8 "/>
<line class="st17" x1="190" y1="121.7" x2="190" y2="101.4"/>
<polyline class="st19" points="192.6,108.3 187.4,108.3 190,101.4 192.6,108.3 "/>
<polygon class="st17" points="192.6,108.3 187.4,108.3 190,101.4 "/>
<line class="st17" x1="116.6" y1="139.5" x2="154.8" y2="139.5"/>
<polyline class="st19" points="147.9,142.1 147.9,136.9 154.8,139.5 147.9,142.1 "/>
<polygon class="st17" points="154.8,139.5 147.9,136.9 147.9,142.1 "/>
<line class="st17" x1="92.8" y1="182.4" x2="92.3" y2="153.4"/>
<polyline class="st19" points="94.9,160.3 89.7,160.3 92.3,153.4 94.9,160.3 "/>
<polygon class="st17" points="94.9,160.3 89.7,160.3 92.3,153.4 "/>
<line class="st17" x1="163.5" y1="201.4" x2="121.4" y2="201.4"/>
<polyline class="st19" points="128.4,198.8 128.4,204 121.4,201.4 128.4,198.8 "/>
<polygon class="st17" points="128.4,198.8 128.4,204 121.4,201.4 "/>
<line class="st17" x1="206.9" y1="308" x2="206.9" y2="297.1"/>
<line class="st17" x1="206.9" y1="297.1" x2="236" y2="297.1"/>
<line class="st17" x1="236" y1="297.1" x2="236" y2="275.9"/>
<polyline class="st19" points="238.6,282.8 233.4,282.8 236,275.9 238.6,282.8 "/>
<polygon class="st17" points="238.6,282.8 233.4,282.8 236,275.9 "/>
<line class="st17" x1="300.7" y1="364.3" x2="300.7" y2="297.1"/>
<line class="st17" x1="349.7" y1="312.3" x2="349.7" y2="297.1"/>
<line class="st17" x1="349.7" y1="297.1" x2="236" y2="297.1"/>
<line class="st17" x1="108" y1="368.6" x2="146.2" y2="368.2"/>
<polyline class="st19" points="139.2,370.8 139.2,365.6 146.2,368.2 139.2,370.8 "/>
<polygon class="st17" points="146.2,368.2 139.2,365.6 139.2,370.8 "/>
<text transform="matrix(0.85 0 0 1 117.9376 22.5732)" class="st20 st21">+ifcBoundarySurfaceAttribute</text>
<text transform="matrix(0.85 0 0 1 116.6407 36.8623)" class="st20 st21">0..*</text>
</svg>
