<?xml version="1.0" encoding="utf-8"?>
<!-- Generator: Adobe Illustrator 27.4.1, SVG Export Plug-In . SVG Version: 6.00 Build 0)  -->
<svg version="1.1" id="レイヤー_1" xmlns="http://www.w3.org/2000/svg" xmlns:xlink="http://www.w3.org/1999/xlink" x="0px"
	 y="0px" viewBox="0 0 473.4 445.8" style="enable-background:new 0 0 473.4 445.8;" xml:space="preserve">
<style type="text/css">
	.st0{fill-rule:evenodd;clip-rule:evenodd;fill:#F0F0F0;}
	.st1{fill:none;stroke:#D7D7D7;stroke-width:0.4331;stroke-linecap:square;stroke-miterlimit:10;}
	.st2{fill-rule:evenodd;clip-rule:evenodd;fill:#A0FFC0;}
	.st3{fill:none;stroke:#000000;stroke-width:0.4331;stroke-linecap:square;stroke-miterlimit:10;}
	.st4{fill:#003060;}
	.st5{font-family:'YuGothicUI-Regular';}
	.st6{font-size:5.6299px;}
	.st7{fill-rule:evenodd;clip-rule:evenodd;fill:#FFFFCC;}
	.st8{fill-rule:evenodd;clip-rule:evenodd;fill:#FFCCFF;}
	.st9{fill:#003060;stroke:#003060;stroke-width:0.198;stroke-miterlimit:10;}
	.st10{font-family:'MS-PGothic';}
	.st11{font-size:6.9291px;}
	.st12{fill-rule:evenodd;clip-rule:evenodd;fill:#CFD1D8;}
	.st13{fill:none;stroke:#000000;stroke-width:0.8661;stroke-linecap:round;stroke-linejoin:round;stroke-miterlimit:10;}
	.st14{font-size:5.9358px;}
	.st15{stroke:#000000;stroke-width:0.1609;stroke-miterlimit:10;}
	.st16{font-family:'YuGothicUI-Bold';}
	.st17{fill:none;stroke:#000000;stroke-width:0.8661;stroke-linecap:round;stroke-linejoin:bevel;stroke-miterlimit:10;}
	.st18{fill-rule:evenodd;clip-rule:evenodd;}
	.st19{fill-rule:evenodd;clip-rule:evenodd;fill:#FFFFFF;}
	.st20{font-family:'Calibri';}
	.st21{font-size:4.7638px;}
</style>
<path class="st0" d="M94.9,6.2c0.7,0,1.3,0.6,1.3,1.3h0v38.1h0c0,0.7-0.6,1.3-1.3,1.3l0,0h0H17.2l0,0c-0.7,0-1.3-0.6-1.3-1.3V7.5
	c0-0.7,0.6-1.3,1.3-1.3l0,0H94.9L94.9,6.2L94.9,6.2z"/>
<path class="st1" d="M94.9,6.2c0.7,0,1.3,0.6,1.3,1.3h0v38.1h0c0,0.7-0.6,1.3-1.3,1.3l0,0h0H17.2l0,0c-0.7,0-1.3-0.6-1.3-1.3V7.5
	c0-0.7,0.6-1.3,1.3-1.3l0,0H94.9L94.9,6.2L94.9,6.2z"/>
<path class="st2" d="M26.1,19.2c0.6,0,1.1,0.5,1.1,1.1h0V25h0c0,0.6-0.5,1.1-1.1,1.1l0,0h0h-4.8h0c-0.6,0-1.1-0.5-1.1-1.1h0v-4.8
	c0-0.6,0.5-1.1,1.1-1.1l0,0H26.1L26.1,19.2L26.1,19.2z"/>
<path class="st3" d="M26.1,19.2c0.6,0,1.1,0.5,1.1,1.1h0V25h0c0,0.6-0.5,1.1-1.1,1.1l0,0h0h-4.8h0c-0.6,0-1.1-0.5-1.1-1.1h0v-4.8
	c0-0.6,0.5-1.1,1.1-1.1l0,0H26.1L26.1,19.2L26.1,19.2z"/>
<text transform="matrix(0.85 0 0 1 29.807 25.2397)" class="st4 st5 st6">GMLで定義されたクラス</text>
<path class="st7" d="M26.1,27.4c0.6,0,1.1,0.5,1.1,1.1h0v4.8h0c0,0.6-0.5,1.1-1.1,1.1l0,0h0h-4.8h0c-0.6,0-1.1-0.5-1.1-1.1h0v-4.8
	c0-0.6,0.5-1.1,1.1-1.1l0,0H26.1L26.1,27.4L26.1,27.4z"/>
<path class="st3" d="M26.1,27.4c0.6,0,1.1,0.5,1.1,1.1h0v4.8h0c0,0.6-0.5,1.1-1.1,1.1l0,0h0h-4.8h0c-0.6,0-1.1-0.5-1.1-1.1h0v-4.8
	c0-0.6,0.5-1.1,1.1-1.1l0,0H26.1L26.1,27.4L26.1,27.4z"/>
<text transform="matrix(0.85 0 0 1 29.807 33.4662)" class="st4 st5 st6">CityGMLで定義されたクラス</text>
<path class="st8" d="M26.1,35.6c0.6,0,1.1,0.5,1.1,1.1h0v4.8h0c0,0.6-0.5,1.1-1.1,1.1l0,0h0h-4.8h0c-0.6,0-1.1-0.5-1.1-1.1h0v-4.8
	c0-0.6,0.5-1.1,1.1-1.1l0,0H26.1L26.1,35.6L26.1,35.6z"/>
<path class="st3" d="M26.1,35.6c0.6,0,1.1,0.5,1.1,1.1h0v4.8h0c0,0.6-0.5,1.1-1.1,1.1l0,0h0h-4.8h0c-0.6,0-1.1-0.5-1.1-1.1h0v-4.8
	c0-0.6,0.5-1.1,1.1-1.1l0,0H26.1L26.1,35.6L26.1,35.6z"/>
<text transform="matrix(0.85 0 0 1 29.807 41.6928)" class="st4 st5 st6">i-URで定義されたクラス</text>
<text transform="matrix(0.85 0 0 1 49.3383 15.2709)" class="st9 st10 st11">凡例</text>
<path class="st12" d="M345.6,7.5c0.6,0,1.1,0.5,1.1,1.1h0v32h0c0,0.6-0.5,1.1-1.1,1.1l0,0h0h-49.5l0,0c-0.6,0-1.1-0.5-1.1-1.1h0v-32
	c0-0.6,0.5-1.1,1.1-1.1l0,0H345.6L345.6,7.5L345.6,7.5z"/>
<path class="st7" d="M344.3,6.2c0.6,0,1.1,0.5,1.1,1.1l0,0v32l0,0c0,0.6-0.5,1.1-1.1,1.1l0,0l0,0h-49.5h0c-0.6,0-1.1-0.5-1.1-1.1h0
	v-32c0-0.6,0.5-1.1,1.1-1.1l0,0H344.3L344.3,6.2L344.3,6.2z"/>
<path class="st13" d="M344.3,6.2c0.6,0,1.1,0.5,1.1,1.1l0,0v32l0,0c0,0.6-0.5,1.1-1.1,1.1l0,0l0,0h-49.5h0c-0.6,0-1.1-0.5-1.1-1.1h0
	v-32c0-0.6,0.5-1.1,1.1-1.1l0,0H344.3L344.3,6.2L344.3,6.2z"/>
<text transform="matrix(0.85 0 -0.3169 0.9485 316.2785 13.549)" class="st5 st14">_CityObject</text>
<text transform="matrix(0.85 0 0 1 301.0883 23.5053)" class="st5 st6">«FeatureType»</text>
<text transform="matrix(0.85 0 -0.3169 0.9485 300.2094 30.8733)" class="st15 st5 st14">bldg::_Opening</text>
<path class="st12" d="M214.5,11.8c0.6,0,1.1,0.5,1.1,1.1h0v23.4h0c0,0.6-0.5,1.1-1.1,1.1l0,0h0h-83.3h0c-0.6,0-1.1-0.5-1.1-1.1h0
	V12.9c0-0.6,0.5-1.1,1.1-1.1l0,0H214.5L214.5,11.8L214.5,11.8z"/>
<path class="st8" d="M213.2,10.5c0.6,0,1.1,0.5,1.1,1.1h0V35h0c0,0.6-0.5,1.1-1.1,1.1l0,0h0h-83.3h0c-0.6,0-1.1-0.5-1.1-1.1h0V11.6
	c0-0.6,0.5-1.1,1.1-1.1l0,0H213.2L213.2,10.5L213.2,10.5z"/>
<path class="st13" d="M213.2,10.5c0.6,0,1.1,0.5,1.1,1.1h0V35h0c0,0.6-0.5,1.1-1.1,1.1l0,0h0h-83.3h0c-0.6,0-1.1-0.5-1.1-1.1h0V11.6
	c0-0.6,0.5-1.1,1.1-1.1l0,0H213.2L213.2,10.5L213.2,10.5z"/>
<text transform="matrix(0.85 0 0 1 156.5492 19.1694)" class="st5 st6">«DataType»</text>
<text transform="matrix(0.85 0 -0.3169 0.9485 150.8998 26.5385)" class="st15 st5 st14">uro::IfcAttribute</text>
<path class="st12" d="M186.3,401.1c0.6,0,1.1,0.5,1.1,1.1l0,0v35.5l0,0c0,0.6-0.5,1.1-1.1,1.1c0,0,0,0,0,0h0H83.4l0,0
	c-0.6,0-1.1-0.5-1.1-1.1h0v-35.5c0-0.6,0.5-1.1,1.1-1.1l0,0H186.3L186.3,401.1L186.3,401.1z"/>
<path class="st8" d="M185,399.8c0.6,0,1.1,0.5,1.1,1.1l0,0v35.5l0,0c0,0.6-0.5,1.1-1.1,1.1c0,0,0,0,0,0h0H82.1l0,0
	c-0.6,0-1.1-0.5-1.1-1.1h0v-35.5c0-0.6,0.5-1.1,1.1-1.1l0,0H185L185,399.8L185,399.8z"/>
<path class="st13" d="M185,399.8c0.6,0,1.1,0.5,1.1,1.1l0,0v35.5l0,0c0,0.6-0.5,1.1-1.1,1.1c0,0,0,0,0,0h0H82.1l0,0
	c-0.6,0-1.1-0.5-1.1-1.1h0v-35.5c0-0.6,0.5-1.1,1.1-1.1l0,0H185L185,399.8L185,399.8z"/>
<text transform="matrix(0.85 0 0 1 118.7836 408.5053)" class="st5 st6">«DataType»</text>
<text transform="matrix(0.85 0 0 1 114.0101 415.8647)" class="st16 st6">uro::IfcWindow</text>
<line class="st13" x1="81" y1="419.3" x2="186.1" y2="419.3"/>
<text transform="matrix(0.85 0 0 1 83.1976 427.1303)" class="st5 st6">+ overallHeight: gml::LengthType [0..1]</text>
<text transform="matrix(0.85 0 0 1 83.1976 434.4897)" class="st5 st6">+ overallWidth: gml::LengthType [0..1]</text>
<path class="st12" d="M304.3,76.8c0.6,0,1.1,0.5,1.1,1.1h0V187h0c0,0.6-0.5,1.1-1.1,1.1c0,0,0,0,0,0h0H196.3l0,0
	c-0.6,0-1.1-0.5-1.1-1.1h0V77.9c0-0.6,0.5-1.1,1.1-1.1l0,0H304.3L304.3,76.8L304.3,76.8z"/>
<path class="st8" d="M303,75.5c0.6,0,1.1,0.5,1.1,1.1h0v109.1h0c0,0.6-0.5,1.1-1.1,1.1l0,0l0,0H195h0c-0.6,0-1.1-0.5-1.1-1.1h0V76.6
	c0-0.6,0.5-1.1,1.1-1.1l0,0H303L303,75.5L303,75.5z"/>
<path class="st13" d="M303,75.5c0.6,0,1.1,0.5,1.1,1.1h0v109.1h0c0,0.6-0.5,1.1-1.1,1.1l0,0l0,0H195h0c-0.6,0-1.1-0.5-1.1-1.1h0
	V76.6c0-0.6,0.5-1.1,1.1-1.1l0,0H303L303,75.5L303,75.5z"/>
<text transform="matrix(0.85 0 0 1 234.2445 84.1303)" class="st5 st6">«DataType»</text>
<text transform="matrix(0.85 0 0 1 216.018 91.4897)" class="st16 st6">uro::IfcPsetDoorCommon</text>
<line class="st13" x1="193.9" y1="95" x2="304.1" y2="95"/>
<text transform="matrix(0.85 0 0 1 196.0414 102.7631)" class="st5 st6">+ rererence: xs::string [0..1]</text>
<text transform="matrix(0.85 0 0 1 196.0414 110.1147)" class="st5 st6">+ acousticRating: xs::string [0..1]</text>
<text transform="matrix(0.85 0 0 1 196.0414 117.4819)" class="st5 st6">+ fireRating: xs::string [0..1]</text>
<text transform="matrix(0.85 0 0 1 196.0414 124.8412)" class="st5 st6">+ securityRating: xs::string [0..1]</text>
<text transform="matrix(0.85 0 0 1 196.0414 132.2084)" class="st5 st6">+ isExternal: xs::boolean [0..1]</text>
<text transform="matrix(0.85 0 0 1 196.0414 139.5678)" class="st5 st6">+ infiltration: xs::double [0..1]</text>
<text transform="matrix(0.85 0 0 1 196.0414 146.935)" class="st5 st6">+ thermalTransmittance: xs::double [0..1]</text>
<text transform="matrix(0.85 0 0 1 196.0414 154.2944)" class="st5 st6">+ glazingAreaFraction: xs::double [0..1]</text>
<text transform="matrix(0.85 0 0 1 196.0414 161.6459)" class="st5 st6">+ handicapAccessible: xs::boolean [0..1]</text>
<text transform="matrix(0.85 0 0 1 196.0414 169.0131)" class="st5 st6">+ fireExit: xs::boolean [0..1]</text>
<text transform="matrix(0.85 0 0 1 196.0414 176.3803)" class="st5 st6">+ selfClosing: xs::boolean [0..1]</text>
<text transform="matrix(0.85 0 0 1 196.0414 183.7397)" class="st5 st6">+ smokeStop: xs::boolean [0..1]</text>
<path class="st12" d="M307.8,397.2c0.6,0,1.1,0.5,1.1,1.1l0,0v35.5v0c0,0.6-0.5,1.1-1.1,1.1l0,0h0H204.9h0c-0.6,0-1.1-0.5-1.1-1.1h0
	v-35.5c0-0.6,0.5-1.1,1.1-1.1v0L307.8,397.2L307.8,397.2L307.8,397.2z"/>
<path class="st8" d="M306.5,395.9c0.6,0,1.1,0.5,1.1,1.1l0,0v35.5l0,0c0,0.6-0.5,1.1-1.1,1.1l0,0h0H203.6h0c-0.6,0-1.1-0.5-1.1-1.1
	h0V397c0-0.6,0.5-1.1,1.1-1.1v0L306.5,395.9L306.5,395.9L306.5,395.9z"/>
<path class="st13" d="M306.5,395.9c0.6,0,1.1,0.5,1.1,1.1l0,0v35.5l0,0c0,0.6-0.5,1.1-1.1,1.1l0,0h0H203.6h0c-0.6,0-1.1-0.5-1.1-1.1
	h0V397c0-0.6,0.5-1.1,1.1-1.1v0L306.5,395.9L306.5,395.9L306.5,395.9z"/>
<text transform="matrix(0.85 0 0 1 240.3226 404.6069)" class="st5 st6">«DataType»</text>
<text transform="matrix(0.85 0 0 1 239.8851 411.9741)" class="st16 st6">uro::IfcDoor</text>
<line class="st13" x1="202.6" y1="415.4" x2="307.6" y2="415.4"/>
<text transform="matrix(0.85 0 0 1 204.7289 423.2319)" class="st5 st6">+ overallHeight: gml::LengthType [0..1]</text>
<text transform="matrix(0.85 0 0 1 204.7289 430.5991)" class="st5 st6">+ overallWidth: gml::LengthType [0..1]</text>
<path class="st12" d="M460.6,81.1c0.6,0,1.1,0.5,1.1,1.1h0v87h0c0,0.6-0.5,1.1-1.1,1.1l0,0h0H352.5h0c-0.6,0-1.1-0.5-1.1-1.1h0v-87
	c0-0.6,0.5-1.1,1.1-1.1l0,0H460.6L460.6,81.1L460.6,81.1z"/>
<path class="st8" d="M459.3,79.8c0.6,0,1.1,0.5,1.1,1.1h0v87h0c0,0.6-0.5,1.1-1.1,1.1l0,0h0H351.2l0,0c-0.6,0-1.1-0.5-1.1-1.1h0v-87
	c0-0.6,0.5-1.1,1.1-1.1l0,0H459.3L459.3,79.8L459.3,79.8z"/>
<path class="st13" d="M459.3,79.8c0.6,0,1.1,0.5,1.1,1.1h0v87h0c0,0.6-0.5,1.1-1.1,1.1l0,0h0H351.2l0,0c-0.6,0-1.1-0.5-1.1-1.1h0
	v-87c0-0.6,0.5-1.1,1.1-1.1l0,0H459.3L459.3,79.8L459.3,79.8z"/>
<text transform="matrix(0.85 0 0 1 390.5023 88.4662)" class="st5 st6">«DataType»</text>
<text transform="matrix(0.85 0 0 1 367.932 95.8334)" class="st16 st6">uro::IfcPsetWindowCommon</text>
<line class="st13" x1="350.1" y1="99.3" x2="460.4" y2="99.3"/>
<text transform="matrix(0.85 0 0 1 352.307 107.0912)" class="st5 st6">+ rererence: xs::string [0..1]</text>
<text transform="matrix(0.85 0 0 1 352.307 114.4506)" class="st5 st6">+ acousticRating: xs::string [0..1]</text>
<text transform="matrix(0.85 0 0 1 352.307 121.8178)" class="st5 st6">+ fireRating: xs::string [0..1]</text>
<text transform="matrix(0.85 0 0 1 352.307 129.1694)" class="st5 st6">+ securityRating: xs::string [0..1]</text>
<text transform="matrix(0.85 0 0 1 352.307 136.5366)" class="st5 st6">+ isExternal: xs::boolean [0..1]</text>
<text transform="matrix(0.85 0 0 1 352.307 143.8959)" class="st5 st6">+ infiltration: xs::double [0..1]</text>
<text transform="matrix(0.85 0 0 1 352.307 151.2553)" class="st5 st6">+ thermalTransmittance: xs::double [0..1]</text>
<text transform="matrix(0.85 0 0 1 352.307 158.6225)" class="st5 st6">+ glazingAreaFraction: xs::double [0..1]</text>
<text transform="matrix(0.85 0 0 1 352.307 165.9897)" class="st5 st6">+ smokeStop: xs::boolean [0..1]</text>
<path class="st12" d="M180.2,146.1c0.6,0,1.1,0.5,1.1,1.1h0v30.7h0c0,0.6-0.5,1.1-1.1,1.1l0,0h0h-49h0c-0.6,0-1.1-0.5-1.1-1.1h0
	v-30.7c0-0.6,0.5-1.1,1.1-1.1l0,0H180.2L180.2,146.1L180.2,146.1z"/>
<path class="st8" d="M178.9,144.8c0.6,0,1.1,0.5,1.1,1.1h0v30.7h0c0,0.6-0.5,1.1-1.1,1.1l0,0h0h-49h0c-0.6,0-1.1-0.5-1.1-1.1h0
	v-30.7c0-0.6,0.5-1.1,1.1-1.1l0,0H178.9L178.9,144.8L178.9,144.8z"/>
<path class="st13" d="M178.9,144.8c0.6,0,1.1,0.5,1.1,1.1h0v30.7h0c0,0.6-0.5,1.1-1.1,1.1l0,0h0h-49h0c-0.6,0-1.1-0.5-1.1-1.1h0
	v-30.7c0-0.6,0.5-1.1,1.1-1.1l0,0H178.9L178.9,144.8L178.9,144.8z"/>
<text transform="matrix(0.85 0 0 1 139.6195 153.4272)" class="st5 st6">«DataType»</text>
<text transform="matrix(0.85 0 -0.3169 0.9485 148.7347 160.7912)" class="st15 st5 st14">uro::</text>
<text transform="matrix(0.85 0 -0.3169 0.9485 130.503 168.1492)" class="st15 st5 st14">IfcObjectDefinition</text>
<path class="st12" d="M105.1,146.1c0.6,0,1.1,0.5,1.1,1.1h0v32h0c0,0.6-0.5,1.1-1.1,1.1l0,0h0H27h0c-0.6,0-1.1-0.5-1.1-1.1h0v-32
	c0-0.6,0.5-1.1,1.1-1.1l0,0H105.1L105.1,146.1L105.1,146.1z"/>
<path class="st8" d="M103.8,144.8c0.6,0,1.1,0.5,1.1,1.1h0v32h0c0,0.6-0.5,1.1-1.1,1.1l0,0h0H25.7h0c-0.6,0-1.1-0.5-1.1-1.1l0,0v-32
	c0-0.6,0.5-1.1,1.1-1.1l0,0H103.8L103.8,144.8L103.8,144.8z"/>
<path class="st13" d="M103.8,144.8c0.6,0,1.1,0.5,1.1,1.1h0v32h0c0,0.6-0.5,1.1-1.1,1.1l0,0h0H25.7h0c-0.6,0-1.1-0.5-1.1-1.1l0,0
	v-32c0-0.6,0.5-1.1,1.1-1.1l0,0H103.8L103.8,144.8L103.8,144.8z"/>
<text transform="matrix(0.85 0 0 1 49.768 153.4272)" class="st5 st6">«DataType»</text>
<text transform="matrix(0.85 0 -0.3169 0.9485 47.5863 160.7912)" class="st15 st5 st14">uro::IfcObject</text>
<line class="st13" x1="24.6" y1="164.3" x2="104.9" y2="164.3"/>
<text transform="matrix(0.85 0 0 1 26.768 172.0522)" class="st5 st6">+ objectType: xs::string [0..1]</text>
<path class="st12" d="M85.1,206.7c0.6,0,1.1,0.5,1.1,1.1h0v19.5l0,0c0,0.6-0.5,1.1-1.1,1.1l0,0l0,0H44.3h0c-0.6,0-1.1-0.5-1.1-1.1h0
	v-19.5c0-0.6,0.5-1.1,1.1-1.1l0,0H85.1L85.1,206.7L85.1,206.7z"/>
<path class="st8" d="M83.8,205.4c0.6,0,1.1,0.5,1.1,1.1l0,0V226h0c0,0.6-0.5,1.1-1.1,1.1l0,0h0H43h0c-0.6,0-1.1-0.5-1.1-1.1h0v-19.5
	c0-0.6,0.5-1.1,1.1-1.1l0,0H83.8L83.8,205.4L83.8,205.4z"/>
<path class="st13" d="M83.8,205.4c0.6,0,1.1,0.5,1.1,1.1l0,0V226h0c0,0.6-0.5,1.1-1.1,1.1l0,0h0H43h0c-0.6,0-1.1-0.5-1.1-1.1h0
	v-19.5c0-0.6,0.5-1.1,1.1-1.1l0,0H83.8L83.8,205.4L83.8,205.4z"/>
<text transform="matrix(0.85 0 0 1 48.4633 214.0522)" class="st5 st6">«DataType»</text>
<text transform="matrix(0.85 0 -0.3169 0.9485 44.1255 221.4264)" class="st15 st5 st14">uro::IfcProduct</text>
<path class="st12" d="M189.8,198c0.6,0,1.1,0.5,1.1,1.1h0v32h0c0,0.6-0.5,1.1-1.1,1.1c0,0,0,0,0,0h0h-58.6l0,0
	c-0.6,0-1.1-0.5-1.1-1.1h0v-32c0-0.6,0.5-1.1,1.1-1.1l0,0H189.8L189.8,198L189.8,198z"/>
<path class="st8" d="M188.5,196.7c0.6,0,1.1,0.5,1.1,1.1h0v32h0c0,0.6-0.5,1.1-1.1,1.1c0,0,0,0,0,0h0h-58.6l0,0
	c-0.6,0-1.1-0.5-1.1-1.1h0v-32c0-0.6,0.5-1.1,1.1-1.1l0,0H188.5L188.5,196.7L188.5,196.7z"/>
<path class="st13" d="M188.5,196.7c0.6,0,1.1,0.5,1.1,1.1h0v32h0c0,0.6-0.5,1.1-1.1,1.1c0,0,0,0,0,0h0h-58.6l0,0
	c-0.6,0-1.1-0.5-1.1-1.1h0v-32c0-0.6,0.5-1.1,1.1-1.1l0,0H188.5L188.5,196.7L188.5,196.7z"/>
<text transform="matrix(0.85 0 0 1 144.393 205.3959)" class="st5 st6">«DataType»</text>
<text transform="matrix(0.85 0 -0.3169 0.9485 139.6235 212.7568)" class="st15 st5 st14">uro::IfcElement</text>
<line class="st13" x1="128.8" y1="216.2" x2="189.5" y2="216.2"/>
<text transform="matrix(0.85 0 0 1 130.9398 224.0131)" class="st5 st6">+ tag: xs::string [0..1]</text>
<path class="st12" d="M171.5,81.1c0.6,0,1.1,0.5,1.1,1.1h0v42.9h0c0,0.6-0.5,1.1-1.1,1.1l0,0h0H88.2h0c-0.6,0-1.1-0.5-1.1-1.1l0,0
	V82.2c0-0.6,0.5-1.1,1.1-1.1l0,0H171.5L171.5,81.1L171.5,81.1z"/>
<path class="st8" d="M170.2,79.8c0.6,0,1.1,0.5,1.1,1.1l0,0v42.9v0c0,0.6-0.5,1.1-1.1,1.1l0,0h0H86.9h0c-0.6,0-1.1-0.5-1.1-1.1h0
	V80.9c0-0.6,0.5-1.1,1.1-1.1l0,0H170.2L170.2,79.8L170.2,79.8z"/>
<path class="st13" d="M170.2,79.8c0.6,0,1.1,0.5,1.1,1.1l0,0v42.9v0c0,0.6-0.5,1.1-1.1,1.1l0,0h0H86.9h0c-0.6,0-1.1-0.5-1.1-1.1h0
	V80.9c0-0.6,0.5-1.1,1.1-1.1l0,0H170.2L170.2,79.8L170.2,79.8z"/>
<text transform="matrix(0.85 0 0 1 113.5726 88.4662)" class="st5 st6">«DataType»</text>
<text transform="matrix(0.85 0 -0.3169 0.9485 113.5709 95.8285)" class="st15 st5 st14">uro::IfcRoot</text>
<line class="st13" x1="85.8" y1="99.3" x2="171.3" y2="99.3"/>
<text transform="matrix(0.85 0 0 1 87.9711 107.0912)" class="st5 st6">+ globalId: xs::string [0..1]</text>
<text transform="matrix(0.85 0 0 1 87.9711 114.4506)" class="st5 st6">+ name: xs::string [0..1]</text>
<text transform="matrix(0.85 0 0 1 87.9711 121.8178)" class="st5 st6">+ description: xs::string [0..1]</text>
<path class="st12" d="M127.7,271.2c0.6,0,1.1,0.5,1.1,1.1h0v35.5h0c0,0.6-0.5,1.1-1.1,1.1c0,0,0,0,0,0h0H14l0,0
	c-0.6,0-1.1-0.5-1.1-1.1h0v-35.5c0-0.6,0.5-1.1,1.1-1.1l0,0H127.7L127.7,271.2L127.7,271.2z"/>
<path class="st8" d="M126.4,269.9c0.6,0,1.1,0.5,1.1,1.1l0,0v35.5l0,0c0,0.6-0.5,1.1-1.1,1.1l0,0h0H12.7h0c-0.6,0-1.1-0.5-1.1-1.1h0
	V271c0-0.6,0.5-1.1,1.1-1.1l0,0H126.4L126.4,269.9L126.4,269.9z"/>
<path class="st13" d="M126.4,269.9c0.6,0,1.1,0.5,1.1,1.1l0,0v35.5l0,0c0,0.6-0.5,1.1-1.1,1.1l0,0h0H12.7h0c-0.6,0-1.1-0.5-1.1-1.1
	h0V271c0-0.6,0.5-1.1,1.1-1.1l0,0H126.4L126.4,269.9L126.4,269.9z"/>
<text transform="matrix(0.85 0 0 1 54.5492 278.5834)" class="st5 st6">«DataType»</text>
<text transform="matrix(0.85 0 0 1 38.9164 285.9428)" class="st16 st6">uro::IfcOpeningElement</text>
<line class="st13" x1="11.6" y1="289.4" x2="127.5" y2="289.4"/>
<text transform="matrix(0.85 0 0 1 13.7445 297.2084)" class="st5 st6">+ nominalArea: gml::MeasureType [0..1]</text>
<text transform="matrix(0.85 0 0 1 13.7445 304.5678)" class="st5 st6">+ nominalVolume: gml::MeasureType [0..1]</text>
<path class="st12" d="M386.4,202.4c0.6,0,1.1,0.5,1.1,1.1l0,0V261l0,0c0,0.6-0.5,1.1-1.1,1.1l0,0h0H283.1h0c-0.6,0-1.1-0.5-1.1-1.1
	h0v-57.6c0-0.6,0.5-1.1,1.1-1.1l0,0H386.4L386.4,202.4L386.4,202.4z"/>
<path class="st8" d="M385.1,201.1c0.6,0,1.1,0.5,1.1,1.1h0v57.6l0,0c0,0.6-0.5,1.1-1.1,1.1l0,0h0H281.8h0c-0.6,0-1.1-0.5-1.1-1.1h0
	v-57.6c0-0.6,0.5-1.1,1.1-1.1l0,0H385.1L385.1,201.1L385.1,201.1z"/>
<path class="st13" d="M385.1,201.1c0.6,0,1.1,0.5,1.1,1.1h0v57.6l0,0c0,0.6-0.5,1.1-1.1,1.1l0,0h0H281.8h0c-0.6,0-1.1-0.5-1.1-1.1h0
	v-57.6c0-0.6,0.5-1.1,1.1-1.1l0,0H385.1L385.1,201.1L385.1,201.1z"/>
<text transform="matrix(0.85 0 0 1 318.4476 209.7241)" class="st5 st6">«DataType»</text>
<text transform="matrix(0.85 0 0 1 285.0258 217.0912)" class="st16 st6">uro::IfcPsetOpeningElementCommon</text>
<line class="st13" x1="280.7" y1="220.6" x2="386.2" y2="220.6"/>
<text transform="matrix(0.85 0 0 1 282.8617 228.3491)" class="st5 st6">+ reference: xs::string [0..1]</text>
<text transform="matrix(0.85 0 0 1 282.8617 235.7084)" class="st5 st6">+ purpose: xs::string [0..1]</text>
<text transform="matrix(0.85 0 0 1 282.8617 243.0756)" class="st5 st6">+ fireExit: xs::boolean [0..1]</text>
<text transform="matrix(0.85 0 0 1 282.8617 250.4428)" class="st5 st6">+ protectedOpening: xs::boolean [0..1]</text>
<text transform="matrix(0.85 0 0 1 282.8617 257.8022)" class="st5 st6">+ parallelJambs: xs::boolean [0..1]</text>
<path class="st12" d="M281.3,267.3c0.6,0,1.1,0.5,1.1,1.1h0v94.4h0c0,0.6-0.5,1.1-1.1,1.1c0,0,0,0,0,0l0,0H139.8l0,0
	c-0.6,0-1.1-0.5-1.1-1.1h0v-94.4c0-0.6,0.5-1.1,1.1-1.1l0,0H281.3L281.3,267.3L281.3,267.3z"/>
<path class="st8" d="M280,266c0.6,0,1.1,0.5,1.1,1.1l0,0v94.4h0c0,0.6-0.5,1.1-1.1,1.1l0,0h0H138.5h0c-0.6,0-1.1-0.5-1.1-1.1h0
	v-94.4c0-0.6,0.5-1.1,1.1-1.1v0L280,266L280,266L280,266z"/>
<path class="st13" d="M280,266c0.6,0,1.1,0.5,1.1,1.1l0,0v94.4h0c0,0.6-0.5,1.1-1.1,1.1l0,0h0H138.5h0c-0.6,0-1.1-0.5-1.1-1.1h0
	v-94.4c0-0.6,0.5-1.1,1.1-1.1v0L280,266L280,266L280,266z"/>
<text transform="matrix(0.85 0 0 1 194.3148 274.685)" class="st5 st6">«DataType»</text>
<text transform="matrix(0.85 0 0 1 179.1195 282.0522)" class="st16 st6">uro::IfcBuildingElement</text>
<line class="st13" x1="137.5" y1="285.5" x2="281.1" y2="285.5"/>
<text transform="matrix(0.85 0 0 1 139.6195 293.31)" class="st5 st6">+ elementType: gml::CodeType [0..1]</text>
<text transform="matrix(0.85 0 0 1 139.6195 300.6772)" class="st5 st6">+ predefinedType: gml::CodeType [0..1]</text>
<text transform="matrix(0.85 0 0 1 139.6195 308.0366)" class="st5 st6">+ shapeType: gml::CodeType [0..1]</text>
<text transform="matrix(0.85 0 0 1 139.6195 315.3959)" class="st5 st6">+ numberOfRiser: xs::integer [0..1]</text>
<text transform="matrix(0.85 0 0 1 139.6195 322.7631)" class="st5 st6">+ numberOfTreads: xs::integer [0..1]</text>
<text transform="matrix(0.85 0 0 1 139.6195 330.1147)" class="st5 st6">+ riserHeight: gml::LengthType [0..1]</text>
<text transform="matrix(0.85 0 0 1 139.6195 337.4819)" class="st5 st6">+ treadLength: gml::LengthType [0..1]</text>
<text transform="matrix(0.85 0 0 1 139.6195 344.8412)" class="st5 st6">+ operationType: IfcTransportElementTypeEnum [0..1]</text>
<text transform="matrix(0.85 0 0 1 139.6195 352.2084)" class="st5 st6">+ capacityByWeight: gml::MeasureType [0..1]</text>
<text transform="matrix(0.85 0 0 1 139.6195 359.5678)" class="st5 st6">+ capacityByNumber: xs::integer [0..1]</text>
<line class="st17" x1="215.1" y1="22.6" x2="293.3" y2="22.6"/>
<polyline class="st18" points="288.9,24.8 293.3,22.6 288.9,20.5 284.6,22.6 288.9,24.8 "/>
<polygon class="st17" points="284.6,22.6 288.9,20.5 293.3,22.6 288.9,24.8 "/>
<path class="st17" d="M215.1,22.6l6.5,2.6 M215.1,22.6l6.5-2.6"/>
<line class="st17" x1="133.5" y1="399.4" x2="133.5" y2="384.7"/>
<line class="st17" x1="133.5" y1="384.7" x2="209.5" y2="384.7"/>
<line class="st17" x1="209.5" y1="384.7" x2="209.5" y2="363.5"/>
<polyline class="st19" points="212.1,370.4 206.9,370.4 209.5,363.5 212.1,370.4 "/>
<polygon class="st17" points="212.1,370.4 206.9,370.4 209.5,363.5 "/>
<line class="st17" x1="235.5" y1="75" x2="235.5" y2="58.2"/>
<line class="st17" x1="171.7" y1="58.2" x2="171.7" y2="36.9"/>
<polyline class="st19" points="174.3,43.9 169.1,43.9 171.7,36.9 174.3,43.9 "/>
<polygon class="st17" points="174.3,43.9 169.1,43.9 171.7,36.9 "/>
<line class="st17" x1="255.1" y1="395.5" x2="255.1" y2="384.7"/>
<line class="st17" x1="255.1" y1="384.7" x2="209.5" y2="384.7"/>
<line class="st17" x1="407" y1="79.4" x2="407" y2="58.2"/>
<line class="st17" x1="407" y1="58.2" x2="171.7" y2="58.2"/>
<line class="st17" x1="144" y1="144.3" x2="145.3" y2="125.7"/>
<polyline class="st19" points="147.4,132.6 142.2,132.6 145.3,125.7 147.4,132.6 "/>
<polygon class="st17" points="147.4,132.6 142.2,132.6 145.3,125.7 "/>
<line class="st17" x1="105.8" y1="158.6" x2="128.3" y2="158.6"/>
<polyline class="st19" points="121.4,161.2 121.4,156 128.3,158.6 121.4,161.2 "/>
<polygon class="st17" points="128.3,158.6 121.4,156 121.4,161.2 "/>
<line class="st17" x1="65" y1="205" x2="65" y2="179.8"/>
<polyline class="st19" points="67.6,186.8 62.4,186.8 65,179.8 67.6,186.8 "/>
<polygon class="st17" points="67.6,186.8 62.4,186.8 65,179.8 "/>
<line class="st17" x1="128.3" y1="213.2" x2="85.8" y2="213.2"/>
<polyline class="st19" points="92.7,210.6 92.7,215.8 85.8,213.2 92.7,210.6 "/>
<polygon class="st17" points="92.7,210.6 92.7,215.8 85.8,213.2 "/>
<line class="st17" x1="128.8" y1="79.4" x2="128.8" y2="58.2"/>
<line class="st17" x1="128.8" y1="58.2" x2="171.7" y2="58.2"/>
<line class="st17" x1="68.9" y1="269.5" x2="68.9" y2="253"/>
<line class="st17" x1="68.9" y1="253" x2="159.2" y2="253"/>
<line class="st17" x1="159.2" y1="253" x2="159.2" y2="231.8"/>
<polyline class="st19" points="161.8,238.7 156.6,238.7 159.2,231.8 161.8,238.7 "/>
<polygon class="st17" points="161.8,238.7 156.6,238.7 159.2,231.8 "/>
<line class="st17" x1="326.3" y1="200.6" x2="326.3" y2="58.2"/>
<line class="st17" x1="207.8" y1="265.6" x2="207.8" y2="253"/>
<line class="st17" x1="207.8" y1="253" x2="159.2" y2="253"/>
<text transform="matrix(0.85 0 0 1 216.4555 19.1694)" class="st20 st21">+ifcOpeningAttribute</text>
<text transform="matrix(0.85 0 0 1 216.4555 29.1303)" class="st20 st21">0..*</text>
</svg>
