<?xml version="1.0" encoding="utf-8"?>
<!-- Generator: Adobe Illustrator 27.0.0, SVG Export Plug-In . SVG Version: 6.00 Build 0)  -->
<svg version="1.1" id="レイヤー_1" xmlns="http://www.w3.org/2000/svg" xmlns:xlink="http://www.w3.org/1999/xlink" x="0px"
	 y="0px" viewBox="0 0 735.2955322 762.4110107" style="enable-background:new 0 0 735.2955322 762.4110107;" xml:space="preserve">
<style type="text/css">
	.st0{opacity:0.5019608;fill-rule:evenodd;clip-rule:evenodd;fill:#969696;enable-background:new    ;}
	.st1{fill-rule:evenodd;clip-rule:evenodd;fill:#FFFFCC;}
	.st2{fill:none;stroke:#000000;stroke-width:1.5013124;stroke-linecap:round;stroke-linejoin:round;stroke-miterlimit:10;}
	.st3{font-family:'YuGothicUI-Regular';}
	.st4{font-size:9.7585306px;}
	.st5{font-family:'YuGothicUI-Bold';}
	.st6{fill-rule:evenodd;clip-rule:evenodd;fill:#CCFFCC;}
	.st7{font-size:10.2875204px;}
	.st8{fill-rule:evenodd;clip-rule:evenodd;fill:#FFCCFF;}
	.st9{fill-rule:evenodd;clip-rule:evenodd;fill:#F0F0F0;}
	.st10{fill:none;stroke:#D7D7D7;stroke-width:0.7506562;stroke-linecap:square;stroke-miterlimit:10;}
	.st11{fill:none;stroke:#000000;stroke-width:0.7506562;stroke-linecap:square;stroke-miterlimit:10;}
	.st12{fill:#003060;}
	.st13{font-family:'Meiryo-Bold';}
	.st14{font-size:12.010499px;}
	.st15{letter-spacing:-2.352941;}
	.st16{fill:none;stroke:#000000;stroke-width:0.2788152;stroke-miterlimit:10;}
	.st17{fill:none;stroke:#000000;stroke-width:1.5013124;stroke-linecap:round;stroke-linejoin:bevel;stroke-miterlimit:10;}
	.st18{fill-rule:evenodd;clip-rule:evenodd;fill:#FFFFFF;}
	.st19{fill-rule:evenodd;clip-rule:evenodd;}
	.st20{font-family:'Meiryo';}
	.st21{font-size:7.5065618px;}
</style>
<path class="st0" d="M647.3889771,103.4923248c1.0375366,0,1.8786621,0.84021,1.8786621,1.8766479h0.000061v89.328064
	l-0.000061,0.000061c0,1.036438-0.8411255,1.8766479-1.8786621,1.8766479l0,0l0,0h-168.330658h-0.000061
	c-1.0375366,0-1.8787231-0.84021-1.8787231-1.876709h0.000061v-89.328064c0-1.036438,0.8411255-1.8766479,1.8787231-1.8766479l0,0
	H647.3889771L647.3889771,103.4923248L647.3889771,103.4923248z"/>
<path class="st1" d="M645.1345825,101.2403717c1.0375366,0,1.8786011,0.84021,1.8786011,1.8766479h0.000061v89.328064h-0.000061
	c0,1.036499-0.8410645,1.876709-1.8786621,1.8766479c0,0.000061,0,0,0,0h0.000061h-168.330719l-0.000061,0.000061
	c-1.0375366-0.000061-1.8786621-0.84021-1.8786621-1.876709h0.000061v-89.328064
	c0-1.036438,0.8410645-1.8766479,1.8786621-1.8766479l0,0H645.1345825L645.1345825,101.2403717L645.1345825,101.2403717z"/>
<path class="st2" d="M645.1345825,101.2403717c1.0375366,0,1.8786011,0.84021,1.8786011,1.8766479h0.000061v89.328064h-0.000061
	c0,1.036499-0.8410645,1.876709-1.8786621,1.8766479c0,0.000061,0,0,0,0h0.000061h-168.330719l-0.000061,0.000061
	c-1.0375366-0.000061-1.8786621-0.84021-1.8786621-1.876709h0.000061v-89.328064
	c0-1.036438,0.8410645-1.8766479,1.8786621-1.8766479l0,0H645.1345825L645.1345825,101.2403717L645.1345825,101.2403717z"/>
<text transform="matrix(0.85 0 0 1 529.0302734 116.2552338)" class="st3 st4">«FeatureType»</text>
<text transform="matrix(0.85 0 0 1 516.2568359 129.0130463)" class="st5 st4">tran::TrafficComplex</text>
<line class="st2" x1="474.9252014" y1="135.0199127" x2="647.0132446" y2="135.0199127"/>
<text transform="matrix(0.85 0 0 1 478.6787109 148.5364838)" class="st3 st4">+</text>
<text transform="matrix(0.85 0 0 1 485.4394531 148.5364838)" class="st3 st4"> </text>
<text transform="matrix(0.85 0 0 1 495.2177734 148.5364838)" class="st3 st4">class: gml::CodeType [0..1]</text>
<text transform="matrix(0.85 0 0 1 478.6787109 161.2942963)" class="st3 st4">+</text>
<text transform="matrix(0.85 0 0 1 485.4394531 161.2942963)" class="st3 st4"> </text>
<text transform="matrix(0.85 0 0 1 495.2177734 161.2942963)" class="st3 st4">function: gml::CodeType [0..*]</text>
<text transform="matrix(0.85 0 0 1 478.6787109 174.0599213)" class="st3 st4">+</text>
<text transform="matrix(0.85 0 0 1 485.4394531 174.0599213)" class="st3 st4"> </text>
<text transform="matrix(0.85 0 0 1 495.2177734 174.0599213)" class="st3 st4">usage: gml::CodeType [0..*]</text>
<path class="st0" d="M390.3840637,103.4923248c1.0375671,0,1.8786621,0.84021,1.8786621,1.8766479h0.0000305v102.0892944h-0.0000305
	c0,1.036438-0.841095,1.8766479-1.8786926,1.8765869c0,0.000061,0,0,0,0h0.0000305H208.5267639l-0.0000305,0.000061
	c-1.0375671-0.000061-1.8786621-0.84021-1.8786621-1.8766479l0,0V105.3689728c0-1.036438,0.841095-1.8766479,1.8786926-1.8766479
	l0,0H390.3840637L390.3840637,103.4923248L390.3840637,103.4923248z"/>
<path class="st1" d="M388.1296387,101.2403717c1.0375671,0,1.8786621,0.84021,1.8786621,1.8766479h0.0000305v102.0892334
	l-0.0000305,0.000061c0,1.036377-0.841095,1.8765869-1.8786926,1.8765869l0,0h0.0000305H206.2723389h-0.0000305
	c-1.0375671,0-1.8786926-0.84021-1.8786926-1.8766479h0.0000305V103.1170197c0-1.036438,0.841095-1.8766479,1.8786926-1.8766479l0,0
	H388.1296387L388.1296387,101.2403717L388.1296387,101.2403717z"/>
<path class="st2" d="M388.1296387,101.2403717c1.0375671,0,1.8786621,0.84021,1.8786621,1.8766479h0.0000305v102.0892334
	l-0.0000305,0.000061c0,1.036377-0.841095,1.8765869-1.8786926,1.8765869l0,0h0.0000305H206.2723389h-0.0000305
	c-1.0375671,0-1.8786926-0.84021-1.8786926-1.8766479h0.0000305V103.1170197c0-1.036438,0.841095-1.8766479,1.8786926-1.8766479l0,0
	H388.1296387L388.1296387,101.2403717L388.1296387,101.2403717z"/>
<text transform="matrix(0.85 0 0 1 265.2573242 116.2552338)" class="st3 st4">«FeatureType»</text>
<text transform="matrix(0.85 0 0 1 261.5073242 129.0130463)" class="st5 st4">tran::TrafficArea</text>
<line class="st2" x1="204.3936462" y1="135.0199127" x2="390.0083313" y2="135.0199127"/>
<text transform="matrix(0.85 0 0 1 208.1479492 148.5364838)" class="st3 st4">+</text>
<text transform="matrix(0.85 0 0 1 214.9091797 148.5364838)" class="st3 st4"> </text>
<text transform="matrix(0.85 0 0 1 224.6870117 148.5364838)" class="st3 st4">class: gml::CodeType [0..1]</text>
<text transform="matrix(0.85 0 0 1 208.1479492 161.2942963)" class="st3 st4">+</text>
<text transform="matrix(0.85 0 0 1 214.9091797 161.2942963)" class="st3 st4"> </text>
<text transform="matrix(0.85 0 0 1 224.6870117 161.2942963)" class="st3 st4">funtion: gml::CodeType [0..*]</text>
<text transform="matrix(0.85 0 0 1 208.1479492 174.0599213)" class="st3 st4">+</text>
<text transform="matrix(0.85 0 0 1 214.9091797 174.0599213)" class="st3 st4"> </text>
<text transform="matrix(0.85 0 0 1 224.6870117 174.0599213)" class="st3 st4">usage: gml::CodeType [0..*]</text>
<text transform="matrix(0.85 0 0 1 208.1479492 186.8177338)" class="st3 st4">+</text>
<text transform="matrix(0.85 0 0 1 214.9091797 186.8177338)" class="st3 st4"> </text>
<text transform="matrix(0.85 0 0 1 224.6870117 186.8177338)" class="st3 st4">surfaceMaterial: gml::CodeType [0..1]</text>
<path class="st0" d="M452.0051575,412.0121155c1.0375366,0,1.8786621,0.84021,1.8786621,1.8765869l0,0v55.548584l0,0
	c0,1.036438-0.8411255,1.8766479-1.8787231,1.8765869c0,0.000061,0,0,0,0h0.000061h-108.212616l-0.000061,0.000061
	c-1.0375366-0.000061-1.8786926-0.84021-1.8786926-1.8766479h0.000061v-55.548584
	c0-1.036377,0.841095-1.8766479,1.8786926-1.8765869v-0.000061h108.212616V412.0121155L452.0051575,412.0121155z"/>
<path class="st6" d="M449.7507019,409.7601624c1.0375366,0,1.8786621,0.8401489,1.8786621,1.8765869h0.000061v55.5485229
	l-0.000061,0.000061c0,1.036377-0.8411255,1.8766479-1.8787231,1.8765869c0,0.000061,0,0,0,0h0.000061H341.5381165
	l-0.000061,0.000061c-1.0375366-0.000061-1.8786926-0.840271-1.8786926-1.876709h0.000061v-55.5485229
	c0-1.036438,0.841095-1.8766479,1.8786926-1.8765869v-0.000061h108.2125854V409.7601624L449.7507019,409.7601624z"/>
<path class="st2" d="M449.7507019,409.7601624c1.0375366,0,1.8786621,0.8401489,1.8786621,1.8765869h0.000061v55.5485229
	l-0.000061,0.000061c0,1.036377-0.8411255,1.8766479-1.8787231,1.8765869c0,0.000061,0,0,0,0h0.000061H341.5381165
	l-0.000061,0.000061c-1.0375366-0.000061-1.8786926-0.840271-1.8786926-1.876709h0.000061v-55.5485229
	c0-1.036438,0.841095-1.8766479,1.8786926-1.8765869v-0.000061h108.2125854V409.7601624L449.7507019,409.7601624z"/>
<text transform="matrix(0.85 0 -0.3165385 0.9485797 403.5213318 422.5409241)" class="st3 st7">_Geometry</text>
<text transform="matrix(0.85 0 0 1 380.2412109 439.786499)" class="st3 st4">«Type»</text>
<text transform="matrix(0.85 0 0 1 384.7490234 452.552124)" class="st5 st4">gml::</text>
<text transform="matrix(0.85 0 0 1 352.4291992 465.317749)" class="st5 st4">GeometricComplex</text>
<path class="st0" d="M229.5681152,590.6682739c1.0375671,0,1.8786621,0.8401489,1.8786621,1.8765869h0.0000305v87.0761719
	h-0.0000305c0,1.036438-0.841095,1.8766479-1.8786926,1.8766479l0,0h0.0000305H50.716713h-0.0000153
	c-1.0375671,0-1.8786926-0.84021-1.8786926-1.8766479h0.0000153v-87.0761719c0-1.036438,0.8411102-1.8766479,1.8786926-1.8765869
	v-0.000061h178.8514099V590.6682739L229.5681152,590.6682739z"/>
<path class="st8" d="M227.3136902,588.4162598c1.0375671,0,1.8786621,0.84021,1.8786621,1.8766479l0.0000305-0.000061v87.0761719
	l-0.0000305,0.000061c0,1.036438-0.841095,1.8766479-1.8786926,1.8765869c0,0.000061,0,0,0,0h0.0000305H48.4622726
	l-0.0000153,0.000061c-1.0375671-0.000061-1.8786774-0.84021-1.8786774-1.876709l0,0v-87.0761719
	c0-1.036377,0.8411102-1.8765869,1.8786926-1.8765869l0,0H227.3136902L227.3136902,588.4162598L227.3136902,588.4162598z"/>
<path class="st2" d="M227.3136902,588.4162598c1.0375671,0,1.8786621,0.84021,1.8786621,1.8766479l0.0000305-0.000061v87.0761719
	l-0.0000305,0.000061c0,1.036438-0.841095,1.8766479-1.8786926,1.8765869c0,0.000061,0,0,0,0h0.0000305H48.4622726
	l-0.0000153,0.000061c-1.0375671-0.000061-1.8786774-0.84021-1.8786774-1.876709l0,0v-87.0761719
	c0-1.036377,0.8411102-1.8765869,1.8786926-1.8765869l0,0H227.3136902L227.3136902,588.4162598L227.3136902,588.4162598z"/>
<text transform="matrix(0.85 0 0 1 120.2260742 603.4344482)" class="st3 st4">«Union»</text>
<text transform="matrix(0.85 0 0 1 87.9135742 616.1922607)" class="st5 st4">uro::ControlPointType</text>
<line class="st2" x1="46.58358" y1="622.1958008" x2="229.1923828" y2="622.1958008"/>
<text transform="matrix(0.85 0 0 1 50.3354492 635.7078857)" class="st3 st4">+</text>
<text transform="matrix(0.85 0 0 1 57.0966797 635.7078857)" class="st3 st4"> </text>
<text transform="matrix(0.85 0 0 1 66.8745117 635.7078857)" class="st3 st4">circularCurve: CircularCurveType</text>
<text transform="matrix(0.85 0 0 1 50.3354492 648.4656982)" class="st3 st4">+</text>
<text transform="matrix(0.85 0 0 1 57.0966797 648.4656982)" class="st3 st4"> </text>
<text transform="matrix(0.85 0 0 1 66.8745117 648.4656982)" class="st3 st4">transitionCurve: TransitionCurveType</text>
<text transform="matrix(0.85 0 0 1 50.3354492 661.2313232)" class="st3 st4">+</text>
<text transform="matrix(0.85 0 0 1 57.0966797 661.2313232)" class="st3 st4"> </text>
<text transform="matrix(0.85 0 0 1 66.8745117 661.2313232)" class="st3 st4">slope: SlopeType</text>
<text transform="matrix(0.85 0 0 1 50.3354492 673.9969482)" class="st3 st4">+</text>
<text transform="matrix(0.85 0 0 1 57.0966797 673.9969482)" class="st3 st4"> </text>
<text transform="matrix(0.85 0 0 1 66.8745117 673.9969482)" class="st3 st4">verticalCurve: VerticalCurveType</text>
<path class="st0" d="M394.8929443,590.6682739c1.0375366,0,1.8786316,0.8401489,1.8786316,1.8765869h0.000061v87.0761719h-0.000061
	c0,1.036438-0.841095,1.8766479-1.8786926,1.8766479l0,0h0.000061H246.1005859l0,0
	c-1.0375977,0-1.8786926-0.84021-1.8786926-1.8766479l0,0v-87.0761719c0-1.036438,0.841095-1.8766479,1.8786926-1.8765869v-0.000061
	h148.7923584V590.6682739L394.8929443,590.6682739z"/>
<path class="st8" d="M392.6385193,588.4162598c1.0375366,0,1.8786316,0.84021,1.8786316,1.8766479l0.000061-0.000061v87.0761719
	l-0.000061,0.000061c0,1.036438-0.841095,1.8766479-1.8786926,1.8765869c0,0.000061,0,0,0,0h0.000061H243.8461609
	l-0.0000305,0.000061c-1.0375671-0.000061-1.8786926-0.84021-1.8786926-1.876709h0.0000305v-87.0761719
	c0-1.036377,0.841095-1.8765869,1.8786926-1.8765869l0,0H392.6385193L392.6385193,588.4162598L392.6385193,588.4162598z"/>
<path class="st2" d="M392.6385193,588.4162598c1.0375366,0,1.8786316,0.84021,1.8786316,1.8766479l0.000061-0.000061v87.0761719
	l-0.000061,0.000061c0,1.036438-0.841095,1.8766479-1.8786926,1.8765869c0,0.000061,0,0,0,0h0.000061H243.8461609
	l-0.0000305,0.000061c-1.0375671-0.000061-1.8786926-0.84021-1.8786926-1.876709h0.0000305v-87.0761719
	c0-1.036377,0.841095-1.8765869,1.8786926-1.8765869l0,0H392.6385193L392.6385193,588.4162598L392.6385193,588.4162598z"/>
<text transform="matrix(0.85 0 0 1 292.3120117 603.4344482)" class="st3 st4">«DataType»</text>
<text transform="matrix(0.85 0 0 1 267.5151367 616.1922607)" class="st5 st4">uro::CircularCurveType</text>
<line class="st2" x1="241.9674683" y1="622.1958008" x2="394.5172119" y2="622.1958008"/>
<text transform="matrix(0.85 0 0 1 245.7260742 635.7078857)" class="st3 st4">+</text>
<text transform="matrix(0.85 0 0 1 252.4873047 635.7078857)" class="st3 st4"> </text>
<text transform="matrix(0.85 0 0 1 262.2573242 635.7078857)" class="st3 st4">radius: gml::LengthType</text>
<text transform="matrix(0.85 0 0 1 245.7260742 648.4656982)" class="st3 st4">+</text>
<text transform="matrix(0.85 0 0 1 252.4873047 648.4656982)" class="st3 st4"> </text>
<text transform="matrix(0.85 0 0 1 262.2573242 648.4656982)" class="st3 st4">intersection: xs::double</text>
<text transform="matrix(0.85 0 0 1 245.7260742 661.2313232)" class="st3 st4">+</text>
<text transform="matrix(0.85 0 0 1 252.4873047 661.2313232)" class="st3 st4"> </text>
<text transform="matrix(0.85 0 0 1 262.2573242 661.2313232)" class="st3 st4">cutLength: gml::LengthType</text>
<text transform="matrix(0.85 0 0 1 245.7260742 673.9969482)" class="st3 st4">+</text>
<text transform="matrix(0.85 0 0 1 252.4873047 673.9969482)" class="st3 st4"> </text>
<text transform="matrix(0.85 0 0 1 262.2573242 673.9969482)" class="st3 st4">curveLength: gml::LengthType</text>
<path class="st0" d="M724.0396118,688.2536011c1.0374756,0,1.8786011,0.84021,1.8786011,1.8766479l0.000061-0.000061v61.553833
	l-0.000061,0.000061c0,1.036377-0.8411255,1.8765869-1.8787231,1.8765869l0,0h0.0001221H560.2177124h-0.000061
	c-1.0375366,0-1.8786621-0.84021-1.8786621-1.8766479h0.000061v-61.553833c0-1.036377,0.8410645-1.8766479,1.8786621-1.8765869
	v-0.000061h163.8218994V688.2536011L724.0396118,688.2536011z"/>
<path class="st8" d="M721.7851562,686.0016479c1.0375366,0,1.8786011,0.8401489,1.8786011,1.8766479l0.0001221-0.000061v61.553833
	h-0.0001221c0,1.036438-0.8410645,1.8766479-1.8786621,1.8765869c0,0.000061,0,0,0,0h0.000061H557.9633179l-0.000061,0.000061
	c-1.0375366-0.000061-1.8787231-0.84021-1.8787231-1.8766479h0.000061v-61.553833
	c0-1.036438,0.8411255-1.8766479,1.8787231-1.8765869v-0.000061h163.8218384V686.0016479L721.7851562,686.0016479z"/>
<path class="st2" d="M721.7851562,686.0016479c1.0375366,0,1.8786011,0.8401489,1.8786011,1.8766479l0.0001221-0.000061v61.553833
	h-0.0001221c0,1.036438-0.8410645,1.8766479-1.8786621,1.8765869c0,0.000061,0,0,0,0h0.000061H557.9633179l-0.000061,0.000061
	c-1.0375366-0.000061-1.8787231-0.84021-1.8787231-1.8766479h0.000061v-61.553833
	c0-1.036438,0.8411255-1.8766479,1.8787231-1.8765869v-0.000061h163.8218384V686.0016479L721.7851562,686.0016479z"/>
<text transform="matrix(0.85 0 0 1 613.9443359 701.0203857)" class="st3 st4">«DataType»</text>
<text transform="matrix(0.85 0 0 1 589.1474609 713.7781982)" class="st5 st4">uro::VerticalCurveType</text>
<line class="st2" x1="556.0845947" y1="719.7811279" x2="723.6638794" y2="719.7811279"/>
<text transform="matrix(0.85 0 0 1 559.8427734 733.2938232)" class="st3 st4">+</text>
<text transform="matrix(0.85 0 0 1 566.6035156 733.2938232)" class="st3 st4"> </text>
<text transform="matrix(0.85 0 0 1 576.3740234 733.2938232)" class="st3 st4">length: gml::LengthType</text>
<text transform="matrix(0.85 0 0 1 559.8427734 746.0594482)" class="st3 st4">+</text>
<text transform="matrix(0.85 0 0 1 566.6035156 746.0594482)" class="st3 st4"> </text>
<text transform="matrix(0.85 0 0 1 576.3740234 746.0594482)" class="st3 st4">verticalDistance: gml::LengthType</text>
<path class="st0" d="M724.0396118,598.1748047c1.0374756,0,1.8786011,0.84021,1.8786011,1.8766479l0.000061-0.000061v61.553894
	h-0.000061c0,1.036438-0.8411255,1.8766479-1.8787231,1.8766479l0,0h0.0001221H588.7738037l0,0
	c-1.0375366,0-1.8787231-0.84021-1.8787231-1.8766479h0.000061v-61.553894c0-1.036377,0.8411255-1.8766479,1.8786621-1.8765869
	v-0.000061h135.2658081V598.1748047L724.0396118,598.1748047z"/>
<path class="st8" d="M721.7851562,595.9228516c1.0375366,0,1.8786011,0.8401489,1.8786011,1.8766479l0.0001221-0.000061v61.553833
	l-0.0001221,0.000061c0,1.036438-0.8410645,1.8766479-1.8786621,1.8765869c0,0.000061,0,0,0,0h0.000061H586.5194092
	l-0.000061,0.000061c-1.0375366-0.000061-1.8786621-0.84021-1.8786621-1.876709l0,0v-61.553833
	c0-1.036438,0.8411255-1.8766479,1.8787231-1.8765869v-0.000061h135.2657471V595.9228516L721.7851562,595.9228516z"/>
<path class="st2" d="M721.7851562,595.9228516c1.0375366,0,1.8786011,0.8401489,1.8786011,1.8766479l0.0001221-0.000061v61.553833
	l-0.0001221,0.000061c0,1.036438-0.8410645,1.8766479-1.8786621,1.8765869c0,0.000061,0,0,0,0h0.000061H586.5194092
	l-0.000061,0.000061c-1.0375366-0.000061-1.8786621-0.84021-1.8786621-1.876709l0,0v-61.553833
	c0-1.036438,0.8411255-1.8766479,1.8787231-1.8765869v-0.000061h135.2657471V595.9228516L721.7851562,595.9228516z"/>
<text transform="matrix(0.85 0 0 1 628.2255859 610.9422607)" class="st3 st4">«DataType»</text>
<text transform="matrix(0.85 0 0 1 620.7099609 623.7000732)" class="st5 st4">uro::SlopeType</text>
<line class="st2" x1="584.640686" y1="629.7023926" x2="723.6638794" y2="629.7023926"/>
<text transform="matrix(0.85 0 0 1 588.3896484 643.2156982)" class="st3 st4">+</text>
<text transform="matrix(0.85 0 0 1 595.1503906 643.2156982)" class="st3 st4"> </text>
<text transform="matrix(0.85 0 0 1 604.9287109 643.2156982)" class="st3 st4">angle: xs::double</text>
<text transform="matrix(0.85 0 0 1 588.3896484 655.9813232)" class="st3 st4">+</text>
<text transform="matrix(0.85 0 0 1 595.1503906 655.9813232)" class="st3 st4"> </text>
<text transform="matrix(0.85 0 0 1 604.9287109 655.9813232)" class="st3 st4">elevation: gml::LengthType</text>
<path class="st0" d="M560.2177124,590.6682739c1.0375366,0,1.8786621,0.8401489,1.8786621,1.8765869h0.000061v74.3150024
	l-0.000061,0.000061c0,1.036377-0.8411255,1.8766479-1.8787231,1.8765869c0,0.000061,0,0,0,0h0.000061H411.4254456
	l-0.000061,0.000061c-1.0375366-0.000061-1.8787231-0.840271-1.8787231-1.876709h0.000061v-74.3150024
	c0-1.036438,0.8411255-1.8766479,1.8787231-1.8765869v-0.000061h148.7922668V590.6682739L560.2177124,590.6682739z"/>
<path class="st8" d="M557.9633179,588.4162598c1.0375366,0,1.8786011,0.84021,1.8786011,1.8766479l0.000061-0.000061v74.3150635
	h-0.000061c0,1.036438-0.8410645,1.8766479-1.8786621,1.8766479l0,0h0.000061H409.17099h-0.000061
	c-1.0375366,0-1.8786926-0.84021-1.8786926-1.8766479h0.000061v-74.3150635c0-1.036377,0.841095-1.8765869,1.8786926-1.8765869l0,0
	H557.9633179L557.9633179,588.4162598L557.9633179,588.4162598z"/>
<path class="st2" d="M557.9633179,588.4162598c1.0375366,0,1.8786011,0.84021,1.8786011,1.8766479l0.000061-0.000061v74.3150635
	h-0.000061c0,1.036438-0.8410645,1.8766479-1.8786621,1.8766479l0,0h0.000061H409.17099h-0.000061
	c-1.0375366,0-1.8786926-0.84021-1.8786926-1.8766479h0.000061v-74.3150635c0-1.036377,0.841095-1.8765869,1.8786926-1.8765869l0,0
	H557.9633179L557.9633179,588.4162598L557.9633179,588.4162598z"/>
<text transform="matrix(0.85 0 0 1 457.6396484 603.4344482)" class="st3 st4">«DataType»</text>
<text transform="matrix(0.85 0 0 1 426.8271484 616.1922607)" class="st5 st4">uro::TransitionCurveType</text>
<line class="st2" x1="407.2922974" y1="622.1958008" x2="559.84198" y2="622.1958008"/>
<text transform="matrix(0.85 0 0 1 411.0458984 635.7078857)" class="st3 st4">+</text>
<text transform="matrix(0.85 0 0 1 417.8066406 635.7078857)" class="st3 st4"> </text>
<text transform="matrix(0.85 0 0 1 427.5771484 635.7078857)" class="st3 st4">intersection: xs::double</text>
<text transform="matrix(0.85 0 0 1 411.0458984 648.4656982)" class="st3 st4">+</text>
<text transform="matrix(0.85 0 0 1 417.8066406 648.4656982)" class="st3 st4"> </text>
<text transform="matrix(0.85 0 0 1 427.5771484 648.4656982)" class="st3 st4">distance: gml::LengthType</text>
<text transform="matrix(0.85 0 0 1 411.0458984 661.2313232)" class="st3 st4">+</text>
<text transform="matrix(0.85 0 0 1 417.8066406 661.2313232)" class="st3 st4"> </text>
<text transform="matrix(0.85 0 0 1 427.5771484 661.2313232)" class="st3 st4">curveLength: gml::LengthType</text>
<path class="st0" d="M199.5090637,493.8336487c1.0375671,0,1.8786621,0.8401489,1.8786621,1.8765869h0.0000305v63.8057556
	h-0.0000305c0,1.036438-0.841095,1.8766479-1.8786926,1.8765869c0,0.000061,0,0,0,0h0.0000305H58.2314682l-0.0000153,0.000061
	c-1.0375671-0.000061-1.8786926-0.84021-1.8786926-1.8766479h0.0000153v-63.8057556
	c0-1.036438,0.8411102-1.8766479,1.8786926-1.8765869v-0.000061h141.2775879V493.8336487L199.5090637,493.8336487z"/>
<path class="st6" d="M197.2546387,491.5816956c1.0375671,0,1.8786621,0.8401489,1.8786621,1.8765869l0,0v63.8056946v0.000061
	c0,1.036438-0.841095,1.8766479-1.8786926,1.8765869c0,0.000061,0,0,0,0h0.0000305H55.9770432l-0.0000153,0.000061
	c-1.0375671-0.000061-1.8786926-0.84021-1.8786926-1.876709h0.0000153v-63.8056946
	c0-1.036438,0.8411102-1.876709,1.8786926-1.8765869v-0.0001221h141.2775879V491.5816956L197.2546387,491.5816956z"/>
<path class="st2" d="M197.2546387,491.5816956c1.0375671,0,1.8786621,0.8401489,1.8786621,1.8765869l0,0v63.8056946v0.000061
	c0,1.036438-0.841095,1.8766479-1.8786926,1.8765869c0,0.000061,0,0,0,0h0.0000305H55.9770432l-0.0000153,0.000061
	c-1.0375671-0.000061-1.8786926-0.84021-1.8786926-1.876709h0.0000153v-63.8056946
	c0-1.036438,0.8411102-1.876709,1.8786926-1.8765869v-0.0001221h141.2775879V491.5816956L197.2546387,491.5816956z"/>
<text transform="matrix(0.85 0 -0.3165385 0.9485797 111.9611053 504.3559265)" class="st3 st7">_GeometricPrimitive</text>
<text transform="matrix(0.85 0 0 1 111.2026367 521.614624)" class="st3 st4">«Type»</text>
<text transform="matrix(0.85 0 0 1 103.6948242 534.3719482)" class="st5 st4">gml::Point</text>
<line class="st2" x1="54.0983505" y1="540.3742065" x2="199.1333008" y2="540.3742065"/>
<text transform="matrix(0.85 0 0 1 57.8510742 553.8875732)" class="st3 st4">+</text>
<text transform="matrix(0.85 0 0 1 64.6123047 553.8875732)" class="st3 st4"> </text>
<text transform="matrix(0.85 0 0 1 74.3823242 553.8875732)" class="st3 st4">position: gml::DirectPosition</text>
<path class="st0" d="M209.2782593,351.2088928c1.0375671,0,1.8786621,0.84021,1.8786621,1.876709l0.0000305-0.000061v87.0761108
	l-0.0000305,0.000061c0,1.036438-0.841095,1.8766479-1.8786926,1.8765869c0,0.000061,0,0,0,0h0.0000305H43.2019424
	l-0.0000153,0.000061c-1.0375671-0.000061-1.8786926-0.84021-1.8786926-1.876709h0.0000153v-87.0761108
	c0-1.036438,0.8411102-1.8766479,1.8786926-1.8766479l0,0H209.2782593L209.2782593,351.2088928L209.2782593,351.2088928z"/>
<path class="st8" d="M207.0238037,348.9569397c1.0375977,0,1.8786926,0.84021,1.8786926,1.8766479l0,0v87.0761108l0,0
	c0,1.036499-0.841095,1.876709-1.8786926,1.8766479c0,0.000061,0,0,0,0l0,0H40.9475174l-0.0000153,0.000061
	c-1.0375671-0.000061-1.8786926-0.84021-1.8786926-1.876709h0.0000153v-87.0761108
	c0-1.036438,0.8411102-1.8766479,1.8786926-1.8766479l0,0H207.0238037L207.0238037,348.9569397L207.0238037,348.9569397z"/>
<path class="st2" d="M207.0238037,348.9569397c1.0375977,0,1.8786926,0.84021,1.8786926,1.8766479l0,0v87.0761108l0,0
	c0,1.036499-0.841095,1.876709-1.8786926,1.8766479c0,0.000061,0,0,0,0l0,0H40.9475174l-0.0000153,0.000061
	c-1.0375671-0.000061-1.8786926-0.84021-1.8786926-1.876709h0.0000153v-87.0761108
	c0-1.036438,0.8411102-1.8766479,1.8786926-1.8766479l0,0H207.0238037L207.0238037,348.9569397L207.0238037,348.9569397z"/>
<text transform="matrix(0.85 0 0 1 98.4370117 363.9818115)" class="st3 st4">«DataType»</text>
<text transform="matrix(0.85 0 0 1 84.9057617 376.7318115)" class="st5 st4">uro::ControlPoint</text>
<line class="st2" x1="39.0688248" y1="382.7364807" x2="208.9024963" y2="382.7364807"/>
<text transform="matrix(0.85 0 0 1 42.8198242 396.255249)" class="st3 st4">+</text>
<text transform="matrix(0.85 0 0 1 49.5810547 396.255249)" class="st3 st4"> </text>
<text transform="matrix(0.85 0 0 1 59.3588867 396.255249)" class="st3 st4">startPost: xs::string [0..1]</text>
<text transform="matrix(0.85 0 0 1 42.8198242 409.0130615)" class="st3 st4">+</text>
<text transform="matrix(0.85 0 0 1 49.5810547 409.0130615)" class="st3 st4"> </text>
<text transform="matrix(0.85 0 0 1 59.3588867 409.0130615)" class="st3 st4">endPost: xs::string [0..1]</text>
<text transform="matrix(0.85 0 0 1 42.8198242 421.770874)" class="st3 st4">+</text>
<text transform="matrix(0.85 0 0 1 49.5810547 421.770874)" class="st3 st4"> </text>
<text transform="matrix(0.85 0 0 1 59.3588867 421.770874)" class="st3 st4">function: gml::CodeType</text>
<text transform="matrix(0.85 0 0 1 42.8198242 434.536499)" class="st3 st4">+</text>
<text transform="matrix(0.85 0 0 1 49.5810547 434.536499)" class="st3 st4"> </text>
<text transform="matrix(0.85 0 0 1 59.3588867 434.536499)" class="st3 st4">parameter: ControlPointType</text>
<path class="st0" d="M394.141449,246.1170807c1.0375671,0,1.8786621,0.8401489,1.8786621,1.8765869h0.0000305v112.5984039
	l-0.0000305,0.000061c0,1.036438-0.841095,1.8766479-1.8786926,1.8766479l0,0h0.0000305H216.0415344h-0.0000305
	c-1.0375671,0-1.8786926-0.84021-1.8786926-1.876709h0.0000305V247.9936676c0-1.036438,0.841095-1.8766479,1.8786926-1.8765869
	v-0.000061H394.141449V246.1170807L394.141449,246.1170807z"/>
<path class="st8" d="M391.8870239,243.8650665c1.0375366,0,1.8786621,0.84021,1.8786621,1.8766479h0.0000305v112.5984039h-0.0000305
	c0,1.036499-0.8411255,1.876709-1.8786926,1.8766479c0,0.000061,0,0,0,0h0.0000305H213.7871094l-0.0000305,0.000061
	c-1.0375671-0.000061-1.8786926-0.84021-1.8786926-1.876709h0.0000305V245.7417145
	c0-1.036438,0.841095-1.8766479,1.8786926-1.8766479l0,0H391.8870239L391.8870239,243.8650665L391.8870239,243.8650665z"/>
<path class="st2" d="M391.8870239,243.8650665c1.0375366,0,1.8786621,0.84021,1.8786621,1.8766479h0.0000305v112.5984039h-0.0000305
	c0,1.036499-0.8411255,1.876709-1.8786926,1.8766479c0,0.000061,0,0,0,0h0.0000305H213.7871094l-0.0000305,0.000061
	c-1.0375671-0.000061-1.8786926-0.84021-1.8786926-1.876709h0.0000305V245.7417145
	c0-1.036438,0.841095-1.8766479,1.8786926-1.8766479l0,0H391.8870239L391.8870239,243.8650665L391.8870239,243.8650665z"/>
<text transform="matrix(0.85 0 0 1 277.2885742 258.880249)" class="st3 st4">«DataType»</text>
<text transform="matrix(0.85 0 0 1 243.4682617 271.645874)" class="st5 st4">uro::RailwayTrackAttribute</text>
<line class="st2" x1="211.9084167" y1="277.6445618" x2="393.7657166" y2="277.6445618"/>
<text transform="matrix(0.85 0 0 1 215.6635742 291.1536865)" class="st3 st4">+</text>
<text transform="matrix(0.85 0 0 1 222.4248047 291.1536865)" class="st3 st4"> </text>
<text transform="matrix(0.85 0 0 1 232.1948242 291.1536865)" class="st3 st4">routeName: xs::string [0..1]</text>
<text transform="matrix(0.85 0 0 1 215.6635742 303.9193115)" class="st3 st4">+</text>
<text transform="matrix(0.85 0 0 1 222.4248047 303.9193115)" class="st3 st4"> </text>
<text transform="matrix(0.85 0 0 1 232.1948242 303.9193115)" class="st3 st4">directionType: gml::CodeType [0..1]</text>
<text transform="matrix(0.85 0 0 1 215.6635742 316.6849365)" class="st3 st4">+</text>
<text transform="matrix(0.85 0 0 1 222.4248047 316.6849365)" class="st3 st4"> </text>
<text transform="matrix(0.85 0 0 1 232.1948242 316.6849365)" class="st3 st4">trackType: gml::CodeType [0..1]</text>
<text transform="matrix(0.85 0 0 1 215.6635742 329.4505615)" class="st3 st4">+</text>
<text transform="matrix(0.85 0 0 1 222.4248047 329.4505615)" class="st3 st4"> </text>
<text transform="matrix(0.85 0 0 1 232.1948242 329.4505615)" class="st3 st4">startPost: xs::string [0..1]</text>
<text transform="matrix(0.85 0 0 1 215.6635742 342.2005615)" class="st3 st4">+</text>
<text transform="matrix(0.85 0 0 1 222.4248047 342.2005615)" class="st3 st4"> </text>
<text transform="matrix(0.85 0 0 1 232.1948242 342.2005615)" class="st3 st4">endPost: xs::string [0..1]</text>
<text transform="matrix(0.85 0 0 1 215.6635742 354.9661865)" class="st3 st4">+</text>
<text transform="matrix(0.85 0 0 1 222.4248047 354.9661865)" class="st3 st4"> </text>
<text transform="matrix(0.85 0 0 1 232.1948242 354.9661865)" class="st3 st4">alignmentType: gml::CodeType [0..1]</text>
<path class="st0" d="M632.3594971,412.0121155c1.0375366,0,1.8786011,0.84021,1.8786011,1.8765869h0.000061v112.5984192h-0.000061
	c0,1.036438-0.8410645,1.8766479-1.8786621,1.8765869c0,0.000061,0,0,0,0h0.000061H471.5435486l-0.000061,0.000061
	c-1.0375366-0.000061-1.8786621-0.84021-1.8786621-1.8766479l0,0V413.8887024c0-1.036377,0.8411255-1.8766479,1.8787231-1.8765869
	v-0.000061h160.8159485V412.0121155L632.3594971,412.0121155z"/>
<path class="st8" d="M630.1050415,409.7601624c1.0375366,0,1.8786621,0.8401489,1.8786621,1.8765869l0,0v112.5983582v0.000061
	c0,1.036438-0.8411255,1.8766479-1.8787231,1.8765869c0,0.000061,0,0,0,0h0.000061H469.289093l-0.000061,0.000061
	c-1.0375366-0.000061-1.8786621-0.84021-1.8786621-1.876709h0.000061V411.6367493
	c0-1.036438,0.8410645-1.8766479,1.8786621-1.8765869v-0.000061h160.8159485V409.7601624L630.1050415,409.7601624z"/>
<path class="st2" d="M630.1050415,409.7601624c1.0375366,0,1.8786621,0.8401489,1.8786621,1.8765869l0,0v112.5983582v0.000061
	c0,1.036438-0.8411255,1.8766479-1.8787231,1.8765869c0,0.000061,0,0,0,0h0.000061H469.289093l-0.000061,0.000061
	c-1.0375366-0.000061-1.8786621-0.84021-1.8786621-1.876709h0.000061V411.6367493
	c0-1.036438,0.8410645-1.8766479,1.8786621-1.8765869v-0.000061h160.8159485V409.7601624L630.1050415,409.7601624z"/>
<text transform="matrix(0.85 0 0 1 523.7724609 424.7786865)" class="st3 st4">«DataType»</text>
<text transform="matrix(0.85 0 0 1 488.4443359 437.5286865)" class="st5 st4">uro::RailwayRouteAttribute</text>
<line class="st2" x1="467.4104309" y1="443.5395813" x2="631.9837036" y2="443.5395813"/>
<text transform="matrix(0.85 0 0 1 471.1708984 457.052124)" class="st3 st4">+</text>
<text transform="matrix(0.85 0 0 1 477.9316406 457.052124)" class="st3 st4"> </text>
<text transform="matrix(0.85 0 0 1 487.7021484 457.052124)" class="st3 st4">operatorType: gml::CodeType</text>
<text transform="matrix(0.85 0 0 1 471.1708984 469.817749)" class="st3 st4">+</text>
<text transform="matrix(0.85 0 0 1 477.9316406 469.817749)" class="st3 st4"> </text>
<text transform="matrix(0.85 0 0 1 487.7021484 469.817749)" class="st3 st4">operator: xs::string</text>
<text transform="matrix(0.85 0 0 1 471.1708984 482.583374)" class="st3 st4">+</text>
<text transform="matrix(0.85 0 0 1 477.9316406 482.583374)" class="st3 st4"> </text>
<text transform="matrix(0.85 0 0 1 487.7021484 482.583374)" class="st3 st4">alternativeName: xs::string [0..*]</text>
<text transform="matrix(0.85 0 0 1 471.1708984 495.333374)" class="st3 st4">+</text>
<text transform="matrix(0.85 0 0 1 477.9316406 495.333374)" class="st3 st4"> </text>
<text transform="matrix(0.85 0 0 1 487.7021484 495.333374)" class="st3 st4">railwayType: gml::CodeType</text>
<text transform="matrix(0.85 0 0 1 471.1708984 508.098999)" class="st3 st4">+</text>
<text transform="matrix(0.85 0 0 1 477.9316406 508.098999)" class="st3 st4"> </text>
<text transform="matrix(0.85 0 0 1 487.7021484 508.098999)" class="st3 st4">startStation: xs::string</text>
<text transform="matrix(0.85 0 0 1 471.1708984 520.864624)" class="st3 st4">+</text>
<text transform="matrix(0.85 0 0 1 477.9316406 520.864624)" class="st3 st4"> </text>
<text transform="matrix(0.85 0 0 1 487.7021484 520.864624)" class="st3 st4">endStation: xs::string</text>
<path class="st0" d="M542.182312,298.6629944c1.0375366,0,1.8786011,0.84021,1.8786011,1.8766479l0.000061-0.000061v55.548584
	h-0.000061c0,1.036499-0.8410645,1.876709-1.8786621,1.8766479c0,0.000061,0,0,0,0h0.000061h-85.6683044l-0.000061,0.000061
	c-1.0375366-0.000061-1.8786621-0.84021-1.8786621-1.876709l0,0v-55.548584c0-1.036377,0.8411255-1.8765869,1.8787231-1.8765869l0,0
	H542.182312L542.182312,298.6629944L542.182312,298.6629944z"/>
<path class="st1" d="M539.9278564,296.4110413c1.0375366,0,1.8786621,0.84021,1.8786621,1.8765869h0.000061v55.548584h-0.000061
	c0,1.036438-0.8411255,1.8766479-1.8787231,1.8765869c0,0.000061,0,0,0,0h0.000061H454.259552v0.000061
	c-1.0375977-0.000061-1.8787231-0.84021-1.8787231-1.8766479h0.000061v-55.548584
	c0-1.036377,0.8410645-1.8765869,1.8786621-1.8765869l0,0H539.9278564L539.9278564,296.4110413L539.9278564,296.4110413z"/>
<path class="st2" d="M539.9278564,296.4110413c1.0375366,0,1.8786621,0.84021,1.8786621,1.8765869h0.000061v55.548584h-0.000061
	c0,1.036438-0.8411255,1.8766479-1.8787231,1.8765869c0,0.000061,0,0,0,0h0.000061H454.259552v0.000061
	c-1.0375977-0.000061-1.8787231-0.84021-1.8787231-1.8766479h0.000061v-55.548584
	c0-1.036377,0.8410645-1.8765869,1.8786621-1.8765869l0,0H539.9278564L539.9278564,296.4110413L539.9278564,296.4110413z"/>
<text transform="matrix(0.85 0 0 1 465.1552734 311.427124)" class="st3 st4">«FeatureType»</text>
<text transform="matrix(0.85 0 0 1 468.9130859 324.192749)" class="st5 st4">tran::Railway</text>
<path class="st9" d="M163.062439,36.6839752c1.2450867,0,2.254425,1.0082397,2.254425,2.2519531l0,0v69.8110352l0,0
	c0,1.2437134-1.0093384,2.2519531-2.2544556,2.2519531l0,0h0.0000305H22.5363388h-0.0000153
	c-1.245079,0-2.254425-1.0082397-2.2544174-2.2519531V38.9359283c0-1.2437134,1.0093384-2.2519531,2.2544327-2.2519531l0,0
	H163.062439L163.062439,36.6839752L163.062439,36.6839752z"/>
<path class="st10" d="M163.062439,36.6839752c1.2450867,0,2.254425,1.0082397,2.254425,2.2519531l0,0v69.8110352l0,0
	c0,1.2437134-1.0093384,2.2519531-2.2544556,2.2519531l0,0h0.0000305H22.5363388h-0.0000153
	c-1.245079,0-2.254425-1.0082397-2.2544174-2.2519531V38.9359283c0-1.2437134,1.0093384-2.2519531,2.2544327-2.2519531l0,0
	H163.062439L163.062439,36.6839752L163.062439,36.6839752z"/>
<path class="st6" d="M37.9416122,59.2036285c1.0375671,0,1.8786774,0.84021,1.8786774,1.8766479l0,0v8.2572021l0,0
	c0,1.036438-0.8411102,1.8766479-1.8786926,1.8766479l0,0h0.0000153h-8.2662506h-0.0000153
	c-1.0375671,0-1.8786774-0.84021-1.8786774-1.8766479l0,0v-8.2572021c0-1.036438,0.8411102-1.8766479,1.8786926-1.8766479l0,0
	H37.9416122L37.9416122,59.2036285L37.9416122,59.2036285z"/>
<path class="st11" d="M37.9416122,59.2036285c1.0375671,0,1.8786774,0.84021,1.8786774,1.8766479l0,0v8.2572021l0,0
	c0,1.036438-0.8411102,1.8766479-1.8786926,1.8766479l0,0h0.0000153h-8.2662506h-0.0000153
	c-1.0375671,0-1.8786774-0.84021-1.8786774-1.8766479l0,0v-8.2572021c0-1.036438,0.8411102-1.8766479,1.8786926-1.8766479l0,0
	H37.9416122L37.9416122,59.2036285L37.9416122,59.2036285z"/>
<text transform="matrix(0.85 0 0 1 44.3276367 69.7161713)" class="st12 st3 st4">GMLに定義されたクラス</text>
<path class="st1" d="M37.9416122,73.4660797c1.0375671,0,1.8786774,0.84021,1.8786774,1.8766479l0,0v8.2572632l0,0
	c0,1.036377-0.8411102,1.8765869-1.8786926,1.8765869l0,0h0.0000153h-8.2662506h-0.0000153
	c-1.0375671,0-1.8786774-0.84021-1.8786774-1.8765869l0,0v-8.2572632c0-1.036438,0.8411102-1.8766479,1.8786926-1.8766479l0,0
	H37.9416122L37.9416122,73.4660797L37.9416122,73.4660797z"/>
<path class="st11" d="M37.9416122,73.4660797c1.0375671,0,1.8786774,0.84021,1.8786774,1.8766479l0,0v8.2572632l0,0
	c0,1.036377-0.8411102,1.8765869-1.8786926,1.8765869l0,0h0.0000153h-8.2662506h-0.0000153
	c-1.0375671,0-1.8786774-0.84021-1.8786774-1.8765869l0,0v-8.2572632c0-1.036438,0.8411102-1.8766479,1.8786926-1.8766479l0,0
	H37.9416122L37.9416122,73.4660797L37.9416122,73.4660797z"/>
<text transform="matrix(0.85 0 0 1 44.3276367 83.9817963)" class="st12 st3 st4">CityGMLに定義されたクラス</text>
<path class="st8" d="M37.9416122,87.7285919c1.0375671,0,1.8786774,0.8401489,1.8786774,1.8766479l0,0v8.2572021l0,0
	c0,1.036438-0.8411102,1.8766479-1.8786926,1.8766479l0,0h0.0000153h-8.2662506h-0.0000153
	c-1.0375671,0-1.8786774-0.84021-1.8786774-1.8766479l0,0v-8.2572021c0-1.036499,0.8411102-1.8766479,1.8786926-1.8766479l0,0
	H37.9416122L37.9416122,87.7285919L37.9416122,87.7285919z"/>
<path class="st11" d="M37.9416122,87.7285919c1.0375671,0,1.8786774,0.8401489,1.8786774,1.8766479l0,0v8.2572021l0,0
	c0,1.036438-0.8411102,1.8766479-1.8786926,1.8766479l0,0h0.0000153h-8.2662506h-0.0000153
	c-1.0375671,0-1.8786774-0.84021-1.8786774-1.8766479l0,0v-8.2572021c0-1.036499,0.8411102-1.8766479,1.8786926-1.8766479l0,0
	H37.9416122L37.9416122,87.7285919L37.9416122,87.7285919z"/>
<text transform="matrix(0.85 0 0 1 44.3276367 98.2474213)" class="st12 st3 st4">i-URに定義されたクラス</text>
<text transform="matrix(0.85 0 0 1 81.8979492 54.9441986)" class="st12 st13 st14 st15">凡例</text>
<path class="st0" d="M632.3594971,13.4135904c1.0375366,0,1.8786011,0.84021,1.8786011,1.8766479h0.000061v55.548584h-0.000061
	c0,1.036438-0.8410645,1.8766479-1.8786621,1.8766479l0,0h0.000061H501.6025696l0,0
	c-1.0375977,0-1.8787231-0.84021-1.8787231-1.8766479h0.000061v-55.548584l0,0c0-1.036438,0.8410645-1.8766479,1.8786621-1.8766479
	l0,0H632.3594971L632.3594971,13.4135904L632.3594971,13.4135904z"/>
<path class="st1" d="M630.1050415,11.1616373c1.0375366,0,1.8786621,0.84021,1.8786621,1.8765869l0,0v55.548584v0.000061
	c0,1.036438-0.8411255,1.8765869-1.8787231,1.8765869l0,0h0.000061H499.348175h-0.000061
	c-1.0375366,0-1.8786621-0.8401489-1.8786621-1.8766479l0,0v-55.548584l0,0c0-1.036377,0.8411255-1.8765869,1.8787231-1.8765869l0,0
	H630.1050415L630.1050415,11.1616373L630.1050415,11.1616373z"/>
<path class="st2" d="M630.1050415,11.1616373c1.0375366,0,1.8786621,0.84021,1.8786621,1.8765869l0,0v55.548584v0.000061
	c0,1.036438-0.8411255,1.8765869-1.8787231,1.8765869l0,0h0.000061H499.348175h-0.000061
	c-1.0375366,0-1.8786621-0.8401489-1.8786621-1.8766479l0,0v-55.548584l0,0c0-1.036377,0.8411255-1.8765869,1.8787231-1.8765869l0,0
	H630.1050415L630.1050415,11.1616373L630.1050415,11.1616373z"/>
<text transform="matrix(0.85 0 -0.3165385 0.9485797 582.3677368 23.9447613)" class="st3 st7">_CityObject</text>
<text transform="matrix(0.85 0 -0.3165385 0.9485797 502.7272034 38.9515915)" class="st3 st7">t</text>
<text transform="matrix(0.85 0 -0.3165385 0.9485797 502.7272034 38.9515915)" class="st16 st3 st7">t</text>
<text transform="matrix(0.85 0 -0.3165385 0.9485797 506.4772034 38.9515915)" class="st3 st7">r</text>
<text transform="matrix(0.85 0 -0.3165385 0.9485797 506.4772034 38.9515915)" class="st16 st3 st7">r</text>
<text transform="matrix(0.85 0 -0.3165385 0.9485797 510.2252502 38.9515915)" class="st3 st7">a</text>
<text transform="matrix(0.85 0 -0.3165385 0.9485797 510.2252502 38.9515915)" class="st16 st3 st7">a</text>
<text transform="matrix(0.85 0 -0.3165385 0.9485797 515.479126 38.9515915)" class="st3 st7">n</text>
<text transform="matrix(0.85 0 -0.3165385 0.9485797 515.479126 38.9515915)" class="st16 st3 st7">n</text>
<text transform="matrix(0.85 0 -0.3165385 0.9485797 521.4849854 38.9515915)" class="st3 st7">::</text>
<text transform="matrix(0.85 0 -0.3165385 0.9485797 521.4849854 38.9515915)" class="st16 st3 st7">::</text>
<text transform="matrix(0.85 0 -0.3165385 0.9485797 525.9752197 38.9515915)" class="st3 st7">_</text>
<text transform="matrix(0.85 0 -0.3165385 0.9485797 525.9752197 38.9515915)" class="st16 st3 st7">_</text>
<text transform="matrix(0.85 0 -0.3165385 0.9485797 529.7369385 38.9515915)" class="st3 st7">T</text>
<text transform="matrix(0.85 0 -0.3165385 0.9485797 529.7369385 38.9515915)" class="st16 st3 st7">T</text>
<text transform="matrix(0.85 0 -0.3165385 0.9485797 534.9927979 38.9515915)" class="st3 st7">r</text>
<text transform="matrix(0.85 0 -0.3165385 0.9485797 534.9927979 38.9515915)" class="st16 st3 st7">r</text>
<text transform="matrix(0.85 0 -0.3165385 0.9485797 538.7408447 38.9515915)" class="st3 st7">a</text>
<text transform="matrix(0.85 0 -0.3165385 0.9485797 538.7408447 38.9515915)" class="st16 st3 st7">a</text>
<text transform="matrix(0.85 0 -0.3165385 0.9485797 543.994751 38.9515915)" class="st3 st7">n</text>
<text transform="matrix(0.85 0 -0.3165385 0.9485797 543.994751 38.9515915)" class="st16 st3 st7">n</text>
<text transform="matrix(0.85 0 -0.3165385 0.9485797 550.0006104 38.9515915)" class="st3 st7">s</text>
<text transform="matrix(0.85 0 -0.3165385 0.9485797 550.0006104 38.9515915)" class="st16 st3 st7">s</text>
<text transform="matrix(0.85 0 -0.3165385 0.9485797 554.5084229 38.9515915)" class="st3 st7">p</text>
<text transform="matrix(0.85 0 -0.3165385 0.9485797 554.5084229 38.9515915)" class="st16 st3 st7">p</text>
<text transform="matrix(0.85 0 -0.3165385 0.9485797 560.5142822 38.9515915)" class="st3 st7">o</text>
<text transform="matrix(0.85 0 -0.3165385 0.9485797 560.5142822 38.9515915)" class="st16 st3 st7">o</text>
<text transform="matrix(0.85 0 -0.3165385 0.9485797 566.5220947 38.9515915)" class="st3 st7">r</text>
<text transform="matrix(0.85 0 -0.3165385 0.9485797 566.5220947 38.9515915)" class="st16 st3 st7">r</text>
<text transform="matrix(0.85 0 -0.3165385 0.9485797 570.2701416 38.9515915)" class="st3 st7">t</text>
<text transform="matrix(0.85 0 -0.3165385 0.9485797 570.2701416 38.9515915)" class="st16 st3 st7">t</text>
<text transform="matrix(0.85 0 -0.3165385 0.9485797 574.0201416 38.9515915)" class="st3 st7">a</text>
<text transform="matrix(0.85 0 -0.3165385 0.9485797 574.0201416 38.9515915)" class="st16 st3 st7">a</text>
<text transform="matrix(0.85 0 -0.3165385 0.9485797 579.2740479 38.9515915)" class="st3 st7">t</text>
<text transform="matrix(0.85 0 -0.3165385 0.9485797 579.2740479 38.9515915)" class="st16 st3 st7">t</text>
<text transform="matrix(0.85 0 -0.3165385 0.9485797 583.0240479 38.9515915)" class="st3 st7">i</text>
<text transform="matrix(0.85 0 -0.3165385 0.9485797 583.0240479 38.9515915)" class="st16 st3 st7">i</text>
<text transform="matrix(0.85 0 -0.3165385 0.9485797 585.2818604 38.9515915)" class="st3 st7">o</text>
<text transform="matrix(0.85 0 -0.3165385 0.9485797 585.2818604 38.9515915)" class="st16 st3 st7">o</text>
<text transform="matrix(0.85 0 -0.3165385 0.9485797 591.2896729 38.9515915)" class="st3 st7">n</text>
<text transform="matrix(0.85 0 -0.3165385 0.9485797 591.2896729 38.9515915)" class="st16 st3 st7">n</text>
<text transform="matrix(0.85 0 -0.3165385 0.9485797 597.2974854 38.9515915)" class="st3 st7">O</text>
<text transform="matrix(0.85 0 -0.3165385 0.9485797 597.2974854 38.9515915)" class="st16 st3 st7">O</text>
<text transform="matrix(0.85 0 -0.3165385 0.9485797 604.8092041 38.9515915)" class="st3 st7">b</text>
<text transform="matrix(0.85 0 -0.3165385 0.9485797 604.8092041 38.9515915)" class="st16 st3 st7">b</text>
<text transform="matrix(0.85 0 -0.3165385 0.9485797 610.8150635 38.9515915)" class="st3 st7">j</text>
<text transform="matrix(0.85 0 -0.3165385 0.9485797 610.8150635 38.9515915)" class="st16 st3 st7">j</text>
<text transform="matrix(0.85 0 -0.3165385 0.9485797 613.0748291 38.9515915)" class="st3 st7">e</text>
<text transform="matrix(0.85 0 -0.3165385 0.9485797 613.0748291 38.9515915)" class="st16 st3 st7">e</text>
<text transform="matrix(0.85 0 -0.3165385 0.9485797 618.3306885 38.9515915)" class="st3 st7">ct</text>
<text transform="matrix(0.85 0 -0.3165385 0.9485797 618.3306885 38.9515915)" class="st16 st3 st7">ct</text>
<line class="st17" x1="497.4694519" y1="295.6603088" x2="497.4694519" y2="240.1117706"/>
<line class="st17" x1="497.4694519" y1="240.1117706" x2="534.2918091" y2="240.1117706"/>
<line class="st17" x1="534.2918091" y1="240.1117706" x2="534.2918091" y2="195.8230743"/>
<polyline class="st18" points="538.8006592,207.8335724 529.782959,207.8335724 534.2918091,195.8230743 538.8006592,207.8335724 
	"/>
<polygon class="st17" points="538.8006592,207.8335724 529.782959,207.8335724 534.2918091,195.8230743 "/>
<line class="st17" x1="571.1141357" y1="100.4897003" x2="571.1141357" y2="71.964798"/>
<polyline class="st18" points="575.6229858,83.975296 566.6052856,83.975296 571.1141357,71.964798 575.6229858,83.975296 "/>
<polygon class="st17" points="575.6229858,83.975296 566.6052856,83.975296 571.1141357,71.964798 "/>
<line class="st17" x1="391.5112915" y1="147.0304108" x2="474.1736755" y2="147.0304108"/>
<polyline class="st18" points="466.6589661,150.7837067 474.1736755,147.0304108 466.6589661,143.2771149 459.1441956,147.0304108 
	466.6589661,150.7837067 "/>
<polygon class="st17" points="466.6589661,150.7837067 474.1736755,147.0304108 466.6589661,143.2771149 459.1441956,147.0304108 
	"/>
<path class="st17" d="M391.5112915,147.0304108l11.2721558,4.5039062 M391.5112915,147.0304108l11.2721558-4.5039062"/>
<line class="st17" x1="297.5767212" y1="101.2403717" x2="297.5767212" y2="41.1878815"/>
<line class="st17" x1="297.5767212" y1="41.1878815" x2="497.4694519" y2="41.1878815"/>
<polyline class="st18" points="485.4458313,45.6918488 485.4458313,36.6839752 497.4694519,41.1878815 485.4458313,45.6918488 "/>
<polygon class="st17" points="485.4458313,45.6918488 485.4458313,36.6839752 497.4694519,41.1878815 "/>
<line class="st17" x1="166.8198242" y1="441.2876282" x2="166.8198242" y2="490.8309631"/>
<path class="st17" d="M166.8198242,490.8309631l-4.5088501-11.2598877 M166.8198242,490.8309631l4.5088501-11.2598877"/>
<line class="st17" x1="82.6544571" y1="441.2876282" x2="82.6544571" y2="490.8309631"/>
<path class="st17" d="M82.6544571,490.8309631l-4.5088654-11.2598877 M82.6544571,490.8309631l4.5088501-11.2598877"/>
<line class="st17" x1="123.9856644" y1="348.9569397" x2="123.9856644" y2="302.4162903"/>
<line class="st17" x1="123.9856644" y1="302.4162903" x2="211.9084167" y2="302.4162903"/>
<polyline class="st19" points="204.3936462,306.1695251 211.9084167,302.4162903 204.3936462,298.6629944 196.8788757,302.4162903 
	204.3936462,306.1695251 "/>
<polygon class="st17" points="204.3936462,306.1695251 211.9084167,302.4162903 204.3936462,298.6629944 196.8788757,302.4162903 
	"/>
<path class="st17" d="M123.9856644,348.9569397l4.5088425-11.2598877 M123.9856644,348.9569397l-4.5088654-11.2598877"/>
<line class="st17" x1="302.8370667" y1="360.9674377" x2="302.8370667" y2="439.7863464"/>
<line class="st17" x1="302.8370667" y1="439.7863464" x2="339.6594238" y2="439.7863464"/>
<path class="st17" d="M339.6594238,439.7863464l-11.2721558,4.5039673 M339.6594238,439.7863464l-11.2721558-4.5039673"/>
<line class="st17" x1="307.3459167" y1="243.1143951" x2="307.3459167" y2="208.5842438"/>
<polyline class="st19" points="311.103302,216.0907745 307.3459167,208.5842438 303.5885315,216.0907745 307.3459167,223.5973053 
	311.103302,216.0907745 "/>
<polygon class="st17" points="311.103302,216.0907745 307.3459167,208.5842438 303.5885315,216.0907745 307.3459167,223.5973053 "/>
<path class="st17" d="M307.3459167,243.1143951l4.5088806-11.2598267 M307.3459167,243.1143951l-4.5088501-11.2598267"/>
<line class="st17" x1="241.9674683" y1="361.7180481" x2="241.9674683" y2="460.804718"/>
<line class="st17" x1="241.9674683" y1="460.804718" x2="338.9079285" y2="460.804718"/>
<path class="st17" d="M338.9079285,460.804718l-11.2721252,4.5039062 M338.9079285,460.804718l-11.2721252-4.5039062"/>
<line class="st17" x1="511.7475281" y1="409.0094299" x2="511.7475281" y2="357.2141418"/>
<polyline class="st19" points="515.5048828,364.7207336 511.7475281,357.2141418 507.9901428,364.7207336 511.7475281,372.2272644 
	515.5048828,364.7207336 "/>
<polygon class="st17" points="515.5048828,364.7207336 511.7475281,357.2141418 507.9901428,364.7207336 511.7475281,372.2272644 
	"/>
<path class="st17" d="M511.7475281,409.0094299l4.5088196-11.2598267 M511.7475281,409.0094299l-4.5088501-11.2598267"/>
<text transform="matrix(0.85 0 0 1 118.7260742 484.0755615)" class="st20 st21">+endPoint</text>
<text transform="matrix(0.85 0 0 1 172.8354492 484.0755615)" class="st20 st21">0..1</text>
<text transform="matrix(0.85 0 0 1 309.6010742 394.7474365)" class="st20 st21">+lod3Network</text>
<text transform="matrix(0.85 0 0 1 302.0854492 456.302124)" class="st20 st21">0..1</text>
<text transform="matrix(0.85 0 0 1 29.3041992 468.3099365)" class="st20 st21">+startPoint</text>
<text transform="matrix(0.85 0 0 1 91.6713867 470.5599365)" class="st20 st21">0..1</text>
<text transform="matrix(0.85 0 0 1 399.7724609 129.0130463)" class="st20 st21">+trafficArea</text>
<text transform="matrix(0.85 0 0 1 419.3193359 160.5442963)" class="st20 st21">0..*</text>
<text transform="matrix(0.85 0 0 1 207.3979492 236.3567963)" class="st20 st21">+railwayTrackAttribute</text>
<text transform="matrix(0.85 0 0 1 317.1166992 237.8646088)" class="st20 st21">0..*</text>
<text transform="matrix(0.85 0 0 1 230.6948242 472.817749)" class="st20 st21">+lod2Network</text>
<text transform="matrix(0.85 0 0 1 301.3354492 473.567749)" class="st20 st21">0..1</text>
<text transform="matrix(0.85 0 0 1 48.8354492 338.4505615)" class="st20 st21">+controlPoint</text>
<text transform="matrix(0.85 0 0 1 134.5073242 336.9505615)" class="st20 st21">0..*</text>
<text transform="matrix(0.85 0 0 1 525.2724609 394.7474365)" class="st20 st21">+railwayRouteAttribute</text>
<text transform="matrix(0.85 0 0 1 489.9521484 395.4974365)" class="st20 st21">0</text>
<text transform="matrix(0.85 0 0 1 494.4619141 395.4974365)" class="st20 st21">..</text>
<text transform="matrix(0.85 0 0 1 498.9726562 395.4974365)" class="st20 st21">1</text>
</svg>
