<?xml version="1.0" encoding="utf-8"?>
<!-- Generator: Adobe Illustrator 27.0.0, SVG Export Plug-In . SVG Version: 6.00 Build 0)  -->
<svg version="1.1" id="レイヤー_1" xmlns="http://www.w3.org/2000/svg" xmlns:xlink="http://www.w3.org/1999/xlink" x="0px"
	 y="0px" viewBox="0 0 595.276001 466.1100159" style="enable-background:new 0 0 595.276001 466.1100159;" xml:space="preserve">
<style type="text/css">
	.st0{fill-rule:evenodd;clip-rule:evenodd;fill:#FFFFCC;}
	.st1{fill:none;stroke:#000000;stroke-width:1.0285715;stroke-linecap:round;stroke-linejoin:bevel;stroke-miterlimit:10;}
	.st2{font-family:'YuGothicUI-Regular';}
	.st3{font-size:6.6857147px;}
	.st4{font-family:'YuGothicUI-Bold';}
	.st5{fill-rule:evenodd;clip-rule:evenodd;fill:#FFCCFF;}
	.st6{font-size:7.0386257px;}
	.st7{fill:none;stroke:#000000;stroke-width:0.1910204;stroke-miterlimit:10;}
	.st8{fill-rule:evenodd;clip-rule:evenodd;fill:#F0F0F0;}
	.st9{fill:none;stroke:#D7D7D7;stroke-width:0.5142857;stroke-linecap:square;stroke-miterlimit:10;}
	.st10{fill-rule:evenodd;clip-rule:evenodd;fill:#CCFFCC;}
	.st11{fill:none;stroke:#000000;stroke-width:0.5142857;stroke-linecap:square;stroke-miterlimit:10;}
	.st12{fill:#003060;}
	.st13{font-size:8.2285719px;}
	.st14{letter-spacing:-1.1764705;}
	.st15{fill-rule:evenodd;clip-rule:evenodd;}
	.st16{fill-rule:evenodd;clip-rule:evenodd;fill:#FFFFFF;}
</style>
<polygon class="st0" points="284.7403259,255.37146 345.6852112,255.37146 345.6852112,214.2285767 284.7403259,214.2285767 "/>
<polygon class="st1" points="284.7403259,255.37146 345.6852112,255.37146 345.6852112,214.2285767 284.7403259,214.2285767 "/>
<text transform="matrix(0.85 0 0 1 293.3671875 224.5151367)" class="st2 st3">«FeatureType»</text>
<text transform="matrix(0.85 0 0 1 298.9609375 233.2573242)" class="st4 st3">tran::Track</text>
<polygon class="st0" points="264.425354,183.8857422 367.0159302,183.8857422 367.0159302,131.9428711 264.425354,131.9428711 "/>
<polygon class="st1" points="264.425354,183.8857422 367.0159302,183.8857422 367.0159302,131.9428711 264.425354,131.9428711 "/>
<text transform="matrix(0.85 0 0 1 293.8828125 142.2338867)" class="st2 st3">«FeatureType»</text>
<text transform="matrix(0.85 0 0 1 285.2421875 150.9682617)" class="st4 st3">tran::TrafficComplex</text>
<line class="st1" x1="264.425354" y1="155.0856934" x2="366.5080566" y2="155.0856934"/>
<text transform="matrix(0.85 0 0 1 266.9609375 164.3432617)" class="st2 st3">+</text>
<text transform="matrix(0.85 0 0 1 271.5302734 164.3432617)" class="st2 st3"> </text>
<text transform="matrix(0.85 0 0 1 278.1328125 164.3432617)" class="st2 st3">class: gml::CodeType [0..1]</text>
<text transform="matrix(0.85 0 0 1 266.9609375 173.0932617)" class="st2 st3">+</text>
<text transform="matrix(0.85 0 0 1 271.5302734 173.0932617)" class="st2 st3"> </text>
<text transform="matrix(0.85 0 0 1 278.1328125 173.0932617)" class="st2 st3">function: gml::CodeType [0..*]</text>
<text transform="matrix(0.85 0 0 1 266.9609375 181.8276367)" class="st2 st3">+</text>
<text transform="matrix(0.85 0 0 1 271.5302734 181.8276367)" class="st2 st3"> </text>
<text transform="matrix(0.85 0 0 1 278.1328125 181.8276367)" class="st2 st3">usage: gml::CodeType [0..*]</text>
<polygon class="st5" points="259.3466187,380.3428955 379.7127686,380.3428955 379.7127686,291.37146 259.3466187,291.37146 "/>
<polygon class="st1" points="259.3466187,380.3428955 379.7127686,380.3428955 379.7127686,291.37146 259.3466187,291.37146 "/>
<text transform="matrix(0.85 0 0 1 302.0078125 301.6552734)" class="st2 st3">«DataType»</text>
<text transform="matrix(0.85 0 0 1 290.3203125 310.3896484)" class="st4 st3">uro::TrackAttribute</text>
<line class="st1" x1="259.3466187" y1="314.5142822" x2="379.204895" y2="314.5142822"/>
<text transform="matrix(0.85 0 0 1 261.8828125 323.7724609)" class="st2 st3">+</text>
<text transform="matrix(0.85 0 0 1 266.4521484 323.7724609)" class="st2 st3"> </text>
<text transform="matrix(0.85 0 0 1 273.0546875 323.7724609)" class="st2 st3">alternativeName: xs::string [0..*]</text>
<text transform="matrix(0.85 0 0 1 261.8828125 332.5146484)" class="st2 st3">+</text>
<text transform="matrix(0.85 0 0 1 266.4521484 332.5146484)" class="st2 st3"> </text>
<text transform="matrix(0.85 0 0 1 273.0546875 332.5146484)" class="st2 st3">adminType: gml::CodeType [0..1]</text>
<text transform="matrix(0.85 0 0 1 261.8828125 341.2490234)" class="st2 st3">+</text>
<text transform="matrix(0.85 0 0 1 266.4521484 341.2490234)" class="st2 st3"> </text>
<text transform="matrix(0.85 0 0 1 273.0546875 341.2490234)" class="st2 st3">relativeLevel: xs::integer [0..1]</text>
<text transform="matrix(0.85 0 0 1 261.8828125 349.9990234)" class="st2 st3">+</text>
<text transform="matrix(0.85 0 0 1 266.4521484 349.9990234)" class="st2 st3"> </text>
<text transform="matrix(0.85 0 0 1 273.0546875 349.9990234)" class="st2 st3">widthType: gml::CodeType [0..1]</text>
<text transform="matrix(0.85 0 0 1 261.8828125 358.7412109)" class="st2 st3">+</text>
<text transform="matrix(0.85 0 0 1 266.4521484 358.7412109)" class="st2 st3"> </text>
<text transform="matrix(0.85 0 0 1 273.0546875 358.7412109)" class="st2 st3">structureType: gml::CodeType [0..1]</text>
<text transform="matrix(0.85 0 0 1 261.8828125 367.4833984)" class="st2 st3">+</text>
<text transform="matrix(0.85 0 0 1 266.4521484 367.4833984)" class="st2 st3"> </text>
<text transform="matrix(0.85 0 0 1 273.0546875 367.4833984)" class="st2 st3">isTollRoad: xs::boolean [0..1]</text>
<text transform="matrix(0.85 0 0 1 261.8828125 376.2255859)" class="st2 st3">+</text>
<text transform="matrix(0.85 0 0 1 266.4521484 376.2255859)" class="st2 st3"> </text>
<text transform="matrix(0.85 0 0 1 273.0546875 376.2255859)" class="st2 st3">separator: gml::LengthType [0..1]</text>
<polygon class="st5" points="472.653717,363.8857422 582.3544922,363.8857422 582.3544922,239.9428711 472.653717,239.9428711 "/>
<polygon class="st1" points="472.653717,363.8857422 582.3544922,363.8857422 582.3544922,239.9428711 472.653717,239.9428711 "/>
<text transform="matrix(0.85 0 0 1 509.7265625 250.2255859)" class="st2 st3">«DataType»</text>
<text transform="matrix(0.85 0 0 1 492.96875 258.9677734)" class="st4 st3">uro::FacilityIdAttribute</text>
<line class="st1" x1="472.653717" y1="263.0856934" x2="581.8466187" y2="263.0856934"/>
<text transform="matrix(0.85 0 0 1 475.1953125 272.3349609)" class="st2 st3">+</text>
<text transform="matrix(0.85 0 0 1 479.7646484 272.3349609)" class="st2 st3"> </text>
<text transform="matrix(0.85 0 0 1 486.3671875 272.3349609)" class="st2 st3">id: xs::string [0..1]</text>
<text transform="matrix(0.85 0 0 1 475.1953125 281.0849609)" class="st2 st3">+</text>
<text transform="matrix(0.85 0 0 1 479.7646484 281.0849609)" class="st2 st3"> </text>
<text transform="matrix(0.85 0 0 1 486.3671875 281.0849609)" class="st2 st3">partId: xs::string [0..1]</text>
<text transform="matrix(0.85 0 0 1 475.1953125 289.8271484)" class="st2 st3">+</text>
<text transform="matrix(0.85 0 0 1 479.7646484 289.8271484)" class="st2 st3"> </text>
<text transform="matrix(0.85 0 0 1 486.3671875 289.8271484)" class="st2 st3">branchId: xs::string [0..1]</text>
<text transform="matrix(0.85 0 0 1 475.1953125 298.5693359)" class="st2 st3">+</text>
<text transform="matrix(0.85 0 0 1 479.7646484 298.5693359)" class="st2 st3"> </text>
<text transform="matrix(0.85 0 0 1 486.3671875 298.5693359)" class="st2 st3">prefecture: gml::CodeType [0..*]</text>
<text transform="matrix(0.85 0 0 1 475.1953125 307.3115234)" class="st2 st3">+</text>
<text transform="matrix(0.85 0 0 1 479.7646484 307.3115234)" class="st2 st3"> </text>
<text transform="matrix(0.85 0 0 1 486.3671875 307.3115234)" class="st2 st3">city: gml::CodeType [0..*]</text>
<text transform="matrix(0.85 0 0 1 475.1953125 316.0615234)" class="st2 st3">+</text>
<text transform="matrix(0.85 0 0 1 479.7646484 316.0615234)" class="st2 st3"> </text>
<text transform="matrix(0.85 0 0 1 486.3671875 316.0615234)" class="st2 st3">route: xs::string [0..1]</text>
<text transform="matrix(0.85 0 0 1 475.1953125 324.7958984)" class="st2 st3">+</text>
<text transform="matrix(0.85 0 0 1 479.7646484 324.7958984)" class="st2 st3"> </text>
<text transform="matrix(0.85 0 0 1 486.3671875 324.7958984)" class="st2 st3">startPost: xs::string [0..1]</text>
<text transform="matrix(0.85 0 0 1 475.1953125 333.5380859)" class="st2 st3">+</text>
<text transform="matrix(0.85 0 0 1 479.7646484 333.5380859)" class="st2 st3"> </text>
<text transform="matrix(0.85 0 0 1 486.3671875 333.5380859)" class="st2 st3">endPost: xs::string [0..1]</text>
<text transform="matrix(0.85 0 0 1 475.1953125 342.2880859)" class="st2 st3">+</text>
<text transform="matrix(0.85 0 0 1 479.7646484 342.2880859)" class="st2 st3"> </text>
<text transform="matrix(0.85 0 0 1 486.3671875 342.2880859)" class="st2 st3">startLat: xs::double [0..1]</text>
<text transform="matrix(0.85 0 0 1 475.1953125 351.0302734)" class="st2 st3">+</text>
<text transform="matrix(0.85 0 0 1 479.7646484 351.0302734)" class="st2 st3"> </text>
<text transform="matrix(0.85 0 0 1 486.3671875 351.0302734)" class="st2 st3">startLong: xs::double [0..1]</text>
<text transform="matrix(0.85 0 0 1 475.1953125 359.7646484)" class="st2 st3">+</text>
<text transform="matrix(0.85 0 0 1 479.7646484 359.7646484)" class="st2 st3"> </text>
<text transform="matrix(0.85 0 0 1 486.3671875 359.7646484)" class="st2 st3">alternativeName: xs::string [0..*]</text>
<polygon class="st5" points="472.653717,202.9143066 575.2442017,202.9143066 575.2442017,157.6571655 472.653717,157.6571655 "/>
<polygon class="st1" points="472.653717,202.9143066 575.2442017,202.9143066 575.2442017,157.6571655 472.653717,157.6571655 "/>
<text transform="matrix(0.85 0 0 1 506.171875 167.9448242)" class="st2 st3">«DataType»</text>
<text transform="matrix(0.85 0 0 1 485.3515625 176.6870117)" class="st4 st3">uro::FacilityTypeAttribute</text>
<line class="st1" x1="472.653717" y1="180.7999878" x2="574.7363281" y2="180.7999878"/>
<text transform="matrix(0.85 0 0 1 475.1953125 190.0541992)" class="st2 st3">+</text>
<text transform="matrix(0.85 0 0 1 479.7646484 190.0541992)" class="st2 st3"> </text>
<text transform="matrix(0.85 0 0 1 486.3671875 190.0541992)" class="st2 st3">class: gml::CodeType [0..1]</text>
<text transform="matrix(0.85 0 0 1 475.1953125 198.7963867)" class="st2 st3">+</text>
<text transform="matrix(0.85 0 0 1 479.7646484 198.7963867)" class="st2 st3"> </text>
<text transform="matrix(0.85 0 0 1 486.3671875 198.7963867)" class="st2 st3">function: gml::CodeType [0..*]</text>
<polygon class="st5" points="467.5749817,142.2285767 552.8977661,142.2285767 552.8977661,101.0856934 467.5749817,101.0856934 "/>
<polygon class="st1" points="467.5749817,142.2285767 552.8977661,142.2285767 552.8977661,101.0856934 467.5749817,101.0856934 "/>
<text transform="matrix(0.85 0 0 1 492.4609375 111.3740234)" class="st2 st3">«DataType»</text>
<text transform="matrix(0.85 0 -0.3126727 0.9498609 478.7458801 120.1131134)" class="st2 st6">u</text>
<text transform="matrix(0.85 0 -0.3126727 0.9498609 478.7458801 120.1131134)" class="st7 st2 st6">u</text>
<text transform="matrix(0.85 0 -0.3126727 0.9498609 482.8054504 120.1131134)" class="st2 st6">r</text>
<text transform="matrix(0.85 0 -0.3126727 0.9498609 482.8054504 120.1131134)" class="st7 st2 st6">r</text>
<text transform="matrix(0.85 0 -0.3126727 0.9498609 485.3386536 120.1131134)" class="st2 st6">o</text>
<text transform="matrix(0.85 0 -0.3126727 0.9498609 485.3386536 120.1131134)" class="st7 st2 st6">o</text>
<text transform="matrix(0.85 0 -0.3126727 0.9498609 489.3992004 120.1131134)" class="st2 st6">::</text>
<text transform="matrix(0.85 0 -0.3126727 0.9498609 489.3992004 120.1131134)" class="st7 st2 st6">::</text>
<text transform="matrix(0.85 0 -0.3126727 0.9498609 492.4333801 120.1131134)" class="st2 st6">F</text>
<text transform="matrix(0.85 0 -0.3126727 0.9498609 492.4333801 120.1131134)" class="st7 st2 st6">F</text>
<text transform="matrix(0.85 0 -0.3126727 0.9498609 495.9870911 120.1131134)" class="st2 st6">a</text>
<text transform="matrix(0.85 0 -0.3126727 0.9498609 495.9870911 120.1131134)" class="st7 st2 st6">a</text>
<text transform="matrix(0.85 0 -0.3126727 0.9498609 499.5378723 120.1131134)" class="st2 st6">c</text>
<text transform="matrix(0.85 0 -0.3126727 0.9498609 499.5378723 120.1131134)" class="st7 st2 st6">c</text>
<text transform="matrix(0.85 0 -0.3126727 0.9498609 502.587677 120.1131134)" class="st2 st6">ili</text>
<text transform="matrix(0.85 0 -0.3126727 0.9498609 502.587677 120.1131134)" class="st7 st2 st6">ili</text>
<text transform="matrix(0.85 0 -0.3126727 0.9498609 507.1667786 120.1131134)" class="st2 st6">t</text>
<text transform="matrix(0.85 0 -0.3126727 0.9498609 507.1667786 120.1131134)" class="st7 st2 st6">t</text>
<text transform="matrix(0.85 0 -0.3126727 0.9498609 509.7009583 120.1131134)" class="st2 st6">y</text>
<text transform="matrix(0.85 0 -0.3126727 0.9498609 509.7009583 120.1131134)" class="st7 st2 st6">y</text>
<text transform="matrix(0.85 0 -0.3126727 0.9498609 513.2527466 120.1131134)" class="st2 st6">A</text>
<text transform="matrix(0.85 0 -0.3126727 0.9498609 513.2527466 120.1131134)" class="st7 st2 st6">A</text>
<text transform="matrix(0.85 0 -0.3126727 0.9498609 517.821106 120.1131134)" class="st2 st6">tt</text>
<text transform="matrix(0.85 0 -0.3126727 0.9498609 517.821106 120.1131134)" class="st7 st2 st6">tt</text>
<text transform="matrix(0.85 0 -0.3126727 0.9498609 522.8904419 120.1131134)" class="st2 st6">r</text>
<text transform="matrix(0.85 0 -0.3126727 0.9498609 522.8904419 120.1131134)" class="st7 st2 st6">r</text>
<text transform="matrix(0.85 0 -0.3126727 0.9498609 525.423645 120.1131134)" class="st2 st6">i</text>
<text transform="matrix(0.85 0 -0.3126727 0.9498609 525.423645 120.1131134)" class="st7 st2 st6">i</text>
<text transform="matrix(0.85 0 -0.3126727 0.9498609 526.9500122 120.1131134)" class="st2 st6">b</text>
<text transform="matrix(0.85 0 -0.3126727 0.9498609 526.9500122 120.1131134)" class="st7 st2 st6">b</text>
<text transform="matrix(0.85 0 -0.3126727 0.9498609 531.0095825 120.1131134)" class="st2 st6">u</text>
<text transform="matrix(0.85 0 -0.3126727 0.9498609 531.0095825 120.1131134)" class="st7 st2 st6">u</text>
<text transform="matrix(0.85 0 -0.3126727 0.9498609 535.0691528 120.1131134)" class="st2 st6">t</text>
<text transform="matrix(0.85 0 -0.3126727 0.9498609 535.0691528 120.1131134)" class="st7 st2 st6">t</text>
<text transform="matrix(0.85 0 -0.3126727 0.9498609 537.6033325 120.1131134)" class="st2 st6">e</text>
<text transform="matrix(0.85 0 -0.3126727 0.9498609 537.6033325 120.1131134)" class="st7 st2 st6">e</text>
<line class="st1" x1="467.5749817" y1="124.2285767" x2="552.3898926" y2="124.2285767"/>
<text transform="matrix(0.85 0 0 1 470.109375 133.4833984)" class="st2 st3">+</text>
<text transform="matrix(0.85 0 0 1 474.6787109 133.4833984)" class="st2 st3"> </text>
<text transform="matrix(0.85 0 0 1 481.2890625 133.4833984)" class="st2 st3">facilityId: xs::string [0..1]</text>
<polygon class="st0" points="264.425354,85.6571655 366.0001831,85.6571655 366.0001831,44.514267 264.425354,44.514267 "/>
<polygon class="st1" points="264.425354,85.6571655 366.0001831,85.6571655 366.0001831,44.514267 264.425354,44.514267 "/>
<text transform="matrix(0.85 0 -0.3126727 0.9498609 331.973877 53.251812)" class="st2 st6">_CityObject</text>
<text transform="matrix(0.85 0 -0.3126727 0.9498609 273.0623169 63.544445)" class="st2 st6">t</text>
<text transform="matrix(0.85 0 -0.3126727 0.9498609 273.0623169 63.544445)" class="st7 st2 st6">t</text>
<text transform="matrix(0.85 0 -0.3126727 0.9498609 275.5964966 63.544445)" class="st2 st6">r</text>
<text transform="matrix(0.85 0 -0.3126727 0.9498609 275.5964966 63.544445)" class="st7 st2 st6">r</text>
<text transform="matrix(0.85 0 -0.3126727 0.9498609 278.1296997 63.544445)" class="st2 st6">a</text>
<text transform="matrix(0.85 0 -0.3126727 0.9498609 278.1296997 63.544445)" class="st7 st2 st6">a</text>
<text transform="matrix(0.85 0 -0.3126727 0.9498609 281.680481 63.544445)" class="st2 st6">n</text>
<text transform="matrix(0.85 0 -0.3126727 0.9498609 281.680481 63.544445)" class="st7 st2 st6">n</text>
<text transform="matrix(0.85 0 -0.3126727 0.9498609 285.7400513 63.544445)" class="st2 st6">::</text>
<text transform="matrix(0.85 0 -0.3126727 0.9498609 285.7400513 63.544445)" class="st7 st2 st6">::</text>
<text transform="matrix(0.85 0 -0.3126727 0.9498609 288.7752075 63.544445)" class="st2 st6">_</text>
<text transform="matrix(0.85 0 -0.3126727 0.9498609 288.7752075 63.544445)" class="st7 st2 st6">_</text>
<text transform="matrix(0.85 0 -0.3126727 0.9498609 291.3171997 63.544445)" class="st2 st6">T</text>
<text transform="matrix(0.85 0 -0.3126727 0.9498609 291.3171997 63.544445)" class="st7 st2 st6">T</text>
<text transform="matrix(0.85 0 -0.3126727 0.9498609 294.8689575 63.544445)" class="st2 st6">r</text>
<text transform="matrix(0.85 0 -0.3126727 0.9498609 294.8689575 63.544445)" class="st7 st2 st6">r</text>
<text transform="matrix(0.85 0 -0.3126727 0.9498609 297.4011841 63.544445)" class="st2 st6">a</text>
<text transform="matrix(0.85 0 -0.3126727 0.9498609 297.4011841 63.544445)" class="st7 st2 st6">a</text>
<text transform="matrix(0.85 0 -0.3126727 0.9498609 300.9519653 63.544445)" class="st2 st6">n</text>
<text transform="matrix(0.85 0 -0.3126727 0.9498609 300.9519653 63.544445)" class="st7 st2 st6">n</text>
<text transform="matrix(0.85 0 -0.3126727 0.9498609 305.0125122 63.544445)" class="st2 st6">s</text>
<text transform="matrix(0.85 0 -0.3126727 0.9498609 305.0125122 63.544445)" class="st7 st2 st6">s</text>
<text transform="matrix(0.85 0 -0.3126727 0.9498609 308.0574341 63.544445)" class="st2 st6">p</text>
<text transform="matrix(0.85 0 -0.3126727 0.9498609 308.0574341 63.544445)" class="st7 st2 st6">p</text>
<text transform="matrix(0.85 0 -0.3126727 0.9498609 312.117981 63.544445)" class="st2 st6">o</text>
<text transform="matrix(0.85 0 -0.3126727 0.9498609 312.117981 63.544445)" class="st7 st2 st6">o</text>
<text transform="matrix(0.85 0 -0.3126727 0.9498609 316.1775513 63.544445)" class="st2 st6">r</text>
<text transform="matrix(0.85 0 -0.3126727 0.9498609 316.1775513 63.544445)" class="st7 st2 st6">r</text>
<text transform="matrix(0.85 0 -0.3126727 0.9498609 318.7107544 63.544445)" class="st2 st6">t</text>
<text transform="matrix(0.85 0 -0.3126727 0.9498609 318.7107544 63.544445)" class="st7 st2 st6">t</text>
<text transform="matrix(0.85 0 -0.3126727 0.9498609 321.2449341 63.544445)" class="st2 st6">a</text>
<text transform="matrix(0.85 0 -0.3126727 0.9498609 321.2449341 63.544445)" class="st7 st2 st6">a</text>
<text transform="matrix(0.85 0 -0.3126727 0.9498609 324.7957153 63.544445)" class="st2 st6">t</text>
<text transform="matrix(0.85 0 -0.3126727 0.9498609 324.7957153 63.544445)" class="st7 st2 st6">t</text>
<text transform="matrix(0.85 0 -0.3126727 0.9498609 327.329895 63.544445)" class="st2 st6">i</text>
<text transform="matrix(0.85 0 -0.3126727 0.9498609 327.329895 63.544445)" class="st7 st2 st6">i</text>
<text transform="matrix(0.85 0 -0.3126727 0.9498609 328.8562622 63.544445)" class="st2 st6">o</text>
<text transform="matrix(0.85 0 -0.3126727 0.9498609 328.8562622 63.544445)" class="st7 st2 st6">o</text>
<text transform="matrix(0.85 0 -0.3126727 0.9498609 332.9168091 63.544445)" class="st2 st6">n</text>
<text transform="matrix(0.85 0 -0.3126727 0.9498609 332.9168091 63.544445)" class="st7 st2 st6">n</text>
<text transform="matrix(0.85 0 -0.3126727 0.9498609 336.9763794 63.544445)" class="st2 st6">O</text>
<text transform="matrix(0.85 0 -0.3126727 0.9498609 336.9763794 63.544445)" class="st7 st2 st6">O</text>
<text transform="matrix(0.85 0 -0.3126727 0.9498609 342.0525513 63.544445)" class="st2 st6">b</text>
<text transform="matrix(0.85 0 -0.3126727 0.9498609 342.0525513 63.544445)" class="st7 st2 st6">b</text>
<text transform="matrix(0.85 0 -0.3126727 0.9498609 346.1130981 63.544445)" class="st2 st6">j</text>
<text transform="matrix(0.85 0 -0.3126727 0.9498609 346.1130981 63.544445)" class="st7 st2 st6">j</text>
<text transform="matrix(0.85 0 -0.3126727 0.9498609 347.6394653 63.544445)" class="st2 st6">e</text>
<text transform="matrix(0.85 0 -0.3126727 0.9498609 347.6394653 63.544445)" class="st7 st2 st6">e</text>
<text transform="matrix(0.85 0 -0.3126727 0.9498609 351.1912231 63.544445)" class="st2 st6">ct</text>
<text transform="matrix(0.85 0 -0.3126727 0.9498609 351.1912231 63.544445)" class="st7 st2 st6">ct</text>
<polygon class="st5" points="65.8465958,53.7714081 177.5788879,53.7714081 177.5788879,8.514267 65.8465958,8.514267 "/>
<polygon class="st1" points="65.8465958,53.7714081 177.5788879,53.7714081 177.5788879,8.514267 65.8465958,8.514267 "/>
<text transform="matrix(0.85 0 0 1 103.9375 18.7963867)" class="st2 st3">«DataType»</text>
<text transform="matrix(0.85 0 -0.3126727 0.9498609 95.3027649 27.5461998)" class="st2 st6">u</text>
<text transform="matrix(0.85 0 -0.3126727 0.9498609 95.3027649 27.5461998)" class="st7 st2 st6">u</text>
<text transform="matrix(0.85 0 -0.3126727 0.9498609 99.3623352 27.5461998)" class="st2 st6">r</text>
<text transform="matrix(0.85 0 -0.3126727 0.9498609 99.3623352 27.5461998)" class="st7 st2 st6">r</text>
<text transform="matrix(0.85 0 -0.3126727 0.9498609 101.8955383 27.5461998)" class="st2 st6">o</text>
<text transform="matrix(0.85 0 -0.3126727 0.9498609 101.8955383 27.5461998)" class="st7 st2 st6">o</text>
<text transform="matrix(0.85 0 -0.3126727 0.9498609 105.9560852 27.5461998)" class="st2 st6">::</text>
<text transform="matrix(0.85 0 -0.3126727 0.9498609 105.9560852 27.5461998)" class="st7 st2 st6">::</text>
<text transform="matrix(0.85 0 -0.3126727 0.9498609 108.9902649 27.5461998)" class="st2 st6">D</text>
<text transform="matrix(0.85 0 -0.3126727 0.9498609 108.9902649 27.5461998)" class="st7 st2 st6">D</text>
<text transform="matrix(0.85 0 -0.3126727 0.9498609 113.5664368 27.5461998)" class="st2 st6">m</text>
<text transform="matrix(0.85 0 -0.3126727 0.9498609 113.5664368 27.5461998)" class="st7 st2 st6">m</text>
<text transform="matrix(0.85 0 -0.3126727 0.9498609 119.6562805 27.5461998)" class="st2 st6">A</text>
<text transform="matrix(0.85 0 -0.3126727 0.9498609 119.6562805 27.5461998)" class="st7 st2 st6">A</text>
<text transform="matrix(0.85 0 -0.3126727 0.9498609 124.2256165 27.5461998)" class="st2 st6">tt</text>
<text transform="matrix(0.85 0 -0.3126727 0.9498609 124.2256165 27.5461998)" class="st7 st2 st6">tt</text>
<text transform="matrix(0.85 0 -0.3126727 0.9498609 129.2939758 27.5461998)" class="st2 st6">r</text>
<text transform="matrix(0.85 0 -0.3126727 0.9498609 129.2939758 27.5461998)" class="st7 st2 st6">r</text>
<text transform="matrix(0.85 0 -0.3126727 0.9498609 131.827179 27.5461998)" class="st2 st6">i</text>
<text transform="matrix(0.85 0 -0.3126727 0.9498609 131.827179 27.5461998)" class="st7 st2 st6">i</text>
<text transform="matrix(0.85 0 -0.3126727 0.9498609 133.3535461 27.5461998)" class="st2 st6">b</text>
<text transform="matrix(0.85 0 -0.3126727 0.9498609 133.3535461 27.5461998)" class="st7 st2 st6">b</text>
<text transform="matrix(0.85 0 -0.3126727 0.9498609 137.4131165 27.5461998)" class="st2 st6">u</text>
<text transform="matrix(0.85 0 -0.3126727 0.9498609 137.4131165 27.5461998)" class="st7 st2 st6">u</text>
<text transform="matrix(0.85 0 -0.3126727 0.9498609 141.4726868 27.5461998)" class="st2 st6">t</text>
<text transform="matrix(0.85 0 -0.3126727 0.9498609 141.4726868 27.5461998)" class="st7 st2 st6">t</text>
<text transform="matrix(0.85 0 -0.3126727 0.9498609 144.007843 27.5461998)" class="st2 st6">e</text>
<text transform="matrix(0.85 0 -0.3126727 0.9498609 144.007843 27.5461998)" class="st7 st2 st6">e</text>
<line class="st1" x1="65.8465958" y1="31.6571503" x2="177.0710144" y2="31.6571503"/>
<text transform="matrix(0.85 0 0 1 68.3828125 40.9135742)" class="st2 st3">+</text>
<text transform="matrix(0.85 0 0 1 72.9521484 40.9135742)" class="st2 st3"> </text>
<text transform="matrix(0.85 0 0 1 79.5546875 40.9135742)" class="st2 st3">dmCode: gml::CodeType</text>
<text transform="matrix(0.85 0 0 1 68.3828125 49.6557617)" class="st2 st3">+</text>
<text transform="matrix(0.85 0 0 1 72.9521484 49.6557617)" class="st2 st3"> </text>
<text transform="matrix(0.85 0 0 1 79.5546875 49.6557617)" class="st2 st3">meshCode: gml::CodeType [0..1]</text>
<path class="st8" d="M508.204895,388.0571899c0.8414307,0,1.5235596,0.6907349,1.5235596,1.5428467l0.000061-0.000061v58.1143188
	h-0.000061c0,0.8521118-0.6821289,1.5429077-1.5236206,1.5429077v-0.000061h0.000061h-94.9724426l-0.0000305,0.000061
	c-0.8414307-0.000061-1.5236206-0.6907959-1.5236206-1.5429077h0.0000305v-58.1143188
	c0-0.8520508,0.6821594-1.5428467,1.5236206-1.5427856v-0.000061h94.9724426V388.0571899L508.204895,388.0571899z"/>
<path class="st9" d="M508.204895,388.0571899c0.8414307,0,1.5235596,0.6907349,1.5235596,1.5428467l0.000061-0.000061v58.1143188
	h-0.000061c0,0.8521118-0.6821289,1.5429077-1.5236206,1.5429077v-0.000061h0.000061h-94.9724426l-0.0000305,0.000061
	c-0.8414307-0.000061-1.5236206-0.6907959-1.5236206-1.5429077h0.0000305v-58.1143188
	c0-0.8520508,0.6821594-1.5428467,1.5236206-1.5427856v-0.000061h94.9724426V388.0571899L508.204895,388.0571899z"/>
<polygon class="st10" points="416.7875671,412.2285767 425.4214478,412.2285767 425.4214478,403.4857178 416.7875671,403.4857178 
	"/>
<polygon class="st11" points="416.7875671,412.2285767 425.4214478,412.2285767 425.4214478,403.4857178 416.7875671,403.4857178 
	"/>
<text transform="matrix(0.85 0 0 1 427.9609375 410.6865234)" class="st12 st2 st3">GMLに定義されたクラス</text>
<polygon class="st0" points="416.7875671,422 425.4214478,422 425.4214478,413.2572021 416.7875671,413.2572021 "/>
<polygon class="st11" points="416.7875671,422 425.4214478,422 425.4214478,413.2572021 416.7875671,413.2572021 "/>
<text transform="matrix(0.85 0 0 1 427.9609375 420.4521484)" class="st12 st2 st3">CityGMLに定義されたクラス</text>
<polygon class="st5" points="416.7875671,431.7714233 425.4214478,431.7714233 425.4214478,423.0285645 416.7875671,423.0285645 "/>
<polygon class="st11" points="416.7875671,431.7714233 425.4214478,431.7714233 425.4214478,423.0285645 416.7875671,423.0285645 
	"/>
<text transform="matrix(0.85 0 0 1 427.9609375 430.2255859)" class="st12 st2 st3">i-URに定義されたクラス</text>
<text transform="matrix(0.85 0 0 1 452.8515625 401.1191406)" class="st12 st4 st13 st14">凡例</text>
<polygon class="st5" points="50.6103668,458 205.0040894,458 205.0040894,342.8000488 50.6103668,342.8000488 "/>
<polygon class="st1" points="50.6103668,458 205.0040894,458 205.0040894,342.8000488 50.6103668,342.8000488 "/>
<text transform="matrix(0.85 0 0 1 110.03125 353.0927734)" class="st2 st3">«DataType»</text>
<text transform="matrix(0.85 0 0 1 70.4140625 361.8271484)" class="st4 st3">uro::PublicSuveyDataQualityAttribute</text>
<line class="st1" x1="50.6103668" y1="365.9428711" x2="204.4962158" y2="365.9428711"/>
<text transform="matrix(0.85 0 0 1 53.1484375 375.2021484)" class="st2 st3">+</text>
<text transform="matrix(0.85 0 0 1 57.7177734 375.2021484)" class="st2 st3"> </text>
<text transform="matrix(0.85 0 0 1 64.3203125 375.2021484)" class="st2 st3">srcScaleLod0: gml::CodeType [0..1]</text>
<text transform="matrix(0.85 0 0 1 53.1484375 383.9365234)" class="st2 st3">+</text>
<text transform="matrix(0.85 0 0 1 57.7177734 383.9365234)" class="st2 st3"> </text>
<text transform="matrix(0.85 0 0 1 64.3203125 383.9365234)" class="st2 st3">srcScaleLod1: gml::CodeType [0..1]</text>
<text transform="matrix(0.85 0 0 1 53.1484375 392.6787109)" class="st2 st3">+</text>
<text transform="matrix(0.85 0 0 1 57.7177734 392.6787109)" class="st2 st3"> </text>
<text transform="matrix(0.85 0 0 1 64.3203125 392.6787109)" class="st2 st3">srcScaleLod2: gml::CodeType [0..1]</text>
<text transform="matrix(0.85 0 0 1 53.1484375 401.4287109)" class="st2 st3">+</text>
<text transform="matrix(0.85 0 0 1 57.7177734 401.4287109)" class="st2 st3"> </text>
<text transform="matrix(0.85 0 0 1 64.3203125 401.4287109)" class="st2 st3">srcScaleLod3: gml::CodeType [0..1]</text>
<text transform="matrix(0.85 0 0 1 53.1484375 410.1708984)" class="st2 st3">+</text>
<text transform="matrix(0.85 0 0 1 57.7177734 410.1708984)" class="st2 st3"> </text>
<text transform="matrix(0.85 0 0 1 64.3203125 410.1708984)" class="st2 st3">srcScaleLod4: gml::CodeType [0..1]</text>
<text transform="matrix(0.85 0 0 1 53.1484375 418.9052734)" class="st2 st3">+</text>
<text transform="matrix(0.85 0 0 1 57.7177734 418.9052734)" class="st2 st3"> </text>
<text transform="matrix(0.85 0 0 1 64.3203125 418.9052734)" class="st2 st3">publicSurveySrcDescLod0: gml::CodeType [0..*]</text>
<text transform="matrix(0.85 0 0 1 53.1484375 427.6552734)" class="st2 st3">+</text>
<text transform="matrix(0.85 0 0 1 57.7177734 427.6552734)" class="st2 st3"> </text>
<text transform="matrix(0.85 0 0 1 64.3203125 427.6552734)" class="st2 st3">publicSurveySrcDescLod1: gml::CodeType [0..*]</text>
<text transform="matrix(0.85 0 0 1 53.1484375 436.3974609)" class="st2 st3">+</text>
<text transform="matrix(0.85 0 0 1 57.7177734 436.3974609)" class="st2 st3"> </text>
<text transform="matrix(0.85 0 0 1 64.3203125 436.3974609)" class="st2 st3">publicSurveySrcDescLod2: gml::CodeType [0..*]</text>
<text transform="matrix(0.85 0 0 1 53.1484375 445.1396484)" class="st2 st3">+</text>
<text transform="matrix(0.85 0 0 1 57.7177734 445.1396484)" class="st2 st3"> </text>
<text transform="matrix(0.85 0 0 1 64.3203125 445.1396484)" class="st2 st3">publicSurveySrcDescLod3: gml::CodeType [0..*]</text>
<text transform="matrix(0.85 0 0 1 53.1484375 453.8818359)" class="st2 st3">+</text>
<text transform="matrix(0.85 0 0 1 57.7177734 453.8818359)" class="st2 st3"> </text>
<text transform="matrix(0.85 0 0 1 64.3203125 453.8818359)" class="st2 st3">publicSurveySrcDescLod4: gml::CodeType [0..*]</text>
<polygon class="st5" points="65.8465958,113.9428711 207.0355835,113.9428711 207.0355835,63.5428314 65.8465958,63.5428314 "/>
<polygon class="st1" points="65.8465958,113.9428711 207.0355835,113.9428711 207.0355835,63.5428314 65.8465958,63.5428314 "/>
<text transform="matrix(0.85 0 0 1 118.6640625 73.8271484)" class="st2 st3">«DataType»</text>
<text transform="matrix(0.85 0 0 1 95.8125 82.5693359)" class="st4 st3">uro::KeyValuePairAttribute</text>
<line class="st1" x1="65.8465958" y1="86.68573" x2="206.52771" y2="86.68573"/>
<text transform="matrix(0.85 0 0 1 68.3828125 95.9365234)" class="st2 st3">+</text>
<text transform="matrix(0.85 0 0 1 72.9521484 95.9365234)" class="st2 st3"> </text>
<text transform="matrix(0.85 0 0 1 79.5546875 95.9365234)" class="st2 st3">key: gml::CodeType</text>
<text transform="matrix(0.85 0 0 1 68.3828125 104.6787109)" class="st2 st3">+</text>
<text transform="matrix(0.85 0 0 1 72.9521484 104.6787109)" class="st2 st3"> </text>
<text transform="matrix(0.85 0 0 1 79.5546875 104.6787109)" class="st2 st3">codeValue: gml::CodeType [0..1]</text>
<polygon class="st5" points="51.6261215,279.0285645 203.9883423,279.0285645 203.9883423,128.8571777 51.6261215,128.8571777 "/>
<polygon class="st1" points="51.6261215,279.0285645 203.9883423,279.0285645 203.9883423,128.8571777 51.6261215,128.8571777 "/>
<text transform="matrix(0.85 0 0 1 110.03125 139.1396484)" class="st2 st3">«DataType»</text>
<text transform="matrix(0.85 0 0 1 88.6953125 147.8823242)" class="st4 st3">uro::DataQualityAttribute</text>
<line class="st1" x1="51.6261215" y1="152" x2="203.4804688" y2="152"/>
<text transform="matrix(0.85 0 0 1 54.1640625 161.2495117)" class="st2 st3">+</text>
<text transform="matrix(0.85 0 0 1 58.7333984 161.2495117)" class="st2 st3"> </text>
<text transform="matrix(0.85 0 0 1 65.3359375 161.2495117)" class="st2 st3">geometrySrcDescLod0: gml::CodeType [0..*]</text>
<text transform="matrix(0.85 0 0 1 54.1640625 169.9995117)" class="st2 st3">+</text>
<text transform="matrix(0.85 0 0 1 58.7333984 169.9995117)" class="st2 st3"> </text>
<text transform="matrix(0.85 0 0 1 65.3359375 169.9995117)" class="st2 st3">geometrySrcDescLod1: gml::CodeType [1..*]</text>
<text transform="matrix(0.85 0 0 1 54.1640625 178.7416992)" class="st2 st3">+</text>
<text transform="matrix(0.85 0 0 1 58.7333984 178.7416992)" class="st2 st3"> </text>
<text transform="matrix(0.85 0 0 1 65.3359375 178.7416992)" class="st2 st3">geometrySrcDescLod2: gml::CodeType [0..*]</text>
<text transform="matrix(0.85 0 0 1 54.1640625 187.4838867)" class="st2 st3">+</text>
<text transform="matrix(0.85 0 0 1 58.7333984 187.4838867)" class="st2 st3"> </text>
<text transform="matrix(0.85 0 0 1 65.3359375 187.4838867)" class="st2 st3">geometrySrcDescLod3: gml::CodeType [0..*]</text>
<text transform="matrix(0.85 0 0 1 54.1640625 196.2260742)" class="st2 st3">+</text>
<text transform="matrix(0.85 0 0 1 58.7333984 196.2260742)" class="st2 st3"> </text>
<text transform="matrix(0.85 0 0 1 65.3359375 196.2260742)" class="st2 st3">geometrySrcDescLod4: gml::CodeType [0..*]</text>
<text transform="matrix(0.85 0 0 1 54.1640625 204.9682617)" class="st2 st3">+</text>
<text transform="matrix(0.85 0 0 1 58.7333984 204.9682617)" class="st2 st3"> </text>
<text transform="matrix(0.85 0 0 1 65.3359375 204.9682617)" class="st2 st3">thematicSrcDesc: gml::CodeType [0..*]</text>
<text transform="matrix(0.85 0 0 1 54.1640625 213.7182617)" class="st2 st3">+</text>
<text transform="matrix(0.85 0 0 1 58.7333984 213.7182617)" class="st2 st3"> </text>
<text transform="matrix(0.85 0 0 1 65.3359375 213.7182617)" class="st2 st3">appearanceSrcDescLod0: gml::CodeType [0..*]</text>
<text transform="matrix(0.85 0 0 1 54.1640625 222.4526367)" class="st2 st3">+</text>
<text transform="matrix(0.85 0 0 1 58.7333984 222.4526367)" class="st2 st3"> </text>
<text transform="matrix(0.85 0 0 1 65.3359375 222.4526367)" class="st2 st3">appearanceSrcDescLod1: gml::CodeType [0..*]</text>
<text transform="matrix(0.85 0 0 1 54.1640625 231.1948242)" class="st2 st3">+</text>
<text transform="matrix(0.85 0 0 1 58.7333984 231.1948242)" class="st2 st3"> </text>
<text transform="matrix(0.85 0 0 1 65.3359375 231.1948242)" class="st2 st3">appearanceSrcDescLod2: gml::CodeType [0..*]</text>
<text transform="matrix(0.85 0 0 1 54.1640625 239.9443359)" class="st2 st3">+</text>
<text transform="matrix(0.85 0 0 1 58.7333984 239.9443359)" class="st2 st3"> </text>
<text transform="matrix(0.85 0 0 1 65.3359375 239.9443359)" class="st2 st3">appearanceSrcDescLod3: gml::CodeType [0..*]</text>
<text transform="matrix(0.85 0 0 1 54.1640625 248.6865234)" class="st2 st3">+</text>
<text transform="matrix(0.85 0 0 1 58.7333984 248.6865234)" class="st2 st3"> </text>
<text transform="matrix(0.85 0 0 1 65.3359375 248.6865234)" class="st2 st3">appearanceSrcDescLod4: gml::CodeType [0..*]</text>
<text transform="matrix(0.85 0 0 1 54.1640625 257.4208984)" class="st2 st3">+</text>
<text transform="matrix(0.85 0 0 1 58.7333984 257.4208984)" class="st2 st3"> </text>
<text transform="matrix(0.85 0 0 1 65.3359375 257.4208984)" class="st2 st3">lodType: gml::CodeType [0..*]</text>
<text transform="matrix(0.85 0 0 1 54.1640625 266.1708984)" class="st2 st3">+</text>
<text transform="matrix(0.85 0 0 1 58.7333984 266.1708984)" class="st2 st3"> </text>
<text transform="matrix(0.85 0 0 1 65.3359375 266.1708984)" class="st2 st3">lod1HeightType: gml::CodeType [0..1]</text>
<text transform="matrix(0.85 0 0 1 54.1640625 274.9130859)" class="st2 st3">+</text>
<text transform="matrix(0.85 0 0 1 58.7333984 274.9130859)" class="st2 st3"> </text>
<text transform="matrix(0.85 0 0 1 65.3359375 274.9130859)" class="st2 st3">tranDataAcquisition: xs::string [0..1]</text>
<line class="st1" x1="178.0867615" y1="31.142868" x2="239.0316467" y2="31.142868"/>
<line class="st1" x1="239.0316467" y1="31.142868" x2="239.0316467" y2="65.0856781"/>
<line class="st1" x1="239.0316467" y1="65.0856781" x2="263.9174805" y2="65.0856781"/>
<polyline class="st15" points="258.8387451,67.6571503 263.9174805,65.0856781 258.8387451,62.514267 253.7600098,65.0856781 
	258.8387451,67.6571503 "/>
<polygon class="st1" points="258.8387451,67.6571503 263.9174805,65.0856781 258.8387451,62.514267 253.7600098,65.0856781 "/>
<polyline class="st1" points="185.7048798,34.2285614 178.0867615,31.142868 185.7048798,28.0571136 "/>
<line class="st1" x1="467.0671082" y1="121.1428833" x2="392.4096069" y2="121.1428833"/>
<line class="st1" x1="392.4096069" y1="121.1428833" x2="392.4096069" y2="157.6571655"/>
<line class="st1" x1="392.4096069" y1="157.6571655" x2="367.5238037" y2="157.6571655"/>
<polyline class="st15" points="372.6025391,155.0856934 367.5238037,157.6571655 372.6025391,160.2285767 377.6812744,157.6571655 
	372.6025391,155.0856934 "/>
<polyline class="st1" points="372.6025391,155.0856934 367.5238037,157.6571655 372.6025391,160.2285767 377.6812744,157.6571655 
	"/>
<polyline class="st1" points="459.4490051,118.0571289 467.0671082,121.1428833 459.4490051,124.2285767 "/>
<line class="st1" x1="472.1458435" y1="179.7714233" x2="392.4096069" y2="179.7714233"/>
<polyline class="st15" points="372.6025391,155.0856934 367.5238037,157.6571655 372.6025391,160.2285767 377.6812744,157.6571655 
	372.6025391,155.0856934 "/>
<polyline class="st1" points="372.6025391,155.0856934 367.5238037,157.6571655 372.6025391,160.2285767 377.6812744,157.6571655 
	"/>
<polyline class="st1" points="464.5277405,176.68573 472.1458435,179.7714233 464.5277405,182.8571777 "/>
<line class="st1" x1="472.1458435" y1="301.1428833" x2="392.4096069" y2="301.1428833"/>
<line class="st1" x1="392.4096069" y1="301.1428833" x2="392.4096069" y2="157.6571655"/>
<polyline class="st15" points="372.6025391,155.0856934 367.5238037,157.6571655 372.6025391,160.2285767 377.6812744,157.6571655 
	372.6025391,155.0856934 "/>
<polygon class="st1" points="372.6025391,155.0856934 367.5238037,157.6571655 372.6025391,160.2285767 377.6812744,157.6571655 "/>
<polyline class="st1" points="464.5277405,298.0571289 472.1458435,301.1428833 464.5277405,304.2285767 "/>
<line class="st1" x1="318.2600098" y1="290.8571777" x2="318.2600098" y2="255.8857422"/>
<polyline class="st15" points="320.7993774,261.0285645 318.2600098,255.8857422 315.7206421,261.0285645 318.2600098,266.1714478 
	320.7993774,261.0285645 "/>
<polygon class="st1" points="320.7993774,261.0285645 318.2600098,255.8857422 315.7206421,261.0285645 318.2600098,266.1714478 "/>
<polyline class="st1" points="321.307251,283.1428833 318.2600098,290.8571777 315.2127686,283.1428833 "/>
<line class="st1" x1="311.1497803" y1="131.4285889" x2="311.1497803" y2="86.1714478"/>
<polyline class="st16" points="314.1970215,94.4000244 308.1025391,94.4000244 311.1497803,86.1714478 314.1970215,94.4000244 "/>
<polygon class="st1" points="314.1970215,94.4000244 308.1025391,94.4000244 311.1497803,86.1714478 "/>
<line class="st1" x1="315.2127686" y1="213.7142944" x2="315.2127686" y2="184.4000244"/>
<polyline class="st16" points="318.2600098,192.6286011 312.1655273,192.6286011 315.2127686,184.4000244 318.2600098,192.6286011 
	"/>
<polygon class="st1" points="318.2600098,192.6286011 312.1655273,192.6286011 315.2127686,184.4000244 "/>
<line class="st1" x1="207.543457" y1="88.7428589" x2="239.0316467" y2="88.7428589"/>
<line class="st1" x1="239.0316467" y1="88.7428589" x2="239.0316467" y2="157.6571655"/>
<line class="st1" x1="239.0316467" y1="157.6571655" x2="263.9174805" y2="157.6571655"/>
<polyline class="st15" points="258.8387451,160.2285767 263.9174805,157.6571655 258.8387451,155.0856934 253.7600098,157.6571655 
	258.8387451,160.2285767 "/>
<polygon class="st1" points="258.8387451,160.2285767 263.9174805,157.6571655 258.8387451,155.0856934 253.7600098,157.6571655 "/>
<polyline class="st1" points="215.1615753,91.8285522 207.543457,88.7428589 215.1615753,85.6571655 "/>
<line class="st1" x1="127.8072357" y1="342.2857666" x2="127.8072357" y2="279.5428467"/>
<polyline class="st15" points="130.3466034,284.68573 127.8072357,279.5428467 125.2678528,284.68573 127.8072357,289.8286133 
	130.3466034,284.68573 "/>
<polygon class="st1" points="130.3466034,284.68573 127.8072357,279.5428467 125.2678528,284.68573 127.8072357,289.8286133 "/>
<polyline class="st1" points="130.8544769,334.5714111 127.8072357,342.2857666 124.7599792,334.5714111 "/>
<line class="st1" x1="204.4962158" y1="175.6571655" x2="263.9174805" y2="175.1428833"/>
<polyline class="st15" points="258.8387451,177.7142944 263.9174805,175.1428833 258.8387451,172.5714111 253.7600098,175.1428833 
	258.8387451,177.7142944 "/>
<polygon class="st1" points="258.8387451,177.7142944 263.9174805,175.1428833 258.8387451,172.5714111 253.7600098,175.1428833 "/>
<polyline class="st1" points="212.1143188,178.7428589 204.4962158,175.6571655 212.1143188,172.5714111 "/>
<text transform="matrix(0.85 0 0 1 182.65625 23.9370117)" class="st2 st3">+tranDmAttribute</text>
<text transform="matrix(0.85 0 0 1 195.859375 47.6010742)" class="st2 st3">0..*</text>
<text transform="matrix(0.85 0 0 1 210.078125 199.8276367)" class="st2 st3">+tranDataQualityAttribute</text>
<text transform="matrix(0.85 0 0 1 206.015625 185.4213867)" class="st2 st3">1</text>
<text transform="matrix(0.85 0 0 1 11 333.0302734)" class="st2 st3">+publicSurveyDataQualityAttribute</text>
<text transform="matrix(0.85 0 0 1 136.4375 335.6005859)" class="st2 st3">0..1</text>
<text transform="matrix(0.85 0 0 1 269.5078125 277.4833984)" class="st2 st3">+trackAttribute</text>
<text transform="matrix(0.85 0 0 1 325.3671875 277.4833984)" class="st2 st3">0..1</text>
<text transform="matrix(0.85 0 0 1 402.0546875 294.9677734)" class="st2 st3">+tranFacilityIdAttribute</text>
<text transform="matrix(0.85 0 0 1 451.3203125 315.5380859)" class="st2 st3">0..1</text>
<text transform="matrix(0.85 0 0 1 395.9609375 117.0224609)" class="st2 st3">+tranFacilityAttribute</text>
<text transform="matrix(0.85 0 0 1 454.3671875 132.9677734)" class="st2 st3">0..*</text>
<text transform="matrix(0.85 0 0 1 396.46875 211.6557617)" class="st2 st3">+tranFacilityTypeAttribute</text>
<text transform="matrix(0.85 0 0 1 459.4453125 192.6245117)" class="st2 st3">0..*</text>
<text transform="matrix(0.85 0 0 1 151.6796875 121.6552734)" class="st2 st3">+tranKeyValuePairAttribute</text>
<text transform="matrix(0.85 0 0 1 215.6640625 83.0927734)" class="st2 st3">0..*</text>
</svg>
