<?xml version="1.0" encoding="utf-8"?>
<!-- Generator: Adobe Illustrator 27.0.0, SVG Export Plug-In . SVG Version: 6.00 Build 0)  -->
<svg version="1.1" id="レイヤー_1" xmlns="http://www.w3.org/2000/svg" xmlns:xlink="http://www.w3.org/1999/xlink" x="0px"
	 y="0px" viewBox="0 0 613.7590332 484.1100159" style="enable-background:new 0 0 613.7590332 484.1100159;" xml:space="preserve">
<style type="text/css">
	.st0{fill-rule:evenodd;clip-rule:evenodd;fill:#FFCCFF;}
	.st1{fill:none;stroke:#000000;stroke-width:1.0285715;stroke-linecap:round;stroke-linejoin:bevel;stroke-miterlimit:10;}
	.st2{font-family:'YuGothicUI-Regular';}
	.st3{font-size:6.6857147px;}
	.st4{font-size:7.0386257px;}
	.st5{fill:none;stroke:#000000;stroke-width:0.1910204;stroke-miterlimit:10;}
	.st6{font-family:'YuGothicUI-Bold';}
	.st7{fill-rule:evenodd;clip-rule:evenodd;fill:#F0F0F0;}
	.st8{fill:none;stroke:#D7D7D7;stroke-width:0.5142857;stroke-linecap:square;stroke-miterlimit:10;}
	.st9{fill-rule:evenodd;clip-rule:evenodd;fill:#A0FFC0;}
	.st10{fill:none;stroke:#000000;stroke-width:0.5142857;stroke-linecap:square;stroke-miterlimit:10;}
	.st11{fill:#003060;}
	.st12{fill-rule:evenodd;clip-rule:evenodd;fill:#FFFFCC;}
	.st13{font-size:8.2285719px;}
	.st14{fill-rule:evenodd;clip-rule:evenodd;}
</style>
<polygon class="st0" points="252.5353546,255.3713837 337.8582153,255.3713837 337.8582153,214.2285614 252.5353546,214.2285614 "/>
<polygon class="st1" points="252.5353546,255.3713837 337.8582153,255.3713837 337.8582153,214.2285614 252.5353546,214.2285614 "/>
<text transform="matrix(0.85 0 0 1 277.418457 224.50914)" class="st2 st3">«DataType»</text>
<text transform="matrix(0.85 0 -0.3126727 0.9498609 263.7139587 233.2627869)" class="st2 st4">u</text>
<text transform="matrix(0.85 0 -0.3126727 0.9498609 263.7139587 233.2627869)" class="st5 st2 st4">u</text>
<text transform="matrix(0.85 0 -0.3126727 0.9498609 267.7735291 233.2627869)" class="st2 st4">r</text>
<text transform="matrix(0.85 0 -0.3126727 0.9498609 267.7735291 233.2627869)" class="st5 st2 st4">r</text>
<text transform="matrix(0.85 0 -0.3126727 0.9498609 270.3067322 233.2627869)" class="st2 st4">o</text>
<text transform="matrix(0.85 0 -0.3126727 0.9498609 270.3067322 233.2627869)" class="st5 st2 st4">o</text>
<text transform="matrix(0.85 0 -0.3126727 0.9498609 274.3672791 233.2627869)" class="st2 st4">::</text>
<text transform="matrix(0.85 0 -0.3126727 0.9498609 274.3672791 233.2627869)" class="st5 st2 st4">::</text>
<text transform="matrix(0.85 0 -0.3126727 0.9498609 277.4014587 233.2627869)" class="st2 st4">F</text>
<text transform="matrix(0.85 0 -0.3126727 0.9498609 277.4014587 233.2627869)" class="st5 st2 st4">F</text>
<text transform="matrix(0.85 0 -0.3126727 0.9498609 280.9551697 233.2627869)" class="st2 st4">a</text>
<text transform="matrix(0.85 0 -0.3126727 0.9498609 280.9551697 233.2627869)" class="st5 st2 st4">a</text>
<text transform="matrix(0.85 0 -0.3126727 0.9498609 284.5059509 233.2627869)" class="st2 st4">c</text>
<text transform="matrix(0.85 0 -0.3126727 0.9498609 284.5059509 233.2627869)" class="st5 st2 st4">c</text>
<text transform="matrix(0.85 0 -0.3126727 0.9498609 287.5557556 233.2627869)" class="st2 st4">ili</text>
<text transform="matrix(0.85 0 -0.3126727 0.9498609 287.5557556 233.2627869)" class="st5 st2 st4">ili</text>
<text transform="matrix(0.85 0 -0.3126727 0.9498609 292.1348572 233.2627869)" class="st2 st4">t</text>
<text transform="matrix(0.85 0 -0.3126727 0.9498609 292.1348572 233.2627869)" class="st5 st2 st4">t</text>
<text transform="matrix(0.85 0 -0.3126727 0.9498609 294.6690369 233.2627869)" class="st2 st4">y</text>
<text transform="matrix(0.85 0 -0.3126727 0.9498609 294.6690369 233.2627869)" class="st5 st2 st4">y</text>
<text transform="matrix(0.85 0 -0.3126727 0.9498609 298.2207947 233.2627869)" class="st2 st4">A</text>
<text transform="matrix(0.85 0 -0.3126727 0.9498609 298.2207947 233.2627869)" class="st5 st2 st4">A</text>
<text transform="matrix(0.85 0 -0.3126727 0.9498609 302.7891541 233.2627869)" class="st2 st4">tt</text>
<text transform="matrix(0.85 0 -0.3126727 0.9498609 302.7891541 233.2627869)" class="st5 st2 st4">tt</text>
<text transform="matrix(0.85 0 -0.3126727 0.9498609 307.85849 233.2627869)" class="st2 st4">r</text>
<text transform="matrix(0.85 0 -0.3126727 0.9498609 307.85849 233.2627869)" class="st5 st2 st4">r</text>
<text transform="matrix(0.85 0 -0.3126727 0.9498609 310.3916931 233.2627869)" class="st2 st4">i</text>
<text transform="matrix(0.85 0 -0.3126727 0.9498609 310.3916931 233.2627869)" class="st5 st2 st4">i</text>
<text transform="matrix(0.85 0 -0.3126727 0.9498609 311.9180603 233.2627869)" class="st2 st4">b</text>
<text transform="matrix(0.85 0 -0.3126727 0.9498609 311.9180603 233.2627869)" class="st5 st2 st4">b</text>
<text transform="matrix(0.85 0 -0.3126727 0.9498609 315.9776306 233.2627869)" class="st2 st4">u</text>
<text transform="matrix(0.85 0 -0.3126727 0.9498609 315.9776306 233.2627869)" class="st5 st2 st4">u</text>
<text transform="matrix(0.85 0 -0.3126727 0.9498609 320.0372009 233.2627869)" class="st2 st4">t</text>
<text transform="matrix(0.85 0 -0.3126727 0.9498609 320.0372009 233.2627869)" class="st5 st2 st4">t</text>
<text transform="matrix(0.85 0 -0.3126727 0.9498609 322.5713806 233.2627869)" class="st2 st4">e</text>
<text transform="matrix(0.85 0 -0.3126727 0.9498609 322.5713806 233.2627869)" class="st5 st2 st4">e</text>
<line class="st1" x1="252.5353546" y1="237.3713837" x2="337.3503418" y2="237.3713837"/>
<text transform="matrix(0.85 0 0 1 255.074707 246.6180267)" class="st2 st3">+</text>
<text transform="matrix(0.85 0 0 1 259.644043 246.6180267)" class="st2 st3"> </text>
<text transform="matrix(0.85 0 0 1 266.246582 246.6180267)" class="st2 st3">facilityId: xs::string [0..1]</text>
<polygon class="st0" points="186.511734,202.3999481 289.1022949,202.3999481 289.1022949,157.142807 186.511734,157.142807 "/>
<polygon class="st1" points="186.511734,202.3999481 289.1022949,202.3999481 289.1022949,157.142807 186.511734,157.142807 "/>
<text transform="matrix(0.85 0 0 1 220.027832 167.4232025)" class="st2 st3">«DataType»</text>
<text transform="matrix(0.85 0 0 1 199.2075195 176.1732025)" class="st6 st3">uro::FacilityTypeAttribute</text>
<line class="st1" x1="186.511734" y1="180.2856903" x2="288.5944214" y2="180.2856903"/>
<text transform="matrix(0.85 0 0 1 189.0512695 189.54039)" class="st2 st3">+</text>
<text transform="matrix(0.85 0 0 1 193.6206055 189.54039)" class="st2 st3"> </text>
<text transform="matrix(0.85 0 0 1 200.2231445 189.54039)" class="st2 st3">class: gml::CodeType [0..1]</text>
<text transform="matrix(0.85 0 0 1 189.0512695 198.2825775)" class="st2 st3">+</text>
<text transform="matrix(0.85 0 0 1 193.6206055 198.2825775)" class="st2 st3"> </text>
<text transform="matrix(0.85 0 0 1 200.2231445 198.2825775)" class="st2 st3">function: gml::CodeType [0..*]</text>
<polygon class="st0" points="293.6731567,396.7999878 403.3739929,396.7999878 403.3739929,272.8571167 293.6731567,272.8571167 "/>
<polygon class="st1" points="293.6731567,396.7999878 403.3739929,396.7999878 403.3739929,272.8571167 293.6731567,272.8571167 "/>
<text transform="matrix(0.85 0 0 1 330.7460938 283.149292)" class="st2 st3">«DataType»</text>
<text transform="matrix(0.85 0 0 1 313.9882812 291.883667)" class="st6 st3">uro::FacilityIdAttribute</text>
<line class="st1" x1="293.6731567" y1="296" x2="402.8661194" y2="296"/>
<text transform="matrix(0.85 0 0 1 296.215332 305.258667)" class="st2 st3">+</text>
<text transform="matrix(0.85 0 0 1 300.7851562 305.258667)" class="st2 st3"> </text>
<text transform="matrix(0.85 0 0 1 307.3867188 305.258667)" class="st2 st3">id: xs::string [0..1]</text>
<text transform="matrix(0.85 0 0 1 296.215332 313.993042)" class="st2 st3">+</text>
<text transform="matrix(0.85 0 0 1 300.7851562 313.993042)" class="st2 st3"> </text>
<text transform="matrix(0.85 0 0 1 307.3867188 313.993042)" class="st2 st3">partId: xs::string [0..1]</text>
<text transform="matrix(0.85 0 0 1 296.215332 322.7352295)" class="st2 st3">+</text>
<text transform="matrix(0.85 0 0 1 300.7851562 322.7352295)" class="st2 st3"> </text>
<text transform="matrix(0.85 0 0 1 307.3867188 322.7352295)" class="st2 st3">branchId: xs::string [0..1]</text>
<text transform="matrix(0.85 0 0 1 296.215332 331.4852295)" class="st2 st3">+</text>
<text transform="matrix(0.85 0 0 1 300.7851562 331.4852295)" class="st2 st3"> </text>
<text transform="matrix(0.85 0 0 1 307.3867188 331.4852295)" class="st2 st3">prefecture: gml::CodeType [0..*]</text>
<text transform="matrix(0.85 0 0 1 296.215332 340.227417)" class="st2 st3">+</text>
<text transform="matrix(0.85 0 0 1 300.7851562 340.227417)" class="st2 st3"> </text>
<text transform="matrix(0.85 0 0 1 307.3867188 340.227417)" class="st2 st3">city: gml::CodeType [0..*]</text>
<text transform="matrix(0.85 0 0 1 296.215332 348.961792)" class="st2 st3">+</text>
<text transform="matrix(0.85 0 0 1 300.7851562 348.961792)" class="st2 st3"> </text>
<text transform="matrix(0.85 0 0 1 307.3867188 348.961792)" class="st2 st3">route: xs::string [0..1]</text>
<text transform="matrix(0.85 0 0 1 296.215332 357.711792)" class="st2 st3">+</text>
<text transform="matrix(0.85 0 0 1 300.7851562 357.711792)" class="st2 st3"> </text>
<text transform="matrix(0.85 0 0 1 307.3867188 357.711792)" class="st2 st3">startPost: xs::string [0..1]</text>
<text transform="matrix(0.85 0 0 1 296.215332 366.4539795)" class="st2 st3">+</text>
<text transform="matrix(0.85 0 0 1 300.7851562 366.4539795)" class="st2 st3"> </text>
<text transform="matrix(0.85 0 0 1 307.3867188 366.4539795)" class="st2 st3">endPost: xs::string [0..1]</text>
<text transform="matrix(0.85 0 0 1 296.215332 375.196167)" class="st2 st3">+</text>
<text transform="matrix(0.85 0 0 1 300.7851562 375.196167)" class="st2 st3"> </text>
<text transform="matrix(0.85 0 0 1 307.3867188 375.196167)" class="st2 st3">startLat: xs::double [0..1]</text>
<text transform="matrix(0.85 0 0 1 296.215332 383.946167)" class="st2 st3">+</text>
<text transform="matrix(0.85 0 0 1 300.7851562 383.946167)" class="st2 st3"> </text>
<text transform="matrix(0.85 0 0 1 307.3867188 383.946167)" class="st2 st3">startLong: xs::double [0..1]</text>
<text transform="matrix(0.85 0 0 1 296.215332 392.6883545)" class="st2 st3">+</text>
<text transform="matrix(0.85 0 0 1 300.7851562 392.6883545)" class="st2 st3"> </text>
<text transform="matrix(0.85 0 0 1 307.3867188 392.6883545)" class="st2 st3">alternativeName: xs::string [0..*]</text>
<path class="st7" d="M375.948761,13.6570749c0.8414307,0,1.5235596,0.6907959,1.5235596,1.5429077l0.000061-0.000061v45.2571411
	h-0.000061c0,0.8521118-0.6821289,1.5429077-1.5236206,1.5429077l0,0h0.000061h-90.9094543h-0.0000305
	c-0.8414307,0-1.5236206-0.6907959-1.5236206-1.5429077h0.0000305V15.1999216c0-0.8520508,0.6821594-1.5428467,1.5236206-1.5428467
	l0,0H375.948761L375.948761,13.6570749L375.948761,13.6570749z"/>
<path class="st8" d="M375.948761,13.6570749c0.8414307,0,1.5235596,0.6907959,1.5235596,1.5429077l0.000061-0.000061v45.2571411
	h-0.000061c0,0.8521118-0.6821289,1.5429077-1.5236206,1.5429077l0,0h0.000061h-90.9094543h-0.0000305
	c-0.8414307,0-1.5236206-0.6907959-1.5236206-1.5429077h0.0000305V15.1999216c0-0.8520508,0.6821594-1.5428467,1.5236206-1.5428467
	l0,0H375.948761L375.948761,13.6570749L375.948761,13.6570749z"/>
<polygon class="st9" points="288.5944214,37.8285217 297.2282715,37.8285217 297.2282715,29.0856628 288.5944214,29.0856628 "/>
<polygon class="st10" points="288.5944214,37.8285217 297.2282715,37.8285217 297.2282715,29.0856628 288.5944214,29.0856628 "/>
<text transform="matrix(0.85 0 0 1 299.7695312 36.2825775)" class="st11 st2 st3">GMLで定義されたクラス</text>
<polygon class="st12" points="288.5944214,47.5999451 297.2282715,47.5999451 297.2282715,38.8570862 288.5944214,38.8570862 "/>
<polygon class="st10" points="288.5944214,47.5999451 297.2282715,47.5999451 297.2282715,38.8570862 288.5944214,38.8570862 "/>
<text transform="matrix(0.85 0 0 1 299.7695312 46.056015)" class="st11 st2 st3">CityGMLで定義されたクラス</text>
<polygon class="st0" points="288.5944214,57.3713684 297.2282715,57.3713684 297.2282715,48.6285095 288.5944214,48.6285095 "/>
<polygon class="st10" points="288.5944214,57.3713684 297.2282715,57.3713684 297.2282715,48.6285095 288.5944214,48.6285095 "/>
<text transform="matrix(0.85 0 0 1 299.7695312 55.82164)" class="st11 st2 st3">i-URで定義されたクラス</text>
<text transform="matrix(0.85 0 0 1 324.6523438 26.7068939)" class="st11 st6 st13">凡例</text>
<polygon class="st12" points="120.4880829,70.2285461 257.6140747,70.2285461 257.6140747,8.5142527 120.4880829,8.5142527 "/>
<polygon class="st1" points="120.4880829,70.2285461 257.6140747,70.2285461 257.6140747,8.5142527 120.4880829,8.5142527 "/>
<text transform="matrix(0.85 0 0 1 167.2075195 18.7982025)" class="st2 st3">«FeatureType»</text>
<text transform="matrix(0.85 0 0 1 168.2231445 27.54039)" class="st6 st3">luse::LandUse</text>
<line class="st1" x1="120.4880829" y1="31.657074" x2="257.1062012" y2="31.657074"/>
<text transform="matrix(0.85 0 0 1 123.027832 40.9075775)" class="st2 st3">+</text>
<text transform="matrix(0.85 0 0 1 127.597168 40.9075775)" class="st2 st3"> </text>
<text transform="matrix(0.85 0 0 1 134.199707 40.9075775)" class="st2 st3">class: gml::CodeType [0..1]</text>
<text transform="matrix(0.85 0 0 1 123.027832 49.649765)" class="st2 st3">+</text>
<text transform="matrix(0.85 0 0 1 127.597168 49.649765)" class="st2 st3"> </text>
<text transform="matrix(0.85 0 0 1 134.199707 49.649765)" class="st2 st3">function: gml::CodeType [0..*]</text>
<text transform="matrix(0.85 0 0 1 123.027832 58.399765)" class="st2 st3">+</text>
<text transform="matrix(0.85 0 0 1 127.597168 58.399765)" class="st2 st3"> </text>
<text transform="matrix(0.85 0 0 1 134.199707 58.399765)" class="st2 st3">usage: gml::CodeType [0..*]</text>
<polygon class="st0" points="8.7558022,360.2857056 180.9250946,360.2857056 180.9250946,157.6570892 8.7558022,157.6570892 "/>
<polygon class="st1" points="8.7558022,360.2857056 180.9250946,360.2857056 180.9250946,157.6570892 8.7558022,157.6570892 "/>
<text transform="matrix(0.85 0 0 1 77.3168945 167.9388275)" class="st2 st3">«DataType»</text>
<text transform="matrix(0.85 0 0 1 52.434082 176.681015)" class="st6 st3">uro::LandUseDetailAttribute</text>
<line class="st1" x1="8.7558022" y1="180.7999725" x2="180.4172211" y2="180.7999725"/>
<text transform="matrix(0.85 0 0 1 11.293457 190.056015)" class="st2 st3">+</text>
<text transform="matrix(0.85 0 0 1 15.862793 190.056015)" class="st2 st3"> </text>
<text transform="matrix(0.85 0 0 1 22.465332 190.056015)" class="st2 st3">id: xs::string [0..1]</text>
<text transform="matrix(0.85 0 0 1 11.293457 198.7982025)" class="st2 st3">+</text>
<text transform="matrix(0.85 0 0 1 15.862793 198.7982025)" class="st2 st3"> </text>
<text transform="matrix(0.85 0 0 1 22.465332 198.7982025)" class="st2 st3">orgLandUse: gml::CodeType [0..1]</text>
<text transform="matrix(0.85 0 0 1 11.293457 207.54039)" class="st2 st3">+</text>
<text transform="matrix(0.85 0 0 1 15.862793 207.54039)" class="st2 st3"> </text>
<text transform="matrix(0.85 0 0 1 22.465332 207.54039)" class="st2 st3">nominalArea: gml::MeasureType [0..1]</text>
<text transform="matrix(0.85 0 0 1 11.293457 216.2825775)" class="st2 st3">+</text>
<text transform="matrix(0.85 0 0 1 15.862793 216.2825775)" class="st2 st3"> </text>
<text transform="matrix(0.85 0 0 1 22.465332 216.2825775)" class="st2 st3">ownerType: gml::CodeType [0..1]</text>
<text transform="matrix(0.85 0 0 1 11.293457 225.024765)" class="st2 st3">+</text>
<text transform="matrix(0.85 0 0 1 15.862793 225.024765)" class="st2 st3"> </text>
<text transform="matrix(0.85 0 0 1 22.465332 225.024765)" class="st2 st3">owner: xs::string [0..1]</text>
<text transform="matrix(0.85 0 0 1 11.293457 233.774765)" class="st2 st3">+</text>
<text transform="matrix(0.85 0 0 1 15.862793 233.774765)" class="st2 st3"> </text>
<text transform="matrix(0.85 0 0 1 22.465332 233.774765)" class="st2 st3">areaInSquareMeter: gml::MeasureType [0..1]</text>
<text transform="matrix(0.85 0 0 1 11.293457 242.50914)" class="st2 st3">+</text>
<text transform="matrix(0.85 0 0 1 15.862793 242.50914)" class="st2 st3"> </text>
<text transform="matrix(0.85 0 0 1 22.465332 242.50914)" class="st2 st3">areaInHa: gml::MeasureType [0..1]</text>
<text transform="matrix(0.85 0 0 1 11.293457 251.2508392)" class="st2 st3">+</text>
<text transform="matrix(0.85 0 0 1 15.862793 251.2508392)" class="st2 st3"> </text>
<text transform="matrix(0.85 0 0 1 22.465332 251.2508392)" class="st2 st3">buildingCoverageRate: xs::integer [0..1]</text>
<text transform="matrix(0.85 0 0 1 11.293457 260.0008545)" class="st2 st3">+</text>
<text transform="matrix(0.85 0 0 1 15.862793 260.0008545)" class="st2 st3"> </text>
<text transform="matrix(0.85 0 0 1 22.465332 260.0008545)" class="st2 st3">floorAreaRate: xs::integer [0..1]</text>
<text transform="matrix(0.85 0 0 1 11.293457 268.743042)" class="st2 st3">+</text>
<text transform="matrix(0.85 0 0 1 15.862793 268.743042)" class="st2 st3"> </text>
<text transform="matrix(0.85 0 0 1 22.465332 268.743042)" class="st2 st3">specifiedBuildingCoverageRate: xs::integer [0..1]</text>
<text transform="matrix(0.85 0 0 1 11.293457 277.477417)" class="st2 st3">+</text>
<text transform="matrix(0.85 0 0 1 15.862793 277.477417)" class="st2 st3"> </text>
<text transform="matrix(0.85 0 0 1 22.465332 277.477417)" class="st2 st3">specifiedFloorAreaRate: xs::integer [0..1]</text>
<text transform="matrix(0.85 0 0 1 11.293457 286.227417)" class="st2 st3">+</text>
<text transform="matrix(0.85 0 0 1 15.862793 286.227417)" class="st2 st3"> </text>
<text transform="matrix(0.85 0 0 1 22.465332 286.227417)" class="st2 st3">standardFloorAreaRate: xs::integer [0..1]</text>
<text transform="matrix(0.85 0 0 1 11.293457 294.9696045)" class="st2 st3">+</text>
<text transform="matrix(0.85 0 0 1 15.862793 294.9696045)" class="st2 st3"> </text>
<text transform="matrix(0.85 0 0 1 22.465332 294.9696045)" class="st2 st3">urbanPlanType: gml::CodeType [0..1]</text>
<text transform="matrix(0.85 0 0 1 11.293457 303.711792)" class="st2 st3">+</text>
<text transform="matrix(0.85 0 0 1 15.862793 303.711792)" class="st2 st3"> </text>
<text transform="matrix(0.85 0 0 1 22.465332 303.711792)" class="st2 st3">areaClassificationType: gml::CodeType [0..1]</text>
<text transform="matrix(0.85 0 0 1 11.293457 312.4539795)" class="st2 st3">+</text>
<text transform="matrix(0.85 0 0 1 15.862793 312.4539795)" class="st2 st3"> </text>
<text transform="matrix(0.85 0 0 1 22.465332 312.4539795)" class="st2 st3">districtsAndZonesType: gml::CodeType [0..*]</text>
<text transform="matrix(0.85 0 0 1 11.293457 321.196167)" class="st2 st3">+</text>
<text transform="matrix(0.85 0 0 1 15.862793 321.196167)" class="st2 st3"> </text>
<text transform="matrix(0.85 0 0 1 22.465332 321.196167)" class="st2 st3">prefecture: gml::CodeType [0..1]</text>
<text transform="matrix(0.85 0 0 1 11.293457 329.946167)" class="st2 st3">+</text>
<text transform="matrix(0.85 0 0 1 15.862793 329.946167)" class="st2 st3"> </text>
<text transform="matrix(0.85 0 0 1 22.465332 329.946167)" class="st2 st3">city: gml::CodeType [0..1]</text>
<text transform="matrix(0.85 0 0 1 11.293457 338.680542)" class="st2 st3">+</text>
<text transform="matrix(0.85 0 0 1 15.862793 338.680542)" class="st2 st3"> </text>
<text transform="matrix(0.85 0 0 1 22.465332 338.680542)" class="st2 st3">reference: xs::string [0..1]</text>
<text transform="matrix(0.85 0 0 1 11.293457 347.4227295)" class="st2 st3">+</text>
<text transform="matrix(0.85 0 0 1 15.862793 347.4227295)" class="st2 st3"> </text>
<text transform="matrix(0.85 0 0 1 22.465332 347.4227295)" class="st2 st3">note: xs::string [0..1]</text>
<text transform="matrix(0.85 0 0 1 11.293457 356.1727295)" class="st2 st3">+</text>
<text transform="matrix(0.85 0 0 1 15.862793 356.1727295)" class="st2 st3"> </text>
<text transform="matrix(0.85 0 0 1 22.465332 356.1727295)" class="st2 st3">surveyYear: xs::gYear [0..1]</text>
<polygon class="st0" points="326.1770935,477.5428467 467.3661194,477.5428467 467.3661194,426.6286011 326.1770935,426.6286011 "/>
<polygon class="st1" points="326.1770935,477.5428467 467.3661194,477.5428467 467.3661194,426.6286011 326.1770935,426.6286011 "/>
<text transform="matrix(0.85 0 0 1 378.9960938 436.9154053)" class="st2 st3">«DataType»</text>
<text transform="matrix(0.85 0 0 1 356.1367188 445.6575928)" class="st6 st3">uro::KeyValuePairAttribute</text>
<line class="st1" x1="326.1770935" y1="449.7714233" x2="466.8582458" y2="449.7714233"/>
<text transform="matrix(0.85 0 0 1 328.7148438 459.0247803)" class="st2 st3">+</text>
<text transform="matrix(0.85 0 0 1 333.2851562 459.0247803)" class="st2 st3"> </text>
<text transform="matrix(0.85 0 0 1 339.8867188 459.0247803)" class="st2 st3">key: gml::CodeType</text>
<text transform="matrix(0.85 0 0 1 328.7148438 467.7747803)" class="st2 st3">+</text>
<text transform="matrix(0.85 0 0 1 333.2851562 467.7747803)" class="st2 st3"> </text>
<text transform="matrix(0.85 0 0 1 339.8867188 467.7747803)" class="st2 st3">codeValue: gml::CodeType [0..1]</text>
<polygon class="st0" points="452.6377258,301.6571655 605,301.6571655 605,151.4857025 452.6377258,151.4857025 "/>
<polygon class="st1" points="452.6377258,301.6571655 605,301.6571655 605,151.4857025 452.6377258,151.4857025 "/>
<text transform="matrix(0.85 0 0 1 511.0429688 161.7669525)" class="st2 st3">«DataType»</text>
<text transform="matrix(0.85 0 0 1 489.7070312 170.50914)" class="st6 st3">uro::DataQualityAttribute</text>
<line class="st1" x1="452.6377258" y1="174.6285248" x2="604.4920654" y2="174.6285248"/>
<text transform="matrix(0.85 0 0 1 455.1757812 183.88414)" class="st2 st3">+</text>
<text transform="matrix(0.85 0 0 1 459.7460938 183.88414)" class="st2 st3"> </text>
<text transform="matrix(0.85 0 0 1 466.3476562 183.88414)" class="st2 st3">geometrySrcDescLod0: gml::CodeType [0..*]</text>
<text transform="matrix(0.85 0 0 1 455.1757812 192.6263275)" class="st2 st3">+</text>
<text transform="matrix(0.85 0 0 1 459.7460938 192.6263275)" class="st2 st3"> </text>
<text transform="matrix(0.85 0 0 1 466.3476562 192.6263275)" class="st2 st3">geometrySrcDescLod1: gml::CodeType [1..*]</text>
<text transform="matrix(0.85 0 0 1 455.1757812 201.368515)" class="st2 st3">+</text>
<text transform="matrix(0.85 0 0 1 459.7460938 201.368515)" class="st2 st3"> </text>
<text transform="matrix(0.85 0 0 1 466.3476562 201.368515)" class="st2 st3">geometrySrcDescLod2: gml::CodeType [0..*]</text>
<text transform="matrix(0.85 0 0 1 455.1757812 210.1107025)" class="st2 st3">+</text>
<text transform="matrix(0.85 0 0 1 459.7460938 210.1107025)" class="st2 st3"> </text>
<text transform="matrix(0.85 0 0 1 466.3476562 210.1107025)" class="st2 st3">geometrySrcDescLod3: gml::CodeType [0..*]</text>
<text transform="matrix(0.85 0 0 1 455.1757812 218.85289)" class="st2 st3">+</text>
<text transform="matrix(0.85 0 0 1 459.7460938 218.85289)" class="st2 st3"> </text>
<text transform="matrix(0.85 0 0 1 466.3476562 218.85289)" class="st2 st3">geometrySrcDescLod4: gml::CodeType [0..*]</text>
<text transform="matrix(0.85 0 0 1 455.1757812 227.60289)" class="st2 st3">+</text>
<text transform="matrix(0.85 0 0 1 459.7460938 227.60289)" class="st2 st3"> </text>
<text transform="matrix(0.85 0 0 1 466.3476562 227.60289)" class="st2 st3">thematicSrcDesc: gml::CodeType [0..*]</text>
<text transform="matrix(0.85 0 0 1 455.1757812 236.337265)" class="st2 st3">+</text>
<text transform="matrix(0.85 0 0 1 459.7460938 236.337265)" class="st2 st3"> </text>
<text transform="matrix(0.85 0 0 1 466.3476562 236.337265)" class="st2 st3">appearanceSrcDescLod0: gml::CodeType [0..*]</text>
<text transform="matrix(0.85 0 0 1 455.1757812 245.0789642)" class="st2 st3">+</text>
<text transform="matrix(0.85 0 0 1 459.7460938 245.0789642)" class="st2 st3"> </text>
<text transform="matrix(0.85 0 0 1 466.3476562 245.0789642)" class="st2 st3">appearanceSrcDescLod1: gml::CodeType [0..*]</text>
<text transform="matrix(0.85 0 0 1 455.1757812 253.8289642)" class="st2 st3">+</text>
<text transform="matrix(0.85 0 0 1 459.7460938 253.8289642)" class="st2 st3"> </text>
<text transform="matrix(0.85 0 0 1 466.3476562 253.8289642)" class="st2 st3">appearanceSrcDescLod2: gml::CodeType [0..*]</text>
<text transform="matrix(0.85 0 0 1 455.1757812 262.571167)" class="st2 st3">+</text>
<text transform="matrix(0.85 0 0 1 459.7460938 262.571167)" class="st2 st3"> </text>
<text transform="matrix(0.85 0 0 1 466.3476562 262.571167)" class="st2 st3">appearanceSrcDescLod3: gml::CodeType [0..*]</text>
<text transform="matrix(0.85 0 0 1 455.1757812 271.305542)" class="st2 st3">+</text>
<text transform="matrix(0.85 0 0 1 459.7460938 271.305542)" class="st2 st3"> </text>
<text transform="matrix(0.85 0 0 1 466.3476562 271.305542)" class="st2 st3">appearanceSrcDescLod4: gml::CodeType [0..*]</text>
<text transform="matrix(0.85 0 0 1 455.1757812 280.055542)" class="st2 st3">+</text>
<text transform="matrix(0.85 0 0 1 459.7460938 280.055542)" class="st2 st3"> </text>
<text transform="matrix(0.85 0 0 1 466.3476562 280.055542)" class="st2 st3">lodType: gml::CodeType [0..*]</text>
<text transform="matrix(0.85 0 0 1 455.1757812 288.7977295)" class="st2 st3">+</text>
<text transform="matrix(0.85 0 0 1 459.7460938 288.7977295)" class="st2 st3"> </text>
<text transform="matrix(0.85 0 0 1 466.3476562 288.7977295)" class="st2 st3">lod1HeightType: gml::CodeType [0..1]</text>
<text transform="matrix(0.85 0 0 1 455.1757812 297.539917)" class="st2 st3">+</text>
<text transform="matrix(0.85 0 0 1 459.7460938 297.539917)" class="st2 st3"> </text>
<text transform="matrix(0.85 0 0 1 466.3476562 297.539917)" class="st2 st3">tranDataAcquisition: xs::string [0..1]</text>
<line class="st1" x1="294.6889038" y1="213.7142792" x2="294.6889038" y2="95.9427948"/>
<line class="st1" x1="189.0511017" y1="95.9427948" x2="189.0511017" y2="70.7428284"/>
<polyline class="st14" points="191.5904694,75.8856506 189.0511017,70.7428284 186.511734,75.8856506 189.0511017,81.0285492 
	191.5904694,75.8856506 "/>
<polyline class="st1" points="191.5904694,75.8856506 189.0511017,70.7428284 186.511734,75.8856506 189.0511017,81.0285492 "/>
<polyline class="st1" points="297.736145,205.9999847 294.6889038,213.7142792 291.6416626,205.9999847 "/>
<line class="st1" x1="237.299118" y1="156.6285248" x2="237.299118" y2="95.9427948"/>
<polyline class="st14" points="191.5904694,75.8856506 189.0511017,70.7428284 186.511734,75.8856506 189.0511017,81.0285492 
	191.5904694,75.8856506 "/>
<polyline class="st1" points="191.5904694,75.8856506 189.0511017,70.7428284 186.511734,75.8856506 189.0511017,81.0285492 "/>
<polyline class="st1" points="240.3463593,148.9142303 237.299118,156.6285248 234.2518768,148.9142303 "/>
<line class="st1" x1="356.6495361" y1="272.3428345" x2="356.6495361" y2="95.9427948"/>
<polyline class="st14" points="191.5904694,75.8856506 189.0511017,70.7428284 186.511734,75.8856506 189.0511017,81.0285492 
	191.5904694,75.8856506 "/>
<polyline class="st1" points="191.5904694,75.8856506 189.0511017,70.7428284 186.511734,75.8856506 189.0511017,81.0285492 "/>
<polyline class="st1" points="359.6968079,264.6286011 356.6495361,272.3428345 353.6022949,264.6286011 "/>
<line class="st1" x1="527.8031006" y1="150.9713593" x2="527.8031006" y2="95.9427948"/>
<line class="st1" x1="527.8031006" y1="95.9427948" x2="189.0511017" y2="95.9427948"/>
<polyline class="st14" points="191.5904694,75.8856506 189.0511017,70.7428284 186.511734,75.8856506 189.0511017,81.0285492 
	191.5904694,75.8856506 "/>
<polyline class="st1" points="191.5904694,75.8856506 189.0511017,70.7428284 186.511734,75.8856506 189.0511017,81.0285492 "/>
<polyline class="st1" points="530.8503418,143.2571259 527.8031006,150.9713593 524.7558594,143.2571259 "/>
<line class="st1" x1="426.228302" y1="426.1143188" x2="426.228302" y2="95.9427948"/>
<polyline class="st14" points="191.5904694,75.8856506 189.0511017,70.7428284 186.511734,75.8856506 189.0511017,81.0285492 
	191.5904694,75.8856506 "/>
<polyline class="st1" points="191.5904694,75.8856506 189.0511017,70.7428284 186.511734,75.8856506 189.0511017,81.0285492 "/>
<polyline class="st1" points="429.2755432,418.3999634 426.228302,426.1143188 423.1810608,418.3999634 "/>
<line class="st1" x1="94.5865173" y1="157.142807" x2="94.5865173" y2="95.9427948"/>
<line class="st1" x1="94.5865173" y1="95.9427948" x2="189.0511017" y2="95.9427948"/>
<polyline class="st14" points="191.5904694,75.8856506 189.0511017,70.7428284 186.511734,75.8856506 189.0511017,81.0285492 
	191.5904694,75.8856506 "/>
<polygon class="st1" points="191.5904694,75.8856506 189.0511017,70.7428284 186.511734,75.8856506 189.0511017,81.0285492 "/>
<polyline class="st1" points="97.6337585,149.4285126 94.5865173,157.142807 91.5392761,149.4285126 "/>
<text transform="matrix(0.85 0 0 1 438.4179688 142.7357025)" class="st2 st3">+luseDataQualityAttribute</text>
<text transform="matrix(0.85 0 0 1 533.9023438 147.368515)" class="st2 st3">1</text>
<text transform="matrix(0.85 0 0 1 225.105957 210.1107025)" class="st2 st3">+luseFacilityAttribute</text>
<text transform="matrix(0.85 0 0 1 307.3867188 209.087265)" class="st2 st3">0..*</text>
<text transform="matrix(0.85 0 0 1 285.043457 266.680542)" class="st2 st3">+luseFacilityIdAttribute</text>
<text transform="matrix(0.85 0 0 1 361.2148438 259.4852295)" class="st2 st3">0..1</text>
<text transform="matrix(0.85 0 0 1 333.7929688 420.9696045)" class="st2 st3">+luseKeyValuePairAttribute</text>
<text transform="matrix(0.85 0 0 1 435.3710938 421.9935303)" class="st2 st3">0..*</text>
<text transform="matrix(0.85 0 0 1 12.309082 149.94664)" class="st2 st3">+landUseDetailAttribute</text>
<text transform="matrix(0.85 0 0 1 107.2856445 147.88414)" class="st2 st3">0..1</text>
<text transform="matrix(0.85 0 0 1 153.496582 148.9075775)" class="st2 st3">+luseFacilityTypeAttribute</text>
<text transform="matrix(0.85 0 0 1 246.434082 150.9700775)" class="st2 st3">0..*</text>
</svg>
