<?xml version="1.0" encoding="utf-8"?>
<!-- Generator: Adobe Illustrator 27.0.0, SVG Export Plug-In . SVG Version: 6.00 Build 0)  -->
<svg version="1.1" id="レイヤー_1" xmlns="http://www.w3.org/2000/svg" xmlns:xlink="http://www.w3.org/1999/xlink" x="0px"
	 y="0px" viewBox="0 0 595.276001 402.1100159" style="enable-background:new 0 0 595.276001 402.1100159;" xml:space="preserve">
<style type="text/css">
	.st0{fill-rule:evenodd;clip-rule:evenodd;fill:#FFFFCC;}
	.st1{fill:none;stroke:#000000;stroke-width:1.0285715;stroke-linecap:round;stroke-linejoin:bevel;stroke-miterlimit:10;}
	.st2{font-family:'YuGothicUI-Regular';}
	.st3{font-size:7.0386257px;}
	.st4{font-size:6.6857147px;}
	.st5{font-family:'YuGothicUI-Bold';}
	.st6{fill-rule:evenodd;clip-rule:evenodd;fill:#F0F0F0;}
	.st7{fill:none;stroke:#D7D7D7;stroke-width:0.5142857;stroke-linecap:square;stroke-miterlimit:10;}
	.st8{fill-rule:evenodd;clip-rule:evenodd;fill:#CCFFCC;}
	.st9{fill:none;stroke:#000000;stroke-width:0.5142857;stroke-linecap:square;stroke-miterlimit:10;}
	.st10{fill:#003060;}
	.st11{fill-rule:evenodd;clip-rule:evenodd;fill:#FFCCFF;}
	.st12{font-size:8.2285719px;}
	.st13{fill:none;stroke:#000000;stroke-width:0.1910204;stroke-miterlimit:10;}
	.st14{fill-rule:evenodd;clip-rule:evenodd;}
	.st15{fill-rule:evenodd;clip-rule:evenodd;fill:#FFFFFF;}
</style>
<polygon class="st0" points="153.5878906,70.7999725 269.8910522,70.7999725 269.8910522,6.5142522 153.5878906,6.5142522 "/>
<polygon class="st1" points="153.5878906,70.7999725 269.8910522,70.7999725 269.8910522,6.5142522 153.5878906,6.5142522 "/>
<text transform="matrix(0.85 0 -0.3126727 0.9498609 228.7477264 15.2548771)" class="st2 st3">_WaterObject</text>
<text transform="matrix(0.85 0 0 1 190.1542969 27.0853119)" class="st2 st4">«FeatureType»</text>
<text transform="matrix(0.85 0 0 1 187.6152344 35.8274994)" class="st5 st4">wtr::WaterBody</text>
<line class="st1" x1="153.5878906" y1="39.9427948" x2="269.3831787" y2="39.9427948"/>
<text transform="matrix(0.85 0 0 1 156.1230469 49.2024994)" class="st2 st4">+</text>
<text transform="matrix(0.85 0 0 1 160.6923828 49.2024994)" class="st2 st4"> </text>
<text transform="matrix(0.85 0 0 1 167.3027344 49.2024994)" class="st2 st4">class: gml::CodeType [0..1]</text>
<text transform="matrix(0.85 0 0 1 156.1230469 57.9446869)" class="st2 st4">+</text>
<text transform="matrix(0.85 0 0 1 160.6923828 57.9446869)" class="st2 st4"> </text>
<text transform="matrix(0.85 0 0 1 167.3027344 57.9446869)" class="st2 st4">function: gml::CodeType [0..*]</text>
<text transform="matrix(0.85 0 0 1 156.1230469 66.6868744)" class="st2 st4">+</text>
<text transform="matrix(0.85 0 0 1 160.6923828 66.6868744)" class="st2 st4"> </text>
<text transform="matrix(0.85 0 0 1 167.3027344 66.6868744)" class="st2 st4">usage: gml::CodeType [0..*]</text>
<path class="st6" d="M99.7532272,90.3428192c0.8414612,0,1.5236053,0.6907959,1.5236053,1.5429077l0.0000153-0.000061v58.1143188
	l-0.0000153,0.000061c0,0.8520508-0.6821442,1.5428467-1.5236206,1.5428467v-0.000061h0.0000153H4.7807713l-0.0000076,0.000061
	c-0.841469-0.000061-1.5236208-0.6907959-1.5236208-1.5429077h0.0000076V91.8856659
	c0-0.8520508,0.6821442-1.5428467,1.5236208-1.5428467l0,0H99.7532272L99.7532272,90.3428192L99.7532272,90.3428192z"/>
<path class="st7" d="M99.7532272,90.3428192c0.8414612,0,1.5236053,0.6907959,1.5236053,1.5429077l0.0000153-0.000061v58.1143188
	l-0.0000153,0.000061c0,0.8520508-0.6821442,1.5428467-1.5236206,1.5428467v-0.000061h0.0000153H4.7807713l-0.0000076,0.000061
	c-0.841469-0.000061-1.5236208-0.6907959-1.5236208-1.5429077h0.0000076V91.8856659
	c0-0.8520508,0.6821442-1.5428467,1.5236208-1.5428467l0,0H99.7532272L99.7532272,90.3428192L99.7532272,90.3428192z"/>
<polygon class="st8" points="8.3358936,114.514267 16.9697514,114.514267 16.9697514,105.7714081 8.3358936,105.7714081 "/>
<polygon class="st9" points="8.3358936,114.514267 16.9697514,114.514267 16.9697514,105.7714081 8.3358936,105.7714081 "/>
<text transform="matrix(0.85 0 0 1 19.5136719 112.9681244)" class="st10 st2 st4">GMLに定義されたクラス</text>
<polygon class="st0" points="8.3358936,124.2856903 16.9697514,124.2856903 16.9697514,115.5428314 8.3358936,115.5428314 "/>
<polygon class="st9" points="8.3358936,124.2856903 16.9697514,124.2856903 16.9697514,115.5428314 8.3358936,115.5428314 "/>
<text transform="matrix(0.85 0 0 1 19.5136719 122.7337494)" class="st10 st2 st4">CityGMLに定義されたクラス</text>
<polygon class="st11" points="8.3358936,134.0571136 16.9697514,134.0571136 16.9697514,125.3142548 8.3358936,125.3142548 "/>
<polygon class="st9" points="8.3358936,134.0571136 16.9697514,134.0571136 16.9697514,125.3142548 8.3358936,125.3142548 "/>
<text transform="matrix(0.85 0 0 1 19.5136719 132.5149994)" class="st10 st2 st4">i-URに定義されたクラス</text>
<text transform="matrix(0.85 0 0 1 44.3964844 103.4007416)" class="st10 st5 st12">凡例</text>
<polygon class="st11" points="153.5878906,187.0285492 258.2099304,187.0285492 258.2099304,122.7428436 153.5878906,122.7428436 
	"/>
<polygon class="st1" points="153.5878906,187.0285492 258.2099304,187.0285492 258.2099304,122.7428436 153.5878906,122.7428436 "/>
<text transform="matrix(0.85 0 -0.3126727 0.9498609 195.7471008 131.4792633)" class="st2 st3">DisasterRiskAttribute</text>
<text transform="matrix(0.85 0 0 1 188.1230469 143.3118744)" class="st2 st4">«DataType»</text>
<text transform="matrix(0.85 0 -0.3126727 0.9498609 165.2624054 152.0570984)" class="st2 st3">u</text>
<text transform="matrix(0.85 0 -0.3126727 0.9498609 165.2624054 152.0570984)" class="st13 st2 st3">u</text>
<text transform="matrix(0.85 0 -0.3126727 0.9498609 169.3219757 152.0570984)" class="st2 st3">r</text>
<text transform="matrix(0.85 0 -0.3126727 0.9498609 169.3219757 152.0570984)" class="st13 st2 st3">r</text>
<text transform="matrix(0.85 0 -0.3126727 0.9498609 171.8551788 152.0570984)" class="st2 st3">o</text>
<text transform="matrix(0.85 0 -0.3126727 0.9498609 171.8551788 152.0570984)" class="st13 st2 st3">o</text>
<text transform="matrix(0.85 0 -0.3126727 0.9498609 175.9157257 152.0570984)" class="st2 st3">::</text>
<text transform="matrix(0.85 0 -0.3126727 0.9498609 175.9157257 152.0570984)" class="st13 st2 st3">::</text>
<text transform="matrix(0.85 0 -0.3126727 0.9498609 178.9499054 152.0570984)" class="st2 st3">F</text>
<text transform="matrix(0.85 0 -0.3126727 0.9498609 178.9499054 152.0570984)" class="st13 st2 st3">F</text>
<text transform="matrix(0.85 0 -0.3126727 0.9498609 182.5036163 152.0570984)" class="st2 st3">l</text>
<text transform="matrix(0.85 0 -0.3126727 0.9498609 182.5036163 152.0570984)" class="st13 st2 st3">l</text>
<text transform="matrix(0.85 0 -0.3126727 0.9498609 184.0299835 152.0570984)" class="st2 st3">oo</text>
<text transform="matrix(0.85 0 -0.3126727 0.9498609 184.0299835 152.0570984)" class="st13 st2 st3">oo</text>
<text transform="matrix(0.85 0 -0.3126727 0.9498609 192.1501007 152.0570984)" class="st2 st3">d</text>
<text transform="matrix(0.85 0 -0.3126727 0.9498609 192.1501007 152.0570984)" class="st13 st2 st3">d</text>
<text transform="matrix(0.85 0 -0.3126727 0.9498609 196.209671 152.0570984)" class="st2 st3">i</text>
<text transform="matrix(0.85 0 -0.3126727 0.9498609 196.209671 152.0570984)" class="st13 st2 st3">i</text>
<text transform="matrix(0.85 0 -0.3126727 0.9498609 197.7360382 152.0570984)" class="st2 st3">n</text>
<text transform="matrix(0.85 0 -0.3126727 0.9498609 197.7360382 152.0570984)" class="st13 st2 st3">n</text>
<text transform="matrix(0.85 0 -0.3126727 0.9498609 201.7956085 152.0570984)" class="st2 st3">g</text>
<text transform="matrix(0.85 0 -0.3126727 0.9498609 201.7956085 152.0570984)" class="st13 st2 st3">g</text>
<text transform="matrix(0.85 0 -0.3126727 0.9498609 205.8551788 152.0570984)" class="st2 st3">R</text>
<text transform="matrix(0.85 0 -0.3126727 0.9498609 205.8551788 152.0570984)" class="st13 st2 st3">R</text>
<text transform="matrix(0.85 0 -0.3126727 0.9498609 209.9167023 152.0570984)" class="st2 st3">i</text>
<text transform="matrix(0.85 0 -0.3126727 0.9498609 209.9167023 152.0570984)" class="st13 st2 st3">i</text>
<text transform="matrix(0.85 0 -0.3126727 0.9498609 211.4430695 152.0570984)" class="st2 st3">s</text>
<text transform="matrix(0.85 0 -0.3126727 0.9498609 211.4430695 152.0570984)" class="st13 st2 st3">s</text>
<text transform="matrix(0.85 0 -0.3126727 0.9498609 214.4889679 152.0570984)" class="st2 st3">k</text>
<text transform="matrix(0.85 0 -0.3126727 0.9498609 214.4889679 152.0570984)" class="st13 st2 st3">k</text>
<text transform="matrix(0.85 0 -0.3126727 0.9498609 218.0417023 152.0570984)" class="st2 st3">A</text>
<text transform="matrix(0.85 0 -0.3126727 0.9498609 218.0417023 152.0570984)" class="st13 st2 st3">A</text>
<text transform="matrix(0.85 0 -0.3126727 0.9498609 222.6110382 152.0570984)" class="st2 st3">tt</text>
<text transform="matrix(0.85 0 -0.3126727 0.9498609 222.6110382 152.0570984)" class="st13 st2 st3">tt</text>
<text transform="matrix(0.85 0 -0.3126727 0.9498609 227.6793976 152.0570984)" class="st2 st3">r</text>
<text transform="matrix(0.85 0 -0.3126727 0.9498609 227.6793976 152.0570984)" class="st13 st2 st3">r</text>
<text transform="matrix(0.85 0 -0.3126727 0.9498609 230.2126007 152.0570984)" class="st2 st3">i</text>
<text transform="matrix(0.85 0 -0.3126727 0.9498609 230.2126007 152.0570984)" class="st13 st2 st3">i</text>
<text transform="matrix(0.85 0 -0.3126727 0.9498609 231.7389679 152.0570984)" class="st2 st3">b</text>
<text transform="matrix(0.85 0 -0.3126727 0.9498609 231.7389679 152.0570984)" class="st13 st2 st3">b</text>
<text transform="matrix(0.85 0 -0.3126727 0.9498609 235.7985382 152.0570984)" class="st2 st3">u</text>
<text transform="matrix(0.85 0 -0.3126727 0.9498609 235.7985382 152.0570984)" class="st13 st2 st3">u</text>
<text transform="matrix(0.85 0 -0.3126727 0.9498609 239.8581085 152.0570984)" class="st2 st3">t</text>
<text transform="matrix(0.85 0 -0.3126727 0.9498609 239.8581085 152.0570984)" class="st13 st2 st3">t</text>
<text transform="matrix(0.85 0 -0.3126727 0.9498609 242.3932648 152.0570984)" class="st2 st3">e</text>
<text transform="matrix(0.85 0 -0.3126727 0.9498609 242.3932648 152.0570984)" class="st13 st2 st3">e</text>
<line class="st1" x1="153.5878906" y1="156.1714325" x2="257.7020569" y2="156.1714325"/>
<text transform="matrix(0.85 0 0 1 156.1230469 165.4212494)" class="st2 st4">+</text>
<text transform="matrix(0.85 0 0 1 160.6923828 165.4212494)" class="st2 st4"> </text>
<text transform="matrix(0.85 0 0 1 167.3027344 165.4212494)" class="st2 st4">rank: gml::CodeType [0..1]</text>
<text transform="matrix(0.85 0 0 1 156.1230469 174.1634369)" class="st2 st4">+</text>
<text transform="matrix(0.85 0 0 1 160.6923828 174.1634369)" class="st2 st4"> </text>
<text transform="matrix(0.85 0 0 1 167.3027344 174.1634369)" class="st2 st4">rankOrg: gml::CodeType [0..1]</text>
<text transform="matrix(0.85 0 0 1 156.1230469 182.9134369)" class="st2 st4">+</text>
<text transform="matrix(0.85 0 0 1 160.6923828 182.9134369)" class="st2 st4"> </text>
<text transform="matrix(0.85 0 0 1 167.3027344 182.9134369)" class="st2 st4">depth: gml::LengthType [0..1]</text>
<polygon class="st11" points="8.8437672,338.7428589 124.1311951,338.7428589 124.1311951,284.7428589 8.8437672,284.7428589 "/>
<polygon class="st1" points="8.8437672,338.7428589 124.1311951,338.7428589 124.1311951,284.7428589 8.8437672,284.7428589 "/>
<text transform="matrix(0.85 0 0 1 48.9667969 295.0223389)" class="st2 st4">«DataType»</text>
<text transform="matrix(0.85 0 0 1 18.4980469 303.7723389)" class="st5 st4">uro::RiverFloodingRiskAttribute</text>
<line class="st1" x1="8.8437672" y1="307.8857422" x2="123.6232986" y2="307.8857422"/>
<text transform="matrix(0.85 0 0 1 11.3886719 317.1395264)" class="st2 st4">+</text>
<text transform="matrix(0.85 0 0 1 15.9580078 317.1395264)" class="st2 st4"> </text>
<text transform="matrix(0.85 0 0 1 22.5605469 317.1395264)" class="st2 st4">adminType: gml::CodeType</text>
<text transform="matrix(0.85 0 0 1 11.3886719 325.8817139)" class="st2 st4">+</text>
<text transform="matrix(0.85 0 0 1 15.9580078 325.8817139)" class="st2 st4"> </text>
<text transform="matrix(0.85 0 0 1 22.5605469 325.8817139)" class="st2 st4">scale: gml::CodeType</text>
<text transform="matrix(0.85 0 0 1 11.3886719 334.6317139)" class="st2 st4">+</text>
<text transform="matrix(0.85 0 0 1 15.9580078 334.6317139)" class="st2 st4"> </text>
<text transform="matrix(0.85 0 0 1 22.5605469 334.6317139)" class="st2 st4">duration: gml::MeasureType [0..1]</text>
<polygon class="st11" points="86.5485001,395.8285522 185.0760803,395.8285522 185.0760803,356.7428589 86.5485001,356.7428589 "/>
<polygon class="st1" points="86.5485001,395.8285522 185.0760803,395.8285522 185.0760803,356.7428589 86.5485001,356.7428589 "/>
<text transform="matrix(0.85 0 0 1 118.0371094 367.0223389)" class="st2 st4">«DataType»</text>
<text transform="matrix(0.85 0 0 1 95.6933594 375.7645264)" class="st5 st4">uro::TsunamiRiskAttribute</text>
<polygon class="st11" points="196.2492981,395.31427 313.0603333,395.31427 313.0603333,355.7142944 196.2492981,355.7142944 "/>
<polygon class="st1" points="196.2492981,395.31427 313.0603333,395.31427 313.0603333,355.7142944 196.2492981,355.7142944 "/>
<text transform="matrix(0.85 0 0 1 236.8808594 365.9989014)" class="st2 st4">«DataType»</text>
<text transform="matrix(0.85 0 0 1 204.3730469 374.7410889)" class="st5 st4">uro::InlandFloodingRiskAttribute</text>
<polygon class="st11" points="275.9855347,323.31427 395.3359375,323.31427 395.3359375,287.31427 275.9855347,287.31427 "/>
<polygon class="st1" points="275.9855347,323.31427 395.3359375,323.31427 395.3359375,287.31427 275.9855347,287.31427 "/>
<text transform="matrix(0.85 0 0 1 318.1376953 297.6004639)" class="st2 st4">«DataType»</text>
<text transform="matrix(0.85 0 0 1 281.0605469 306.3426514)" class="st5 st4">uro::ReservoirFloodingRiskAttribute</text>
<polygon class="st11" points="146.9855042,324.8571167 245.513092,324.8571167 245.513092,284.7428589 146.9855042,284.7428589 "/>
<polygon class="st1" points="146.9855042,324.8571167 245.513092,324.8571167 245.513092,284.7428589 146.9855042,284.7428589 "/>
<text transform="matrix(0.85 0 0 1 178.4746094 295.0223389)" class="st2 st4">«DataType»</text>
<text transform="matrix(0.85 0 0 1 155.6152344 303.7723389)" class="st5 st4">uro::HighTideRiskAttribute</text>
<polygon class="st11" points="364.8634949,270.3428345 517.225708,270.3428345 517.225708,120.1714325 364.8634949,120.1714325 "/>
<polygon class="st1" points="364.8634949,270.3428345 517.225708,270.3428345 517.225708,120.1714325 364.8634949,120.1714325 "/>
<text transform="matrix(0.85 0 0 1 423.2705078 130.4524994)" class="st2 st4">«DataType»</text>
<text transform="matrix(0.85 0 0 1 401.9345703 139.2024994)" class="st5 st4">uro::DataQualityAttribute</text>
<line class="st1" x1="364.8634949" y1="143.3142548" x2="516.7178345" y2="143.3142548"/>
<text transform="matrix(0.85 0 0 1 367.4033203 152.5696869)" class="st2 st4">+</text>
<text transform="matrix(0.85 0 0 1 371.9726562 152.5696869)" class="st2 st4"> </text>
<text transform="matrix(0.85 0 0 1 378.5751953 152.5696869)" class="st2 st4">geometrySrcDescLod0: gml::CodeType [0..*]</text>
<text transform="matrix(0.85 0 0 1 367.4033203 161.3118744)" class="st2 st4">+</text>
<text transform="matrix(0.85 0 0 1 371.9726562 161.3118744)" class="st2 st4"> </text>
<text transform="matrix(0.85 0 0 1 378.5751953 161.3118744)" class="st2 st4">geometrySrcDescLod1: gml::CodeType [1..*]</text>
<text transform="matrix(0.85 0 0 1 367.4033203 170.0540619)" class="st2 st4">+</text>
<text transform="matrix(0.85 0 0 1 371.9726562 170.0540619)" class="st2 st4"> </text>
<text transform="matrix(0.85 0 0 1 378.5751953 170.0540619)" class="st2 st4">geometrySrcDescLod2: gml::CodeType [0..*]</text>
<text transform="matrix(0.85 0 0 1 367.4033203 178.7962494)" class="st2 st4">+</text>
<text transform="matrix(0.85 0 0 1 371.9726562 178.7962494)" class="st2 st4"> </text>
<text transform="matrix(0.85 0 0 1 378.5751953 178.7962494)" class="st2 st4">geometrySrcDescLod3: gml::CodeType [0..*]</text>
<text transform="matrix(0.85 0 0 1 367.4033203 187.5462494)" class="st2 st4">+</text>
<text transform="matrix(0.85 0 0 1 371.9726562 187.5462494)" class="st2 st4"> </text>
<text transform="matrix(0.85 0 0 1 378.5751953 187.5462494)" class="st2 st4">geometrySrcDescLod4: gml::CodeType [0..*]</text>
<text transform="matrix(0.85 0 0 1 367.4033203 196.2806244)" class="st2 st4">+</text>
<text transform="matrix(0.85 0 0 1 371.9726562 196.2806244)" class="st2 st4"> </text>
<text transform="matrix(0.85 0 0 1 378.5751953 196.2806244)" class="st2 st4">thematicSrcDesc: gml::CodeType [0..*]</text>
<text transform="matrix(0.85 0 0 1 367.4033203 205.0223236)" class="st2 st4">+</text>
<text transform="matrix(0.85 0 0 1 371.9726562 205.0223236)" class="st2 st4"> </text>
<text transform="matrix(0.85 0 0 1 378.5751953 205.0223236)" class="st2 st4">appearanceSrcDescLod0: gml::CodeType [0..*]</text>
<text transform="matrix(0.85 0 0 1 367.4033203 213.7723236)" class="st2 st4">+</text>
<text transform="matrix(0.85 0 0 1 371.9726562 213.7723236)" class="st2 st4"> </text>
<text transform="matrix(0.85 0 0 1 378.5751953 213.7723236)" class="st2 st4">appearanceSrcDescLod1: gml::CodeType [0..*]</text>
<text transform="matrix(0.85 0 0 1 367.4033203 222.5145111)" class="st2 st4">+</text>
<text transform="matrix(0.85 0 0 1 371.9726562 222.5145111)" class="st2 st4"> </text>
<text transform="matrix(0.85 0 0 1 378.5751953 222.5145111)" class="st2 st4">appearanceSrcDescLod2: gml::CodeType [0..*]</text>
<text transform="matrix(0.85 0 0 1 367.4033203 231.2488861)" class="st2 st4">+</text>
<text transform="matrix(0.85 0 0 1 371.9726562 231.2488861)" class="st2 st4"> </text>
<text transform="matrix(0.85 0 0 1 378.5751953 231.2488861)" class="st2 st4">appearanceSrcDescLod3: gml::CodeType [0..*]</text>
<text transform="matrix(0.85 0 0 1 367.4033203 239.9988861)" class="st2 st4">+</text>
<text transform="matrix(0.85 0 0 1 371.9726562 239.9988861)" class="st2 st4"> </text>
<text transform="matrix(0.85 0 0 1 378.5751953 239.9988861)" class="st2 st4">appearanceSrcDescLod4: gml::CodeType [0..*]</text>
<text transform="matrix(0.85 0 0 1 367.4033203 248.7410736)" class="st2 st4">+</text>
<text transform="matrix(0.85 0 0 1 371.9726562 248.7410736)" class="st2 st4"> </text>
<text transform="matrix(0.85 0 0 1 378.5751953 248.7410736)" class="st2 st4">lodType: gml::CodeType [0..*]</text>
<text transform="matrix(0.85 0 0 1 367.4033203 257.4832764)" class="st2 st4">+</text>
<text transform="matrix(0.85 0 0 1 371.9726562 257.4832764)" class="st2 st4"> </text>
<text transform="matrix(0.85 0 0 1 378.5751953 257.4832764)" class="st2 st4">lod1HeightType: gml::CodeType [0..1]</text>
<text transform="matrix(0.85 0 0 1 367.4033203 266.2254639)" class="st2 st4">+</text>
<text transform="matrix(0.85 0 0 1 371.9726562 266.2254639)" class="st2 st4"> </text>
<text transform="matrix(0.85 0 0 1 378.5751953 266.2254639)" class="st2 st4">tranDataAcquisition: xs::string [0..1]</text>
<polygon class="st11" points="450.6942139,348.5142822 591.8831787,348.5142822 591.8831787,296.5714722 450.6942139,296.5714722 
	"/>
<polygon class="st1" points="450.6942139,348.5142822 591.8831787,348.5142822 591.8831787,296.5714722 450.6942139,296.5714722 "/>
<text transform="matrix(0.85 0 0 1 503.5126953 306.8582764)" class="st2 st4">«DataType»</text>
<text transform="matrix(0.85 0 0 1 480.6533203 315.6004639)" class="st5 st4">uro::KeyValuePairAttribute</text>
<line class="st1" x1="450.6942139" y1="319.7142944" x2="591.3753052" y2="319.7142944"/>
<text transform="matrix(0.85 0 0 1 453.2314453 328.9676514)" class="st2 st4">+</text>
<text transform="matrix(0.85 0 0 1 457.8007812 328.9676514)" class="st2 st4"> </text>
<text transform="matrix(0.85 0 0 1 464.4033203 328.9676514)" class="st2 st4">key: gml::CodeType</text>
<text transform="matrix(0.85 0 0 1 453.2314453 337.7176514)" class="st2 st4">+</text>
<text transform="matrix(0.85 0 0 1 457.8007812 337.7176514)" class="st2 st4"> </text>
<text transform="matrix(0.85 0 0 1 464.4033203 337.7176514)" class="st2 st4">codeValue: gml::CodeType [0..1]</text>
<line class="st1" x1="441.0446167" y1="120.1714325" x2="441.0446167" y2="38.3999481"/>
<polyline class="st14" points="274.9697876,35.8285217 269.8910522,38.3999481 274.9697876,40.9713593 280.0485229,38.3999481 
	274.9697876,35.8285217 "/>
<polyline class="st1" points="274.9697876,35.8285217 269.8910522,38.3999481 274.9697876,40.9713593 280.0485229,38.3999481 "/>
<polyline class="st1" points="444.0918579,112.457077 441.0446167,120.1714325 437.9973755,112.457077 "/>
<line class="st1" x1="196.2492981" y1="284.2285767" x2="196.2492981" y2="212.7428436"/>
<line class="st1" x1="205.8989258" y1="212.7428436" x2="205.8989258" y2="187.5428314"/>
<polyline class="st15" points="208.946167,195.7714081 202.8516541,195.7714081 205.8989258,187.5428314 208.946167,195.7714081 "/>
<polygon class="st1" points="208.946167,195.7714081 202.8516541,195.7714081 205.8989258,187.5428314 "/>
<line class="st1" x1="355.2138977" y1="286.7999878" x2="355.2138977" y2="212.7428436"/>
<line class="st1" x1="355.2138977" y1="212.7428436" x2="205.8989258" y2="212.7428436"/>
<line class="st1" x1="254.6548157" y1="355.2000122" x2="254.6548157" y2="212.7428436"/>
<line class="st1" x1="135.8122864" y1="356.2285767" x2="135.8122864" y2="212.7428436"/>
<line class="st1" x1="66.2335281" y1="284.2285767" x2="66.2335281" y2="212.7428436"/>
<line class="st1" x1="66.2335281" y1="212.7428436" x2="205.8989258" y2="212.7428436"/>
<line class="st1" x1="205.3910522" y1="122.2285614" x2="204.8831787" y2="71.3142548"/>
<polyline class="st14" points="207.4225464,76.457077 204.8831787,71.3142548 202.3437805,76.457077 204.8831787,81.5999603 
	207.4225464,76.457077 "/>
<polygon class="st1" points="207.4225464,76.457077 204.8831787,71.3142548 202.3437805,76.457077 204.8831787,81.5999603 "/>
<polyline class="st1" points="208.4382935,114.514267 205.3910522,122.2285614 202.3437805,114.514267 "/>
<line class="st1" x1="521.2886963" y1="296.5714722" x2="521.2886963" y2="38.3999481"/>
<line class="st1" x1="521.2886963" y1="38.3999481" x2="269.8910522" y2="38.3999481"/>
<polyline class="st14" points="274.9697876,35.8285217 269.8910522,38.3999481 274.9697876,40.9713593 280.0485229,38.3999481 
	274.9697876,35.8285217 "/>
<polygon class="st1" points="274.9697876,35.8285217 269.8910522,38.3999481 274.9697876,40.9713593 280.0485229,38.3999481 "/>
<polyline class="st1" points="524.3359375,288.8571167 521.2886963,296.5714722 518.2414551,288.8571167 "/>
<text transform="matrix(0.85 0 0 1 128.1933594 116.0618744)" class="st2 st4">+floodingRiskAttribute</text>
<text transform="matrix(0.85 0 0 1 211.9902344 118.1087494)" class="st2 st4">0..1</text>
<text transform="matrix(0.85 0 0 1 428.8564453 290.9129639)" class="st2 st4">+wtrKeyValuePairAttribute</text>
<text transform="matrix(0.85 0 0 1 530.9345703 290.3895264)" class="st2 st4">0..*</text>
<text transform="matrix(0.85 0 0 1 357.2470703 116.0618744)" class="st2 st4">+wtrDataQualityAttribute</text>
<text transform="matrix(0.85 0 0 1 449.6767578 116.5618744)" class="st2 st4">0..1</text>
</svg>
