<?xml version="1.0" encoding="utf-8"?>
<!-- Generator: Adobe Illustrator 27.0.0, SVG Export Plug-In . SVG Version: 6.00 Build 0)  -->
<svg version="1.1" id="レイヤー_1" xmlns="http://www.w3.org/2000/svg" xmlns:xlink="http://www.w3.org/1999/xlink" x="0px"
	 y="0px" viewBox="0 0 614.723999 435.8899841" style="enable-background:new 0 0 614.723999 435.8899841;" xml:space="preserve">
<style type="text/css">
	.st0{opacity:0.5019608;fill-rule:evenodd;clip-rule:evenodd;fill:#969696;enable-background:new    ;}
	.st1{fill-rule:evenodd;clip-rule:evenodd;fill:#FFCCFF;}
	.st2{fill:none;stroke:#000000;stroke-width:1.5013124;stroke-linecap:round;stroke-linejoin:round;stroke-miterlimit:10;}
	.st3{font-family:'YuGothicUI-Regular';}
	.st4{font-size:9.7585306px;}
	.st5{font-size:10.2875204px;}
	.st6{fill:none;stroke:#000000;stroke-width:0.2788152;stroke-miterlimit:10;}
	.st7{font-family:'YuGothicUI-Bold';}
	.st8{fill-rule:evenodd;clip-rule:evenodd;fill:#F0F0F0;}
	.st9{fill:none;stroke:#D7D7D7;stroke-width:0.7506562;stroke-linecap:square;stroke-miterlimit:10;}
	.st10{fill-rule:evenodd;clip-rule:evenodd;fill:#CCFFCC;}
	.st11{fill:none;stroke:#000000;stroke-width:0.7506562;stroke-linecap:square;stroke-miterlimit:10;}
	.st12{fill:#003060;}
	.st13{font-size:9.0078745px;}
	.st14{fill-rule:evenodd;clip-rule:evenodd;fill:#FFFFCC;}
	.st15{font-family:'Meiryo-Bold';}
	.st16{font-size:12.010499px;}
	.st17{letter-spacing:-1.1764705;}
	.st18{font-family:'Meiryo';}
	.st19{font-size:7.5065618px;}
	.st20{fill:none;stroke:#000000;stroke-width:1.5013124;stroke-linecap:round;stroke-linejoin:bevel;stroke-miterlimit:10;}
	.st21{fill-rule:evenodd;clip-rule:evenodd;fill:#FFFFFF;}
</style>
<path class="st0" d="M375.0620422,13.8925648c1.0375671,0,1.8786621,0.84021,1.8786621,1.8766479h0.0000305v55.5485229
	l-0.0000305,0.000061c0,1.036377-0.841095,1.8765869-1.8786926,1.8765869l0,0h0.0000305H236.0389099h-0.0000305
	c-1.0375671,0-1.8786926-0.84021-1.8786926-1.8766479h0.0000305V15.7692127c0-1.036438,0.841095-1.8766479,1.8786926-1.8766479l0,0
	H375.0620422L375.0620422,13.8925648L375.0620422,13.8925648z"/>
<path class="st1" d="M372.8076172,11.6406116c1.0375366,0,1.8786621,0.8401489,1.8786621,1.8766479h0.0000305v55.5485229h-0.0000305
	c0,1.036438-0.8411255,1.8766479-1.8786926,1.8766479l0,0h0.0000305H233.7844849h-0.0000305
	c-1.0375671,0-1.8786926-0.84021-1.8786926-1.8766479h0.0000305V13.5172596c0-1.036499,0.841095-1.8766479,1.8786926-1.8766479l0,0
	H372.8076172L372.8076172,11.6406116L372.8076172,11.6406116z"/>
<path class="st2" d="M372.8076172,11.6406116c1.0375366,0,1.8786621,0.8401489,1.8786621,1.8766479h0.0000305v55.5485229h-0.0000305
	c0,1.036438-0.8411255,1.8766479-1.8786926,1.8766479l0,0h0.0000305H233.7844849h-0.0000305
	c-1.0375671,0-1.8786926-0.84021-1.8786926-1.8766479h0.0000305V13.5172596c0-1.036499,0.841095-1.8766479,1.8786926-1.8766479l0,0
	H372.8076172L372.8076172,11.6406116L372.8076172,11.6406116z"/>
<text transform="matrix(0.85 0 0 1 277.7456055 26.6517181)" class="st3 st4">«DataType»</text>
<text transform="matrix(0.85 0 -0.3165385 0.9485797 245.4242859 39.4283333)" class="st3 st5">u</text>
<text transform="matrix(0.85 0 -0.3165385 0.9485797 245.4242859 39.4283333)" class="st6 st3 st5">u</text>
<text transform="matrix(0.85 0 -0.3165385 0.9485797 251.4320984 39.4283333)" class="st3 st5">r</text>
<text transform="matrix(0.85 0 -0.3165385 0.9485797 251.4320984 39.4283333)" class="st6 st3 st5">r</text>
<text transform="matrix(0.85 0 -0.3165385 0.9485797 255.1801453 39.4283333)" class="st3 st5">o</text>
<text transform="matrix(0.85 0 -0.3165385 0.9485797 255.1801453 39.4283333)" class="st6 st3 st5">o</text>
<text transform="matrix(0.85 0 -0.3165385 0.9485797 261.1879578 39.4283333)" class="st3 st5">::</text>
<text transform="matrix(0.85 0 -0.3165385 0.9485797 261.1879578 39.4283333)" class="st6 st3 st5">::</text>
<text transform="matrix(0.85 0 -0.3165385 0.9485797 265.6781921 39.4283333)" class="st3 st5">D</text>
<text transform="matrix(0.85 0 -0.3165385 0.9485797 265.6781921 39.4283333)" class="st6 st3 st5">D</text>
<text transform="matrix(0.85 0 -0.3165385 0.9485797 272.4496765 39.4283333)" class="st3 st5">i</text>
<text transform="matrix(0.85 0 -0.3165385 0.9485797 272.4496765 39.4283333)" class="st6 st3 st5">i</text>
<text transform="matrix(0.85 0 -0.3165385 0.9485797 274.707489 39.4283333)" class="st3 st5">s</text>
<text transform="matrix(0.85 0 -0.3165385 0.9485797 274.707489 39.4283333)" class="st6 st3 st5">s</text>
<text transform="matrix(0.85 0 -0.3165385 0.9485797 279.2133484 39.4283333)" class="st3 st5">a</text>
<text transform="matrix(0.85 0 -0.3165385 0.9485797 279.2133484 39.4283333)" class="st6 st3 st5">a</text>
<text transform="matrix(0.85 0 -0.3165385 0.9485797 284.4672546 39.4283333)" class="st3 st5">s</text>
<text transform="matrix(0.85 0 -0.3165385 0.9485797 284.4672546 39.4283333)" class="st6 st3 st5">s</text>
<text transform="matrix(0.85 0 -0.3165385 0.9485797 288.9750671 39.4283333)" class="st3 st5">t</text>
<text transform="matrix(0.85 0 -0.3165385 0.9485797 288.9750671 39.4283333)" class="st6 st3 st5">t</text>
<text transform="matrix(0.85 0 -0.3165385 0.9485797 292.7250671 39.4283333)" class="st3 st5">e</text>
<text transform="matrix(0.85 0 -0.3165385 0.9485797 292.7250671 39.4283333)" class="st6 st3 st5">e</text>
<text transform="matrix(0.85 0 -0.3165385 0.9485797 297.9809265 39.4283333)" class="st3 st5">r</text>
<text transform="matrix(0.85 0 -0.3165385 0.9485797 297.9809265 39.4283333)" class="st6 st3 st5">r</text>
<text transform="matrix(0.85 0 -0.3165385 0.9485797 301.7289734 39.4283333)" class="st3 st5">R</text>
<text transform="matrix(0.85 0 -0.3165385 0.9485797 301.7289734 39.4283333)" class="st6 st3 st5">R</text>
<text transform="matrix(0.85 0 -0.3165385 0.9485797 307.7367859 39.4283333)" class="st3 st5">i</text>
<text transform="matrix(0.85 0 -0.3165385 0.9485797 307.7367859 39.4283333)" class="st6 st3 st5">i</text>
<text transform="matrix(0.85 0 -0.3165385 0.9485797 309.9965515 39.4283333)" class="st3 st5">s</text>
<text transform="matrix(0.85 0 -0.3165385 0.9485797 309.9965515 39.4283333)" class="st6 st3 st5">s</text>
<text transform="matrix(0.85 0 -0.3165385 0.9485797 314.5024109 39.4283333)" class="st3 st5">k</text>
<text transform="matrix(0.85 0 -0.3165385 0.9485797 314.5024109 39.4283333)" class="st6 st3 st5">k</text>
<text transform="matrix(0.85 0 -0.3165385 0.9485797 319.7582703 39.4283333)" class="st3 st5">A</text>
<text transform="matrix(0.85 0 -0.3165385 0.9485797 319.7582703 39.4283333)" class="st6 st3 st5">A</text>
<text transform="matrix(0.85 0 -0.3165385 0.9485797 326.519989 39.4283333)" class="st3 st5">tt</text>
<text transform="matrix(0.85 0 -0.3165385 0.9485797 326.519989 39.4283333)" class="st6 st3 st5">tt</text>
<text transform="matrix(0.85 0 -0.3165385 0.9485797 334.019989 39.4283333)" class="st3 st5">r</text>
<text transform="matrix(0.85 0 -0.3165385 0.9485797 334.019989 39.4283333)" class="st6 st3 st5">r</text>
<text transform="matrix(0.85 0 -0.3165385 0.9485797 337.7680359 39.4283333)" class="st3 st5">i</text>
<text transform="matrix(0.85 0 -0.3165385 0.9485797 337.7680359 39.4283333)" class="st6 st3 st5">i</text>
<text transform="matrix(0.85 0 -0.3165385 0.9485797 340.0258484 39.4283333)" class="st3 st5">b</text>
<text transform="matrix(0.85 0 -0.3165385 0.9485797 340.0258484 39.4283333)" class="st6 st3 st5">b</text>
<text transform="matrix(0.85 0 -0.3165385 0.9485797 346.0336609 39.4283333)" class="st3 st5">u</text>
<text transform="matrix(0.85 0 -0.3165385 0.9485797 346.0336609 39.4283333)" class="st6 st3 st5">u</text>
<text transform="matrix(0.85 0 -0.3165385 0.9485797 352.0414734 39.4283333)" class="st3 st5">t</text>
<text transform="matrix(0.85 0 -0.3165385 0.9485797 352.0414734 39.4283333)" class="st6 st3 st5">t</text>
<text transform="matrix(0.85 0 -0.3165385 0.9485797 355.7914734 39.4283333)" class="st3 st5">e</text>
<text transform="matrix(0.85 0 -0.3165385 0.9485797 355.7914734 39.4283333)" class="st6 st3 st5">e</text>
<line class="st2" x1="231.9057922" y1="45.4200897" x2="374.6863098" y2="45.4200897"/>
<text transform="matrix(0.85 0 0 1 235.659668 58.9329681)" class="st3 st4">+</text>
<text transform="matrix(0.85 0 0 1 242.4208984 58.9329681)" class="st3 st4"> </text>
<text transform="matrix(0.85 0 0 1 252.1987305 58.9329681)" class="st3 st4">description: gml::CodeType</text>
<path class="st0" d="M318.7013245,140.0028229c1.0375366,0,1.8786316,0.8401794,1.8786316,1.8766174h0.000061v74.3149414
	l-0.000061,0.0000305c0,1.036438-0.841095,1.8766479-1.8786926,1.8766174c0,0.0000305,0,0,0,0h0.000061H168.4060364
	l-0.0000305,0.0000305c-1.0375671-0.0000305-1.8786926-0.84021-1.8786926-1.8766785h0.0000305v-74.3149414
	c0-1.036438,0.841095-1.8766479,1.8786926-1.8766174v-0.0000305h150.2952881V140.0028229L318.7013245,140.0028229z"/>
<path class="st1" d="M316.4468994,137.7508392c1.0375366,0,1.8786316,0.84021,1.8786316,1.8766479h0.000061v74.3149414
	l-0.000061,0.0000305c0,1.036438-0.841095,1.8766174-1.8786926,1.8766174l0,0h0.000061H166.1516113h-0.0000305
	c-1.0375671,0-1.8786926-0.8401794-1.8786926-1.8766479h0.0000305v-74.3149414c0-1.036438,0.841095-1.8766479,1.8786926-1.8766479
	l0,0H316.4468994L316.4468994,137.7508392L316.4468994,137.7508392z"/>
<path class="st2" d="M316.4468994,137.7508392c1.0375366,0,1.8786316,0.84021,1.8786316,1.8766479h0.000061v74.3149414
	l-0.000061,0.0000305c0,1.036438-0.841095,1.8766174-1.8786926,1.8766174l0,0h0.000061H166.1516113h-0.0000305
	c-1.0375671,0-1.8786926-0.8401794-1.8786926-1.8766479h0.0000305v-74.3149414c0-1.036438,0.841095-1.8766479,1.8786926-1.8766479
	l0,0H316.4468994L316.4468994,137.7508392L316.4468994,137.7508392z"/>
<text transform="matrix(0.85 0 0 1 215.3706055 152.7689056)" class="st3 st4">«DataType»</text>
<text transform="matrix(0.85 0 -0.3165385 0.9485797 181.5504303 165.5449677)" class="st3 st5">u</text>
<text transform="matrix(0.85 0 -0.3165385 0.9485797 181.5504303 165.5449677)" class="st6 st3 st5">u</text>
<text transform="matrix(0.85 0 -0.3165385 0.9485797 187.5582428 165.5449677)" class="st3 st5">r</text>
<text transform="matrix(0.85 0 -0.3165385 0.9485797 187.5582428 165.5449677)" class="st6 st3 st5">r</text>
<text transform="matrix(0.85 0 -0.3165385 0.9485797 191.3062897 165.5449677)" class="st3 st5">o</text>
<text transform="matrix(0.85 0 -0.3165385 0.9485797 191.3062897 165.5449677)" class="st6 st3 st5">o</text>
<text transform="matrix(0.85 0 -0.3165385 0.9485797 197.3141022 165.5449677)" class="st3 st5">::</text>
<text transform="matrix(0.85 0 -0.3165385 0.9485797 197.3141022 165.5449677)" class="st6 st3 st5">::</text>
<text transform="matrix(0.85 0 -0.3165385 0.9485797 201.8043365 165.5449677)" class="st3 st5">F</text>
<text transform="matrix(0.85 0 -0.3165385 0.9485797 201.8043365 165.5449677)" class="st6 st3 st5">F</text>
<text transform="matrix(0.85 0 -0.3165385 0.9485797 207.062149 165.5449677)" class="st3 st5">l</text>
<text transform="matrix(0.85 0 -0.3165385 0.9485797 207.062149 165.5449677)" class="st6 st3 st5">l</text>
<text transform="matrix(0.85 0 -0.3165385 0.9485797 209.3199615 165.5449677)" class="st3 st5">oo</text>
<text transform="matrix(0.85 0 -0.3165385 0.9485797 209.3199615 165.5449677)" class="st6 st3 st5">oo</text>
<text transform="matrix(0.85 0 -0.3165385 0.9485797 221.3355865 165.5449677)" class="st3 st5">d</text>
<text transform="matrix(0.85 0 -0.3165385 0.9485797 221.3355865 165.5449677)" class="st6 st3 st5">d</text>
<text transform="matrix(0.85 0 -0.3165385 0.9485797 227.3414459 165.5449677)" class="st3 st5">i</text>
<text transform="matrix(0.85 0 -0.3165385 0.9485797 227.3414459 165.5449677)" class="st6 st3 st5">i</text>
<text transform="matrix(0.85 0 -0.3165385 0.9485797 229.6012115 165.5449677)" class="st3 st5">n</text>
<text transform="matrix(0.85 0 -0.3165385 0.9485797 229.6012115 165.5449677)" class="st6 st3 st5">n</text>
<text transform="matrix(0.85 0 -0.3165385 0.9485797 235.6070709 165.5449677)" class="st3 st5">g</text>
<text transform="matrix(0.85 0 -0.3165385 0.9485797 235.6070709 165.5449677)" class="st6 st3 st5">g</text>
<text transform="matrix(0.85 0 -0.3165385 0.9485797 241.6148834 165.5449677)" class="st3 st5">R</text>
<text transform="matrix(0.85 0 -0.3165385 0.9485797 241.6148834 165.5449677)" class="st6 st3 st5">R</text>
<text transform="matrix(0.85 0 -0.3165385 0.9485797 247.624649 165.5449677)" class="st3 st5">i</text>
<text transform="matrix(0.85 0 -0.3165385 0.9485797 247.624649 165.5449677)" class="st6 st3 st5">i</text>
<text transform="matrix(0.85 0 -0.3165385 0.9485797 249.8824615 165.5449677)" class="st3 st5">s</text>
<text transform="matrix(0.85 0 -0.3165385 0.9485797 249.8824615 165.5449677)" class="st6 st3 st5">s</text>
<text transform="matrix(0.85 0 -0.3165385 0.9485797 254.3883209 165.5449677)" class="st3 st5">k</text>
<text transform="matrix(0.85 0 -0.3165385 0.9485797 254.3883209 165.5449677)" class="st6 st3 st5">k</text>
<text transform="matrix(0.85 0 -0.3165385 0.9485797 259.6461487 165.5449677)" class="st3 st5">A</text>
<text transform="matrix(0.85 0 -0.3165385 0.9485797 259.6461487 165.5449677)" class="st6 st3 st5">A</text>
<text transform="matrix(0.85 0 -0.3165385 0.9485797 266.4059143 165.5449677)" class="st3 st5">tt</text>
<text transform="matrix(0.85 0 -0.3165385 0.9485797 266.4059143 165.5449677)" class="st6 st3 st5">tt</text>
<text transform="matrix(0.85 0 -0.3165385 0.9485797 273.9059143 165.5449677)" class="st3 st5">r</text>
<text transform="matrix(0.85 0 -0.3165385 0.9485797 273.9059143 165.5449677)" class="st6 st3 st5">r</text>
<text transform="matrix(0.85 0 -0.3165385 0.9485797 277.6539612 165.5449677)" class="st3 st5">i</text>
<text transform="matrix(0.85 0 -0.3165385 0.9485797 277.6539612 165.5449677)" class="st6 st3 st5">i</text>
<text transform="matrix(0.85 0 -0.3165385 0.9485797 279.9137268 165.5449677)" class="st3 st5">b</text>
<text transform="matrix(0.85 0 -0.3165385 0.9485797 279.9137268 165.5449677)" class="st6 st3 st5">b</text>
<text transform="matrix(0.85 0 -0.3165385 0.9485797 285.9195862 165.5449677)" class="st3 st5">u</text>
<text transform="matrix(0.85 0 -0.3165385 0.9485797 285.9195862 165.5449677)" class="st6 st3 st5">u</text>
<text transform="matrix(0.85 0 -0.3165385 0.9485797 291.9273987 165.5449677)" class="st3 st5">t</text>
<text transform="matrix(0.85 0 -0.3165385 0.9485797 291.9273987 165.5449677)" class="st6 st3 st5">t</text>
<text transform="matrix(0.85 0 -0.3165385 0.9485797 295.6773987 165.5449677)" class="st3 st5">e</text>
<text transform="matrix(0.85 0 -0.3165385 0.9485797 295.6773987 165.5449677)" class="st6 st3 st5">e</text>
<line class="st2" x1="164.2729187" y1="171.5303497" x2="318.325592" y2="171.5303497"/>
<text transform="matrix(0.85 0 0 1 168.0268555 185.0423431)" class="st3 st4">+</text>
<text transform="matrix(0.85 0 0 1 174.7880859 185.0423431)" class="st3 st4"> </text>
<text transform="matrix(0.85 0 0 1 184.5581055 185.0423431)" class="st3 st4">rank: gml::CodeType [0..1]</text>
<text transform="matrix(0.85 0 0 1 168.0268555 197.8079681)" class="st3 st4">+</text>
<text transform="matrix(0.85 0 0 1 174.7880859 197.8079681)" class="st3 st4"> </text>
<text transform="matrix(0.85 0 0 1 184.5581055 197.8079681)" class="st3 st4">rankOrg: gml::CodeType [0..1]</text>
<text transform="matrix(0.85 0 0 1 168.0268555 210.5735931)" class="st3 st4">+</text>
<text transform="matrix(0.85 0 0 1 174.7880859 210.5735931)" class="st3 st4"> </text>
<text transform="matrix(0.85 0 0 1 184.5581055 210.5735931)" class="st3 st4">depth: gml::LengthType [0..1]</text>
<path class="st0" d="M182.684082,276.6222534c1.0375671,0,1.8786621,0.8401794,1.8786621,1.8766479l0.0000305-0.0000305v74.3150024
	h-0.0000305c0,1.036438-0.841095,1.8766479-1.8786926,1.8766479l0,0h0.0000305H16.6077805h-0.0000076
	c-1.0375671,0-1.8786926-0.84021-1.8786926-1.8766479h0.0000153v-74.3150024c0-1.036438,0.8411102-1.8766479,1.878685-1.8766174
	v-0.0000305H182.684082V276.6222534L182.684082,276.6222534z"/>
<path class="st1" d="M180.429657,274.3703003c1.0375671,0,1.8786621,0.8401794,1.8786621,1.8766174h0.0000305v74.3149414
	l-0.0000305,0.000061c0,1.036438-0.841095,1.8766479-1.8786926,1.8765869c0,0.000061,0,0,0,0h0.0000305H14.3533554
	l-0.0000153,0.000061c-1.0375671-0.000061-1.878685-0.84021-1.878685-1.876709h0.0000076v-74.3149414
	c0-1.036438,0.8411102-1.8766479,1.8786926-1.8766174v-0.0000305H180.429657V274.3703003L180.429657,274.3703003z"/>
<path class="st2" d="M180.429657,274.3703003c1.0375671,0,1.8786621,0.8401794,1.8786621,1.8766174h0.0000305v74.3149414
	l-0.0000305,0.000061c0,1.036438-0.841095,1.8766479-1.8786926,1.8765869c0,0.000061,0,0,0,0h0.0000305H14.3533554
	l-0.0000153,0.000061c-1.0375671-0.000061-1.878685-0.84021-1.878685-1.876709h0.0000076v-74.3149414
	c0-1.036438,0.8411102-1.8766479,1.8786926-1.8766174v-0.0000305H180.429657V274.3703003L180.429657,274.3703003z"/>
<text transform="matrix(0.85 0 0 1 71.8393555 289.3861084)" class="st3 st4">«DataType»</text>
<text transform="matrix(0.85 0 0 1 26.753418 302.1439209)" class="st7 st4">uro::RiverFloodingRiskAttribute</text>
<line class="st2" x1="12.4746628" y1="308.1497803" x2="182.3083496" y2="308.1497803"/>
<text transform="matrix(0.85 0 0 1 16.2299805 321.6673584)" class="st3 st4">+</text>
<text transform="matrix(0.85 0 0 1 22.9912109 321.6673584)" class="st3 st4"> </text>
<text transform="matrix(0.85 0 0 1 32.7612305 321.6673584)" class="st3 st4">adminType: gml::CodeType</text>
<text transform="matrix(0.85 0 0 1 16.2299805 334.4329834)" class="st3 st4">+</text>
<text transform="matrix(0.85 0 0 1 22.9912109 334.4329834)" class="st3 st4"> </text>
<text transform="matrix(0.85 0 0 1 32.7612305 334.4329834)" class="st3 st4">scale: gml::CodeType</text>
<text transform="matrix(0.85 0 0 1 16.2299805 347.1829834)" class="st3 st4">+</text>
<text transform="matrix(0.85 0 0 1 22.9912109 347.1829834)" class="st3 st4"> </text>
<text transform="matrix(0.85 0 0 1 32.7612305 347.1829834)" class="st3 st4">duration: gml::MeasureType [0..1]</text>
<path class="st0" d="M238.293335,368.2023621c1.0375671,0,1.8786621,0.8401489,1.8786621,1.8766479l0.0000305-0.000061v53.2965698
	l-0.0000305,0.000061c0,1.036438-0.841095,1.8766479-1.8786926,1.8765869c0,0.000061,0,0,0,0h0.0000305H106.7849655
	l-0.0000153,0.000061c-1.0375671-0.000061-1.8786926-0.84021-1.8786926-1.876709h0.0000153V370.078949
	c0-1.036438,0.8411102-1.8766479,1.8786926-1.8765869v-0.000061H238.293335V368.2023621L238.293335,368.2023621z"/>
<path class="st1" d="M236.0389099,365.9504089c1.0375671,0,1.8786621,0.8401489,1.8786621,1.8765869h0.0000305v53.2965698
	l-0.0000305,0.000061c0,1.036377-0.841095,1.8766479-1.8786926,1.8765869c0,0.000061,0,0,0,0h0.0000305H104.5305252v0.000061
	c-1.0375824-0.000061-1.8786926-0.840271-1.8786926-1.876709l0,0v-53.2965698c0-1.036438,0.8411102-1.8766479,1.8786926-1.8765869
	v-0.000061h131.5083923V365.9504089L236.0389099,365.9504089z"/>
<path class="st2" d="M236.0389099,365.9504089c1.0375671,0,1.8786621,0.8401489,1.8786621,1.8765869h0.0000305v53.2965698
	l-0.0000305,0.000061c0,1.036377-0.841095,1.8766479-1.8786926,1.8765869c0,0.000061,0,0,0,0h0.0000305H104.5305252v0.000061
	c-1.0375824-0.000061-1.8786926-0.840271-1.8786926-1.876709l0,0v-53.2965698c0-1.036438,0.8411102-1.8766479,1.8786926-1.8765869
	v-0.000061h131.5083923V365.9504089L236.0389099,365.9504089z"/>
<text transform="matrix(0.85 0 0 1 144.7299805 380.9642334)" class="st3 st4">«DataType»</text>
<text transform="matrix(0.85 0 0 1 110.1674805 393.7298584)" class="st7 st4">uro::HighTideRiskAttribute</text>
<path class="st0" d="M425.4109802,368.2023621c1.0375366,0,1.8786316,0.8401489,1.8786316,1.8766479l0.000061-0.000061v48.0419922
	l-0.000061,0.000061c0,1.036377-0.841095,1.8766479-1.8786926,1.8765869c0,0.000061,0,0,0,0h0.000061H272.1097717
	l-0.0000305,0.000061c-1.0375671-0.000061-1.8786926-0.840271-1.8786926-1.876709h0.0000305V370.078949
	c0-1.036438,0.841095-1.8766479,1.8786926-1.8765869v-0.000061h153.3012085V368.2023621L425.4109802,368.2023621z"/>
<path class="st1" d="M423.1565552,365.9504089c1.0375366,0,1.8786316,0.8401489,1.8786316,1.8765869h0.000061v48.0419922h-0.000061
	c0,1.036438-0.841095,1.8766479-1.8786926,1.8766479l0,0h0.000061H269.8553467h-0.0000305
	c-1.0375671,0-1.8786926-0.84021-1.8786926-1.8766479h0.0000305v-48.0419922c0-1.036438,0.841095-1.8766479,1.8786926-1.8765869
	v-0.000061h153.3012085V365.9504089L423.1565552,365.9504089z"/>
<path class="st2" d="M423.1565552,365.9504089c1.0375366,0,1.8786316,0.8401489,1.8786316,1.8765869h0.000061v48.0419922h-0.000061
	c0,1.036438-0.841095,1.8766479-1.8786926,1.8766479l0,0h0.000061H269.8553467h-0.0000305
	c-1.0375671,0-1.8786926-0.84021-1.8786926-1.8766479h0.0000305v-48.0419922c0-1.036438,0.841095-1.8766479,1.8786926-1.8765869
	v-0.000061h153.3012085V365.9504089L423.1565552,365.9504089z"/>
<text transform="matrix(0.85 0 0 1 320.5810547 380.9642334)" class="st3 st4">«DataType»</text>
<text transform="matrix(0.85 0 0 1 272.487793 393.7298584)" class="st7 st4">uro::InlandFloodingRiskAttribute</text>
<path class="st0" d="M472.0025024,140.0028229c1.0375366,0,1.8786621,0.8401794,1.8786621,1.8766174h0.000061v63.0551147
	l-0.000061,0.0000305c0,1.036438-0.8411255,1.8766174-1.8787231,1.8766174l0,0h0.000061h-130.756897h-0.0000305
	c-1.0375671,0-1.8786926-0.8401794-1.8786926-1.8766479h0.0000305v-63.0551147c0-1.036438,0.841095-1.8766479,1.8786926-1.8766174
	v-0.0000305h130.756897V140.0028229L472.0025024,140.0028229z"/>
<path class="st1" d="M469.7481079,137.7508392c1.0375366,0,1.8786011,0.84021,1.8786011,1.8766479h0.000061v63.0550842
	l-0.000061,0.0000305c0,1.036438-0.8410645,1.8766479-1.8786621,1.8766174c0,0.0000305,0,0,0,0h0.000061H338.9911804
	l-0.000061,0.0000305c-1.0375366-0.0000305-1.8786621-0.84021-1.8786621-1.8766785h0.0000305v-63.0550842
	c0-1.036438,0.841095-1.8766479,1.8786926-1.8766479l0,0H469.7481079L469.7481079,137.7508392L469.7481079,137.7508392z"/>
<path class="st2" d="M469.7481079,137.7508392c1.0375366,0,1.8786011,0.84021,1.8786011,1.8766479h0.000061v63.0550842
	l-0.000061,0.0000305c0,1.036438-0.8410645,1.8766479-1.8786621,1.8766174c0,0.0000305,0,0,0,0h0.000061H338.9911804
	l-0.000061,0.0000305c-1.0375366-0.0000305-1.8786621-0.84021-1.8786621-1.8766785h0.0000305v-63.0550842
	c0-1.036438,0.841095-1.8766479,1.8786926-1.8766479l0,0H469.7481079L469.7481079,137.7508392L469.7481079,137.7508392z"/>
<text transform="matrix(0.85 0 0 1 378.4404297 152.7689056)" class="st3 st4">«DataType»</text>
<text transform="matrix(0.85 0 0 1 343.1201172 165.5345306)" class="st7 st4">uro::LandSlideRiskAttribute</text>
<line class="st2" x1="337.1124878" y1="171.5303497" x2="471.62677" y2="171.5303497"/>
<text transform="matrix(0.85 0 0 1 340.8701172 185.0423431)" class="st3 st4">+</text>
<text transform="matrix(0.85 0 0 1 347.6308594 185.0423431)" class="st3 st4"> </text>
<text transform="matrix(0.85 0 0 1 357.4013672 185.0423431)" class="st3 st4">areaType: gml::CodeType</text>
<path class="st0" d="M350.2633362,278.1235657c1.0375366,0,1.8786316,0.8401794,1.8786316,1.8766479l0.000061-0.0000305v53.2966003
	l-0.000061,0.000061c0,1.036377-0.841095,1.8766479-1.8786926,1.8765869c0,0.000061,0,0,0,0h0.000061H211.9916687
	l-0.0000305,0.000061c-1.0375671-0.000061-1.8786926-0.840271-1.8786926-1.876709h0.0000305v-53.2966003
	c0-1.036438,0.841095-1.8766479,1.8786926-1.8766174v-0.0000305h138.2716675V278.1235657L350.2633362,278.1235657z"/>
<path class="st1" d="M348.0089111,275.8716125c1.0375366,0,1.8786316,0.8401794,1.8786316,1.8766174h0.000061v53.2966003
	l-0.000061,0.000061c0,1.036377-0.841095,1.8766479-1.8786926,1.8765869c0,0.000061,0,0,0,0h0.000061h-138.271698v0.000061
	c-1.0375671-0.000061-1.8786926-0.840271-1.8786926-1.876709h0.0000305V277.74823
	c0-1.036438,0.841095-1.8766479,1.8786621-1.8766174v-0.0000305h138.271698V275.8716125L348.0089111,275.8716125z"/>
<path class="st2" d="M348.0089111,275.8716125c1.0375366,0,1.8786316,0.8401794,1.8786316,1.8766174h0.000061v53.2966003
	l-0.000061,0.000061c0,1.036377-0.841095,1.8766479-1.8786926,1.8765869c0,0.000061,0,0,0,0h0.000061h-138.271698v0.000061
	c-1.0375671-0.000061-1.8786926-0.840271-1.8786926-1.876709h0.0000305V277.74823
	c0-1.036438,0.841095-1.8766479,1.8786621-1.8766174v-0.0000305h138.271698V275.8716125L348.0089111,275.8716125z"/>
<text transform="matrix(0.85 0 0 1 252.940918 290.8861084)" class="st3 st4">«DataType»</text>
<text transform="matrix(0.85 0 0 1 219.878418 303.6517334)" class="st7 st4">uro::TsunamiRiskAttribute</text>
<path class="st8" d="M600.1292725,11.6406116c1.2450562,0,2.2543335,1.0082397,2.2543335,2.2519531h0.000061v84.8241577h-0.000061
	c0,1.2437134-1.0092773,2.2519531-2.2543945,2.2519531l0,0h0.000061h-140.526123h-0.000061
	c-1.2450562,0-2.2543945-1.0082397-2.2543945-2.2519531V13.8925648c0-1.2437134,1.0093384-2.2519531,2.2544556-2.2519531l0,0
	H600.1292725L600.1292725,11.6406116L600.1292725,11.6406116z"/>
<path class="st9" d="M600.1292725,11.6406116c1.2450562,0,2.2543335,1.0082397,2.2543335,2.2519531h0.000061v84.8241577h-0.000061
	c0,1.2437134-1.0092773,2.2519531-2.2543945,2.2519531l0,0h0.000061h-140.526123h-0.000061
	c-1.2450562,0-2.2543945-1.0082397-2.2543945-2.2519531V13.8925648c0-1.2437134,1.0093384-2.2519531,2.2544556-2.2519531l0,0
	H600.1292725L600.1292725,11.6406116L600.1292725,11.6406116z"/>
<path class="st10" d="M475.0084229,34.1602631c1.0375366,0,1.8786621,0.84021,1.8786621,1.8766479l0,0v8.2572021l0,0
	c0,1.036438-0.8411255,1.8766479-1.8787231,1.8766479l0,0h0.000061h-8.2662354h-0.000061
	c-1.0375366,0-1.8786621-0.84021-1.8786621-1.8766479l0,0V36.036911c0-1.036438,0.8411255-1.8766479,1.8787231-1.8766479l0,0
	H475.0084229L475.0084229,34.1602631L475.0084229,34.1602631z"/>
<path class="st11" d="M475.0084229,34.1602631c1.0375366,0,1.8786621,0.84021,1.8786621,1.8766479l0,0v8.2572021l0,0
	c0,1.036438-0.8411255,1.8766479-1.8787231,1.8766479l0,0h0.000061h-8.2662354h-0.000061
	c-1.0375366,0-1.8786621-0.84021-1.8786621-1.8766479l0,0V36.036911c0-1.036438,0.8411255-1.8766479,1.8787231-1.8766479l0,0
	H475.0084229L475.0084229,34.1602631L475.0084229,34.1602631z"/>
<text transform="matrix(0.85 0 0 1 481.3935547 43.9173431)" class="st12 st3 st13">GMLに定義されたクラス</text>
<path class="st14" d="M475.0084229,48.4227753c1.0375366,0,1.8786621,0.8401489,1.8786621,1.8765869l0,0v8.2572021v0.000061
	c0,1.036438-0.8411255,1.8766479-1.8787231,1.8765869c0,0.000061,0,0,0,0h0.000061h-8.2662354l-0.000061,0.000061
	c-1.0375366-0.000061-1.8786621-0.84021-1.8786621-1.876709l0,0v-8.2572021c0-1.036438,0.8411255-1.8766479,1.8787231-1.8765869
	v-0.000061h8.2662354V48.4227753L475.0084229,48.4227753z"/>
<path class="st11" d="M475.0084229,48.4227753c1.0375366,0,1.8786621,0.8401489,1.8786621,1.8765869l0,0v8.2572021v0.000061
	c0,1.036438-0.8411255,1.8766479-1.8787231,1.8765869c0,0.000061,0,0,0,0h0.000061h-8.2662354l-0.000061,0.000061
	c-1.0375366-0.000061-1.8786621-0.84021-1.8786621-1.876709l0,0v-8.2572021c0-1.036438,0.8411255-1.8766479,1.8787231-1.8765869
	v-0.000061h8.2662354V48.4227753L475.0084229,48.4227753z"/>
<text transform="matrix(0.85 0 0 1 481.3935547 58.1829681)" class="st12 st3 st13">CityGMLに定義されたクラス</text>
<path class="st1" d="M475.0084229,62.6852264c1.0375366,0,1.8786621,0.84021,1.8786621,1.8766479v-0.000061v8.2572632l0,0
	c0,1.036438-0.8411255,1.8766479-1.8787231,1.8766479l0,0h0.000061h-8.2662354h-0.000061
	c-1.0375366,0-1.8786621-0.84021-1.8786621-1.8766479l0,0v-8.2572632c0-1.036377,0.8411255-1.8765869,1.8787231-1.8765869l0,0
	H475.0084229L475.0084229,62.6852264L475.0084229,62.6852264z"/>
<path class="st11" d="M475.0084229,62.6852264c1.0375366,0,1.8786621,0.84021,1.8786621,1.8766479v-0.000061v8.2572632l0,0
	c0,1.036438-0.8411255,1.8766479-1.8787231,1.8766479l0,0h0.000061h-8.2662354h-0.000061
	c-1.0375366,0-1.8786621-0.84021-1.8786621-1.8766479l0,0v-8.2572632c0-1.036377,0.8411255-1.8765869,1.8787231-1.8765869l0,0
	H475.0084229L475.0084229,62.6852264L475.0084229,62.6852264z"/>
<text transform="matrix(0.85 0 0 1 481.3935547 72.4485931)" class="st12 st3 st13">i-URに定義されたクラス</text>
<text transform="matrix(0.85 0 0 1 514.4560547 29.9036713)" class="st12 st15 st16 st17">凡例</text>
<path class="st0" d="M554.664917,281.1261902c1.0375366,0,1.8786621,0.8401794,1.8786621,1.8766479l0.000061-0.0000305v48.0420227
	l-0.000061,0.000061c0,1.036377-0.8411255,1.8766479-1.8787231,1.8765869c0,0.000061,0,0,0,0h0.000061H388.588623
	l-0.0000305,0.000061c-1.0375671-0.000061-1.8786926-0.840271-1.8786926-1.876709h0.0000305v-48.0420227
	c0-1.036438,0.841095-1.8766479,1.8786926-1.8766174v-0.0000305H554.664917V281.1261902L554.664917,281.1261902z"/>
<path class="st1" d="M552.4105225,278.8742371c1.0375366,0,1.8786011,0.8401794,1.8786011,1.8766174h0.000061v48.0420227h-0.000061
	c0,1.036438-0.8410645,1.8766479-1.8786621,1.8766479l0,0h0.000061H386.334198h-0.000061
	c-1.0375366,0-1.8786621-0.84021-1.8786621-1.8766479h0.0000305v-48.0420227c0-1.036438,0.841095-1.8766479,1.8786926-1.8766174
	v-0.0000305h166.0763245V278.8742371L552.4105225,278.8742371z"/>
<path class="st2" d="M552.4105225,278.8742371c1.0375366,0,1.8786011,0.8401794,1.8786011,1.8766174h0.000061v48.0420227h-0.000061
	c0,1.036438-0.8410645,1.8766479-1.8786621,1.8766479l0,0h0.000061H386.334198h-0.000061
	c-1.0375366,0-1.8786621-0.84021-1.8786621-1.8766479h0.0000305v-48.0420227c0-1.036438,0.841095-1.8766479,1.8786926-1.8766174
	v-0.0000305h166.0763245V278.8742371L552.4105225,278.8742371z"/>
<text transform="matrix(0.85 0 0 1 446.8310547 291.6361084)" class="st18 st19">«DataType»</text>
<text transform="matrix(0.85 0 0 1 398.7373047 302.8939209)" class="st15 st19">uro::ReservoirFloodingRiskAttribute</text>
<line class="st20" x1="278.4973145" y1="275.1209106" x2="278.4973145" y2="254.1025238"/>
<line class="st20" x1="241.6749878" y1="254.1025238" x2="241.6749878" y2="217.3203888"/>
<polyline class="st21" points="246.1838379,229.3308868 237.1661072,229.3308868 241.6749878,217.3203888 246.1838379,229.3308868 
	"/>
<polygon class="st20" points="246.1838379,229.3308868 237.1661072,229.3308868 241.6749878,217.3203888 "/>
<line class="st20" x1="403.9938965" y1="137.0001678" x2="403.9938965" y2="109.2258759"/>
<line class="st20" x1="403.9938965" y1="109.2258759" x2="303.296051" y2="109.2258759"/>
<line class="st20" x1="303.296051" y1="109.2258759" x2="303.296051" y2="72.4437714"/>
<polyline class="st21" points="307.8049011,84.4542694 298.7872009,84.4542694 303.296051,72.4437714 307.8049011,84.4542694 "/>
<polygon class="st20" points="307.8049011,84.4542694 298.7872009,84.4542694 303.296051,72.4437714 "/>
<line class="st20" x1="365.6686096" y1="365.1996765" x2="365.6686096" y2="254.1025238"/>
<line class="st20" x1="194.3319702" y1="365.1996765" x2="194.3319702" y2="254.1025238"/>
<line class="st20" x1="95.1370773" y1="273.6195984" x2="95.1370773" y2="254.1025238"/>
<line class="st20" x1="95.1370773" y1="254.1025238" x2="241.6749878" y2="254.1025238"/>
<line class="st20" x1="240.1720276" y1="137.0001678" x2="240.1720276" y2="109.2258759"/>
<line class="st20" x1="240.1720276" y1="109.2258759" x2="303.296051" y2="109.2258759"/>
<line class="st20" x1="469.3723755" y1="278.1235352" x2="469.3723755" y2="254.1025238"/>
<line class="st20" x1="469.3723755" y1="254.1025238" x2="241.6749878" y2="254.1025238"/>
</svg>
