<?xml version="1.0" encoding="utf-8"?>
<!-- Generator: Adobe Illustrator 27.0.0, SVG Export Plug-In . SVG Version: 6.00 Build 0)  -->
<svg version="1.1" id="レイヤー_1" xmlns="http://www.w3.org/2000/svg" xmlns:xlink="http://www.w3.org/1999/xlink" x="0px"
	 y="0px" viewBox="0 0 433.276001 444.1100159" style="enable-background:new 0 0 433.276001 444.1100159;" xml:space="preserve">
<style type="text/css">
	.st0{fill-rule:evenodd;clip-rule:evenodd;fill:#FFCCFF;}
	.st1{fill:none;stroke:#000000;stroke-width:1.0285715;stroke-linecap:round;stroke-linejoin:bevel;stroke-miterlimit:10;}
	.st2{font-family:'YuGothicUI-Regular';}
	.st3{font-size:6.6857147px;}
	.st4{font-size:7.0386257px;}
	.st5{fill:none;stroke:#000000;stroke-width:0.1910204;stroke-miterlimit:10;}
	.st6{font-family:'YuGothicUI-Bold';}
	.st7{fill-rule:evenodd;clip-rule:evenodd;fill:#CCFFCC;}
	.st8{fill-rule:evenodd;clip-rule:evenodd;}
	.st9{fill-rule:evenodd;clip-rule:evenodd;fill:#FFFFFF;}
</style>
<polygon class="st0" points="64.9355469,236.3713989 239.1363525,236.3713989 239.1363525,7.514267 64.9355469,7.514267 "/>
<polygon class="st1" points="64.9355469,236.3713989 239.1363525,236.3713989 239.1363525,7.514267 64.9355469,7.514267 "/>
<text transform="matrix(0.85 0 0 1 130.4492188 17.796875)" class="st2 st3">«FeatureType»</text>
<text transform="matrix(0.85 0 -0.3126727 0.9498609 121.8168106 26.5457134)" class="st2 st4">u</text>
<text transform="matrix(0.85 0 -0.3126727 0.9498609 121.8168106 26.5457134)" class="st5 st2 st4">u</text>
<text transform="matrix(0.85 0 -0.3126727 0.9498609 125.8763809 26.5457134)" class="st2 st4">r</text>
<text transform="matrix(0.85 0 -0.3126727 0.9498609 125.8763809 26.5457134)" class="st5 st2 st4">r</text>
<text transform="matrix(0.85 0 -0.3126727 0.9498609 128.4095917 26.5457134)" class="st2 st4">f</text>
<text transform="matrix(0.85 0 -0.3126727 0.9498609 128.4095917 26.5457134)" class="st5 st2 st4">f</text>
<text transform="matrix(0.85 0 -0.3126727 0.9498609 130.4427948 26.5457134)" class="st2 st4">::</text>
<text transform="matrix(0.85 0 -0.3126727 0.9498609 130.4427948 26.5457134)" class="st5 st2 st4">::</text>
<text transform="matrix(0.85 0 -0.3126727 0.9498609 133.477951 26.5457134)" class="st2 st4">_</text>
<text transform="matrix(0.85 0 -0.3126727 0.9498609 133.477951 26.5457134)" class="st5 st2 st4">_</text>
<text transform="matrix(0.85 0 -0.3126727 0.9498609 136.0199432 26.5457134)" class="st2 st4">U</text>
<text transform="matrix(0.85 0 -0.3126727 0.9498609 136.0199432 26.5457134)" class="st5 st2 st4">U</text>
<text transform="matrix(0.85 0 -0.3126727 0.9498609 140.5883026 26.5457134)" class="st2 st4">r</text>
<text transform="matrix(0.85 0 -0.3126727 0.9498609 140.5883026 26.5457134)" class="st5 st2 st4">r</text>
<text transform="matrix(0.85 0 -0.3126727 0.9498609 143.1215057 26.5457134)" class="st2 st4">b</text>
<text transform="matrix(0.85 0 -0.3126727 0.9498609 143.1215057 26.5457134)" class="st5 st2 st4">b</text>
<text transform="matrix(0.85 0 -0.3126727 0.9498609 147.181076 26.5457134)" class="st2 st4">a</text>
<text transform="matrix(0.85 0 -0.3126727 0.9498609 147.181076 26.5457134)" class="st5 st2 st4">a</text>
<text transform="matrix(0.85 0 -0.3126727 0.9498609 150.7318573 26.5457134)" class="st2 st4">n</text>
<text transform="matrix(0.85 0 -0.3126727 0.9498609 150.7318573 26.5457134)" class="st5 st2 st4">n</text>
<text transform="matrix(0.85 0 -0.3126727 0.9498609 154.7924042 26.5457134)" class="st2 st4">F</text>
<text transform="matrix(0.85 0 -0.3126727 0.9498609 154.7924042 26.5457134)" class="st5 st2 st4">F</text>
<text transform="matrix(0.85 0 -0.3126727 0.9498609 158.3461151 26.5457134)" class="st2 st4">un</text>
<text transform="matrix(0.85 0 -0.3126727 0.9498609 158.3461151 26.5457134)" class="st5 st2 st4">un</text>
<text transform="matrix(0.85 0 -0.3126727 0.9498609 166.4652557 26.5457134)" class="st2 st4">c</text>
<text transform="matrix(0.85 0 -0.3126727 0.9498609 166.4652557 26.5457134)" class="st5 st2 st4">c</text>
<text transform="matrix(0.85 0 -0.3126727 0.9498609 169.5150604 26.5457134)" class="st2 st4">t</text>
<text transform="matrix(0.85 0 -0.3126727 0.9498609 169.5150604 26.5457134)" class="st5 st2 st4">t</text>
<text transform="matrix(0.85 0 -0.3126727 0.9498609 172.0502167 26.5457134)" class="st2 st4">i</text>
<text transform="matrix(0.85 0 -0.3126727 0.9498609 172.0502167 26.5457134)" class="st5 st2 st4">i</text>
<text transform="matrix(0.85 0 -0.3126727 0.9498609 173.5765839 26.5457134)" class="st2 st4">o</text>
<text transform="matrix(0.85 0 -0.3126727 0.9498609 173.5765839 26.5457134)" class="st5 st2 st4">o</text>
<text transform="matrix(0.85 0 -0.3126727 0.9498609 177.6361542 26.5457134)" class="st2 st4">n</text>
<text transform="matrix(0.85 0 -0.3126727 0.9498609 177.6361542 26.5457134)" class="st5 st2 st4">n</text>
<line class="st1" x1="64.9355469" y1="30.6570892" x2="238.628479" y2="30.6570892"/>
<text transform="matrix(0.85 0 0 1 67.4726562 39.921875)" class="st2 st3">+</text>
<text transform="matrix(0.85 0 0 1 72.0419922 39.921875)" class="st2 st3"> </text>
<text transform="matrix(0.85 0 0 1 78.6445312 39.921875)" class="st2 st3">class: gml::CodeType [0..1]</text>
<text transform="matrix(0.85 0 0 1 67.4726562 48.65625)" class="st2 st3">+</text>
<text transform="matrix(0.85 0 0 1 72.0419922 48.65625)" class="st2 st3"> </text>
<text transform="matrix(0.85 0 0 1 78.6445312 48.65625)" class="st2 st3">function: gml::CodeType [0..*]</text>
<text transform="matrix(0.85 0 0 1 67.4726562 57.3984375)" class="st2 st3">+</text>
<text transform="matrix(0.85 0 0 1 72.0419922 57.3984375)" class="st2 st3"> </text>
<text transform="matrix(0.85 0 0 1 78.6445312 57.3984375)" class="st2 st3">usage: gml::CodeType [0..*]</text>
<text transform="matrix(0.85 0 0 1 67.4726562 66.140625)" class="st2 st3">+</text>
<text transform="matrix(0.85 0 0 1 72.0419922 66.140625)" class="st2 st3"> </text>
<text transform="matrix(0.85 0 0 1 78.6445312 66.140625)" class="st2 st3">validFrom: xs::date [0..1]</text>
<text transform="matrix(0.85 0 0 1 67.4726562 74.875)" class="st2 st3">+</text>
<text transform="matrix(0.85 0 0 1 72.0419922 74.875)" class="st2 st3"> </text>
<text transform="matrix(0.85 0 0 1 78.6445312 74.875)" class="st2 st3">validFromType: gml::CodeType [0..1]</text>
<text transform="matrix(0.85 0 0 1 67.4726562 83.625)" class="st2 st3">+</text>
<text transform="matrix(0.85 0 0 1 72.0419922 83.625)" class="st2 st3"> </text>
<text transform="matrix(0.85 0 0 1 78.6445312 83.625)" class="st2 st3">enactmentFiscalYear: xs::gYear [0..1]</text>
<text transform="matrix(0.85 0 0 1 67.4726562 92.3671875)" class="st2 st3">+</text>
<text transform="matrix(0.85 0 0 1 72.0419922 92.3671875)" class="st2 st3"> </text>
<text transform="matrix(0.85 0 0 1 78.6445312 92.3671875)" class="st2 st3">validTo: xs::date [0..1]</text>
<text transform="matrix(0.85 0 0 1 67.4726562 101.109375)" class="st2 st3">+</text>
<text transform="matrix(0.85 0 0 1 72.0419922 101.109375)" class="st2 st3"> </text>
<text transform="matrix(0.85 0 0 1 78.6445312 101.109375)" class="st2 st3">validToType: gml::CodeType [0..1]</text>
<text transform="matrix(0.85 0 0 1 67.4726562 109.859375)" class="st2 st3">+</text>
<text transform="matrix(0.85 0 0 1 72.0419922 109.859375)" class="st2 st3"> </text>
<text transform="matrix(0.85 0 0 1 78.6445312 109.859375)" class="st2 st3">expirationFiscalYear: xs::gYear [0..1]</text>
<text transform="matrix(0.85 0 0 1 67.4726562 118.6015625)" class="st2 st3">+</text>
<text transform="matrix(0.85 0 0 1 72.0419922 118.6015625)" class="st2 st3"> </text>
<text transform="matrix(0.85 0 0 1 78.6445312 118.6015625)" class="st2 st3">legalGrounds: xs::string [0..1]</text>
<text transform="matrix(0.85 0 0 1 67.4726562 127.34375)" class="st2 st3">+</text>
<text transform="matrix(0.85 0 0 1 72.0419922 127.34375)" class="st2 st3"> </text>
<text transform="matrix(0.85 0 0 1 78.6445312 127.34375)" class="st2 st3">custodian: xs::string [0..1]</text>
<text transform="matrix(0.85 0 0 1 67.4726562 136.078125)" class="st2 st3">+</text>
<text transform="matrix(0.85 0 0 1 72.0419922 136.078125)" class="st2 st3"> </text>
<text transform="matrix(0.85 0 0 1 78.6445312 136.078125)" class="st2 st3">notificationNumber: xs::string [0..1]</text>
<text transform="matrix(0.85 0 0 1 67.4726562 144.828125)" class="st2 st3">+</text>
<text transform="matrix(0.85 0 0 1 72.0419922 144.828125)" class="st2 st3"> </text>
<text transform="matrix(0.85 0 0 1 78.6445312 144.828125)" class="st2 st3">finalNotificationNumber: xs::string [0..1]</text>
<text transform="matrix(0.85 0 0 1 67.4726562 153.5703125)" class="st2 st3">+</text>
<text transform="matrix(0.85 0 0 1 72.0419922 153.5703125)" class="st2 st3"> </text>
<text transform="matrix(0.85 0 0 1 78.6445312 153.5703125)" class="st2 st3">finalNotificationDate: xs::date [0..1]</text>
<text transform="matrix(0.85 0 0 1 67.4726562 162.3125)" class="st2 st3">+</text>
<text transform="matrix(0.85 0 0 1 72.0419922 162.3125)" class="st2 st3"> </text>
<text transform="matrix(0.85 0 0 1 78.6445312 162.3125)" class="st2 st3">urbanPlanType: gml::CodeType [0..1]</text>
<text transform="matrix(0.85 0 0 1 67.4726562 171.046875)" class="st2 st3">+</text>
<text transform="matrix(0.85 0 0 1 72.0419922 171.046875)" class="st2 st3"> </text>
<text transform="matrix(0.85 0 0 1 78.6445312 171.046875)" class="st2 st3">areaClassificationType: gml::CodeType [0..1]</text>
<text transform="matrix(0.85 0 0 1 67.4726562 179.796875)" class="st2 st3">+</text>
<text transform="matrix(0.85 0 0 1 72.0419922 179.796875)" class="st2 st3"> </text>
<text transform="matrix(0.85 0 0 1 78.6445312 179.796875)" class="st2 st3">nominalArea: gml::MeasureType [0..1]</text>
<text transform="matrix(0.85 0 0 1 67.4726562 188.5390625)" class="st2 st3">+</text>
<text transform="matrix(0.85 0 0 1 72.0419922 188.5390625)" class="st2 st3"> </text>
<text transform="matrix(0.85 0 0 1 78.6445312 188.5390625)" class="st2 st3">prefecture: gml::CodeType [0..1]</text>
<text transform="matrix(0.85 0 0 1 67.4726562 197.28125)" class="st2 st3">+</text>
<text transform="matrix(0.85 0 0 1 72.0419922 197.28125)" class="st2 st3"> </text>
<text transform="matrix(0.85 0 0 1 78.6445312 197.28125)" class="st2 st3">city: gml::CodeType [0..1]</text>
<text transform="matrix(0.85 0 0 1 67.4726562 206.03125)" class="st2 st3">+</text>
<text transform="matrix(0.85 0 0 1 72.0419922 206.03125)" class="st2 st3"> </text>
<text transform="matrix(0.85 0 0 1 78.6445312 206.03125)" class="st2 st3">reference: xs::anyURI [0..1]</text>
<text transform="matrix(0.85 0 0 1 67.4726562 214.7734375)" class="st2 st3">+</text>
<text transform="matrix(0.85 0 0 1 72.0419922 214.7734375)" class="st2 st3"> </text>
<text transform="matrix(0.85 0 0 1 78.6445312 214.7734375)" class="st2 st3">reason: gml:StringOrRefType [0..1]</text>
<text transform="matrix(0.85 0 0 1 67.4726562 223.515625)" class="st2 st3">+</text>
<text transform="matrix(0.85 0 0 1 72.0419922 223.515625)" class="st2 st3"> </text>
<text transform="matrix(0.85 0 0 1 78.6445312 223.515625)" class="st2 st3">note: gml:StringOrRefType [0..1]</text>
<text transform="matrix(0.85 0 0 1 67.4726562 232.25)" class="st2 st3">+</text>
<text transform="matrix(0.85 0 0 1 72.0419922 232.25)" class="st2 st3"> </text>
<text transform="matrix(0.85 0 0 1 78.6445312 232.25)" class="st2 st3">surveyYear: xs::gYear [0..1]</text>
<polygon class="st0" points="303.6363525,274.9428711 427.5576172,274.9428711 427.5576172,197.7999878 303.6363525,197.7999878 "/>
<polygon class="st1" points="303.6363525,274.9428711 427.5576172,274.9428711 427.5576172,197.7999878 303.6363525,197.7999878 "/>
<text transform="matrix(0.85 0 0 1 343.7539062 208.078125)" class="st2 st3">«FeatureType»</text>
<text transform="matrix(0.85 0 0 1 316.8398438 216.828125)" class="st6 st3">urf::SedimentDisasterProneArea</text>
<line class="st1" x1="303.6363525" y1="220.9428101" x2="427.0497437" y2="220.9428101"/>
<text transform="matrix(0.85 0 0 1 306.1757812 230.203125)" class="st2 st3">+</text>
<text transform="matrix(0.85 0 0 1 310.7451172 230.203125)" class="st2 st3"> </text>
<text transform="matrix(0.85 0 0 1 317.3476562 230.203125)" class="st2 st3">disasterType: gml::CodeType</text>
<text transform="matrix(0.85 0 0 1 306.1757812 238.9375)" class="st2 st3">+</text>
<text transform="matrix(0.85 0 0 1 310.7451172 238.9375)" class="st2 st3"> </text>
<text transform="matrix(0.85 0 0 1 317.3476562 238.9375)" class="st2 st3">areaType: gml::CodeType</text>
<text transform="matrix(0.85 0 0 1 306.1757812 247.6796875)" class="st2 st3">+</text>
<text transform="matrix(0.85 0 0 1 310.7451172 247.6796875)" class="st2 st3"> </text>
<text transform="matrix(0.85 0 0 1 317.3476562 247.6796875)" class="st2 st3">zoneNumber: xs::string</text>
<text transform="matrix(0.85 0 0 1 306.1757812 256.421875)" class="st2 st3">+</text>
<text transform="matrix(0.85 0 0 1 310.7451172 256.421875)" class="st2 st3"> </text>
<text transform="matrix(0.85 0 0 1 317.3476562 256.421875)" class="st2 st3">zoneName: xs::string</text>
<text transform="matrix(0.85 0 0 1 306.1757812 265.171875)" class="st2 st3">+</text>
<text transform="matrix(0.85 0 0 1 310.7451172 265.171875)" class="st2 st3"> </text>
<text transform="matrix(0.85 0 0 1 317.3476562 265.171875)" class="st2 st3">status: gml::CodeType [0..1]</text>
<polygon class="st7" points="313.7938538,120.6571655 410.289917,120.6571655 410.289917,79.5142822 313.7938538,79.5142822 "/>
<polygon class="st1" points="313.7938538,120.6571655 410.289917,120.6571655 410.289917,79.5142822 313.7938538,79.5142822 "/>
<text transform="matrix(0.85 0 0 1 351.3789062 89.796875)" class="st2 st3">«Type»</text>
<text transform="matrix(0.85 0 0 1 335.6289062 98.5390625)" class="st6 st3">gml::MultiSurface</text>
<polygon class="st0" points="323.9513245,172.0856934 407.2426758,172.0856934 407.2426758,130.9428101 323.9513245,130.9428101 "/>
<polygon class="st1" points="323.9513245,172.0856934 407.2426758,172.0856934 407.2426758,130.9428101 323.9513245,130.9428101 "/>
<text transform="matrix(0.85 0 0 1 343.7539062 141.2265625)" class="st2 st3">«FeatureType»</text>
<text transform="matrix(0.85 0 0 1 351.8789062 149.96875)" class="st6 st3">urf::Zone</text>
<line class="st1" x1="323.9513245" y1="154.0856934" x2="406.7348022" y2="154.0856934"/>
<text transform="matrix(0.85 0 0 1 326.4882812 163.3359375)" class="st2 st3">+</text>
<text transform="matrix(0.85 0 0 1 331.0576172 163.3359375)" class="st2 st3"> </text>
<text transform="matrix(0.85 0 0 1 337.6601562 163.3359375)" class="st2 st3">location: xs::string [0..1]</text>
<polygon class="st0" points="5.5142822,438.4857178 157.8764954,438.4857178 157.8764954,288.31427 5.5142822,288.31427 "/>
<polygon class="st1" points="5.5142822,438.4857178 157.8764954,438.4857178 157.8764954,288.31427 5.5142822,288.31427 "/>
<text transform="matrix(0.85 0 0 1 63.9179688 298.6015625)" class="st2 st3">«DataType»</text>
<text transform="matrix(0.85 0 0 1 42.5820312 307.34375)" class="st6 st3">uro::DataQualityAttribute</text>
<line class="st1" x1="5.5142822" y1="311.4571533" x2="157.3686218" y2="311.4571533"/>
<text transform="matrix(0.85 0 0 1 8.0507812 320.7109375)" class="st2 st3">+</text>
<text transform="matrix(0.85 0 0 1 12.6201172 320.7109375)" class="st2 st3"> </text>
<text transform="matrix(0.85 0 0 1 19.2226562 320.7109375)" class="st2 st3">geometrySrcDescLod0: gml::CodeType [0..*]</text>
<text transform="matrix(0.85 0 0 1 8.0507812 329.453125)" class="st2 st3">+</text>
<text transform="matrix(0.85 0 0 1 12.6201172 329.453125)" class="st2 st3"> </text>
<text transform="matrix(0.85 0 0 1 19.2226562 329.453125)" class="st2 st3">geometrySrcDescLod1: gml::CodeType [1..*]</text>
<text transform="matrix(0.85 0 0 1 8.0507812 338.203125)" class="st2 st3">+</text>
<text transform="matrix(0.85 0 0 1 12.6201172 338.203125)" class="st2 st3"> </text>
<text transform="matrix(0.85 0 0 1 19.2226562 338.203125)" class="st2 st3">geometrySrcDescLod2: gml::CodeType [0..*]</text>
<text transform="matrix(0.85 0 0 1 8.0507812 346.9375)" class="st2 st3">+</text>
<text transform="matrix(0.85 0 0 1 12.6201172 346.9375)" class="st2 st3"> </text>
<text transform="matrix(0.85 0 0 1 19.2226562 346.9375)" class="st2 st3">geometrySrcDescLod3: gml::CodeType [0..*]</text>
<text transform="matrix(0.85 0 0 1 8.0507812 355.6796875)" class="st2 st3">+</text>
<text transform="matrix(0.85 0 0 1 12.6201172 355.6796875)" class="st2 st3"> </text>
<text transform="matrix(0.85 0 0 1 19.2226562 355.6796875)" class="st2 st3">geometrySrcDescLod4: gml::CodeType [0..*]</text>
<text transform="matrix(0.85 0 0 1 8.0507812 364.4296875)" class="st2 st3">+</text>
<text transform="matrix(0.85 0 0 1 12.6201172 364.4296875)" class="st2 st3"> </text>
<text transform="matrix(0.85 0 0 1 19.2226562 364.4296875)" class="st2 st3">thematicSrcDesc: gml::CodeType [0..*]</text>
<text transform="matrix(0.85 0 0 1 8.0507812 373.171875)" class="st2 st3">+</text>
<text transform="matrix(0.85 0 0 1 12.6201172 373.171875)" class="st2 st3"> </text>
<text transform="matrix(0.85 0 0 1 19.2226562 373.171875)" class="st2 st3">appearanceSrcDescLod0: gml::CodeType [0..*]</text>
<text transform="matrix(0.85 0 0 1 8.0507812 381.90625)" class="st2 st3">+</text>
<text transform="matrix(0.85 0 0 1 12.6201172 381.90625)" class="st2 st3"> </text>
<text transform="matrix(0.85 0 0 1 19.2226562 381.90625)" class="st2 st3">appearanceSrcDescLod1: gml::CodeType [0..*]</text>
<text transform="matrix(0.85 0 0 1 8.0507812 390.65625)" class="st2 st3">+</text>
<text transform="matrix(0.85 0 0 1 12.6201172 390.65625)" class="st2 st3"> </text>
<text transform="matrix(0.85 0 0 1 19.2226562 390.65625)" class="st2 st3">appearanceSrcDescLod2: gml::CodeType [0..*]</text>
<text transform="matrix(0.85 0 0 1 8.0507812 399.3984375)" class="st2 st3">+</text>
<text transform="matrix(0.85 0 0 1 12.6201172 399.3984375)" class="st2 st3"> </text>
<text transform="matrix(0.85 0 0 1 19.2226562 399.3984375)" class="st2 st3">appearanceSrcDescLod3: gml::CodeType [0..*]</text>
<text transform="matrix(0.85 0 0 1 8.0507812 408.140625)" class="st2 st3">+</text>
<text transform="matrix(0.85 0 0 1 12.6201172 408.140625)" class="st2 st3"> </text>
<text transform="matrix(0.85 0 0 1 19.2226562 408.140625)" class="st2 st3">appearanceSrcDescLod4: gml::CodeType [0..*]</text>
<text transform="matrix(0.85 0 0 1 8.0507812 416.8828125)" class="st2 st3">+</text>
<text transform="matrix(0.85 0 0 1 12.6201172 416.8828125)" class="st2 st3"> </text>
<text transform="matrix(0.85 0 0 1 19.2226562 416.8828125)" class="st2 st3">lodType: gml::CodeType [0..*]</text>
<text transform="matrix(0.85 0 0 1 8.0507812 425.625)" class="st2 st3">+</text>
<text transform="matrix(0.85 0 0 1 12.6201172 425.625)" class="st2 st3"> </text>
<text transform="matrix(0.85 0 0 1 19.2226562 425.625)" class="st2 st3">lod1HeightType: gml::CodeType [0..1]</text>
<text transform="matrix(0.85 0 0 1 8.0507812 434.375)" class="st2 st3">+</text>
<text transform="matrix(0.85 0 0 1 12.6201172 434.375)" class="st2 st3"> </text>
<text transform="matrix(0.85 0 0 1 19.2226562 434.375)" class="st2 st3">tranDataAcquisition: xs::string [0..1]</text>
<polygon class="st0" points="167.0182495,340.2571411 308.2072144,340.2571411 308.2072144,288.31427 167.0182495,288.31427 "/>
<polygon class="st1" points="167.0182495,340.2571411 308.2072144,340.2571411 308.2072144,288.31427 167.0182495,288.31427 "/>
<text transform="matrix(0.85 0 0 1 219.8320312 298.6015625)" class="st2 st3">«DataType»</text>
<text transform="matrix(0.85 0 0 1 196.9804688 307.34375)" class="st6 st3">uro::KeyValuePairAttribute</text>
<line class="st1" x1="167.0182495" y1="311.4571533" x2="307.6993408" y2="311.4571533"/>
<text transform="matrix(0.85 0 0 1 169.5585938 320.7109375)" class="st2 st3">+</text>
<text transform="matrix(0.85 0 0 1 174.1279297 320.7109375)" class="st2 st3"> </text>
<text transform="matrix(0.85 0 0 1 180.7304688 320.7109375)" class="st2 st3">key: gml::CodeType</text>
<text transform="matrix(0.85 0 0 1 169.5585938 329.453125)" class="st2 st3">+</text>
<text transform="matrix(0.85 0 0 1 174.1279297 329.453125)" class="st2 st3"> </text>
<text transform="matrix(0.85 0 0 1 180.7304688 329.453125)" class="st2 st3">codeValue: gml::CodeType [0..1]</text>
<line class="st1" x1="83.7268829" y1="287.7999878" x2="83.7268829" y2="236.8856812"/>
<polyline class="st8" points="86.2662506,242.0285645 83.7268829,236.8856812 81.1875153,242.0285645 83.7268829,247.1714478 
	86.2662506,242.0285645 "/>
<polygon class="st1" points="86.2662506,242.0285645 83.7268829,236.8856812 81.1875153,242.0285645 83.7268829,247.1714478 "/>
<polyline class="st1" points="86.7741241,280.0857544 83.7268829,287.7999878 80.6796417,280.0857544 "/>
<line class="st1" x1="323.4434509" y1="148.4285278" x2="239.6442261" y2="147.9142456"/>
<polyline class="st9" points="247.7702026,144.8285522 247.7702026,151 239.6442261,147.9142456 247.7702026,144.8285522 "/>
<polygon class="st1" points="247.7702026,144.8285522 247.7702026,151 239.6442261,147.9142456 "/>
<line class="st1" x1="365.5969849" y1="197.2857056" x2="365.5969849" y2="172.5999756"/>
<polyline class="st9" points="368.6442261,180.8285522 362.5497437,180.8285522 365.5969849,172.5999756 368.6442261,180.8285522 
	"/>
<polygon class="st1" points="368.6442261,180.8285522 362.5497437,180.8285522 365.5969849,172.5999756 "/>
<line class="st1" x1="239.6442261" y1="91.8571167" x2="313.2859802" y2="91.8571167"/>
<polyline class="st1" points="305.6678467,94.9428101 313.2859802,91.8571167 305.6678467,88.7714233 "/>
<line class="st1" x1="183.7780762" y1="287.7999878" x2="183.7780762" y2="236.8856812"/>
<polyline class="st8" points="186.3174438,242.0285645 183.7780762,236.8856812 181.2387085,242.0285645 183.7780762,247.1714478 
	186.3174438,242.0285645 "/>
<polygon class="st1" points="186.3174438,242.0285645 183.7780762,236.8856812 181.2387085,242.0285645 183.7780762,247.1714478 "/>
<polyline class="st1" points="186.8253174,280.0857544 183.7780762,287.7999878 180.730835,280.0857544 "/>
<text transform="matrix(0.85 0 0 1 245.2304688 84.65625)" class="st2 st3">+lod1MultiSurface</text>
<text transform="matrix(0.85 0 0 1 289.4101562 102.140625)" class="st2 st3">0..1</text>
<text transform="matrix(0.85 0 0 1 10.0820312 282.140625)" class="st2 st3">+dataQualityAttribute</text>
<text transform="matrix(0.85 0 0 1 95.4101562 283.6875)" class="st2 st3">0..1</text>
<text transform="matrix(0.85 0 0 1 199.0117188 283.6875)" class="st2 st3">+keyValuePairAttribute</text>
<text transform="matrix(0.85 0 0 1 168.0351562 284.7109375)" class="st2 st3">0..1</text>
</svg>
