<?xml version="1.0" encoding="utf-8"?>
<!-- Generator: Adobe Illustrator 27.9.1, SVG Export Plug-In . SVG Version: 6.00 Build 0)  -->
<svg version="1.1" id="レイヤー_1" xmlns="http://www.w3.org/2000/svg" xmlns:xlink="http://www.w3.org/1999/xlink" x="0px"
	 y="0px" viewBox="0 0 611.2 448.1" style="enable-background:new 0 0 611.2 448.1;" xml:space="preserve">
<style type="text/css">
	.st0{fill-rule:evenodd;clip-rule:evenodd;fill:#FFCCFF;}
	.st1{fill:none;stroke:#000000;stroke-width:1.0286;stroke-linecap:round;stroke-linejoin:bevel;stroke-miterlimit:10;}
	.st2{font-family:'YuGothicUI-Regular';}
	.st3{font-size:5.1429px;}
	.st4{font-family:'YuGothicUI-Bold';}
	.st5{fill-rule:evenodd;clip-rule:evenodd;fill:#FFFFCC;}
	.st6{font-size:5.4145px;}
	.st7{fill:none;stroke:#000000;stroke-width:0.1469;stroke-miterlimit:10;}
	.st8{font-size:6.6857px;}
	.st9{fill-rule:evenodd;clip-rule:evenodd;fill:#CCFFCC;}
	.st10{font-size:7.0389px;}
	.st11{fill-rule:evenodd;clip-rule:evenodd;fill:#FFFFFF;}
	.st12{fill-rule:evenodd;clip-rule:evenodd;}
</style>
<polygon class="st0" points="148,155.6 198.8,155.6 198.8,129.9 148,129.9 "/>
<polygon class="st1" points="148,155.6 198.8,155.6 198.8,129.9 148,129.9 "/>
<text transform="matrix(0.85 0 0 1 157.1909 138.1553)" class="st2 st3">«FeatureType»</text>
<text transform="matrix(0.85 0 0 1 163.2842 144.3271)" class="st4 st3">urf::Zone</text>
<polygon class="st0" points="47,160.3 97.8,160.3 97.8,129.9 47,129.9 "/>
<polygon class="st1" points="47,160.3 97.8,160.3 97.8,129.9 47,129.9 "/>
<text transform="matrix(0.85 0 0 1 59.1748 138.1553)" class="st2 st3">«DataType»</text>
<text transform="matrix(0.85 0 0 1 56.6284 144.3271)" class="st4 st3">urf::Boundary</text>
<polygon class="st0" points="249.6,160.8 327.3,160.8 327.3,129.9 249.6,129.9 "/>
<polygon class="st1" points="249.6,160.8 327.3,160.8 327.3,129.9 249.6,129.9 "/>
<text transform="matrix(0.85 0 0 1 272.4795 138.1553)" class="st2 st3">«FeatureType»</text>
<text transform="matrix(0.85 0 0 1 255.7139 144.3271)" class="st4 st3">urf::ThreeDimensionalExtent</text>
<polygon class="st5" points="168.9,42.5 234.4,42.5 234.4,11.6 168.9,11.6 "/>
<polygon class="st1" points="168.9,42.5 234.4,42.5 234.4,11.6 168.9,11.6 "/>
<text transform="matrix(0.85 0 -0.3127 0.9499 214.5874 18.3243)" class="st2 st6">_Feature</text>
<text transform="matrix(0.85 0 0 1 185.6284 27.585)" class="st2 st3">«FeatureType»</text>
<text transform="matrix(0.85 0 -0.3127 0.9499 182.0844 33.7595)" class="st2 st6">c</text>
<text transform="matrix(0.85 0 -0.3127 0.9499 182.0844 33.7595)" class="st7 st2 st6">c</text>
<text transform="matrix(0.85 0 -0.3127 0.9499 184.6235 33.7595)" class="st2 st6">o</text>
<text transform="matrix(0.85 0 -0.3127 0.9499 184.6235 33.7595)" class="st7 st2 st6">o</text>
<text transform="matrix(0.85 0 -0.3127 0.9499 187.6703 33.7595)" class="st2 st6">r</text>
<text transform="matrix(0.85 0 -0.3127 0.9499 187.6703 33.7595)" class="st7 st2 st6">r</text>
<text transform="matrix(0.85 0 -0.3127 0.9499 189.6996 33.7595)" class="st2 st6">e</text>
<text transform="matrix(0.85 0 -0.3127 0.9499 189.6996 33.7595)" class="st7 st2 st6">e</text>
<text transform="matrix(0.85 0 -0.3127 0.9499 192.2446 33.7595)" class="st2 st6">::</text>
<text transform="matrix(0.85 0 -0.3127 0.9499 192.2446 33.7595)" class="st7 st2 st6">::</text>
<text transform="matrix(0.85 0 -0.3127 0.9499 194.2836 33.7595)" class="st2 st6">_</text>
<text transform="matrix(0.85 0 -0.3127 0.9499 194.2836 33.7595)" class="st7 st2 st6">_</text>
<text transform="matrix(0.85 0 -0.3127 0.9499 196.3159 33.7595)" class="st2 st6">C</text>
<text transform="matrix(0.85 0 -0.3127 0.9499 196.3159 33.7595)" class="st7 st2 st6">C</text>
<text transform="matrix(0.85 0 -0.3127 0.9499 199.3637 33.7595)" class="st2 st6">i</text>
<text transform="matrix(0.85 0 -0.3127 0.9499 199.3637 33.7595)" class="st7 st2 st6">i</text>
<text transform="matrix(0.85 0 -0.3127 0.9499 200.8832 33.7595)" class="st2 st6">t</text>
<text transform="matrix(0.85 0 -0.3127 0.9499 200.8832 33.7595)" class="st7 st2 st6">t</text>
<text transform="matrix(0.85 0 -0.3127 0.9499 202.9125 33.7595)" class="st2 st6">y</text>
<text transform="matrix(0.85 0 -0.3127 0.9499 202.9125 33.7595)" class="st7 st2 st6">y</text>
<text transform="matrix(0.85 0 -0.3127 0.9499 205.4516 33.7595)" class="st2 st6">O</text>
<text transform="matrix(0.85 0 -0.3127 0.9499 205.4516 33.7595)" class="st7 st2 st6">O</text>
<text transform="matrix(0.85 0 -0.3127 0.9499 209.5141 33.7595)" class="st2 st6">b</text>
<text transform="matrix(0.85 0 -0.3127 0.9499 209.5141 33.7595)" class="st7 st2 st6">b</text>
<text transform="matrix(0.85 0 -0.3127 0.9499 212.561 33.7595)" class="st2 st6">j</text>
<text transform="matrix(0.85 0 -0.3127 0.9499 212.561 33.7595)" class="st7 st2 st6">j</text>
<text transform="matrix(0.85 0 -0.3127 0.9499 214.0805 33.7595)" class="st2 st6">e</text>
<text transform="matrix(0.85 0 -0.3127 0.9499 214.0805 33.7595)" class="st7 st2 st6">e</text>
<text transform="matrix(0.85 0 -0.3127 0.9499 216.6245 33.7595)" class="st2 st6">c</text>
<text transform="matrix(0.85 0 -0.3127 0.9499 216.6245 33.7595)" class="st7 st2 st6">c</text>
<text transform="matrix(0.85 0 -0.3127 0.9499 219.1635 33.7595)" class="st2 st6">t</text>
<text transform="matrix(0.85 0 -0.3127 0.9499 219.1635 33.7595)" class="st7 st2 st6">t</text>
<polygon class="st0" points="26.2,340.8 87.1,340.8 87.1,315.1 26.2,315.1 "/>
<polygon class="st1" points="26.2,340.8 87.1,340.8 87.1,315.1 26.2,315.1 "/>
<text transform="matrix(0.85 0 0 1 40.3784 323.2959)" class="st2 st3">«FeatureType»</text>
<text transform="matrix(0.85 0 0 1 29.2065 329.4673)" class="st4 st3">urf::UrbanPlanningArea</text>
<polygon class="st0" points="51.5,299.6 128.2,299.6 128.2,273.9 51.5,273.9 "/>
<polygon class="st1" points="51.5,299.6 128.2,299.6 128.2,273.9 51.5,273.9 "/>
<text transform="matrix(0.85 0 0 1 73.8936 282.1548)" class="st2 st3">«FeatureType»</text>
<text transform="matrix(0.85 0 0 1 56.1284 288.3271)" class="st4 st3">urf::QuasiUrbanPlanningArea</text>
<polygon class="st0" points="107.4,263.6 168.4,263.6 168.4,237.9 107.4,237.9 "/>
<polygon class="st1" points="107.4,263.6 168.4,263.6 168.4,237.9 107.4,237.9 "/>
<text transform="matrix(0.85 0 0 1 121.6362 246.1553)" class="st2 st3">«FeatureType»</text>
<text transform="matrix(0.85 0 0 1 113.0034 252.3271)" class="st4 st3">urf::AreaClassification</text>
<polygon class="st0" points="254.7,351.1 336,351.1 336,325.4 254.7,325.4 "/>
<polygon class="st1" points="254.7,351.1 336,351.1 336,325.4 254.7,325.4 "/>
<text transform="matrix(0.85 0 0 1 279.0811 333.5923)" class="st2 st3">«FeatureType»</text>
<text transform="matrix(0.85 0 0 1 259.7764 339.7646)" class="st4 st3">urf::UrbanDevelopmentProject</text>
<polygon class="st0" points="259.8,381.9 381.7,381.9 381.7,356.2 259.8,356.2 "/>
<polygon class="st1" points="259.8,381.9 381.7,381.9 381.7,356.2 259.8,356.2 "/>
<text transform="matrix(0.85 0 0 1 304.4717 364.4521)" class="st2 st3">«FeatureType»</text>
<text transform="matrix(0.85 0 0 1 264.3545 370.6084)" class="st4 st3">urf::ScheduledAreaForUrbanDevelopmentProject</text>
<polygon class="st0" points="178.5,268.8 249.6,268.8 249.6,243.1 178.5,243.1 "/>
<polygon class="st1" points="178.5,268.8 249.6,268.8 249.6,243.1 178.5,243.1 "/>
<text transform="matrix(0.85 0 0 1 197.8159 251.3037)" class="st2 st3">«FeatureType»</text>
<text transform="matrix(0.85 0 0 1 183.0889 257.4751)" class="st4 st3">urf::ProjectPromotionArea</text>
<polygon class="st0" points="137.9,227.6 203.9,227.6 203.9,201.9 137.9,201.9 "/>
<polygon class="st1" points="137.9,227.6 203.9,227.6 203.9,201.9 137.9,201.9 "/>
<text transform="matrix(0.85 0 0 1 154.6514 210.1553)" class="st2 st3">«FeatureType»</text>
<text transform="matrix(0.85 0 0 1 145.0034 216.3271)" class="st4 st3">urf::DistrictsAndZones</text>
<polygon class="st0" points="533,286.3 583.8,286.3 583.8,260.6 533,260.6 "/>
<polygon class="st1" points="533,286.3 583.8,286.3 583.8,260.6 533,260.6 "/>
<text transform="matrix(0.85 0 0 1 542.1592 268.7798)" class="st2 st3">«FeatureType»</text>
<text transform="matrix(0.85 0 0 1 538.6045 274.9521)" class="st4 st3">urf::UrbanFacility</text>
<polygon class="st0" points="396.9,248.2 468,248.2 468,222.5 396.9,222.5 "/>
<polygon class="st1" points="396.9,248.2 468,248.2 468,222.5 396.9,222.5 "/>
<text transform="matrix(0.85 0 0 1 416.2061 230.7251)" class="st2 st3">«FeatureType»</text>
<text transform="matrix(0.85 0 -0.3127 0.9499 403.5107 236.9036)" class="st2 st6">u</text>
<text transform="matrix(0.85 0 -0.3127 0.9499 403.5107 236.9036)" class="st7 st2 st6">u</text>
<text transform="matrix(0.85 0 -0.3127 0.9499 406.5576 236.9036)" class="st2 st6">r</text>
<text transform="matrix(0.85 0 -0.3127 0.9499 406.5576 236.9036)" class="st7 st2 st6">r</text>
<text transform="matrix(0.85 0 -0.3127 0.9499 408.5879 236.9036)" class="st2 st6">f</text>
<text transform="matrix(0.85 0 -0.3127 0.9499 408.5879 236.9036)" class="st7 st2 st6">f</text>
<text transform="matrix(0.85 0 -0.3127 0.9499 410.1162 236.9036)" class="st2 st6">::</text>
<text transform="matrix(0.85 0 -0.3127 0.9499 410.1162 236.9036)" class="st7 st2 st6">::</text>
<text transform="matrix(0.85 0 -0.3127 0.9499 412.1562 236.9036)" class="st2 st6">_</text>
<text transform="matrix(0.85 0 -0.3127 0.9499 412.1562 236.9036)" class="st7 st2 st6">_</text>
<text transform="matrix(0.85 0 -0.3127 0.9499 414.1875 236.9036)" class="st2 st6">A</text>
<text transform="matrix(0.85 0 -0.3127 0.9499 414.1875 236.9036)" class="st7 st2 st6">A</text>
<text transform="matrix(0.85 0 -0.3127 0.9499 417.7383 236.9036)" class="st2 st6">b</text>
<text transform="matrix(0.85 0 -0.3127 0.9499 417.7383 236.9036)" class="st7 st2 st6">b</text>
<text transform="matrix(0.85 0 -0.3127 0.9499 420.7841 236.9036)" class="st2 st6">s</text>
<text transform="matrix(0.85 0 -0.3127 0.9499 420.7841 236.9036)" class="st7 st2 st6">s</text>
<text transform="matrix(0.85 0 -0.3127 0.9499 422.8164 236.9036)" class="st2 st6">t</text>
<text transform="matrix(0.85 0 -0.3127 0.9499 422.8164 236.9036)" class="st7 st2 st6">t</text>
<text transform="matrix(0.85 0 -0.3127 0.9499 424.8476 236.9036)" class="st2 st6">r</text>
<text transform="matrix(0.85 0 -0.3127 0.9499 424.8476 236.9036)" class="st7 st2 st6">r</text>
<text transform="matrix(0.85 0 -0.3127 0.9499 426.8779 236.9036)" class="st2 st6">a</text>
<text transform="matrix(0.85 0 -0.3127 0.9499 426.8779 236.9036)" class="st7 st2 st6">a</text>
<text transform="matrix(0.85 0 -0.3127 0.9499 429.4199 236.9036)" class="st2 st6">c</text>
<text transform="matrix(0.85 0 -0.3127 0.9499 429.4199 236.9036)" class="st7 st2 st6">c</text>
<text transform="matrix(0.85 0 -0.3127 0.9499 431.9599 236.9036)" class="st2 st6">t</text>
<text transform="matrix(0.85 0 -0.3127 0.9499 431.9599 236.9036)" class="st7 st2 st6">t</text>
<text transform="matrix(0.85 0 -0.3127 0.9499 433.9912 236.9036)" class="st2 st6">D</text>
<text transform="matrix(0.85 0 -0.3127 0.9499 433.9912 236.9036)" class="st7 st2 st6">D</text>
<text transform="matrix(0.85 0 -0.3127 0.9499 437.5468 236.9036)" class="st2 st6">i</text>
<text transform="matrix(0.85 0 -0.3127 0.9499 437.5468 236.9036)" class="st7 st2 st6">i</text>
<text transform="matrix(0.85 0 -0.3127 0.9499 439.0664 236.9036)" class="st2 st6">s</text>
<text transform="matrix(0.85 0 -0.3127 0.9499 439.0664 236.9036)" class="st7 st2 st6">s</text>
<text transform="matrix(0.85 0 -0.3127 0.9499 441.0996 236.9036)" class="st2 st6">t</text>
<text transform="matrix(0.85 0 -0.3127 0.9499 441.0996 236.9036)" class="st7 st2 st6">t</text>
<text transform="matrix(0.85 0 -0.3127 0.9499 443.1289 236.9036)" class="st2 st6">r</text>
<text transform="matrix(0.85 0 -0.3127 0.9499 443.1289 236.9036)" class="st7 st2 st6">r</text>
<text transform="matrix(0.85 0 -0.3127 0.9499 445.1591 236.9036)" class="st2 st6">i</text>
<text transform="matrix(0.85 0 -0.3127 0.9499 445.1591 236.9036)" class="st7 st2 st6">i</text>
<text transform="matrix(0.85 0 -0.3127 0.9499 446.6787 236.9036)" class="st2 st6">c</text>
<text transform="matrix(0.85 0 -0.3127 0.9499 446.6787 236.9036)" class="st7 st2 st6">c</text>
<text transform="matrix(0.85 0 -0.3127 0.9499 449.2168 236.9036)" class="st2 st6">t</text>
<text transform="matrix(0.85 0 -0.3127 0.9499 449.2168 236.9036)" class="st7 st2 st6">t</text>
<text transform="matrix(0.85 0 -0.3127 0.9499 451.249 236.9036)" class="st2 st6">P</text>
<text transform="matrix(0.85 0 -0.3127 0.9499 451.249 236.9036)" class="st7 st2 st6">P</text>
<text transform="matrix(0.85 0 -0.3127 0.9499 454.291 236.9036)" class="st2 st6">l</text>
<text transform="matrix(0.85 0 -0.3127 0.9499 454.291 236.9036)" class="st7 st2 st6">l</text>
<text transform="matrix(0.85 0 -0.3127 0.9499 455.8105 236.9036)" class="st2 st6">a</text>
<text transform="matrix(0.85 0 -0.3127 0.9499 455.8105 236.9036)" class="st7 st2 st6">a</text>
<text transform="matrix(0.85 0 -0.3127 0.9499 458.3535 236.9036)" class="st2 st6">n</text>
<text transform="matrix(0.85 0 -0.3127 0.9499 458.3535 236.9036)" class="st7 st2 st6">n</text>
<polygon class="st0" points="173.4,93.9 234.4,93.9 234.4,63.1 173.4,63.1 "/>
<polygon class="st1" points="173.4,93.9 234.4,93.9 234.4,63.1 173.4,63.1 "/>
<text transform="matrix(0.85 0 0 1 187.6592 71.3037)" class="st2 st3">«FeatureType»</text>
<text transform="matrix(0.85 0 -0.3127 0.9499 181.0638 77.4686)" class="st2 st6">u</text>
<text transform="matrix(0.85 0 -0.3127 0.9499 181.0638 77.4686)" class="st7 st2 st6">u</text>
<text transform="matrix(0.85 0 -0.3127 0.9499 184.1097 77.4686)" class="st2 st6">r</text>
<text transform="matrix(0.85 0 -0.3127 0.9499 184.1097 77.4686)" class="st7 st2 st6">r</text>
<text transform="matrix(0.85 0 -0.3127 0.9499 186.14 77.4686)" class="st2 st6">f</text>
<text transform="matrix(0.85 0 -0.3127 0.9499 186.14 77.4686)" class="st7 st2 st6">f</text>
<text transform="matrix(0.85 0 -0.3127 0.9499 187.6693 77.4686)" class="st2 st6">::</text>
<text transform="matrix(0.85 0 -0.3127 0.9499 187.6693 77.4686)" class="st7 st2 st6">::</text>
<text transform="matrix(0.85 0 -0.3127 0.9499 189.7084 77.4686)" class="st2 st6">_</text>
<text transform="matrix(0.85 0 -0.3127 0.9499 189.7084 77.4686)" class="st7 st2 st6">_</text>
<text transform="matrix(0.85 0 -0.3127 0.9499 191.7396 77.4686)" class="st2 st6">U</text>
<text transform="matrix(0.85 0 -0.3127 0.9499 191.7396 77.4686)" class="st7 st2 st6">U</text>
<text transform="matrix(0.85 0 -0.3127 0.9499 195.2904 77.4686)" class="st2 st6">r</text>
<text transform="matrix(0.85 0 -0.3127 0.9499 195.2904 77.4686)" class="st7 st2 st6">r</text>
<text transform="matrix(0.85 0 -0.3127 0.9499 197.3187 77.4686)" class="st2 st6">b</text>
<text transform="matrix(0.85 0 -0.3127 0.9499 197.3187 77.4686)" class="st7 st2 st6">b</text>
<text transform="matrix(0.85 0 -0.3127 0.9499 200.3656 77.4686)" class="st2 st6">a</text>
<text transform="matrix(0.85 0 -0.3127 0.9499 200.3656 77.4686)" class="st7 st2 st6">a</text>
<text transform="matrix(0.85 0 -0.3127 0.9499 202.9095 77.4686)" class="st2 st6">n</text>
<text transform="matrix(0.85 0 -0.3127 0.9499 202.9095 77.4686)" class="st7 st2 st6">n</text>
<text transform="matrix(0.85 0 -0.3127 0.9499 205.9564 77.4686)" class="st2 st6">F</text>
<text transform="matrix(0.85 0 -0.3127 0.9499 205.9564 77.4686)" class="st7 st2 st6">F</text>
<text transform="matrix(0.85 0 -0.3127 0.9499 208.4916 77.4686)" class="st2 st6">un</text>
<text transform="matrix(0.85 0 -0.3127 0.9499 208.4916 77.4686)" class="st7 st2 st6">un</text>
<text transform="matrix(0.85 0 -0.3127 0.9499 214.5863 77.4686)" class="st2 st6">c</text>
<text transform="matrix(0.85 0 -0.3127 0.9499 214.5863 77.4686)" class="st7 st2 st6">c</text>
<text transform="matrix(0.85 0 -0.3127 0.9499 217.1244 77.4686)" class="st2 st6">t</text>
<text transform="matrix(0.85 0 -0.3127 0.9499 217.1244 77.4686)" class="st7 st2 st6">t</text>
<text transform="matrix(0.85 0 -0.3127 0.9499 219.1547 77.4686)" class="st2 st6">i</text>
<text transform="matrix(0.85 0 -0.3127 0.9499 219.1547 77.4686)" class="st7 st2 st6">i</text>
<text transform="matrix(0.85 0 -0.3127 0.9499 220.6742 77.4686)" class="st2 st6">o</text>
<text transform="matrix(0.85 0 -0.3127 0.9499 220.6742 77.4686)" class="st7 st2 st6">o</text>
<text transform="matrix(0.85 0 -0.3127 0.9499 223.7211 77.4686)" class="st2 st6">n</text>
<text transform="matrix(0.85 0 -0.3127 0.9499 223.7211 77.4686)" class="st7 st2 st6">n</text>
<polygon class="st0" points="198.8,318.7 295.3,318.7 295.3,279.1 198.8,279.1 "/>
<polygon class="st1" points="198.8,318.7 295.3,318.7 295.3,279.1 198.8,279.1 "/>
<text transform="matrix(0.85 0 0 1 225.2456 289.3501)" class="st2 st8">«FeatureType»</text>
<text transform="matrix(0.85 0 0 1 240.9873 298.1001)" class="st4 st8">urf::</text>
<text transform="matrix(0.85 0 0 1 199.8467 306.8423)" class="st4 st8">UnusedLandUsePromotionArea</text>
<polygon class="st0" points="295.3,437 417.7,437 417.7,397.4 295.3,397.4 "/>
<polygon class="st1" points="295.3,437 417.7,437 417.7,397.4 295.3,397.4 "/>
<text transform="matrix(0.85 0 0 1 334.9409 407.6396)" class="st2 st8">«FeatureType»</text>
<text transform="matrix(0.85 0 0 1 350.6826 416.3818)" class="st4 st8">urf::</text>
<text transform="matrix(0.85 0 0 1 297.3623 425.124)" class="st4 st8">UrbanDisasterRecoveryPromotionArea</text>
<polygon class="st9" points="300.9,89.3 396.9,89.3 396.9,48.2 300.9,48.2 "/>
<polygon class="st1" points="300.9,89.3 396.9,89.3 396.9,48.2 300.9,48.2 "/>
<text transform="matrix(0.85 0 -0.3127 0.9499 306.512 56.9048)" class="st2 st10">_AbstractGeometricAggregate</text>
<text transform="matrix(0.85 0 0 1 337.9873 68.7251)" class="st2 st8">«Type»</text>
<text transform="matrix(0.85 0 0 1 322.2451 77.4678)" class="st4 st8">gml::MultiSurface</text>
<polygon class="st0" points="410.6,376.3 514.7,376.3 514.7,349.5 410.6,349.5 "/>
<polygon class="st1" points="410.6,376.3 514.7,376.3 514.7,349.5 410.6,349.5 "/>
<text transform="matrix(0.85 0 0 1 446.6826 357.749)" class="st2 st3">«FeatureType»</text>
<text transform="matrix(0.85 0 0 1 423.3159 363.9209)" class="st4 st3">urf::UrbanFunctionAttractionArea</text>
<polygon class="st0" points="480.7,331 567,331 567,306.8 480.7,306.8 "/>
<polygon class="st1" points="480.7,331 567,331 567,306.8 480.7,306.8 "/>
<text transform="matrix(0.85 0 0 1 507.6201 315.0771)" class="st2 st3">«FeatureType»</text>
<text transform="matrix(0.85 0 0 1 490.3545 321.249)" class="st4 st3">urf::ResidenceAttractionArea</text>
<line class="st1" x1="82.5" y1="273.4" x2="82.5" y2="181.4"/>
<line class="st1" x1="173.4" y1="181.4" x2="173.4" y2="156.2"/>
<polyline class="st11" points="176.5,164.4 170.4,164.4 173.4,156.2 176.5,164.4 "/>
<polygon class="st1" points="176.5,164.4 170.4,164.4 173.4,156.2 "/>
<line class="st1" x1="234.9" y1="83.6" x2="276.5" y2="83.6"/>
<line class="st1" x1="276.5" y1="83.6" x2="276.5" y2="68.7"/>
<line class="st1" x1="276.5" y1="68.7" x2="300.4" y2="68.7"/>
<polyline class="st1" points="292.8,71.8 300.4,68.7 292.8,65.6 "/>
<line class="st1" x1="432.5" y1="222" x2="432.5" y2="181.4"/>
<line class="st1" x1="547.2" y1="260" x2="547.2" y2="181.4"/>
<line class="st1" x1="547.2" y1="181.4" x2="173.4" y2="181.4"/>
<line class="st1" x1="179" y1="201.4" x2="179" y2="181.4"/>
<line class="st1" x1="218.1" y1="242.6" x2="218.1" y2="181.4"/>
<line class="st1" x1="348.7" y1="355.7" x2="348.7" y2="181.4"/>
<line class="st1" x1="203.4" y1="62.6" x2="202.4" y2="43"/>
<polyline class="st11" points="205.9,51.2 199.8,51.2 202.4,43 205.9,51.2 "/>
<polygon class="st1" points="205.9,51.2 199.8,51.2 202.4,43 "/>
<line class="st1" x1="126.2" y1="237.4" x2="126.2" y2="181.4"/>
<line class="st1" x1="389.8" y1="396.8" x2="389.8" y2="181.4"/>
<line class="st1" x1="41.4" y1="314.6" x2="41.4" y2="181.4"/>
<line class="st1" x1="41.4" y1="181.4" x2="173.4" y2="181.4"/>
<line class="st1" x1="288.2" y1="129.4" x2="288.2" y2="119.6"/>
<line class="st1" x1="288.2" y1="119.6" x2="203.9" y2="119.6"/>
<line class="st1" x1="203.9" y1="119.6" x2="203.9" y2="94.4"/>
<polyline class="st11" points="207,102.7 200.9,102.7 203.9,94.4 207,102.7 "/>
<polygon class="st1" points="207,102.7 200.9,102.7 203.9,94.4 "/>
<line class="st1" x1="327.3" y1="145.4" x2="558.4" y2="145.4"/>
<line class="st1" x1="558.4" y1="145.4" x2="558.4" y2="260.6"/>
<polyline class="st11" points="555.9,255.4 558.4,260.6 560.9,255.4 558.4,250.3 555.9,255.4 "/>
<polygon class="st1" points="555.9,255.4 558.4,260.6 560.9,255.4 558.4,250.3 "/>
<polyline class="st1" points="334.9,148.4 327.3,145.4 334.9,142.3 "/>
<line class="st1" x1="98.3" y1="143.8" x2="147.5" y2="143.8"/>
<polyline class="st12" points="142.5,146.4 147.5,143.8 142.5,141.2 137.4,143.8 142.5,146.4 "/>
<polygon class="st1" points="137.4,143.8 142.5,141.2 147.5,143.8 142.5,146.4 "/>
<polyline class="st1" points="105.9,146.9 98.3,143.8 105.9,140.7 "/>
<line class="st1" x1="171.4" y1="129.4" x2="171.4" y2="119.6"/>
<line class="st1" x1="171.4" y1="119.6" x2="203.9" y2="119.6"/>
<line class="st1" x1="263.8" y1="278.6" x2="263.8" y2="181.4"/>
<line class="st1" x1="305.5" y1="324.8" x2="305.5" y2="181.4"/>
<line class="st1" x1="477.1" y1="349" x2="477.1" y2="181.4"/>
<line class="st1" x1="523.9" y1="306.3" x2="523.9" y2="181.4"/>
<text transform="matrix(0.85 0 0 1 102.3311 134.5537)" class="st2 st8">+boundary</text>
<text transform="matrix(0.85 0 0 1 110.9717 154.0928)" class="st2 st8">0..*</text>
<text transform="matrix(0.85 0 0 1 244.542 64.6162)" class="st2 st8">+lod1MultiSurface</text>
<text transform="matrix(0.85 0 0 1 288.7295 78.4912)" class="st2 st8">0..1</text>
<text transform="matrix(0.85 0 0 1 333.9248 140.21)" class="st2 st8">+threeDimensionalExtent</text>
<text transform="matrix(0.85 0 0 1 342.0498 154.6162)" class="st2 st8">0..*</text>
</svg>
