<?xml version="1.0" encoding="utf-8"?>
<!-- Generator: Adobe Illustrator 27.5.0, SVG Export Plug-In . SVG Version: 6.00 Build 0)  -->
<svg version="1.1" id="レイヤー_1" xmlns="http://www.w3.org/2000/svg" xmlns:xlink="http://www.w3.org/1999/xlink" x="0px"
	 y="0px" viewBox="0 0 793.5319214 637.2766113" style="enable-background:new 0 0 793.5319214 637.2766113;" xml:space="preserve">
<style type="text/css">
	.st0{opacity:0.5019608;fill-rule:evenodd;clip-rule:evenodd;fill:#969696;enable-background:new    ;}
	.st1{fill-rule:evenodd;clip-rule:evenodd;fill:#FFCCFF;}
	.st2{fill:none;stroke:#000000;stroke-width:1.5013124;stroke-linecap:round;stroke-linejoin:round;stroke-miterlimit:10;}
	.st3{font-family:'YuGothicUI-Regular';}
	.st4{font-size:10.2875204px;}
	.st5{font-size:9.7585306px;}
	.st6{fill:none;stroke:#000000;stroke-width:0.2788152;stroke-miterlimit:10;}
	.st7{font-family:'YuGothicUI-Bold';}
	.st8{fill-rule:evenodd;clip-rule:evenodd;fill:#F0F0F0;}
	.st9{fill:none;stroke:#D7D7D7;stroke-width:0.7506562;stroke-linecap:square;stroke-miterlimit:10;}
	.st10{fill-rule:evenodd;clip-rule:evenodd;fill:#A0FFC0;}
	.st11{fill:none;stroke:#000000;stroke-width:0.7506562;stroke-linecap:square;stroke-miterlimit:10;}
	.st12{fill:#003060;}
	.st13{font-family:'Meiryo';}
	.st14{font-size:7.5065618px;}
	.st15{fill-rule:evenodd;clip-rule:evenodd;fill:#FFFFCC;}
	.st16{font-family:'Meiryo-Bold';}
	.st17{font-size:12.010499px;}
	.st18{letter-spacing:-2.352941;}
	.st19{fill:none;stroke:#000000;stroke-width:1.5013124;stroke-linecap:round;stroke-linejoin:bevel;stroke-miterlimit:10;}
	.st20{fill-rule:evenodd;clip-rule:evenodd;fill:#FFFFFF;}
</style>
<path class="st0" d="M707.8619385,47.7047386c1.0375366,0,1.8786011,0.84021,1.8786011,1.876709l0.000061-0.000061v344.5512085
	l-0.000061,0.000061c0,1.0364075-0.8410645,1.8766174-1.8786621,1.8765869c0,0.0000305,0,0,0,0h0.000061H477.9100952
	l-0.000061,0.0000305c-1.0375366-0.0000305-1.8786621-0.84021-1.8786621-1.8766785h0.0000305V49.5813866
	c0-1.036438,0.841095-1.8766479,1.8786926-1.8766479l0,0H707.8619385L707.8619385,47.7047386L707.8619385,47.7047386z"/>
<path class="st1" d="M705.6074829,45.4527855c1.0375366,0,1.8786621,0.84021,1.8786621,1.8766479h0.000061v344.5512085
	l-0.000061,0.0000305c0,1.0364075-0.8411255,1.8766479-1.8787231,1.8765869c0,0.000061,0,0,0,0h0.000061H475.6556702
	l-0.000061,0.000061c-1.0375366-0.000061-1.8786926-0.8402405-1.8786926-1.8766785h0.000061V47.3294334
	c0-1.036438,0.841095-1.8766479,1.8786926-1.8766479l0,0H705.6074829L705.6074829,45.4527855L705.6074829,45.4527855z"/>
<path class="st2" d="M705.6074829,45.4527855c1.0375366,0,1.8786621,0.84021,1.8786621,1.8766479h0.000061v344.5512085
	l-0.000061,0.0000305c0,1.0364075-0.8411255,1.8766479-1.8787231,1.8765869c0,0.000061,0,0,0,0h0.000061H475.6556702
	l-0.000061,0.000061c-1.0375366-0.000061-1.8786926-0.8402405-1.8786926-1.8766785h0.000061V47.3294334
	c0-1.036438,0.841095-1.8766479,1.8786926-1.8766479l0,0H705.6074829L705.6074829,45.4527855L705.6074829,45.4527855z"/>
<text transform="matrix(0.85 0 -0.3165385 0.9485797 649.5234375 58.2250938)" class="st3 st4">_CityObject</text>
<text transform="matrix(0.85 0 0 1 558.6914062 75.4819336)" class="st3 st5">«FeatureType»</text>
<text transform="matrix(0.85 0 -0.3165385 0.9485797 546.6616211 88.2535706)" class="st3 st4">u</text>
<text transform="matrix(0.85 0 -0.3165385 0.9485797 546.6616211 88.2535706)" class="st6 st3 st4">u</text>
<text transform="matrix(0.85 0 -0.3165385 0.9485797 552.668457 88.2535706)" class="st3 st4">r</text>
<text transform="matrix(0.85 0 -0.3165385 0.9485797 552.668457 88.2535706)" class="st6 st3 st4">r</text>
<text transform="matrix(0.85 0 -0.3165385 0.9485797 556.4165039 88.2535706)" class="st3 st4">f</text>
<text transform="matrix(0.85 0 -0.3165385 0.9485797 556.4165039 88.2535706)" class="st6 st3 st4">f</text>
<text transform="matrix(0.85 0 -0.3165385 0.9485797 559.425293 88.2535706)" class="st3 st4">::</text>
<text transform="matrix(0.85 0 -0.3165385 0.9485797 559.425293 88.2535706)" class="st6 st3 st4">::</text>
<text transform="matrix(0.85 0 -0.3165385 0.9485797 563.9155273 88.2535706)" class="st3 st4">_</text>
<text transform="matrix(0.85 0 -0.3165385 0.9485797 563.9155273 88.2535706)" class="st6 st3 st4">_</text>
<text transform="matrix(0.85 0 -0.3165385 0.9485797 567.6772461 88.2535706)" class="st3 st4">U</text>
<text transform="matrix(0.85 0 -0.3165385 0.9485797 567.6772461 88.2535706)" class="st6 st3 st4">U</text>
<text transform="matrix(0.85 0 -0.3165385 0.9485797 574.4370117 88.2535706)" class="st3 st4">r</text>
<text transform="matrix(0.85 0 -0.3165385 0.9485797 574.4370117 88.2535706)" class="st6 st3 st4">r</text>
<text transform="matrix(0.85 0 -0.3165385 0.9485797 578.1850586 88.2535706)" class="st3 st4">b</text>
<text transform="matrix(0.85 0 -0.3165385 0.9485797 578.1850586 88.2535706)" class="st6 st3 st4">b</text>
<text transform="matrix(0.85 0 -0.3165385 0.9485797 584.1928711 88.2535706)" class="st3 st4">a</text>
<text transform="matrix(0.85 0 -0.3165385 0.9485797 584.1928711 88.2535706)" class="st6 st3 st4">a</text>
<text transform="matrix(0.85 0 -0.3165385 0.9485797 589.4458008 88.2535706)" class="st3 st4">n</text>
<text transform="matrix(0.85 0 -0.3165385 0.9485797 589.4458008 88.2535706)" class="st6 st3 st4">n</text>
<text transform="matrix(0.85 0 -0.3165385 0.9485797 595.4536133 88.2535706)" class="st3 st4">F</text>
<text transform="matrix(0.85 0 -0.3165385 0.9485797 595.4536133 88.2535706)" class="st6 st3 st4">F</text>
<text transform="matrix(0.85 0 -0.3165385 0.9485797 600.7124023 88.2535706)" class="st3 st4">un</text>
<text transform="matrix(0.85 0 -0.3165385 0.9485797 600.7124023 88.2535706)" class="st6 st3 st4">un</text>
<text transform="matrix(0.85 0 -0.3165385 0.9485797 612.7260742 88.2535706)" class="st3 st4">c</text>
<text transform="matrix(0.85 0 -0.3165385 0.9485797 612.7260742 88.2535706)" class="st6 st3 st4">c</text>
<text transform="matrix(0.85 0 -0.3165385 0.9485797 617.2387695 88.2535706)" class="st3 st4">t</text>
<text transform="matrix(0.85 0 -0.3165385 0.9485797 617.2387695 88.2535706)" class="st6 st3 st4">t</text>
<text transform="matrix(0.85 0 -0.3165385 0.9485797 620.9887695 88.2535706)" class="st3 st4">i</text>
<text transform="matrix(0.85 0 -0.3165385 0.9485797 620.9887695 88.2535706)" class="st6 st3 st4">i</text>
<text transform="matrix(0.85 0 -0.3165385 0.9485797 623.2475586 88.2535706)" class="st3 st4">o</text>
<text transform="matrix(0.85 0 -0.3165385 0.9485797 623.2475586 88.2535706)" class="st6 st3 st4">o</text>
<text transform="matrix(0.85 0 -0.3165385 0.9485797 629.2553711 88.2535706)" class="st3 st4">n</text>
<text transform="matrix(0.85 0 -0.3165385 0.9485797 629.2553711 88.2535706)" class="st6 st3 st4">n</text>
<line class="st2" x1="473.7769775" y1="94.2454453" x2="707.4862061" y2="94.2454453"/>
<text transform="matrix(0.85 0 0 1 477.5351562 107.7631836)" class="st3 st5">+ </text>
<text transform="matrix(0.85 0 0 1 494.0664062 107.7631836)" class="st3 st5">areaClassificationType: gml::CodeType [0..1]</text>
<text transform="matrix(0.85 0 0 1 477.5351562 120.5209961)" class="st3 st5">+ </text>
<text transform="matrix(0.85 0 0 1 494.0664062 120.5209961)" class="st3 st5">city: gml::CodeType [0..1]</text>
<text transform="matrix(0.85 0 0 1 477.5351562 133.2866211)" class="st3 st5">+ </text>
<text transform="matrix(0.85 0 0 1 494.0664062 133.2866211)" class="st3 st5">class: gml::CodeType [0..1]</text>
<text transform="matrix(0.85 0 0 1 477.5351562 146.0444336)" class="st3 st5">+ </text>
<text transform="matrix(0.85 0 0 1 494.0664062 146.0444336)" class="st3 st5">custodian: xs::string [0..1]</text>
<text transform="matrix(0.85 0 0 1 477.5351562 158.8022461)" class="st3 st5">+ </text>
<text transform="matrix(0.85 0 0 1 494.0664062 158.8022461)" class="st3 st5">enactmentFiscalYear: xs::gYear [0..1]</text>
<text transform="matrix(0.85 0 0 1 477.5351562 171.5678711)" class="st3 st5">+ </text>
<text transform="matrix(0.85 0 0 1 494.0664062 171.5678711)" class="st3 st5">expirationFiscalYear: xs::gYear [0..1]</text>
<text transform="matrix(0.85 0 0 1 477.5351562 184.3334961)" class="st3 st5">+ </text>
<text transform="matrix(0.85 0 0 1 494.0664062 184.3334961)" class="st3 st5">finalNotificationDate: xs::date [0..1]</text>
<text transform="matrix(0.85 0 0 1 477.5351562 197.0834961)" class="st3 st5">+ </text>
<text transform="matrix(0.85 0 0 1 494.0664062 197.0834961)" class="st3 st5">finalNotificationNumber: xs::string [0..1]</text>
<text transform="matrix(0.85 0 0 1 477.5351562 209.8491211)" class="st3 st5">+ </text>
<text transform="matrix(0.85 0 0 1 494.0664062 209.8491211)" class="st3 st5">function: gml::CodeType [0..*]</text>
<text transform="matrix(0.85 0 0 1 477.5351562 222.6147461)" class="st3 st5">+ </text>
<text transform="matrix(0.85 0 0 1 494.0664062 222.6147461)" class="st3 st5">legalGrounds: xs::string [0..1]</text>
<text transform="matrix(0.85 0 0 1 477.5351562 235.3725586)" class="st3 st5">+ </text>
<text transform="matrix(0.85 0 0 1 494.0664062 235.3725586)" class="st3 st5">nominalArea: gml::MeasureType [0..1]</text>
<text transform="matrix(0.85 0 0 1 477.5351562 248.1303711)" class="st3 st5">+ </text>
<text transform="matrix(0.85 0 0 1 494.0664062 248.1303711)" class="st3 st5">note: gml:StringOrRefType [0..1]</text>
<text transform="matrix(0.85 0 0 1 477.5351562 260.8959961)" class="st3 st5">+ </text>
<text transform="matrix(0.85 0 0 1 494.0664062 260.8959961)" class="st3 st5">notificationNumber: xs::string [0..1]</text>
<text transform="matrix(0.85 0 0 1 477.5351562 273.6538086)" class="st3 st5">+ </text>
<text transform="matrix(0.85 0 0 1 494.0664062 273.6538086)" class="st3 st5">prefecture: gml::CodeType [0..1]</text>
<text transform="matrix(0.85 0 0 1 477.5351562 286.4194336)" class="st3 st5">+ </text>
<text transform="matrix(0.85 0 0 1 494.0664062 286.4194336)" class="st3 st5">reason: gml:StringOrRefType [0..1]</text>
<text transform="matrix(0.85 0 0 1 477.5351562 299.1772461)" class="st3 st5">+ </text>
<text transform="matrix(0.85 0 0 1 494.0664062 299.1772461)" class="st3 st5">reference: xs::anyURI [0..1]</text>
<text transform="matrix(0.85 0 0 1 477.5351562 311.9350586)" class="st3 st5">+ </text>
<text transform="matrix(0.85 0 0 1 494.0664062 311.9350586)" class="st3 st5">surveyYear: xs::gYear [0..1]</text>
<text transform="matrix(0.85 0 0 1 477.5351562 324.7006836)" class="st3 st5">+ </text>
<text transform="matrix(0.85 0 0 1 494.0664062 324.7006836)" class="st3 st5">urbanPlanType: gml::CodeType [0..1]</text>
<text transform="matrix(0.85 0 0 1 477.5351562 337.4663086)" class="st3 st5">+ </text>
<text transform="matrix(0.85 0 0 1 494.0664062 337.4663086)" class="st3 st5">usage: gml::CodeType [0..*]</text>
<text transform="matrix(0.85 0 0 1 477.5351562 350.2163086)" class="st3 st5">+ </text>
<text transform="matrix(0.85 0 0 1 494.0664062 350.2163086)" class="st3 st5">validFrom: xs::date [0..1]</text>
<text transform="matrix(0.85 0 0 1 477.5351562 362.9819336)" class="st3 st5">+ </text>
<text transform="matrix(0.85 0 0 1 494.0664062 362.9819336)" class="st3 st5">validFromType: gml::CodeType [0..1]</text>
<text transform="matrix(0.85 0 0 1 477.5351562 375.7475586)" class="st3 st5">+ </text>
<text transform="matrix(0.85 0 0 1 494.0664062 375.7475586)" class="st3 st5">validTo: xs::date [0..1]</text>
<text transform="matrix(0.85 0 0 1 477.5351562 388.5131836)" class="st3 st5">+ </text>
<text transform="matrix(0.85 0 0 1 494.0664062 388.5131836)" class="st3 st5">validToType: gml::CodeType [0..1]</text>
<path class="st0" d="M338.1354675,425.2848816c1.0375671,0,1.8786621,0.8401489,1.8786621,1.8766479l0.0000305-0.000061v138.120697
	l-0.0000305,0.000061c0,1.036438-0.841095,1.8766479-1.8786926,1.8765869c0,0.000061,0,0,0,0h0.0000305H77.3731461
	l-0.0000076,0.000061c-1.0375671-0.000061-1.8786926-0.84021-1.8786926-1.876709h0.0000076v-138.120697
	c0-1.036438,0.8411179-1.8766479,1.8786926-1.8765869v-0.000061h260.7623291V425.2848816L338.1354675,425.2848816z"/>
<path class="st1" d="M335.8810425,423.0329285c1.0375671,0,1.8786621,0.8401489,1.8786621,1.8766479l0.0000305-0.000061v138.120697
	l-0.0000305,0.000061c0,1.036377-0.841095,1.8766479-1.8786926,1.8765869c0,0.000061,0,0,0,0h0.0000305H75.1187134
	l-0.0000076,0.000061c-1.0375671-0.000061-1.878685-0.840271-1.878685-1.876709l0,0v-138.120697
	c0-1.036438,0.8411179-1.8766479,1.8786926-1.8765869v-0.000061h260.7623291V423.0329285L335.8810425,423.0329285z"/>
<path class="st2" d="M335.8810425,423.0329285c1.0375671,0,1.8786621,0.8401489,1.8786621,1.8766479l0.0000305-0.000061v138.120697
	l-0.0000305,0.000061c0,1.036377-0.841095,1.8766479-1.8786926,1.8765869c0,0.000061,0,0,0,0h0.0000305H75.1187134
	l-0.0000076,0.000061c-1.0375671-0.000061-1.878685-0.840271-1.878685-1.876709l0,0v-138.120697
	c0-1.036438,0.8411179-1.8766479,1.8786926-1.8765869v-0.000061h260.7623291V423.0329285L335.8810425,423.0329285z"/>
<text transform="matrix(0.85 0 0 1 173.9335938 438.0522461)" class="st3 st5">«FeatureType»</text>
<text transform="matrix(0.85 0 0 1 152.8945312 450.8178711)" class="st7 st5">urf::UrbanPlanningArea</text>
<line class="st2" x1="73.2400208" y1="456.8124084" x2="337.7597351" y2="456.8124084"/>
<text transform="matrix(0.85 0 0 1 76.9960938 470.3256836)" class="st3 st5">+ </text>
<text transform="matrix(0.85 0 0 1 93.5273438 470.3256836)" class="st3 st5">areaClassification: gml::CodeType</text>
<text transform="matrix(0.85 0 0 1 76.9960938 483.0913086)" class="st3 st5">+ </text>
<text transform="matrix(0.85 0 0 1 93.5273438 483.0913086)" class="st3 st5">cityArea: gml::MeasureType [0..1]</text>
<text transform="matrix(0.85 0 0 1 76.9960938 495.8569336)" class="st3 st5">+ </text>
<text transform="matrix(0.85 0 0 1 93.5273438 495.8569336)" class="st3 st5">cityPopulation: xs::integer [0..1]</text>
<text transform="matrix(0.85 0 0 1 76.9960938 508.6069336)" class="st3 st5">+ </text>
<text transform="matrix(0.85 0 0 1 93.5273438 508.6069336)" class="st3 st5">policyForAreaClassification: gml:StringOrRefType [0..1]</text>
<text transform="matrix(0.85 0 0 1 76.9960938 521.3725586)" class="st3 st5">+ </text>
<text transform="matrix(0.85 0 0 1 93.5273438 521.3725586)" class="st3 st5">policyForUrbanPlanDecision: gml:StringOrRefType [0..1]</text>
<text transform="matrix(0.85 0 0 1 76.9960938 534.1381836)" class="st3 st5">+ </text>
<text transform="matrix(0.85 0 0 1 93.5273438 534.1381836)" class="st3 st5">population: xs::integer [0..1]</text>
<text transform="matrix(0.85 0 0 1 76.9960938 546.9042969)" class="st3 st5">+ </text>
<text transform="matrix(0.85 0 0 1 93.5273438 546.9042969)" class="st3 st5">purposeForUrbanPlan: gml:StringOrRefType [0..1]</text>
<text transform="matrix(0.85 0 0 1 76.9960938 559.6542969)" class="st3 st5">+ </text>
<text transform="matrix(0.85 0 0 1 93.5273438 559.6542969)" class="st3 st5">reasonForAreaClassification: gml:StringOrRefType [0..1]</text>
<path class="st0" d="M408.0227966,236.8701477c1.0375366,0,1.8786316,0.84021,1.8786316,1.8766479l0.000061-0.000061v49.543335
	l-0.000061,0.0000305c0,1.036438-0.841095,1.8766785-1.8786926,1.8766174c0,0.000061,0,0,0,0h0.000061H259.2304382v0.000061
	c-1.0375671-0.000061-1.8786926-0.8402405-1.8786926-1.876709l0,0v-49.543335c0-1.036377,0.8411255-1.8765869,1.8786926-1.8765869
	l0,0H408.0227966L408.0227966,236.8701477L408.0227966,236.8701477z"/>
<path class="st1" d="M405.7683411,234.6181946c1.0375671,0,1.8786621,0.84021,1.8786621,1.8765869h0.0000305v49.543335h-0.0000305
	c0,1.036438-0.841095,1.8766479-1.8786621,1.8766174c0,0.0000305,0,0,0,0l0,0H256.9760132v0.0000305
	c-1.0375824-0.0000305-1.8786926-0.84021-1.8786926-1.8766479h0.0000153v-49.543335
	c0-1.036377,0.841095-1.8765869,1.8786774-1.8765869l0,0H405.7683411L405.7683411,234.6181946L405.7683411,234.6181946z"/>
<path class="st2" d="M405.7683411,234.6181946c1.0375671,0,1.8786621,0.84021,1.8786621,1.8765869h0.0000305v49.543335h-0.0000305
	c0,1.036438-0.841095,1.8766479-1.8786621,1.8766174c0,0.0000305,0,0,0,0l0,0H256.9760132v0.0000305
	c-1.0375824-0.0000305-1.8786926-0.84021-1.8786926-1.8766479h0.0000153v-49.543335
	c0-1.036377,0.841095-1.8765869,1.8786774-1.8765869l0,0H405.7683411L405.7683411,234.6181946L405.7683411,234.6181946z"/>
<text transform="matrix(0.85 0 0 1 299.4335938 249.6381836)" class="st3 st5">«FeatureType»</text>
<text transform="matrix(0.85 0 0 1 311.4492188 262.3959961)" class="st7 st5">urf::Zone</text>
<line class="st2" x1="255.0973358" y1="268.3976746" x2="407.6470337" y2="268.3976746"/>
<text transform="matrix(0.85 0 0 1 258.8476562 281.9116211)" class="st3 st5">+ </text>
<text transform="matrix(0.85 0 0 1 275.3867188 281.9116211)" class="st3 st5">location: xs::string [0..1]</text>
<path class="st0" d="M538.7797241,425.2848816c1.0375366,0,1.8786621,0.8401489,1.8786621,1.8766479v-0.000061v74.3149414v0.000061
	c0,1.036438-0.8411255,1.8766479-1.8787231,1.8765869c0,0.000061,0,0,0,0h0.000061H355.4194336l-0.0000305,0.000061
	c-1.0375671-0.000061-1.8786926-0.84021-1.8786926-1.876709h0.0000305v-74.3149414
	c0-1.036438,0.841095-1.8766479,1.8786926-1.8765869v-0.000061h183.3602905V425.2848816L538.7797241,425.2848816z"/>
<path class="st1" d="M536.5252686,423.0329285c1.0375366,0,1.8786621,0.8401489,1.8786621,1.8766479l0.000061-0.000061v74.3149414
	l-0.000061,0.000061c0,1.036377-0.8411255,1.8766479-1.8786621,1.8765869c0,0.000061,0,0,0,0l0,0h-183.36026l-0.0000305,0.000061
	c-1.0375671-0.000061-1.8786926-0.840271-1.8786926-1.876709h0.0000305v-74.3149414
	c0-1.036438,0.841095-1.8766479,1.8786926-1.8765869v-0.000061h183.36026V423.0329285L536.5252686,423.0329285z"/>
<path class="st2" d="M536.5252686,423.0329285c1.0375366,0,1.8786621,0.8401489,1.8786621,1.8766479l0.000061-0.000061v74.3149414
	l-0.000061,0.000061c0,1.036377-0.8411255,1.8766479-1.8786621,1.8765869c0,0.000061,0,0,0,0l0,0h-183.36026l-0.0000305,0.000061
	c-1.0375671-0.000061-1.8786926-0.840271-1.8786926-1.876709h0.0000305v-74.3149414
	c0-1.036438,0.841095-1.8766479,1.8786926-1.8765869v-0.000061h183.36026V423.0329285L536.5252686,423.0329285z"/>
<text transform="matrix(0.85 0 0 1 412.9023438 438.0522461)" class="st3 st5">«FeatureType»</text>
<text transform="matrix(0.85 0 0 1 379.0898438 450.8178711)" class="st7 st5">urf::QuasiUrbanPlanningArea</text>
<line class="st2" x1="351.2863159" y1="456.8124084" x2="538.4039917" y2="456.8124084"/>
<text transform="matrix(0.85 0 0 1 355.0429688 470.3256836)" class="st3 st5">+ </text>
<text transform="matrix(0.85 0 0 1 371.5742188 470.3256836)" class="st3 st5">cityArea: gml::MeasureType [0..1]</text>
<text transform="matrix(0.85 0 0 1 355.0429688 483.0913086)" class="st3 st5">+ </text>
<text transform="matrix(0.85 0 0 1 371.5742188 483.0913086)" class="st3 st5">cityPopulation: xs::integer [0..1]</text>
<text transform="matrix(0.85 0 0 1 355.0429688 495.8569336)" class="st3 st5">+ </text>
<text transform="matrix(0.85 0 0 1 371.5742188 495.8569336)" class="st3 st5">population: xs::integer [0..1]</text>
<path class="st8" d="M241.570755,91.9934921c1.2450714,0,2.2544098,1.0082397,2.2544098,2.2519531h0.0000305v66.0577469
	l-0.0000305,0.000061c0,1.2436523-1.0093384,2.2519531-2.254425,2.2519531l0,0h0.0000153H107.0564651h-0.0000076
	c-1.245079,0-2.254425-1.0083008-2.2544174-2.2520142V94.2454453c0-1.2437134,1.0093384-2.2519531,2.254425-2.2519531l0,0
	H241.570755L241.570755,91.9934921L241.570755,91.9934921z"/>
<path class="st9" d="M241.570755,91.9934921c1.2450714,0,2.2544098,1.0082397,2.2544098,2.2519531h0.0000305v66.0577469
	l-0.0000305,0.000061c0,1.2436523-1.0093384,2.2519531-2.254425,2.2519531l0,0h0.0000153H107.0564651h-0.0000076
	c-1.245079,0-2.254425-1.0083008-2.2544174-2.2520142V94.2454453c0-1.2437134,1.0093384-2.2519531,2.254425-2.2519531l0,0
	H241.570755L241.570755,91.9934921L241.570755,91.9934921z"/>
<path class="st10" d="M122.461731,114.5132065c1.0375748,0,1.878685,0.8401489,1.878685,1.8765869h0.0000076v8.2572021
	l-0.0000076,0.000061c0,1.036438-0.8411102,1.8766479-1.8786926,1.8765869c0,0.000061,0,0,0,0h0.0000076h-8.2662354
	l-0.0000076,0.000061c-1.0375671-0.000061-1.8786926-0.84021-1.8786926-1.876709h0.0000076v-8.2572021
	c0-1.036438,0.8411179-1.8766479,1.8786926-1.8765869v-0.000061h8.2662354V114.5132065L122.461731,114.5132065z"/>
<path class="st11" d="M122.461731,114.5132065c1.0375748,0,1.878685,0.8401489,1.878685,1.8765869h0.0000076v8.2572021
	l-0.0000076,0.000061c0,1.036438-0.8411102,1.8766479-1.8786926,1.8765869c0,0.000061,0,0,0,0h0.0000076h-8.2662354
	l-0.0000076,0.000061c-1.0375671-0.000061-1.8786926-0.84021-1.8786926-1.876709h0.0000076v-8.2572021
	c0-1.036438,0.8411179-1.8766479,1.8786926-1.8765869v-0.000061h8.2662354V114.5132065L122.461731,114.5132065z"/>
<text transform="matrix(0.85 0 0 1 128.847168 123.5209961)" class="st12 st13 st14">GMLで定義されたクラス</text>
<path class="st15" d="M122.461731,128.7756653c1.0375748,0,1.878685,0.84021,1.878685,1.8766479l0.0000076-0.000061v8.2572632
	h-0.0000076c0,1.036438-0.8411102,1.8766479-1.8786926,1.8766479l0,0h0.0000076h-8.2662354h-0.0000076
	c-1.0375671,0-1.8786926-0.84021-1.8786926-1.8766479h0.0000076v-8.2572632c0-1.036377,0.8411179-1.8765869,1.8786926-1.8765869l0,0
	H122.461731L122.461731,128.7756653L122.461731,128.7756653z"/>
<path class="st11" d="M122.461731,128.7756653c1.0375748,0,1.878685,0.84021,1.878685,1.8766479l0.0000076-0.000061v8.2572632
	h-0.0000076c0,1.036438-0.8411102,1.8766479-1.8786926,1.8766479l0,0h0.0000076h-8.2662354h-0.0000076
	c-1.0375671,0-1.8786926-0.84021-1.8786926-1.8766479h0.0000076v-8.2572632c0-1.036377,0.8411179-1.8765869,1.8786926-1.8765869l0,0
	H122.461731L122.461731,128.7756653L122.461731,128.7756653z"/>
<text transform="matrix(0.85 0 0 1 128.847168 137.7866211)" class="st12 st13 st14">CityGMLで定義されたクラス</text>
<path class="st1" d="M122.461731,143.0381165c1.0375748,0,1.878685,0.84021,1.878685,1.8766479h0.0000076v8.2572021h-0.0000076
	c0,1.036438-0.8411102,1.8766479-1.8786926,1.8766479l0,0h0.0000076h-8.2662354h-0.0000076
	c-1.0375671,0-1.8786926-0.84021-1.8786926-1.8766479h0.0000076v-8.2572021c0-1.036438,0.8411179-1.8766479,1.8786926-1.8766479l0,0
	H122.461731L122.461731,143.0381165L122.461731,143.0381165z"/>
<path class="st11" d="M122.461731,143.0381165c1.0375748,0,1.878685,0.84021,1.878685,1.8766479h0.0000076v8.2572021h-0.0000076
	c0,1.036438-0.8411102,1.8766479-1.8786926,1.8766479l0,0h0.0000076h-8.2662354h-0.0000076
	c-1.0375671,0-1.8786926-0.84021-1.8786926-1.8766479h0.0000076v-8.2572021c0-1.036438,0.8411179-1.8766479,1.8786926-1.8766479l0,0
	H122.461731L122.461731,143.0381165L122.461731,143.0381165z"/>
<text transform="matrix(0.85 0 0 1 128.847168 152.0444336)" class="st12 st13 st14">i-URで定義されたクラス</text>
<text transform="matrix(0.85 0 0 1 161.1601562 110.2490234)" class="st12 st16 st17 st18">凡例</text>
<line class="st19" x1="205.4998932" y1="422.282196" x2="205.4998932" y2="326.1982117"/>
<line class="st19" x1="205.4998932" y1="326.1982117" x2="331.7479248" y2="326.1982117"/>
<line class="st19" x1="331.7479248" y1="326.1982117" x2="331.7479248" y2="289.4160767"/>
<polyline class="st20" points="336.2567749,301.4265747 327.2390747,301.4265747 331.7479248,289.4160767 336.2567749,301.4265747 
	"/>
<polygon class="st19" points="336.2567749,301.4265747 327.2390747,301.4265747 331.7479248,289.4160767 "/>
<line class="st19" x1="409.1499939" y1="267.6470032" x2="473.0255127" y2="267.6470032"/>
<polyline class="st20" points="461.0018616,272.1509705 461.0018616,263.1430969 473.0255127,267.6470032 461.0018616,272.1509705 
	"/>
<polygon class="st19" points="461.0018616,272.1509705 461.0018616,263.1430969 473.0255127,267.6470032 "/>
<line class="st19" x1="445.2208557" y1="422.282196" x2="445.2208557" y2="326.1982117"/>
<line class="st19" x1="445.2208557" y1="326.1982117" x2="331.7479248" y2="326.1982117"/>
</svg>
