<?xml version="1.0" encoding="utf-8"?>
<!-- Generator: Adobe Illustrator 27.5.0, SVG Export Plug-In . SVG Version: 6.00 Build 0)  -->
<svg version="1.1" id="レイヤー_1" xmlns="http://www.w3.org/2000/svg" xmlns:xlink="http://www.w3.org/1999/xlink" x="0px"
	 y="0px" viewBox="0 0 583.4893799 454.8085022" style="enable-background:new 0 0 583.4893799 454.8085022;" xml:space="preserve">
<style type="text/css">
	.st0{opacity:0.5019608;fill-rule:evenodd;clip-rule:evenodd;fill:#969696;enable-background:new    ;}
	.st1{fill-rule:evenodd;clip-rule:evenodd;fill:#FFCCFF;}
	.st2{fill:none;stroke:#000000;stroke-width:1.5013124;stroke-linecap:round;stroke-linejoin:round;stroke-miterlimit:10;}
	.st3{font-family:'YuGothicUI-Regular';}
	.st4{font-size:10.2875204px;}
	.st5{font-size:9.7585306px;}
	.st6{fill:none;stroke:#000000;stroke-width:0.2788152;stroke-miterlimit:10;}
	.st7{font-family:'YuGothicUI-Bold';}
	.st8{fill-rule:evenodd;clip-rule:evenodd;fill:#F0F0F0;}
	.st9{fill:none;stroke:#D7D7D7;stroke-width:0.7506562;stroke-linecap:square;stroke-miterlimit:10;}
	.st10{fill-rule:evenodd;clip-rule:evenodd;fill:#A0FFC0;}
	.st11{fill:none;stroke:#000000;stroke-width:0.7506562;stroke-linecap:square;stroke-miterlimit:10;}
	.st12{fill:#003060;}
	.st13{font-family:'Meiryo';}
	.st14{font-size:7.5065618px;}
	.st15{fill-rule:evenodd;clip-rule:evenodd;fill:#FFFFCC;}
	.st16{font-family:'Meiryo-Bold';}
	.st17{font-size:12.010499px;}
	.st18{letter-spacing:-2.352941;}
	.st19{fill:none;stroke:#000000;stroke-width:1.5013124;stroke-linecap:round;stroke-linejoin:bevel;stroke-miterlimit:10;}
	.st20{fill-rule:evenodd;clip-rule:evenodd;fill:#FFFFFF;}
</style>
<path class="st0" d="M512.369812,55.4069252c1.0375366,0,1.8786621,0.8401794,1.8786621,1.8766174l0.000061-0.0000305v344.5512085
	l-0.000061,0.000061c0,1.036377-0.8411255,1.8766479-1.8786621,1.8765869c0,0.000061,0,0,0,0l0,0H259.1222229l-0.0000305,0.000061
	c-1.0375671-0.000061-1.8786926-0.840271-1.8786926-1.876709h0.0000305V57.2835121
	c0-1.0364075,0.841095-1.8766174,1.8786926-1.8765869v-0.0000305H512.369812V55.4069252L512.369812,55.4069252z"/>
<path class="st1" d="M510.115387,53.1549416c1.0375366,0,1.8786011,0.8401794,1.8786011,1.8766174h0.000061v344.5512085
	l-0.000061,0.000061c0,1.036377-0.8410645,1.8765869-1.8786621,1.8765869l0,0h0.000061H256.8677979h-0.0000305
	c-1.0375519,0-1.8786774-0.84021-1.8786774-1.8766479h0.0000305V55.031559c0-1.036438,0.841095-1.8766479,1.8786774-1.8766174
	V53.154911H510.115387V53.1549416L510.115387,53.1549416z"/>
<path class="st2" d="M510.115387,53.1549416c1.0375366,0,1.8786011,0.8401794,1.8786011,1.8766174h0.000061v344.5512085
	l-0.000061,0.000061c0,1.036377-0.8410645,1.8765869-1.8786621,1.8765869l0,0h0.000061H256.8677979h-0.0000305
	c-1.0375519,0-1.8786774-0.84021-1.8786774-1.8766479h0.0000305V55.031559c0-1.036438,0.841095-1.8766479,1.8786774-1.8766174
	V53.154911H510.115387V53.1549416L510.115387,53.1549416z"/>
<text transform="matrix(0.85 0 -0.3165385 0.9485797 450.7617188 65.9285965)" class="st3 st4">_CityObject</text>
<text transform="matrix(0.85 0 0 1 351.9267578 83.184082)" class="st3 st5">«FeatureType»</text>
<text transform="matrix(0.85 0 -0.3165385 0.9485797 339.1539917 95.9496613)" class="st3 st4">u</text>
<text transform="matrix(0.85 0 -0.3165385 0.9485797 339.1539917 95.9496613)" class="st6 st3 st4">u</text>
<text transform="matrix(0.85 0 -0.3165385 0.9485797 345.1608276 95.9496613)" class="st3 st4">r</text>
<text transform="matrix(0.85 0 -0.3165385 0.9485797 345.1608276 95.9496613)" class="st6 st3 st4">r</text>
<text transform="matrix(0.85 0 -0.3165385 0.9485797 348.9088745 95.9496613)" class="st3 st4">f</text>
<text transform="matrix(0.85 0 -0.3165385 0.9485797 348.9088745 95.9496613)" class="st6 st3 st4">f</text>
<text transform="matrix(0.85 0 -0.3165385 0.9485797 351.9176636 95.9496613)" class="st3 st4">::</text>
<text transform="matrix(0.85 0 -0.3165385 0.9485797 351.9176636 95.9496613)" class="st6 st3 st4">::</text>
<text transform="matrix(0.85 0 -0.3165385 0.9485797 356.4078979 95.9496613)" class="st3 st4">_</text>
<text transform="matrix(0.85 0 -0.3165385 0.9485797 356.4078979 95.9496613)" class="st6 st3 st4">_</text>
<text transform="matrix(0.85 0 -0.3165385 0.9485797 360.1696167 95.9496613)" class="st3 st4">U</text>
<text transform="matrix(0.85 0 -0.3165385 0.9485797 360.1696167 95.9496613)" class="st6 st3 st4">U</text>
<text transform="matrix(0.85 0 -0.3165385 0.9485797 366.9293823 95.9496613)" class="st3 st4">r</text>
<text transform="matrix(0.85 0 -0.3165385 0.9485797 366.9293823 95.9496613)" class="st6 st3 st4">r</text>
<text transform="matrix(0.85 0 -0.3165385 0.9485797 370.6774292 95.9496613)" class="st3 st4">b</text>
<text transform="matrix(0.85 0 -0.3165385 0.9485797 370.6774292 95.9496613)" class="st6 st3 st4">b</text>
<text transform="matrix(0.85 0 -0.3165385 0.9485797 376.6852417 95.9496613)" class="st3 st4">a</text>
<text transform="matrix(0.85 0 -0.3165385 0.9485797 376.6852417 95.9496613)" class="st6 st3 st4">a</text>
<text transform="matrix(0.85 0 -0.3165385 0.9485797 381.9381714 95.9496613)" class="st3 st4">n</text>
<text transform="matrix(0.85 0 -0.3165385 0.9485797 381.9381714 95.9496613)" class="st6 st3 st4">n</text>
<text transform="matrix(0.85 0 -0.3165385 0.9485797 387.9459839 95.9496613)" class="st3 st4">F</text>
<text transform="matrix(0.85 0 -0.3165385 0.9485797 387.9459839 95.9496613)" class="st6 st3 st4">F</text>
<text transform="matrix(0.85 0 -0.3165385 0.9485797 393.2047729 95.9496613)" class="st3 st4">un</text>
<text transform="matrix(0.85 0 -0.3165385 0.9485797 393.2047729 95.9496613)" class="st6 st3 st4">un</text>
<text transform="matrix(0.85 0 -0.3165385 0.9485797 405.2184448 95.9496613)" class="st3 st4">c</text>
<text transform="matrix(0.85 0 -0.3165385 0.9485797 405.2184448 95.9496613)" class="st6 st3 st4">c</text>
<text transform="matrix(0.85 0 -0.3165385 0.9485797 409.7311401 95.9496613)" class="st3 st4">t</text>
<text transform="matrix(0.85 0 -0.3165385 0.9485797 409.7311401 95.9496613)" class="st6 st3 st4">t</text>
<text transform="matrix(0.85 0 -0.3165385 0.9485797 413.4811401 95.9496613)" class="st3 st4">i</text>
<text transform="matrix(0.85 0 -0.3165385 0.9485797 413.4811401 95.9496613)" class="st6 st3 st4">i</text>
<text transform="matrix(0.85 0 -0.3165385 0.9485797 415.7399292 95.9496613)" class="st3 st4">o</text>
<text transform="matrix(0.85 0 -0.3165385 0.9485797 415.7399292 95.9496613)" class="st6 st3 st4">o</text>
<text transform="matrix(0.85 0 -0.3165385 0.9485797 421.7477417 95.9496613)" class="st3 st4">n</text>
<text transform="matrix(0.85 0 -0.3165385 0.9485797 421.7477417 95.9496613)" class="st6 st3 st4">n</text>
<line class="st2" x1="254.9891205" y1="101.9475784" x2="511.9940491" y2="101.9475784"/>
<text transform="matrix(0.85 0 0 1 258.7392578 115.4575195)" class="st3 st5">+ </text>
<text transform="matrix(0.85 0 0 1 275.2783203 115.4575195)" class="st3 st5">areaClassificationType: gml::CodeType [0..1]</text>
<text transform="matrix(0.85 0 0 1 258.7392578 128.2231445)" class="st3 st5">+ </text>
<text transform="matrix(0.85 0 0 1 275.2783203 128.2231445)" class="st3 st5">city: gml::CodeType [0..1]</text>
<text transform="matrix(0.85 0 0 1 258.7392578 140.9887695)" class="st3 st5">+ </text>
<text transform="matrix(0.85 0 0 1 275.2783203 140.9887695)" class="st3 st5">class: gml::CodeType [0..1]</text>
<text transform="matrix(0.85 0 0 1 258.7392578 153.746582)" class="st3 st5">+ </text>
<text transform="matrix(0.85 0 0 1 275.2783203 153.746582)" class="st3 st5">custodian: xs::string [0..1]</text>
<text transform="matrix(0.85 0 0 1 258.7392578 166.5043945)" class="st3 st5">+ </text>
<text transform="matrix(0.85 0 0 1 275.2783203 166.5043945)" class="st3 st5">enactmentFiscalYear: xs::gYear [0..1]</text>
<text transform="matrix(0.85 0 0 1 258.7392578 179.2700195)" class="st3 st5">+ </text>
<text transform="matrix(0.85 0 0 1 275.2783203 179.2700195)" class="st3 st5">expirationFiscalYear: xs::gYear [0..1]</text>
<text transform="matrix(0.85 0 0 1 258.7392578 192.027832)" class="st3 st5">+ </text>
<text transform="matrix(0.85 0 0 1 275.2783203 192.027832)" class="st3 st5">finalNotificationDate: xs::date [0..1]</text>
<text transform="matrix(0.85 0 0 1 258.7392578 204.793457)" class="st3 st5">+ </text>
<text transform="matrix(0.85 0 0 1 275.2783203 204.793457)" class="st3 st5">finalNotificationNumber: xs::string [0..1]</text>
<text transform="matrix(0.85 0 0 1 258.7392578 217.5512695)" class="st3 st5">+ </text>
<text transform="matrix(0.85 0 0 1 275.2783203 217.5512695)" class="st3 st5">function: gml::CodeType [0..*]</text>
<text transform="matrix(0.85 0 0 1 258.7392578 230.309082)" class="st3 st5">+ </text>
<text transform="matrix(0.85 0 0 1 275.2783203 230.309082)" class="st3 st5">legalGrounds: xs::string [0..1]</text>
<text transform="matrix(0.85 0 0 1 258.7392578 243.074707)" class="st3 st5">+ </text>
<text transform="matrix(0.85 0 0 1 275.2783203 243.074707)" class="st3 st5">nominalArea: gml::MeasureType [0..1]</text>
<text transform="matrix(0.85 0 0 1 258.7392578 255.840332)" class="st3 st5">+ </text>
<text transform="matrix(0.85 0 0 1 275.2783203 255.840332)" class="st3 st5">note: gml:StringOrRefType [0..1]</text>
<text transform="matrix(0.85 0 0 1 258.7392578 268.590332)" class="st3 st5">+ </text>
<text transform="matrix(0.85 0 0 1 275.2783203 268.590332)" class="st3 st5">notificationNumber: xs::string [0..1]</text>
<text transform="matrix(0.85 0 0 1 258.7392578 281.355957)" class="st3 st5">+ </text>
<text transform="matrix(0.85 0 0 1 275.2783203 281.355957)" class="st3 st5">prefecture: gml::CodeType [0..1]</text>
<text transform="matrix(0.85 0 0 1 258.7392578 294.121582)" class="st3 st5">+ </text>
<text transform="matrix(0.85 0 0 1 275.2783203 294.121582)" class="st3 st5">reason: gml:StringOrRefType [0..1]</text>
<text transform="matrix(0.85 0 0 1 258.7392578 306.887207)" class="st3 st5">+ </text>
<text transform="matrix(0.85 0 0 1 275.2783203 306.887207)" class="st3 st5">reference: xs::anyURI [0..1]</text>
<text transform="matrix(0.85 0 0 1 258.7392578 319.637207)" class="st3 st5">+ </text>
<text transform="matrix(0.85 0 0 1 275.2783203 319.637207)" class="st3 st5">surveyYear: xs::gYear [0..1]</text>
<text transform="matrix(0.85 0 0 1 258.7392578 332.402832)" class="st3 st5">+ </text>
<text transform="matrix(0.85 0 0 1 275.2783203 332.402832)" class="st3 st5">urbanPlanType: gml::CodeType [0..1]</text>
<text transform="matrix(0.85 0 0 1 258.7392578 345.168457)" class="st3 st5">+ </text>
<text transform="matrix(0.85 0 0 1 275.2783203 345.168457)" class="st3 st5">usage: gml::CodeType [0..*]</text>
<text transform="matrix(0.85 0 0 1 258.7392578 357.934082)" class="st3 st5">+ </text>
<text transform="matrix(0.85 0 0 1 275.2783203 357.934082)" class="st3 st5">validFrom: xs::date [0..1]</text>
<text transform="matrix(0.85 0 0 1 258.7392578 370.684082)" class="st3 st5">+ </text>
<text transform="matrix(0.85 0 0 1 275.2783203 370.684082)" class="st3 st5">validFromType: gml::CodeType [0..1]</text>
<text transform="matrix(0.85 0 0 1 258.7392578 383.449707)" class="st3 st5">+ </text>
<text transform="matrix(0.85 0 0 1 275.2783203 383.449707)" class="st3 st5">validTo: xs::date [0..1]</text>
<text transform="matrix(0.85 0 0 1 258.7392578 396.215332)" class="st3 st5">+ </text>
<text transform="matrix(0.85 0 0 1 275.2783203 396.215332)" class="st3 st5">validToType: gml::CodeType [0..1]</text>
<path class="st0" d="M208.0218353,195.0289612c1.0375671,0,1.8786621,0.8401794,1.8786621,1.8766479l0.0000305-0.0000305v49.5433044
	l-0.0000305,0.0000305c0,1.036438-0.841095,1.8766479-1.8786926,1.8766174c0,0.0000305,0,0,0,0h0.0000305H86.2826691
	l-0.0000305,0.0000305c-1.0375671-0.0000305-1.8786926-0.84021-1.8786926-1.8766785h0.0000305v-49.5433044
	c0-1.036438,0.841095-1.8766479,1.8786926-1.8766174v-0.0000305h121.7391663V195.0289612L208.0218353,195.0289612z"/>
<path class="st1" d="M205.7674103,192.7770081c1.0375366,0,1.8786621,0.8401794,1.8786621,1.8766174h0.0000305v49.5433044
	h-0.0000305c0,1.036438-0.8411255,1.8766479-1.8786926,1.8766174c0,0.0000305,0,0,0,0h0.0000305H84.0282135v0.0000305
	c-1.0375671-0.0000305-1.8786926-0.84021-1.8786926-1.8766479h0.0000305v-49.5433044
	c0-1.036438,0.841095-1.8766479,1.8786621-1.8766174v-0.0000305h121.7391968V192.7770081L205.7674103,192.7770081z"/>
<path class="st2" d="M205.7674103,192.7770081c1.0375366,0,1.8786621,0.8401794,1.8786621,1.8766174h0.0000305v49.5433044
	h-0.0000305c0,1.036438-0.8411255,1.8766479-1.8786926,1.8766174c0,0.0000305,0,0,0,0h0.0000305H84.0282135v0.0000305
	c-1.0375671-0.0000305-1.8786926-0.84021-1.8786926-1.8766479h0.0000305v-49.5433044
	c0-1.036438,0.841095-1.8766479,1.8786621-1.8766174v-0.0000305h121.7391968V192.7770081L205.7674103,192.7770081z"/>
<text transform="matrix(0.85 0 0 1 112.9580078 207.793457)" class="st3 st5">«FeatureType»</text>
<text transform="matrix(0.85 0 0 1 124.9814453 220.559082)" class="st7 st5">urf::Zone</text>
<line class="st2" x1="82.1495514" y1="226.556488" x2="207.6461029" y2="226.556488"/>
<text transform="matrix(0.85 0 0 1 85.9033203 240.0668945)" class="st3 st5">+ </text>
<text transform="matrix(0.85 0 0 1 102.4345703 240.0668945)" class="st3 st5">location: xs::string [0..1]</text>
<path class="st0" d="M220.7969513,300.1208496c1.0375366,0,1.8786316,0.8401794,1.8786316,1.8766479l0.000061-0.000061v48.7926636
	l-0.000061,0.000061c0,1.0364075-0.841095,1.8766174-1.8786926,1.8765869c0,0.0000305,0,0,0,0h0.000061H78.7678986
	l-0.0000305,0.0000305c-1.0375671-0.0000305-1.8786926-0.84021-1.8786926-1.8766785h0.0000305v-48.7926636
	c0-1.0364075,0.841095-1.8766174,1.8786926-1.8765869v-0.0000305h142.0290527V300.1208496L220.7969513,300.1208496z"/>
<path class="st1" d="M218.5425262,297.8688965c1.0375366,0,1.8786316,0.8401794,1.8786316,1.8766174l0.000061-0.0000305v48.7926331
	l-0.000061,0.000061c0,1.0364075-0.841095,1.8766479-1.8786926,1.8765869c0,0.000061,0,0,0,0h0.000061H76.5134735
	l-0.0000305,0.000061c-1.0375671-0.000061-1.8786926-0.8402405-1.8786926-1.876709h0.0000305v-48.7926331
	c0-1.0364075,0.841095-1.8766479,1.8786926-1.8765869v-0.000061h142.0290527V297.8688965L218.5425262,297.8688965z"/>
<path class="st2" d="M218.5425262,297.8688965c1.0375366,0,1.8786316,0.8401794,1.8786316,1.8766174l0.000061-0.0000305v48.7926331
	l-0.000061,0.000061c0,1.0364075-0.841095,1.8766479-1.8786926,1.8765869c0,0.000061,0,0,0,0h0.000061H76.5134735
	l-0.0000305,0.000061c-1.0375671-0.000061-1.8786926-0.8402405-1.8786926-1.876709h0.0000305v-48.7926331
	c0-1.0364075,0.841095-1.8766479,1.8786926-1.8765869v-0.000061h142.0290527V297.8688965L218.5425262,297.8688965z"/>
<text transform="matrix(0.85 0 0 1 115.9658203 312.887207)" class="st3 st5">«FeatureType»</text>
<text transform="matrix(0.85 0 0 1 99.4345703 325.6450195)" class="st7 st5">urf::AreaClassification</text>
<line class="st2" x1="74.6347809" y1="331.6483765" x2="220.4212189" y2="331.6483765"/>
<text transform="matrix(0.85 0 0 1 78.3876953 345.168457)" class="st3 st5">+ </text>
<text transform="matrix(0.85 0 0 1 94.9267578 345.168457)" class="st3 st5">population: xs::integer [0..1]</text>
<path class="st8" d="M203.8887177,65.1654739c1.2450562,0,2.2543945,1.0082092,2.2543945,2.2519531l0.0000305-0.0000305v66.0577316
	l-0.0000305,0.0000305c0,1.2437134-1.0093384,2.2519531-2.254425,2.2519531l0,0h0.0000305H69.3744354h-0.0000305
	c-1.2450562,0-2.254425-1.0082397-2.2543945-2.2519836V67.4173965c0-1.2437134,1.0093384-2.2519836,2.254425-2.2519226v-0.000061
	h134.5142822V65.1654739L203.8887177,65.1654739z"/>
<path class="st9" d="M203.8887177,65.1654739c1.2450562,0,2.2543945,1.0082092,2.2543945,2.2519531l0.0000305-0.0000305v66.0577316
	l-0.0000305,0.0000305c0,1.2437134-1.0093384,2.2519531-2.254425,2.2519531l0,0h0.0000305H69.3744354h-0.0000305
	c-1.2450562,0-2.254425-1.0082397-2.2543945-2.2519836V67.4173965c0-1.2437134,1.0093384-2.2519836,2.254425-2.2519226v-0.000061
	h134.5142822V65.1654739L203.8887177,65.1654739z"/>
<path class="st10" d="M84.7797089,87.6851273c1.0375671,0,1.8786621,0.84021,1.8786621,1.8766479h0.0000305v8.2572021H86.658371
	c0,1.036438-0.841095,1.8766479-1.8786926,1.8766479l0,0h0.0000305h-8.2662354H76.513443
	c-1.0375671,0-1.8786926-0.84021-1.8786926-1.8766479h0.0000305v-8.2572021c0-1.036438,0.841095-1.8766479,1.8786926-1.8766479l0,0
	H84.7797089L84.7797089,87.6851273L84.7797089,87.6851273z"/>
<path class="st11" d="M84.7797089,87.6851273c1.0375671,0,1.8786621,0.84021,1.8786621,1.8766479h0.0000305v8.2572021H86.658371
	c0,1.036438-0.841095,1.8766479-1.8786926,1.8766479l0,0h0.0000305h-8.2662354H76.513443
	c-1.0375671,0-1.8786926-0.84021-1.8786926-1.8766479h0.0000305v-8.2572021c0-1.036438,0.841095-1.8766479,1.8786926-1.8766479l0,0
	H84.7797089L84.7797089,87.6851273L84.7797089,87.6851273z"/>
<text transform="matrix(0.85 0 0 1 91.1606445 96.699707)" class="st12 st13 st14">GMLで定義されたクラス</text>
<path class="st15" d="M84.7797089,101.9476089c1.0375671,0,1.8786621,0.8401794,1.8786621,1.8766174h0.0000305v8.2572021
	l-0.0000305,0.0000305c0,1.036438-0.841095,1.8766479-1.8786926,1.8766174c0,0.0000305,0,0,0,0h0.0000305h-8.2662354
	l-0.0000305,0.0000305c-1.0375671-0.0000305-1.8786926-0.84021-1.8786926-1.8766785h0.0000305v-8.2572021
	c0-1.036438,0.841095-1.8766479,1.8786926-1.8766174v-0.0000305h8.2662354V101.9476089L84.7797089,101.9476089z"/>
<path class="st11" d="M84.7797089,101.9476089c1.0375671,0,1.8786621,0.8401794,1.8786621,1.8766174h0.0000305v8.2572021
	l-0.0000305,0.0000305c0,1.036438-0.841095,1.8766479-1.8786926,1.8766174c0,0.0000305,0,0,0,0h0.0000305h-8.2662354
	l-0.0000305,0.0000305c-1.0375671-0.0000305-1.8786926-0.84021-1.8786926-1.8766785h0.0000305v-8.2572021
	c0-1.036438,0.841095-1.8766479,1.8786926-1.8766174v-0.0000305h8.2662354V101.9476089L84.7797089,101.9476089z"/>
<text transform="matrix(0.85 0 0 1 91.1606445 110.9575195)" class="st12 st13 st14">CityGMLで定義されたクラス</text>
<path class="st1" d="M84.7797089,116.2100906c1.0375671,0,1.8786621,0.8401489,1.8786621,1.8766174l0.0000305-0.0000305v8.2572327
	l-0.0000305,0.0000305c0,1.036438-0.841095,1.8766098-1.8786926,1.8766098l0,0h0.0000305h-8.2662354H76.513443
	c-1.0375671,0-1.8786926-0.8401718-1.8786926-1.8766403h0.0000305v-8.2572327c0-1.036438,0.841095-1.8766479,1.8786926-1.8765869
	v-0.000061h8.2662354V116.2100906L84.7797089,116.2100906z"/>
<path class="st11" d="M84.7797089,116.2100906c1.0375671,0,1.8786621,0.8401489,1.8786621,1.8766174l0.0000305-0.0000305v8.2572327
	l-0.0000305,0.0000305c0,1.036438-0.841095,1.8766098-1.8786926,1.8766098l0,0h0.0000305h-8.2662354H76.513443
	c-1.0375671,0-1.8786926-0.8401718-1.8786926-1.8766403h0.0000305v-8.2572327c0-1.036438,0.841095-1.8766479,1.8786926-1.8765869
	v-0.000061h8.2662354V116.2100906L84.7797089,116.2100906z"/>
<text transform="matrix(0.85 0 0 1 91.1606445 125.215332)" class="st12 st13 st14">i-URで定義されたクラス</text>
<text transform="matrix(0.85 0 0 1 123.4814453 83.4204102)" class="st12 st16 st17 st18">凡例</text>
<line class="st19" x1="209.1490631" y1="216.0473022" x2="254.2376556" y2="216.0473022"/>
<polyline class="st20" points="242.214035,220.551239 242.214035,211.5433655 254.2376556,216.0473022 242.214035,220.551239 "/>
<polygon class="st19" points="242.214035,220.551239 242.214035,211.5433655 254.2376556,216.0473022 "/>
<line class="st19" x1="150.5338898" y1="297.1181946" x2="150.5338898" y2="247.5748596"/>
<polyline class="st20" points="155.0427399,259.5853882 146.0250397,259.5853882 150.5338898,247.5748596 155.0427399,259.5853882 
	"/>
<polygon class="st19" points="155.0427399,259.5853882 146.0250397,259.5853882 150.5338898,247.5748596 "/>
</svg>
