<?xml version="1.0" encoding="utf-8"?>
<!-- Generator: Adobe Illustrator 27.0.0, SVG Export Plug-In . SVG Version: 6.00 Build 0)  -->
<svg version="1.1" id="レイヤー_1" xmlns="http://www.w3.org/2000/svg" xmlns:xlink="http://www.w3.org/1999/xlink" x="0px"
	 y="0px" viewBox="0 0 836.1108398 1238.4370117" style="enable-background:new 0 0 836.1108398 1238.4370117;"
	 xml:space="preserve">
<style type="text/css">
	.st0{opacity:0.5019608;fill-rule:evenodd;clip-rule:evenodd;fill:#969696;enable-background:new    ;}
	.st1{fill-rule:evenodd;clip-rule:evenodd;fill:#FFCCFF;}
	.st2{fill:none;stroke:#000000;stroke-width:1.5013124;stroke-linecap:round;stroke-linejoin:round;stroke-miterlimit:10;}
	.st3{font-family:'Calibri';}
	.st4{font-size:9.7585306px;}
	.st5{font-family:'Calibri-Bold';}
	.st6{font-family:'Calibri-Italic';}
	.st7{font-family:'Calibri-BoldItalic';}
	.st8{fill-rule:evenodd;clip-rule:evenodd;fill:#F0F0F0;}
	.st9{fill:none;stroke:#D7D7D7;stroke-width:0.7506562;stroke-linecap:square;stroke-miterlimit:10;}
	.st10{fill-rule:evenodd;clip-rule:evenodd;fill:#A0FFC0;}
	.st11{fill:none;stroke:#000000;stroke-width:0.7506562;stroke-linecap:square;stroke-miterlimit:10;}
	.st12{fill:#003060;}
	.st13{font-family:'Meiryo';}
	.st14{font-size:7.5065618px;}
	.st15{fill-rule:evenodd;clip-rule:evenodd;fill:#FFFFCC;}
	.st16{font-family:'Meiryo-Bold';}
	.st17{font-size:12.010499px;}
	.st18{letter-spacing:-2.352941;}
	.st19{fill:none;stroke:#000000;stroke-width:1.5013124;stroke-linecap:round;stroke-linejoin:bevel;stroke-miterlimit:10;}
	.st20{fill-rule:evenodd;clip-rule:evenodd;fill:#FFFFFF;}
</style>
<path class="st0" d="M507.0271606,54.2055283c1.0375366,0,1.8786011,0.8400879,1.8786011,1.8765869h0.000061v49.543335h-0.000061
	c0,1.036377-0.8410645,1.8765869-1.8786621,1.8765869l0,0h0.000061H358.2348022h-0.000061
	c-1.0375366,0-1.8786621-0.84021-1.8786621-1.8765869l0,0v-49.543335c0-1.036499,0.8411255-1.876709,1.8787231-1.8765869v-0.0001221
	h148.7923584V54.2055283L507.0271606,54.2055283z"/>
<path class="st1" d="M504.7727051,51.9534531c1.0375366,0,1.8786621,0.84021,1.8786621,1.876709h0.000061v49.543335h-0.000061
	c0,1.036377-0.8411255,1.8765869-1.8787231,1.8765869l0,0h0.000061H355.9803467l0,0
	c-1.0375977,0-1.8787231-0.84021-1.8787231-1.8765869h0.000061V53.830162c0-1.036499,0.8410645-1.876709,1.8786621-1.876709l0,0
	H504.7727051L504.7727051,51.9534531L504.7727051,51.9534531z"/>
<path class="st2" d="M504.7727051,51.9534531c1.0375366,0,1.8786621,0.84021,1.8786621,1.876709h0.000061v49.543335h-0.000061
	c0,1.036377-0.8411255,1.8765869-1.8787231,1.8765869l0,0h0.000061H355.9803467l0,0
	c-1.0375977,0-1.8787231-0.84021-1.8787231-1.8765869h0.000061V53.830162c0-1.036499,0.8410645-1.876709,1.8786621-1.876709l0,0
	H504.7727051L504.7727051,51.9534531L504.7727051,51.9534531z"/>
<text transform="matrix(0.85 0 0 1 400.6884766 65.4681244)" class="st3 st4">«FeatureType»</text>
<text transform="matrix(0.85 0 0 1 411.2119141 76.7259369)" class="st5 st4">urf::Zone</text>
<line class="st2" x1="354.1016846" y1="82.7304306" x2="506.6514282" y2="82.7304306"/>
<text transform="matrix(0.85 0 0 1 357.8603516 94.7415619)" class="st3 st4">+</text>
<text transform="matrix(0.85 0 0 1 362.3740234 94.7415619)" class="st3 st4"> </text>
<text transform="matrix(0.85 0 0 1 373.6416016 94.7415619)" class="st3 st4">location: xs::string [0..1]</text>
<path class="st0" d="M787.3278809,9.1661015c1.0374756,0,1.8786011,0.84021,1.8786011,1.8765869h0.000061v305.5170898h-0.000061
	c0,1.036499-0.8411255,1.876709-1.8787231,1.876709l0,0h0.0001221H567.1452637h-0.000061
	c-1.0375366,0-1.8786621-0.84021-1.8786621-1.876709l0,0V11.0426884c0-1.036377,0.8411255-1.8765869,1.8787231-1.8765869l0,0
	H787.3278809L787.3278809,9.1661015L787.3278809,9.1661015z"/>
<path class="st1" d="M785.0734253,6.9141479c1.0374756,0,1.8786011,0.84021,1.8786011,1.8765874h0.0001221v305.5170898h-0.0001221
	c0,1.036499-0.8411255,1.876709-1.8786621,1.876709l0,0h0.000061H564.8908081l0,0
	c-1.0375977,0-1.8787231-0.84021-1.8787231-1.876709h0.000061V8.7907352c0-1.0363774,0.8410645-1.8765874,1.8786621-1.8765874l0,0
	H785.0734253L785.0734253,6.9141479L785.0734253,6.9141479z"/>
<path class="st2" d="M785.0734253,6.9141479c1.0374756,0,1.8786011,0.84021,1.8786011,1.8765874h0.0001221v305.5170898h-0.0001221
	c0,1.036499-0.8411255,1.876709-1.8786621,1.876709l0,0h0.000061H564.8908081l0,0
	c-1.0375977,0-1.8787231-0.84021-1.8787231-1.876709h0.000061V8.7907352c0-1.0363774,0.8410645-1.8765874,1.8786621-1.8765874l0,0
	H785.0734253L785.0734253,6.9141479L785.0734253,6.9141479z"/>
<text transform="matrix(0.85 0 0 1 740.3603516 18.1712494)" class="st6 st4">_CityObject</text>
<text transform="matrix(0.85 0 0 1 644.9228516 33.9446869)" class="st3 st4">«FeatureType»</text>
<text transform="matrix(0.85 0 0 1 633.6494141 45.2024994)" class="st7 st4">u</text>
<text transform="matrix(0.85 0 0 1 638.9082031 45.2024994)" class="st7 st4">r</text>
<text transform="matrix(0.85 0 0 1 642.6601562 45.2024994)" class="st7 st4">f</text>
<text transform="matrix(0.85 0 0 1 645.6728516 45.2024994)" class="st7 st4">::</text>
<text transform="matrix(0.85 0 0 1 651.6689453 45.2024994)" class="st7 st4">_</text>
<text transform="matrix(0.85 0 0 1 656.1826172 45.2024994)" class="st7 st4">U</text>
<text transform="matrix(0.85 0 0 1 662.1992188 45.2024994)" class="st7 st4">r</text>
<text transform="matrix(0.85 0 0 1 665.9511719 45.2024994)" class="st7 st4">ba</text>
<text transform="matrix(0.85 0 0 1 676.4589844 45.2024994)" class="st7 st4">n</text>
<text transform="matrix(0.85 0 0 1 681.71875 45.2024994)" class="st7 st4">F</text>
<text transform="matrix(0.85 0 0 1 686.2216797 45.2024994)" class="st7 st4">un</text>
<text transform="matrix(0.85 0 0 1 696.7402344 45.2024994)" class="st7 st4">c</text>
<text transform="matrix(0.85 0 0 1 700.4980469 45.2024994)" class="st7 st4">ti</text>
<text transform="matrix(0.85 0 0 1 706.0800781 45.2024994)" class="st7 st4">o</text>
<text transform="matrix(0.85 0 0 1 711.3398438 45.2024994)" class="st7 st4">n</text>
<line class="st2" x1="563.012146" y1="51.2028427" x2="786.9521484" y2="51.2028427"/>
<text transform="matrix(0.85 0 0 1 566.7666016 63.2103119)" class="st3 st4">+</text>
<text transform="matrix(0.85 0 0 1 571.2802734 63.2103119)" class="st3 st4"> </text>
<text transform="matrix(0.85 0 0 1 582.5478516 63.2103119)" class="st3 st4">class: gml::CodeType [0..1]</text>
<text transform="matrix(0.85 0 0 1 566.7666016 74.4759369)" class="st3 st4">+</text>
<text transform="matrix(0.85 0 0 1 571.2802734 74.4759369)" class="st3 st4"> </text>
<text transform="matrix(0.85 0 0 1 582.5478516 74.4759369)" class="st3 st4">function: gml::CodeType [0..*]</text>
<text transform="matrix(0.85 0 0 1 566.7666016 85.7337494)" class="st3 st4">+</text>
<text transform="matrix(0.85 0 0 1 571.2802734 85.7337494)" class="st3 st4"> </text>
<text transform="matrix(0.85 0 0 1 582.5478516 85.7337494)" class="st3 st4">usage: gml::CodeType [0..*]</text>
<text transform="matrix(0.85 0 0 1 566.7666016 96.9915619)" class="st3 st4">+</text>
<text transform="matrix(0.85 0 0 1 571.2802734 96.9915619)" class="st3 st4"> </text>
<text transform="matrix(0.85 0 0 1 582.5478516 96.9915619)" class="st3 st4">validFrom: xs::date [0..1]</text>
<text transform="matrix(0.85 0 0 1 566.7666016 108.2493744)" class="st3 st4">+</text>
<text transform="matrix(0.85 0 0 1 571.2802734 108.2493744)" class="st3 st4"> </text>
<text transform="matrix(0.85 0 0 1 582.5478516 108.2493744)" class="st3 st4">validFromType: gml::CodeType [0..1]</text>
<text transform="matrix(0.85 0 0 1 566.7666016 119.5071869)" class="st3 st4">+</text>
<text transform="matrix(0.85 0 0 1 571.2802734 119.5071869)" class="st3 st4"> </text>
<text transform="matrix(0.85 0 0 1 582.5478516 119.5071869)" class="st3 st4">enactmentFiscalYear: xs::gYear [0..1]</text>
<text transform="matrix(0.85 0 0 1 566.7666016 130.7728119)" class="st3 st4">+</text>
<text transform="matrix(0.85 0 0 1 571.2802734 130.7728119)" class="st3 st4"> </text>
<text transform="matrix(0.85 0 0 1 582.5478516 130.7728119)" class="st3 st4">validTo: xs::date [0..1]</text>
<text transform="matrix(0.85 0 0 1 566.7666016 142.0306244)" class="st3 st4">+</text>
<text transform="matrix(0.85 0 0 1 571.2802734 142.0306244)" class="st3 st4"> </text>
<text transform="matrix(0.85 0 0 1 582.5478516 142.0306244)" class="st3 st4">validToType: gml::CodeType [0..1]</text>
<text transform="matrix(0.85 0 0 1 566.7666016 153.2884369)" class="st3 st4">+</text>
<text transform="matrix(0.85 0 0 1 571.2802734 153.2884369)" class="st3 st4"> </text>
<text transform="matrix(0.85 0 0 1 582.5478516 153.2884369)" class="st3 st4">expirationFiscalYear: xs::gYear [0..1]</text>
<text transform="matrix(0.85 0 0 1 566.7666016 164.5540619)" class="st3 st4">+</text>
<text transform="matrix(0.85 0 0 1 571.2802734 164.5540619)" class="st3 st4"> </text>
<text transform="matrix(0.85 0 0 1 582.5478516 164.5540619)" class="st3 st4">legalGrounds: xs::string [0..1]</text>
<text transform="matrix(0.85 0 0 1 566.7666016 175.8196869)" class="st3 st4">+</text>
<text transform="matrix(0.85 0 0 1 571.2802734 175.8196869)" class="st3 st4"> </text>
<text transform="matrix(0.85 0 0 1 582.5478516 175.8196869)" class="st3 st4">custodian: xs::string [0..1]</text>
<text transform="matrix(0.85 0 0 1 566.7666016 187.0774994)" class="st3 st4">+</text>
<text transform="matrix(0.85 0 0 1 571.2802734 187.0774994)" class="st3 st4"> </text>
<text transform="matrix(0.85 0 0 1 582.5478516 187.0774994)" class="st3 st4">notificationNumber: xs::string [0..1]</text>
<text transform="matrix(0.85 0 0 1 566.7666016 198.3353119)" class="st3 st4">+</text>
<text transform="matrix(0.85 0 0 1 571.2802734 198.3353119)" class="st3 st4"> </text>
<text transform="matrix(0.85 0 0 1 582.5478516 198.3353119)" class="st3 st4">finalNotificationNumber: xs::string [0..1]</text>
<text transform="matrix(0.85 0 0 1 566.7666016 209.6009369)" class="st3 st4">+</text>
<text transform="matrix(0.85 0 0 1 571.2802734 209.6009369)" class="st3 st4"> </text>
<text transform="matrix(0.85 0 0 1 582.5478516 209.6009369)" class="st3 st4">finalNotificationDate: xs::date [0..1]</text>
<text transform="matrix(0.85 0 0 1 566.7666016 220.8587494)" class="st3 st4">+</text>
<text transform="matrix(0.85 0 0 1 571.2802734 220.8587494)" class="st3 st4"> </text>
<text transform="matrix(0.85 0 0 1 582.5478516 220.8587494)" class="st3 st4">urbanPlanType: gml::CodeType [0..1]</text>
<text transform="matrix(0.85 0 0 1 566.7666016 232.1165619)" class="st3 st4">+</text>
<text transform="matrix(0.85 0 0 1 571.2802734 232.1165619)" class="st3 st4"> </text>
<text transform="matrix(0.85 0 0 1 582.5478516 232.1165619)" class="st3 st4">areaClassificationType: gml::CodeType [0..1]</text>
<text transform="matrix(0.85 0 0 1 566.7666016 243.3821869)" class="st3 st4">+</text>
<text transform="matrix(0.85 0 0 1 571.2802734 243.3821869)" class="st3 st4"> </text>
<text transform="matrix(0.85 0 0 1 582.5478516 243.3821869)" class="st3 st4">nominalArea: gml::MeasureType [0..1]</text>
<text transform="matrix(0.85 0 0 1 566.7666016 254.6399994)" class="st3 st4">+</text>
<text transform="matrix(0.85 0 0 1 571.2802734 254.6399994)" class="st3 st4"> </text>
<text transform="matrix(0.85 0 0 1 582.5478516 254.6399994)" class="st3 st4">prefecture: gml::CodeType [0..1]</text>
<text transform="matrix(0.85 0 0 1 566.7666016 265.8978271)" class="st3 st4">+</text>
<text transform="matrix(0.85 0 0 1 571.2802734 265.8978271)" class="st3 st4"> </text>
<text transform="matrix(0.85 0 0 1 582.5478516 265.8978271)" class="st3 st4">city: gml::CodeType [0..1]</text>
<text transform="matrix(0.85 0 0 1 566.7666016 277.1556396)" class="st3 st4">+</text>
<text transform="matrix(0.85 0 0 1 571.2802734 277.1556396)" class="st3 st4"> </text>
<text transform="matrix(0.85 0 0 1 582.5478516 277.1556396)" class="st3 st4">reference: xs::anyURI [0..1]</text>
<text transform="matrix(0.85 0 0 1 566.7666016 288.4134521)" class="st3 st4">+</text>
<text transform="matrix(0.85 0 0 1 571.2802734 288.4134521)" class="st3 st4"> </text>
<text transform="matrix(0.85 0 0 1 582.5478516 288.4134521)" class="st3 st4">reason: gml:StringOrRefType [0..1]</text>
<text transform="matrix(0.85 0 0 1 566.7666016 299.6790771)" class="st3 st4">+</text>
<text transform="matrix(0.85 0 0 1 571.2802734 299.6790771)" class="st3 st4"> </text>
<text transform="matrix(0.85 0 0 1 582.5478516 299.6790771)" class="st3 st4">note: gml:StringOrRefType [0..1]</text>
<text transform="matrix(0.85 0 0 1 566.7666016 310.9368896)" class="st3 st4">+</text>
<text transform="matrix(0.85 0 0 1 571.2802734 310.9368896)" class="st3 st4"> </text>
<text transform="matrix(0.85 0 0 1 582.5478516 310.9368896)" class="st3 st4">surveyYear: xs::gYear [0..1]</text>
<path class="st0" d="M276.3238525,162.3000183c1.0375977,0,1.8786621,0.8400879,1.8786621,1.8765869h0.000061v168.1469727
	l-0.000061,0.0001221c0,1.036377-0.8410645,1.8765869-1.8786621,1.8764648c0,0.0001221,0,0,0,0l0,0H10.3012085l-0.0000153,0.0001221
	c-1.0375671-0.0001221-1.8786926-0.84021-1.8786926-1.876709h0.0000153V164.1766052
	c0-1.036499,0.8411102-1.8765869,1.8786926-1.8765869l0,0H276.3238525L276.3238525,162.3000183L276.3238525,162.3000183z"/>
<path class="st1" d="M274.069458,160.0480652c1.0375366,0,1.8786621,0.8400879,1.8786621,1.8765869l0,0v168.1469727l0,0
	c0,1.036499-0.8411255,1.876709-1.8787231,1.8765869c0,0.0001221,0,0,0,0h0.000061H8.0467834l-0.0000153,0.0001221
	c-1.0375676-0.0001221-1.8786931-0.84021-1.8786931-1.876709h0.0000153V161.9246521
	c0-1.036499,0.8411102-1.876709,1.8786931-1.8765869v-0.0001221H274.069458V160.0480652L274.069458,160.0480652z"/>
<path class="st2" d="M274.069458,160.0480652c1.0375366,0,1.8786621,0.8400879,1.8786621,1.8765869l0,0v168.1469727l0,0
	c0,1.036499-0.8411255,1.876709-1.8787231,1.8765869c0,0.0001221,0,0,0,0h0.000061H8.0467834l-0.0000153,0.0001221
	c-1.0375676-0.0001221-1.8786931-0.84021-1.8786931-1.876709h0.0000153V161.9246521
	c0-1.036499,0.8411102-1.876709,1.8786931-1.8765869v-0.0001221H274.069458V160.0480652L274.069458,160.0480652z"/>
<text transform="matrix(0.85 0 0 1 111.3754883 173.5618744)" class="st3 st4">«FeatureType»</text>
<text transform="matrix(0.85 0 0 1 109.8676758 184.8196869)" class="st5 st4">urf::UseDistrict</text>
<line class="st2" x1="6.1680903" y1="190.8249207" x2="275.9481201" y2="190.8249207"/>
<text transform="matrix(0.85 0 0 1 9.9223633 202.8431244)" class="st3 st4">+</text>
<text transform="matrix(0.85 0 0 1 14.4360352 202.8431244)" class="st3 st4"> </text>
<text transform="matrix(0.85 0 0 1 25.7036133 202.8431244)" class="st3 st4">floorAreaRate: xs::integer</text>
<text transform="matrix(0.85 0 0 1 9.9223633 214.1009369)" class="st3 st4">+</text>
<text transform="matrix(0.85 0 0 1 14.4360352 214.1009369)" class="st3 st4"> </text>
<text transform="matrix(0.85 0 0 1 25.7036133 214.1009369)" class="st3 st4">minimumSiteArea: gml::MeasureType [0..1]</text>
<text transform="matrix(0.85 0 0 1 9.9223633 225.3587494)" class="st3 st4">+</text>
<text transform="matrix(0.85 0 0 1 14.4360352 225.3587494)" class="st3 st4"> </text>
<text transform="matrix(0.85 0 0 1 25.7036133 225.3587494)" class="st3 st4">buildingCoverageRate: xs::integer [0..1]</text>
<text transform="matrix(0.85 0 0 1 9.9223633 236.6165619)" class="st3 st4">+</text>
<text transform="matrix(0.85 0 0 1 14.4360352 236.6165619)" class="st3 st4"> </text>
<text transform="matrix(0.85 0 0 1 25.7036133 236.6165619)" class="st3 st4">wallSetbackDistance: gml:StringOrRefType [0..1]</text>
<text transform="matrix(0.85 0 0 1 9.9223633 247.8821869)" class="st3 st4">+</text>
<text transform="matrix(0.85 0 0 1 14.4360352 247.8821869)" class="st3 st4"> </text>
<text transform="matrix(0.85 0 0 1 25.7036133 247.8821869)" class="st3 st4">buildingHeightLimits: gml::LengthType [0..1]</text>
<text transform="matrix(0.85 0 0 1 9.9223633 259.1400146)" class="st3 st4">+</text>
<text transform="matrix(0.85 0 0 1 14.4360352 259.1400146)" class="st3 st4"> </text>
<text transform="matrix(0.85 0 0 1 25.7036133 259.1400146)" class="st3 st4">buildingRestrictions: gml:StringOrRefType [0..1]</text>
<text transform="matrix(0.85 0 0 1 9.9223633 270.3978271)" class="st3 st4">+</text>
<text transform="matrix(0.85 0 0 1 14.4360352 270.3978271)" class="st3 st4"> </text>
<text transform="matrix(0.85 0 0 1 25.7036133 270.3978271)" class="st3 st4">otherRestrictions: gml:StringOrRefType [0..1]</text>
<text transform="matrix(0.85 0 0 1 9.9223633 281.6634521)" class="st3 st4">+</text>
<text transform="matrix(0.85 0 0 1 14.4360352 281.6634521)" class="st3 st4"> </text>
<text transform="matrix(0.85 0 0 1 25.7036133 281.6634521)" class="st3 st4">setbackRestrictions: gml:StringOrRefType [0..1]</text>
<text transform="matrix(0.85 0 0 1 9.9223633 292.9212646)" class="st3 st4">+</text>
<text transform="matrix(0.85 0 0 1 14.4360352 292.9212646)" class="st3 st4"> </text>
<text transform="matrix(0.85 0 0 1 25.7036133 292.9212646)" class="st3 st4">frontRoadRestrictions: gml:StringOrRefType [0..1]</text>
<text transform="matrix(0.85 0 0 1 9.9223633 304.1790771)" class="st3 st4">+</text>
<text transform="matrix(0.85 0 0 1 14.4360352 304.1790771)" class="st3 st4"> </text>
<text transform="matrix(0.85 0 0 1 25.7036133 304.1790771)" class="st3 st4">adjacentLandRestrictions: gml:StringOrRefType [0..1]</text>
<text transform="matrix(0.85 0 0 1 9.9223633 315.4368896)" class="st3 st4">+</text>
<text transform="matrix(0.85 0 0 1 14.4360352 315.4368896)" class="st3 st4"> </text>
<text transform="matrix(0.85 0 0 1 25.7036133 315.4368896)" class="st3 st4">northDirectionRestrictions: gml:StringOrRefType [0..1]</text>
<text transform="matrix(0.85 0 0 1 9.9223633 326.6947021)" class="st3 st4">+</text>
<text transform="matrix(0.85 0 0 1 14.4360352 326.6947021)" class="st3 st4"> </text>
<text transform="matrix(0.85 0 0 1 25.7036133 326.6947021)" class="st3 st4">shadeRegulation: gml:StringOrRefType [0..1]</text>
<path class="st0" d="M516.7963257,154.7934265c1.0375366,0,1.8786621,0.84021,1.8786621,1.8765869h0.000061v44.2886963h-0.000061
	c0,1.036499-0.8411255,1.876709-1.8787231,1.876709l0,0h0.000061H349.2171021h-0.000061
	c-1.0375366,0-1.8786621-0.84021-1.8786621-1.876709l0,0v-44.2886963c0-1.036377,0.8411255-1.8765869,1.8787231-1.8765869l0,0
	H516.7963257L516.7963257,154.7934265L516.7963257,154.7934265z"/>
<path class="st1" d="M514.5419312,152.5414734c1.0375366,0,1.8786011,0.84021,1.8786011,1.8765869h0.000061v44.2886963h-0.000061
	c0,1.036499-0.8410645,1.876709-1.8786621,1.876709l0,0h0.000061H346.9626465l0,0
	c-1.0375977,0-1.8787231-0.84021-1.8787231-1.876709h0.000061v-44.2886963c0-1.036377,0.8410645-1.8765869,1.8786621-1.8765869l0,0
	H514.5419312L514.5419312,152.5414734L514.5419312,152.5414734z"/>
<path class="st2" d="M514.5419312,152.5414734c1.0375366,0,1.8786011,0.84021,1.8786011,1.8765869h0.000061v44.2886963h-0.000061
	c0,1.036499-0.8410645,1.876709-1.8786621,1.876709l0,0h0.000061H346.9626465l0,0
	c-1.0375977,0-1.8787231-0.84021-1.8787231-1.876709h0.000061v-44.2886963c0-1.036377,0.8410645-1.8765869,1.8786621-1.8765869l0,0
	H514.5419312L514.5419312,152.5414734L514.5419312,152.5414734z"/>
<text transform="matrix(0.85 0 0 1 400.6884766 166.0540619)" class="st3 st4">«FeatureType»</text>
<text transform="matrix(0.85 0 0 1 384.9072266 177.3118744)" class="st5 st4">urf::DistrictsAndZones</text>
<line class="st2" x1="345.0839844" y1="183.3183289" x2="516.4205933" y2="183.3183289"/>
<text transform="matrix(0.85 0 0 1 348.8369141 195.3353119)" class="st3 st4">+</text>
<text transform="matrix(0.85 0 0 1 353.3505859 195.3353119)" class="st3 st4"> </text>
<text transform="matrix(0.85 0 0 1 364.6181641 195.3353119)" class="st3 st4">areaInTotal: gml::MeasureType [0..1]</text>
<path class="st0" d="M276.3238525,342.457489c1.0375977,0,1.8786621,0.84021,1.8786621,1.876709l0.000061-0.0001221v55.548584
	h-0.000061c0,1.036499-0.8410645,1.876709-1.8786621,1.8765869c0,0.0001221,0,0,0,0l0,0H11.0526886l-0.0000153,0.0001221
	c-1.0375671-0.0001221-1.8786926-0.84021-1.8786926-1.876709H9.173996v-55.548584
	c0-1.036377,0.8411102-1.8765869,1.8786926-1.8765869l0,0H276.3238525L276.3238525,342.457489L276.3238525,342.457489z"/>
<path class="st1" d="M274.069458,340.2055359c1.0375366,0,1.8786621,0.84021,1.8786621,1.8765869l0,0v55.548584l0,0
	c0,1.036499-0.8411255,1.8765869-1.8787231,1.8765869l0,0h0.000061H8.7982483l0,0
	c-1.0375676,0-1.8786931-0.8400879-1.8786931-1.8765869h0.0000153v-55.548584c0-1.036377,0.8411102-1.8765869,1.8786778-1.8765869
	l0,0H274.069458L274.069458,340.2055359L274.069458,340.2055359z"/>
<path class="st2" d="M274.069458,340.2055359c1.0375366,0,1.8786621,0.84021,1.8786621,1.8765869l0,0v55.548584l0,0
	c0,1.036499-0.8411255,1.8765869-1.8787231,1.8765869l0,0h0.000061H8.7982483l0,0
	c-1.0375676,0-1.8786931-0.8400879-1.8786931-1.8765869h0.0000153v-55.548584c0-1.036377,0.8411102-1.8765869,1.8786778-1.8765869
	l0,0H274.069458L274.069458,340.2055359L274.069458,340.2055359z"/>
<text transform="matrix(0.85 0 0 1 111.3754883 353.7181396)" class="st3 st4">«FeatureType»</text>
<text transform="matrix(0.85 0 0 1 96.3442383 364.9759521)" class="st5 st4">urf::SpecialUseDistrict</text>
<line class="st2" x1="6.9195704" y1="370.9823914" x2="275.9481201" y2="370.9823914"/>
<text transform="matrix(0.85 0 0 1 10.6723633 382.9993896)" class="st3 st4">+</text>
<text transform="matrix(0.85 0 0 1 15.1860352 382.9993896)" class="st3 st4"> </text>
<text transform="matrix(0.85 0 0 1 26.4536133 382.9993896)" class="st3 st4">buildingRestrictions: gml:StringOrRefType [0..1]</text>
<text transform="matrix(0.85 0 0 1 10.6723633 394.2572021)" class="st3 st4">+</text>
<text transform="matrix(0.85 0 0 1 15.1860352 394.2572021)" class="st3 st4"> </text>
<text transform="matrix(0.85 0 0 1 26.4536133 394.2572021)" class="st3 st4">otherRestrictions: gml:StringOrRefType [0..1]</text>
<path class="st0" d="M276.3238525,418.2737732c1.0375977,0,1.8786621,0.84021,1.8786621,1.8765869h0.000061v55.548584h-0.000061
	c0,1.036377-0.8410645,1.876709-1.8786621,1.8765869c0,0.0001221,0,0,0,0l0,0H11.0526886l-0.0000153,0.0001221
	c-1.0375671-0.0001221-1.8786926-0.840332-1.8786926-1.876709H9.173996v-55.548584
	c0-1.036377,0.8411102-1.876709,1.8786926-1.8765869v-0.0001221h265.2711792V418.2737732L276.3238525,418.2737732z"/>
<path class="st1" d="M274.069458,416.0218201c1.0375366,0,1.8786621,0.84021,1.8786621,1.8765869l0,0v55.548584l0,0
	c0,1.036377-0.8411255,1.876709-1.8787231,1.8765869c0,0.0001221,0,0,0,0h0.000061H8.7982483V475.3237
	c-1.0375676-0.0001221-1.8786931-0.840332-1.8786931-1.876709h0.0000153v-55.548584
	c0-1.036377,0.8411102-1.876709,1.8786778-1.8765869v-0.0001221H274.069458V416.0218201L274.069458,416.0218201z"/>
<path class="st2" d="M274.069458,416.0218201c1.0375366,0,1.8786621,0.84021,1.8786621,1.8765869l0,0v55.548584l0,0
	c0,1.036377-0.8411255,1.876709-1.8787231,1.8765869c0,0.0001221,0,0,0,0h0.000061H8.7982483V475.3237
	c-1.0375676-0.0001221-1.8786931-0.840332-1.8786931-1.876709h0.0000153v-55.548584
	c0-1.036377,0.8411102-1.876709,1.8786778-1.8765869v-0.0001221H274.069458V416.0218201L274.069458,416.0218201z"/>
<text transform="matrix(0.85 0 0 1 111.3754883 429.5384521)" class="st3 st4">«FeatureType»</text>
<text transform="matrix(0.85 0 0 1 74.5551758 440.8040771)" class="st5 st4">urf::SpecialUseRestrictionDistrict</text>
<line class="st2" x1="6.9195704" y1="446.7986755" x2="275.9481201" y2="446.7986755"/>
<text transform="matrix(0.85 0 0 1 10.6723633 458.8040771)" class="st3 st4">+</text>
<text transform="matrix(0.85 0 0 1 15.1860352 458.8040771)" class="st3 st4"> </text>
<text transform="matrix(0.85 0 0 1 26.4536133 458.8040771)" class="st3 st4">buildingRestrictions: gml:StringOrRefType [0..1]</text>
<text transform="matrix(0.85 0 0 1 10.6723633 470.0697021)" class="st3 st4">+</text>
<text transform="matrix(0.85 0 0 1 15.1860352 470.0697021)" class="st3 st4"> </text>
<text transform="matrix(0.85 0 0 1 26.4536133 470.0697021)" class="st3 st4">otherRestrictions: gml:StringOrRefType [0..1]</text>
<path class="st0" d="M207.9395294,485.0822449c1.0375671,0,1.8786621,0.8400879,1.8786621,1.8765869l0.0000305-0.0001221v44.2888489
	h-0.0000305c0,1.036377-0.841095,1.876709-1.8786926,1.8765869c0,0.0001221,0,0,0,0h0.0000305H11.0526886l-0.0000153,0.0001221
	c-1.0375671-0.0001221-1.8786926-0.840332-1.8786926-1.876709H9.173996v-44.2888489
	c0-1.036377,0.8411102-1.8765869,1.8786926-1.8764648v-0.0001221h196.8868408V485.0822449L207.9395294,485.0822449z"/>
<path class="st1" d="M205.6851044,482.8301697c1.0375671,0,1.8786621,0.84021,1.8786621,1.8765869l0,0v44.2888489l0,0
	c0,1.036377-0.841095,1.876709-1.8786926,1.8765869c0,0.0001221,0,0,0,0h0.0000305H8.7982483v0.0001221
	c-1.0375676-0.0001221-1.8786931-0.840332-1.8786931-1.876709h0.0000153v-44.2888489
	c0-1.036377,0.8411102-1.8765869,1.8786778-1.8765869l0,0H205.6851044L205.6851044,482.8301697L205.6851044,482.8301697z"/>
<path class="st2" d="M205.6851044,482.8301697c1.0375671,0,1.8786621,0.84021,1.8786621,1.8765869l0,0v44.2888489l0,0
	c0,1.036377-0.841095,1.876709-1.8786926,1.8765869c0,0.0001221,0,0,0,0h0.0000305H8.7982483v0.0001221
	c-1.0375676-0.0001221-1.8786931-0.840332-1.8786931-1.876709h0.0000153v-44.2888489
	c0-1.036377,0.8411102-1.8765869,1.8786778-1.8765869l0,0H205.6851044L205.6851044,482.8301697L205.6851044,482.8301697z"/>
<text transform="matrix(0.85 0 0 1 77.5551758 496.3509521)" class="st3 st4">«FeatureType»</text>
<text transform="matrix(0.85 0 0 1 30.9614258 507.6087646)" class="st5 st4">urf::ExceptionalFloorAreaRateDistrict</text>
<line class="st2" x1="6.9195704" y1="513.6071777" x2="207.5637665" y2="513.6071777"/>
<text transform="matrix(0.85 0 0 1 10.6723633 525.6243896)" class="st3 st4">+</text>
<text transform="matrix(0.85 0 0 1 15.1860352 525.6243896)" class="st3 st4"> </text>
<text transform="matrix(0.85 0 0 1 26.4536133 525.6243896)" class="st3 st4">buildingHeightLimits: gml::LengthType [0..1]</text>
<path class="st0" d="M393.5541992,540.6307373c1.0375366,0,1.8786621,0.84021,1.8786621,1.8765869l0,0v70.5617676l0,0
	c0,1.036377-0.8411255,1.876709-1.8787231,1.8765869c0,0.0001221,0,0,0,0h0.000061H176.3775177l-0.0000305,0.0001221
	c-1.0375671-0.0001221-1.8786926-0.840332-1.8786926-1.876709h0.0000305v-70.5617676
	c0-1.036377,0.841095-1.8765869,1.8786926-1.8765869l0,0H393.5541992L393.5541992,540.6307373L393.5541992,540.6307373z"/>
<path class="st1" d="M391.2997437,538.3787842c1.0375366,0,1.8786621,0.84021,1.8786621,1.8765869h0.000061v70.5617676h-0.000061
	c0,1.036377-0.8411255,1.8765869-1.8786621,1.8765869l0,0l0,0h-217.176651h-0.0000305
	c-1.0375671,0-1.8786926-0.84021-1.8786926-1.8765869H172.2444v-70.5617676c0-1.036377,0.841095-1.876709,1.8786926-1.8765869
	v-0.0001221h217.176651V538.3787842L391.2997437,538.3787842z"/>
<path class="st2" d="M391.2997437,538.3787842c1.0375366,0,1.8786621,0.84021,1.8786621,1.8765869h0.000061v70.5617676h-0.000061
	c0,1.036377-0.8411255,1.8765869-1.8786621,1.8765869l0,0l0,0h-217.176651h-0.0000305
	c-1.0375671,0-1.8786926-0.84021-1.8786926-1.8765869H172.2444v-70.5617676c0-1.036377,0.841095-1.876709,1.8786926-1.8765869
	v-0.0001221h217.176651V538.3787842L391.2997437,538.3787842z"/>
<text transform="matrix(0.85 0 0 1 252.6489258 551.8978271)" class="st3 st4">«FeatureType»</text>
<text transform="matrix(0.85 0 0 1 198.5395508 563.1556396)" class="st5 st4">urf::HighRiseResidentialAttractionDistrict</text>
<line class="st2" x1="172.2444" y1="569.1556396" x2="393.1784668" y2="569.1556396"/>
<text transform="matrix(0.85 0 0 1 176.0004883 581.1712646)" class="st3 st4">+</text>
<text transform="matrix(0.85 0 0 1 180.5141602 581.1712646)" class="st3 st4"> </text>
<text transform="matrix(0.85 0 0 1 191.7817383 581.1712646)" class="st3 st4">floorAreaRate: xs::integer</text>
<text transform="matrix(0.85 0 0 1 176.0004883 592.4290771)" class="st3 st4">+</text>
<text transform="matrix(0.85 0 0 1 180.5141602 592.4290771)" class="st3 st4"> </text>
<text transform="matrix(0.85 0 0 1 191.7817383 592.4290771)" class="st3 st4">maximumBuildingCoverageRate: xs::integer [0..1]</text>
<text transform="matrix(0.85 0 0 1 176.0004883 603.6947021)" class="st3 st4">+</text>
<text transform="matrix(0.85 0 0 1 180.5141602 603.6947021)" class="st3 st4"> </text>
<text transform="matrix(0.85 0 0 1 191.7817383 603.6947021)" class="st3 st4">minimumSiteArea: gml::MeasureType [0..1]</text>
<path class="st0" d="M222.9690399,619.449707c1.0375671,0,1.8786621,0.8400879,1.8786621,1.8765869l0.0000305-0.0001221v55.548645
	l-0.0000305,0.000061c0,1.036377-0.841095,1.8765869-1.8786621,1.8765869l0,0l0,0H11.0526886h-0.0000153
	c-1.0375671,0-1.8786926-0.84021-1.8786926-1.8766479H9.173996v-55.548645c0-1.036377,0.8411102-1.8765869,1.8786926-1.8764648
	v-0.0001221h211.9163513V619.449707L222.9690399,619.449707z"/>
<path class="st1" d="M220.7146149,617.1977539c1.0375671,0,1.8786621,0.8400879,1.8786621,1.8765869l0.0000305-0.0001221v55.548645
	h-0.0000305c0,1.036438-0.841095,1.8766479-1.8786926,1.8765869c0,0.000061,0,0,0,0h0.0000305H8.7982483v0.000061
	c-1.0375676-0.000061-1.8786931-0.84021-1.8786931-1.8766479h0.0000153v-55.548645
	c0-1.036377,0.8411102-1.8765869,1.8786778-1.8764648v-0.0001221h211.9163666V617.1977539L220.7146149,617.1977539z"/>
<path class="st2" d="M220.7146149,617.1977539c1.0375671,0,1.8786621,0.8400879,1.8786621,1.8765869l0.0000305-0.0001221v55.548645
	h-0.0000305c0,1.036438-0.841095,1.8766479-1.8786926,1.8765869c0,0.000061,0,0,0,0h0.0000305H8.7982483v0.000061
	c-1.0375676-0.000061-1.8786931-0.84021-1.8786931-1.8766479h0.0000153v-55.548645
	c0-1.036377,0.8411102-1.8765869,1.8786778-1.8764648v-0.0001221h211.9163666V617.1977539L220.7146149,617.1977539z"/>
<text transform="matrix(0.85 0 0 1 85.0708008 630.7103271)" class="st3 st4">«FeatureType»</text>
<text transform="matrix(0.85 0 0 1 62.5239258 641.9759521)" class="st5 st4">urf::HeightControlDistrict</text>
<line class="st2" x1="6.9195704" y1="647.9746094" x2="222.5933075" y2="647.9746094"/>
<text transform="matrix(0.85 0 0 1 10.6723633 659.9915771)" class="st3 st4">+</text>
<text transform="matrix(0.85 0 0 1 15.1860352 659.9915771)" class="st3 st4"> </text>
<text transform="matrix(0.85 0 0 1 26.4536133 659.9915771)" class="st3 st4">maximumBuildingHeight: gml::LengthType [0..1]</text>
<text transform="matrix(0.85 0 0 1 10.6723633 671.2493896)" class="st3 st4">+</text>
<text transform="matrix(0.85 0 0 1 15.1860352 671.2493896)" class="st3 st4"> </text>
<text transform="matrix(0.85 0 0 1 26.4536133 671.2493896)" class="st3 st4">minimumBuildingHeight: gml::LengthType [0..1]</text>
<path class="st0" d="M412.3411255,686.2580566c1.0375366,0,1.8786011,0.84021,1.8786011,1.8766479l0.000061-0.000061v89.328064
	l-0.000061,0.0001221c0,1.036377-0.8410645,1.8766479-1.8786621,1.8765259c0,0.0001221,0,0,0,0h0.000061H191.4070282v0.0001221
	c-1.0375977-0.0001221-1.8786926-0.840271-1.8786926-1.87677l0,0v-89.328064c0-1.036377,0.841095-1.8766479,1.8786926-1.8765869
	v-0.000061h220.9340973V686.2580566L412.3411255,686.2580566z"/>
<path class="st1" d="M410.0866699,684.0061035c1.0375366,0,1.8786621,0.8401489,1.8786621,1.8766479l0.000061-0.000061v89.328064
	l-0.000061,0.0001221c0,1.036377-0.8411255,1.8766479-1.8787231,1.8765259c0,0.0001221,0,0,0,0h0.000061H189.1526031
	l-0.0000305,0.0001221c-1.0375671-0.0001221-1.8786926-0.840271-1.8786926-1.87677h0.0000305v-89.328064
	c0-1.036438,0.841095-1.8766479,1.8786926-1.8765869v-0.000061h220.9340668V684.0061035L410.0866699,684.0061035z"/>
<path class="st2" d="M410.0866699,684.0061035c1.0375366,0,1.8786621,0.8401489,1.8786621,1.8766479l0.000061-0.000061v89.328064
	l-0.000061,0.0001221c0,1.036377-0.8411255,1.8766479-1.8787231,1.8765259c0,0.0001221,0,0,0,0h0.000061H189.1526031
	l-0.0000305,0.0001221c-1.0375671-0.0001221-1.8786926-0.840271-1.8786926-1.87677h0.0000305v-89.328064
	c0-1.036438,0.841095-1.8766479,1.8786926-1.8765869v-0.000061h220.9340668V684.0061035L410.0866699,684.0061035z"/>
<text transform="matrix(0.85 0 0 1 269.9301758 697.5228271)" class="st3 st4">«FeatureType»</text>
<text transform="matrix(0.85 0 0 1 248.8911133 708.7806396)" class="st5 st4">urf::HighLevelUseDistrict</text>
<line class="st2" x1="187.2739105" y1="714.782959" x2="411.9653931" y2="714.782959"/>
<text transform="matrix(0.85 0 0 1 191.0239258 726.7962646)" class="st3 st4">+</text>
<text transform="matrix(0.85 0 0 1 195.5375977 726.7962646)" class="st3 st4"> </text>
<text transform="matrix(0.85 0 0 1 206.8051758 726.7962646)" class="st3 st4">maximumFloorAreaRate: xs::integer [1..*]</text>
<text transform="matrix(0.85 0 0 1 191.0239258 738.0540771)" class="st3 st4">+</text>
<text transform="matrix(0.85 0 0 1 195.5375977 738.0540771)" class="st3 st4"> </text>
<text transform="matrix(0.85 0 0 1 206.8051758 738.0540771)" class="st3 st4">minimumFloorAreaRate: xs::integer [1..*]</text>
<text transform="matrix(0.85 0 0 1 191.0239258 749.3197021)" class="st3 st4">+</text>
<text transform="matrix(0.85 0 0 1 195.5375977 749.3197021)" class="st3 st4"> </text>
<text transform="matrix(0.85 0 0 1 206.8051758 749.3197021)" class="st3 st4">maximumBuildingCoverageRate: xs::integer [1..*]</text>
<text transform="matrix(0.85 0 0 1 191.0239258 760.5775146)" class="st3 st4">+</text>
<text transform="matrix(0.85 0 0 1 195.5375977 760.5775146)" class="st3 st4"> </text>
<text transform="matrix(0.85 0 0 1 206.8051758 760.5775146)" class="st3 st4">minimumBuildingArea: gml::MeasureType [1..*]</text>
<text transform="matrix(0.85 0 0 1 191.0239258 771.8353271)" class="st3 st4">+</text>
<text transform="matrix(0.85 0 0 1 195.5375977 771.8353271)" class="st3 st4"> </text>
<text transform="matrix(0.85 0 0 1 206.8051758 771.8353271)" class="st3 st4">setbackSize: gml:StringOrRefType [0..1]</text>
<path class="st0" d="M208.6909943,785.3447266c1.0375671,0,1.8786621,0.8401489,1.8786621,1.8766479l0.0000305-0.0001221v70.5617065
	l-0.0000305,0.000061c0,1.036377-0.841095,1.8766479-1.8786926,1.8765869c0,0.000061,0,0,0,0h0.0000305H18.5674438v0.000061
	c-1.0375671-0.000061-1.8786926-0.840271-1.8786926-1.876709l0,0v-70.5617065c0-1.036377,0.8411255-1.8766479,1.8786926-1.8765259
	v-0.0001221h190.1235504V785.3447266L208.6909943,785.3447266z"/>
<path class="st1" d="M206.4365692,783.0927734c1.0375671,0,1.8786621,0.8401489,1.8786621,1.8765869l0.0000305-0.000061v70.5617065
	l-0.0000305,0.000061c0,1.036377-0.841095,1.8766479-1.8786926,1.8765259c0,0.0001221,0,0,0,0h0.0000305H16.3130188
	l-0.0000153,0.0001221c-1.0375671-0.0001221-1.8786926-0.840271-1.8786926-1.876709h0.0000153v-70.5617065
	c0-1.036377,0.8411102-1.8766479,1.8786926-1.8765259v-0.0001221h190.1235504V783.0927734L206.4365692,783.0927734z"/>
<path class="st2" d="M206.4365692,783.0927734c1.0375671,0,1.8786621,0.8401489,1.8786621,1.8765869l0.0000305-0.000061v70.5617065
	l-0.0000305,0.000061c0,1.036377-0.841095,1.8766479-1.8786926,1.8765259c0,0.0001221,0,0,0,0h0.0000305H16.3130188
	l-0.0000153,0.0001221c-1.0375671-0.0001221-1.8786926-0.840271-1.8786926-1.876709h0.0000153v-70.5617065
	c0-1.036377,0.8411102-1.8766479,1.8786926-1.8765259v-0.0001221h190.1235504V783.0927734L206.4365692,783.0927734z"/>
<text transform="matrix(0.85 0 0 1 81.3129883 796.6087646)" class="st3 st4">«FeatureType»</text>
<text transform="matrix(0.85 0 0 1 73.7973633 807.8665771)" class="st5 st4">urf::SpecifiedBlock</text>
<line class="st2" x1="14.4343262" y1="813.8695679" x2="208.3152618" y2="813.8695679"/>
<text transform="matrix(0.85 0 0 1 18.1879883 825.8822021)" class="st3 st4">+</text>
<text transform="matrix(0.85 0 0 1 22.7016602 825.8822021)" class="st3 st4"> </text>
<text transform="matrix(0.85 0 0 1 33.9692383 825.8822021)" class="st3 st4">floorAreaRate: xs::integer</text>
<text transform="matrix(0.85 0 0 1 18.1879883 837.1478271)" class="st3 st4">+</text>
<text transform="matrix(0.85 0 0 1 22.7016602 837.1478271)" class="st3 st4"> </text>
<text transform="matrix(0.85 0 0 1 33.9692383 837.1478271)" class="st3 st4">maximumBuildingHeight: gml::LengthType</text>
<text transform="matrix(0.85 0 0 1 18.1879883 848.3978271)" class="st3 st4">+</text>
<text transform="matrix(0.85 0 0 1 22.7016602 848.3978271)" class="st3 st4"> </text>
<text transform="matrix(0.85 0 0 1 33.9692383 848.3978271)" class="st3 st4">setbackSize: gml:StringOrRefType</text>
<path class="st0" d="M397.3115845,867.1662598c1.0375366,0,1.8786621,0.8401489,1.8786621,1.8766479v-0.0001221v123.107605
	v0.0001221c0,1.036377-0.8411255,1.8765869-1.8787231,1.8765869l0,0h0.000061H153.8332062h-0.0000305
	c-1.0375671,0-1.8786621-0.84021-1.8786621-1.876709l0,0v-123.107605c0-1.036377,0.841095-1.8766479,1.8786926-1.8765259v-0.0001221
	h243.4783783V867.1662598L397.3115845,867.1662598z"/>
<path class="st1" d="M395.0571289,864.9142456c1.0375366,0,1.8786621,0.84021,1.8786621,1.8766479l0.000061-0.000061v123.107605
	l-0.000061,0.0001221c0,1.036377-0.8411255,1.8765869-1.8787231,1.8764648c0,0.0001221,0,0,0,0h0.000061H151.5787811
	l-0.0000305,0.0001221c-1.0375671-0.0001221-1.8786926-0.84021-1.8786926-1.876709h0.0000305v-123.107605
	c0-1.036377,0.841095-1.8766479,1.8786926-1.8765869v-0.000061h243.4783478V864.9142456L395.0571289,864.9142456z"/>
<path class="st2" d="M395.0571289,864.9142456c1.0375366,0,1.8786621,0.84021,1.8786621,1.8766479l0.000061-0.000061v123.107605
	l-0.000061,0.0001221c0,1.036377-0.8411255,1.8765869-1.8787231,1.8764648c0,0.0001221,0,0,0,0h0.000061H151.5787811
	l-0.0000305,0.0001221c-1.0375671-0.0001221-1.8786926-0.84021-1.8786926-1.876709h0.0000305v-123.107605
	c0-1.036377,0.841095-1.8766479,1.8786926-1.8765869v-0.000061h243.4783478V864.9142456L395.0571289,864.9142456z"/>
<text transform="matrix(0.85 0 0 1 243.6333008 878.4290771)" class="st3 st4">«FeatureType»</text>
<text transform="matrix(0.85 0 0 1 199.2973633 889.6868896)" class="st5 st4">urf::SpecialUrbanRenaissanceDistrict</text>
<line class="st2" x1="149.7000885" y1="895.6911011" x2="396.9358521" y2="895.6911011"/>
<text transform="matrix(0.85 0 0 1 153.4536133 907.7025146)" class="st3 st4">+</text>
<text transform="matrix(0.85 0 0 1 157.9672852 907.7025146)" class="st3 st4"> </text>
<text transform="matrix(0.85 0 0 1 169.2348633 907.7025146)" class="st3 st4">useToBeInduced: gml:StringOrRefType</text>
<text transform="matrix(0.85 0 0 1 153.4536133 918.9603271)" class="st3 st4">+</text>
<text transform="matrix(0.85 0 0 1 157.9672852 918.9603271)" class="st3 st4"> </text>
<text transform="matrix(0.85 0 0 1 169.2348633 918.9603271)" class="st3 st4">maximumFloorAreaRate: xs::integer</text>
<text transform="matrix(0.85 0 0 1 153.4536133 930.2259521)" class="st3 st4">+</text>
<text transform="matrix(0.85 0 0 1 157.9672852 930.2259521)" class="st3 st4"> </text>
<text transform="matrix(0.85 0 0 1 169.2348633 930.2259521)" class="st3 st4">minimumFloorAreaRate: xs::integer</text>
<text transform="matrix(0.85 0 0 1 153.4536133 941.4837646)" class="st3 st4">+</text>
<text transform="matrix(0.85 0 0 1 157.9672852 941.4837646)" class="st3 st4"> </text>
<text transform="matrix(0.85 0 0 1 169.2348633 941.4837646)" class="st3 st4">maximumBuildingCoverageRate: xs::integer</text>
<text transform="matrix(0.85 0 0 1 153.4536133 952.7415771)" class="st3 st4">+</text>
<text transform="matrix(0.85 0 0 1 157.9672852 952.7415771)" class="st3 st4"> </text>
<text transform="matrix(0.85 0 0 1 169.2348633 952.7415771)" class="st3 st4">minimumBuildingArea: gml::MeasureType</text>
<text transform="matrix(0.85 0 0 1 153.4536133 964.0072021)" class="st3 st4">+</text>
<text transform="matrix(0.85 0 0 1 157.9672852 964.0072021)" class="st3 st4"> </text>
<text transform="matrix(0.85 0 0 1 169.2348633 964.0072021)" class="st3 st4">maximumBuildingHeight: gml:StringOrRefType</text>
<text transform="matrix(0.85 0 0 1 153.4536133 975.2650146)" class="st3 st4">+</text>
<text transform="matrix(0.85 0 0 1 157.9672852 975.2650146)" class="st3 st4"> </text>
<text transform="matrix(0.85 0 0 1 169.2348633 975.2650146)" class="st3 st4">setbackSize: gml:StringOrRefType</text>
<text transform="matrix(0.85 0 0 1 153.4536133 986.5228271)" class="st3 st4">+</text>
<text transform="matrix(0.85 0 0 1 157.9672852 986.5228271)" class="st3 st4"> </text>
<text transform="matrix(0.85 0 0 1 169.2348633 986.5228271)" class="st3 st4">otherRestrictions: gml:StringOrRefType [0..1]</text>
<path class="st0" d="M119.2653046,973.7593994c1.0375671,0,1.8786621,0.84021,1.8786621,1.876709l0.0000305-0.0001221v49.543335
	h-0.0000305c0,1.036377-0.841095,1.876709-1.8786926,1.8765869c0,0.0001221,0,0,0,0h0.0000305H18.5674438v0.0001221
	c-1.0375671-0.0001221-1.8786926-0.840332-1.8786926-1.876709l0,0v-49.543335c0-1.036377,0.8411255-1.876709,1.8786926-1.8765869
	v-0.0001221h100.6978607V973.7593994L119.2653046,973.7593994z"/>
<path class="st1" d="M117.0108795,971.5074463c1.0375671,0,1.8786621,0.84021,1.8786621,1.8765869h0.0000305v49.543335h-0.0000305
	c0,1.036377-0.841095,1.876709-1.8786926,1.8765869c0,0.0001221,0,0,0,0h0.0000305H16.3130188l-0.0000153,0.0001221
	c-1.0375671-0.0001221-1.8786926-0.840332-1.8786926-1.876709h0.0000153v-49.543335
	c0-1.036377,0.8411102-1.876709,1.8786926-1.8765869v-0.0001221h100.6978607V971.5074463L117.0108795,971.5074463z"/>
<path class="st2" d="M117.0108795,971.5074463c1.0375671,0,1.8786621,0.84021,1.8786621,1.8765869h0.0000305v49.543335h-0.0000305
	c0,1.036377-0.841095,1.876709-1.8786926,1.8765869c0,0.0001221,0,0,0,0h0.0000305H16.3130188l-0.0000153,0.0001221
	c-1.0375671-0.0001221-1.8786926-0.840332-1.8786926-1.876709h0.0000153v-49.543335
	c0-1.036377,0.8411102-1.876709,1.8786926-1.8765869v-0.0001221h100.6978607V971.5074463L117.0108795,971.5074463z"/>
<text transform="matrix(0.85 0 0 1 36.9770508 985.0228271)" class="st3 st4">«FeatureType»</text>
<text transform="matrix(0.85 0 0 1 58.0161133 996.2806396)" class="st5 st4">urf::</text>
<text transform="matrix(0.85 0 0 1 25.7036133 1007.5384521)" class="st5 st4">HousingControlArea</text>
<path class="st0" d="M397.3115845,1010.541626c1.0375366,0,1.8786621,0.8400879,1.8786621,1.8765869v-0.0001221v100.5880127l0,0
	c0,1.036377-0.8411255,1.876709-1.8787231,1.8765869c0,0.0001221,0,0,0,0h0.000061H138.8036957l-0.0000305,0.0001221
	c-1.0375671-0.0001221-1.8786926-0.840332-1.8786926-1.876709h0.0000305v-100.5880127
	c0-1.036377,0.841095-1.8765869,1.8786926-1.8764648v-0.0001221h258.5078735V1010.541626L397.3115845,1010.541626z"/>
<path class="st1" d="M395.0571289,1008.2895508c1.0375366,0,1.8786621,0.84021,1.8786621,1.876709l0.000061-0.0001221v100.5878906
	l-0.000061,0.0001221c0,1.036377-0.8411255,1.876709-1.8787231,1.8765869c0,0.0001221,0,0,0,0h0.000061H136.5492401v0.0001221
	c-1.0375671-0.0001221-1.8786926-0.840332-1.8786926-1.8768311h0.0000305v-100.5878906
	c0-1.036377,0.841095-1.8765869,1.8786621-1.8765869l0,0H395.0571289L395.0571289,1008.2895508L395.0571289,1008.2895508z"/>
<path class="st2" d="M395.0571289,1008.2895508c1.0375366,0,1.8786621,0.84021,1.8786621,1.876709l0.000061-0.0001221v100.5878906
	l-0.000061,0.0001221c0,1.036377-0.8411255,1.876709-1.8787231,1.8765869c0,0.0001221,0,0,0,0h0.000061H136.5492401v0.0001221
	c-1.0375671-0.0001221-1.8786926-0.840332-1.8786926-1.8768311h0.0000305v-100.5878906
	c0-1.036377,0.841095-1.8765869,1.8786621-1.8765869l0,0H395.0571289L395.0571289,1008.2895508L395.0571289,1008.2895508z"/>
<text transform="matrix(0.85 0 0 1 236.1176758 1021.8040771)" class="st3 st4">«FeatureType»</text>
<text transform="matrix(0.85 0 0 1 164.7270508 1033.0697021)" class="st5 st4">urf::ResidentialEnvironmentImprovementDistrict</text>
<line class="st2" x1="134.670578" y1="1039.0664062" x2="396.9358521" y2="1039.0664062"/>
<text transform="matrix(0.85 0 0 1 138.4223633 1051.0853271)" class="st3 st4">+</text>
<text transform="matrix(0.85 0 0 1 142.9360352 1051.0853271)" class="st3 st4"> </text>
<text transform="matrix(0.85 0 0 1 154.2036133 1051.0853271)" class="st3 st4">useToBeInduced: gml:StringOrRefType [0..1]</text>
<text transform="matrix(0.85 0 0 1 138.4223633 1062.3431396)" class="st3 st4">+</text>
<text transform="matrix(0.85 0 0 1 142.9360352 1062.3431396)" class="st3 st4"> </text>
<text transform="matrix(0.85 0 0 1 154.2036133 1062.3431396)" class="st3 st4">maximumFloorAreaRate: xs::integer [0..1]</text>
<text transform="matrix(0.85 0 0 1 138.4223633 1073.6009521)" class="st3 st4">+</text>
<text transform="matrix(0.85 0 0 1 142.9360352 1073.6009521)" class="st3 st4"> </text>
<text transform="matrix(0.85 0 0 1 154.2036133 1073.6009521)" class="st3 st4">maximumBuildingCoverageRate: xs::integer [0..1]</text>
<text transform="matrix(0.85 0 0 1 138.4223633 1084.8665771)" class="st3 st4">+</text>
<text transform="matrix(0.85 0 0 1 142.9360352 1084.8665771)" class="st3 st4"> </text>
<text transform="matrix(0.85 0 0 1 154.2036133 1084.8665771)" class="st3 st4">maximumBuildingHeight: gml:StringOrRefType [0..1]</text>
<text transform="matrix(0.85 0 0 1 138.4223633 1096.1243896)" class="st3 st4">+</text>
<text transform="matrix(0.85 0 0 1 142.9360352 1096.1243896)" class="st3 st4"> </text>
<text transform="matrix(0.85 0 0 1 154.2036133 1096.1243896)" class="st3 st4">setbackSize: gml:StringOrRefType [0..1]</text>
<text transform="matrix(0.85 0 0 1 138.4223633 1107.3822021)" class="st3 st4">+</text>
<text transform="matrix(0.85 0 0 1 142.9360352 1107.3822021)" class="st3 st4"> </text>
<text transform="matrix(0.85 0 0 1 154.2036133 1107.3822021)" class="st3 st4">otherRestrictions: gml:StringOrRefType [0..1]</text>
<path class="st0" d="M322.1639404,1123.1400146c1.0375366,0,1.8786621,0.84021,1.8786621,1.8765869h0.000061v100.5878906
	l-0.000061,0.0001221c0,1.036377-0.8411255,1.8765869-1.8787231,1.8764648c0,0.0001221,0,0,0,0h0.000061H33.5969849
	l-0.0000153,0.0001221c-1.0375671-0.0001221-1.8786926-0.84021-1.8786926-1.876709h0.0000153v-100.5878906
	c0-1.036377,0.8411102-1.876709,1.8786926-1.8765869v-0.0001221h288.5669556V1123.1400146L322.1639404,1123.1400146z"/>
<path class="st1" d="M319.9094849,1120.8880615c1.0375977,0,1.8786621,0.84021,1.8786621,1.8765869l0.000061-0.0001221v100.5880127
	l-0.000061,0.0001221c0,1.0362549-0.8410645,1.8765869-1.8786621,1.8764648c0,0.0001221,0,0,0,0l0,0H31.3425446v0.0001221
	c-1.0375824-0.0001221-1.8786926-0.840332-1.8786926-1.876709l0,0v-100.5880127
	c0-1.0362549,0.8411102-1.8765869,1.8786926-1.8764648v-0.0001221h288.5669556V1120.8880615L319.9094849,1120.8880615z"/>
<path class="st2" d="M319.9094849,1120.8880615c1.0375977,0,1.8786621,0.84021,1.8786621,1.8765869l0.000061-0.0001221v100.5880127
	l-0.000061,0.0001221c0,1.0362549-0.8410645,1.8765869-1.8786621,1.8764648c0,0.0001221,0,0,0,0l0,0H31.3425446v0.0001221
	c-1.0375824-0.0001221-1.8786926-0.840332-1.8786926-1.876709l0,0v-100.5880127
	c0-1.0362549,0.8411102-1.8765869,1.8786926-1.8764648v-0.0001221h288.5669556V1120.8880615L319.9094849,1120.8880615z"/>
<text transform="matrix(0.85 0 0 1 145.9379883 1134.4056396)" class="st3 st4">«FeatureType»</text>
<text transform="matrix(0.85 0 0 1 109.8676758 1145.6634521)" class="st5 st4">urf::SpecialUseAttractionDistrict</text>
<line class="st2" x1="29.4638519" y1="1151.6647949" x2="321.788208" y2="1151.6647949"/>
<text transform="matrix(0.85 0 0 1 33.2192383 1163.6790771)" class="st3 st4">+</text>
<text transform="matrix(0.85 0 0 1 37.7329102 1163.6790771)" class="st3 st4"> </text>
<text transform="matrix(0.85 0 0 1 49.0004883 1163.6790771)" class="st3 st4">useToBeInduced: gml:StringOrRefType</text>
<text transform="matrix(0.85 0 0 1 33.2192383 1174.9447021)" class="st3 st4">+</text>
<text transform="matrix(0.85 0 0 1 37.7329102 1174.9447021)" class="st3 st4"> </text>
<text transform="matrix(0.85 0 0 1 49.0004883 1174.9447021)" class="st3 st4">maximumFloorAreaRate: xs::integer</text>
<text transform="matrix(0.85 0 0 1 33.2192383 1186.2025146)" class="st3 st4">+</text>
<text transform="matrix(0.85 0 0 1 37.7329102 1186.2025146)" class="st3 st4"> </text>
<text transform="matrix(0.85 0 0 1 49.0004883 1186.2025146)" class="st3 st4">minimumFloorAreaRate: xs::integer [0..1]</text>
<text transform="matrix(0.85 0 0 1 33.2192383 1197.4603271)" class="st3 st4">+</text>
<text transform="matrix(0.85 0 0 1 37.7329102 1197.4603271)" class="st3 st4"> </text>
<text transform="matrix(0.85 0 0 1 49.0004883 1197.4603271)" class="st3 st4">minimumBuildingArea: gml::MeasureType [0..1]</text>
<text transform="matrix(0.85 0 0 1 33.2192383 1208.7181396)" class="st3 st4">+</text>
<text transform="matrix(0.85 0 0 1 37.7329102 1208.7181396)" class="st3 st4"> </text>
<text transform="matrix(0.85 0 0 1 49.0004883 1208.7181396)" class="st3 st4">maximumBuildingHeight: gml:StringOrRefType [0..1]</text>
<text transform="matrix(0.85 0 0 1 33.2192383 1219.9759521)" class="st3 st4">+</text>
<text transform="matrix(0.85 0 0 1 37.7329102 1219.9759521)" class="st3 st4"> </text>
<text transform="matrix(0.85 0 0 1 49.0004883 1219.9759521)" class="st3 st4">otherRestrictions: gml:StringOrRefType [0..1]</text>
<path class="st0" d="M784.3219604,334.9508972c1.0374756,0,1.8786011,0.84021,1.8786011,1.876709l0.000061-0.0001221v40.5355225
	h-0.000061c0,1.036377-0.8411255,1.876709-1.8787231,1.8765869c0,0.0001221,0,0,0,0h0.0001221H627.2633667l-0.000061,0.0001221
	c-1.0375366-0.0001221-1.8787231-0.840332-1.8787231-1.876709h0.0001221v-40.5355225
	c0-1.036377,0.8410645-1.8765869,1.8786621-1.8765869l0,0H784.3219604L784.3219604,334.9508972L784.3219604,334.9508972z"/>
<path class="st1" d="M782.0675049,332.6989441c1.0375366,0,1.8786011,0.84021,1.8786011,1.876709l0.0001221-0.0001221v40.5355225
	h-0.0001221c0,1.036377-0.8410645,1.8765869-1.8786621,1.8765869l0,0h0.000061H625.0089722h-0.0001221
	c-1.0374756,0-1.8786621-0.84021-1.8786621-1.8765869h0.000061V334.575531c0-1.036377,0.8411255-1.8765869,1.8787231-1.8765869l0,0
	H782.0675049L782.0675049,332.6989441L782.0675049,332.6989441z"/>
<path class="st2" d="M782.0675049,332.6989441c1.0375366,0,1.8786011,0.84021,1.8786011,1.876709l0.0001221-0.0001221v40.5355225
	h-0.0001221c0,1.036377-0.8410645,1.8765869-1.8786621,1.8765869l0,0h0.000061H625.0089722h-0.0001221
	c-1.0374756,0-1.8786621-0.84021-1.8786621-1.8765869h0.000061V334.575531c0-1.036377,0.8411255-1.8765869,1.8787231-1.8765869l0,0
	H782.0675049L782.0675049,332.6989441L782.0675049,332.6989441z"/>
<text transform="matrix(0.85 0 0 1 673.4775391 346.2103271)" class="st3 st4">«FeatureType»</text>
<text transform="matrix(0.85 0 0 1 649.4306641 357.4681396)" class="st5 st4">urf::FirePreventionDistrict</text>
<path class="st0" d="M712.9317017,387.4967957c1.0374756,0,1.8786011,0.84021,1.8786011,1.876709h0.000061v85.574707
	l-0.000061,0.0001221c0,1.036377-0.8411255,1.8765869-1.8787231,1.8765869l0,0h0.0001221H461.9385376h-0.000061
	c-1.0375366,0-1.8786621-0.84021-1.8786621-1.876709h0.000061v-85.574707c0-1.036499,0.8410645-1.876709,1.8786621-1.876709l0,0
	H712.9317017L712.9317017,387.4967957L712.9317017,387.4967957z"/>
<path class="st1" d="M710.6772461,385.2448425c1.0375366,0,1.8786011,0.84021,1.8786011,1.876709h0.0001221v85.574707h-0.0001221
	c0,1.036499-0.8410645,1.876709-1.8786621,1.876709l0,0h0.000061h-250.993103h-0.000061
	c-1.0375366,0-1.8787231-0.84021-1.8787231-1.876709h0.000061v-85.574707c0-1.036499,0.8411255-1.876709,1.8787231-1.876709l0,0
	H710.6772461L710.6772461,385.2448425L710.6772461,385.2448425z"/>
<path class="st2" d="M710.6772461,385.2448425c1.0375366,0,1.8786011,0.84021,1.8786011,1.876709h0.0001221v85.574707h-0.0001221
	c0,1.036499-0.8410645,1.876709-1.8786621,1.876709l0,0h0.000061h-250.993103h-0.000061
	c-1.0375366,0-1.8787231-0.84021-1.8787231-1.876709h0.000061v-85.574707c0-1.036499,0.8411255-1.876709,1.8787231-1.876709l0,0
	H710.6772461L710.6772461,385.2448425L710.6772461,385.2448425z"/>
<text transform="matrix(0.85 0 0 1 555.4931641 398.7572021)" class="st3 st4">«FeatureType»</text>
<text transform="matrix(0.85 0 0 1 469.0712891 410.0228271)" class="st5 st4">urf::SpecifiedDisasterPreventionBlockImprovementZone</text>
<line class="st2" x1="457.8054199" y1="416.021698" x2="712.5559692" y2="416.021698"/>
<text transform="matrix(0.85 0 0 1 461.5634766 428.0384521)" class="st3 st4">+</text>
<text transform="matrix(0.85 0 0 1 466.0771484 428.0384521)" class="st3 st4"> </text>
<text transform="matrix(0.85 0 0 1 477.3447266 428.0384521)" class="st3 st4">minimumSiteArea: gml::MeasureType</text>
<text transform="matrix(0.85 0 0 1 461.5634766 439.2962646)" class="st3 st4">+</text>
<text transform="matrix(0.85 0 0 1 466.0771484 439.2962646)" class="st3 st4"> </text>
<text transform="matrix(0.85 0 0 1 477.3447266 439.2962646)" class="st3 st4">setbackSize: gml:StringOrRefType [0..1]</text>
<text transform="matrix(0.85 0 0 1 461.5634766 450.5540771)" class="st3 st4">+</text>
<text transform="matrix(0.85 0 0 1 466.0771484 450.5540771)" class="st3 st4"> </text>
<text transform="matrix(0.85 0 0 1 477.3447266 450.5540771)" class="st3 st4">minimumFrontageRate: xs::integer [0..1]</text>
<text transform="matrix(0.85 0 0 1 461.5634766 461.8197021)" class="st3 st4">+</text>
<text transform="matrix(0.85 0 0 1 466.0771484 461.8197021)" class="st3 st4"> </text>
<text transform="matrix(0.85 0 0 1 477.3447266 461.8197021)" class="st3 st4">minimumBuildingHeight: gml::LengthType [0..1]</text>
<path class="st0" d="M786.576355,485.0822449c1.0375366,0,1.8786011,0.8400879,1.8786011,1.8765869l0.0001221-0.0001221v89.3281555
	h-0.0001221c0,1.036499-0.8410645,1.876709-1.8786621,1.876709l0,0h0.000061H552.1157227h-0.000061
	c-1.0375366,0-1.8786621-0.84021-1.8786621-1.876709h0.000061v-89.3281555c0-1.036377,0.8410645-1.8765869,1.8786621-1.8764648
	v-0.0001221H786.576355V485.0822449L786.576355,485.0822449z"/>
<path class="st1" d="M784.3219604,482.8301697c1.0374756,0,1.8786011,0.84021,1.8786011,1.8765869h0.000061v89.3281555h-0.000061
	c0,1.036377-0.8411255,1.876709-1.8787231,1.876709l0,0h0.0001221H549.8612671l0,0
	c-1.0375366,0-1.8787231-0.840332-1.8787231-1.876709h0.000061v-89.3281555c0-1.036377,0.8411255-1.8765869,1.8786621-1.8765869l0,0
	H784.3219604L784.3219604,482.8301697L784.3219604,482.8301697z"/>
<path class="st2" d="M784.3219604,482.8301697c1.0374756,0,1.8786011,0.84021,1.8786011,1.8765869h0.000061v89.3281555h-0.000061
	c0,1.036377-0.8411255,1.876709-1.8787231,1.876709l0,0h0.0001221H549.8612671l0,0
	c-1.0375366,0-1.8787231-0.840332-1.8787231-1.876709h0.000061v-89.3281555c0-1.036377,0.8411255-1.8765869,1.8786621-1.8765869l0,0
	H784.3219604L784.3219604,482.8301697L784.3219604,482.8301697z"/>
<text transform="matrix(0.85 0 0 1 637.4072266 496.3509521)" class="st3 st4">«FeatureType»</text>
<text transform="matrix(0.85 0 0 1 626.8837891 507.6087646)" class="st5 st4">urf::LandscapeZone</text>
<line class="st2" x1="547.982605" y1="513.6071777" x2="786.2006226" y2="513.6071777"/>
<text transform="matrix(0.85 0 0 1 551.7431641 525.6243896)" class="st3 st4">+</text>
<text transform="matrix(0.85 0 0 1 556.2568359 525.6243896)" class="st3 st4"> </text>
<text transform="matrix(0.85 0 0 1 567.5244141 525.6243896)" class="st3 st4">buildingDesignRestriction: gml:StringOrRefType [0..1]</text>
<text transform="matrix(0.85 0 0 1 551.7431641 536.8822021)" class="st3 st4">+</text>
<text transform="matrix(0.85 0 0 1 556.2568359 536.8822021)" class="st3 st4"> </text>
<text transform="matrix(0.85 0 0 1 567.5244141 536.8822021)" class="st3 st4">maximumBuildingHeight: gml::LengthType [0..1]</text>
<text transform="matrix(0.85 0 0 1 551.7431641 548.1478271)" class="st3 st4">+</text>
<text transform="matrix(0.85 0 0 1 556.2568359 548.1478271)" class="st3 st4"> </text>
<text transform="matrix(0.85 0 0 1 567.5244141 548.1478271)" class="st3 st4">minimumBuildingHeight: gml::LengthType [0..1]</text>
<text transform="matrix(0.85 0 0 1 551.7431641 559.4056396)" class="st3 st4">+</text>
<text transform="matrix(0.85 0 0 1 556.2568359 559.4056396)" class="st3 st4"> </text>
<text transform="matrix(0.85 0 0 1 567.5244141 559.4056396)" class="st3 st4">setbackSize: gml:StringOrRefType [0..1]</text>
<text transform="matrix(0.85 0 0 1 551.7431641 570.6634521)" class="st3 st4">+</text>
<text transform="matrix(0.85 0 0 1 556.2568359 570.6634521)" class="st3 st4"> </text>
<text transform="matrix(0.85 0 0 1 567.5244141 570.6634521)" class="st3 st4">minimumSiteArea: gml::MeasureType [0..1]</text>
<path class="st0" d="M736.9789429,590.1740723c1.0374756,0,1.8786011,0.8400879,1.8786011,1.876709l0.000061-0.0001221v78.0682373
	l-0.000061,0.000061c0,1.036377-0.8411255,1.8766479-1.8787231,1.8765869c0,0.000061,0,0,0,0h0.0001221H461.9385376
	l-0.000061,0.000061c-1.0375366-0.000061-1.8786621-0.840271-1.8786621-1.876709h0.000061v-78.0682373
	c0-1.036499,0.8410645-1.8765869,1.8786621-1.8765869l0,0H736.9789429L736.9789429,590.1740723L736.9789429,590.1740723z"/>
<path class="st1" d="M734.7244873,587.9221191c1.0375366,0,1.8786011,0.8400879,1.8786011,1.8765869h0.0001221v78.0682373
	l-0.0001221,0.000061c0,1.036377-0.8410645,1.8765869-1.8786621,1.8765869l0,0h0.000061H459.6841431h-0.000061
	c-1.0375366,0-1.8787231-0.84021-1.8787231-1.8766479h0.000061v-78.0682373c0-1.036499,0.8411255-1.8765869,1.8787231-1.8765869l0,0
	H734.7244873L734.7244873,587.9221191L734.7244873,587.9221191z"/>
<path class="st2" d="M734.7244873,587.9221191c1.0375366,0,1.8786011,0.8400879,1.8786011,1.8765869h0.0001221v78.0682373
	l-0.0001221,0.000061c0,1.036377-0.8410645,1.8765869-1.8786621,1.8765869l0,0h0.000061H459.6841431h-0.000061
	c-1.0375366,0-1.8787231-0.84021-1.8787231-1.8766479h0.000061v-78.0682373c0-1.036499,0.8411255-1.8765869,1.8787231-1.8765869l0,0
	H734.7244873L734.7244873,587.9221191L734.7244873,587.9221191z"/>
<text transform="matrix(0.85 0 0 1 567.5244141 601.4368896)" class="st3 st4">«FeatureType»</text>
<text transform="matrix(0.85 0 0 1 561.5087891 612.6947021)" class="st5 st4">urf::ScenicDistrict</text>
<line class="st2" x1="457.8054199" y1="618.6989746" x2="736.6032104" y2="618.6989746"/>
<text transform="matrix(0.85 0 0 1 461.5634766 630.7103271)" class="st3 st4">+</text>
<text transform="matrix(0.85 0 0 1 466.0771484 630.7103271)" class="st3 st4"> </text>
<text transform="matrix(0.85 0 0 1 477.3447266 630.7103271)" class="st3 st4">buildingCoverageRate: xs::integer [0..1]</text>
<text transform="matrix(0.85 0 0 1 461.5634766 641.9759521)" class="st3 st4">+</text>
<text transform="matrix(0.85 0 0 1 466.0771484 641.9759521)" class="st3 st4"> </text>
<text transform="matrix(0.85 0 0 1 477.3447266 641.9759521)" class="st3 st4">buildingHeightLimits: gml::LengthType [0..1]</text>
<text transform="matrix(0.85 0 0 1 461.5634766 653.2337646)" class="st3 st4">+</text>
<text transform="matrix(0.85 0 0 1 466.0771484 653.2337646)" class="st3 st4"> </text>
<text transform="matrix(0.85 0 0 1 477.3447266 653.2337646)" class="st3 st4">wallSetbackDistanceWithRoad: gml::LengthType [0..1]</text>
<text transform="matrix(0.85 0 0 1 461.5634766 664.4915771)" class="st3 st4">+</text>
<text transform="matrix(0.85 0 0 1 466.0771484 664.4915771)" class="st3 st4"> </text>
<text transform="matrix(0.85 0 0 1 477.3447266 664.4915771)" class="st3 st4">wallSetbaskDistanceWithAdjoiningLand: gml::LengthType [0..1]</text>
<path class="st0" d="M780.5645752,710.2791138c1.0374756,0,1.8786011,0.8401489,1.8786011,1.8766479l0.000061-0.0001221v39.78479
	l-0.000061,0.000061c0,1.036377-0.8411255,1.8766479-1.8787231,1.8765869c0,0.000061,0,0,0,0h0.0001221H627.2633667
	l-0.000061,0.000061c-1.0375366-0.000061-1.8787231-0.840271-1.8787231-1.876709h0.0001221v-39.78479
	c0-1.036377,0.8410645-1.8766479,1.8786621-1.8765259v-0.0001221h153.3012085V710.2791138L780.5645752,710.2791138z"/>
<path class="st1" d="M778.3101196,708.0271606c1.0375366,0,1.8786011,0.8401489,1.8786011,1.8765869l0.0001221-0.000061v39.78479
	l-0.0001221,0.000061c0,1.036377-0.8410645,1.8766479-1.8786621,1.8765869c0,0.000061,0,0,0,0h0.000061H625.0089722
	l-0.0001221,0.000061c-1.0374756-0.000061-1.8786621-0.840271-1.8786621-1.876709h0.000061v-39.78479
	c0-1.036377,0.8411255-1.8766479,1.8787231-1.8765259v-0.0001221h153.3011475V708.0271606L778.3101196,708.0271606z"/>
<path class="st2" d="M778.3101196,708.0271606c1.0375366,0,1.8786011,0.8401489,1.8786011,1.8765869l0.0001221-0.000061v39.78479
	l-0.0001221,0.000061c0,1.036377-0.8410645,1.8766479-1.8786621,1.8765869c0,0.000061,0,0,0,0h0.000061H625.0089722
	l-0.0001221,0.000061c-1.0374756-0.000061-1.8786621-0.840271-1.8786621-1.876709h0.000061v-39.78479
	c0-1.036377,0.8411255-1.8766479,1.8787231-1.8765259v-0.0001221h153.3011475V708.0271606L778.3101196,708.0271606z"/>
<text transform="matrix(0.85 0 0 1 671.9775391 721.5384521)" class="st3 st4">«FeatureType»</text>
<text transform="matrix(0.85 0 0 1 629.1416016 732.8040771)" class="st5 st4">urf::ParkingPlaceDevelopmentZone</text>
<path class="st0" d="M606.2220459,680.2528076c1.0375366,0,1.8786011,0.84021,1.8786011,1.8766479l0.000061-0.000061v42.0367432
	l-0.000061,0.0001221c0,1.036377-0.8410645,1.8766479-1.8786621,1.8765259c0,0.0001221,0,0,0,0h0.000061H461.9385376
	l-0.000061,0.0001221c-1.0375366-0.0001221-1.8786621-0.840271-1.8786621-1.87677h0.000061v-42.0367432
	c0-1.036377,0.8410645-1.8766479,1.8786621-1.8765869v-0.000061h144.2835083V680.2528076L606.2220459,680.2528076z"/>
<path class="st1" d="M603.9675903,678.0008545c1.0375366,0,1.8786621,0.8401489,1.8786621,1.8766479l0.000061-0.000061v42.0367432
	l-0.000061,0.000061c0,1.036377-0.8411255,1.8766479-1.8787231,1.8765869c0,0.000061,0,0,0,0h0.000061H459.6841431
	l-0.000061,0.000061c-1.0375366-0.000061-1.8787231-0.840271-1.8787231-1.876709h0.000061v-42.0367432
	c0-1.036438,0.8411255-1.8766479,1.8787231-1.8765869v-0.000061h144.2834473V678.0008545L603.9675903,678.0008545z"/>
<path class="st2" d="M603.9675903,678.0008545c1.0375366,0,1.8786621,0.8401489,1.8786621,1.8766479l0.000061-0.000061v42.0367432
	l-0.000061,0.000061c0,1.036377-0.8411255,1.8766479-1.8787231,1.8765869c0,0.000061,0,0,0,0h0.000061H459.6841431
	l-0.000061,0.000061c-1.0375366-0.000061-1.8787231-0.840271-1.8787231-1.876709h0.000061v-42.0367432
	c0-1.036438,0.8411255-1.8766479,1.8787231-1.8765869v-0.000061h144.2834473V678.0008545L603.9675903,678.0008545z"/>
<text transform="matrix(0.85 0 0 1 502.1416016 691.5150146)" class="st3 st4">«FeatureType»</text>
<text transform="matrix(0.85 0 0 1 503.6416016 702.7728271)" class="st5 st4">urf::PortZone</text>
<line class="st2" x1="457.8054199" y1="708.77771" x2="605.8463135" y2="708.77771"/>
<text transform="matrix(0.85 0 0 1 461.5634766 720.7884521)" class="st3 st4">+</text>
<text transform="matrix(0.85 0 0 1 466.0771484 720.7884521)" class="st3 st4"> </text>
<text transform="matrix(0.85 0 0 1 477.3447266 720.7884521)" class="st3 st4">floorAreaRate: xs::integer [0..1]</text>
<path class="st0" d="M802.3573608,816.1216431c1.0375366,0,1.8786011,0.8401489,1.8786011,1.8766479l0.0001221-0.0001221v39.78479
	l-0.0001221,0.000061c0,1.036377-0.8410645,1.8766479-1.8786621,1.8765869c0,0.000061,0,0,0,0h0.000061H574.6600342
	l-0.000061,0.000061c-1.0375366-0.000061-1.8786621-0.840271-1.8786621-1.876709l0,0v-39.78479
	c0-1.036377,0.8411255-1.8766479,1.8787231-1.8765259v-0.0001221h227.6973267V816.1216431L802.3573608,816.1216431z"/>
<path class="st1" d="M800.1029663,813.8696289c1.0374756,0,1.8786011,0.84021,1.8786011,1.8766479l0.000061-0.000061v39.78479
	l-0.000061,0.000061c0,1.036377-0.8411255,1.8766479-1.8787231,1.8765259c0,0.0001221,0,0,0,0h0.0001221H572.4055786
	l-0.000061,0.0001221c-1.0375366-0.0001221-1.8786621-0.840271-1.8786621-1.876709h0.000061v-39.78479
	c0-1.036377,0.8410645-1.8766479,1.8786621-1.8765869v-0.000061h227.6973877V813.8696289L800.1029663,813.8696289z"/>
<path class="st2" d="M800.1029663,813.8696289c1.0374756,0,1.8786011,0.84021,1.8786011,1.8766479l0.000061-0.000061v39.78479
	l-0.000061,0.000061c0,1.036377-0.8411255,1.8766479-1.8787231,1.8765259c0,0.0001221,0,0,0,0h0.0001221H572.4055786
	l-0.000061,0.0001221c-1.0375366-0.0001221-1.8786621-0.840271-1.8786621-1.876709h0.000061v-39.78479
	c0-1.036377,0.8410645-1.8766479,1.8786621-1.8765869v-0.000061h227.6973877V813.8696289L800.1029663,813.8696289z"/>
<text transform="matrix(0.85 0 0 1 656.1962891 827.3822021)" class="st3 st4">«FeatureType»</text>
<text transform="matrix(0.85 0 0 1 575.7822266 838.6400146)" class="st5 st4">urf::SpecialZoneForPreservationOfHistoricalLandscape</text>
<path class="st0" d="M660.3283081,762.8250122c1.0375366,0,1.8786011,0.84021,1.8786011,1.8766479l0.0001221-0.000061v39.78479
	l-0.0001221,0.000061c0,1.036377-0.8410645,1.8766479-1.8786621,1.8765259c0,0.0001221,0,0,0,0h0.000061H461.9385376
	l-0.000061,0.0001221c-1.0375366-0.0001221-1.8786621-0.840271-1.8786621-1.876709h0.000061v-39.78479
	c0-1.036377,0.8410645-1.8766479,1.8786621-1.8765869v-0.000061h198.3897705V762.8250122L660.3283081,762.8250122z"/>
<path class="st1" d="M658.0739136,760.5730591c1.0374756,0,1.8786011,0.84021,1.8786011,1.8766479l0.000061-0.0001221v39.78479
	l-0.000061,0.0001221c0,1.036377-0.8411255,1.8766479-1.8787231,1.8765259c0,0.0001221,0,0,0,0h0.0001221H459.6841431
	l-0.000061,0.0001221c-1.0375366-0.0001221-1.8787231-0.840271-1.8787231-1.87677h0.000061v-39.78479
	c0-1.0363159,0.8411255-1.8765869,1.8787231-1.8765259v-0.000061h198.3897705V760.5730591L658.0739136,760.5730591z"/>
<path class="st2" d="M658.0739136,760.5730591c1.0374756,0,1.8786011,0.84021,1.8786011,1.8766479l0.000061-0.0001221v39.78479
	l-0.000061,0.0001221c0,1.036377-0.8411255,1.8766479-1.8787231,1.8765259c0,0.0001221,0,0,0,0h0.0001221H459.6841431
	l-0.000061,0.0001221c-1.0375366-0.0001221-1.8787231-0.840271-1.8787231-1.87677h0.000061v-39.78479
	c0-1.0363159,0.8411255-1.8765869,1.8787231-1.8765259v-0.000061h198.3897705V760.5730591L658.0739136,760.5730591z"/>
<text transform="matrix(0.85 0 0 1 529.1962891 774.0931396)" class="st3 st4">«FeatureType»</text>
<text transform="matrix(0.85 0 0 1 462.3134766 785.3509521)" class="st5 st4">urf::ZoneForPreservationOfHistoricalLandscape</text>
<path class="st0" d="M632.5236816,875.4234619c1.0375366,0,1.8786011,0.84021,1.8786011,1.8766479l0.0001221-0.0001221v39.78479
	l-0.0001221,0.0001221c0,1.036377-0.8410645,1.8766479-1.8786621,1.8765259c0,0.0001221,0,0,0,0h0.000061h-170.585144
	l-0.000061,0.0001221c-1.0375366-0.0001221-1.8786621-0.840271-1.8786621-1.87677h0.000061v-39.78479
	c0-1.0363159,0.8410645-1.8766479,1.8786621-1.8765259v-0.0001221h170.585144V875.4234619L632.5236816,875.4234619z"/>
<path class="st1" d="M630.2692871,873.1715088c1.0374756,0,1.8786011,0.8401489,1.8786011,1.8766479l0.000061-0.0001221v39.78479
	l-0.000061,0.000061c0,1.036377-0.8411255,1.8766479-1.8787231,1.8765869c0,0.000061,0,0,0,0h0.0001221h-170.585144
	l-0.000061,0.000061c-1.0375366-0.000061-1.8787231-0.840271-1.8787231-1.876709h0.000061v-39.78479
	c0-1.036377,0.8411255-1.8766479,1.8787231-1.8765259v-0.0001221h170.585144V873.1715088L630.2692871,873.1715088z"/>
<path class="st2" d="M630.2692871,873.1715088c1.0374756,0,1.8786011,0.8401489,1.8786011,1.8766479l0.000061-0.0001221v39.78479
	l-0.000061,0.000061c0,1.036377-0.8411255,1.8766479-1.8787231,1.8765869c0,0.000061,0,0,0,0h0.0001221h-170.585144
	l-0.000061,0.000061c-1.0375366-0.000061-1.8787231-0.840271-1.8787231-1.876709h0.000061v-39.78479
	c0-1.036377,0.8411255-1.8766479,1.8787231-1.8765259v-0.0001221h170.585144V873.1715088L630.2692871,873.1715088z"/>
<text transform="matrix(0.85 0 0 1 514.9150391 886.6868896)" class="st3 st4">«FeatureType»</text>
<text transform="matrix(0.85 0 0 1 469.8291016 897.9447021)" class="st5 st4">urf::GreenSpaceConservationDistrict</text>
<path class="st0" d="M660.3283081,1093.1137695c1.0375366,0,1.8786011,0.84021,1.8786011,1.8765869h0.0001221v48.0419922h-0.0001221
	c0,1.036377-0.8410645,1.876709-1.8786621,1.8765869c0,0.0001221,0,0,0,0h0.000061H461.9385376l-0.000061,0.0001221
	c-1.0375366-0.0001221-1.8786621-0.840332-1.8786621-1.876709h0.000061v-48.0419922
	c0-1.036377,0.8410645-1.876709,1.8786621-1.8765869v-0.0001221h198.3897705V1093.1137695L660.3283081,1093.1137695z"/>
<path class="st1" d="M658.0739136,1090.8618164c1.0374756,0,1.8786011,0.84021,1.8786011,1.8765869l0.000061-0.0001221v48.0419922
	l-0.000061,0.0001221c0,1.036377-0.8411255,1.876709-1.8787231,1.8765869c0,0.0001221,0,0,0,0h0.0001221H459.6841431
	l-0.000061,0.0001221c-1.0375366-0.0001221-1.8787231-0.840332-1.8787231-1.8768311h0.000061v-48.0419922
	c0-1.0362549,0.8411255-1.8765869,1.8787231-1.8764648v-0.0001221h198.3897705V1090.8618164L658.0739136,1090.8618164z"/>
<path class="st2" d="M658.0739136,1090.8618164c1.0374756,0,1.8786011,0.84021,1.8786011,1.8765869l0.000061-0.0001221v48.0419922
	l-0.000061,0.0001221c0,1.036377-0.8411255,1.876709-1.8787231,1.8765869c0,0.0001221,0,0,0,0h0.0001221H459.6841431
	l-0.000061,0.0001221c-1.0375366-0.0001221-1.8787231-0.840332-1.8787231-1.8768311h0.000061v-48.0419922
	c0-1.0362549,0.8411255-1.8765869,1.8787231-1.8764648v-0.0001221h198.3897705V1090.8618164L658.0739136,1090.8618164z"/>
<text transform="matrix(0.85 0 0 1 529.1962891 1104.3743896)" class="st3 st4">«FeatureType»</text>
<text transform="matrix(0.85 0 0 1 469.8291016 1115.6322021)" class="st5 st4">urf::SpecialGreenSpaceConservationDistrict</text>
<line class="st2" x1="457.8054199" y1="1121.6385498" x2="659.9525757" y2="1121.6385498"/>
<text transform="matrix(0.85 0 0 1 461.5634766 1133.6478271)" class="st3 st4">+</text>
<text transform="matrix(0.85 0 0 1 466.0771484 1133.6478271)" class="st3 st4"> </text>
<text transform="matrix(0.85 0 0 1 477.3447266 1133.6478271)" class="st3 st4">requirement: gml::CodeType [0..1]</text>
<path class="st0" d="M808.3692017,928.7200317c1.0374756,0,1.8786011,0.84021,1.8786011,1.8766479l0.000061-0.000061v48.0419312
	l-0.000061,0.0001221c0,1.036377-0.8411255,1.876709-1.8787231,1.8765869c0,0.0001221,0,0,0,0h0.0001221H637.0325928
	l-0.0001221,0.0001221c-1.0374756-0.0001221-1.8786621-0.840332-1.8786621-1.8768311h0.000061v-48.0419312
	c0-1.036377,0.8411255-1.8766479,1.8787231-1.8765869v-0.000061h171.3366089V928.7200317L808.3692017,928.7200317z"/>
<path class="st1" d="M806.1147461,926.4680786c1.0375366,0,1.8786011,0.84021,1.8786011,1.8766479l0.0001221-0.0001221v48.0419922
	l-0.0001221,0.0001221c0,1.036377-0.8410645,1.8765869-1.8786621,1.8765869l0,0h0.000061H634.7781372h-0.0001221
	c-1.0374756,0-1.8786621-0.84021-1.8786621-1.876709h0.0001221v-48.0419922c0-1.0363159,0.8410645-1.8765869,1.8786621-1.8765259
	v-0.000061h171.3366089V926.4680786L806.1147461,926.4680786z"/>
<path class="st2" d="M806.1147461,926.4680786c1.0375366,0,1.8786011,0.84021,1.8786011,1.8766479l0.0001221-0.0001221v48.0419922
	l-0.0001221,0.0001221c0,1.036377-0.8410645,1.8765869-1.8786621,1.8765869l0,0h0.000061H634.7781372h-0.0001221
	c-1.0374756,0-1.8786621-0.84021-1.8786621-1.876709h0.0001221v-48.0419922c0-1.0363159,0.8410645-1.8765869,1.8786621-1.8765259
	v-0.000061h171.3366089V926.4680786L806.1147461,926.4680786z"/>
<text transform="matrix(0.85 0 0 1 690.7666016 939.9759521)" class="st3 st4">«FeatureType»</text>
<text transform="matrix(0.85 0 0 1 671.2197266 951.2415771)" class="st5 st4">urf::TreePlantingDistrict</text>
<line class="st2" x1="632.8994751" y1="957.244873" x2="807.9934692" y2="957.244873"/>
<text transform="matrix(0.85 0 0 1 636.6572266 969.2572021)" class="st3 st4">+</text>
<text transform="matrix(0.85 0 0 1 641.1708984 969.2572021)" class="st3 st4"> </text>
<text transform="matrix(0.85 0 0 1 652.4384766 969.2572021)" class="st3 st4">minimumGreeningRate: xs::integer</text>
<path class="st0" d="M644.5473022,988.0218506c1.0375366,0,1.8786011,0.84021,1.8786011,1.876709l0.0001221-0.0001221v48.7926025
	l-0.0001221,0.0001221c0,1.036377-0.8410645,1.876709-1.8786621,1.8765869c0,0.0001221,0,0,0,0h0.000061H461.9385376
	l-0.000061,0.0001221c-1.0375366-0.0001221-1.8786621-0.840332-1.8786621-1.8768311h0.000061v-48.7926025
	c0-1.036377,0.8410645-1.8765869,1.8786621-1.8765869l0,0H644.5473022L644.5473022,988.0218506L644.5473022,988.0218506z"/>
<path class="st1" d="M642.2929077,985.7698975c1.0374756,0,1.8786011,0.84021,1.8786011,1.876709l0.000061-0.0001221v48.7926025
	l-0.000061,0.0001221c0,1.036377-0.8411255,1.8765869-1.8787231,1.8765869l0,0h0.0001221H459.6841431h-0.000061
	c-1.0375366,0-1.8787231-0.84021-1.8787231-1.876709h0.000061v-48.7926025c0-1.036377,0.8411255-1.876709,1.8787231-1.8765869
	v-0.0001221h182.6087646V985.7698975L642.2929077,985.7698975z"/>
<path class="st2" d="M642.2929077,985.7698975c1.0374756,0,1.8786011,0.84021,1.8786011,1.876709l0.000061-0.0001221v48.7926025
	l-0.000061,0.0001221c0,1.036377-0.8411255,1.8765869-1.8787231,1.8765869l0,0h0.0001221H459.6841431h-0.000061
	c-1.0375366,0-1.8787231-0.84021-1.8787231-1.876709h0.000061v-48.7926025c0-1.036377,0.8411255-1.876709,1.8787231-1.8765869
	v-0.0001221h182.6087646V985.7698975L642.2929077,985.7698975z"/>
<text transform="matrix(0.85 0 0 1 520.9306641 999.2884521)" class="st3 st4">«FeatureType»</text>
<text transform="matrix(0.85 0 0 1 490.1181641 1010.5462646)" class="st5 st4">urf::DistributionBusinessZone</text>
<line class="st2" x1="457.8054199" y1="1016.5467529" x2="644.1715698" y2="1016.5467529"/>
<text transform="matrix(0.85 0 0 1 461.5634766 1028.5618896)" class="st3 st4">+</text>
<text transform="matrix(0.85 0 0 1 466.0771484 1028.5618896)" class="st3 st4"> </text>
<text transform="matrix(0.85 0 0 1 477.3447266 1028.5618896)" class="st3 st4">guidelinePublicationDate: xs::date [0..1]</text>
<path class="st0" d="M829.4105225,1018.7988281c1.0375366,0,1.8786011,0.8400879,1.8786011,1.8765869l0.0001221-0.0001221v55.548584
	l-0.0001221,0.0001221c0,1.036377-0.8410645,1.8765869-1.8786621,1.8765869l0,0h0.000061H664.8372192h-0.0001221
	c-1.0374756,0-1.8786621-0.84021-1.8786621-1.876709h0.000061v-55.548584c0-1.036377,0.8411255-1.8765869,1.8787231-1.8764648
	v-0.0001221h164.5733032V1018.7988281L829.4105225,1018.7988281z"/>
<path class="st1" d="M827.1561279,1016.546875c1.0374756,0,1.8786011,0.8400879,1.8786011,1.8765869l0.000061-0.0001221v55.548584
	l-0.000061,0.0001221c0,1.036377-0.8411255,1.8765869-1.8787231,1.8764648c0,0.0001221,0,0,0,0h0.0001221H662.5827637
	l-0.000061,0.0001221c-1.0375366-0.0001221-1.8787231-0.84021-1.8787231-1.876709h0.0001221v-55.548584
	c0-1.036377,0.8410645-1.8765869,1.8786621-1.8764648v-0.0001221h164.5733643V1016.546875L827.1561279,1016.546875z"/>
<path class="st2" d="M827.1561279,1016.546875c1.0374756,0,1.8786011,0.8400879,1.8786011,1.8765869l0.000061-0.0001221v55.548584
	l-0.000061,0.0001221c0,1.036377-0.8411255,1.8765869-1.8787231,1.8764648c0,0.0001221,0,0,0,0h0.0001221H662.5827637
	l-0.000061,0.0001221c-1.0375366-0.0001221-1.8787231-0.84021-1.8787231-1.876709h0.0001221v-55.548584
	c0-1.036377,0.8410645-1.8765869,1.8786621-1.8764648v-0.0001221h164.5733643V1016.546875L827.1561279,1016.546875z"/>
<text transform="matrix(0.85 0 0 1 714.8056641 1030.0540771)" class="st3 st4">«FeatureType»</text>
<text transform="matrix(0.85 0 0 1 690.7666016 1041.3197021)" class="st5 st4">urf::ProductiveGreenZone</text>
<line class="st2" x1="660.7041016" y1="1047.3236084" x2="829.03479" y2="1047.3236084"/>
<text transform="matrix(0.85 0 0 1 664.4619141 1059.3353271)" class="st3 st4">+</text>
<text transform="matrix(0.85 0 0 1 668.9755859 1059.3353271)" class="st3 st4"> </text>
<text transform="matrix(0.85 0 0 1 680.2431641 1059.3353271)" class="st3 st4">zoneNumber: xs::string [0..1]</text>
<text transform="matrix(0.85 0 0 1 664.4619141 1070.5931396)" class="st3 st4">+</text>
<text transform="matrix(0.85 0 0 1 668.9755859 1070.5931396)" class="st3 st4"> </text>
<text transform="matrix(0.85 0 0 1 680.2431641 1070.5931396)" class="st3 st4">specificication: gml::CodeType [0..1]</text>
<path class="st0" d="M712.9317017,1190.6990967c1.0374756,0,1.8786011,0.8400879,1.8786011,1.8765869l0.000061-0.0001221v40.5355225
	h-0.000061c0,1.036377-0.8411255,1.876709-1.8787231,1.8765869c0,0.0001221,0,0,0,0h0.0001221H461.9385376l-0.000061,0.0001221
	c-1.0375366-0.0001221-1.8786621-0.840332-1.8786621-1.876709h0.000061v-40.5355225
	c0-1.036377,0.8410645-1.8765869,1.8786621-1.8764648v-0.0001221h250.9931641V1190.6990967L712.9317017,1190.6990967z"/>
<path class="st1" d="M710.6772461,1188.4471436c1.0375366,0,1.8786011,0.8400879,1.8786011,1.8765869l0.0001221-0.0001221
	v40.5355225h-0.0001221c0,1.036377-0.8410645,1.876709-1.8786621,1.8765869c0,0.0001221,0,0,0,0h0.000061h-250.993103
	l-0.000061,0.0001221c-1.0375366-0.0001221-1.8787231-0.840332-1.8787231-1.876709h0.000061v-40.5355225
	c0-1.036377,0.8411255-1.8765869,1.8787231-1.8764648v-0.0001221h250.993103V1188.4471436L710.6772461,1188.4471436z"/>
<path class="st2" d="M710.6772461,1188.4471436c1.0375366,0,1.8786011,0.8400879,1.8786011,1.8765869l0.0001221-0.0001221
	v40.5355225h-0.0001221c0,1.036377-0.8410645,1.876709-1.8786621,1.8765869c0,0.0001221,0,0,0,0h0.000061h-250.993103
	l-0.000061,0.0001221c-1.0375366-0.0001221-1.8787231-0.840332-1.8787231-1.876709h0.000061v-40.5355225
	c0-1.036377,0.8411255-1.8765869,1.8787231-1.8764648v-0.0001221h250.993103V1188.4471436L710.6772461,1188.4471436z"/>
<text transform="matrix(0.85 0 0 1 555.4931641 1201.9603271)" class="st3 st4">«FeatureType»</text>
<text transform="matrix(0.85 0 0 1 467.5791016 1213.2259521)" class="st5 st4">urf::ConservationZoneForClustersOfTraditionalStructures</text>
<path class="st0" d="M825.6531372,1131.3972168c1.0375366,0,1.8786011,0.84021,1.8786011,1.8765869h0.0001221v40.5354004
	l-0.0001221,0.0001221c0,1.036377-0.8410645,1.8765869-1.8786621,1.8764648c0,0.0001221,0,0,0,0h0.000061h-145.786438
	l-0.000061,0.0001221c-1.0374756-0.0001221-1.8787231-0.84021-1.8787231-1.876709h0.0001221v-40.5354004
	c0-1.036377,0.8411255-1.876709,1.8786621-1.8765869v-0.0001221h145.786438V1131.3972168L825.6531372,1131.3972168z"/>
<path class="st1" d="M823.3987427,1129.1452637c1.0374756,0,1.8786011,0.84021,1.8786011,1.8765869h0.000061v40.5354004
	l-0.000061,0.0001221c0,1.036377-0.8411255,1.8765869-1.8787231,1.8764648c0,0.0001221,0,0,0,0h0.0001221h-145.786438
	l-0.0001221,0.0001221c-1.0374756-0.0001221-1.8786621-0.84021-1.8786621-1.876709h0.000061v-40.5354004
	c0-1.036377,0.8411255-1.876709,1.8787231-1.8765869v-0.0001221h145.786438V1129.1452637L823.3987427,1129.1452637z"/>
<path class="st2" d="M823.3987427,1129.1452637c1.0374756,0,1.8786011,0.84021,1.8786011,1.8765869h0.000061v40.5354004
	l-0.000061,0.0001221c0,1.036377-0.8411255,1.8765869-1.8787231,1.8764648c0,0.0001221,0,0,0,0h0.0001221h-145.786438
	l-0.0001221,0.0001221c-1.0374756-0.0001221-1.8786621-0.84021-1.8786621-1.876709h0.000061v-40.5354004
	c0-1.036377,0.8411255-1.876709,1.8787231-1.8765869v-0.0001221h145.786438V1129.1452637L823.3987427,1129.1452637z"/>
<text transform="matrix(0.85 0 0 1 720.8212891 1142.6556396)" class="st3 st4">«FeatureType»</text>
<text transform="matrix(0.85 0 0 1 689.2587891 1153.9134521)" class="st5 st4">urf::AircraftNoiseControlZone</text>
<path class="st8" d="M188.7768707,17.4233017c1.2450562,0,2.2543945,1.0083008,2.2543945,2.2519531h0.0000305v66.0577393h-0.0000305
	c0,1.2437744-1.0093384,2.2520752-2.254425,2.2519531c0,0.0001221,0,0,0,0h0.0000305H54.2625885l-0.0000305,0.0001221
	c-1.2450714-0.0001221-2.254425-1.0083008-2.2544098-2.2520752V19.6752548c0-1.2436523,1.0093384-2.2519531,2.2544403-2.2519531l0,0
	H188.7768707L188.7768707,17.4233017L188.7768707,17.4233017z"/>
<path class="st9" d="M188.7768707,17.4233017c1.2450562,0,2.2543945,1.0083008,2.2543945,2.2519531h0.0000305v66.0577393h-0.0000305
	c0,1.2437744-1.0093384,2.2520752-2.254425,2.2519531c0,0.0001221,0,0,0,0h0.0000305H54.2625885l-0.0000305,0.0001221
	c-1.2450714-0.0001221-2.254425-1.0083008-2.2544098-2.2520752V19.6752548c0-1.2436523,1.0093384-2.2519531,2.2544403-2.2519531l0,0
	H188.7768707L188.7768707,17.4233017L188.7768707,17.4233017z"/>
<path class="st10" d="M69.6678467,39.942955c1.0375671,0,1.8786774,0.84021,1.8786774,1.876709h0.0000153v8.2572021H71.546524
	c0,1.036377-0.8411102,1.8765869-1.8786926,1.8765869l0,0h0.0000153h-8.2662354h-0.0000305
	c-1.0375671,0-1.8786926-0.84021-1.8786926-1.8765869h0.0000305V41.819664c0-1.036499,0.841095-1.876709,1.8786926-1.876709l0,0
	H69.6678467L69.6678467,39.942955L69.6678467,39.942955z"/>
<path class="st11" d="M69.6678467,39.942955c1.0375671,0,1.8786774,0.84021,1.8786774,1.876709h0.0000153v8.2572021H71.546524
	c0,1.036377-0.8411102,1.8765869-1.8786926,1.8765869l0,0h0.0000153h-8.2662354h-0.0000305
	c-1.0375671,0-1.8786926-0.84021-1.8786926-1.8765869h0.0000305V41.819664c0-1.036499,0.841095-1.876709,1.8786926-1.876709l0,0
	H69.6678467L69.6678467,39.942955L69.6678467,39.942955z"/>
<text transform="matrix(0.85 0 0 1 76.0551758 48.9446869)" class="st12 st13 st14">GMLで定義されたクラス</text>
<path class="st15" d="M69.6678467,54.2055283c1.0375671,0,1.8786774,0.8400879,1.8786774,1.8765869h0.0000153v8.2572021H71.546524
	c0,1.036499-0.8411102,1.876709-1.8786926,1.876709l0,0h0.0000153h-8.2662354h-0.0000305
	c-1.0375671,0-1.8786926-0.84021-1.8786926-1.876709h0.0000305v-8.2572021c0-1.036499,0.841095-1.876709,1.8786926-1.8765869
	v-0.0001221h8.2662354V54.2055283L69.6678467,54.2055283z"/>
<path class="st11" d="M69.6678467,54.2055283c1.0375671,0,1.8786774,0.8400879,1.8786774,1.8765869h0.0000153v8.2572021H71.546524
	c0,1.036499-0.8411102,1.876709-1.8786926,1.876709l0,0h0.0000153h-8.2662354h-0.0000305
	c-1.0375671,0-1.8786926-0.84021-1.8786926-1.876709h0.0000305v-8.2572021c0-1.036499,0.841095-1.876709,1.8786926-1.8765869
	v-0.0001221h8.2662354V54.2055283L69.6678467,54.2055283z"/>
<text transform="matrix(0.85 0 0 1 76.0551758 63.2103119)" class="st12 st13 st14">CityGMLで定義されたクラス</text>
<path class="st1" d="M69.6678467,68.4679794c1.0375671,0,1.8786774,0.8400879,1.8786774,1.8765869h0.0000153v8.2572021H71.546524
	c0,1.036499-0.8411102,1.876709-1.8786926,1.876709l0,0h0.0000153h-8.2662354h-0.0000305
	c-1.0375671,0-1.8786926-0.84021-1.8786926-1.876709h0.0000305v-8.2572021c0-1.036499,0.841095-1.8765869,1.8786926-1.8765869l0,0
	H69.6678467L69.6678467,68.4679794L69.6678467,68.4679794z"/>
<path class="st11" d="M69.6678467,68.4679794c1.0375671,0,1.8786774,0.8400879,1.8786774,1.8765869h0.0000153v8.2572021H71.546524
	c0,1.036499-0.8411102,1.876709-1.8786926,1.876709l0,0h0.0000153h-8.2662354h-0.0000305
	c-1.0375671,0-1.8786926-0.84021-1.8786926-1.876709h0.0000305v-8.2572021c0-1.036499,0.841095-1.8765869,1.8786926-1.8765869l0,0
	H69.6678467L69.6678467,68.4679794L69.6678467,68.4679794z"/>
<text transform="matrix(0.85 0 0 1 76.0551758 77.4759369)" class="st12 st13 st14">i-URで定義されたクラス</text>
<text transform="matrix(0.85 0 0 1 108.3676758 35.681015)" class="st12 st16 st17 st18">凡例</text>
<line class="st19" x1="322.5396729" y1="1173.4338379" x2="430.7522583" y2="1173.4338379"/>
<line class="st19" x1="457.8054199" y1="1210.9666748" x2="430.7522583" y2="1210.9666748"/>
<line class="st19" x1="430.7522583" y1="1210.9666748" x2="430.7522583" y2="201.3340759"/>
<polyline class="st20" points="435.2611084,213.344574 426.2434082,213.344574 430.7522583,201.3340759 435.2611084,213.344574 "/>
<polygon class="st19" points="435.2611084,213.344574 426.2434082,213.344574 430.7522583,201.3340759 "/>
<line class="st19" x1="660.7041016" y1="1046.572998" x2="430.7522583" y2="1046.572998"/>
<line class="st19" x1="457.8054199" y1="1012.0428467" x2="430.7522583" y2="1012.0428467"/>
<line class="st19" x1="632.8994751" y1="952.7409668" x2="430.7522583" y2="952.7409668"/>
<line class="st19" x1="457.8054199" y1="1117.1346436" x2="430.7522583" y2="1117.1346436"/>
<line class="st19" x1="457.8054199" y1="894.9404297" x2="430.7522583" y2="894.9404297"/>
<line class="st19" x1="457.8054199" y1="782.34198" x2="430.7522583" y2="782.34198"/>
<line class="st19" x1="570.5269165" y1="835.6386108" x2="430.7522583" y2="835.6386108"/>
<line class="st19" x1="457.8054199" y1="701.2711182" x2="430.7522583" y2="701.2711182"/>
<line class="st19" x1="623.130249" y1="729.7960815" x2="430.7522583" y2="729.7960815"/>
<line class="st19" x1="457.8054199" y1="629.2081299" x2="430.7522583" y2="629.2081299"/>
<line class="st19" x1="547.982605" y1="529.3708496" x2="430.7522583" y2="529.3708496"/>
<line class="st19" x1="675.7335815" y1="1151.6647949" x2="430.7522583" y2="1151.6647949"/>
<line class="st19" x1="623.130249" y1="355.2185974" x2="430.7522583" y2="355.2185974"/>
<line class="st19" x1="508.1543579" y1="70.7199326" x2="562.2606812" y2="70.7199326"/>
<polyline class="st20" points="550.2370605,75.2238388 550.2370605,66.2160263 562.2606812,70.7199326 550.2370605,75.2238388 "/>
<polygon class="st19" points="550.2370605,75.2238388 550.2370605,66.2160263 562.2606812,70.7199326 "/>
<line class="st19" x1="397.6873169" y1="1060.8354492" x2="430.7522583" y2="1060.8354492"/>
<line class="st19" x1="119.641037" y1="998.5310059" x2="430.7522583" y2="998.5310059"/>
<line class="st19" x1="397.6873169" y1="928.7199707" x2="430.7522583" y2="928.7199707"/>
<line class="st19" x1="209.0667267" y1="820.6254883" x2="430.7522583" y2="820.6254883"/>
<line class="st19" x1="412.7168579" y1="730.5467529" x2="430.7522583" y2="730.5467529"/>
<line class="st19" x1="223.3447723" y1="647.223877" x2="430.7522583" y2="647.223877"/>
<line class="st19" x1="393.9299316" y1="575.9116211" x2="430.7522583" y2="575.9116211"/>
<line class="st19" x1="208.3152618" y1="506.8511658" x2="430.7522583" y2="506.8511658"/>
<line class="st19" x1="276.699646" y1="446.0480652" x2="430.7522583" y2="446.0480652"/>
<line class="st19" x1="276.699646" y1="370.2316589" x2="430.7522583" y2="370.2316589"/>
<line class="st19" x1="430.7522583" y1="151.790741" x2="430.7522583" y2="106.7514267"/>
<polyline class="st20" points="435.2611084,118.7619247 426.2434082,118.7619247 430.7522583,106.7514267 435.2611084,118.7619247 
	"/>
<polygon class="st19" points="435.2611084,118.7619247 426.2434082,118.7619247 430.7522583,106.7514267 "/>
<line class="st19" x1="276.699646" y1="246.3735046" x2="430.7522583" y2="246.3735046"/>
<line class="st19" x1="457.8054199" y1="430.2841492" x2="430.7522583" y2="430.2841492"/>
</svg>
