<?xml version="1.0" encoding="utf-8"?>
<!-- Generator: Adobe Illustrator 27.5.0, SVG Export Plug-In . SVG Version: 6.00 Build 0)  -->
<svg version="1.1" id="レイヤー_1" xmlns="http://www.w3.org/2000/svg" xmlns:xlink="http://www.w3.org/1999/xlink" x="0px"
	 y="0px" viewBox="0 0 846.9786987 608" style="enable-background:new 0 0 846.9786987 608;" xml:space="preserve">
<style type="text/css">
	.st0{opacity:0.5019608;fill-rule:evenodd;clip-rule:evenodd;fill:#969696;enable-background:new    ;}
	.st1{fill-rule:evenodd;clip-rule:evenodd;fill:#FFCCFF;}
	.st2{fill:none;stroke:#000000;stroke-width:1.5013124;stroke-linecap:round;stroke-linejoin:round;stroke-miterlimit:10;}
	.st3{font-family:'YuGothicUI-Regular';}
	.st4{font-size:9.7585306px;}
	.st5{font-family:'YuGothicUI-Bold';}
	.st6{font-size:10.2875204px;}
	.st7{fill:none;stroke:#000000;stroke-width:0.2788152;stroke-miterlimit:10;}
	.st8{fill-rule:evenodd;clip-rule:evenodd;fill:#F0F0F0;}
	.st9{fill:none;stroke:#D7D7D7;stroke-width:0.7506562;stroke-linecap:square;stroke-miterlimit:10;}
	.st10{fill-rule:evenodd;clip-rule:evenodd;fill:#CCFFCC;}
	.st11{fill:none;stroke:#000000;stroke-width:0.7506562;stroke-linecap:square;stroke-miterlimit:10;}
	.st12{fill:#003060;}
	.st13{font-size:7.5065618px;}
	.st14{fill-rule:evenodd;clip-rule:evenodd;fill:#FFFFCC;}
	.st15{font-family:'Meiryo-Bold';}
	.st16{font-size:12.010499px;}
	.st17{fill:none;stroke:#000000;stroke-width:1.5013124;stroke-linecap:round;stroke-linejoin:bevel;stroke-miterlimit:10;}
	.st18{fill-rule:evenodd;clip-rule:evenodd;fill:#FFFFFF;}
</style>
<path class="st0" d="M445.6202393,186.1338959c1.0375366,0,1.8786621,0.8401489,1.8786621,1.8765869h0.0000305v63.8057861
	h-0.0000305c0,1.036499-0.8411255,1.876709-1.8786926,1.8766479c0,0.000061,0,0,0,0h0.0000305H305.8456116l-0.0000305,0.000061
	c-1.0375671-0.000061-1.8786621-0.84021-1.8786621-1.876709l0,0v-63.8057861c0-1.036438,0.841095-1.8765869,1.8786926-1.8765869l0,0
	H445.6202393L445.6202393,186.1338959L445.6202393,186.1338959z"/>
<path class="st1" d="M443.3658142,183.8819427c1.0375366,0,1.8786316,0.8401489,1.8786316,1.8765869h0.000061v63.8057861h-0.000061
	c0,1.036438-0.841095,1.8766479-1.8786926,1.8766479l0,0h0.000061H303.5911865h-0.0000305
	c-1.0375671,0-1.8786926-0.84021-1.8786926-1.8766479h0.0000305v-63.8057861c0-1.036438,0.841095-1.8766479,1.8786926-1.8765869
	v-0.000061h139.7746277V183.8819427L443.3658142,183.8819427z"/>
<path class="st2" d="M443.3658142,183.8819427c1.0375366,0,1.8786316,0.8401489,1.8786316,1.8765869h0.000061v63.8057861h-0.000061
	c0,1.036438-0.841095,1.8766479-1.8786926,1.8766479l0,0h0.000061H303.5911865h-0.0000305
	c-1.0375671,0-1.8786926-0.84021-1.8786926-1.8766479h0.0000305v-63.8057861c0-1.036438,0.841095-1.8766479,1.8786926-1.8765869
	v-0.000061h139.7746277V183.8819427L443.3658142,183.8819427z"/>
<text transform="matrix(0.85 0 0 1 341.5327148 198.9067383)" class="st3 st4">«FeatureType»</text>
<text transform="matrix(0.85 0 0 1 361.8295898 211.6567383)" class="st5 st4">Zone</text>
<line class="st2" x1="301.7124939" y1="217.6614227" x2="445.2445068" y2="217.6614227"/>
<text transform="matrix(0.85 0 0 1 305.4702148 231.1801758)" class="st3 st4">+ </text>
<text transform="matrix(0.85 0 0 1 322.0014648 231.1801758)" class="st3 st4">location: xs::string [0..1]</text>
<path class="st0" d="M503.4839172,291.225769c1.0375671,0,1.8786621,0.8401794,1.8786621,1.8766479l0.0000305-0.0000305v61.5538025
	l-0.0000305,0.0000305c0,1.036438-0.841095,1.8766479-1.8786926,1.8766174c0,0.0000305,0,0,0,0h0.0000305H253.2422791
	l-0.0000305,0.0000305c-1.0375671-0.0000305-1.8786926-0.84021-1.8786926-1.8766785h0.0000305v-61.5538025
	c0-1.036438,0.841095-1.8766479,1.8786926-1.8766174v-0.0000305h250.2416382V291.225769L503.4839172,291.225769z"/>
<path class="st1" d="M501.2294922,288.9738159c1.0375671,0,1.8786621,0.8401489,1.8786621,1.8766174l0.0000305-0.0000305v61.553833
	h-0.0000305c0,1.036438-0.841095,1.8766479-1.8786926,1.8766174c0,0.0000305,0,0,0,0h0.0000305H250.9878235v0.0000305
	c-1.0375671-0.0000305-1.8787079-0.84021-1.8787079-1.8766479h0.0000305v-61.553833
	c0-1.036438,0.8411102-1.8766479,1.8786774-1.8765869v-0.000061h250.2416687V288.9738159L501.2294922,288.9738159z"/>
<path class="st2" d="M501.2294922,288.9738159c1.0375671,0,1.8786621,0.8401489,1.8786621,1.8766174l0.0000305-0.0000305v61.553833
	h-0.0000305c0,1.036438-0.841095,1.8766479-1.8786926,1.8766174c0,0.0000305,0,0,0,0h0.0000305H250.9878235v0.0000305
	c-1.0375671-0.0000305-1.8787079-0.84021-1.8787079-1.8766479h0.0000305v-61.553833
	c0-1.036438,0.8411102-1.8766479,1.8786774-1.8765869v-0.000061h250.2416687V288.9738159L501.2294922,288.9738159z"/>
<text transform="matrix(0.85 0 0 1 344.5405273 303.9926758)" class="st3 st4">«FeatureType»</text>
<text transform="matrix(0.85 0 0 1 325.7592773 316.7504883)" class="st5 st4">ProjectPromotionArea</text>
<line class="st2" x1="249.1091461" y1="322.7532959" x2="503.1081848" y2="322.7532959"/>
<text transform="matrix(0.85 0 0 1 252.8608398 336.2661133)" class="st3 st4">+ </text>
<text transform="matrix(0.85 0 0 1 269.3999023 336.2661133)" class="st3 st4">developmentPolicy: gml:StringOrRefType [0..1]</text>
<text transform="matrix(0.85 0 0 1 252.8608398 349.0317383)" class="st3 st4">+ </text>
<text transform="matrix(0.85 0 0 1 269.3999023 349.0317383)" class="st3 st4">publicFacilitiesPlans: gml:StringOrRefType [0..1]</text>
<path class="st0" d="M272.0291748,509.666748c1.0375671,0,1.8786621,0.8401794,1.8786621,1.8766174l0.0000305-0.0000305v61.553833
	h-0.0000305c0,1.036438-0.841095,1.8766479-1.8786926,1.8765869c0,0.000061,0,0,0,0h0.0000305H65.3731461v0.000061
	c-1.0375671-0.000061-1.8786964-0.84021-1.8786964-1.8766479h0.0000076v-61.553833
	c0-1.0364075,0.8411217-1.8766479,1.8786888-1.8765869v-0.000061h206.6560364V509.666748L272.0291748,509.666748z"/>
<path class="st1" d="M269.7747498,507.4147644c1.0375671,0,1.8786621,0.8401794,1.8786621,1.8766479l0.0000305-0.000061v61.5538025
	l-0.0000305,0.000061c0,1.036438-0.841095,1.8766479-1.8786926,1.8765869c0,0.000061,0,0,0,0h0.0000305H63.1187172
	l-0.0000076,0.000061c-1.0375671-0.000061-1.8786926-0.84021-1.8786926-1.876709h0.0000076v-61.5538025
	c0-1.0364075,0.8411179-1.8766174,1.8786926-1.8765869v-0.0000305h206.6560364V507.4147644L269.7747498,507.4147644z"/>
<path class="st2" d="M269.7747498,507.4147644c1.0375671,0,1.8786621,0.8401794,1.8786621,1.8766479l0.0000305-0.000061v61.5538025
	l-0.0000305,0.000061c0,1.036438-0.841095,1.8766479-1.8786926,1.8765869c0,0.000061,0,0,0,0h0.0000305H63.1187172
	l-0.0000076,0.000061c-1.0375671-0.000061-1.8786926-0.84021-1.8786926-1.876709h0.0000076v-61.5538025
	c0-1.0364075,0.8411179-1.8766174,1.8786926-1.8765869v-0.0000305h206.6560364V507.4147644L269.7747498,507.4147644z"/>
<text transform="matrix(0.85 0 0 1 134.8764648 522.4301758)" class="st3 st4">«FeatureType»</text>
<text transform="matrix(0.85 0 0 1 82.2749023 535.1879883)" class="st5 st4">UrbanRedevelopmentPromotionArea</text>
<line class="st2" x1="61.2400246" y1="541.1942139" x2="271.6534424" y2="541.1942139"/>
<text transform="matrix(0.85 0 0 1 64.9936523 554.7119141)" class="st3 st4">+ </text>
<text transform="matrix(0.85 0 0 1 81.5249023 554.7119141)" class="st3 st4">publicFacilities: gml:StringOrRefType</text>
<text transform="matrix(0.85 0 0 1 64.9936523 567.4697266)" class="st3 st4">+ </text>
<text transform="matrix(0.85 0 0 1 81.5249023 567.4697266)" class="st3 st4">unitArea: gml:StringOrRefType</text>
<path class="st0" d="M379.4903259,441.3570251c1.0375366,0,1.8786316,0.8401794,1.8786316,1.8766479l0.000061-0.000061v48.7926636
	l-0.000061,0.0000305c0,1.036438-0.841095,1.8766479-1.8786926,1.8766174c0,0.0000305,0,0,0,0h0.000061H223.1832123
	l-0.0000305,0.0000305c-1.0375671-0.0000305-1.8786926-0.84021-1.8786926-1.8766785h0.0000305v-48.7926636
	c0-1.0364075,0.841095-1.8766174,1.8786926-1.8765869v-0.0000305h156.3071136V441.3570251L379.4903259,441.3570251z"/>
<path class="st1" d="M377.2358704,439.105072c1.0375671,0,1.8786621,0.8401794,1.8786621,1.8766174l0.0000305-0.0000305v48.7926331
	l-0.0000305,0.000061c0,1.0364075-0.841095,1.8766479-1.8786621,1.8765869c0,0.000061,0,0,0,0l0,0H220.928772l-0.0000153,0.000061
	c-1.0375671-0.000061-1.8786926-0.8402405-1.8786926-1.876709h0.0000305v-48.7926331
	c0-1.0364075,0.841095-1.8766479,1.8786774-1.8765869v-0.000061h156.3070984V439.105072L377.2358704,439.105072z"/>
<path class="st2" d="M377.2358704,439.105072c1.0375671,0,1.8786621,0.8401794,1.8786621,1.8766174l0.0000305-0.0000305v48.7926331
	l-0.0000305,0.000061c0,1.0364075-0.841095,1.8766479-1.8786621,1.8765869c0,0.000061,0,0,0,0l0,0H220.928772l-0.0000153,0.000061
	c-1.0375671-0.000061-1.8786926-0.8402405-1.8786926-1.876709h0.0000305v-48.7926331
	c0-1.0364075,0.841095-1.8766479,1.8786774-1.8765869v-0.000061h156.3070984V439.105072L377.2358704,439.105072z"/>
<text transform="matrix(0.85 0 0 1 267.1420898 454.1254883)" class="st3 st4">«FeatureType»</text>
<text transform="matrix(0.85 0 0 1 222.0561523 466.8833008)" class="st5 st4">LandReadjustmentPromotionArea</text>
<path class="st0" d="M513.2531128,508.9160767c1.0375366,0,1.8786011,0.8401794,1.8786011,1.8766479l0.000061-0.000061v48.7926636
	l-0.000061,0.000061c0,1.036377-0.8410645,1.8766479-1.8786621,1.8765869c0,0.000061,0,0,0,0h0.000061H305.8456116
	l-0.0000305,0.000061c-1.0375671-0.000061-1.8786621-0.840271-1.8786621-1.876709l0,0v-48.7926636
	c0-1.0364075,0.841095-1.8766174,1.8786926-1.8765869v-0.0000305h207.4075012V508.9160767L513.2531128,508.9160767z"/>
<path class="st1" d="M510.9986877,506.6641235c1.0375061,0,1.8786316,0.8401794,1.8786316,1.8766174l0.000061-0.0000305v48.7926636
	l-0.000061,0.000061c0,1.036377-0.8411255,1.8765869-1.8786926,1.8765869l0,0h0.000061H303.5911865h-0.0000305
	c-1.0375671,0-1.8786926-0.84021-1.8786926-1.8766479h0.0000305v-48.7926636c0-1.0364075,0.841095-1.8766479,1.8786926-1.8765869
	v-0.000061h207.4075012V506.6641235L510.9986877,506.6641235z"/>
<path class="st2" d="M510.9986877,506.6641235c1.0375061,0,1.8786316,0.8401794,1.8786316,1.8766174l0.000061-0.0000305v48.7926636
	l-0.000061,0.000061c0,1.036377-0.8411255,1.8765869-1.8786926,1.8765869l0,0h0.000061H303.5911865h-0.0000305
	c-1.0375671,0-1.8786926-0.84021-1.8786926-1.8766479h0.0000305v-48.7926636c0-1.0364075,0.841095-1.8766479,1.8786926-1.8765869
	v-0.000061h207.4075012V506.6641235L510.9986877,506.6641235z"/>
<text transform="matrix(0.85 0 0 1 375.3530273 521.6879883)" class="st3 st4">«FeatureType»</text>
<text transform="matrix(0.85 0 0 1 306.9702148 534.4379883)" class="st5 st4">ResidentialBlockConstructionPromotionArea</text>
<path class="st0" d="M743.2049561,441.3570251c1.0375366,0,1.8786621,0.8401794,1.8786621,1.8766479v-0.000061v48.7926636v0.0000305
	c0,1.036438-0.8411255,1.8766479-1.8787231,1.8766174c0,0.0000305,0,0,0,0h0.000061H418.5670776l-0.0000305,0.0000305
	c-1.0375366-0.0000305-1.8786926-0.84021-1.8786926-1.8766785h0.0000305v-48.7926636
	c0-1.0364075,0.8411255-1.8766174,1.8786926-1.8765869v-0.0000305h324.6378784V441.3570251L743.2049561,441.3570251z"/>
<path class="st1" d="M740.9505005,439.105072c1.0375977,0,1.8786621,0.8401794,1.8786621,1.8766174l0.000061-0.0000305v48.7926331
	l-0.000061,0.000061c0,1.0364075-0.8410645,1.8766479-1.8786621,1.8765869c0,0.000061,0,0,0,0l0,0H416.3126526l-0.0000305,0.000061
	c-1.0375671-0.000061-1.8786926-0.8402405-1.8786926-1.876709h0.0000305v-48.7926331
	c0-1.0364075,0.841095-1.8766479,1.8786926-1.8765869v-0.000061h324.6378479V439.105072L740.9505005,439.105072z"/>
<path class="st2" d="M740.9505005,439.105072c1.0375977,0,1.8786621,0.8401794,1.8786621,1.8766174l0.000061-0.0000305v48.7926331
	l-0.000061,0.000061c0,1.0364075-0.8410645,1.8766479-1.8786621,1.8765869c0,0.000061,0,0,0,0l0,0H416.3126526l-0.0000305,0.000061
	c-1.0375671-0.000061-1.8786926-0.8402405-1.8786926-1.876709h0.0000305v-48.7926331
	c0-1.0364075,0.841095-1.8766479,1.8786926-1.8765869v-0.000061h324.6378479V439.105072L740.9505005,439.105072z"/>
<text transform="matrix(0.85 0 0 1 546.6889648 454.1254883)" class="st3 st4">«FeatureType»</text>
<text transform="matrix(0.85 0 0 1 417.4389648 466.8833008)" class="st5 st4">LandReadjustmentPromotionAreasForCoreBusinessUrbanDevelopment</text>
<path class="st0" d="M784.5361328,36.0026093c1.0375366,0,1.8786011,0.84021,1.8786011,1.8766479h0.0001221V382.430481h-0.0001221
	c0,1.036438-0.8410645,1.8766479-1.8786621,1.8766174c0,0.0000305,0,0,0,0h0.000061H531.2885132v0.0000305
	c-1.0375977-0.0000305-1.8787231-0.84021-1.8787231-1.8766479h0.000061V37.8792572l0,0
	c0-1.036438,0.8410645-1.8766479,1.8786621-1.8766479l0,0H784.5361328L784.5361328,36.0026093L784.5361328,36.0026093z"/>
<path class="st1" d="M782.2817383,33.7506561c1.0374756,0,1.8786011,0.84021,1.8786011,1.8766479h0.000061v344.5512085
	l-0.000061,0.0000305c0,1.036438-0.8411255,1.8766479-1.8787231,1.8766174c0,0.0000305,0,0,0,0h0.0001221H529.0341187
	l-0.000061,0.0000305c-1.0375366-0.0000305-1.8787231-0.84021-1.8787231-1.8766785h0.000061V35.6273041l0,0
	c0-1.036438,0.8411255-1.8766479,1.8787231-1.8766479l0,0H782.2817383L782.2817383,33.7506561L782.2817383,33.7506561z"/>
<path class="st2" d="M782.2817383,33.7506561c1.0374756,0,1.8786011,0.84021,1.8786011,1.8766479h0.000061v344.5512085
	l-0.000061,0.0000305c0,1.036438-0.8411255,1.8766479-1.8787231,1.8766174c0,0.0000305,0,0,0,0h0.0001221H529.0341187
	l-0.000061,0.0000305c-1.0375366-0.0000305-1.8787231-0.84021-1.8787231-1.8766785h0.000061V35.6273041l0,0
	c0-1.036438,0.8411255-1.8766479,1.8787231-1.8766479l0,0H782.2817383L782.2817383,33.7506561L782.2817383,33.7506561z"/>
<text transform="matrix(0.85 0 -0.3165385 0.9485797 725.4432983 46.5234718)" class="st3 st6">_CityObject</text>
<text transform="matrix(0.85 0 0 1 624.0952148 63.7817383)" class="st3 st4">«FeatureType»</text>
<text transform="matrix(0.85 0 -0.3165385 0.9485797 620.3330078 76.5519485)" class="st3 st6">_</text>
<text transform="matrix(0.85 0 -0.3165385 0.9485797 620.3330078 76.5519485)" class="st7 st3 st6">_</text>
<text transform="matrix(0.85 0 -0.3165385 0.9485797 623.7001953 76.5519485)" class="st3 st6">U</text>
<text transform="matrix(0.85 0 -0.3165385 0.9485797 623.7001953 76.5519485)" class="st7 st3 st6">U</text>
<text transform="matrix(0.85 0 -0.3165385 0.9485797 629.7509766 76.5519485)" class="st3 st6">r</text>
<text transform="matrix(0.85 0 -0.3165385 0.9485797 629.7509766 76.5519485)" class="st7 st3 st6">r</text>
<text transform="matrix(0.85 0 -0.3165385 0.9485797 633.1064453 76.5519485)" class="st3 st6">b</text>
<text transform="matrix(0.85 0 -0.3165385 0.9485797 633.1064453 76.5519485)" class="st7 st3 st6">b</text>
<text transform="matrix(0.85 0 -0.3165385 0.9485797 638.4824219 76.5519485)" class="st3 st6">a</text>
<text transform="matrix(0.85 0 -0.3165385 0.9485797 638.4824219 76.5519485)" class="st7 st3 st6">a</text>
<text transform="matrix(0.85 0 -0.3165385 0.9485797 643.1855469 76.5519485)" class="st3 st6">n</text>
<text transform="matrix(0.85 0 -0.3165385 0.9485797 643.1855469 76.5519485)" class="st7 st3 st6">n</text>
<text transform="matrix(0.85 0 -0.3165385 0.9485797 648.5625 76.5519485)" class="st3 st6">F</text>
<text transform="matrix(0.85 0 -0.3165385 0.9485797 648.5625 76.5519485)" class="st7 st3 st6">F</text>
<text transform="matrix(0.85 0 -0.3165385 0.9485797 653.2695312 76.5519485)" class="st3 st6">un</text>
<text transform="matrix(0.85 0 -0.3165385 0.9485797 653.2695312 76.5519485)" class="st7 st3 st6">un</text>
<text transform="matrix(0.85 0 -0.3165385 0.9485797 664.0234375 76.5519485)" class="st3 st6">c</text>
<text transform="matrix(0.85 0 -0.3165385 0.9485797 664.0234375 76.5519485)" class="st7 st3 st6">c</text>
<text transform="matrix(0.85 0 -0.3165385 0.9485797 668.0625 76.5519485)" class="st3 st6">t</text>
<text transform="matrix(0.85 0 -0.3165385 0.9485797 668.0625 76.5519485)" class="st7 st3 st6">t</text>
<text transform="matrix(0.85 0 -0.3165385 0.9485797 671.4199219 76.5519485)" class="st3 st6">i</text>
<text transform="matrix(0.85 0 -0.3165385 0.9485797 671.4199219 76.5519485)" class="st7 st3 st6">i</text>
<text transform="matrix(0.85 0 -0.3165385 0.9485797 673.4414062 76.5519485)" class="st3 st6">o</text>
<text transform="matrix(0.85 0 -0.3165385 0.9485797 673.4414062 76.5519485)" class="st7 st3 st6">o</text>
<text transform="matrix(0.85 0 -0.3165385 0.9485797 678.8183594 76.5519485)" class="st3 st6">n</text>
<text transform="matrix(0.85 0 -0.3165385 0.9485797 678.8183594 76.5519485)" class="st7 st3 st6">n</text>
<line class="st2" x1="527.1553955" y1="82.5433197" x2="784.1604004" y2="82.5433197"/>
<text transform="matrix(0.85 0 0 1 530.9077148 96.0629883)" class="st3 st4">+ </text>
<text transform="matrix(0.85 0 0 1 547.4467773 96.0629883)" class="st3 st4">areaClassificationType: gml::CodeType [0..1]</text>
<text transform="matrix(0.85 0 0 1 530.9077148 108.8286133)" class="st3 st4">+ </text>
<text transform="matrix(0.85 0 0 1 547.4467773 108.8286133)" class="st3 st4">city: gml::CodeType [0..1]</text>
<text transform="matrix(0.85 0 0 1 530.9077148 121.5786133)" class="st3 st4">+ </text>
<text transform="matrix(0.85 0 0 1 547.4467773 121.5786133)" class="st3 st4">class: gml::CodeType [0..1]</text>
<text transform="matrix(0.85 0 0 1 530.9077148 134.3442383)" class="st3 st4">+ </text>
<text transform="matrix(0.85 0 0 1 547.4467773 134.3442383)" class="st3 st4">custodian: xs::string [0..1]</text>
<text transform="matrix(0.85 0 0 1 530.9077148 147.1098633)" class="st3 st4">+ </text>
<text transform="matrix(0.85 0 0 1 547.4467773 147.1098633)" class="st3 st4">enactmentFiscalYear: xs::gYear [0..1]</text>
<text transform="matrix(0.85 0 0 1 530.9077148 159.8676758)" class="st3 st4">+ </text>
<text transform="matrix(0.85 0 0 1 547.4467773 159.8676758)" class="st3 st4">expirationFiscalYear: xs::gYear [0..1]</text>
<text transform="matrix(0.85 0 0 1 530.9077148 172.6254883)" class="st3 st4">+ </text>
<text transform="matrix(0.85 0 0 1 547.4467773 172.6254883)" class="st3 st4">finalNotificationDate: xs::date [0..1]</text>
<text transform="matrix(0.85 0 0 1 530.9077148 185.3911133)" class="st3 st4">+ </text>
<text transform="matrix(0.85 0 0 1 547.4467773 185.3911133)" class="st3 st4">finalNotificationNumber: xs::string [0..1]</text>
<text transform="matrix(0.85 0 0 1 530.9077148 198.1489258)" class="st3 st4">+ </text>
<text transform="matrix(0.85 0 0 1 547.4467773 198.1489258)" class="st3 st4">function: gml::CodeType [0..*]</text>
<text transform="matrix(0.85 0 0 1 530.9077148 210.9145508)" class="st3 st4">+ </text>
<text transform="matrix(0.85 0 0 1 547.4467773 210.9145508)" class="st3 st4">legalGrounds: xs::string [0..1]</text>
<text transform="matrix(0.85 0 0 1 530.9077148 223.6723633)" class="st3 st4">+ </text>
<text transform="matrix(0.85 0 0 1 547.4467773 223.6723633)" class="st3 st4">nominalArea: gml::MeasureType [0..1]</text>
<text transform="matrix(0.85 0 0 1 530.9077148 236.4301758)" class="st3 st4">+ </text>
<text transform="matrix(0.85 0 0 1 547.4467773 236.4301758)" class="st3 st4">note: gml:StringOrRefType [0..1]</text>
<text transform="matrix(0.85 0 0 1 530.9077148 249.1958008)" class="st3 st4">+ </text>
<text transform="matrix(0.85 0 0 1 547.4467773 249.1958008)" class="st3 st4">notificationNumber: xs::string [0..1]</text>
<text transform="matrix(0.85 0 0 1 530.9077148 261.9614258)" class="st3 st4">+ </text>
<text transform="matrix(0.85 0 0 1 547.4467773 261.9614258)" class="st3 st4">prefecture: gml::CodeType [0..1]</text>
<text transform="matrix(0.85 0 0 1 530.9077148 274.7114258)" class="st3 st4">+ </text>
<text transform="matrix(0.85 0 0 1 547.4467773 274.7114258)" class="st3 st4">reason: gml:StringOrRefType [0..1]</text>
<text transform="matrix(0.85 0 0 1 530.9077148 287.4770508)" class="st3 st4">+ </text>
<text transform="matrix(0.85 0 0 1 547.4467773 287.4770508)" class="st3 st4">reference: xs::anyURI [0..1]</text>
<text transform="matrix(0.85 0 0 1 530.9077148 300.2426758)" class="st3 st4">+ </text>
<text transform="matrix(0.85 0 0 1 547.4467773 300.2426758)" class="st3 st4">surveyYear: xs::gYear [0..1]</text>
<text transform="matrix(0.85 0 0 1 530.9077148 312.9926758)" class="st3 st4">+ </text>
<text transform="matrix(0.85 0 0 1 547.4467773 312.9926758)" class="st3 st4">urbanPlanType: gml::CodeType [0..1]</text>
<text transform="matrix(0.85 0 0 1 530.9077148 325.7583008)" class="st3 st4">+ </text>
<text transform="matrix(0.85 0 0 1 547.4467773 325.7583008)" class="st3 st4">usage: gml::CodeType [0..*]</text>
<text transform="matrix(0.85 0 0 1 530.9077148 338.5239258)" class="st3 st4">+ </text>
<text transform="matrix(0.85 0 0 1 547.4467773 338.5239258)" class="st3 st4">validFrom: xs::date [0..1]</text>
<text transform="matrix(0.85 0 0 1 530.9077148 351.2817383)" class="st3 st4">+ </text>
<text transform="matrix(0.85 0 0 1 547.4467773 351.2817383)" class="st3 st4">validFromType: gml::CodeType [0..1]</text>
<text transform="matrix(0.85 0 0 1 530.9077148 364.0395508)" class="st3 st4">+ </text>
<text transform="matrix(0.85 0 0 1 547.4467773 364.0395508)" class="st3 st4">validTo: xs::date [0..1]</text>
<text transform="matrix(0.85 0 0 1 530.9077148 376.8051758)" class="st3 st4">+ </text>
<text transform="matrix(0.85 0 0 1 547.4467773 376.8051758)" class="st3 st4">validToType: gml::CodeType [0..1]</text>
<path class="st8" d="M227.31633,198.8950043c1.2450714,0,2.2544098,1.0082397,2.2544098,2.2520142l0.0000153-0.000061v66.057785
	l-0.0000153,0.0000305c0,1.2437134-1.0093384,2.2519531-2.2544403,2.2519531l0,0h0.0000305H116.0978088h-0.0000153
	c-1.2450714,0-2.254425-1.0082397-2.2544098-2.2519836v-66.057785c0-1.2437134,1.0093384-2.2519531,2.254425-2.2519531l0,0
	H227.31633L227.31633,198.8950043L227.31633,198.8950043z"/>
<path class="st9" d="M227.31633,198.8950043c1.2450714,0,2.2544098,1.0082397,2.2544098,2.2520142l0.0000153-0.000061v66.057785
	l-0.0000153,0.0000305c0,1.2437134-1.0093384,2.2519531-2.2544403,2.2519531l0,0h0.0000305H116.0978088h-0.0000153
	c-1.2450714,0-2.254425-1.0082397-2.2544098-2.2519836v-66.057785c0-1.2437134,1.0093384-2.2519531,2.254425-2.2519531l0,0
	H227.31633L227.31633,198.8950043L227.31633,198.8950043z"/>
<path class="st10" d="M131.5030823,221.4147186c1.0375671,0,1.8786774,0.84021,1.8786774,1.8766479h0.0000153v8.2572021h-0.0000153
	c0,1.036438-0.8411102,1.8766479-1.8786926,1.8766479l0,0h0.0000153h-8.2662506l0,0
	c-1.0375671,0-1.8787079-0.84021-1.8787079-1.8766479h0.0000153v-8.2572021c0-1.036438,0.8411255-1.8766479,1.8786926-1.8766479l0,0
	H131.5030823L131.5030823,221.4147186L131.5030823,221.4147186z"/>
<path class="st11" d="M131.5030823,221.4147186c1.0375671,0,1.8786774,0.84021,1.8786774,1.8766479h0.0000153v8.2572021h-0.0000153
	c0,1.036438-0.8411102,1.8766479-1.8786926,1.8766479l0,0h0.0000153h-8.2662506l0,0
	c-1.0375671,0-1.8787079-0.84021-1.8787079-1.8766479h0.0000153v-8.2572021c0-1.036438,0.8411255-1.8766479,1.8786926-1.8766479l0,0
	H131.5030823L131.5030823,221.4147186L131.5030823,221.4147186z"/>
<text transform="matrix(0.85 0 0 1 137.8920898 230.4223633)" class="st12 st3 st13">GMLに定義されたクラス</text>
<path class="st14" d="M131.5030823,235.6772308c1.0375671,0,1.8786774,0.8401489,1.8786774,1.8765869h0.0000153v8.2572021
	h-0.0000153c0,1.036499-0.8411102,1.876709-1.8786926,1.8766479c0,0.000061,0,0,0,0h0.0000153h-8.2662506v0.000061
	c-1.0375671-0.000061-1.8787079-0.84021-1.8787079-1.876709h0.0000153v-8.2572021
	c0-1.036438,0.8411255-1.8766479,1.8786926-1.8765869v-0.000061h8.2662506V235.6772308L131.5030823,235.6772308z"/>
<path class="st11" d="M131.5030823,235.6772308c1.0375671,0,1.8786774,0.8401489,1.8786774,1.8765869h0.0000153v8.2572021
	h-0.0000153c0,1.036499-0.8411102,1.876709-1.8786926,1.8766479c0,0.000061,0,0,0,0h0.0000153h-8.2662506v0.000061
	c-1.0375671-0.000061-1.8787079-0.84021-1.8787079-1.876709h0.0000153v-8.2572021
	c0-1.036438,0.8411255-1.8766479,1.8786926-1.8765869v-0.000061h8.2662506V235.6772308L131.5030823,235.6772308z"/>
<text transform="matrix(0.85 0 0 1 137.8920898 244.6879883)" class="st12 st3 st13">CityGMLに定義されたクラス</text>
<path class="st1" d="M131.5030823,249.939682c1.0375671,0,1.8786774,0.8401489,1.8786774,1.8765869h0.0000153v8.2572479
	l-0.0000153,0.0000305c0,1.036438-0.8411102,1.8766479-1.8786926,1.8765869c0,0.000061,0,0,0,0h0.0000153h-8.2662506v0.000061
	c-1.0375671-0.000061-1.8787079-0.84021-1.8787079-1.8766785h0.0000153v-8.2572479
	c0-1.036438,0.8411255-1.8766479,1.8786926-1.8765869v-0.000061h8.2662506V249.939682L131.5030823,249.939682z"/>
<path class="st11" d="M131.5030823,249.939682c1.0375671,0,1.8786774,0.8401489,1.8786774,1.8765869h0.0000153v8.2572479
	l-0.0000153,0.0000305c0,1.036438-0.8411102,1.8766479-1.8786926,1.8765869c0,0.000061,0,0,0,0h0.0000153h-8.2662506v0.000061
	c-1.0375671-0.000061-1.8787079-0.84021-1.8787079-1.8766785h0.0000153v-8.2572479
	c0-1.036438,0.8411255-1.8766479,1.8786926-1.8765869v-0.000061h8.2662506V249.939682L131.5030823,249.939682z"/>
<text transform="matrix(0.85 0 0 1 137.8920898 258.9536133)" class="st12 st3 st13">i-URに定義されたクラス</text>
<text transform="matrix(0.85 0 0 1 163.4389648 216.9223633)" class="st12 st15 st16">凡例</text>
<line class="st17" x1="446.747467" y1="210.9055023" x2="526.4039307" y2="210.9055023"/>
<polyline class="st18" points="514.3803101,215.4094696 514.3803101,206.4015961 526.4039307,210.9055023 514.3803101,215.4094696 
	"/>
<polygon class="st17" points="514.3803101,215.4094696 514.3803101,206.4015961 526.4039307,210.9055023 "/>
<line class="st17" x1="384.3749084" y1="288.223114" x2="384.3749084" y2="252.9422455"/>
<polyline class="st18" points="388.8837585,264.9527588 379.8660583,264.9527588 384.3749084,252.9422455 388.8837585,264.9527588 
	"/>
<polygon class="st17" points="388.8837585,264.9527588 379.8660583,264.9527588 384.3749084,252.9422455 "/>
<line class="st17" x1="165.6952515" y1="506.6640625" x2="165.6952515" y2="392.5643311"/>
<line class="st17" x1="165.6952515" y1="392.5643311" x2="376.1086731" y2="392.5643311"/>
<line class="st17" x1="376.1086731" y1="392.5643311" x2="376.1086731" y2="355.7821655"/>
<polyline class="st18" points="380.6175232,367.7926636 371.599823,367.7926636 376.1086731,355.7821655 380.6175232,367.7926636 
	"/>
<polygon class="st17" points="380.6175232,367.7926636 371.599823,367.7926636 376.1086731,355.7821655 "/>
<line class="st17" x1="301.7124939" y1="438.3543701" x2="301.7124939" y2="392.5643311"/>
<line class="st17" x1="395.6470642" y1="505.9134216" x2="395.6470642" y2="392.5643311"/>
<line class="st17" x1="576.7529297" y1="438.3543701" x2="576.7529297" y2="392.5643311"/>
<line class="st17" x1="576.7529297" y1="392.5643311" x2="376.1086731" y2="392.5643311"/>
</svg>
