<?xml version="1.0" encoding="utf-8"?>
<!-- Generator: Adobe Illustrator 27.5.0, SVG Export Plug-In . SVG Version: 6.00 Build 0)  -->
<svg version="1.1" id="レイヤー_1" xmlns="http://www.w3.org/2000/svg" xmlns:xlink="http://www.w3.org/1999/xlink" x="0px"
	 y="0px" viewBox="0 0 595.2755737 372.1101685" style="enable-background:new 0 0 595.2755737 372.1101685;" xml:space="preserve">
<style type="text/css">
	.st0{opacity:0.5019608;fill-rule:evenodd;clip-rule:evenodd;fill:#969696;enable-background:new    ;}
	.st1{fill-rule:evenodd;clip-rule:evenodd;fill:#FFCCFF;}
	.st2{fill:none;stroke:#000000;stroke-width:1.5013124;stroke-linecap:round;stroke-linejoin:round;stroke-miterlimit:10;}
	.st3{font-family:'YuGothicUI-Regular';}
	.st4{font-size:10.2875204px;}
	.st5{font-size:9.7585306px;}
	.st6{fill:none;stroke:#000000;stroke-width:0.2788152;stroke-miterlimit:10;}
	.st7{font-family:'YuGothicUI-Bold';}
	.st8{fill-rule:evenodd;clip-rule:evenodd;fill:#F0F0F0;}
	.st9{fill:none;stroke:#D7D7D7;stroke-width:0.7506562;stroke-linecap:square;stroke-miterlimit:10;}
	.st10{fill-rule:evenodd;clip-rule:evenodd;fill:#CCFFCC;}
	.st11{fill:none;stroke:#000000;stroke-width:0.7506562;stroke-linecap:square;stroke-miterlimit:10;}
	.st12{fill:#003060;}
	.st13{fill-rule:evenodd;clip-rule:evenodd;fill:#FFFFCC;}
	.st14{font-family:'Meiryo-Bold';}
	.st15{font-size:12.010499px;}
	.st16{letter-spacing:-1.1764705;}
	.st17{fill:none;stroke:#000000;stroke-width:1.5013124;stroke-linecap:round;stroke-linejoin:bevel;stroke-miterlimit:10;}
	.st18{fill-rule:evenodd;clip-rule:evenodd;fill:#FFFFFF;}
</style>
<path class="st0" d="M567.4379883,14.0026093c1.0375366,0,1.8786011,0.84021,1.8786011,1.8766479h0.000061V360.430481
	l-0.000061,0.000061c0,1.0364075-0.8410645,1.8766174-1.8786621,1.8765869c0,0.0000305,0,0,0,0h0.000061H314.1904602
	l-0.000061,0.0000305c-1.0375366-0.0000305-1.8787231-0.84021-1.8787231-1.8766785h0.000061V15.8792572
	c0-1.036438,0.8411255-1.8766479,1.8787231-1.8766479l0,0H567.4379883L567.4379883,14.0026093L567.4379883,14.0026093z"/>
<path class="st1" d="M565.1835327,11.7506561c1.0375366,0,1.8786621,0.8401794,1.8786621,1.8766479v-0.0000305v344.5512085
	v0.0000305c0,1.0364075-0.8411255,1.8766479-1.8787231,1.8765869c0,0.000061,0,0,0,0h0.000061H311.9360046l-0.000061,0.000061
	c-1.0375366-0.000061-1.8786621-0.8402405-1.8786621-1.8766785h0.000061V13.6272736
	c0-1.036438,0.8410645-1.8766174,1.8786621-1.8766174l0,0H565.1835327L565.1835327,11.7506561L565.1835327,11.7506561z"/>
<path class="st2" d="M565.1835327,11.7506561c1.0375366,0,1.8786621,0.8401794,1.8786621,1.8766479v-0.0000305v344.5512085
	v0.0000305c0,1.0364075-0.8411255,1.8766479-1.8787231,1.8765869c0,0.000061,0,0,0,0h0.000061H311.9360046l-0.000061,0.000061
	c-1.0375366-0.000061-1.8786621-0.8402405-1.8786621-1.8766785h0.000061V13.6272736
	c0-1.036438,0.8410645-1.8766174,1.8786621-1.8766174l0,0H565.1835327L565.1835327,11.7506561L565.1835327,11.7506561z"/>
<text transform="matrix(0.85 0 -0.3165385 0.9485797 508.946106 24.5282803)" class="st3 st4">_CityObject</text>
<text transform="matrix(0.85 0 0 1 406.9921875 41.7797852)" class="st3 st5">«FeatureType»</text>
<text transform="matrix(0.85 0 -0.3165385 0.9485797 394.2118225 54.5567551)" class="st3 st4">u</text>
<text transform="matrix(0.85 0 -0.3165385 0.9485797 394.2118225 54.5567551)" class="st6 st3 st4">u</text>
<text transform="matrix(0.85 0 -0.3165385 0.9485797 400.2176819 54.5567551)" class="st3 st4">r</text>
<text transform="matrix(0.85 0 -0.3165385 0.9485797 400.2176819 54.5567551)" class="st6 st3 st4">r</text>
<text transform="matrix(0.85 0 -0.3165385 0.9485797 403.9657288 54.5567551)" class="st3 st4">f</text>
<text transform="matrix(0.85 0 -0.3165385 0.9485797 403.9657288 54.5567551)" class="st6 st3 st4">f</text>
<text transform="matrix(0.85 0 -0.3165385 0.9485797 406.9754944 54.5567551)" class="st3 st4">::</text>
<text transform="matrix(0.85 0 -0.3165385 0.9485797 406.9754944 54.5567551)" class="st6 st3 st4">::</text>
<text transform="matrix(0.85 0 -0.3165385 0.9485797 411.4657288 54.5567551)" class="st3 st4">_</text>
<text transform="matrix(0.85 0 -0.3165385 0.9485797 411.4657288 54.5567551)" class="st6 st3 st4">_</text>
<text transform="matrix(0.85 0 -0.3165385 0.9485797 415.2274475 54.5567551)" class="st3 st4">U</text>
<text transform="matrix(0.85 0 -0.3165385 0.9485797 415.2274475 54.5567551)" class="st6 st3 st4">U</text>
<text transform="matrix(0.85 0 -0.3165385 0.9485797 421.9872131 54.5567551)" class="st3 st4">r</text>
<text transform="matrix(0.85 0 -0.3165385 0.9485797 421.9872131 54.5567551)" class="st6 st3 st4">r</text>
<text transform="matrix(0.85 0 -0.3165385 0.9485797 425.73526 54.5567551)" class="st3 st4">b</text>
<text transform="matrix(0.85 0 -0.3165385 0.9485797 425.73526 54.5567551)" class="st6 st3 st4">b</text>
<text transform="matrix(0.85 0 -0.3165385 0.9485797 431.7430725 54.5567551)" class="st3 st4">a</text>
<text transform="matrix(0.85 0 -0.3165385 0.9485797 431.7430725 54.5567551)" class="st6 st3 st4">a</text>
<text transform="matrix(0.85 0 -0.3165385 0.9485797 436.9950256 54.5567551)" class="st3 st4">n</text>
<text transform="matrix(0.85 0 -0.3165385 0.9485797 436.9950256 54.5567551)" class="st6 st3 st4">n</text>
<text transform="matrix(0.85 0 -0.3165385 0.9485797 443.0028381 54.5567551)" class="st3 st4">F</text>
<text transform="matrix(0.85 0 -0.3165385 0.9485797 443.0028381 54.5567551)" class="st6 st3 st4">F</text>
<text transform="matrix(0.85 0 -0.3165385 0.9485797 448.2626038 54.5567551)" class="st3 st4">un</text>
<text transform="matrix(0.85 0 -0.3165385 0.9485797 448.2626038 54.5567551)" class="st6 st3 st4">un</text>
<text transform="matrix(0.85 0 -0.3165385 0.9485797 460.2762756 54.5567551)" class="st3 st4">c</text>
<text transform="matrix(0.85 0 -0.3165385 0.9485797 460.2762756 54.5567551)" class="st6 st3 st4">c</text>
<text transform="matrix(0.85 0 -0.3165385 0.9485797 464.7879944 54.5567551)" class="st3 st4">t</text>
<text transform="matrix(0.85 0 -0.3165385 0.9485797 464.7879944 54.5567551)" class="st6 st3 st4">t</text>
<text transform="matrix(0.85 0 -0.3165385 0.9485797 468.5379944 54.5567551)" class="st3 st4">i</text>
<text transform="matrix(0.85 0 -0.3165385 0.9485797 468.5379944 54.5567551)" class="st6 st3 st4">i</text>
<text transform="matrix(0.85 0 -0.3165385 0.9485797 470.79776 54.5567551)" class="st3 st4">o</text>
<text transform="matrix(0.85 0 -0.3165385 0.9485797 470.79776 54.5567551)" class="st6 st3 st4">o</text>
<text transform="matrix(0.85 0 -0.3165385 0.9485797 476.8055725 54.5567551)" class="st3 st4">n</text>
<text transform="matrix(0.85 0 -0.3165385 0.9485797 476.8055725 54.5567551)" class="st6 st3 st4">n</text>
<line class="st2" x1="310.0573425" y1="60.5432892" x2="567.0621948" y2="60.5432892"/>
<text transform="matrix(0.85 0 0 1 313.8125 74.0610352)" class="st3 st5">+ </text>
<text transform="matrix(0.85 0 0 1 330.34375 74.0610352)" class="st3 st5">areaClassificationType: gml::CodeType [0..1]</text>
<text transform="matrix(0.85 0 0 1 313.8125 86.8188477)" class="st3 st5">+ </text>
<text transform="matrix(0.85 0 0 1 330.34375 86.8188477)" class="st3 st5">city: gml::CodeType [0..1]</text>
<text transform="matrix(0.85 0 0 1 313.8125 99.5844727)" class="st3 st5">+ </text>
<text transform="matrix(0.85 0 0 1 330.34375 99.5844727)" class="st3 st5">class: gml::CodeType [0..1]</text>
<text transform="matrix(0.85 0 0 1 313.8125 112.3422852)" class="st3 st5">+ </text>
<text transform="matrix(0.85 0 0 1 330.34375 112.3422852)" class="st3 st5">custodian: xs::string [0..1]</text>
<text transform="matrix(0.85 0 0 1 313.8125 125.1079102)" class="st3 st5">+ </text>
<text transform="matrix(0.85 0 0 1 330.34375 125.1079102)" class="st3 st5">enactmentFiscalYear: xs::gYear [0..1]</text>
<text transform="matrix(0.85 0 0 1 313.8125 137.8657227)" class="st3 st5">+ </text>
<text transform="matrix(0.85 0 0 1 330.34375 137.8657227)" class="st3 st5">expirationFiscalYear: xs::gYear [0..1]</text>
<text transform="matrix(0.85 0 0 1 313.8125 150.6235352)" class="st3 st5">+ </text>
<text transform="matrix(0.85 0 0 1 330.34375 150.6235352)" class="st3 st5">finalNotificationDate: xs::date [0..1]</text>
<text transform="matrix(0.85 0 0 1 313.8125 163.3891602)" class="st3 st5">+ </text>
<text transform="matrix(0.85 0 0 1 330.34375 163.3891602)" class="st3 st5">finalNotificationNumber: xs::string [0..1]</text>
<text transform="matrix(0.85 0 0 1 313.8125 176.1469727)" class="st3 st5">+ </text>
<text transform="matrix(0.85 0 0 1 330.34375 176.1469727)" class="st3 st5">function: gml::CodeType [0..*]</text>
<text transform="matrix(0.85 0 0 1 313.8125 188.9047852)" class="st3 st5">+ </text>
<text transform="matrix(0.85 0 0 1 330.34375 188.9047852)" class="st3 st5">legalGrounds: xs::string [0..1]</text>
<text transform="matrix(0.85 0 0 1 313.8125 201.6704102)" class="st3 st5">+ </text>
<text transform="matrix(0.85 0 0 1 330.34375 201.6704102)" class="st3 st5">nominalArea: gml::MeasureType [0..1]</text>
<text transform="matrix(0.85 0 0 1 313.8125 214.4360352)" class="st3 st5">+ </text>
<text transform="matrix(0.85 0 0 1 330.34375 214.4360352)" class="st3 st5">note: gml:StringOrRefType [0..1]</text>
<text transform="matrix(0.85 0 0 1 313.8125 227.1860352)" class="st3 st5">+ </text>
<text transform="matrix(0.85 0 0 1 330.34375 227.1860352)" class="st3 st5">notificationNumber: xs::string [0..1]</text>
<text transform="matrix(0.85 0 0 1 313.8125 239.9516602)" class="st3 st5">+ </text>
<text transform="matrix(0.85 0 0 1 330.34375 239.9516602)" class="st3 st5">prefecture: gml::CodeType [0..1]</text>
<text transform="matrix(0.85 0 0 1 313.8125 252.7172852)" class="st3 st5">+ </text>
<text transform="matrix(0.85 0 0 1 330.34375 252.7172852)" class="st3 st5">reason: gml:StringOrRefType [0..1]</text>
<text transform="matrix(0.85 0 0 1 313.8125 265.4750977)" class="st3 st5">+ </text>
<text transform="matrix(0.85 0 0 1 330.34375 265.4750977)" class="st3 st5">reference: xs::anyURI [0..1]</text>
<text transform="matrix(0.85 0 0 1 313.8125 278.2329102)" class="st3 st5">+ </text>
<text transform="matrix(0.85 0 0 1 330.34375 278.2329102)" class="st3 st5">surveyYear: xs::gYear [0..1]</text>
<text transform="matrix(0.85 0 0 1 313.8125 290.9985352)" class="st3 st5">+ </text>
<text transform="matrix(0.85 0 0 1 330.34375 290.9985352)" class="st3 st5">urbanPlanType: gml::CodeType [0..1]</text>
<text transform="matrix(0.85 0 0 1 313.8125 303.7563477)" class="st3 st5">+ </text>
<text transform="matrix(0.85 0 0 1 330.34375 303.7563477)" class="st3 st5">usage: gml::CodeType [0..*]</text>
<text transform="matrix(0.85 0 0 1 313.8125 316.5219727)" class="st3 st5">+ </text>
<text transform="matrix(0.85 0 0 1 330.34375 316.5219727)" class="st3 st5">validFrom: xs::date [0..1]</text>
<text transform="matrix(0.85 0 0 1 313.8125 329.2797852)" class="st3 st5">+ </text>
<text transform="matrix(0.85 0 0 1 330.34375 329.2797852)" class="st3 st5">validFromType: gml::CodeType [0..1]</text>
<text transform="matrix(0.85 0 0 1 313.8125 342.0375977)" class="st3 st5">+ </text>
<text transform="matrix(0.85 0 0 1 330.34375 342.0375977)" class="st3 st5">validTo: xs::date [0..1]</text>
<text transform="matrix(0.85 0 0 1 313.8125 354.8032227)" class="st3 st5">+ </text>
<text transform="matrix(0.85 0 0 1 330.34375 354.8032227)" class="st3 st5">validToType: gml::CodeType [0..1]</text>
<path class="st0" d="M215.7470093,168.6378021c1.0375366,0,1.8786316,0.8401794,1.8786316,1.8766479l0.000061-0.0000305v49.5433044
	l-0.000061,0.0000305c0,1.036438-0.841095,1.8766479-1.8786621,1.8766174c0,0.0000305,0,0,0,0h0.0000305H75.9723816
	l-0.0000305,0.0000305c-1.0375671-0.0000305-1.8786774-0.84021-1.8786774-1.8766785h0.0000153v-49.5433044
	c0-1.036438,0.841095-1.8766479,1.8786926-1.8766174v-0.0000305h139.7746277V168.6378021L215.7470093,168.6378021z"/>
<path class="st1" d="M213.4925842,166.385849c1.0375671,0,1.8786621,0.8401794,1.8786621,1.8766174h0.0000305v49.5433044h-0.0000305
	c0,1.036438-0.841095,1.8766479-1.8786926,1.8766174c0,0.0000305,0,0,0,0h0.0000305H73.7179565l-0.0000305,0.0000305
	c-1.0375671-0.0000305-1.8786926-0.84021-1.8786926-1.8766479h0.0000305v-49.5433044
	c0-1.036438,0.841095-1.8766479,1.8786926-1.8766174v-0.0000305h139.7746277V166.385849L213.4925842,166.385849z"/>
<path class="st2" d="M213.4925842,166.385849c1.0375671,0,1.8786621,0.8401794,1.8786621,1.8766174h0.0000305v49.5433044h-0.0000305
	c0,1.036438-0.841095,1.8766479-1.8786926,1.8766174c0,0.0000305,0,0,0,0h0.0000305H73.7179565l-0.0000305,0.0000305
	c-1.0375671-0.0000305-1.8786926-0.84021-1.8786926-1.8766479h0.0000305v-49.5433044
	c0-1.036438,0.841095-1.8766479,1.8786926-1.8766174v-0.0000305h139.7746277V166.385849L213.4925842,166.385849z"/>
<text transform="matrix(0.85 0 0 1 111.6640625 181.4047852)" class="st3 st5">«FeatureType»</text>
<text transform="matrix(0.85 0 0 1 123.6875 194.1625977)" class="st7 st5">urf::Zone</text>
<line class="st2" x1="71.8392639" y1="200.165329" x2="215.3712769" y2="200.165329"/>
<text transform="matrix(0.85 0 0 1 75.59375 213.6782227)" class="st3 st5">+ </text>
<text transform="matrix(0.85 0 0 1 92.125 213.6782227)" class="st3 st5">location: xs::string [0..1]</text>
<path class="st0" d="M283.3799133,251.9606781c1.0375366,0,1.8786621,0.8401794,1.8786621,1.8766174v-0.0000305v74.3149567v0.000061
	c0,1.0364075-0.8411255,1.8766479-1.8787231,1.8765869c0,0.000061,0,0,0,0h0.000061H30.8837891l-0.0000153,0.000061
	c-1.0375671-0.000061-1.8786926-0.8402405-1.8786926-1.876709h0.0000153V253.837265
	c0-1.0364075,0.8411102-1.8766479,1.8786926-1.8765869v-0.000061h252.4961243V251.9606781L283.3799133,251.9606781z"/>
<path class="st1" d="M281.1254578,249.7086945c1.0375366,0,1.8786621,0.8401794,1.8786621,1.8766479l0.000061-0.000061v74.3149872
	l-0.000061,0.0000305c0,1.036438-0.8411255,1.8766479-1.8787231,1.8766174c0,0.0000305,0,0,0,0h0.000061H28.629364
	l-0.0000305,0.0000305c-1.0375671-0.0000305-1.8786774-0.84021-1.8786774-1.8766785h0.0000153v-74.3149872
	c0-1.0364075,0.841095-1.8766174,1.8786926-1.8765869v-0.0000305h252.4960938V249.7086945L281.1254578,249.7086945z"/>
<path class="st2" d="M281.1254578,249.7086945c1.0375366,0,1.8786621,0.8401794,1.8786621,1.8766479l0.000061-0.000061v74.3149872
	l-0.000061,0.0000305c0,1.036438-0.8411255,1.8766479-1.8787231,1.8766174c0,0.0000305,0,0,0,0h0.000061H28.629364
	l-0.0000305,0.0000305c-1.0375671-0.0000305-1.8786774-0.84021-1.8786774-1.8766785h0.0000153v-74.3149872
	c0-1.0364075,0.841095-1.8766174,1.8786926-1.8765869v-0.0000305h252.4960938V249.7086945L281.1254578,249.7086945z"/>
<text transform="matrix(0.85 0 0 1 122.9375 264.7250977)" class="st3 st5">«FeatureType»</text>
<text transform="matrix(0.85 0 0 1 59.0625 277.4907227)" class="st7 st5">urf::UrbanDisasterRecoveryPromotionArea</text>
<line class="st2" x1="26.7506714" y1="283.4881897" x2="283.0041809" y2="283.4881897"/>
<text transform="matrix(0.85 0 0 1 30.5078125 297.0063477)" class="st3 st5">+ </text>
<text transform="matrix(0.85 0 0 1 47.0390625 297.0063477)" class="st3 st5">emergencyRecoveryPolicy: gml:StringOrRefType [0..1]</text>
<text transform="matrix(0.85 0 0 1 30.5078125 309.7641602)" class="st3 st5">+ </text>
<text transform="matrix(0.85 0 0 1 47.0390625 309.7641602)" class="st3 st5">expirationDate: xs::date</text>
<text transform="matrix(0.85 0 0 1 30.5078125 322.5297852)" class="st3 st5">+ </text>
<text transform="matrix(0.85 0 0 1 47.0390625 322.5297852)" class="st3 st5">plannedProjectType: gml::CodeType [0..1]</text>
<path class="st8" d="M163.5193787,23.0104828c1.2450867,0,2.254425,1.0082397,2.254425,2.2519836v-0.0000305v70.5617065l0,0
	c0,1.2437134-1.0093384,2.2519836-2.254425,2.2519531c0,0.0000305,0,0,0,0l0,0H29.0050964l-0.0000153,0.0000305
	c-1.2450714-0.0000305-2.254425-1.0082703-2.2544098-2.2519836V25.2624359c0-1.2437134,1.0093384-2.2519531,2.254425-2.2519531l0,0
	H163.5193787L163.5193787,23.0104828L163.5193787,23.0104828z"/>
<path class="st9" d="M163.5193787,23.0104828c1.2450867,0,2.254425,1.0082397,2.254425,2.2519836v-0.0000305v70.5617065l0,0
	c0,1.2437134-1.0093384,2.2519836-2.254425,2.2519531c0,0.0000305,0,0,0,0l0,0H29.0050964l-0.0000153,0.0000305
	c-1.2450714-0.0000305-2.254425-1.0082703-2.2544098-2.2519836V25.2624359c0-1.2437134,1.0093384-2.2519531,2.254425-2.2519531l0,0
	H163.5193787L163.5193787,23.0104828L163.5193787,23.0104828z"/>
<path class="st10" d="M44.4103699,45.5301971c1.0375671,0,1.8786621,0.8401794,1.8786621,1.8766479l0.0000305-0.0000305v8.2572327
	H46.289032c0,1.036438-0.841095,1.8766479-1.8786926,1.8766174c0,0.0000305,0,0,0,0h0.0000305h-8.2662354l-0.0000305,0.0000305
	c-1.0375671-0.0000305-1.8786926-0.84021-1.8786926-1.8766479h0.0000305v-8.2572327
	c0-1.036438,0.841095-1.8766479,1.8786926-1.8766174v-0.0000305h8.2662354V45.5301971L44.4103699,45.5301971z"/>
<path class="st11" d="M44.4103699,45.5301971c1.0375671,0,1.8786621,0.8401794,1.8786621,1.8766479l0.0000305-0.0000305v8.2572327
	H46.289032c0,1.036438-0.841095,1.8766479-1.8786926,1.8766174c0,0.0000305,0,0,0,0h0.0000305h-8.2662354l-0.0000305,0.0000305
	c-1.0375671-0.0000305-1.8786926-0.84021-1.8786926-1.8766479h0.0000305v-8.2572327
	c0-1.036438,0.841095-1.8766479,1.8786926-1.8766174v-0.0000305h8.2662354V45.5301971L44.4103699,45.5301971z"/>
<text transform="matrix(0.85 0 0 1 50.796875 56.0454102)" class="st12 st3 st5">GMLに定義されたクラス</text>
<path class="st13" d="M44.4103699,59.7926483c1.0375671,0,1.8786621,0.84021,1.8786621,1.8766479h0.0000305v8.2572021H46.289032
	c0,1.036438-0.841095,1.8766479-1.8786926,1.8766479l0,0h0.0000305h-8.2662354H36.144104
	c-1.0375671,0-1.8786926-0.84021-1.8786926-1.8766479h0.0000305v-8.2572021c0-1.036438,0.841095-1.8766479,1.8786926-1.8766479l0,0
	H44.4103699L44.4103699,59.7926483L44.4103699,59.7926483z"/>
<path class="st11" d="M44.4103699,59.7926483c1.0375671,0,1.8786621,0.84021,1.8786621,1.8766479h0.0000305v8.2572021H46.289032
	c0,1.036438-0.841095,1.8766479-1.8786926,1.8766479l0,0h0.0000305h-8.2662354H36.144104
	c-1.0375671,0-1.8786926-0.84021-1.8786926-1.8766479h0.0000305v-8.2572021c0-1.036438,0.841095-1.8766479,1.8786926-1.8766479l0,0
	H44.4103699L44.4103699,59.7926483L44.4103699,59.7926483z"/>
<text transform="matrix(0.85 0 0 1 50.796875 70.3032227)" class="st12 st3 st5">CityGMLに定義されたクラス</text>
<path class="st1" d="M44.4103699,74.05513c1.0375671,0,1.8786621,0.8401794,1.8786621,1.8766174h0.0000305v8.2572021
	l-0.0000305,0.0000305c0,1.036438-0.841095,1.8766479-1.8786926,1.8766174c0,0.0000305,0,0,0,0h0.0000305h-8.2662354
	l-0.0000305,0.0000305c-1.0375671-0.0000305-1.8786926-0.84021-1.8786926-1.8766785h0.0000305v-8.2572021
	c0-1.036438,0.841095-1.8766479,1.8786926-1.8766174v-0.0000305h8.2662354V74.05513L44.4103699,74.05513z"/>
<path class="st11" d="M44.4103699,74.05513c1.0375671,0,1.8786621,0.8401794,1.8786621,1.8766174h0.0000305v8.2572021
	l-0.0000305,0.0000305c0,1.036438-0.841095,1.8766479-1.8786926,1.8766174c0,0.0000305,0,0,0,0h0.0000305h-8.2662354
	l-0.0000305,0.0000305c-1.0375671-0.0000305-1.8786926-0.84021-1.8786926-1.8766785h0.0000305v-8.2572021
	c0-1.036438,0.841095-1.8766479,1.8786926-1.8766174v-0.0000305h8.2662354V74.05513L44.4103699,74.05513z"/>
<text transform="matrix(0.85 0 0 1 50.796875 84.5688477)" class="st12 st3 st5">i-URに定義されたクラス</text>
<text transform="matrix(0.85 0 0 1 88.375 41.2734375)" class="st12 st14 st15 st16">凡例</text>
<line class="st17" x1="216.8742065" y1="194.16008" x2="309.3058167" y2="194.16008"/>
<polyline class="st18" points="297.282196,198.6640167 297.282196,189.6561432 309.3058167,194.16008 297.282196,198.6640167 "/>
<polygon class="st17" points="309.3058167,194.16008 297.282196,189.6561432 297.282196,198.6640167 "/>
<line class="st17" x1="147.7383728" y1="248.9579926" x2="147.7383728" y2="221.1837006"/>
<polyline class="st18" points="152.2472534,233.1941986 143.2295227,233.1941986 147.7383728,221.1837006 152.2472534,233.1941986 
	"/>
<polygon class="st17" points="152.2472534,233.1941986 143.2295227,233.1941986 147.7383728,221.1837006 "/>
</svg>
