<?xml version="1.0" encoding="utf-8"?>
<!-- Generator: Adobe Illustrator 27.5.0, SVG Export Plug-In . SVG Version: 6.00 Build 0)  -->
<svg version="1.1" id="レイヤー_1" xmlns="http://www.w3.org/2000/svg" xmlns:xlink="http://www.w3.org/1999/xlink" x="0px"
	 y="0px" viewBox="0 0 822.5411987 761.6373901" style="enable-background:new 0 0 822.5411987 761.6373901;" xml:space="preserve">
<style type="text/css">
	.st0{opacity:0.5019608;fill-rule:evenodd;clip-rule:evenodd;fill:#969696;enable-background:new    ;}
	.st1{fill-rule:evenodd;clip-rule:evenodd;fill:#FFCCFF;}
	.st2{fill:none;stroke:#000000;stroke-width:1.5013124;stroke-linecap:round;stroke-linejoin:round;stroke-miterlimit:10;}
	.st3{font-family:'YuGothicUI-Regular';}
	.st4{font-size:9.7585306px;}
	.st5{font-family:'YuGothicUI-Bold';}
	.st6{font-size:10.2875204px;}
	.st7{fill:none;stroke:#000000;stroke-width:0.2788152;stroke-miterlimit:10;}
	.st8{fill-rule:evenodd;clip-rule:evenodd;fill:#F0F0F0;}
	.st9{fill:none;stroke:#D7D7D7;stroke-width:0.7506562;stroke-linecap:square;stroke-miterlimit:10;}
	.st10{fill-rule:evenodd;clip-rule:evenodd;fill:#CCFFCC;}
	.st11{fill:none;stroke:#000000;stroke-width:0.7506562;stroke-linecap:square;stroke-miterlimit:10;}
	.st12{fill:#003060;}
	.st13{font-family:'Meiryo';}
	.st14{font-size:7.5065618px;}
	.st15{fill-rule:evenodd;clip-rule:evenodd;fill:#FFFFCC;}
	.st16{font-family:'Meiryo-Bold';}
	.st17{font-size:12.010499px;}
	.st18{letter-spacing:-1.1764705;}
	.st19{fill:none;stroke:#000000;stroke-width:1.5013124;stroke-linecap:round;stroke-linejoin:bevel;stroke-miterlimit:10;}
	.st20{fill-rule:evenodd;clip-rule:evenodd;fill:#FFFFFF;}
	.st21{fill-rule:evenodd;clip-rule:evenodd;}
</style>
<path class="st0" d="M441.3383179,82.1899261c1.0375366,0,1.8786621,0.8401489,1.8786621,1.8766479l0.000061-0.000061v49.543335
	h-0.000061c0,1.036438-0.8411255,1.8766479-1.8787231,1.8766479l0,0h0.000061H319.5991211l0,0
	c-1.0375977,0-1.8787231-0.84021-1.8787231-1.8766479h0.000061v-49.543335c0-1.036438,0.8410645-1.8766479,1.8786621-1.8765869
	v-0.000061h121.7391968V82.1899261L441.3383179,82.1899261z"/>
<path class="st1" d="M439.0839233,79.937912c1.0375366,0,1.8786011,0.84021,1.8786011,1.8766479h0.000061v49.5432739
	l-0.000061,0.000061c0,1.036438-0.8410645,1.8766479-1.8786621,1.8766479l0,0h0.000061H317.3447266h-0.000061
	c-1.0375366,0-1.8786621-0.84021-1.8786621-1.876709l0,0V81.8145599c0-1.036438,0.8411255-1.8766479,1.8787231-1.8766479l0,0
	H439.0839233L439.0839233,79.937912L439.0839233,79.937912z"/>
<path class="st2" d="M439.0839233,79.937912c1.0375366,0,1.8786011,0.84021,1.8786011,1.8766479h0.000061v49.5432739
	l-0.000061,0.000061c0,1.036438-0.8410645,1.8766479-1.8786621,1.8766479l0,0h0.000061H317.3447266h-0.000061
	c-1.0375366,0-1.8786621-0.84021-1.8786621-1.876709l0,0V81.8145599c0-1.036438,0.8411255-1.8766479,1.8787231-1.8766479l0,0
	H439.0839233L439.0839233,79.937912L439.0839233,79.937912z"/>
<text transform="matrix(0.85 0 0 1 346.2758789 94.9487305)" class="st3 st4">«FeatureType»</text>
<text transform="matrix(0.85 0 0 1 358.2993164 107.7143555)" class="st5 st4">urf::Zone</text>
<line class="st2" x1="315.4660034" y1="113.717453" x2="440.9625854" y2="113.717453"/>
<text transform="matrix(0.85 0 0 1 319.2211914 127.237793)" class="st3 st4">+ </text>
<text transform="matrix(0.85 0 0 1 335.7524414 127.237793)" class="st3 st4">location: xs::string [0..1]</text>
<path class="st0" d="M455.616394,254.8408661c1.0375366,0,1.8786011,0.8401489,1.8786011,1.8766022h0.000061v99.8372803h-0.000061
	c0,1.036438-0.8410645,1.8766479-1.8786621,1.8765869c0,0.000061,0,0,0,0h0.000061H297.0548706l-0.000061,0.000061
	c-1.0375366-0.000061-1.8786621-0.84021-1.8786621-1.8766479l0,0v-99.8372803c0-1.0364532,0.8411255-1.8766632,1.8787231-1.8766022
	v-0.000061H455.616394V254.8408661L455.616394,254.8408661z"/>
<path class="st1" d="M453.3619385,252.5888519c1.0375366,0,1.8786621,0.84021,1.8786621,1.8766479h0.000061v99.8372955h-0.000061
	c0,1.036438-0.8411255,1.8766479-1.8787231,1.8765869c0,0.000061,0,0,0,0h0.000061H294.800415v0.000061
	c-1.0375977-0.000061-1.8787231-0.84021-1.8787231-1.8766479h0.000061v-99.8372955
	c0-1.036438,0.8410645-1.8766479,1.8786621-1.8766479l0,0H453.3619385L453.3619385,252.5888519L453.3619385,252.5888519z"/>
<path class="st2" d="M453.3619385,252.5888519c1.0375366,0,1.8786621,0.84021,1.8786621,1.8766479h0.000061v99.8372955h-0.000061
	c0,1.036438-0.8411255,1.8766479-1.8787231,1.8765869c0,0.000061,0,0,0,0h0.000061H294.800415v0.000061
	c-1.0375977-0.000061-1.8787231-0.84021-1.8787231-1.8766479h0.000061v-99.8372955
	c0-1.036438,0.8410645-1.8766479,1.8786621-1.8766479l0,0H453.3619385L453.3619385,252.5888519L453.3619385,252.5888519z"/>
<text transform="matrix(0.85 0 0 1 342.5180664 267.6049805)" class="st3 st4">«FeatureType»</text>
<text transform="matrix(0.85 0 0 1 336.5102539 280.3706055)" class="st5 st4">urf::TrafficFacility</text>
<line class="st2" x1="292.9217529" y1="286.3683472" x2="455.2406616" y2="286.3683472"/>
<text transform="matrix(0.85 0 0 1 296.6743164 299.8862305)" class="st3 st4">+ </text>
<text transform="matrix(0.85 0 0 1 313.2133789 299.8862305)" class="st3 st4">endLocation: xs::string [0..1]</text>
<text transform="matrix(0.85 0 0 1 296.6743164 312.644043)" class="st3 st4">+ </text>
<text transform="matrix(0.85 0 0 1 313.2133789 312.644043)" class="st3 st4">length: gml::LengthType [0..1]</text>
<text transform="matrix(0.85 0 0 1 296.6743164 325.409668)" class="st3 st4">+ </text>
<text transform="matrix(0.85 0 0 1 313.2133789 325.409668)" class="st3 st4">startLocation: xs::string [0..1]</text>
<text transform="matrix(0.85 0 0 1 296.6743164 338.1674805)" class="st3 st4">+ </text>
<text transform="matrix(0.85 0 0 1 313.2133789 338.1674805)" class="st3 st4">viaLocations: xs::string [0..1]</text>
<text transform="matrix(0.85 0 0 1 296.6743164 350.925293)" class="st3 st4">+ </text>
<text transform="matrix(0.85 0 0 1 313.2133789 350.925293)" class="st3 st4">width: gml::LengthType [0..1]</text>
<path class="st0" d="M801.2955322,465.0245972c1.0374756,0,1.8786011,0.84021,1.8786011,1.8766479l0.0001221-0.000061v48.7926636
	l-0.0001221,0.000061c0,1.036377-0.8411255,1.8766479-1.8786621,1.8765869c0,0.000061,0,0,0,0h0.000061H627.7044678
	l-0.000061,0.000061c-1.0375366-0.000061-1.8786621-0.840271-1.8786621-1.876709h0.000061v-48.7926636
	c0-1.036377,0.8410645-1.8765869,1.8786621-1.8765869l0,0H801.2955322L801.2955322,465.0245972L801.2955322,465.0245972z"/>
<path class="st1" d="M799.0411377,462.772644c1.0374756,0,1.87854,0.84021,1.87854,1.8766479l0.0001221-0.000061v48.7926636
	l-0.0001221,0.000061c0,1.036377-0.8410645,1.8765869-1.8786621,1.8765869l0,0h0.0001221H625.4500732h-0.000061
	c-1.0375366,0-1.8787231-0.84021-1.8787231-1.8766479h0.000061V464.649231c0-1.036377,0.8411255-1.8766479,1.8787231-1.8765869
	v-0.000061h173.5910645V462.772644L799.0411377,462.772644z"/>
<path class="st2" d="M799.0411377,462.772644c1.0374756,0,1.87854,0.84021,1.87854,1.8766479l0.0001221-0.000061v48.7926636
	l-0.0001221,0.000061c0,1.036377-0.8410645,1.8765869-1.8786621,1.8765869l0,0h0.0001221H625.4500732h-0.000061
	c-1.0375366,0-1.8787231-0.84021-1.8787231-1.8766479h0.000061V464.649231c0-1.036377,0.8411255-1.8766479,1.8787231-1.8765869
	v-0.000061h173.5910645V462.772644L799.0411377,462.772644z"/>
<text transform="matrix(0.85 0 0 1 686.6899414 477.7924805)" class="st3 st4">«DataType»</text>
<text transform="matrix(0.85 0 0 1 647.6118164 490.5424805)" class="st5 st4">urf::VehicleTerminalAttribute</text>
<line class="st2" x1="623.5713501" y1="496.552124" x2="800.9197998" y2="496.552124"/>
<text transform="matrix(0.85 0 0 1 627.3305664 510.065918)" class="st3 st4">+ </text>
<text transform="matrix(0.85 0 0 1 643.8618164 510.065918)" class="st3 st4">terminalType: gml::CodeType</text>
<path class="st0" d="M608.9175415,465.0245972c1.0375366,0,1.8786621,0.84021,1.8786621,1.8766479l0.000061-0.000061v61.553833
	l-0.000061,0.000061c0,1.036377-0.8411255,1.8765869-1.8786621,1.8765869l0,0l0,0H447.3501587h-0.000061
	c-1.0375366,0-1.8787231-0.84021-1.8787231-1.8766479h0.000061v-61.553833c0-1.036377,0.8411255-1.8765869,1.8787231-1.8765869l0,0
	H608.9175415L608.9175415,465.0245972L608.9175415,465.0245972z"/>
<path class="st1" d="M606.663147,462.772644c1.0375366,0,1.8786011,0.84021,1.8786011,1.8766479l0.000061-0.000061v61.553833
	h-0.000061c0,1.036438-0.8410645,1.8766479-1.8786621,1.8765869c0,0.000061,0,0,0,0h0.000061H445.0957031l-0.000061,0.000061
	c-1.0375366-0.000061-1.8786621-0.84021-1.8786621-1.8766479h0.000061v-61.553833
	c0-1.036377,0.8410645-1.8766479,1.8786621-1.8765869v-0.000061H606.663147V462.772644L606.663147,462.772644z"/>
<path class="st2" d="M606.663147,462.772644c1.0375366,0,1.8786011,0.84021,1.8786011,1.8766479l0.000061-0.000061v61.553833
	h-0.000061c0,1.036438-0.8410645,1.8766479-1.8786621,1.8765869c0,0.000061,0,0,0,0h0.000061H445.0957031l-0.000061,0.000061
	c-1.0375366-0.000061-1.8786621-0.84021-1.8786621-1.8766479h0.000061v-61.553833
	c0-1.036377,0.8410645-1.8766479,1.8786621-1.8765869v-0.000061H606.663147V462.772644L606.663147,462.772644z"/>
<text transform="matrix(0.85 0 0 1 500.3227539 477.7924805)" class="st3 st4">«DataType»</text>
<text transform="matrix(0.85 0 0 1 468.0180664 490.5424805)" class="st5 st4">urf::ParkingPlaceAttribute</text>
<line class="st2" x1="443.217041" y1="496.552124" x2="608.5418091" y2="496.552124"/>
<text transform="matrix(0.85 0 0 1 446.9711914 510.065918)" class="st3 st4">+ </text>
<text transform="matrix(0.85 0 0 1 463.5024414 510.065918)" class="st3 st4">storeysAboveGround: xs::integer</text>
<text transform="matrix(0.85 0 0 1 446.9711914 522.831543)" class="st3 st4">+ </text>
<text transform="matrix(0.85 0 0 1 463.5024414 522.831543)" class="st3 st4">storeysBelowGround: xs::integer</text>
<path class="st0" d="M233.9308167,465.0245972c1.0375671,0,1.8786774,0.84021,1.8786774,1.8766479l0.0000153-0.000061v163.6430664
	l-0.0000153,0.000061c0,1.036377-0.8411102,1.8766479-1.8786926,1.8765869c0,0.000061,0,0,0,0h0.0000153H34.0380821
	l-0.0000038,0.000061c-1.037571-0.000061-1.8786926-0.840271-1.8786926-1.876709h0.0000038V466.9011841
	c0-1.036377,0.8411179-1.8765869,1.8786926-1.8765869l0,0H233.9308167L233.9308167,465.0245972L233.9308167,465.0245972z"/>
<path class="st1" d="M231.6763916,462.772644c1.0375671,0,1.8786621,0.84021,1.8786621,1.8766479l0.0000305-0.000061v163.6430664
	h-0.0000305c0,1.036438-0.841095,1.8766479-1.8786926,1.8766479l0,0h0.0000305H31.7836514h-0.0000038
	c-1.037571,0-1.8786907-0.84021-1.8786907-1.8766479h0.0000038V464.649231c0-1.036377,0.841116-1.8766479,1.8786907-1.8765869
	v-0.000061h199.892746V462.772644L231.6763916,462.772644z"/>
<path class="st2" d="M231.6763916,462.772644c1.0375671,0,1.8786621,0.84021,1.8786621,1.8766479l0.0000305-0.000061v163.6430664
	h-0.0000305c0,1.036438-0.841095,1.8766479-1.8786926,1.8766479l0,0h0.0000305H31.7836514h-0.0000038
	c-1.037571,0-1.8786907-0.84021-1.8786907-1.8766479h0.0000038V464.649231c0-1.036377,0.841116-1.8766479,1.8786907-1.8765869
	v-0.000061h199.892746V462.772644L231.6763916,462.772644z"/>
<text transform="matrix(0.85 0 0 1 105.8071289 477.7924805)" class="st3 st4">«DataType»</text>
<text transform="matrix(0.85 0 0 1 77.2446289 490.5424805)" class="st5 st4">urf::UrbanRoadAttribute</text>
<line class="st2" x1="29.9049606" y1="496.552124" x2="233.5550842" y2="496.552124"/>
<text transform="matrix(0.85 0 0 1 33.6586914 510.065918)" class="st3 st4">+ </text>
<text transform="matrix(0.85 0 0 1 50.1899414 510.065918)" class="st3 st4">crossType: gml::CodeType [0..1]</text>
<text transform="matrix(0.85 0 0 1 33.6586914 522.831543)" class="st3 st4">+ </text>
<text transform="matrix(0.85 0 0 1 50.1899414 522.831543)" class="st3 st4">numberOfLanes: xs::integer [0..1]</text>
<text transform="matrix(0.85 0 0 1 33.6586914 535.5893555)" class="st3 st4">+ </text>
<text transform="matrix(0.85 0 0 1 50.1899414 535.5893555)" class="st3 st4">roadStructure: gml:StringOrRefType [0..1]</text>
<text transform="matrix(0.85 0 0 1 33.6586914 548.3466797)" class="st3 st4">+ </text>
<text transform="matrix(0.85 0 0 1 50.1899414 548.3466797)" class="st3 st4">roadType: gml::CodeType</text>
<text transform="matrix(0.85 0 0 1 33.6586914 561.1123047)" class="st3 st4">+ </text>
<text transform="matrix(0.85 0 0 1 50.1899414 561.1123047)" class="st3 st4">routeSerialNumber: xs::string [0..1]</text>
<text transform="matrix(0.85 0 0 1 33.6586914 573.8779297)" class="st3 st4">+ </text>
<text transform="matrix(0.85 0 0 1 50.1899414 573.8779297)" class="st3 st4">routeSizeNumber: gml::CodeType [0..1]</text>
<text transform="matrix(0.85 0 0 1 33.6586914 586.6279297)" class="st3 st4">+ </text>
<text transform="matrix(0.85 0 0 1 50.1899414 586.6279297)" class="st3 st4">routeTypeNumber: gml::CodeType [0..1]</text>
<text transform="matrix(0.85 0 0 1 33.6586914 599.3935547)" class="st3 st4">+ </text>
<text transform="matrix(0.85 0 0 1 50.1899414 599.3935547)" class="st3 st4">structuralDetails: StructureDetails [0..*]</text>
<text transform="matrix(0.85 0 0 1 33.6586914 612.1591797)" class="st3 st4">+ </text>
<text transform="matrix(0.85 0 0 1 50.1899414 612.1591797)" class="st3 st4">structureType: gml::CodeType [0..1]</text>
<text transform="matrix(0.85 0 0 1 33.6586914 624.9169922)" class="st3 st4">+ </text>
<text transform="matrix(0.85 0 0 1 50.1899414 624.9169922)" class="st3 st4">trafficPlazas: gml::CodeType [0..1]</text>
<path class="st0" d="M430.0661621,465.0245972c1.0375366,0,1.8786621,0.84021,1.8786621,1.8766479l0.000061-0.000061v87.0761108
	l-0.000061,0.000061c0,1.036438-0.8411255,1.8766479-1.8786621,1.8765869c0,0.000061,0,0,0,0l0,0H244.4514923l-0.0000305,0.000061
	c-1.0375671-0.000061-1.8786774-0.84021-1.8786774-1.876709h0.0000153v-87.0761108
	c0-1.036377,0.841095-1.8765869,1.8786926-1.8765869l0,0H430.0661621L430.0661621,465.0245972L430.0661621,465.0245972z"/>
<path class="st1" d="M427.8117676,462.772644c1.0375366,0,1.8786011,0.84021,1.8786011,1.8766479l0.000061-0.000061v87.0761108
	l-0.000061,0.000061c0,1.036377-0.8410645,1.8766479-1.8786621,1.8765869c0,0.000061,0,0,0,0h0.000061H242.1970673
	l-0.0000305,0.000061c-1.0375671-0.000061-1.8786926-0.840271-1.8786926-1.876709h0.0000305V464.649231
	c0-1.036377,0.841095-1.8766479,1.8786926-1.8765869v-0.000061h185.6147003V462.772644L427.8117676,462.772644z"/>
<path class="st2" d="M427.8117676,462.772644c1.0375366,0,1.8786011,0.84021,1.8786011,1.8766479l0.000061-0.000061v87.0761108
	l-0.000061,0.000061c0,1.036377-0.8410645,1.8766479-1.8786621,1.8765869c0,0.000061,0,0,0,0h0.000061H242.1970673
	l-0.0000305,0.000061c-1.0375671-0.000061-1.8786926-0.840271-1.8786926-1.876709h0.0000305V464.649231
	c0-1.036377,0.841095-1.8766479,1.8786926-1.8765869v-0.000061h185.6147003V462.772644L427.8117676,462.772644z"/>
<text transform="matrix(0.85 0 0 1 309.4555664 477.7924805)" class="st3 st4">«DataType»</text>
<text transform="matrix(0.85 0 0 1 245.5727539 490.5424805)" class="st5 st4">urf::UrbanRapidTransitRailroadAttribute</text>
<line class="st2" x1="240.3183746" y1="496.552124" x2="429.6904297" y2="496.552124"/>
<text transform="matrix(0.85 0 0 1 244.0727539 510.065918)" class="st3 st4">+ </text>
<text transform="matrix(0.85 0 0 1 260.6040039 510.065918)" class="st3 st4">crossType: gml::CodeType [0..1]</text>
<text transform="matrix(0.85 0 0 1 244.0727539 522.831543)" class="st3 st4">+ </text>
<text transform="matrix(0.85 0 0 1 260.6040039 522.831543)" class="st3 st4">structuralDetails: StructureDetails [0..*]</text>
<text transform="matrix(0.85 0 0 1 244.0727539 535.5893555)" class="st3 st4">+ </text>
<text transform="matrix(0.85 0 0 1 260.6040039 535.5893555)" class="st3 st4">structureType: gml::CodeType [0..1]</text>
<path class="st0" d="M440.586853,157.2555389c1.0375366,0,1.8786621,0.84021,1.8786621,1.8765869l0,0v61.553833l0,0
	c0,1.036438-0.8411255,1.8766479-1.8787231,1.8766479l0,0h0.000061H319.5991211l0,0
	c-1.0375977,0-1.8787231-0.84021-1.8787231-1.8766479h0.000061v-61.553833c0-1.036377,0.8410645-1.8765869,1.8786621-1.8765869l0,0
	H440.586853L440.586853,157.2555389L440.586853,157.2555389z"/>
<path class="st1" d="M438.3323975,155.0035858c1.0375977,0,1.8786621,0.8401489,1.8786621,1.8765869h0.000061v61.553833h-0.000061
	c0,1.036438-0.8410645,1.8766479-1.8786621,1.8765869c0,0.000061,0,0,0,0l0,0H317.3447266l-0.000061,0.000061
	c-1.0375366-0.000061-1.8786621-0.84021-1.8786621-1.8766479l0,0v-61.553833c0-1.036438,0.8411255-1.8766479,1.8787231-1.8765869
	v-0.000061h120.9876709V155.0035858L438.3323975,155.0035858z"/>
<path class="st2" d="M438.3323975,155.0035858c1.0375977,0,1.8786621,0.8401489,1.8786621,1.8765869h0.000061v61.553833h-0.000061
	c0,1.036438-0.8410645,1.8766479-1.8786621,1.8765869c0,0.000061,0,0,0,0l0,0H317.3447266l-0.000061,0.000061
	c-1.0375366-0.000061-1.8786621-0.84021-1.8786621-1.8766479l0,0v-61.553833c0-1.036438,0.8411255-1.8766479,1.8787231-1.8765869
	v-0.000061h120.9876709V155.0035858L438.3323975,155.0035858z"/>
<text transform="matrix(0.85 0 0 1 346.2758789 170.019043)" class="st3 st4">«FeatureType»</text>
<text transform="matrix(0.85 0 0 1 340.2602539 182.784668)" class="st5 st4">urf::UrbanFacility</text>
<line class="st2" x1="315.4660034" y1="188.7830658" x2="440.2111206" y2="188.7830658"/>
<text transform="matrix(0.85 0 0 1 319.2211914 202.2924805)" class="st3 st4">+ </text>
<text transform="matrix(0.85 0 0 1 335.7524414 202.2924805)" class="st3 st4">number: xs::string [0..1]</text>
<path class="st0" d="M433.8235474,570.1164551c1.0375366,0,1.8786621,0.84021,1.8786621,1.8766479l0.000061-0.000061v150.881897
	l-0.000061,0.000061c0,1.036438-0.8411255,1.8766479-1.8787231,1.8765869c0,0.000061,0,0,0,0h0.000061H248.2088776
	l-0.0000305,0.000061c-1.0375671-0.000061-1.8786926-0.84021-1.8786926-1.876709h0.0000305V571.993042
	c0-1.036377,0.841095-1.8765869,1.8786926-1.8765869l0,0H433.8235474L433.8235474,570.1164551L433.8235474,570.1164551z"/>
<path class="st1" d="M431.5691528,567.864502c1.0375366,0,1.8786011,0.84021,1.8786011,1.8766479l0.000061-0.000061v150.881897
	l-0.000061,0.000061c0,1.036377-0.8410645,1.8766479-1.8786621,1.8765869c0,0.000061,0,0,0,0h0.000061H245.9544373
	l-0.0000153,0.000061c-1.0375671-0.000061-1.8786926-0.840271-1.8786926-1.876709h0.0000305v-150.881897
	c0-1.036377,0.841095-1.8766479,1.8786774-1.8765869v-0.000061h185.6147156V567.864502L431.5691528,567.864502z"/>
<path class="st2" d="M431.5691528,567.864502c1.0375366,0,1.8786011,0.84021,1.8786011,1.8766479l0.000061-0.000061v150.881897
	l-0.000061,0.000061c0,1.036377-0.8410645,1.8766479-1.8786621,1.8765869c0,0.000061,0,0,0,0h0.000061H245.9544373
	l-0.0000153,0.000061c-1.0375671-0.000061-1.8786926-0.840271-1.8786926-1.876709h0.0000305v-150.881897
	c0-1.036377,0.841095-1.8766479,1.8786774-1.8765869v-0.000061h185.6147156V567.864502L431.5691528,567.864502z"/>
<text transform="matrix(0.85 0 0 1 313.2133789 582.8779297)" class="st3 st4">«DataType»</text>
<text transform="matrix(0.85 0 0 1 294.4243164 595.6435547)" class="st5 st4">urf::StructureDetails</text>
<line class="st2" x1="244.0757599" y1="601.6439819" x2="433.4478149" y2="601.6439819"/>
<text transform="matrix(0.85 0 0 1 247.8305664 615.1513672)" class="st3 st4">+ </text>
<text transform="matrix(0.85 0 0 1 264.3618164 615.1513672)" class="st3 st4">crossType: xs::string [0..1]</text>
<text transform="matrix(0.85 0 0 1 247.8305664 627.9169922)" class="st3 st4">+ </text>
<text transform="matrix(0.85 0 0 1 264.3618164 627.9169922)" class="st3 st4">endLocation: xs::string</text>
<text transform="matrix(0.85 0 0 1 247.8305664 640.6826172)" class="st3 st4">+ </text>
<text transform="matrix(0.85 0 0 1 264.3618164 640.6826172)" class="st3 st4">length: gml::LengthType [0..1]</text>
<text transform="matrix(0.85 0 0 1 247.8305664 653.4482422)" class="st3 st4">+ </text>
<text transform="matrix(0.85 0 0 1 264.3618164 653.4482422)" class="st3 st4">maximumWidth: gml::LengthType [0..1]</text>
<text transform="matrix(0.85 0 0 1 247.8305664 666.1982422)" class="st3 st4">+ </text>
<text transform="matrix(0.85 0 0 1 264.3618164 666.1982422)" class="st3 st4">minimumWidth: gml::LengthType [0..1]</text>
<text transform="matrix(0.85 0 0 1 247.8305664 678.9638672)" class="st3 st4">+ </text>
<text transform="matrix(0.85 0 0 1 264.3618164 678.9638672)" class="st3 st4">standardWidth: gml::LengthType [0..1]</text>
<text transform="matrix(0.85 0 0 1 247.8305664 691.7294922)" class="st3 st4">+ </text>
<text transform="matrix(0.85 0 0 1 264.3618164 691.7294922)" class="st3 st4">startLocation: xs::string</text>
<text transform="matrix(0.85 0 0 1 247.8305664 704.4951172)" class="st3 st4">+ </text>
<text transform="matrix(0.85 0 0 1 264.3618164 704.4951172)" class="st3 st4">structureType: gml::CodeType</text>
<text transform="matrix(0.85 0 0 1 247.8305664 717.2451172)" class="st3 st4">+ </text>
<text transform="matrix(0.85 0 0 1 264.3618164 717.2451172)" class="st3 st4">viaLocations: xs::string [0..1]</text>
<path class="st0" d="M783.2601318,25.1399994c1.0374756,0,1.87854,0.84021,1.87854,1.8766479h0.0001221v344.5512085
	l-0.0001221,0.000061c0,1.036377-0.8410645,1.8765869-1.8786621,1.8765869l0,0h0.0001221H530.0125122l0,0
	c-1.0375977,0-1.8787231-0.84021-1.8787231-1.8766479h0.000061V27.0166473c0-1.036438,0.8410645-1.8766479,1.8786621-1.8766479l0,0
	H783.2601318L783.2601318,25.1399994L783.2601318,25.1399994z"/>
<path class="st1" d="M781.0056763,22.8880463c1.0374756,0,1.8786011,0.84021,1.8786011,1.8766479h0.000061v344.5511475
	l-0.000061,0.0001221c0,1.036377-0.8411255,1.8765869-1.8787231,1.8765869l0,0h0.0001221H527.7581177h-0.000061
	c-1.0375366,0-1.8786621-0.84021-1.8786621-1.876709l0,0V24.7646942c0-1.036438,0.8411255-1.8766479,1.8787231-1.8766479l0,0
	H781.0056763L781.0056763,22.8880463L781.0056763,22.8880463z"/>
<path class="st2" d="M781.0056763,22.8880463c1.0374756,0,1.8786011,0.84021,1.8786011,1.8766479h0.000061v344.5511475
	l-0.000061,0.0001221c0,1.036377-0.8411255,1.8765869-1.8787231,1.8765869l0,0h0.0001221H527.7581177h-0.000061
	c-1.0375366,0-1.8786621-0.84021-1.8786621-1.876709l0,0V24.7646942c0-1.036438,0.8411255-1.8766479,1.8787231-1.8766479l0,0
	H781.0056763L781.0056763,22.8880463L781.0056763,22.8880463z"/>
<text transform="matrix(0.85 0 -0.3165385 0.9485797 724.7739868 35.6643639)" class="st3 st6">_CityObject</text>
<text transform="matrix(0.85 0 0 1 622.8149414 52.9174805)" class="st3 st4">«FeatureType»</text>
<text transform="matrix(0.85 0 -0.3165385 0.9485797 610.0308838 65.6928406)" class="st3 st6">u</text>
<text transform="matrix(0.85 0 -0.3165385 0.9485797 610.0308838 65.6928406)" class="st7 st3 st6">u</text>
<text transform="matrix(0.85 0 -0.3165385 0.9485797 616.0377197 65.6928406)" class="st3 st6">r</text>
<text transform="matrix(0.85 0 -0.3165385 0.9485797 616.0377197 65.6928406)" class="st7 st3 st6">r</text>
<text transform="matrix(0.85 0 -0.3165385 0.9485797 619.7857666 65.6928406)" class="st3 st6">f</text>
<text transform="matrix(0.85 0 -0.3165385 0.9485797 619.7857666 65.6928406)" class="st7 st3 st6">f</text>
<text transform="matrix(0.85 0 -0.3165385 0.9485797 622.7945557 65.6928406)" class="st3 st6">::</text>
<text transform="matrix(0.85 0 -0.3165385 0.9485797 622.7945557 65.6928406)" class="st7 st3 st6">::</text>
<text transform="matrix(0.85 0 -0.3165385 0.9485797 627.28479 65.6928406)" class="st3 st6">_</text>
<text transform="matrix(0.85 0 -0.3165385 0.9485797 627.28479 65.6928406)" class="st7 st3 st6">_</text>
<text transform="matrix(0.85 0 -0.3165385 0.9485797 631.0465088 65.6928406)" class="st3 st6">U</text>
<text transform="matrix(0.85 0 -0.3165385 0.9485797 631.0465088 65.6928406)" class="st7 st3 st6">U</text>
<text transform="matrix(0.85 0 -0.3165385 0.9485797 637.8062744 65.6928406)" class="st3 st6">r</text>
<text transform="matrix(0.85 0 -0.3165385 0.9485797 637.8062744 65.6928406)" class="st7 st3 st6">r</text>
<text transform="matrix(0.85 0 -0.3165385 0.9485797 641.5543213 65.6928406)" class="st3 st6">b</text>
<text transform="matrix(0.85 0 -0.3165385 0.9485797 641.5543213 65.6928406)" class="st7 st3 st6">b</text>
<text transform="matrix(0.85 0 -0.3165385 0.9485797 647.5621338 65.6928406)" class="st3 st6">a</text>
<text transform="matrix(0.85 0 -0.3165385 0.9485797 647.5621338 65.6928406)" class="st7 st3 st6">a</text>
<text transform="matrix(0.85 0 -0.3165385 0.9485797 652.8150635 65.6928406)" class="st3 st6">n</text>
<text transform="matrix(0.85 0 -0.3165385 0.9485797 652.8150635 65.6928406)" class="st7 st3 st6">n</text>
<text transform="matrix(0.85 0 -0.3165385 0.9485797 658.822876 65.6928406)" class="st3 st6">F</text>
<text transform="matrix(0.85 0 -0.3165385 0.9485797 658.822876 65.6928406)" class="st7 st3 st6">F</text>
<text transform="matrix(0.85 0 -0.3165385 0.9485797 664.081665 65.6928406)" class="st3 st6">un</text>
<text transform="matrix(0.85 0 -0.3165385 0.9485797 664.081665 65.6928406)" class="st7 st3 st6">un</text>
<text transform="matrix(0.85 0 -0.3165385 0.9485797 676.0953369 65.6928406)" class="st3 st6">c</text>
<text transform="matrix(0.85 0 -0.3165385 0.9485797 676.0953369 65.6928406)" class="st7 st3 st6">c</text>
<text transform="matrix(0.85 0 -0.3165385 0.9485797 680.6080322 65.6928406)" class="st3 st6">t</text>
<text transform="matrix(0.85 0 -0.3165385 0.9485797 680.6080322 65.6928406)" class="st7 st3 st6">t</text>
<text transform="matrix(0.85 0 -0.3165385 0.9485797 684.3580322 65.6928406)" class="st3 st6">i</text>
<text transform="matrix(0.85 0 -0.3165385 0.9485797 684.3580322 65.6928406)" class="st7 st3 st6">i</text>
<text transform="matrix(0.85 0 -0.3165385 0.9485797 686.6168213 65.6928406)" class="st3 st6">o</text>
<text transform="matrix(0.85 0 -0.3165385 0.9485797 686.6168213 65.6928406)" class="st7 st3 st6">o</text>
<text transform="matrix(0.85 0 -0.3165385 0.9485797 692.6246338 65.6928406)" class="st3 st6">n</text>
<text transform="matrix(0.85 0 -0.3165385 0.9485797 692.6246338 65.6928406)" class="st7 st3 st6">n</text>
<line class="st2" x1="525.8793945" y1="71.6807098" x2="782.8843384" y2="71.6807098"/>
<text transform="matrix(0.85 0 0 1 529.6352539 85.1987305)" class="st3 st4">+ </text>
<text transform="matrix(0.85 0 0 1 546.1665039 85.1987305)" class="st3 st4">areaClassificationType: gml::CodeType [0..1]</text>
<text transform="matrix(0.85 0 0 1 529.6352539 97.956543)" class="st3 st4">+ </text>
<text transform="matrix(0.85 0 0 1 546.1665039 97.956543)" class="st3 st4">city: gml::CodeType [0..1]</text>
<text transform="matrix(0.85 0 0 1 529.6352539 110.722168)" class="st3 st4">+ </text>
<text transform="matrix(0.85 0 0 1 546.1665039 110.722168)" class="st3 st4">class: gml::CodeType [0..1]</text>
<text transform="matrix(0.85 0 0 1 529.6352539 123.4799805)" class="st3 st4">+ </text>
<text transform="matrix(0.85 0 0 1 546.1665039 123.4799805)" class="st3 st4">custodian: xs::string [0..1]</text>
<text transform="matrix(0.85 0 0 1 529.6352539 136.237793)" class="st3 st4">+ </text>
<text transform="matrix(0.85 0 0 1 546.1665039 136.237793)" class="st3 st4">enactmentFiscalYear: xs::gYear [0..1]</text>
<text transform="matrix(0.85 0 0 1 529.6352539 149.003418)" class="st3 st4">+ </text>
<text transform="matrix(0.85 0 0 1 546.1665039 149.003418)" class="st3 st4">expirationFiscalYear: xs::gYear [0..1]</text>
<text transform="matrix(0.85 0 0 1 529.6352539 161.769043)" class="st3 st4">+ </text>
<text transform="matrix(0.85 0 0 1 546.1665039 161.769043)" class="st3 st4">finalNotificationDate: xs::date [0..1]</text>
<text transform="matrix(0.85 0 0 1 529.6352539 174.519043)" class="st3 st4">+ </text>
<text transform="matrix(0.85 0 0 1 546.1665039 174.519043)" class="st3 st4">finalNotificationNumber: xs::string [0..1]</text>
<text transform="matrix(0.85 0 0 1 529.6352539 187.284668)" class="st3 st4">+ </text>
<text transform="matrix(0.85 0 0 1 546.1665039 187.284668)" class="st3 st4">function: gml::CodeType [0..*]</text>
<text transform="matrix(0.85 0 0 1 529.6352539 200.050293)" class="st3 st4">+ </text>
<text transform="matrix(0.85 0 0 1 546.1665039 200.050293)" class="st3 st4">legalGrounds: xs::string [0..1]</text>
<text transform="matrix(0.85 0 0 1 529.6352539 212.8081055)" class="st3 st4">+ </text>
<text transform="matrix(0.85 0 0 1 546.1665039 212.8081055)" class="st3 st4">nominalArea: gml::MeasureType [0..1]</text>
<text transform="matrix(0.85 0 0 1 529.6352539 225.565918)" class="st3 st4">+ </text>
<text transform="matrix(0.85 0 0 1 546.1665039 225.565918)" class="st3 st4">note: gml:StringOrRefType [0..1]</text>
<text transform="matrix(0.85 0 0 1 529.6352539 238.331543)" class="st3 st4">+ </text>
<text transform="matrix(0.85 0 0 1 546.1665039 238.331543)" class="st3 st4">notificationNumber: xs::string [0..1]</text>
<text transform="matrix(0.85 0 0 1 529.6352539 251.0893555)" class="st3 st4">+ </text>
<text transform="matrix(0.85 0 0 1 546.1665039 251.0893555)" class="st3 st4">prefecture: gml::CodeType [0..1]</text>
<text transform="matrix(0.85 0 0 1 529.6352539 263.847168)" class="st3 st4">+ </text>
<text transform="matrix(0.85 0 0 1 546.1665039 263.847168)" class="st3 st4">reason: gml:StringOrRefType [0..1]</text>
<text transform="matrix(0.85 0 0 1 529.6352539 276.612793)" class="st3 st4">+ </text>
<text transform="matrix(0.85 0 0 1 546.1665039 276.612793)" class="st3 st4">reference: xs::anyURI [0..1]</text>
<text transform="matrix(0.85 0 0 1 529.6352539 289.3706055)" class="st3 st4">+ </text>
<text transform="matrix(0.85 0 0 1 546.1665039 289.3706055)" class="st3 st4">surveyYear: xs::gYear [0..1]</text>
<text transform="matrix(0.85 0 0 1 529.6352539 302.1362305)" class="st3 st4">+ </text>
<text transform="matrix(0.85 0 0 1 546.1665039 302.1362305)" class="st3 st4">urbanPlanType: gml::CodeType [0..1]</text>
<text transform="matrix(0.85 0 0 1 529.6352539 314.894043)" class="st3 st4">+ </text>
<text transform="matrix(0.85 0 0 1 546.1665039 314.894043)" class="st3 st4">usage: gml::CodeType [0..*]</text>
<text transform="matrix(0.85 0 0 1 529.6352539 327.6518555)" class="st3 st4">+ </text>
<text transform="matrix(0.85 0 0 1 546.1665039 327.6518555)" class="st3 st4">validFrom: xs::date [0..1]</text>
<text transform="matrix(0.85 0 0 1 529.6352539 340.4174805)" class="st3 st4">+ </text>
<text transform="matrix(0.85 0 0 1 546.1665039 340.4174805)" class="st3 st4">validFromType: gml::CodeType [0..1]</text>
<text transform="matrix(0.85 0 0 1 529.6352539 353.1831055)" class="st3 st4">+ </text>
<text transform="matrix(0.85 0 0 1 546.1665039 353.1831055)" class="st3 st4">validTo: xs::date [0..1]</text>
<text transform="matrix(0.85 0 0 1 529.6352539 365.9331055)" class="st3 st4">+ </text>
<text transform="matrix(0.85 0 0 1 546.1665039 365.9331055)" class="st3 st4">validToType: gml::CodeType [0..1]</text>
<path class="st8" d="M235.0580292,56.6675873c1.2450714,0,2.2544098,1.0082397,2.2544098,2.2519531h0.0000305v66.0577393
	l-0.0000305,0.000061c0,1.2436523-1.0093384,2.2519531-2.254425,2.2519531l0,0h0.0000153H100.5437469h-0.0000076
	c-1.2450867,0-2.2544327-1.0083008-2.2544174-2.2520142V58.9195404c0-1.2437134,1.0093307-2.2519531,2.254425-2.2519531l0,0
	H235.0580292L235.0580292,56.6675873L235.0580292,56.6675873z"/>
<path class="st9" d="M235.0580292,56.6675873c1.2450714,0,2.2544098,1.0082397,2.2544098,2.2519531h0.0000305v66.0577393
	l-0.0000305,0.000061c0,1.2436523-1.0093384,2.2519531-2.254425,2.2519531l0,0h0.0000153H100.5437469h-0.0000076
	c-1.2450867,0-2.2544327-1.0083008-2.2544174-2.2520142V58.9195404c0-1.2437134,1.0093307-2.2519531,2.254425-2.2519531l0,0
	H235.0580292L235.0580292,56.6675873L235.0580292,56.6675873z"/>
<path class="st10" d="M115.9490128,79.1873016c1.0375748,0,1.878685,0.8401489,1.878685,1.8765869h0.0000076v8.2572021
	l-0.0000076,0.000061c0,1.036438-0.8411102,1.8766479-1.8786926,1.8765869c0,0.000061,0,0,0,0h0.0000076h-8.2662354
	l-0.0000153,0.000061c-1.0375671-0.000061-1.8786926-0.84021-1.8786926-1.876709h0.0000153v-8.2572021
	c0-1.036438,0.8411102-1.8766479,1.8786926-1.8765869v-0.000061h8.2662354V79.1873016L115.9490128,79.1873016z"/>
<path class="st11" d="M115.9490128,79.1873016c1.0375748,0,1.878685,0.8401489,1.878685,1.8765869h0.0000076v8.2572021
	l-0.0000076,0.000061c0,1.036438-0.8411102,1.8766479-1.8786926,1.8765869c0,0.000061,0,0,0,0h0.0000076h-8.2662354
	l-0.0000153,0.000061c-1.0375671-0.000061-1.8786926-0.84021-1.8786926-1.876709h0.0000153v-8.2572021
	c0-1.036438,0.8411102-1.8766479,1.8786926-1.8765869v-0.000061h8.2662354V79.1873016L115.9490128,79.1873016z"/>
<text transform="matrix(0.85 0 0 1 122.3383789 88.190918)" class="st12 st13 st14">GMLに定義されたクラス</text>
<path class="st15" d="M115.9490128,93.4497528c1.0375748,0,1.878685,0.84021,1.878685,1.8766479l0.0000076-0.000061v8.2572632
	h-0.0000076c0,1.036438-0.8411102,1.8766479-1.8786926,1.8766479l0,0h0.0000076h-8.2662354h-0.0000153
	c-1.0375671,0-1.8786926-0.84021-1.8786926-1.8766479h0.0000153v-8.2572632c0-1.036377,0.8411102-1.8765869,1.8786926-1.8765869l0,0
	H115.9490128L115.9490128,93.4497528L115.9490128,93.4497528z"/>
<path class="st11" d="M115.9490128,93.4497528c1.0375748,0,1.878685,0.84021,1.878685,1.8766479l0.0000076-0.000061v8.2572632
	h-0.0000076c0,1.036438-0.8411102,1.8766479-1.8786926,1.8766479l0,0h0.0000076h-8.2662354h-0.0000153
	c-1.0375671,0-1.8786926-0.84021-1.8786926-1.8766479h0.0000153v-8.2572632c0-1.036377,0.8411102-1.8765869,1.8786926-1.8765869l0,0
	H115.9490128L115.9490128,93.4497528L115.9490128,93.4497528z"/>
<text transform="matrix(0.85 0 0 1 122.3383789 102.4643555)" class="st12 st13 st14">CityGMLに定義されたクラス</text>
<path class="st1" d="M115.9490128,107.712204c1.0375748,0,1.878685,0.84021,1.878685,1.8766479h0.0000076v8.2572021h-0.0000076
	c0,1.036438-0.8411102,1.8766479-1.8786926,1.8766479l0,0h0.0000076h-8.2662354h-0.0000153
	c-1.0375671,0-1.8786926-0.84021-1.8786926-1.8766479h0.0000153v-8.2572021c0-1.036438,0.8411102-1.8766479,1.8786926-1.8766479l0,0
	H115.9490128L115.9490128,107.712204L115.9490128,107.712204z"/>
<path class="st11" d="M115.9490128,107.712204c1.0375748,0,1.878685,0.84021,1.878685,1.8766479h0.0000076v8.2572021h-0.0000076
	c0,1.036438-0.8411102,1.8766479-1.8786926,1.8766479l0,0h0.0000076h-8.2662354h-0.0000153
	c-1.0375671,0-1.8786926-0.84021-1.8786926-1.8766479h0.0000153v-8.2572021c0-1.036438,0.8411102-1.8766479,1.8786926-1.8766479l0,0
	H115.9490128L115.9490128,107.712204L115.9490128,107.712204z"/>
<text transform="matrix(0.85 0 0 1 122.3383789 116.7143555)" class="st12 st13 st14">i-URに定義されたクラス</text>
<text transform="matrix(0.85 0 0 1 154.6430664 74.9189453)" class="st12 st16 st17 st18">凡例</text>
<line class="st19" x1="442.4655151" y1="106.2108612" x2="525.1279297" y2="106.9615326"/>
<polyline class="st20" points="513.1043091,111.4654999 513.1043091,102.4576263 525.1279297,106.9615326 513.1043091,111.4654999 
	"/>
<polygon class="st19" points="525.1279297,106.9615326 513.1043091,102.4576263 513.1043091,111.4654999 "/>
<line class="st19" x1="378.5900269" y1="251.8381805" x2="378.5900269" y2="221.8119354"/>
<polyline class="st20" points="383.098877,233.8224335 374.0811768,233.8224335 378.5900269,221.8119354 383.098877,233.8224335 "/>
<polygon class="st19" points="383.098877,233.8224335 374.0811768,233.8224335 378.5900269,221.8119354 "/>
<line class="st19" x1="711.4940796" y1="462.0219116" x2="711.4940796" y2="394.4628906"/>
<line class="st19" x1="711.4940796" y1="394.4628906" x2="374.0811768" y2="394.4628906"/>
<line class="st19" x1="374.0811768" y1="394.4628906" x2="374.0811768" y2="357.6807251"/>
<polyline class="st21" points="377.838562,365.1873169 374.0811768,357.6807251 370.3237915,365.1873169 374.0811768,372.6938477 
	377.838562,365.1873169 "/>
<polyline class="st19" points="377.838562,365.1873169 374.0811768,357.6807251 370.3237915,365.1873169 374.0811768,372.6938477 
	"/>
<path class="st19" d="M711.4940796,462.0219116l4.5088501-11.2598267 M711.4940796,462.0219116l-4.5088501-11.2598267"/>
<line class="st19" x1="525.1279297" y1="462.0219116" x2="525.1279297" y2="394.4628906"/>
<polyline class="st21" points="377.838562,365.1873169 374.0811768,357.6807251 370.3237915,365.1873169 374.0811768,372.6938477 
	377.838562,365.1873169 "/>
<polyline class="st19" points="377.838562,365.1873169 374.0811768,357.6807251 370.3237915,365.1873169 374.0811768,372.6938477 
	"/>
<path class="st19" d="M525.1279297,462.0219116l4.5088501-11.2598267 M525.1279297,462.0219116l-4.5088501-11.2598267"/>
<line class="st19" x1="130.6028137" y1="462.0219116" x2="130.6028137" y2="394.4628906"/>
<line class="st19" x1="130.6028137" y1="394.4628906" x2="374.0811768" y2="394.4628906"/>
<polyline class="st21" points="377.838562,365.1873169 374.0811768,357.6807251 370.3237915,365.1873169 374.0811768,372.6938477 
	377.838562,365.1873169 "/>
<polyline class="st19" points="377.838562,365.1873169 374.0811768,357.6807251 370.3237915,365.1873169 374.0811768,372.6938477 
	"/>
<path class="st19" d="M130.6028137,462.0219116l4.5088501-11.2598267 M130.6028137,462.0219116l-4.5088654-11.2598267"/>
<line class="st19" x1="334.2529297" y1="462.0219116" x2="334.2529297" y2="394.4628906"/>
<polyline class="st21" points="377.838562,365.1873169 374.0811768,357.6807251 370.3237915,365.1873169 374.0811768,372.6938477 
	377.838562,365.1873169 "/>
<polygon class="st19" points="374.0811768,372.6938477 370.3237915,365.1873169 374.0811768,357.6807251 377.838562,365.1873169 "/>
<path class="st19" d="M334.2529297,462.0219116l4.5088501-11.2598267 M334.2529297,462.0219116l-4.5088501-11.2598267"/>
<line class="st19" x1="371.8267822" y1="154.2528534" x2="371.8267822" y2="134.7358246"/>
<polyline class="st20" points="376.3356323,146.7463226 367.3178711,146.7463226 371.8267822,134.7358246 376.3356323,146.7463226 
	"/>
<polygon class="st19" points="376.3356323,146.7463226 367.3178711,146.7463226 371.8267822,134.7358246 "/>
<text transform="matrix(0.85 0 0 1 27.6508789 453.769043)" class="st13 st14">+urbanRoadAttribute</text>
<text transform="matrix(0.85 0 0 1 146.3847656 453.769043)" class="st13 st14">0..1</text>
<text transform="matrix(0.85 0 0 1 587.5019531 453.769043)" class="st13 st14">+vehicleTerminalAttribute</text>
<text transform="matrix(0.85 0 0 1 725.0175781 456.0112305)" class="st13 st14">0..1</text>
<text transform="matrix(0.85 0 0 1 190.7207031 437.9956055)" class="st13 st14">+urbanRapidTransitRailroadAttribute</text>
<text transform="matrix(0.85 0 0 1 349.2832031 441.003418)" class="st13 st14">0..1</text>
<text transform="matrix(0.85 0 0 1 416.9082031 456.0112305)" class="st13 st14">+parkingPlaceAttribute</text>
<text transform="matrix(0.85 0 0 1 537.1503906 455.2612305)" class="st13 st14">0..1</text>
</svg>
