<?xml version="1.0" encoding="utf-8"?>
<!-- Generator: Adobe Illustrator 27.5.0, SVG Export Plug-In . SVG Version: 6.00 Build 0)  -->
<svg version="1.1" id="レイヤー_1" xmlns="http://www.w3.org/2000/svg" xmlns:xlink="http://www.w3.org/1999/xlink" x="0px"
	 y="0px" viewBox="0 0 742.7244263 487" style="enable-background:new 0 0 742.7244263 487;" xml:space="preserve">
<style type="text/css">
	.st0{opacity:0.5019608;fill-rule:evenodd;clip-rule:evenodd;fill:#969696;enable-background:new    ;}
	.st1{fill-rule:evenodd;clip-rule:evenodd;fill:#FFCCFF;}
	.st2{fill:none;stroke:#000000;stroke-width:1.5013124;stroke-linecap:round;stroke-linejoin:round;stroke-miterlimit:10;}
	.st3{font-family:'YuGothicUI-Regular';}
	.st4{font-size:9.7585306px;}
	.st5{font-family:'YuGothicUI-Bold';}
	.st6{font-size:10.2875204px;}
	.st7{fill:none;stroke:#000000;stroke-width:0.2788152;stroke-miterlimit:10;}
	.st8{fill-rule:evenodd;clip-rule:evenodd;fill:#F0F0F0;}
	.st9{fill:none;stroke:#D7D7D7;stroke-width:0.7506562;stroke-linecap:square;stroke-miterlimit:10;}
	.st10{fill-rule:evenodd;clip-rule:evenodd;fill:#CCFFCC;}
	.st11{fill:none;stroke:#000000;stroke-width:0.7506562;stroke-linecap:square;stroke-miterlimit:10;}
	.st12{fill:#003060;}
	.st13{fill-rule:evenodd;clip-rule:evenodd;fill:#FFFFCC;}
	.st14{font-family:'Meiryo-Bold';}
	.st15{font-size:12.010499px;}
	.st16{letter-spacing:-2.352941;}
	.st17{fill:none;stroke:#000000;stroke-width:1.5013124;stroke-linecap:round;stroke-linejoin:bevel;stroke-miterlimit:10;}
	.st18{fill-rule:evenodd;clip-rule:evenodd;fill:#FFFFFF;}
	.st19{fill-rule:evenodd;clip-rule:evenodd;}
	.st20{font-family:'Meiryo';}
	.st21{font-size:7.5065618px;}
</style>
<path class="st0" d="M342.4422302,156.8635101c1.0375671,0,1.8786621,0.84021,1.8786621,1.8766479h0.0000305v48.7926636h-0.0000305
	c0,1.036438-0.841095,1.8766479-1.8786621,1.8766174c0,0.0000305,0,0,0,0l0,0H221.4545135l-0.0000305,0.0000305
	c-1.0375671-0.0000305-1.8786774-0.84021-1.8786774-1.8766479h0.0000153v-48.7926636
	c0-1.036438,0.841095-1.8766479,1.8786926-1.8766479l0,0H342.4422302L342.4422302,156.8635101L342.4422302,156.8635101z"/>
<path class="st1" d="M340.1878052,154.611557c1.0375671,0,1.8786621,0.8401794,1.8786621,1.8766479l0.0000305-0.0000305v48.7926636
	l-0.0000305,0.0000305c0,1.036438-0.841095,1.8766479-1.8786926,1.8765869c0,0.000061,0,0,0,0h0.0000305H219.2000885
	l-0.0000305,0.000061c-1.0375671-0.000061-1.8786926-0.84021-1.8786926-1.8766785h0.0000305v-48.7926636
	c0-1.036438,0.841095-1.8766174,1.8786926-1.8766174l0,0H340.1878052L340.1878052,154.611557L340.1878052,154.611557z"/>
<path class="st2" d="M340.1878052,154.611557c1.0375671,0,1.8786621,0.8401794,1.8786621,1.8766479l0.0000305-0.0000305v48.7926636
	l-0.0000305,0.0000305c0,1.036438-0.841095,1.8766479-1.8786926,1.8765869c0,0.000061,0,0,0,0h0.0000305H219.2000885
	l-0.0000305,0.000061c-1.0375671-0.000061-1.8786926-0.84021-1.8786926-1.8766785h0.0000305v-48.7926636
	c0-1.036438,0.841095-1.8766174,1.8786926-1.8766174l0,0H340.1878052L340.1878052,154.611557L340.1878052,154.611557z"/>
<text transform="matrix(0.85 0 0 1 248.1333008 169.6293945)" class="st3 st4">«FeatureType»</text>
<text transform="matrix(0.85 0 0 1 250.3911133 182.387207)" class="st5 st4">UrbanFacility</text>
<line class="st2" x1="217.3213959" y1="188.3910675" x2="342.0664978" y2="188.3910675"/>
<text transform="matrix(0.85 0 0 1 221.0786133 201.902832)" class="st3 st4">+ </text>
<text transform="matrix(0.85 0 0 1 237.6098633 201.902832)" class="st3 st4">number: xs::string [0..1]</text>
<path class="st0" d="M285.3299866,359.5407104c1.0375671,0,1.8786926,0.8401794,1.8786926,1.8766479v-0.0000305v87.0761108v0.000061
	c0,1.0364075-0.8411255,1.8766479-1.8786926,1.8765869c0,0.000061,0,0,0,0l0,0H86.1887512l-0.0000153,0.000061
	c-1.0375671-0.000061-1.8786926-0.8402405-1.8786926-1.876709h0.0000153v-87.0761108
	c0-1.036438,0.8411102-1.8766479,1.8786926-1.8766174v-0.0000305h199.1412354V359.5407104L285.3299866,359.5407104z"/>
<path class="st1" d="M283.0755615,357.2887573c1.0375671,0,1.8786621,0.8401794,1.8786621,1.8766174h0.0000305v87.0761108
	l-0.0000305,0.0000305c0,1.036438-0.841095,1.8766479-1.8786926,1.8766174c0,0.0000305,0,0,0,0h0.0000305H83.9343185
	l-0.0000076,0.0000305c-1.0375748-0.0000305-1.8786926-0.84021-1.8786926-1.8766785h0.0000076v-87.0761108
	c0-1.036438,0.8411102-1.8766479,1.8786926-1.8766174v-0.0000305h199.1412354V357.2887573L283.0755615,357.2887573z"/>
<path class="st2" d="M283.0755615,357.2887573c1.0375671,0,1.8786621,0.8401794,1.8786621,1.8766174h0.0000305v87.0761108
	l-0.0000305,0.0000305c0,1.036438-0.841095,1.8766479-1.8786926,1.8766174c0,0.0000305,0,0,0,0h0.0000305H83.9343185
	l-0.0000076,0.0000305c-1.0375748-0.0000305-1.8786926-0.84021-1.8786926-1.8766785h0.0000076v-87.0761108
	c0-1.036438,0.8411102-1.8766479,1.8786926-1.8766174v-0.0000305h199.1412354V357.2887573L283.0755615,357.2887573z"/>
<text transform="matrix(0.85 0 0 1 157.9536133 372.3012695)" class="st3 st4">«DataType»</text>
<text transform="matrix(0.85 0 0 1 133.1567383 385.0668945)" class="st5 st4">SewerSystemAttribute</text>
<line class="st2" x1="82.0556259" y1="391.0682373" x2="284.9542542" y2="391.0682373"/>
<text transform="matrix(0.85 0 0 1 85.8129883 404.574707)" class="st3 st4">+ </text>
<text transform="matrix(0.85 0 0 1 102.3442383 404.574707)" class="st3 st4">drainageArea: gml:StringOrRefType [0..1]</text>
<text transform="matrix(0.85 0 0 1 85.8129883 417.340332)" class="st3 st4">+ </text>
<text transform="matrix(0.85 0 0 1 102.3442383 417.340332)" class="st3 st4">endLocation: xs::string [0..1]</text>
<text transform="matrix(0.85 0 0 1 85.8129883 430.105957)" class="st3 st4">+ </text>
<text transform="matrix(0.85 0 0 1 102.3442383 430.105957)" class="st3 st4">startLocation: xs::string [0..1]</text>
<text transform="matrix(0.85 0 0 1 85.8129883 442.871582)" class="st3 st4">+ </text>
<text transform="matrix(0.85 0 0 1 102.3442383 442.871582)" class="st3 st4">systemType: gml::CodeType [0..1]</text>
<path class="st0" d="M216.9456482,269.4619751c1.0375671,0,1.8786774,0.8401794,1.8786774,1.8766479l0.0000153-0.0000305v33.0288696
	l-0.0000153,0.0000305c0,1.036438-0.8411102,1.8766479-1.8786926,1.8766174c0,0.0000305,0,0,0,0h0.0000153H138.792099
	l-0.0000153,0.0000305c-1.0375671-0.0000305-1.8786926-0.84021-1.8786926-1.8766785h0.0000153v-33.0288696
	c0-1.036438,0.8411102-1.8766479,1.8786926-1.8766174v-0.0000305h78.1535492V269.4619751L216.9456482,269.4619751z"/>
<path class="st1" d="M214.6912231,267.210022c1.0375671,0,1.8786621,0.8401489,1.8786621,1.8766174l0.0000305-0.0000305v33.0289001
	h-0.0000305c0,1.036438-0.841095,1.8766479-1.8786774,1.8766174c0,0.0000305,0,0,0,0h0.0000153H136.537674l-0.0000153,0.0000305
	c-1.0375671-0.0000305-1.8786926-0.84021-1.8786926-1.8766479h0.0000153v-33.0289001
	c0-1.036438,0.8411102-1.8766479,1.8786926-1.8765869v-0.000061h78.1535492V267.210022L214.6912231,267.210022z"/>
<path class="st2" d="M214.6912231,267.210022c1.0375671,0,1.8786621,0.8401489,1.8786621,1.8766174l0.0000305-0.0000305v33.0289001
	h-0.0000305c0,1.036438-0.841095,1.8766479-1.8786774,1.8766174c0,0.0000305,0,0,0,0h0.0000153H136.537674l-0.0000153,0.0000305
	c-1.0375671-0.0000305-1.8786926-0.84021-1.8786926-1.8766479h0.0000153v-33.0289001
	c0-1.036438,0.8411102-1.8766479,1.8786926-1.8765869v-0.000061h78.1535492V267.210022L214.6912231,267.210022z"/>
<text transform="matrix(0.85 0 0 1 143.6723633 282.2231445)" class="st3 st4">«FeatureType»</text>
<text transform="matrix(0.85 0 0 1 136.9067383 294.9887695)" class="st5 st4">TreatmentFacility</text>
<path class="st0" d="M404.8147888,269.4619751c1.0375366,0,1.8786316,0.8401794,1.8786316,1.8766479l0.000061-0.0000305v33.0288696
	l-0.000061,0.0000305c0,1.036438-0.841095,1.8766479-1.8786926,1.8766174c0,0.0000305,0,0,0,0h0.000061h-78.1535645v0.0000305
	c-1.0375977-0.0000305-1.8786926-0.84021-1.8786926-1.8766785l0,0v-33.0288696c0-1.036438,0.841095-1.8766479,1.8786926-1.8766174
	v-0.0000305h78.1535645V269.4619751L404.8147888,269.4619751z"/>
<path class="st1" d="M402.5603638,267.210022c1.0375366,0,1.8786316,0.8401489,1.8786316,1.8766174l0.000061-0.0000305v33.0289001
	h-0.000061c0,1.036438-0.841095,1.8766479-1.8786926,1.8766174c0,0.0000305,0,0,0,0h0.000061h-78.1535645l-0.0000305,0.0000305
	c-1.0375671-0.0000305-1.8786926-0.84021-1.8786926-1.8766479h0.0000305v-33.0289001
	c0-1.036438,0.841095-1.8766479,1.8786926-1.8765869v-0.000061h78.1535645V267.210022L402.5603638,267.210022z"/>
<path class="st2" d="M402.5603638,267.210022c1.0375366,0,1.8786316,0.8401489,1.8786316,1.8766174l0.000061-0.0000305v33.0289001
	h-0.000061c0,1.036438-0.841095,1.8766479-1.8786926,1.8766174c0,0.0000305,0,0,0,0h0.000061h-78.1535645l-0.0000305,0.0000305
	c-1.0375671-0.0000305-1.8786926-0.84021-1.8786926-1.8766479h0.0000305v-33.0289001
	c0-1.036438,0.841095-1.8766479,1.8786926-1.8765869v-0.000061h78.1535645V267.210022L402.5603638,267.210022z"/>
<text transform="matrix(0.85 0 0 1 331.5473633 282.2231445)" class="st3 st4">«FeatureType»</text>
<text transform="matrix(0.85 0 0 1 333.0473633 294.9887695)" class="st5 st4">SupplyFacility</text>
<path class="st0" d="M700.1450195,30.0026093c1.0375366,0,1.8786621,0.84021,1.8786621,1.8766479h0.000061V376.430481
	l-0.000061,0.0000305c0,1.036438-0.8411255,1.8766479-1.8786621,1.8766174c0,0.0000305,0,0,0,0l0,0H446.8974609
	l-0.0000305,0.0000305c-1.0375671-0.0000305-1.8786926-0.84021-1.8786926-1.8766785h0.0000305V31.8792572
	c0-1.036438,0.841095-1.8766479,1.8786926-1.8766479l0,0H700.1450195L700.1450195,30.0026093L700.1450195,30.0026093z"/>
<path class="st1" d="M697.890625,27.7506561c1.0375366,0,1.8786011,0.84021,1.8786011,1.8766479h0.000061v344.5512085h-0.000061
	c0,1.036438-0.8410645,1.8766479-1.8786621,1.8766174c0,0.0000305,0,0,0,0h0.000061H444.6430359l-0.0000305,0.0000305
	c-1.0375671-0.0000305-1.8786926-0.84021-1.8786926-1.8766479h0.0000305V29.6273041
	c0-1.036438,0.841095-1.8766479,1.8786926-1.8766479l0,0H697.890625L697.890625,27.7506561L697.890625,27.7506561z"/>
<path class="st2" d="M697.890625,27.7506561c1.0375366,0,1.8786011,0.84021,1.8786011,1.8766479h0.000061v344.5512085h-0.000061
	c0,1.036438-0.8410645,1.8766479-1.8786621,1.8766174c0,0.0000305,0,0,0,0h0.000061H444.6430359l-0.0000305,0.0000305
	c-1.0375671-0.0000305-1.8786926-0.84021-1.8786926-1.8766479h0.0000305V29.6273041
	c0-1.036438,0.841095-1.8766479,1.8786926-1.8766479l0,0H697.890625L697.890625,27.7506561L697.890625,27.7506561z"/>
<text transform="matrix(0.85 0 -0.3165385 0.9485797 641.6588135 40.5276871)" class="st3 st6">_CityObject</text>
<text transform="matrix(0.85 0 0 1 539.703125 57.777832)" class="st3 st4">«FeatureType»</text>
<text transform="matrix(0.85 0 -0.3165385 0.9485797 535.93927 70.5561676)" class="st3 st6">_</text>
<text transform="matrix(0.85 0 -0.3165385 0.9485797 535.93927 70.5561676)" class="st7 st3 st6">_</text>
<text transform="matrix(0.85 0 -0.3165385 0.9485797 539.7009888 70.5561676)" class="st3 st6">U</text>
<text transform="matrix(0.85 0 -0.3165385 0.9485797 539.7009888 70.5561676)" class="st7 st3 st6">U</text>
<text transform="matrix(0.85 0 -0.3165385 0.9485797 546.4607544 70.5561676)" class="st3 st6">r</text>
<text transform="matrix(0.85 0 -0.3165385 0.9485797 546.4607544 70.5561676)" class="st7 st3 st6">r</text>
<text transform="matrix(0.85 0 -0.3165385 0.9485797 550.2088013 70.5561676)" class="st3 st6">b</text>
<text transform="matrix(0.85 0 -0.3165385 0.9485797 550.2088013 70.5561676)" class="st7 st3 st6">b</text>
<text transform="matrix(0.85 0 -0.3165385 0.9485797 556.2166138 70.5561676)" class="st3 st6">a</text>
<text transform="matrix(0.85 0 -0.3165385 0.9485797 556.2166138 70.5561676)" class="st7 st3 st6">a</text>
<text transform="matrix(0.85 0 -0.3165385 0.9485797 561.47052 70.5561676)" class="st3 st6">n</text>
<text transform="matrix(0.85 0 -0.3165385 0.9485797 561.47052 70.5561676)" class="st7 st3 st6">n</text>
<text transform="matrix(0.85 0 -0.3165385 0.9485797 567.4783325 70.5561676)" class="st3 st6">F</text>
<text transform="matrix(0.85 0 -0.3165385 0.9485797 567.4783325 70.5561676)" class="st7 st3 st6">F</text>
<text transform="matrix(0.85 0 -0.3165385 0.9485797 572.736145 70.5561676)" class="st3 st6">un</text>
<text transform="matrix(0.85 0 -0.3165385 0.9485797 572.736145 70.5561676)" class="st7 st3 st6">un</text>
<text transform="matrix(0.85 0 -0.3165385 0.9485797 584.7498169 70.5561676)" class="st3 st6">c</text>
<text transform="matrix(0.85 0 -0.3165385 0.9485797 584.7498169 70.5561676)" class="st7 st3 st6">c</text>
<text transform="matrix(0.85 0 -0.3165385 0.9485797 589.2634888 70.5561676)" class="st3 st6">t</text>
<text transform="matrix(0.85 0 -0.3165385 0.9485797 589.2634888 70.5561676)" class="st7 st3 st6">t</text>
<text transform="matrix(0.85 0 -0.3165385 0.9485797 593.0134888 70.5561676)" class="st3 st6">i</text>
<text transform="matrix(0.85 0 -0.3165385 0.9485797 593.0134888 70.5561676)" class="st7 st3 st6">i</text>
<text transform="matrix(0.85 0 -0.3165385 0.9485797 595.2713013 70.5561676)" class="st3 st6">o</text>
<text transform="matrix(0.85 0 -0.3165385 0.9485797 595.2713013 70.5561676)" class="st7 st3 st6">o</text>
<text transform="matrix(0.85 0 -0.3165385 0.9485797 601.2791138 70.5561676)" class="st3 st6">n</text>
<text transform="matrix(0.85 0 -0.3165385 0.9485797 601.2791138 70.5561676)" class="st7 st3 st6">n</text>
<line class="st2" x1="442.7643433" y1="76.5433197" x2="699.7692871" y2="76.5433197"/>
<text transform="matrix(0.85 0 0 1 446.5161133 90.059082)" class="st3 st4">+ </text>
<text transform="matrix(0.85 0 0 1 463.0551758 90.059082)" class="st3 st4">areaClassificationType: gml::CodeType [0..1]</text>
<text transform="matrix(0.85 0 0 1 446.5161133 102.824707)" class="st3 st4">+ </text>
<text transform="matrix(0.85 0 0 1 463.0551758 102.824707)" class="st3 st4">city: gml::CodeType [0..1]</text>
<text transform="matrix(0.85 0 0 1 446.5161133 115.5825195)" class="st3 st4">+ </text>
<text transform="matrix(0.85 0 0 1 463.0551758 115.5825195)" class="st3 st4">class: gml::CodeType [0..1]</text>
<text transform="matrix(0.85 0 0 1 446.5161133 128.340332)" class="st3 st4">+ </text>
<text transform="matrix(0.85 0 0 1 463.0551758 128.340332)" class="st3 st4">custodian: xs::string [0..1]</text>
<text transform="matrix(0.85 0 0 1 446.5161133 141.105957)" class="st3 st4">+ </text>
<text transform="matrix(0.85 0 0 1 463.0551758 141.105957)" class="st3 st4">enactmentFiscalYear: xs::gYear [0..1]</text>
<text transform="matrix(0.85 0 0 1 446.5161133 153.8637695)" class="st3 st4">+ </text>
<text transform="matrix(0.85 0 0 1 463.0551758 153.8637695)" class="st3 st4">expirationFiscalYear: xs::gYear [0..1]</text>
<text transform="matrix(0.85 0 0 1 446.5161133 166.6293945)" class="st3 st4">+ </text>
<text transform="matrix(0.85 0 0 1 463.0551758 166.6293945)" class="st3 st4">finalNotificationDate: xs::date [0..1]</text>
<text transform="matrix(0.85 0 0 1 446.5161133 179.387207)" class="st3 st4">+ </text>
<text transform="matrix(0.85 0 0 1 463.0551758 179.387207)" class="st3 st4">finalNotificationNumber: xs::string [0..1]</text>
<text transform="matrix(0.85 0 0 1 446.5161133 192.1450195)" class="st3 st4">+ </text>
<text transform="matrix(0.85 0 0 1 463.0551758 192.1450195)" class="st3 st4">function: gml::CodeType [0..*]</text>
<text transform="matrix(0.85 0 0 1 446.5161133 204.9106445)" class="st3 st4">+ </text>
<text transform="matrix(0.85 0 0 1 463.0551758 204.9106445)" class="st3 st4">legalGrounds: xs::string [0..1]</text>
<text transform="matrix(0.85 0 0 1 446.5161133 217.6762695)" class="st3 st4">+ </text>
<text transform="matrix(0.85 0 0 1 463.0551758 217.6762695)" class="st3 st4">nominalArea: gml::MeasureType [0..1]</text>
<text transform="matrix(0.85 0 0 1 446.5161133 230.4262695)" class="st3 st4">+ </text>
<text transform="matrix(0.85 0 0 1 463.0551758 230.4262695)" class="st3 st4">note: gml:StringOrRefType [0..1]</text>
<text transform="matrix(0.85 0 0 1 446.5161133 243.1918945)" class="st3 st4">+ </text>
<text transform="matrix(0.85 0 0 1 463.0551758 243.1918945)" class="st3 st4">notificationNumber: xs::string [0..1]</text>
<text transform="matrix(0.85 0 0 1 446.5161133 255.9575195)" class="st3 st4">+ </text>
<text transform="matrix(0.85 0 0 1 463.0551758 255.9575195)" class="st3 st4">prefecture: gml::CodeType [0..1]</text>
<text transform="matrix(0.85 0 0 1 446.5161133 268.7075195)" class="st3 st4">+ </text>
<text transform="matrix(0.85 0 0 1 463.0551758 268.7075195)" class="st3 st4">reason: gml:StringOrRefType [0..1]</text>
<text transform="matrix(0.85 0 0 1 446.5161133 281.4731445)" class="st3 st4">+ </text>
<text transform="matrix(0.85 0 0 1 463.0551758 281.4731445)" class="st3 st4">reference: xs::anyURI [0..1]</text>
<text transform="matrix(0.85 0 0 1 446.5161133 294.2387695)" class="st3 st4">+ </text>
<text transform="matrix(0.85 0 0 1 463.0551758 294.2387695)" class="st3 st4">surveyYear: xs::gYear [0..1]</text>
<text transform="matrix(0.85 0 0 1 446.5161133 306.996582)" class="st3 st4">+ </text>
<text transform="matrix(0.85 0 0 1 463.0551758 306.996582)" class="st3 st4">urbanPlanType: gml::CodeType [0..1]</text>
<text transform="matrix(0.85 0 0 1 446.5161133 319.7543945)" class="st3 st4">+ </text>
<text transform="matrix(0.85 0 0 1 463.0551758 319.7543945)" class="st3 st4">usage: gml::CodeType [0..*]</text>
<text transform="matrix(0.85 0 0 1 446.5161133 332.5200195)" class="st3 st4">+ </text>
<text transform="matrix(0.85 0 0 1 463.0551758 332.5200195)" class="st3 st4">validFrom: xs::date [0..1]</text>
<text transform="matrix(0.85 0 0 1 446.5161133 345.277832)" class="st3 st4">+ </text>
<text transform="matrix(0.85 0 0 1 463.0551758 345.277832)" class="st3 st4">validFromType: gml::CodeType [0..1]</text>
<text transform="matrix(0.85 0 0 1 446.5161133 358.043457)" class="st3 st4">+ </text>
<text transform="matrix(0.85 0 0 1 463.0551758 358.043457)" class="st3 st4">validTo: xs::date [0..1]</text>
<text transform="matrix(0.85 0 0 1 446.5161133 370.8012695)" class="st3 st4">+ </text>
<text transform="matrix(0.85 0 0 1 463.0551758 370.8012695)" class="st3 st4">validToType: gml::CodeType [0..1]</text>
<path class="st0" d="M343.1937256,74.2913055c1.0375671,0,1.8786621,0.84021,1.8786621,1.8766479h0.0000305v49.543335h-0.0000305
	c0,1.036438-0.841095,1.8766479-1.8786926,1.8766174c0,0.0000305,0,0,0,0h0.0000305h-121.739212l-0.0000305,0.0000305
	c-1.0375671-0.0000305-1.8786774-0.84021-1.8786774-1.8766479h0.0000153v-49.543335
	c0-1.036438,0.841095-1.8766479,1.8786926-1.8766479l0,0H343.1937256L343.1937256,74.2913055L343.1937256,74.2913055z"/>
<path class="st1" d="M340.9393005,72.0393524c1.0375671,0,1.8786621,0.84021,1.8786621,1.8766479l0,0v49.5433044v0.0000305
	c0,1.0364075-0.841095,1.8766174-1.8786926,1.8766174l0,0h0.0000305h-121.739212h-0.0000305
	c-1.0375671,0-1.8786926-0.84021-1.8786926-1.8766479h0.0000305V73.9160004c0-1.036438,0.841095-1.8766479,1.8786926-1.8766479l0,0
	H340.9393005L340.9393005,72.0393524L340.9393005,72.0393524z"/>
<path class="st2" d="M340.9393005,72.0393524c1.0375671,0,1.8786621,0.84021,1.8786621,1.8766479l0,0v49.5433044v0.0000305
	c0,1.0364075-0.841095,1.8766174-1.8786926,1.8766174l0,0h0.0000305h-121.739212h-0.0000305
	c-1.0375671,0-1.8786926-0.84021-1.8786926-1.8766479h0.0000305V73.9160004c0-1.036438,0.841095-1.8766479,1.8786926-1.8766479l0,0
	H340.9393005L340.9393005,72.0393524L340.9393005,72.0393524z"/>
<text transform="matrix(0.85 0 0 1 248.1333008 87.059082)" class="st3 st4">«FeatureType»</text>
<text transform="matrix(0.85 0 0 1 268.4223633 99.809082)" class="st5 st4">Zone</text>
<line class="st2" x1="217.3213959" y1="105.8188934" x2="342.8179626" y2="105.8188934"/>
<text transform="matrix(0.85 0 0 1 221.0786133 119.3325195)" class="st3 st4">+ </text>
<text transform="matrix(0.85 0 0 1 237.6098633 119.3325195)" class="st3 st4">location: xs::string [0..1]</text>
<path class="st0" d="M447.6489563,382.0603943c1.0375366,0,1.8786316,0.8401794,1.8786316,1.8766479l0.000061-0.0000305v61.5538025
	l-0.000061,0.000061c0,1.0364075-0.841095,1.8766479-1.8786926,1.8765869c0,0.000061,0,0,0,0h0.000061H304.1169434
	l-0.0000305,0.000061c-1.0375671-0.000061-1.8786926-0.8402405-1.8786926-1.876709h0.0000305v-61.5538025
	c0-1.036438,0.841095-1.8766479,1.8786926-1.8766174v-0.0000305h143.5320129V382.0603943L447.6489563,382.0603943z"/>
<path class="st1" d="M445.3945007,379.8084412c1.0375671,0,1.8786621,0.8401794,1.8786621,1.8766174h0.0000305v61.5538025
	l-0.0000305,0.0000305c0,1.036438-0.841095,1.8766479-1.8786926,1.8766174c0,0.0000305,0,0,0,0h0.0000305H301.8625183
	l-0.0000305,0.0000305c-1.0375671-0.0000305-1.8786926-0.84021-1.8786926-1.8766785h0.0000305v-61.5538025
	c0-1.036438,0.841095-1.8766479,1.8786926-1.8766174v-0.0000305h143.5319824V379.8084412L445.3945007,379.8084412z"/>
<path class="st2" d="M445.3945007,379.8084412c1.0375671,0,1.8786621,0.8401794,1.8786621,1.8766174h0.0000305v61.5538025
	l-0.0000305,0.0000305c0,1.036438-0.841095,1.8766479-1.8786926,1.8766174c0,0.0000305,0,0,0,0h0.0000305H301.8625183
	l-0.0000305,0.0000305c-1.0375671-0.0000305-1.8786926-0.84021-1.8786926-1.8766785h0.0000305v-61.5538025
	c0-1.036438,0.841095-1.8766479,1.8786926-1.8766174v-0.0000305h143.5319824V379.8084412L445.3945007,379.8084412z"/>
<text transform="matrix(0.85 0 0 1 348.0786133 394.824707)" class="st3 st4">«DataType»</text>
<text transform="matrix(0.85 0 0 1 324.7817383 407.590332)" class="st5 st4">WaterWorksAttribute</text>
<line class="st2" x1="299.9838257" y1="413.5879517" x2="447.2731934" y2="413.5879517"/>
<text transform="matrix(0.85 0 0 1 303.7426758 427.0981445)" class="st3 st4">+ </text>
<text transform="matrix(0.85 0 0 1 320.2661133 427.0981445)" class="st3 st4">endLocation: xs::string [0..1]</text>
<text transform="matrix(0.85 0 0 1 303.7426758 439.8637695)" class="st3 st4">+ </text>
<text transform="matrix(0.85 0 0 1 320.2661133 439.8637695)" class="st3 st4">startLocation: xs::string [0..1]</text>
<path class="st8" d="M188.7652893,79.5459442c1.2450714,0,2.2544098,1.0082397,2.2544098,2.2519531h0.0000153v84.8241577h-0.0000153
	c0,1.2437134-1.0093384,2.2519531-2.2544403,2.2519531l0,0h0.0000305H54.2510033h-0.0000076
	c-1.2450867,0-2.254425-1.0082397-2.254425-2.2519531V81.7978973c0-1.2437134,1.0093384-2.2519531,2.2544327-2.2519531l0,0
	H188.7652893L188.7652893,79.5459442L188.7652893,79.5459442z"/>
<path class="st9" d="M188.7652893,79.5459442c1.2450714,0,2.2544098,1.0082397,2.2544098,2.2519531h0.0000153v84.8241577h-0.0000153
	c0,1.2437134-1.0093384,2.2519531-2.2544403,2.2519531l0,0h0.0000305H54.2510033h-0.0000076
	c-1.2450867,0-2.254425-1.0082397-2.254425-2.2519531V81.7978973c0-1.2437134,1.0093384-2.2519531,2.2544327-2.2519531l0,0
	H188.7652893L188.7652893,79.5459442L188.7652893,79.5459442z"/>
<path class="st10" d="M69.6562653,102.0655975c1.0375671,0,1.878685,0.84021,1.878685,1.8766479h0.0000076v8.2572021
	l-0.0000076,0.0000305c0,1.036438-0.8411179,1.8766479-1.8786926,1.8766174c0,0.0000305,0,0,0,0h0.0000076h-8.2662392v0.0000305
	c-1.0375748-0.0000305-1.8786926-0.84021-1.8786926-1.8766785h0.0000076v-8.2572021
	c0-1.036438,0.8411102-1.8766479,1.878685-1.8766479l0,0H69.6562653L69.6562653,102.0655975L69.6562653,102.0655975z"/>
<path class="st11" d="M69.6562653,102.0655975c1.0375671,0,1.878685,0.84021,1.878685,1.8766479h0.0000076v8.2572021
	l-0.0000076,0.0000305c0,1.036438-0.8411179,1.8766479-1.8786926,1.8766174c0,0.0000305,0,0,0,0h0.0000076h-8.2662392v0.0000305
	c-1.0375748-0.0000305-1.8786926-0.84021-1.8786926-1.8766785h0.0000076v-8.2572021
	c0-1.036438,0.8411102-1.8766479,1.878685-1.8766479l0,0H69.6562653L69.6562653,102.0655975L69.6562653,102.0655975z"/>
<text transform="matrix(0.85 0 0 1 76.0395508 112.574707)" class="st12 st3 st4">GMLに定義されたクラス</text>
<path class="st13" d="M69.6562653,116.3280792c1.0375671,0,1.878685,0.8401794,1.878685,1.8766479l0.0000076-0.0000305v8.2572327
	l-0.0000076,0.0000305c0,1.0364075-0.8411179,1.8766174-1.8786926,1.8766174l0,0h0.0000076h-8.2662392l0,0
	c-1.0375748,0-1.8786926-0.84021-1.8786926-1.8766479h0.0000076v-8.2572327c0-1.036438,0.8411102-1.8766174,1.878685-1.8766174l0,0
	H69.6562653L69.6562653,116.3280792L69.6562653,116.3280792z"/>
<path class="st11" d="M69.6562653,116.3280792c1.0375671,0,1.878685,0.8401794,1.878685,1.8766479l0.0000076-0.0000305v8.2572327
	l-0.0000076,0.0000305c0,1.0364075-0.8411179,1.8766174-1.8786926,1.8766174l0,0h0.0000076h-8.2662392l0,0
	c-1.0375748,0-1.8786926-0.84021-1.8786926-1.8766479h0.0000076v-8.2572327c0-1.036438,0.8411102-1.8766174,1.878685-1.8766174l0,0
	H69.6562653L69.6562653,116.3280792L69.6562653,116.3280792z"/>
<text transform="matrix(0.85 0 0 1 76.0395508 126.840332)" class="st12 st3 st4">CityGMLに定義されたクラス</text>
<path class="st1" d="M69.6562653,130.5905609c1.0375671,0,1.878685,0.8401794,1.878685,1.8766479l0.0000076-0.0000305v8.2572327
	h-0.0000076c0,1.036438-0.8411179,1.8766479-1.8786926,1.8766479l0,0h0.0000076h-8.2662392l0,0
	c-1.0375748,0-1.8786926-0.84021-1.8786926-1.8766479h0.0000076v-8.2572327c0-1.036438,0.8411102-1.8766479,1.878685-1.8766174
	v-0.0000305h8.2662392V130.5905609L69.6562653,130.5905609z"/>
<path class="st11" d="M69.6562653,130.5905609c1.0375671,0,1.878685,0.8401794,1.878685,1.8766479l0.0000076-0.0000305v8.2572327
	h-0.0000076c0,1.036438-0.8411179,1.8766479-1.8786926,1.8766479l0,0h0.0000076h-8.2662392l0,0
	c-1.0375748,0-1.8786926-0.84021-1.8786926-1.8766479h0.0000076v-8.2572327c0-1.036438,0.8411102-1.8766479,1.878685-1.8766174
	v-0.0000305h8.2662392V130.5905609L69.6562653,130.5905609z"/>
<text transform="matrix(0.85 0 0 1 76.0395508 141.105957)" class="st12 st3 st4">i-URに定義されたクラス</text>
<text transform="matrix(0.85 0 0 1 113.6176758 97.8032227)" class="st12 st14 st15 st16">凡例</text>
<line class="st17" x1="278.9424438" y1="153.8608856" x2="278.9424438" y2="126.837265"/>
<polyline class="st18" points="283.4512939,138.8477631 274.4335938,138.8477631 278.9424438,126.837265 283.4512939,138.8477631 
	"/>
<polygon class="st17" points="283.4512939,138.8477631 274.4335938,138.8477631 278.9424438,126.837265 "/>
<line class="st17" x1="176.7416687" y1="356.5380554" x2="176.7416687" y2="305.4934387"/>
<polyline class="st19" points="180.4990387,313 176.7416687,305.4934387 172.9842834,313 176.7416687,320.5065613 180.4990387,313 
	"/>
<polygon class="st17" points="180.4990387,313 176.7416687,305.4934387 172.9842834,313 176.7416687,320.5065613 "/>
<path class="st17" d="M176.7416687,356.5380554l4.5088501-11.2598267 M176.7416687,356.5380554l-4.5088654-11.2598267"/>
<line class="st17" x1="175.9901886" y1="266.4593201" x2="175.9901886" y2="245.4409332"/>
<line class="st17" x1="175.9901886" y1="245.4409332" x2="279.6939087" y2="245.4409332"/>
<line class="st17" x1="279.6939087" y1="245.4409332" x2="279.6939087" y2="208.6587982"/>
<polyline class="st18" points="284.2027893,220.6692963 275.1850586,220.6692963 279.6939087,208.6587982 284.2027893,220.6692963 
	"/>
<polygon class="st17" points="284.2027893,220.6692963 275.1850586,220.6692963 279.6939087,208.6587982 "/>
<line class="st17" x1="363.859314" y1="266.4593201" x2="363.859314" y2="245.4409332"/>
<line class="st17" x1="363.859314" y1="245.4409332" x2="279.6939087" y2="245.4409332"/>
<line class="st17" x1="344.3209229" y1="96.0603485" x2="442.0128784" y2="95.3096771"/>
<polyline class="st18" points="429.9892578,99.8136444 429.9892578,90.8057709 442.0128784,95.3096771 429.9892578,99.8136444 "/>
<polygon class="st17" points="442.0128784,95.3096771 429.9892578,90.8057709 429.9892578,99.8136444 "/>
<line class="st17" x1="368.3681641" y1="379.0577393" x2="368.3681641" y2="305.4934387"/>
<polyline class="st19" points="372.1255493,313 368.3681641,305.4934387 364.6108093,313 368.3681641,320.5065613 372.1255493,313 
	"/>
<polygon class="st17" points="372.1255493,313 368.3681641,305.4934387 364.6108093,313 368.3681641,320.5065613 "/>
<path class="st17" d="M368.3681641,379.0577393l4.5088806-11.2598267 M368.3681641,379.0577393l-4.5088501-11.2598267"/>
<text transform="matrix(0.85 0 0 1 270.671875 348.277832)" class="st20 st21">+waterWorksAttribute</text>
<text transform="matrix(0.85 0 0 1 388.65625 370.043457)" class="st20 st21">0..1</text>
<text transform="matrix(0.85 0 0 1 64.015625 346.027832)" class="st20 st21">+sewerSystemAttribute</text>
<text transform="matrix(0.85 0 0 1 202.2890625 349.7856445)" class="st20 st21">0..1</text>
</svg>
