<?xml version="1.0" encoding="utf-8"?>
<!-- Generator: Adobe Illustrator 27.5.0, SVG Export Plug-In . SVG Version: 6.00 Build 0)  -->
<svg version="1.1" id="レイヤー_1" xmlns="http://www.w3.org/2000/svg" xmlns:xlink="http://www.w3.org/1999/xlink" x="0px"
	 y="0px" viewBox="0 0 477.7872314 275.9148865" style="enable-background:new 0 0 477.7872314 275.9148865;" xml:space="preserve">
<style type="text/css">
	.st0{fill-rule:evenodd;clip-rule:evenodd;fill:#FFCCFF;}
	.st1{fill:none;stroke:#000000;stroke-width:1.0285715;stroke-linecap:round;stroke-linejoin:bevel;stroke-miterlimit:10;}
	.st2{font-family:'YuGothicUI-Regular';}
	.st3{font-size:6.6857147px;}
	.st4{font-family:'YuGothicUI-Bold';}
	.st5{font-size:7.0386257px;}
	.st6{stroke:#000000;stroke-width:0.1910204;stroke-miterlimit:10;}
	.st7{fill-rule:evenodd;clip-rule:evenodd;fill:#F0F0F0;}
	.st8{fill:none;stroke:#D7D7D7;stroke-width:0.5142857;stroke-linecap:square;stroke-miterlimit:10;}
	.st9{fill-rule:evenodd;clip-rule:evenodd;fill:#CCFFCC;}
	.st10{fill:none;stroke:#000000;stroke-width:0.5142857;stroke-linecap:square;stroke-miterlimit:10;}
	.st11{fill:#003060;}
	.st12{fill-rule:evenodd;clip-rule:evenodd;fill:#FFFFCC;}
	.st13{font-size:8.2285719px;}
	.st14{fill-rule:evenodd;clip-rule:evenodd;fill:#FFFFFF;}
</style>
<polygon class="st0" points="155.4696808,156.3003082 240.2846527,156.3003082 240.2846527,119.7860336 155.4696808,119.7860336 
	155.4696808,156.3003082 "/>
<polygon class="st1" points="155.4696808,156.3003082 240.2846527,156.3003082 240.2846527,119.7860336 155.4696808,119.7860336 
	155.4696808,156.3003082 "/>
<text transform="matrix(0.85 0 0 1 176.2906342 130.0726776)"><tspan x="0" y="0" class="st2 st3">«</tspan><tspan x="3.5960476" y="0" class="st2 st3">F</tspan><tspan x="6.6865807" y="0" class="st2 st3">e</tspan><tspan x="10.2832031" y="0" class="st2 st3">a</tspan><tspan x="13.8786764" y="0" class="st2 st3">t</tspan><tspan x="15.9369249" y="0" class="st2 st3">u</tspan><tspan x="19.5398655" y="0" class="st2 st3">r</tspan><tspan x="22.1053524" y="0" class="st2 st3">e</tspan><tspan x="25.7014008" y="0" class="st2 st3">T</tspan><tspan x="29.2980232" y="0" class="st2 st3">y</tspan><tspan x="32.3862572" y="0" class="st2 st3">p</tspan><tspan x="36.4970131" y="0" class="st2 st3">e</tspan><tspan x="40.0936356" y="0" class="st2 st3">»</tspan></text>
<text transform="matrix(0.85 0 0 1 177.8140717 138.8148651)"><tspan x="0" y="0" class="st4 st3">U</tspan><tspan x="4.6340761" y="0" class="st4 st3">r</tspan><tspan x="7.2018609" y="0" class="st4 st3">b</tspan><tspan x="11.3108912" y="0" class="st4 st3">a</tspan><tspan x="14.9075136" y="0" class="st4 st3">n</tspan><tspan x="19.0159683" y="0" class="st4 st3">F</tspan><tspan x="22.6154633" y="0" class="st4 st3">a</tspan><tspan x="26.2126598" y="0" class="st4 st3">c</tspan><tspan x="29.302618" y="0" class="st4 st3">ili</tspan><tspan x="33.9407158" y="0" class="st4 st3">t</tspan><tspan x="36.5102234" y="0" class="st4 st3">y</tspan></text>
<line class="st1" x1="155.4696808" y1="142.9288788" x2="239.7767792" y2="142.9288788"/>
<text transform="matrix(0.85 0 0 1 158.0093842 152.1898651)" class="st2 st3">+ number: xs::string [0..1]</text>
<polygon class="st0" points="154.9618073,79.6717453 240.2846527,79.6717453 240.2846527,42.6431808 154.9618073,42.6431808 
	154.9618073,79.6717453 "/>
<polygon class="st1" points="154.9618073,79.6717453 240.2846527,79.6717453 240.2846527,42.6431808 154.9618073,42.6431808 
	154.9618073,79.6717453 "/>
<text transform="matrix(0.85 0 0 1 175.7828217 52.9398727)"><tspan x="0" y="0" class="st2 st3">«</tspan><tspan x="3.5960476" y="0" class="st2 st3">F</tspan><tspan x="6.6865807" y="0" class="st2 st3">e</tspan><tspan x="10.2832031" y="0" class="st2 st3">a</tspan><tspan x="13.8786764" y="0" class="st2 st3">t</tspan><tspan x="15.9369249" y="0" class="st2 st3">u</tspan><tspan x="19.5398655" y="0" class="st2 st3">r</tspan><tspan x="22.1053524" y="0" class="st2 st3">e</tspan><tspan x="25.7014008" y="0" class="st2 st3">T</tspan><tspan x="29.2980232" y="0" class="st2 st3">y</tspan><tspan x="32.3862572" y="0" class="st2 st3">p</tspan><tspan x="36.4970131" y="0" class="st2 st3">e</tspan><tspan x="40.0936356" y="0" class="st2 st3">»</tspan></text>
<text transform="matrix(0.85 0 0 1 189.5015717 61.6742477)"><tspan x="0" y="0" class="st4 st3">Z</tspan><tspan x="4.1113281" y="0" class="st4 st3">o</tspan><tspan x="8.2238045" y="0" class="st4 st3">n</tspan><tspan x="12.3322611" y="0" class="st4 st3">e</tspan></text>
<line class="st1" x1="154.9618073" y1="65.7860336" x2="239.7767792" y2="65.7860336"/>
<text transform="matrix(0.85 0 0 1 157.5015717 75.0492477)" class="st2 st3">+ location: xs::string [0..1]</text>
<polygon class="st0" points="265.1704712,257.614624 439.3712769,257.614624 439.3712769,18.4717331 265.1704712,18.4717331 
	265.1704712,257.614624 "/>
<polygon class="st1" points="265.1704712,257.614624 439.3712769,257.614624 439.3712769,18.4717331 265.1704712,18.4717331 
	265.1704712,257.614624 "/>
<text transform="matrix(0.85 0 -0.3126727 0.9498609 405.3498535 27.2203732)"><tspan x="0" y="0" class="st2 st5">_</tspan><tspan x="2.710248" y="0" class="st2 st5">C</tspan><tspan x="7.0473342" y="0" class="st2 st5">i</tspan><tspan x="8.6741724" y="0" class="st2 st5">t</tspan><tspan x="10.840992" y="0" class="st2 st5">y</tspan><tspan x="14.092371" y="0" class="st2 st5">O</tspan><tspan x="19.5036755" y="0" class="st2 st5">b</tspan><tspan x="23.8327198" y="0" class="st2 st5">j</tspan><tspan x="25.4595585" y="0" class="st2 st5">e</tspan><tspan x="29.2463226" y="0" class="st2 st5">ct</tspan></text>
<text transform="matrix(0.85 0 0 1 330.6890564 39.0492477)"><tspan x="0" y="0" class="st2 st3">«</tspan><tspan x="3.5960476" y="0" class="st2 st3">F</tspan><tspan x="6.6865807" y="0" class="st2 st3">e</tspan><tspan x="10.2837772" y="0" class="st2 st3">a</tspan><tspan x="13.8786764" y="0" class="st2 st3">t</tspan><tspan x="15.9375" y="0" class="st2 st3">u</tspan><tspan x="19.5404415" y="0" class="st2 st3">r</tspan><tspan x="22.1047783" y="0" class="st2 st3">e</tspan><tspan x="25.7019749" y="0" class="st2 st3">T</tspan><tspan x="29.2980232" y="0" class="st2 st3">y</tspan><tspan x="32.3862572" y="0" class="st2 st3">p</tspan><tspan x="36.4970131" y="0" class="st2 st3">e</tspan><tspan x="40.0942078" y="0" class="st2 st3">»</tspan></text>
<text transform="matrix(0.85 0 -0.3126727 0.9498609 328.1488647 47.7907982)"><tspan x="0" y="0" class="st6 st2 st5">_</tspan><tspan x="2.710248" y="0" class="st6 st2 st5">U</tspan><tspan x="7.5804224" y="0" class="st6 st2 st5">r</tspan><tspan x="10.2814798" y="0" class="st6 st2 st5">b</tspan><tspan x="14.609375" y="0" class="st6 st2 st5">a</tspan><tspan x="18.3949909" y="0" class="st6 st2 st5">n</tspan><tspan x="22.7228851" y="0" class="st6 st2 st5">F</tspan><tspan x="26.5119476" y="0" class="st6 st2 st5">un</tspan><tspan x="35.1677399" y="0" class="st6 st2 st5">c</tspan><tspan x="38.419117" y="0" class="st6 st2 st5">t</tspan><tspan x="41.1213226" y="0" class="st6 st2 st5">i</tspan><tspan x="42.7481613" y="0" class="st6 st2 st5">o</tspan><tspan x="47.0760574" y="0" class="st6 st2 st5">n</tspan></text>
<line class="st1" x1="265.1704712" y1="51.900322" x2="438.8634033" y2="51.900322"/>
<text transform="matrix(0.85 0 0 1 267.7124939 61.1586227)" class="st2 st3">+ class: gml::CodeType [0..1]</text>
<text transform="matrix(0.85 0 0 1 267.7124939 69.9008102)" class="st2 st3">+ function: gml::CodeType [0..*]</text>
<text transform="matrix(0.85 0 0 1 267.7124939 78.6508102)" class="st2 st3">+ usage: gml::CodeType [0..*]</text>
<text transform="matrix(0.85 0 0 1 267.7124939 87.3929977)" class="st2 st3">+ validFrom: xs::date [0..1]</text>
<text transform="matrix(0.85 0 0 1 267.7124939 96.1273727)" class="st2 st3">+ validFromType: gml::CodeType [0..1]</text>
<text transform="matrix(0.85 0 0 1 267.7124939 104.8695602)" class="st2 st3">+ enactmentFiscalYear: xs::gYear [0..1]</text>
<text transform="matrix(0.85 0 0 1 267.7124939 113.6195602)" class="st2 st3">+ validTo: xs::date [0..1]</text>
<text transform="matrix(0.85 0 0 1 267.7124939 122.3617477)" class="st2 st3">+ validToType: gml::CodeType [0..1]</text>
<text transform="matrix(0.85 0 0 1 267.7124939 131.0961151)" class="st2 st3">+ expirationFiscalYear: xs::gYear [0..1]</text>
<text transform="matrix(0.85 0 0 1 267.7124939 139.8461151)" class="st2 st3">+ legalGrounds: xs::string [0..1]</text>
<text transform="matrix(0.85 0 0 1 267.7124939 148.5883026)" class="st2 st3">+ custodian: xs::string [0..1]</text>
<text transform="matrix(0.85 0 0 1 267.7124939 157.3304901)" class="st2 st3">+ notificationNumber: xs::string [0..1]</text>
<text transform="matrix(0.85 0 0 1 267.7124939 166.0726776)" class="st2 st3">+ finalNotificationNumber: xs::string [0..1]</text>
<text transform="matrix(0.85 0 0 1 267.7124939 174.8148651)" class="st2 st3">+ finalNotificationDate: xs::date [0..1]</text>
<text transform="matrix(0.85 0 0 1 267.7124939 183.5648651)" class="st2 st3">+ urbanPlanType: gml::CodeType [0..1]</text>
<text transform="matrix(0.85 0 0 1 267.7124939 192.2992401)" class="st2 st3">+ areaClassificationType: gml::CodeType [0..1]</text>
<text transform="matrix(0.85 0 0 1 267.7124939 201.0414276)" class="st2 st3">+ nominalArea: gml::MeasureType [0..1]</text>
<text transform="matrix(0.85 0 0 1 267.7124939 209.7914276)" class="st2 st3">+ prefecture: gml::CodeType [0..1]</text>
<text transform="matrix(0.85 0 0 1 267.7124939 218.5336151)" class="st2 st3">+ city: gml::CodeType [0..1]</text>
<text transform="matrix(0.85 0 0 1 267.7124939 227.2679901)" class="st2 st3">+ reference: xs::anyURI [0..1]</text>
<text transform="matrix(0.85 0 0 1 267.7124939 236.0179901)"><tspan x="0" y="0" class="st2 st3">+</tspan><tspan x="4.6266084" y="0" class="st2 st3"> </tspan></text>
<text transform="matrix(0.85 0 0 1 273.9694824 236.0179901)" class="st2 st3">reason: gml:StringOrRefType [0..1]</text>
<text transform="matrix(0.85 0 0 1 267.7124939 244.7601776)" class="st2 st3">+ note: gml:StringOrRefType [0..1]</text>
<text transform="matrix(0.85 0 0 1 267.7124939 253.5023651)" class="st2 st3">+ surveyYear: xs::gYear [0..1]</text>
<polygon class="st0" points="144.8043213,247.8431854 250.9499969,247.8431854 250.9499969,176.3574677 144.8043213,176.3574677 
	144.8043213,247.8431854 "/>
<polygon class="st1" points="144.8043213,247.8431854 250.9499969,247.8431854 250.9499969,176.3574677 144.8043213,176.3574677 
	144.8043213,247.8431854 "/>
<text transform="matrix(0.85 0 0 1 176.2906342 186.6429901)"><tspan x="0" y="0" class="st2 st3">«</tspan><tspan x="3.5960476" y="0" class="st2 st3">F</tspan><tspan x="6.6865807" y="0" class="st2 st3">e</tspan><tspan x="10.2832031" y="0" class="st2 st3">a</tspan><tspan x="13.8786764" y="0" class="st2 st3">t</tspan><tspan x="15.9369249" y="0" class="st2 st3">u</tspan><tspan x="19.5398655" y="0" class="st2 st3">r</tspan><tspan x="22.1053524" y="0" class="st2 st3">e</tspan><tspan x="25.7014008" y="0" class="st2 st3">T</tspan><tspan x="29.2980232" y="0" class="st2 st3">y</tspan><tspan x="32.3862572" y="0" class="st2 st3">p</tspan><tspan x="36.4970131" y="0" class="st2 st3">e</tspan><tspan x="40.0936356" y="0" class="st2 st3">»</tspan></text>
<text transform="matrix(0.85 0 0 1 182.3843842 195.3851776)"><tspan x="0" y="0" class="st4 st3">W</tspan><tspan x="6.6842828" y="0" class="st4 st3">a</tspan><tspan x="10.2814798" y="0" class="st4 st3">t</tspan><tspan x="12.8509874" y="0" class="st4 st3">e</tspan><tspan x="16.4493332" y="0" class="st4 st3">r</tspan><tspan x="19.0176926" y="0" class="st4 st3">w</tspan><tspan x="24.1544113" y="0" class="st4 st3">a</tspan><tspan x="27.7510338" y="0" class="st4 st3">y</tspan></text>
<line class="st1" x1="144.8043213" y1="199.5003204" x2="250.4421234" y2="199.5003204"/>
<text transform="matrix(0.85 0 0 1 147.3453217 208.7523651)" class="st2 st3">+ startLocation: xs::string [0..1]</text>
<text transform="matrix(0.85 0 0 1 147.3453217 217.5023651)" class="st2 st3">+ endLocation: xs::string [0..1]</text>
<text transform="matrix(0.85 0 0 1 147.3453217 226.2445526)" class="st2 st3">+ structure: gml::CodeType [0..1]</text>
<text transform="matrix(0.85 0 0 1 147.3453217 234.9867401)" class="st2 st3">+ length: gml::LengthType [0..1]</text>
<text transform="matrix(0.85 0 0 1 147.3453217 243.7367401)"><tspan x="0" y="0" class="st2 st3">+</tspan><tspan x="4.627183" y="0" class="st2 st3"> </tspan></text>
<text transform="matrix(0.85 0 0 1 158.5171967 243.7367401)"><tspan x="0" y="0" class="st2 st3">w</tspan><tspan x="4.6306295" y="0" class="st2 st3">i</tspan><tspan x="6.1764703" y="0" class="st2 st3">d</tspan><tspan x="10.2872238" y="0" class="st2 st3">t</tspan><tspan x="12.3454733" y="0" class="st2 st3">h</tspan><tspan x="15.9484138" y="0" class="st2 st3">:</tspan><tspan x="17.4850636" y="0" class="st2 st3"> </tspan><tspan x="19.536993" y="0" class="st2 st3">g</tspan><tspan x="23.647747" y="0" class="st2 st3">m</tspan><tspan x="29.3060646" y="0" class="st2 st3">l</tspan><tspan x="30.8519058" y="0" class="st2 st3">::</tspan><tspan x="33.924633" y="0" class="st2 st3">L</tspan><tspan x="37.0111427" y="0" class="st2 st3">e</tspan><tspan x="40.6077652" y="0" class="st2 st3">n</tspan><tspan x="44.2107048" y="0" class="st2 st3">g</tspan><tspan x="48.3220329" y="0" class="st2 st3">t</tspan><tspan x="50.3802834" y="0" class="st2 st3">h</tspan><tspan x="53.983223" y="0" class="st2 st3">T</tspan><tspan x="57.5792732" y="0" class="st2 st3">y</tspan><tspan x="60.6675072" y="0" class="st2 st3">p</tspan><tspan x="64.7782593" y="0" class="st2 st3">e</tspan><tspan x="68.3748856" y="0" class="st2 st3"> </tspan><tspan x="70.4268112" y="0" class="st2 st3">[</tspan><tspan x="72.4781723" y="0" class="st2 st3">0</tspan><tspan x="76.0822601" y="0" class="st2 st3">..</tspan><tspan x="79.1549835" y="0" class="st2 st3">1]</tspan></text>
<path class="st7" d="M130.583847,42.6431808c0.8414612,0,1.5236206,0.6907654,1.5236206,1.5428467l0,0v58.1142883v0.0000305
	c0,0.8520508-0.6821594,1.5428467-1.5236359,1.5428467l0,0h0.0000153h-90.909462h-0.0000038
	c-0.8414726,0-1.5236206-0.6907959-1.5236206-1.5428772l0,0V44.1860275c0-0.8520813,0.6821518-1.5428467,1.5236244-1.5428467l0,0
	H130.583847L130.583847,42.6431808L130.583847,42.6431808z"/>
<path class="st8" d="M130.583847,42.6431808c0.8414612,0,1.5236206,0.6907654,1.5236206,1.5428467l0,0v58.1142883v0.0000305
	c0,0.8520508-0.6821594,1.5428467-1.5236359,1.5428467l0,0h0.0000153h-90.909462h-0.0000038
	c-0.8414726,0-1.5236206-0.6907959-1.5236206-1.5428772l0,0V44.1860275c0-0.8520813,0.6821518-1.5428467,1.5236244-1.5428467l0,0
	H130.583847L130.583847,42.6431808L130.583847,42.6431808z"/>
<polygon class="st9" points="43.2295036,66.8145981 51.8633614,66.8145981 51.8633614,58.0717392 43.2295036,58.0717392 
	43.2295036,66.8145981 "/>
<polygon class="st10" points="43.2295036,66.8145981 51.8633614,66.8145981 51.8633614,58.0717392 43.2295036,58.0717392 
	43.2295036,66.8145981 "/>
<text transform="matrix(0.85 0 0 1 54.4078178 65.2836227)" class="st11 st2 st3">GMLに定義されたクラス</text>
<polygon class="st12" points="43.2295036,76.5860519 51.8633614,76.5860519 51.8633614,67.8431931 43.2295036,67.8431931 
	43.2295036,76.5860519 "/>
<polygon class="st10" points="43.2295036,76.5860519 51.8633614,76.5860519 51.8633614,67.8431931 43.2295036,67.8431931 
	43.2295036,76.5860519 "/>
<text transform="matrix(0.85 0 0 1 54.4078178 75.0492477)" class="st11 st2 st3">CityGMLに定義されたクラス</text>
<polygon class="st0" points="43.2295036,86.3574753 51.8633614,86.3574753 51.8633614,77.6146164 43.2295036,77.6146164 
	43.2295036,86.3574753 "/>
<polygon class="st10" points="43.2295036,86.3574753 51.8633614,86.3574753 51.8633614,77.6146164 43.2295036,77.6146164 
	43.2295036,86.3574753 "/>
<text transform="matrix(0.85 0 0 1 54.4078178 84.8148727)" class="st11 st2 st3">i-URに定義されたクラス</text>
<text transform="matrix(0.85 0 0 1 79.2906342 54.9867477)" class="st11 st4 st13">凡例</text>
<line class="st1" x1="199.1468506" y1="119.2717514" x2="199.1468506" y2="80.1860275"/>
<polyline class="st14" points="202.1940918,88.4146042 196.0996094,88.4146042 199.1468506,80.1860275 202.1940918,88.4146042 "/>
<polygon class="st1" points="199.1468506,80.1860275 196.0996094,88.4146042 202.1940918,88.4146042 "/>
<line class="st1" x1="240.7925262" y1="59.6146164" x2="264.6625977" y2="59.6146164"/>
<polyline class="st14" points="256.5366211,62.7003098 256.5366211,56.5288925 264.6625977,59.6146164 256.5366211,62.7003098 "/>
<polygon class="st1" points="264.6625977,59.6146164 256.5366211,56.5288925 256.5366211,62.7003098 "/>
<line class="st1" x1="198.6389771" y1="175.8431854" x2="198.6389771" y2="156.8145905"/>
<polyline class="st14" points="201.6862183,165.0431671 195.5917358,165.0431671 198.6389771,156.8145905 201.6862183,165.0431671 
	"/>
<polygon class="st1" points="201.6862183,165.0431976 195.5917358,165.0431976 198.6389771,156.814621 "/>
</svg>
