<?xml version="1.0" encoding="utf-8"?>
<!-- Generator: Adobe Illustrator 27.5.0, SVG Export Plug-In . SVG Version: 6.00 Build 0)  -->
<svg version="1.1" id="レイヤー_1" xmlns="http://www.w3.org/2000/svg" xmlns:xlink="http://www.w3.org/1999/xlink" x="0px"
	 y="0px" viewBox="0 0 723.2755737 391.8898315" style="enable-background:new 0 0 723.2755737 391.8898315;" xml:space="preserve">
<style type="text/css">
	.st0{opacity:0.5019608;fill-rule:evenodd;clip-rule:evenodd;fill:#969696;enable-background:new    ;}
	.st1{fill-rule:evenodd;clip-rule:evenodd;fill:#FFCCFF;}
	.st2{fill:none;stroke:#000000;stroke-width:1.5013124;stroke-linecap:round;stroke-linejoin:round;stroke-miterlimit:10;}
	.st3{font-family:'YuGothicUI-Regular';}
	.st4{font-size:9.7585306px;}
	.st5{font-family:'YuGothicUI-Bold';}
	.st6{font-size:10.2875204px;}
	.st7{fill:none;stroke:#000000;stroke-width:0.2788152;stroke-miterlimit:10;}
	.st8{fill-rule:evenodd;clip-rule:evenodd;fill:#F0F0F0;}
	.st9{fill:none;stroke:#D7D7D7;stroke-width:0.7506562;stroke-linecap:square;stroke-miterlimit:10;}
	.st10{fill-rule:evenodd;clip-rule:evenodd;fill:#CCFFCC;}
	.st11{fill:none;stroke:#000000;stroke-width:0.7506562;stroke-linecap:square;stroke-miterlimit:10;}
	.st12{fill:#003060;}
	.st13{font-family:'Meiryo';}
	.st14{font-size:7.5065618px;}
	.st15{fill-rule:evenodd;clip-rule:evenodd;fill:#FFFFCC;}
	.st16{font-family:'Meiryo-Bold';}
	.st17{font-size:12.010499px;}
	.st18{letter-spacing:-2.352941;}
	.st19{fill:none;stroke:#000000;stroke-width:1.5013124;stroke-linecap:round;stroke-linejoin:bevel;stroke-miterlimit:10;}
	.st20{fill-rule:evenodd;clip-rule:evenodd;fill:#FFFFFF;}
</style>
<path class="st0" d="M352.6315308,166.5171356c1.0375671,0,1.8786621,0.84021,1.8786621,1.8766479h0.0000305v48.7926636h-0.0000305
	c0,1.036438-0.841095,1.8766479-1.8786926,1.8766174c0,0.0000305,0,0,0,0h0.0000305H231.6438141l-0.0000305,0.0000305
	c-1.0375671-0.0000305-1.8786926-0.84021-1.8786926-1.8766479h0.0000305v-48.7926636
	c0-1.036438,0.841095-1.8766479,1.8786926-1.8766479l0,0H352.6315308L352.6315308,166.5171356L352.6315308,166.5171356z"/>
<path class="st1" d="M350.3771057,164.2651825c1.0375671,0,1.8786621,0.8401794,1.8786621,1.8766479v-0.0000305v48.7926636
	v0.0000305c0,1.036438-0.841095,1.8766479-1.8786926,1.8765869c0,0.000061,0,0,0,0h0.0000305H229.3893738l-0.0000153,0.000061
	c-1.0375671-0.000061-1.8786926-0.84021-1.8786926-1.8766785h0.0000305v-48.7926636
	c0-1.036438,0.841095-1.8766174,1.8786774-1.8766174l0,0H350.3771057L350.3771057,164.2651825L350.3771057,164.2651825z"/>
<path class="st2" d="M350.3771057,164.2651825c1.0375671,0,1.8786621,0.8401794,1.8786621,1.8766479v-0.0000305v48.7926636
	v0.0000305c0,1.036438-0.841095,1.8766479-1.8786926,1.8765869c0,0.000061,0,0,0,0h0.0000305H229.3893738l-0.0000153,0.000061
	c-1.0375671-0.000061-1.8786926-0.84021-1.8786926-1.8766785h0.0000305v-48.7926636
	c0-1.036438,0.841095-1.8766174,1.8786774-1.8766174l0,0H350.3771057L350.3771057,164.2651825L350.3771057,164.2651825z"/>
<text transform="matrix(0.85 0 0 1 258.3144531 179.2880859)" class="st3 st4">«FeatureType»</text>
<text transform="matrix(0.85 0 0 1 260.5722656 192.0380859)" class="st5 st4">UrbanFacility</text>
<line class="st2" x1="227.5106964" y1="198.044693" x2="352.2557678" y2="198.044693"/>
<text transform="matrix(0.85 0 0 1 231.2675781 211.5615234)" class="st3 st4">+ </text>
<text transform="matrix(0.85 0 0 1 247.7988281 211.5615234)" class="st3 st4">number: xs::string [0..1]</text>
<path class="st0" d="M391.7082825,286.6221619c1.0375671,0,1.8786621,0.8401794,1.8786621,1.8766479l0.0000305-0.0000305v53.2966003
	h-0.0000305c0,1.036438-0.841095,1.8766479-1.8786926,1.8766174c0,0.0000305,0,0,0,0h0.0000305h-92.4315796l-0.0000305,0.0000305
	c-1.0375671-0.0000305-1.8786926-0.84021-1.8786926-1.8766479h0.0000305v-53.2966003
	c0-1.036438,0.841095-1.8766479,1.8786926-1.8766174v-0.0000305h92.4315796V286.6221619L391.7082825,286.6221619z"/>
<path class="st1" d="M389.4538574,284.3701782c1.0375671,0,1.8786621,0.84021,1.8786621,1.8766479l0.0000305-0.0000305v53.2966003
	l-0.0000305,0.0000305c0,1.036438-0.841095,1.8766479-1.8786926,1.8766174c0,0.0000305,0,0,0,0h0.0000305h-92.4316101v0.0000305
	c-1.0375671-0.0000305-1.8786926-0.84021-1.8786926-1.8766785h0.0000305v-53.2966003
	c0-1.0364075,0.841095-1.8766174,1.8786621-1.8766174l0,0H389.4538574L389.4538574,284.3701782L389.4538574,284.3701782z"/>
<path class="st2" d="M389.4538574,284.3701782c1.0375671,0,1.8786621,0.84021,1.8786621,1.8766479l0.0000305-0.0000305v53.2966003
	l-0.0000305,0.0000305c0,1.036438-0.841095,1.8766479-1.8786926,1.8766174c0,0.0000305,0,0,0,0h0.0000305h-92.4316101v0.0000305
	c-1.0375671-0.0000305-1.8786926-0.84021-1.8786926-1.8766785h0.0000305v-53.2966003
	c0-1.0364075,0.841095-1.8766174,1.8786621-1.8766174l0,0H389.4538574L389.4538574,284.3701782L389.4538574,284.3701782z"/>
<text transform="matrix(0.85 0 0 1 311.6738281 299.3818359)" class="st3 st4">«FeatureType»</text>
<text transform="matrix(0.85 0 0 1 298.1503906 312.1474609)" class="st5 st4">SocialWelfareFacility</text>
<path class="st0" d="M264.7087708,286.6221619c1.0375671,0,1.8786621,0.8401794,1.8786621,1.8766479l0.0000305-0.0000305v53.2966003
	h-0.0000305c0,1.036438-0.841095,1.8766479-1.8786926,1.8766174c0,0.0000305,0,0,0,0h0.0000305H179.040451v0.0000305
	c-1.0375671-0.0000305-1.8786926-0.84021-1.8786926-1.8766479l0,0v-53.2966003c0-1.036438,0.8411255-1.8766479,1.8786926-1.8766174
	v-0.0000305h85.6683197V286.6221619L264.7087708,286.6221619z"/>
<path class="st1" d="M262.4543457,284.3701782c1.0375671,0,1.8786621,0.84021,1.8786621,1.8766479l0.0000305-0.0000305v53.2966003
	l-0.0000305,0.0000305c0,1.036438-0.841095,1.8766479-1.8786926,1.8766174c0,0.0000305,0,0,0,0h0.0000305H176.786026
	l-0.0000153,0.0000305c-1.0375671-0.0000305-1.8786926-0.84021-1.8786926-1.8766785h0.0000153v-53.2966003
	c0-1.0364075,0.8411102-1.8766174,1.8786926-1.8766174l0,0H262.4543457L262.4543457,284.3701782L262.4543457,284.3701782z"/>
<path class="st2" d="M262.4543457,284.3701782c1.0375671,0,1.8786621,0.84021,1.8786621,1.8766479l0.0000305-0.0000305v53.2966003
	l-0.0000305,0.0000305c0,1.036438-0.841095,1.8766479-1.8786926,1.8766174c0,0.0000305,0,0,0,0h0.0000305H176.786026
	l-0.0000153,0.0000305c-1.0375671-0.0000305-1.8786926-0.84021-1.8786926-1.8766785h0.0000153v-53.2966003
	c0-1.0364075,0.8411102-1.8766174,1.8786926-1.8766174l0,0H262.4543457L262.4543457,284.3701782L262.4543457,284.3701782z"/>
<text transform="matrix(0.85 0 0 1 187.6816406 299.3818359)" class="st3 st4">«FeatureType»</text>
<text transform="matrix(0.85 0 0 1 186.9238281 312.1474609)" class="st5 st4">MedicalFacility</text>
<path class="st0" d="M353.3829956,61.4252777c1.0375671,0,1.8786621,0.84021,1.8786621,1.8766479l0.0000305-0.0000305v55.5485535
	l-0.0000305,0.0000305c0,1.036438-0.841095,1.8766479-1.8786926,1.8766174c0,0.0000305,0,0,0,0h0.0000305H231.6438141
	l-0.0000305,0.0000305c-1.0375671-0.0000305-1.8786926-0.84021-1.8786926-1.8766785h0.0000305V63.3018951
	c0-1.0364075,0.841095-1.8766174,1.8786926-1.8766174l0,0H353.3829956L353.3829956,61.4252777L353.3829956,61.4252777z"/>
<path class="st1" d="M351.1285706,59.1732941c1.0375671,0,1.8786621,0.84021,1.8786621,1.8766479h0.0000305v55.5485535h-0.0000305
	c0,1.036438-0.841095,1.8766479-1.8786926,1.8766479l0,0h0.0000305H229.3893738h-0.0000153
	c-1.0375671,0-1.8786926-0.84021-1.8786926-1.8766479h0.0000305V61.049942c0-1.036438,0.841095-1.8766479,1.8786774-1.8766479l0,0
	H351.1285706L351.1285706,59.1732941L351.1285706,59.1732941z"/>
<path class="st2" d="M351.1285706,59.1732941c1.0375671,0,1.8786621,0.84021,1.8786621,1.8766479h0.0000305v55.5485535h-0.0000305
	c0,1.036438-0.841095,1.8766479-1.8786926,1.8766479l0,0h0.0000305H229.3893738h-0.0000153
	c-1.0375671,0-1.8786926-0.84021-1.8786926-1.8766479h0.0000305V61.049942c0-1.036438,0.841095-1.8766479,1.8786774-1.8766479l0,0
	H351.1285706L351.1285706,59.1732941L351.1285706,59.1732941z"/>
<text transform="matrix(0.85 0 0 1 258.3144531 74.1865234)" class="st3 st4">«FeatureType»</text>
<text transform="matrix(0.85 0 0 1 278.6113281 86.9521484)" class="st5 st4">Zone</text>
<line class="st2" x1="227.5106964" y1="92.9528351" x2="353.0072632" y2="92.9528351"/>
<text transform="matrix(0.85 0 0 1 231.2675781 106.4677734)" class="st3 st4">+ </text>
<text transform="matrix(0.85 0 0 1 247.7988281 106.4677734)" class="st3 st4">location: xs::string [0..1]</text>
<path class="st0" d="M687.7900391,23.8924713c1.0375366,0,1.8786011,0.8401794,1.8786011,1.8766174h0.000061v344.5512085h-0.000061
	c0,1.036438-0.8410645,1.8766479-1.8786621,1.8766174c0,0.0000305,0,0,0,0h0.000061H434.54245l-0.0000305,0.0000305
	c-1.0375671-0.0000305-1.8786926-0.84021-1.8786926-1.8766479h0.0000305V25.7690887
	c0-1.036438,0.841095-1.8766174,1.8786926-1.8766174l0,0H687.7900391L687.7900391,23.8924713L687.7900391,23.8924713z"/>
<path class="st1" d="M685.5355835,21.6404877c1.0375366,0,1.8786621,0.84021,1.8786621,1.8766479h0.000061v344.5512085
	l-0.000061,0.0000305c0,1.036438-0.8411255,1.8766479-1.8787231,1.8766174c0,0.0000305,0,0,0,0h0.000061H432.2880249
	l-0.0000305,0.0000305c-1.0375671-0.0000305-1.8786926-0.84021-1.8786926-1.8766785h0.0000305V23.5171356
	c0-1.036438,0.841095-1.8766479,1.8786926-1.8766479l0,0H685.5355835L685.5355835,21.6404877L685.5355835,21.6404877z"/>
<path class="st2" d="M685.5355835,21.6404877c1.0375366,0,1.8786621,0.84021,1.8786621,1.8766479h0.000061v344.5512085
	l-0.000061,0.0000305c0,1.036438-0.8411255,1.8766479-1.8787231,1.8766174c0,0.0000305,0,0,0,0h0.000061H432.2880249
	l-0.0000305,0.0000305c-1.0375671-0.0000305-1.8786926-0.84021-1.8786926-1.8766785h0.0000305V23.5171356
	c0-1.036438,0.841095-1.8766479,1.8786926-1.8766479l0,0H685.5355835L685.5355835,21.6404877L685.5355835,21.6404877z"/>
<text transform="matrix(0.85 0 -0.3165385 0.9485797 629.3013306 34.4202805)" class="st3 st6">_CityObject</text>
<text transform="matrix(0.85 0 0 1 527.3457031 51.6708984)" class="st3 st4">«FeatureType»</text>
<text transform="matrix(0.85 0 -0.3165385 0.9485797 523.592041 64.4413452)" class="st3 st6">_</text>
<text transform="matrix(0.85 0 -0.3165385 0.9485797 523.592041 64.4413452)" class="st7 st3 st6">_</text>
<text transform="matrix(0.85 0 -0.3165385 0.9485797 527.3537598 64.4413452)" class="st3 st6">U</text>
<text transform="matrix(0.85 0 -0.3165385 0.9485797 527.3537598 64.4413452)" class="st7 st3 st6">U</text>
<text transform="matrix(0.85 0 -0.3165385 0.9485797 534.1135254 64.4413452)" class="st3 st6">r</text>
<text transform="matrix(0.85 0 -0.3165385 0.9485797 534.1135254 64.4413452)" class="st7 st3 st6">r</text>
<text transform="matrix(0.85 0 -0.3165385 0.9485797 537.8615723 64.4413452)" class="st3 st6">b</text>
<text transform="matrix(0.85 0 -0.3165385 0.9485797 537.8615723 64.4413452)" class="st7 st3 st6">b</text>
<text transform="matrix(0.85 0 -0.3165385 0.9485797 543.8693848 64.4413452)" class="st3 st6">a</text>
<text transform="matrix(0.85 0 -0.3165385 0.9485797 543.8693848 64.4413452)" class="st7 st3 st6">a</text>
<text transform="matrix(0.85 0 -0.3165385 0.9485797 549.1223145 64.4413452)" class="st3 st6">n</text>
<text transform="matrix(0.85 0 -0.3165385 0.9485797 549.1223145 64.4413452)" class="st7 st3 st6">n</text>
<text transform="matrix(0.85 0 -0.3165385 0.9485797 555.130127 64.4413452)" class="st3 st6">F</text>
<text transform="matrix(0.85 0 -0.3165385 0.9485797 555.130127 64.4413452)" class="st7 st3 st6">F</text>
<text transform="matrix(0.85 0 -0.3165385 0.9485797 560.388916 64.4413452)" class="st3 st6">un</text>
<text transform="matrix(0.85 0 -0.3165385 0.9485797 560.388916 64.4413452)" class="st7 st3 st6">un</text>
<text transform="matrix(0.85 0 -0.3165385 0.9485797 572.4025879 64.4413452)" class="st3 st6">c</text>
<text transform="matrix(0.85 0 -0.3165385 0.9485797 572.4025879 64.4413452)" class="st7 st3 st6">c</text>
<text transform="matrix(0.85 0 -0.3165385 0.9485797 576.9152832 64.4413452)" class="st3 st6">t</text>
<text transform="matrix(0.85 0 -0.3165385 0.9485797 576.9152832 64.4413452)" class="st7 st3 st6">t</text>
<text transform="matrix(0.85 0 -0.3165385 0.9485797 580.6652832 64.4413452)" class="st3 st6">i</text>
<text transform="matrix(0.85 0 -0.3165385 0.9485797 580.6652832 64.4413452)" class="st7 st3 st6">i</text>
<text transform="matrix(0.85 0 -0.3165385 0.9485797 582.9240723 64.4413452)" class="st3 st6">o</text>
<text transform="matrix(0.85 0 -0.3165385 0.9485797 582.9240723 64.4413452)" class="st7 st3 st6">o</text>
<text transform="matrix(0.85 0 -0.3165385 0.9485797 588.9318848 64.4413452)" class="st3 st6">n</text>
<text transform="matrix(0.85 0 -0.3165385 0.9485797 588.9318848 64.4413452)" class="st7 st3 st6">n</text>
<line class="st2" x1="430.4093323" y1="70.4331512" x2="687.4143066" y2="70.4331512"/>
<text transform="matrix(0.85 0 0 1 434.1660156 83.9443359)" class="st3 st4">+ </text>
<text transform="matrix(0.85 0 0 1 450.6972656 83.9443359)" class="st3 st4">areaClassificationType: gml::CodeType [0..1]</text>
<text transform="matrix(0.85 0 0 1 434.1660156 96.7099609)" class="st3 st4">+ </text>
<text transform="matrix(0.85 0 0 1 450.6972656 96.7099609)" class="st3 st4">city: gml::CodeType [0..1]</text>
<text transform="matrix(0.85 0 0 1 434.1660156 109.4677734)" class="st3 st4">+ </text>
<text transform="matrix(0.85 0 0 1 450.6972656 109.4677734)" class="st3 st4">class: gml::CodeType [0..1]</text>
<text transform="matrix(0.85 0 0 1 434.1660156 122.2333984)" class="st3 st4">+ </text>
<text transform="matrix(0.85 0 0 1 450.6972656 122.2333984)" class="st3 st4">custodian: xs::string [0..1]</text>
<text transform="matrix(0.85 0 0 1 434.1660156 134.9912109)" class="st3 st4">+ </text>
<text transform="matrix(0.85 0 0 1 450.6972656 134.9912109)" class="st3 st4">enactmentFiscalYear: xs::gYear [0..1]</text>
<text transform="matrix(0.85 0 0 1 434.1660156 147.7490234)" class="st3 st4">+ </text>
<text transform="matrix(0.85 0 0 1 450.6972656 147.7490234)" class="st3 st4">expirationFiscalYear: xs::gYear [0..1]</text>
<text transform="matrix(0.85 0 0 1 434.1660156 160.5146484)" class="st3 st4">+ </text>
<text transform="matrix(0.85 0 0 1 450.6972656 160.5146484)" class="st3 st4">finalNotificationDate: xs::date [0..1]</text>
<text transform="matrix(0.85 0 0 1 434.1660156 173.2802734)" class="st3 st4">+ </text>
<text transform="matrix(0.85 0 0 1 450.6972656 173.2802734)" class="st3 st4">finalNotificationNumber: xs::string [0..1]</text>
<text transform="matrix(0.85 0 0 1 434.1660156 186.0302734)" class="st3 st4">+ </text>
<text transform="matrix(0.85 0 0 1 450.6972656 186.0302734)" class="st3 st4">function: gml::CodeType [0..*]</text>
<text transform="matrix(0.85 0 0 1 434.1660156 198.7958984)" class="st3 st4">+ </text>
<text transform="matrix(0.85 0 0 1 450.6972656 198.7958984)" class="st3 st4">legalGrounds: xs::string [0..1]</text>
<text transform="matrix(0.85 0 0 1 434.1660156 211.5615234)" class="st3 st4">+ </text>
<text transform="matrix(0.85 0 0 1 450.6972656 211.5615234)" class="st3 st4">nominalArea: gml::MeasureType [0..1]</text>
<text transform="matrix(0.85 0 0 1 434.1660156 224.3271484)" class="st3 st4">+ </text>
<text transform="matrix(0.85 0 0 1 450.6972656 224.3271484)" class="st3 st4">note: gml:StringOrRefType [0..1]</text>
<text transform="matrix(0.85 0 0 1 434.1660156 237.0771484)" class="st3 st4">+ </text>
<text transform="matrix(0.85 0 0 1 450.6972656 237.0771484)" class="st3 st4">notificationNumber: xs::string [0..1]</text>
<text transform="matrix(0.85 0 0 1 434.1660156 249.8427734)" class="st3 st4">+ </text>
<text transform="matrix(0.85 0 0 1 450.6972656 249.8427734)" class="st3 st4">prefecture: gml::CodeType [0..1]</text>
<text transform="matrix(0.85 0 0 1 434.1660156 262.6083984)" class="st3 st4">+ </text>
<text transform="matrix(0.85 0 0 1 450.6972656 262.6083984)" class="st3 st4">reason: gml:StringOrRefType [0..1]</text>
<text transform="matrix(0.85 0 0 1 434.1660156 275.3740234)" class="st3 st4">+ </text>
<text transform="matrix(0.85 0 0 1 450.6972656 275.3740234)" class="st3 st4">reference: xs::anyURI [0..1]</text>
<text transform="matrix(0.85 0 0 1 434.1660156 288.1240234)" class="st3 st4">+ </text>
<text transform="matrix(0.85 0 0 1 450.6972656 288.1240234)" class="st3 st4">surveyYear: xs::gYear [0..1]</text>
<text transform="matrix(0.85 0 0 1 434.1660156 300.8896484)" class="st3 st4">+ </text>
<text transform="matrix(0.85 0 0 1 450.6972656 300.8896484)" class="st3 st4">urbanPlanType: gml::CodeType [0..1]</text>
<text transform="matrix(0.85 0 0 1 434.1660156 313.6552734)" class="st3 st4">+ </text>
<text transform="matrix(0.85 0 0 1 450.6972656 313.6552734)" class="st3 st4">usage: gml::CodeType [0..*]</text>
<text transform="matrix(0.85 0 0 1 434.1660156 326.4052734)" class="st3 st4">+ </text>
<text transform="matrix(0.85 0 0 1 450.6972656 326.4052734)" class="st3 st4">validFrom: xs::date [0..1]</text>
<text transform="matrix(0.85 0 0 1 434.1660156 339.1708984)" class="st3 st4">+ </text>
<text transform="matrix(0.85 0 0 1 450.6972656 339.1708984)" class="st3 st4">validFromType: gml::CodeType [0..1]</text>
<text transform="matrix(0.85 0 0 1 434.1660156 351.9365234)" class="st3 st4">+ </text>
<text transform="matrix(0.85 0 0 1 450.6972656 351.9365234)" class="st3 st4">validTo: xs::date [0..1]</text>
<text transform="matrix(0.85 0 0 1 434.1660156 364.6943359)" class="st3 st4">+ </text>
<text transform="matrix(0.85 0 0 1 450.6972656 364.6943359)" class="st3 st4">validToType: gml::CodeType [0..1]</text>
<path class="st8" d="M168.144043,36.6536102c1.2450867,0,2.254425,1.0082397,2.254425,2.2519836h0.0000153v66.0577393h-0.0000153
	c0,1.2437439-1.0093384,2.2519836-2.254425,2.2519531c0,0.0000305,0,0,0,0l0,0H33.6297569l-0.0000038,0.0000305
	c-1.2450867-0.0000305-2.2544289-1.0082397-2.254425-2.2519836V38.9055939c0-1.2437439,1.0093422-2.2519836,2.2544289-2.2519836l0,0
	H168.144043L168.144043,36.6536102L168.144043,36.6536102z"/>
<path class="st9" d="M168.144043,36.6536102c1.2450867,0,2.254425,1.0082397,2.254425,2.2519836h0.0000153v66.0577393h-0.0000153
	c0,1.2437439-1.0093384,2.2519836-2.254425,2.2519531c0,0.0000305,0,0,0,0l0,0H33.6297569l-0.0000038,0.0000305
	c-1.2450867-0.0000305-2.2544289-1.0082397-2.254425-2.2519836V38.9055939c0-1.2437439,1.0093422-2.2519836,2.2544289-2.2519836l0,0
	H168.144043L168.144043,36.6536102L168.144043,36.6536102z"/>
<path class="st10" d="M49.0350227,59.1732941c1.0375748,0,1.8786888,0.84021,1.8786888,1.8766479h0.0000038v8.2572021
	l-0.0000038,0.0000305c0,1.036438-0.841114,1.8766174-1.8786888,1.8766174l0,0l0,0h-8.2662392h-0.0000038
	c-1.037571,0-1.8786888-0.8401794-1.8786888-1.8766479l0,0V61.049942c0-1.036438,0.8411179-1.8766479,1.8786926-1.8766479l0,0
	H49.0350227L49.0350227,59.1732941L49.0350227,59.1732941z"/>
<path class="st11" d="M49.0350227,59.1732941c1.0375748,0,1.8786888,0.84021,1.8786888,1.8766479h0.0000038v8.2572021
	l-0.0000038,0.0000305c0,1.036438-0.841114,1.8766174-1.8786888,1.8766174l0,0l0,0h-8.2662392h-0.0000038
	c-1.037571,0-1.8786888-0.8401794-1.8786888-1.8766479l0,0V61.049942c0-1.036438,0.8411179-1.8766479,1.8786926-1.8766479l0,0
	H49.0350227L49.0350227,59.1732941L49.0350227,59.1732941z"/>
<text transform="matrix(0.85 0 0 1 55.4233398 68.1865234)" class="st12 st13 st14">GMLに定義されたクラス</text>
<path class="st15" d="M49.0350227,73.4357758c1.0375748,0,1.8786888,0.84021,1.8786888,1.8766479h0.0000038v8.2572021h-0.0000038
	c0,1.036438-0.841114,1.8766479-1.8786888,1.8766479l0,0l0,0h-8.2662392h-0.0000038
	c-1.037571,0-1.8786888-0.84021-1.8786888-1.8766479l0,0v-8.2572021c0-1.036438,0.8411179-1.8766479,1.8786926-1.8766479l0,0
	H49.0350227L49.0350227,73.4357758L49.0350227,73.4357758z"/>
<path class="st11" d="M49.0350227,73.4357758c1.0375748,0,1.8786888,0.84021,1.8786888,1.8766479h0.0000038v8.2572021h-0.0000038
	c0,1.036438-0.841114,1.8766479-1.8786888,1.8766479l0,0l0,0h-8.2662392h-0.0000038
	c-1.037571,0-1.8786888-0.84021-1.8786888-1.8766479l0,0v-8.2572021c0-1.036438,0.8411179-1.8766479,1.8786926-1.8766479l0,0
	H49.0350227L49.0350227,73.4357758L49.0350227,73.4357758z"/>
<text transform="matrix(0.85 0 0 1 55.4233398 82.4365234)" class="st12 st13 st14">CityGMLに定義されたクラス</text>
<path class="st1" d="M49.0350227,87.6982269c1.0375748,0,1.8786888,0.84021,1.8786888,1.8766479h0.0000038v8.2572021
	l-0.0000038,0.0000305c0,1.0364075-0.841114,1.8766174-1.8786888,1.8766174l0,0l0,0h-8.2662392h-0.0000038
	c-1.037571,0-1.8786888-0.84021-1.8786888-1.8766479l0,0v-8.2572021c0-1.036438,0.8411179-1.8766479,1.8786926-1.8766479l0,0
	H49.0350227L49.0350227,87.6982269L49.0350227,87.6982269z"/>
<path class="st11" d="M49.0350227,87.6982269c1.0375748,0,1.8786888,0.84021,1.8786888,1.8766479h0.0000038v8.2572021
	l-0.0000038,0.0000305c0,1.0364075-0.841114,1.8766174-1.8786888,1.8766174l0,0l0,0h-8.2662392h-0.0000038
	c-1.037571,0-1.8786888-0.84021-1.8786888-1.8766479l0,0v-8.2572021c0-1.036438,0.8411179-1.8766479,1.8786926-1.8766479l0,0
	H49.0350227L49.0350227,87.6982269L49.0350227,87.6982269z"/>
<text transform="matrix(0.85 0 0 1 55.4233398 96.7099609)" class="st12 st13 st14">i-URに定義されたクラス</text>
<text transform="matrix(0.85 0 0 1 87.7363281 54.9145508)" class="st12 st16 st17 st18">凡例</text>
<line class="st19" x1="290.6347046" y1="163.5145111" x2="291.3862" y2="119.9764557"/>
<polyline class="st20" points="295.89505,131.9869537 286.8773193,131.9869537 291.3862,119.9764557 295.89505,131.9869537 "/>
<polygon class="st19" points="295.89505,131.9869537 286.8773193,131.9869537 291.3862,119.9764557 "/>
<line class="st19" x1="342.4866028" y1="283.6195068" x2="342.4866028" y2="255.0945587"/>
<line class="st19" x1="342.4866028" y1="255.0945587" x2="289.8832397" y2="255.0945587"/>
<line class="st19" x1="289.8832397" y1="255.0945587" x2="289.8832397" y2="218.3124237"/>
<polyline class="st20" points="294.3920898,230.3229218 285.3743896,230.3229218 289.8832397,218.3124237 294.3920898,230.3229218 
	"/>
<polygon class="st19" points="294.3920898,230.3229218 285.3743896,230.3229218 289.8832397,218.3124237 "/>
<line class="st19" x1="219.2444458" y1="283.6195068" x2="219.2444458" y2="255.0945587"/>
<line class="st19" x1="219.2444458" y1="255.0945587" x2="289.8832397" y2="255.0945587"/>
<line class="st19" x1="354.5102234" y1="89.9502106" x2="429.6578674" y2="89.9502106"/>
<polyline class="st20" points="417.6342468,94.4541473 417.6342468,85.4462738 429.6578674,89.9502106 417.6342468,94.4541473 "/>
<polygon class="st19" points="429.6578674,89.9502106 417.6342468,85.4462738 417.6342468,94.4541473 "/>
</svg>
