<?xml version="1.0" encoding="utf-8"?>
<!-- Generator: Adobe Illustrator 27.5.0, SVG Export Plug-In . SVG Version: 6.00 Build 0)  -->
<svg version="1.1" id="レイヤー_1" xmlns="http://www.w3.org/2000/svg" xmlns:xlink="http://www.w3.org/1999/xlink" x="0px"
	 y="0px" viewBox="0 0 670.7244263 379.8898315" style="enable-background:new 0 0 670.7244263 379.8898315;" xml:space="preserve">
<style type="text/css">
	.st0{opacity:0.5019608;fill-rule:evenodd;clip-rule:evenodd;fill:#969696;enable-background:new    ;}
	.st1{fill-rule:evenodd;clip-rule:evenodd;fill:#FFCCFF;}
	.st2{fill:none;stroke:#000000;stroke-width:1.5013124;stroke-linecap:round;stroke-linejoin:round;stroke-miterlimit:10;}
	.st3{font-family:'YuGothicUI-Regular';}
	.st4{font-size:9.7585306px;}
	.st5{font-family:'YuGothicUI-Bold';}
	.st6{font-size:10.2875204px;}
	.st7{fill:none;stroke:#000000;stroke-width:0.2788152;stroke-miterlimit:10;}
	.st8{fill-rule:evenodd;clip-rule:evenodd;fill:#F0F0F0;}
	.st9{fill:none;stroke:#D7D7D7;stroke-width:0.7506562;stroke-linecap:square;stroke-miterlimit:10;}
	.st10{fill-rule:evenodd;clip-rule:evenodd;fill:#CCFFCC;}
	.st11{fill:none;stroke:#000000;stroke-width:0.7506562;stroke-linecap:square;stroke-miterlimit:10;}
	.st12{fill:#003060;}
	.st13{font-family:'Meiryo';}
	.st14{font-size:7.5065618px;}
	.st15{fill-rule:evenodd;clip-rule:evenodd;fill:#FFFFCC;}
	.st16{font-family:'Meiryo-Bold';}
	.st17{font-size:12.010499px;}
	.st18{letter-spacing:-2.352941;}
	.st19{fill:none;stroke:#000000;stroke-width:1.5013124;stroke-linecap:round;stroke-linejoin:bevel;stroke-miterlimit:10;}
	.st20{fill-rule:evenodd;clip-rule:evenodd;fill:#FFFFFF;}
</style>
<path class="st0" d="M356.1074219,237.4620361c1.0375671,0,1.8786926,0.8401794,1.8786926,1.8766479v-0.0000305v40.5354309
	v0.0000305c0,1.036438-0.8411255,1.8766479-1.8786926,1.8766174c0,0.0000305,0,0,0,0l0,0h-164.573349l-0.0000305,0.0000305
	c-1.0375671-0.0000305-1.8786926-0.84021-1.8786926-1.8766785h0.0000305v-40.5354309
	c0-1.036438,0.841095-1.8766479,1.8786926-1.8766174v-0.0000305h164.573349V237.4620361L356.1074219,237.4620361z"/>
<path class="st1" d="M353.8529968,235.2100525c1.0375671,0,1.8786621,0.84021,1.8786621,1.8766479l0.0000305-0.0000305v40.5354614
	h-0.0000305c0,1.036438-0.841095,1.8766479-1.8786926,1.8766174c0,0.0000305,0,0,0,0h0.0000305h-164.573349l-0.0000305,0.0000305
	c-1.0375671-0.0000305-1.8786926-0.84021-1.8786926-1.8766479h0.0000305v-40.5354614
	c0-1.0364075,0.841095-1.8766174,1.8786926-1.8766174l0,0H353.8529968L353.8529968,235.2100525L353.8529968,235.2100525z"/>
<path class="st2" d="M353.8529968,235.2100525c1.0375671,0,1.8786621,0.84021,1.8786621,1.8766479l0.0000305-0.0000305v40.5354614
	h-0.0000305c0,1.036438-0.841095,1.8766479-1.8786926,1.8766174c0,0.0000305,0,0,0,0h0.0000305h-164.573349l-0.0000305,0.0000305
	c-1.0375671-0.0000305-1.8786926-0.84021-1.8786926-1.8766479h0.0000305v-40.5354614
	c0-1.0364075,0.841095-1.8766174,1.8786926-1.8766174l0,0H353.8529968L353.8529968,235.2100525L353.8529968,235.2100525z"/>
<text transform="matrix(0.85 0 0 1 240.0019531 250.2299805)" class="st3 st4">«FeatureType»</text>
<text transform="matrix(0.85 0 0 1 190.4082031 262.9956055)" class="st5 st4">MarketsSlaughterhousesCrematoria</text>
<path class="st0" d="M335.0661011,147.3832703c1.0375671,0,1.8786621,0.84021,1.8786621,1.8766479h0.0000305v48.7926636h-0.0000305
	c0,1.036438-0.841095,1.8766479-1.8786926,1.8766174c0,0.0000305,0,0,0,0h0.0000305H214.0783691l-0.0000305,0.0000305
	c-1.0375671-0.0000305-1.8786926-0.84021-1.8786926-1.8766479h0.0000305v-48.7926636
	c0-1.036438,0.841095-1.8766479,1.8786926-1.8766479l0,0H335.0661011L335.0661011,147.3832703L335.0661011,147.3832703z"/>
<path class="st1" d="M332.811676,145.1313171c1.0375671,0,1.8786621,0.84021,1.8786621,1.8766479v-0.0000305v48.7926636v0.0000305
	c0,1.036438-0.841095,1.8766479-1.8786926,1.8765869c0,0.000061,0,0,0,0h0.0000305H211.8239288l-0.0000153,0.000061
	c-1.0375671-0.000061-1.8786926-0.84021-1.8786926-1.8766785h0.0000305v-48.7926636
	c0-1.0364075,0.841095-1.8766174,1.8786774-1.8766174l0,0H332.811676L332.811676,145.1313171L332.811676,145.1313171z"/>
<path class="st2" d="M332.811676,145.1313171c1.0375671,0,1.8786621,0.84021,1.8786621,1.8766479v-0.0000305v48.7926636v0.0000305
	c0,1.036438-0.841095,1.8766479-1.8786926,1.8765869c0,0.000061,0,0,0,0h0.0000305H211.8239288l-0.0000153,0.000061
	c-1.0375671-0.000061-1.8786926-0.84021-1.8786926-1.8766785h0.0000305v-48.7926636
	c0-1.0364075,0.841095-1.8766174,1.8786774-1.8766174l0,0H332.811676L332.811676,145.1313171L332.811676,145.1313171z"/>
<text transform="matrix(0.85 0 0 1 240.7519531 160.1518555)" class="st3 st4">«FeatureType»</text>
<text transform="matrix(0.85 0 0 1 243.0097656 172.9174805)" class="st5 st4">UrbanFacility</text>
<line class="st2" x1="209.9452515" y1="178.9108276" x2="334.6903381" y2="178.9108276"/>
<text transform="matrix(0.85 0 0 1 213.7050781 192.425293)" class="st3 st4">+ </text>
<text transform="matrix(0.85 0 0 1 230.2363281 192.425293)" class="st3 st4">number: xs::string [0..1]</text>
<path class="st0" d="M335.8175659,64.8110886c1.0375671,0,1.8786621,0.8401794,1.8786621,1.8766479l0.0000305-0.0000305v49.543335
	h-0.0000305c0,1.036438-0.841095,1.8766479-1.8786926,1.8766479l0,0h0.0000305H214.0783691h-0.0000305
	c-1.0375671,0-1.8786926-0.84021-1.8786926-1.8766479h0.0000305V66.687706c0-1.036438,0.841095-1.8766174,1.8786926-1.8766174l0,0
	H335.8175659L335.8175659,64.8110886L335.8175659,64.8110886z"/>
<path class="st1" d="M333.5631409,62.5591354c1.0375671,0,1.8786621,0.8401794,1.8786621,1.8766174h0.0000305v49.5433044
	l-0.0000305,0.0000305c0,1.036438-0.841095,1.8766479-1.8786926,1.8766174c0,0.0000305,0,0,0,0h0.0000305h-121.739212
	l-0.0000153,0.0000305c-1.0375671-0.0000305-1.8786926-0.84021-1.8786926-1.8766785h0.0000305V64.4357529
	c0-1.036438,0.841095-1.8766479,1.8786774-1.8766174v-0.0000305h121.739212V62.5591354L333.5631409,62.5591354z"/>
<path class="st2" d="M333.5631409,62.5591354c1.0375671,0,1.8786621,0.8401794,1.8786621,1.8766174h0.0000305v49.5433044
	l-0.0000305,0.0000305c0,1.036438-0.841095,1.8766479-1.8786926,1.8766174c0,0.0000305,0,0,0,0h0.0000305h-121.739212
	l-0.0000153,0.0000305c-1.0375671-0.0000305-1.8786926-0.84021-1.8786926-1.8766785h0.0000305V64.4357529
	c0-1.036438,0.841095-1.8766479,1.8786774-1.8766174v-0.0000305h121.739212V62.5591354L333.5631409,62.5591354z"/>
<text transform="matrix(0.85 0 0 1 240.7519531 77.5737305)" class="st3 st4">«FeatureType»</text>
<text transform="matrix(0.85 0 0 1 261.0488281 90.3393555)" class="st5 st4">Zone</text>
<line class="st2" x1="209.9452515" y1="96.3386459" x2="335.4418335" y2="96.3386459"/>
<text transform="matrix(0.85 0 0 1 213.7050781 109.8549805)" class="st3 st4">+ </text>
<text transform="matrix(0.85 0 0 1 230.2363281 109.8549805)" class="st3 st4">location: xs::string [0..1]</text>
<path class="st0" d="M632.6507568,19.7717209c1.0375366,0,1.8786621,0.8401794,1.8786621,1.8766174h0.000061v344.5512085
	l-0.000061,0.0000305c0,1.036438-0.8411255,1.8766479-1.8787231,1.8766174c0,0.0000305,0,0,0,0h0.000061H379.4031982
	l-0.0000305,0.0000305c-1.0375671-0.0000305-1.8786926-0.84021-1.8786926-1.8766785h0.0000305V21.6483383
	c0-1.036438,0.841095-1.8766174,1.8786926-1.8766174l0,0H632.6507568L632.6507568,19.7717209L632.6507568,19.7717209z"/>
<path class="st1" d="M630.3963623,17.5197372c1.0375366,0,1.8786011,0.84021,1.8786011,1.8766479h0.000061v344.551178
	l-0.000061,0.000061c0,1.0364075-0.8410645,1.8766479-1.8786621,1.8765869c0,0.000061,0,0,0,0h0.000061H377.1487732
	l-0.000061,0.000061c-1.0375366-0.000061-1.8786621-0.8402405-1.8786621-1.876709h0.0000305V19.3963852
	c0-1.036438,0.841095-1.8766479,1.8786926-1.8766479l0,0H630.3963623L630.3963623,17.5197372L630.3963623,17.5197372z"/>
<path class="st2" d="M630.3963623,17.5197372c1.0375366,0,1.8786011,0.84021,1.8786011,1.8766479h0.000061v344.551178
	l-0.000061,0.000061c0,1.0364075-0.8410645,1.8766479-1.8786621,1.8765869c0,0.000061,0,0,0,0h0.000061H377.1487732
	l-0.000061,0.000061c-1.0375366-0.000061-1.8786621-0.8402405-1.8786621-1.876709h0.0000305V19.3963852
	c0-1.036438,0.841095-1.8766479,1.8786926-1.8766479l0,0H630.3963623L630.3963623,17.5197372L630.3963623,17.5197372z"/>
<text transform="matrix(0.85 0 -0.3165385 0.9485797 574.1663208 30.2975712)" class="st3 st6">_CityObject</text>
<text transform="matrix(0.85 0 0 1 472.2050781 47.550293)" class="st3 st4">«FeatureType»</text>
<text transform="matrix(0.85 0 -0.3165385 0.9485797 468.4389648 60.3260498)" class="st3 st6">_</text>
<text transform="matrix(0.85 0 -0.3165385 0.9485797 468.4389648 60.3260498)" class="st7 st3 st6">_</text>
<text transform="matrix(0.85 0 -0.3165385 0.9485797 472.2006836 60.3260498)" class="st3 st6">U</text>
<text transform="matrix(0.85 0 -0.3165385 0.9485797 472.2006836 60.3260498)" class="st7 st3 st6">U</text>
<text transform="matrix(0.85 0 -0.3165385 0.9485797 478.9604492 60.3260498)" class="st3 st6">r</text>
<text transform="matrix(0.85 0 -0.3165385 0.9485797 478.9604492 60.3260498)" class="st7 st3 st6">r</text>
<text transform="matrix(0.85 0 -0.3165385 0.9485797 482.7084961 60.3260498)" class="st3 st6">b</text>
<text transform="matrix(0.85 0 -0.3165385 0.9485797 482.7084961 60.3260498)" class="st7 st3 st6">b</text>
<text transform="matrix(0.85 0 -0.3165385 0.9485797 488.7163086 60.3260498)" class="st3 st6">a</text>
<text transform="matrix(0.85 0 -0.3165385 0.9485797 488.7163086 60.3260498)" class="st7 st3 st6">a</text>
<text transform="matrix(0.85 0 -0.3165385 0.9485797 493.9682617 60.3260498)" class="st3 st6">n</text>
<text transform="matrix(0.85 0 -0.3165385 0.9485797 493.9682617 60.3260498)" class="st7 st3 st6">n</text>
<text transform="matrix(0.85 0 -0.3165385 0.9485797 499.9760742 60.3260498)" class="st3 st6">F</text>
<text transform="matrix(0.85 0 -0.3165385 0.9485797 499.9760742 60.3260498)" class="st7 st3 st6">F</text>
<text transform="matrix(0.85 0 -0.3165385 0.9485797 505.2358398 60.3260498)" class="st3 st6">un</text>
<text transform="matrix(0.85 0 -0.3165385 0.9485797 505.2358398 60.3260498)" class="st7 st3 st6">un</text>
<text transform="matrix(0.85 0 -0.3165385 0.9485797 517.2495117 60.3260498)" class="st3 st6">c</text>
<text transform="matrix(0.85 0 -0.3165385 0.9485797 517.2495117 60.3260498)" class="st7 st3 st6">c</text>
<text transform="matrix(0.85 0 -0.3165385 0.9485797 521.7612305 60.3260498)" class="st3 st6">t</text>
<text transform="matrix(0.85 0 -0.3165385 0.9485797 521.7612305 60.3260498)" class="st7 st3 st6">t</text>
<text transform="matrix(0.85 0 -0.3165385 0.9485797 525.5112305 60.3260498)" class="st3 st6">i</text>
<text transform="matrix(0.85 0 -0.3165385 0.9485797 525.5112305 60.3260498)" class="st7 st3 st6">i</text>
<text transform="matrix(0.85 0 -0.3165385 0.9485797 527.7709961 60.3260498)" class="st3 st6">o</text>
<text transform="matrix(0.85 0 -0.3165385 0.9485797 527.7709961 60.3260498)" class="st7 st3 st6">o</text>
<text transform="matrix(0.85 0 -0.3165385 0.9485797 533.7788086 60.3260498)" class="st3 st6">n</text>
<text transform="matrix(0.85 0 -0.3165385 0.9485797 533.7788086 60.3260498)" class="st7 st3 st6">n</text>
<line class="st2" x1="375.2700806" y1="66.3124008" x2="632.2750244" y2="66.3124008"/>
<text transform="matrix(0.85 0 0 1 379.0253906 79.8237305)" class="st3 st4">+ </text>
<text transform="matrix(0.85 0 0 1 395.5566406 79.8237305)" class="st3 st4">areaClassificationType: gml::CodeType [0..1]</text>
<text transform="matrix(0.85 0 0 1 379.0253906 92.5893555)" class="st3 st4">+ </text>
<text transform="matrix(0.85 0 0 1 395.5566406 92.5893555)" class="st3 st4">city: gml::CodeType [0..1]</text>
<text transform="matrix(0.85 0 0 1 379.0253906 105.347168)" class="st3 st4">+ </text>
<text transform="matrix(0.85 0 0 1 395.5566406 105.347168)" class="st3 st4">class: gml::CodeType [0..1]</text>
<text transform="matrix(0.85 0 0 1 379.0253906 118.1049805)" class="st3 st4">+ </text>
<text transform="matrix(0.85 0 0 1 395.5566406 118.1049805)" class="st3 st4">custodian: xs::string [0..1]</text>
<text transform="matrix(0.85 0 0 1 379.0253906 130.8706055)" class="st3 st4">+ </text>
<text transform="matrix(0.85 0 0 1 395.5566406 130.8706055)" class="st3 st4">enactmentFiscalYear: xs::gYear [0..1]</text>
<text transform="matrix(0.85 0 0 1 379.0253906 143.6362305)" class="st3 st4">+ </text>
<text transform="matrix(0.85 0 0 1 395.5566406 143.6362305)" class="st3 st4">expirationFiscalYear: xs::gYear [0..1]</text>
<text transform="matrix(0.85 0 0 1 379.0253906 156.3862305)" class="st3 st4">+ </text>
<text transform="matrix(0.85 0 0 1 395.5566406 156.3862305)" class="st3 st4">finalNotificationDate: xs::date [0..1]</text>
<text transform="matrix(0.85 0 0 1 379.0253906 169.1518555)" class="st3 st4">+ </text>
<text transform="matrix(0.85 0 0 1 395.5566406 169.1518555)" class="st3 st4">finalNotificationNumber: xs::string [0..1]</text>
<text transform="matrix(0.85 0 0 1 379.0253906 181.9174805)" class="st3 st4">+ </text>
<text transform="matrix(0.85 0 0 1 395.5566406 181.9174805)" class="st3 st4">function: gml::CodeType [0..*]</text>
<text transform="matrix(0.85 0 0 1 379.0253906 194.6831055)" class="st3 st4">+ </text>
<text transform="matrix(0.85 0 0 1 395.5566406 194.6831055)" class="st3 st4">legalGrounds: xs::string [0..1]</text>
<text transform="matrix(0.85 0 0 1 379.0253906 207.4331055)" class="st3 st4">+ </text>
<text transform="matrix(0.85 0 0 1 395.5566406 207.4331055)" class="st3 st4">nominalArea: gml::MeasureType [0..1]</text>
<text transform="matrix(0.85 0 0 1 379.0253906 220.1987305)" class="st3 st4">+ </text>
<text transform="matrix(0.85 0 0 1 395.5566406 220.1987305)" class="st3 st4">note: gml:StringOrRefType [0..1]</text>
<text transform="matrix(0.85 0 0 1 379.0253906 232.9643555)" class="st3 st4">+ </text>
<text transform="matrix(0.85 0 0 1 395.5566406 232.9643555)" class="st3 st4">notificationNumber: xs::string [0..1]</text>
<text transform="matrix(0.85 0 0 1 379.0253906 245.7299805)" class="st3 st4">+ </text>
<text transform="matrix(0.85 0 0 1 395.5566406 245.7299805)" class="st3 st4">prefecture: gml::CodeType [0..1]</text>
<text transform="matrix(0.85 0 0 1 379.0253906 258.4799805)" class="st3 st4">+ </text>
<text transform="matrix(0.85 0 0 1 395.5566406 258.4799805)" class="st3 st4">reason: gml:StringOrRefType [0..1]</text>
<text transform="matrix(0.85 0 0 1 379.0253906 271.2456055)" class="st3 st4">+ </text>
<text transform="matrix(0.85 0 0 1 395.5566406 271.2456055)" class="st3 st4">reference: xs::anyURI [0..1]</text>
<text transform="matrix(0.85 0 0 1 379.0253906 284.0112305)" class="st3 st4">+ </text>
<text transform="matrix(0.85 0 0 1 395.5566406 284.0112305)" class="st3 st4">surveyYear: xs::gYear [0..1]</text>
<text transform="matrix(0.85 0 0 1 379.0253906 296.769043)" class="st3 st4">+ </text>
<text transform="matrix(0.85 0 0 1 395.5566406 296.769043)" class="st3 st4">urbanPlanType: gml::CodeType [0..1]</text>
<text transform="matrix(0.85 0 0 1 379.0253906 309.5268555)" class="st3 st4">+ </text>
<text transform="matrix(0.85 0 0 1 395.5566406 309.5268555)" class="st3 st4">usage: gml::CodeType [0..*]</text>
<text transform="matrix(0.85 0 0 1 379.0253906 322.2924805)" class="st3 st4">+ </text>
<text transform="matrix(0.85 0 0 1 395.5566406 322.2924805)" class="st3 st4">validFrom: xs::date [0..1]</text>
<text transform="matrix(0.85 0 0 1 379.0253906 335.050293)" class="st3 st4">+ </text>
<text transform="matrix(0.85 0 0 1 395.5566406 335.050293)" class="st3 st4">validFromType: gml::CodeType [0..1]</text>
<text transform="matrix(0.85 0 0 1 379.0253906 347.815918)" class="st3 st4">+ </text>
<text transform="matrix(0.85 0 0 1 395.5566406 347.815918)" class="st3 st4">validTo: xs::date [0..1]</text>
<text transform="matrix(0.85 0 0 1 379.0253906 360.5737305)" class="st3 st4">+ </text>
<text transform="matrix(0.85 0 0 1 395.5566406 360.5737305)" class="st3 st4">validToType: gml::CodeType [0..1]</text>
<path class="st8" d="M170.8684692,12.2651596c1.2450714,0,2.2544098,1.0082397,2.2544098,2.2519531h0.0000153V80.574852
	l-0.0000153,0.0000305c0,1.2437134-1.0093384,2.2519531-2.254425,2.2519531l0,0h0.0000153H36.3541832h-0.0000038
	c-1.2450867,0-2.2544289-1.0082397-2.254425-2.2519836V14.5171127c0-1.2437134,1.0093384-2.2519531,2.2544289-2.2519531l0,0
	H170.8684692L170.8684692,12.2651596L170.8684692,12.2651596z"/>
<path class="st9" d="M170.8684692,12.2651596c1.2450714,0,2.2544098,1.0082397,2.2544098,2.2519531h0.0000153V80.574852
	l-0.0000153,0.0000305c0,1.2437134-1.0093384,2.2519531-2.254425,2.2519531l0,0h0.0000153H36.3541832h-0.0000038
	c-1.2450867,0-2.2544289-1.0082397-2.254425-2.2519836V14.5171127c0-1.2437134,1.0093384-2.2519531,2.2544289-2.2519531l0,0
	H170.8684692L170.8684692,12.2651596L170.8684692,12.2651596z"/>
<path class="st10" d="M51.759449,34.7848434c1.0375748,0,1.878685,0.8401794,1.878685,1.8766479l0.0000076-0.0000305v8.2572327
	H53.638134c0,1.036438-0.8411102,1.8766479-1.878685,1.8766479l0,0l0,0h-8.2662392H43.493206
	c-1.037571,0-1.8786926-0.84021-1.8786926-1.8766479h0.0000076v-8.2572327c0-1.036438,0.841114-1.8766174,1.8786888-1.8766174l0,0
	H51.759449L51.759449,34.7848434L51.759449,34.7848434z"/>
<path class="st11" d="M51.759449,34.7848434c1.0375748,0,1.878685,0.8401794,1.878685,1.8766479l0.0000076-0.0000305v8.2572327
	H53.638134c0,1.036438-0.8411102,1.8766479-1.878685,1.8766479l0,0l0,0h-8.2662392H43.493206
	c-1.037571,0-1.8786926-0.84021-1.8786926-1.8766479h0.0000076v-8.2572327c0-1.036438,0.841114-1.8766174,1.8786888-1.8766174l0,0
	H51.759449L51.759449,34.7848434L51.759449,34.7848434z"/>
<text transform="matrix(0.85 0 0 1 58.1420898 43.7924805)" class="st12 st13 st14">GMLに定義されたクラス</text>
<path class="st15" d="M51.759449,49.0473251c1.0375748,0,1.878685,0.8401794,1.878685,1.8766174h0.0000076v8.2572327H53.638134
	c0,1.036438-0.8411102,1.8766479-1.878685,1.8766174c0,0.0000305,0,0,0,0l0,0h-8.2662392l-0.0000038,0.0000305
	c-1.037571-0.0000305-1.8786926-0.84021-1.8786926-1.8766479h0.0000076v-8.2572327
	c0-1.036438,0.841114-1.8766479,1.8786888-1.8766174v-0.0000305h8.2662392V49.0473251L51.759449,49.0473251z"/>
<path class="st11" d="M51.759449,49.0473251c1.0375748,0,1.878685,0.8401794,1.878685,1.8766174h0.0000076v8.2572327H53.638134
	c0,1.036438-0.8411102,1.8766479-1.878685,1.8766174c0,0.0000305,0,0,0,0l0,0h-8.2662392l-0.0000038,0.0000305
	c-1.037571-0.0000305-1.8786926-0.84021-1.8786926-1.8766479h0.0000076v-8.2572327
	c0-1.036438,0.841114-1.8766479,1.8786888-1.8766174v-0.0000305h8.2662392V49.0473251L51.759449,49.0473251z"/>
<text transform="matrix(0.85 0 0 1 58.1420898 58.050293)" class="st12 st13 st14">CityGMLに定義されたクラス</text>
<path class="st1" d="M51.759449,63.3097763c1.0375748,0,1.878685,0.84021,1.878685,1.8766479h0.0000076v8.2572021H53.638134
	c0,1.036438-0.8411102,1.8766479-1.878685,1.8766479l0,0l0,0h-8.2662392H43.493206
	c-1.037571,0-1.8786926-0.84021-1.8786926-1.8766479h0.0000076v-8.2572021c0-1.036438,0.841114-1.8766479,1.8786888-1.8766479l0,0
	H51.759449L51.759449,63.3097763L51.759449,63.3097763z"/>
<path class="st11" d="M51.759449,63.3097763c1.0375748,0,1.878685,0.84021,1.878685,1.8766479h0.0000076v8.2572021H53.638134
	c0,1.036438-0.8411102,1.8766479-1.878685,1.8766479l0,0l0,0h-8.2662392H43.493206
	c-1.037571,0-1.8786926-0.84021-1.8786926-1.8766479h0.0000076v-8.2572021c0-1.036438,0.841114-1.8766479,1.8786888-1.8766479l0,0
	H51.759449L51.759449,63.3097763L51.759449,63.3097763z"/>
<text transform="matrix(0.85 0 0 1 58.1420898 72.315918)" class="st12 st13 st14">i-URに定義されたクラス</text>
<text transform="matrix(0.85 0 0 1 90.4628906 30.5205078)" class="st12 st16 st17 st18">凡例</text>
<line class="st19" x1="274.5722351" y1="234.4593811" x2="274.5722351" y2="199.1785583"/>
<polyline class="st20" points="279.0810852,211.1890564 270.063385,211.1890564 274.5722351,199.1785583 279.0810852,211.1890564 
	"/>
<polygon class="st19" points="279.0810852,211.1890564 270.063385,211.1890564 274.5722351,199.1785583 "/>
<line class="st19" x1="272.3178101" y1="144.3806458" x2="272.3178101" y2="117.3570175"/>
<polyline class="st20" points="276.8266602,129.3675232 267.80896,129.3675232 272.3178101,117.3570175 276.8266602,129.3675232 "/>
<polygon class="st19" points="276.8266602,129.3675232 267.80896,129.3675232 272.3178101,117.3570175 "/>
<line class="st19" x1="336.9447937" y1="87.3307724" x2="374.5186157" y2="87.3307724"/>
<polyline class="st20" points="362.4949951,91.8347092 362.4949951,82.8268356 374.5186157,87.3307724 362.4949951,91.8347092 "/>
<polygon class="st19" points="374.5186157,87.3307724 362.4949951,82.8268356 362.4949951,91.8347092 "/>
</svg>
