<?xml version="1.0" encoding="utf-8"?>
<!-- Generator: Adobe Illustrator 27.9.0, SVG Export Plug-In . SVG Version: 6.00 Build 0)  -->
<svg version="1.1" id="レイヤー_1" xmlns="http://www.w3.org/2000/svg" xmlns:xlink="http://www.w3.org/1999/xlink" x="0px"
	 y="0px" viewBox="0 0 546.7 546.7" style="enable-background:new 0 0 546.7 546.7;" xml:space="preserve">
<style type="text/css">
	.st0{fill-rule:evenodd;clip-rule:evenodd;fill:#FFCCFF;}
	.st1{fill:none;stroke:#000000;stroke-width:1.0286;stroke-linecap:round;stroke-linejoin:bevel;stroke-miterlimit:10;}
	.st2{font-family:'YuGothicUI-Regular';}
	.st3{font-size:6.6857px;}
	.st4{font-family:'YuGothicUI-Bold';}
	.st5{font-size:7.0386px;}
	.st6{fill:none;stroke:#000000;stroke-width:0.191;stroke-miterlimit:10;}
	.st7{fill-rule:evenodd;clip-rule:evenodd;fill:#F0F0F0;}
	.st8{fill:none;stroke:#D7D7D7;stroke-width:0.5143;stroke-linecap:square;stroke-miterlimit:10;}
	.st9{fill-rule:evenodd;clip-rule:evenodd;fill:#CCFFCC;}
	.st10{fill:none;stroke:#000000;stroke-width:0.5143;stroke-linecap:square;stroke-miterlimit:10;}
	.st11{fill:#003060;}
	.st12{fill-rule:evenodd;clip-rule:evenodd;fill:#FFFFCC;}
	.st13{font-size:8.2286px;}
	.st14{fill-rule:evenodd;clip-rule:evenodd;fill:#FFFFFF;}
</style>
<polygon class="st0" points="188.4,99.3 285.9,99.3 285.9,63.3 188.4,63.3 "/>
<polygon class="st1" points="188.4,99.3 285.9,99.3 285.9,63.3 188.4,63.3 "/>
<text transform="matrix(0.85 0 0 1 215.3105 73.5923)" class="st2 st3">«FeatureType»</text>
<text transform="matrix(0.85 0 0 1 229.0293 82.3345)" class="st4 st3">Zone</text>
<line class="st1" x1="188.4" y1="86.4" x2="285.4" y2="86.4"/>
<text transform="matrix(0.85 0 0 1 190.9355 95.7017)" class="st2 st3">+ location: xs::string [0..1]</text>
<polygon class="st0" points="25.9,472.7 182.8,472.7 182.8,392.4 25.9,392.4 "/>
<polygon class="st1" points="25.9,472.7 182.8,472.7 182.8,392.4 25.9,392.4 "/>
<text transform="matrix(0.85 0 0 1 82.7559 402.7324)" class="st2 st3">«FeatureType»</text>
<text transform="matrix(0.85 0 0 1 59.9043 411.4824)" class="st4 st3">UrbanRedevelopmentProject</text>
<line class="st1" x1="25.9" y1="415.6" x2="182.3" y2="415.6"/>
<text transform="matrix(0.85 0 0 1 28.4199 424.8496)" class="st2 st3">+ publicFacilityAllocation: gml:StringOrRefType</text>
<text transform="matrix(0.85 0 0 1 28.4199 433.5918)" class="st2 st3">+ developmentPlan: gml:StringOrRefType</text>
<text transform="matrix(0.85 0 0 1 28.4199 442.334)" class="st2 st3">+ housingTarget: gml:StringOrRefType [0..1]</text>
<text transform="matrix(0.85 0 0 1 28.4199 451.0684)" class="st2 st3">+ siteArea: gml::MeasureType [0..1]</text>
<text transform="matrix(0.85 0 0 1 28.4199 459.8184)" class="st2 st3">+ totalFloorArea: gml::MeasureType [0..1]</text>
<text transform="matrix(0.85 0 0 1 28.4199 468.5605)" class="st2 st3">+ numberOfHousing: xs::integer [0..1]</text>
<polygon class="st0" points="340.8,534.4 506.8,534.4 506.8,454.2 340.8,454.2 "/>
<polygon class="st1" points="340.8,534.4 506.8,534.4 506.8,454.2 340.8,454.2 "/>
<text transform="matrix(0.85 0 0 1 402.209 464.4512)" class="st2 st3">«FeatureType»</text>
<text transform="matrix(0.85 0 0 1 391.0371 473.1934)" class="st4 st3">UrbanRenewalProject</text>
<line class="st1" x1="340.8" y1="477.3" x2="506.3" y2="477.3"/>
<text transform="matrix(0.85 0 0 1 343.2949 486.5605)" class="st2 st3">+ storeysAboveGround: xs::nonNegativeInteger [0..1]</text>
<text transform="matrix(0.85 0 0 1 343.2949 495.3105)" class="st2 st3">+ storeysBelowGround: xs::nonNegativeInteger [0..1]</text>
<text transform="matrix(0.85 0 0 1 343.2949 504.0527)" class="st2 st3">+ setbackSize: gml:StringOrRefType [0..1]</text>
<text transform="matrix(0.85 0 0 1 343.2949 512.7871)" class="st2 st3">+ floorAreaRate: xs::double [0..1]</text>
<text transform="matrix(0.85 0 0 1 343.2949 521.5293)" class="st2 st3">+ buildingUsage: xs::string [0..1]</text>
<text transform="matrix(0.85 0 0 1 343.2949 530.2793)" class="st2 st3">+ siteArea: gml::MeasureType [0..1]</text>
<polygon class="st0" points="31,376 182.3,376 182.3,330.7 31,330.7 "/>
<polygon class="st1" points="31,376 182.3,376 182.3,330.7 31,330.7 "/>
<text transform="matrix(0.85 0 0 1 84.7871 341.022)" class="st2 st3">«FeatureType»</text>
<text transform="matrix(0.85 0 0 1 53.8105 349.7642)" class="st4 st3">IndustrialParkDevelopmentProject</text>
<line class="st1" x1="31" y1="353.9" x2="181.8" y2="353.9"/>
<text transform="matrix(0.85 0 0 1 33.498 363.1313)" class="st2 st3">+ publicFacilityAllocation: gml:StringOrRefType</text>
<text transform="matrix(0.85 0 0 1 33.498 371.8735)" class="st2 st3">+ residentialLandUsePlan: gml:StringOrRefType</text>
<polygon class="st0" points="178.2,171.8 295.6,171.8 295.6,135.3 178.2,135.3 "/>
<polygon class="st1" points="178.2,171.8 295.6,171.8 295.6,135.3 178.2,135.3 "/>
<text transform="matrix(0.85 0 0 1 215.3105 145.5923)" class="st2 st3">«FeatureType»</text>
<text transform="matrix(0.85 0 0 1 196.0137 154.3345)" class="st4 st3">UrbanDevelopmentProject</text>
<line class="st1" x1="178.2" y1="158.4" x2="295" y2="158.4"/>
<text transform="matrix(0.85 0 0 1 180.7793 167.7017)" class="st2 st3">+ scheduledExecutor: xs::string [0..1]</text>
<polygon class="st0" points="31,237.1 184.3,237.1 184.3,191.9 31,191.9 "/>
<polygon class="st1" points="31,237.1 184.3,237.1 184.3,191.9 31,191.9 "/>
<text transform="matrix(0.85 0 0 1 85.8105 202.1626)" class="st2 st3">«FeatureType»</text>
<text transform="matrix(0.85 0 0 1 68.0293 210.9048)" class="st4 st3">LandReadjustmentProject</text>
<line class="st1" x1="31" y1="215" x2="183.8" y2="215"/>
<text transform="matrix(0.85 0 0 1 33.498 224.272)" class="st2 st3">+ publicFacilityAllocation: gml:StringOrRefType</text>
<text transform="matrix(0.85 0 0 1 33.498 233.022)" class="st2 st3">+ buildingLotDevelopment: gml:StringOrRefType</text>
<polygon class="st0" points="31,312.7 181.8,312.7 181.8,258.7 31,258.7 "/>
<polygon class="st1" points="31,312.7 181.8,312.7 181.8,258.7 31,258.7 "/>
<text transform="matrix(0.85 0 0 1 84.7871 269.022)" class="st2 st3">«FeatureType»</text>
<text transform="matrix(0.85 0 0 1 39.5918 277.7642)" class="st4 st3">NewHousingAndUrbanDevelopmentProject</text>
<line class="st1" x1="31" y1="281.9" x2="181.3" y2="281.9"/>
<text transform="matrix(0.85 0 0 1 33.498 291.1313)" class="st2 st3">+ housing: gml:StringOrRefType</text>
<text transform="matrix(0.85 0 0 1 33.498 299.8813)" class="st2 st3">+ publicFacilityAllocation: gml:StringOrRefType</text>
<text transform="matrix(0.85 0 0 1 33.498 308.6235)" class="st2 st3">+ residentialLandUsePlan: gml:StringOrRefType</text>
<polygon class="st0" points="282.4,314.8 483,314.8 483,260.8 282.4,260.8 "/>
<polygon class="st1" points="282.4,314.8 483,314.8 483,260.8 282.4,260.8 "/>
<text transform="matrix(0.85 0 0 1 361.0762 271.0688)" class="st2 st3">«FeatureType»</text>
<text transform="matrix(0.85 0 0 1 334.6621 279.8188)" class="st4 st3">NewUrbanInfrastructureProject</text>
<line class="st1" x1="282.4" y1="283.9" x2="482.5" y2="283.9"/>
<text transform="matrix(0.85 0 0 1 284.8965 293.1938)" class="st2 st3">+ landForCentralPublicFacilities: gml:StringOrRefType</text>
<text transform="matrix(0.85 0 0 1 284.8965 301.9282)" class="st2 st3">+ districtsAllocation: gml:StringOrRefType</text>
<text transform="matrix(0.85 0 0 1 284.8965 310.6782)" class="st2 st3">+ landUsePlan: gml:StringOrRefType</text>
<polygon class="st0" points="316.9,382.7 478.4,382.7 478.4,319.9 316.9,319.9 "/>
<polygon class="st1" points="316.9,382.7 478.4,382.7 478.4,319.9 316.9,319.9 "/>
<text transform="matrix(0.85 0 0 1 375.8027 330.2251)" class="st2 st3">«FeatureType»</text>
<text transform="matrix(0.85 0 0 1 342.2793 338.9595)" class="st4 st3">ResidentialBlockConstructionProject</text>
<line class="st1" x1="316.9" y1="343.1" x2="477.9" y2="343.1"/>
<text transform="matrix(0.85 0 0 1 319.4277 352.3345)" class="st2 st3">+ publicFacilityAllocation: gml:StringOrRefType</text>
<text transform="matrix(0.85 0 0 1 319.4277 361.0688)" class="st2 st3">+ developmentPlan: gml:StringOrRefType [0..1]</text>
<text transform="matrix(0.85 0 0 1 319.4277 369.8188)" class="st2 st3">+ siteArea: gml::MeasureType [0..1]</text>
<text transform="matrix(0.85 0 0 1 319.4277 378.561)" class="st2 st3">+ totalFloorArea: gml::MeasureType [0..1]</text>
<polygon class="st0" points="296.6,451.6 497.7,451.6 497.7,397.6 296.6,397.6 "/>
<polygon class="st1" points="296.6,451.6 497.7,451.6 497.7,397.6 296.6,397.6 "/>
<text transform="matrix(0.85 0 0 1 375.2949 407.8809)" class="st2 st3">«FeatureType»</text>
<text transform="matrix(0.85 0 0 1 328.0605 416.6152)" class="st4 st3">DisasterPreventionBlockImprovementProject</text>
<line class="st1" x1="296.6" y1="420.7" x2="497.2" y2="420.7"/>
<text transform="matrix(0.85 0 0 1 299.1152 429.998)" class="st2 st3">+ disasterPreventionPublicFacilityAllocation: gml:StringOrRefType</text>
<text transform="matrix(0.85 0 0 1 299.1152 438.7402)" class="st2 st3">+ otherPublicFacilityAllocation: gml:StringOrRefType</text>
<text transform="matrix(0.85 0 0 1 299.1152 447.4746)" class="st2 st3">+ developmentPlan: gml:StringOrRefType</text>
<polygon class="st0" points="345.8,251 520,251 520,11.9 345.8,11.9 "/>
<polygon class="st1" points="345.8,251 520,251 520,11.9 345.8,11.9 "/>
<text transform="matrix(0.85 0 -0.3127 0.9499 486.0119 20.6234)" class="st2 st5">_CityObject</text>
<text transform="matrix(0.85 0 0 1 411.3574 32.4517)" class="st2 st3">«FeatureType»</text>
<text transform="matrix(0.85 0 -0.3127 0.9499 408.8166 41.2004)" class="st2 st5">_</text>
<text transform="matrix(0.85 0 -0.3127 0.9499 408.8166 41.2004)" class="st6 st2 st5">_</text>
<text transform="matrix(0.85 0 -0.3127 0.9499 411.3586 41.2004)" class="st2 st5">U</text>
<text transform="matrix(0.85 0 -0.3127 0.9499 411.3586 41.2004)" class="st6 st2 st5">U</text>
<text transform="matrix(0.85 0 -0.3127 0.9499 415.9279 41.2004)" class="st2 st5">r</text>
<text transform="matrix(0.85 0 -0.3127 0.9499 415.9279 41.2004)" class="st6 st2 st5">r</text>
<text transform="matrix(0.85 0 -0.3127 0.9499 418.4611 41.2004)" class="st2 st5">b</text>
<text transform="matrix(0.85 0 -0.3127 0.9499 418.4611 41.2004)" class="st6 st2 st5">b</text>
<text transform="matrix(0.85 0 -0.3127 0.9499 422.5207 41.2004)" class="st2 st5">a</text>
<text transform="matrix(0.85 0 -0.3127 0.9499 422.5207 41.2004)" class="st6 st2 st5">a</text>
<text transform="matrix(0.85 0 -0.3127 0.9499 426.0714 41.2004)" class="st2 st5">n</text>
<text transform="matrix(0.85 0 -0.3127 0.9499 426.0714 41.2004)" class="st6 st2 st5">n</text>
<text transform="matrix(0.85 0 -0.3127 0.9499 430.131 41.2004)" class="st2 st5">F</text>
<text transform="matrix(0.85 0 -0.3127 0.9499 430.131 41.2004)" class="st6 st2 st5">F</text>
<text transform="matrix(0.85 0 -0.3127 0.9499 433.6847 41.2004)" class="st2 st5">un</text>
<text transform="matrix(0.85 0 -0.3127 0.9499 433.6847 41.2004)" class="st6 st2 st5">un</text>
<text transform="matrix(0.85 0 -0.3127 0.9499 441.8048 41.2004)" class="st2 st5">c</text>
<text transform="matrix(0.85 0 -0.3127 0.9499 441.8048 41.2004)" class="st6 st2 st5">c</text>
<text transform="matrix(0.85 0 -0.3127 0.9499 444.8546 41.2004)" class="st2 st5">t</text>
<text transform="matrix(0.85 0 -0.3127 0.9499 444.8546 41.2004)" class="st6 st2 st5">t</text>
<text transform="matrix(0.85 0 -0.3127 0.9499 447.3888 41.2004)" class="st2 st5">i</text>
<text transform="matrix(0.85 0 -0.3127 0.9499 447.3888 41.2004)" class="st6 st2 st5">i</text>
<text transform="matrix(0.85 0 -0.3127 0.9499 448.9152 41.2004)" class="st2 st5">o</text>
<text transform="matrix(0.85 0 -0.3127 0.9499 448.9152 41.2004)" class="st6 st2 st5">o</text>
<text transform="matrix(0.85 0 -0.3127 0.9499 452.9748 41.2004)" class="st2 st5">n</text>
<text transform="matrix(0.85 0 -0.3127 0.9499 452.9748 41.2004)" class="st6 st2 st5">n</text>
<line class="st1" x1="345.8" y1="45.3" x2="519.5" y2="45.3"/>
<text transform="matrix(0.85 0 0 1 348.3809 54.5688)" class="st2 st3">+ class: gml::CodeType [0..1]</text>
<text transform="matrix(0.85 0 0 1 348.3809 63.311)" class="st2 st3">+ function: gml::CodeType [0..*]</text>
<text transform="matrix(0.85 0 0 1 348.3809 72.0532)" class="st2 st3">+ usage: gml::CodeType [0..*]</text>
<text transform="matrix(0.85 0 0 1 348.3809 80.7876)" class="st2 st3">+ validFrom: xs::date [0..1]</text>
<text transform="matrix(0.85 0 0 1 348.3809 89.5298)" class="st2 st3">+ validFromType: gml::CodeType [0..1]</text>
<text transform="matrix(0.85 0 0 1 348.3809 98.2798)" class="st2 st3">+ enactmentFiscalYear: xs::gYear [0..1]</text>
<text transform="matrix(0.85 0 0 1 348.3809 107.022)" class="st2 st3">+ validTo: xs::date [0..1]</text>
<text transform="matrix(0.85 0 0 1 348.3809 115.7563)" class="st2 st3">+ validToType: gml::CodeType [0..1]</text>
<text transform="matrix(0.85 0 0 1 348.3809 124.5063)" class="st2 st3">+ expirationFiscalYear: xs::gYear [0..1]</text>
<text transform="matrix(0.85 0 0 1 348.3809 133.2485)" class="st2 st3">+ legalGrounds: xs::string [0..1]</text>
<text transform="matrix(0.85 0 0 1 348.3809 141.9907)" class="st2 st3">+ custodian: xs::string [0..1]</text>
<text transform="matrix(0.85 0 0 1 348.3809 150.7407)" class="st2 st3">+ notificationNumber: xs::string [0..1]</text>
<text transform="matrix(0.85 0 0 1 348.3809 159.4829)" class="st2 st3">+ finalNotificationNumber: xs::string [0..1]</text>
<text transform="matrix(0.85 0 0 1 348.3809 168.2251)" class="st2 st3">+ finalNotificationDate: xs::date [0..1]</text>
<text transform="matrix(0.85 0 0 1 348.3809 176.9595)" class="st2 st3">+ urbanPlanType: gml::CodeType [0..1]</text>
<text transform="matrix(0.85 0 0 1 348.3809 185.7017)" class="st2 st3">+ areaClassificationType: gml::CodeType [0..1]</text>
<text transform="matrix(0.85 0 0 1 348.3809 194.4517)" class="st2 st3">+ nominalArea: gml::MeasureType [0..1]</text>
<text transform="matrix(0.85 0 0 1 348.3809 203.1938)" class="st2 st3">+ prefecture: gml::CodeType [0..1]</text>
<text transform="matrix(0.85 0 0 1 348.3809 211.9282)" class="st2 st3">+ city: gml::CodeType [0..1]</text>
<text transform="matrix(0.85 0 0 1 348.3809 220.6782)" class="st2 st3">+ reference: xs::anyURI [0..1]</text>
<text transform="matrix(0.85 0 0 1 348.3809 229.4204)" class="st2 st3">+ reason: gml:StringOrRefType [0..1]</text>
<text transform="matrix(0.85 0 0 1 348.3809 238.1626)" class="st2 st3">+ note: gml:StringOrRefType [0..1]</text>
<text transform="matrix(0.85 0 0 1 348.3809 246.9126)" class="st2 st3">+ surveyYear: xs::gYear [0..1]</text>
<path class="st7" d="M133.5,73.6c0.8,0,1.5,0.7,1.5,1.5h0v58.1h0c0,0.9-0.7,1.5-1.5,1.5l0,0h0H42.6h0c-0.8,0-1.5-0.7-1.5-1.5h0V75.1
	c0-0.9,0.7-1.5,1.5-1.5l0,0H133.5L133.5,73.6L133.5,73.6z"/>
<path class="st8" d="M133.5,73.6c0.8,0,1.5,0.7,1.5,1.5h0v58.1h0c0,0.9-0.7,1.5-1.5,1.5l0,0h0H42.6h0c-0.8,0-1.5-0.7-1.5-1.5h0V75.1
	c0-0.9,0.7-1.5,1.5-1.5l0,0H133.5L133.5,73.6L133.5,73.6z"/>
<polygon class="st9" points="46.2,97.8 54.8,97.8 54.8,89 46.2,89 "/>
<polygon class="st10" points="46.2,97.8 54.8,97.8 54.8,89 46.2,89 "/>
<text transform="matrix(0.85 0 0 1 57.3652 96.2173)" class="st11 st2 st3">GMLに定義されたクラス</text>
<polygon class="st12" points="46.2,107.5 54.8,107.5 54.8,98.8 46.2,98.8 "/>
<polygon class="st10" points="46.2,107.5 54.8,107.5 54.8,98.8 46.2,98.8 "/>
<text transform="matrix(0.85 0 0 1 57.3652 105.9907)" class="st11 st2 st3">CityGMLに定義されたクラス</text>
<polygon class="st0" points="46.2,117.3 54.8,117.3 54.8,108.6 46.2,108.6 "/>
<polygon class="st10" points="46.2,117.3 54.8,117.3 54.8,108.6 46.2,108.6 "/>
<text transform="matrix(0.85 0 0 1 57.3652 115.7563)" class="st11 st2 st3">i-URに定義されたクラス</text>
<text transform="matrix(0.85 0 0 1 82.248 85.936)" class="st11 st4 st13">凡例</text>
<line class="st1" x1="286.4" y1="83.4" x2="345.3" y2="83.4"/>
<polyline class="st14" points="337.2,86.4 337.2,80.3 345.3,83.4 337.2,86.4 "/>
<polygon class="st1" points="345.3,83.4 337.2,80.3 337.2,86.4 "/>
<line class="st1" x1="182.8" y1="432.6" x2="236.6" y2="432.6"/>
<line class="st1" x1="340.8" y1="494.3" x2="236.6" y2="494.3"/>
<line class="st1" x1="236.6" y1="494.3" x2="236.6" y2="171.8"/>
<polyline class="st14" points="239.7,180 233.6,180 236.6,171.8 239.7,180 "/>
<polygon class="st1" points="239.7,180 233.6,180 236.6,171.8 "/>
<line class="st1" x1="182.3" y1="353.4" x2="236.6" y2="353.4"/>
<line class="st1" x1="228" y1="134.8" x2="228" y2="99.8"/>
<polyline class="st14" points="231.1,108 225,108 228,99.8 231.1,108 "/>
<polygon class="st1" points="231.1,108 225,108 228,99.8 "/>
<line class="st1" x1="184.3" y1="214.5" x2="236.6" y2="214.5"/>
<line class="st1" x1="181.8" y1="285.5" x2="236.6" y2="285.5"/>
<line class="st1" x1="282.4" y1="287.5" x2="236.6" y2="287.5"/>
<line class="st1" x1="316.9" y1="351.3" x2="236.6" y2="351.3"/>
<line class="st1" x1="296.6" y1="424.3" x2="236.6" y2="424.3"/>
</svg>
