<?xml version="1.0" encoding="utf-8"?>
<!-- Generator: Adobe Illustrator 27.5.0, SVG Export Plug-In . SVG Version: 6.00 Build 0)  -->
<svg version="1.1" id="レイヤー_1" xmlns="http://www.w3.org/2000/svg" xmlns:xlink="http://www.w3.org/1999/xlink" x="0px"
	 y="0px" viewBox="0 0 1026.8806152 1511.6365967" style="enable-background:new 0 0 1026.8806152 1511.6365967;"
	 xml:space="preserve">
<style type="text/css">
	.st0{opacity:0.5019608;fill-rule:evenodd;clip-rule:evenodd;fill:#969696;enable-background:new    ;}
	.st1{fill-rule:evenodd;clip-rule:evenodd;fill:#FFCCFF;}
	.st2{fill:none;stroke:#000000;stroke-width:1.5013124;stroke-linecap:round;stroke-linejoin:round;stroke-miterlimit:10;}
	.st3{font-family:'YuGothicUI-Regular';}
	.st4{font-size:9.7585306px;}
	.st5{font-family:'YuGothicUI-Bold';}
	.st6{font-size:10.2875204px;}
	.st7{fill:none;stroke:#000000;stroke-width:0.2788152;stroke-miterlimit:10;}
	.st8{font-family:'Meiryo';}
	.st9{font-size:7.5065618px;}
	.st10{font-family:'Meiryo-Bold';}
	.st11{fill-rule:evenodd;clip-rule:evenodd;fill:#F0F0F0;}
	.st12{fill:none;stroke:#D7D7D7;stroke-width:0.7506562;stroke-linecap:square;stroke-miterlimit:10;}
	.st13{fill-rule:evenodd;clip-rule:evenodd;fill:#CCFFCC;}
	.st14{fill:none;stroke:#000000;stroke-width:0.7506562;stroke-linecap:square;stroke-miterlimit:10;}
	.st15{fill:#003060;}
	.st16{fill-rule:evenodd;clip-rule:evenodd;fill:#FFFFCC;}
	.st17{font-size:12.010499px;}
	.st18{letter-spacing:-2.352941;}
	.st19{fill:none;stroke:#000000;stroke-width:1.5013124;stroke-linecap:round;stroke-linejoin:bevel;stroke-miterlimit:10;}
	.st20{fill-rule:evenodd;clip-rule:evenodd;fill:#FFFFFF;}
</style>
<path class="st0" d="M996.0799561,296.7668457c1.0374756,0,1.8786621,0.84021,1.8786621,1.8765869l0,0v48.0419922l0,0
	c0,1.036499-0.8411865,1.876709-1.8787842,1.876709l0,0h0.0001221H874.3408203h-0.0001221
	c-1.0374756,0-1.8786621-0.84021-1.8786621-1.876709l0,0v-48.0419922c0-1.036377,0.8411865-1.8765869,1.8787842-1.8765869l0,0
	H996.0799561L996.0799561,296.7668457L996.0799561,296.7668457z"/>
<path class="st1" d="M993.8255615,294.5148926c1.0374756,0,1.87854,0.84021,1.87854,1.8765869h0.0001221v48.0419922h-0.0001221
	c0,1.036499-0.8410645,1.876709-1.8786621,1.876709l0,0h0.0001221H872.0863037l0,0
	c-1.0375977,0-1.8787842-0.84021-1.8787842-1.876709h0.0001221v-48.0419922c0-1.036377,0.8410645-1.8765869,1.8786621-1.8765869l0,0
	H993.8255615L993.8255615,294.5148926L993.8255615,294.5148926z"/>
<path class="st2" d="M993.8255615,294.5148926c1.0374756,0,1.87854,0.84021,1.87854,1.8765869h0.0001221v48.0419922h-0.0001221
	c0,1.036499-0.8410645,1.876709-1.8786621,1.876709l0,0h0.0001221H872.0863037l0,0
	c-1.0375977,0-1.8787842-0.84021-1.8787842-1.876709h0.0001221v-48.0419922c0-1.036377,0.8410645-1.8765869,1.8786621-1.8765869l0,0
	H993.8255615L993.8255615,294.5148926L993.8255615,294.5148926z"/>
<text transform="matrix(0.85 0 0 1 901.0175781 309.5327148)" class="st3 st4">«FeatureType»</text>
<text transform="matrix(0.85 0 0 1 913.0410156 322.2983398)" class="st5 st4">urf::Zone</text>
<line class="st2" x1="870.2076416" y1="328.2944336" x2="995.7042236" y2="328.2944336"/>
<text transform="matrix(0.85 0 0 1 873.9628906 341.8061523)" class="st3 st4">+ </text>
<text transform="matrix(0.85 0 0 1 890.4941406 341.8061523)" class="st3 st4">location: xs::string [0..1]</text>
<path class="st0" d="M842.7788086,423.6278076c1.0374756,0,1.87854,0.8400879,1.87854,1.8765869h0.0001221v85.5748291h-0.0001221
	c0,1.036377-0.8410645,1.876709-1.8786621,1.8765869c0,0.0001221,0,0,0,0h0.0001221H655.6611328v0.0001221
	c-1.0375977-0.0001221-1.8787842-0.840332-1.8787842-1.876709h0.0001221v-85.5748291
	c0-1.036499,0.8410645-1.8765869,1.8786621-1.8765869l0,0H842.7788086L842.7788086,423.6278076L842.7788086,423.6278076z"/>
<path class="st1" d="M840.524292,421.3758545c1.0375977,0,1.8786621,0.8400879,1.8786621,1.8765869h0.0001221v85.5748291h-0.0001221
	c0,1.036377-0.8410645,1.876709-1.8786621,1.8765869c0,0.0001221,0,0,0,0l0,0H653.4067383l-0.0001221,0.0001221
	c-1.0374756-0.0001221-1.8786621-0.840332-1.8786621-1.876709l0,0v-85.5748291c0-1.036499,0.8411865-1.876709,1.8787842-1.8765869
	v-0.0001221H840.524292V421.3758545L840.524292,421.3758545z"/>
<path class="st2" d="M840.524292,421.3758545c1.0375977,0,1.8786621,0.8400879,1.8786621,1.8765869h0.0001221v85.5748291h-0.0001221
	c0,1.036377-0.8410645,1.876709-1.8786621,1.8765869c0,0.0001221,0,0,0,0l0,0H653.4067383l-0.0001221,0.0001221
	c-1.0374756-0.0001221-1.8786621-0.840332-1.8786621-1.876709l0,0v-85.5748291c0-1.036499,0.8411865-1.876709,1.8787842-1.8765869
	v-0.0001221H840.524292V421.3758545L840.524292,421.3758545z"/>
<text transform="matrix(0.85 0 0 1 715.4003906 436.3842773)" class="st3 st4">«FeatureType»</text>
<text transform="matrix(0.85 0 -0.3165385 0.9485797 692.0944214 449.1654663)" class="st3 st6">u</text>
<text transform="matrix(0.85 0 -0.3165385 0.9485797 692.0944214 449.1654663)" class="st7 st3 st6">u</text>
<text transform="matrix(0.85 0 -0.3165385 0.9485797 698.1022339 449.1654663)" class="st3 st6">r</text>
<text transform="matrix(0.85 0 -0.3165385 0.9485797 698.1022339 449.1654663)" class="st7 st3 st6">r</text>
<text transform="matrix(0.85 0 -0.3165385 0.9485797 701.8502808 449.1654663)" class="st3 st6">f</text>
<text transform="matrix(0.85 0 -0.3165385 0.9485797 701.8502808 449.1654663)" class="st7 st3 st6">f</text>
<text transform="matrix(0.85 0 -0.3165385 0.9485797 704.8580933 449.1654663)" class="st3 st6">::</text>
<text transform="matrix(0.85 0 -0.3165385 0.9485797 704.8580933 449.1654663)" class="st7 st3 st6">::</text>
<text transform="matrix(0.85 0 -0.3165385 0.9485797 709.3483276 449.1654663)" class="st3 st6">_</text>
<text transform="matrix(0.85 0 -0.3165385 0.9485797 709.3483276 449.1654663)" class="st7 st3 st6">_</text>
<text transform="matrix(0.85 0 -0.3165385 0.9485797 713.1100464 449.1654663)" class="st3 st6">A</text>
<text transform="matrix(0.85 0 -0.3165385 0.9485797 713.1100464 449.1654663)" class="st7 st3 st6">A</text>
<text transform="matrix(0.85 0 -0.3165385 0.9485797 719.869812 449.1654663)" class="st3 st6">b</text>
<text transform="matrix(0.85 0 -0.3165385 0.9485797 719.869812 449.1654663)" class="st7 st3 st6">b</text>
<text transform="matrix(0.85 0 -0.3165385 0.9485797 725.8776245 449.1654663)" class="st3 st6">s</text>
<text transform="matrix(0.85 0 -0.3165385 0.9485797 725.8776245 449.1654663)" class="st7 st3 st6">s</text>
<text transform="matrix(0.85 0 -0.3165385 0.9485797 730.3834839 449.1654663)" class="st3 st6">t</text>
<text transform="matrix(0.85 0 -0.3165385 0.9485797 730.3834839 449.1654663)" class="st7 st3 st6">t</text>
<text transform="matrix(0.85 0 -0.3165385 0.9485797 734.135437 449.1654663)" class="st3 st6">r</text>
<text transform="matrix(0.85 0 -0.3165385 0.9485797 734.135437 449.1654663)" class="st7 st3 st6">r</text>
<text transform="matrix(0.85 0 -0.3165385 0.9485797 737.8815308 449.1654663)" class="st3 st6">a</text>
<text transform="matrix(0.85 0 -0.3165385 0.9485797 737.8815308 449.1654663)" class="st7 st3 st6">a</text>
<text transform="matrix(0.85 0 -0.3165385 0.9485797 743.135437 449.1654663)" class="st3 st6">c</text>
<text transform="matrix(0.85 0 -0.3165385 0.9485797 743.135437 449.1654663)" class="st7 st3 st6">c</text>
<text transform="matrix(0.85 0 -0.3165385 0.9485797 747.6491089 449.1654663)" class="st3 st6">t</text>
<text transform="matrix(0.85 0 -0.3165385 0.9485797 747.6491089 449.1654663)" class="st7 st3 st6">t</text>
<text transform="matrix(0.85 0 -0.3165385 0.9485797 751.3991089 449.1654663)" class="st3 st6">D</text>
<text transform="matrix(0.85 0 -0.3165385 0.9485797 751.3991089 449.1654663)" class="st7 st3 st6">D</text>
<text transform="matrix(0.85 0 -0.3165385 0.9485797 758.1705933 449.1654663)" class="st3 st6">i</text>
<text transform="matrix(0.85 0 -0.3165385 0.9485797 758.1705933 449.1654663)" class="st7 st3 st6">i</text>
<text transform="matrix(0.85 0 -0.3165385 0.9485797 760.4284058 449.1654663)" class="st3 st6">s</text>
<text transform="matrix(0.85 0 -0.3165385 0.9485797 760.4284058 449.1654663)" class="st7 st3 st6">s</text>
<text transform="matrix(0.85 0 -0.3165385 0.9485797 764.9362183 449.1654663)" class="st3 st6">t</text>
<text transform="matrix(0.85 0 -0.3165385 0.9485797 764.9362183 449.1654663)" class="st7 st3 st6">t</text>
<text transform="matrix(0.85 0 -0.3165385 0.9485797 768.6862183 449.1654663)" class="st3 st6">r</text>
<text transform="matrix(0.85 0 -0.3165385 0.9485797 768.6862183 449.1654663)" class="st7 st3 st6">r</text>
<text transform="matrix(0.85 0 -0.3165385 0.9485797 772.4342651 449.1654663)" class="st3 st6">i</text>
<text transform="matrix(0.85 0 -0.3165385 0.9485797 772.4342651 449.1654663)" class="st7 st3 st6">i</text>
<text transform="matrix(0.85 0 -0.3165385 0.9485797 774.6920776 449.1654663)" class="st3 st6">c</text>
<text transform="matrix(0.85 0 -0.3165385 0.9485797 774.6920776 449.1654663)" class="st7 st3 st6">c</text>
<text transform="matrix(0.85 0 -0.3165385 0.9485797 779.2057495 449.1654663)" class="st3 st6">t</text>
<text transform="matrix(0.85 0 -0.3165385 0.9485797 779.2057495 449.1654663)" class="st7 st3 st6">t</text>
<text transform="matrix(0.85 0 -0.3165385 0.9485797 782.9557495 449.1654663)" class="st3 st6">P</text>
<text transform="matrix(0.85 0 -0.3165385 0.9485797 782.9557495 449.1654663)" class="st7 st3 st6">P</text>
<text transform="matrix(0.85 0 -0.3165385 0.9485797 788.963562 449.1654663)" class="st3 st6">l</text>
<text transform="matrix(0.85 0 -0.3165385 0.9485797 788.963562 449.1654663)" class="st7 st3 st6">l</text>
<text transform="matrix(0.85 0 -0.3165385 0.9485797 791.2213745 449.1654663)" class="st3 st6">a</text>
<text transform="matrix(0.85 0 -0.3165385 0.9485797 791.2213745 449.1654663)" class="st7 st3 st6">a</text>
<text transform="matrix(0.85 0 -0.3165385 0.9485797 796.4752808 449.1654663)" class="st3 st6">n</text>
<text transform="matrix(0.85 0 -0.3165385 0.9485797 796.4752808 449.1654663)" class="st7 st3 st6">n</text>
<line class="st2" x1="651.5279541" y1="455.1552734" x2="842.4030762" y2="455.1552734"/>
<text transform="matrix(0.85 0 0 1 655.2832031 468.6733398)" class="st3 st4">+ </text>
<text transform="matrix(0.85 0 0 1 671.8222656 468.6733398)" class="st3 st4">objectives: gml:StringOrRefType [0..1]</text>
<text transform="matrix(0.85 0 0 1 655.2832031 481.4311523)" class="st3 st4">+ </text>
<text transform="matrix(0.85 0 0 1 671.8222656 481.4311523)" class="st3 st4">policy: gml:StringOrRefType [0..1]</text>
<path class="st0" d="M884.1099854,768.9296875c1.0374756,0,1.87854,0.84021,1.87854,1.8765869h0.0001221v99.8371582
	l-0.0001221,0.0002441c0,1.0362549-0.8410645,1.8764648-1.8786621,1.8764648l0,0h0.0001221H595.5429688l0,0
	c-1.0375977,0-1.8786621-0.84021-1.8786621-1.876709l0,0v-99.8371582c0-1.036377,0.8410645-1.876709,1.8786621-1.8765869v-0.0001221
	h288.5670166V768.9296875L884.1099854,768.9296875z"/>
<path class="st1" d="M881.8555908,766.6777344c1.0374756,0,1.87854,0.84021,1.87854,1.8765869h0.0001221v99.8371582
	l-0.0001221,0.0001221c0,1.036377-0.8410645,1.8765869-1.8786621,1.8765869l0,0h0.0001221H593.2885742l0,0
	c-1.0375977,0-1.8787842-0.84021-1.8787842-1.876709h0.0001221v-99.8371582c0-1.036377,0.8410645-1.876709,1.8786621-1.8765869
	v-0.0001221h288.5670166V766.6777344L881.8555908,766.6777344z"/>
<path class="st2" d="M881.8555908,766.6777344c1.0374756,0,1.87854,0.84021,1.87854,1.8765869h0.0001221v99.8371582
	l-0.0001221,0.0001221c0,1.036377-0.8410645,1.8765869-1.8786621,1.8765869l0,0h0.0001221H593.2885742l0,0
	c-1.0375977,0-1.8787842-0.84021-1.8787842-1.876709h0.0001221v-99.8371582c0-1.036377,0.8410645-1.876709,1.8786621-1.8765869
	v-0.0001221h288.5670166V766.6777344L881.8555908,766.6777344z"/>
<text transform="matrix(0.85 0 0 1 705.6347656 781.6894531)" class="st3 st4">«FeatureType»</text>
<text transform="matrix(0.85 0 0 1 673.3144531 794.4550781)" class="st5 st4">urf::DistrictDevelopmentPlan</text>
<line class="st2" x1="591.4099121" y1="800.4571533" x2="883.7342529" y2="800.4571533"/>
<text transform="matrix(0.85 0 0 1 595.1660156 813.9785156)" class="st3 st4">+ </text>
<text transform="matrix(0.85 0 0 1 611.6972656 813.9785156)" class="st3 st4">activityRestrictionInFarmland: gml:StringOrRefType [0..1]</text>
<text transform="matrix(0.85 0 0 1 595.1660156 826.7285156)" class="st3 st4">+ </text>
<text transform="matrix(0.85 0 0 1 611.6972656 826.7285156)" class="st3 st4">buildingRestrictions: gml:StringOrRefType [0..1]</text>
<text transform="matrix(0.85 0 0 1 595.1660156 839.4941406)" class="st3 st4">+ </text>
<text transform="matrix(0.85 0 0 1 611.6972656 839.4941406)" class="st3 st4">districtFacilitiesAllocation: gml:StringOrRefType [0..1]</text>
<text transform="matrix(0.85 0 0 1 595.1660156 852.2597656)" class="st3 st4">+ </text>
<text transform="matrix(0.85 0 0 1 611.6972656 852.2597656)" class="st3 st4">landuseRestrictions: gml:StringOrRefType [0..1]</text>
<text transform="matrix(0.85 0 0 1 595.1660156 865.0253906)" class="st3 st4">+ </text>
<text transform="matrix(0.85 0 0 1 611.6972656 865.0253906)" class="st3 st4">urbanGreenSpaceConservation: gml:StringOrRefType [0..1]</text>
<path class="st0" d="M493.3421631,498.6934814c1.0375366,0,1.8786621,0.8400879,1.8786621,1.8765869l0.000061-0.0001221v60.8032227
	h-0.000061c0,1.036377-0.8411255,1.876709-1.8786621,1.876709l0,0l0,0H242.3490448l0,0
	c-1.0375671,0-1.8786926-0.840332-1.8786926-1.876709l0,0v-60.8032227c0-1.036377,0.8411255-1.8765869,1.8786926-1.8764648
	v-0.0001221h250.9931183V498.6934814L493.3421631,498.6934814z"/>
<path class="st1" d="M491.0877686,496.4414062c1.0375366,0,1.8786011,0.84021,1.8786011,1.8765869h0.000061v60.8032227h-0.000061
	c0,1.036377-0.8410645,1.876709-1.8786621,1.8765869c0,0.0001221,0,0,0,0h0.000061H240.0946198v0.0001221
	c-1.0375977-0.0001221-1.8786926-0.840332-1.8786926-1.876709l0,0v-60.8032227c0-1.036377,0.841095-1.8765869,1.8786926-1.8765869
	l0,0H491.0877686L491.0877686,496.4414062L491.0877686,496.4414062z"/>
<path class="st2" d="M491.0877686,496.4414062c1.0375366,0,1.8786011,0.84021,1.8786011,1.8765869h0.000061v60.8032227h-0.000061
	c0,1.036377-0.8410645,1.876709-1.8786621,1.8765869c0,0.0001221,0,0,0,0h0.000061H240.0946198v0.0001221
	c-1.0375977-0.0001221-1.8786926-0.840332-1.8786926-1.876709l0,0v-60.8032227c0-1.036377,0.841095-1.8765869,1.8786926-1.8765869
	l0,0H491.0877686L491.0877686,496.4414062L491.0877686,496.4414062z"/>
<text transform="matrix(0.85 0 0 1 333.6503906 511.4545898)" class="st3 st4">«FeatureType»</text>
<text transform="matrix(0.85 0 0 1 331.4003906 524.2202148)" class="st5 st4">urf::DistrictPlan</text>
<line class="st2" x1="238.2159271" y1="530.2208252" x2="492.9664307" y2="530.2208252"/>
<text transform="matrix(0.85 0 0 1 241.9707031 543.7285156)" class="st3 st4">+ </text>
<text transform="matrix(0.85 0 0 1 258.5019531 543.7285156)" class="st3 st4">facilityAllocation: gml:StringOrRefType [0..1]</text>
<text transform="matrix(0.85 0 0 1 241.9707031 556.4941406)" class="st3 st4">+ </text>
<text transform="matrix(0.85 0 0 1 258.5019531 556.4941406)" class="st3 st4">landUsePolicy: gml:StringOrRefType [0..1]</text>
<path class="st0" d="M497.0995483,657.0819092c1.0375366,0,1.8786621,0.8400879,1.8786621,1.8765869l0.000061-0.0001221v55.548584
	l-0.000061,0.0001221c0,1.036377-0.8411255,1.8765869-1.8786621,1.8765869l0,0l0,0H197.2604675h-0.0000153
	c-1.0375824,0-1.8786926-0.84021-1.8786926-1.876709h0.0000153v-55.548584c0-1.036377,0.841095-1.8765869,1.8786926-1.8764648
	v-0.0001221h299.8390808V657.0819092L497.0995483,657.0819092z"/>
<path class="st1" d="M494.8451538,654.8299561c1.0375366,0,1.8786011,0.8400879,1.8786011,1.8765869l0.000061-0.0001221v55.548584
	h-0.000061c0,1.036499-0.8410645,1.876709-1.8786621,1.876709l0,0h0.000061H195.0060425h-0.0000305
	c-1.0375671,0-1.8786926-0.84021-1.8786926-1.876709h0.0000305v-55.548584c0-1.036377,0.841095-1.8765869,1.8786926-1.8764648
	v-0.0001221h299.8391113V654.8299561L494.8451538,654.8299561z"/>
<path class="st2" d="M494.8451538,654.8299561c1.0375366,0,1.8786011,0.8400879,1.8786011,1.8765869l0.000061-0.0001221v55.548584
	h-0.000061c0,1.036499-0.8410645,1.876709-1.8786621,1.876709l0,0h0.000061H195.0060425h-0.0000305
	c-1.0375671,0-1.8786926-0.84021-1.8786926-1.876709h0.0000305v-55.548584c0-1.036377,0.841095-1.8765869,1.8786926-1.8764648
	v-0.0001221h299.8391113V654.8299561L494.8451538,654.8299561z"/>
<text transform="matrix(0.85 0 0 1 313.3613281 669.8457031)" class="st3 st4">«FeatureType»</text>
<text transform="matrix(0.85 0 0 1 205.9003906 682.6113281)" class="st5 st4">urf::HistoricSceneryMaintenanceAndImprovementDistrictPlan</text>
<line class="st2" x1="193.1273499" y1="688.609375" x2="496.7238159" y2="688.609375"/>
<text transform="matrix(0.85 0 0 1 196.8847656 702.1191406)" class="st3 st4">+ </text>
<text transform="matrix(0.85 0 0 1 213.4160156 702.1191406)" class="st3 st4">landUsePolicy: gml:StringOrRefType [0..1]</text>
<path class="st0" d="M688.7260742,627.055542c1.0375977,0,1.8786621,0.840332,1.8786621,1.876709l0,0v40.5354004l0,0
	c0,1.036377-0.8410645,1.876709-1.8786621,1.876709l0,0l0,0H550.4544678h-0.0001221
	c-1.0374756,0-1.8786621-0.840332-1.8786621-1.876709l0,0V628.932251c0-1.036377,0.8411865-1.876709,1.8787842-1.876709l0,0
	H688.7260742L688.7260742,627.055542L688.7260742,627.055542z"/>
<path class="st1" d="M686.4716797,624.8035889c1.0374756,0,1.8786621,0.84021,1.8786621,1.876709l0,0v40.5354004l0,0
	c0,1.036377-0.8411865,1.876709-1.8787842,1.8765869c0,0.0001221,0,0,0,0h0.0001221H548.1999512v0.0001221
	c-1.0375977-0.0001221-1.8786621-0.840332-1.8786621-1.876709l0,0v-40.5354004c0-1.036499,0.8410645-1.876709,1.8786621-1.876709
	l0,0H686.4716797L686.4716797,624.8035889L686.4716797,624.8035889z"/>
<path class="st2" d="M686.4716797,624.8035889c1.0374756,0,1.8786621,0.84021,1.8786621,1.876709l0,0v40.5354004l0,0
	c0,1.036377-0.8411865,1.876709-1.8787842,1.8765869c0,0.0001221,0,0,0,0h0.0001221H548.1999512v0.0001221
	c-1.0375977-0.0001221-1.8786621-0.840332-1.8786621-1.876709l0,0v-40.5354004c0-1.036499,0.8410645-1.876709,1.8786621-1.876709
	l0,0H686.4716797L686.4716797,624.8035889L686.4716797,624.8035889z"/>
<text transform="matrix(0.85 0 0 1 585.4003906 639.8144531)" class="st3 st4">«FeatureType»</text>
<text transform="matrix(0.85 0 0 1 571.8691406 652.5800781)" class="st5 st4">urf::RuralDistrictPlan</text>
<path class="st0" d="M684.96875,1159.270874c1.0374756,0,1.8786621,0.84021,1.8786621,1.876709v-0.0001221v291.2546387l0,0
	c0,1.036377-0.8411865,1.876709-1.8787842,1.8765869c0,0.0001221,0,0,0,0h0.0001221H407.6738586l-0.0000305,0.0001221
	c-1.0375671-0.0001221-1.8786926-0.840332-1.8786926-1.876709h0.0000305v-291.2546387
	c0-1.036377,0.841095-1.876709,1.8786926-1.8765869v-0.0001221H684.96875V1159.270874L684.96875,1159.270874z"/>
<path class="st1" d="M682.7142334,1157.0189209c1.0375977,0,1.8786621,0.84021,1.8786621,1.8765869h0.0001221v291.2545166
	l-0.0001221,0.0001221c0,1.036377-0.8410645,1.876709-1.8786621,1.8765869c0,0.0001221,0,0,0,0l0,0H405.4194336
	l-0.0000305,0.0001221c-1.0375671-0.0001221-1.8786926-0.840332-1.8786926-1.8768311h0.0000305v-291.2545166
	c0-1.036377,0.841095-1.876709,1.8786926-1.8765869v-0.0001221h277.2947998V1157.0189209L682.7142334,1157.0189209z"/>
<path class="st2" d="M682.7142334,1157.0189209c1.0375977,0,1.8786621,0.84021,1.8786621,1.8765869h0.0001221v291.2545166
	l-0.0001221,0.0001221c0,1.036377-0.8410645,1.876709-1.8786621,1.8765869c0,0.0001221,0,0,0,0l0,0H405.4194336
	l-0.0000305,0.0001221c-1.0375671-0.0001221-1.8786926-0.840332-1.8786926-1.8768311h0.0000305v-291.2545166
	c0-1.036377,0.841095-1.876709,1.8786926-1.8765869v-0.0001221h277.2947998V1157.0189209L682.7142334,1157.0189209z"/>
<text transform="matrix(0.85 0 0 1 512.5019531 1172.0332031)" class="st3 st4">«FeatureType»</text>
<text transform="matrix(0.85 0 0 1 520.0175781 1184.7988281)" class="st5 st4">urf::District</text>
<line class="st2" x1="403.540741" y1="1190.7983398" x2="684.5930176" y2="1190.7983398"/>
<text transform="matrix(0.85 0 0 1 407.2988281 1204.3222656)" class="st3 st4">+ </text>
<text transform="matrix(0.85 0 0 1 423.8300781 1204.3222656)" class="st3 st4">buildingDesignRestriction: gml:StringOrRefType [0..1]</text>
<text transform="matrix(0.85 0 0 1 407.2988281 1217.0722656)" class="st3 st4">+ </text>
<text transform="matrix(0.85 0 0 1 423.8300781 1217.0722656)" class="st3 st4">buildingRestrictions: gml:StringOrRefType [0..1]</text>
<text transform="matrix(0.85 0 0 1 407.2988281 1229.8378906)" class="st3 st4">+ </text>
<text transform="matrix(0.85 0 0 1 423.8300781 1229.8378906)" class="st3 st4">fenceGuideline: gml:StringOrRefType [0..1]</text>
<text transform="matrix(0.85 0 0 1 407.2988281 1242.6035156)" class="st3 st4">+ </text>
<text transform="matrix(0.85 0 0 1 423.8300781 1242.6035156)" class="st3 st4">maximumBuildingCoverageRate: xs::double [0..1]</text>
<text transform="matrix(0.85 0 0 1 407.2988281 1255.3535156)" class="st3 st4">+ </text>
<text transform="matrix(0.85 0 0 1 423.8300781 1255.3535156)" class="st3 st4">maximumBuildingHeight: gml::LengthType [0..1]</text>
<text transform="matrix(0.85 0 0 1 407.2988281 1268.1191406)" class="st3 st4">+ </text>
<text transform="matrix(0.85 0 0 1 423.8300781 1268.1191406)" class="st3 st4">maximumFloorAreaRate: xs::double [0..1]</text>
<text transform="matrix(0.85 0 0 1 407.2988281 1280.8847656)" class="st3 st4">+ </text>
<text transform="matrix(0.85 0 0 1 423.8300781 1280.8847656)" class="st3 st4">minimumBuildingArea: gml::MeasureType [0..1]</text>
<text transform="matrix(0.85 0 0 1 407.2988281 1293.6425781)" class="st3 st4">+ </text>
<text transform="matrix(0.85 0 0 1 423.8300781 1293.6425781)" class="st3 st4">minimumBuildingCoverageRate: xs::double [0..1]</text>
<text transform="matrix(0.85 0 0 1 407.2988281 1306.4003906)" class="st3 st4">+ </text>
<text transform="matrix(0.85 0 0 1 423.8300781 1306.4003906)" class="st3 st4">minimumBuildingHeight: gml::LengthType [0..1]</text>
<text transform="matrix(0.85 0 0 1 407.2988281 1319.1660156)" class="st3 st4">+ </text>
<text transform="matrix(0.85 0 0 1 423.8300781 1319.1660156)" class="st3 st4">minimumFloorAreaRate: xs::double [0..1]</text>
<text transform="matrix(0.85 0 0 1 407.2988281 1331.9238281)" class="st3 st4">+ </text>
<text transform="matrix(0.85 0 0 1 423.8300781 1331.9238281)" class="st3 st4">minimumFloorHeight: gml::LengthType [0..1]</text>
<text transform="matrix(0.85 0 0 1 407.2988281 1344.6894531)" class="st3 st4">+ </text>
<text transform="matrix(0.85 0 0 1 423.8300781 1344.6894531)" class="st3 st4">minimumFrontageRate: xs::double [0..1]</text>
<text transform="matrix(0.85 0 0 1 407.2988281 1357.4472656)" class="st3 st4">+ </text>
<text transform="matrix(0.85 0 0 1 423.8300781 1357.4472656)" class="st3 st4">minimumGreeningRate: xs::double [0..1]</text>
<text transform="matrix(0.85 0 0 1 407.2988281 1370.2050781)" class="st3 st4">+ </text>
<text transform="matrix(0.85 0 0 1 423.8300781 1370.2050781)" class="st3 st4">minimumGroundHeight: gml::LengthType [0..1]</text>
<text transform="matrix(0.85 0 0 1 407.2988281 1382.9707031)" class="st3 st4">+ </text>
<text transform="matrix(0.85 0 0 1 423.8300781 1382.9707031)" class="st3 st4">minimumSiteArea: gml::MeasureType [0..1]</text>
<text transform="matrix(0.85 0 0 1 407.2988281 1395.7363281)" class="st3 st4">+ </text>
<text transform="matrix(0.85 0 0 1 423.8300781 1395.7363281)" class="st3 st4">restrictionsForFireProtection: gml:StringOrRefType [0..1]</text>
<text transform="matrix(0.85 0 0 1 407.2988281 1408.4863281)" class="st3 st4">+ </text>
<text transform="matrix(0.85 0 0 1 423.8300781 1408.4863281)" class="st3 st4">restrictionsForNoiseProtection: gml:StringOrRefType [0..1]</text>
<text transform="matrix(0.85 0 0 1 407.2988281 1421.2519531)" class="st3 st4">+ </text>
<text transform="matrix(0.85 0 0 1 423.8300781 1421.2519531)" class="st3 st4">setbackSize: gml:StringOrRefType [0..1]</text>
<text transform="matrix(0.85 0 0 1 407.2988281 1434.0175781)" class="st3 st4">+ </text>
<text transform="matrix(0.85 0 0 1 423.8300781 1434.0175781)" class="st3 st4">structurePlacementRestriction: gml:StringOrRefType [0..1]</text>
<text transform="matrix(0.85 0 0 1 407.2988281 1446.7753906)" class="st3 st4">+ </text>
<text transform="matrix(0.85 0 0 1 423.8300781 1446.7753906)" class="st3 st4">useRestrictions: gml:StringOrRefType [0..1]</text>
<path class="st0" d="M567.7384033,732.1474609c1.0374756,0,1.8786621,0.84021,1.8786621,1.8765869l0,0v61.553833v0.0001221
	c0,1.036377-0.8411865,1.8765869-1.8787842,1.8764648c0,0.0001221,0,0,0,0h0.0001221H204.775238l-0.0000305,0.0001221
	c-1.0375671-0.0001221-1.8786926-0.84021-1.8786926-1.876709h0.0000305v-61.553833
	c0-1.036377,0.841095-1.876709,1.8786926-1.8765869v-0.0001221h362.9631653V732.1474609L567.7384033,732.1474609z"/>
<path class="st1" d="M565.4840088,729.8955078c1.0374756,0,1.87854,0.84021,1.87854,1.8765869h0.0001221v61.553833
	l-0.0001221,0.0001221c0,1.036377-0.8410645,1.8765869-1.8786621,1.8764648c0,0.0001221,0,0,0,0h0.0001221H202.5207977
	l-0.0000153,0.0001221c-1.0375671-0.0001221-1.8786926-0.84021-1.8786926-1.876709h0.0000305v-61.553833
	c0-1.036377,0.841095-1.876709,1.8786774-1.8765869v-0.0001221h362.9631958V729.8955078L565.4840088,729.8955078z"/>
<path class="st2" d="M565.4840088,729.8955078c1.0374756,0,1.87854,0.84021,1.87854,1.8765869h0.0001221v61.553833
	l-0.0001221,0.0001221c0,1.036377-0.8410645,1.8765869-1.8786621,1.8764648c0,0.0001221,0,0,0,0h0.0001221H202.5207977
	l-0.0000153,0.0001221c-1.0375671-0.0001221-1.8786926-0.84021-1.8786926-1.876709h0.0000305v-61.553833
	c0-1.036377,0.841095-1.876709,1.8786774-1.8765869v-0.0001221h362.9631958V729.8955078L565.4840088,729.8955078z"/>
<text transform="matrix(0.85 0 0 1 352.4394531 744.9160156)" class="st3 st4">«FeatureType»</text>
<text transform="matrix(0.85 0 0 1 268.2753906 757.6816406)" class="st5 st4">urf::DisasterPreventionBlockImprovementZonePlan</text>
<line class="st2" x1="200.6421204" y1="763.6749268" x2="567.3626709" y2="763.6749268"/>
<text transform="matrix(0.85 0 0 1 204.4003906 777.1894531)" class="st3 st4">+ </text>
<text transform="matrix(0.85 0 0 1 220.9316406 777.1894531)" class="st3 st4">specifiedZonalDisasterPreventionFacilitiesAllocation: gml:StringOrRefType [0..1]</text>
<text transform="matrix(0.85 0 0 1 204.4003906 789.9550781)" class="st3 st4">+ </text>
<text transform="matrix(0.85 0 0 1 220.9316406 789.9550781)" class="st3 st4">zonalDisasterPreventionFacilitiesAllocation: gml:StringOrRefType [0..1]</text>
<path class="st0" d="M684.96875,987.3706055c1.0374756,0,1.8786621,0.84021,1.8786621,1.8766479v-0.000061v39.78479v0.0001221
	c0,1.0362549-0.8411865,1.8765869-1.8787842,1.8764648c0,0.0001221,0,0,0,0h0.0001221H302.4671631l-0.0000305,0.0001221
	c-1.0375671-0.0001221-1.8786926-0.840332-1.8786926-1.876709h0.0000305v-39.78479
	c0-1.036377,0.841095-1.8766479,1.8786926-1.8765869v-0.000061H684.96875V987.3706055L684.96875,987.3706055z"/>
<path class="st1" d="M682.7142334,985.1186523c1.0375977,0,1.8786621,0.84021,1.8786621,1.8766479l0.0001221-0.0001221v39.7848511
	h-0.0001221c0,1.036377-0.8410645,1.876709-1.8786621,1.8765869c0,0.0001221,0,0,0,0l0,0H300.212738l-0.0000305,0.0001221
	c-1.0375671-0.0001221-1.8786926-0.840332-1.8786926-1.876709h0.0000305v-39.7848511
	c0-1.0363159,0.841095-1.8765869,1.8786926-1.8765259v-0.000061h382.5014954V985.1186523L682.7142334,985.1186523z"/>
<path class="st2" d="M682.7142334,985.1186523c1.0375977,0,1.8786621,0.84021,1.8786621,1.8766479l0.0001221-0.0001221v39.7848511
	h-0.0001221c0,1.036377-0.8410645,1.876709-1.8786621,1.8765869c0,0.0001221,0,0,0,0l0,0H300.212738l-0.0000305,0.0001221
	c-1.0375671-0.0001221-1.8786926-0.840332-1.8786926-1.876709h0.0000305v-39.7848511
	c0-1.0363159,0.841095-1.8765869,1.8786926-1.8765259v-0.000061h382.5014954V985.1186523L682.7142334,985.1186523z"/>
<text transform="matrix(0.85 0 0 1 459.9003906 1000.1347656)" class="st3 st4">«FeatureType»</text>
<text transform="matrix(0.85 0 0 1 311.1035156 1012.8925781)" class="st5 st4">urf::DistrictImprovementPlanForDisasterPreventionBlockImprovementZonePlan</text>
<path class="st0" d="M688.7260742,1039.1658936c1.0375977,0,1.8786621,0.84021,1.8786621,1.876709v-0.0001221v39.78479l0,0
	c0,1.036377-0.8410645,1.876709-1.8786621,1.8765869c0,0.0001221,0,0,0,0l0,0H430.2181702l-0.000061,0.0001221
	c-1.0375366-0.0001221-1.8786926-0.840332-1.8786926-1.876709h0.000061v-39.78479c0-1.036377,0.841095-1.876709,1.8786926-1.8765869
	v-0.0001221h258.5079041V1039.1658936L688.7260742,1039.1658936z"/>
<path class="st1" d="M686.4716797,1036.9139404c1.0374756,0,1.8786621,0.84021,1.8786621,1.8765869l0,0v39.78479l0,0
	c0,1.036377-0.8411865,1.876709-1.8787842,1.8765869c0,0.0001221,0,0,0,0h0.0001221H427.9637146l-0.0000305,0.0001221
	c-1.0375366-0.0001221-1.8786926-0.840332-1.8786926-1.876709h0.000061v-39.78479c0-1.036377,0.841095-1.876709,1.8786621-1.8765869
	v-0.0001221h258.5079651V1036.9139404L686.4716797,1036.9139404z"/>
<path class="st2" d="M686.4716797,1036.9139404c1.0374756,0,1.8786621,0.84021,1.8786621,1.8765869l0,0v39.78479l0,0
	c0,1.036377-0.8411865,1.876709-1.8787842,1.8765869c0,0.0001221,0,0,0,0h0.0001221H427.9637146l-0.0000305,0.0001221
	c-1.0375366-0.0001221-1.8786926-0.840332-1.8786926-1.876709h0.000061v-39.78479c0-1.036377,0.841095-1.876709,1.8786621-1.8765869
	v-0.0001221h258.5079651V1036.9139404L686.4716797,1036.9139404z"/>
<text transform="matrix(0.85 0 0 1 525.2832031 1051.9238281)" class="st3 st4">«FeatureType»</text>
<text transform="matrix(0.85 0 0 1 457.6425781 1064.6894531)" class="st5 st4">urf::SpecifiedBuildingZoneImprovementPlan</text>
<path class="st0" d="M545.1940918,867.265625c1.0375977,0,1.8786621,0.84021,1.8786621,1.8765869l0,0v48.7926025v0.0001221
	c0,1.036377-0.8410645,1.876709-1.8786621,1.8764648c0,0.0002441,0,0,0,0l0,0H257.3786011l-0.000061,0.0002441
	c-1.0375366-0.0002441-1.8786774-0.840332-1.8786774-1.8768311h0.0000305v-48.7926025
	c0-1.036377,0.8411102-1.876709,1.8787079-1.8765869v-0.0001221h287.8154907V867.265625L545.1940918,867.265625z"/>
<path class="st1" d="M542.9396973,865.0136719c1.0374756,0,1.8786621,0.84021,1.8786621,1.8765869l0,0v48.7926025v0.0001221
	c0,1.036377-0.8411865,1.8765869-1.8787842,1.8764648c0,0.0001221,0,0,0,0h0.0001221H255.1241608l-0.0000305,0.0001221
	c-1.0375671-0.0001221-1.8786926-0.84021-1.8786926-1.876709h0.0000305v-48.7926025
	c0-1.036377,0.841095-1.876709,1.8786926-1.8765869v-0.0001221h287.8155518V865.0136719L542.9396973,865.0136719z"/>
<path class="st2" d="M542.9396973,865.0136719c1.0374756,0,1.8786621,0.84021,1.8786621,1.8765869l0,0v48.7926025v0.0001221
	c0,1.036377-0.8411865,1.8765869-1.8787842,1.8764648c0,0.0001221,0,0,0,0h0.0001221H255.1241608l-0.0000305,0.0001221
	c-1.0375671-0.0001221-1.8786926-0.84021-1.8786926-1.876709h0.0000305v-48.7926025
	c0-1.036377,0.841095-1.876709,1.8786926-1.8765869v-0.0001221h287.8155518V865.0136719L542.9396973,865.0136719z"/>
<text transform="matrix(0.85 0 0 1 367.4707031 880.0332031)" class="st3 st4">«FeatureType»</text>
<text transform="matrix(0.85 0 0 1 313.3613281 892.7910156)" class="st5 st4">urf::RoadsideDistrictImprovementPlan</text>
<line class="st2" x1="253.2454681" y1="898.7930908" x2="544.8183594" y2="898.7930908"/>
<text transform="matrix(0.85 0 0 1 257.0019531 912.3066406)" class="st3 st4">+ </text>
<text transform="matrix(0.85 0 0 1 273.5332031 912.3066406)" class="st3 st4">roadsideDistrictFacilitiesAllocation: gml:StringOrRefType [0..1]</text>
<path class="st0" d="M492.5906982,573.7590332c1.0375366,0,1.8786621,0.84021,1.8786621,1.8765869h0.000061v63.0551758h-0.000061
	c0,1.036377-0.8411255,1.876709-1.8787231,1.8765869c0,0.0001221,0,0,0,0h0.000061H242.3490448v0.0001221
	c-1.0375671-0.0001221-1.8786926-0.840332-1.8786926-1.876709l0,0v-63.0551758c0-1.036377,0.8411255-1.876709,1.8786926-1.8765869
	v-0.0001221h250.2416534V573.7590332L492.5906982,573.7590332z"/>
<path class="st1" d="M490.3363037,571.5070801c1.0375366,0,1.8786011,0.84021,1.8786011,1.8765869h0.000061v63.0551758h-0.000061
	c0,1.036377-0.8410645,1.8765869-1.8786621,1.8765869l0,0h0.000061h-250.241684l0,0
	c-1.0375977,0-1.8786926-0.84021-1.8786926-1.8765869l0,0V573.383667c0-1.036377,0.841095-1.876709,1.8786926-1.8765869v-0.0001221
	h250.241684V571.5070801L490.3363037,571.5070801z"/>
<path class="st2" d="M490.3363037,571.5070801c1.0375366,0,1.8786011,0.84021,1.8786011,1.8765869h0.000061v63.0551758h-0.000061
	c0,1.036377-0.8410645,1.8765869-1.8786621,1.8765869l0,0h0.000061h-250.241684l0,0
	c-1.0375977,0-1.8786926-0.84021-1.8786926-1.8765869l0,0V573.383667c0-1.036377,0.841095-1.876709,1.8786926-1.8765869v-0.0001221
	h250.241684V571.5070801L490.3363037,571.5070801z"/>
<text transform="matrix(0.85 0 0 1 333.6503906 586.5253906)" class="st3 st4">«FeatureType»</text>
<text transform="matrix(0.85 0 0 1 310.3535156 599.2910156)" class="st5 st4">urf::RoadsideDistrictPlan</text>
<line class="st2" x1="238.2159271" y1="605.286499" x2="492.2149658" y2="605.286499"/>
<text transform="matrix(0.85 0 0 1 241.9707031 618.7988281)" class="st3 st4">+ </text>
<text transform="matrix(0.85 0 0 1 258.5019531 618.7988281)" class="st3 st4">facilitiesAllocation: gml:StringOrRefType [0..1]</text>
<text transform="matrix(0.85 0 0 1 241.9707031 631.5644531)" class="st3 st4">+ </text>
<text transform="matrix(0.85 0 0 1 258.5019531 631.5644531)" class="st3 st4">landUsePolicy: gml:StringOrRefType [0..1]</text>
<path class="st0" d="M676.7025146,926.5675049c1.0374756,0,1.87854,0.8400879,1.87854,1.8765869l0.0001221-0.0001221v48.7927246
	l-0.0001221,0.000061c0,1.036377-0.8410645,1.8766479-1.8786621,1.8765869c0,0.000061,0,0,0,0h0.0001221h-269.028656
	l-0.0000305,0.000061c-1.0375671-0.000061-1.8786926-0.840271-1.8786926-1.876709h0.0000305v-48.7927246
	c0-1.036377,0.841095-1.8765869,1.8786926-1.8764648v-0.0001221h269.028656V926.5675049L676.7025146,926.5675049z"/>
<path class="st1" d="M674.447998,924.3155518c1.0375977,0,1.8786621,0.8400879,1.8786621,1.8765869l0.0001221-0.0001221v48.7926636
	l-0.0001221,0.0001221c0,1.036377-0.8410645,1.8766479-1.8786621,1.8765259c0,0.0001221,0,0,0,0l0,0H405.4194336
	l-0.0000305,0.0001221c-1.0375671-0.0001221-1.8786926-0.840271-1.8786926-1.87677h0.0000305v-48.7926636
	c0-1.036377,0.841095-1.8765869,1.8786926-1.8764648v-0.0001221H674.447998V924.3155518L674.447998,924.3155518z"/>
<path class="st2" d="M674.447998,924.3155518c1.0375977,0,1.8786621,0.8400879,1.8786621,1.8765869l0.0001221-0.0001221v48.7926636
	l-0.0001221,0.0001221c0,1.036377-0.8410645,1.8766479-1.8786621,1.8765259c0,0.0001221,0,0,0,0l0,0H405.4194336
	l-0.0000305,0.0001221c-1.0375671-0.0001221-1.8786926-0.840271-1.8786926-1.87677h0.0000305v-48.7926636
	c0-1.036377,0.841095-1.8765869,1.8786926-1.8764648v-0.0001221H674.447998V924.3155518L674.447998,924.3155518z"/>
<text transform="matrix(0.85 0 0 1 507.9941406 939.3300781)" class="st3 st4">«FeatureType»</text>
<text transform="matrix(0.85 0 0 1 462.9082031 952.0878906)" class="st5 st4">urf::RuralDistrictImprovementPlan</text>
<line class="st2" x1="403.540741" y1="958.0949707" x2="676.3267822" y2="958.0949707"/>
<text transform="matrix(0.85 0 0 1 407.2988281 971.6113281)" class="st3 st4">+ </text>
<text transform="matrix(0.85 0 0 1 423.8300781 971.6113281)" class="st3 st4">ruralDistrictFacilitiesAllocation: gml:StringOrRefType [0..1]</text>
<path class="st0" d="M477.5611877,363.5753174c1.0375366,0,1.8786316,0.8400879,1.8786316,1.8765869h0.000061v55.5484619
	l-0.000061,0.0001221c0,1.036377-0.841095,1.8765869-1.8786926,1.8765869l0,0h0.000061H362.5852661h-0.0000305
	c-1.0375366,0-1.8786926-0.84021-1.8786926-1.876709h0.0000305v-55.5484619c0-1.036499,0.8411255-1.8765869,1.8786926-1.8765869l0,0
	H477.5611877L477.5611877,363.5753174L477.5611877,363.5753174z"/>
<path class="st1" d="M475.3067322,361.3233643c1.0375671,0,1.8786621,0.8400879,1.8786621,1.8765869h0.0000305v55.5484619
	l-0.0000305,0.0001221c0,1.036377-0.841095,1.8765869-1.8786926,1.8765869l0,0h0.0000305H360.3308411h-0.0000305
	c-1.0375671,0-1.8786926-0.84021-1.8786926-1.876709h0.0000305v-55.5484619c0-1.036499,0.841095-1.876709,1.8786926-1.8765869
	v-0.0001221h114.9758911V361.3233643L475.3067322,361.3233643z"/>
<path class="st2" d="M475.3067322,361.3233643c1.0375671,0,1.8786621,0.8400879,1.8786621,1.8765869h0.0000305v55.5484619
	l-0.0000305,0.0001221c0,1.036377-0.841095,1.8765869-1.8786926,1.8765869l0,0h0.0000305H360.3308411h-0.0000305
	c-1.0375671,0-1.8786926-0.84021-1.8786926-1.876709h0.0000305v-55.5484619c0-1.036499,0.841095-1.876709,1.8786926-1.8765869
	v-0.0001221h114.9758911V361.3233643L475.3067322,361.3233643z"/>
<text transform="matrix(0.85 0 0 1 386.2597656 376.3374023)" class="st3 st4">«FeatureType»</text>
<text transform="matrix(0.85 0 0 1 368.9707031 389.1030273)" class="st5 st4">urf::PromotionDistrict</text>
<path class="st0" d="M693.2349854,1091.711792c1.0374756,0,1.8786621,0.84021,1.8786621,1.876709v-0.0001221v39.78479v0.0001221
	c0,1.036377-0.8411865,1.8765869-1.8787842,1.8764648c0,0.0001221,0,0,0,0h0.0001221H287.4376221l-0.0000305,0.0001221
	c-1.0375671-0.0001221-1.8786621-0.84021-1.8786621-1.876709l0,0v-39.78479c0-1.036377,0.841095-1.8765869,1.8786926-1.8765869l0,0
	H693.2349854L693.2349854,1091.711792L693.2349854,1091.711792z"/>
<path class="st1" d="M690.9804688,1089.4598389c1.0375977,0,1.8786621,0.84021,1.8786621,1.876709l0.0001221-0.0001221v39.78479
	l-0.0001221,0.0001221c0,1.0362549-0.8410645,1.8765869-1.8786621,1.8764648c0,0.0001221,0,0,0,0l0,0H285.183197
	l-0.0000305,0.0001221c-1.0375671-0.0001221-1.8786621-0.840332-1.8786621-1.876709l0,0v-39.78479
	c0-1.036377,0.841095-1.876709,1.8786926-1.8765869v-0.0001221h405.7972717V1089.4598389L690.9804688,1089.4598389z"/>
<path class="st2" d="M690.9804688,1089.4598389c1.0375977,0,1.8786621,0.84021,1.8786621,1.876709l0.0001221-0.0001221v39.78479
	l-0.0001221,0.0001221c0,1.0362549-0.8410645,1.8765869-1.8786621,1.8764648c0,0.0001221,0,0,0,0l0,0H285.183197
	l-0.0000305,0.0001221c-1.0375671-0.0001221-1.8786621-0.840332-1.8786621-1.876709l0,0v-39.78479
	c0-1.036377,0.841095-1.876709,1.8786926-1.8765869v-0.0001221h405.7972717V1089.4598389L690.9804688,1089.4598389z"/>
<text transform="matrix(0.85 0 0 1 456.1425781 1104.4785156)" class="st3 st4">«FeatureType»</text>
<text transform="matrix(0.85 0 0 1 294.5722656 1117.2363281)" class="st5 st4">urf::DistrictImprovementPlanForHistoricSceneryMaintenanceAndImprovementDistrict</text>
<path class="st0" d="M806.7078857,42.2944336c1.0374756,0,1.8786621,0.84021,1.8786621,1.8765869l0,0V388.72229l0,0
	c0,1.036377-0.8411865,1.8765869-1.8787842,1.8765869l0,0h0.0001221H553.4603271l0,0
	c-1.0375977,0-1.8787842-0.84021-1.8787842-1.8765869h0.0001221V44.1710205c0-1.036377,0.8410645-1.8765869,1.8786621-1.8765869l0,0
	H806.7078857L806.7078857,42.2944336L806.7078857,42.2944336z"/>
<path class="st1" d="M804.4534912,40.0424805c1.0374756,0,1.87854,0.84021,1.87854,1.8765869h0.0001221v344.5511475
	l-0.0001221,0.0001221c0,1.036377-0.8410645,1.8765869-1.8786621,1.8765869l0,0h0.0001221H551.2059326h-0.0001221
	c-1.0374756,0-1.8786621-0.84021-1.8786621-1.876709l0,0V41.9190674c0-1.036377,0.8411865-1.8765869,1.8787842-1.8765869l0,0
	H804.4534912L804.4534912,40.0424805L804.4534912,40.0424805z"/>
<path class="st2" d="M804.4534912,40.0424805c1.0374756,0,1.87854,0.84021,1.87854,1.8765869h0.0001221v344.5511475
	l-0.0001221,0.0001221c0,1.036377-0.8410645,1.8765869-1.8786621,1.8765869l0,0h0.0001221H551.2059326h-0.0001221
	c-1.0374756,0-1.8786621-0.84021-1.8786621-1.876709l0,0V41.9190674c0-1.036377,0.8411865-1.8765869,1.8787842-1.8765869l0,0
	H804.4534912L804.4534912,40.0424805L804.4534912,40.0424805z"/>
<text transform="matrix(0.85 0 -0.3165385 0.9485797 756.7282715 52.8217087)" class="st3 st6">_CityObject</text>
<text transform="matrix(0.85 0 0 1 646.2675781 70.0717773)" class="st3 st4">«FeatureType»</text>
<text transform="matrix(0.85 0 -0.3165385 0.9485797 633.4837646 82.8427734)" class="st3 st6">u</text>
<text transform="matrix(0.85 0 -0.3165385 0.9485797 633.4837646 82.8427734)" class="st7 st3 st6">u</text>
<text transform="matrix(0.85 0 -0.3165385 0.9485797 639.4915771 82.8427734)" class="st3 st6">r</text>
<text transform="matrix(0.85 0 -0.3165385 0.9485797 639.4915771 82.8427734)" class="st7 st3 st6">r</text>
<text transform="matrix(0.85 0 -0.3165385 0.9485797 643.239624 82.8427734)" class="st3 st6">f</text>
<text transform="matrix(0.85 0 -0.3165385 0.9485797 643.239624 82.8427734)" class="st7 st3 st6">f</text>
<text transform="matrix(0.85 0 -0.3165385 0.9485797 646.2474365 82.8427734)" class="st3 st6">::</text>
<text transform="matrix(0.85 0 -0.3165385 0.9485797 646.2474365 82.8427734)" class="st7 st3 st6">::</text>
<text transform="matrix(0.85 0 -0.3165385 0.9485797 650.7376709 82.8427734)" class="st3 st6">_</text>
<text transform="matrix(0.85 0 -0.3165385 0.9485797 650.7376709 82.8427734)" class="st7 st3 st6">_</text>
<text transform="matrix(0.85 0 -0.3165385 0.9485797 654.4993896 82.8427734)" class="st3 st6">U</text>
<text transform="matrix(0.85 0 -0.3165385 0.9485797 654.4993896 82.8427734)" class="st7 st3 st6">U</text>
<text transform="matrix(0.85 0 -0.3165385 0.9485797 661.2591553 82.8427734)" class="st3 st6">r</text>
<text transform="matrix(0.85 0 -0.3165385 0.9485797 661.2591553 82.8427734)" class="st7 st3 st6">r</text>
<text transform="matrix(0.85 0 -0.3165385 0.9485797 665.0072021 82.8427734)" class="st3 st6">b</text>
<text transform="matrix(0.85 0 -0.3165385 0.9485797 665.0072021 82.8427734)" class="st7 st3 st6">b</text>
<text transform="matrix(0.85 0 -0.3165385 0.9485797 671.0150146 82.8427734)" class="st3 st6">a</text>
<text transform="matrix(0.85 0 -0.3165385 0.9485797 671.0150146 82.8427734)" class="st7 st3 st6">a</text>
<text transform="matrix(0.85 0 -0.3165385 0.9485797 676.2689209 82.8427734)" class="st3 st6">n</text>
<text transform="matrix(0.85 0 -0.3165385 0.9485797 676.2689209 82.8427734)" class="st7 st3 st6">n</text>
<text transform="matrix(0.85 0 -0.3165385 0.9485797 682.2767334 82.8427734)" class="st3 st6">F</text>
<text transform="matrix(0.85 0 -0.3165385 0.9485797 682.2767334 82.8427734)" class="st7 st3 st6">F</text>
<text transform="matrix(0.85 0 -0.3165385 0.9485797 687.5345459 82.8427734)" class="st3 st6">un</text>
<text transform="matrix(0.85 0 -0.3165385 0.9485797 687.5345459 82.8427734)" class="st7 st3 st6">un</text>
<text transform="matrix(0.85 0 -0.3165385 0.9485797 699.5482178 82.8427734)" class="st3 st6">c</text>
<text transform="matrix(0.85 0 -0.3165385 0.9485797 699.5482178 82.8427734)" class="st7 st3 st6">c</text>
<text transform="matrix(0.85 0 -0.3165385 0.9485797 704.0618896 82.8427734)" class="st3 st6">t</text>
<text transform="matrix(0.85 0 -0.3165385 0.9485797 704.0618896 82.8427734)" class="st7 st3 st6">t</text>
<text transform="matrix(0.85 0 -0.3165385 0.9485797 707.8118896 82.8427734)" class="st3 st6">i</text>
<text transform="matrix(0.85 0 -0.3165385 0.9485797 707.8118896 82.8427734)" class="st7 st3 st6">i</text>
<text transform="matrix(0.85 0 -0.3165385 0.9485797 710.0697021 82.8427734)" class="st3 st6">o</text>
<text transform="matrix(0.85 0 -0.3165385 0.9485797 710.0697021 82.8427734)" class="st7 st3 st6">o</text>
<text transform="matrix(0.85 0 -0.3165385 0.9485797 716.0775146 82.8427734)" class="st3 st6">n</text>
<text transform="matrix(0.85 0 -0.3165385 0.9485797 716.0775146 82.8427734)" class="st7 st3 st6">n</text>
<line class="st2" x1="549.3271484" y1="88.835083" x2="806.3321533" y2="88.835083"/>
<text transform="matrix(0.85 0 0 1 553.0800781 102.3452148)" class="st3 st4">+ </text>
<text transform="matrix(0.85 0 0 1 569.6191406 102.3452148)" class="st3 st4">areaClassificationType: gml::CodeType [0..1]</text>
<text transform="matrix(0.85 0 0 1 553.0800781 115.1108398)" class="st3 st4">+ </text>
<text transform="matrix(0.85 0 0 1 569.6191406 115.1108398)" class="st3 st4">city: gml::CodeType [0..1]</text>
<text transform="matrix(0.85 0 0 1 553.0800781 127.8686523)" class="st3 st4">+ </text>
<text transform="matrix(0.85 0 0 1 569.6191406 127.8686523)" class="st3 st4">class: gml::CodeType [0..1]</text>
<text transform="matrix(0.85 0 0 1 553.0800781 140.6342773)" class="st3 st4">+ </text>
<text transform="matrix(0.85 0 0 1 569.6191406 140.6342773)" class="st3 st4">custodian: xs::string [0..1]</text>
<text transform="matrix(0.85 0 0 1 553.0800781 153.3920898)" class="st3 st4">+ </text>
<text transform="matrix(0.85 0 0 1 569.6191406 153.3920898)" class="st3 st4">enactmentFiscalYear: xs::gYear [0..1]</text>
<text transform="matrix(0.85 0 0 1 553.0800781 166.1499023)" class="st3 st4">+ </text>
<text transform="matrix(0.85 0 0 1 569.6191406 166.1499023)" class="st3 st4">expirationFiscalYear: xs::gYear [0..1]</text>
<text transform="matrix(0.85 0 0 1 553.0800781 178.9155273)" class="st3 st4">+ </text>
<text transform="matrix(0.85 0 0 1 569.6191406 178.9155273)" class="st3 st4">finalNotificationDate: xs::date [0..1]</text>
<text transform="matrix(0.85 0 0 1 553.0800781 191.6811523)" class="st3 st4">+ </text>
<text transform="matrix(0.85 0 0 1 569.6191406 191.6811523)" class="st3 st4">finalNotificationNumber: xs::string [0..1]</text>
<text transform="matrix(0.85 0 0 1 553.0800781 204.4311523)" class="st3 st4">+ </text>
<text transform="matrix(0.85 0 0 1 569.6191406 204.4311523)" class="st3 st4">function: gml::CodeType [0..*]</text>
<text transform="matrix(0.85 0 0 1 553.0800781 217.1967773)" class="st3 st4">+ </text>
<text transform="matrix(0.85 0 0 1 569.6191406 217.1967773)" class="st3 st4">legalGrounds: xs::string [0..1]</text>
<text transform="matrix(0.85 0 0 1 553.0800781 229.9624023)" class="st3 st4">+ </text>
<text transform="matrix(0.85 0 0 1 569.6191406 229.9624023)" class="st3 st4">nominalArea: gml::MeasureType [0..1]</text>
<text transform="matrix(0.85 0 0 1 553.0800781 242.7280273)" class="st3 st4">+ </text>
<text transform="matrix(0.85 0 0 1 569.6191406 242.7280273)" class="st3 st4">note: gml:StringOrRefType [0..1]</text>
<text transform="matrix(0.85 0 0 1 553.0800781 255.4780273)" class="st3 st4">+ </text>
<text transform="matrix(0.85 0 0 1 569.6191406 255.4780273)" class="st3 st4">notificationNumber: xs::string [0..1]</text>
<text transform="matrix(0.85 0 0 1 553.0800781 268.2436523)" class="st3 st4">+ </text>
<text transform="matrix(0.85 0 0 1 569.6191406 268.2436523)" class="st3 st4">prefecture: gml::CodeType [0..1]</text>
<text transform="matrix(0.85 0 0 1 553.0800781 281.0092773)" class="st3 st4">+ </text>
<text transform="matrix(0.85 0 0 1 569.6191406 281.0092773)" class="st3 st4">reason: gml:StringOrRefType [0..1]</text>
<text transform="matrix(0.85 0 0 1 553.0800781 293.7749023)" class="st3 st4">+ </text>
<text transform="matrix(0.85 0 0 1 569.6191406 293.7749023)" class="st3 st4">reference: xs::anyURI [0..1]</text>
<text transform="matrix(0.85 0 0 1 553.0800781 306.5249023)" class="st3 st4">+ </text>
<text transform="matrix(0.85 0 0 1 569.6191406 306.5249023)" class="st3 st4">surveyYear: xs::gYear [0..1]</text>
<text transform="matrix(0.85 0 0 1 553.0800781 319.2905273)" class="st3 st4">+ </text>
<text transform="matrix(0.85 0 0 1 569.6191406 319.2905273)" class="st3 st4">urbanPlanType: gml::CodeType [0..1]</text>
<text transform="matrix(0.85 0 0 1 553.0800781 332.0561523)" class="st3 st4">+ </text>
<text transform="matrix(0.85 0 0 1 569.6191406 332.0561523)" class="st3 st4">usage: gml::CodeType [0..*]</text>
<text transform="matrix(0.85 0 0 1 553.0800781 344.8139648)" class="st3 st4">+ </text>
<text transform="matrix(0.85 0 0 1 569.6191406 344.8139648)" class="st3 st4">validFrom: xs::date [0..1]</text>
<text transform="matrix(0.85 0 0 1 553.0800781 357.5717773)" class="st3 st4">+ </text>
<text transform="matrix(0.85 0 0 1 569.6191406 357.5717773)" class="st3 st4">validFromType: gml::CodeType [0..1]</text>
<text transform="matrix(0.85 0 0 1 553.0800781 370.3374023)" class="st3 st4">+ </text>
<text transform="matrix(0.85 0 0 1 569.6191406 370.3374023)" class="st3 st4">validTo: xs::date [0..1]</text>
<text transform="matrix(0.85 0 0 1 553.0800781 383.0952148)" class="st3 st4">+ </text>
<text transform="matrix(0.85 0 0 1 569.6191406 383.0952148)" class="st3 st4">validToType: gml::CodeType [0..1]</text>
<path class="st0" d="M869.0804443,1249.3496094c1.0374756,0,1.87854,0.84021,1.87854,1.876709l0.0001221-0.0001221v55.548584
	h-0.0001221c0,1.036377-0.8410645,1.876709-1.8786621,1.8765869c0,0.0001221,0,0,0,0h0.0001221h-93.1831055l-0.0001221,0.0001221
	c-1.0374756-0.0001221-1.8786621-0.840332-1.8786621-1.876709h0.0001221v-55.548584
	c0-1.036377,0.8410645-1.876709,1.8786621-1.8765869v-0.0001221h93.1831055V1249.3496094L869.0804443,1249.3496094z"/>
<path class="st1" d="M866.8260498,1247.0976562c1.0374756,0,1.87854,0.84021,1.87854,1.876709l0.0001221-0.0001221v55.548584
	h-0.0001221c0,1.036377-0.8410645,1.876709-1.8786621,1.8765869c0,0.0001221,0,0,0,0h0.0001221h-93.1831055l-0.0001221,0.0001221
	c-1.0374756-0.0001221-1.8786621-0.840332-1.8786621-1.876709h0.0001221v-55.548584
	c0-1.036377,0.8410645-1.876709,1.8786621-1.8765869v-0.0001221h93.1831055V1247.0976562L866.8260498,1247.0976562z"/>
<path class="st2" d="M866.8260498,1247.0976562c1.0374756,0,1.87854,0.84021,1.87854,1.876709l0.0001221-0.0001221v55.548584
	h-0.0001221c0,1.036377-0.8410645,1.876709-1.8786621,1.8765869c0,0.0001221,0,0,0,0h0.0001221h-93.1831055l-0.0001221,0.0001221
	c-1.0374756-0.0001221-1.8786621-0.840332-1.8786621-1.876709h0.0001221v-55.548584
	c0-1.036377,0.8410645-1.876709,1.8786621-1.8765869v-0.0001221h93.1831055V1247.0976562L866.8260498,1247.0976562z"/>
<text transform="matrix(0.85 0 0 1 788.2910156 1262.1113281)" class="st3 st4">«FeatureType»</text>
<text transform="matrix(0.85 0 0 1 780.7753906 1274.8769531)" class="st5 st4">urf::DistrictFacility</text>
<path class="st0" d="M265.6448364,1121.7380371c1.0375366,0,1.8786621,0.84021,1.8786621,1.876709v-0.0001221v61.553833v0.0001221
	c0,1.036377-0.8411255,1.8765869-1.8787231,1.8764648c0,0.0001221,0,0,0,0h0.000061H99.5685272l-0.0000153,0.0001221
	c-1.0375671-0.0001221-1.8786926-0.84021-1.8786926-1.876709h0.0000153v-61.553833
	c0-1.036377,0.8411102-1.8765869,1.8786926-1.8765869l0,0H265.6448364L265.6448364,1121.7380371L265.6448364,1121.7380371z"/>
<path class="st1" d="M263.3903809,1119.486084c1.0375977,0,1.8786621,0.84021,1.8786621,1.876709l0.000061-0.0001221v61.553833
	h-0.000061c0,1.036377-0.8410645,1.876709-1.8786621,1.8765869c0,0.0001221,0,0,0,0l0,0H97.3141022l-0.0000153,0.0001221
	c-1.0375671-0.0001221-1.8786926-0.840332-1.8786926-1.876709h0.0000153v-61.553833
	c0-1.036377,0.8411102-1.876709,1.8786926-1.8765869v-0.0001221h166.0762787V1119.486084L263.3903809,1119.486084z"/>
<path class="st2" d="M263.3903809,1119.486084c1.0375977,0,1.8786621,0.84021,1.8786621,1.876709l0.000061-0.0001221v61.553833
	h-0.000061c0,1.036377-0.8410645,1.876709-1.8786621,1.8765869c0,0.0001221,0,0,0,0l0,0H97.3141022l-0.0000153,0.0001221
	c-1.0375671-0.0001221-1.8786926-0.840332-1.8786926-1.876709h0.0000153v-61.553833
	c0-1.036377,0.8411102-1.876709,1.8786926-1.8765869v-0.0001221h166.0762787V1119.486084L263.3903809,1119.486084z"/>
<text transform="matrix(0.85 0 0 1 148.7832031 1134.5019531)" class="st3 st4">«FeatureType»</text>
<text transform="matrix(0.85 0 0 1 100.6972656 1147.2675781)" class="st5 st4">urf::ZonalDisasterPreventionFacility</text>
<line class="st2" x1="95.4354095" y1="1153.2655029" x2="265.269104" y2="1153.2655029"/>
<text transform="matrix(0.85 0 0 1 99.1894531 1166.7753906)" class="st3 st4">+ </text>
<text transform="matrix(0.85 0 0 1 115.7285156 1166.7753906)" class="st3 st4">facilityType: gml::CodeType</text>
<path class="st0" d="M808.9622803,1362.6987305c1.0375977,0,1.8786621,0.84021,1.8786621,1.8765869h0.0001221v39.784668
	l-0.0001221,0.0001221c0,1.036377-0.8410645,1.876709-1.8786621,1.8765869c0,0.0001221,0,0,0,0l0,0H708.2645264
	l-0.0001221,0.0001221c-1.0374756-0.0001221-1.8786621-0.840332-1.8786621-1.8768311l0,0v-39.784668
	c0-1.036377,0.8411865-1.876709,1.8787842-1.8765869v-0.0001221h100.6977539V1362.6987305L808.9622803,1362.6987305z"/>
<path class="st1" d="M806.7078857,1360.4467773c1.0374756,0,1.8786621,0.84021,1.8786621,1.8765869v-0.0001221v39.78479v0.0001221
	c0,1.036377-0.8411865,1.876709-1.8787842,1.8765869c0,0.0001221,0,0,0,0h0.0001221h-100.697876v0.0001221
	c-1.0375977-0.0001221-1.8786621-0.840332-1.8786621-1.8768311l0,0v-39.78479c0-1.0362549,0.8410645-1.8765869,1.8786621-1.8764648
	v-0.0001221h100.697876V1360.4467773L806.7078857,1360.4467773z"/>
<path class="st2" d="M806.7078857,1360.4467773c1.0374756,0,1.8786621,0.84021,1.8786621,1.8765869v-0.0001221v39.78479v0.0001221
	c0,1.036377-0.8411865,1.876709-1.8787842,1.8765869c0,0.0001221,0,0,0,0h0.0001221h-100.697876v0.0001221
	c-1.0375977-0.0001221-1.8786621-0.840332-1.8786621-1.8768311l0,0v-39.78479c0-1.0362549,0.8410645-1.8765869,1.8786621-1.8764648
	v-0.0001221h100.697876V1360.4467773L806.7078857,1360.4467773z"/>
<text transform="matrix(0.85 0 0 1 728.1738281 1373.2050781)" class="st8 st9">«FeatureType»</text>
<text transform="matrix(0.85 0 0 1 747.7128906 1384.4628906)" class="st10 st9">urf::</text>
<text transform="matrix(0.85 0 0 1 711.6503906 1395.7285156)" class="st10 st9">RoadsideDistrictFacility</text>
<path class="st0" d="M929.1986084,1361.9481201c1.0374756,0,1.87854,0.8400879,1.87854,1.8765869l0.0001221-0.0001221v40.5354004
	l-0.0001221,0.0001221c0,1.036377-0.8410645,1.876709-1.8786621,1.8765869c0,0.0001221,0,0,0,0h0.0001221h-93.1831055
	l-0.0001221,0.0001221c-1.0374756-0.0001221-1.8786621-0.840332-1.8786621-1.8768311h0.0001221v-40.5354004
	c0-1.036377,0.8410645-1.8765869,1.8786621-1.8764648v-0.0001221h93.1831055V1361.9481201L929.1986084,1361.9481201z"/>
<path class="st1" d="M926.9440918,1359.6960449c1.0375977,0,1.8786621,0.84021,1.8786621,1.876709l0.0001221-0.0001221v40.5354004
	l-0.0001221,0.0001221c0,1.036377-0.8410645,1.876709-1.8786621,1.8765869c0,0.0001221,0,0,0,0l0,0h-93.1829834
	l-0.0001221,0.0001221c-1.0374756-0.0001221-1.8786621-0.840332-1.8786621-1.8768311l0,0v-40.5354004
	c0-1.036377,0.8411865-1.8765869,1.8787842-1.8765869l0,0H926.9440918L926.9440918,1359.6960449L926.9440918,1359.6960449z"/>
<path class="st2" d="M926.9440918,1359.6960449c1.0375977,0,1.8786621,0.84021,1.8786621,1.876709l0.0001221-0.0001221v40.5354004
	l-0.0001221,0.0001221c0,1.036377-0.8410645,1.876709-1.8786621,1.8765869c0,0.0001221,0,0,0,0l0,0h-93.1829834
	l-0.0001221,0.0001221c-1.0374756-0.0001221-1.8786621-0.840332-1.8786621-1.8768311l0,0v-40.5354004
	c0-1.036377,0.8411865-1.8765869,1.8787842-1.8765869l0,0H926.9440918L926.9440918,1359.6960449L926.9440918,1359.6960449z"/>
<text transform="matrix(0.85 0 0 1 852.1660156 1372.4550781)" class="st8 st9">«FeatureType»</text>
<text transform="matrix(0.85 0 0 1 871.7128906 1383.7128906)" class="st10 st9">urf::</text>
<text transform="matrix(0.85 0 0 1 842.4003906 1394.9707031)" class="st10 st9">RuralDistrictFacility</text>
<path class="st11" d="M435.8542175,121.1132812c1.2450562,0,2.2543945,1.0083008,2.2543945,2.2519531h0.000061v84.8242188h-0.000061
	c0,1.2436523-1.0093384,2.2519531-2.254425,2.2519531l0,0h0.0000305H301.3399353l0,0
	c-1.2450867,0-2.2544556-1.0083008-2.254425-2.2519531v-84.8242188c0-1.2436523,1.0093384-2.2519531,2.254425-2.2519531l0,0
	H435.8542175L435.8542175,121.1132812L435.8542175,121.1132812z"/>
<path class="st12" d="M435.8542175,121.1132812c1.2450562,0,2.2543945,1.0083008,2.2543945,2.2519531h0.000061v84.8242188h-0.000061
	c0,1.2436523-1.0093384,2.2519531-2.254425,2.2519531l0,0h0.0000305H301.3399353l0,0
	c-1.2450867,0-2.2544556-1.0083008-2.254425-2.2519531v-84.8242188c0-1.2436523,1.0093384-2.2519531,2.254425-2.2519531l0,0
	H435.8542175L435.8542175,121.1132812L435.8542175,121.1132812z"/>
<path class="st13" d="M316.7452087,143.6329346c1.0375671,0,1.8786621,0.84021,1.8786621,1.876709h0.0000305v8.2572021h-0.0000305
	c0,1.036499-0.841095,1.8765869-1.8786926,1.8765869l0,0h0.0000305h-8.2662354h-0.0000305
	c-1.0375671,0-1.8786926-0.8400879-1.8786926-1.8765869h0.0000305v-8.2572021c0-1.036499,0.841095-1.876709,1.8786926-1.876709l0,0
	H316.7452087L316.7452087,143.6329346L316.7452087,143.6329346z"/>
<path class="st14" d="M316.7452087,143.6329346c1.0375671,0,1.8786621,0.84021,1.8786621,1.876709h0.0000305v8.2572021h-0.0000305
	c0,1.036499-0.841095,1.8765869-1.8786926,1.8765869l0,0h0.0000305h-8.2662354h-0.0000305
	c-1.0375671,0-1.8786926-0.8400879-1.8786926-1.8765869h0.0000305v-8.2572021c0-1.036499,0.841095-1.876709,1.8786926-1.876709l0,0
	H316.7452087L316.7452087,143.6329346L316.7452087,143.6329346z"/>
<text transform="matrix(0.85 0 0 1 323.1347656 154.1420898)" class="st15 st3 st4">GMLに定義されたクラス</text>
<path class="st16" d="M316.7452087,157.8955078c1.0375671,0,1.8786621,0.84021,1.8786621,1.8765869h0.0000305v8.2572021h-0.0000305
	c0,1.036499-0.841095,1.876709-1.8786926,1.8765869c0,0.0001221,0,0,0,0h0.0000305h-8.2662354l-0.0000305,0.0001221
	c-1.0375671-0.0001221-1.8786926-0.84021-1.8786926-1.876709h0.0000305v-8.2572021
	c0-1.036377,0.841095-1.876709,1.8786926-1.8765869v-0.0001221h8.2662354V157.8955078L316.7452087,157.8955078z"/>
<path class="st14" d="M316.7452087,157.8955078c1.0375671,0,1.8786621,0.84021,1.8786621,1.8765869h0.0000305v8.2572021h-0.0000305
	c0,1.036499-0.841095,1.876709-1.8786926,1.8765869c0,0.0001221,0,0,0,0h0.0000305h-8.2662354l-0.0000305,0.0001221
	c-1.0375671-0.0001221-1.8786926-0.84021-1.8786926-1.876709h0.0000305v-8.2572021
	c0-1.036377,0.841095-1.876709,1.8786926-1.8765869v-0.0001221h8.2662354V157.8955078L316.7452087,157.8955078z"/>
<text transform="matrix(0.85 0 0 1 323.1347656 168.4077148)" class="st15 st3 st4">CityGMLに定義されたクラス</text>
<path class="st1" d="M316.7452087,172.157959c1.0375671,0,1.8786621,0.84021,1.8786621,1.8765869h0.0000305v8.2572021h-0.0000305
	c0,1.036499-0.841095,1.876709-1.8786926,1.876709l0,0h0.0000305h-8.2662354h-0.0000305
	c-1.0375671,0-1.8786926-0.84021-1.8786926-1.876709h0.0000305v-8.2572021c0-1.036377,0.841095-1.8765869,1.8786926-1.8765869l0,0
	H316.7452087L316.7452087,172.157959L316.7452087,172.157959z"/>
<path class="st14" d="M316.7452087,172.157959c1.0375671,0,1.8786621,0.84021,1.8786621,1.8765869h0.0000305v8.2572021h-0.0000305
	c0,1.036499-0.841095,1.876709-1.8786926,1.876709l0,0h0.0000305h-8.2662354h-0.0000305
	c-1.0375671,0-1.8786926-0.84021-1.8786926-1.876709h0.0000305v-8.2572021c0-1.036377,0.841095-1.8765869,1.8786926-1.8765869l0,0
	H316.7452087L316.7452087,172.157959L316.7452087,172.157959z"/>
<text transform="matrix(0.85 0 0 1 323.1347656 182.6655273)" class="st15 st3 st4">i-URに定義されたクラス</text>
<text transform="matrix(0.85 0 0 1 360.7050781 139.3701172)" class="st15 st10 st17 st18">凡例</text>
<line class="st19" x1="568.1141357" y1="762.9243164" x2="746.9655762" y2="762.9243164"/>
<line class="st19" x1="746.9655762" y1="762.9243164" x2="746.9655762" y2="511.4544678"/>
<polyline class="st20" points="751.4743652,523.4649658 742.456665,523.4649658 746.9655762,511.4544678 751.4743652,523.4649658 
	"/>
<polygon class="st19" points="751.4743652,523.4649658 742.456665,523.4649658 746.9655762,511.4544678 "/>
<line class="st19" x1="266.0205688" y1="1152.5148926" x2="933.331665" y2="1152.5148926"/>
<line class="st19" x1="869.4561768" y1="1277.1237793" x2="933.331665" y2="1277.1237793"/>
<line class="st19" x1="933.331665" y1="1277.1237793" x2="933.331665" y2="347.060791"/>
<polyline class="st20" points="937.8405762,358.8004456 928.822876,358.8004456 933.331665,346.7899475 937.8405762,358.8004456 "/>
<polygon class="st19" points="937.8405762,359.5510559 928.822876,359.5510559 933.331665,347.5405579 "/>
<path class="st19" d="M828.8764648,1246.3469238v-89.328125l0,0c-3.0058594,0-4.5089111-2.2519531-4.5089111-4.5039062
	s1.5030518-3.7532959,4.5089111-3.7532959l0,0V871.7694092"/>
<polyline class="st20" points="832.6337891,879.276001 828.8764648,871.7694092 825.1190186,879.276001 828.8764648,886.7825928 
	832.6337891,879.276001 "/>
<polygon class="st19" points="832.6337891,879.276001 828.8764648,871.7694092 825.1190186,879.276001 828.8764648,886.7825928 "/>
<path class="st19" d="M828.8764648,1246.3469238l4.5087891-11.2598877 M828.8764648,1246.3469238l-4.5089111-11.2598877"/>
<line class="st19" x1="693.6107178" y1="1111.2287598" x2="737.9477539" y2="1111.2287598"/>
<line class="st19" x1="737.9477539" y1="1111.2287598" x2="737.9477539" y2="871.0187988"/>
<polyline class="st20" points="742.456665,883.0292969 733.4389648,883.0292969 737.9477539,871.0187988 742.456665,883.0292969 "/>
<polygon class="st19" points="742.456665,883.0292969 733.4389648,883.0292969 737.9477539,871.0187988 "/>
<line class="st19" x1="477.9369202" y1="391.3494873" x2="933.331665" y2="391.3494873"/>
<line class="st19" x1="417.8187866" y1="421.3757324" x2="417.8187866" y2="466.4151611"/>
<line class="st19" x1="417.8187866" y1="466.4151611" x2="651.5279541" y2="466.4151611"/>
<polyline class="st20" points="644.0131836,470.168457 651.5279541,466.4151611 644.0131836,462.6618652 636.4985352,466.4151611 
	644.0131836,470.168457 "/>
<polygon class="st19" points="644.0131836,470.168457 651.5279541,466.4151611 644.0131836,462.6618652 636.4985352,466.4151611 "/>
<path class="st19" d="M417.8187866,421.3757324l-4.5088501,11.2598877 M417.8187866,421.3757324l4.5088806,11.2598877"/>
<line class="st19" x1="677.0782471" y1="950.5883789" x2="737.9477539" y2="950.5883789"/>
<line class="st19" x1="492.9664307" y1="605.286499" x2="746.9655762" y2="605.286499"/>
<line class="st19" x1="545.5698242" y1="891.286499" x2="737.9477539" y2="891.286499"/>
<line class="st19" x1="180.3522491" y1="1119.4859619" x2="180.3522491" y2="762.9243164"/>
<line class="st19" x1="180.3522491" y1="762.9243164" x2="200.6421204" y2="762.9243164"/>
<polyline class="st20" points="193.1273499,766.6776123 200.6421204,762.9243164 193.1273499,759.1710205 185.6125793,762.9243164 
	193.1273499,766.6776123 "/>
<polygon class="st19" points="185.6125793,762.9243164 193.1273499,759.1710205 200.6421204,762.9243164 193.1273499,766.6776123 
	"/>
<path class="st19" d="M180.3522491,1119.4859619l4.5088654-11.2597656 M180.3522491,1119.4859619l-4.5088654-11.2597656"/>
<line class="st19" x1="685.3444824" y1="1006.8875732" x2="737.9477539" y2="1006.8875732"/>
<line class="st19" x1="864.9472656" y1="1358.9453125" x2="864.9472656" y2="1344.6828613"/>
<line class="st19" x1="864.9472656" y1="1344.6828613" x2="820.6102295" y2="1344.6828613"/>
<line class="st19" x1="820.6102295" y1="1344.6828613" x2="820.6102295" y2="1307.9007568"/>
<polyline class="st20" points="825.1190186,1319.9112549 816.1013184,1319.9112549 820.6102295,1307.9007568 
	825.1190186,1319.9112549 "/>
<polygon class="st19" points="825.1190186,1319.9112549 816.1013184,1319.9112549 820.6102295,1307.9007568 "/>
<path class="st19" d="M686.0959473,1219.3232422h138.2716064l0,0c0-2.2519531,1.5030518-3.7531738,4.5089111-3.7531738
	c2.2543945,0,3.7573242,1.5012207,3.7573242,3.7531738l0,0h100.697876"/>
<line class="st19" x1="933.331665" y1="1219.3232422" x2="933.331665" y2="347.8114014"/>
<polyline class="st20" points="937.3718262,359.6291809 928.354126,359.6291809 932.862915,347.6186829 937.3718262,359.6291809 "/>
<polyline class="st19" points="937.8405762,359.5510559 928.822876,359.5510559 933.331665,347.5405579 "/>
<line class="st19" x1="686.0959473" y1="1202.0582275" x2="783.7878418" y2="1202.0582275"/>
<path class="st19" d="M783.7878418,1202.0582275v-45.0394287l0,0c-3.0058594,0-4.5087891-2.2519531-4.5087891-4.5039062
	s1.5029297-3.7532959,4.5087891-3.7532959l0,0V871.7694092"/>
<polyline class="st20" points="787.5452881,879.276001 783.7878418,871.7694092 780.0305176,879.276001 783.7878418,886.7825928 
	787.5452881,879.276001 "/>
<polygon class="st19" points="787.5452881,879.276001 783.7878418,871.7694092 780.0305176,879.276001 783.7878418,886.7825928 "/>
<path class="st19" d="M686.0959473,1202.0582275l11.2720947,4.5039062 M686.0959473,1202.0582275l11.2720947-4.5039062"/>
<line class="st19" x1="689.1018066" y1="647.3233643" x2="746.9655762" y2="647.3233643"/>
<line class="st19" x1="497.4752808" y1="684.8560791" x2="746.9655762" y2="684.8560791"/>
<line class="st19" x1="493.7178955" y1="528.7196045" x2="746.9655762" y2="528.7196045"/>
<line class="st19" x1="884.4857178" y1="818.4729004" x2="933.331665" y2="818.4729004"/>
<line class="st19" x1="816.8527832" y1="765.9268799" x2="816.8527832" y2="512.2052002"/>
<polyline class="st20" points="820.6102295,519.711792 816.8527832,512.2052002 813.095459,519.711792 816.8527832,527.2182617 
	820.6102295,519.711792 "/>
<polygon class="st19" points="820.6102295,519.711792 816.8527832,512.2052002 813.095459,519.711792 816.8527832,527.2182617 "/>
<path class="st19" d="M816.8527832,765.9268799l4.5089111-11.2597656 M816.8527832,765.9268799l-4.5087891-11.2597656"/>
<line class="st19" x1="843.154541" y1="466.4151611" x2="933.331665" y2="466.4151611"/>
<line class="st19" x1="869.4561768" y1="322.2891846" x2="807.835083" y2="322.2891846"/>
<polyline class="st20" points="819.8587646,317.7852783 819.8587646,326.7930908 807.835083,322.2891846 819.8587646,317.7852783 
	"/>
<polygon class="st19" points="819.8587646,317.7852783 819.8587646,326.7930908 807.835083,322.2891846 "/>
<line class="st19" x1="755.2318115" y1="1359.6960449" x2="755.2318115" y2="1344.6828613"/>
<line class="st19" x1="755.2318115" y1="1344.6828613" x2="820.6102295" y2="1344.6828613"/>
<line class="st19" x1="689.1018066" y1="1058.6828613" x2="737.9477539" y2="1058.6828613"/>
<text transform="matrix(0.85 0 0 1 747.7128906 1235.8378906)" class="st8 st9">+districtFacility</text>
<text transform="matrix(0.85 0 0 1 850.6660156 1237.3378906)" class="st8 st9">0..*</text>
<text transform="matrix(0.85 0 0 1 35.3144531 1101.4628906)" class="st8 st9">+zonalDisasterPreventionFacilities</text>
<text transform="matrix(0.85 0 0 1 193.1269531 1112.7285156)" class="st8 st9">0..*</text>
<text transform="matrix(0.85 0 0 1 322.3769531 434.1342773)" class="st8 st9">+promotionDistrict</text>
<text transform="matrix(0.85 0 0 1 435.8535156 433.3842773)" class="st8 st9">0..*</text>
<text transform="matrix(0.85 0 0 1 702.6269531 1195.3066406)" class="st8 st9">+district</text>
<text transform="matrix(0.85 0 0 1 704.8847656 1214.8144531)" class="st8 st9">0..*</text>
<text transform="matrix(0.85 0 0 1 820.6035156 726.9003906)" class="st8 st9">+districtDevelopmentPlan</text>
<text transform="matrix(0.85 0 0 1 834.8847656 742.6582031)" class="st8 st9">0..*</text>
</svg>
