<?xml version="1.0" encoding="utf-8"?>
<!-- Generator: Adobe Illustrator 27.0.0, SVG Export Plug-In . SVG Version: 6.00 Build 0)  -->
<svg version="1.1" id="レイヤー_1" xmlns="http://www.w3.org/2000/svg" xmlns:xlink="http://www.w3.org/1999/xlink" x="0px"
	 y="0px" viewBox="0 0 601.276001 419.8899841" style="enable-background:new 0 0 601.276001 419.8899841;" xml:space="preserve">
<style type="text/css">
	.st0{fill-rule:evenodd;clip-rule:evenodd;fill:#FFCCFF;}
	.st1{fill:none;stroke:#000000;stroke-width:1.0285715;stroke-linecap:round;stroke-linejoin:bevel;stroke-miterlimit:10;}
	.st2{font-family:'YuGothicUI-Regular';}
	.st3{font-size:6.6857147px;}
	.st4{font-size:7.0386257px;}
	.st5{fill:none;stroke:#000000;stroke-width:0.1910204;stroke-miterlimit:10;}
	.st6{font-family:'YuGothicUI-Bold';}
	.st7{fill-rule:evenodd;clip-rule:evenodd;fill:#CCFFCC;}
	.st8{fill-rule:evenodd;clip-rule:evenodd;}
	.st9{fill-rule:evenodd;clip-rule:evenodd;fill:#FFFFFF;}
</style>
<polygon class="st0" points="229.4552612,247.6043396 403.6560669,247.6043396 403.6560669,18.7471485 229.4552612,18.7471485 "/>
<polygon class="st1" points="229.4552612,247.6043396 403.6560669,247.6043396 403.6560669,18.7471485 229.4552612,18.7471485 "/>
<text transform="matrix(0.85 0 0 1 294.9697266 29.0276814)" class="st2 st3">«FeatureType»</text>
<text transform="matrix(0.85 0 -0.3126727 0.9498609 286.3369751 37.781498)" class="st2 st4">u</text>
<text transform="matrix(0.85 0 -0.3126727 0.9498609 286.3369751 37.781498)" class="st5 st2 st4">u</text>
<text transform="matrix(0.85 0 -0.3126727 0.9498609 290.3965454 37.781498)" class="st2 st4">r</text>
<text transform="matrix(0.85 0 -0.3126727 0.9498609 290.3965454 37.781498)" class="st5 st2 st4">r</text>
<text transform="matrix(0.85 0 -0.3126727 0.9498609 292.9297485 37.781498)" class="st2 st4">f</text>
<text transform="matrix(0.85 0 -0.3126727 0.9498609 292.9297485 37.781498)" class="st5 st2 st4">f</text>
<text transform="matrix(0.85 0 -0.3126727 0.9498609 294.9629517 37.781498)" class="st2 st4">::</text>
<text transform="matrix(0.85 0 -0.3126727 0.9498609 294.9629517 37.781498)" class="st5 st2 st4">::</text>
<text transform="matrix(0.85 0 -0.3126727 0.9498609 297.9981079 37.781498)" class="st2 st4">_</text>
<text transform="matrix(0.85 0 -0.3126727 0.9498609 297.9981079 37.781498)" class="st5 st2 st4">_</text>
<text transform="matrix(0.85 0 -0.3126727 0.9498609 300.5401001 37.781498)" class="st2 st4">U</text>
<text transform="matrix(0.85 0 -0.3126727 0.9498609 300.5401001 37.781498)" class="st5 st2 st4">U</text>
<text transform="matrix(0.85 0 -0.3126727 0.9498609 305.1084595 37.781498)" class="st2 st4">r</text>
<text transform="matrix(0.85 0 -0.3126727 0.9498609 305.1084595 37.781498)" class="st5 st2 st4">r</text>
<text transform="matrix(0.85 0 -0.3126727 0.9498609 307.6416626 37.781498)" class="st2 st4">b</text>
<text transform="matrix(0.85 0 -0.3126727 0.9498609 307.6416626 37.781498)" class="st5 st2 st4">b</text>
<text transform="matrix(0.85 0 -0.3126727 0.9498609 311.7012329 37.781498)" class="st2 st4">a</text>
<text transform="matrix(0.85 0 -0.3126727 0.9498609 311.7012329 37.781498)" class="st5 st2 st4">a</text>
<text transform="matrix(0.85 0 -0.3126727 0.9498609 315.2520142 37.781498)" class="st2 st4">n</text>
<text transform="matrix(0.85 0 -0.3126727 0.9498609 315.2520142 37.781498)" class="st5 st2 st4">n</text>
<text transform="matrix(0.85 0 -0.3126727 0.9498609 319.312561 37.781498)" class="st2 st4">F</text>
<text transform="matrix(0.85 0 -0.3126727 0.9498609 319.312561 37.781498)" class="st5 st2 st4">F</text>
<text transform="matrix(0.85 0 -0.3126727 0.9498609 322.866272 37.781498)" class="st2 st4">un</text>
<text transform="matrix(0.85 0 -0.3126727 0.9498609 322.866272 37.781498)" class="st5 st2 st4">un</text>
<text transform="matrix(0.85 0 -0.3126727 0.9498609 330.9854126 37.781498)" class="st2 st4">c</text>
<text transform="matrix(0.85 0 -0.3126727 0.9498609 330.9854126 37.781498)" class="st5 st2 st4">c</text>
<text transform="matrix(0.85 0 -0.3126727 0.9498609 334.0352173 37.781498)" class="st2 st4">t</text>
<text transform="matrix(0.85 0 -0.3126727 0.9498609 334.0352173 37.781498)" class="st5 st2 st4">t</text>
<text transform="matrix(0.85 0 -0.3126727 0.9498609 336.5703735 37.781498)" class="st2 st4">i</text>
<text transform="matrix(0.85 0 -0.3126727 0.9498609 336.5703735 37.781498)" class="st5 st2 st4">i</text>
<text transform="matrix(0.85 0 -0.3126727 0.9498609 338.0967407 37.781498)" class="st2 st4">o</text>
<text transform="matrix(0.85 0 -0.3126727 0.9498609 338.0967407 37.781498)" class="st5 st2 st4">o</text>
<text transform="matrix(0.85 0 -0.3126727 0.9498609 342.156311 37.781498)" class="st2 st4">n</text>
<text transform="matrix(0.85 0 -0.3126727 0.9498609 342.156311 37.781498)" class="st5 st2 st4">n</text>
<line class="st1" x1="229.4552612" y1="41.8899689" x2="403.1481934" y2="41.8899689"/>
<text transform="matrix(0.85 0 0 1 231.9931641 51.1448669)" class="st2 st3">+</text>
<text transform="matrix(0.85 0 0 1 236.5625 51.1448669)" class="st2 st3"> </text>
<text transform="matrix(0.85 0 0 1 243.1650391 51.1448669)" class="st2 st3">class: gml::CodeType [0..1]</text>
<text transform="matrix(0.85 0 0 1 231.9931641 59.8870544)" class="st2 st3">+</text>
<text transform="matrix(0.85 0 0 1 236.5625 59.8870544)" class="st2 st3"> </text>
<text transform="matrix(0.85 0 0 1 243.1650391 59.8870544)" class="st2 st3">function: gml::CodeType [0..*]</text>
<text transform="matrix(0.85 0 0 1 231.9931641 68.6292419)" class="st2 st3">+</text>
<text transform="matrix(0.85 0 0 1 236.5625 68.6292419)" class="st2 st3"> </text>
<text transform="matrix(0.85 0 0 1 243.1650391 68.6292419)" class="st2 st3">usage: gml::CodeType [0..*]</text>
<text transform="matrix(0.85 0 0 1 231.9931641 77.3792419)" class="st2 st3">+</text>
<text transform="matrix(0.85 0 0 1 236.5625 77.3792419)" class="st2 st3"> </text>
<text transform="matrix(0.85 0 0 1 243.1650391 77.3792419)" class="st2 st3">validFrom: xs::date [0..1]</text>
<text transform="matrix(0.85 0 0 1 231.9931641 86.1214294)" class="st2 st3">+</text>
<text transform="matrix(0.85 0 0 1 236.5625 86.1214294)" class="st2 st3"> </text>
<text transform="matrix(0.85 0 0 1 243.1650391 86.1214294)" class="st2 st3">validFromType: gml::CodeType [0..1]</text>
<text transform="matrix(0.85 0 0 1 231.9931641 94.8636169)" class="st2 st3">+</text>
<text transform="matrix(0.85 0 0 1 236.5625 94.8636169)" class="st2 st3"> </text>
<text transform="matrix(0.85 0 0 1 243.1650391 94.8636169)" class="st2 st3">enactmentFiscalYear: xs::gYear [0..1]</text>
<text transform="matrix(0.85 0 0 1 231.9931641 103.5979919)" class="st2 st3">+</text>
<text transform="matrix(0.85 0 0 1 236.5625 103.5979919)" class="st2 st3"> </text>
<text transform="matrix(0.85 0 0 1 243.1650391 103.5979919)" class="st2 st3">validTo: xs::date [0..1]</text>
<text transform="matrix(0.85 0 0 1 231.9931641 112.3401794)" class="st2 st3">+</text>
<text transform="matrix(0.85 0 0 1 236.5625 112.3401794)" class="st2 st3"> </text>
<text transform="matrix(0.85 0 0 1 243.1650391 112.3401794)" class="st2 st3">validToType: gml::CodeType [0..1]</text>
<text transform="matrix(0.85 0 0 1 231.9931641 121.0901794)" class="st2 st3">+</text>
<text transform="matrix(0.85 0 0 1 236.5625 121.0901794)" class="st2 st3"> </text>
<text transform="matrix(0.85 0 0 1 243.1650391 121.0901794)" class="st2 st3">expirationFiscalYear: xs::gYear [0..1]</text>
<text transform="matrix(0.85 0 0 1 231.9931641 129.8323669)" class="st2 st3">+</text>
<text transform="matrix(0.85 0 0 1 236.5625 129.8323669)" class="st2 st3"> </text>
<text transform="matrix(0.85 0 0 1 243.1650391 129.8323669)" class="st2 st3">legalGrounds: xs::string [0..1]</text>
<text transform="matrix(0.85 0 0 1 231.9931641 138.5667419)" class="st2 st3">+</text>
<text transform="matrix(0.85 0 0 1 236.5625 138.5667419)" class="st2 st3"> </text>
<text transform="matrix(0.85 0 0 1 243.1650391 138.5667419)" class="st2 st3">custodian: xs::string [0..1]</text>
<text transform="matrix(0.85 0 0 1 231.9931641 147.3167419)" class="st2 st3">+</text>
<text transform="matrix(0.85 0 0 1 236.5625 147.3167419)" class="st2 st3"> </text>
<text transform="matrix(0.85 0 0 1 243.1650391 147.3167419)" class="st2 st3">notificationNumber: xs::string [0..1]</text>
<text transform="matrix(0.85 0 0 1 231.9931641 156.0589294)" class="st2 st3">+</text>
<text transform="matrix(0.85 0 0 1 236.5625 156.0589294)" class="st2 st3"> </text>
<text transform="matrix(0.85 0 0 1 243.1650391 156.0589294)" class="st2 st3">finalNotificationNumber: xs::string [0..1]</text>
<text transform="matrix(0.85 0 0 1 231.9931641 164.8011169)" class="st2 st3">+</text>
<text transform="matrix(0.85 0 0 1 236.5625 164.8011169)" class="st2 st3"> </text>
<text transform="matrix(0.85 0 0 1 243.1650391 164.8011169)" class="st2 st3">finalNotificationDate: xs::date [0..1]</text>
<text transform="matrix(0.85 0 0 1 231.9931641 173.5433044)" class="st2 st3">+</text>
<text transform="matrix(0.85 0 0 1 236.5625 173.5433044)" class="st2 st3"> </text>
<text transform="matrix(0.85 0 0 1 243.1650391 173.5433044)" class="st2 st3">urbanPlanType: gml::CodeType [0..1]</text>
<text transform="matrix(0.85 0 0 1 231.9931641 182.2933044)" class="st2 st3">+</text>
<text transform="matrix(0.85 0 0 1 236.5625 182.2933044)" class="st2 st3"> </text>
<text transform="matrix(0.85 0 0 1 243.1650391 182.2933044)" class="st2 st3">areaClassificationType: gml::CodeType [0..1]</text>
<text transform="matrix(0.85 0 0 1 231.9931641 191.0354919)" class="st2 st3">+</text>
<text transform="matrix(0.85 0 0 1 236.5625 191.0354919)" class="st2 st3"> </text>
<text transform="matrix(0.85 0 0 1 243.1650391 191.0354919)" class="st2 st3">nominalArea: gml::MeasureType [0..1]</text>
<text transform="matrix(0.85 0 0 1 231.9931641 199.7698669)" class="st2 st3">+</text>
<text transform="matrix(0.85 0 0 1 236.5625 199.7698669)" class="st2 st3"> </text>
<text transform="matrix(0.85 0 0 1 243.1650391 199.7698669)" class="st2 st3">prefecture: gml::CodeType [0..1]</text>
<text transform="matrix(0.85 0 0 1 231.9931641 208.5120544)" class="st2 st3">+</text>
<text transform="matrix(0.85 0 0 1 236.5625 208.5120544)" class="st2 st3"> </text>
<text transform="matrix(0.85 0 0 1 243.1650391 208.5120544)" class="st2 st3">city: gml::CodeType [0..1]</text>
<text transform="matrix(0.85 0 0 1 231.9931641 217.2620544)" class="st2 st3">+</text>
<text transform="matrix(0.85 0 0 1 236.5625 217.2620544)" class="st2 st3"> </text>
<text transform="matrix(0.85 0 0 1 243.1650391 217.2620544)" class="st2 st3">reference: xs::anyURI [0..1]</text>
<text transform="matrix(0.85 0 0 1 231.9931641 226.0042419)" class="st2 st3">+</text>
<text transform="matrix(0.85 0 0 1 236.5625 226.0042419)" class="st2 st3"> </text>
<text transform="matrix(0.85 0 0 1 243.1650391 226.0042419)" class="st2 st3">reason: gml:StringOrRefType [0..1]</text>
<text transform="matrix(0.85 0 0 1 231.9931641 234.7386169)" class="st2 st3">+</text>
<text transform="matrix(0.85 0 0 1 236.5625 234.7386169)" class="st2 st3"> </text>
<text transform="matrix(0.85 0 0 1 243.1650391 234.7386169)" class="st2 st3">note: gml:StringOrRefType [0..1]</text>
<text transform="matrix(0.85 0 0 1 231.9931641 243.4886169)" class="st2 st3">+</text>
<text transform="matrix(0.85 0 0 1 236.5625 243.4886169)" class="st2 st3"> </text>
<text transform="matrix(0.85 0 0 1 243.1650391 243.4886169)" class="st2 st3">surveyYear: xs::gYear [0..1]</text>
<polygon class="st0" points="178.1599731,352.5185852 292.9395142,352.5185852 292.9395142,281.0328674 178.1599731,281.0328674 "/>
<polygon class="st1" points="178.1599731,352.5185852 292.9395142,352.5185852 292.9395142,281.0328674 178.1599731,281.0328674 "/>
<text transform="matrix(0.85 0 0 1 217.7744141 291.3167419)" class="st2 st3">«DataType»</text>
<text transform="matrix(0.85 0 0 1 214.7275391 300.0511169)" class="st6 st3">urf::Boundary</text>
<line class="st1" x1="178.1599731" y1="304.1757507" x2="292.4316406" y2="304.1757507"/>
<text transform="matrix(0.85 0 0 1 180.6962891 313.4339294)" class="st2 st3">+</text>
<text transform="matrix(0.85 0 0 1 185.265625 313.4339294)" class="st2 st3"> </text>
<text transform="matrix(0.85 0 0 1 191.8681641 313.4339294)" class="st2 st3">class: gml::CodeType [0..*]</text>
<text transform="matrix(0.85 0 0 1 180.6962891 322.1761169)" class="st2 st3">+</text>
<text transform="matrix(0.85 0 0 1 185.265625 322.1761169)" class="st2 st3"> </text>
<text transform="matrix(0.85 0 0 1 191.8681641 322.1761169)" class="st2 st3">function: gml::CodeType [0..*]</text>
<text transform="matrix(0.85 0 0 1 180.6962891 330.9104919)" class="st2 st3">+</text>
<text transform="matrix(0.85 0 0 1 185.265625 330.9104919)" class="st2 st3"> </text>
<text transform="matrix(0.85 0 0 1 191.8681641 330.9104919)" class="st2 st3">usage: gml::CodeType [0..*]</text>
<text transform="matrix(0.85 0 0 1 180.6962891 339.6604919)" class="st2 st3">+</text>
<text transform="matrix(0.85 0 0 1 185.265625 339.6604919)" class="st2 st3"> </text>
<text transform="matrix(0.85 0 0 1 191.8681641 339.6604919)" class="st2 st3">offset: gml::LengthType [0..1]</text>
<text transform="matrix(0.85 0 0 1 180.6962891 348.4026794)" class="st2 st3">+</text>
<text transform="matrix(0.85 0 0 1 185.265625 348.4026794)" class="st2 st3"> </text>
<text transform="matrix(0.85 0 0 1 191.8681641 348.4026794)" class="st2 st3">offsetDirection: xs::string [0..1]</text>
<polygon class="st0" points="340.6796875,327.318573 426.002533,327.318573 426.002533,286.1757507 340.6796875,286.1757507 "/>
<polygon class="st1" points="340.6796875,327.318573 426.002533,327.318573 426.002533,286.1757507 340.6796875,286.1757507 "/>
<text transform="matrix(0.85 0 0 1 361.5009766 296.4573669)" class="st2 st3">«FeatureType»</text>
<text transform="matrix(0.85 0 0 1 369.6259766 305.1995544)" class="st6 st3">urf::Zone</text>
<line class="st1" x1="340.6796875" y1="309.318573" x2="425.4946594" y2="309.318573"/>
<text transform="matrix(0.85 0 0 1 343.2197266 318.5667419)" class="st2 st3">+</text>
<text transform="matrix(0.85 0 0 1 347.7890625 318.5667419)" class="st2 st3"> </text>
<text transform="matrix(0.85 0 0 1 354.3916016 318.5667419)" class="st2 st3">location: xs::string [0..1]</text>
<polygon class="st0" points="340.6796875,394.690033 425.4946594,394.690033 425.4946594,353.5471497 340.6796875,353.5471497 "/>
<polygon class="st1" points="340.6796875,394.690033 425.4946594,394.690033 425.4946594,353.5471497 340.6796875,353.5471497 "/>
<text transform="matrix(0.85 0 0 1 361.5009766 363.8245544)" class="st2 st3">«FeatureType»</text>
<text transform="matrix(0.85 0 0 1 357.4384766 372.5745544)" class="st6 st3">urf::UrbanFacility</text>
<line class="st1" x1="340.6796875" y1="376.690033" x2="424.9867859" y2="376.690033"/>
<text transform="matrix(0.85 0 0 1 343.2197266 385.9417419)" class="st2 st3">+</text>
<text transform="matrix(0.85 0 0 1 347.7890625 385.9417419)" class="st2 st3"> </text>
<text transform="matrix(0.85 0 0 1 354.3916016 385.9417419)" class="st2 st3">number: xs::string [0..1]</text>
<polygon class="st0" points="457.4907227,331.4328918 593.6009521,331.4328918 593.6009521,286.1757507 457.4907227,286.1757507 "/>
<polygon class="st1" points="457.4907227,331.4328918 593.6009521,331.4328918 593.6009521,286.1757507 457.4907227,286.1757507 "/>
<text transform="matrix(0.85 0 0 1 503.7041016 296.4573669)" class="st2 st3">«FeatureType»</text>
<text transform="matrix(0.85 0 0 1 482.3759766 305.1995544)" class="st6 st3">urf::ThreeDimensionalExtent</text>
<line class="st1" x1="457.4907227" y1="309.318573" x2="593.0930786" y2="309.318573"/>
<text transform="matrix(0.85 0 0 1 460.0322266 318.5667419)" class="st2 st3">+</text>
<text transform="matrix(0.85 0 0 1 464.6015625 318.5667419)" class="st2 st3"> </text>
<text transform="matrix(0.85 0 0 1 471.2041016 318.5667419)" class="st2 st3">minimumDistance: gml::LengthType [0..1]</text>
<text transform="matrix(0.85 0 0 1 460.0322266 327.3167419)" class="st2 st3">+</text>
<text transform="matrix(0.85 0 0 1 464.6015625 327.3167419)" class="st2 st3"> </text>
<text transform="matrix(0.85 0 0 1 471.2041016 327.3167419)" class="st2 st3">maximumLoad: gml::MeasureType [0..1]</text>
<polygon class="st7" points="198.9828033,413.7185974 268.5615845,413.7185974 268.5615845,374.1185608 198.9828033,374.1185608 "/>
<polygon class="st1" points="198.9828033,413.7185974 268.5615845,413.7185974 268.5615845,374.1185608 198.9828033,374.1185608 "/>
<text transform="matrix(0.85 0 0 1 222.8525391 384.4026794)" class="st2 st3">«Type»</text>
<text transform="matrix(0.85 0 0 1 209.6416016 393.1448669)" class="st6 st3">gml::MultiCurve</text>
<polygon class="st0" points="7.5142856,316.004303 159.8765106,316.004303 159.8765106,165.8328552 7.5142856,165.8328552 "/>
<polygon class="st1" points="7.5142856,316.004303 159.8765106,316.004303 159.8765106,165.8328552 7.5142856,165.8328552 "/>
<text transform="matrix(0.85 0 0 1 65.9150391 176.1214294)" class="st2 st3">«DataType»</text>
<text transform="matrix(0.85 0 0 1 44.5869141 184.8636169)" class="st6 st3">uro::DataQualityAttribute</text>
<line class="st1" x1="7.5142856" y1="188.9757385" x2="159.3686371" y2="188.9757385"/>
<text transform="matrix(0.85 0 0 1 10.0556641 198.2308044)" class="st2 st3">+</text>
<text transform="matrix(0.85 0 0 1 14.625 198.2308044)" class="st2 st3"> </text>
<text transform="matrix(0.85 0 0 1 21.2275391 198.2308044)" class="st2 st3">geometrySrcDescLod0: gml::CodeType [0..*]</text>
<text transform="matrix(0.85 0 0 1 10.0556641 206.9729919)" class="st2 st3">+</text>
<text transform="matrix(0.85 0 0 1 14.625 206.9729919)" class="st2 st3"> </text>
<text transform="matrix(0.85 0 0 1 21.2275391 206.9729919)" class="st2 st3">geometrySrcDescLod1: gml::CodeType [1..*]</text>
<text transform="matrix(0.85 0 0 1 10.0556641 215.7229919)" class="st2 st3">+</text>
<text transform="matrix(0.85 0 0 1 14.625 215.7229919)" class="st2 st3"> </text>
<text transform="matrix(0.85 0 0 1 21.2275391 215.7229919)" class="st2 st3">geometrySrcDescLod2: gml::CodeType [0..*]</text>
<text transform="matrix(0.85 0 0 1 10.0556641 224.4573669)" class="st2 st3">+</text>
<text transform="matrix(0.85 0 0 1 14.625 224.4573669)" class="st2 st3"> </text>
<text transform="matrix(0.85 0 0 1 21.2275391 224.4573669)" class="st2 st3">geometrySrcDescLod3: gml::CodeType [0..*]</text>
<text transform="matrix(0.85 0 0 1 10.0556641 233.1995544)" class="st2 st3">+</text>
<text transform="matrix(0.85 0 0 1 14.625 233.1995544)" class="st2 st3"> </text>
<text transform="matrix(0.85 0 0 1 21.2275391 233.1995544)" class="st2 st3">geometrySrcDescLod4: gml::CodeType [0..*]</text>
<text transform="matrix(0.85 0 0 1 10.0556641 241.9495544)" class="st2 st3">+</text>
<text transform="matrix(0.85 0 0 1 14.625 241.9495544)" class="st2 st3"> </text>
<text transform="matrix(0.85 0 0 1 21.2275391 241.9495544)" class="st2 st3">thematicSrcDesc: gml::CodeType [0..*]</text>
<text transform="matrix(0.85 0 0 1 10.0556641 250.6917419)" class="st2 st3">+</text>
<text transform="matrix(0.85 0 0 1 14.625 250.6917419)" class="st2 st3"> </text>
<text transform="matrix(0.85 0 0 1 21.2275391 250.6917419)" class="st2 st3">appearanceSrcDescLod0: gml::CodeType [0..*]</text>
<text transform="matrix(0.85 0 0 1 10.0556641 259.4261169)" class="st2 st3">+</text>
<text transform="matrix(0.85 0 0 1 14.625 259.4261169)" class="st2 st3"> </text>
<text transform="matrix(0.85 0 0 1 21.2275391 259.4261169)" class="st2 st3">appearanceSrcDescLod1: gml::CodeType [0..*]</text>
<text transform="matrix(0.85 0 0 1 10.0556641 268.1683044)" class="st2 st3">+</text>
<text transform="matrix(0.85 0 0 1 14.625 268.1683044)" class="st2 st3"> </text>
<text transform="matrix(0.85 0 0 1 21.2275391 268.1683044)" class="st2 st3">appearanceSrcDescLod2: gml::CodeType [0..*]</text>
<text transform="matrix(0.85 0 0 1 10.0556641 276.9104919)" class="st2 st3">+</text>
<text transform="matrix(0.85 0 0 1 14.625 276.9104919)" class="st2 st3"> </text>
<text transform="matrix(0.85 0 0 1 21.2275391 276.9104919)" class="st2 st3">appearanceSrcDescLod3: gml::CodeType [0..*]</text>
<text transform="matrix(0.85 0 0 1 10.0556641 285.6604919)" class="st2 st3">+</text>
<text transform="matrix(0.85 0 0 1 14.625 285.6604919)" class="st2 st3"> </text>
<text transform="matrix(0.85 0 0 1 21.2275391 285.6604919)" class="st2 st3">appearanceSrcDescLod4: gml::CodeType [0..*]</text>
<text transform="matrix(0.85 0 0 1 10.0556641 294.4026794)" class="st2 st3">+</text>
<text transform="matrix(0.85 0 0 1 14.625 294.4026794)" class="st2 st3"> </text>
<text transform="matrix(0.85 0 0 1 21.2275391 294.4026794)" class="st2 st3">lodType: gml::CodeType [0..*]</text>
<text transform="matrix(0.85 0 0 1 10.0556641 303.1448669)" class="st2 st3">+</text>
<text transform="matrix(0.85 0 0 1 14.625 303.1448669)" class="st2 st3"> </text>
<text transform="matrix(0.85 0 0 1 21.2275391 303.1448669)" class="st2 st3">lod1HeightType: gml::CodeType [0..1]</text>
<text transform="matrix(0.85 0 0 1 10.0556641 311.8948669)" class="st2 st3">+</text>
<text transform="matrix(0.85 0 0 1 14.625 311.8948669)" class="st2 st3"> </text>
<text transform="matrix(0.85 0 0 1 21.2275391 311.8948669)" class="st2 st3">tranDataAcquisition: xs::string [0..1]</text>
<polygon class="st0" points="13.1009007,60.4042664 154.2898865,60.4042664 154.2898865,6.4042525 13.1009007,6.4042525 "/>
<polygon class="st1" points="13.1009007,60.4042664 154.2898865,60.4042664 154.2898865,6.4042525 13.1009007,6.4042525 "/>
<text transform="matrix(0.85 0 0 1 65.9150391 16.6839314)" class="st2 st3">«DataType»</text>
<text transform="matrix(0.85 0 0 1 43.0634766 25.4261189)" class="st6 st3">uro::KeyValuePairAttribute</text>
<line class="st1" x1="13.1009007" y1="29.5471363" x2="153.7820129" y2="29.5471363"/>
<text transform="matrix(0.85 0 0 1 15.6416016 38.8011169)" class="st2 st3">+</text>
<text transform="matrix(0.85 0 0 1 20.2109375 38.8011169)" class="st2 st3"> </text>
<text transform="matrix(0.85 0 0 1 26.8134766 38.8011169)" class="st2 st3">key: gml::CodeType</text>
<text transform="matrix(0.85 0 0 1 15.6416016 47.5433044)" class="st2 st3">+</text>
<text transform="matrix(0.85 0 0 1 20.2109375 47.5433044)" class="st2 st3"> </text>
<text transform="matrix(0.85 0 0 1 26.8134766 47.5433044)" class="st2 st3">codeValue: gml::CodeType [0..1]</text>
<line class="st1" x1="134.4828033" y1="165.318573" x2="134.4828033" y2="132.9185486"/>
<line class="st1" x1="134.4828033" y1="132.9185486" x2="228.9473877" y2="132.9185486"/>
<polyline class="st8" points="223.8686371,135.4900208 228.9473877,132.9185486 223.8686371,130.3471375 218.7899017,132.9185486 
	223.8686371,135.4900208 "/>
<polyline class="st1" points="137.5300446,157.6042786 134.4828033,165.318573 131.4355621,157.6042786 "/>
<line class="st1" x1="525.5458374" y1="331.4328918" x2="525.5458374" y2="374.1185608"/>
<line class="st1" x1="525.5458374" y1="374.1185608" x2="425.4946594" y2="374.1185608"/>
<polyline class="st9" points="430.5733948,371.5471497 425.4946594,374.1185608 430.5733948,376.690033 435.6521301,374.1185608 
	430.5733948,371.5471497 "/>
<polygon class="st1" points="430.5733948,371.5471497 425.4946594,374.1185608 430.5733948,376.690033 435.6521301,374.1185608 "/>
<polyline class="st1" points="522.4985962,339.1471252 525.5458374,331.4328918 528.5930786,339.1471252 "/>
<line class="st1" x1="525.5458374" y1="285.6614685" x2="525.5458374" y2="273.318573"/>
<line class="st1" x1="525.5458374" y1="273.318573" x2="316.3017273" y2="273.318573"/>
<line class="st1" x1="316.3017273" y1="273.318573" x2="316.3017273" y2="248.1186218"/>
<polyline class="st9" points="319.3489685,256.3471375 313.2544861,256.3471375 316.3017273,248.1186218 319.3489685,256.3471375 
	"/>
<polygon class="st1" points="319.3489685,256.3471375 313.2544861,256.3471375 316.3017273,248.1186218 "/>
<line class="st1" x1="382.833252" y1="353.0328674" x2="382.833252" y2="327.8328552"/>
<polyline class="st9" points="385.8804932,336.0614319 379.7859802,336.0614319 382.833252,327.8328552 385.8804932,336.0614319 "/>
<polygon class="st1" points="385.8804932,336.0614319 379.7859802,336.0614319 382.833252,327.8328552 "/>
<line class="st1" x1="382.833252" y1="285.6614685" x2="382.833252" y2="273.318573"/>
<line class="st1" x1="233.010376" y1="353.0328674" x2="233.010376" y2="373.6042786"/>
<polyline class="st1" points="229.9631348,365.8899841 233.010376,373.6042786 236.0576172,365.8899841 "/>
<line class="st1" x1="293.4473877" y1="309.318573" x2="340.171814" y2="309.318573"/>
<polyline class="st8" points="335.0930786,311.8899841 340.171814,309.318573 335.0930786,306.7471619 330.0143433,309.318573 
	335.0930786,311.8899841 "/>
<polygon class="st1" points="335.0930786,311.8899841 340.171814,309.318573 335.0930786,306.7471619 330.0143433,309.318573 "/>
<polyline class="st1" points="301.0655212,312.4042664 293.4473877,309.318573 301.0655212,306.2328796 "/>
<line class="st1" x1="83.6953964" y1="60.4042664" x2="83.6953964" y2="132.9185486"/>
<line class="st1" x1="83.6953964" y1="132.9185486" x2="229.4552612" y2="132.9185486"/>
<polyline class="st8" points="224.3765106,135.4900208 229.4552612,132.9185486 224.3765106,130.3471375 219.2977753,132.9185486 
	224.3765106,135.4900208 "/>
<polygon class="st1" points="224.3765106,135.4900208 229.4552612,132.9185486 224.3765106,130.3471375 219.2977753,132.9185486 "/>
<polyline class="st1" points="80.6481552,68.1185608 83.6953964,60.4042664 86.7426376,68.1185608 "/>
<text transform="matrix(0.85 0 0 1 299.5400391 298.0042419)" class="st2 st3">+boundary</text>
<text transform="matrix(0.85 0 0 1 303.6025391 322.6917419)" class="st2 st3">0..*</text>
<text transform="matrix(0.85 0 0 1 444.7900391 344.2933044)" class="st2 st3">+threeDimensionalExtent</text>
<text transform="matrix(0.85 0 0 1 536.7119141 345.8323669)" class="st2 st3">0..*</text>
<text transform="matrix(0.85 0 0 1 54.2353516 158.1214294)" class="st2 st3">+dataQualityAttribute</text>
<text transform="matrix(0.85 0 0 1 142.6103516 160.1761169)" class="st2 st3">0..1</text>
<text transform="matrix(0.85 0 0 1 12.5947266 70.1761169)" class="st2 st3">+keyValuePairAttribute</text>
<text transform="matrix(0.85 0 0 1 87.7587891 70.1761169)" class="st2 st3">0..1</text>
<text transform="matrix(0.85 0 0 1 201.0087891 369.4886169)" class="st2 st3">+location</text>
<text transform="matrix(0.85 0 0 1 237.0712891 369.4886169)" class="st2 st3">0..1</text>
<polyline class="st1" points="218.7899017,132.9185486 223.8686371,135.4900208 228.9473877,132.9185486 223.8686371,130.3471375 
	218.7899017,132.9185486 "/>
</svg>
