<?xml version="1.0" encoding="utf-8"?>
<!-- Generator: Adobe Illustrator 27.0.0, SVG Export Plug-In . SVG Version: 6.00 Build 0)  -->
<svg version="1.1" id="レイヤー_1" xmlns="http://www.w3.org/2000/svg" xmlns:xlink="http://www.w3.org/1999/xlink" x="0px"
	 y="0px" viewBox="0 0 760.1036377 773.8048706" style="enable-background:new 0 0 760.1036377 773.8048706;" xml:space="preserve">
<style type="text/css">
	.st0{fill-rule:evenodd;clip-rule:evenodd;fill:#FFCCFF;}
	.st1{fill:none;stroke:#000000;stroke-width:1.0285715;stroke-linecap:round;stroke-linejoin:bevel;stroke-miterlimit:10;}
	.st2{font-family:'YuGothicUI-Regular';}
	.st3{font-size:6.6857147px;}
	.st4{font-family:'YuGothicUI-Bold';}
	.st5{font-size:7.0386257px;}
	.st6{fill:none;stroke:#000000;stroke-width:0.1910204;stroke-miterlimit:10;}
	.st7{fill-rule:evenodd;clip-rule:evenodd;fill:#FFFFCC;}
	.st8{fill-rule:evenodd;clip-rule:evenodd;}
	.st9{fill-rule:evenodd;clip-rule:evenodd;fill:#FFFFFF;}
</style>
<polygon class="st0" points="6.9281149,295.3904114 132.3730164,295.3904114 132.3730164,145.2188721 6.9281149,145.2188721 "/>
<polygon class="st1" points="6.9281149,295.3904114 132.3730164,295.3904114 132.3730164,145.2188721 6.9281149,145.2188721 "/>
<text transform="matrix(0.85 0 0 1 52.1306305 155.5075836)" class="st2 st3">«DataType»</text>
<text transform="matrix(0.85 0 0 1 21.6540661 164.2419586)" class="st4 st3">uro::ConstructionBaseAttribute</text>
<line class="st1" x1="6.9281149" y1="168.3616943" x2="131.8651428" y2="168.3616943"/>
<text transform="matrix(0.85 0 0 1 9.466567 177.6169586)" class="st2 st3">+</text>
<text transform="matrix(0.85 0 0 1 14.035903 177.6169586)" class="st2 st3"> </text>
<text transform="matrix(0.85 0 0 1 20.6384411 177.6169586)" class="st2 st3">adminType: gml::CodeType [0..1]</text>
<text transform="matrix(0.85 0 0 1 9.466567 186.3513336)" class="st2 st3">+</text>
<text transform="matrix(0.85 0 0 1 14.035903 186.3513336)" class="st2 st3"> </text>
<text transform="matrix(0.85 0 0 1 20.6384411 186.3513336)" class="st2 st3">administrator: xs::string [0..1]</text>
<text transform="matrix(0.85 0 0 1 9.466567 195.1013336)" class="st2 st3">+</text>
<text transform="matrix(0.85 0 0 1 14.035903 195.1013336)" class="st2 st3"> </text>
<text transform="matrix(0.85 0 0 1 20.6384411 195.1013336)" class="st2 st3">adminOffice: xs::string [0..1]</text>
<text transform="matrix(0.85 0 0 1 9.466567 203.8435211)" class="st2 st3">+</text>
<text transform="matrix(0.85 0 0 1 14.035903 203.8435211)" class="st2 st3"> </text>
<text transform="matrix(0.85 0 0 1 20.6384411 203.8435211)" class="st2 st3">operatorType: gml::CodeType [0..1]</text>
<text transform="matrix(0.85 0 0 1 9.466567 212.5857086)" class="st2 st3">+</text>
<text transform="matrix(0.85 0 0 1 14.035903 212.5857086)" class="st2 st3"> </text>
<text transform="matrix(0.85 0 0 1 20.6384411 212.5857086)" class="st2 st3">installerType: gml::CodeType [0..1]</text>
<text transform="matrix(0.85 0 0 1 9.466567 221.3357086)" class="st2 st3">+</text>
<text transform="matrix(0.85 0 0 1 14.035903 221.3357086)" class="st2 st3"> </text>
<text transform="matrix(0.85 0 0 1 20.6384411 221.3357086)" class="st2 st3">installer: xs::string [0..1]</text>
<text transform="matrix(0.85 0 0 1 9.466567 230.0778961)" class="st2 st3">+</text>
<text transform="matrix(0.85 0 0 1 14.035903 230.0778961)" class="st2 st3"> </text>
<text transform="matrix(0.85 0 0 1 20.6384411 230.0778961)" class="st2 st3">structureOrdinance: xs::string [0..1]</text>
<text transform="matrix(0.85 0 0 1 9.466567 238.8200836)" class="st2 st3">+</text>
<text transform="matrix(0.85 0 0 1 14.035903 238.8200836)" class="st2 st3"> </text>
<text transform="matrix(0.85 0 0 1 20.6384411 238.8200836)" class="st2 st3">specification: xs::string [0..1]</text>
<text transform="matrix(0.85 0 0 1 9.466567 247.5544586)" class="st2 st3">+</text>
<text transform="matrix(0.85 0 0 1 14.035903 247.5544586)" class="st2 st3"> </text>
<text transform="matrix(0.85 0 0 1 20.6384411 247.5544586)" class="st2 st3">kana: xs::string [0..1]</text>
<text transform="matrix(0.85 0 0 1 9.466567 256.2966614)" class="st2 st3">+</text>
<text transform="matrix(0.85 0 0 1 14.035903 256.2966614)" class="st2 st3"> </text>
<text transform="matrix(0.85 0 0 1 20.6384411 256.2966614)" class="st2 st3">constructionStartYear: xs::gYear [0..1]</text>
<text transform="matrix(0.85 0 0 1 9.466567 265.0466614)" class="st2 st3">+</text>
<text transform="matrix(0.85 0 0 1 14.035903 265.0466614)" class="st2 st3"> </text>
<text transform="matrix(0.85 0 0 1 20.6384411 265.0466614)" class="st2 st3">completionYear: xs::gYear [0..1]</text>
<text transform="matrix(0.85 0 0 1 9.466567 273.7888489)" class="st2 st3">+</text>
<text transform="matrix(0.85 0 0 1 14.035903 273.7888489)" class="st2 st3"> </text>
<text transform="matrix(0.85 0 0 1 20.6384411 273.7888489)" class="st2 st3">facilityAge: xs::integer [0..1]</text>
<text transform="matrix(0.85 0 0 1 9.466567 282.5232239)" class="st2 st3">+</text>
<text transform="matrix(0.85 0 0 1 14.035903 282.5232239)" class="st2 st3"> </text>
<text transform="matrix(0.85 0 0 1 20.6384411 282.5232239)" class="st2 st3">update: xs::date [0..1]</text>
<text transform="matrix(0.85 0 0 1 9.466567 291.2732239)" class="st2 st3">+</text>
<text transform="matrix(0.85 0 0 1 14.035903 291.2732239)" class="st2 st3"> </text>
<text transform="matrix(0.85 0 0 1 20.6384411 291.2732239)" class="st2 st3">purpose: gml::CodeType [0..1]</text>
<polygon class="st0" points="275.5934753,311.3331604 395.9596252,311.3331604 395.9596252,239.8474274 275.5934753,239.8474274 "/>
<polygon class="st1" points="275.5934753,311.3331604 395.9596252,311.3331604 395.9596252,239.8474274 275.5934753,239.8474274 "/>
<text transform="matrix(0.85 0 0 1 318.2478027 250.1247711)" class="st2 st3">«DataType»</text>
<text transform="matrix(0.85 0 0 1 328.9196777 258.8747864)" class="st4 st3">uro::</text>
<text transform="matrix(0.85 0 0 1 277.6228027 267.6169739)" class="st4 st3">ConstructionRiskAssessmentAttribute</text>
<line class="st1" x1="275.5934753" y1="271.7331848" x2="395.4517517" y2="271.7331848"/>
<text transform="matrix(0.85 0 0 1 278.1384277 280.9841614)" class="st2 st3">+</text>
<text transform="matrix(0.85 0 0 1 282.7077637 280.9841614)" class="st2 st3"> </text>
<text transform="matrix(0.85 0 0 1 289.3103027 280.9841614)" class="st2 st3">surveyYear: xs::gYear [0..1]</text>
<text transform="matrix(0.85 0 0 1 278.1384277 289.7341614)" class="st2 st3">+</text>
<text transform="matrix(0.85 0 0 1 282.7077637 289.7341614)" class="st2 st3"> </text>
<text transform="matrix(0.85 0 0 1 289.3103027 289.7341614)" class="st2 st3">riskType: gml::CodeType</text>
<text transform="matrix(0.85 0 0 1 278.1384277 298.4763489)" class="st2 st3">+</text>
<text transform="matrix(0.85 0 0 1 282.7077637 298.4763489)" class="st2 st3"> </text>
<text transform="matrix(0.85 0 0 1 289.3103027 298.4763489)" class="st2 st3">status: gml::CodeType [0..1]</text>
<text transform="matrix(0.85 0 0 1 278.1384277 307.2107239)" class="st2 st3">+</text>
<text transform="matrix(0.85 0 0 1 282.7077637 307.2107239)" class="st2 st3"> </text>
<text transform="matrix(0.85 0 0 1 289.3103027 307.2107239)" class="st2 st3">referenceDate: xs::date</text>
<polygon class="st0" points="488.3927307,200.7617188 608.7588501,200.7617188 608.7588501,155.5046387 488.3927307,155.5046387 "/>
<polygon class="st1" points="488.3927307,200.7617188 608.7588501,200.7617188 608.7588501,155.5046387 488.3927307,155.5046387 "/>
<text transform="matrix(0.85 0 0 1 531.0524902 165.7888336)" class="st2 st3">«DataType»</text>
<text transform="matrix(0.85 0 0 1 501.0915527 174.5310211)" class="st4 st3">uro::TunnelFunctionalAttribute</text>
<line class="st1" x1="488.3927307" y1="178.6474609" x2="608.2509766" y2="178.6474609"/>
<text transform="matrix(0.85 0 0 1 490.9274902 187.8982086)" class="st2 st3">+</text>
<text transform="matrix(0.85 0 0 1 495.4968262 187.8982086)" class="st2 st3"> </text>
<text transform="matrix(0.85 0 0 1 502.1071777 187.8982086)" class="st2 st3">directionType: gml::CodeType [0..1]</text>
<text transform="matrix(0.85 0 0 1 490.9274902 196.6482086)" class="st2 st3">+</text>
<text transform="matrix(0.85 0 0 1 495.4968262 196.6482086)" class="st2 st3"> </text>
<text transform="matrix(0.85 0 0 1 502.1071777 196.6482086)" class="st2 st3">userType: xs::string [0..1]</text>
<polygon class="st0" points="46.5422974,426.5332336 174.5265656,426.5332336 174.5265656,320.0760803 46.5422974,320.0760803 "/>
<polygon class="st1" points="46.5422974,426.5332336 174.5265656,426.5332336 174.5265656,320.0760803 46.5422974,320.0760803 "/>
<text transform="matrix(0.85 0 0 1 92.7556305 330.3591614)" class="st2 st3">«DataType»</text>
<text transform="matrix(0.85 0 0 1 64.825943 339.1013489)" class="st4 st3">uro::TunnelStructureAttribute</text>
<line class="st1" x1="46.5422974" y1="343.2189026" x2="174.018692" y2="343.2189026"/>
<text transform="matrix(0.85 0 0 1 49.0837555 352.4685364)" class="st2 st3">+</text>
<text transform="matrix(0.85 0 0 1 53.6530914 352.4685364)" class="st2 st3"> </text>
<text transform="matrix(0.85 0 0 1 60.2556305 352.4685364)" class="st2 st3">tunnelType: gml::CodeType [0..1]</text>
<text transform="matrix(0.85 0 0 1 49.0837555 361.2185364)" class="st2 st3">+</text>
<text transform="matrix(0.85 0 0 1 53.6530914 361.2185364)" class="st2 st3"> </text>
<text transform="matrix(0.85 0 0 1 60.2556305 361.2185364)" class="st2 st3">tunnelSubtype: gml::CodeType [0..1]</text>
<text transform="matrix(0.85 0 0 1 49.0837555 369.9607239)" class="st2 st3">+</text>
<text transform="matrix(0.85 0 0 1 53.6530914 369.9607239)" class="st2 st3"> </text>
<text transform="matrix(0.85 0 0 1 60.2556305 369.9607239)" class="st2 st3">mouthType: gml::CodeType [0..*]</text>
<text transform="matrix(0.85 0 0 1 49.0837555 378.6950989)" class="st2 st3">+</text>
<text transform="matrix(0.85 0 0 1 53.6530914 378.6950989)" class="st2 st3"> </text>
<text transform="matrix(0.85 0 0 1 60.2556305 378.6950989)" class="st2 st3">length: gml::LengthType [0..1]</text>
<text transform="matrix(0.85 0 0 1 49.0837555 387.4450989)" class="st2 st3">+</text>
<text transform="matrix(0.85 0 0 1 53.6530914 387.4450989)" class="st2 st3"> </text>
<text transform="matrix(0.85 0 0 1 60.2556305 387.4450989)" class="st2 st3">width: gml::LengthType [0..1]</text>
<text transform="matrix(0.85 0 0 1 49.0837555 396.1872864)" class="st2 st3">+</text>
<text transform="matrix(0.85 0 0 1 53.6530914 396.1872864)" class="st2 st3"> </text>
<text transform="matrix(0.85 0 0 1 60.2556305 396.1872864)" class="st2 st3">area: gml::MeasureType [0..1]</text>
<text transform="matrix(0.85 0 0 1 49.0837555 404.9294739)" class="st2 st3">+</text>
<text transform="matrix(0.85 0 0 1 53.6530914 404.9294739)" class="st2 st3"> </text>
<text transform="matrix(0.85 0 0 1 60.2556305 404.9294739)" class="st2 st3">innerHeight: gml::LengthType [0..1]</text>
<text transform="matrix(0.85 0 0 1 49.0837555 413.6794739)" class="st2 st3">+</text>
<text transform="matrix(0.85 0 0 1 53.6530914 413.6794739)" class="st2 st3"> </text>
<text transform="matrix(0.85 0 0 1 60.2556305 413.6794739)" class="st2 st3">effectiveHeight: gml::LengthType [0..1]</text>
<text transform="matrix(0.85 0 0 1 49.0837555 422.4216614)" class="st2 st3">+</text>
<text transform="matrix(0.85 0 0 1 53.6530914 422.4216614)" class="st2 st3"> </text>
<text transform="matrix(0.85 0 0 1 60.2556305 422.4216614)" class="st2 st3">slopeType: gml::CodeType [0..1]</text>
<polygon class="st0" points="597.5856323,512.4188843 751.9793701,512.4188843 751.9793701,397.2189026 597.5856323,397.2189026 "/>
<polygon class="st1" points="597.5856323,512.4188843 751.9793701,512.4188843 751.9793701,397.2189026 597.5856323,397.2189026 "/>
<text transform="matrix(0.85 0 0 1 656.9978027 407.5075989)" class="st2 st3">«DataType»</text>
<text transform="matrix(0.85 0 0 1 617.3884277 416.2497864)" class="st4 st3">uro::PublicSuveyDataQualityAttribute</text>
<line class="st1" x1="597.5856323" y1="420.3618469" x2="751.4714966" y2="420.3618469"/>
<text transform="matrix(0.85 0 0 1 600.1228027 429.6169739)" class="st2 st3">+</text>
<text transform="matrix(0.85 0 0 1 604.6921387 429.6169739)" class="st2 st3"> </text>
<text transform="matrix(0.85 0 0 1 611.2946777 429.6169739)" class="st2 st3">srcScaleLod0: gml::CodeType [0..1]</text>
<text transform="matrix(0.85 0 0 1 600.1228027 438.3591614)" class="st2 st3">+</text>
<text transform="matrix(0.85 0 0 1 604.6921387 438.3591614)" class="st2 st3"> </text>
<text transform="matrix(0.85 0 0 1 611.2946777 438.3591614)" class="st2 st3">srcScaleLod1: gml::CodeType [0..1]</text>
<text transform="matrix(0.85 0 0 1 600.1228027 447.1013489)" class="st2 st3">+</text>
<text transform="matrix(0.85 0 0 1 604.6921387 447.1013489)" class="st2 st3"> </text>
<text transform="matrix(0.85 0 0 1 611.2946777 447.1013489)" class="st2 st3">srcScaleLod2: gml::CodeType [0..1]</text>
<text transform="matrix(0.85 0 0 1 600.1228027 455.8513489)" class="st2 st3">+</text>
<text transform="matrix(0.85 0 0 1 604.6921387 455.8513489)" class="st2 st3"> </text>
<text transform="matrix(0.85 0 0 1 611.2946777 455.8513489)" class="st2 st3">srcScaleLod3: gml::CodeType [0..1]</text>
<text transform="matrix(0.85 0 0 1 600.1228027 464.5857239)" class="st2 st3">+</text>
<text transform="matrix(0.85 0 0 1 604.6921387 464.5857239)" class="st2 st3"> </text>
<text transform="matrix(0.85 0 0 1 611.2946777 464.5857239)" class="st2 st3">srcScaleLod4: gml::CodeType [0..1]</text>
<text transform="matrix(0.85 0 0 1 600.1228027 473.3279114)" class="st2 st3">+</text>
<text transform="matrix(0.85 0 0 1 604.6921387 473.3279114)" class="st2 st3"> </text>
<text transform="matrix(0.85 0 0 1 611.2946777 473.3279114)" class="st2 st3">publicSurveySrcDescLod0: gml::CodeType [0..*]</text>
<text transform="matrix(0.85 0 0 1 600.1228027 482.0779114)" class="st2 st3">+</text>
<text transform="matrix(0.85 0 0 1 604.6921387 482.0779114)" class="st2 st3"> </text>
<text transform="matrix(0.85 0 0 1 611.2946777 482.0779114)" class="st2 st3">publicSurveySrcDescLod1: gml::CodeType [0..*]</text>
<text transform="matrix(0.85 0 0 1 600.1228027 490.8200989)" class="st2 st3">+</text>
<text transform="matrix(0.85 0 0 1 604.6921387 490.8200989)" class="st2 st3"> </text>
<text transform="matrix(0.85 0 0 1 611.2946777 490.8200989)" class="st2 st3">publicSurveySrcDescLod2: gml::CodeType [0..*]</text>
<text transform="matrix(0.85 0 0 1 600.1228027 499.5544739)" class="st2 st3">+</text>
<text transform="matrix(0.85 0 0 1 604.6921387 499.5544739)" class="st2 st3"> </text>
<text transform="matrix(0.85 0 0 1 611.2946777 499.5544739)" class="st2 st3">publicSurveySrcDescLod3: gml::CodeType [0..*]</text>
<text transform="matrix(0.85 0 0 1 600.1228027 508.3044739)" class="st2 st3">+</text>
<text transform="matrix(0.85 0 0 1 604.6921387 508.3044739)" class="st2 st3"> </text>
<text transform="matrix(0.85 0 0 1 611.2946777 508.3044739)" class="st2 st3">publicSurveySrcDescLod4: gml::CodeType [0..*]</text>
<polygon class="st0" points="423.8927002,454.8188782 520.8966675,454.8188782 520.8966675,416.247467 423.8927002,416.247467 "/>
<polygon class="st1" points="423.8927002,454.8188782 520.8966675,454.8188782 520.8966675,416.247467 423.8927002,416.247467 "/>
<text transform="matrix(0.85 0 0 1 454.8728027 426.5310364)" class="st2 st3">«DataType»</text>
<text transform="matrix(0.85 0 -0.3126727 0.9498609 433.0298767 435.2764282)" class="st2 st5">u</text>
<text transform="matrix(0.85 0 -0.3126727 0.9498609 433.0298767 435.2764282)" class="st6 st2 st5">u</text>
<text transform="matrix(0.85 0 -0.3126727 0.9498609 437.089447 435.2764282)" class="st2 st5">r</text>
<text transform="matrix(0.85 0 -0.3126727 0.9498609 437.089447 435.2764282)" class="st6 st2 st5">r</text>
<text transform="matrix(0.85 0 -0.3126727 0.9498609 439.6226501 435.2764282)" class="st2 st5">o</text>
<text transform="matrix(0.85 0 -0.3126727 0.9498609 439.6226501 435.2764282)" class="st6 st2 st5">o</text>
<text transform="matrix(0.85 0 -0.3126727 0.9498609 443.683197 435.2764282)" class="st2 st5">::</text>
<text transform="matrix(0.85 0 -0.3126727 0.9498609 443.683197 435.2764282)" class="st6 st2 st5">::</text>
<text transform="matrix(0.85 0 -0.3126727 0.9498609 446.7173767 435.2764282)" class="st2 st5">D</text>
<text transform="matrix(0.85 0 -0.3126727 0.9498609 446.7173767 435.2764282)" class="st6 st2 st5">D</text>
<text transform="matrix(0.85 0 -0.3126727 0.9498609 451.2935486 435.2764282)" class="st2 st5">i</text>
<text transform="matrix(0.85 0 -0.3126727 0.9498609 451.2935486 435.2764282)" class="st6 st2 st5">i</text>
<text transform="matrix(0.85 0 -0.3126727 0.9498609 452.8199158 435.2764282)" class="st2 st5">s</text>
<text transform="matrix(0.85 0 -0.3126727 0.9498609 452.8199158 435.2764282)" class="st6 st2 st5">s</text>
<text transform="matrix(0.85 0 -0.3126727 0.9498609 455.8658142 435.2764282)" class="st2 st5">a</text>
<text transform="matrix(0.85 0 -0.3126727 0.9498609 455.8658142 435.2764282)" class="st6 st2 st5">a</text>
<text transform="matrix(0.85 0 -0.3126727 0.9498609 459.4165955 435.2764282)" class="st2 st5">s</text>
<text transform="matrix(0.85 0 -0.3126727 0.9498609 459.4165955 435.2764282)" class="st6 st2 st5">s</text>
<text transform="matrix(0.85 0 -0.3126727 0.9498609 462.4624939 435.2764282)" class="st2 st5">t</text>
<text transform="matrix(0.85 0 -0.3126727 0.9498609 462.4624939 435.2764282)" class="st6 st2 st5">t</text>
<text transform="matrix(0.85 0 -0.3126727 0.9498609 464.9966736 435.2764282)" class="st2 st5">e</text>
<text transform="matrix(0.85 0 -0.3126727 0.9498609 464.9966736 435.2764282)" class="st6 st2 st5">e</text>
<text transform="matrix(0.85 0 -0.3126727 0.9498609 468.5484314 435.2764282)" class="st2 st5">r</text>
<text transform="matrix(0.85 0 -0.3126727 0.9498609 468.5484314 435.2764282)" class="st6 st2 st5">r</text>
<text transform="matrix(0.85 0 -0.3126727 0.9498609 471.0816345 435.2764282)" class="st2 st5">R</text>
<text transform="matrix(0.85 0 -0.3126727 0.9498609 471.0816345 435.2764282)" class="st6 st2 st5">R</text>
<text transform="matrix(0.85 0 -0.3126727 0.9498609 475.143158 435.2764282)" class="st2 st5">i</text>
<text transform="matrix(0.85 0 -0.3126727 0.9498609 475.143158 435.2764282)" class="st6 st2 st5">i</text>
<text transform="matrix(0.85 0 -0.3126727 0.9498609 476.6695251 435.2764282)" class="st2 st5">s</text>
<text transform="matrix(0.85 0 -0.3126727 0.9498609 476.6695251 435.2764282)" class="st6 st2 st5">s</text>
<text transform="matrix(0.85 0 -0.3126727 0.9498609 479.7154236 435.2764282)" class="st2 st5">k</text>
<text transform="matrix(0.85 0 -0.3126727 0.9498609 479.7154236 435.2764282)" class="st6 st2 st5">k</text>
<text transform="matrix(0.85 0 -0.3126727 0.9498609 483.2671814 435.2764282)" class="st2 st5">A</text>
<text transform="matrix(0.85 0 -0.3126727 0.9498609 483.2671814 435.2764282)" class="st6 st2 st5">A</text>
<text transform="matrix(0.85 0 -0.3126727 0.9498609 487.8365173 435.2764282)" class="st2 st5">tt</text>
<text transform="matrix(0.85 0 -0.3126727 0.9498609 487.8365173 435.2764282)" class="st6 st2 st5">tt</text>
<text transform="matrix(0.85 0 -0.3126727 0.9498609 492.9058533 435.2764282)" class="st2 st5">r</text>
<text transform="matrix(0.85 0 -0.3126727 0.9498609 492.9058533 435.2764282)" class="st6 st2 st5">r</text>
<text transform="matrix(0.85 0 -0.3126727 0.9498609 495.4380798 435.2764282)" class="st2 st5">i</text>
<text transform="matrix(0.85 0 -0.3126727 0.9498609 495.4380798 435.2764282)" class="st6 st2 st5">i</text>
<text transform="matrix(0.85 0 -0.3126727 0.9498609 496.964447 435.2764282)" class="st2 st5">b</text>
<text transform="matrix(0.85 0 -0.3126727 0.9498609 496.964447 435.2764282)" class="st6 st2 st5">b</text>
<text transform="matrix(0.85 0 -0.3126727 0.9498609 501.0249939 435.2764282)" class="st2 st5">u</text>
<text transform="matrix(0.85 0 -0.3126727 0.9498609 501.0249939 435.2764282)" class="st6 st2 st5">u</text>
<text transform="matrix(0.85 0 -0.3126727 0.9498609 505.0845642 435.2764282)" class="st2 st5">t</text>
<text transform="matrix(0.85 0 -0.3126727 0.9498609 505.0845642 435.2764282)" class="st6 st2 st5">t</text>
<text transform="matrix(0.85 0 -0.3126727 0.9498609 507.6187439 435.2764282)" class="st2 st5">e</text>
<text transform="matrix(0.85 0 -0.3126727 0.9498609 507.6187439 435.2764282)" class="st6 st2 st5">e</text>
<line class="st1" x1="423.8927002" y1="439.3904114" x2="520.3887939" y2="439.3904114"/>
<text transform="matrix(0.85 0 0 1 426.4274902 448.6404114)" class="st2 st3">+</text>
<text transform="matrix(0.85 0 0 1 430.9968262 448.6404114)" class="st2 st3"> </text>
<text transform="matrix(0.85 0 0 1 437.6071777 448.6404114)" class="st2 st3">description: gml::CodeType</text>
<polygon class="st7" points="276.1013489,88.133194 395.4517517,88.133194 395.4517517,6.3617029 276.1013489,6.3617029 "/>
<polygon class="st1" points="276.1013489,88.133194 395.4517517,88.133194 395.4517517,6.3617029 276.1013489,6.3617029 "/>
<text transform="matrix(0.85 0 -0.3126727 0.9498609 361.4192505 15.1039762)" class="st2 st5">_CityObject</text>
<text transform="matrix(0.85 0 0 1 314.1853027 26.9294643)" class="st2 st3">«FeatureType»</text>
<text transform="matrix(0.85 0 -0.3126727 0.9498609 304.0307617 35.6744003)" class="st2 st5">t</text>
<text transform="matrix(0.85 0 -0.3126727 0.9498609 304.0307617 35.6744003)" class="st6 st2 st5">t</text>
<text transform="matrix(0.85 0 -0.3126727 0.9498609 306.565918 35.6744003)" class="st2 st5">un</text>
<text transform="matrix(0.85 0 -0.3126727 0.9498609 306.565918 35.6744003)" class="st6 st2 st5">un</text>
<text transform="matrix(0.85 0 -0.3126727 0.9498609 314.6850586 35.6744003)" class="st2 st5">::</text>
<text transform="matrix(0.85 0 -0.3126727 0.9498609 314.6850586 35.6744003)" class="st6 st2 st5">::</text>
<text transform="matrix(0.85 0 -0.3126727 0.9498609 317.7202148 35.6744003)" class="st2 st5">_</text>
<text transform="matrix(0.85 0 -0.3126727 0.9498609 317.7202148 35.6744003)" class="st6 st2 st5">_</text>
<text transform="matrix(0.85 0 -0.3126727 0.9498609 320.2612305 35.6744003)" class="st2 st5">A</text>
<text transform="matrix(0.85 0 -0.3126727 0.9498609 320.2612305 35.6744003)" class="st6 st2 st5">A</text>
<text transform="matrix(0.85 0 -0.3126727 0.9498609 324.831543 35.6744003)" class="st2 st5">b</text>
<text transform="matrix(0.85 0 -0.3126727 0.9498609 324.831543 35.6744003)" class="st6 st2 st5">b</text>
<text transform="matrix(0.85 0 -0.3126727 0.9498609 328.8901367 35.6744003)" class="st2 st5">s</text>
<text transform="matrix(0.85 0 -0.3126727 0.9498609 328.8901367 35.6744003)" class="st6 st2 st5">s</text>
<text transform="matrix(0.85 0 -0.3126727 0.9498609 331.9370117 35.6744003)" class="st2 st5">t</text>
<text transform="matrix(0.85 0 -0.3126727 0.9498609 331.9370117 35.6744003)" class="st6 st2 st5">t</text>
<text transform="matrix(0.85 0 -0.3126727 0.9498609 334.4702148 35.6744003)" class="st2 st5">r</text>
<text transform="matrix(0.85 0 -0.3126727 0.9498609 334.4702148 35.6744003)" class="st6 st2 st5">r</text>
<text transform="matrix(0.85 0 -0.3126727 0.9498609 337.003418 35.6744003)" class="st2 st5">a</text>
<text transform="matrix(0.85 0 -0.3126727 0.9498609 337.003418 35.6744003)" class="st6 st2 st5">a</text>
<text transform="matrix(0.85 0 -0.3126727 0.9498609 340.5541992 35.6744003)" class="st2 st5">c</text>
<text transform="matrix(0.85 0 -0.3126727 0.9498609 340.5541992 35.6744003)" class="st6 st2 st5">c</text>
<text transform="matrix(0.85 0 -0.3126727 0.9498609 343.6049805 35.6744003)" class="st2 st5">t</text>
<text transform="matrix(0.85 0 -0.3126727 0.9498609 343.6049805 35.6744003)" class="st6 st2 st5">t</text>
<text transform="matrix(0.85 0 -0.3126727 0.9498609 346.1381836 35.6744003)" class="st2 st5">T</text>
<text transform="matrix(0.85 0 -0.3126727 0.9498609 346.1381836 35.6744003)" class="st6 st2 st5">T</text>
<text transform="matrix(0.85 0 -0.3126727 0.9498609 349.690918 35.6744003)" class="st2 st5">unn</text>
<text transform="matrix(0.85 0 -0.3126727 0.9498609 349.690918 35.6744003)" class="st6 st2 st5">unn</text>
<text transform="matrix(0.85 0 -0.3126727 0.9498609 361.8706055 35.6744003)" class="st2 st5">e</text>
<text transform="matrix(0.85 0 -0.3126727 0.9498609 361.8706055 35.6744003)" class="st6 st2 st5">e</text>
<text transform="matrix(0.85 0 -0.3126727 0.9498609 365.4213867 35.6744003)" class="st2 st5">l</text>
<text transform="matrix(0.85 0 -0.3126727 0.9498609 365.4213867 35.6744003)" class="st6 st2 st5">l</text>
<line class="st1" x1="276.1013489" y1="39.7902946" x2="394.9438782" y2="39.7902946"/>
<text transform="matrix(0.85 0 0 1 278.6384277 49.0544624)" class="st2 st3">+</text>
<text transform="matrix(0.85 0 0 1 283.2077637 49.0544624)" class="st2 st3"> </text>
<text transform="matrix(0.85 0 0 1 289.8103027 49.0544624)" class="st2 st3">class: gml::CodeType [0..1]</text>
<text transform="matrix(0.85 0 0 1 278.6384277 57.7888374)" class="st2 st3">+</text>
<text transform="matrix(0.85 0 0 1 283.2077637 57.7888374)" class="st2 st3"> </text>
<text transform="matrix(0.85 0 0 1 289.8103027 57.7888374)" class="st2 st3">function: gml::CodeType [0..*]</text>
<text transform="matrix(0.85 0 0 1 278.6384277 66.5310287)" class="st2 st3">+</text>
<text transform="matrix(0.85 0 0 1 283.2077637 66.5310287)" class="st2 st3"> </text>
<text transform="matrix(0.85 0 0 1 289.8103027 66.5310287)" class="st2 st3">usage: gml::CodeType [0..*]</text>
<text transform="matrix(0.85 0 0 1 278.6384277 75.2732162)" class="st2 st3">+</text>
<text transform="matrix(0.85 0 0 1 283.2077637 75.2732162)" class="st2 st3"> </text>
<text transform="matrix(0.85 0 0 1 289.8103027 75.2732162)" class="st2 st3">yearOfConstruction: xs::gYear [0..1]</text>
<text transform="matrix(0.85 0 0 1 278.6384277 84.0075912)" class="st2 st3">+</text>
<text transform="matrix(0.85 0 0 1 283.2077637 84.0075912)" class="st2 st3"> </text>
<text transform="matrix(0.85 0 0 1 289.8103027 84.0075912)" class="st2 st3">yearOfDemolition: xs::gYear [0..1]</text>
<polygon class="st0" points="239.5344391,206.9331055 351.2667236,206.9331055 351.2667236,161.6760254 239.5344391,161.6760254 "/>
<polygon class="st1" points="239.5344391,206.9331055 351.2667236,206.9331055 351.2667236,161.6760254 239.5344391,161.6760254 "/>
<text transform="matrix(0.85 0 0 1 277.6228027 171.9607086)" class="st2 st3">«DataType»</text>
<text transform="matrix(0.85 0 -0.3126727 0.9498609 268.9926453 180.7062836)" class="st2 st5">u</text>
<text transform="matrix(0.85 0 -0.3126727 0.9498609 268.9926453 180.7062836)" class="st6 st2 st5">u</text>
<text transform="matrix(0.85 0 -0.3126727 0.9498609 273.0531921 180.7062836)" class="st2 st5">r</text>
<text transform="matrix(0.85 0 -0.3126727 0.9498609 273.0531921 180.7062836)" class="st6 st2 st5">r</text>
<text transform="matrix(0.85 0 -0.3126727 0.9498609 275.5863953 180.7062836)" class="st2 st5">o</text>
<text transform="matrix(0.85 0 -0.3126727 0.9498609 275.5863953 180.7062836)" class="st6 st2 st5">o</text>
<text transform="matrix(0.85 0 -0.3126727 0.9498609 279.6469421 180.7062836)" class="st2 st5">::</text>
<text transform="matrix(0.85 0 -0.3126727 0.9498609 279.6469421 180.7062836)" class="st6 st2 st5">::</text>
<text transform="matrix(0.85 0 -0.3126727 0.9498609 282.6801453 180.7062836)" class="st2 st5">D</text>
<text transform="matrix(0.85 0 -0.3126727 0.9498609 282.6801453 180.7062836)" class="st6 st2 st5">D</text>
<text transform="matrix(0.85 0 -0.3126727 0.9498609 287.2563171 180.7062836)" class="st2 st5">m</text>
<text transform="matrix(0.85 0 -0.3126727 0.9498609 287.2563171 180.7062836)" class="st6 st2 st5">m</text>
<text transform="matrix(0.85 0 -0.3126727 0.9498609 293.3461609 180.7062836)" class="st2 st5">A</text>
<text transform="matrix(0.85 0 -0.3126727 0.9498609 293.3461609 180.7062836)" class="st6 st2 st5">A</text>
<text transform="matrix(0.85 0 -0.3126727 0.9498609 297.9164734 180.7062836)" class="st2 st5">tt</text>
<text transform="matrix(0.85 0 -0.3126727 0.9498609 297.9164734 180.7062836)" class="st6 st2 st5">tt</text>
<text transform="matrix(0.85 0 -0.3126727 0.9498609 302.9848328 180.7062836)" class="st2 st5">r</text>
<text transform="matrix(0.85 0 -0.3126727 0.9498609 302.9848328 180.7062836)" class="st6 st2 st5">r</text>
<text transform="matrix(0.85 0 -0.3126727 0.9498609 305.5180359 180.7062836)" class="st2 st5">i</text>
<text transform="matrix(0.85 0 -0.3126727 0.9498609 305.5180359 180.7062836)" class="st6 st2 st5">i</text>
<text transform="matrix(0.85 0 -0.3126727 0.9498609 307.0434265 180.7062836)" class="st2 st5">b</text>
<text transform="matrix(0.85 0 -0.3126727 0.9498609 307.0434265 180.7062836)" class="st6 st2 st5">b</text>
<text transform="matrix(0.85 0 -0.3126727 0.9498609 311.1039734 180.7062836)" class="st2 st5">u</text>
<text transform="matrix(0.85 0 -0.3126727 0.9498609 311.1039734 180.7062836)" class="st6 st2 st5">u</text>
<text transform="matrix(0.85 0 -0.3126727 0.9498609 315.1625671 180.7062836)" class="st2 st5">t</text>
<text transform="matrix(0.85 0 -0.3126727 0.9498609 315.1625671 180.7062836)" class="st6 st2 st5">t</text>
<text transform="matrix(0.85 0 -0.3126727 0.9498609 317.6977234 180.7062836)" class="st2 st5">e</text>
<text transform="matrix(0.85 0 -0.3126727 0.9498609 317.6977234 180.7062836)" class="st6 st2 st5">e</text>
<line class="st1" x1="239.5344391" y1="184.8188477" x2="350.7588501" y2="184.8188477"/>
<text transform="matrix(0.85 0 0 1 242.0681305 194.0700836)" class="st2 st3">+</text>
<text transform="matrix(0.85 0 0 1 246.6374664 194.0700836)" class="st2 st3"> </text>
<text transform="matrix(0.85 0 0 1 253.2400055 194.0700836)" class="st2 st3">dmCode: gml::CodeType</text>
<text transform="matrix(0.85 0 0 1 242.0681305 202.8200836)" class="st2 st3">+</text>
<text transform="matrix(0.85 0 0 1 246.6374664 202.8200836)" class="st2 st3"> </text>
<text transform="matrix(0.85 0 0 1 253.2400055 202.8200836)" class="st2 st3">meshCode: gml::CodeType [0..1]</text>
<polygon class="st0" points="254.2627869,595.7331543 340.0935059,595.7331543 340.0935059,554.590332 254.2627869,554.590332 "/>
<polygon class="st1" points="254.2627869,595.7331543 340.0935059,595.7331543 340.0935059,554.590332 254.2627869,554.590332 "/>
<text transform="matrix(0.85 0 0 1 279.6540527 564.8669434)" class="st2 st3">«DataType»</text>
<text transform="matrix(0.85 0 -0.3126727 0.9498609 265.9505005 573.6221924)" class="st2 st5">u</text>
<text transform="matrix(0.85 0 -0.3126727 0.9498609 265.9505005 573.6221924)" class="st6 st2 st5">u</text>
<text transform="matrix(0.85 0 -0.3126727 0.9498609 270.0100708 573.6221924)" class="st2 st5">r</text>
<text transform="matrix(0.85 0 -0.3126727 0.9498609 270.0100708 573.6221924)" class="st6 st2 st5">r</text>
<text transform="matrix(0.85 0 -0.3126727 0.9498609 272.5432739 573.6221924)" class="st2 st5">o</text>
<text transform="matrix(0.85 0 -0.3126727 0.9498609 272.5432739 573.6221924)" class="st6 st2 st5">o</text>
<text transform="matrix(0.85 0 -0.3126727 0.9498609 276.6038208 573.6221924)" class="st2 st5">::</text>
<text transform="matrix(0.85 0 -0.3126727 0.9498609 276.6038208 573.6221924)" class="st6 st2 st5">::</text>
<text transform="matrix(0.85 0 -0.3126727 0.9498609 279.6380005 573.6221924)" class="st2 st5">F</text>
<text transform="matrix(0.85 0 -0.3126727 0.9498609 279.6380005 573.6221924)" class="st6 st2 st5">F</text>
<text transform="matrix(0.85 0 -0.3126727 0.9498609 283.1917114 573.6221924)" class="st2 st5">a</text>
<text transform="matrix(0.85 0 -0.3126727 0.9498609 283.1917114 573.6221924)" class="st6 st2 st5">a</text>
<text transform="matrix(0.85 0 -0.3126727 0.9498609 286.7424927 573.6221924)" class="st2 st5">c</text>
<text transform="matrix(0.85 0 -0.3126727 0.9498609 286.7424927 573.6221924)" class="st6 st2 st5">c</text>
<text transform="matrix(0.85 0 -0.3126727 0.9498609 289.7922974 573.6221924)" class="st2 st5">ili</text>
<text transform="matrix(0.85 0 -0.3126727 0.9498609 289.7922974 573.6221924)" class="st6 st2 st5">ili</text>
<text transform="matrix(0.85 0 -0.3126727 0.9498609 294.3713989 573.6221924)" class="st2 st5">t</text>
<text transform="matrix(0.85 0 -0.3126727 0.9498609 294.3713989 573.6221924)" class="st6 st2 st5">t</text>
<text transform="matrix(0.85 0 -0.3126727 0.9498609 296.9055786 573.6221924)" class="st2 st5">y</text>
<text transform="matrix(0.85 0 -0.3126727 0.9498609 296.9055786 573.6221924)" class="st6 st2 st5">y</text>
<text transform="matrix(0.85 0 -0.3126727 0.9498609 300.4573364 573.6221924)" class="st2 st5">A</text>
<text transform="matrix(0.85 0 -0.3126727 0.9498609 300.4573364 573.6221924)" class="st6 st2 st5">A</text>
<text transform="matrix(0.85 0 -0.3126727 0.9498609 305.0256958 573.6221924)" class="st2 st5">tt</text>
<text transform="matrix(0.85 0 -0.3126727 0.9498609 305.0256958 573.6221924)" class="st6 st2 st5">tt</text>
<text transform="matrix(0.85 0 -0.3126727 0.9498609 310.0950317 573.6221924)" class="st2 st5">r</text>
<text transform="matrix(0.85 0 -0.3126727 0.9498609 310.0950317 573.6221924)" class="st6 st2 st5">r</text>
<text transform="matrix(0.85 0 -0.3126727 0.9498609 312.6282349 573.6221924)" class="st2 st5">i</text>
<text transform="matrix(0.85 0 -0.3126727 0.9498609 312.6282349 573.6221924)" class="st6 st2 st5">i</text>
<text transform="matrix(0.85 0 -0.3126727 0.9498609 314.1546021 573.6221924)" class="st2 st5">b</text>
<text transform="matrix(0.85 0 -0.3126727 0.9498609 314.1546021 573.6221924)" class="st6 st2 st5">b</text>
<text transform="matrix(0.85 0 -0.3126727 0.9498609 318.2141724 573.6221924)" class="st2 st5">u</text>
<text transform="matrix(0.85 0 -0.3126727 0.9498609 318.2141724 573.6221924)" class="st6 st2 st5">u</text>
<text transform="matrix(0.85 0 -0.3126727 0.9498609 322.2737427 573.6221924)" class="st2 st5">t</text>
<text transform="matrix(0.85 0 -0.3126727 0.9498609 322.2737427 573.6221924)" class="st6 st2 st5">t</text>
<text transform="matrix(0.85 0 -0.3126727 0.9498609 324.8079224 573.6221924)" class="st2 st5">e</text>
<text transform="matrix(0.85 0 -0.3126727 0.9498609 324.8079224 573.6221924)" class="st6 st2 st5">e</text>
<line class="st1" x1="254.2627869" y1="577.7331543" x2="339.5856323" y2="577.7331543"/>
<text transform="matrix(0.85 0 0 1 256.8024902 586.9919434)" class="st2 st3">+</text>
<text transform="matrix(0.85 0 0 1 261.3718262 586.9919434)" class="st2 st3"> </text>
<text transform="matrix(0.85 0 0 1 267.9743652 586.9919434)" class="st2 st3">facilityId: xs::string [0..1]</text>
<polygon class="st0" points="59.2391434,614.7617798 168.9399414,614.7617798 168.9399414,490.8188782 59.2391434,490.8188782 "/>
<polygon class="st1" points="59.2391434,614.7617798 168.9399414,614.7617798 168.9399414,490.8188782 59.2391434,490.8188782 "/>
<text transform="matrix(0.85 0 0 1 96.310318 501.1013489)" class="st2 st3">«DataType»</text>
<text transform="matrix(0.85 0 0 1 79.5525055 509.8435364)" class="st4 st3">uro::FacilityIdAttribute</text>
<line class="st1" x1="59.2391434" y1="513.961731" x2="168.4320679" y2="513.961731"/>
<text transform="matrix(0.85 0 0 1 61.779068 523.2106934)" class="st2 st3">+</text>
<text transform="matrix(0.85 0 0 1 66.3484039 523.2106934)" class="st2 st3"> </text>
<text transform="matrix(0.85 0 0 1 72.950943 523.2106934)" class="st2 st3">id: xs::string [0..1]</text>
<text transform="matrix(0.85 0 0 1 61.779068 531.9606934)" class="st2 st3">+</text>
<text transform="matrix(0.85 0 0 1 66.3484039 531.9606934)" class="st2 st3"> </text>
<text transform="matrix(0.85 0 0 1 72.950943 531.9606934)" class="st2 st3">partId: xs::string [0..1]</text>
<text transform="matrix(0.85 0 0 1 61.779068 540.7028809)" class="st2 st3">+</text>
<text transform="matrix(0.85 0 0 1 66.3484039 540.7028809)" class="st2 st3"> </text>
<text transform="matrix(0.85 0 0 1 72.950943 540.7028809)" class="st2 st3">branchId: xs::string [0..1]</text>
<text transform="matrix(0.85 0 0 1 61.779068 549.4450684)" class="st2 st3">+</text>
<text transform="matrix(0.85 0 0 1 66.3484039 549.4450684)" class="st2 st3"> </text>
<text transform="matrix(0.85 0 0 1 72.950943 549.4450684)" class="st2 st3">prefecture: gml::CodeType [0..*]</text>
<text transform="matrix(0.85 0 0 1 61.779068 558.1950684)" class="st2 st3">+</text>
<text transform="matrix(0.85 0 0 1 66.3484039 558.1950684)" class="st2 st3"> </text>
<text transform="matrix(0.85 0 0 1 72.950943 558.1950684)" class="st2 st3">city: gml::CodeType [0..*]</text>
<text transform="matrix(0.85 0 0 1 61.779068 566.9294434)" class="st2 st3">+</text>
<text transform="matrix(0.85 0 0 1 66.3484039 566.9294434)" class="st2 st3"> </text>
<text transform="matrix(0.85 0 0 1 72.950943 566.9294434)" class="st2 st3">route: xs::string [0..1]</text>
<text transform="matrix(0.85 0 0 1 61.779068 575.6716309)" class="st2 st3">+</text>
<text transform="matrix(0.85 0 0 1 66.3484039 575.6716309)" class="st2 st3"> </text>
<text transform="matrix(0.85 0 0 1 72.950943 575.6716309)" class="st2 st3">startPost: xs::string [0..1]</text>
<text transform="matrix(0.85 0 0 1 61.779068 584.4216309)" class="st2 st3">+</text>
<text transform="matrix(0.85 0 0 1 66.3484039 584.4216309)" class="st2 st3"> </text>
<text transform="matrix(0.85 0 0 1 72.950943 584.4216309)" class="st2 st3">endPost: xs::string [0..1]</text>
<text transform="matrix(0.85 0 0 1 61.779068 593.1638184)" class="st2 st3">+</text>
<text transform="matrix(0.85 0 0 1 66.3484039 593.1638184)" class="st2 st3"> </text>
<text transform="matrix(0.85 0 0 1 72.950943 593.1638184)" class="st2 st3">startLat: xs::double [0..1]</text>
<text transform="matrix(0.85 0 0 1 61.779068 601.8981934)" class="st2 st3">+</text>
<text transform="matrix(0.85 0 0 1 66.3484039 601.8981934)" class="st2 st3"> </text>
<text transform="matrix(0.85 0 0 1 72.950943 601.8981934)" class="st2 st3">startLong: xs::double [0..1]</text>
<text transform="matrix(0.85 0 0 1 61.779068 610.6403809)" class="st2 st3">+</text>
<text transform="matrix(0.85 0 0 1 66.3484039 610.6403809)" class="st2 st3"> </text>
<text transform="matrix(0.85 0 0 1 72.950943 610.6403809)" class="st2 st3">alternativeName: xs::string [0..*]</text>
<polygon class="st0" points="176.5580597,536.0760498 279.1485901,536.0760498 279.1485901,490.8188782 176.5580597,490.8188782 "/>
<polygon class="st1" points="176.5580597,536.0760498 279.1485901,536.0760498 279.1485901,490.8188782 176.5580597,490.8188782 "/>
<text transform="matrix(0.85 0 0 1 210.075943 501.1013489)" class="st2 st3">«DataType»</text>
<text transform="matrix(0.85 0 0 1 189.2556305 509.8435364)" class="st4 st3">uro::FacilityTypeAttribute</text>
<line class="st1" x1="176.5580597" y1="513.961731" x2="278.6407166" y2="513.961731"/>
<text transform="matrix(0.85 0 0 1 179.0993805 523.2106934)" class="st2 st3">+</text>
<text transform="matrix(0.85 0 0 1 183.6687164 523.2106934)" class="st2 st3"> </text>
<text transform="matrix(0.85 0 0 1 190.2712555 523.2106934)" class="st2 st3">class: gml::CodeType [0..1]</text>
<text transform="matrix(0.85 0 0 1 179.0993805 531.9606934)" class="st2 st3">+</text>
<text transform="matrix(0.85 0 0 1 183.6687164 531.9606934)" class="st2 st3"> </text>
<text transform="matrix(0.85 0 0 1 190.2712555 531.9606934)" class="st2 st3">function: gml::CodeType [0..*]</text>
<polygon class="st0" points="369.0423279,579.7903442 473.6643677,579.7903442 473.6643677,525.7903442 369.0423279,525.7903442 "/>
<polygon class="st1" points="369.0423279,579.7903442 473.6643677,579.7903442 473.6643677,525.7903442 369.0423279,525.7903442 "/>
<text transform="matrix(0.85 0 0 1 403.5759277 536.0700684)" class="st2 st3">«DataType»</text>
<text transform="matrix(0.85 0 -0.3126727 0.9498609 380.7223511 544.8146973)" class="st2 st5">u</text>
<text transform="matrix(0.85 0 -0.3126727 0.9498609 380.7223511 544.8146973)" class="st6 st2 st5">u</text>
<text transform="matrix(0.85 0 -0.3126727 0.9498609 384.7828979 544.8146973)" class="st2 st5">r</text>
<text transform="matrix(0.85 0 -0.3126727 0.9498609 384.7828979 544.8146973)" class="st6 st2 st5">r</text>
<text transform="matrix(0.85 0 -0.3126727 0.9498609 387.3161011 544.8146973)" class="st2 st5">o</text>
<text transform="matrix(0.85 0 -0.3126727 0.9498609 387.3161011 544.8146973)" class="st6 st2 st5">o</text>
<text transform="matrix(0.85 0 -0.3126727 0.9498609 391.3766479 544.8146973)" class="st2 st5">::</text>
<text transform="matrix(0.85 0 -0.3126727 0.9498609 391.3766479 544.8146973)" class="st6 st2 st5">::</text>
<text transform="matrix(0.85 0 -0.3126727 0.9498609 394.4098511 544.8146973)" class="st2 st5">F</text>
<text transform="matrix(0.85 0 -0.3126727 0.9498609 394.4098511 544.8146973)" class="st6 st2 st5">F</text>
<text transform="matrix(0.85 0 -0.3126727 0.9498609 397.9645386 544.8146973)" class="st2 st5">l</text>
<text transform="matrix(0.85 0 -0.3126727 0.9498609 397.9645386 544.8146973)" class="st6 st2 st5">l</text>
<text transform="matrix(0.85 0 -0.3126727 0.9498609 399.4899292 544.8146973)" class="st2 st5">oo</text>
<text transform="matrix(0.85 0 -0.3126727 0.9498609 399.4899292 544.8146973)" class="st6 st2 st5">oo</text>
<text transform="matrix(0.85 0 -0.3126727 0.9498609 407.6110229 544.8146973)" class="st2 st5">d</text>
<text transform="matrix(0.85 0 -0.3126727 0.9498609 407.6110229 544.8146973)" class="st6 st2 st5">d</text>
<text transform="matrix(0.85 0 -0.3126727 0.9498609 411.6696167 544.8146973)" class="st2 st5">i</text>
<text transform="matrix(0.85 0 -0.3126727 0.9498609 411.6696167 544.8146973)" class="st6 st2 st5">i</text>
<text transform="matrix(0.85 0 -0.3126727 0.9498609 413.1969604 544.8146973)" class="st2 st5">n</text>
<text transform="matrix(0.85 0 -0.3126727 0.9498609 413.1969604 544.8146973)" class="st6 st2 st5">n</text>
<text transform="matrix(0.85 0 -0.3126727 0.9498609 417.2555542 544.8146973)" class="st2 st5">g</text>
<text transform="matrix(0.85 0 -0.3126727 0.9498609 417.2555542 544.8146973)" class="st6 st2 st5">g</text>
<text transform="matrix(0.85 0 -0.3126727 0.9498609 421.3161011 544.8146973)" class="st2 st5">R</text>
<text transform="matrix(0.85 0 -0.3126727 0.9498609 421.3161011 544.8146973)" class="st6 st2 st5">R</text>
<text transform="matrix(0.85 0 -0.3126727 0.9498609 425.3766479 544.8146973)" class="st2 st5">i</text>
<text transform="matrix(0.85 0 -0.3126727 0.9498609 425.3766479 544.8146973)" class="st6 st2 st5">i</text>
<text transform="matrix(0.85 0 -0.3126727 0.9498609 426.9039917 544.8146973)" class="st2 st5">s</text>
<text transform="matrix(0.85 0 -0.3126727 0.9498609 426.9039917 544.8146973)" class="st6 st2 st5">s</text>
<text transform="matrix(0.85 0 -0.3126727 0.9498609 429.9489136 544.8146973)" class="st2 st5">k</text>
<text transform="matrix(0.85 0 -0.3126727 0.9498609 429.9489136 544.8146973)" class="st6 st2 st5">k</text>
<text transform="matrix(0.85 0 -0.3126727 0.9498609 433.5016479 544.8146973)" class="st2 st5">A</text>
<text transform="matrix(0.85 0 -0.3126727 0.9498609 433.5016479 544.8146973)" class="st6 st2 st5">A</text>
<text transform="matrix(0.85 0 -0.3126727 0.9498609 438.0719604 544.8146973)" class="st2 st5">tt</text>
<text transform="matrix(0.85 0 -0.3126727 0.9498609 438.0719604 544.8146973)" class="st6 st2 st5">tt</text>
<text transform="matrix(0.85 0 -0.3126727 0.9498609 443.1403198 544.8146973)" class="st2 st5">r</text>
<text transform="matrix(0.85 0 -0.3126727 0.9498609 443.1403198 544.8146973)" class="st6 st2 st5">r</text>
<text transform="matrix(0.85 0 -0.3126727 0.9498609 445.6735229 544.8146973)" class="st2 st5">i</text>
<text transform="matrix(0.85 0 -0.3126727 0.9498609 445.6735229 544.8146973)" class="st6 st2 st5">i</text>
<text transform="matrix(0.85 0 -0.3126727 0.9498609 447.1989136 544.8146973)" class="st2 st5">b</text>
<text transform="matrix(0.85 0 -0.3126727 0.9498609 447.1989136 544.8146973)" class="st6 st2 st5">b</text>
<text transform="matrix(0.85 0 -0.3126727 0.9498609 451.2594604 544.8146973)" class="st2 st5">u</text>
<text transform="matrix(0.85 0 -0.3126727 0.9498609 451.2594604 544.8146973)" class="st6 st2 st5">u</text>
<text transform="matrix(0.85 0 -0.3126727 0.9498609 455.3180542 544.8146973)" class="st2 st5">t</text>
<text transform="matrix(0.85 0 -0.3126727 0.9498609 455.3180542 544.8146973)" class="st6 st2 st5">t</text>
<text transform="matrix(0.85 0 -0.3126727 0.9498609 457.8532104 544.8146973)" class="st2 st5">e</text>
<text transform="matrix(0.85 0 -0.3126727 0.9498609 457.8532104 544.8146973)" class="st6 st2 st5">e</text>
<line class="st1" x1="369.0423279" y1="548.9331665" x2="473.1564941" y2="548.9331665"/>
<text transform="matrix(0.85 0 0 1 371.5837402 558.1950684)" class="st2 st3">+</text>
<text transform="matrix(0.85 0 0 1 376.1530762 558.1950684)" class="st2 st3"> </text>
<text transform="matrix(0.85 0 0 1 382.7556152 558.1950684)" class="st2 st3">rank: gml::CodeType [0..1]</text>
<text transform="matrix(0.85 0 0 1 371.5837402 566.9294434)" class="st2 st3">+</text>
<text transform="matrix(0.85 0 0 1 376.1530762 566.9294434)" class="st2 st3"> </text>
<text transform="matrix(0.85 0 0 1 382.7556152 566.9294434)" class="st2 st3">rankOrg: gml::CodeType [0..1]</text>
<text transform="matrix(0.85 0 0 1 371.5837402 575.6716309)" class="st2 st3">+</text>
<text transform="matrix(0.85 0 0 1 376.1530762 575.6716309)" class="st2 st3"> </text>
<text transform="matrix(0.85 0 0 1 382.7556152 575.6716309)" class="st2 st3">depth: gml::LengthType [0..1]</text>
<polygon class="st0" points="327.9045105,694.4760132 443.191925,694.4760132 443.191925,640.4760132 327.9045105,640.4760132 "/>
<polygon class="st1" points="327.9045105,694.4760132 443.191925,694.4760132 443.191925,640.4760132 327.9045105,640.4760132 "/>
<text transform="matrix(0.85 0 0 1 368.0290527 650.7575684)" class="st2 st3">«DataType»</text>
<text transform="matrix(0.85 0 0 1 337.5524902 659.4997559)" class="st4 st3">uro::RiverFloodingRiskAttribute</text>
<line class="st1" x1="327.9045105" y1="663.6188965" x2="442.6840515" y2="663.6188965"/>
<text transform="matrix(0.85 0 0 1 330.4353027 672.8825684)" class="st2 st3">+</text>
<text transform="matrix(0.85 0 0 1 335.0046387 672.8825684)" class="st2 st3"> </text>
<text transform="matrix(0.85 0 0 1 341.6149902 672.8825684)" class="st2 st3">adminType: gml::CodeType</text>
<text transform="matrix(0.85 0 0 1 330.4353027 681.6169434)" class="st2 st3">+</text>
<text transform="matrix(0.85 0 0 1 335.0046387 681.6169434)" class="st2 st3"> </text>
<text transform="matrix(0.85 0 0 1 341.6149902 681.6169434)" class="st2 st3">scale: gml::CodeType</text>
<text transform="matrix(0.85 0 0 1 330.4353027 690.3591309)" class="st2 st3">+</text>
<text transform="matrix(0.85 0 0 1 335.0046387 690.3591309)" class="st2 st3"> </text>
<text transform="matrix(0.85 0 0 1 341.6149902 690.3591309)" class="st2 st3">duration: gml::MeasureType [0..1]</text>
<polygon class="st0" points="409.6722412,740.7617798 498.5502014,740.7617798 498.5502014,701.1617432 409.6722412,701.1617432 "/>
<polygon class="st1" points="409.6722412,740.7617798 498.5502014,740.7617798 498.5502014,701.1617432 409.6722412,701.1617432 "/>
<text transform="matrix(0.85 0 0 1 436.5837402 711.4450684)" class="st2 st3">«DataType»</text>
<text transform="matrix(0.85 0 0 1 414.2399902 720.1794434)" class="st4 st3">uro::TsunamiRiskAttribute</text>
<polygon class="st0" points="458.9360352,671.3331909 547.8139648,671.3331909 547.8139648,640.4760132 458.9360352,640.4760132 "/>
<polygon class="st1" points="458.9360352,671.3331909 547.8139648,671.3331909 547.8139648,640.4760132 458.9360352,640.4760132 "/>
<text transform="matrix(0.85 0 0 1 485.8493652 650.7575684)" class="st2 st3">«DataType»</text>
<text transform="matrix(0.85 0 0 1 462.4899902 659.4997559)" class="st4 st3">uro::HighTideRiskAttribute</text>
<polygon class="st0" points="508.7076721,715.0474854 620.947876,715.0474854 620.947876,679.0474854 508.7076721,679.0474854 "/>
<polygon class="st1" points="508.7076721,715.0474854 620.947876,715.0474854 620.947876,679.0474854 508.7076721,679.0474854 "/>
<text transform="matrix(0.85 0 0 1 547.3024902 689.3356934)" class="st2 st3">«DataType»</text>
<text transform="matrix(0.85 0 0 1 514.8024902 698.0700684)" class="st4 st3">uro::InlandFloodingRiskAttribute</text>
<polygon class="st0" points="512.7706909,561.276062 604.1879883,561.276062 604.1879883,525.7903442 512.7706909,525.7903442 "/>
<polygon class="st1" points="512.7706909,561.276062 604.1879883,561.276062 604.1879883,525.7903442 512.7706909,525.7903442 "/>
<text transform="matrix(0.85 0 0 1 540.7009277 536.0700684)" class="st2 st3">«DataType»</text>
<text transform="matrix(0.85 0 0 1 516.8337402 544.8122559)" class="st4 st3">uro::LandSlideRiskAttribute</text>
<line class="st1" x1="512.7706909" y1="548.9331665" x2="603.6801147" y2="548.9331665"/>
<text transform="matrix(0.85 0 0 1 515.3103027 558.1950684)" class="st2 st3">+</text>
<text transform="matrix(0.85 0 0 1 519.8796387 558.1950684)" class="st2 st3"> </text>
<text transform="matrix(0.85 0 0 1 526.4821777 558.1950684)" class="st2 st3">areaType: gml::CodeType</text>
<polygon class="st0" points="529.022644,768.5332031 649.3887939,768.5332031 649.3887939,732.5332031 529.022644,732.5332031 "/>
<polygon class="st1" points="529.022644,768.5332031 649.3887939,768.5332031 649.3887939,732.5332031 529.022644,732.5332031 "/>
<text transform="matrix(0.85 0 0 1 571.6774902 742.8200684)" class="st2 st3">«DataType»</text>
<text transform="matrix(0.85 0 0 1 534.6071777 751.5622559)" class="st4 st3">uro::ReservoirFloodingRiskAttribute</text>
<polygon class="st0" points="320.2864075,382.3045959 461.4754028,382.3045959 461.4754028,325.7331848 320.2864075,325.7331848 "/>
<polygon class="st1" points="320.2864075,382.3045959 461.4754028,382.3045959 461.4754028,325.7331848 320.2864075,325.7331848 "/>
<text transform="matrix(0.85 0 0 1 373.1071777 336.0154114)" class="st2 st3">«DataType»</text>
<text transform="matrix(0.85 0 0 1 350.2478027 344.7575989)" class="st4 st3">uro::KeyValuePairAttribute</text>
<line class="st1" x1="320.2864075" y1="348.8760071" x2="460.9675293" y2="348.8760071"/>
<text transform="matrix(0.85 0 0 1 322.8259277 358.1325989)" class="st2 st3">+</text>
<text transform="matrix(0.85 0 0 1 327.3952637 358.1325989)" class="st2 st3"> </text>
<text transform="matrix(0.85 0 0 1 333.9978027 358.1325989)" class="st2 st3">key: gml::CodeType</text>
<text transform="matrix(0.85 0 0 1 322.8259277 366.8747864)" class="st2 st3">+</text>
<text transform="matrix(0.85 0 0 1 327.3952637 366.8747864)" class="st2 st3"> </text>
<text transform="matrix(0.85 0 0 1 333.9978027 366.8747864)" class="st2 st3">codeValue: gml::CodeType [0..1]</text>
<polygon class="st0" points="599.1092529,364.3045959 751.4714966,364.3045959 751.4714966,214.1331787 599.1092529,214.1331787 "/>
<polygon class="st1" points="599.1092529,364.3045959 751.4714966,364.3045959 751.4714966,214.1331787 599.1092529,214.1331787 "/>
<text transform="matrix(0.85 0 0 1 657.5134277 224.4216461)" class="st2 st3">«DataType»</text>
<text transform="matrix(0.85 0 0 1 636.1853027 233.1638336)" class="st4 st3">uro::DataQualityAttribute</text>
<line class="st1" x1="599.1092529" y1="237.2760162" x2="750.963623" y2="237.2760162"/>
<text transform="matrix(0.85 0 0 1 601.6540527 246.5310211)" class="st2 st3">+</text>
<text transform="matrix(0.85 0 0 1 606.2233887 246.5310211)" class="st2 st3"> </text>
<text transform="matrix(0.85 0 0 1 612.8259277 246.5310211)" class="st2 st3">geometrySrcDescLod0: gml::CodeType [0..*]</text>
<text transform="matrix(0.85 0 0 1 601.6540527 255.2732086)" class="st2 st3">+</text>
<text transform="matrix(0.85 0 0 1 606.2233887 255.2732086)" class="st2 st3"> </text>
<text transform="matrix(0.85 0 0 1 612.8259277 255.2732086)" class="st2 st3">geometrySrcDescLod1: gml::CodeType [1..*]</text>
<text transform="matrix(0.85 0 0 1 601.6540527 264.0075989)" class="st2 st3">+</text>
<text transform="matrix(0.85 0 0 1 606.2233887 264.0075989)" class="st2 st3"> </text>
<text transform="matrix(0.85 0 0 1 612.8259277 264.0075989)" class="st2 st3">geometrySrcDescLod2: gml::CodeType [0..*]</text>
<text transform="matrix(0.85 0 0 1 601.6540527 272.7575989)" class="st2 st3">+</text>
<text transform="matrix(0.85 0 0 1 606.2233887 272.7575989)" class="st2 st3"> </text>
<text transform="matrix(0.85 0 0 1 612.8259277 272.7575989)" class="st2 st3">geometrySrcDescLod3: gml::CodeType [0..*]</text>
<text transform="matrix(0.85 0 0 1 601.6540527 281.4997864)" class="st2 st3">+</text>
<text transform="matrix(0.85 0 0 1 606.2233887 281.4997864)" class="st2 st3"> </text>
<text transform="matrix(0.85 0 0 1 612.8259277 281.4997864)" class="st2 st3">geometrySrcDescLod4: gml::CodeType [0..*]</text>
<text transform="matrix(0.85 0 0 1 601.6540527 290.2419739)" class="st2 st3">+</text>
<text transform="matrix(0.85 0 0 1 606.2233887 290.2419739)" class="st2 st3"> </text>
<text transform="matrix(0.85 0 0 1 612.8259277 290.2419739)" class="st2 st3">thematicSrcDesc: gml::CodeType [0..*]</text>
<text transform="matrix(0.85 0 0 1 601.6540527 298.9919739)" class="st2 st3">+</text>
<text transform="matrix(0.85 0 0 1 606.2233887 298.9919739)" class="st2 st3"> </text>
<text transform="matrix(0.85 0 0 1 612.8259277 298.9919739)" class="st2 st3">appearanceSrcDescLod0: gml::CodeType [0..*]</text>
<text transform="matrix(0.85 0 0 1 601.6540527 307.7341614)" class="st2 st3">+</text>
<text transform="matrix(0.85 0 0 1 606.2233887 307.7341614)" class="st2 st3"> </text>
<text transform="matrix(0.85 0 0 1 612.8259277 307.7341614)" class="st2 st3">appearanceSrcDescLod1: gml::CodeType [0..*]</text>
<text transform="matrix(0.85 0 0 1 601.6540527 316.4763489)" class="st2 st3">+</text>
<text transform="matrix(0.85 0 0 1 606.2233887 316.4763489)" class="st2 st3"> </text>
<text transform="matrix(0.85 0 0 1 612.8259277 316.4763489)" class="st2 st3">appearanceSrcDescLod2: gml::CodeType [0..*]</text>
<text transform="matrix(0.85 0 0 1 601.6540527 325.2263489)" class="st2 st3">+</text>
<text transform="matrix(0.85 0 0 1 606.2233887 325.2263489)" class="st2 st3"> </text>
<text transform="matrix(0.85 0 0 1 612.8259277 325.2263489)" class="st2 st3">appearanceSrcDescLod3: gml::CodeType [0..*]</text>
<text transform="matrix(0.85 0 0 1 601.6540527 333.9607239)" class="st2 st3">+</text>
<text transform="matrix(0.85 0 0 1 606.2233887 333.9607239)" class="st2 st3"> </text>
<text transform="matrix(0.85 0 0 1 612.8259277 333.9607239)" class="st2 st3">appearanceSrcDescLod4: gml::CodeType [0..*]</text>
<text transform="matrix(0.85 0 0 1 601.6540527 342.7029114)" class="st2 st3">+</text>
<text transform="matrix(0.85 0 0 1 606.2233887 342.7029114)" class="st2 st3"> </text>
<text transform="matrix(0.85 0 0 1 612.8259277 342.7029114)" class="st2 st3">lodType: gml::CodeType [0..*]</text>
<text transform="matrix(0.85 0 0 1 601.6540527 351.4450989)" class="st2 st3">+</text>
<text transform="matrix(0.85 0 0 1 606.2233887 351.4450989)" class="st2 st3"> </text>
<text transform="matrix(0.85 0 0 1 612.8259277 351.4450989)" class="st2 st3">lod1HeightType: gml::CodeType [0..1]</text>
<text transform="matrix(0.85 0 0 1 601.6540527 360.1794739)" class="st2 st3">+</text>
<text transform="matrix(0.85 0 0 1 606.2233887 360.1794739)" class="st2 st3"> </text>
<text transform="matrix(0.85 0 0 1 612.8259277 360.1794739)" class="st2 st3">tranDataAcquisition: xs::string [0..1]</text>
<line class="st1" x1="127.8021545" y1="490.304718" x2="127.8021545" y2="455.3332825"/>
<line class="st1" x1="127.8021545" y1="455.3332825" x2="217.6958618" y2="455.3332825"/>
<line class="st1" x1="217.6958618" y1="455.3332825" x2="217.6958618" y2="114.361702"/>
<line class="st1" x1="217.6958618" y1="114.361702" x2="336.0304871" y2="114.361702"/>
<line class="st1" x1="336.0304871" y1="114.361702" x2="336.0304871" y2="88.6474762"/>
<polyline class="st8" points="338.5698547,93.7902985 336.0304871,88.6474762 333.4911194,93.7902985 336.0304871,98.9331131 
	338.5698547,93.7902985 "/>
<polygon class="st1" points="338.5698547,93.7902985 336.0304871,88.6474762 333.4911194,93.7902985 336.0304871,98.9331131 "/>
<polyline class="st1" points="130.8493958,482.5903625 127.8021545,490.304718 124.7549057,482.5903625 "/>
<line class="st1" x1="408.6564941" y1="325.2189026" x2="408.6564941" y2="113.8474197"/>
<line class="st1" x1="335.5226135" y1="113.8474197" x2="335.5226135" y2="88.6474762"/>
<polyline class="st8" points="338.0619812,93.7902985 335.5226135,88.6474762 332.9832458,93.7902985 335.5226135,98.9331131 
	338.0619812,93.7902985 "/>
<polyline class="st1" points="338.0619812,93.7902985 335.5226135,88.6474762 332.9832458,93.7902985 335.5226135,98.9331131 "/>
<polyline class="st1" points="411.7037354,317.5046692 408.6564941,325.2189026 405.6092529,317.5046692 "/>
<line class="st1" x1="67.8730087" y1="144.7045898" x2="67.8730087" y2="113.8474197"/>
<line class="st1" x1="67.8730087" y1="113.8474197" x2="335.5226135" y2="113.8474197"/>
<polyline class="st8" points="338.0619812,93.7902985 335.5226135,88.6474762 332.9832458,93.7902985 335.5226135,98.9331131 
	338.0619812,93.7902985 "/>
<polyline class="st1" points="338.0619812,93.7902985 335.5226135,88.6474762 332.9832458,93.7902985 335.5226135,98.9331131 "/>
<polyline class="st1" points="70.9202576,136.9902344 67.8730087,144.7045898 64.8257599,136.9902344 "/>
<line class="st1" x1="355.8375854" y1="239.3331451" x2="355.8375854" y2="113.8474197"/>
<polyline class="st8" points="338.0619812,93.7902985 335.5226135,88.6474762 332.9832458,93.7902985 335.5226135,98.9331131 
	338.0619812,93.7902985 "/>
<polyline class="st1" points="338.0619812,93.7902985 335.5226135,88.6474762 332.9832458,93.7902985 335.5226135,98.9331131 "/>
<polyline class="st1" points="358.8848267,231.6189117 355.8375854,239.3331451 352.7903442,231.6189117 "/>
<line class="st1" x1="523.4360352" y1="154.9902344" x2="523.4360352" y2="113.8474197"/>
<polyline class="st8" points="338.0619812,93.7902985 335.5226135,88.6474762 332.9832458,93.7902985 335.5226135,98.9331131 
	338.0619812,93.7902985 "/>
<polyline class="st1" points="338.0619812,93.7902985 335.5226135,88.6474762 332.9832458,93.7902985 335.5226135,98.9331131 "/>
<polyline class="st1" points="526.4832764,147.276001 523.4360352,154.9902344 520.3887939,147.276001 "/>
<line class="st1" x1="148.1171112" y1="319.5617981" x2="148.1171112" y2="113.8474197"/>
<polyline class="st8" points="338.0619812,93.7902985 335.5226135,88.6474762 332.9832458,93.7902985 335.5226135,98.9331131 
	338.0619812,93.7902985 "/>
<polyline class="st1" points="338.0619812,93.7902985 335.5226135,88.6474762 332.9832458,93.7902985 335.5226135,98.9331131 "/>
<polyline class="st1" points="151.1643524,311.8474426 148.1171112,319.5617981 145.06987,311.8474426 "/>
<line class="st1" x1="674.7825317" y1="396.7046204" x2="674.7825317" y2="364.8188782"/>
<polyline class="st8" points="677.3218994,369.9617004 674.7825317,364.8188782 672.2431641,369.9617004 674.7825317,375.1046448 
	677.3218994,369.9617004 "/>
<polygon class="st1" points="677.3218994,369.9617004 674.7825317,364.8188782 672.2431641,369.9617004 674.7825317,375.1046448 "/>
<polyline class="st1" points="677.8297729,388.9902649 674.7825317,396.7046204 671.7352905,388.9902649 "/>
<line class="st1" x1="471.125" y1="415.7331848" x2="471.125" y2="113.8474197"/>
<polyline class="st8" points="338.0619812,93.7902985 335.5226135,88.6474762 332.9832458,93.7902985 335.5226135,98.9331131 
	338.0619812,93.7902985 "/>
<polyline class="st1" points="338.0619812,93.7902985 335.5226135,88.6474762 332.9832458,93.7902985 335.5226135,98.9331131 "/>
<polyline class="st1" points="474.1722412,408.0189514 471.125,415.7331848 468.0777588,408.0189514 "/>
<line class="st1" x1="627.5502319" y1="732.0189209" x2="627.5502319" y2="605.5045776"/>
<line class="st1" x1="627.5502319" y1="605.5045776" x2="421.3533325" y2="605.5045776"/>
<line class="st1" x1="421.3533325" y1="605.5045776" x2="421.3533325" y2="580.3046265"/>
<polyline class="st9" points="424.4005737,588.5332031 418.3060913,588.5332031 421.3533325,580.3046265 424.4005737,588.5332031 
	"/>
<polygon class="st1" points="424.4005737,588.5332031 418.3060913,588.5332031 421.3533325,580.3046265 "/>
<line class="st1" x1="300.4793091" y1="554.0760498" x2="300.4793091" y2="454.8188782"/>
<line class="st1" x1="300.4793091" y1="454.8188782" x2="218.7116089" y2="454.8188782"/>
<line class="st1" x1="218.7116089" y1="454.8188782" x2="218.7116089" y2="113.8474197"/>
<line class="st1" x1="218.7116089" y1="113.8474197" x2="335.01474" y2="113.8474197"/>
<line class="st1" x1="335.01474" y1="113.8474197" x2="335.01474" y2="88.6474762"/>
<polyline class="st8" points="337.5541077,93.7902985 335.01474,88.6474762 332.4753723,93.7902985 335.01474,98.9331131 
	337.5541077,93.7902985 "/>
<polyline class="st1" points="337.5541077,93.7902985 335.01474,88.6474762 332.4753723,93.7902985 335.01474,98.9331131 "/>
<polyline class="st1" points="303.5265503,546.3617554 300.4793091,554.0760498 297.4320679,546.3617554 "/>
<line class="st1" x1="558.4793701" y1="525.276062" x2="558.4793701" y2="480.5332336"/>
<line class="st1" x1="558.4793701" y1="480.5332336" x2="472.1407471" y2="480.5332336"/>
<line class="st1" x1="472.1407471" y1="480.5332336" x2="472.1407471" y2="455.3332825"/>
<polyline class="st9" points="475.1879883,463.5617981 469.0935059,463.5617981 472.1407471,455.3332825 475.1879883,463.5617981 
	"/>
<polygon class="st1" points="475.1879883,463.5617981 469.0935059,463.5617981 472.1407471,455.3332825 "/>
<line class="st1" x1="218.7116089" y1="490.304718" x2="218.7116089" y2="114.8759842"/>
<line class="st1" x1="218.7116089" y1="114.8759842" x2="335.01474" y2="114.8759842"/>
<line class="st1" x1="335.01474" y1="114.8759842" x2="335.01474" y2="88.6474762"/>
<polyline class="st8" points="337.5541077,93.7902985 335.01474,88.6474762 332.4753723,93.7902985 335.01474,98.9331131 
	337.5541077,93.7902985 "/>
<polygon class="st1" points="337.5541077,93.7902985 335.01474,88.6474762 332.4753723,93.7902985 335.01474,98.9331131 "/>
<polyline class="st1" points="221.7588501,482.5903625 218.7116089,490.304718 215.6643524,482.5903625 "/>
<line class="st1" x1="674.7825317" y1="213.6188965" x2="674.7825317" y2="113.8474197"/>
<line class="st1" x1="674.7825317" y1="113.8474197" x2="335.5226135" y2="113.8474197"/>
<polyline class="st8" points="338.0619812,93.7902985 335.5226135,88.6474762 332.9832458,93.7902985 335.5226135,98.9331131 
	338.0619812,93.7902985 "/>
<polyline class="st1" points="338.0619812,93.7902985 335.5226135,88.6474762 332.9832458,93.7902985 335.5226135,98.9331131 "/>
<polyline class="st1" points="677.8297729,205.904541 674.7825317,213.6188965 671.7352905,205.904541 "/>
<line class="st1" x1="421.3533325" y1="525.276062" x2="421.3533325" y2="480.5332336"/>
<line class="st1" x1="421.3533325" y1="480.5332336" x2="472.1407471" y2="480.5332336"/>
<line class="st1" x1="385.294281" y1="639.961731" x2="385.294281" y2="605.5045776"/>
<line class="st1" x1="385.294281" y1="605.5045776" x2="421.3533325" y2="605.5045776"/>
<line class="st1" x1="453.3493958" y1="700.6474609" x2="453.3493958" y2="605.5045776"/>
<line class="st1" x1="502.6131897" y1="639.961731" x2="502.6131897" y2="605.5045776"/>
<line class="st1" x1="564.5738525" y1="678.5332031" x2="564.5738525" y2="605.5045776"/>
<line class="st1" x1="295.4005737" y1="161.1617432" x2="295.4005737" y2="113.8474197"/>
<polyline class="st8" points="338.0619812,93.7902985 335.5226135,88.6474762 332.9832458,93.7902985 335.5226135,98.9331131 
	338.0619812,93.7902985 "/>
<polyline class="st1" points="338.0619812,93.7902985 335.5226135,88.6474762 332.9832458,93.7902985 335.5226135,98.9331131 "/>
<polyline class="st1" points="298.4478149,153.4473877 295.4005737,161.1617432 292.3533325,153.4473877 "/>
<text transform="matrix(0.85 0 0 1 478.2321777 410.5935364)" class="st2 st3">+tunDisasterRiskAttribute</text>
<text transform="matrix(0.85 0 0 1 478.2321777 403.3825989)" class="st2 st3">0..*</text>
<text transform="matrix(0.85 0 0 1 8.450942 139.0544586)" class="st2 st3">+tunBaseAttribute</text>
<text transform="matrix(0.85 0 0 1 75.4900055 140.0778961)" class="st2 st3">0..1</text>
<text transform="matrix(0.85 0 0 1 56.700943 485.1638489)" class="st2 st3">+tunFacilityIdAttribute</text>
<text transform="matrix(0.85 0 0 1 139.9900055 485.1638489)" class="st2 st3">0..1</text>
<text transform="matrix(0.85 0 0 1 535.1149902 143.6794586)" class="st2 st3">+tunFunctionalAttribute</text>
<text transform="matrix(0.85 0 0 1 531.0524902 150.8747711)" class="st2 st3">0..1</text>
<text transform="matrix(0.85 0 0 1 317.7478027 320.5935364)" class="st2 st3">+tunKeyValuePairAttribute</text>
<text transform="matrix(0.85 0 0 1 414.2399902 321.6169739)" class="st2 st3">0..*</text>
<text transform="matrix(0.85 0 0 1 72.950943 310.3044739)" class="st2 st3">+tunStructureAttribute</text>
<text transform="matrix(0.85 0 0 1 155.2243805 312.3591614)" class="st2 st3">0..1</text>
<text transform="matrix(0.85 0 0 1 262.3884277 235.7263336)" class="st2 st3">+tunRiskAssessmentAttribute</text>
<text transform="matrix(0.85 0 0 1 364.9821777 232.6482086)" class="st2 st3">0..1</text>
<text transform="matrix(0.85 0 0 1 304.5446777 541.7263184)" class="st2 st3">+tunFacilityAttribute</text>
<text transform="matrix(0.85 0 0 1 310.1228027 549.4450684)" class="st2 st3">0..*</text>
<text transform="matrix(0.85 0 0 1 144.0525055 472.3044739)" class="st2 st3">+tunFacilityTypeAttribute</text>
<text transform="matrix(0.85 0 0 1 224.8025055 472.3044739)" class="st2 st3">0..*</text>
<text transform="matrix(0.85 0 0 1 590.4743652 210.0153961)" class="st2 st3">+tunDataQualityAttribute</text>
<text transform="matrix(0.85 0 0 1 681.8962402 202.8200836)" class="st2 st3">0..1</text>
<text transform="matrix(0.85 0 0 1 241.560318 157.5544586)" class="st2 st3">+tunDmAttribute</text>
<text transform="matrix(0.85 0 0 1 303.0134277 157.5544586)" class="st2 st3">0</text>
<text transform="matrix(0.85 0 0 1 306.5725098 157.5544586)" class="st2 st3">..</text>
<text transform="matrix(0.85 0 0 1 309.6066895 157.5544586)" class="st2 st3">*</text>
<text transform="matrix(0.85 0 0 1 559.9978027 383.3279114)" class="st2 st3">+publicSurveyDataQualityAttribute</text>
<text transform="matrix(0.85 0 0 1 680.3728027 393.6169739)" class="st2 st3">0..1</text>
</svg>
