<?xml version="1.0" encoding="utf-8"?>
<!-- Generator: Adobe Illustrator 28.1.0, SVG Export Plug-In . SVG Version: 6.00 Build 0)  -->
<svg version="1.1" id="レイヤー_1" xmlns="http://www.w3.org/2000/svg" xmlns:xlink="http://www.w3.org/1999/xlink" x="0px"
	 y="0px" viewBox="0 0 974.5 927.4" style="enable-background:new 0 0 974.5 927.4;" xml:space="preserve">
<style type="text/css">
	.st0{fill-rule:evenodd;clip-rule:evenodd;fill:#CFD1D8;}
	.st1{fill-rule:evenodd;clip-rule:evenodd;fill:#FFCCFF;}
	.st2{fill:none;stroke:#000000;stroke-width:1.7322;stroke-linecap:round;stroke-linejoin:round;stroke-miterlimit:10;}
	.st3{font-family:'YuGothicUI-Regular';}
	.st4{font-size:11.2598px;}
	.st5{font-family:'YuGothicUI-Bold';}
	.st6{font-size:11.8736px;}
	.st7{fill:none;stroke:#000000;stroke-width:0.3218;stroke-miterlimit:10;}
	.st8{fill-rule:evenodd;clip-rule:evenodd;fill:#CCFFCC;}
	.st9{fill-rule:evenodd;clip-rule:evenodd;fill:#F0F0F0;}
	.st10{fill:none;stroke:#D7D7D7;stroke-width:0.8662;stroke-linecap:square;stroke-miterlimit:10;}
	.st11{fill:none;stroke:#000000;stroke-width:0.8662;stroke-linecap:square;stroke-miterlimit:10;}
	.st12{fill:#003060;}
	.st13{fill-rule:evenodd;clip-rule:evenodd;fill:#FFFFCC;}
	.st14{font-family:'MS-PGothic';}
	.st15{font-size:13.8582px;}
	.st16{fill:none;stroke:#003060;stroke-width:0.396;stroke-miterlimit:10;}
	.st17{fill:none;stroke:#000000;stroke-width:1.7322;stroke-linecap:round;stroke-linejoin:bevel;stroke-miterlimit:10;}
	.st18{fill-rule:evenodd;clip-rule:evenodd;fill:#FFFFFF;}
	.st19{font-family:'Calibri';}
	.st20{font-size:9.5276px;}
</style>
<path class="st0" d="M266.8,591.5c1.2,0,2.2,1,2.2,2.2l0,0v71l0,0c0,1.2-1,2.2-2.2,2.2l0,0l0,0H67.1l0,0c-1.2,0-2.2-1-2.2-2.2l0,0
	v-71c0-1.2,1-2.2,2.2-2.2l0,0H266.8L266.8,591.5L266.8,591.5z"/>
<path class="st1" d="M264.2,588.9c1.2,0,2.2,1,2.2,2.2l0,0v71l0,0c0,1.2-1,2.2-2.2,2.2l0,0l0,0H64.5l0,0c-1.2,0-2.2-1-2.2-2.2l0,0
	v-71c0-1.2,1-2.2,2.2-2.2l0,0H264.2L264.2,588.9L264.2,588.9z"/>
<path class="st2" d="M264.2,588.9c1.2,0,2.2,1,2.2,2.2l0,0v71l0,0c0,1.2-1,2.2-2.2,2.2l0,0l0,0H64.5l0,0c-1.2,0-2.2-1-2.2-2.2l0,0
	v-71c0-1.2,1-2.2,2.2-2.2l0,0H264.2L264.2,588.9L264.2,588.9z"/>
<text transform="matrix(0.85 0 0 1 134.3735 606.1838)" class="st3 st4">«DataType»</text>
<text transform="matrix(0.85 0 0 1 129.1704 620.9182)" class="st5 st4">uro::Elevation</text>
<line class="st2" x1="62.3" y1="627.8" x2="266.3" y2="627.8"/>
<text transform="matrix(0.85 0 0 1 66.6548 643.4182)" class="st3 st4">+ elevationReference: gml::CodeType</text>
<text transform="matrix(0.85 0 0 1 66.6548 658.1525)" class="st3 st4">+ elevationValue: gml::DirectPosition</text>
<path class="st0" d="M564.5,737.8c1.2,0,2.2,1,2.2,2.2l0,0v85.7l0,0c0,1.2-1,2.2-2.2,2.2l0,0l0,0H362.3l0,0c-1.2,0-2.2-1-2.2-2.2
	l0,0V740c0-1.2,1-2.2,2.2-2.2l0,0H564.5L564.5,737.8L564.5,737.8z"/>
<path class="st1" d="M561.9,735.2c1.2,0,2.2,1,2.2,2.2l0,0v85.7l0,0c0,1.2-1,2.2-2.2,2.2l0,0l0,0H359.7l0,0c-1.2,0-2.2-1-2.2-2.2
	l0,0v-85.7c0-1.2,1-2.2,2.2-2.2l0,0H561.9L561.9,735.2L561.9,735.2z"/>
<path class="st2" d="M561.9,735.2c1.2,0,2.2,1,2.2,2.2l0,0v85.7l0,0c0,1.2-1,2.2-2.2,2.2l0,0l0,0H359.7l0,0c-1.2,0-2.2-1-2.2-2.2
	l0,0v-85.7c0-1.2,1-2.2,2.2-2.2l0,0H561.9L561.9,735.2L561.9,735.2z"/>
<text transform="matrix(0.85 0 0 1 431.2646 752.5588)" class="st3 st4">«DataType»</text>
<text transform="matrix(0.85 0 0 1 420.8584 767.2775)" class="st5 st4">uro::Occupancy</text>
<line class="st2" x1="357.5" y1="774.2" x2="564.1" y2="774.2"/>
<text transform="matrix(0.85 0 0 1 361.8267 789.8088)" class="st3 st4">+ interval: gml::CodeType [0..1]</text>
<text transform="matrix(0.85 0 0 1 361.8267 804.5275)" class="st3 st4">+ numberOfOccupants: xs::integer</text>
<text transform="matrix(0.85 0 0 1 361.8267 819.2619)" class="st3 st4">+ occupantType: gml::CodeType [0..1]</text>
<path class="st0" d="M947.4,730c1.2,0,2.2,1,2.2,2.2l0,0V779l0,0c0,1.2-1,2.2-2.2,2.2l0,0l0,0H796.3l0,0c-1.2,0-2.2-1-2.2-2.2l0,0
	v-46.8c0-1.2,1-2.2,2.2-2.2l0,0H947.4L947.4,730L947.4,730z"/>
<path class="st1" d="M944.8,727.4c1.2,0,2.2,1,2.2,2.2l0,0v46.8l0,0c0,1.2-1,2.2-2.2,2.2l0,0l0,0H793.7l0,0c-1.2,0-2.2-1-2.2-2.2
	l0,0v-46.8c0-1.2,1-2.2,2.2-2.2l0,0H944.8L944.8,727.4L944.8,727.4z"/>
<path class="st2" d="M944.8,727.4c1.2,0,2.2,1,2.2,2.2l0,0v46.8l0,0c0,1.2-1,2.2-2.2,2.2l0,0l0,0H793.7l0,0c-1.2,0-2.2-1-2.2-2.2
	l0,0v-46.8c0-1.2,1-2.2,2.2-2.2l0,0H944.8L944.8,727.4L944.8,727.4z"/>
<text transform="matrix(0.85 0 0 1 831.4678 744.7619)" class="st3 st4">«Enumeration»</text>
<text transform="matrix(0.85 0 0 1 808.9053 759.4963)" class="st5 st4">uro::HeightStatusValue</text>
<path class="st0" d="M261.6,678.1c1.2,0,2.2,1,2.2,2.2l0,0v100.5l0,0c0,1.2-1,2.2-2.2,2.2l0,0l0,0H67.1l0,0c-1.2,0-2.2-1-2.2-2.2
	l0,0V680.2c0-1.2,1-2.2,2.2-2.2l0,0L261.6,678.1L261.6,678.1L261.6,678.1z"/>
<path class="st1" d="M259,675.5c1.2,0,2.2,1,2.2,2.2l0,0v100.5l0,0c0,1.2-1,2.2-2.2,2.2l0,0l0,0H64.5l0,0c-1.2,0-2.2-1-2.2-2.2l0,0
	V677.6c0-1.2,1-2.2,2.2-2.2l0,0H259V675.5L259,675.5z"/>
<path class="st2" d="M259,675.5c1.2,0,2.2,1,2.2,2.2l0,0v100.5l0,0c0,1.2-1,2.2-2.2,2.2l0,0l0,0H64.5l0,0c-1.2,0-2.2-1-2.2-2.2l0,0
	V677.6c0-1.2,1-2.2,2.2-2.2l0,0H259V675.5L259,675.5z"/>
<text transform="matrix(0.85 0 0 1 131.7798 692.7932)" class="st3 st4">«DataType»</text>
<text transform="matrix(0.85 0 0 1 132.6235 707.5275)" class="st5 st4">uro::Height</text>
<line class="st2" x1="62.3" y1="714.5" x2="261.1" y2="714.5"/>
<text transform="matrix(0.85 0 0 1 66.6548 730.0432)" class="st3 st4">+ highReference: gml::CodeType</text>
<text transform="matrix(0.85 0 0 1 66.6548 744.7619)" class="st3 st4">+ lowReference: gml::CodeType</text>
<text transform="matrix(0.85 0 0 1 66.6548 759.4963)" class="st3 st4">+ status: HeightStatusValue</text>
<text transform="matrix(0.85 0 0 1 66.6548 774.215)" class="st3 st4">+ value: gml::LengthType</text>
<path class="st0" d="M270.2,799.3c1.2,0,2.2,1,2.2,2.2l0,0v98.7l0,0c0,1.2-1,2.2-2.2,2.2l0,0l0,0H67.1l0,0c-1.2,0-2.2-1-2.2-2.2l0,0
	v-98.7c0-1.2,1-2.2,2.2-2.2l0,0H270.2L270.2,799.3L270.2,799.3z"/>
<path class="st1" d="M267.6,796.7c1.2,0,2.2,1,2.2,2.2l0,0v98.7l0,0c0,1.2-1,2.2-2.2,2.2l0,0l0,0H64.5l0,0c-1.2,0-2.2-1-2.2-2.2l0,0
	v-98.7c0-1.2,1-2.2,2.2-2.2l0,0H267.6L267.6,796.7L267.6,796.7z"/>
<path class="st2" d="M267.6,796.7c1.2,0,2.2,1,2.2,2.2l0,0v98.7l0,0c0,1.2-1,2.2-2.2,2.2l0,0l0,0H64.5l0,0c-1.2,0-2.2-1-2.2-2.2l0,0
	v-98.7c0-1.2,1-2.2,2.2-2.2l0,0H267.6L267.6,796.7L267.6,796.7z"/>
<text transform="matrix(0.85 0 0 1 136.1079 814.0588)" class="st3 st4">«DataType»</text>
<text transform="matrix(0.85 0 0 1 105.7329 828.7775)" class="st5 st4">uro::ConstructionEvent</text>
<line class="st2" x1="62.3" y1="835.7" x2="269.8" y2="835.7"/>
<text transform="matrix(0.85 0 0 1 66.6548 851.3088)" class="st3 st4">+ event: gml::CodeType</text>
<text transform="matrix(0.85 0 0 1 66.6548 866.0275)" class="st3 st4">+ dateOfEvent: xs::date</text>
<text transform="matrix(0.85 0 0 1 66.6548 880.7463)" class="st3 st4">+ description: xs::string [0..1]</text>
<path class="st0" d="M782.4,730c1.2,0,2.2,1,2.2,2.2l0,0V779l0,0c0,1.2-1,2.2-2.2,2.2l0,0l0,0H588l0,0c-1.2,0-2.2-1-2.2-2.2l0,0
	v-46.8c0-1.2,1-2.2,2.2-2.2l0,0H782.4L782.4,730L782.4,730z"/>
<path class="st1" d="M779.8,727.4c1.2,0,2.2,1,2.2,2.2l0,0v46.8l0,0c0,1.2-1,2.2-2.2,2.2l0,0l0,0H585.4l0,0c-1.2,0-2.2-1-2.2-2.2
	l0,0v-46.8c0-1.2,1-2.2,2.2-2.2l0,0H779.8L779.8,727.4L779.8,727.4z"/>
<path class="st2" d="M779.8,727.4c1.2,0,2.2,1,2.2,2.2l0,0v46.8l0,0c0,1.2-1,2.2-2.2,2.2l0,0l0,0H585.4l0,0c-1.2,0-2.2-1-2.2-2.2
	l0,0v-46.8c0-1.2,1-2.2,2.2-2.2l0,0H779.8L779.8,727.4L779.8,727.4z"/>
<text transform="matrix(0.85 0 0 1 644.8115 744.7619)" class="st3 st4">«Enumeration»</text>
<text transform="matrix(0.85 0 0 1 590.999 759.4963)" class="st5 st4">uro::ConditionOfConstructionValue</text>
<path class="st0" d="M675.6,210.4c1.2,0,2.2,1,2.2,2.2l0,0v144.6l0,0c0,1.2-1,2.2-2.2,2.2l0,0l0,0H344.9l0,0c-1.2,0-2.2-1-2.2-2.2
	l0,0V212.5c0-1.2,1-2.2,2.2-2.2l0,0L675.6,210.4L675.6,210.4L675.6,210.4z"/>
<path class="st1" d="M673,207.8c1.2,0,2.2,1,2.2,2.2l0,0v144.6l0,0c0,1.2-1,2.2-2.2,2.2l0,0l0,0H342.3l0,0c-1.2,0-2.2-1-2.2-2.2l0,0
	V209.9c0-1.2,1-2.2,2.2-2.2l0,0H673V207.8L673,207.8z"/>
<path class="st2" d="M673,207.8c1.2,0,2.2,1,2.2,2.2l0,0v144.6l0,0c0,1.2-1,2.2-2.2,2.2l0,0l0,0H342.3l0,0c-1.2,0-2.2-1-2.2-2.2l0,0
	V209.9c0-1.2,1-2.2,2.2-2.2l0,0H673V207.8L673,207.8z"/>
<text transform="matrix(0.85 0 0 1 471.2021 225.0744)" class="st3 st4">«FeatureType»</text>
<text transform="matrix(0.85 0 -0.3169 0.9485 439.9464 239.8013)" class="st3 st6">u</text>
<text transform="matrix(0.85 0 -0.3169 0.9485 439.9464 239.8013)" class="st7 st3 st6">u</text>
<text transform="matrix(0.85 0 -0.3169 0.9485 446.8858 239.8013)" class="st3 st6">r</text>
<text transform="matrix(0.85 0 -0.3169 0.9485 446.8858 239.8013)" class="st7 st3 st6">r</text>
<text transform="matrix(0.85 0 -0.3169 0.9485 451.2159 239.8013)" class="st3 st6">o</text>
<text transform="matrix(0.85 0 -0.3169 0.9485 451.2159 239.8013)" class="st7 st3 st6">o</text>
<text transform="matrix(0.85 0 -0.3169 0.9485 458.1554 239.8013)" class="st3 st6">:</text>
<text transform="matrix(0.85 0 -0.3169 0.9485 458.1554 239.8013)" class="st7 st3 st6">:</text>
<text transform="matrix(0.85 0 -0.3169 0.9485 460.7491 239.8013)" class="st3 st6">:</text>
<text transform="matrix(0.85 0 -0.3169 0.9485 460.7491 239.8013)" class="st7 st3 st6">:</text>
<text transform="matrix(0.85 0 -0.3169 0.9485 463.3429 239.8013)" class="st3 st6">A</text>
<text transform="matrix(0.85 0 -0.3169 0.9485 463.3429 239.8013)" class="st7 st3 st6">A</text>
<text transform="matrix(0.85 0 -0.3169 0.9485 471.1515 239.8013)" class="st3 st6">b</text>
<text transform="matrix(0.85 0 -0.3169 0.9485 471.1515 239.8013)" class="st7 st3 st6">b</text>
<text transform="matrix(0.85 0 -0.3169 0.9485 478.0909 239.8013)" class="st3 st6">s</text>
<text transform="matrix(0.85 0 -0.3169 0.9485 478.0909 239.8013)" class="st7 st3 st6">s</text>
<text transform="matrix(0.85 0 -0.3169 0.9485 483.2979 239.8013)" class="st3 st6">t</text>
<text transform="matrix(0.85 0 -0.3169 0.9485 483.2979 239.8013)" class="st7 st3 st6">t</text>
<text transform="matrix(0.85 0 -0.3169 0.9485 487.63 239.8013)" class="st3 st6">r</text>
<text transform="matrix(0.85 0 -0.3169 0.9485 487.63 239.8013)" class="st7 st3 st6">r</text>
<text transform="matrix(0.85 0 -0.3169 0.9485 491.9601 239.8013)" class="st3 st6">u</text>
<text transform="matrix(0.85 0 -0.3169 0.9485 491.9601 239.8013)" class="st7 st3 st6">u</text>
<text transform="matrix(0.85 0 -0.3169 0.9485 498.8995 239.8013)" class="st3 st6">c</text>
<text transform="matrix(0.85 0 -0.3169 0.9485 498.8995 239.8013)" class="st7 st3 st6">c</text>
<text transform="matrix(0.85 0 -0.3169 0.9485 504.1124 239.8013)" class="st3 st6">t</text>
<text transform="matrix(0.85 0 -0.3169 0.9485 504.1124 239.8013)" class="st7 st3 st6">t</text>
<text transform="matrix(0.85 0 -0.3169 0.9485 508.4444 239.8013)" class="st3 st6">C</text>
<text transform="matrix(0.85 0 -0.3169 0.9485 508.4444 239.8013)" class="st7 st3 st6">C</text>
<text transform="matrix(0.85 0 -0.3169 0.9485 515.3976 239.8013)" class="st3 st6">o</text>
<text transform="matrix(0.85 0 -0.3169 0.9485 515.3976 239.8013)" class="st7 st3 st6">o</text>
<text transform="matrix(0.85 0 -0.3169 0.9485 522.337 239.8013)" class="st3 st6">n</text>
<text transform="matrix(0.85 0 -0.3169 0.9485 522.337 239.8013)" class="st7 st3 st6">n</text>
<text transform="matrix(0.85 0 -0.3169 0.9485 529.2765 239.8013)" class="st3 st6">s</text>
<text transform="matrix(0.85 0 -0.3169 0.9485 529.2765 239.8013)" class="st7 st3 st6">s</text>
<text transform="matrix(0.85 0 -0.3169 0.9485 534.4835 239.8013)" class="st3 st6">t</text>
<text transform="matrix(0.85 0 -0.3169 0.9485 534.4835 239.8013)" class="st7 st3 st6">t</text>
<text transform="matrix(0.85 0 -0.3169 0.9485 538.8156 239.8013)" class="st3 st6">r</text>
<text transform="matrix(0.85 0 -0.3169 0.9485 538.8156 239.8013)" class="st7 st3 st6">r</text>
<text transform="matrix(0.85 0 -0.3169 0.9485 543.1437 239.8013)" class="st3 st6">u</text>
<text transform="matrix(0.85 0 -0.3169 0.9485 543.1437 239.8013)" class="st7 st3 st6">u</text>
<text transform="matrix(0.85 0 -0.3169 0.9485 550.0851 239.8013)" class="st3 st6">c</text>
<text transform="matrix(0.85 0 -0.3169 0.9485 550.0851 239.8013)" class="st7 st3 st6">c</text>
<text transform="matrix(0.85 0 -0.3169 0.9485 555.298 239.8013)" class="st3 st6">t</text>
<text transform="matrix(0.85 0 -0.3169 0.9485 555.298 239.8013)" class="st7 st3 st6">t</text>
<text transform="matrix(0.85 0 -0.3169 0.9485 559.63 239.8013)" class="st3 st6">i</text>
<text transform="matrix(0.85 0 -0.3169 0.9485 559.63 239.8013)" class="st7 st3 st6">i</text>
<text transform="matrix(0.85 0 -0.3169 0.9485 562.2374 239.8013)" class="st3 st6">o</text>
<text transform="matrix(0.85 0 -0.3169 0.9485 562.2374 239.8013)" class="st7 st3 st6">o</text>
<text transform="matrix(0.85 0 -0.3169 0.9485 569.1788 239.8013)" class="st3 st6">n</text>
<text transform="matrix(0.85 0 -0.3169 0.9485 569.1788 239.8013)" class="st7 st3 st6">n</text>
<line class="st2" x1="340.1" y1="246.7" x2="675.2" y2="246.7"/>
<text transform="matrix(0.85 0 0 1 344.4517 262.3244)" class="st3 st4">+ conditionOfConstruction: ConditionOfConstructionValue [0..1]</text>
<text transform="matrix(0.85 0 0 1 344.4517 277.0588)" class="st3 st4">+ dateOfConstruction: xs::date [0..1]</text>
<text transform="matrix(0.85 0 0 1 344.4517 291.7775)" class="st3 st4">+ dateOfDemolition: xs::date [0..1]</text>
<text transform="matrix(0.85 0 0 1 344.4517 306.4963)" class="st3 st4">+ constructionEvent: ConstructionEvent [0..*]</text>
<text transform="matrix(0.85 0 0 1 344.4517 321.2307)" class="st3 st4">+ elevation: Elevation [0..*]</text>
<text transform="matrix(0.85 0 0 1 344.4517 335.965)" class="st3 st4">+ height: Height [0..*]</text>
<text transform="matrix(0.85 0 0 1 344.4517 350.6682)" class="st3 st4">+ occupancy: Occupancy [0..*]</text>
<path class="st0" d="M522,418.2c1.2,0,2.2,1,2.2,2.2l0,0v90.1l0,0c0,1.2-1,2.2-2.2,2.2l0,0l0,0H344.9l0,0c-1.2,0-2.2-1-2.2-2.2l0,0
	v-90.1c0-1.2,1-2.2,2.2-2.2l0,0L522,418.2L522,418.2L522,418.2z"/>
<path class="st1" d="M519.4,415.6c1.2,0,2.2,1,2.2,2.2l0,0v90.1l0,0c0,1.2-1,2.2-2.2,2.2l0,0l0,0H342.3l0,0c-1.2,0-2.2-1-2.2-2.2
	l0,0v-90.1c0-1.2,1-2.2,2.2-2.2l0,0H519.4L519.4,415.6L519.4,415.6z"/>
<path class="st2" d="M519.4,415.6c1.2,0,2.2,1,2.2,2.2l0,0v90.1l0,0c0,1.2-1,2.2-2.2,2.2l0,0l0,0H342.3l0,0c-1.2,0-2.2-1-2.2-2.2
	l0,0v-90.1c0-1.2,1-2.2,2.2-2.2l0,0H519.4L519.4,415.6L519.4,415.6z"/>
<text transform="matrix(0.85 0 0 1 393.936 432.9494)" class="st3 st4">«FeatureType»</text>
<text transform="matrix(0.85 0 0 1 370.4985 447.6838)" class="st5 st4">uro::OtherConstruction</text>
<line class="st2" x1="340.1" y1="454.6" x2="521.6" y2="454.6"/>
<text transform="matrix(0.85 0 0 1 344.4517 470.1994)" class="st3 st4">+ class: gml::CodeType [0..1]</text>
<text transform="matrix(0.85 0 0 1 344.4517 484.9182)" class="st3 st4">+ function: gml::CodeType [0..*]</text>
<text transform="matrix(0.85 0 0 1 344.4517 499.6525)" class="st3 st4">+ usage: gml::CodeType [0..*]</text>
<path class="st0" d="M678.3,426.9c1.2,0,2.2,1,2.2,2.2l0,0v64.1l0,0c0,1.2-1,2.2-2.2,2.2l0,0l0,0H535.9l0,0c-1.2,0-2.2-1-2.2-2.2
	l0,0v-64.1c0-1.2,1-2.2,2.2-2.2l0,0H678.3L678.3,426.9L678.3,426.9z"/>
<path class="st1" d="M675.6,424.3c1.2,0,2.2,1,2.2,2.2l0,0v64.1l0,0c0,1.2-1,2.2-2.2,2.2l0,0l0,0H533.3l0,0c-1.2,0-2.2-1-2.2-2.2
	l0,0v-64.1c0-1.2,1-2.2,2.2-2.2l0,0H675.6L675.6,424.3L675.6,424.3z"/>
<path class="st2" d="M675.6,424.3c1.2,0,2.2,1,2.2,2.2l0,0v64.1l0,0c0,1.2-1,2.2-2.2,2.2l0,0l0,0H533.3l0,0c-1.2,0-2.2-1-2.2-2.2
	l0,0v-64.1c0-1.2,1-2.2,2.2-2.2l0,0H675.6L675.6,424.3L675.6,424.3z"/>
<text transform="matrix(0.85 0 0 1 567.5615 441.6213)" class="st3 st4">«FeatureType»</text>
<text transform="matrix(0.85 0 0 1 545.8584 456.34)" class="st5 st4">uro::_BoundarySurface</text>
<path class="st0" d="M435.2,591.5c1.2,0,2.2,1,2.2,2.2l0,0v46.8l0,0c0,1.2-1,2.2-2.2,2.2l0,0l0,0H301.5l0,0c-1.2,0-2.2-1-2.2-2.2
	l0,0v-46.8c0-1.2,1-2.2,2.2-2.2l0,0H435.2L435.2,591.5L435.2,591.5z"/>
<path class="st1" d="M432.6,588.9c1.2,0,2.2,1,2.2,2.2l0,0v46.8l0,0c0,1.2-1,2.2-2.2,2.2l0,0l0,0H298.9l0,0c-1.2,0-2.2-1-2.2-2.2
	l0,0V591c0-1.2,1-2.2,2.2-2.2l0,0h133.7L432.6,588.9L432.6,588.9z"/>
<path class="st2" d="M432.6,588.9c1.2,0,2.2,1,2.2,2.2l0,0v46.8l0,0c0,1.2-1,2.2-2.2,2.2l0,0l0,0H298.9l0,0c-1.2,0-2.2-1-2.2-2.2
	l0,0V591c0-1.2,1-2.2,2.2-2.2l0,0h133.7L432.6,588.9L432.6,588.9z"/>
<text transform="matrix(0.85 0 0 1 328.8267 606.1838)" class="st3 st4">«FeatureType»</text>
<text transform="matrix(0.85 0 0 1 314.936 620.9182)" class="st5 st4">uro::GroundSurface</text>
<path class="st0" d="M634.8,591.5c1.2,0,2.2,1,2.2,2.2l0,0v46.8l0,0c0,1.2-1,2.2-2.2,2.2l0,0l0,0h-151l0,0c-1.2,0-2.2-1-2.2-2.2l0,0
	v-46.8c0-1.2,1-2.2,2.2-2.2l0,0H634.8L634.8,591.5L634.8,591.5z"/>
<path class="st1" d="M632.2,588.9c1.2,0,2.2,1,2.2,2.2l0,0v46.8l0,0c0,1.2-1,2.2-2.2,2.2l0,0l0,0h-151l0,0c-1.2,0-2.2-1-2.2-2.2l0,0
	V591c0-1.2,1-2.2,2.2-2.2l0,0h151V588.9L632.2,588.9z"/>
<path class="st2" d="M632.2,588.9c1.2,0,2.2,1,2.2,2.2l0,0v46.8l0,0c0,1.2-1,2.2-2.2,2.2l0,0l0,0h-151l0,0c-1.2,0-2.2-1-2.2-2.2l0,0
	V591c0-1.2,1-2.2,2.2-2.2l0,0h151V588.9L632.2,588.9z"/>
<text transform="matrix(0.85 0 0 1 519.8115 606.1838)" class="st3 st4">«FeatureType»</text>
<text transform="matrix(0.85 0 0 1 506.7959 620.9182)" class="st5 st4">uro::ClosureSurface</text>
<path class="st0" d="M782.4,591.5c1.2,0,2.2,1,2.2,2.2l0,0v46.8l0,0c0,1.2-1,2.2-2.2,2.2l0,0l0,0H666.1l0,0c-1.2,0-2.2-1-2.2-2.2
	l0,0v-46.8c0-1.2,1-2.2,2.2-2.2l0,0H782.4L782.4,591.5L782.4,591.5z"/>
<path class="st1" d="M779.8,588.9c1.2,0,2.2,1,2.2,2.2l0,0v46.8l0,0c0,1.2-1,2.2-2.2,2.2l0,0l0,0H663.5l0,0c-1.2,0-2.2-1-2.2-2.2
	l0,0V591c0-1.2,1-2.2,2.2-2.2l0,0h116.3V588.9L779.8,588.9z"/>
<path class="st2" d="M779.8,588.9c1.2,0,2.2,1,2.2,2.2l0,0v46.8l0,0c0,1.2-1,2.2-2.2,2.2l0,0l0,0H663.5l0,0c-1.2,0-2.2-1-2.2-2.2
	l0,0V591c0-1.2,1-2.2,2.2-2.2l0,0h116.3V588.9L779.8,588.9z"/>
<text transform="matrix(0.85 0 0 1 684.7646 606.1838)" class="st3 st4">«FeatureType»</text>
<text transform="matrix(0.85 0 0 1 679.5459 620.9182)" class="st5 st4">uro::WallSurface</text>
<path class="st0" d="M930,591.5c1.2,0,2.2,1,2.2,2.2l0,0v46.8l0,0c0,1.2-1,2.2-2.2,2.2l0,0l0,0H805l0,0c-1.2,0-2.2-1-2.2-2.2l0,0
	v-46.8c0-1.2,1-2.2,2.2-2.2l0,0H930L930,591.5L930,591.5z"/>
<path class="st1" d="M927.4,588.9c1.2,0,2.2,1,2.2,2.2l0,0v46.8l0,0c0,1.2-1,2.2-2.2,2.2l0,0l0,0h-125l0,0c-1.2,0-2.2-1-2.2-2.2l0,0
	V591c0-1.2,1-2.2,2.2-2.2l0,0h125V588.9L927.4,588.9z"/>
<path class="st2" d="M927.4,588.9c1.2,0,2.2,1,2.2,2.2l0,0v46.8l0,0c0,1.2-1,2.2-2.2,2.2l0,0l0,0h-125l0,0c-1.2,0-2.2-1-2.2-2.2l0,0
	V591c0-1.2,1-2.2,2.2-2.2l0,0h125V588.9L927.4,588.9z"/>
<text transform="matrix(0.85 0 0 1 827.999 606.1838)" class="st3 st4">«FeatureType»</text>
<text transform="matrix(0.85 0 0 1 821.9209 620.9182)" class="st5 st4">uro::RoofSurface</text>
<path class="st0" d="M530.7,669.4c1.2,0,2.2,1,2.2,2.2l0,0v46.8l0,0c0,1.2-1,2.2-2.2,2.2l0,0l0,0H379.6l0,0c-1.2,0-2.2-1-2.2-2.2
	l0,0v-46.8c0-1.2,1-2.2,2.2-2.2l0,0H530.7L530.7,669.4L530.7,669.4z"/>
<path class="st1" d="M528.1,666.8c1.2,0,2.2,1,2.2,2.2l0,0v46.8l0,0c0,1.2-1,2.2-2.2,2.2l0,0l0,0H377l0,0c-1.2,0-2.2-1-2.2-2.2l0,0
	V669c0-1.2,1-2.2,2.2-2.2l0,0H528.1L528.1,666.8L528.1,666.8z"/>
<path class="st2" d="M528.1,666.8c1.2,0,2.2,1,2.2,2.2l0,0v46.8l0,0c0,1.2-1,2.2-2.2,2.2l0,0l0,0H377l0,0c-1.2,0-2.2-1-2.2-2.2l0,0
	V669c0-1.2,1-2.2,2.2-2.2l0,0H528.1L528.1,666.8L528.1,666.8z"/>
<text transform="matrix(0.85 0 0 1 415.6392 684.1369)" class="st3 st4">«FeatureType»</text>
<text transform="matrix(0.85 0 0 1 389.6084 698.84)" class="st5 st4">uro::OuterCeilingSurface</text>
<path class="st0" d="M739,669.4c1.2,0,2.2,1,2.2,2.2l0,0v46.8l0,0c0,1.2-1,2.2-2.2,2.2l0,0l0,0H561.9l0,0c-1.2,0-2.2-1-2.2-2.2l0,0
	v-46.8c0-1.2,1-2.2,2.2-2.2l0,0H739L739,669.4L739,669.4z"/>
<path class="st1" d="M736.4,666.8c1.2,0,2.2,1,2.2,2.2l0,0v46.8l0,0c0,1.2-1,2.2-2.2,2.2l0,0l0,0H559.3l0,0c-1.2,0-2.2-1-2.2-2.2
	l0,0V669c0-1.2,1-2.2,2.2-2.2l0,0H736.4L736.4,666.8L736.4,666.8z"/>
<path class="st2" d="M736.4,666.8c1.2,0,2.2,1,2.2,2.2l0,0v46.8l0,0c0,1.2-1,2.2-2.2,2.2l0,0l0,0H559.3l0,0c-1.2,0-2.2-1-2.2-2.2
	l0,0V669c0-1.2,1-2.2,2.2-2.2l0,0H736.4L736.4,666.8L736.4,666.8z"/>
<text transform="matrix(0.85 0 0 1 610.9678 684.1369)" class="st3 st4">«FeatureType»</text>
<text transform="matrix(0.85 0 0 1 588.3896 698.84)" class="st5 st4">uro::OuterFloorSurface</text>
<path class="st0" d="M922.2,426.9c1.2,0,2.2,1,2.2,2.2l0,0v64.1l0,0c0,1.2-1,2.2-2.2,2.2l0,0l0,0H770.3l0,0c-1.2,0-2.2-1-2.2-2.2
	l0,0v-64.1c0-1.2,1-2.2,2.2-2.2l0,0H922.2L922.2,426.9L922.2,426.9z"/>
<path class="st1" d="M919.6,424.3c1.2,0,2.2,1,2.2,2.2l0,0v64.1l0,0c0,1.2-1,2.2-2.2,2.2l0,0l0,0H767.7l0,0c-1.2,0-2.2-1-2.2-2.2
	l0,0v-64.1c0-1.2,1-2.2,2.2-2.2l0,0H919.6L919.6,424.3L919.6,424.3z"/>
<path class="st2" d="M919.6,424.3c1.2,0,2.2,1,2.2,2.2l0,0v64.1l0,0c0,1.2-1,2.2-2.2,2.2l0,0l0,0H767.7l0,0c-1.2,0-2.2-1-2.2-2.2
	l0,0v-64.1c0-1.2,1-2.2,2.2-2.2l0,0H919.6L919.6,424.3L919.6,424.3z"/>
<text transform="matrix(0.85 0 -0.3169 0.9485 767.2172 439.023)" class="st3 st6">_AbstractGeometricAggregate</text>
<text transform="matrix(0.85 0 0 1 825.3896 458.9338)" class="st3 st4">«Type»</text>
<text transform="matrix(0.85 0 0 1 798.4678 473.6525)" class="st5 st4">gml::MultiSurface</text>
<path class="st0" d="M245.9,478c1.2,0,2.2,1,2.2,2.2l0,0v89.2l0,0c0,1.2-1,2.2-2.2,2.2l0,0l0,0H75.8l0,0c-1.2,0-2.2-1-2.2-2.2l0,0
	v-89.2c0-1.2,1-2.2,2.2-2.2l0,0H245.9L245.9,478L245.9,478z"/>
<path class="st1" d="M243.3,475.4c1.2,0,2.2,1,2.2,2.2l0,0v89.2l0,0c0,1.2-1,2.2-2.2,2.2l0,0l0,0H73.2l0,0c-1.2,0-2.2-1-2.2-2.2l0,0
	v-89.2c0-1.2,1-2.2,2.2-2.2l0,0L243.3,475.4L243.3,475.4L243.3,475.4z"/>
<path class="st2" d="M243.3,475.4c1.2,0,2.2,1,2.2,2.2l0,0v89.2l0,0c0,1.2-1,2.2-2.2,2.2l0,0l0,0H73.2l0,0c-1.2,0-2.2-1-2.2-2.2l0,0
	v-89.2c0-1.2,1-2.2,2.2-2.2l0,0L243.3,475.4L243.3,475.4L243.3,475.4z"/>
<text transform="matrix(0.85 0 0 1 121.3579 492.715)" class="st3 st4">«FeatureType»</text>
<text transform="matrix(0.85 0 0 1 84.0142 507.4338)" class="st5 st4">uro::ConstructionInstallation</text>
<line class="st2" x1="71" y1="514.4" x2="245.5" y2="514.4"/>
<text transform="matrix(0.85 0 0 1 75.3413 529.965)" class="st3 st4">+ class: gml::CodeType [0..1]</text>
<text transform="matrix(0.85 0 0 1 75.3413 544.6838)" class="st3 st4">+ function: gml::CodeType [0..*]</text>
<text transform="matrix(0.85 0 0 1 75.3413 559.4182)" class="st3 st4">+ usage: gml::CodeType [0..*]</text>
<path class="st0" d="M192.1,201.7c1.2,0,2.2,1,2.2,2.2l0,0v176.7l0,0c0,1.2-1,2.2-2.2,2.2l0,0l0,0h-81.6l0,0c-1.2,0-2.2-1-2.2-2.2
	l0,0V203.9c0-1.2,1-2.2,2.2-2.2l0,0H192.1L192.1,201.7L192.1,201.7z"/>
<path class="st8" d="M189.5,199.1c1.2,0,2.2,1,2.2,2.2l0,0V378l0,0c0,1.2-1,2.2-2.2,2.2l0,0l0,0h-81.6l0,0c-1.2,0-2.2-1-2.2-2.2l0,0
	V201.3c0-1.2,1-2.2,2.2-2.2l0,0H189.5L189.5,199.1L189.5,199.1z"/>
<path class="st2" d="M189.5,199.1c1.2,0,2.2,1,2.2,2.2l0,0V378l0,0c0,1.2-1,2.2-2.2,2.2l0,0l0,0h-81.6l0,0c-1.2,0-2.2-1-2.2-2.2l0,0
	V201.3c0-1.2,1-2.2,2.2-2.2l0,0H189.5L189.5,199.1L189.5,199.1z"/>
<text transform="matrix(0.85 0 0 1 130.9048 216.4338)" class="st3 st4">«Type»</text>
<text transform="matrix(0.85 0 -0.3169 0.9485 108.3067 231.1466)" class="st3 st6">g</text>
<text transform="matrix(0.85 0 -0.3169 0.9485 108.3067 231.1466)" class="st7 st3 st6">g</text>
<text transform="matrix(0.85 0 -0.3169 0.9485 115.2462 231.1466)" class="st3 st6">m</text>
<text transform="matrix(0.85 0 -0.3169 0.9485 115.2462 231.1466)" class="st7 st3 st6">m</text>
<text transform="matrix(0.85 0 -0.3169 0.9485 125.6544 231.1466)" class="st3 st6">l</text>
<text transform="matrix(0.85 0 -0.3169 0.9485 125.6544 231.1466)" class="st7 st3 st6">l</text>
<text transform="matrix(0.85 0 -0.3169 0.9485 128.2638 231.1466)" class="st3 st6">:</text>
<text transform="matrix(0.85 0 -0.3169 0.9485 128.2638 231.1466)" class="st7 st3 st6">:</text>
<text transform="matrix(0.85 0 -0.3169 0.9485 130.8575 231.1466)" class="st3 st6">:</text>
<text transform="matrix(0.85 0 -0.3169 0.9485 130.8575 231.1466)" class="st7 st3 st6">:</text>
<text transform="matrix(0.85 0 -0.3169 0.9485 133.4513 231.1466)" class="st3 st6">_</text>
<text transform="matrix(0.85 0 -0.3169 0.9485 133.4513 231.1466)" class="st7 st3 st6">_</text>
<text transform="matrix(0.85 0 -0.3169 0.9485 137.795 231.1466)" class="st3 st6">G</text>
<text transform="matrix(0.85 0 -0.3169 0.9485 137.795 231.1466)" class="st7 st3 st6">G</text>
<text transform="matrix(0.85 0 -0.3169 0.9485 145.6056 231.1466)" class="st3 st6">e</text>
<text transform="matrix(0.85 0 -0.3169 0.9485 145.6056 231.1466)" class="st7 st3 st6">e</text>
<text transform="matrix(0.85 0 -0.3169 0.9485 151.6759 231.1466)" class="st3 st6">o</text>
<text transform="matrix(0.85 0 -0.3169 0.9485 151.6759 231.1466)" class="st7 st3 st6">o</text>
<text transform="matrix(0.85 0 -0.3169 0.9485 158.6173 231.1466)" class="st3 st6">m</text>
<text transform="matrix(0.85 0 -0.3169 0.9485 158.6173 231.1466)" class="st7 st3 st6">m</text>
<text transform="matrix(0.85 0 -0.3169 0.9485 169.0255 231.1466)" class="st3 st6">e</text>
<text transform="matrix(0.85 0 -0.3169 0.9485 169.0255 231.1466)" class="st7 st3 st6">e</text>
<text transform="matrix(0.85 0 -0.3169 0.9485 175.0958 231.1466)" class="st3 st6">t</text>
<text transform="matrix(0.85 0 -0.3169 0.9485 175.0958 231.1466)" class="st7 st3 st6">t</text>
<text transform="matrix(0.85 0 -0.3169 0.9485 179.4278 231.1466)" class="st3 st6">r</text>
<text transform="matrix(0.85 0 -0.3169 0.9485 179.4278 231.1466)" class="st7 st3 st6">r</text>
<text transform="matrix(0.85 0 -0.3169 0.9485 183.7579 231.1466)" class="st3 st6">y</text>
<text transform="matrix(0.85 0 -0.3169 0.9485 183.7579 231.1466)" class="st7 st3 st6">y</text>
<path class="st9" d="M904.4,69.2c1.4,0,2.6,1.2,2.6,2.6l0,0v97.9l0,0c0,1.4-1.2,2.6-2.6,2.6l0,0l0,0H742.1l0,0
	c-1.4,0-2.6-1.2-2.6-2.6V71.8c0-1.4,1.2-2.6,2.6-2.6l0,0L904.4,69.2L904.4,69.2L904.4,69.2z"/>
<path class="st10" d="M904.4,69.2c1.4,0,2.6,1.2,2.6,2.6l0,0v97.9l0,0c0,1.4-1.2,2.6-2.6,2.6l0,0l0,0H742.1l0,0
	c-1.4,0-2.6-1.2-2.6-2.6V71.8c0-1.4,1.2-2.6,2.6-2.6l0,0L904.4,69.2L904.4,69.2L904.4,69.2z"/>
<path class="st8" d="M759.9,95.2c1.2,0,2.2,1,2.2,2.2l0,0v9.5l0,0c0,1.2-1,2.2-2.2,2.2l0,0l0,0h-9.6l0,0c-1.2,0-2.2-1-2.2-2.2l0,0
	v-9.5c0-1.2,1-2.2,2.2-2.2l0,0H759.9L759.9,95.2L759.9,95.2z"/>
<path class="st11" d="M759.9,95.2c1.2,0,2.2,1,2.2,2.2l0,0v9.5l0,0c0,1.2-1,2.2-2.2,2.2l0,0l0,0h-9.6l0,0c-1.2,0-2.2-1-2.2-2.2l0,0
	v-9.5c0-1.2,1-2.2,2.2-2.2l0,0H759.9L759.9,95.2L759.9,95.2z"/>
<text transform="matrix(0.85 0 0 1 767.2178 107.2775)" class="st12 st3 st4">GMLに定義されたクラス</text>
<path class="st13" d="M759.9,111.6c1.2,0,2.2,1,2.2,2.2l0,0v9.5l0,0c0,1.2-1,2.2-2.2,2.2l0,0l0,0h-9.6l0,0c-1.2,0-2.2-1-2.2-2.2l0,0
	v-9.5c0-1.2,1-2.2,2.2-2.2l0,0H759.9L759.9,111.6L759.9,111.6z"/>
<path class="st11" d="M759.9,111.6c1.2,0,2.2,1,2.2,2.2l0,0v9.5l0,0c0,1.2-1,2.2-2.2,2.2l0,0l0,0h-9.6l0,0c-1.2,0-2.2-1-2.2-2.2l0,0
	v-9.5c0-1.2,1-2.2,2.2-2.2l0,0H759.9L759.9,111.6L759.9,111.6z"/>
<text transform="matrix(0.85 0 0 1 767.2178 123.7307)" class="st12 st3 st4">CityGMLに定義されたクラス</text>
<path class="st1" d="M759.9,128.1c1.2,0,2.2,1,2.2,2.2l0,0v9.5l0,0c0,1.2-1,2.2-2.2,2.2l0,0l0,0h-9.6l0,0c-1.2,0-2.2-1-2.2-2.2l0,0
	v-9.5c0-1.2,1-2.2,2.2-2.2l0,0H759.9L759.9,128.1L759.9,128.1z"/>
<path class="st11" d="M759.9,128.1c1.2,0,2.2,1,2.2,2.2l0,0v9.5l0,0c0,1.2-1,2.2-2.2,2.2l0,0l0,0h-9.6l0,0c-1.2,0-2.2-1-2.2-2.2l0,0
	v-9.5c0-1.2,1-2.2,2.2-2.2l0,0H759.9L759.9,128.1L759.9,128.1z"/>
<text transform="matrix(0.85 0 0 1 767.2178 140.1994)" class="st12 st3 st4">i-URに定義されたクラス</text>
<g>
	<text transform="matrix(0.85 0 0 1 806.3115 87.3713)" class="st12 st14 st15">凡例</text>
	<text transform="matrix(0.85 0 0 1 806.3115 87.3713)" class="st16 st14 st15">凡例</text>
</g>
<path class="st0" d="M643.5,28.5c1.2,0,2.2,1,2.2,2.2l0,0v117.8l0,0c0,1.2-1,2.2-2.2,2.2l0,0l0,0H362.3l0,0c-1.2,0-2.2-1-2.2-2.2
	l0,0V30.6c0-1.2,1-2.2,2.2-2.2l0,0L643.5,28.5L643.5,28.5L643.5,28.5z"/>
<path class="st13" d="M640.9,25.9c1.2,0,2.2,1,2.2,2.2l0,0v117.8l0,0c0,1.2-1,2.2-2.2,2.2l0,0l0,0H359.7l0,0c-1.2,0-2.2-1-2.2-2.2
	l0,0V28c0-1.2,1-2.2,2.2-2.2l0,0h281.2V25.9L640.9,25.9z"/>
<path class="st2" d="M640.9,25.9c1.2,0,2.2,1,2.2,2.2l0,0v117.8l0,0c0,1.2-1,2.2-2.2,2.2l0,0l0,0H359.7l0,0c-1.2,0-2.2-1-2.2-2.2
	l0,0V28c0-1.2,1-2.2,2.2-2.2l0,0h281.2V25.9L640.9,25.9z"/>
<text transform="matrix(0.85 0 -0.3169 0.9485 592.3067 40.5925)" class="st3 st6">_Feature</text>
<text transform="matrix(0.85 0 0 1 463.3896 60.5119)" class="st3 st4">«FeatureType»</text>
<g>
	<text transform="matrix(0.85 0 -0.3169 0.9485 457.3137 75.2411)" class="st3 st6">c</text>
	<text transform="matrix(0.85 0 -0.3169 0.9485 457.3137 75.2411)" class="st7 st3 st6">c</text>
	<text transform="matrix(0.85 0 -0.3169 0.9485 462.5286 75.2411)" class="st3 st6">o</text>
	<text transform="matrix(0.85 0 -0.3169 0.9485 462.5286 75.2411)" class="st7 st3 st6">o</text>
	<text transform="matrix(0.85 0 -0.3169 0.9485 469.4661 75.2411)" class="st3 st6">r</text>
	<text transform="matrix(0.85 0 -0.3169 0.9485 469.4661 75.2411)" class="st7 st3 st6">r</text>
	<text transform="matrix(0.85 0 -0.3169 0.9485 473.7981 75.2411)" class="st3 st6">e</text>
	<text transform="matrix(0.85 0 -0.3169 0.9485 473.7981 75.2411)" class="st7 st3 st6">e</text>
	<text transform="matrix(0.85 0 -0.3169 0.9485 479.8684 75.2411)" class="st3 st6">:</text>
	<text transform="matrix(0.85 0 -0.3169 0.9485 479.8684 75.2411)" class="st7 st3 st6">:</text>
	<text transform="matrix(0.85 0 -0.3169 0.9485 482.4622 75.2411)" class="st3 st6">:</text>
	<text transform="matrix(0.85 0 -0.3169 0.9485 482.4622 75.2411)" class="st7 st3 st6">:</text>
	<text transform="matrix(0.85 0 -0.3169 0.9485 485.0559 75.2411)" class="st3 st6">_</text>
	<text transform="matrix(0.85 0 -0.3169 0.9485 485.0559 75.2411)" class="st7 st3 st6">_</text>
	<text transform="matrix(0.85 0 -0.3169 0.9485 489.3997 75.2411)" class="st3 st6">C</text>
	<text transform="matrix(0.85 0 -0.3169 0.9485 489.3997 75.2411)" class="st7 st3 st6">C</text>
	<text transform="matrix(0.85 0 -0.3169 0.9485 496.3528 75.2411)" class="st3 st6">i</text>
	<text transform="matrix(0.85 0 -0.3169 0.9485 496.3528 75.2411)" class="st7 st3 st6">i</text>
	<text transform="matrix(0.85 0 -0.3169 0.9485 498.9622 75.2411)" class="st3 st6">t</text>
	<text transform="matrix(0.85 0 -0.3169 0.9485 498.9622 75.2411)" class="st7 st3 st6">t</text>
	<text transform="matrix(0.85 0 -0.3169 0.9485 503.2942 75.2411)" class="st3 st6">y</text>
	<text transform="matrix(0.85 0 -0.3169 0.9485 503.2942 75.2411)" class="st7 st3 st6">y</text>
	<text transform="matrix(0.85 0 -0.3169 0.9485 509.3645 75.2411)" class="st3 st6">O</text>
	<text transform="matrix(0.85 0 -0.3169 0.9485 509.3645 75.2411)" class="st7 st3 st6">O</text>
	<text transform="matrix(0.85 0 -0.3169 0.9485 518.0442 75.2411)" class="st3 st6">b</text>
	<text transform="matrix(0.85 0 -0.3169 0.9485 518.0442 75.2411)" class="st7 st3 st6">b</text>
	<text transform="matrix(0.85 0 -0.3169 0.9485 524.9817 75.2411)" class="st3 st6">j</text>
	<text transform="matrix(0.85 0 -0.3169 0.9485 524.9817 75.2411)" class="st7 st3 st6">j</text>
	<text transform="matrix(0.85 0 -0.3169 0.9485 527.5911 75.2411)" class="st3 st6">e</text>
	<text transform="matrix(0.85 0 -0.3169 0.9485 527.5911 75.2411)" class="st7 st3 st6">e</text>
	<text transform="matrix(0.85 0 -0.3169 0.9485 533.6614 75.2411)" class="st3 st6">c</text>
	<text transform="matrix(0.85 0 -0.3169 0.9485 533.6614 75.2411)" class="st7 st3 st6">c</text>
	<text transform="matrix(0.85 0 -0.3169 0.9485 538.8762 75.2411)" class="st3 st6">t</text>
	<text transform="matrix(0.85 0 -0.3169 0.9485 538.8762 75.2411)" class="st7 st3 st6">t</text>
</g>
<line class="st2" x1="357.5" y1="82.2" x2="643.1" y2="82.2"/>
<text transform="matrix(0.85 0 0 1 361.8267 97.7463)" class="st3 st4">+ creationDate: xs::date [0..1]</text>
<text transform="matrix(0.85 0 0 1 361.8267 112.4807)" class="st3 st4">+ terminationDate: xs::date [0..1]</text>
<text transform="matrix(0.85 0 0 1 361.8267 127.215)" class="st3 st4">+ relativeToTerrain: core::RelativeToTerrainType [0..1]</text>
<text transform="matrix(0.85 0 0 1 361.8267 141.9338)" class="st3 st4">+ relativeToWater: core::RelativeToWaterType [0..1]</text>
<line class="st17" x1="557.2" y1="588" x2="557.2" y2="536.9"/>
<line class="st17" x1="604.9" y1="536.9" x2="604.9" y2="494.5"/>
<polyline class="st18" points="610.1,508.3 599.7,508.3 604.9,494.5 610.1,508.3 "/>
<polygon class="st17" points="610.1,508.3 599.7,508.3 604.9,494.5 "/>
<line class="st17" x1="339.3" y1="271.9" x2="193.4" y2="271.9"/>
<path class="st17" d="M193.4,271.9l13-5.2 M193.4,271.9l13,5.2"/>
<line class="st17" x1="504.2" y1="206.9" x2="502.5" y2="149.7"/>
<polyline class="st18" points="507.7,163.6 497.3,163.6 502.5,149.7 507.7,163.6 "/>
<polygon class="st17" points="507.7,163.6 497.3,163.6 502.5,149.7 "/>
<line class="st17" x1="339.3" y1="303.9" x2="193.4" y2="303.9"/>
<path class="st17" d="M193.4,303.9l13-5.2 M193.4,303.9l13,5.2"/>
<line class="st17" x1="339.3" y1="335.9" x2="193.4" y2="335.9"/>
<path class="st17" d="M193.4,335.9l13-5.2 M193.4,335.9l13,5.2"/>
<line class="st17" x1="592.7" y1="423.4" x2="592.7" y2="358.5"/>
<polyline class="st18" points="597.1,367.1 592.7,358.5 588.4,367.1 592.7,375.8 597.1,367.1 "/>
<polygon class="st17" points="597.1,367.1 592.7,358.5 588.4,367.1 592.7,375.8 "/>
<path class="st17" d="M592.7,423.4l5.2-13 M592.7,423.4l-5.2-13"/>
<line class="st17" x1="679.6" y1="452" x2="764.6" y2="452"/>
<path class="st17" d="M764.6,452l-13,5.2 M764.6,452l-13-5.2"/>
<line class="st17" x1="679.6" y1="473.7" x2="764.6" y2="473.7"/>
<path class="st17" d="M764.6,473.7l-13,5.2 M764.6,473.7l-13-5.2"/>
<line class="st17" x1="339.3" y1="242.4" x2="193.4" y2="242.4"/>
<path class="st17" d="M193.4,242.4l13-5.2 M193.4,242.4l13,5.2"/>
<line class="st17" x1="366.2" y1="588" x2="366.2" y2="536.9"/>
<line class="st17" x1="366.2" y1="536.9" x2="604.9" y2="536.9"/>
<line class="st17" x1="163.9" y1="474.5" x2="164.8" y2="381.9"/>
<path class="st17" d="M164.8,381.9l5.2,13 M164.8,381.9l-5.2,13"/>
<line class="st17" x1="722.1" y1="588" x2="722.1" y2="536.9"/>
<line class="st17" x1="865.3" y1="588" x2="865.3" y2="536.9"/>
<line class="st17" x1="865.3" y1="536.9" x2="604.9" y2="536.9"/>
<line class="st17" x1="453" y1="665.9" x2="453" y2="536.9"/>
<line class="st17" x1="648.3" y1="665.9" x2="648.3" y2="536.9"/>
<line class="st17" x1="437.4" y1="414.8" x2="437.4" y2="358.5"/>
<polyline class="st18" points="442.6,372.3 432.1,372.3 437.4,358.5 442.6,372.3 "/>
<polygon class="st17" points="442.6,372.3 432.1,372.3 437.4,358.5 "/>
<line class="st17" x1="247.2" y1="516.1" x2="323.6" y2="516.1"/>
<line class="st17" x1="323.6" y1="516.1" x2="323.6" y2="398.3"/>
<line class="st17" x1="323.6" y1="398.3" x2="385.3" y2="398.3"/>
<line class="st17" x1="385.3" y1="398.3" x2="385.3" y2="358.5"/>
<polyline class="st18" points="389.6,367.1 385.3,358.5 380.9,367.1 385.3,375.8 389.6,367.1 "/>
<polygon class="st17" points="389.6,367.1 385.3,358.5 380.9,367.1 385.3,375.8 "/>
<path class="st17" d="M247.2,516.1l13,5.2 M247.2,516.1l13-5.2"/>
<line class="st17" x1="70.1" y1="534.3" x2="25.9" y2="534.3"/>
<line class="st17" x1="25.9" y1="534.3" x2="25.9" y2="86.5"/>
<line class="st17" x1="25.9" y1="86.5" x2="356.6" y2="86.5"/>
<polyline class="st18" points="342.7,91.7 342.7,81.3 356.6,86.5 342.7,91.7 "/>
<polygon class="st17" points="342.7,91.7 342.7,81.3 356.6,86.5 "/>
<line class="st17" x1="132.6" y1="474.5" x2="132.6" y2="381.9"/>
<path class="st17" d="M132.6,381.9l5.2,13 M132.6,381.9l-5.2,13"/>
<line class="st17" x1="639.6" y1="423.4" x2="639.6" y2="385.3"/>
<line class="st17" x1="639.6" y1="385.3" x2="710.8" y2="385.3"/>
<line class="st17" x1="710.8" y1="385.3" x2="710.8" y2="87.4"/>
<line class="st17" x1="710.8" y1="87.4" x2="644.8" y2="87.4"/>
<polyline class="st18" points="658.7,82.2 658.7,92.6 644.8,87.4 658.7,82.2 "/>
<polygon class="st17" points="658.7,82.2 658.7,92.6 644.8,87.4 "/>
<text transform="matrix(0.85 0 0 1 -7704.6826 -7722.6846)" class="st19" style="font-size:4.7638px;">i</text>
<text transform="matrix(0.85 0 0 1 677.8115 503.1057)" class="st19 st20">+lod3MultiSurface</text>
<text transform="matrix(0.85 0 0 1 746.4053 486.6525)" class="st19 st20">0..1</text>
<text transform="matrix(0.85 0 0 1 66.6704 441.6213)" class="st19 st20">+lod2Geometry</text>
<text transform="matrix(0.85 0 0 1 101.3892 395.715)" class="st19 st20">0..1</text>
<text transform="matrix(0.85 0 0 1 -7704.6826 -7722.6846)" class="st19" style="font-size:4.7638px;">i</text>
<text transform="matrix(0.85 0 0 1 680.4209 427.7463)" class="st19 st20">+lod2MultiSurface</text>
<text transform="matrix(0.85 0 0 1 724.7021 445.0744)" class="st19 st20">0..1</text>
<text transform="matrix(0.85 0 0 1 -7704.6826 -7722.6846)" class="st19" style="font-size:4.7638px;">i</text>
<text transform="matrix(0.85 0 0 1 -7704.6826 -7722.6846)" class="st19" style="font-size:4.7638px;">t</text>
<text transform="matrix(0.85 0 0 1 255.9048 553.34)" class="st19 st20">+constructionInstallation</text>
<text transform="matrix(0.85 0 0 1 283.7017 532.5588)" class="st19 st20">0..*</text>
<text transform="matrix(0.85 0 0 1 223.7954 264.9182)" class="st19 st20">+lod1Geometry</text>
<text transform="matrix(0.85 0 0 1 196.0142 284.84)" class="st19 st20">0..1</text>
<text transform="matrix(0.85 0 0 1 526.7803 404.3713)" class="st19 st20">+boundedBy</text>
<text transform="matrix(0.85 0 0 1 601.4209 406.1213)" class="st19 st20">0..*</text>
<text transform="matrix(0.85 0 0 1 169.0913 440.7619)" class="st19 st20">+lod3Geometry</text>
<text transform="matrix(0.85 0 0 1 177.7798 394.84)" class="st19 st20">0..1</text>
<text transform="matrix(0.85 0 0 1 224.6548 296.1213)" class="st19 st20">+lod2Geometry</text>
<text transform="matrix(0.85 0 0 1 196.0142 316.9025)" class="st19 st20">0..1</text>
<text transform="matrix(0.85 0 0 1 224.6548 236.34)" class="st19 st20">+lod0Geometry</text>
<text transform="matrix(0.85 0 0 1 196.0142 255.4025)" class="st19 st20">0..1</text>
<text transform="matrix(0.85 0 0 1 225.5298 328.9963)" class="st19 st20">+lod3Geometry</text>
<text transform="matrix(0.85 0 0 1 196.0142 348.9338)" class="st19 st20">0..1</text>
</svg>
