<?xml version="1.0" encoding="utf-8"?>
<!-- Generator: Adobe Illustrator 27.0.0, SVG Export Plug-In . SVG Version: 6.00 Build 0)  -->
<svg version="1.1" id="レイヤー_1" xmlns="http://www.w3.org/2000/svg" xmlns:xlink="http://www.w3.org/1999/xlink" x="0px"
	 y="0px" viewBox="0 0 543.3623047 608.1099854" style="enable-background:new 0 0 543.3623047 608.1099854;" xml:space="preserve">
<style type="text/css">
	.st0{fill-rule:evenodd;clip-rule:evenodd;fill:#FFCCFF;}
	.st1{fill:none;stroke:#000000;stroke-width:1.0285715;stroke-linecap:round;stroke-linejoin:bevel;stroke-miterlimit:10;}
	.st2{font-family:'YuGothicUI-Regular';}
	.st3{font-size:6.6857147px;}
	.st4{font-size:7.0386257px;}
	.st5{fill:none;stroke:#000000;stroke-width:0.1910204;stroke-miterlimit:10;}
	.st6{font-family:'YuGothicUI-Bold';}
	.st7{fill-rule:evenodd;clip-rule:evenodd;fill:#FFFFCC;}
	.st8{fill-rule:evenodd;clip-rule:evenodd;}
</style>
<polygon class="st0" points="314.3606262,250.3427734 426.0928955,250.3427734 426.0928955,205.0856934 314.3606262,205.0856934 "/>
<polygon class="st1" points="314.3606262,250.3427734 426.0928955,250.3427734 426.0928955,205.0856934 314.3606262,205.0856934 "/>
<text transform="matrix(0.85 0 0 1 352.4464722 215.3696289)" class="st2 st3">«DataType»</text>
<text transform="matrix(0.85 0 -0.3126727 0.9498609 343.8158264 224.1161346)" class="st2 st4">u</text>
<text transform="matrix(0.85 0 -0.3126727 0.9498609 343.8158264 224.1161346)" class="st5 st2 st4">u</text>
<text transform="matrix(0.85 0 -0.3126727 0.9498609 347.8753967 224.1161346)" class="st2 st4">r</text>
<text transform="matrix(0.85 0 -0.3126727 0.9498609 347.8753967 224.1161346)" class="st5 st2 st4">r</text>
<text transform="matrix(0.85 0 -0.3126727 0.9498609 350.4085999 224.1161346)" class="st2 st4">o</text>
<text transform="matrix(0.85 0 -0.3126727 0.9498609 350.4085999 224.1161346)" class="st5 st2 st4">o</text>
<text transform="matrix(0.85 0 -0.3126727 0.9498609 354.4691467 224.1161346)" class="st2 st4">::</text>
<text transform="matrix(0.85 0 -0.3126727 0.9498609 354.4691467 224.1161346)" class="st5 st2 st4">::</text>
<text transform="matrix(0.85 0 -0.3126727 0.9498609 357.5033264 224.1161346)" class="st2 st4">D</text>
<text transform="matrix(0.85 0 -0.3126727 0.9498609 357.5033264 224.1161346)" class="st5 st2 st4">D</text>
<text transform="matrix(0.85 0 -0.3126727 0.9498609 362.0794983 224.1161346)" class="st2 st4">m</text>
<text transform="matrix(0.85 0 -0.3126727 0.9498609 362.0794983 224.1161346)" class="st5 st2 st4">m</text>
<text transform="matrix(0.85 0 -0.3126727 0.9498609 368.169342 224.1161346)" class="st2 st4">A</text>
<text transform="matrix(0.85 0 -0.3126727 0.9498609 368.169342 224.1161346)" class="st5 st2 st4">A</text>
<text transform="matrix(0.85 0 -0.3126727 0.9498609 372.738678 224.1161346)" class="st2 st4">tt</text>
<text transform="matrix(0.85 0 -0.3126727 0.9498609 372.738678 224.1161346)" class="st5 st2 st4">tt</text>
<text transform="matrix(0.85 0 -0.3126727 0.9498609 377.8070374 224.1161346)" class="st2 st4">r</text>
<text transform="matrix(0.85 0 -0.3126727 0.9498609 377.8070374 224.1161346)" class="st5 st2 st4">r</text>
<text transform="matrix(0.85 0 -0.3126727 0.9498609 380.3402405 224.1161346)" class="st2 st4">i</text>
<text transform="matrix(0.85 0 -0.3126727 0.9498609 380.3402405 224.1161346)" class="st5 st2 st4">i</text>
<text transform="matrix(0.85 0 -0.3126727 0.9498609 381.8666077 224.1161346)" class="st2 st4">b</text>
<text transform="matrix(0.85 0 -0.3126727 0.9498609 381.8666077 224.1161346)" class="st5 st2 st4">b</text>
<text transform="matrix(0.85 0 -0.3126727 0.9498609 385.926178 224.1161346)" class="st2 st4">u</text>
<text transform="matrix(0.85 0 -0.3126727 0.9498609 385.926178 224.1161346)" class="st5 st2 st4">u</text>
<text transform="matrix(0.85 0 -0.3126727 0.9498609 389.9857483 224.1161346)" class="st2 st4">t</text>
<text transform="matrix(0.85 0 -0.3126727 0.9498609 389.9857483 224.1161346)" class="st5 st2 st4">t</text>
<text transform="matrix(0.85 0 -0.3126727 0.9498609 392.5209045 224.1161346)" class="st2 st4">e</text>
<text transform="matrix(0.85 0 -0.3126727 0.9498609 392.5209045 224.1161346)" class="st5 st2 st4">e</text>
<line class="st1" x1="314.3606262" y1="228.2285156" x2="425.585022" y2="228.2285156"/>
<text transform="matrix(0.85 0 0 1 316.8995972 237.4790039)" class="st2 st3">+</text>
<text transform="matrix(0.85 0 0 1 321.4689331 237.4790039)" class="st2 st3"> </text>
<text transform="matrix(0.85 0 0 1 328.0714722 237.4790039)" class="st2 st3">dmCode: gml::CodeType</text>
<text transform="matrix(0.85 0 0 1 316.8995972 246.2290039)" class="st2 st3">+</text>
<text transform="matrix(0.85 0 0 1 321.4689331 246.2290039)" class="st2 st3"> </text>
<text transform="matrix(0.85 0 0 1 328.0714722 246.2290039)" class="st2 st3">meshCode: gml::CodeType [0..1]</text>
<polygon class="st0" points="395.6204529,189.6571045 481.4511719,189.6571045 481.4511719,148.5142822 395.6204529,148.5142822 "/>
<polygon class="st1" points="395.6204529,189.6571045 481.4511719,189.6571045 481.4511719,148.5142822 395.6204529,148.5142822 "/>
<text transform="matrix(0.85 0 0 1 421.0167847 158.7993164)" class="st2 st3">«DataType»</text>
<text transform="matrix(0.85 0 -0.3126727 0.9498609 407.3065796 167.5400543)" class="st2 st4">u</text>
<text transform="matrix(0.85 0 -0.3126727 0.9498609 407.3065796 167.5400543)" class="st5 st2 st4">u</text>
<text transform="matrix(0.85 0 -0.3126727 0.9498609 411.3661499 167.5400543)" class="st2 st4">r</text>
<text transform="matrix(0.85 0 -0.3126727 0.9498609 411.3661499 167.5400543)" class="st5 st2 st4">r</text>
<text transform="matrix(0.85 0 -0.3126727 0.9498609 413.899353 167.5400543)" class="st2 st4">o</text>
<text transform="matrix(0.85 0 -0.3126727 0.9498609 413.899353 167.5400543)" class="st5 st2 st4">o</text>
<text transform="matrix(0.85 0 -0.3126727 0.9498609 417.9598999 167.5400543)" class="st2 st4">::</text>
<text transform="matrix(0.85 0 -0.3126727 0.9498609 417.9598999 167.5400543)" class="st5 st2 st4">::</text>
<text transform="matrix(0.85 0 -0.3126727 0.9498609 420.9940796 167.5400543)" class="st2 st4">F</text>
<text transform="matrix(0.85 0 -0.3126727 0.9498609 420.9940796 167.5400543)" class="st5 st2 st4">F</text>
<text transform="matrix(0.85 0 -0.3126727 0.9498609 424.5477905 167.5400543)" class="st2 st4">a</text>
<text transform="matrix(0.85 0 -0.3126727 0.9498609 424.5477905 167.5400543)" class="st5 st2 st4">a</text>
<text transform="matrix(0.85 0 -0.3126727 0.9498609 428.0985718 167.5400543)" class="st2 st4">c</text>
<text transform="matrix(0.85 0 -0.3126727 0.9498609 428.0985718 167.5400543)" class="st5 st2 st4">c</text>
<text transform="matrix(0.85 0 -0.3126727 0.9498609 431.1483765 167.5400543)" class="st2 st4">ili</text>
<text transform="matrix(0.85 0 -0.3126727 0.9498609 431.1483765 167.5400543)" class="st5 st2 st4">ili</text>
<text transform="matrix(0.85 0 -0.3126727 0.9498609 435.727478 167.5400543)" class="st2 st4">t</text>
<text transform="matrix(0.85 0 -0.3126727 0.9498609 435.727478 167.5400543)" class="st5 st2 st4">t</text>
<text transform="matrix(0.85 0 -0.3126727 0.9498609 438.2616577 167.5400543)" class="st2 st4">y</text>
<text transform="matrix(0.85 0 -0.3126727 0.9498609 438.2616577 167.5400543)" class="st5 st2 st4">y</text>
<text transform="matrix(0.85 0 -0.3126727 0.9498609 441.8134155 167.5400543)" class="st2 st4">A</text>
<text transform="matrix(0.85 0 -0.3126727 0.9498609 441.8134155 167.5400543)" class="st5 st2 st4">A</text>
<text transform="matrix(0.85 0 -0.3126727 0.9498609 446.3817749 167.5400543)" class="st2 st4">tt</text>
<text transform="matrix(0.85 0 -0.3126727 0.9498609 446.3817749 167.5400543)" class="st5 st2 st4">tt</text>
<text transform="matrix(0.85 0 -0.3126727 0.9498609 451.4511108 167.5400543)" class="st2 st4">r</text>
<text transform="matrix(0.85 0 -0.3126727 0.9498609 451.4511108 167.5400543)" class="st5 st2 st4">r</text>
<text transform="matrix(0.85 0 -0.3126727 0.9498609 453.984314 167.5400543)" class="st2 st4">i</text>
<text transform="matrix(0.85 0 -0.3126727 0.9498609 453.984314 167.5400543)" class="st5 st2 st4">i</text>
<text transform="matrix(0.85 0 -0.3126727 0.9498609 455.5106812 167.5400543)" class="st2 st4">b</text>
<text transform="matrix(0.85 0 -0.3126727 0.9498609 455.5106812 167.5400543)" class="st5 st2 st4">b</text>
<text transform="matrix(0.85 0 -0.3126727 0.9498609 459.5702515 167.5400543)" class="st2 st4">u</text>
<text transform="matrix(0.85 0 -0.3126727 0.9498609 459.5702515 167.5400543)" class="st5 st2 st4">u</text>
<text transform="matrix(0.85 0 -0.3126727 0.9498609 463.6298218 167.5400543)" class="st2 st4">t</text>
<text transform="matrix(0.85 0 -0.3126727 0.9498609 463.6298218 167.5400543)" class="st5 st2 st4">t</text>
<text transform="matrix(0.85 0 -0.3126727 0.9498609 466.1640015 167.5400543)" class="st2 st4">e</text>
<text transform="matrix(0.85 0 -0.3126727 0.9498609 466.1640015 167.5400543)" class="st5 st2 st4">e</text>
<line class="st1" x1="395.6204529" y1="171.6571045" x2="480.9432983" y2="171.6571045"/>
<text transform="matrix(0.85 0 0 1 398.1574097 180.9165039)" class="st2 st3">+</text>
<text transform="matrix(0.85 0 0 1 402.7267456 180.9165039)" class="st2 st3"> </text>
<text transform="matrix(0.85 0 0 1 409.3292847 180.9165039)" class="st2 st3">facilityId: xs::string [0..1]</text>
<polygon class="st0" points="253.4157104,188.62854 356.0062866,188.62854 356.0062866,143.3713379 253.4157104,143.3713379 "/>
<polygon class="st1" points="253.4157104,188.62854 356.0062866,188.62854 356.0062866,143.3713379 253.4157104,143.3713379 "/>
<text transform="matrix(0.85 0 0 1 286.9308472 153.6508789)" class="st2 st3">«DataType»</text>
<text transform="matrix(0.85 0 0 1 266.1110229 162.4008789)" class="st6 st3">uro::FacilityTypeAttribute</text>
<line class="st1" x1="253.4157104" y1="166.5142822" x2="355.4984131" y2="166.5142822"/>
<text transform="matrix(0.85 0 0 1 255.9547729 175.7680664)" class="st2 st3">+</text>
<text transform="matrix(0.85 0 0 1 260.5241089 175.7680664)" class="st2 st3"> </text>
<text transform="matrix(0.85 0 0 1 267.1266479 175.7680664)" class="st2 st3">class: gml::CodeType [0..1]</text>
<text transform="matrix(0.85 0 0 1 255.9547729 184.5102539)" class="st2 st3">+</text>
<text transform="matrix(0.85 0 0 1 260.5241089 184.5102539)" class="st2 st3"> </text>
<text transform="matrix(0.85 0 0 1 267.1266479 184.5102539)" class="st2 st3">function: gml::CodeType [0..*]</text>
<polygon class="st0" points="101.0534973,267.314209 210.7543182,267.314209 210.7543182,143.3713379 101.0534973,143.3713379 "/>
<polygon class="st1" points="101.0534973,267.314209 210.7543182,267.314209 210.7543182,143.3713379 101.0534973,143.3713379 "/>
<text transform="matrix(0.85 0 0 1 138.1266479 153.6508789)" class="st2 st3">«DataType»</text>
<text transform="matrix(0.85 0 0 1 121.3610153 162.4008789)" class="st6 st3">uro::FacilityIdAttribute</text>
<line class="st1" x1="101.0534973" y1="166.5142822" x2="210.2464447" y2="166.5142822"/>
<text transform="matrix(0.85 0 0 1 103.5953903 175.7680664)" class="st2 st3">+</text>
<text transform="matrix(0.85 0 0 1 108.1647263 175.7680664)" class="st2 st3"> </text>
<text transform="matrix(0.85 0 0 1 114.7672653 175.7680664)" class="st2 st3">id: xs::string [0..1]</text>
<text transform="matrix(0.85 0 0 1 103.5953903 184.5102539)" class="st2 st3">+</text>
<text transform="matrix(0.85 0 0 1 108.1647263 184.5102539)" class="st2 st3"> </text>
<text transform="matrix(0.85 0 0 1 114.7672653 184.5102539)" class="st2 st3">partId: xs::string [0..1]</text>
<text transform="matrix(0.85 0 0 1 103.5953903 193.2602539)" class="st2 st3">+</text>
<text transform="matrix(0.85 0 0 1 108.1647263 193.2602539)" class="st2 st3"> </text>
<text transform="matrix(0.85 0 0 1 114.7672653 193.2602539)" class="st2 st3">branchId: xs::string [0..1]</text>
<text transform="matrix(0.85 0 0 1 103.5953903 202.0024414)" class="st2 st3">+</text>
<text transform="matrix(0.85 0 0 1 108.1647263 202.0024414)" class="st2 st3"> </text>
<text transform="matrix(0.85 0 0 1 114.7672653 202.0024414)" class="st2 st3">prefecture: gml::CodeType [0..*]</text>
<text transform="matrix(0.85 0 0 1 103.5953903 210.7368164)" class="st2 st3">+</text>
<text transform="matrix(0.85 0 0 1 108.1647263 210.7368164)" class="st2 st3"> </text>
<text transform="matrix(0.85 0 0 1 114.7672653 210.7368164)" class="st2 st3">city: gml::CodeType [0..*]</text>
<text transform="matrix(0.85 0 0 1 103.5953903 219.4790039)" class="st2 st3">+</text>
<text transform="matrix(0.85 0 0 1 108.1647263 219.4790039)" class="st2 st3"> </text>
<text transform="matrix(0.85 0 0 1 114.7672653 219.4790039)" class="st2 st3">route: xs::string [0..1]</text>
<text transform="matrix(0.85 0 0 1 103.5953903 228.2211914)" class="st2 st3">+</text>
<text transform="matrix(0.85 0 0 1 108.1647263 228.2211914)" class="st2 st3"> </text>
<text transform="matrix(0.85 0 0 1 114.7672653 228.2211914)" class="st2 st3">startPost: xs::string [0..1]</text>
<text transform="matrix(0.85 0 0 1 103.5953903 236.9711914)" class="st2 st3">+</text>
<text transform="matrix(0.85 0 0 1 108.1647263 236.9711914)" class="st2 st3"> </text>
<text transform="matrix(0.85 0 0 1 114.7672653 236.9711914)" class="st2 st3">endPost: xs::string [0..1]</text>
<text transform="matrix(0.85 0 0 1 103.5953903 245.7133789)" class="st2 st3">+</text>
<text transform="matrix(0.85 0 0 1 108.1647263 245.7133789)" class="st2 st3"> </text>
<text transform="matrix(0.85 0 0 1 114.7672653 245.7133789)" class="st2 st3">startLat: xs::double [0..1]</text>
<text transform="matrix(0.85 0 0 1 103.5953903 254.4555664)" class="st2 st3">+</text>
<text transform="matrix(0.85 0 0 1 108.1647263 254.4555664)" class="st2 st3"> </text>
<text transform="matrix(0.85 0 0 1 114.7672653 254.4555664)" class="st2 st3">startLong: xs::double [0..1]</text>
<text transform="matrix(0.85 0 0 1 103.5953903 263.2055664)" class="st2 st3">+</text>
<text transform="matrix(0.85 0 0 1 108.1647263 263.2055664)" class="st2 st3"> </text>
<text transform="matrix(0.85 0 0 1 114.7672653 263.2055664)" class="st2 st3">alternativeName: xs::string [0..*]</text>
<polygon class="st7" points="177.2346344,71.3713226 309.7897339,71.3713226 309.7897339,4.5142746 177.2346344,4.5142746 "/>
<polygon class="st1" points="177.2346344,71.3713226 309.7897339,71.3713226 309.7897339,4.5142746 177.2346344,4.5142746 "/>
<text transform="matrix(0.85 0 -0.3126727 0.9498609 275.7555237 13.2618666)" class="st2 st4">_CityObject</text>
<text transform="matrix(0.85 0 0 1 222.4313354 25.0883789)" class="st2 st3">«featureType»</text>
<text transform="matrix(0.85 0 0 1 217.3532104 33.8305664)" class="st6 st3">frn::CityFurniture</text>
<line class="st1" x1="177.2346344" y1="37.9427338" x2="309.2818604" y2="37.9427338"/>
<text transform="matrix(0.85 0 0 1 179.7750854 47.1977539)" class="st2 st3">+</text>
<text transform="matrix(0.85 0 0 1 184.3444214 47.1977539)" class="st2 st3"> </text>
<text transform="matrix(0.85 0 0 1 190.9469604 47.1977539)" class="st2 st3">class: gml::CodeType [0..1]</text>
<text transform="matrix(0.85 0 0 1 179.7750854 55.9399414)" class="st2 st3">+</text>
<text transform="matrix(0.85 0 0 1 184.3444214 55.9399414)" class="st2 st3"> </text>
<text transform="matrix(0.85 0 0 1 190.9469604 55.9399414)" class="st2 st3">function: gml::CodeType [0..*]</text>
<text transform="matrix(0.85 0 0 1 179.7750854 64.6899414)" class="st2 st3">+</text>
<text transform="matrix(0.85 0 0 1 184.3444214 64.6899414)" class="st2 st3"> </text>
<text transform="matrix(0.85 0 0 1 190.9469604 64.6899414)" class="st2 st3">usage: gml::CodeType [0..*]</text>
<polygon class="st0" points="4.5574341,354.2285156 137.1125793,354.2285156 137.1125793,297.6571045 4.5574341,297.6571045 "/>
<polygon class="st1" points="4.5574341,354.2285156 137.1125793,354.2285156 137.1125793,297.6571045 4.5574341,297.6571045 "/>
<text transform="matrix(0.85 0 0 1 53.3141441 307.9394531)" class="st2 st3">«DataType»</text>
<text transform="matrix(0.85 0 0 1 21.3141441 316.6738281)" class="st6 st3">uro::CityFurnitureDetailAttribute</text>
<line class="st1" x1="4.5574341" y1="320.7999268" x2="136.6047058" y2="320.7999268"/>
<text transform="matrix(0.85 0 0 1 7.0953941 330.0566406)" class="st2 st3">+</text>
<text transform="matrix(0.85 0 0 1 11.6647301 330.0566406)" class="st2 st3"> </text>
<text transform="matrix(0.85 0 0 1 18.2672691 330.0566406)" class="st2 st3">facilityType: gml::CodeType [0..1]</text>
<text transform="matrix(0.85 0 0 1 7.0953941 338.7988281)" class="st2 st3">+</text>
<text transform="matrix(0.85 0 0 1 11.6647301 338.7988281)" class="st2 st3"> </text>
<text transform="matrix(0.85 0 0 1 18.2672691 338.7988281)" class="st2 st3">description: xs::string [0..1]</text>
<polygon class="st0" points="167.585022,604.1713867 321.9787292,604.1713867 321.9787292,488.9713745 167.585022,488.9713745 "/>
<polygon class="st1" points="167.585022,604.1713867 321.9787292,604.1713867 321.9787292,488.9713745 167.585022,488.9713745 "/>
<text transform="matrix(0.85 0 0 1 227.0016479 499.2519531)" class="st2 st3">«DataType»</text>
<text transform="matrix(0.85 0 0 1 187.3922729 507.9941406)" class="st6 st3">uro::PublicSuveyDataQualityAttribute</text>
<line class="st1" x1="167.585022" y1="512.1142578" x2="321.4708557" y2="512.1142578"/>
<text transform="matrix(0.85 0 0 1 170.1266479 521.3613281)" class="st2 st3">+</text>
<text transform="matrix(0.85 0 0 1 174.6959839 521.3613281)" class="st2 st3"> </text>
<text transform="matrix(0.85 0 0 1 181.2985229 521.3613281)" class="st2 st3">srcScaleLod0: gml::CodeType [0..1]</text>
<text transform="matrix(0.85 0 0 1 170.1266479 530.1113281)" class="st2 st3">+</text>
<text transform="matrix(0.85 0 0 1 174.6959839 530.1113281)" class="st2 st3"> </text>
<text transform="matrix(0.85 0 0 1 181.2985229 530.1113281)" class="st2 st3">srcScaleLod1: gml::CodeType [0..1]</text>
<text transform="matrix(0.85 0 0 1 170.1266479 538.8535156)" class="st2 st3">+</text>
<text transform="matrix(0.85 0 0 1 174.6959839 538.8535156)" class="st2 st3"> </text>
<text transform="matrix(0.85 0 0 1 181.2985229 538.8535156)" class="st2 st3">srcScaleLod2: gml::CodeType [0..1]</text>
<text transform="matrix(0.85 0 0 1 170.1266479 547.5957031)" class="st2 st3">+</text>
<text transform="matrix(0.85 0 0 1 174.6959839 547.5957031)" class="st2 st3"> </text>
<text transform="matrix(0.85 0 0 1 181.2985229 547.5957031)" class="st2 st3">srcScaleLod3: gml::CodeType [0..1]</text>
<text transform="matrix(0.85 0 0 1 170.1266479 556.3457031)" class="st2 st3">+</text>
<text transform="matrix(0.85 0 0 1 174.6959839 556.3457031)" class="st2 st3"> </text>
<text transform="matrix(0.85 0 0 1 181.2985229 556.3457031)" class="st2 st3">srcScaleLod4: gml::CodeType [0..1]</text>
<text transform="matrix(0.85 0 0 1 170.1266479 565.0878906)" class="st2 st3">+</text>
<text transform="matrix(0.85 0 0 1 174.6959839 565.0878906)" class="st2 st3"> </text>
<text transform="matrix(0.85 0 0 1 181.2985229 565.0878906)" class="st2 st3">publicSurveySrcDescLod0: gml::CodeType [0..*]</text>
<text transform="matrix(0.85 0 0 1 170.1266479 573.8300781)" class="st2 st3">+</text>
<text transform="matrix(0.85 0 0 1 174.6959839 573.8300781)" class="st2 st3"> </text>
<text transform="matrix(0.85 0 0 1 181.2985229 573.8300781)" class="st2 st3">publicSurveySrcDescLod1: gml::CodeType [0..*]</text>
<text transform="matrix(0.85 0 0 1 170.1266479 582.5644531)" class="st2 st3">+</text>
<text transform="matrix(0.85 0 0 1 174.6959839 582.5644531)" class="st2 st3"> </text>
<text transform="matrix(0.85 0 0 1 181.2985229 582.5644531)" class="st2 st3">publicSurveySrcDescLod2: gml::CodeType [0..*]</text>
<text transform="matrix(0.85 0 0 1 170.1266479 591.3066406)" class="st2 st3">+</text>
<text transform="matrix(0.85 0 0 1 174.6959839 591.3066406)" class="st2 st3"> </text>
<text transform="matrix(0.85 0 0 1 181.2985229 591.3066406)" class="st2 st3">publicSurveySrcDescLod3: gml::CodeType [0..*]</text>
<text transform="matrix(0.85 0 0 1 170.1266479 600.0566406)" class="st2 st3">+</text>
<text transform="matrix(0.85 0 0 1 174.6959839 600.0566406)" class="st2 st3"> </text>
<text transform="matrix(0.85 0 0 1 181.2985229 600.0566406)" class="st2 st3">publicSurveySrcDescLod4: gml::CodeType [0..*]</text>
<polygon class="st0" points="396.1283264,340.8570557 537.3173828,340.8570557 537.3173828,286.3427734 396.1283264,286.3427734 "/>
<polygon class="st1" points="396.1283264,340.8570557 537.3173828,340.8570557 537.3173828,286.3427734 396.1283264,286.3427734 "/>
<text transform="matrix(0.85 0 0 1 448.9386597 296.6274414)" class="st2 st3">«DataType»</text>
<text transform="matrix(0.85 0 0 1 426.0949097 305.3691406)" class="st6 st3">uro::KeyValuePairAttribute</text>
<line class="st1" x1="396.1283264" y1="309.4856567" x2="536.8095093" y2="309.4856567"/>
<text transform="matrix(0.85 0 0 1 398.6730347 318.7363281)" class="st2 st3">+</text>
<text transform="matrix(0.85 0 0 1 403.2423706 318.7363281)" class="st2 st3"> </text>
<text transform="matrix(0.85 0 0 1 409.8449097 318.7363281)" class="st2 st3">key: gml::CodeType</text>
<text transform="matrix(0.85 0 0 1 398.6730347 327.4785156)" class="st2 st3">+</text>
<text transform="matrix(0.85 0 0 1 403.2423706 327.4785156)" class="st2 st3"> </text>
<text transform="matrix(0.85 0 0 1 409.8449097 327.4785156)" class="st2 st3">codeValue: gml::CodeType [0..1]</text>
<polygon class="st0" points="168.600769,453.4856567 320.9629822,453.4856567 320.9629822,303.314209 168.600769,303.314209 "/>
<polygon class="st1" points="168.600769,453.4856567 320.9629822,453.4856567 320.9629822,303.314209 168.600769,303.314209 "/>
<text transform="matrix(0.85 0 0 1 227.0016479 313.5957031)" class="st2 st3">«DataType»</text>
<text transform="matrix(0.85 0 0 1 205.6735229 322.3457031)" class="st6 st3">uro::DataQualityAttribute</text>
<line class="st1" x1="168.600769" y1="326.4570923" x2="320.4551086" y2="326.4570923"/>
<text transform="matrix(0.85 0 0 1 171.1422729 335.7128906)" class="st2 st3">+</text>
<text transform="matrix(0.85 0 0 1 175.7116089 335.7128906)" class="st2 st3"> </text>
<text transform="matrix(0.85 0 0 1 182.3141479 335.7128906)" class="st2 st3">geometrySrcDescLod0: gml::CodeType [0..*]</text>
<text transform="matrix(0.85 0 0 1 171.1422729 344.4550781)" class="st2 st3">+</text>
<text transform="matrix(0.85 0 0 1 175.7116089 344.4550781)" class="st2 st3"> </text>
<text transform="matrix(0.85 0 0 1 182.3141479 344.4550781)" class="st2 st3">geometrySrcDescLod1: gml::CodeType [1..*]</text>
<text transform="matrix(0.85 0 0 1 171.1422729 353.2050781)" class="st2 st3">+</text>
<text transform="matrix(0.85 0 0 1 175.7116089 353.2050781)" class="st2 st3"> </text>
<text transform="matrix(0.85 0 0 1 182.3141479 353.2050781)" class="st2 st3">geometrySrcDescLod2: gml::CodeType [0..*]</text>
<text transform="matrix(0.85 0 0 1 171.1422729 361.9394531)" class="st2 st3">+</text>
<text transform="matrix(0.85 0 0 1 175.7116089 361.9394531)" class="st2 st3"> </text>
<text transform="matrix(0.85 0 0 1 182.3141479 361.9394531)" class="st2 st3">geometrySrcDescLod3: gml::CodeType [0..*]</text>
<text transform="matrix(0.85 0 0 1 171.1422729 370.6816406)" class="st2 st3">+</text>
<text transform="matrix(0.85 0 0 1 175.7116089 370.6816406)" class="st2 st3"> </text>
<text transform="matrix(0.85 0 0 1 182.3141479 370.6816406)" class="st2 st3">geometrySrcDescLod4: gml::CodeType [0..*]</text>
<text transform="matrix(0.85 0 0 1 171.1422729 379.4316406)" class="st2 st3">+</text>
<text transform="matrix(0.85 0 0 1 175.7116089 379.4316406)" class="st2 st3"> </text>
<text transform="matrix(0.85 0 0 1 182.3141479 379.4316406)" class="st2 st3">thematicSrcDesc: gml::CodeType [0..*]</text>
<text transform="matrix(0.85 0 0 1 171.1422729 388.1738281)" class="st2 st3">+</text>
<text transform="matrix(0.85 0 0 1 175.7116089 388.1738281)" class="st2 st3"> </text>
<text transform="matrix(0.85 0 0 1 182.3141479 388.1738281)" class="st2 st3">appearanceSrcDescLod0: gml::CodeType [0..*]</text>
<text transform="matrix(0.85 0 0 1 171.1422729 396.9082031)" class="st2 st3">+</text>
<text transform="matrix(0.85 0 0 1 175.7116089 396.9082031)" class="st2 st3"> </text>
<text transform="matrix(0.85 0 0 1 182.3141479 396.9082031)" class="st2 st3">appearanceSrcDescLod1: gml::CodeType [0..*]</text>
<text transform="matrix(0.85 0 0 1 171.1422729 405.6503906)" class="st2 st3">+</text>
<text transform="matrix(0.85 0 0 1 175.7116089 405.6503906)" class="st2 st3"> </text>
<text transform="matrix(0.85 0 0 1 182.3141479 405.6503906)" class="st2 st3">appearanceSrcDescLod2: gml::CodeType [0..*]</text>
<text transform="matrix(0.85 0 0 1 171.1422729 414.3925781)" class="st2 st3">+</text>
<text transform="matrix(0.85 0 0 1 175.7116089 414.3925781)" class="st2 st3"> </text>
<text transform="matrix(0.85 0 0 1 182.3141479 414.3925781)" class="st2 st3">appearanceSrcDescLod3: gml::CodeType [0..*]</text>
<text transform="matrix(0.85 0 0 1 171.1422729 423.1425781)" class="st2 st3">+</text>
<text transform="matrix(0.85 0 0 1 175.7116089 423.1425781)" class="st2 st3"> </text>
<text transform="matrix(0.85 0 0 1 182.3141479 423.1425781)" class="st2 st3">appearanceSrcDescLod4: gml::CodeType [0..*]</text>
<text transform="matrix(0.85 0 0 1 171.1422729 431.8847656)" class="st2 st3">+</text>
<text transform="matrix(0.85 0 0 1 175.7116089 431.8847656)" class="st2 st3"> </text>
<text transform="matrix(0.85 0 0 1 182.3141479 431.8847656)" class="st2 st3">lodType: gml::CodeType [0..*]</text>
<text transform="matrix(0.85 0 0 1 171.1422729 440.6269531)" class="st2 st3">+</text>
<text transform="matrix(0.85 0 0 1 175.7116089 440.6269531)" class="st2 st3"> </text>
<text transform="matrix(0.85 0 0 1 182.3141479 440.6269531)" class="st2 st3">lod1HeightType: gml::CodeType [0..1]</text>
<text transform="matrix(0.85 0 0 1 171.1422729 449.3769531)" class="st2 st3">+</text>
<text transform="matrix(0.85 0 0 1 175.7116089 449.3769531)" class="st2 st3"> </text>
<text transform="matrix(0.85 0 0 1 182.3141479 449.3769531)" class="st2 st3">tranDataAcquisition: xs::string [0..1]</text>
<line class="st1" x1="244.2739868" y1="302.7999268" x2="244.2739868" y2="97.0856781"/>
<line class="st1" x1="243.2582397" y1="97.0856781" x2="243.2582397" y2="71.8856049"/>
<polyline class="st8" points="245.7976074,77.0284271 243.2582397,71.8856049 240.7188721,77.0284271 243.2582397,82.1713715 
	245.7976074,77.0284271 "/>
<polyline class="st1" points="245.7976074,77.0284271 243.2582397,71.8856049 240.7188721,77.0284271 243.2582397,82.1713715 "/>
<polyline class="st1" points="247.321228,295.0856934 244.2739868,302.7999268 241.2267456,295.0856934 "/>
<line class="st1" x1="370.2267761" y1="204.5714111" x2="370.2267761" y2="97.0856781"/>
<polyline class="st8" points="245.7976074,77.0284271 243.2582397,71.8856049 240.7188721,77.0284271 243.2582397,82.1713715 
	245.7976074,77.0284271 "/>
<polyline class="st1" points="245.7976074,77.0284271 243.2582397,71.8856049 240.7188721,77.0284271 243.2582397,82.1713715 "/>
<polyline class="st1" points="373.2740173,196.8570557 370.2267761,204.5714111 367.1795044,196.8570557 "/>
<line class="st1" x1="437.7740173" y1="147.9998779" x2="437.7740173" y2="97.0856781"/>
<polyline class="st8" points="245.7976074,77.0284271 243.2582397,71.8856049 240.7188721,77.0284271 243.2582397,82.1713715 
	245.7976074,77.0284271 "/>
<polyline class="st1" points="245.7976074,77.0284271 243.2582397,71.8856049 240.7188721,77.0284271 243.2582397,82.1713715 "/>
<polyline class="st1" points="440.8212585,140.2856445 437.7740173,147.9998779 434.7267761,140.2856445 "/>
<line class="st1" x1="324.0102234" y1="142.8570557" x2="324.0102234" y2="97.0856781"/>
<polyline class="st8" points="245.7976074,77.0284271 243.2582397,71.8856049 240.7188721,77.0284271 243.2582397,82.1713715 
	245.7976074,77.0284271 "/>
<polyline class="st1" points="245.7976074,77.0284271 243.2582397,71.8856049 240.7188721,77.0284271 243.2582397,82.1713715 "/>
<polyline class="st1" points="327.0574646,135.142807 324.0102234,142.8570557 320.9629822,135.142807 "/>
<line class="st1" x1="154.8881683" y1="142.8570557" x2="154.8881683" y2="97.0856781"/>
<polyline class="st8" points="245.7976074,77.0284271 243.2582397,71.8856049 240.7188721,77.0284271 243.2582397,82.1713715 
	245.7976074,77.0284271 "/>
<polyline class="st1" points="245.7976074,77.0284271 243.2582397,71.8856049 240.7188721,77.0284271 243.2582397,82.1713715 "/>
<polyline class="st1" points="157.9354095,135.142807 154.8881683,142.8570557 151.8409271,135.142807 "/>
<line class="st1" x1="490.085022" y1="285.8284912" x2="490.085022" y2="97.0856781"/>
<line class="st1" x1="490.085022" y1="97.0856781" x2="243.2582397" y2="97.0856781"/>
<polyline class="st8" points="245.7976074,77.0284271 243.2582397,71.8856049 240.7188721,77.0284271 243.2582397,82.1713715 
	245.7976074,77.0284271 "/>
<polyline class="st1" points="245.7976074,77.0284271 243.2582397,71.8856049 240.7188721,77.0284271 243.2582397,82.1713715 "/>
<polyline class="st1" points="493.1322632,278.1142578 490.085022,285.8284912 487.0377808,278.1142578 "/>
<line class="st1" x1="244.7818604" y1="488.4570923" x2="244.7818604" y2="453.999939"/>
<polyline class="st8" points="247.321228,459.1428223 244.7818604,453.999939 242.2424927,459.1428223 244.7818604,464.2856445 
	247.321228,459.1428223 "/>
<polygon class="st1" points="247.321228,459.1428223 244.7818604,453.999939 242.2424927,459.1428223 244.7818604,464.2856445 "/>
<polyline class="st1" points="247.8291016,480.7427979 244.7818604,488.4570923 241.7346191,480.7427979 "/>
<line class="st1" x1="70.0731812" y1="297.1428223" x2="70.0731812" y2="97.0856781"/>
<line class="st1" x1="70.0731812" y1="97.0856781" x2="243.2582397" y2="97.0856781"/>
<polyline class="st8" points="245.7976074,77.0284271 243.2582397,71.8856049 240.7188721,77.0284271 243.2582397,82.1713715 
	245.7976074,77.0284271 "/>
<polygon class="st1" points="245.7976074,77.0284271 243.2582397,71.8856049 240.7188721,77.0284271 243.2582397,82.1713715 "/>
<polyline class="st1" points="73.1204224,289.4285278 70.0731812,297.1428223 67.0259399,289.4285278 "/>
<text transform="matrix(0.85 0 0 1 310.8058472 199.9399414)" class="st2 st3">+frnDmAttribute</text>
<text transform="matrix(0.85 0 0 1 379.3683472 200.4555664)" class="st2 st3">0..*</text>
<text transform="matrix(0.85 0 0 1 75.1578903 286.8540039)" class="st2 st3">+cityFurnitureDetailAttribute</text>
<text transform="matrix(0.85 0 0 1 49.7516441 287.8930664)" class="st2 st3">0..*</text>
<text transform="matrix(0.85 0 0 1 125.9391403 479.1972656)" class="st2 st3">+publicSurveyDataQualityAttribute</text>
<text transform="matrix(0.85 0 0 1 252.4000854 477.6582031)" class="st2 st3">0..1</text>
<text transform="matrix(0.85 0 0 1 402.2199097 281.1977539)" class="st2 st3">+frnKeyValuePairAttribute</text>
<text transform="matrix(0.85 0 0 1 495.1652222 281.7211914)" class="st2 st3">0..*</text>
<text transform="matrix(0.85 0 0 1 88.3610153 125.3696289)" class="st2 st3">+frnFacilityIdAttribute</text>
<text transform="matrix(0.85 0 0 1 159.9703979 131.0258789)" class="st2 st3">0..1</text>
<text transform="matrix(0.85 0 0 1 378.3527222 134.1118164)" class="st2 st3">+frnFacilityAttribute</text>
<text transform="matrix(0.85 0 0 1 445.3917847 134.1118164)" class="st2 st3">0..*</text>
<text transform="matrix(0.85 0 0 1 253.9235229 295.6040039)" class="st2 st3">+cityFurnitureDataQualityAttribute</text>
<text transform="matrix(0.85 0 0 1 227.5094604 293.5415039)" class="st2 st3">1</text>
<text transform="matrix(0.85 0 0 1 246.3063354 117.6586914)" class="st2 st3">+frnFacilityTypeAttribute</text>
<text transform="matrix(0.85 0 0 1 310.8058472 129.4790039)" class="st2 st3">0..*</text>
</svg>
