<?xml version="1.0" encoding="utf-8"?>
<!-- Generator: Adobe Illustrator 27.0.0, SVG Export Plug-In . SVG Version: 6.00 Build 0)  -->
<svg version="1.1" id="レイヤー_1" xmlns="http://www.w3.org/2000/svg" xmlns:xlink="http://www.w3.org/1999/xlink" x="0px"
	 y="0px" viewBox="0 0 743.1763916 860.4075928" style="enable-background:new 0 0 743.1763916 860.4075928;" xml:space="preserve">
<style type="text/css">
	.st0{fill-rule:evenodd;clip-rule:evenodd;fill:#FFFFCC;}
	.st1{fill:none;stroke:#000000;stroke-width:1.0285715;stroke-linecap:round;stroke-linejoin:bevel;stroke-miterlimit:10;}
	.st2{font-family:'YuGothicUI-Regular';}
	.st3{font-size:7.0386257px;}
	.st4{font-size:6.6857147px;}
	.st5{font-family:'YuGothicUI-Bold';}
	.st6{fill-rule:evenodd;clip-rule:evenodd;fill:#CCFFCC;}
	.st7{fill:none;stroke:#000000;stroke-width:0.1910204;stroke-miterlimit:10;}
	.st8{fill-rule:evenodd;clip-rule:evenodd;fill:#FFCCFF;}
	.st9{fill-rule:evenodd;clip-rule:evenodd;fill:#F0F0F0;}
	.st10{fill:none;stroke:#D7D7D7;stroke-width:0.5142857;stroke-linecap:square;stroke-miterlimit:10;}
	.st11{fill-rule:evenodd;clip-rule:evenodd;fill:#A0FFC0;}
	.st12{fill:none;stroke:#000000;stroke-width:0.5142857;stroke-linecap:square;stroke-miterlimit:10;}
	.st13{fill:#003060;}
	.st14{font-size:8.2285719px;}
	.st15{letter-spacing:-1.1764705;}
	.st16{fill-rule:evenodd;clip-rule:evenodd;fill:#FFFFFF;}
	.st17{fill-rule:evenodd;clip-rule:evenodd;}
</style>
<polygon class="st0" points="342.677124,377.348877 475.2322693,377.348877 475.2322693,310.4916992 342.677124,310.4916992 "/>
<polygon class="st1" points="342.677124,377.348877 475.2322693,377.348877 475.2322693,310.4916992 342.677124,310.4916992 "/>
<text transform="matrix(0.85 0 -0.3126727 0.9498609 438.3744507 319.2367554)" class="st2 st3">_CityObject</text>
<text transform="matrix(0.85 0 0 1 387.8789062 331.0614014)" class="st2 st4">«featureType»</text>
<text transform="matrix(0.85 0 0 1 382.8007812 339.8035889)" class="st5 st4">frn::CityFurniture</text>
<line class="st1" x1="342.677124" y1="343.9202881" x2="474.7243958" y2="343.9202881"/>
<text transform="matrix(0.85 0 0 1 345.222168 353.1707764)" class="st2 st4">+</text>
<text transform="matrix(0.85 0 0 1 349.7915039 353.1707764)" class="st2 st4"> </text>
<text transform="matrix(0.85 0 0 1 356.394043 353.1707764)" class="st2 st4">class: gml::CodeType [0..1]</text>
<text transform="matrix(0.85 0 0 1 345.222168 361.9129639)" class="st2 st4">+</text>
<text transform="matrix(0.85 0 0 1 349.7915039 361.9129639)" class="st2 st4"> </text>
<text transform="matrix(0.85 0 0 1 356.394043 361.9129639)" class="st2 st4">function: gml::CodeType [0..*]</text>
<text transform="matrix(0.85 0 0 1 345.222168 370.6551514)" class="st2 st4">+</text>
<text transform="matrix(0.85 0 0 1 349.7915039 370.6551514)" class="st2 st4"> </text>
<text transform="matrix(0.85 0 0 1 356.394043 370.6551514)" class="st2 st4">usage: gml::CodeType [0..*]</text>
<polygon class="st6" points="571.2203979,379.9202881 626.0708008,379.9202881 626.0708008,307.9202881 571.2203979,307.9202881 "/>
<polygon class="st1" points="571.2203979,379.9202881 626.0708008,379.9202881 626.0708008,307.9202881 571.2203979,307.9202881 "/>
<text transform="matrix(0.85 0 0 1 587.9804688 318.2020264)" class="st2 st4">«Type»</text>
<text transform="matrix(0.85 0 -0.3126727 0.9498609 574.7804565 326.9469604)" class="st2 st3">g</text>
<text transform="matrix(0.85 0 -0.3126727 0.9498609 574.7804565 326.9469604)" class="st7 st2 st3">g</text>
<text transform="matrix(0.85 0 -0.3126727 0.9498609 578.8400269 326.9469604)" class="st2 st3">m</text>
<text transform="matrix(0.85 0 -0.3126727 0.9498609 578.8400269 326.9469604)" class="st7 st2 st3">m</text>
<text transform="matrix(0.85 0 -0.3126727 0.9498609 584.9298706 326.9469604)" class="st2 st3">l</text>
<text transform="matrix(0.85 0 -0.3126727 0.9498609 584.9298706 326.9469604)" class="st7 st2 st3">l</text>
<text transform="matrix(0.85 0 -0.3126727 0.9498609 586.4562378 326.9469604)" class="st2 st3">::</text>
<text transform="matrix(0.85 0 -0.3126727 0.9498609 586.4562378 326.9469604)" class="st7 st2 st3">::</text>
<text transform="matrix(0.85 0 -0.3126727 0.9498609 589.4904175 326.9469604)" class="st2 st3">_</text>
<text transform="matrix(0.85 0 -0.3126727 0.9498609 589.4904175 326.9469604)" class="st7 st2 st3">_</text>
<text transform="matrix(0.85 0 -0.3126727 0.9498609 592.0324097 326.9469604)" class="st2 st3">G</text>
<text transform="matrix(0.85 0 -0.3126727 0.9498609 592.0324097 326.9469604)" class="st7 st2 st3">G</text>
<text transform="matrix(0.85 0 -0.3126727 0.9498609 596.6017456 326.9469604)" class="st2 st3">e</text>
<text transform="matrix(0.85 0 -0.3126727 0.9498609 596.6017456 326.9469604)" class="st7 st2 st3">e</text>
<text transform="matrix(0.85 0 -0.3126727 0.9498609 600.1535034 326.9469604)" class="st2 st3">o</text>
<text transform="matrix(0.85 0 -0.3126727 0.9498609 600.1535034 326.9469604)" class="st7 st2 st3">o</text>
<text transform="matrix(0.85 0 -0.3126727 0.9498609 604.2130737 326.9469604)" class="st2 st3">m</text>
<text transform="matrix(0.85 0 -0.3126727 0.9498609 604.2130737 326.9469604)" class="st7 st2 st3">m</text>
<text transform="matrix(0.85 0 -0.3126727 0.9498609 610.3029175 326.9469604)" class="st2 st3">e</text>
<text transform="matrix(0.85 0 -0.3126727 0.9498609 610.3029175 326.9469604)" class="st7 st2 st3">e</text>
<text transform="matrix(0.85 0 -0.3126727 0.9498609 613.8546753 326.9469604)" class="st2 st3">t</text>
<text transform="matrix(0.85 0 -0.3126727 0.9498609 613.8546753 326.9469604)" class="st7 st2 st3">t</text>
<text transform="matrix(0.85 0 -0.3126727 0.9498609 616.388855 326.9469604)" class="st2 st3">r</text>
<text transform="matrix(0.85 0 -0.3126727 0.9498609 616.388855 326.9469604)" class="st7 st2 st3">r</text>
<text transform="matrix(0.85 0 -0.3126727 0.9498609 618.9220581 326.9469604)" class="st2 st3">y</text>
<text transform="matrix(0.85 0 -0.3126727 0.9498609 618.9220581 326.9469604)" class="st7 st2 st3">y</text>
<polygon class="st8" points="154.2558441,479.6917725 267.0038757,479.6917725 267.0038757,408.2059326 154.2558441,408.2059326 "/>
<polygon class="st1" points="154.2558441,479.6917725 267.0038757,479.6917725 267.0038757,408.2059326 154.2558441,408.2059326 "/>
<text transform="matrix(0.85 0 0 1 192.8549805 418.4832764)" class="st2 st4">«DataType»</text>
<text transform="matrix(0.85 0 0 1 185.237793 427.2332764)" class="st5 st4">uro::OffsetDepth</text>
<line class="st1" x1="154.2558441" y1="431.348877" x2="266.4960022" y2="431.348877"/>
<text transform="matrix(0.85 0 0 1 156.7924805 440.6087646)" class="st2 st4">+</text>
<text transform="matrix(0.85 0 0 1 161.3618164 440.6087646)" class="st2 st4"> </text>
<text transform="matrix(0.85 0 0 1 167.9643555 440.6087646)" class="st2 st4">pos: gml::DirectPosition</text>
<text transform="matrix(0.85 0 0 1 156.7924805 449.3431396)" class="st2 st4">+</text>
<text transform="matrix(0.85 0 0 1 161.3618164 449.3431396)" class="st2 st4"> </text>
<text transform="matrix(0.85 0 0 1 167.9643555 449.3431396)" class="st2 st4">offset: gml::LengthType [0..1]</text>
<text transform="matrix(0.85 0 0 1 156.7924805 458.0853271)" class="st2 st4">+</text>
<text transform="matrix(0.85 0 0 1 161.3618164 458.0853271)" class="st2 st4"> </text>
<text transform="matrix(0.85 0 0 1 167.9643555 458.0853271)" class="st2 st4">depth: gml::LengthType [0..1]</text>
<text transform="matrix(0.85 0 0 1 156.7924805 466.8275146)" class="st2 st4">+</text>
<text transform="matrix(0.85 0 0 1 161.3618164 466.8275146)" class="st2 st4"> </text>
<text transform="matrix(0.85 0 0 1 167.9643555 466.8275146)" class="st2 st4">minDepth: gml::LengthType [0..1]</text>
<text transform="matrix(0.85 0 0 1 156.7924805 475.5775146)" class="st2 st4">+</text>
<text transform="matrix(0.85 0 0 1 161.3618164 475.5775146)" class="st2 st4"> </text>
<text transform="matrix(0.85 0 0 1 167.9643555 475.5775146)" class="st2 st4">maxDepth: gml::LengthType [0..1]</text>
<polygon class="st8" points="185.2361603,288.8917236 271.066864,288.8917236 271.066864,247.7488708 185.2361603,247.7488708 "/>
<polygon class="st1" points="185.2361603,288.8917236 271.066864,288.8917236 271.066864,247.7488708 185.2361603,247.7488708 "/>
<text transform="matrix(0.85 0 0 1 210.628418 258.0379639)" class="st2 st4">«DataType»</text>
<text transform="matrix(0.85 0 -0.3126727 0.9498609 196.9197998 266.7866211)" class="st2 st3">u</text>
<text transform="matrix(0.85 0 -0.3126727 0.9498609 196.9197998 266.7866211)" class="st7 st2 st3">u</text>
<text transform="matrix(0.85 0 -0.3126727 0.9498609 200.9793701 266.7866211)" class="st2 st3">r</text>
<text transform="matrix(0.85 0 -0.3126727 0.9498609 200.9793701 266.7866211)" class="st7 st2 st3">r</text>
<text transform="matrix(0.85 0 -0.3126727 0.9498609 203.5125732 266.7866211)" class="st2 st3">o</text>
<text transform="matrix(0.85 0 -0.3126727 0.9498609 203.5125732 266.7866211)" class="st7 st2 st3">o</text>
<text transform="matrix(0.85 0 -0.3126727 0.9498609 207.5731201 266.7866211)" class="st2 st3">::</text>
<text transform="matrix(0.85 0 -0.3126727 0.9498609 207.5731201 266.7866211)" class="st7 st2 st3">::</text>
<text transform="matrix(0.85 0 -0.3126727 0.9498609 210.6072998 266.7866211)" class="st2 st3">F</text>
<text transform="matrix(0.85 0 -0.3126727 0.9498609 210.6072998 266.7866211)" class="st7 st2 st3">F</text>
<text transform="matrix(0.85 0 -0.3126727 0.9498609 214.1610107 266.7866211)" class="st2 st3">a</text>
<text transform="matrix(0.85 0 -0.3126727 0.9498609 214.1610107 266.7866211)" class="st7 st2 st3">a</text>
<text transform="matrix(0.85 0 -0.3126727 0.9498609 217.711792 266.7866211)" class="st2 st3">c</text>
<text transform="matrix(0.85 0 -0.3126727 0.9498609 217.711792 266.7866211)" class="st7 st2 st3">c</text>
<text transform="matrix(0.85 0 -0.3126727 0.9498609 220.7615967 266.7866211)" class="st2 st3">ili</text>
<text transform="matrix(0.85 0 -0.3126727 0.9498609 220.7615967 266.7866211)" class="st7 st2 st3">ili</text>
<text transform="matrix(0.85 0 -0.3126727 0.9498609 225.3406982 266.7866211)" class="st2 st3">t</text>
<text transform="matrix(0.85 0 -0.3126727 0.9498609 225.3406982 266.7866211)" class="st7 st2 st3">t</text>
<text transform="matrix(0.85 0 -0.3126727 0.9498609 227.8748779 266.7866211)" class="st2 st3">y</text>
<text transform="matrix(0.85 0 -0.3126727 0.9498609 227.8748779 266.7866211)" class="st7 st2 st3">y</text>
<text transform="matrix(0.85 0 -0.3126727 0.9498609 231.4266357 266.7866211)" class="st2 st3">A</text>
<text transform="matrix(0.85 0 -0.3126727 0.9498609 231.4266357 266.7866211)" class="st7 st2 st3">A</text>
<text transform="matrix(0.85 0 -0.3126727 0.9498609 235.9949951 266.7866211)" class="st2 st3">tt</text>
<text transform="matrix(0.85 0 -0.3126727 0.9498609 235.9949951 266.7866211)" class="st7 st2 st3">tt</text>
<text transform="matrix(0.85 0 -0.3126727 0.9498609 241.0643311 266.7866211)" class="st2 st3">r</text>
<text transform="matrix(0.85 0 -0.3126727 0.9498609 241.0643311 266.7866211)" class="st7 st2 st3">r</text>
<text transform="matrix(0.85 0 -0.3126727 0.9498609 243.5975342 266.7866211)" class="st2 st3">i</text>
<text transform="matrix(0.85 0 -0.3126727 0.9498609 243.5975342 266.7866211)" class="st7 st2 st3">i</text>
<text transform="matrix(0.85 0 -0.3126727 0.9498609 245.1239014 266.7866211)" class="st2 st3">b</text>
<text transform="matrix(0.85 0 -0.3126727 0.9498609 245.1239014 266.7866211)" class="st7 st2 st3">b</text>
<text transform="matrix(0.85 0 -0.3126727 0.9498609 249.1834717 266.7866211)" class="st2 st3">u</text>
<text transform="matrix(0.85 0 -0.3126727 0.9498609 249.1834717 266.7866211)" class="st7 st2 st3">u</text>
<text transform="matrix(0.85 0 -0.3126727 0.9498609 253.243042 266.7866211)" class="st2 st3">t</text>
<text transform="matrix(0.85 0 -0.3126727 0.9498609 253.243042 266.7866211)" class="st7 st2 st3">t</text>
<text transform="matrix(0.85 0 -0.3126727 0.9498609 255.7772217 266.7866211)" class="st2 st3">e</text>
<text transform="matrix(0.85 0 -0.3126727 0.9498609 255.7772217 266.7866211)" class="st7 st2 st3">e</text>
<line class="st1" x1="185.2361603" y1="270.8917236" x2="270.5589905" y2="270.8917236"/>
<text transform="matrix(0.85 0 0 1 187.7768555 280.1473389)" class="st2 st4">+</text>
<text transform="matrix(0.85 0 0 1 192.3461914 280.1473389)" class="st2 st4"> </text>
<text transform="matrix(0.85 0 0 1 198.9487305 280.1473389)" class="st2 st4">facilityId: xs::string [0..1]</text>
<polygon class="st8" points="525.5117798,134.6059418 628.1022949,134.6059418 628.1022949,89.3488541 525.5117798,89.3488541 "/>
<polygon class="st1" points="525.5117798,134.6059418 628.1022949,134.6059418 628.1022949,89.3488541 525.5117798,89.3488541 "/>
<text transform="matrix(0.85 0 0 1 559.0273438 99.6316986)" class="st2 st4">«DataType»</text>
<text transform="matrix(0.85 0 0 1 538.2070312 108.3738861)" class="st5 st4">uro::FacilityTypeAttribute</text>
<line class="st1" x1="525.5117798" y1="112.4916763" x2="627.5944214" y2="112.4916763"/>
<text transform="matrix(0.85 0 0 1 528.0507812 121.7488861)" class="st2 st4">+</text>
<text transform="matrix(0.85 0 0 1 532.6201172 121.7488861)" class="st2 st4"> </text>
<text transform="matrix(0.85 0 0 1 539.2226562 121.7488861)" class="st2 st4">class: gml::CodeType [0..1]</text>
<text transform="matrix(0.85 0 0 1 528.0507812 130.4910736)" class="st2 st4">+</text>
<text transform="matrix(0.85 0 0 1 532.6201172 130.4910736)" class="st2 st4"> </text>
<text transform="matrix(0.85 0 0 1 539.2226562 130.4910736)" class="st2 st4">function: gml::CodeType [0..*]</text>
<polygon class="st8" points="525.5117798,285.8060303 648.4172974,285.8060303 648.4172974,161.3488464 525.5117798,161.3488464 "/>
<polygon class="st1" points="525.5117798,285.8060303 648.4172974,285.8060303 648.4172974,161.3488464 525.5117798,161.3488464 "/>
<text transform="matrix(0.85 0 0 1 569.1914062 171.6316986)" class="st2 st4">«DataType»</text>
<text transform="matrix(0.85 0 0 1 552.4257812 180.3738861)" class="st5 st4">uro::FacilityIdAttribute</text>
<line class="st1" x1="525.5117798" y1="184.4916687" x2="647.9094238" y2="184.4916687"/>
<text transform="matrix(0.85 0 0 1 528.0507812 193.7410736)" class="st2 st4">+</text>
<text transform="matrix(0.85 0 0 1 532.6201172 193.7410736)" class="st2 st4"> </text>
<text transform="matrix(0.85 0 0 1 539.2226562 193.7410736)" class="st2 st4">id: xs::string [0..1]</text>
<text transform="matrix(0.85 0 0 1 528.0507812 202.4910736)" class="st2 st4">+</text>
<text transform="matrix(0.85 0 0 1 532.6201172 202.4910736)" class="st2 st4"> </text>
<text transform="matrix(0.85 0 0 1 539.2226562 202.4910736)" class="st2 st4">partId: xs::string [0..1]</text>
<text transform="matrix(0.85 0 0 1 528.0507812 211.2332611)" class="st2 st4">+</text>
<text transform="matrix(0.85 0 0 1 532.6201172 211.2332611)" class="st2 st4"> </text>
<text transform="matrix(0.85 0 0 1 539.2226562 211.2332611)" class="st2 st4">branchId: xs::string [0..1]</text>
<text transform="matrix(0.85 0 0 1 528.0507812 219.9676361)" class="st2 st4">+</text>
<text transform="matrix(0.85 0 0 1 532.6201172 219.9676361)" class="st2 st4"> </text>
<text transform="matrix(0.85 0 0 1 539.2226562 219.9676361)" class="st2 st4">prefecture: gml::CodeType [0..*]</text>
<text transform="matrix(0.85 0 0 1 528.0507812 228.7176361)" class="st2 st4">+</text>
<text transform="matrix(0.85 0 0 1 532.6201172 228.7176361)" class="st2 st4"> </text>
<text transform="matrix(0.85 0 0 1 539.2226562 228.7176361)" class="st2 st4">city: gml::CodeType [0..*]</text>
<text transform="matrix(0.85 0 0 1 528.0507812 237.4598236)" class="st2 st4">+</text>
<text transform="matrix(0.85 0 0 1 532.6201172 237.4598236)" class="st2 st4"> </text>
<text transform="matrix(0.85 0 0 1 539.2226562 237.4598236)" class="st2 st4">route: xs::string [0..1]</text>
<text transform="matrix(0.85 0 0 1 528.0507812 246.2020111)" class="st2 st4">+</text>
<text transform="matrix(0.85 0 0 1 532.6201172 246.2020111)" class="st2 st4"> </text>
<text transform="matrix(0.85 0 0 1 539.2226562 246.2020111)" class="st2 st4">startPost: xs::string [0..1]</text>
<text transform="matrix(0.85 0 0 1 528.0507812 254.9520111)" class="st2 st4">+</text>
<text transform="matrix(0.85 0 0 1 532.6201172 254.9520111)" class="st2 st4"> </text>
<text transform="matrix(0.85 0 0 1 539.2226562 254.9520111)" class="st2 st4">endPost: xs::string [0..1]</text>
<text transform="matrix(0.85 0 0 1 528.0507812 263.6942139)" class="st2 st4">+</text>
<text transform="matrix(0.85 0 0 1 532.6201172 263.6942139)" class="st2 st4"> </text>
<text transform="matrix(0.85 0 0 1 539.2226562 263.6942139)" class="st2 st4">startLat: xs::double [0..1]</text>
<text transform="matrix(0.85 0 0 1 528.0507812 272.4364014)" class="st2 st4">+</text>
<text transform="matrix(0.85 0 0 1 532.6201172 272.4364014)" class="st2 st4"> </text>
<text transform="matrix(0.85 0 0 1 539.2226562 272.4364014)" class="st2 st4">startLong: xs::double [0..1]</text>
<text transform="matrix(0.85 0 0 1 528.0507812 281.1707764)" class="st2 st4">+</text>
<text transform="matrix(0.85 0 0 1 532.6201172 281.1707764)" class="st2 st4"> </text>
<text transform="matrix(0.85 0 0 1 539.2226562 281.1707764)" class="st2 st4">alternativeName: xs::string [0..*]</text>
<polygon class="st8" points="64.8700027,829.9202881 164.4133301,829.9202881 164.4133301,788.7774658 64.8700027,788.7774658 "/>
<polygon class="st1" points="64.8700027,829.9202881 164.4133301,829.9202881 164.4133301,788.7774658 64.8700027,788.7774658 "/>
<text transform="matrix(0.85 0 0 1 92.800293 799.0618896)" class="st2 st4">«FeatureType»</text>
<text transform="matrix(0.85 0 0 1 67.909668 807.8040771)" class="st5 st4">uro::TelecommunicationsCable</text>
<polygon class="st8" points="130.3857574,745.5774536 223.8345947,745.5774536 223.8345947,685.4060059 130.3857574,685.4060059 "/>
<polygon class="st1" points="130.3857574,745.5774536 223.8345947,745.5774536 223.8345947,685.4060059 130.3857574,685.4060059 "/>
<text transform="matrix(0.85 0 0 1 155.269043 695.6947021)" class="st2 st4">«FeatureType»</text>
<text transform="matrix(0.85 0 0 1 161.8706055 704.4368896)" class="st5 st4">uro::Cable</text>
<line class="st1" x1="130.3857574" y1="708.5488892" x2="223.3267212" y2="708.5488892"/>
<text transform="matrix(0.85 0 0 1 132.925293 717.8040771)" class="st2 st4">+</text>
<text transform="matrix(0.85 0 0 1 137.4946289 717.8040771)" class="st2 st4"> </text>
<text transform="matrix(0.85 0 0 1 144.097168 717.8040771)" class="st2 st4">cables: xs::integer [0..1]</text>
<text transform="matrix(0.85 0 0 1 132.925293 726.5462646)" class="st2 st4">+</text>
<text transform="matrix(0.85 0 0 1 137.4946289 726.5462646)" class="st2 st4"> </text>
<text transform="matrix(0.85 0 0 1 144.097168 726.5462646)" class="st2 st4">columns: xs::integer [0..1]</text>
<text transform="matrix(0.85 0 0 1 132.925293 735.2806396)" class="st2 st4">+</text>
<text transform="matrix(0.85 0 0 1 137.4946289 735.2806396)" class="st2 st4"> </text>
<text transform="matrix(0.85 0 0 1 144.097168 735.2806396)" class="st2 st4">rows: xs::integer [0..1]</text>
<polygon class="st8" points="413.77948,639.6346436 548.8739624,639.6346436 548.8739624,598.4916992 413.77948,598.4916992 "/>
<polygon class="st1" points="413.77948,639.6346436 548.8739624,639.6346436 548.8739624,598.4916992 413.77948,598.4916992 "/>
<text transform="matrix(0.85 0 0 1 459.4882812 608.7806396)" class="st2 st4">«FeatureType»</text>
<text transform="matrix(0.85 0 0 1 452.3789062 617.5228271)" class="st5 st4">uro::Appurtenance</text>
<line class="st1" x1="413.77948" y1="621.6346436" x2="548.3660889" y2="621.6346436"/>
<text transform="matrix(0.85 0 0 1 416.3164062 630.8900146)" class="st2 st4">+</text>
<text transform="matrix(0.85 0 0 1 420.8857422 630.8900146)" class="st2 st4"> </text>
<text transform="matrix(0.85 0 0 1 427.4960938 630.8900146)" class="st2 st4">appurtenanceType: gml::CodeType [0..1]</text>
<polygon class="st8" points="582.3936768,623.1773682 724.0905151,623.1773682 724.0905151,516.7203369 582.3936768,516.7203369 "/>
<polygon class="st1" points="582.3936768,623.1773682 724.0905151,623.1773682 724.0905151,516.7203369 582.3936768,516.7203369 "/>
<text transform="matrix(0.85 0 0 1 631.6523438 526.9993896)" class="st2 st4">«FeatureType»</text>
<text transform="matrix(0.85 0 0 1 613.8789062 535.7493896)" class="st5 st4">uro::UtilityNodeContainer</text>
<line class="st1" x1="582.3936768" y1="539.8631592" x2="723.5826416" y2="539.8631592"/>
<text transform="matrix(0.85 0 0 1 584.9335938 549.1087646)" class="st2 st4">+</text>
<text transform="matrix(0.85 0 0 1 589.5029297 549.1087646)" class="st2 st4"> </text>
<text transform="matrix(0.85 0 0 1 596.1054688 549.1087646)" class="st2 st4">containerType: gml::CodeType [0..1]</text>
<text transform="matrix(0.85 0 0 1 584.9335938 557.8587646)" class="st2 st4">+</text>
<text transform="matrix(0.85 0 0 1 589.5029297 557.8587646)" class="st2 st4"> </text>
<text transform="matrix(0.85 0 0 1 596.1054688 557.8587646)" class="st2 st4">innerDiameterLong: gml::LengthType [0..1]</text>
<text transform="matrix(0.85 0 0 1 584.9335938 566.6009521)" class="st2 st4">+</text>
<text transform="matrix(0.85 0 0 1 589.5029297 566.6009521)" class="st2 st4"> </text>
<text transform="matrix(0.85 0 0 1 596.1054688 566.6009521)" class="st2 st4">outerDiameterLong: gml::LengthType [0..1]</text>
<text transform="matrix(0.85 0 0 1 584.9335938 575.3431396)" class="st2 st4">+</text>
<text transform="matrix(0.85 0 0 1 589.5029297 575.3431396)" class="st2 st4"> </text>
<text transform="matrix(0.85 0 0 1 596.1054688 575.3431396)" class="st2 st4">innerDiameterShort: gml::LengthType [0..1]</text>
<text transform="matrix(0.85 0 0 1 584.9335938 584.0931396)" class="st2 st4">+</text>
<text transform="matrix(0.85 0 0 1 589.5029297 584.0931396)" class="st2 st4"> </text>
<text transform="matrix(0.85 0 0 1 596.1054688 584.0931396)" class="st2 st4">outerDiameterShort: gml::LengthType [0..1]</text>
<text transform="matrix(0.85 0 0 1 584.9335938 592.8353271)" class="st2 st4">+</text>
<text transform="matrix(0.85 0 0 1 589.5029297 592.8353271)" class="st2 st4"> </text>
<text transform="matrix(0.85 0 0 1 596.1054688 592.8353271)" class="st2 st4">depth: gml::LengthType [0..1]</text>
<text transform="matrix(0.85 0 0 1 584.9335938 601.5775146)" class="st2 st4">+</text>
<text transform="matrix(0.85 0 0 1 589.5029297 601.5775146)" class="st2 st4"> </text>
<text transform="matrix(0.85 0 0 1 596.1054688 601.5775146)" class="st2 st4">appurtenance: xs::string [0..*]</text>
<text transform="matrix(0.85 0 0 1 584.9335938 610.3275146)" class="st2 st4">+</text>
<text transform="matrix(0.85 0 0 1 589.5029297 610.3275146)" class="st2 st4"> </text>
<text transform="matrix(0.85 0 0 1 596.1054688 610.3275146)" class="st2 st4">rotationAngle: xs::double [0..1]</text>
<polygon class="st8" points="347.2479858,479.1773682 470.661377,479.1773682 470.661377,407.6917725 347.2479858,407.6917725 "/>
<polygon class="st1" points="347.2479858,479.1773682 470.661377,479.1773682 470.661377,407.6917725 347.2479858,407.6917725 "/>
<text transform="matrix(0.85 0 0 1 387.3632812 417.9832764)" class="st2 st4">«FeatureType»</text>
<text transform="matrix(0.85 0 0 1 367.565918 426.7176514)" class="st5 st4">uro::UtilityNetworkElement</text>
<line class="st1" x1="347.2479858" y1="430.8345947" x2="470.1535034" y2="430.8345947"/>
<text transform="matrix(0.85 0 0 1 349.784668 440.0931396)" class="st2 st4">+</text>
<text transform="matrix(0.85 0 0 1 354.3540039 440.0931396)" class="st2 st4"> </text>
<text transform="matrix(0.85 0 0 1 360.956543 440.0931396)" class="st2 st4">occupierType: gml::CodeType [0..1]</text>
<text transform="matrix(0.85 0 0 1 349.784668 448.8275146)" class="st2 st4">+</text>
<text transform="matrix(0.85 0 0 1 354.3540039 448.8275146)" class="st2 st4"> </text>
<text transform="matrix(0.85 0 0 1 360.956543 448.8275146)" class="st2 st4">occupierName: gml::CodeType [0..1]</text>
<text transform="matrix(0.85 0 0 1 349.784668 457.5697021)" class="st2 st4">+</text>
<text transform="matrix(0.85 0 0 1 354.3540039 457.5697021)" class="st2 st4"> </text>
<text transform="matrix(0.85 0 0 1 360.956543 457.5697021)" class="st2 st4">year: xs::gYear [0..1]</text>
<text transform="matrix(0.85 0 0 1 349.784668 466.3197021)" class="st2 st4">+</text>
<text transform="matrix(0.85 0 0 1 354.3540039 466.3197021)" class="st2 st4"> </text>
<text transform="matrix(0.85 0 0 1 360.956543 466.3197021)" class="st2 st4">yearType: gml::CodeType [0..1]</text>
<text transform="matrix(0.85 0 0 1 349.784668 475.0618896)" class="st2 st4">+</text>
<text transform="matrix(0.85 0 0 1 354.3540039 475.0618896)" class="st2 st4"> </text>
<text transform="matrix(0.85 0 0 1 360.956543 475.0618896)" class="st2 st4">administrator: gml::CodeType [0..1]</text>
<polygon class="st8" points="225.8660889,634.4916992 362.4842224,634.4916992 362.4842224,516.7203369 225.8660889,516.7203369 "/>
<polygon class="st1" points="225.8660889,634.4916992 362.4842224,634.4916992 362.4842224,516.7203369 225.8660889,516.7203369 "/>
<text transform="matrix(0.85 0 0 1 272.5893555 526.9993896)" class="st2 st4">«FeatureType»</text>
<text transform="matrix(0.85 0 0 1 272.081543 535.7493896)" class="st5 st4">uro::UtilityLink</text>
<line class="st1" x1="225.8660889" y1="539.8631592" x2="361.9763489" y2="539.8631592"/>
<text transform="matrix(0.85 0 0 1 228.4018555 549.1087646)" class="st2 st4">+</text>
<text transform="matrix(0.85 0 0 1 232.9711914 549.1087646)" class="st2 st4"> </text>
<text transform="matrix(0.85 0 0 1 239.5737305 549.1087646)" class="st2 st4">routeStartNode: xs::string [0..1]</text>
<text transform="matrix(0.85 0 0 1 228.4018555 557.8587646)" class="st2 st4">+</text>
<text transform="matrix(0.85 0 0 1 232.9711914 557.8587646)" class="st2 st4"> </text>
<text transform="matrix(0.85 0 0 1 239.5737305 557.8587646)" class="st2 st4">startNode: xs::string [0..1]</text>
<text transform="matrix(0.85 0 0 1 228.4018555 566.6009521)" class="st2 st4">+</text>
<text transform="matrix(0.85 0 0 1 232.9711914 566.6009521)" class="st2 st4"> </text>
<text transform="matrix(0.85 0 0 1 239.5737305 566.6009521)" class="st2 st4">routeEndNode: xs::string [0..1]</text>
<text transform="matrix(0.85 0 0 1 228.4018555 575.3431396)" class="st2 st4">+</text>
<text transform="matrix(0.85 0 0 1 232.9711914 575.3431396)" class="st2 st4"> </text>
<text transform="matrix(0.85 0 0 1 239.5737305 575.3431396)" class="st2 st4">endNode: xs::string [0..1]</text>
<text transform="matrix(0.85 0 0 1 228.4018555 584.0931396)" class="st2 st4">+</text>
<text transform="matrix(0.85 0 0 1 232.9711914 584.0931396)" class="st2 st4"> </text>
<text transform="matrix(0.85 0 0 1 239.5737305 584.0931396)" class="st2 st4">depth: gml::LengthType [0..1]</text>
<text transform="matrix(0.85 0 0 1 228.4018555 592.8353271)" class="st2 st4">+</text>
<text transform="matrix(0.85 0 0 1 232.9711914 592.8353271)" class="st2 st4"> </text>
<text transform="matrix(0.85 0 0 1 239.5737305 592.8353271)" class="st2 st4">minDepth: gml::LengthType [0..1]</text>
<text transform="matrix(0.85 0 0 1 228.4018555 601.5775146)" class="st2 st4">+</text>
<text transform="matrix(0.85 0 0 1 232.9711914 601.5775146)" class="st2 st4"> </text>
<text transform="matrix(0.85 0 0 1 239.5737305 601.5775146)" class="st2 st4">maxDepth: gml::LengthType [0..1]</text>
<text transform="matrix(0.85 0 0 1 228.4018555 610.3275146)" class="st2 st4">+</text>
<text transform="matrix(0.85 0 0 1 232.9711914 610.3275146)" class="st2 st4"> </text>
<text transform="matrix(0.85 0 0 1 239.5737305 610.3275146)" class="st2 st4">maxWidth: gml::LengthType [0..1]</text>
<text transform="matrix(0.85 0 0 1 228.4018555 619.0618896)" class="st2 st4">+</text>
<text transform="matrix(0.85 0 0 1 232.9711914 619.0618896)" class="st2 st4"> </text>
<text transform="matrix(0.85 0 0 1 239.5737305 619.0618896)" class="st2 st4">offset: gml::LengthType [0..1]</text>
<text transform="matrix(0.85 0 0 1 228.4018555 627.8040771)" class="st2 st4">+</text>
<text transform="matrix(0.85 0 0 1 232.9711914 627.8040771)" class="st2 st4"> </text>
<text transform="matrix(0.85 0 0 1 239.5737305 627.8040771)" class="st2 st4">material: gml::CodeType [0..1]</text>
<polygon class="st8" points="428.507843,570.7203369 534.6535034,570.7203369 534.6535034,516.7203369 428.507843,516.7203369 "/>
<polygon class="st1" points="428.507843,570.7203369 534.6535034,570.7203369 534.6535034,516.7203369 428.507843,516.7203369 "/>
<text transform="matrix(0.85 0 0 1 459.9960938 526.9993896)" class="st2 st4">«FeatureType»</text>
<text transform="matrix(0.85 0 0 1 457.4570312 535.7493896)" class="st5 st4">uro::UtilityNode</text>
<line class="st1" x1="428.507843" y1="539.8631592" x2="534.1456299" y2="539.8631592"/>
<text transform="matrix(0.85 0 0 1 431.0507812 549.1087646)" class="st2 st4">+</text>
<text transform="matrix(0.85 0 0 1 435.6201172 549.1087646)" class="st2 st4"> </text>
<text transform="matrix(0.85 0 0 1 442.2226562 549.1087646)" class="st2 st4">previousLink: xs::string [0..*]</text>
<text transform="matrix(0.85 0 0 1 431.0507812 557.8587646)" class="st2 st4">+</text>
<text transform="matrix(0.85 0 0 1 435.6201172 557.8587646)" class="st2 st4"> </text>
<text transform="matrix(0.85 0 0 1 442.2226562 557.8587646)" class="st2 st4">nextLink: xs::string [0..*]</text>
<text transform="matrix(0.85 0 0 1 431.0507812 566.6009521)" class="st2 st4">+</text>
<text transform="matrix(0.85 0 0 1 435.6201172 566.6009521)" class="st2 st4"> </text>
<text transform="matrix(0.85 0 0 1 442.2226562 566.6009521)" class="st2 st4">rotationAngle: xs::double [0..1]</text>
<polygon class="st8" points="240.0865479,745.5774536 370.610199,745.5774536 370.610199,685.4060059 240.0865479,685.4060059 "/>
<polygon class="st1" points="240.0865479,745.5774536 370.610199,745.5774536 370.610199,685.4060059 240.0865479,685.4060059 "/>
<text transform="matrix(0.85 0 0 1 283.7612305 695.6947021)" class="st2 st4">«FeatureType»</text>
<text transform="matrix(0.85 0 0 1 291.8862305 704.4368896)" class="st5 st4">uro::Pipe</text>
<line class="st1" x1="240.0865479" y1="708.5488892" x2="370.1023254" y2="708.5488892"/>
<text transform="matrix(0.85 0 0 1 242.6206055 717.8040771)" class="st2 st4">+</text>
<text transform="matrix(0.85 0 0 1 247.1899414 717.8040771)" class="st2 st4"> </text>
<text transform="matrix(0.85 0 0 1 253.800293 717.8040771)" class="st2 st4">innerDiameter: gml::LengthType [0..1]</text>
<text transform="matrix(0.85 0 0 1 242.6206055 726.5462646)" class="st2 st4">+</text>
<text transform="matrix(0.85 0 0 1 247.1899414 726.5462646)" class="st2 st4"> </text>
<text transform="matrix(0.85 0 0 1 253.800293 726.5462646)" class="st2 st4">outerDiameter: gml::LengthType [0..1]</text>
<text transform="matrix(0.85 0 0 1 242.6206055 735.2806396)" class="st2 st4">+</text>
<text transform="matrix(0.85 0 0 1 247.1899414 735.2806396)" class="st2 st4"> </text>
<text transform="matrix(0.85 0 0 1 253.800293 735.2806396)" class="st2 st4">sleeveType: gml::CodeType [0..1]</text>
<polygon class="st8" points="386.3542786,726.0346069 493.007843,726.0346069 493.007843,685.4060059 386.3542786,685.4060059 "/>
<polygon class="st1" points="386.3542786,726.0346069 493.007843,726.0346069 493.007843,685.4060059 386.3542786,685.4060059 "/>
<text transform="matrix(0.85 0 0 1 417.8398438 695.6947021)" class="st2 st4">«FeatureType»</text>
<text transform="matrix(0.85 0 0 1 425.4648438 704.4368896)" class="st5 st4">uro::Duct</text>
<line class="st1" x1="386.3542786" y1="708.5488892" x2="492.4999695" y2="708.5488892"/>
<text transform="matrix(0.85 0 0 1 388.8945312 717.8040771)" class="st2 st4">+</text>
<text transform="matrix(0.85 0 0 1 393.4638672 717.8040771)" class="st2 st4"> </text>
<text transform="matrix(0.85 0 0 1 400.0664062 717.8040771)" class="st2 st4">width: gml::LengthType [0..1]</text>
<polygon class="st8" points="548.3660889,702.3774414 659.0826416,702.3774414 659.0826416,661.7489014 548.3660889,661.7489014 "/>
<polygon class="st1" points="548.3660889,702.3774414 659.0826416,702.3774414 659.0826416,661.7489014 548.3660889,661.7489014 "/>
<text transform="matrix(0.85 0 0 1 581.8867188 672.0306396)" class="st2 st4">«FeatureType»</text>
<text transform="matrix(0.85 0 0 1 583.4101562 680.7728271)" class="st5 st4">uro::Manhole</text>
<line class="st1" x1="548.3660889" y1="684.8917236" x2="658.5747681" y2="684.8917236"/>
<text transform="matrix(0.85 0 0 1 550.9023438 694.1556396)" class="st2 st4">+</text>
<text transform="matrix(0.85 0 0 1 555.4716797 694.1556396)" class="st2 st4"> </text>
<text transform="matrix(0.85 0 0 1 562.0742188 694.1556396)" class="st2 st4">elevation: gml::LengthType [0..1]</text>
<polygon class="st8" points="175.0786743,829.9202881 245.1653137,829.9202881 245.1653137,788.7774658 175.0786743,788.7774658 "/>
<polygon class="st1" points="175.0786743,829.9202881 245.1653137,829.9202881 245.1653137,788.7774658 175.0786743,788.7774658 "/>
<text transform="matrix(0.85 0 0 1 188.284668 799.0618896)" class="st2 st4">«FeatureType»</text>
<text transform="matrix(0.85 0 0 1 180.1518555 807.8040771)" class="st5 st4">uro::ElectricityCable</text>
<polygon class="st8" points="255.830658,829.9202881 316.7755432,829.9202881 316.7755432,788.7774658 255.830658,788.7774658 "/>
<polygon class="st1" points="255.830658,829.9202881 316.7755432,829.9202881 316.7755432,788.7774658 255.830658,788.7774658 "/>
<text transform="matrix(0.85 0 0 1 264.4643555 799.0618896)" class="st2 st4">«FeatureType»</text>
<text transform="matrix(0.85 0 0 1 263.4487305 807.8040771)" class="st5 st4">uro::WaterPipe</text>
<polygon class="st8" points="325.4093933,851.0060425 489.4527283,851.0060425 489.4527283,788.2631836 325.4093933,788.2631836 "/>
<polygon class="st1" points="325.4093933,851.0060425 489.4527283,851.0060425 489.4527283,788.2631836 325.4093933,788.2631836 "/>
<text transform="matrix(0.85 0 0 1 385.8476562 798.5462646)" class="st2 st4">«FeatureType»</text>
<text transform="matrix(0.85 0 0 1 384.8320312 807.2884521)" class="st5 st4">uro::SewerPipe</text>
<line class="st1" x1="325.4093933" y1="811.4060059" x2="488.9448547" y2="811.4060059"/>
<text transform="matrix(0.85 0 0 1 327.9487305 820.6556396)" class="st2 st4">+</text>
<text transform="matrix(0.85 0 0 1 332.5180664 820.6556396)" class="st2 st4"> </text>
<text transform="matrix(0.85 0 0 1 339.1206055 820.6556396)" class="st2 st4">slope: gml:MesureType [0..1]</text>
<text transform="matrix(0.85 0 0 1 327.9487305 829.4056396)" class="st2 st4">+</text>
<text transform="matrix(0.85 0 0 1 332.5180664 829.4056396)" class="st2 st4"> </text>
<text transform="matrix(0.85 0 0 1 339.1206055 829.4056396)" class="st2 st4">invertElevationUpstream: gml::LengthType [0..1]</text>
<text transform="matrix(0.85 0 0 1 327.9487305 838.1478271)" class="st2 st4">+</text>
<text transform="matrix(0.85 0 0 1 332.5180664 838.1478271)" class="st2 st4"> </text>
<text transform="matrix(0.85 0 0 1 339.1206055 838.1478271)" class="st2 st4">invertElevationDownstream: gml::LengthType [0..1]</text>
<text transform="matrix(0.85 0 0 1 327.9487305 846.8900146)" class="st2 st4">+</text>
<text transform="matrix(0.85 0 0 1 332.5180664 846.8900146)" class="st2 st4"> </text>
<text transform="matrix(0.85 0 0 1 339.1206055 846.8900146)" class="st2 st4">flowDirection: xs::boolean [0..1]</text>
<polygon class="st8" points="496.5629578,831.4631958 557.5078125,831.4631958 557.5078125,790.3203125 496.5629578,790.3203125 "/>
<polygon class="st1" points="496.5629578,831.4631958 557.5078125,831.4631958 557.5078125,790.3203125 496.5629578,790.3203125 "/>
<text transform="matrix(0.85 0 0 1 505.1992188 800.6087646)" class="st2 st4">«FeatureType»</text>
<text transform="matrix(0.85 0 0 1 501.1289062 809.3431396)" class="st5 st4">uro::ThermalPipe</text>
<polygon class="st8" points="568.1731567,831.4631958 650.956665,831.4631958 650.956665,790.3203125 568.1731567,790.3203125 "/>
<polygon class="st1" points="568.1731567,831.4631958 650.956665,831.4631958 650.956665,790.3203125 568.1731567,790.3203125 "/>
<text transform="matrix(0.85 0 0 1 587.9804688 800.6087646)" class="st2 st4">«FeatureType»</text>
<text transform="matrix(0.85 0 0 1 571.2226562 809.3431396)" class="st5 st4">uro::OilGasChemicalsPipe</text>
<polygon class="st8" points="673.8109741,702.8917236 734.7558594,702.8917236 734.7558594,661.7489014 673.8109741,661.7489014 "/>
<polygon class="st1" points="673.8109741,702.8917236 734.7558594,702.8917236 734.7558594,661.7489014 673.8109741,661.7489014 "/>
<text transform="matrix(0.85 0 0 1 682.4414062 672.0306396)" class="st2 st4">«FeatureType»</text>
<text transform="matrix(0.85 0 0 1 682.4414062 680.7728271)" class="st5 st4">uro::Handhole</text>
<polygon class="st8" points="163.9054565,390.7203369 292.397583,390.7203369 292.397583,310.4916992 163.9054565,310.4916992 "/>
<polygon class="st1" points="163.9054565,390.7203369 292.397583,390.7203369 292.397583,310.4916992 163.9054565,310.4916992 "/>
<text transform="matrix(0.85 0 0 1 210.628418 320.7723389)" class="st2 st4">«DataType»</text>
<text transform="matrix(0.85 0 0 1 176.0893555 329.5223389)" class="st5 st4">uro::MaintenanceHistoryAttribute</text>
<line class="st1" x1="163.9054565" y1="333.6346436" x2="291.8897095" y2="333.6346436"/>
<text transform="matrix(0.85 0 0 1 166.440918 342.8895264)" class="st2 st4">+</text>
<text transform="matrix(0.85 0 0 1 171.0102539 342.8895264)" class="st2 st4"> </text>
<text transform="matrix(0.85 0 0 1 177.612793 342.8895264)" class="st2 st4">maintenanceType: gml::CodeType</text>
<text transform="matrix(0.85 0 0 1 166.440918 351.6317139)" class="st2 st4">+</text>
<text transform="matrix(0.85 0 0 1 171.0102539 351.6317139)" class="st2 st4"> </text>
<text transform="matrix(0.85 0 0 1 177.612793 351.6317139)" class="st2 st4">maintenanceFiscalYear: xs::gYear [0..1]</text>
<text transform="matrix(0.85 0 0 1 166.440918 360.3739014)" class="st2 st4">+</text>
<text transform="matrix(0.85 0 0 1 171.0102539 360.3739014)" class="st2 st4"> </text>
<text transform="matrix(0.85 0 0 1 177.612793 360.3739014)" class="st2 st4">maintenanceYear: xs::gYear [0..1]</text>
<text transform="matrix(0.85 0 0 1 166.440918 369.1082764)" class="st2 st4">+</text>
<text transform="matrix(0.85 0 0 1 171.0102539 369.1082764)" class="st2 st4"> </text>
<text transform="matrix(0.85 0 0 1 177.612793 369.1082764)" class="st2 st4">maintenanceDate: xs::date [0..1]</text>
<text transform="matrix(0.85 0 0 1 166.440918 377.8582764)" class="st2 st4">+</text>
<text transform="matrix(0.85 0 0 1 171.0102539 377.8582764)" class="st2 st4"> </text>
<text transform="matrix(0.85 0 0 1 177.612793 377.8582764)" class="st2 st4">status: xs::string [0..1]</text>
<text transform="matrix(0.85 0 0 1 166.440918 386.6004639)" class="st2 st4">+</text>
<text transform="matrix(0.85 0 0 1 171.0102539 386.6004639)" class="st2 st4"> </text>
<text transform="matrix(0.85 0 0 1 177.612793 386.6004639)" class="st2 st4">description: xs::string [0..1]</text>
<polygon class="st8" points="171.015686,154.1487732 283.7637329,154.1487732 283.7637329,106.8345718 171.015686,106.8345718 "/>
<polygon class="st1" points="171.015686,154.1487732 283.7637329,154.1487732 283.7637329,106.8345718 171.015686,106.8345718 "/>
<text transform="matrix(0.85 0 0 1 209.612793 117.1238861)" class="st2 st4">«DataType»</text>
<text transform="matrix(0.85 0 0 1 177.612793 125.8582611)" class="st5 st4">uro::CityFurnitureDetailAttribute</text>
<line class="st1" x1="171.015686" y1="129.9774017" x2="283.2558594" y2="129.9774017"/>
<text transform="matrix(0.85 0 0 1 173.550293 139.2332611)" class="st2 st4">+</text>
<text transform="matrix(0.85 0 0 1 178.1196289 139.2332611)" class="st2 st4"> </text>
<text transform="matrix(0.85 0 0 1 184.7299805 139.2332611)" class="st2 st4">facilityType: gml::CodeType [0..1]</text>
<text transform="matrix(0.85 0 0 1 173.550293 147.9832611)" class="st2 st4">+</text>
<text transform="matrix(0.85 0 0 1 178.1196289 147.9832611)" class="st2 st4"> </text>
<text transform="matrix(0.85 0 0 1 184.7299805 147.9832611)" class="st2 st4">description: xs::string [0..1]</text>
<polygon class="st8" points="171.015686,102.720314 282.7479858,102.720314 282.7479858,57.4631081 171.015686,57.4631081 "/>
<polygon class="st1" points="171.015686,102.720314 282.7479858,102.720314 282.7479858,57.4631081 171.015686,57.4631081 "/>
<text transform="matrix(0.85 0 0 1 209.1049805 67.7488861)" class="st2 st4">«DataType»</text>
<text transform="matrix(0.85 0 -0.3126727 0.9498609 200.4656372 76.4953613)" class="st2 st3">u</text>
<text transform="matrix(0.85 0 -0.3126727 0.9498609 200.4656372 76.4953613)" class="st7 st2 st3">u</text>
<text transform="matrix(0.85 0 -0.3126727 0.9498609 204.5252075 76.4953613)" class="st2 st3">r</text>
<text transform="matrix(0.85 0 -0.3126727 0.9498609 204.5252075 76.4953613)" class="st7 st2 st3">r</text>
<text transform="matrix(0.85 0 -0.3126727 0.9498609 207.0584106 76.4953613)" class="st2 st3">o</text>
<text transform="matrix(0.85 0 -0.3126727 0.9498609 207.0584106 76.4953613)" class="st7 st2 st3">o</text>
<text transform="matrix(0.85 0 -0.3126727 0.9498609 211.1189575 76.4953613)" class="st2 st3">::</text>
<text transform="matrix(0.85 0 -0.3126727 0.9498609 211.1189575 76.4953613)" class="st7 st2 st3">::</text>
<text transform="matrix(0.85 0 -0.3126727 0.9498609 214.1531372 76.4953613)" class="st2 st3">D</text>
<text transform="matrix(0.85 0 -0.3126727 0.9498609 214.1531372 76.4953613)" class="st7 st2 st3">D</text>
<text transform="matrix(0.85 0 -0.3126727 0.9498609 218.7293091 76.4953613)" class="st2 st3">m</text>
<text transform="matrix(0.85 0 -0.3126727 0.9498609 218.7293091 76.4953613)" class="st7 st2 st3">m</text>
<text transform="matrix(0.85 0 -0.3126727 0.9498609 224.8191528 76.4953613)" class="st2 st3">A</text>
<text transform="matrix(0.85 0 -0.3126727 0.9498609 224.8191528 76.4953613)" class="st7 st2 st3">A</text>
<text transform="matrix(0.85 0 -0.3126727 0.9498609 229.3884888 76.4953613)" class="st2 st3">tt</text>
<text transform="matrix(0.85 0 -0.3126727 0.9498609 229.3884888 76.4953613)" class="st7 st2 st3">tt</text>
<text transform="matrix(0.85 0 -0.3126727 0.9498609 234.4568481 76.4953613)" class="st2 st3">r</text>
<text transform="matrix(0.85 0 -0.3126727 0.9498609 234.4568481 76.4953613)" class="st7 st2 st3">r</text>
<text transform="matrix(0.85 0 -0.3126727 0.9498609 236.9900513 76.4953613)" class="st2 st3">i</text>
<text transform="matrix(0.85 0 -0.3126727 0.9498609 236.9900513 76.4953613)" class="st7 st2 st3">i</text>
<text transform="matrix(0.85 0 -0.3126727 0.9498609 238.5164185 76.4953613)" class="st2 st3">b</text>
<text transform="matrix(0.85 0 -0.3126727 0.9498609 238.5164185 76.4953613)" class="st7 st2 st3">b</text>
<text transform="matrix(0.85 0 -0.3126727 0.9498609 242.5759888 76.4953613)" class="st2 st3">u</text>
<text transform="matrix(0.85 0 -0.3126727 0.9498609 242.5759888 76.4953613)" class="st7 st2 st3">u</text>
<text transform="matrix(0.85 0 -0.3126727 0.9498609 246.6355591 76.4953613)" class="st2 st3">t</text>
<text transform="matrix(0.85 0 -0.3126727 0.9498609 246.6355591 76.4953613)" class="st7 st2 st3">t</text>
<text transform="matrix(0.85 0 -0.3126727 0.9498609 249.1707153 76.4953613)" class="st2 st3">e</text>
<text transform="matrix(0.85 0 -0.3126727 0.9498609 249.1707153 76.4953613)" class="st7 st2 st3">e</text>
<line class="st1" x1="171.015686" y1="80.6059341" x2="282.2401123" y2="80.6059341"/>
<text transform="matrix(0.85 0 0 1 173.550293 89.8660736)" class="st2 st4">+</text>
<text transform="matrix(0.85 0 0 1 178.1196289 89.8660736)" class="st2 st4"> </text>
<text transform="matrix(0.85 0 0 1 184.7299805 89.8660736)" class="st2 st4">dmCode: gml::CodeType</text>
<text transform="matrix(0.85 0 0 1 173.550293 98.6082611)" class="st2 st4">+</text>
<text transform="matrix(0.85 0 0 1 178.1196289 98.6082611)" class="st2 st4"> </text>
<text transform="matrix(0.85 0 0 1 184.7299805 98.6082611)" class="st2 st4">meshCode: gml::CodeType [0..1]</text>
<polygon class="st8" points="536.177124,469.4060059 660.0983887,469.4060059 660.0983887,418.4916992 536.177124,418.4916992 "/>
<polygon class="st1" points="536.177124,469.4060059 660.0983887,469.4060059 660.0983887,418.4916992 536.177124,418.4916992 "/>
<text transform="matrix(0.85 0 0 1 580.3632812 428.7801514)" class="st2 st4">«DataType»</text>
<text transform="matrix(0.85 0 0 1 567.6679688 437.5228271)" class="st5 st4">uro::ThematicShape</text>
<line class="st1" x1="536.177124" y1="441.6346436" x2="659.5905151" y2="441.6346436"/>
<text transform="matrix(0.85 0 0 1 538.7148438 450.8900146)" class="st2 st4">+</text>
<text transform="matrix(0.85 0 0 1 543.2841797 450.8900146)" class="st2 st4"> </text>
<text transform="matrix(0.85 0 0 1 549.8867188 450.8900146)" class="st2 st4">horizontalType: gml::CodeType [0..1]</text>
<text transform="matrix(0.85 0 0 1 538.7148438 459.6322021)" class="st2 st4">+</text>
<text transform="matrix(0.85 0 0 1 543.2841797 459.6322021)" class="st2 st4"> </text>
<text transform="matrix(0.85 0 0 1 549.8867188 459.6322021)" class="st2 st4">heightType: gml::CodeType [0..1]</text>
<polygon class="st8" points="50.6495285,604.1488037 170.5078125,604.1488037 170.5078125,547.5775146 50.6495285,547.5775146 "/>
<polygon class="st1" points="50.6495285,604.1488037 170.5078125,604.1488037 170.5078125,547.5775146 50.6495285,547.5775146 "/>
<text transform="matrix(0.85 0 0 1 92.800293 557.8587646)" class="st2 st4">«DataType»</text>
<text transform="matrix(0.85 0 0 1 79.081543 566.6009521)" class="st5 st4">uro::LengthAttribute</text>
<line class="st1" x1="50.6495285" y1="570.7203369" x2="169.999939" y2="570.7203369"/>
<text transform="matrix(0.85 0 0 1 53.190918 579.9681396)" class="st2 st4">+</text>
<text transform="matrix(0.85 0 0 1 57.7602539 579.9681396)" class="st2 st4"> </text>
<text transform="matrix(0.85 0 0 1 64.362793 579.9681396)" class="st2 st4">length: gml::LengthType [0..1]</text>
<text transform="matrix(0.85 0 0 1 53.190918 588.7181396)" class="st2 st4">+</text>
<text transform="matrix(0.85 0 0 1 57.7602539 588.7181396)" class="st2 st4"> </text>
<text transform="matrix(0.85 0 0 1 64.362793 588.7181396)" class="st2 st4">measureType: gml::CodeType [0..1]</text>
<text transform="matrix(0.85 0 0 1 53.190918 597.4603271)" class="st2 st4">+</text>
<text transform="matrix(0.85 0 0 1 57.7602539 597.4603271)" class="st2 st4"> </text>
<text transform="matrix(0.85 0 0 1 64.362793 597.4603271)" class="st2 st4">phaseType: gml::CodeType [0..1]</text>
<polygon class="st8" points="22.20858,66.720192 163.3975677,66.720192 163.3975677,10.6630602 22.20858,10.6630602 "/>
<polygon class="st1" points="22.20858,66.720192 163.3975677,66.720192 163.3975677,10.6630602 22.20858,10.6630602 "/>
<text transform="matrix(0.85 0 0 1 75.019043 20.9520111)" class="st2 st4">«DataType»</text>
<text transform="matrix(0.85 0 0 1 52.175293 29.6863861)" class="st5 st4">uro::KeyValuePairAttribute</text>
<line class="st1" x1="22.20858" y1="33.8060036" x2="162.8896942" y2="33.8060036"/>
<text transform="matrix(0.85 0 0 1 24.753418 43.0613861)" class="st2 st4">+</text>
<text transform="matrix(0.85 0 0 1 29.3227539 43.0613861)" class="st2 st4"> </text>
<text transform="matrix(0.85 0 0 1 35.925293 43.0613861)" class="st2 st4">key: gml::CodeType</text>
<text transform="matrix(0.85 0 0 1 24.753418 51.8113861)" class="st2 st4">+</text>
<text transform="matrix(0.85 0 0 1 29.3227539 51.8113861)" class="st2 st4"> </text>
<text transform="matrix(0.85 0 0 1 35.925293 51.8113861)" class="st2 st4">codeValue: gml::CodeType [0..1]</text>
<polygon class="st8" points="6.4644775,293.0059814 158.8267059,293.0059814 158.8267059,142.8345642 6.4644775,142.8345642 "/>
<polygon class="st1" points="6.4644775,293.0059814 158.8267059,293.0059814 158.8267059,142.8345642 6.4644775,142.8345642 "/>
<text transform="matrix(0.85 0 0 1 64.862793 153.1160736)" class="st2 st4">«DataType»</text>
<text transform="matrix(0.85 0 0 1 43.534668 161.8660736)" class="st5 st4">uro::DataQualityAttribute</text>
<line class="st1" x1="6.4644775" y1="165.9773865" x2="158.3188324" y2="165.9773865"/>
<text transform="matrix(0.85 0 0 1 9.003418 175.2332611)" class="st2 st4">+</text>
<text transform="matrix(0.85 0 0 1 13.5727539 175.2332611)" class="st2 st4"> </text>
<text transform="matrix(0.85 0 0 1 20.175293 175.2332611)" class="st2 st4">geometrySrcDescLod0: gml::CodeType [0..*]</text>
<text transform="matrix(0.85 0 0 1 9.003418 183.9754486)" class="st2 st4">+</text>
<text transform="matrix(0.85 0 0 1 13.5727539 183.9754486)" class="st2 st4"> </text>
<text transform="matrix(0.85 0 0 1 20.175293 183.9754486)" class="st2 st4">geometrySrcDescLod1: gml::CodeType [1..*]</text>
<text transform="matrix(0.85 0 0 1 9.003418 192.7176361)" class="st2 st4">+</text>
<text transform="matrix(0.85 0 0 1 13.5727539 192.7176361)" class="st2 st4"> </text>
<text transform="matrix(0.85 0 0 1 20.175293 192.7176361)" class="st2 st4">geometrySrcDescLod2: gml::CodeType [0..*]</text>
<text transform="matrix(0.85 0 0 1 9.003418 201.4520111)" class="st2 st4">+</text>
<text transform="matrix(0.85 0 0 1 13.5727539 201.4520111)" class="st2 st4"> </text>
<text transform="matrix(0.85 0 0 1 20.175293 201.4520111)" class="st2 st4">geometrySrcDescLod3: gml::CodeType [0..*]</text>
<text transform="matrix(0.85 0 0 1 9.003418 210.2020111)" class="st2 st4">+</text>
<text transform="matrix(0.85 0 0 1 13.5727539 210.2020111)" class="st2 st4"> </text>
<text transform="matrix(0.85 0 0 1 20.175293 210.2020111)" class="st2 st4">geometrySrcDescLod4: gml::CodeType [0..*]</text>
<text transform="matrix(0.85 0 0 1 9.003418 218.9441986)" class="st2 st4">+</text>
<text transform="matrix(0.85 0 0 1 13.5727539 218.9441986)" class="st2 st4"> </text>
<text transform="matrix(0.85 0 0 1 20.175293 218.9441986)" class="st2 st4">thematicSrcDesc: gml::CodeType [0..*]</text>
<text transform="matrix(0.85 0 0 1 9.003418 227.6863861)" class="st2 st4">+</text>
<text transform="matrix(0.85 0 0 1 13.5727539 227.6863861)" class="st2 st4"> </text>
<text transform="matrix(0.85 0 0 1 20.175293 227.6863861)" class="st2 st4">appearanceSrcDescLod0: gml::CodeType [0..*]</text>
<text transform="matrix(0.85 0 0 1 9.003418 236.4363861)" class="st2 st4">+</text>
<text transform="matrix(0.85 0 0 1 13.5727539 236.4363861)" class="st2 st4"> </text>
<text transform="matrix(0.85 0 0 1 20.175293 236.4363861)" class="st2 st4">appearanceSrcDescLod1: gml::CodeType [0..*]</text>
<text transform="matrix(0.85 0 0 1 9.003418 245.1785736)" class="st2 st4">+</text>
<text transform="matrix(0.85 0 0 1 13.5727539 245.1785736)" class="st2 st4"> </text>
<text transform="matrix(0.85 0 0 1 20.175293 245.1785736)" class="st2 st4">appearanceSrcDescLod2: gml::CodeType [0..*]</text>
<text transform="matrix(0.85 0 0 1 9.003418 253.9207611)" class="st2 st4">+</text>
<text transform="matrix(0.85 0 0 1 13.5727539 253.9207611)" class="st2 st4"> </text>
<text transform="matrix(0.85 0 0 1 20.175293 253.9207611)" class="st2 st4">appearanceSrcDescLod3: gml::CodeType [0..*]</text>
<text transform="matrix(0.85 0 0 1 9.003418 262.6707764)" class="st2 st4">+</text>
<text transform="matrix(0.85 0 0 1 13.5727539 262.6707764)" class="st2 st4"> </text>
<text transform="matrix(0.85 0 0 1 20.175293 262.6707764)" class="st2 st4">appearanceSrcDescLod4: gml::CodeType [0..*]</text>
<text transform="matrix(0.85 0 0 1 9.003418 271.4051514)" class="st2 st4">+</text>
<text transform="matrix(0.85 0 0 1 13.5727539 271.4051514)" class="st2 st4"> </text>
<text transform="matrix(0.85 0 0 1 20.175293 271.4051514)" class="st2 st4">lodType: gml::CodeType [0..*]</text>
<text transform="matrix(0.85 0 0 1 9.003418 280.1473389)" class="st2 st4">+</text>
<text transform="matrix(0.85 0 0 1 13.5727539 280.1473389)" class="st2 st4"> </text>
<text transform="matrix(0.85 0 0 1 20.175293 280.1473389)" class="st2 st4">lod1HeightType: gml::CodeType [0..1]</text>
<text transform="matrix(0.85 0 0 1 9.003418 288.8895264)" class="st2 st4">+</text>
<text transform="matrix(0.85 0 0 1 13.5727539 288.8895264)" class="st2 st4"> </text>
<text transform="matrix(0.85 0 0 1 20.175293 288.8895264)" class="st2 st4">tranDataAcquisition: xs::string [0..1]</text>
<path class="st9" d="M625.5629272,11.1773424c0.8414307,0,1.5235596,0.6907959,1.5235596,1.5428467h0.000061v45.2572021h-0.000061
	c0,0.8520508-0.6821289,1.5428467-1.5236206,1.5428467l0,0h0.000061h-90.9094238h-0.000061
	c-0.8414307,0-1.5236206-0.6907959-1.5236206-1.5428467h0.000061V12.7201891c0-0.8520508,0.6821289-1.5428467,1.5236206-1.5428467
	l0,0H625.5629272L625.5629272,11.1773424L625.5629272,11.1773424z"/>
<path class="st10" d="M625.5629272,11.1773424c0.8414307,0,1.5235596,0.6907959,1.5235596,1.5428467h0.000061v45.2572021h-0.000061
	c0,0.8520508-0.6821289,1.5428467-1.5236206,1.5428467l0,0h0.000061h-90.9094238h-0.000061
	c-0.8414307,0-1.5236206-0.6907959-1.5236206-1.5428467h0.000061V12.7201891c0-0.8520508,0.6821289-1.5428467,1.5236206-1.5428467
	l0,0H625.5629272L625.5629272,11.1773424L625.5629272,11.1773424z"/>
<polygon class="st11" points="538.2086182,35.3488503 546.8424683,35.3488503 546.8424683,26.6059303 538.2086182,26.6059303 "/>
<polygon class="st12" points="538.2086182,35.3488503 546.8424683,35.3488503 546.8424683,26.6059303 538.2086182,26.6059303 "/>
<text transform="matrix(0.85 0 0 1 549.3789062 33.7957611)" class="st13 st2 st4">GMLで定義されたクラス</text>
<polygon class="st0" points="538.2086182,45.1202126 546.8424683,45.1202126 546.8424683,36.3774147 538.2086182,36.3774147 "/>
<polygon class="st12" points="538.2086182,45.1202126 546.8424683,45.1202126 546.8424683,36.3774147 538.2086182,36.3774147 "/>
<text transform="matrix(0.85 0 0 1 549.3789062 43.5770111)" class="st13 st2 st4">CityGMLで定義されたクラス</text>
<polygon class="st8" points="538.2086182,54.8916969 546.8424683,54.8916969 546.8424683,46.148777 538.2086182,46.148777 "/>
<polygon class="st12" points="538.2086182,54.8916969 546.8424683,54.8916969 546.8424683,46.148777 538.2086182,46.148777 "/>
<text transform="matrix(0.85 0 0 1 549.3789062 53.3504486)" class="st13 st2 st4">i-URで定義されたクラス</text>
<text transform="matrix(0.85 0 0 1 574.2695312 24.2440033)" class="st13 st5 st14 st15">凡例</text>
<line class="st1" x1="626.5786743" y1="345.4631348" x2="685.4920654" y2="345.4631348"/>
<line class="st1" x1="685.4920654" y1="345.4631348" x2="685.4920654" y2="443.6917725"/>
<line class="st1" x1="685.4920654" y1="443.6917725" x2="660.6062622" y2="443.6917725"/>
<polyline class="st1" points="634.1968384,348.5488281 626.5786743,345.4631348 634.1968384,342.3774414 "/>
<line class="st1" x1="176.6022949" y1="684.8917236" x2="176.6022949" y2="660.2059326"/>
<line class="st1" x1="176.6022949" y1="660.2059326" x2="293.9212036" y2="660.2059326"/>
<line class="st1" x1="293.9212036" y1="660.2059326" x2="293.9212036" y2="635.0059814"/>
<polyline class="st16" points="296.9684448,643.2344971 290.8739624,643.2344971 293.9212036,635.0059814 296.9684448,643.2344971 
	"/>
<polygon class="st1" points="296.9684448,643.2344971 290.8739624,643.2344971 293.9212036,635.0059814 "/>
<line class="st1" x1="114.1337891" y1="788.2631836" x2="114.1337891" y2="771.291748"/>
<line class="st1" x1="114.1337891" y1="771.291748" x2="177.1101685" y2="771.291748"/>
<line class="st1" x1="177.1101685" y1="771.291748" x2="177.1101685" y2="746.0917358"/>
<polyline class="st16" points="180.1574249,754.3203125 174.0629272,754.3203125 177.1101685,746.0917358 180.1574249,754.3203125 
	"/>
<polygon class="st1" points="180.1574249,754.3203125 174.0629272,754.3203125 177.1101685,746.0917358 "/>
<line class="st1" x1="525.5117798" y1="223.5773621" x2="408.7007446" y2="223.5773621"/>
<polyline class="st17" points="406.161377,305.348877 408.7007446,310.4916992 411.2401123,305.348877 408.7007446,300.2059326 
	406.161377,305.348877 "/>
<polyline class="st1" points="406.161377,305.348877 408.7007446,310.4916992 411.2401123,305.348877 408.7007446,300.2059326 "/>
<polyline class="st1" points="517.8936768,220.4916687 525.5117798,223.5773621 517.8936768,226.6631775 "/>
<line class="st1" x1="525.5117798" y1="111.9773941" x2="408.7007446" y2="111.9773941"/>
<polyline class="st17" points="406.161377,305.348877 408.7007446,310.4916992 411.2401123,305.348877 408.7007446,300.2059326 
	406.161377,305.348877 "/>
<polyline class="st1" points="406.161377,305.348877 408.7007446,310.4916992 411.2401123,305.348877 408.7007446,300.2059326 "/>
<polyline class="st1" points="517.8936768,108.8917007 525.5117798,111.9773941 517.8936768,115.0630875 "/>
<line class="st1" x1="271.066864" y1="268.3203125" x2="408.7007446" y2="268.3203125"/>
<polyline class="st17" points="406.161377,305.348877 408.7007446,310.4916992 411.2401123,305.348877 408.7007446,300.2059326 
	406.161377,305.348877 "/>
<polyline class="st1" points="406.161377,305.348877 408.7007446,310.4916992 411.2401123,305.348877 408.7007446,300.2059326 "/>
<polyline class="st1" points="278.6849976,271.4060059 271.066864,268.3203125 278.6849976,265.2344666 "/>
<line class="st1" x1="171.015686" y1="575.348877" x2="225.3582153" y2="575.348877"/>
<polyline class="st17" points="220.2794647,577.9202881 225.3582153,575.348877 220.2794647,572.7774658 215.2007294,575.348877 
	220.2794647,577.9202881 "/>
<polygon class="st1" points="220.2794647,577.9202881 225.3582153,575.348877 220.2794647,572.7774658 215.2007294,575.348877 "/>
<polyline class="st1" points="178.6338043,578.4345703 171.015686,575.348877 178.6338043,572.2631836 "/>
<line class="st1" x1="267.5117493" y1="444.2059326" x2="346.7401123" y2="443.6917725"/>
<polyline class="st17" points="341.661377,446.2631836 346.7401123,443.6917725 341.661377,441.1202393 336.5826416,443.6917725 
	341.661377,446.2631836 "/>
<polygon class="st1" points="341.661377,446.2631836 346.7401123,443.6917725 341.661377,441.1202393 336.5826416,443.6917725 "/>
<polyline class="st1" points="275.1298828,447.291748 267.5117493,444.2059326 275.1298828,441.1202393 "/>
<line class="st1" x1="409.2086182" y1="407.1773682" x2="409.2086182" y2="377.8631592"/>
<polyline class="st16" points="412.2558594,386.0916748 406.161377,386.0916748 409.2086182,377.8631592 412.2558594,386.0916748 
	"/>
<polygon class="st1" points="412.2558594,386.0916748 406.161377,386.0916748 409.2086182,377.8631592 "/>
<line class="st1" x1="475.7401428" y1="367.5773926" x2="570.7125244" y2="367.5773926"/>
<polyline class="st1" points="563.0944214,370.663208 570.7125244,367.5773926 563.0944214,364.4916992 "/>
<line class="st1" x1="475.7401428" y1="351.6346436" x2="570.7125244" y2="351.6346436"/>
<polyline class="st1" points="563.0944214,354.7203369 570.7125244,351.6346436 563.0944214,348.5488281 "/>
<line class="st1" x1="475.7401428" y1="334.1488037" x2="570.7125244" y2="334.1488037"/>
<polyline class="st1" points="563.0944214,337.2344971 570.7125244,334.1488037 563.0944214,331.0631104 "/>
<line class="st1" x1="475.7401428" y1="319.2344971" x2="570.7125244" y2="319.2344971"/>
<polyline class="st1" points="563.0944214,322.3203125 570.7125244,319.2344971 563.0944214,316.1488037 "/>
<line class="st1" x1="163.3975677" y1="38.4345436" x2="408.7007446" y2="38.4345436"/>
<line class="st1" x1="408.7007446" y1="38.4345436" x2="408.7007446" y2="310.4916992"/>
<polyline class="st17" points="406.161377,305.348877 408.7007446,310.4916992 411.2401123,305.348877 408.7007446,300.2059326 
	406.161377,305.348877 "/>
<polyline class="st1" points="406.161377,305.348877 408.7007446,310.4916992 411.2401123,305.348877 408.7007446,300.2059326 "/>
<polyline class="st1" points="171.015686,41.520237 163.3975677,38.4345436 171.015686,35.3488503 "/>
<line class="st1" x1="158.8267059" y1="217.9202576" x2="408.7007446" y2="217.9202576"/>
<polyline class="st17" points="406.161377,305.348877 408.7007446,310.4916992 411.2401123,305.348877 408.7007446,300.2059326 
	406.161377,305.348877 "/>
<polyline class="st1" points="406.161377,305.348877 408.7007446,310.4916992 411.2401123,305.348877 408.7007446,300.2059326 "/>
<polyline class="st1" points="166.4448242,221.0059509 158.8267059,217.9202576 166.4448242,214.8345642 "/>
<line class="st1" x1="209.6141205" y1="788.2631836" x2="209.6141205" y2="771.291748"/>
<line class="st1" x1="209.6141205" y1="771.291748" x2="177.1101685" y2="771.291748"/>
<line class="st1" x1="282.7479858" y1="80.0916519" x2="408.7007446" y2="80.0916519"/>
<polyline class="st17" points="406.161377,305.348877 408.7007446,310.4916992 411.2401123,305.348877 408.7007446,300.2059326 
	406.161377,305.348877 "/>
<polyline class="st1" points="406.161377,305.348877 408.7007446,310.4916992 411.2401123,305.348877 408.7007446,300.2059326 "/>
<polyline class="st1" points="290.3660889,83.1773453 282.7479858,80.0916519 290.3660889,77.0059586 "/>
<line class="st1" x1="283.7637329" y1="130.491684" x2="408.7007446" y2="130.491684"/>
<polyline class="st17" points="406.161377,305.348877 408.7007446,310.4916992 411.2401123,305.348877 408.7007446,300.2059326 
	406.161377,305.348877 "/>
<polygon class="st1" points="406.161377,305.348877 408.7007446,310.4916992 411.2401123,305.348877 408.7007446,300.2059326 "/>
<polyline class="st1" points="291.3818359,133.5773773 283.7637329,130.491684 291.3818359,127.405983 "/>
<line class="st1" x1="227.897583" y1="309.977417" x2="227.897583" y2="289.4060059"/>
<polyline class="st16" points="230.9448242,297.6346436 224.8503418,297.6346436 227.897583,289.4060059 230.9448242,297.6346436 
	"/>
<polygon class="st1" points="230.9448242,297.6346436 224.8503418,297.6346436 227.897583,289.4060059 "/>
<line class="st1" x1="704.2834473" y1="661.2344971" x2="704.2834473" y2="648.8917236"/>
<line class="st1" x1="704.2834473" y1="648.8917236" x2="652.9881592" y2="648.8917236"/>
<line class="st1" x1="652.9881592" y1="648.8917236" x2="652.9881592" y2="623.6917725"/>
<polyline class="st16" points="656.0354004,631.9202881 649.940918,631.9202881 652.9881592,623.6917725 656.0354004,631.9202881 
	"/>
<polygon class="st1" points="656.0354004,631.9202881 649.940918,631.9202881 652.9881592,623.6917725 "/>
<line class="st1" x1="608.2952271" y1="789.8060303" x2="608.2952271" y2="771.291748"/>
<line class="st1" x1="608.2952271" y1="771.291748" x2="305.0944519" y2="771.291748"/>
<line class="st1" x1="305.0944519" y1="771.291748" x2="305.0944519" y2="746.0917358"/>
<polyline class="st16" points="308.1416931,754.3203125 302.0472107,754.3203125 305.0944519,746.0917358 308.1416931,754.3203125 
	"/>
<polygon class="st1" points="308.1416931,754.3203125 302.0472107,754.3203125 305.0944519,746.0917358 "/>
<line class="st1" x1="526.0196533" y1="789.8060303" x2="526.0196533" y2="771.291748"/>
<line class="st1" x1="481.3267517" y1="597.977417" x2="481.3267517" y2="571.2344971"/>
<polyline class="st16" points="484.3739929,579.4631348 478.2795105,579.4631348 481.3267517,571.2344971 484.3739929,579.4631348 
	"/>
<polygon class="st1" points="484.3739929,579.4631348 478.2795105,579.4631348 481.3267517,571.2344971 "/>
<line class="st1" x1="285.7952271" y1="788.2631836" x2="285.7952271" y2="771.291748"/>
<line class="st1" x1="285.7952271" y1="771.291748" x2="305.0944519" y2="771.291748"/>
<line class="st1" x1="651.4645386" y1="516.2059326" x2="651.4645386" y2="504.8917236"/>
<line class="st1" x1="651.4645386" y1="504.8917236" x2="408.7007446" y2="504.8917236"/>
<line class="st1" x1="408.7007446" y1="504.8917236" x2="408.7007446" y2="479.6917725"/>
<polyline class="st16" points="411.7479858,487.9202881 405.6535034,487.9202881 408.7007446,479.6917725 411.7479858,487.9202881 
	"/>
<polygon class="st1" points="411.7479858,487.9202881 405.6535034,487.9202881 408.7007446,479.6917725 "/>
<line class="st1" x1="603.7243652" y1="661.2344971" x2="603.7243652" y2="648.8917236"/>
<line class="st1" x1="603.7243652" y1="648.8917236" x2="652.9881592" y2="648.8917236"/>
<line class="st1" x1="439.1731873" y1="684.8917236" x2="439.1731873" y2="660.2059326"/>
<line class="st1" x1="439.1731873" y1="660.2059326" x2="293.9212036" y2="660.2059326"/>
<line class="st1" x1="268.0196228" y1="684.8917236" x2="268.0196228" y2="660.2059326"/>
<line class="st1" x1="481.3267517" y1="516.2059326" x2="481.3267517" y2="504.8917236"/>
<line class="st1" x1="292.397583" y1="516.2059326" x2="292.397583" y2="504.8917236"/>
<line class="st1" x1="292.397583" y1="504.8917236" x2="408.7007446" y2="504.8917236"/>
<line class="st1" x1="535.6692505" y1="446.2631836" x2="471.1692505" y2="446.2631836"/>
<polyline class="st17" points="476.2480164,443.6917725 471.1692505,446.2631836 476.2480164,448.8345947 481.3267517,446.2631836 
	476.2480164,443.6917725 "/>
<polygon class="st1" points="476.2480164,443.6917725 471.1692505,446.2631836 476.2480164,448.8345947 481.3267517,446.2631836 "/>
<polyline class="st1" points="528.0511475,443.1773682 535.6692505,446.2631836 528.0511475,449.348877 "/>
<line class="st1" x1="407.177124" y1="787.7489014" x2="407.177124" y2="771.291748"/>
<text transform="matrix(0.85 0 0 1 660.6054688 341.3504639)" class="st2 st4">+shape</text>
<text transform="matrix(0.85 0 0 1 679.3945312 355.2332764)" class="st2 st4">1</text>
<text transform="matrix(0.85 0 0 1 452.3789062 107.8582611)" class="st2 st4">+frnFacilityTypeAttribute</text>
<text transform="matrix(0.85 0 0 1 514.8476562 121.7488861)" class="st2 st4">0..*</text>
<text transform="matrix(0.85 0 0 1 285.284668 126.3738861)" class="st2 st4">+cityFurnitureDetailAttribute</text>
<text transform="matrix(0.85 0 0 1 285.284668 140.2645111)" class="st2 st4">0..*</text>
<text transform="matrix(0.85 0 0 1 275.128418 264.2098389)" class="st2 st4">+frnFacilityAttribute</text>
<text transform="matrix(0.85 0 0 1 272.5893555 278.0848389)" class="st2 st4">0..*</text>
<text transform="matrix(0.85 0 0 1 497.0664062 360.8895264)" class="st2 st4">+lod4Geometry</text>
<text transform="matrix(0.85 0 0 1 551.9179688 375.8035889)" class="st2 st4">0..1</text>
<text transform="matrix(0.85 0 0 1 162.8862305 207.6238861)" class="st2 st4">+cityFurnitureDataQualityAttribute</text>
<text transform="matrix(0.85 0 0 1 164.9174805 233.8582611)" class="st2 st4">1</text>
<text transform="matrix(0.85 0 0 1 496.5585938 330.0301514)" class="st2 st4">+lod2Geometry</text>
<text transform="matrix(0.85 0 0 1 548.3632812 342.3739014)" class="st2 st4">0..1</text>
<text transform="matrix(0.85 0 0 1 486.4023438 439.0618896)" class="st2 st4">+thematicShape</text>
<text transform="matrix(0.85 0 0 1 516.8789062 456.0384521)" class="st2 st4">0..*</text>
<text transform="matrix(0.85 0 0 1 171.0112305 27.6238861)" class="st2 st4">+frnKeyValuePairAttribute</text>
<text transform="matrix(0.85 0 0 1 172.0268555 48.2020111)" class="st2 st4">0..*</text>
<text transform="matrix(0.85 0 0 1 284.269043 75.9754486)" class="st2 st4">+frnDmAttribute</text>
<text transform="matrix(0.85 0 0 1 284.269043 89.8660736)" class="st2 st4">0..*</text>
<text transform="matrix(0.85 0 0 1 496.5585938 344.9520264)" class="st2 st4">+lod3Geometry</text>
<text transform="matrix(0.85 0 0 1 547.8554688 359.8660889)" class="st2 st4">0..1</text>
<text transform="matrix(0.85 0 0 1 172.534668 566.0853271)" class="st2 st4">+lengthAttribute</text>
<text transform="matrix(0.85 0 0 1 172.0268555 588.7181396)" class="st2 st4">0..*</text>
<text transform="matrix(0.85 0 0 1 461.0117188 219.4676361)" class="st2 st4">+frnFacilityIdAttribute</text>
<text transform="matrix(0.85 0 0 1 513.8320312 233.3504486)" class="st2 st4">0..1</text>
<text transform="matrix(0.85 0 0 1 273.6049805 434.9525146)" class="st2 st4">+offsetDepth</text>
<text transform="matrix(0.85 0 0 1 278.6831055 455.5150146)" class="st2 st4">0..*</text>
<text transform="matrix(0.85 0 0 1 495.5429688 314.6004639)" class="st2 st4">+lod1Geometry</text>
<text transform="matrix(0.85 0 0 1 548.8710938 327.9832764)" class="st2 st4">0..1</text>
</svg>
