<?xml version="1.0" encoding="utf-8"?>
<!-- Generator: Adobe Illustrator 27.4.1, SVG Export Plug-In . SVG Version: 6.00 Build 0)  -->
<svg version="1.1" id="レイヤー_1" xmlns="http://www.w3.org/2000/svg" xmlns:xlink="http://www.w3.org/1999/xlink" x="0px"
	 y="0px" viewBox="0 0 540 312.4" style="enable-background:new 0 0 540 312.4;" xml:space="preserve">
<style type="text/css">
	.st0{fill-rule:evenodd;clip-rule:evenodd;fill:#CFD1D8;}
	.st1{fill-rule:evenodd;clip-rule:evenodd;fill:#FFFFCC;}
	.st2{fill:none;stroke:#000000;stroke-width:1.7322;stroke-linecap:round;stroke-linejoin:round;stroke-miterlimit:10;}
	.st3{font-family:'Calibri';}
	.st4{font-size:9.5276px;}
	.st5{font-family:'Calibri-BoldItalic';}
	.st6{fill-rule:evenodd;clip-rule:evenodd;fill:#FFCCFF;}
	.st7{font-size:11.2598px;}
	.st8{font-family:'Calibri-Bold';}
	.st9{fill-rule:evenodd;clip-rule:evenodd;fill:#F0F0F0;}
	.st10{fill:none;stroke:#D7D7D7;stroke-width:0.8662;stroke-linecap:square;stroke-miterlimit:10;}
	.st11{fill-rule:evenodd;clip-rule:evenodd;fill:#CCFFCC;}
	.st12{fill:none;stroke:#000000;stroke-width:0.8662;stroke-linecap:square;stroke-miterlimit:10;}
	.st13{fill:#003060;}
	.st14{font-family:'YuGothicUI-Regular';}
	.st15{font-size:10.3938px;}
	.st16{font-family:'MS-PGothic';}
	.st17{font-size:13.8582px;}
	.st18{fill:none;stroke:#003060;stroke-width:0.396;stroke-miterlimit:10;}
	.st19{fill:none;stroke:#000000;stroke-width:1.7322;stroke-linecap:round;stroke-linejoin:bevel;stroke-miterlimit:10;}
	.st20{fill-rule:evenodd;clip-rule:evenodd;fill:#FFFFFF;}
</style>
<path class="st0" d="M305,28.5c1.2,0,2.2,1,2.2,2.2l0,0v158.5l0,0c0,1.2-1,2.2-2.2,2.2l0,0l0,0H30.6l0,0c-1.2,0-2.2-1-2.2-2.2l0,0
	V30.6c0-1.2,1-2.2,2.2-2.2l0,0H305V28.5L305,28.5z"/>
<path class="st1" d="M302.4,25.9c1.2,0,2.2,1,2.2,2.2l0,0v158.5l0,0c0,1.2-1,2.2-2.2,2.2l0,0l0,0H28l0,0c-1.2,0-2.2-1-2.2-2.2l0,0
	V28c0-1.2,1-2.2,2.2-2.2l0,0L302.4,25.9L302.4,25.9L302.4,25.9z"/>
<path class="st2" d="M302.4,25.9c1.2,0,2.2,1,2.2,2.2l0,0v158.5l0,0c0,1.2-1,2.2-2.2,2.2l0,0l0,0H28l0,0c-1.2,0-2.2-1-2.2-2.2l0,0
	V28c0-1.2,1-2.2,2.2-2.2l0,0L302.4,25.9L302.4,25.9L302.4,25.9z"/>
<text transform="matrix(0.85 0 0 1 134.375 39.7051)" class="st3 st4">«FeatureType»</text>
<text transform="matrix(0.85 0 0 1 117.0156 50.9863)" class="st5 st4">b</text>
<text transform="matrix(0.85 0 0 1 122.2188 50.9863)" class="st5 st4">l</text>
<text transform="matrix(0.85 0 0 1 124.8213 50.9863)" class="st5 st4">d</text>
<text transform="matrix(0.85 0 0 1 130.0244 50.9863)" class="st5 st4">g</text>
<text transform="matrix(0.85 0 0 1 135.2266 50.9863)" class="st5 st4">:</text>
<text transform="matrix(0.85 0 0 1 137.833 50.9863)" class="st5 st4">:</text>
<text transform="matrix(0.85 0 0 1 140.4385 50.9863)" class="st5 st4">_</text>
<text transform="matrix(0.85 0 0 1 144.7842 50.9863)" class="st5 st4">A</text>
<text transform="matrix(0.85 0 0 1 150.8564 50.9863)" class="st5 st4">b</text>
<text transform="matrix(0.85 0 0 1 156.0596 50.9863)" class="st5 st4">s</text>
<text transform="matrix(0.85 0 0 1 159.5361 50.9863)" class="st5 st4">t</text>
<text transform="matrix(0.85 0 0 1 162.999 50.9863)" class="st5 st4">r</text>
<text transform="matrix(0.85 0 0 1 166.4658 50.9863)" class="st5 st4">a</text>
<text transform="matrix(0.85 0 0 1 171.6689 50.9863)" class="st5 st4">c</text>
<text transform="matrix(0.85 0 0 1 176 50.9863)" class="st5 st4">t</text>
<text transform="matrix(0.85 0 0 1 179.4639 50.9863)" class="st5 st4">B</text>
<text transform="matrix(0.85 0 0 1 184.6729 50.9863)" class="st5 st4">u</text>
<text transform="matrix(0.85 0 0 1 189.8809 50.9863)" class="st5 st4">i</text>
<text transform="matrix(0.85 0 0 1 192.4834 50.9863)" class="st5 st4">l</text>
<text transform="matrix(0.85 0 0 1 195.0869 50.9863)" class="st5 st4">d</text>
<text transform="matrix(0.85 0 0 1 200.29 50.9863)" class="st5 st4">i</text>
<text transform="matrix(0.85 0 0 1 202.8926 50.9863)" class="st5 st4">n</text>
<text transform="matrix(0.85 0 0 1 208.1006 50.9863)" class="st5 st4">g</text>
<line class="st2" x1="25.9" y1="57.9" x2="304.5" y2="57.9"/>
<text transform="matrix(0.85 0 0 1 30.2031 70.0488)" class="st3 st4">+ class: gml::CodeType [0..1]</text>
<text transform="matrix(0.85 0 0 1 -7921.4976 -8030.6016)" class="st3" style="font-size:4.7638px;">i</text>
<text transform="matrix(0.85 0 0 1 30.2031 81.3145)" class="st3 st4">+ function: gml::CodeType [0..*]</text>
<text transform="matrix(0.85 0 0 1 30.2031 92.5645)" class="st3 st4">+ usage: gml::CodeType [0..*]</text>
<text transform="matrix(0.85 0 0 1 -7921.4976 -8030.6016)" class="st3" style="font-size:4.7638px;">i</text>
<text transform="matrix(0.85 0 0 1 30.2031 103.8145)" class="st3 st4">+ yearOfConstruction: xs::gYear [0..1]</text>
<text transform="matrix(0.85 0 0 1 -7921.4976 -8030.6016)" class="st3" style="font-size:4.7638px;">i</text>
<text transform="matrix(0.85 0 0 1 30.2031 115.0801)" class="st3 st4">+ yearOfDemolition: xs::gYear [0..1]</text>
<text transform="matrix(0.85 0 0 1 30.2031 126.3613)" class="st3 st4">+ roofType: gml::CodeType [0..1]</text>
<text transform="matrix(0.85 0 0 1 30.2031 137.6113)" class="st3 st4">+ measuredHeight: gml::LengthType [0..1]</text>
<text transform="matrix(0.85 0 0 1 -7921.4976 -8030.6016)" class="st3" style="font-size:4.7638px;">i</text>
<text transform="matrix(0.85 0 0 1 30.2031 148.8613)" class="st3 st4">+ storeysAboveGround: xs::nonNegatveInteger [0..1]</text>
<text transform="matrix(0.85 0 0 1 -7921.4976 -8030.6016)" class="st3" style="font-size:4.7638px;">i</text>
<text transform="matrix(0.85 0 0 1 30.2031 160.1255)" class="st3 st4">+ storeysBelowGround: xs::nonNegatveInteger [0..1]</text>
<text transform="matrix(0.85 0 0 1 30.2031 171.3911)" class="st3 st4">+ storeyHeightsAboveGround: gml::MeasureOrNullListType [0..1]</text>
<text transform="matrix(0.85 0 0 1 30.2031 182.6411)" class="st3 st4">+ storeyHeightsBelowGround: gml::MeasureOrNullListType [0..1]</text>
<path class="st0" d="M233.8,227.7c1.2,0,2.2,1,2.2,2.2l0,0v55.4l0,0c0,1.2-1,2.2-2.2,2.2l0,0l0,0H100.1l0,0c-1.2,0-2.2-1-2.2-2.2
	l0,0v-55.4c0-1.2,1-2.2,2.2-2.2l0,0H233.8L233.8,227.7L233.8,227.7z"/>
<path class="st6" d="M231.2,225.1c1.2,0,2.2,1,2.2,2.2l0,0v55.4l0,0c0,1.2-1,2.2-2.2,2.2l0,0l0,0H97.5l0,0c-1.2,0-2.2-1-2.2-2.2l0,0
	v-55.4c0-1.2,1-2.2,2.2-2.2l0,0L231.2,225.1L231.2,225.1L231.2,225.1z"/>
<path class="st2" d="M231.2,225.1c1.2,0,2.2,1,2.2,2.2l0,0v55.4l0,0c0,1.2-1,2.2-2.2,2.2l0,0l0,0H97.5l0,0c-1.2,0-2.2-1-2.2-2.2l0,0
	v-55.4c0-1.2,1-2.2,2.2-2.2l0,0L231.2,225.1L231.2,225.1L231.2,225.1z"/>
<text transform="matrix(0.85 0 0 1 130.0312 240.6724)" class="st3 st7">«FeatureType»</text>
<text transform="matrix(0.85 0 0 1 104.9452 253.6567)" class="st8 st7">uro::UndergroundBuilding</text>
<path class="st9" d="M512,112.5c1.4,0,2.6,1.2,2.6,2.6l0,0V213l0,0c0,1.4-1.2,2.6-2.6,2.6l0,0l0,0H349.7l0,0c-1.4,0-2.6-1.2-2.6-2.6
	v-97.9c0-1.4,1.2-2.6,2.6-2.6l0,0H512L512,112.5L512,112.5z"/>
<path class="st10" d="M512,112.5c1.4,0,2.6,1.2,2.6,2.6l0,0V213l0,0c0,1.4-1.2,2.6-2.6,2.6l0,0l0,0H349.7l0,0
	c-1.4,0-2.6-1.2-2.6-2.6v-97.9c0-1.4,1.2-2.6,2.6-2.6l0,0H512L512,112.5L512,112.5z"/>
<path class="st11" d="M367.5,138.5c1.2,0,2.2,1,2.2,2.2l0,0v9.5l0,0c0,1.2-1,2.2-2.2,2.2l0,0l0,0H358l0,0c-1.2,0-2.2-1-2.2-2.2l0,0
	v-9.5c0-1.2,1-2.2,2.2-2.2l0,0H367.5L367.5,138.5L367.5,138.5z"/>
<path class="st12" d="M367.5,138.5c1.2,0,2.2,1,2.2,2.2l0,0v9.5l0,0c0,1.2-1,2.2-2.2,2.2l0,0l0,0H358l0,0c-1.2,0-2.2-1-2.2-2.2l0,0
	v-9.5c0-1.2,1-2.2,2.2-2.2l0,0H367.5L367.5,138.5L367.5,138.5z"/>
<text transform="matrix(0.85 0 0 1 374.8442 149.7363)" class="st13 st14 st15">GMLに定義されたクラス</text>
<path class="st1" d="M367.5,154.9c1.2,0,2.2,1,2.2,2.2l0,0v9.5l0,0c0,1.2-1,2.2-2.2,2.2l0,0l0,0H358l0,0c-1.2,0-2.2-1-2.2-2.2l0,0
	v-9.5c0-1.2,1-2.2,2.2-2.2l0,0H367.5L367.5,154.9L367.5,154.9z"/>
<path class="st12" d="M367.5,154.9c1.2,0,2.2,1,2.2,2.2l0,0v9.5l0,0c0,1.2-1,2.2-2.2,2.2l0,0l0,0H358l0,0c-1.2,0-2.2-1-2.2-2.2l0,0
	v-9.5c0-1.2,1-2.2,2.2-2.2l0,0H367.5L367.5,154.9L367.5,154.9z"/>
<text transform="matrix(0.85 0 0 1 374.8442 166.2036)" class="st13 st14 st15">CityGMLに定義されたクラス</text>
<path class="st6" d="M367.5,171.4c1.2,0,2.2,1,2.2,2.2l0,0v9.5l0,0c0,1.2-1,2.2-2.2,2.2l0,0l0,0H358l0,0c-1.2,0-2.2-1-2.2-2.2l0,0
	v-9.5c0-1.2,1-2.2,2.2-2.2l0,0H367.5L367.5,171.4L367.5,171.4z"/>
<path class="st12" d="M367.5,171.4c1.2,0,2.2,1,2.2,2.2l0,0v9.5l0,0c0,1.2-1,2.2-2.2,2.2l0,0l0,0H358l0,0c-1.2,0-2.2-1-2.2-2.2l0,0
	v-9.5c0-1.2,1-2.2,2.2-2.2l0,0H367.5L367.5,171.4L367.5,171.4z"/>
<text transform="matrix(0.85 0 0 1 374.8442 182.6411)" class="st13 st14 st15">i-URに定義されたクラス</text>
<text transform="matrix(0.85 0 0 1 408.7036 130.6738)" class="st13 st16 st17">凡例</text>
<text transform="matrix(0.85 0 0 1 408.7036 130.6738)" class="st18 st16 st17">凡例</text>
<line class="st19" x1="164.8" y1="224.2" x2="164.8" y2="190.4"/>
<polyline class="st20" points="170,204.3 159.6,204.3 164.8,190.4 170,204.3 "/>
<polygon class="st19" points="170,204.3 159.6,204.3 164.8,190.4 "/>
</svg>
