<?xml version="1.0" encoding="utf-8"?>
<!-- Generator: Adobe Illustrator 27.0.0, SVG Export Plug-In . SVG Version: 6.00 Build 0)  -->
<svg version="1.1" id="レイヤー_1" xmlns="http://www.w3.org/2000/svg" xmlns:xlink="http://www.w3.org/1999/xlink" x="0px"
	 y="0px" viewBox="0 0 470.723999 477.8899841" style="enable-background:new 0 0 470.723999 477.8899841;" xml:space="preserve">
<style type="text/css">
	.st0{fill-rule:evenodd;clip-rule:evenodd;fill:#FFFFCC;}
	.st1{fill:none;stroke:#000000;stroke-width:1.0285715;stroke-linecap:round;stroke-linejoin:bevel;stroke-miterlimit:10;}
	.st2{font-family:'YuGothicUI-Regular';}
	.st3{font-size:6.6857147px;}
	.st4{font-size:7.0386257px;}
	.st5{fill:none;stroke:#000000;stroke-width:0.1910204;stroke-miterlimit:10;}
	.st6{font-family:'YuGothicUI-Bold';}
	.st7{fill-rule:evenodd;clip-rule:evenodd;fill:#CCFFCC;}
	.st8{fill-rule:evenodd;clip-rule:evenodd;fill:#F0F0F0;}
	.st9{fill:none;stroke:#D7D7D7;stroke-width:0.5142857;stroke-linecap:square;stroke-miterlimit:10;}
	.st10{fill-rule:evenodd;clip-rule:evenodd;fill:#A0FFC0;}
	.st11{fill:none;stroke:#000000;stroke-width:0.5142857;stroke-linecap:square;stroke-miterlimit:10;}
	.st12{fill:#003060;}
	.st13{fill-rule:evenodd;clip-rule:evenodd;fill:#FFCCFF;}
	.st14{font-size:8.2285719px;}
	.st15{letter-spacing:-1.1764705;}
	.st16{fill-rule:evenodd;clip-rule:evenodd;fill:#FFFFFF;}
</style>
<polygon class="st0" points="159.6005096,182.2613831 244.4154663,182.2613831 244.4154663,156.5470886 159.6005096,156.5470886 "/>
<polygon class="st1" points="159.6005096,182.2613831 244.4154663,182.2613831 244.4154663,156.5470886 159.6005096,156.5470886 "/>
<text transform="matrix(0.85 0 0 1 180.9246826 166.8304138)" class="st2 st3">«featureType»</text>
<text transform="matrix(0.85 0 -0.3126727 0.9498609 166.7070312 175.5767365)" class="st2 st4">v</text>
<text transform="matrix(0.85 0 -0.3126727 0.9498609 166.7070312 175.5767365)" class="st5 st2 st4">v</text>
<text transform="matrix(0.85 0 -0.3126727 0.9498609 170.2597656 175.5767365)" class="st2 st4">e</text>
<text transform="matrix(0.85 0 -0.3126727 0.9498609 170.2597656 175.5767365)" class="st5 st2 st4">e</text>
<text transform="matrix(0.85 0 -0.3126727 0.9498609 173.8105469 175.5767365)" class="st2 st4">g</text>
<text transform="matrix(0.85 0 -0.3126727 0.9498609 173.8105469 175.5767365)" class="st5 st2 st4">g</text>
<text transform="matrix(0.85 0 -0.3126727 0.9498609 177.8710938 175.5767365)" class="st2 st4">::</text>
<text transform="matrix(0.85 0 -0.3126727 0.9498609 177.8710938 175.5767365)" class="st5 st2 st4">::</text>
<text transform="matrix(0.85 0 -0.3126727 0.9498609 180.90625 175.5767365)" class="st2 st4">_</text>
<text transform="matrix(0.85 0 -0.3126727 0.9498609 180.90625 175.5767365)" class="st5 st2 st4">_</text>
<text transform="matrix(0.85 0 -0.3126727 0.9498609 183.4472656 175.5767365)" class="st2 st4">V</text>
<text transform="matrix(0.85 0 -0.3126727 0.9498609 183.4472656 175.5767365)" class="st5 st2 st4">V</text>
<text transform="matrix(0.85 0 -0.3126727 0.9498609 187.515625 175.5767365)" class="st2 st4">e</text>
<text transform="matrix(0.85 0 -0.3126727 0.9498609 187.515625 175.5767365)" class="st5 st2 st4">e</text>
<text transform="matrix(0.85 0 -0.3126727 0.9498609 191.0664062 175.5767365)" class="st2 st4">g</text>
<text transform="matrix(0.85 0 -0.3126727 0.9498609 191.0664062 175.5767365)" class="st5 st2 st4">g</text>
<text transform="matrix(0.85 0 -0.3126727 0.9498609 195.1269531 175.5767365)" class="st2 st4">e</text>
<text transform="matrix(0.85 0 -0.3126727 0.9498609 195.1269531 175.5767365)" class="st5 st2 st4">e</text>
<text transform="matrix(0.85 0 -0.3126727 0.9498609 198.6777344 175.5767365)" class="st2 st4">t</text>
<text transform="matrix(0.85 0 -0.3126727 0.9498609 198.6777344 175.5767365)" class="st5 st2 st4">t</text>
<text transform="matrix(0.85 0 -0.3126727 0.9498609 201.2128906 175.5767365)" class="st2 st4">a</text>
<text transform="matrix(0.85 0 -0.3126727 0.9498609 201.2128906 175.5767365)" class="st5 st2 st4">a</text>
<text transform="matrix(0.85 0 -0.3126727 0.9498609 204.7636719 175.5767365)" class="st2 st4">t</text>
<text transform="matrix(0.85 0 -0.3126727 0.9498609 204.7636719 175.5767365)" class="st5 st2 st4">t</text>
<text transform="matrix(0.85 0 -0.3126727 0.9498609 207.296875 175.5767365)" class="st2 st4">i</text>
<text transform="matrix(0.85 0 -0.3126727 0.9498609 207.296875 175.5767365)" class="st5 st2 st4">i</text>
<text transform="matrix(0.85 0 -0.3126727 0.9498609 208.8242188 175.5767365)" class="st2 st4">o</text>
<text transform="matrix(0.85 0 -0.3126727 0.9498609 208.8242188 175.5767365)" class="st5 st2 st4">o</text>
<text transform="matrix(0.85 0 -0.3126727 0.9498609 212.8847656 175.5767365)" class="st2 st4">n</text>
<text transform="matrix(0.85 0 -0.3126727 0.9498609 212.8847656 175.5767365)" class="st5 st2 st4">n</text>
<text transform="matrix(0.85 0 -0.3126727 0.9498609 216.9433594 175.5767365)" class="st2 st4">O</text>
<text transform="matrix(0.85 0 -0.3126727 0.9498609 216.9433594 175.5767365)" class="st5 st2 st4">O</text>
<text transform="matrix(0.85 0 -0.3126727 0.9498609 222.0214844 175.5767365)" class="st2 st4">b</text>
<text transform="matrix(0.85 0 -0.3126727 0.9498609 222.0214844 175.5767365)" class="st5 st2 st4">b</text>
<text transform="matrix(0.85 0 -0.3126727 0.9498609 226.0800781 175.5767365)" class="st2 st4">j</text>
<text transform="matrix(0.85 0 -0.3126727 0.9498609 226.0800781 175.5767365)" class="st5 st2 st4">j</text>
<text transform="matrix(0.85 0 -0.3126727 0.9498609 227.6074219 175.5767365)" class="st2 st4">e</text>
<text transform="matrix(0.85 0 -0.3126727 0.9498609 227.6074219 175.5767365)" class="st5 st2 st4">e</text>
<text transform="matrix(0.85 0 -0.3126727 0.9498609 231.1582031 175.5767365)" class="st2 st4">ct</text>
<text transform="matrix(0.85 0 -0.3126727 0.9498609 231.1582031 175.5767365)" class="st5 st2 st4">ct</text>
<polygon class="st0" points="276.4115601,310.8327942 417.6005249,310.8327942 417.6005249,233.6899719 276.4115601,233.6899719 "/>
<polygon class="st1" points="276.4115601,310.8327942 417.6005249,310.8327942 417.6005249,233.6899719 276.4115601,233.6899719 "/>
<text transform="matrix(0.85 0 0 1 325.1673584 243.9788513)" class="st2 st3">«FeatureType»</text>
<text transform="matrix(0.85 0 0 1 323.1361084 252.7210388)" class="st6 st3">veg::PlantCover</text>
<line class="st1" x1="276.4115601" y1="256.8327942" x2="417.0926514" y2="256.8327942"/>
<text transform="matrix(0.85 0 0 1 278.9486084 266.0882263)" class="st2 st3">+</text>
<text transform="matrix(0.85 0 0 1 283.5179443 266.0882263)" class="st2 st3"> </text>
<text transform="matrix(0.85 0 0 1 290.1282959 266.0882263)" class="st2 st3">class: gml::CodeType [0..1]</text>
<text transform="matrix(0.85 0 0 1 278.9486084 274.8304138)" class="st2 st3">+</text>
<text transform="matrix(0.85 0 0 1 283.5179443 274.8304138)" class="st2 st3"> </text>
<text transform="matrix(0.85 0 0 1 290.1282959 274.8304138)" class="st2 st3">function: gml::CodeType [0..*]</text>
<text transform="matrix(0.85 0 0 1 278.9486084 283.5804138)" class="st2 st3">+</text>
<text transform="matrix(0.85 0 0 1 283.5179443 283.5804138)" class="st2 st3"> </text>
<text transform="matrix(0.85 0 0 1 290.1282959 283.5804138)" class="st2 st3">usage: gml::CodeType [0..*]</text>
<text transform="matrix(0.85 0 0 1 278.9486084 292.3147888)" class="st2 st3">+</text>
<text transform="matrix(0.85 0 0 1 283.5179443 292.3147888)" class="st2 st3"> </text>
<text transform="matrix(0.85 0 0 1 290.1282959 292.3147888)" class="st2 st3">averageHeight: gml::LengthType [0..1]</text>
<polygon class="st7" points="169.7579956,387.9756775 220.5453796,387.9756775 220.5453796,346.8327942 169.7579956,346.8327942 "/>
<polygon class="st1" points="169.7579956,387.9756775 220.5453796,387.9756775 220.5453796,346.8327942 169.7579956,346.8327942 "/>
<text transform="matrix(0.85 0 0 1 184.4793701 357.1116638)" class="st2 st3">«Type»</text>
<text transform="matrix(0.85 0 -0.3126727 0.9498609 171.2805328 365.8615112)" class="st2 st4">g</text>
<text transform="matrix(0.85 0 -0.3126727 0.9498609 171.2805328 365.8615112)" class="st5 st2 st4">g</text>
<text transform="matrix(0.85 0 -0.3126727 0.9498609 175.3410797 365.8615112)" class="st2 st4">m</text>
<text transform="matrix(0.85 0 -0.3126727 0.9498609 175.3410797 365.8615112)" class="st5 st2 st4">m</text>
<text transform="matrix(0.85 0 -0.3126727 0.9498609 181.4309235 365.8615112)" class="st2 st4">l</text>
<text transform="matrix(0.85 0 -0.3126727 0.9498609 181.4309235 365.8615112)" class="st5 st2 st4">l</text>
<text transform="matrix(0.85 0 -0.3126727 0.9498609 182.9563141 365.8615112)" class="st2 st4">::</text>
<text transform="matrix(0.85 0 -0.3126727 0.9498609 182.9563141 365.8615112)" class="st5 st2 st4">::</text>
<text transform="matrix(0.85 0 -0.3126727 0.9498609 185.9914703 365.8615112)" class="st2 st4">_</text>
<text transform="matrix(0.85 0 -0.3126727 0.9498609 185.9914703 365.8615112)" class="st5 st2 st4">_</text>
<text transform="matrix(0.85 0 -0.3126727 0.9498609 188.532486 365.8615112)" class="st2 st4">G</text>
<text transform="matrix(0.85 0 -0.3126727 0.9498609 188.532486 365.8615112)" class="st5 st2 st4">G</text>
<text transform="matrix(0.85 0 -0.3126727 0.9498609 193.1027985 365.8615112)" class="st2 st4">e</text>
<text transform="matrix(0.85 0 -0.3126727 0.9498609 193.1027985 365.8615112)" class="st5 st2 st4">e</text>
<text transform="matrix(0.85 0 -0.3126727 0.9498609 196.6535797 365.8615112)" class="st2 st4">o</text>
<text transform="matrix(0.85 0 -0.3126727 0.9498609 196.6535797 365.8615112)" class="st5 st2 st4">o</text>
<text transform="matrix(0.85 0 -0.3126727 0.9498609 200.7141266 365.8615112)" class="st2 st4">m</text>
<text transform="matrix(0.85 0 -0.3126727 0.9498609 200.7141266 365.8615112)" class="st5 st2 st4">m</text>
<text transform="matrix(0.85 0 -0.3126727 0.9498609 206.8039703 365.8615112)" class="st2 st4">e</text>
<text transform="matrix(0.85 0 -0.3126727 0.9498609 206.8039703 365.8615112)" class="st5 st2 st4">e</text>
<text transform="matrix(0.85 0 -0.3126727 0.9498609 210.3547516 365.8615112)" class="st2 st4">t</text>
<text transform="matrix(0.85 0 -0.3126727 0.9498609 210.3547516 365.8615112)" class="st5 st2 st4">t</text>
<text transform="matrix(0.85 0 -0.3126727 0.9498609 212.8899078 365.8615112)" class="st2 st4">r</text>
<text transform="matrix(0.85 0 -0.3126727 0.9498609 212.8899078 365.8615112)" class="st5 st2 st4">r</text>
<text transform="matrix(0.85 0 -0.3126727 0.9498609 215.423111 365.8615112)" class="st2 st4">y</text>
<text transform="matrix(0.85 0 -0.3126727 0.9498609 215.423111 365.8615112)" class="st5 st2 st4">y</text>
<polygon class="st7" points="251.0178223,470.7756653 342.9430542,470.7756653 342.9430542,429.632843 251.0178223,429.632843 "/>
<polygon class="st1" points="251.0178223,470.7756653 342.9430542,470.7756653 342.9430542,429.632843 251.0178223,429.632843 "/>
<text transform="matrix(0.85 0 -0.3126727 0.9498609 252.5352325 438.3765259)" class="st2 st4">_AbstractGeometricAggregate</text>
<text transform="matrix(0.85 0 0 1 286.0579834 450.1976013)" class="st2 st3">«Type»</text>
<text transform="matrix(0.85 0 0 1 270.3157959 458.9476013)" class="st6 st3">gml::MultiSurface</text>
<polygon class="st7" points="362.7501221,470.7756653 454.675354,470.7756653 454.675354,429.632843 362.7501221,429.632843 "/>
<polygon class="st1" points="362.7501221,470.7756653 454.675354,470.7756653 454.675354,429.632843 362.7501221,429.632843 "/>
<text transform="matrix(0.85 0 -0.3126727 0.9498609 364.2695923 438.3765259)" class="st2 st4">_AbstractGeometricAggregate</text>
<text transform="matrix(0.85 0 0 1 397.7923584 450.1976013)" class="st2 st3">«Type»</text>
<text transform="matrix(0.85 0 0 1 386.1126709 458.9476013)" class="st6 st3">gml::MultiSolid</text>
<polygon class="st0" points="7.2382812,341.6899719 147.9194031,341.6899719 147.9194031,233.6899719 7.2382812,233.6899719 "/>
<polygon class="st1" points="7.2382812,341.6899719 147.9194031,341.6899719 147.9194031,233.6899719 7.2382812,233.6899719 "/>
<text transform="matrix(0.85 0 0 1 55.9949951 243.9788513)" class="st2 st3">«FeatureType»</text>
<text transform="matrix(0.85 0 0 1 32.1199951 252.7210388)" class="st6 st3">veg::SolitaryVegetationObject</text>
<line class="st1" x1="7.2382812" y1="256.8327942" x2="147.4115295" y2="256.8327942"/>
<text transform="matrix(0.85 0 0 1 9.7762451 266.0882263)" class="st2 st3">+</text>
<text transform="matrix(0.85 0 0 1 14.3455811 266.0882263)" class="st2 st3"> </text>
<text transform="matrix(0.85 0 0 1 20.9481201 266.0882263)" class="st2 st3">class: gml::CodeType [0..1]</text>
<text transform="matrix(0.85 0 0 1 9.7762451 274.8304138)" class="st2 st3">+</text>
<text transform="matrix(0.85 0 0 1 14.3455811 274.8304138)" class="st2 st3"> </text>
<text transform="matrix(0.85 0 0 1 20.9481201 274.8304138)" class="st2 st3">function: gml::CodeType [0..*]</text>
<text transform="matrix(0.85 0 0 1 9.7762451 283.5804138)" class="st2 st3">+</text>
<text transform="matrix(0.85 0 0 1 14.3455811 283.5804138)" class="st2 st3"> </text>
<text transform="matrix(0.85 0 0 1 20.9481201 283.5804138)" class="st2 st3">usage: gml::CodeType [0..*]</text>
<text transform="matrix(0.85 0 0 1 9.7762451 292.3147888)" class="st2 st3">+</text>
<text transform="matrix(0.85 0 0 1 14.3455811 292.3147888)" class="st2 st3"> </text>
<text transform="matrix(0.85 0 0 1 20.9481201 292.3147888)" class="st2 st3">species: gml::CodeType [0..1]</text>
<text transform="matrix(0.85 0 0 1 9.7762451 301.0569763)" class="st2 st3">+</text>
<text transform="matrix(0.85 0 0 1 14.3455811 301.0569763)" class="st2 st3"> </text>
<text transform="matrix(0.85 0 0 1 20.9481201 301.0569763)" class="st2 st3">height: gml::LengthType [0..1]</text>
<text transform="matrix(0.85 0 0 1 9.7762451 309.8069763)" class="st2 st3">+</text>
<text transform="matrix(0.85 0 0 1 14.3455811 309.8069763)" class="st2 st3"> </text>
<text transform="matrix(0.85 0 0 1 20.9481201 309.8069763)" class="st2 st3">trunckDiameter: gml::LengthType [0..1]</text>
<text transform="matrix(0.85 0 0 1 9.7762451 318.5491638)" class="st2 st3">+</text>
<text transform="matrix(0.85 0 0 1 14.3455811 318.5491638)" class="st2 st3"> </text>
<text transform="matrix(0.85 0 0 1 20.9481201 318.5491638)" class="st2 st3">crownDiameter: gml::LengthType [0..1]</text>
<polygon class="st0" points="118.9705811,142.1471252 286.5690308,142.1471252 286.5690308,79.4042664 118.9705811,79.4042664 "/>
<polygon class="st1" points="118.9705811,142.1471252 286.5690308,142.1471252 286.5690308,79.4042664 118.9705811,79.4042664 "/>
<text transform="matrix(0.85 0 0 1 180.9246826 89.6897888)" class="st2 st3">«FeatureType»</text>
<text transform="matrix(0.85 0 -0.3126727 0.9498609 177.375351 98.4302292)" class="st2 st4">c</text>
<text transform="matrix(0.85 0 -0.3126727 0.9498609 177.375351 98.4302292)" class="st5 st2 st4">c</text>
<text transform="matrix(0.85 0 -0.3126727 0.9498609 180.4261322 98.4302292)" class="st2 st4">o</text>
<text transform="matrix(0.85 0 -0.3126727 0.9498609 180.4261322 98.4302292)" class="st5 st2 st4">o</text>
<text transform="matrix(0.85 0 -0.3126727 0.9498609 184.484726 98.4302292)" class="st2 st4">r</text>
<text transform="matrix(0.85 0 -0.3126727 0.9498609 184.484726 98.4302292)" class="st5 st2 st4">r</text>
<text transform="matrix(0.85 0 -0.3126727 0.9498609 187.0179291 98.4302292)" class="st2 st4">e</text>
<text transform="matrix(0.85 0 -0.3126727 0.9498609 187.0179291 98.4302292)" class="st5 st2 st4">e</text>
<text transform="matrix(0.85 0 -0.3126727 0.9498609 190.5706635 98.4302292)" class="st2 st4">::</text>
<text transform="matrix(0.85 0 -0.3126727 0.9498609 190.5706635 98.4302292)" class="st5 st2 st4">::</text>
<text transform="matrix(0.85 0 -0.3126727 0.9498609 193.6038666 98.4302292)" class="st2 st4">_</text>
<text transform="matrix(0.85 0 -0.3126727 0.9498609 193.6038666 98.4302292)" class="st5 st2 st4">_</text>
<text transform="matrix(0.85 0 -0.3126727 0.9498609 196.1468353 98.4302292)" class="st2 st4">C</text>
<text transform="matrix(0.85 0 -0.3126727 0.9498609 196.1468353 98.4302292)" class="st5 st2 st4">C</text>
<text transform="matrix(0.85 0 -0.3126727 0.9498609 200.2151947 98.4302292)" class="st2 st4">i</text>
<text transform="matrix(0.85 0 -0.3126727 0.9498609 200.2151947 98.4302292)" class="st5 st2 st4">i</text>
<text transform="matrix(0.85 0 -0.3126727 0.9498609 201.7405853 98.4302292)" class="st2 st4">t</text>
<text transform="matrix(0.85 0 -0.3126727 0.9498609 201.7405853 98.4302292)" class="st5 st2 st4">t</text>
<text transform="matrix(0.85 0 -0.3126727 0.9498609 204.2757416 98.4302292)" class="st2 st4">y</text>
<text transform="matrix(0.85 0 -0.3126727 0.9498609 204.2757416 98.4302292)" class="st5 st2 st4">y</text>
<text transform="matrix(0.85 0 -0.3126727 0.9498609 207.8265228 98.4302292)" class="st2 st4">O</text>
<text transform="matrix(0.85 0 -0.3126727 0.9498609 207.8265228 98.4302292)" class="st5 st2 st4">O</text>
<text transform="matrix(0.85 0 -0.3126727 0.9498609 212.9026947 98.4302292)" class="st2 st4">b</text>
<text transform="matrix(0.85 0 -0.3126727 0.9498609 212.9026947 98.4302292)" class="st5 st2 st4">b</text>
<text transform="matrix(0.85 0 -0.3126727 0.9498609 216.9632416 98.4302292)" class="st2 st4">j</text>
<text transform="matrix(0.85 0 -0.3126727 0.9498609 216.9632416 98.4302292)" class="st5 st2 st4">j</text>
<text transform="matrix(0.85 0 -0.3126727 0.9498609 218.4905853 98.4302292)" class="st2 st4">e</text>
<text transform="matrix(0.85 0 -0.3126727 0.9498609 218.4905853 98.4302292)" class="st5 st2 st4">e</text>
<text transform="matrix(0.85 0 -0.3126727 0.9498609 222.0413666 98.4302292)" class="st2 st4">ct</text>
<text transform="matrix(0.85 0 -0.3126727 0.9498609 222.0413666 98.4302292)" class="st5 st2 st4">ct</text>
<line class="st1" x1="118.9705811" y1="102.5470886" x2="286.0611572" y2="102.5470886"/>
<text transform="matrix(0.85 0 0 1 121.5106201 111.7991638)" class="st2 st3">+</text>
<text transform="matrix(0.85 0 0 1 126.0799561 111.7991638)" class="st2 st3"> </text>
<text transform="matrix(0.85 0 0 1 132.6824951 111.7991638)" class="st2 st3">creationDate: xs::date [0..1]</text>
<text transform="matrix(0.85 0 0 1 121.5106201 120.5491638)" class="st2 st3">+</text>
<text transform="matrix(0.85 0 0 1 126.0799561 120.5491638)" class="st2 st3"> </text>
<text transform="matrix(0.85 0 0 1 132.6824951 120.5491638)" class="st2 st3">terminationDate: xs::date [0..1]</text>
<text transform="matrix(0.85 0 0 1 121.5106201 129.2913513)" class="st2 st3">+</text>
<text transform="matrix(0.85 0 0 1 126.0799561 129.2913513)" class="st2 st3"> </text>
<text transform="matrix(0.85 0 0 1 132.6824951 129.2913513)" class="st2 st3">relativeToTerrain: core::RelativeToTerrainType [0..1]</text>
<text transform="matrix(0.85 0 0 1 121.5106201 138.0335388)" class="st2 st3">+</text>
<text transform="matrix(0.85 0 0 1 126.0799561 138.0335388)" class="st2 st3"> </text>
<text transform="matrix(0.85 0 0 1 132.6824951 138.0335388)" class="st2 st3">relativeToWater: core::RelativeToWaterType [0..1]</text>
<polygon class="st7" points="139.285553,61.4042511 271.3328247,61.4042511 271.3328247,7.4042525 139.285553,7.4042525 "/>
<polygon class="st1" points="139.285553,61.4042511 271.3328247,61.4042511 271.3328247,7.4042525 139.285553,7.4042525 "/>
<text transform="matrix(0.85 0 0 1 183.4637451 17.6897907)" class="st2 st3">«FeatureType»</text>
<text transform="matrix(0.85 0 -0.3126727 0.9498609 184.9968414 26.4337444)" class="st2 st4">g</text>
<text transform="matrix(0.85 0 -0.3126727 0.9498609 184.9968414 26.4337444)" class="st5 st2 st4">g</text>
<text transform="matrix(0.85 0 -0.3126727 0.9498609 189.0573883 26.4337444)" class="st2 st4">m</text>
<text transform="matrix(0.85 0 -0.3126727 0.9498609 189.0573883 26.4337444)" class="st5 st2 st4">m</text>
<text transform="matrix(0.85 0 -0.3126727 0.9498609 195.1472321 26.4337444)" class="st2 st4">l</text>
<text transform="matrix(0.85 0 -0.3126727 0.9498609 195.1472321 26.4337444)" class="st5 st2 st4">l</text>
<text transform="matrix(0.85 0 -0.3126727 0.9498609 196.6726227 26.4337444)" class="st2 st4">::</text>
<text transform="matrix(0.85 0 -0.3126727 0.9498609 196.6726227 26.4337444)" class="st5 st2 st4">::</text>
<text transform="matrix(0.85 0 -0.3126727 0.9498609 199.7077789 26.4337444)" class="st2 st4">_</text>
<text transform="matrix(0.85 0 -0.3126727 0.9498609 199.7077789 26.4337444)" class="st5 st2 st4">_</text>
<text transform="matrix(0.85 0 -0.3126727 0.9498609 202.2487946 26.4337444)" class="st2 st4">F</text>
<text transform="matrix(0.85 0 -0.3126727 0.9498609 202.2487946 26.4337444)" class="st5 st2 st4">F</text>
<text transform="matrix(0.85 0 -0.3126727 0.9498609 205.8034821 26.4337444)" class="st2 st4">e</text>
<text transform="matrix(0.85 0 -0.3126727 0.9498609 205.8034821 26.4337444)" class="st5 st2 st4">e</text>
<text transform="matrix(0.85 0 -0.3126727 0.9498609 209.3542633 26.4337444)" class="st2 st4">a</text>
<text transform="matrix(0.85 0 -0.3126727 0.9498609 209.3542633 26.4337444)" class="st5 st2 st4">a</text>
<text transform="matrix(0.85 0 -0.3126727 0.9498609 212.9050446 26.4337444)" class="st2 st4">t</text>
<text transform="matrix(0.85 0 -0.3126727 0.9498609 212.9050446 26.4337444)" class="st5 st2 st4">t</text>
<text transform="matrix(0.85 0 -0.3126727 0.9498609 215.4402008 26.4337444)" class="st2 st4">u</text>
<text transform="matrix(0.85 0 -0.3126727 0.9498609 215.4402008 26.4337444)" class="st5 st2 st4">u</text>
<text transform="matrix(0.85 0 -0.3126727 0.9498609 219.5007477 26.4337444)" class="st2 st4">r</text>
<text transform="matrix(0.85 0 -0.3126727 0.9498609 219.5007477 26.4337444)" class="st5 st2 st4">r</text>
<text transform="matrix(0.85 0 -0.3126727 0.9498609 222.0339508 26.4337444)" class="st2 st4">e</text>
<text transform="matrix(0.85 0 -0.3126727 0.9498609 222.0339508 26.4337444)" class="st5 st2 st4">e</text>
<line class="st1" x1="139.285553" y1="30.5470753" x2="270.8249512" y2="30.5470753"/>
<text transform="matrix(0.85 0 0 1 141.8231201 39.8069763)" class="st2 st3">+</text>
<text transform="matrix(0.85 0 0 1 146.3924561 39.8069763)" class="st2 st3"> </text>
<text transform="matrix(0.85 0 0 1 152.9949951 39.8069763)" class="st2 st3">description: gml::StringOrRefType [0..1]</text>
<text transform="matrix(0.85 0 0 1 141.8231201 48.5491638)" class="st2 st3">+</text>
<text transform="matrix(0.85 0 0 1 146.3924561 48.5491638)" class="st2 st3"> </text>
<text transform="matrix(0.85 0 0 1 152.9949951 48.5491638)" class="st2 st3">name: gml::CodeType [0..1]</text>
<text transform="matrix(0.85 0 0 1 141.8231201 57.2835388)" class="st2 st3">+</text>
<text transform="matrix(0.85 0 0 1 146.3924561 57.2835388)" class="st2 st3"> </text>
<text transform="matrix(0.85 0 0 1 152.9949951 57.2835388)" class="st2 st3">boundedBy: gml::Envelope [0..1]</text>
<path class="st8" d="M437.9155273,75.8042297c0.8414307,0,1.5235596,0.6907959,1.5235596,1.5428467h0.000061v45.2572021h-0.000061
	c0,0.8520508-0.6821289,1.5428467-1.5236206,1.5428467l0,0h0.000061h-90.9094849l0,0
	c-0.8414917,0-1.5236816-0.6907959-1.5236816-1.5428467h0.000061V77.3470764c0-0.8520508,0.6821289-1.5428467,1.5236206-1.5428467
	l0,0H437.9155273L437.9155273,75.8042297L437.9155273,75.8042297z"/>
<path class="st9" d="M437.9155273,75.8042297c0.8414307,0,1.5235596,0.6907959,1.5235596,1.5428467h0.000061v45.2572021h-0.000061
	c0,0.8520508-0.6821289,1.5428467-1.5236206,1.5428467l0,0h0.000061h-90.9094849l0,0
	c-0.8414917,0-1.5236816-0.6907959-1.5236816-1.5428467h0.000061V77.3470764c0-0.8520508,0.6821289-1.5428467,1.5236206-1.5428467
	l0,0H437.9155273L437.9155273,75.8042297L437.9155273,75.8042297z"/>
<polygon class="st10" points="350.5611572,99.9756775 359.1950073,99.9756775 359.1950073,91.2328186 350.5611572,91.2328186 "/>
<polygon class="st11" points="350.5611572,99.9756775 359.1950073,99.9756775 359.1950073,91.2328186 350.5611572,91.2328186 "/>
<text transform="matrix(0.85 0 0 1 361.7298584 98.4319763)" class="st12 st2 st3">GMLで定義されたクラス</text>
<polygon class="st0" points="350.5611572,109.7471008 359.1950073,109.7471008 359.1950073,101.0042419 350.5611572,101.0042419 "/>
<polygon class="st11" points="350.5611572,109.7471008 359.1950073,109.7471008 359.1950073,101.0042419 350.5611572,101.0042419 
	"/>
<text transform="matrix(0.85 0 0 1 361.7298584 108.2054138)" class="st12 st2 st3">CityGMLで定義されたクラス</text>
<polygon class="st13" points="350.5611572,119.5185242 359.1950073,119.5185242 359.1950073,110.7756653 350.5611572,110.7756653 
	"/>
<polygon class="st11" points="350.5611572,119.5185242 359.1950073,119.5185242 359.1950073,110.7756653 350.5611572,110.7756653 
	"/>
<text transform="matrix(0.85 0 0 1 361.7298584 117.9710388)" class="st12 st2 st3">i-URで定義されたクラス</text>
<text transform="matrix(0.85 0 0 1 386.6204834 88.856781)" class="st12 st6 st14 st15">凡例</text>
<line class="st1" x1="296.7265015" y1="310.8327942" x2="296.7265015" y2="429.632843"/>
<polyline class="st1" points="293.6792603,421.9185486 296.7265015,429.632843 299.7737427,421.9185486 "/>
<line class="st1" x1="312.9784546" y1="311.3470764" x2="312.9784546" y2="403.9185486"/>
<line class="st1" x1="328.2147217" y1="311.3470764" x2="328.2147217" y2="403.9185486"/>
<line class="st1" x1="328.2147217" y1="403.9185486" x2="296.7265015" y2="403.9185486"/>
<line class="st1" x1="367.3209839" y1="311.3470764" x2="367.3209839" y2="403.9185486"/>
<line class="st1" x1="367.3209839" y1="403.9185486" x2="408.4588013" y2="403.9185486"/>
<line class="st1" x1="408.4588013" y1="403.9185486" x2="408.4588013" y2="429.1185608"/>
<polyline class="st1" points="405.4115601,421.4042664 408.4588013,429.1185608 411.5060425,421.4042664 "/>
<line class="st1" x1="201.7540588" y1="156.0328064" x2="201.7540588" y2="142.6614075"/>
<polyline class="st16" points="204.8013,150.8899841 198.7068176,150.8899841 201.7540588,142.6614075 204.8013,150.8899841 "/>
<polygon class="st1" points="204.8013,150.8899841 198.7068176,150.8899841 201.7540588,142.6614075 "/>
<line class="st1" x1="389.6674805" y1="311.3470764" x2="389.6674805" y2="403.9185486"/>
<line class="st1" x1="202.7698059" y1="78.8899841" x2="202.7698059" y2="61.9185333"/>
<polyline class="st16" points="205.8170471,70.14711 199.7225647,70.14711 202.7698059,61.9185333 205.8170471,70.14711 "/>
<polygon class="st1" points="205.8170471,70.14711 199.7225647,70.14711 202.7698059,61.9185333 "/>
<line class="st1" x1="345.9902954" y1="233.1756897" x2="345.9902954" y2="207.9756775"/>
<line class="st1" x1="345.9902954" y1="207.9756775" x2="201.7540588" y2="207.9756775"/>
<line class="st1" x1="201.7540588" y1="207.9756775" x2="201.7540588" y2="182.7756653"/>
<polyline class="st16" points="204.8013,191.0042419 198.7068176,191.0042419 201.7540588,182.7756653 204.8013,191.0042419 "/>
<polygon class="st1" points="204.8013,191.0042419 198.7068176,191.0042419 201.7540588,182.7756653 "/>
<line class="st1" x1="148.4272766" y1="248.6042786" x2="195.6595764" y2="248.6042786"/>
<line class="st1" x1="195.6595764" y1="248.6042786" x2="195.6595764" y2="346.318512"/>
<polyline class="st1" points="192.6123199,338.6042786 195.6595764,346.318512 198.7068176,338.6042786 "/>
<line class="st1" x1="148.4272766" y1="260.947113" x2="195.1517029" y2="260.947113"/>
<line class="st1" x1="195.1517029" y1="260.947113" x2="195.1517029" y2="346.318512"/>
<polyline class="st1" points="192.1044464,338.6042786 195.1517029,346.318512 198.1989441,338.6042786 "/>
<line class="st1" x1="148.4272766" y1="274.8327942" x2="195.6595764" y2="274.8327942"/>
<line class="st1" x1="195.6595764" y1="274.8327942" x2="195.6595764" y2="346.318512"/>
<polyline class="st1" points="192.6123199,338.6042786 195.6595764,346.318512 198.7068176,338.6042786 "/>
<line class="st1" x1="77.3249054" y1="233.1756897" x2="77.3249054" y2="207.9756775"/>
<line class="st1" x1="77.3249054" y1="207.9756775" x2="201.7540588" y2="207.9756775"/>
<line class="st1" x1="379.0021362" y1="311.3470764" x2="379.0021362" y2="403.9185486"/>
<text transform="matrix(0.85 0 0 1 218.5106201 414.2054138)" class="st2 st3">+lod2MultiSurface</text>
<text transform="matrix(0.85 0 0 1 279.4564209 413.1741638)" class="st2 st3">0..1</text>
<text transform="matrix(0.85 0 0 1 205.3074951 332.9397888)" class="st2 st3">+lod1Geometry</text>
<text transform="matrix(0.85 0 0 1 176.8621826 306.2054138)" class="st2 st3">0..1</text>
<text transform="matrix(0.85 0 0 1 399.8236084 401.3460388)" class="st2 st3">+lod1MultiSolid</text>
<text transform="matrix(0.85 0 0 1 453.1517334 401.8616638)" class="st2 st3">0..1</text>
<text transform="matrix(0.85 0 0 1 398.3001709 387.9710388)" class="st2 st3">+lod2MultiSolid</text>
<text transform="matrix(0.85 0 0 1 452.6439209 389.5179138)" class="st2 st3">0..1</text>
<text transform="matrix(0.85 0 0 1 219.0262451 426.0257263)" class="st2 st3">+lod1MultiSurface</text>
<text transform="matrix(0.85 0 0 1 278.9486084 423.9788513)" class="st2 st3">0..1</text>
<text transform="matrix(0.85 0 0 1 397.2845459 376.1429138)" class="st2 st3">+lod3MultiSolid</text>
<text transform="matrix(0.85 0 0 1 452.1361084 377.1741638)" class="st2 st3">0..1</text>
<text transform="matrix(0.85 0 0 1 219.0262451 399.8069763)" class="st2 st3">+lod3MultiSurface</text>
<text transform="matrix(0.85 0 0 1 280.4720459 399.2913513)" class="st2 st3">0..1</text>
<text transform="matrix(0.85 0 0 1 203.2762451 306.2054138)" class="st2 st3">+lod3Geometry</text>
<text transform="matrix(0.85 0 0 1 177.3699951 331.9163513)" class="st2 st3">0..1</text>
<text transform="matrix(0.85 0 0 1 203.2762451 319.5726013)" class="st2 st3">+lod2Geometry</text>
<text transform="matrix(0.85 0 0 1 175.8465576 319.0647888)" class="st2 st3">0..1</text>
</svg>
