<?xml version="1.0" encoding="utf-8"?>
<!-- Generator: Adobe Illustrator 27.0.0, SVG Export Plug-In . SVG Version: 6.00 Build 0)  -->
<svg version="1.1" id="レイヤー_1" xmlns="http://www.w3.org/2000/svg" xmlns:xlink="http://www.w3.org/1999/xlink" x="0px"
	 y="0px" viewBox="0 0 511.276001 480.1100159" style="enable-background:new 0 0 511.276001 480.1100159;" xml:space="preserve">
<style type="text/css">
	.st0{fill-rule:evenodd;clip-rule:evenodd;fill:#F0F0F0;}
	.st1{fill:none;stroke:#D7D7D7;stroke-width:0.5142857;stroke-linecap:square;stroke-miterlimit:10;}
	.st2{fill-rule:evenodd;clip-rule:evenodd;fill:#CCFFCC;}
	.st3{fill:none;stroke:#000000;stroke-width:0.5142857;stroke-linecap:square;stroke-miterlimit:10;}
	.st4{fill:#003060;}
	.st5{font-family:'YuGothicUI-Regular';}
	.st6{font-size:6.6857147px;}
	.st7{fill-rule:evenodd;clip-rule:evenodd;fill:#FFFFCC;}
	.st8{fill-rule:evenodd;clip-rule:evenodd;fill:#FFCCFF;}
	.st9{font-family:'YuGothicUI-Bold';}
	.st10{font-size:8.2285719px;}
	.st11{letter-spacing:-1.1764705;}
	.st12{fill:none;stroke:#000000;stroke-width:1.0285715;stroke-linecap:round;stroke-linejoin:bevel;stroke-miterlimit:10;}
	.st13{font-family:'Calibri';}
	.st14{font-family:'Calibri-BoldItalic';}
	.st15{font-family:'Calibri-Bold';}
	.st16{fill-rule:evenodd;clip-rule:evenodd;fill:#FFFFFF;}
	.st17{fill-rule:evenodd;clip-rule:evenodd;}
</style>
<path class="st0" d="M98.6902313,5.2571259c0.8414612,0,1.5236053,0.6907349,1.5236053,1.5428467h0.0000153v58.1142578h-0.0000153
	c0,0.8521118-0.6821442,1.5428467-1.5236206,1.5428467l0,0h0.0000153H7.7807693H7.7807617
	c-0.8414688,0-1.5236206-0.6907349-1.5236206-1.5428467h0.0000076V6.7999725c0-0.8521118,0.6821442-1.5428467,1.5236206-1.5428467
	l0,0H98.6902313L98.6902313,5.2571259L98.6902313,5.2571259z"/>
<path class="st1" d="M98.6902313,5.2571259c0.8414612,0,1.5236053,0.6907349,1.5236053,1.5428467h0.0000153v58.1142578h-0.0000153
	c0,0.8521118-0.6821442,1.5428467-1.5236206,1.5428467l0,0h0.0000153H7.7807693H7.7807617
	c-0.8414688,0-1.5236206-0.6907349-1.5236206-1.5428467h0.0000076V6.7999725c0-0.8521118,0.6821442-1.5428467,1.5236206-1.5428467
	l0,0H98.6902313L98.6902313,5.2571259L98.6902313,5.2571259z"/>
<polygon class="st2" points="11.3358917,29.4285126 19.9697495,29.4285126 19.9697495,20.6856537 11.3358917,20.6856537 "/>
<polygon class="st3" points="11.3358917,29.4285126 19.9697495,29.4285126 19.9697495,20.6856537 11.3358917,20.6856537 "/>
<text transform="matrix(0.85 0 0 1 22.5019531 27.8842773)" class="st4 st5 st6">GMLに定義されたクラス</text>
<polygon class="st7" points="11.3358917,39.1999359 19.9697495,39.1999359 19.9697495,30.457077 11.3358917,30.457077 "/>
<polygon class="st3" points="11.3358917,39.1999359 19.9697495,39.1999359 19.9697495,30.457077 11.3358917,30.457077 "/>
<text transform="matrix(0.85 0 0 1 22.5019531 37.6577148)" class="st4 st5 st6">CityGMLに定義されたクラス</text>
<polygon class="st8" points="11.3358917,48.9713593 19.9697495,48.9713593 19.9697495,40.2285004 11.3358917,40.2285004 "/>
<polygon class="st3" points="11.3358917,48.9713593 19.9697495,48.9713593 19.9697495,40.2285004 11.3358917,40.2285004 "/>
<text transform="matrix(0.85 0 0 1 22.5019531 47.4233398)" class="st4 st5 st6">i-URに定義されたクラス</text>
<text transform="matrix(0.85 0 0 1 47.4003906 18.309082)" class="st4 st9 st10 st11">凡例</text>
<polygon class="st8" points="383.0997314,201.7142944 485.6903076,201.7142944 485.6903076,160.5714111 383.0997314,160.5714111 "/>
<polygon class="st12" points="383.0997314,201.7142944 485.6903076,201.7142944 485.6903076,160.5714111 383.0997314,160.5714111 
	"/>
<text transform="matrix(0.85 0 0 1 417.6347656 169.8295898)" class="st13 st6">«DataType»</text>
<text transform="matrix(0.85 0 0 1 410.0175781 177.5405273)" class="st14 st6">u</text>
<text transform="matrix(0.85 0 0 1 413.5722656 177.5405273)" class="st14 st6">r</text>
<text transform="matrix(0.85 0 0 1 416.1074219 177.5405273)" class="st14 st6">o</text>
<text transform="matrix(0.85 0 0 1 419.6621094 177.5405273)" class="st14 st6">::</text>
<text transform="matrix(0.85 0 0 1 423.7138672 177.5405273)" class="st14 st6">D</text>
<text transform="matrix(0.85 0 0 1 427.7832031 177.5405273)" class="st14 st6">m</text>
<text transform="matrix(0.85 0 0 1 432.8652344 177.5405273)" class="st14 st6">A</text>
<text transform="matrix(0.85 0 0 1 436.9257812 177.5405273)" class="st14 st6">tt</text>
<text transform="matrix(0.85 0 0 1 441.5029297 177.5405273)" class="st14 st6">r</text>
<text transform="matrix(0.85 0 0 1 444.0380859 177.5405273)" class="st14 st6">i</text>
<text transform="matrix(0.85 0 0 1 445.5673828 177.5405273)" class="st14 st6">b</text>
<text transform="matrix(0.85 0 0 1 449.1181641 177.5405273)" class="st14 st6">u</text>
<text transform="matrix(0.85 0 0 1 452.6728516 177.5405273)" class="st14 st6">t</text>
<text transform="matrix(0.85 0 0 1 455.2060547 177.5405273)" class="st14 st6">e</text>
<line class="st12" x1="383.0997314" y1="181.6571045" x2="485.1824341" y2="181.6571045"/>
<text transform="matrix(0.85 0 0 1 385.6425781 189.8842773)" class="st13 st6">+</text>
<text transform="matrix(0.85 0 0 1 388.6933594 189.8842773)" class="st13 st6"> </text>
<text transform="matrix(0.85 0 0 1 396.3066406 189.8842773)" class="st13 st6">dmCode: gml::CodeType</text>
<text transform="matrix(0.85 0 0 1 385.6425781 197.5952148)" class="st13 st6">+</text>
<text transform="matrix(0.85 0 0 1 388.6933594 197.5952148)" class="st13 st6"> </text>
<text transform="matrix(0.85 0 0 1 396.3066406 197.5952148)" class="st13 st6">meshCode: gml::CodeType [0..1]</text>
<polygon class="st8" points="196.7099152,476.3428345 351.1036377,476.3428345 351.1036377,361.1428833 196.7099152,361.1428833 "/>
<polygon class="st12" points="196.7099152,476.3428345 351.1036377,476.3428345 351.1036377,361.1428833 196.7099152,361.1428833 
	"/>
<text transform="matrix(0.85 0 0 1 256.1269531 371.4238281)" class="st5 st6">«DataType»</text>
<text transform="matrix(0.85 0 0 1 216.5175781 380.1660156)" class="st9 st6">uro::PublicSuveyDataQualityAttribute</text>
<line class="st12" x1="196.7099152" y1="384.2857056" x2="350.5957642" y2="384.2857056"/>
<text transform="matrix(0.85 0 0 1 199.2441406 393.5332031)" class="st5 st6">+</text>
<text transform="matrix(0.85 0 0 1 203.8134766 393.5332031)" class="st5 st6"> </text>
<text transform="matrix(0.85 0 0 1 210.4238281 393.5332031)" class="st5 st6">srcScaleLod0: gml::CodeType [0..1]</text>
<text transform="matrix(0.85 0 0 1 199.2441406 402.2832031)" class="st5 st6">+</text>
<text transform="matrix(0.85 0 0 1 203.8134766 402.2832031)" class="st5 st6"> </text>
<text transform="matrix(0.85 0 0 1 210.4238281 402.2832031)" class="st5 st6">srcScaleLod1: gml::CodeType [0..1]</text>
<text transform="matrix(0.85 0 0 1 199.2441406 411.0253906)" class="st5 st6">+</text>
<text transform="matrix(0.85 0 0 1 203.8134766 411.0253906)" class="st5 st6"> </text>
<text transform="matrix(0.85 0 0 1 210.4238281 411.0253906)" class="st5 st6">srcScaleLod2: gml::CodeType [0..1]</text>
<text transform="matrix(0.85 0 0 1 199.2441406 419.7675781)" class="st5 st6">+</text>
<text transform="matrix(0.85 0 0 1 203.8134766 419.7675781)" class="st5 st6"> </text>
<text transform="matrix(0.85 0 0 1 210.4238281 419.7675781)" class="st5 st6">srcScaleLod3: gml::CodeType [0..1]</text>
<text transform="matrix(0.85 0 0 1 199.2441406 428.5175781)" class="st5 st6">+</text>
<text transform="matrix(0.85 0 0 1 203.8134766 428.5175781)" class="st5 st6"> </text>
<text transform="matrix(0.85 0 0 1 210.4238281 428.5175781)" class="st5 st6">srcScaleLod4: gml::CodeType [0..1]</text>
<text transform="matrix(0.85 0 0 1 199.2441406 437.2597656)" class="st5 st6">+</text>
<text transform="matrix(0.85 0 0 1 203.8134766 437.2597656)" class="st5 st6"> </text>
<text transform="matrix(0.85 0 0 1 210.4238281 437.2597656)" class="st5 st6">publicSurveySrcDescLod0: gml::CodeType [0..*]</text>
<text transform="matrix(0.85 0 0 1 199.2441406 446.0019531)" class="st5 st6">+</text>
<text transform="matrix(0.85 0 0 1 203.8134766 446.0019531)" class="st5 st6"> </text>
<text transform="matrix(0.85 0 0 1 210.4238281 446.0019531)" class="st5 st6">publicSurveySrcDescLod1: gml::CodeType [0..*]</text>
<text transform="matrix(0.85 0 0 1 199.2441406 454.7363281)" class="st5 st6">+</text>
<text transform="matrix(0.85 0 0 1 203.8134766 454.7363281)" class="st5 st6"> </text>
<text transform="matrix(0.85 0 0 1 210.4238281 454.7363281)" class="st5 st6">publicSurveySrcDescLod2: gml::CodeType [0..*]</text>
<text transform="matrix(0.85 0 0 1 199.2441406 463.4785156)" class="st5 st6">+</text>
<text transform="matrix(0.85 0 0 1 203.8134766 463.4785156)" class="st5 st6"> </text>
<text transform="matrix(0.85 0 0 1 210.4238281 463.4785156)" class="st5 st6">publicSurveySrcDescLod3: gml::CodeType [0..*]</text>
<text transform="matrix(0.85 0 0 1 199.2441406 472.2285156)" class="st5 st6">+</text>
<text transform="matrix(0.85 0 0 1 203.8134766 472.2285156)" class="st5 st6"> </text>
<text transform="matrix(0.85 0 0 1 210.4238281 472.2285156)" class="st5 st6">publicSurveySrcDescLod4: gml::CodeType [0..*]</text>
<polygon class="st8" points="27.5878601,208.3999634 168.7768555,208.3999634 168.7768555,159.0285645 27.5878601,159.0285645 "/>
<polygon class="st12" points="27.5878601,208.3999634 168.7768555,208.3999634 168.7768555,159.0285645 27.5878601,159.0285645 "/>
<text transform="matrix(0.85 0 0 1 80.4082031 169.3139648)" class="st5 st6">«DataType»</text>
<text transform="matrix(0.85 0 0 1 57.5488281 178.0561523)" class="st9 st6">uro::KeyValuePairAttribute</text>
<line class="st12" x1="27.5878601" y1="182.1713867" x2="168.2689819" y2="182.1713867"/>
<text transform="matrix(0.85 0 0 1 30.1269531 191.4233398)" class="st5 st6">+</text>
<text transform="matrix(0.85 0 0 1 34.6962891 191.4233398)" class="st5 st6"> </text>
<text transform="matrix(0.85 0 0 1 41.2988281 191.4233398)" class="st5 st6">key: gml::CodeType</text>
<text transform="matrix(0.85 0 0 1 30.1269531 200.1655273)" class="st5 st6">+</text>
<text transform="matrix(0.85 0 0 1 34.6962891 200.1655273)" class="st5 st6"> </text>
<text transform="matrix(0.85 0 0 1 41.2988281 200.1655273)" class="st5 st6">codeValue: gml::CodeType [0..1]</text>
<polygon class="st8" points="197.7256622,310.7428589 350.0878906,310.7428589 350.0878906,160.5714111 197.7256622,160.5714111 "/>
<polygon class="st12" points="197.7256622,310.7428589 350.0878906,310.7428589 350.0878906,160.5714111 197.7256622,160.5714111 
	"/>
<text transform="matrix(0.85 0 0 1 256.1269531 170.8608398)" class="st5 st6">«DataType»</text>
<text transform="matrix(0.85 0 0 1 234.7988281 179.6030273)" class="st9 st6">uro::DataQualityAttribute</text>
<line class="st12" x1="197.7256622" y1="183.7142944" x2="349.5800171" y2="183.7142944"/>
<text transform="matrix(0.85 0 0 1 200.2597656 192.9702148)" class="st5 st6">+</text>
<text transform="matrix(0.85 0 0 1 204.8291016 192.9702148)" class="st5 st6"> </text>
<text transform="matrix(0.85 0 0 1 211.4394531 192.9702148)" class="st5 st6">geometrySrcDescLod0: gml::CodeType [0..*]</text>
<text transform="matrix(0.85 0 0 1 200.2597656 201.7124023)" class="st5 st6">+</text>
<text transform="matrix(0.85 0 0 1 204.8291016 201.7124023)" class="st5 st6"> </text>
<text transform="matrix(0.85 0 0 1 211.4394531 201.7124023)" class="st5 st6">geometrySrcDescLod1: gml::CodeType [1..*]</text>
<text transform="matrix(0.85 0 0 1 200.2597656 210.4545898)" class="st5 st6">+</text>
<text transform="matrix(0.85 0 0 1 204.8291016 210.4545898)" class="st5 st6"> </text>
<text transform="matrix(0.85 0 0 1 211.4394531 210.4545898)" class="st5 st6">geometrySrcDescLod2: gml::CodeType [0..*]</text>
<text transform="matrix(0.85 0 0 1 200.2597656 219.2045898)" class="st5 st6">+</text>
<text transform="matrix(0.85 0 0 1 204.8291016 219.2045898)" class="st5 st6"> </text>
<text transform="matrix(0.85 0 0 1 211.4394531 219.2045898)" class="st5 st6">geometrySrcDescLod3: gml::CodeType [0..*]</text>
<text transform="matrix(0.85 0 0 1 200.2597656 227.9389648)" class="st5 st6">+</text>
<text transform="matrix(0.85 0 0 1 204.8291016 227.9389648)" class="st5 st6"> </text>
<text transform="matrix(0.85 0 0 1 211.4394531 227.9389648)" class="st5 st6">geometrySrcDescLod4: gml::CodeType [0..*]</text>
<text transform="matrix(0.85 0 0 1 200.2597656 236.6811523)" class="st5 st6">+</text>
<text transform="matrix(0.85 0 0 1 204.8291016 236.6811523)" class="st5 st6"> </text>
<text transform="matrix(0.85 0 0 1 211.4394531 236.6811523)" class="st5 st6">thematicSrcDesc: gml::CodeType [0..*]</text>
<text transform="matrix(0.85 0 0 1 200.2597656 245.4306641)" class="st5 st6">+</text>
<text transform="matrix(0.85 0 0 1 204.8291016 245.4306641)" class="st5 st6"> </text>
<text transform="matrix(0.85 0 0 1 211.4394531 245.4306641)" class="st5 st6">appearanceSrcDescLod0: gml::CodeType [0..*]</text>
<text transform="matrix(0.85 0 0 1 200.2597656 254.1728516)" class="st5 st6">+</text>
<text transform="matrix(0.85 0 0 1 204.8291016 254.1728516)" class="st5 st6"> </text>
<text transform="matrix(0.85 0 0 1 211.4394531 254.1728516)" class="st5 st6">appearanceSrcDescLod1: gml::CodeType [0..*]</text>
<text transform="matrix(0.85 0 0 1 200.2597656 262.9072266)" class="st5 st6">+</text>
<text transform="matrix(0.85 0 0 1 204.8291016 262.9072266)" class="st5 st6"> </text>
<text transform="matrix(0.85 0 0 1 211.4394531 262.9072266)" class="st5 st6">appearanceSrcDescLod2: gml::CodeType [0..*]</text>
<text transform="matrix(0.85 0 0 1 200.2597656 271.6494141)" class="st5 st6">+</text>
<text transform="matrix(0.85 0 0 1 204.8291016 271.6494141)" class="st5 st6"> </text>
<text transform="matrix(0.85 0 0 1 211.4394531 271.6494141)" class="st5 st6">appearanceSrcDescLod3: gml::CodeType [0..*]</text>
<text transform="matrix(0.85 0 0 1 200.2597656 280.3916016)" class="st5 st6">+</text>
<text transform="matrix(0.85 0 0 1 204.8291016 280.3916016)" class="st5 st6"> </text>
<text transform="matrix(0.85 0 0 1 211.4394531 280.3916016)" class="st5 st6">appearanceSrcDescLod4: gml::CodeType [0..*]</text>
<text transform="matrix(0.85 0 0 1 200.2597656 289.1416016)" class="st5 st6">+</text>
<text transform="matrix(0.85 0 0 1 204.8291016 289.1416016)" class="st5 st6"> </text>
<text transform="matrix(0.85 0 0 1 211.4394531 289.1416016)" class="st5 st6">lodType: gml::CodeType [0..*]</text>
<text transform="matrix(0.85 0 0 1 200.2597656 297.8837891)" class="st5 st6">+</text>
<text transform="matrix(0.85 0 0 1 204.8291016 297.8837891)" class="st5 st6"> </text>
<text transform="matrix(0.85 0 0 1 211.4394531 297.8837891)" class="st5 st6">lod1HeightType: gml::CodeType [0..1]</text>
<text transform="matrix(0.85 0 0 1 200.2597656 306.6259766)" class="st5 st6">+</text>
<text transform="matrix(0.85 0 0 1 204.8291016 306.6259766)" class="st5 st6"> </text>
<text transform="matrix(0.85 0 0 1 211.4394531 306.6259766)" class="st5 st6">tranDataAcquisition: xs::string [0..1]</text>
<polygon class="st7" points="117.9894409,51.5428314 255.623291,51.5428314 255.623291,15.0285492 117.9894409,15.0285492 "/>
<polygon class="st12" points="117.9894409,51.5428314 255.623291,51.5428314 255.623291,15.0285492 117.9894409,15.0285492 "/>
<text transform="matrix(0.85 0 0 1 166.2363281 24.2827148)" class="st13 st6">«FeatureType»</text>
<text transform="matrix(0.85 0 0 1 159.6347656 31.9936523)" class="st15 st6">dem::ReliefFeature</text>
<line class="st12" x1="117.9894409" y1="36.1142426" x2="255.1154175" y2="36.1142426"/>
<text transform="matrix(0.85 0 0 1 120.5253906 44.3374023)" class="st13 st6">+</text>
<text transform="matrix(0.85 0 0 1 123.5761719 44.3374023)" class="st13 st6"> </text>
<text transform="matrix(0.85 0 0 1 131.1894531 44.3374023)" class="st13 st6">lod: core::integerBetween0and4 = 1</text>
<polygon class="st7" points="367.3555908,44.8571014 504.4816284,44.8571014 504.4816284,8.3428192 367.3555908,8.3428192 "/>
<polygon class="st12" points="367.3555908,44.8571014 504.4816284,44.8571014 504.4816284,8.3428192 367.3555908,8.3428192 "/>
<text transform="matrix(0.85 0 0 1 415.6035156 17.5952148)" class="st13 st6">«FeatureType»</text>
<text transform="matrix(0.85 0 0 1 402.9082031 25.3139648)" class="st14 st6">d</text>
<text transform="matrix(0.85 0 0 1 406.4589844 25.3139648)" class="st14 st6">e</text>
<text transform="matrix(0.85 0 0 1 409.5107422 25.3139648)" class="st14 st6">m</text>
<text transform="matrix(0.85 0 0 1 414.5927734 25.3139648)" class="st14 st6">::</text>
<text transform="matrix(0.85 0 0 1 418.6445312 25.3139648)" class="st14 st6">_</text>
<text transform="matrix(0.85 0 0 1 421.6953125 25.3139648)" class="st14 st6">R</text>
<text transform="matrix(0.85 0 0 1 425.2539062 25.3139648)" class="st14 st6">e</text>
<text transform="matrix(0.85 0 0 1 428.3056641 25.3139648)" class="st14 st6">li</text>
<text transform="matrix(0.85 0 0 1 431.3642578 25.3139648)" class="st14 st6">e</text>
<text transform="matrix(0.85 0 0 1 434.4160156 25.3139648)" class="st14 st6">f</text>
<text transform="matrix(0.85 0 0 1 436.4521484 25.3139648)" class="st14 st6">C</text>
<text transform="matrix(0.85 0 0 1 440.0009766 25.3139648)" class="st14 st6">o</text>
<text transform="matrix(0.85 0 0 1 443.5556641 25.3139648)" class="st14 st6">m</text>
<text transform="matrix(0.85 0 0 1 448.6376953 25.3139648)" class="st14 st6">p</text>
<text transform="matrix(0.85 0 0 1 452.1884766 25.3139648)" class="st14 st6">on</text>
<text transform="matrix(0.85 0 0 1 459.296875 25.3139648)" class="st14 st6">e</text>
<text transform="matrix(0.85 0 0 1 462.3486328 25.3139648)" class="st14 st6">n</text>
<text transform="matrix(0.85 0 0 1 465.9033203 25.3139648)" class="st14 st6">t</text>
<line class="st12" x1="367.3555908" y1="29.4285126" x2="503.9737549" y2="29.4285126"/>
<text transform="matrix(0.85 0 0 1 369.8925781 37.6577148)" class="st13 st6">+</text>
<text transform="matrix(0.85 0 0 1 372.9433594 37.6577148)" class="st13 st6"> </text>
<text transform="matrix(0.85 0 0 1 380.5566406 37.6577148)" class="st13 st6">lod: core::integerBetween0and4 = 1</text>
<line class="st12" x1="366.8477173" y1="38.1713715" x2="256.1311646" y2="38.1713715"/>
<polyline class="st16" points="261.2099609,35.5999603 256.1311646,38.1713715 261.2099609,40.7428436 266.2886963,38.1713715 
	261.2099609,35.5999603 "/>
<polygon class="st12" points="261.2099609,35.5999603 256.1311646,38.1713715 261.2099609,40.7428436 266.2886963,38.1713715 "/>
<polyline class="st12" points="359.2296143,35.0856781 366.8477173,38.1713715 359.2296143,41.2571259 "/>
<line class="st12" x1="436.4265137" y1="160.0571289" x2="435.9186401" y2="45.3713837"/>
<polyline class="st17" points="438.4580078,50.514267 435.9186401,45.3713837 433.3792725,50.514267 435.9186401,55.6570892 
	438.4580078,50.514267 "/>
<polygon class="st12" points="438.4580078,50.514267 435.9186401,45.3713837 433.3792725,50.514267 435.9186401,55.6570892 "/>
<polyline class="st12" points="439.4737549,152.3428345 436.4265137,160.0571289 433.3792725,152.3428345 "/>
<line class="st12" x1="273.3989258" y1="160.0571289" x2="273.3989258" y2="77.2571411"/>
<line class="st12" x1="273.3989258" y1="77.2571411" x2="186.5524445" y2="77.2571411"/>
<line class="st12" x1="186.5524445" y1="77.2571411" x2="186.5524445" y2="52.0571136"/>
<polyline class="st17" points="189.0918121,57.1999359 186.5524445,52.0571136 184.0130768,57.1999359 186.5524445,62.3428192 
	189.0918121,57.1999359 "/>
<polyline class="st12" points="189.0918121,57.1999359 186.5524445,52.0571136 184.0130768,57.1999359 186.5524445,62.3428192 "/>
<polyline class="st12" points="276.446167,152.3428345 273.3989258,160.0571289 270.3516846,152.3428345 "/>
<line class="st12" x1="116.9736938" y1="158.5142822" x2="116.9736938" y2="77.2571411"/>
<line class="st12" x1="116.9736938" y1="77.2571411" x2="186.5524445" y2="77.2571411"/>
<polyline class="st17" points="189.0918121,57.1999359 186.5524445,52.0571136 184.0130768,57.1999359 186.5524445,62.3428192 
	189.0918121,57.1999359 "/>
<polygon class="st12" points="189.0918121,57.1999359 186.5524445,52.0571136 184.0130768,57.1999359 186.5524445,62.3428192 "/>
<polyline class="st12" points="120.0209351,150.7999878 116.9736938,158.5142822 113.9264526,150.7999878 "/>
<line class="st12" x1="273.9067993" y1="360.6286011" x2="273.9067993" y2="311.2571411"/>
<polyline class="st17" points="276.446167,316.3999634 273.9067993,311.2571411 271.3674316,316.3999634 273.9067993,321.5428467 
	276.446167,316.3999634 "/>
<polygon class="st12" points="276.446167,316.3999634 273.9067993,311.2571411 271.3674316,316.3999634 273.9067993,321.5428467 "/>
<polyline class="st12" points="276.9540405,352.9142456 273.9067993,360.6286011 270.8595581,352.9142456 "/>
<text transform="matrix(0.85 0 0 1 27.0800781 154.9155273)" class="st5 st6">+demKeyValuePairAttribute</text>
<text transform="matrix(0.85 0 0 1 127.6347656 154.9155273)" class="st5 st6">0..*</text>
<text transform="matrix(0.85 0 0 1 187.5644531 156.4545898)" class="st5 st6">+demDataQualityAttribute</text>
<text transform="matrix(0.85 0 0 1 282.0332031 156.4545898)" class="st5 st6">1</text>
<text transform="matrix(0.85 0 0 1 295.7441406 30.4545898)" class="st5 st6">+reliefComponent</text>
<text transform="matrix(0.85 0 0 1 332.8144531 47.4233398)" class="st5 st6">1..*</text>
<text transform="matrix(0.85 0 0 1 162.1738281 355.4785156)" class="st5 st6">+publicSurveyDataQualityAttribute</text>
<text transform="matrix(0.85 0 0 1 285.5878906 353.4316406)" class="st5 st6">0..1</text>
<text transform="matrix(0.85 0 0 1 378.0175781 155.9389648)" class="st5 st6">+demDmAttribute</text>
<text transform="matrix(0.85 0 0 1 441.5019531 156.4545898)" class="st5 st6">0..*</text>
</svg>
