<?xml version="1.0" encoding="utf-8"?>
<!-- Generator: Adobe Illustrator 27.0.0, SVG Export Plug-In . SVG Version: 6.00 Build 0)  -->
<svg version="1.1" id="レイヤー_1" xmlns="http://www.w3.org/2000/svg" xmlns:xlink="http://www.w3.org/1999/xlink" x="0px"
	 y="0px" viewBox="0 0 674.2252197 532.1099854" style="enable-background:new 0 0 674.2252197 532.1099854;" xml:space="preserve">
<style type="text/css">
	.st0{fill-rule:evenodd;clip-rule:evenodd;fill:#FFFFCC;}
	.st1{fill:none;stroke:#000000;stroke-width:1.0285715;stroke-linecap:round;stroke-linejoin:bevel;stroke-miterlimit:10;}
	.st2{font-family:'YuGothicUI-Regular';}
	.st3{font-size:7.0386257px;}
	.st4{font-size:6.6857147px;}
	.st5{font-family:'YuGothicUI-Bold';}
	.st6{fill-rule:evenodd;clip-rule:evenodd;fill:#FFCCFF;}
	.st7{fill:none;stroke:#000000;stroke-width:0.1910204;stroke-miterlimit:10;}
	.st8{fill-rule:evenodd;clip-rule:evenodd;fill:#F0F0F0;}
	.st9{fill:none;stroke:#D7D7D7;stroke-width:0.5142857;stroke-linecap:square;stroke-miterlimit:10;}
	.st10{fill-rule:evenodd;clip-rule:evenodd;fill:#A0FFC0;}
	.st11{fill:none;stroke:#000000;stroke-width:0.5142857;stroke-linecap:square;stroke-miterlimit:10;}
	.st12{fill:#003060;}
	.st13{font-size:8.2285719px;}
	.st14{letter-spacing:-1.1764705;}
	.st15{fill-rule:evenodd;clip-rule:evenodd;}
	.st16{fill-rule:evenodd;clip-rule:evenodd;fill:#FFFFFF;}
</style>
<polygon class="st0" points="141.5201721,71.8000336 244.1107178,71.8000336 244.1107178,7.514267 141.5201721,7.514267 "/>
<polygon class="st1" points="141.5201721,71.8000336 244.1107178,71.8000336 244.1107178,7.514267 141.5201721,7.514267 "/>
<text transform="matrix(0.85 0 -0.3126727 0.9498609 202.9798126 16.2617207)" class="st2 st3">_WaterObject</text>
<text transform="matrix(0.85 0 0 1 170.9746094 28.0791016)" class="st2 st4">«FeatureType»</text>
<text transform="matrix(0.85 0 0 1 168.9433594 36.8291016)" class="st5 st4">wtr::WaterBody</text>
<line class="st1" x1="141.5201721" y1="40.9428558" x2="243.6028442" y2="40.9428558"/>
<text transform="matrix(0.85 0 0 1 144.0605469 50.1962891)" class="st2 st4">+</text>
<text transform="matrix(0.85 0 0 1 148.6298828 50.1962891)" class="st2 st4"> </text>
<text transform="matrix(0.85 0 0 1 155.2324219 50.1962891)" class="st2 st4">class: gml::CodeType [0..1]</text>
<text transform="matrix(0.85 0 0 1 144.0605469 58.9384766)" class="st2 st4">+</text>
<text transform="matrix(0.85 0 0 1 148.6298828 58.9384766)" class="st2 st4"> </text>
<text transform="matrix(0.85 0 0 1 155.2324219 58.9384766)" class="st2 st4">function: gml::CodeType [0..*]</text>
<text transform="matrix(0.85 0 0 1 144.0605469 67.6884766)" class="st2 st4">+</text>
<text transform="matrix(0.85 0 0 1 148.6298828 67.6884766)" class="st2 st4"> </text>
<text transform="matrix(0.85 0 0 1 155.2324219 67.6884766)" class="st2 st4">usage: gml::CodeType [0..*]</text>
<polygon class="st6" points="14.5516453,160.7714844 126.2839508,160.7714844 126.2839508,115.5142822 14.5516453,115.5142822 "/>
<polygon class="st1" points="14.5516453,160.7714844 126.2839508,160.7714844 126.2839508,115.5142822 14.5516453,115.5142822 "/>
<text transform="matrix(0.85 0 0 1 52.6386719 125.7900391)" class="st2 st4">«DataType»</text>
<text transform="matrix(0.85 0 -0.3126727 0.9498609 44.0032349 134.5490875)" class="st2 st3">u</text>
<text transform="matrix(0.85 0 -0.3126727 0.9498609 44.0032349 134.5490875)" class="st7 st2 st3">u</text>
<text transform="matrix(0.85 0 -0.3126727 0.9498609 48.0628052 134.5490875)" class="st2 st3">r</text>
<text transform="matrix(0.85 0 -0.3126727 0.9498609 48.0628052 134.5490875)" class="st7 st2 st3">r</text>
<text transform="matrix(0.85 0 -0.3126727 0.9498609 50.5960083 134.5490875)" class="st2 st3">o</text>
<text transform="matrix(0.85 0 -0.3126727 0.9498609 50.5960083 134.5490875)" class="st7 st2 st3">o</text>
<text transform="matrix(0.85 0 -0.3126727 0.9498609 54.6565552 134.5490875)" class="st2 st3">::</text>
<text transform="matrix(0.85 0 -0.3126727 0.9498609 54.6565552 134.5490875)" class="st7 st2 st3">::</text>
<text transform="matrix(0.85 0 -0.3126727 0.9498609 57.6907349 134.5490875)" class="st2 st3">D</text>
<text transform="matrix(0.85 0 -0.3126727 0.9498609 57.6907349 134.5490875)" class="st7 st2 st3">D</text>
<text transform="matrix(0.85 0 -0.3126727 0.9498609 62.2669067 134.5490875)" class="st2 st3">m</text>
<text transform="matrix(0.85 0 -0.3126727 0.9498609 62.2669067 134.5490875)" class="st7 st2 st3">m</text>
<text transform="matrix(0.85 0 -0.3126727 0.9498609 68.3567505 134.5490875)" class="st2 st3">A</text>
<text transform="matrix(0.85 0 -0.3126727 0.9498609 68.3567505 134.5490875)" class="st7 st2 st3">A</text>
<text transform="matrix(0.85 0 -0.3126727 0.9498609 72.9260864 134.5490875)" class="st2 st3">tt</text>
<text transform="matrix(0.85 0 -0.3126727 0.9498609 72.9260864 134.5490875)" class="st7 st2 st3">tt</text>
<text transform="matrix(0.85 0 -0.3126727 0.9498609 77.9944458 134.5490875)" class="st2 st3">r</text>
<text transform="matrix(0.85 0 -0.3126727 0.9498609 77.9944458 134.5490875)" class="st7 st2 st3">r</text>
<text transform="matrix(0.85 0 -0.3126727 0.9498609 80.5276489 134.5490875)" class="st2 st3">i</text>
<text transform="matrix(0.85 0 -0.3126727 0.9498609 80.5276489 134.5490875)" class="st7 st2 st3">i</text>
<text transform="matrix(0.85 0 -0.3126727 0.9498609 82.0540161 134.5490875)" class="st2 st3">b</text>
<text transform="matrix(0.85 0 -0.3126727 0.9498609 82.0540161 134.5490875)" class="st7 st2 st3">b</text>
<text transform="matrix(0.85 0 -0.3126727 0.9498609 86.1135864 134.5490875)" class="st2 st3">u</text>
<text transform="matrix(0.85 0 -0.3126727 0.9498609 86.1135864 134.5490875)" class="st7 st2 st3">u</text>
<text transform="matrix(0.85 0 -0.3126727 0.9498609 90.1731567 134.5490875)" class="st2 st3">t</text>
<text transform="matrix(0.85 0 -0.3126727 0.9498609 90.1731567 134.5490875)" class="st7 st2 st3">t</text>
<text transform="matrix(0.85 0 -0.3126727 0.9498609 92.708313 134.5490875)" class="st2 st3">e</text>
<text transform="matrix(0.85 0 -0.3126727 0.9498609 92.708313 134.5490875)" class="st7 st2 st3">e</text>
<line class="st1" x1="14.5516453" y1="138.6571655" x2="125.7760773" y2="138.6571655"/>
<text transform="matrix(0.85 0 0 1 17.0917969 147.9150391)" class="st2 st4">+</text>
<text transform="matrix(0.85 0 0 1 21.6611328 147.9150391)" class="st2 st4"> </text>
<text transform="matrix(0.85 0 0 1 28.2636719 147.9150391)" class="st2 st4">dmCode: gml::CodeType</text>
<text transform="matrix(0.85 0 0 1 17.0917969 156.6494141)" class="st2 st4">+</text>
<text transform="matrix(0.85 0 0 1 21.6611328 156.6494141)" class="st2 st4"> </text>
<text transform="matrix(0.85 0 0 1 28.2636719 156.6494141)" class="st2 st4">meshCode: gml::CodeType [0..1]</text>
<polygon class="st6" points="55.181572,301.1714478 209.5752869,301.1714478 209.5752869,177.2285767 55.181572,177.2285767 "/>
<polygon class="st1" points="55.181572,301.1714478 209.5752869,301.1714478 209.5752869,177.2285767 55.181572,177.2285767 "/>
<text transform="matrix(0.85 0 0 1 114.5996094 187.5087891)" class="st2 st4">«DataType»</text>
<text transform="matrix(0.85 0 0 1 85.6542969 196.2509766)" class="st5 st4">uro::WaterBodyDetailAttribute</text>
<line class="st1" x1="55.181572" y1="200.37146" x2="209.0674133" y2="200.37146"/>
<text transform="matrix(0.85 0 0 1 57.7167969 209.6181641)" class="st2 st4">+</text>
<text transform="matrix(0.85 0 0 1 62.2861328 209.6181641)" class="st2 st4"> </text>
<text transform="matrix(0.85 0 0 1 68.8886719 209.6181641)" class="st2 st4">kana: xs::string [0..1]</text>
<text transform="matrix(0.85 0 0 1 57.7167969 218.3681641)" class="st2 st4">+</text>
<text transform="matrix(0.85 0 0 1 62.2861328 218.3681641)" class="st2 st4"> </text>
<text transform="matrix(0.85 0 0 1 68.8886719 218.3681641)" class="st2 st4">waterSystemCode: gml::CodeType [0..1]</text>
<text transform="matrix(0.85 0 0 1 57.7167969 227.1103516)" class="st2 st4">+</text>
<text transform="matrix(0.85 0 0 1 62.2861328 227.1103516)" class="st2 st4"> </text>
<text transform="matrix(0.85 0 0 1 68.8886719 227.1103516)" class="st2 st4">riverCode: gml::CodeType [0..1]</text>
<text transform="matrix(0.85 0 0 1 57.7167969 235.8525391)" class="st2 st4">+</text>
<text transform="matrix(0.85 0 0 1 62.2861328 235.8525391)" class="st2 st4"> </text>
<text transform="matrix(0.85 0 0 1 68.8886719 235.8525391)" class="st2 st4">adminType: gml::CodeType [0..1]</text>
<text transform="matrix(0.85 0 0 1 57.7167969 244.6025391)" class="st2 st4">+</text>
<text transform="matrix(0.85 0 0 1 62.2861328 244.6025391)" class="st2 st4"> </text>
<text transform="matrix(0.85 0 0 1 68.8886719 244.6025391)" class="st2 st4">flowDirection: xs::boolean [0..1]</text>
<text transform="matrix(0.85 0 0 1 57.7167969 253.3447266)" class="st2 st4">+</text>
<text transform="matrix(0.85 0 0 1 62.2861328 253.3447266)" class="st2 st4"> </text>
<text transform="matrix(0.85 0 0 1 68.8886719 253.3447266)" class="st2 st4">maximumDepth: gml::LengthType [0..1]</text>
<text transform="matrix(0.85 0 0 1 57.7167969 262.0869141)" class="st2 st4">+</text>
<text transform="matrix(0.85 0 0 1 62.2861328 262.0869141)" class="st2 st4"> </text>
<text transform="matrix(0.85 0 0 1 68.8886719 262.0869141)" class="st2 st4">waterSurfaceElevation: gml::LengthType [0..1]</text>
<text transform="matrix(0.85 0 0 1 57.7167969 270.8212891)" class="st2 st4">+</text>
<text transform="matrix(0.85 0 0 1 62.2861328 270.8212891)" class="st2 st4"> </text>
<text transform="matrix(0.85 0 0 1 68.8886719 270.8212891)" class="st2 st4">area: gml::MeasureType [0..1]</text>
<text transform="matrix(0.85 0 0 1 57.7167969 279.5634766)" class="st2 st4">+</text>
<text transform="matrix(0.85 0 0 1 62.2861328 279.5634766)" class="st2 st4"> </text>
<text transform="matrix(0.85 0 0 1 68.8886719 279.5634766)" class="st2 st4">measurementYearMonth: xs::gYearMonth [0..1]</text>
<text transform="matrix(0.85 0 0 1 57.7167969 288.3134766)" class="st2 st4">+</text>
<text transform="matrix(0.85 0 0 1 62.2861328 288.3134766)" class="st2 st4"> </text>
<text transform="matrix(0.85 0 0 1 68.8886719 288.3134766)" class="st2 st4">prefecture: gml::CodeType [0..1]</text>
<text transform="matrix(0.85 0 0 1 57.7167969 297.0556641)" class="st2 st4">+</text>
<text transform="matrix(0.85 0 0 1 62.2861328 297.0556641)" class="st2 st4"> </text>
<text transform="matrix(0.85 0 0 1 68.8886719 297.0556641)" class="st2 st4">city: gml::CodeType [0..1]</text>
<path class="st8" d="M371.0792542,12.6570892c0.8414307,0,1.5235901,0.6907959,1.5235901,1.5429688h0.0000305v45.2570801h-0.0000305
	c0,0.8521118-0.6821594,1.5428467-1.5236206,1.5428467l0,0h0.0000305h-90.9094543h-0.0000305
	c-0.8414612,0-1.5236206-0.6907349-1.5236206-1.5428467h0.0000305V14.200058c0-0.8521729,0.6821289-1.5429688,1.5236206-1.5429688
	l0,0H371.0792542L371.0792542,12.6570892L371.0792542,12.6570892z"/>
<path class="st9" d="M371.0792542,12.6570892c0.8414307,0,1.5235901,0.6907959,1.5235901,1.5429688h0.0000305v45.2570801h-0.0000305
	c0,0.8521118-0.6821594,1.5428467-1.5236206,1.5428467l0,0h0.0000305h-90.9094543h-0.0000305
	c-0.8414612,0-1.5236206-0.6907349-1.5236206-1.5428467h0.0000305V14.200058c0-0.8521729,0.6821289-1.5429688,1.5236206-1.5429688
	l0,0H371.0792542L371.0792542,12.6570892L371.0792542,12.6570892z"/>
<polygon class="st10" points="283.7249146,36.828598 292.3587646,36.828598 292.3587646,28.0856781 283.7249146,28.0856781 "/>
<polygon class="st11" points="283.7249146,36.828598 292.3587646,36.828598 292.3587646,28.0856781 283.7249146,28.0856781 "/>
<text transform="matrix(0.85 0 0 1 294.8964844 35.2900391)" class="st12 st2 st4">GMLで定義されたクラス</text>
<polygon class="st0" points="283.7249146,46.6000214 292.3587646,46.6000214 292.3587646,37.8571625 283.7249146,37.8571625 "/>
<polygon class="st11" points="283.7249146,46.6000214 292.3587646,46.6000214 292.3587646,37.8571625 283.7249146,37.8571625 "/>
<text transform="matrix(0.85 0 0 1 294.8964844 45.0556641)" class="st12 st2 st4">CityGMLで定義されたクラス</text>
<polygon class="st6" points="283.7249146,56.3714447 292.3587646,56.3714447 292.3587646,47.6285858 283.7249146,47.6285858 "/>
<polygon class="st11" points="283.7249146,56.3714447 292.3587646,56.3714447 292.3587646,47.6285858 283.7249146,47.6285858 "/>
<text transform="matrix(0.85 0 0 1 294.8964844 54.8291016)" class="st12 st2 st4">i-URで定義されたクラス</text>
<text transform="matrix(0.85 0 0 1 319.7871094 25.7148438)" class="st12 st5 st13 st14">凡例</text>
<polygon class="st6" points="222.780014,326.8857422 332.4808044,326.8857422 332.4808044,202.9428711 222.780014,202.9428711 "/>
<polygon class="st1" points="222.780014,326.8857422 332.4808044,326.8857422 332.4808044,202.9428711 222.780014,202.9428711 "/>
<text transform="matrix(0.85 0 0 1 259.8496094 213.2275391)" class="st2 st4">«DataType»</text>
<text transform="matrix(0.85 0 0 1 243.0996094 221.9619141)" class="st5 st4">uro::FacilityIdAttribute</text>
<line class="st1" x1="222.780014" y1="226.0857544" x2="331.9729309" y2="226.0857544"/>
<text transform="matrix(0.85 0 0 1 225.3183594 235.3447266)" class="st2 st4">+</text>
<text transform="matrix(0.85 0 0 1 229.8876953 235.3447266)" class="st2 st4"> </text>
<text transform="matrix(0.85 0 0 1 236.4902344 235.3447266)" class="st2 st4">id: xs::string [0..1]</text>
<text transform="matrix(0.85 0 0 1 225.3183594 244.0869141)" class="st2 st4">+</text>
<text transform="matrix(0.85 0 0 1 229.8876953 244.0869141)" class="st2 st4"> </text>
<text transform="matrix(0.85 0 0 1 236.4902344 244.0869141)" class="st2 st4">partId: xs::string [0..1]</text>
<text transform="matrix(0.85 0 0 1 225.3183594 252.8212891)" class="st2 st4">+</text>
<text transform="matrix(0.85 0 0 1 229.8876953 252.8212891)" class="st2 st4"> </text>
<text transform="matrix(0.85 0 0 1 236.4902344 252.8212891)" class="st2 st4">branchId: xs::string [0..1]</text>
<text transform="matrix(0.85 0 0 1 225.3183594 261.5712891)" class="st2 st4">+</text>
<text transform="matrix(0.85 0 0 1 229.8876953 261.5712891)" class="st2 st4"> </text>
<text transform="matrix(0.85 0 0 1 236.4902344 261.5712891)" class="st2 st4">prefecture: gml::CodeType [0..*]</text>
<text transform="matrix(0.85 0 0 1 225.3183594 270.3134766)" class="st2 st4">+</text>
<text transform="matrix(0.85 0 0 1 229.8876953 270.3134766)" class="st2 st4"> </text>
<text transform="matrix(0.85 0 0 1 236.4902344 270.3134766)" class="st2 st4">city: gml::CodeType [0..*]</text>
<text transform="matrix(0.85 0 0 1 225.3183594 279.0556641)" class="st2 st4">+</text>
<text transform="matrix(0.85 0 0 1 229.8876953 279.0556641)" class="st2 st4"> </text>
<text transform="matrix(0.85 0 0 1 236.4902344 279.0556641)" class="st2 st4">route: xs::string [0..1]</text>
<text transform="matrix(0.85 0 0 1 225.3183594 287.7978516)" class="st2 st4">+</text>
<text transform="matrix(0.85 0 0 1 229.8876953 287.7978516)" class="st2 st4"> </text>
<text transform="matrix(0.85 0 0 1 236.4902344 287.7978516)" class="st2 st4">startPost: xs::string [0..1]</text>
<text transform="matrix(0.85 0 0 1 225.3183594 296.5400391)" class="st2 st4">+</text>
<text transform="matrix(0.85 0 0 1 229.8876953 296.5400391)" class="st2 st4"> </text>
<text transform="matrix(0.85 0 0 1 236.4902344 296.5400391)" class="st2 st4">endPost: xs::string [0..1]</text>
<text transform="matrix(0.85 0 0 1 225.3183594 305.2900391)" class="st2 st4">+</text>
<text transform="matrix(0.85 0 0 1 229.8876953 305.2900391)" class="st2 st4"> </text>
<text transform="matrix(0.85 0 0 1 236.4902344 305.2900391)" class="st2 st4">startLat: xs::double [0..1]</text>
<text transform="matrix(0.85 0 0 1 225.3183594 314.0244141)" class="st2 st4">+</text>
<text transform="matrix(0.85 0 0 1 229.8876953 314.0244141)" class="st2 st4"> </text>
<text transform="matrix(0.85 0 0 1 236.4902344 314.0244141)" class="st2 st4">startLong: xs::double [0..1]</text>
<text transform="matrix(0.85 0 0 1 225.3183594 322.7666016)" class="st2 st4">+</text>
<text transform="matrix(0.85 0 0 1 229.8876953 322.7666016)" class="st2 st4"> </text>
<text transform="matrix(0.85 0 0 1 236.4902344 322.7666016)" class="st2 st4">alternativeName: xs::string [0..*]</text>
<polygon class="st6" points="202.4650574,526.4285889 339.0831909,526.4285889 339.0831909,367.5142822 202.4650574,367.5142822 "/>
<polygon class="st1" points="202.4650574,526.4285889 339.0831909,526.4285889 339.0831909,367.5142822 202.4650574,367.5142822 "/>
<text transform="matrix(0.85 0 0 1 253.2558594 377.7978516)" class="st2 st4">«DataType»</text>
<text transform="matrix(0.85 0 0 1 228.8730469 386.5400391)" class="st5 st4">uro::RiverFacilityIdAttribute</text>
<line class="st1" x1="202.4650574" y1="390.6571655" x2="338.5753174" y2="390.6571655"/>
<text transform="matrix(0.85 0 0 1 204.9980469 399.9150391)" class="st2 st4">+</text>
<text transform="matrix(0.85 0 0 1 209.5673828 399.9150391)" class="st2 st4"> </text>
<text transform="matrix(0.85 0 0 1 216.1777344 399.9150391)" class="st2 st4">riverCode: gml::CodeType</text>
<text transform="matrix(0.85 0 0 1 204.9980469 408.6572266)" class="st2 st4">+</text>
<text transform="matrix(0.85 0 0 1 209.5673828 408.6572266)" class="st2 st4"> </text>
<text transform="matrix(0.85 0 0 1 216.1777344 408.6572266)" class="st2 st4">riverName: xs::string [0..1]</text>
<text transform="matrix(0.85 0 0 1 204.9980469 417.3994141)" class="st2 st4">+</text>
<text transform="matrix(0.85 0 0 1 209.5673828 417.3994141)" class="st2 st4"> </text>
<text transform="matrix(0.85 0 0 1 216.1777344 417.3994141)" class="st2 st4">sideType: gml::CodeType</text>
<text transform="matrix(0.85 0 0 1 204.9980469 426.1494141)" class="st2 st4">+</text>
<text transform="matrix(0.85 0 0 1 209.5673828 426.1494141)" class="st2 st4"> </text>
<text transform="matrix(0.85 0 0 1 216.1777344 426.1494141)" class="st2 st4">leftPost: gml::LengthType [0..1]</text>
<text transform="matrix(0.85 0 0 1 204.9980469 434.8837891)" class="st2 st4">+</text>
<text transform="matrix(0.85 0 0 1 209.5673828 434.8837891)" class="st2 st4"> </text>
<text transform="matrix(0.85 0 0 1 216.1777344 434.8837891)" class="st2 st4">leftDistance: gml::LengthType [0..1]</text>
<text transform="matrix(0.85 0 0 1 204.9980469 443.6259766)" class="st2 st4">+</text>
<text transform="matrix(0.85 0 0 1 209.5673828 443.6259766)" class="st2 st4"> </text>
<text transform="matrix(0.85 0 0 1 216.1777344 443.6259766)" class="st2 st4">rightPost: gml::LengthType [0..1]</text>
<text transform="matrix(0.85 0 0 1 204.9980469 452.3681641)" class="st2 st4">+</text>
<text transform="matrix(0.85 0 0 1 209.5673828 452.3681641)" class="st2 st4"> </text>
<text transform="matrix(0.85 0 0 1 216.1777344 452.3681641)" class="st2 st4">rightDistance: gml::LengthType [0..1]</text>
<text transform="matrix(0.85 0 0 1 204.9980469 461.1025391)" class="st2 st4">+</text>
<text transform="matrix(0.85 0 0 1 209.5673828 461.1025391)" class="st2 st4"> </text>
<text transform="matrix(0.85 0 0 1 216.1777344 461.1025391)" class="st2 st4">leftStartPost: gml::LengthType [0..1]</text>
<text transform="matrix(0.85 0 0 1 204.9980469 469.8525391)" class="st2 st4">+</text>
<text transform="matrix(0.85 0 0 1 209.5673828 469.8525391)" class="st2 st4"> </text>
<text transform="matrix(0.85 0 0 1 216.1777344 469.8525391)" class="st2 st4">leftStartDistance: gml::LengthType [0..1]</text>
<text transform="matrix(0.85 0 0 1 204.9980469 478.5947266)" class="st2 st4">+</text>
<text transform="matrix(0.85 0 0 1 209.5673828 478.5947266)" class="st2 st4"> </text>
<text transform="matrix(0.85 0 0 1 216.1777344 478.5947266)" class="st2 st4">leftEndPost: gml::LengthType [0..1]</text>
<text transform="matrix(0.85 0 0 1 204.9980469 487.3369141)" class="st2 st4">+</text>
<text transform="matrix(0.85 0 0 1 209.5673828 487.3369141)" class="st2 st4"> </text>
<text transform="matrix(0.85 0 0 1 216.1777344 487.3369141)" class="st2 st4">leftEndDistance: gml::LengthType [0..1]</text>
<text transform="matrix(0.85 0 0 1 204.9980469 496.0869141)" class="st2 st4">+</text>
<text transform="matrix(0.85 0 0 1 209.5673828 496.0869141)" class="st2 st4"> </text>
<text transform="matrix(0.85 0 0 1 216.1777344 496.0869141)" class="st2 st4">rightStartPost: gml::LengthType [0..1]</text>
<text transform="matrix(0.85 0 0 1 204.9980469 504.8291016)" class="st2 st4">+</text>
<text transform="matrix(0.85 0 0 1 209.5673828 504.8291016)" class="st2 st4"> </text>
<text transform="matrix(0.85 0 0 1 216.1777344 504.8291016)" class="st2 st4">rightStartDistance: gml::LengthType [0..1]</text>
<text transform="matrix(0.85 0 0 1 204.9980469 513.5712891)" class="st2 st4">+</text>
<text transform="matrix(0.85 0 0 1 209.5673828 513.5712891)" class="st2 st4"> </text>
<text transform="matrix(0.85 0 0 1 216.1777344 513.5712891)" class="st2 st4">rightEndPost: gml::LengthType [0..1]</text>
<text transform="matrix(0.85 0 0 1 204.9980469 522.3212891)" class="st2 st4">+</text>
<text transform="matrix(0.85 0 0 1 209.5673828 522.3212891)" class="st2 st4"> </text>
<text transform="matrix(0.85 0 0 1 216.1777344 522.3212891)" class="st2 st4">rightEndDistance: gml::LengthType [0..1]</text>
<polygon class="st6" points="298.9611206,181.3428955 401.5516968,181.3428955 401.5516968,136.0857544 298.9611206,136.0857544 "/>
<polygon class="st1" points="298.9611206,181.3428955 401.5516968,181.3428955 401.5516968,136.0857544 298.9611206,136.0857544 "/>
<text transform="matrix(0.85 0 0 1 332.4824219 146.3681641)" class="st2 st4">«DataType»</text>
<text transform="matrix(0.85 0 0 1 311.6542969 155.1103516)" class="st5 st4">uro::FacilityTypeAttribute</text>
<line class="st1" x1="298.9611206" y1="159.2285767" x2="401.0438232" y2="159.2285767"/>
<text transform="matrix(0.85 0 0 1 301.4980469 168.4931641)" class="st2 st4">+</text>
<text transform="matrix(0.85 0 0 1 306.0673828 168.4931641)" class="st2 st4"> </text>
<text transform="matrix(0.85 0 0 1 312.6699219 168.4931641)" class="st2 st4">class: gml::CodeType [0..1]</text>
<text transform="matrix(0.85 0 0 1 301.4980469 177.2275391)" class="st2 st4">+</text>
<text transform="matrix(0.85 0 0 1 306.0673828 177.2275391)" class="st2 st4"> </text>
<text transform="matrix(0.85 0 0 1 312.6699219 177.2275391)" class="st2 st4">function: gml::CodeType [0..*]</text>
<polygon class="st6" points="364.9847717,244.0857544 450.8154907,244.0857544 450.8154907,202.9428711 364.9847717,202.9428711 "/>
<polygon class="st1" points="364.9847717,244.0857544 450.8154907,244.0857544 450.8154907,202.9428711 364.9847717,202.9428711 "/>
<text transform="matrix(0.85 0 0 1 390.3730469 213.2275391)" class="st2 st4">«DataType»</text>
<text transform="matrix(0.85 0 -0.3126727 0.9498609 376.6704407 221.9733887)" class="st2 st3">u</text>
<text transform="matrix(0.85 0 -0.3126727 0.9498609 376.6704407 221.9733887)" class="st7 st2 st3">u</text>
<text transform="matrix(0.85 0 -0.3126727 0.9498609 380.730011 221.9733887)" class="st2 st3">r</text>
<text transform="matrix(0.85 0 -0.3126727 0.9498609 380.730011 221.9733887)" class="st7 st2 st3">r</text>
<text transform="matrix(0.85 0 -0.3126727 0.9498609 383.2632141 221.9733887)" class="st2 st3">o</text>
<text transform="matrix(0.85 0 -0.3126727 0.9498609 383.2632141 221.9733887)" class="st7 st2 st3">o</text>
<text transform="matrix(0.85 0 -0.3126727 0.9498609 387.323761 221.9733887)" class="st2 st3">::</text>
<text transform="matrix(0.85 0 -0.3126727 0.9498609 387.323761 221.9733887)" class="st7 st2 st3">::</text>
<text transform="matrix(0.85 0 -0.3126727 0.9498609 390.3579407 221.9733887)" class="st2 st3">F</text>
<text transform="matrix(0.85 0 -0.3126727 0.9498609 390.3579407 221.9733887)" class="st7 st2 st3">F</text>
<text transform="matrix(0.85 0 -0.3126727 0.9498609 393.9116516 221.9733887)" class="st2 st3">a</text>
<text transform="matrix(0.85 0 -0.3126727 0.9498609 393.9116516 221.9733887)" class="st7 st2 st3">a</text>
<text transform="matrix(0.85 0 -0.3126727 0.9498609 397.4624329 221.9733887)" class="st2 st3">c</text>
<text transform="matrix(0.85 0 -0.3126727 0.9498609 397.4624329 221.9733887)" class="st7 st2 st3">c</text>
<text transform="matrix(0.85 0 -0.3126727 0.9498609 400.5122375 221.9733887)" class="st2 st3">ili</text>
<text transform="matrix(0.85 0 -0.3126727 0.9498609 400.5122375 221.9733887)" class="st7 st2 st3">ili</text>
<text transform="matrix(0.85 0 -0.3126727 0.9498609 405.0913391 221.9733887)" class="st2 st3">t</text>
<text transform="matrix(0.85 0 -0.3126727 0.9498609 405.0913391 221.9733887)" class="st7 st2 st3">t</text>
<text transform="matrix(0.85 0 -0.3126727 0.9498609 407.6255188 221.9733887)" class="st2 st3">y</text>
<text transform="matrix(0.85 0 -0.3126727 0.9498609 407.6255188 221.9733887)" class="st7 st2 st3">y</text>
<text transform="matrix(0.85 0 -0.3126727 0.9498609 411.1772766 221.9733887)" class="st2 st3">A</text>
<text transform="matrix(0.85 0 -0.3126727 0.9498609 411.1772766 221.9733887)" class="st7 st2 st3">A</text>
<text transform="matrix(0.85 0 -0.3126727 0.9498609 415.745636 221.9733887)" class="st2 st3">tt</text>
<text transform="matrix(0.85 0 -0.3126727 0.9498609 415.745636 221.9733887)" class="st7 st2 st3">tt</text>
<text transform="matrix(0.85 0 -0.3126727 0.9498609 420.8149719 221.9733887)" class="st2 st3">r</text>
<text transform="matrix(0.85 0 -0.3126727 0.9498609 420.8149719 221.9733887)" class="st7 st2 st3">r</text>
<text transform="matrix(0.85 0 -0.3126727 0.9498609 423.348175 221.9733887)" class="st2 st3">i</text>
<text transform="matrix(0.85 0 -0.3126727 0.9498609 423.348175 221.9733887)" class="st7 st2 st3">i</text>
<text transform="matrix(0.85 0 -0.3126727 0.9498609 424.8745422 221.9733887)" class="st2 st3">b</text>
<text transform="matrix(0.85 0 -0.3126727 0.9498609 424.8745422 221.9733887)" class="st7 st2 st3">b</text>
<text transform="matrix(0.85 0 -0.3126727 0.9498609 428.9341125 221.9733887)" class="st2 st3">u</text>
<text transform="matrix(0.85 0 -0.3126727 0.9498609 428.9341125 221.9733887)" class="st7 st2 st3">u</text>
<text transform="matrix(0.85 0 -0.3126727 0.9498609 432.9936829 221.9733887)" class="st2 st3">t</text>
<text transform="matrix(0.85 0 -0.3126727 0.9498609 432.9936829 221.9733887)" class="st7 st2 st3">t</text>
<text transform="matrix(0.85 0 -0.3126727 0.9498609 435.5278625 221.9733887)" class="st2 st3">e</text>
<text transform="matrix(0.85 0 -0.3126727 0.9498609 435.5278625 221.9733887)" class="st7 st2 st3">e</text>
<line class="st1" x1="364.9847717" y1="226.0857544" x2="450.3075867" y2="226.0857544"/>
<text transform="matrix(0.85 0 0 1 367.5214844 235.3447266)" class="st2 st4">+</text>
<text transform="matrix(0.85 0 0 1 372.0908203 235.3447266)" class="st2 st4"> </text>
<text transform="matrix(0.85 0 0 1 378.6933594 235.3447266)" class="st2 st4">facilityId: xs::string [0..1]</text>
<polygon class="st6" points="508.7131042,485.2857666 663.1068115,485.2857666 663.1068115,370.0857544 508.7131042,370.0857544 "/>
<polygon class="st1" points="508.7131042,485.2857666 663.1068115,485.2857666 663.1068115,370.0857544 508.7131042,370.0857544 "/>
<text transform="matrix(0.85 0 0 1 568.1308594 380.3681641)" class="st2 st4">«DataType»</text>
<text transform="matrix(0.85 0 0 1 528.5136719 389.1181641)" class="st5 st4">uro::PublicSuveyDataQualityAttribute</text>
<line class="st1" x1="508.7131042" y1="393.2286377" x2="662.598938" y2="393.2286377"/>
<text transform="matrix(0.85 0 0 1 511.2480469 402.4853516)" class="st2 st4">+</text>
<text transform="matrix(0.85 0 0 1 515.8173828 402.4853516)" class="st2 st4"> </text>
<text transform="matrix(0.85 0 0 1 522.4199219 402.4853516)" class="st2 st4">srcScaleLod0: gml::CodeType [0..1]</text>
<text transform="matrix(0.85 0 0 1 511.2480469 411.2275391)" class="st2 st4">+</text>
<text transform="matrix(0.85 0 0 1 515.8173828 411.2275391)" class="st2 st4"> </text>
<text transform="matrix(0.85 0 0 1 522.4199219 411.2275391)" class="st2 st4">srcScaleLod1: gml::CodeType [0..1]</text>
<text transform="matrix(0.85 0 0 1 511.2480469 419.9775391)" class="st2 st4">+</text>
<text transform="matrix(0.85 0 0 1 515.8173828 419.9775391)" class="st2 st4"> </text>
<text transform="matrix(0.85 0 0 1 522.4199219 419.9775391)" class="st2 st4">srcScaleLod2: gml::CodeType [0..1]</text>
<text transform="matrix(0.85 0 0 1 511.2480469 428.7119141)" class="st2 st4">+</text>
<text transform="matrix(0.85 0 0 1 515.8173828 428.7119141)" class="st2 st4"> </text>
<text transform="matrix(0.85 0 0 1 522.4199219 428.7119141)" class="st2 st4">srcScaleLod3: gml::CodeType [0..1]</text>
<text transform="matrix(0.85 0 0 1 511.2480469 437.4541016)" class="st2 st4">+</text>
<text transform="matrix(0.85 0 0 1 515.8173828 437.4541016)" class="st2 st4"> </text>
<text transform="matrix(0.85 0 0 1 522.4199219 437.4541016)" class="st2 st4">srcScaleLod4: gml::CodeType [0..1]</text>
<text transform="matrix(0.85 0 0 1 511.2480469 446.1962891)" class="st2 st4">+</text>
<text transform="matrix(0.85 0 0 1 515.8173828 446.1962891)" class="st2 st4"> </text>
<text transform="matrix(0.85 0 0 1 522.4199219 446.1962891)" class="st2 st4">publicSurveySrcDescLod0: gml::CodeType [0..*]</text>
<text transform="matrix(0.85 0 0 1 511.2480469 454.9462891)" class="st2 st4">+</text>
<text transform="matrix(0.85 0 0 1 515.8173828 454.9462891)" class="st2 st4"> </text>
<text transform="matrix(0.85 0 0 1 522.4199219 454.9462891)" class="st2 st4">publicSurveySrcDescLod1: gml::CodeType [0..*]</text>
<text transform="matrix(0.85 0 0 1 511.2480469 463.6806641)" class="st2 st4">+</text>
<text transform="matrix(0.85 0 0 1 515.8173828 463.6806641)" class="st2 st4"> </text>
<text transform="matrix(0.85 0 0 1 522.4199219 463.6806641)" class="st2 st4">publicSurveySrcDescLod2: gml::CodeType [0..*]</text>
<text transform="matrix(0.85 0 0 1 511.2480469 472.4228516)" class="st2 st4">+</text>
<text transform="matrix(0.85 0 0 1 515.8173828 472.4228516)" class="st2 st4"> </text>
<text transform="matrix(0.85 0 0 1 522.4199219 472.4228516)" class="st2 st4">publicSurveySrcDescLod3: gml::CodeType [0..*]</text>
<text transform="matrix(0.85 0 0 1 511.2480469 481.1650391)" class="st2 st4">+</text>
<text transform="matrix(0.85 0 0 1 515.8173828 481.1650391)" class="st2 st4"> </text>
<text transform="matrix(0.85 0 0 1 522.4199219 481.1650391)" class="st2 st4">publicSurveySrcDescLod4: gml::CodeType [0..*]</text>
<polygon class="st6" points="350.7642822,329.4571533 491.9532776,329.4571533 491.9532776,275.9714355 350.7642822,275.9714355 "/>
<polygon class="st1" points="350.7642822,329.4571533 491.9532776,329.4571533 491.9532776,275.9714355 350.7642822,275.9714355 "/>
<text transform="matrix(0.85 0 0 1 403.5839844 286.2509766)" class="st2 st4">«DataType»</text>
<text transform="matrix(0.85 0 0 1 380.7246094 294.9931641)" class="st5 st4">uro::KeyValuePairAttribute</text>
<line class="st1" x1="350.7642822" y1="299.1143188" x2="491.4454041" y2="299.1143188"/>
<text transform="matrix(0.85 0 0 1 353.3027344 308.3681641)" class="st2 st4">+</text>
<text transform="matrix(0.85 0 0 1 357.8720703 308.3681641)" class="st2 st4"> </text>
<text transform="matrix(0.85 0 0 1 364.4746094 308.3681641)" class="st2 st4">key: gml::CodeType</text>
<text transform="matrix(0.85 0 0 1 353.3027344 317.1103516)" class="st2 st4">+</text>
<text transform="matrix(0.85 0 0 1 357.8720703 317.1103516)" class="st2 st4"> </text>
<text transform="matrix(0.85 0 0 1 364.4746094 317.1103516)" class="st2 st4">codeValue: gml::CodeType [0..1]</text>
<polygon class="st6" points="509.7288513,339.2286377 662.0910645,339.2286377 662.0910645,189.0571899 509.7288513,189.0571899 "/>
<polygon class="st1" points="509.7288513,339.2286377 662.0910645,339.2286377 662.0910645,189.0571899 509.7288513,189.0571899 "/>
<text transform="matrix(0.85 0 0 1 568.1308594 199.3369141)" class="st2 st4">«DataType»</text>
<text transform="matrix(0.85 0 0 1 546.8027344 208.0791016)" class="st5 st4">uro::DataQualityAttribute</text>
<line class="st1" x1="509.7288513" y1="212.2000122" x2="661.5831909" y2="212.2000122"/>
<text transform="matrix(0.85 0 0 1 512.2636719 221.4619141)" class="st2 st4">+</text>
<text transform="matrix(0.85 0 0 1 516.8330078 221.4619141)" class="st2 st4"> </text>
<text transform="matrix(0.85 0 0 1 523.4355469 221.4619141)" class="st2 st4">geometrySrcDescLod0: gml::CodeType [0..*]</text>
<text transform="matrix(0.85 0 0 1 512.2636719 230.1962891)" class="st2 st4">+</text>
<text transform="matrix(0.85 0 0 1 516.8330078 230.1962891)" class="st2 st4"> </text>
<text transform="matrix(0.85 0 0 1 523.4355469 230.1962891)" class="st2 st4">geometrySrcDescLod1: gml::CodeType [1..*]</text>
<text transform="matrix(0.85 0 0 1 512.2636719 238.9384766)" class="st2 st4">+</text>
<text transform="matrix(0.85 0 0 1 516.8330078 238.9384766)" class="st2 st4"> </text>
<text transform="matrix(0.85 0 0 1 523.4355469 238.9384766)" class="st2 st4">geometrySrcDescLod2: gml::CodeType [0..*]</text>
<text transform="matrix(0.85 0 0 1 512.2636719 247.6884766)" class="st2 st4">+</text>
<text transform="matrix(0.85 0 0 1 516.8330078 247.6884766)" class="st2 st4"> </text>
<text transform="matrix(0.85 0 0 1 523.4355469 247.6884766)" class="st2 st4">geometrySrcDescLod3: gml::CodeType [0..*]</text>
<text transform="matrix(0.85 0 0 1 512.2636719 256.4306641)" class="st2 st4">+</text>
<text transform="matrix(0.85 0 0 1 516.8330078 256.4306641)" class="st2 st4"> </text>
<text transform="matrix(0.85 0 0 1 523.4355469 256.4306641)" class="st2 st4">geometrySrcDescLod4: gml::CodeType [0..*]</text>
<text transform="matrix(0.85 0 0 1 512.2636719 265.1650391)" class="st2 st4">+</text>
<text transform="matrix(0.85 0 0 1 516.8330078 265.1650391)" class="st2 st4"> </text>
<text transform="matrix(0.85 0 0 1 523.4355469 265.1650391)" class="st2 st4">thematicSrcDesc: gml::CodeType [0..*]</text>
<text transform="matrix(0.85 0 0 1 512.2636719 273.9072266)" class="st2 st4">+</text>
<text transform="matrix(0.85 0 0 1 516.8330078 273.9072266)" class="st2 st4"> </text>
<text transform="matrix(0.85 0 0 1 523.4355469 273.9072266)" class="st2 st4">appearanceSrcDescLod0: gml::CodeType [0..*]</text>
<text transform="matrix(0.85 0 0 1 512.2636719 282.6494141)" class="st2 st4">+</text>
<text transform="matrix(0.85 0 0 1 516.8330078 282.6494141)" class="st2 st4"> </text>
<text transform="matrix(0.85 0 0 1 523.4355469 282.6494141)" class="st2 st4">appearanceSrcDescLod1: gml::CodeType [0..*]</text>
<text transform="matrix(0.85 0 0 1 512.2636719 291.3994141)" class="st2 st4">+</text>
<text transform="matrix(0.85 0 0 1 516.8330078 291.3994141)" class="st2 st4"> </text>
<text transform="matrix(0.85 0 0 1 523.4355469 291.3994141)" class="st2 st4">appearanceSrcDescLod2: gml::CodeType [0..*]</text>
<text transform="matrix(0.85 0 0 1 512.2636719 300.1416016)" class="st2 st4">+</text>
<text transform="matrix(0.85 0 0 1 516.8330078 300.1416016)" class="st2 st4"> </text>
<text transform="matrix(0.85 0 0 1 523.4355469 300.1416016)" class="st2 st4">appearanceSrcDescLod3: gml::CodeType [0..*]</text>
<text transform="matrix(0.85 0 0 1 512.2636719 308.8837891)" class="st2 st4">+</text>
<text transform="matrix(0.85 0 0 1 516.8330078 308.8837891)" class="st2 st4"> </text>
<text transform="matrix(0.85 0 0 1 523.4355469 308.8837891)" class="st2 st4">appearanceSrcDescLod4: gml::CodeType [0..*]</text>
<text transform="matrix(0.85 0 0 1 512.2636719 317.6337891)" class="st2 st4">+</text>
<text transform="matrix(0.85 0 0 1 516.8330078 317.6337891)" class="st2 st4"> </text>
<text transform="matrix(0.85 0 0 1 523.4355469 317.6337891)" class="st2 st4">lodType: gml::CodeType [0..*]</text>
<text transform="matrix(0.85 0 0 1 512.2636719 326.3681641)" class="st2 st4">+</text>
<text transform="matrix(0.85 0 0 1 516.8330078 326.3681641)" class="st2 st4"> </text>
<text transform="matrix(0.85 0 0 1 523.4355469 326.3681641)" class="st2 st4">lod1HeightType: gml::CodeType [0..1]</text>
<text transform="matrix(0.85 0 0 1 512.2636719 335.1103516)" class="st2 st4">+</text>
<text transform="matrix(0.85 0 0 1 516.8330078 335.1103516)" class="st2 st4"> </text>
<text transform="matrix(0.85 0 0 1 523.4355469 335.1103516)" class="st2 st4">tranDataAcquisition: xs::string [0..1]</text>
<line class="st1" x1="418.3115234" y1="202.4285889" x2="418.3115234" y2="97.514267"/>
<line class="st1" x1="192.8154449" y1="97.514267" x2="192.8154449" y2="72.3143158"/>
<polyline class="st15" points="195.3548126,77.4571381 192.8154449,72.3143158 190.2760773,77.4571381 192.8154449,82.6000214 
	195.3548126,77.4571381 "/>
<polyline class="st1" points="195.3548126,77.4571381 192.8154449,72.3143158 190.2760773,77.4571381 192.8154449,82.6000214 "/>
<polyline class="st1" points="421.3587646,194.7142944 418.3115234,202.4285889 415.2642822,194.7142944 "/>
<line class="st1" x1="368.5398865" y1="135.5714722" x2="368.5398865" y2="97.514267"/>
<polyline class="st15" points="195.3548126,77.4571381 192.8154449,72.3143158 190.2760773,77.4571381 192.8154449,82.6000214 
	195.3548126,77.4571381 "/>
<polyline class="st1" points="195.3548126,77.4571381 192.8154449,72.3143158 190.2760773,77.4571381 192.8154449,82.6000214 "/>
<polyline class="st1" points="371.5871277,127.8571777 368.5398865,135.5714722 365.4926453,127.8571777 "/>
<line class="st1" x1="271.5359192" y1="367" x2="271.5359192" y2="327.4000244"/>
<polyline class="st16" points="274.5831604,335.6286011 268.488678,335.6286011 271.5359192,327.4000244 274.5831604,335.6286011 
	"/>
<polygon class="st1" points="274.5831604,335.6286011 268.488678,335.6286011 271.5359192,327.4000244 "/>
<line class="st1" x1="284.7406616" y1="202.4285889" x2="284.7406616" y2="97.514267"/>
<polyline class="st15" points="195.3548126,77.4571381 192.8154449,72.3143158 190.2760773,77.4571381 192.8154449,82.6000214 
	195.3548126,77.4571381 "/>
<polyline class="st1" points="195.3548126,77.4571381 192.8154449,72.3143158 190.2760773,77.4571381 192.8154449,82.6000214 "/>
<polyline class="st1" points="287.7879028,194.7142944 284.7406616,202.4285889 281.6934204,194.7142944 "/>
<line class="st1" x1="133.3941803" y1="176.7142944" x2="133.3941803" y2="97.514267"/>
<polyline class="st15" points="195.3548126,77.4571381 192.8154449,72.3143158 190.2760773,77.4571381 192.8154449,82.6000214 
	195.3548126,77.4571381 "/>
<polyline class="st1" points="195.3548126,77.4571381 192.8154449,72.3143158 190.2760773,77.4571381 192.8154449,82.6000214 "/>
<polyline class="st1" points="136.4414215,169 133.3941803,176.7142944 130.3469391,169 "/>
<line class="st1" x1="70.4177933" y1="115" x2="70.4177933" y2="97.514267"/>
<line class="st1" x1="70.4177933" y1="97.514267" x2="192.8154449" y2="97.514267"/>
<polyline class="st15" points="195.3548126,77.4571381 192.8154449,72.3143158 190.2760773,77.4571381 192.8154449,82.6000214 
	195.3548126,77.4571381 "/>
<polyline class="st1" points="195.3548126,77.4571381 192.8154449,72.3143158 190.2760773,77.4571381 192.8154449,82.6000214 "/>
<polyline class="st1" points="73.4650421,107.2857666 70.4177933,115 67.3705521,107.2857666 "/>
<line class="st1" x1="585.4020996" y1="188.5428467" x2="585.4020996" y2="97.514267"/>
<line class="st1" x1="585.4020996" y1="97.514267" x2="192.8154449" y2="97.514267"/>
<polyline class="st15" points="195.3548126,77.4571381 192.8154449,72.3143158 190.2760773,77.4571381 192.8154449,82.6000214 
	195.3548126,77.4571381 "/>
<polyline class="st1" points="195.3548126,77.4571381 192.8154449,72.3143158 190.2760773,77.4571381 192.8154449,82.6000214 "/>
<polyline class="st1" points="588.4493408,180.8286133 585.4020996,188.5428467 582.3548584,180.8286133 "/>
<line class="st1" x1="460.9729614" y1="275.4571533" x2="460.9729614" y2="97.514267"/>
<polyline class="st15" points="195.3548126,77.4571381 192.8154449,72.3143158 190.2760773,77.4571381 192.8154449,82.6000214 
	195.3548126,77.4571381 "/>
<polygon class="st1" points="195.3548126,77.4571381 192.8154449,72.3143158 190.2760773,77.4571381 192.8154449,82.6000214 "/>
<polyline class="st1" points="464.0202026,267.7429199 460.9729614,275.4571533 457.9257202,267.7429199 "/>
<line class="st1" x1="585.9099731" y1="369.5714722" x2="585.9099731" y2="339.7429199"/>
<polyline class="st15" points="588.4493408,344.8857422 585.9099731,339.7429199 583.3706055,344.8857422 585.9099731,350.0285645 
	588.4493408,344.8857422 "/>
<polygon class="st1" points="588.4493408,344.8857422 585.9099731,339.7429199 583.3706055,344.8857422 585.9099731,350.0285645 "/>
<polyline class="st1" points="588.9572144,361.8571777 585.9099731,369.5714722 582.8627319,361.8571777 "/>
<text transform="matrix(0.85 0 0 1 139.4902344 168.4931641)" class="st2 st4">+waterBodyDetailAttribute</text>
<text transform="matrix(0.85 0 0 1 116.6308594 170.5400391)" class="st2 st4">0..1</text>
<text transform="matrix(0.85 0 0 1 213.1308594 198.8212891)" class="st2 st4">+wtrFacilityIdAttribute</text>
<text transform="matrix(0.85 0 0 1 293.3730469 200.3681641)" class="st2 st4">0..1</text>
<text transform="matrix(0.85 0 0 1 288.8027344 131.9619141)" class="st2 st4">+wtrFacilityTypeAttribute</text>
<text transform="matrix(0.85 0 0 1 375.6464844 133.0009766)" class="st2 st4">0..*</text>
<text transform="matrix(0.85 0 0 1 504.1386719 184.9462891)" class="st2 st4">+wtrDataQualityAttribute</text>
<text transform="matrix(0.85 0 0 1 595.0527344 183.3994141)" class="st2 st4">0..1</text>
<text transform="matrix(0.85 0 0 1 347.7167969 199.3369141)" class="st2 st4">+wtrFacilityAttribute</text>
<text transform="matrix(0.85 0 0 1 425.4199219 198.8212891)" class="st2 st4">0..*</text>
<text transform="matrix(0.85 0 0 1 378.1855469 272.8837891)" class="st2 st4">+wtrKeyValuePairAttribute</text>
<text transform="matrix(0.85 0 0 1 470.1152344 271.8603516)" class="st2 st4">0..*</text>
<text transform="matrix(0.85 0 0 1 470.1152344 361.3369141)" class="st2 st4">+publicSurveyDataQualityAttribute</text>
<text transform="matrix(0.85 0 0 1 595.0527344 362.8837891)" class="st2 st4">0..1</text>
<text transform="matrix(0.85 0 0 1 9.4746094 109.8525391)" class="st2 st4">+wtrDmAttribute</text>
<text transform="matrix(0.85 0 0 1 77.0214844 111.9072266)" class="st2 st4">0..*</text>
</svg>
