<?xml version="1.0" encoding="utf-8"?>
<!-- Generator: Adobe Illustrator 27.4.1, SVG Export Plug-In . SVG Version: 6.00 Build 0)  -->
<svg version="1.1" id="レイヤー_1" xmlns="http://www.w3.org/2000/svg" xmlns:xlink="http://www.w3.org/1999/xlink" x="0px"
	 y="0px" viewBox="0 0 385.3 293.8" style="enable-background:new 0 0 385.3 293.8;" xml:space="preserve">
<style type="text/css">
	.st0{fill-rule:evenodd;clip-rule:evenodd;fill:#CFD1D8;}
	.st1{fill-rule:evenodd;clip-rule:evenodd;fill:#FFFFCC;}
	.st2{fill:none;stroke:#000000;stroke-width:0.8661;stroke-linecap:round;stroke-linejoin:round;stroke-miterlimit:10;}
	.st3{font-family:'YuGothicUI-Regular';}
	.st4{font-size:4.566px;}
	.st5{font-size:4.3307px;}
	.st6{font-family:'YuGothicUI-Bold';}
	.st7{stroke:#000000;stroke-width:0.1237;stroke-miterlimit:10;}
	.st8{fill-rule:evenodd;clip-rule:evenodd;fill:#F0F0F0;}
	.st9{fill:none;stroke:#D7D7D7;stroke-width:0.4331;stroke-linecap:square;stroke-miterlimit:10;}
	.st10{fill-rule:evenodd;clip-rule:evenodd;fill:#CCFFCC;}
	.st11{fill:none;stroke:#000000;stroke-width:0.4331;stroke-linecap:square;stroke-miterlimit:10;}
	.st12{fill:#003060;}
	.st13{fill-rule:evenodd;clip-rule:evenodd;fill:#FFCCFF;}
	.st14{fill:#003060;stroke:#003060;stroke-width:0.198;stroke-miterlimit:10;}
	.st15{font-family:'MS-PGothic';}
	.st16{font-size:6.9291px;}
	.st17{fill:none;stroke:#000000;stroke-width:0.4331;stroke-linecap:round;stroke-linejoin:bevel;stroke-miterlimit:10;}
	.st18{fill:none;stroke:#000000;stroke-width:0.4331;stroke-linejoin:round;stroke-miterlimit:10;}
	.st19{fill:none;stroke:#000000;stroke-width:0.8661;stroke-linecap:round;stroke-linejoin:bevel;stroke-miterlimit:10;}
	.st20{fill-rule:evenodd;clip-rule:evenodd;fill:#FFFFFF;}
	.st21{font-family:'Calibri';}
	.st22{font-size:4.7638px;}
</style>
<path class="st0" d="M279.5,7.3c0.6,0,1.1,0.5,1.1,1.1h0v29.9h0c0,0.6-0.5,1.1-1.1,1.1l0,0h0h-92h0c-0.6,0-1.1-0.5-1.1-1.1h0V8.4
	c0-0.6,0.5-1.1,1.1-1.1l0,0H279.5L279.5,7.3L279.5,7.3z"/>
<path class="st1" d="M278.2,6c0.6,0,1.1,0.5,1.1,1.1h0v29.9h0c0,0.6-0.5,1.1-1.1,1.1l0,0l0,0h-92h0c-0.6,0-1.1-0.5-1.1-1.1h0V7.1
	c0-0.6,0.5-1.1,1.1-1.1l0,0H278.2L278.2,6L278.2,6z"/>
<path class="st2" d="M278.2,6c0.6,0,1.1,0.5,1.1,1.1h0v29.9h0c0,0.6-0.5,1.1-1.1,1.1l0,0l0,0h-92h0c-0.6,0-1.1-0.5-1.1-1.1h0V7.1
	c0-0.6,0.5-1.1,1.1-1.1l0,0H278.2L278.2,6L278.2,6z"/>
<text transform="matrix(0.85 0 -0.3169 0.9485 262.3382 11.6077)" class="st3 st4">_Feature</text>
<text transform="matrix(0.85 0 0 1 218.4954 19.4004)" class="st3 st5">«FeatureType»</text>
<text transform="matrix(0.85 0 0 1 215.886 24.5879)" class="st6 st5">app::Appearance</text>
<line class="st2" x1="185.1" y1="27.6" x2="279.3" y2="27.6"/>
<text transform="matrix(0.85 0 0 1 187.2454 33.6973)" class="st3 st5">+ theme: xs::string [0..1] =  rgbTexture</text>
<path class="st0" d="M141,50.6c0.6,0,1.1,0.5,1.1,1.1h0v27.7l0,0c0,0.6-0.5,1.1-1.1,1.1l0,0l0,0H57.2h0c-0.6,0-1.1-0.5-1.1-1.1h0
	V51.7c0-0.6,0.5-1.1,1.1-1.1l0,0H141L141,50.6L141,50.6z"/>
<path class="st1" d="M139.7,49.3c0.6,0,1.1,0.5,1.1,1.1h0v27.7h0c0,0.6-0.5,1.1-1.1,1.1l0,0h0H55.9h0c-0.6,0-1.1-0.5-1.1-1.1h0V50.4
	c0-0.6,0.5-1.1,1.1-1.1l0,0H139.7L139.7,49.3L139.7,49.3z"/>
<path class="st2" d="M139.7,49.3c0.6,0,1.1,0.5,1.1,1.1h0v27.7h0c0,0.6-0.5,1.1-1.1,1.1l0,0h0H55.9h0c-0.6,0-1.1-0.5-1.1-1.1h0V50.4
	c0-0.6,0.5-1.1,1.1-1.1l0,0H139.7L139.7,49.3L139.7,49.3z"/>
<text transform="matrix(0.85 0 0 1 84.3704 56.2129)" class="st3 st5">«FeatureType»</text>
<text transform="matrix(0.85 0 -0.3169 0.9485 80.903 61.4096)" class="st7 st3 st4">app::_SurfaceData</text>
<line class="st2" x1="54.9" y1="64.4" x2="140.8" y2="64.4"/>
<text transform="matrix(0.85 0 0 1 57.0267 70.502)" class="st3 st5">+ isFront: xs::boolean [0..1] = true</text>
<path class="st0" d="M193.5,119.9c0.6,0,1.1,0.5,1.1,1.1h0v45.5l0,0c0,0.6-0.5,1.1-1.1,1.1l0,0h0h-92.9l0,0c-0.6,0-1.1-0.5-1.1-1.1
	h0V121c0-0.6,0.5-1.1,1.1-1.1l0,0H193.5L193.5,119.9L193.5,119.9z"/>
<path class="st1" d="M192.2,118.6c0.6,0,1.1,0.5,1.1,1.1h0v45.5h0c0,0.6-0.5,1.1-1.1,1.1l0,0h0H99.3h0c-0.6,0-1.1-0.5-1.1-1.1h0
	v-45.5c0-0.6,0.5-1.1,1.1-1.1l0,0H192.2L192.2,118.6L192.2,118.6z"/>
<path class="st2" d="M192.2,118.6c0.6,0,1.1,0.5,1.1,1.1h0v45.5h0c0,0.6-0.5,1.1-1.1,1.1l0,0h0H99.3h0c-0.6,0-1.1-0.5-1.1-1.1h0
	v-45.5c0-0.6,0.5-1.1,1.1-1.1l0,0H192.2L192.2,118.6L192.2,118.6z"/>
<text transform="matrix(0.85 0 0 1 132.1126 125.502)" class="st3 st5">«FeatureType»</text>
<text transform="matrix(0.85 0 -0.3169 0.9485 132.9882 130.6996)" class="st7 st3 st4">app::_Texture</text>
<line class="st2" x1="98.3" y1="133.7" x2="193.3" y2="133.7"/>
<text transform="matrix(0.85 0 0 1 100.4329 139.791)" class="st3 st5">+ imageURI: xs::anyURI</text>
<text transform="matrix(0.85 0 0 1 100.4329 144.9785)" class="st3 st5">+ mimeType: gml::CodeType [0..1]</text>
<text transform="matrix(0.85 0 0 1 100.4329 150.1895)" class="st3 st5">+ textureType: TextureTypeType [0..1]</text>
<text transform="matrix(0.85 0 0 1 100.4329 155.3848)" class="st3 st5">+ wrapMode: WrapModeType [0..1]</text>
<text transform="matrix(0.85 0 0 1 100.4329 160.5801)" class="st3 st5">+ borderColor: ColorPlusOpacity [0..1]</text>
<path class="st0" d="M184.9,180.5c0.6,0,1.1,0.5,1.1,1.1h0v14.7l0,0c0,0.6-0.5,1.1-1.1,1.1c0,0,0,0,0,0h0h-75.5l0,0
	c-0.6,0-1.1-0.5-1.1-1.1h0v-14.7c0-0.6,0.5-1.1,1.1-1.1l0,0H184.9L184.9,180.5L184.9,180.5z"/>
<path class="st1" d="M183.6,179.2c0.6,0,1.1,0.5,1.1,1.1h0V195l0,0c0,0.6-0.5,1.1-1.1,1.1l0,0h0H108l0,0c-0.6,0-1.1-0.5-1.1-1.1h0
	v-14.7c0-0.6,0.5-1.1,1.1-1.1l0,0H183.6L183.6,179.2L183.6,179.2z"/>
<path class="st2" d="M183.6,179.2c0.6,0,1.1,0.5,1.1,1.1h0V195l0,0c0,0.6-0.5,1.1-1.1,1.1l0,0h0H108l0,0c-0.6,0-1.1-0.5-1.1-1.1h0
	v-14.7c0-0.6,0.5-1.1,1.1-1.1l0,0H183.6L183.6,179.2L183.6,179.2z"/>
<text transform="matrix(0.85 0 0 1 132.1126 186.1348)" class="st3 st5">«FeatureType»</text>
<text transform="matrix(0.85 0 0 1 119.5267 191.3301)" class="st6 st5">app::ParameterizedTexture</text>
<path class="st0" d="M189.2,219.5c0.6,0,1.1,0.5,1.1,1.1l0,0V240l0,0c0,0.6-0.5,1.1-1.1,1.1l0,0h0h-79.9h0c-0.6,0-1.1-0.5-1.1-1.1h0
	v-19.5c0-0.6,0.5-1.1,1.1-1.1v0L189.2,219.5L189.2,219.5L189.2,219.5z"/>
<path class="st1" d="M187.9,218.2c0.6,0,1.1,0.5,1.1,1.1l0,0v19.5l0,0c0,0.6-0.5,1.1-1.1,1.1c0,0,0,0,0,0h0H108v0
	c-0.6,0-1.1-0.5-1.1-1.1h0v-19.5c0-0.6,0.5-1.1,1.1-1.1l0,0H187.9L187.9,218.2L187.9,218.2z"/>
<path class="st2" d="M187.9,218.2c0.6,0,1.1,0.5,1.1,1.1l0,0v19.5l0,0c0,0.6-0.5,1.1-1.1,1.1c0,0,0,0,0,0h0H108v0
	c-0.6,0-1.1-0.5-1.1-1.1h0v-19.5c0-0.6,0.5-1.1,1.1-1.1l0,0H187.9L187.9,218.2L187.9,218.2z"/>
<text transform="matrix(0.85 0 0 1 141.2298 225.1113)" class="st3 st5">«Type»</text>
<text transform="matrix(0.85 0 -0.3169 0.9485 117.7949 230.311)" class="st7 st3 st4">app::_TextureParameterization</text>
<path class="st0" d="M212.2,258.5c0.6,0,1.1,0.5,1.1,1.1v0v27.7v0c0,0.6-0.5,1.1-1.1,1.1c0,0,0,0,0,0h0H87.6v0
	c-0.6,0-1.1-0.5-1.1-1.1h0v-27.7c0-0.6,0.5-1.1,1.1-1.1v0L212.2,258.5L212.2,258.5L212.2,258.5z"/>
<path class="st1" d="M210.9,257.2c0.6,0,1.1,0.5,1.1,1.1l0,0V286l0,0c0,0.6-0.5,1.1-1.1,1.1l0,0h0H86.3h0c-0.6,0-1.1-0.5-1.1-1.1h0
	v-27.7c0-0.6,0.5-1.1,1.1-1.1v0L210.9,257.2L210.9,257.2L210.9,257.2z"/>
<path class="st2" d="M210.9,257.2c0.6,0,1.1,0.5,1.1,1.1l0,0V286l0,0c0,0.6-0.5,1.1-1.1,1.1l0,0h0H86.3h0c-0.6,0-1.1-0.5-1.1-1.1h0
	v-27.7c0-0.6,0.5-1.1,1.1-1.1v0L210.9,257.2L210.9,257.2L210.9,257.2z"/>
<text transform="matrix(0.85 0 0 1 142.1048 264.0879)" class="st3 st5">«Type»</text>
<text transform="matrix(0.85 0 0 1 131.2454 269.2754)" class="st6 st5">app::TexCoordList</text>
<line class="st2" x1="85.2" y1="272.3" x2="212" y2="272.3"/>
<text transform="matrix(0.85 0 0 1 87.4095 278.3848)" class="st3 st5">+ textureCoordinates: gml::doubleList [1..*]</text>
<text transform="matrix(0.85 0 0 1 87.4095 283.5723)" class="st3 st5">+ ring: xs::anyURI [1..*]</text>
<path class="st0" d="M263,189.2c0.6,0,1.1,0.5,1.1,1.1v0v32v0c0,0.6-0.5,1.1-1.1,1.1c0,0,0,0,0,0l0,0h-58.2l0,0
	c-0.6,0-1.1-0.5-1.1-1.1h0v-32c0-0.6,0.5-1.1,1.1-1.1l0,0H263L263,189.2L263,189.2z"/>
<path class="st1" d="M261.7,187.9c0.6,0,1.1,0.5,1.1,1.1l0,0v32l0,0c0,0.6-0.5,1.1-1.1,1.1c0,0,0,0,0,0h0h-58.2l0,0
	c-0.6,0-1.1-0.5-1.1-1.1l0,0v-32c0-0.6,0.5-1.1,1.1-1.1v0L261.7,187.9L261.7,187.9L261.7,187.9z"/>
<path class="st2" d="M261.7,187.9c0.6,0,1.1,0.5,1.1,1.1l0,0v32l0,0c0,0.6-0.5,1.1-1.1,1.1c0,0,0,0,0,0h0h-58.2l0,0
	c-0.6,0-1.1-0.5-1.1-1.1l0,0v-32c0-0.6,0.5-1.1,1.1-1.1v0L261.7,187.9L261.7,187.9L261.7,187.9z"/>
<text transform="matrix(0.85 0 0 1 226.3079 194.791)" class="st3 st5">«type»</text>
<text transform="matrix(0.85 0 0 1 208.9407 199.9785)" class="st6 st5">app::TextureAssociation</text>
<line class="st2" x1="202.4" y1="203" x2="262.8" y2="203"/>
<text transform="matrix(0.85 0 0 1 204.6048 209.0879)" class="st3 st5">+ uri: xs::anyURI</text>
<path class="st0" d="M375.8,7.3c0.6,0,1.1,0.5,1.1,1.1h0v32l0,0c0,0.6-0.5,1.1-1.1,1.1l0,0h0H335l0,0c-0.6,0-1.1-0.5-1.1-1.1l0,0
	v-32c0-0.6,0.5-1.1,1.1-1.1l0,0H375.8L375.8,7.3L375.8,7.3z"/>
<path class="st1" d="M374.5,6c0.6,0,1.1,0.5,1.1,1.1h0v32h0c0,0.6-0.5,1.1-1.1,1.1l0,0h0h-40.8h0c-0.6,0-1.1-0.5-1.1-1.1h0v-32
	c0-0.6,0.5-1.1,1.1-1.1l0,0H374.5L374.5,6L374.5,6z"/>
<path class="st2" d="M374.5,6c0.6,0,1.1,0.5,1.1,1.1h0v32h0c0,0.6-0.5,1.1-1.1,1.1l0,0h0h-40.8h0c-0.6,0-1.1-0.5-1.1-1.1h0v-32
	c0-0.6,0.5-1.1,1.1-1.1l0,0H374.5L374.5,6L374.5,6z"/>
<text transform="matrix(0.85 0 -0.3169 0.9485 340.0257 11.6077)" class="st3 st4">_FeatureCollection</text>
<text transform="matrix(0.85 0 0 1 340.4641 19.4004)" class="st3 st5">«FeatureType»</text>
<text transform="matrix(0.85 0 0 1 338.7298 24.5879)" class="st6 st5">core::CityModel</text>
<path class="st0" d="M341.1,202.2c0.6,0,1.1,0.5,1.1,1.1v0v19.5v0c0,0.6-0.5,1.1-1.1,1.1c0,0,0,0,0,0l0,0h-62.5l0,0
	c-0.6,0-1.1-0.5-1.1-1.1h0v-19.5c0-0.6,0.5-1.1,1.1-1.1l0,0H341.1L341.1,202.2L341.1,202.2z"/>
<path class="st1" d="M339.8,200.9c0.6,0,1.1,0.5,1.1,1.1v0v19.5v0c0,0.6-0.5,1.1-1.1,1.1c0,0,0,0,0,0l0,0h-62.5l0,0
	c-0.6,0-1.1-0.5-1.1-1.1l0,0v-19.5c0-0.6,0.5-1.1,1.1-1.1v0L339.8,200.9L339.8,200.9L339.8,200.9z"/>
<path class="st2" d="M339.8,200.9c0.6,0,1.1,0.5,1.1,1.1v0v19.5v0c0,0.6-0.5,1.1-1.1,1.1c0,0,0,0,0,0l0,0h-62.5l0,0
	c-0.6,0-1.1-0.5-1.1-1.1l0,0v-19.5c0-0.6,0.5-1.1,1.1-1.1v0L339.8,200.9L339.8,200.9L339.8,200.9z"/>
<text transform="matrix(0.85 0 0 1 297.0579 207.7832)" class="st3 st5">«BasicType»</text>
<text transform="matrix(0.85 0 0 1 286.636 212.9785)" class="st6 st5">app::ColorPlusOpacity</text>
<path class="st0" d="M342,163.2c0.6,0,1.1,0.5,1.1,1.1v0v18.6l0,0c0,0.6-0.5,1.1-1.1,1.1l0,0l0,0h-63.4h0c-0.6,0-1.1-0.5-1.1-1.1h0
	v-18.6c0-0.6,0.5-1.1,1.1-1.1l0,0H342L342,163.2L342,163.2z"/>
<path class="st1" d="M340.7,161.9c0.6,0,1.1,0.5,1.1,1.1l0,0v18.6l0,0c0,0.6-0.5,1.1-1.1,1.1c0,0,0,0,0,0h0h-63.4l0,0
	c-0.6,0-1.1-0.5-1.1-1.1l0,0V163c0-0.6,0.5-1.1,1.1-1.1v0L340.7,161.9L340.7,161.9L340.7,161.9z"/>
<path class="st2" d="M340.7,161.9c0.6,0,1.1,0.5,1.1,1.1l0,0v18.6l0,0c0,0.6-0.5,1.1-1.1,1.1c0,0,0,0,0,0h0h-63.4l0,0
	c-0.6,0-1.1-0.5-1.1-1.1l0,0V163c0-0.6,0.5-1.1,1.1-1.1v0L340.7,161.9L340.7,161.9L340.7,161.9z"/>
<text transform="matrix(0.85 0 0 1 297.4954 168.8066)" class="st3 st5">«BasicType»</text>
<text transform="matrix(0.85 0 0 1 282.7298 174.0098)" class="st6 st5">core::doubleBetween0and1</text>
<path class="st0" d="M341.1,54.9c0.6,0,1.1,0.5,1.1,1.1l0,0v40.3l0,0c0,0.6-0.5,1.1-1.1,1.1l0,0l0,0h-66.8l0,0
	c-0.6,0-1.1-0.5-1.1-1.1l0,0V56c0-0.6,0.5-1.1,1.1-1.1l0,0H341.1L341.1,54.9L341.1,54.9z"/>
<path class="st1" d="M339.8,53.6c0.6,0,1.1,0.5,1.1,1.1l0,0V95l0,0c0,0.6-0.5,1.1-1.1,1.1c0,0,0,0,0,0l0,0H273v0
	c-0.6,0-1.1-0.5-1.1-1.1l0,0V54.7c0-0.6,0.5-1.1,1.1-1.1l0,0H339.8L339.8,53.6L339.8,53.6z"/>
<path class="st2" d="M339.8,53.6c0.6,0,1.1,0.5,1.1,1.1l0,0V95l0,0c0,0.6-0.5,1.1-1.1,1.1c0,0,0,0,0,0l0,0H273v0
	c-0.6,0-1.1-0.5-1.1-1.1l0,0V54.7c0-0.6,0.5-1.1,1.1-1.1l0,0H339.8L339.8,53.6L339.8,53.6z"/>
<text transform="matrix(0.85 0 0 1 292.2845 60.541)" class="st3 st5">«Enumeration»</text>
<text transform="matrix(0.85 0 0 1 284.9016 65.7441)" class="st6 st5">app::TextureTypeType</text>
<line class="st2" x1="271.9" y1="68.8" x2="340.9" y2="68.8"/>
<text transform="matrix(0.85 0 0 1 274.0501 74.8223)" class="st3 st5"> </text>
<text transform="matrix(0.85 0 0 1 281.4329 74.8223)" class="st3 st5">specific</text>
<text transform="matrix(0.85 0 0 1 274.0501 80.0254)" class="st3 st5"> </text>
<text transform="matrix(0.85 0 0 1 281.4329 80.0254)" class="st3 st5">typical</text>
<text transform="matrix(0.85 0 0 1 274.0501 85.2285)" class="st3 st5"> </text>
<text transform="matrix(0.85 0 0 1 281.4329 85.2285)" class="st3 st5">unknown</text>
<path class="st0" d="M341.1,102.5c0.6,0,1.1,0.5,1.1,1.1l0,0v51.1l0,0c0,0.6-0.5,1.1-1.1,1.1l0,0l0,0h-66.8l0,0
	c-0.6,0-1.1-0.5-1.1-1.1l0,0v-51.1c0-0.6,0.5-1.1,1.1-1.1l0,0H341.1L341.1,102.5L341.1,102.5z"/>
<path class="st1" d="M339.8,101.2c0.6,0,1.1,0.5,1.1,1.1l0,0v51.1l0,0c0,0.6-0.5,1.1-1.1,1.1l0,0l0,0H273l0,0
	c-0.6,0-1.1-0.5-1.1-1.1l0,0v-51.1c0-0.6,0.5-1.1,1.1-1.1l0,0H339.8L339.8,101.2L339.8,101.2z"/>
<path class="st2" d="M339.8,101.2c0.6,0,1.1,0.5,1.1,1.1l0,0v51.1l0,0c0,0.6-0.5,1.1-1.1,1.1l0,0l0,0H273l0,0
	c-0.6,0-1.1-0.5-1.1-1.1l0,0v-51.1c0-0.6,0.5-1.1,1.1-1.1l0,0H339.8L339.8,101.2L339.8,101.2z"/>
<text transform="matrix(0.85 0 0 1 292.2845 108.1738)" class="st3 st5">«Enumeration»</text>
<text transform="matrix(0.85 0 0 1 286.2063 113.3848)" class="st6 st5">app::WrapModeType</text>
<line class="st2" x1="271.9" y1="116.4" x2="340.9" y2="116.4"/>
<text transform="matrix(0.85 0 0 1 274.0501 122.4629)" class="st3 st5"> </text>
<text transform="matrix(0.85 0 0 1 281.4329 122.4629)" class="st3 st5">none</text>
<text transform="matrix(0.85 0 0 1 274.0501 127.666)" class="st3 st5"> </text>
<text transform="matrix(0.85 0 0 1 281.4329 127.666)" class="st3 st5">wrap</text>
<text transform="matrix(0.85 0 0 1 274.0501 132.8613)" class="st3 st5"> </text>
<text transform="matrix(0.85 0 0 1 281.4329 132.8613)" class="st3 st5">mirror</text>
<text transform="matrix(0.85 0 0 1 274.0501 138.0566)" class="st3 st5"> </text>
<text transform="matrix(0.85 0 0 1 281.4329 138.0566)" class="st3 st5">clamp</text>
<text transform="matrix(0.85 0 0 1 274.0501 143.2598)" class="st3 st5"> </text>
<text transform="matrix(0.85 0 0 1 281.4329 143.2598)" class="st3 st5">border</text>
<path class="st8" d="M354.4,244.2c0.7,0,1.3,0.6,1.3,1.3v0v40.3v0c0,0.7-0.6,1.3-1.3,1.3l0,0h0h-72.5l0,0c-0.7,0-1.3-0.6-1.3-1.3
	v-40.3c0-0.7,0.6-1.3,1.3-1.3v0L354.4,244.2L354.4,244.2L354.4,244.2z"/>
<path class="st9" d="M354.4,244.2c0.7,0,1.3,0.6,1.3,1.3v0v40.3v0c0,0.7-0.6,1.3-1.3,1.3l0,0h0h-72.5l0,0c-0.7,0-1.3-0.6-1.3-1.3
	v-40.3c0-0.7,0.6-1.3,1.3-1.3v0L354.4,244.2L354.4,244.2L354.4,244.2z"/>
<path class="st10" d="M290.8,257.2c0.6,0,1.1,0.5,1.1,1.1v0v4.8v0c0,0.6-0.5,1.1-1.1,1.1l0,0l0,0H286l0,0c-0.6,0-1.1-0.5-1.1-1.1
	l0,0v-4.8c0-0.6,0.5-1.1,1.1-1.1v0L290.8,257.2L290.8,257.2L290.8,257.2z"/>
<path class="st11" d="M290.8,257.2c0.6,0,1.1,0.5,1.1,1.1v0v4.8v0c0,0.6-0.5,1.1-1.1,1.1l0,0l0,0H286l0,0c-0.6,0-1.1-0.5-1.1-1.1
	l0,0v-4.8c0-0.6,0.5-1.1,1.1-1.1v0L290.8,257.2L290.8,257.2L290.8,257.2z"/>
<text transform="matrix(0.85 0 0 1 294.4563 262.3457)" class="st12 st3 st5">GMLに定義されたクラス</text>
<path class="st1" d="M290.8,265.4c0.6,0,1.1,0.5,1.1,1.1v0v4.8v0c0,0.6-0.5,1.1-1.1,1.1c0,0,0,0,0,0l0,0H286v0
	c-0.6,0-1.1-0.5-1.1-1.1l0,0v-4.8c0-0.6,0.5-1.1,1.1-1.1v0L290.8,265.4L290.8,265.4L290.8,265.4z"/>
<path class="st11" d="M290.8,265.4c0.6,0,1.1,0.5,1.1,1.1v0v4.8v0c0,0.6-0.5,1.1-1.1,1.1c0,0,0,0,0,0l0,0H286v0
	c-0.6,0-1.1-0.5-1.1-1.1l0,0v-4.8c0-0.6,0.5-1.1,1.1-1.1v0L290.8,265.4L290.8,265.4L290.8,265.4z"/>
<text transform="matrix(0.85 0 0 1 294.4563 270.5801)" class="st12 st3 st5">CityGMLに定義されたクラス</text>
<path class="st13" d="M290.8,273.6c0.6,0,1.1,0.5,1.1,1.1v0v4.8v0c0,0.6-0.5,1.1-1.1,1.1l0,0l0,0H286l0,0c-0.6,0-1.1-0.5-1.1-1.1
	l0,0v-4.8c0-0.6,0.5-1.1,1.1-1.1v0L290.8,273.6L290.8,273.6L290.8,273.6z"/>
<path class="st11" d="M290.8,273.6c0.6,0,1.1,0.5,1.1,1.1v0v4.8v0c0,0.6-0.5,1.1-1.1,1.1l0,0l0,0H286l0,0c-0.6,0-1.1-0.5-1.1-1.1
	l0,0v-4.8c0-0.6,0.5-1.1,1.1-1.1v0L290.8,273.6L290.8,273.6L290.8,273.6z"/>
<text transform="matrix(0.85 0 0 1 294.4563 278.8066)" class="st12 st3 st5">i-URに定義されたクラス</text>
<text transform="matrix(0.85 0 0 1 307.0423 253.252)" class="st14 st15 st16">凡例</text>
<path class="st0" d="M85,119.9c0.6,0,1.1,0.5,1.1,1.1h0v62.4l0,0c0,0.6-0.5,1.1-1.1,1.1c0,0,0,0,0,0h0H9.5l0,0
	c-0.6,0-1.1-0.5-1.1-1.1l0,0V121c0-0.6,0.5-1.1,1.1-1.1l0,0H85L85,119.9L85,119.9z"/>
<path class="st1" d="M83.7,118.6c0.6,0,1.1,0.5,1.1,1.1h0V182h0c0,0.6-0.5,1.1-1.1,1.1l0,0h0H8.2h0c-0.6,0-1.1-0.5-1.1-1.1h0v-62.4
	c0-0.6,0.5-1.1,1.1-1.1l0,0H83.7L83.7,118.6L83.7,118.6z"/>
<path class="st2" d="M83.7,118.6c0.6,0,1.1,0.5,1.1,1.1h0V182h0c0,0.6-0.5,1.1-1.1,1.1l0,0h0H8.2h0c-0.6,0-1.1-0.5-1.1-1.1h0v-62.4
	c0-0.6,0.5-1.1,1.1-1.1l0,0H83.7L83.7,118.6L83.7,118.6z"/>
<text transform="matrix(0.85 0 0 1 32.2845 125.502)" class="st3 st5">«FeatureType»</text>
<text transform="matrix(0.85 0 0 1 29.2454 130.7051)" class="st6 st5">app::X3DMaterial</text>
<line class="st2" x1="7.1" y1="133.7" x2="84.8" y2="133.7"/>
<text transform="matrix(0.85 0 0 1 9.2767 139.791)" class="st3 st5">+ ambientIntensity: xs::double [0..1]</text>
<text transform="matrix(0.85 0 0 1 9.2767 144.9785)" class="st3 st5">+ diffuseColor: gml::doubleList [0..1]</text>
<text transform="matrix(0.85 0 0 1 9.2767 150.1895)" class="st3 st5">+ emissiveColor: gml::doubleList [0..1]</text>
<text transform="matrix(0.85 0 0 1 9.2767 155.3848)" class="st3 st5">+ specularColor: gml::doubleList [0..1]</text>
<text transform="matrix(0.85 0 0 1 9.2767 160.5801)" class="st3 st5">+ shininess: xs::double [0..1]</text>
<text transform="matrix(0.85 0 0 1 9.2767 165.7832)" class="st3 st5">+ transparency: xs::double [0..1]</text>
<text transform="matrix(0.85 0 0 1 9.2767 170.9785)" class="st3 st5">+ isSmooth: xs::boolean [0..1]</text>
<text transform="matrix(0.85 0 0 1 9.2767 176.1738)" class="st3 st5">+ target: xs::anyURI [0..*]</text>
<line class="st17" x1="149.9" y1="206.9" x2="149.9" y2="207.8"/>
<path class="st18" d="M149.9,207.4h3 M154.7,207.4h3 M159.5,207.4h3 M164.2,207.4h3 M169,206.9h3 M173.8,206.9h3 M178.6,206.9h3
	 M183.3,206.9l3-0.4 M188.1,206.5h3 M192.9,206.5h3 M197.7,206.5h3"/>
<line class="st19" x1="146" y1="118.1" x2="146" y2="101.2"/>
<line class="st19" x1="146" y1="101.2" x2="97.8" y2="101.2"/>
<line class="st19" x1="97.8" y1="101.2" x2="97.8" y2="80"/>
<polyline class="st20" points="100.4,87 95.2,87 97.8,80 100.4,87 "/>
<polygon class="st19" points="100.4,87 95.2,87 97.8,80 "/>
<line class="st19" x1="149.9" y1="197" x2="149.9" y2="217.7"/>
<polyline class="st20" points="152.1,201.3 149.9,197 147.7,201.3 149.9,205.6 152.1,201.3 "/>
<polygon class="st19" points="152.1,201.3 149.9,197 147.7,201.3 149.9,205.6 "/>
<path class="st19" d="M149.9,217.7l-2.6-6.5 M149.9,217.7l2.6-6.5"/>
<line class="st19" x1="150.3" y1="178.8" x2="150.3" y2="167.1"/>
<polyline class="st20" points="153,174 147.7,174 150.3,167.1 153,174 "/>
<polygon class="st19" points="153,174 147.7,174 150.3,167.1 "/>
<line class="st19" x1="150.8" y1="256.7" x2="150.8" y2="240.7"/>
<polyline class="st20" points="153.4,247.6 148.2,247.6 150.8,240.7 153.4,247.6 "/>
<polygon class="st19" points="153.4,247.6 148.2,247.6 150.8,240.7 "/>
<line class="st19" x1="280.1" y1="19.4" x2="332.2" y2="19.4"/>
<polyline class="st20" points="327.9,21.6 332.2,19.4 327.9,17.2 323.5,19.4 327.9,21.6 "/>
<polygon class="st19" points="327.9,21.6 332.2,19.4 327.9,17.2 323.5,19.4 "/>
<path class="st19" d="M280.1,19.4l6.5,2.6 M280.1,19.4l6.5-2.6"/>
<line class="st19" x1="232.4" y1="38.5" x2="232.4" y2="64.4"/>
<line class="st19" x1="232.4" y1="64.4" x2="141.2" y2="64.4"/>
<polyline class="st20" points="234.6,42.8 232.4,38.5 230.2,42.8 232.4,47.1 234.6,42.8 "/>
<polygon class="st19" points="234.6,42.8 232.4,38.5 230.2,42.8 232.4,47.1 "/>
<path class="st19" d="M141.2,64.4l6.5-2.6 M141.2,64.4l6.5,2.6"/>
<line class="st19" x1="308.8" y1="200.4" x2="308.8" y2="183.5"/>
<polyline class="st20" points="311.4,190.5 306.2,190.5 308.8,183.5 311.4,190.5 "/>
<polygon class="st19" points="311.4,190.5 306.2,190.5 308.8,183.5 "/>
<line class="st19" x1="45.3" y1="118.1" x2="45.3" y2="101.2"/>
<line class="st19" x1="45.3" y1="101.2" x2="97.8" y2="101.2"/>
<line class="st17" x1="149.9" y1="207.4" x2="149.9" y2="207.4"/>
<path class="st18" d="M149.9,207.4h3 M154.7,207.4h3 M159.5,207.4h3 M164.2,207.4h3 M169,206.9h3 M173.8,206.9h3 M178.6,206.9h3
	 M183.3,206.9l3-0.4 M188.1,206.5h3 M192.9,206.5h3 M197.7,206.5h3"/>
<polyline class="st20" points="0.6,694.4 0.6,707.4 98.5,707.4 98.5,694.4 0.6,694.4 "/>
<text transform="matrix(0.85 0 0 1 165.097 71.3691)" class="st21 st22">+surfaceDataMember</text>
<polyline class="st20" points="0.6,694.4 0.6,707.4 17.2,707.4 17.2,694.4 0.6,694.4 "/>
<text transform="matrix(0.85 0 0 1 149.0423 70.502)" class="st21 st22">0..*</text>
<polyline class="st20" points="0.6,694.4 0.6,707.4 33.2,707.4 33.2,694.4 0.6,694.4 "/>
<text transform="matrix(0.85 0 0 1 125.6048 212.9785)" class="st21 st22">+target</text>
<polyline class="st20" points="0.6,694.4 0.6,707.4 17.2,707.4 17.2,694.4 0.6,694.4 "/>
<text transform="matrix(0.85 0 0 1 162.0579 213.8535)" class="st21 st22">0..*</text>
<polyline class="st20" points="0.6,694.4 0.6,707.4 97.4,707.4 97.4,694.4 0.6,694.4 "/>
<text transform="matrix(0.85 0 0 1 281.4251 15.9395)" class="st21 st22">+appearanceMember</text>
<polyline class="st20" points="0.6,694.4 0.6,707.4 17.2,707.4 17.2,694.4 0.6,694.4 "/>
<text transform="matrix(0.85 0 0 1 294.011 27.1895)" class="st21 st22">0..*</text>
</svg>
