<?xml version="1.0" encoding="utf-8"?>
<!-- Generator: Adobe Illustrator 27.4.1, SVG Export Plug-In . SVG Version: 6.00 Build 0)  -->
<svg version="1.1" id="レイヤー_1" xmlns="http://www.w3.org/2000/svg" xmlns:xlink="http://www.w3.org/1999/xlink" x="0px"
	 y="0px" viewBox="0 0 833.9 755" style="enable-background:new 0 0 833.9 755;" xml:space="preserve">
<style type="text/css">
	.st0{fill-rule:evenodd;clip-rule:evenodd;fill:#F0F0F0;}
	.st1{fill:none;stroke:#D7D7D7;stroke-width:0.8662;stroke-linecap:square;stroke-miterlimit:10;}
	.st2{fill-rule:evenodd;clip-rule:evenodd;fill:#CCFFCC;}
	.st3{fill:none;stroke:#000000;stroke-width:0.8662;stroke-linecap:square;stroke-miterlimit:10;}
	.st4{fill:#003060;}
	.st5{font-family:'YuGothicUI-Regular';}
	.st6{font-size:11.2598px;}
	.st7{fill-rule:evenodd;clip-rule:evenodd;fill:#FFFFCC;}
	.st8{fill-rule:evenodd;clip-rule:evenodd;fill:#FFCCFF;}
	.st9{font-family:'MS-PGothic';}
	.st10{font-size:13.8582px;}
	.st11{fill:none;stroke:#003060;stroke-width:0.396;stroke-miterlimit:10;}
	.st12{fill-rule:evenodd;clip-rule:evenodd;fill:#CFD1D8;}
	.st13{fill:none;stroke:#000000;stroke-width:1.7322;stroke-linecap:round;stroke-linejoin:round;stroke-miterlimit:10;}
	.st14{font-size:8.6614px;}
	.st15{font-family:'YuGothicUI-Bold';}
	.st16{font-size:9.1328px;}
	.st17{fill:none;stroke:#000000;stroke-width:0.2474;stroke-miterlimit:10;}
	.st18{font-family:'Calibri';}
	.st19{font-size:9.5276px;}
	.st20{font-family:'Calibri-BoldItalic';}
	.st21{font-family:'Calibri-Bold';}
	.st22{fill:none;stroke:#000000;stroke-width:1.7322;stroke-linecap:round;stroke-linejoin:bevel;stroke-miterlimit:10;}
	.st23{fill-rule:evenodd;clip-rule:evenodd;fill:#FFFFFF;}
	.st24{fill-rule:evenodd;clip-rule:evenodd;}
</style>
<path class="st0" d="M220.3,68.3c1.4,0,2.6,1.2,2.6,2.6l0,0v97.9l0,0c0,1.4-1.2,2.6-2.6,2.6l0,0l0,0H63.2l0,0
	c-1.4,0-2.6-1.2-2.6-2.6V70.9c0-1.4,1.2-2.6,2.6-2.6l0,0H220.3L220.3,68.3L220.3,68.3z"/>
<path class="st1" d="M220.3,68.3c1.4,0,2.6,1.2,2.6,2.6l0,0v97.9l0,0c0,1.4-1.2,2.6-2.6,2.6l0,0l0,0H63.2l0,0
	c-1.4,0-2.6-1.2-2.6-2.6V70.9c0-1.4,1.2-2.6,2.6-2.6l0,0H220.3L220.3,68.3L220.3,68.3z"/>
<path class="st2" d="M81,94.3c1.2,0,2.2,1,2.2,2.2l0,0v9.5l0,0c0,1.2-1,2.2-2.2,2.2l0,0l0,0h-9.5l0,0c-1.2,0-2.2-1-2.2-2.2l0,0v-9.5
	c0-1.2,1-2.2,2.2-2.2l0,0H81L81,94.3L81,94.3z"/>
<path class="st3" d="M81,94.3c1.2,0,2.2,1,2.2,2.2l0,0v9.5l0,0c0,1.2-1,2.2-2.2,2.2l0,0l0,0h-9.5l0,0c-1.2,0-2.2-1-2.2-2.2l0,0v-9.5
	c0-1.2,1-2.2,2.2-2.2l0,0H81L81,94.3L81,94.3z"/>
<text transform="matrix(0.85 0 0 1 88.3579 106.4211)" class="st4 st5 st6">GMLに定義されたクラス</text>
<path class="st7" d="M81,110.7c1.2,0,2.2,1,2.2,2.2l0,0v9.5l0,0c0,1.2-1,2.2-2.2,2.2l0,0l0,0h-9.5l0,0c-1.2,0-2.2-1-2.2-2.2l0,0
	v-9.5c0-1.2,1-2.2,2.2-2.2l0,0H81L81,110.7L81,110.7z"/>
<path class="st3" d="M81,110.7c1.2,0,2.2,1,2.2,2.2l0,0v9.5l0,0c0,1.2-1,2.2-2.2,2.2l0,0l0,0h-9.5l0,0c-1.2,0-2.2-1-2.2-2.2l0,0
	v-9.5c0-1.2,1-2.2,2.2-2.2l0,0H81L81,110.7L81,110.7z"/>
<text transform="matrix(0.85 0 0 1 88.3579 122.8732)" class="st4 st5 st6">CityGMLに定義されたクラス</text>
<path class="st8" d="M81,127.2c1.2,0,2.2,1,2.2,2.2l0,0v9.5l0,0c0,1.2-1,2.2-2.2,2.2l0,0l0,0h-9.5l0,0c-1.2,0-2.2-1-2.2-2.2l0,0
	v-9.5c0-1.2,1-2.2,2.2-2.2l0,0H81L81,127.2L81,127.2z"/>
<path class="st3" d="M81,127.2c1.2,0,2.2,1,2.2,2.2l0,0v9.5l0,0c0,1.2-1,2.2-2.2,2.2l0,0l0,0h-9.5l0,0c-1.2,0-2.2-1-2.2-2.2l0,0
	v-9.5c0-1.2,1-2.2,2.2-2.2l0,0H81L81,127.2L81,127.2z"/>
<text transform="matrix(0.85 0 0 1 88.3579 139.3273)" class="st4 st5 st6">i-URに定義されたクラス</text>
<text transform="matrix(0.85 0 0 1 127.436 86.4836)" class="st4 st9 st10">凡例</text>
<text transform="matrix(0.85 0 0 1 127.436 86.4836)" class="st11 st9 st10">凡例</text>
<path class="st12" d="M463.8,669.4c1.2,0,2.2,1,2.2,2.2l0,0v56.3l0,0c0,1.2-1,2.2-2.2,2.2l0,0l0,0H230.3l0,0c-1.2,0-2.2-1-2.2-2.2
	l0,0v-56.3c0-1.2,1-2.2,2.2-2.2l0,0H463.8L463.8,669.4L463.8,669.4z"/>
<path class="st8" d="M461.2,666.8c1.2,0,2.2,1,2.2,2.2l0,0v56.3l0,0c0,1.2-1,2.2-2.2,2.2l0,0l0,0H227.7l0,0c-1.2,0-2.2-1-2.2-2.2
	l0,0V669c0-1.2,1-2.2,2.2-2.2l0,0H461.2L461.2,666.8L461.2,666.8z"/>
<path class="st13" d="M461.2,666.8c1.2,0,2.2,1,2.2,2.2l0,0v56.3l0,0c0,1.2-1,2.2-2.2,2.2l0,0l0,0H227.7l0,0c-1.2,0-2.2-1-2.2-2.2
	l0,0V669c0-1.2,1-2.2,2.2-2.2l0,0H461.2L461.2,666.8L461.2,666.8z"/>
<text transform="matrix(0.85 0 0 1 322.7642 680.6711)" class="st5 st14">«DataType»</text>
<text transform="matrix(0.85 0 0 1 301.9204 691.0783)" class="st15 st14">uro::IfcBuildingStorey</text>
<line class="st13" x1="225.5" y1="697.1" x2="463.4" y2="697.1"/>
<text transform="matrix(0.85 0 0 1 229.8735 709.2336)" class="st5 st14">+ elevation: gml::LengthType [0..1]</text>
<path class="st12" d="M173,617.4c1.2,0,2.2,1,2.2,2.2l0,0V675l0,0c0,1.2-1,2.2-2.2,2.2l0,0l0,0H30.6l0,0c-1.2,0-2.2-1-2.2-2.2l0,0
	v-55.4c0-1.2,1-2.2,2.2-2.2l0,0L173,617.4L173,617.4L173,617.4z"/>
<path class="st8" d="M170.4,614.8c1.2,0,2.2,1,2.2,2.2l0,0v55.4l0,0c0,1.2-1,2.2-2.2,2.2l0,0l0,0H28l0,0c-1.2,0-2.2-1-2.2-2.2l0,0
	V617c0-1.2,1-2.2,2.2-2.2l0,0H170.4L170.4,614.8L170.4,614.8z"/>
<path class="st13" d="M170.4,614.8c1.2,0,2.2,1,2.2,2.2l0,0v55.4l0,0c0,1.2-1,2.2-2.2,2.2l0,0l0,0H28l0,0c-1.2,0-2.2-1-2.2-2.2l0,0
	V617c0-1.2,1-2.2,2.2-2.2l0,0H170.4L170.4,614.8L170.4,614.8z"/>
<text transform="matrix(0.85 0 0 1 70.9985 628.7033)" class="st5 st14">«enumeration»</text>
<text transform="matrix(0.85 0 0 1 32.811 639.0783)" class="st15 st14">uro::IfcElementCompositionEnum</text>
<path class="st12" d="M502.9,28.5c1.2,0,2.2,1,2.2,2.2l0,0v103.1l0,0c0,1.2-1,2.2-2.2,2.2l0,0l0,0H325.8l0,0c-1.2,0-2.2-1-2.2-2.2
	l0,0V30.6c0-1.2,1-2.2,2.2-2.2l0,0h177.1V28.5L502.9,28.5z"/>
<path class="st7" d="M500.3,25.9c1.2,0,2.2,1,2.2,2.2l0,0v103.1l0,0c0,1.2-1,2.2-2.2,2.2l0,0l0,0H323.2l0,0c-1.2,0-2.2-1-2.2-2.2
	l0,0V28c0-1.2,1-2.2,2.2-2.2l0,0L500.3,25.9L500.3,25.9L500.3,25.9z"/>
<path class="st13" d="M500.3,25.9c1.2,0,2.2,1,2.2,2.2l0,0v103.1l0,0c0,1.2-1,2.2-2.2,2.2l0,0l0,0H323.2l0,0c-1.2,0-2.2-1-2.2-2.2
	l0,0V28c0-1.2,1-2.2,2.2-2.2l0,0L500.3,25.9L500.3,25.9L500.3,25.9z"/>
<text transform="matrix(0.85 0 -0.3169 0.9485 457.307 37.1377)" class="st5 st16">_CityObject</text>
<text transform="matrix(0.85 0 0 1 384.3892 52.718)" class="st5 st14">«FeatureType»</text>
<text transform="matrix(0.85 0 0 1 369.6392 63.1086)" class="st15 st14">grp::CityObjectGroup</text>
<line class="st13" x1="321" y1="69.2" x2="502.5" y2="69.2"/>
<text transform="matrix(0.85 0 0 1 325.3579 81.3117)" class="st5 st14">+ class: gml::CodeType [0..1]</text>
<text transform="matrix(0.85 0 0 1 325.3579 91.7023)" class="st5 st14">+ function: gml::CodeType [0..*]</text>
<text transform="matrix(0.85 0 0 1 325.3579 102.093)" class="st5 st14">+ usage: gml::CodeType [0..*]</text>
<path class="st12" d="M364,219c1.2,0,2.2,1,2.2,2.2l0,0v64.1l0,0c0,1.2-1,2.2-2.2,2.2l0,0l0,0h-81.6l0,0c-1.2,0-2.2-1-2.2-2.2l0,0
	v-64.1c0-1.2,1-2.2,2.2-2.2l0,0L364,219L364,219L364,219z"/>
<path class="st8" d="M361.4,216.4c1.2,0,2.2,1,2.2,2.2l0,0v64.1l0,0c0,1.2-1,2.2-2.2,2.2l0,0l0,0h-81.6l0,0c-1.2,0-2.2-1-2.2-2.2
	l0,0v-64.1c0-1.2,1-2.2,2.2-2.2l0,0L361.4,216.4L361.4,216.4L361.4,216.4z"/>
<path class="st13" d="M361.4,216.4c1.2,0,2.2,1,2.2,2.2l0,0v64.1l0,0c0,1.2-1,2.2-2.2,2.2l0,0l0,0h-81.6l0,0c-1.2,0-2.2-1-2.2-2.2
	l0,0v-64.1c0-1.2,1-2.2,2.2-2.2l0,0L361.4,216.4L361.4,216.4L361.4,216.4z"/>
<text transform="matrix(0.85 0 0 1 298.4517 230.2805)" class="st5 st14">«DataType»</text>
<g>
	<text transform="matrix(0.85 0 -0.3169 0.9485 288.9069 240.659)" class="st5 st16">u</text>
	<text transform="matrix(0.85 0 -0.3169 0.9485 288.9069 240.659)" class="st17 st5 st16">u</text>
	<text transform="matrix(0.85 0 -0.3169 0.9485 294.1139 240.659)" class="st5 st16">r</text>
	<text transform="matrix(0.85 0 -0.3169 0.9485 294.1139 240.659)" class="st17 st5 st16">r</text>
	<text transform="matrix(0.85 0 -0.3169 0.9485 297.5846 240.659)" class="st5 st16">o</text>
	<text transform="matrix(0.85 0 -0.3169 0.9485 297.5846 240.659)" class="st17 st5 st16">o</text>
	<text transform="matrix(0.85 0 -0.3169 0.9485 302.7917 240.659)" class="st5 st16">:</text>
	<text transform="matrix(0.85 0 -0.3169 0.9485 302.7917 240.659)" class="st17 st5 st16">:</text>
	<text transform="matrix(0.85 0 -0.3169 0.9485 304.5358 240.659)" class="st5 st16">:</text>
	<text transform="matrix(0.85 0 -0.3169 0.9485 304.5358 240.659)" class="st17 st5 st16">:</text>
	<text transform="matrix(0.85 0 -0.3169 0.9485 306.278 240.659)" class="st5 st16">I</text>
	<text transform="matrix(0.85 0 -0.3169 0.9485 306.278 240.659)" class="st17 st5 st16">I</text>
	<text transform="matrix(0.85 0 -0.3169 0.9485 308.8756 240.659)" class="st5 st16">f</text>
	<text transform="matrix(0.85 0 -0.3169 0.9485 308.8756 240.659)" class="st17 st5 st16">f</text>
	<text transform="matrix(0.85 0 -0.3169 0.9485 311.4889 240.659)" class="st5 st16">c</text>
	<text transform="matrix(0.85 0 -0.3169 0.9485 311.4889 240.659)" class="st17 st5 st16">c</text>
	<text transform="matrix(0.85 0 -0.3169 0.9485 315.8288 240.659)" class="st5 st16">A</text>
	<text transform="matrix(0.85 0 -0.3169 0.9485 315.8288 240.659)" class="st17 st5 st16">A</text>
	<text transform="matrix(0.85 0 -0.3169 0.9485 321.8952 240.659)" class="st5 st16">t</text>
	<text transform="matrix(0.85 0 -0.3169 0.9485 321.8952 240.659)" class="st17 st5 st16">t</text>
	<text transform="matrix(0.85 0 -0.3169 0.9485 325.3678 240.659)" class="st5 st16">t</text>
	<text transform="matrix(0.85 0 -0.3169 0.9485 325.3678 240.659)" class="st17 st5 st16">t</text>
	<text transform="matrix(0.85 0 -0.3169 0.9485 328.8385 240.659)" class="st5 st16">r</text>
	<text transform="matrix(0.85 0 -0.3169 0.9485 328.8385 240.659)" class="st17 st5 st16">r</text>
	<text transform="matrix(0.85 0 -0.3169 0.9485 332.3073 240.659)" class="st5 st16">i</text>
	<text transform="matrix(0.85 0 -0.3169 0.9485 332.3073 240.659)" class="st17 st5 st16">i</text>
	<text transform="matrix(0.85 0 -0.3169 0.9485 334.9049 240.659)" class="st5 st16">b</text>
	<text transform="matrix(0.85 0 -0.3169 0.9485 334.9049 240.659)" class="st17 st5 st16">b</text>
	<text transform="matrix(0.85 0 -0.3169 0.9485 340.1139 240.659)" class="st5 st16">u</text>
	<text transform="matrix(0.85 0 -0.3169 0.9485 340.1139 240.659)" class="st17 st5 st16">u</text>
	<text transform="matrix(0.85 0 -0.3169 0.9485 345.321 240.659)" class="st5 st16">t</text>
	<text transform="matrix(0.85 0 -0.3169 0.9485 345.321 240.659)" class="st17 st5 st16">t</text>
	<text transform="matrix(0.85 0 -0.3169 0.9485 348.7917 240.659)" class="st5 st16">e</text>
	<text transform="matrix(0.85 0 -0.3169 0.9485 348.7917 240.659)" class="st17 st5 st16">e</text>
</g>
<path class="st12" d="M399.6,323c1.2,0,2.2,1,2.2,2.2l0,0v74.5l0,0c0,1.2-1,2.2-2.2,2.2l0,0l0,0H239l0,0c-1.2,0-2.2-1-2.2-2.2l0,0
	v-74.5c0-1.2,1-2.2,2.2-2.2l0,0H399.6L399.6,323L399.6,323z"/>
<path class="st8" d="M397,320.4c1.2,0,2.2,1,2.2,2.2l0,0V397l0,0c0,1.2-1,2.2-2.2,2.2l0,0l0,0H236.4l0,0c-1.2,0-2.2-1-2.2-2.2l0,0
	v-74.5c0-1.2,1-2.2,2.2-2.2l0,0H397V320.4L397,320.4z"/>
<path class="st13" d="M397,320.4c1.2,0,2.2,1,2.2,2.2l0,0V397l0,0c0,1.2-1,2.2-2.2,2.2l0,0l0,0H236.4l0,0c-1.2,0-2.2-1-2.2-2.2l0,0
	v-74.5c0-1.2,1-2.2,2.2-2.2l0,0H397V320.4L397,320.4z"/>
<text transform="matrix(0.85 0 0 1 294.9829 334.2023)" class="st5 st14">«DataType»</text>
<g>
	<text transform="matrix(0.85 0 -0.3169 0.9485 294.1174 344.6046)" class="st5 st16">u</text>
	<text transform="matrix(0.85 0 -0.3169 0.9485 294.1174 344.6046)" class="st17 st5 st16">u</text>
	<text transform="matrix(0.85 0 -0.3169 0.9485 299.3245 344.6046)" class="st5 st16">r</text>
	<text transform="matrix(0.85 0 -0.3169 0.9485 299.3245 344.6046)" class="st17 st5 st16">r</text>
	<text transform="matrix(0.85 0 -0.3169 0.9485 302.7952 344.6046)" class="st5 st16">o</text>
	<text transform="matrix(0.85 0 -0.3169 0.9485 302.7952 344.6046)" class="st17 st5 st16">o</text>
	<text transform="matrix(0.85 0 -0.3169 0.9485 308.0022 344.6046)" class="st5 st16">:</text>
	<text transform="matrix(0.85 0 -0.3169 0.9485 308.0022 344.6046)" class="st17 st5 st16">:</text>
	<text transform="matrix(0.85 0 -0.3169 0.9485 309.7463 344.6046)" class="st5 st16">:</text>
	<text transform="matrix(0.85 0 -0.3169 0.9485 309.7463 344.6046)" class="st17 st5 st16">:</text>
	<text transform="matrix(0.85 0 -0.3169 0.9485 311.4885 344.6046)" class="st5 st16">I</text>
	<text transform="matrix(0.85 0 -0.3169 0.9485 311.4885 344.6046)" class="st17 st5 st16">I</text>
	<text transform="matrix(0.85 0 -0.3169 0.9485 314.0862 344.6046)" class="st5 st16">f</text>
	<text transform="matrix(0.85 0 -0.3169 0.9485 314.0862 344.6046)" class="st17 st5 st16">f</text>
	<text transform="matrix(0.85 0 -0.3169 0.9485 316.6995 344.6046)" class="st5 st16">c</text>
	<text transform="matrix(0.85 0 -0.3169 0.9485 316.6995 344.6046)" class="st17 st5 st16">c</text>
	<text transform="matrix(0.85 0 -0.3169 0.9485 321.0393 344.6046)" class="st5 st16">R</text>
	<text transform="matrix(0.85 0 -0.3169 0.9485 321.0393 344.6046)" class="st17 st5 st16">R</text>
	<text transform="matrix(0.85 0 -0.3169 0.9485 326.2405 344.6046)" class="st5 st16">o</text>
	<text transform="matrix(0.85 0 -0.3169 0.9485 326.2405 344.6046)" class="st17 st5 st16">o</text>
	<text transform="matrix(0.85 0 -0.3169 0.9485 331.4573 344.6046)" class="st5 st16">o</text>
	<text transform="matrix(0.85 0 -0.3169 0.9485 331.4573 344.6046)" class="st17 st5 st16">o</text>
	<text transform="matrix(0.85 0 -0.3169 0.9485 336.6741 344.6046)" class="st5 st16">t</text>
	<text transform="matrix(0.85 0 -0.3169 0.9485 336.6741 344.6046)" class="st17 st5 st16">t</text>
</g>
<line class="st13" x1="234.2" y1="350.7" x2="399.2" y2="350.7"/>
<text transform="matrix(0.85 0 0 1 238.5454 362.7961)" class="st5 st14">+ globalId: xs::string [0..1]</text>
<text transform="matrix(0.85 0 0 1 238.5454 373.1867)" class="st5 st14">+ name: xs::string [0..1]</text>
<text transform="matrix(0.85 0 0 1 238.5454 383.5773)" class="st5 st14">+ description: xs::string [0..1]</text>
<path class="st12" d="M537.6,331.6c1.2,0,2.2,1,2.2,2.2l0,0v64.1l0,0c0,1.2-1,2.2-2.2,2.2l0,0l0,0H456l0,0c-1.2,0-2.2-1-2.2-2.2l0,0
	v-64.1c0-1.2,1-2.2,2.2-2.2l0,0H537.6L537.6,331.6L537.6,331.6z"/>
<path class="st8" d="M535,329c1.2,0,2.2,1,2.2,2.2l0,0v64.1l0,0c0,1.2-1,2.2-2.2,2.2l0,0l0,0h-81.6l0,0c-1.2,0-2.2-1-2.2-2.2l0,0
	v-64.1c0-1.2,1-2.2,2.2-2.2l0,0H535L535,329L535,329z"/>
<path class="st13" d="M535,329c1.2,0,2.2,1,2.2,2.2l0,0v64.1l0,0c0,1.2-1,2.2-2.2,2.2l0,0l0,0h-81.6l0,0c-1.2,0-2.2-1-2.2-2.2l0,0
	v-64.1c0-1.2,1-2.2,2.2-2.2l0,0H535L535,329L535,329z"/>
<text transform="matrix(0.85 0 0 1 469.4668 342.8732)" class="st18 st19">«DataType»</text>
<text transform="matrix(0.85 0 0 1 485.0918 354.1232)" class="st20 st19">uro::</text>
<text transform="matrix(0.85 0 0 1 -7775.0044 -7809.9541)" class="st20" style="font-size:4.7638px;">i</text>
<text transform="matrix(0.85 0 0 1 -7775.0044 -7809.9541)" class="st20" style="font-size:4.7638px;">i</text>
<text transform="matrix(0.85 0 0 1 456.4512 365.3889)" class="st20 st19">IfcObjectDefinition</text>
<path class="st12" d="M563.7,435.6c1.2,0,2.2,1,2.2,2.2l0,0v64.1l0,0c0,1.2-1,2.2-2.2,2.2l0,0l0,0H403.9l0,0c-1.2,0-2.2-1-2.2-2.2
	l0,0v-64.1c0-1.2,1-2.2,2.2-2.2l0,0H563.7L563.7,435.6L563.7,435.6z"/>
<path class="st8" d="M561.1,433c1.2,0,2.2,1,2.2,2.2l0,0v64.1l0,0c0,1.2-1,2.2-2.2,2.2l0,0l0,0H401.3l0,0c-1.2,0-2.2-1-2.2-2.2l0,0
	v-64.1c0-1.2,1-2.2,2.2-2.2l0,0H561.1L561.1,433L561.1,433z"/>
<path class="st13" d="M561.1,433c1.2,0,2.2,1,2.2,2.2l0,0v64.1l0,0c0,1.2-1,2.2-2.2,2.2l0,0l0,0H401.3l0,0c-1.2,0-2.2-1-2.2-2.2l0,0
	v-64.1c0-1.2,1-2.2,2.2-2.2l0,0H561.1L561.1,433L561.1,433z"/>
<text transform="matrix(0.85 0 0 1 456.4512 446.8273)" class="st18 st19">«DataType»</text>
<text transform="matrix(0.85 0 0 1 453.8418 458.0773)" class="st20 st19">uro::IfcObject</text>
<line class="st13" x1="399.2" y1="465" x2="563.2" y2="465"/>
<text transform="matrix(0.85 0 0 1 403.4985 477.1398)" class="st18 st19">+ objectType: xs::string [0..1]</text>
<path class="st12" d="M455.1,565.5c1.2,0,2.2,1,2.2,2.2l0,0v64.1l0,0c0,1.2-1,2.2-2.2,2.2l0,0l0,0H221.6l0,0c-1.2,0-2.2-1-2.2-2.2
	l0,0v-64.1c0-1.2,1-2.2,2.2-2.2l0,0H455.1L455.1,565.5L455.1,565.5z"/>
<path class="st8" d="M452.5,562.9c1.2,0,2.2,1,2.2,2.2l0,0v64.1l0,0c0,1.2-1,2.2-2.2,2.2l0,0l0,0H219l0,0c-1.2,0-2.2-1-2.2-2.2l0,0
	V565c0-1.2,1-2.2,2.2-2.2l0,0h233.5V562.9L452.5,562.9z"/>
<path class="st13" d="M452.5,562.9c1.2,0,2.2,1,2.2,2.2l0,0v64.1l0,0c0,1.2-1,2.2-2.2,2.2l0,0l0,0H219l0,0c-1.2,0-2.2-1-2.2-2.2l0,0
	V565c0-1.2,1-2.2,2.2-2.2l0,0h233.5V562.9L452.5,562.9z"/>
<text transform="matrix(0.85 0 0 1 311.4673 576.7336)" class="st18 st19">«DataType»</text>
<text transform="matrix(0.85 0 0 1 -7775.0044 -7809.9541)" class="st21" style="font-size:4.7638px;">i</text>
<text transform="matrix(0.85 0 0 1 272.4048 587.9836)" class="st21 st19">uro::IfcSpatialStructureElement</text>
<line class="st13" x1="216.9" y1="594.9" x2="454.7" y2="594.9"/>
<text transform="matrix(0.85 0 0 1 221.186 607.0461)" class="st18 st19">+ longName: xs::string [0..1]</text>
<text transform="matrix(0.85 0 0 1 -7775.0044 -7809.9541)" class="st18" style="font-size:4.7638px;">i</text>
<text transform="matrix(0.85 0 0 1 -7775.0044 -7809.9541)" class="st18" style="font-size:4.7638px;">i</text>
<text transform="matrix(0.85 0 0 1 221.186 618.2961)" class="st18 st19">+ compositonType: IfcElementCompositonEnum [0..1]</text>
<path class="st12" d="M355.3,435.6c1.2,0,2.2,1,2.2,2.2l0,0v64.1l0,0c0,1.2-1,2.2-2.2,2.2l0,0l0,0h-99l0,0c-1.2,0-2.2-1-2.2-2.2l0,0
	v-64.1c0-1.2,1-2.2,2.2-2.2l0,0H355.3L355.3,435.6L355.3,435.6z"/>
<path class="st8" d="M352.7,433c1.2,0,2.2,1,2.2,2.2l0,0v64.1l0,0c0,1.2-1,2.2-2.2,2.2l0,0l0,0h-99l0,0c-1.2,0-2.2-1-2.2-2.2l0,0
	v-64.1c0-1.2,1-2.2,2.2-2.2l0,0H352.7L352.7,433L352.7,433z"/>
<path class="st13" d="M352.7,433c1.2,0,2.2,1,2.2,2.2l0,0v64.1l0,0c0,1.2-1,2.2-2.2,2.2l0,0l0,0h-99l0,0c-1.2,0-2.2-1-2.2-2.2l0,0
	v-64.1c0-1.2,1-2.2,2.2-2.2l0,0H352.7L352.7,433L352.7,433z"/>
<text transform="matrix(0.85 0 0 1 278.4829 446.8273)" class="st18 st19">«DataType»</text>
<text transform="matrix(0.85 0 0 1 273.2798 458.0773)" class="st20 st19">uro::IfcProduct</text>
<path class="st12" d="M581,565.5c1.2,0,2.2,1,2.2,2.2l0,0v64.1l0,0c0,1.2-1,2.2-2.2,2.2l0,0l0,0h-81.6l0,0c-1.2,0-2.2-1-2.2-2.2l0,0
	v-64.1c0-1.2,1-2.2,2.2-2.2l0,0H581L581,565.5L581,565.5z"/>
<path class="st8" d="M578.4,562.9c1.2,0,2.2,1,2.2,2.2l0,0v64.1l0,0c0,1.2-1,2.2-2.2,2.2l0,0l0,0h-81.6l0,0c-1.2,0-2.2-1-2.2-2.2
	l0,0V565c0-1.2,1-2.2,2.2-2.2l0,0h81.6V562.9L578.4,562.9z"/>
<path class="st13" d="M578.4,562.9c1.2,0,2.2,1,2.2,2.2l0,0v64.1l0,0c0,1.2-1,2.2-2.2,2.2l0,0l0,0h-81.6l0,0c-1.2,0-2.2-1-2.2-2.2
	l0,0V565c0-1.2,1-2.2,2.2-2.2l0,0h81.6V562.9L578.4,562.9z"/>
<text transform="matrix(0.85 0 0 1 512.873 576.7336)" class="st18 st19">«DataType»</text>
<text transform="matrix(0.85 0 0 1 511.1387 587.9836)" class="st20 st19">uro::IfcGroup</text>
<path class="st12" d="M589.7,669.4c1.2,0,2.2,1,2.2,2.2l0,0V727l0,0c0,1.2-1,2.2-2.2,2.2l0,0l0,0h-81.6l0,0c-1.2,0-2.2-1-2.2-2.2
	l0,0v-55.4c0-1.2,1-2.2,2.2-2.2l0,0L589.7,669.4L589.7,669.4L589.7,669.4z"/>
<path class="st8" d="M587.1,666.8c1.2,0,2.2,1,2.2,2.2l0,0v55.4l0,0c0,1.2-1,2.2-2.2,2.2l0,0l0,0h-81.6l0,0c-1.2,0-2.2-1-2.2-2.2
	l0,0V669c0-1.2,1-2.2,2.2-2.2l0,0H587.1L587.1,666.8L587.1,666.8z"/>
<path class="st13" d="M587.1,666.8c1.2,0,2.2,1,2.2,2.2l0,0v55.4l0,0c0,1.2-1,2.2-2.2,2.2l0,0l0,0h-81.6l0,0c-1.2,0-2.2-1-2.2-2.2
	l0,0V669c0-1.2,1-2.2,2.2-2.2l0,0H587.1L587.1,666.8L587.1,666.8z"/>
<text transform="matrix(0.85 0 0 1 521.5605 680.6711)" class="st18 st19">«DataType»</text>
<text transform="matrix(0.85 0 0 1 522.4199 691.9367)" class="st21 st19">uro::IfcZone</text>
<path class="st12" d="M693,210.4c1.2,0,2.2,1,2.2,2.2l0,0v64.1l0,0c0,1.2-1,2.2-2.2,2.2l0,0l0,0H560.2l0,0c-1.2,0-2.2-1-2.2-2.2l0,0
	v-64.1c0-1.2,1-2.2,2.2-2.2l0,0L693,210.4L693,210.4L693,210.4z"/>
<path class="st8" d="M690.4,207.8c1.2,0,2.2,1,2.2,2.2l0,0v64l0,0c0,1.2-1,2.2-2.2,2.2l0,0l0,0H557.6l0,0c-1.2,0-2.2-1-2.2-2.2l0,0
	v-64.1c0-1.2,1-2.2,2.2-2.2l0,0h132.8V207.8L690.4,207.8z"/>
<path class="st13" d="M690.4,207.8c1.2,0,2.2,1,2.2,2.2l0,0v64l0,0c0,1.2-1,2.2-2.2,2.2l0,0l0,0H557.6l0,0c-1.2,0-2.2-1-2.2-2.2l0,0
	v-64.1c0-1.2,1-2.2,2.2-2.2l0,0h132.8V207.8L690.4,207.8z"/>
<text transform="matrix(0.85 0 0 1 599.6855 221.6232)" class="st18 st19">«DataType»</text>
<text transform="matrix(0.85 0 0 1 -7775.0044 -7809.9541)" class="st20" style="font-size:4.7638px;">t</text>
<text transform="matrix(0.85 0 0 1 582.3262 232.8732)" class="st20 st19">uro::IndoorAttribute</text>
<line class="st13" x1="555.4" y1="239.8" x2="692.6" y2="239.8"/>
<text transform="matrix(0.85 0 0 1 559.748 251.9367)" class="st18 st19">+ source: gml::CodeType [0..1]</text>
<path class="st12" d="M670.4,348.9c1.2,0,2.2,1,2.2,2.2l0,0v64.1l0,0c0,1.2-1,2.2-2.2,2.2l0,0l0,0H561.1l0,0c-1.2,0-2.2-1-2.2-2.2
	l0,0v-64.1c0-1.2,1-2.2,2.2-2.2l0,0H670.4L670.4,348.9L670.4,348.9z"/>
<path class="st8" d="M667.8,346.3c1.2,0,2.2,1,2.2,2.2l0,0v64.1l0,0c0,1.2-1,2.2-2.2,2.2l0,0l0,0H558.5l0,0c-1.2,0-2.2-1-2.2-2.2
	l0,0v-64.1c0-1.2,1-2.2,2.2-2.2l0,0H667.8L667.8,346.3L667.8,346.3z"/>
<path class="st13" d="M667.8,346.3c1.2,0,2.2,1,2.2,2.2l0,0v64.1l0,0c0,1.2-1,2.2-2.2,2.2l0,0l0,0H558.5l0,0c-1.2,0-2.2-1-2.2-2.2
	l0,0v-64.1c0-1.2,1-2.2,2.2-2.2l0,0H667.8L667.8,346.3L667.8,346.3z"/>
<text transform="matrix(0.85 0 0 1 588.3887 360.2023)" class="st18 st19">«DataType»</text>
<text transform="matrix(0.85 0 0 1 -7775.0044 -7809.9541)" class="st21" style="font-size:4.7638px;">t</text>
<text transform="matrix(0.85 0 0 1 561.4824 371.468)" class="st21 st19">uro::IndoorZoneAttribute</text>
<line class="st13" x1="556.3" y1="378.4" x2="670" y2="378.4"/>
<text transform="matrix(0.85 0 0 1 -7775.0044 -7809.9541)" class="st18" style="font-size:4.7638px;">l</text>
<text transform="matrix(0.85 0 0 1 560.623 390.5139)" class="st18 st19">+ foorId: xs::string [0..1]</text>
<path class="st12" d="M758.1,426.9c1.2,0,2.2,1,2.2,2.2l0,0v60.6l0,0c0,1.2-1,2.2-2.2,2.2l0,0l0,0H629.6l0,0c-1.2,0-2.2-1-2.2-2.2
	l0,0v-60.6c0-1.2,1-2.2,2.2-2.2l0,0H758.1L758.1,426.9L758.1,426.9z"/>
<path class="st8" d="M755.5,424.3c1.2,0,2.2,1,2.2,2.2l0,0v60.6l0,0c0,1.2-1,2.2-2.2,2.2l0,0l0,0H627l0,0c-1.2,0-2.2-1-2.2-2.2l0,0
	v-60.6c0-1.2,1-2.2,2.2-2.2l0,0H755.5L755.5,424.3L755.5,424.3z"/>
<path class="st13" d="M755.5,424.3c1.2,0,2.2,1,2.2,2.2l0,0v60.6l0,0c0,1.2-1,2.2-2.2,2.2l0,0l0,0H627l0,0c-1.2,0-2.2-1-2.2-2.2l0,0
	v-60.6c0-1.2,1-2.2,2.2-2.2l0,0H755.5L755.5,424.3L755.5,424.3z"/>
<text transform="matrix(0.85 0 0 1 666.5137 438.1398)" class="st18 st19">«DataType»</text>
<text transform="matrix(0.85 0 0 1 -7775.0044 -7809.9541)" class="st21" style="font-size:4.7638px;">t</text>
<text transform="matrix(0.85 0 0 1 636.1543 449.3898)" class="st21 st19">uro::IndoorStoreyAttribute</text>
<line class="st13" x1="624.9" y1="456.3" x2="757.7" y2="456.3"/>
<text transform="matrix(0.85 0 0 1 629.2012 468.4523)" class="st18 st19">+ category: xs::boolean [0..1]</text>
<text transform="matrix(0.85 0 0 1 629.2012 479.7336)" class="st18 st19">+ ordinal: xs::double [0..1]</text>
<path class="st12" d="M806.7,522.2c1.2,0,2.2,1,2.2,2.2l0,0V604l0,0c0,1.2-1,2.2-2.2,2.2l0,0l0,0H629.6l0,0c-1.2,0-2.2-1-2.2-2.2
	l0,0v-79.7c0-1.2,1-2.2,2.2-2.2l0,0h177.1V522.2L806.7,522.2z"/>
<path class="st8" d="M804.1,519.6c1.2,0,2.2,1,2.2,2.2l0,0v79.7l0,0c0,1.2-1,2.2-2.2,2.2l0,0l0,0H627l0,0c-1.2,0-2.2-1-2.2-2.2l0,0
	v-79.7c0-1.2,1-2.2,2.2-2.2l0,0H804.1L804.1,519.6L804.1,519.6z"/>
<path class="st13" d="M804.1,519.6c1.2,0,2.2,1,2.2,2.2l0,0v79.7l0,0c0,1.2-1,2.2-2.2,2.2l0,0l0,0H627l0,0c-1.2,0-2.2-1-2.2-2.2l0,0
	v-79.7c0-1.2,1-2.2,2.2-2.2l0,0H804.1L804.1,519.6L804.1,519.6z"/>
<text transform="matrix(0.85 0 0 1 690.8418 533.4211)" class="st18 st19">«DataType»</text>
<text transform="matrix(0.85 0 0 1 -7775.0044 -7809.9541)" class="st21" style="font-size:4.7638px;">i</text>
<text transform="matrix(0.85 0 0 1 -7775.0044 -7809.9541)" class="st21" style="font-size:4.7638px;">t</text>
<text transform="matrix(0.85 0 0 1 648.2949 544.6867)" class="st21 st19">uro::IndoorUserDefinedAttribute</text>
<line class="st13" x1="624.9" y1="551.6" x2="806.3" y2="551.6"/>
<text transform="matrix(0.85 0 0 1 629.2012 563.7336)" class="st18 st19">+ name: xs::string [0..1]</text>
<text transform="matrix(0.85 0 0 1 -7775.0044 -7809.9541)" class="st18" style="font-size:4.7638px;">i</text>
<text transform="matrix(0.85 0 0 1 629.2012 574.9992)" class="st18 st19">+ nominalValue: UserDefnedValue [0..1]</text>
<text transform="matrix(0.85 0 0 1 -7775.0044 -7809.9541)" class="st18" style="font-size:4.7638px;">i</text>
<text transform="matrix(0.85 0 0 1 629.2012 586.2658)" class="st18 st19">+ descripton: xs::string [0..1]</text>
<text transform="matrix(0.85 0 0 1 629.2012 597.5158)" class="st18 st19">+ unit: xs::string [0..1]</text>
<line class="st22" x1="335.8" y1="665.9" x2="335.8" y2="633"/>
<polyline class="st23" points="341,646.9 330.6,646.9 335.8,633 341,646.9 "/>
<polygon class="st22" points="341,646.9 330.6,646.9 335.8,633 "/>
<line class="st22" x1="321" y1="215.6" x2="321" y2="177.4"/>
<line class="st22" x1="321" y1="177.4" x2="412.2" y2="177.4"/>
<line class="st22" x1="412.2" y1="177.4" x2="412.2" y2="135"/>
<polyline class="st24" points="416.5,143.7 412.2,135 407.8,143.7 412.2,152.3 416.5,143.7 "/>
<polyline class="st22" points="416.5,143.7 412.2,135 407.8,143.7 412.2,152.3 "/>
<path class="st22" d="M321,215.6l5.2-13 M321,215.6l-5.2-13"/>
<line class="st22" x1="322.8" y1="319.5" x2="322.8" y2="286.6"/>
<polyline class="st23" points="328,300.4 317.6,300.4 322.8,286.6 328,300.4 "/>
<polygon class="st22" points="328,300.4 317.6,300.4 322.8,286.6 "/>
<line class="st22" x1="450.4" y1="369.7" x2="400.9" y2="369.7"/>
<polyline class="st23" points="414.8,364.5 414.8,374.9 400.9,369.7 414.8,364.5 "/>
<polygon class="st22" points="414.8,364.5 414.8,374.9 400.9,369.7 "/>
<line class="st22" x1="486.8" y1="432.1" x2="486.8" y2="399.2"/>
<polyline class="st23" points="492,413 481.6,413 486.8,399.2 492,413 "/>
<polygon class="st22" points="492,413 481.6,413 486.8,399.2 "/>
<line class="st22" x1="321.9" y1="562" x2="321.9" y2="503.1"/>
<polyline class="st23" points="327.1,517 316.7,517 321.9,503.1 327.1,517 "/>
<polygon class="st22" points="327.1,517 316.7,517 321.9,503.1 "/>
<line class="st22" x1="356.6" y1="469.3" x2="398.3" y2="469.3"/>
<polyline class="st23" points="384.4,474.5 384.4,464.1 398.3,469.3 384.4,474.5 "/>
<polygon class="st22" points="384.4,474.5 384.4,464.1 398.3,469.3 "/>
<line class="st22" x1="536.3" y1="562" x2="536.3" y2="503.1"/>
<polyline class="st23" points="541.5,517 531.1,517 536.3,503.1 541.5,517 "/>
<polygon class="st22" points="541.5,517 531.1,517 536.3,503.1 "/>
<line class="st22" x1="538.9" y1="665.9" x2="538.9" y2="633"/>
<polyline class="st23" points="544.1,646.9 533.7,646.9 538.9,633 544.1,646.9 "/>
<polygon class="st22" points="544.1,646.9 533.7,646.9 538.9,633 "/>
<line class="st22" x1="762.9" y1="518.7" x2="762.9" y2="320.4"/>
<line class="st22" x1="762.9" y1="320.4" x2="624" y2="320.4"/>
<line class="st22" x1="624" y1="320.4" x2="624" y2="277.9"/>
<polyline class="st23" points="629.2,291.8 618.8,291.8 624,277.9 629.2,291.8 "/>
<polygon class="st22" points="629.2,291.8 618.8,291.8 624,277.9 "/>
<line class="st22" x1="690.8" y1="423.4" x2="690.8" y2="320.4"/>
<line class="st22" x1="611.8" y1="345.5" x2="611.8" y2="320.4"/>
<line class="st22" x1="611.8" y1="320.4" x2="624" y2="320.4"/>
<line class="st22" x1="622.3" y1="206.9" x2="622.3" y2="177.4"/>
<line class="st22" x1="622.3" y1="177.4" x2="412.2" y2="177.4"/>
<polyline class="st24" points="416.5,143.7 412.2,135 407.8,143.7 412.2,152.3 416.5,143.7 "/>
<polygon class="st22" points="416.5,143.7 412.2,135 407.8,143.7 412.2,152.3 "/>
<path class="st22" d="M622.3,206.9l5.2-13 M622.3,206.9l-5.2-13"/>
<text transform="matrix(0.85 0 0 1 -7775.0044 -7809.9541)" class="st18" style="font-size:4.7638px;">t</text>
<text transform="matrix(0.85 0 0 1 636.1543 198.2336)" class="st18 st19">+indoorStoreyAttribute</text>
<text transform="matrix(0.85 0 0 1 634.4199 183.4982)" class="st18 st19">0..*</text>
<text transform="matrix(0.85 0 0 1 -7775.0044 -7809.9541)" class="st18" style="font-size:4.7638px;">t</text>
<text transform="matrix(0.85 0 0 1 189.0767 208.6086)" class="st18 st19">+ifcBuildingStoreyAttriubte</text>
<text transform="matrix(0.85 0 0 1 340.9985 201.7023)" class="st18 st19">0..*</text>
</svg>
