<?xml version="1.0" encoding="utf-8"?>
<!-- Generator: Adobe Illustrator 26.5.2, SVG Export Plug-In . SVG Version: 6.00 Build 0)  -->
<svg version="1.1" id="レイヤー_1" xmlns="http://www.w3.org/2000/svg" xmlns:xlink="http://www.w3.org/1999/xlink" x="0px"
	 y="0px" viewBox="0 0 463.7 300.3" style="enable-background:new 0 0 463.7 300.3;" xml:space="preserve">
<style type="text/css">
	.st0{fill-rule:evenodd;clip-rule:evenodd;fill:#F0F0F0;}
	.st1{fill:none;stroke:#D7D7D7;stroke-width:0.8662;stroke-linecap:square;stroke-miterlimit:10;}
	.st2{fill-rule:evenodd;clip-rule:evenodd;fill:#A0FFC0;}
	.st3{fill:none;stroke:#000000;stroke-width:0.8662;stroke-linecap:square;stroke-miterlimit:10;}
	.st4{fill:#003060;}
	.st5{font-family:'YuGothicUI-Regular';}
	.st6{font-size:11.2598px;}
	.st7{fill-rule:evenodd;clip-rule:evenodd;fill:#FFFFCC;}
	.st8{fill-rule:evenodd;clip-rule:evenodd;fill:#FFCCFF;}
	.st9{font-family:'MS-PGothic';}
	.st10{font-size:13.8582px;}
	.st11{fill:none;stroke:#003060;stroke-width:0.396;stroke-miterlimit:10;}
	.st12{fill-rule:evenodd;clip-rule:evenodd;fill:#CFD1D8;}
	.st13{fill:none;stroke:#000000;stroke-width:1.7322;stroke-linecap:round;stroke-linejoin:round;stroke-miterlimit:10;}
	.st14{font-size:11.8721px;}
	.st15{fill:none;stroke:#000000;stroke-width:0.3218;stroke-miterlimit:10;}
	.st16{font-family:'YuGothicUI-Bold';}
	.st17{fill:none;stroke:#000000;stroke-width:1.7322;stroke-linecap:round;stroke-linejoin:bevel;stroke-miterlimit:10;}
	.st18{fill-rule:evenodd;clip-rule:evenodd;fill:#FFFFFF;}
</style>
<g>
	<path class="st0" d="M435.6,34.5c1.4,0,2.6,1.2,2.6,2.6l0,0v76.2l0,0c0,1.4-1.2,2.6-2.6,2.6l0,0l0,0H280.2l0,0
		c-1.4,0-2.6-1.2-2.6-2.6V37.1c0-1.4,1.2-2.6,2.6-2.6l0,0H435.6L435.6,34.5L435.6,34.5z"/>
	<path class="st1" d="M435.6,34.5c1.4,0,2.6,1.2,2.6,2.6l0,0v76.2l0,0c0,1.4-1.2,2.6-2.6,2.6l0,0l0,0H280.2l0,0
		c-1.4,0-2.6-1.2-2.6-2.6V37.1c0-1.4,1.2-2.6,2.6-2.6l0,0H435.6L435.6,34.5L435.6,34.5z"/>
	<path class="st2" d="M298,60.5c1.2,0,2.2,1,2.2,2.2l0,0v9.5l0,0c0,1.2-1,2.2-2.2,2.2l0,0l0,0h-9.5l0,0c-1.2,0-2.2-1-2.2-2.2l0,0
		v-9.5c0-1.2,1-2.2,2.2-2.2l0,0L298,60.5L298,60.5L298,60.5z"/>
	<path class="st3" d="M298,60.5c1.2,0,2.2,1,2.2,2.2l0,0v9.5l0,0c0,1.2-1,2.2-2.2,2.2l0,0l0,0h-9.5l0,0c-1.2,0-2.2-1-2.2-2.2l0,0
		v-9.5c0-1.2,1-2.2,2.2-2.2l0,0L298,60.5L298,60.5L298,60.5z"/>
	<text transform="matrix(1.0023 0 0 1 305.3961 72.6272)" class="st4 st5 st6">G</text>
	<text transform="matrix(1.0023 0 0 1 313.2066 72.6272)" class="st4 st5 st6">M</text>
	<text transform="matrix(1.0023 0 0 1 323.6227 72.6272)" class="st4 st5 st6">L</text>
	<text transform="matrix(1.0023 0 0 1 328.8316 72.6272)" class="st4 st5 st6">で</text>
	<text transform="matrix(1.0023 0 0 1 337.5191 72.6272)" class="st4 st5 st6">定</text>
	<text transform="matrix(1.0023 0 0 1 348.8043 72.6272)" class="st4 st5 st6">義</text>
	<text transform="matrix(1.0023 0 0 1 360.0894 72.6272)" class="st4 st5 st6">さ</text>
	<text transform="matrix(1.0023 0 0 1 367.898 72.6272)" class="st4 st5 st6">れ</text>
	<text transform="matrix(1.0023 0 0 1 378.3062 72.6272)" class="st4 st5 st6">た</text>
	<text transform="matrix(1.0023 0 0 1 386.9977 72.6272)" class="st4 st5 st6">ク</text>
	<text transform="matrix(1.0023 0 0 1 395.6754 72.6272)" class="st4 st5 st6">ラ</text>
	<text transform="matrix(1.0023 0 0 1 403.484 72.6272)" class="st4 st5 st6">ス</text>
	<path class="st7" d="M298,77c1.2,0,2.2,1,2.2,2.2l0,0v9.5l0,0c0,1.2-1,2.2-2.2,2.2l0,0l0,0h-9.5l0,0c-1.2,0-2.2-1-2.2-2.2l0,0v-9.5
		c0-1.2,1-2.2,2.2-2.2l0,0H298L298,77L298,77z"/>
	<path class="st3" d="M298,77c1.2,0,2.2,1,2.2,2.2l0,0v9.5l0,0c0,1.2-1,2.2-2.2,2.2l0,0l0,0h-9.5l0,0c-1.2,0-2.2-1-2.2-2.2l0,0v-9.5
		c0-1.2,1-2.2,2.2-2.2l0,0H298L298,77L298,77z"/>
	<text transform="matrix(1.0023 0 0 1 305.3961 89.096)" class="st4 st5 st6">C</text>
	<text transform="matrix(1.0023 0 0 1 312.3492 89.096)" class="st4 st5 st6">i</text>
	<text transform="matrix(1.0023 0 0 1 314.9586 89.096)" class="st4 st5 st6">t</text>
	<text transform="matrix(1.0023 0 0 1 318.4332 89.096)" class="st4 st5 st6">y</text>
	<text transform="matrix(1.0023 0 0 1 323.6461 89.096)" class="st4 st5 st6">G</text>
	<text transform="matrix(1.0023 0 0 1 331.4547 89.096)" class="st4 st5 st6">M</text>
	<text transform="matrix(1.0023 0 0 1 341.8707 89.096)" class="st4 st5 st6">L</text>
	<text transform="matrix(1.0023 0 0 1 347.0816 89.096)" class="st4 st5 st6">で</text>
	<text transform="matrix(1.0023 0 0 1 355.7691 89.096)" class="st4 st5 st6">定</text>
	<text transform="matrix(1.0023 0 0 1 367.0543 89.096)" class="st4 st5 st6">義</text>
	<text transform="matrix(1.0023 0 0 1 378.3394 89.096)" class="st4 st5 st6">さ</text>
	<text transform="matrix(1.0023 0 0 1 386.148 89.096)" class="st4 st5 st6">れ</text>
	<text transform="matrix(1.0023 0 0 1 396.5543 89.096)" class="st4 st5 st6">た</text>
	<text transform="matrix(1.0023 0 0 1 405.2457 89.096)" class="st4 st5 st6">ク</text>
	<text transform="matrix(1.0023 0 0 1 413.9254 89.096)" class="st4 st5 st6">ラ</text>
	<text transform="matrix(1.0023 0 0 1 421.734 89.096)" class="st4 st5 st6">ス</text>
	<path class="st8" d="M298,93.4c1.2,0,2.2,1,2.2,2.2l0,0v9.5l0,0c0,1.2-1,2.2-2.2,2.2l0,0l0,0h-9.5l0,0c-1.2,0-2.2-1-2.2-2.2l0,0
		v-9.5c0-1.2,1-2.2,2.2-2.2l0,0H298L298,93.4L298,93.4z"/>
	<path class="st3" d="M298,93.4c1.2,0,2.2,1,2.2,2.2l0,0v9.5l0,0c0,1.2-1,2.2-2.2,2.2l0,0l0,0h-9.5l0,0c-1.2,0-2.2-1-2.2-2.2l0,0
		v-9.5c0-1.2,1-2.2,2.2-2.2l0,0H298L298,93.4L298,93.4z"/>
	<text transform="matrix(1.0023 0 0 1 305.3961 105.5491)" class="st4 st5 st6">i</text>
	<text transform="matrix(1.0023 0 0 1 308.0055 105.5491)" class="st4 st5 st6">-</text>
	<text transform="matrix(1.0023 0 0 1 312.3492 105.5491)" class="st4 st5 st6">U</text>
	<text transform="matrix(1.0023 0 0 1 320.1578 105.5491)" class="st4 st5 st6">R</text>
	<text transform="matrix(1.0023 0 0 1 327.1012 105.5491)" class="st4 st5 st6">で</text>
	<text transform="matrix(1.0023 0 0 1 335.7887 105.5491)" class="st4 st5 st6">定</text>
	<text transform="matrix(1.0023 0 0 1 347.0738 105.5491)" class="st4 st5 st6">義</text>
	<text transform="matrix(1.0023 0 0 1 358.359 105.5491)" class="st4 st5 st6">さ</text>
	<text transform="matrix(1.0023 0 0 1 366.1656 105.5491)" class="st4 st5 st6">れ</text>
	<text transform="matrix(1.0023 0 0 1 376.5738 105.5491)" class="st4 st5 st6">た</text>
	<text transform="matrix(1.0023 0 0 1 385.2652 105.5491)" class="st4 st5 st6">ク</text>
	<text transform="matrix(1.0023 0 0 1 393.943 105.5491)" class="st4 st5 st6">ラ</text>
	<text transform="matrix(1.0023 0 0 1 401.7516 105.5491)" class="st4 st5 st6">ス</text>
	<text transform="matrix(1.0023 0 0 1 344.4586 52.7053)" class="st4 st9 st10">凡例</text>
	<text transform="matrix(1.0023 0 0 1 344.4586 52.7053)" class="st11 st9 st10">凡例</text>
	<path class="st12" d="M206.9,28.5c1.2,0,2.2,1,2.2,2.2l0,0v64.1l0,0c0,1.2-1,2.2-2.2,2.2l0,0l0,0H65.4l0,0c-1.2,0-2.2-1-2.2-2.2
		l0,0V30.6c0-1.2,1-2.2,2.2-2.2l0,0L206.9,28.5L206.9,28.5L206.9,28.5z"/>
	<path class="st8" d="M204.3,25.9c1.2,0,2.2,1,2.2,2.2l0,0v64.1l0,0c0,1.2-1,2.2-2.2,2.2l0,0l0,0H62.8l0,0c-1.2,0-2.2-1-2.2-2.2l0,0
		V28c0-1.2,1-2.2,2.2-2.2l0,0H204.3L204.3,25.9L204.3,25.9z"/>
	<path class="st13" d="M204.3,25.9c1.2,0,2.2,1,2.2,2.2l0,0v64.1l0,0c0,1.2-1,2.2-2.2,2.2l0,0l0,0H62.8l0,0c-1.2,0-2.2-1-2.2-2.2
		l0,0V28c0-1.2,1-2.2,2.2-2.2l0,0H204.3L204.3,25.9L204.3,25.9z"/>
	<text transform="matrix(1.0023 0 0 1 103.9893 43.2053)" class="st5 st6">«</text>
	<text transform="matrix(1.0023 0 0 1 110.0597 43.2053)" class="st5 st6">D</text>
	<text transform="matrix(1.0023 0 0 1 117.8819 43.2053)" class="st5 st6">a</text>
	<text transform="matrix(1.0023 0 0 1 123.9513 43.2053)" class="st5 st6">t</text>
	<text transform="matrix(1.0023 0 0 1 127.4259 43.2053)" class="st5 st6">a</text>
	<text transform="matrix(1.0023 0 0 1 133.4952 43.2053)" class="st5 st6">T</text>
	<text transform="matrix(1.0023 0 0 1 139.5655 43.2053)" class="st5 st6">y</text>
	<text transform="matrix(1.0023 0 0 1 144.7784 43.2053)" class="st5 st6">p</text>
	<text transform="matrix(1.0023 0 0 1 151.7169 43.2053)" class="st5 st6">e</text>
	<text transform="matrix(1.0023 0 0 1 157.7882 43.2053)" class="st5 st6">»</text>
	<text transform="matrix(0.9506 0 -0.3169 0.9485 80.5611 57.9181)" class="st5 st14">u</text>
	<text transform="matrix(0.9506 0 -0.3169 0.9485 80.5611 57.9181)" class="st15 st5 st14">u</text>
	<text transform="matrix(0.9506 0 -0.3169 0.9485 87.5006 57.9181)" class="st5 st14">r</text>
	<text transform="matrix(0.9506 0 -0.3169 0.9485 87.5006 57.9181)" class="st15 st5 st14">r</text>
	<text transform="matrix(0.9506 0 -0.3169 0.9485 91.8307 57.9181)" class="st5 st14">o</text>
	<text transform="matrix(0.9506 0 -0.3169 0.9485 91.8307 57.9181)" class="st15 st5 st14">o</text>
	<text transform="matrix(0.9506 0 -0.3169 0.9485 98.7701 57.9181)" class="st5 st14">:</text>
	<text transform="matrix(0.9506 0 -0.3169 0.9485 98.7701 57.9181)" class="st15 st5 st14">:</text>
	<text transform="matrix(0.9506 0 -0.3169 0.9485 101.3639 57.9181)" class="st5 st14">:</text>
	<text transform="matrix(0.9506 0 -0.3169 0.9485 101.3639 57.9181)" class="st15 st5 st14">:</text>
	<text transform="matrix(0.9506 0 -0.3169 0.9485 103.9576 57.9181)" class="st5 st14">F</text>
	<text transform="matrix(0.9506 0 -0.3169 0.9485 103.9576 57.9181)" class="st15 st5 st14">F</text>
	<text transform="matrix(0.9506 0 -0.3169 0.9485 110.0318 57.9181)" class="st5 st14">a</text>
	<text transform="matrix(0.9506 0 -0.3169 0.9485 110.0318 57.9181)" class="st15 st5 st14">a</text>
	<text transform="matrix(0.9506 0 -0.3169 0.9485 116.1002 57.9181)" class="st5 st14">c</text>
	<text transform="matrix(0.9506 0 -0.3169 0.9485 116.1002 57.9181)" class="st15 st5 st14">c</text>
	<text transform="matrix(0.9506 0 -0.3169 0.9485 121.3131 57.9181)" class="st5 st14">i</text>
	<text transform="matrix(0.9506 0 -0.3169 0.9485 121.3131 57.9181)" class="st15 st5 st14">i</text>
	<text transform="matrix(0.9506 0 -0.3169 0.9485 123.9225 57.9181)" class="st5 st14">l</text>
	<text transform="matrix(0.9506 0 -0.3169 0.9485 123.9225 57.9181)" class="st15 st5 st14">l</text>
	<text transform="matrix(0.9506 0 -0.3169 0.9485 126.5318 57.9181)" class="st5 st14">i</text>
	<text transform="matrix(0.9506 0 -0.3169 0.9485 126.5318 57.9181)" class="st15 st5 st14">i</text>
	<text transform="matrix(0.9506 0 -0.3169 0.9485 129.1412 57.9181)" class="st5 st14">t</text>
	<text transform="matrix(0.9506 0 -0.3169 0.9485 129.1412 57.9181)" class="st15 st5 st14">t</text>
	<text transform="matrix(0.9506 0 -0.3169 0.9485 133.4733 57.9181)" class="st5 st14">y</text>
	<text transform="matrix(0.9506 0 -0.3169 0.9485 133.4733 57.9181)" class="st15 st5 st14">y</text>
	<text transform="matrix(0.9506 0 -0.3169 0.9485 139.5436 57.9181)" class="st5 st14">A</text>
	<text transform="matrix(0.9506 0 -0.3169 0.9485 139.5436 57.9181)" class="st15 st5 st14">A</text>
	<text transform="matrix(0.9506 0 -0.3169 0.9485 147.3522 57.9181)" class="st5 st14">t</text>
	<text transform="matrix(0.9506 0 -0.3169 0.9485 147.3522 57.9181)" class="st15 st5 st14">t</text>
	<text transform="matrix(0.9506 0 -0.3169 0.9485 151.6842 57.9181)" class="st5 st14">t</text>
	<text transform="matrix(0.9506 0 -0.3169 0.9485 151.6842 57.9181)" class="st15 st5 st14">t</text>
	<text transform="matrix(0.9506 0 -0.3169 0.9485 156.0162 57.9181)" class="st5 st14">r</text>
	<text transform="matrix(0.9506 0 -0.3169 0.9485 156.0162 57.9181)" class="st15 st5 st14">r</text>
	<text transform="matrix(0.9506 0 -0.3169 0.9485 160.3463 57.9181)" class="st5 st14">i</text>
	<text transform="matrix(0.9506 0 -0.3169 0.9485 160.3463 57.9181)" class="st15 st5 st14">i</text>
	<text transform="matrix(0.9506 0 -0.3169 0.9485 162.9557 57.9181)" class="st5 st14">b</text>
	<text transform="matrix(0.9506 0 -0.3169 0.9485 162.9557 57.9181)" class="st15 st5 st14">b</text>
	<text transform="matrix(0.9506 0 -0.3169 0.9485 169.8951 57.9181)" class="st5 st14">u</text>
	<text transform="matrix(0.9506 0 -0.3169 0.9485 169.8951 57.9181)" class="st15 st5 st14">u</text>
	<text transform="matrix(0.9506 0 -0.3169 0.9485 176.8346 57.9181)" class="st5 st14">t</text>
	<text transform="matrix(0.9506 0 -0.3169 0.9485 176.8346 57.9181)" class="st15 st5 st14">t</text>
	<text transform="matrix(0.9506 0 -0.3169 0.9485 181.1666 57.9181)" class="st5 st14">e</text>
	<text transform="matrix(0.9506 0 -0.3169 0.9485 181.1666 57.9181)" class="st15 st5 st14">e</text>
	<line class="st13" x1="60.6" y1="64.8" x2="206.4" y2="64.8"/>
	<text transform="matrix(1.0023 0 0 1 64.9268 80.4241)" class="st5 st6">+</text>
	<text transform="matrix(1.0023 0 0 1 72.7374 80.4241)" class="st5 st6"> </text>
	<text transform="matrix(1.0023 0 0 1 84.0206 80.4241)" class="st5 st6">f</text>
	<text transform="matrix(1.0023 0 0 1 87.4962 80.4241)" class="st5 st6">a</text>
	<text transform="matrix(1.0023 0 0 1 93.5655 80.4241)" class="st5 st6">c</text>
	<text transform="matrix(1.0023 0 0 1 98.7784 80.4241)" class="st5 st6">i</text>
	<text transform="matrix(1.0023 0 0 1 101.3878 80.4241)" class="st5 st6">l</text>
	<text transform="matrix(1.0023 0 0 1 103.9962 80.4241)" class="st5 st6">i</text>
	<text transform="matrix(1.0023 0 0 1 106.6056 80.4241)" class="st5 st6">t</text>
	<text transform="matrix(1.0023 0 0 1 110.0802 80.4241)" class="st5 st6">y</text>
	<text transform="matrix(1.0023 0 0 1 115.2921 80.4241)" class="st5 st6">I</text>
	<text transform="matrix(1.0023 0 0 1 117.9005 80.4241)" class="st5 st6">d</text>
	<text transform="matrix(1.0023 0 0 1 124.8399 80.4241)" class="st5 st6">:</text>
	<text transform="matrix(1.0023 0 0 1 127.4327 80.4241)" class="st5 st6"> </text>
	<text transform="matrix(1.0023 0 0 1 130.8966 80.4241)" class="st5 st6">x</text>
	<text transform="matrix(1.0023 0 0 1 136.0997 80.4241)" class="st5 st6">s</text>
	<text transform="matrix(1.0023 0 0 1 141.3058 80.4241)" class="st5 st6">:</text>
	<text transform="matrix(1.0023 0 0 1 143.8985 80.4241)" class="st5 st6">:</text>
	<text transform="matrix(1.0023 0 0 1 146.4923 80.4241)" class="st5 st6">s</text>
	<text transform="matrix(1.0023 0 0 1 151.6983 80.4241)" class="st5 st6">t</text>
	<text transform="matrix(1.0023 0 0 1 155.1729 80.4241)" class="st5 st6">r</text>
	<text transform="matrix(1.0023 0 0 1 159.502 80.4241)" class="st5 st6">i</text>
	<text transform="matrix(1.0023 0 0 1 162.1114 80.4241)" class="st5 st6">n</text>
	<text transform="matrix(1.0023 0 0 1 168.1935 80.4241)" class="st5 st6">g</text>
	<text transform="matrix(1.0023 0 0 1 175.1319 80.4241)" class="st5 st6"> </text>
	<text transform="matrix(1.0023 0 0 1 178.5958 80.4241)" class="st5 st6">[</text>
	<text transform="matrix(1.0023 0 0 1 182.0577 80.4241)" class="st5 st6">0</text>
	<text transform="matrix(1.0023 0 0 1 188.1417 80.4241)" class="st5 st6">.</text>
	<text transform="matrix(1.0023 0 0 1 190.7345 80.4241)" class="st5 st6">.</text>
	<text transform="matrix(1.0023 0 0 1 193.3282 80.4241)" class="st5 st6">1</text>
	<text transform="matrix(1.0023 0 0 1 199.4112 80.4241)" class="st5 st6">]</text>
	<path class="st12" d="M245.1,141.1c1.2,0,2.2,1,2.2,2.2l0,0v129.9l0,0c0,1.2-1,2.2-2.2,2.2l0,0l0,0H30.6l0,0c-1.2,0-2.2-1-2.2-2.2
		l0,0V143.2c0-1.2,1-2.2,2.2-2.2l0,0H245.1L245.1,141.1L245.1,141.1z"/>
	<path class="st8" d="M242.5,138.5c1.2,0,2.2,1,2.2,2.2l0,0v129.9l0,0c0,1.2-1,2.2-2.2,2.2l0,0l0,0H28l0,0c-1.2,0-2.2-1-2.2-2.2l0,0
		V140.6c0-1.2,1-2.2,2.2-2.2l0,0H242.5L242.5,138.5L242.5,138.5z"/>
	<path class="st13" d="M242.5,138.5c1.2,0,2.2,1,2.2,2.2l0,0v129.9l0,0c0,1.2-1,2.2-2.2,2.2l0,0l0,0H28l0,0c-1.2,0-2.2-1-2.2-2.2
		l0,0V140.6c0-1.2,1-2.2,2.2-2.2l0,0H242.5L242.5,138.5L242.5,138.5z"/>
	<text transform="matrix(1.0023 0 0 1 105.7237 155.7669)" class="st5 st6">«</text>
	<text transform="matrix(1.0023 0 0 1 111.794 155.7669)" class="st5 st6">D</text>
	<text transform="matrix(1.0023 0 0 1 119.6163 155.7669)" class="st5 st6">a</text>
	<text transform="matrix(1.0023 0 0 1 125.6856 155.7669)" class="st5 st6">t</text>
	<text transform="matrix(1.0023 0 0 1 129.1602 155.7669)" class="st5 st6">a</text>
	<text transform="matrix(1.0023 0 0 1 135.2296 155.7669)" class="st5 st6">T</text>
	<text transform="matrix(1.0023 0 0 1 141.2999 155.7669)" class="st5 st6">y</text>
	<text transform="matrix(1.0023 0 0 1 146.5128 155.7669)" class="st5 st6">p</text>
	<text transform="matrix(1.0023 0 0 1 153.4513 155.7669)" class="st5 st6">e</text>
	<text transform="matrix(1.0023 0 0 1 159.5226 155.7669)" class="st5 st6">»</text>
	<text transform="matrix(1.0023 0 0 1 46.6925 170.5012)" class="st16 st6">u</text>
	<text transform="matrix(1.0023 0 0 1 53.627 170.5012)" class="st16 st6">r</text>
	<text transform="matrix(1.0023 0 0 1 57.962 170.5012)" class="st16 st6">o</text>
	<text transform="matrix(1.0023 0 0 1 64.9044 170.5012)" class="st16 st6">:</text>
	<text transform="matrix(1.0023 0 0 1 67.5138 170.5012)" class="st16 st6">:</text>
	<text transform="matrix(1.0023 0 0 1 70.1231 170.5012)" class="st16 st6">M</text>
	<text transform="matrix(1.0023 0 0 1 80.5431 170.5012)" class="st16 st6">a</text>
	<text transform="matrix(1.0023 0 0 1 86.6143 170.5012)" class="st16 st6">i</text>
	<text transform="matrix(1.0023 0 0 1 89.2237 170.5012)" class="st16 st6">n</text>
	<text transform="matrix(1.0023 0 0 1 96.1593 170.5012)" class="st16 st6">t</text>
	<text transform="matrix(1.0023 0 0 1 100.4962 170.5012)" class="st16 st6">e</text>
	<text transform="matrix(1.0023 0 0 1 106.5704 170.5012)" class="st16 st6">n</text>
	<text transform="matrix(1.0023 0 0 1 113.505 170.5012)" class="st16 st6">a</text>
	<text transform="matrix(1.0023 0 0 1 119.5763 170.5012)" class="st16 st6">n</text>
	<text transform="matrix(1.0023 0 0 1 126.5118 170.5012)" class="st16 st6">c</text>
	<text transform="matrix(1.0023 0 0 1 131.7276 170.5012)" class="st16 st6">e</text>
	<text transform="matrix(1.0023 0 0 1 137.8018 170.5012)" class="st16 st6">H</text>
	<text transform="matrix(1.0023 0 0 1 146.4737 170.5012)" class="st16 st6">i</text>
	<text transform="matrix(1.0023 0 0 1 149.0831 170.5012)" class="st16 st6">s</text>
	<text transform="matrix(1.0023 0 0 1 154.2872 170.5012)" class="st16 st6">t</text>
	<text transform="matrix(1.0023 0 0 1 158.6241 170.5012)" class="st16 st6">o</text>
	<text transform="matrix(1.0023 0 0 1 165.5665 170.5012)" class="st16 st6">r</text>
	<text transform="matrix(1.0023 0 0 1 169.9015 170.5012)" class="st16 st6">y</text>
	<text transform="matrix(1.0023 0 0 1 175.9767 170.5012)" class="st16 st6">A</text>
	<text transform="matrix(1.0023 0 0 1 183.7794 170.5012)" class="st16 st6">t</text>
	<text transform="matrix(1.0023 0 0 1 188.1163 170.5012)" class="st16 st6">t</text>
	<text transform="matrix(1.0023 0 0 1 192.4542 170.5012)" class="st16 st6">r</text>
	<text transform="matrix(1.0023 0 0 1 196.7892 170.5012)" class="st16 st6">i</text>
	<text transform="matrix(1.0023 0 0 1 199.3985 170.5012)" class="st16 st6">b</text>
	<text transform="matrix(1.0023 0 0 1 206.3331 170.5012)" class="st16 st6">u</text>
	<text transform="matrix(1.0023 0 0 1 213.2686 170.5012)" class="st16 st6">t</text>
	<text transform="matrix(1.0023 0 0 1 217.6056 170.5012)" class="st16 st6">e</text>
	<line class="st13" x1="25.9" y1="177.4" x2="244.6" y2="177.4"/>
	<text transform="matrix(1.0023 0 0 1 30.2081 193.0481)" class="st5 st6">+</text>
	<text transform="matrix(1.0023 0 0 1 38.0186 193.0481)" class="st5 st6"> </text>
	<text transform="matrix(1.0023 0 0 1 49.3018 193.0481)" class="st5 st6">m</text>
	<text transform="matrix(1.0023 0 0 1 58.8526 193.0481)" class="st5 st6">a</text>
	<text transform="matrix(1.0023 0 0 1 64.922 193.0481)" class="st5 st6">i</text>
	<text transform="matrix(1.0023 0 0 1 67.5313 193.0481)" class="st5 st6">n</text>
	<text transform="matrix(1.0023 0 0 1 73.6134 193.0481)" class="st5 st6">t</text>
	<text transform="matrix(1.0023 0 0 1 77.088 193.0481)" class="st5 st6">e</text>
	<text transform="matrix(1.0023 0 0 1 83.1583 193.0481)" class="st5 st6">n</text>
	<text transform="matrix(1.0023 0 0 1 89.2403 193.0481)" class="st5 st6">a</text>
	<text transform="matrix(1.0023 0 0 1 95.3097 193.0481)" class="st5 st6">n</text>
	<text transform="matrix(1.0023 0 0 1 101.3917 193.0481)" class="st5 st6">c</text>
	<text transform="matrix(1.0023 0 0 1 106.6046 193.0481)" class="st5 st6">e</text>
	<text transform="matrix(1.0023 0 0 1 112.6759 193.0481)" class="st5 st6">T</text>
	<text transform="matrix(1.0023 0 0 1 118.7462 193.0481)" class="st5 st6">y</text>
	<text transform="matrix(1.0023 0 0 1 123.9591 193.0481)" class="st5 st6">p</text>
	<text transform="matrix(1.0023 0 0 1 130.8976 193.0481)" class="st5 st6">e</text>
	<text transform="matrix(1.0023 0 0 1 136.9688 193.0481)" class="st5 st6">:</text>
	<text transform="matrix(1.0023 0 0 1 139.5626 193.0481)" class="st5 st6"> </text>
	<text transform="matrix(1.0023 0 0 1 143.0265 193.0481)" class="st5 st6">g</text>
	<text transform="matrix(1.0023 0 0 1 149.9649 193.0481)" class="st5 st6">m</text>
	<text transform="matrix(1.0023 0 0 1 159.5167 193.0481)" class="st5 st6">l</text>
	<text transform="matrix(1.0023 0 0 1 162.1251 193.0481)" class="st5 st6">:</text>
	<text transform="matrix(1.0023 0 0 1 164.7188 193.0481)" class="st5 st6">:</text>
	<text transform="matrix(1.0023 0 0 1 167.3116 193.0481)" class="st5 st6">C</text>
	<text transform="matrix(1.0023 0 0 1 174.2657 193.0481)" class="st5 st6">o</text>
	<text transform="matrix(1.0023 0 0 1 181.2052 193.0481)" class="st5 st6">d</text>
	<text transform="matrix(1.0023 0 0 1 188.1446 193.0481)" class="st5 st6">e</text>
	<text transform="matrix(1.0023 0 0 1 194.2149 193.0481)" class="st5 st6">T</text>
	<text transform="matrix(1.0023 0 0 1 200.2862 193.0481)" class="st5 st6">y</text>
	<text transform="matrix(1.0023 0 0 1 205.4981 193.0481)" class="st5 st6">p</text>
	<text transform="matrix(1.0023 0 0 1 212.4376 193.0481)" class="st5 st6">e</text>
	<text transform="matrix(1.0023 0 0 1 30.2081 207.7512)" class="st5 st6">+</text>
	<text transform="matrix(1.0023 0 0 1 38.0186 207.7512)" class="st5 st6"> </text>
	<text transform="matrix(1.0023 0 0 1 49.3018 207.7512)" class="st5 st6">m</text>
	<text transform="matrix(1.0023 0 0 1 58.8526 207.7512)" class="st5 st6">a</text>
	<text transform="matrix(1.0023 0 0 1 64.922 207.7512)" class="st5 st6">i</text>
	<text transform="matrix(1.0023 0 0 1 67.5313 207.7512)" class="st5 st6">n</text>
	<text transform="matrix(1.0023 0 0 1 73.6134 207.7512)" class="st5 st6">t</text>
	<text transform="matrix(1.0023 0 0 1 77.088 207.7512)" class="st5 st6">e</text>
	<text transform="matrix(1.0023 0 0 1 83.1583 207.7512)" class="st5 st6">n</text>
	<text transform="matrix(1.0023 0 0 1 89.2403 207.7512)" class="st5 st6">a</text>
	<text transform="matrix(1.0023 0 0 1 95.3097 207.7512)" class="st5 st6">n</text>
	<text transform="matrix(1.0023 0 0 1 101.3917 207.7512)" class="st5 st6">c</text>
	<text transform="matrix(1.0023 0 0 1 106.6046 207.7512)" class="st5 st6">e</text>
	<text transform="matrix(1.0023 0 0 1 112.6759 207.7512)" class="st5 st6">F</text>
	<text transform="matrix(1.0023 0 0 1 117.8927 207.7512)" class="st5 st6">i</text>
	<text transform="matrix(1.0023 0 0 1 120.5011 207.7512)" class="st5 st6">s</text>
	<text transform="matrix(1.0023 0 0 1 125.7081 207.7512)" class="st5 st6">c</text>
	<text transform="matrix(1.0023 0 0 1 130.921 207.7512)" class="st5 st6">a</text>
	<text transform="matrix(1.0023 0 0 1 136.9893 207.7512)" class="st5 st6">l</text>
	<text transform="matrix(1.0023 0 0 1 139.5987 207.7512)" class="st5 st6">Y</text>
	<text transform="matrix(1.0023 0 0 1 145.6788 207.7512)" class="st5 st6">e</text>
	<text transform="matrix(1.0023 0 0 1 151.7491 207.7512)" class="st5 st6">a</text>
	<text transform="matrix(1.0023 0 0 1 157.8185 207.7512)" class="st5 st6">r</text>
	<text transform="matrix(1.0023 0 0 1 162.1485 207.7512)" class="st5 st6">:</text>
	<text transform="matrix(1.0023 0 0 1 164.7413 207.7512)" class="st5 st6"> </text>
	<text transform="matrix(1.0023 0 0 1 168.2052 207.7512)" class="st5 st6">x</text>
	<text transform="matrix(1.0023 0 0 1 173.4083 207.7512)" class="st5 st6">s</text>
	<text transform="matrix(1.0023 0 0 1 178.6143 207.7512)" class="st5 st6">:</text>
	<text transform="matrix(1.0023 0 0 1 181.2071 207.7512)" class="st5 st6">:</text>
	<text transform="matrix(1.0023 0 0 1 183.8009 207.7512)" class="st5 st6">g</text>
	<text transform="matrix(1.0023 0 0 1 190.7393 207.7512)" class="st5 st6">Y</text>
	<text transform="matrix(1.0023 0 0 1 196.8194 207.7512)" class="st5 st6">e</text>
	<text transform="matrix(1.0023 0 0 1 202.8907 207.7512)" class="st5 st6">a</text>
	<text transform="matrix(1.0023 0 0 1 208.9601 207.7512)" class="st5 st6">r</text>
	<text transform="matrix(1.0023 0 0 1 213.2892 207.7512)" class="st5 st6"> </text>
	<text transform="matrix(1.0023 0 0 1 216.753 207.7512)" class="st5 st6">[</text>
	<text transform="matrix(1.0023 0 0 1 220.2149 207.7512)" class="st5 st6">0</text>
	<text transform="matrix(1.0023 0 0 1 226.2989 207.7512)" class="st5 st6">.</text>
	<text transform="matrix(1.0023 0 0 1 228.8917 207.7512)" class="st5 st6">.</text>
	<text transform="matrix(1.0023 0 0 1 231.4854 207.7512)" class="st5 st6">1</text>
	<text transform="matrix(1.0023 0 0 1 237.5699 207.7512)" class="st5 st6">]</text>
	<text transform="matrix(1.0023 0 0 1 30.2081 222.4719)" class="st5 st6">+</text>
	<text transform="matrix(1.0023 0 0 1 38.0186 222.4719)" class="st5 st6"> </text>
	<text transform="matrix(1.0023 0 0 1 49.3018 222.4719)" class="st5 st6">m</text>
	<text transform="matrix(1.0023 0 0 1 58.8526 222.4719)" class="st5 st6">a</text>
	<text transform="matrix(1.0023 0 0 1 64.922 222.4719)" class="st5 st6">i</text>
	<text transform="matrix(1.0023 0 0 1 67.5313 222.4719)" class="st5 st6">n</text>
	<text transform="matrix(1.0023 0 0 1 73.6134 222.4719)" class="st5 st6">t</text>
	<text transform="matrix(1.0023 0 0 1 77.088 222.4719)" class="st5 st6">e</text>
	<text transform="matrix(1.0023 0 0 1 83.1583 222.4719)" class="st5 st6">n</text>
	<text transform="matrix(1.0023 0 0 1 89.2403 222.4719)" class="st5 st6">a</text>
	<text transform="matrix(1.0023 0 0 1 95.3097 222.4719)" class="st5 st6">n</text>
	<text transform="matrix(1.0023 0 0 1 101.3917 222.4719)" class="st5 st6">c</text>
	<text transform="matrix(1.0023 0 0 1 106.6046 222.4719)" class="st5 st6">e</text>
	<text transform="matrix(1.0023 0 0 1 112.6759 222.4719)" class="st5 st6">Y</text>
	<text transform="matrix(1.0023 0 0 1 118.755 222.4719)" class="st5 st6">e</text>
	<text transform="matrix(1.0023 0 0 1 124.8263 222.4719)" class="st5 st6">a</text>
	<text transform="matrix(1.0023 0 0 1 130.8956 222.4719)" class="st5 st6">r</text>
	<text transform="matrix(1.0023 0 0 1 135.2247 222.4719)" class="st5 st6">:</text>
	<text transform="matrix(1.0023 0 0 1 137.8185 222.4719)" class="st5 st6"> </text>
	<text transform="matrix(1.0023 0 0 1 141.2823 222.4719)" class="st5 st6">x</text>
	<text transform="matrix(1.0023 0 0 1 146.4845 222.4719)" class="st5 st6">s</text>
	<text transform="matrix(1.0023 0 0 1 151.6905 222.4719)" class="st5 st6">:</text>
	<text transform="matrix(1.0023 0 0 1 154.2843 222.4719)" class="st5 st6">:</text>
	<text transform="matrix(1.0023 0 0 1 156.877 222.4719)" class="st5 st6">g</text>
	<text transform="matrix(1.0023 0 0 1 163.8165 222.4719)" class="st5 st6">Y</text>
	<text transform="matrix(1.0023 0 0 1 169.8966 222.4719)" class="st5 st6">e</text>
	<text transform="matrix(1.0023 0 0 1 175.9669 222.4719)" class="st5 st6">a</text>
	<text transform="matrix(1.0023 0 0 1 182.0362 222.4719)" class="st5 st6">r</text>
	<text transform="matrix(1.0023 0 0 1 186.3663 222.4719)" class="st5 st6"> </text>
	<text transform="matrix(1.0023 0 0 1 189.8302 222.4719)" class="st5 st6">[</text>
	<text transform="matrix(1.0023 0 0 1 193.2921 222.4719)" class="st5 st6">0</text>
	<text transform="matrix(1.0023 0 0 1 199.3751 222.4719)" class="st5 st6">.</text>
	<text transform="matrix(1.0023 0 0 1 201.9688 222.4719)" class="st5 st6">.</text>
	<text transform="matrix(1.0023 0 0 1 204.5616 222.4719)" class="st5 st6">1</text>
	<text transform="matrix(1.0023 0 0 1 210.6456 222.4719)" class="st5 st6">]</text>
	<text transform="matrix(1.0023 0 0 1 30.2081 237.2044)" class="st5 st6">+</text>
	<text transform="matrix(1.0023 0 0 1 38.0186 237.2044)" class="st5 st6"> </text>
	<text transform="matrix(1.0023 0 0 1 49.3018 237.2044)" class="st5 st6">m</text>
	<text transform="matrix(1.0023 0 0 1 58.8526 237.2044)" class="st5 st6">a</text>
	<text transform="matrix(1.0023 0 0 1 64.922 237.2044)" class="st5 st6">i</text>
	<text transform="matrix(1.0023 0 0 1 67.5313 237.2044)" class="st5 st6">n</text>
	<text transform="matrix(1.0023 0 0 1 73.6134 237.2044)" class="st5 st6">t</text>
	<text transform="matrix(1.0023 0 0 1 77.088 237.2044)" class="st5 st6">e</text>
	<text transform="matrix(1.0023 0 0 1 83.1583 237.2044)" class="st5 st6">n</text>
	<text transform="matrix(1.0023 0 0 1 89.2403 237.2044)" class="st5 st6">a</text>
	<text transform="matrix(1.0023 0 0 1 95.3097 237.2044)" class="st5 st6">n</text>
	<text transform="matrix(1.0023 0 0 1 101.3917 237.2044)" class="st5 st6">c</text>
	<text transform="matrix(1.0023 0 0 1 106.6046 237.2044)" class="st5 st6">e</text>
	<text transform="matrix(1.0023 0 0 1 112.6759 237.2044)" class="st5 st6">D</text>
	<text transform="matrix(1.0023 0 0 1 120.4981 237.2044)" class="st5 st6">a</text>
	<text transform="matrix(1.0023 0 0 1 126.5675 237.2044)" class="st5 st6">t</text>
	<text transform="matrix(1.0023 0 0 1 130.0421 237.2044)" class="st5 st6">e</text>
	<text transform="matrix(1.0023 0 0 1 136.1124 237.2044)" class="st5 st6">:</text>
	<text transform="matrix(1.0023 0 0 1 138.7061 237.2044)" class="st5 st6"> </text>
	<text transform="matrix(1.0023 0 0 1 142.17 237.2044)" class="st5 st6">x</text>
	<text transform="matrix(1.0023 0 0 1 147.3722 237.2044)" class="st5 st6">s</text>
	<text transform="matrix(1.0023 0 0 1 152.5782 237.2044)" class="st5 st6">:</text>
	<text transform="matrix(1.0023 0 0 1 155.172 237.2044)" class="st5 st6">:</text>
	<text transform="matrix(1.0023 0 0 1 157.7647 237.2044)" class="st5 st6">d</text>
	<text transform="matrix(1.0023 0 0 1 164.7042 237.2044)" class="st5 st6">a</text>
	<text transform="matrix(1.0023 0 0 1 170.7735 237.2044)" class="st5 st6">t</text>
	<text transform="matrix(1.0023 0 0 1 174.2472 237.2044)" class="st5 st6">e</text>
	<text transform="matrix(1.0023 0 0 1 180.3185 237.2044)" class="st5 st6"> </text>
	<text transform="matrix(1.0023 0 0 1 183.7823 237.2044)" class="st5 st6">[</text>
	<text transform="matrix(1.0023 0 0 1 187.2442 237.2044)" class="st5 st6">0</text>
	<text transform="matrix(1.0023 0 0 1 193.3282 237.2044)" class="st5 st6">.</text>
	<text transform="matrix(1.0023 0 0 1 195.921 237.2044)" class="st5 st6">.</text>
	<text transform="matrix(1.0023 0 0 1 198.5147 237.2044)" class="st5 st6">1</text>
	<text transform="matrix(1.0023 0 0 1 204.5977 237.2044)" class="st5 st6">]</text>
	<text transform="matrix(1.0023 0 0 1 30.2081 251.9231)" class="st5 st6">+</text>
	<text transform="matrix(1.0023 0 0 1 38.0186 251.9231)" class="st5 st6"> </text>
	<text transform="matrix(1.0023 0 0 1 49.3018 251.9231)" class="st5 st6">s</text>
	<text transform="matrix(1.0023 0 0 1 54.5079 251.9231)" class="st5 st6">t</text>
	<text transform="matrix(1.0023 0 0 1 57.9825 251.9231)" class="st5 st6">a</text>
	<text transform="matrix(1.0023 0 0 1 64.0518 251.9231)" class="st5 st6">t</text>
	<text transform="matrix(1.0023 0 0 1 67.5255 251.9231)" class="st5 st6">u</text>
	<text transform="matrix(1.0023 0 0 1 73.6075 251.9231)" class="st5 st6">s</text>
	<text transform="matrix(1.0023 0 0 1 78.8136 251.9231)" class="st5 st6">:</text>
	<text transform="matrix(1.0023 0 0 1 81.4073 251.9231)" class="st5 st6"> </text>
	<text transform="matrix(1.0023 0 0 1 84.8712 251.9231)" class="st5 st6">x</text>
	<text transform="matrix(1.0023 0 0 1 90.0733 251.9231)" class="st5 st6">s</text>
	<text transform="matrix(1.0023 0 0 1 95.2794 251.9231)" class="st5 st6">:</text>
	<text transform="matrix(1.0023 0 0 1 97.8731 251.9231)" class="st5 st6">:</text>
	<text transform="matrix(1.0023 0 0 1 100.4659 251.9231)" class="st5 st6">s</text>
	<text transform="matrix(1.0023 0 0 1 105.672 251.9231)" class="st5 st6">t</text>
	<text transform="matrix(1.0023 0 0 1 109.1466 251.9231)" class="st5 st6">r</text>
	<text transform="matrix(1.0023 0 0 1 113.4766 251.9231)" class="st5 st6">i</text>
	<text transform="matrix(1.0023 0 0 1 116.086 251.9231)" class="st5 st6">n</text>
	<text transform="matrix(1.0023 0 0 1 122.1671 251.9231)" class="st5 st6">g</text>
	<text transform="matrix(1.0023 0 0 1 129.1065 251.9231)" class="st5 st6"> </text>
	<text transform="matrix(1.0023 0 0 1 132.5704 251.9231)" class="st5 st6">[</text>
	<text transform="matrix(1.0023 0 0 1 136.0323 251.9231)" class="st5 st6">0</text>
	<text transform="matrix(1.0023 0 0 1 142.1153 251.9231)" class="st5 st6">.</text>
	<text transform="matrix(1.0023 0 0 1 144.7091 251.9231)" class="st5 st6">.</text>
	<text transform="matrix(1.0023 0 0 1 147.3028 251.9231)" class="st5 st6">1</text>
	<text transform="matrix(1.0023 0 0 1 153.3858 251.9231)" class="st5 st6">]</text>
	<text transform="matrix(1.0023 0 0 1 30.2081 266.6575)" class="st5 st6">+</text>
	<text transform="matrix(1.0023 0 0 1 38.0186 266.6575)" class="st5 st6"> </text>
	<text transform="matrix(1.0023 0 0 1 49.3018 266.6575)" class="st5 st6">d</text>
	<text transform="matrix(1.0023 0 0 1 56.2413 266.6575)" class="st5 st6">e</text>
	<text transform="matrix(1.0023 0 0 1 62.3116 266.6575)" class="st5 st6">s</text>
	<text transform="matrix(1.0023 0 0 1 67.5177 266.6575)" class="st5 st6">c</text>
	<text transform="matrix(1.0023 0 0 1 72.7306 266.6575)" class="st5 st6">r</text>
	<text transform="matrix(1.0023 0 0 1 77.0606 266.6575)" class="st5 st6">i</text>
	<text transform="matrix(1.0023 0 0 1 79.67 266.6575)" class="st5 st6">p</text>
	<text transform="matrix(1.0023 0 0 1 86.6085 266.6575)" class="st5 st6">t</text>
	<text transform="matrix(1.0023 0 0 1 90.0831 266.6575)" class="st5 st6">i</text>
	<text transform="matrix(1.0023 0 0 1 92.6925 266.6575)" class="st5 st6">o</text>
	<text transform="matrix(1.0023 0 0 1 99.6319 266.6575)" class="st5 st6">n</text>
	<text transform="matrix(1.0023 0 0 1 105.714 266.6575)" class="st5 st6">:</text>
	<text transform="matrix(1.0023 0 0 1 108.3077 266.6575)" class="st5 st6"> </text>
	<text transform="matrix(1.0023 0 0 1 111.7716 266.6575)" class="st5 st6">x</text>
	<text transform="matrix(1.0023 0 0 1 116.9737 266.6575)" class="st5 st6">s</text>
	<text transform="matrix(1.0023 0 0 1 122.1798 266.6575)" class="st5 st6">:</text>
	<text transform="matrix(1.0023 0 0 1 124.7735 266.6575)" class="st5 st6">:</text>
	<text transform="matrix(1.0023 0 0 1 127.3663 266.6575)" class="st5 st6">s</text>
	<text transform="matrix(1.0023 0 0 1 132.5724 266.6575)" class="st5 st6">t</text>
	<text transform="matrix(1.0023 0 0 1 136.047 266.6575)" class="st5 st6">r</text>
	<text transform="matrix(1.0023 0 0 1 140.377 266.6575)" class="st5 st6">i</text>
	<text transform="matrix(1.0023 0 0 1 142.9854 266.6575)" class="st5 st6">n</text>
	<text transform="matrix(1.0023 0 0 1 149.0675 266.6575)" class="st5 st6">g</text>
	<text transform="matrix(1.0023 0 0 1 156.0069 266.6575)" class="st5 st6"> </text>
	<text transform="matrix(1.0023 0 0 1 159.4708 266.6575)" class="st5 st6">[</text>
	<text transform="matrix(1.0023 0 0 1 162.9327 266.6575)" class="st5 st6">0</text>
	<text transform="matrix(1.0023 0 0 1 169.0157 266.6575)" class="st5 st6">.</text>
	<text transform="matrix(1.0023 0 0 1 171.6095 266.6575)" class="st5 st6">.</text>
	<text transform="matrix(1.0023 0 0 1 174.2022 266.6575)" class="st5 st6">1</text>
	<text transform="matrix(1.0023 0 0 1 180.2862 266.6575)" class="st5 st6">]</text>
	<line class="st17" x1="141.3" y1="137.6" x2="141.3" y2="96"/>
	<polyline class="st18" points="146.5,109.9 136.1,109.9 141.3,96 146.5,109.9 	"/>
	<polygon class="st17" points="146.5,109.9 136.1,109.9 141.3,96 	"/>
</g>
</svg>
