<?xml version="1.0" encoding="utf-8"?>
<!-- Generator: Adobe Illustrator 27.9.1, SVG Export Plug-In . SVG Version: 6.00 Build 0)  -->
<svg version="1.1" id="レイヤー_1" xmlns="http://www.w3.org/2000/svg" xmlns:xlink="http://www.w3.org/1999/xlink" x="0px"
	 y="0px" viewBox="0 0 446.3410339 361.3440552" style="enable-background:new 0 0 446.3410339 361.3440552;" xml:space="preserve">
<style type="text/css">
	.st0{fill-rule:evenodd;clip-rule:evenodd;fill:#F0F0F0;}
	.st1{fill:none;stroke:#D7D7D7;stroke-width:0.5142857;stroke-linecap:square;stroke-miterlimit:10;}
	.st2{fill-rule:evenodd;clip-rule:evenodd;fill:#A0FFC0;}
	.st3{fill:none;stroke:#000000;stroke-width:0.5142857;stroke-linecap:square;stroke-miterlimit:10;}
	.st4{fill:#003060;}
	.st5{font-family:'YuGothicUI-Regular';}
	.st6{font-size:6.6857147px;}
	.st7{fill-rule:evenodd;clip-rule:evenodd;fill:#FFFFCC;}
	.st8{fill-rule:evenodd;clip-rule:evenodd;fill:#FFCCFF;}
	.st9{font-family:'YuGothicUI-Bold';}
	.st10{font-size:8.2285719px;}
	.st11{fill:none;stroke:#000000;stroke-width:1.0285715;stroke-linecap:round;stroke-linejoin:bevel;stroke-miterlimit:10;}
	.st12{font-size:7.0386257px;}
	.st13{fill:none;stroke:#000000;stroke-width:0.1910204;stroke-miterlimit:10;}
	.st14{fill-rule:evenodd;clip-rule:evenodd;fill:#FFFFFF;}
</style>
<g>
	<path class="st0" d="M351.3381653,18.9027729c0.8414612,0,1.5235901,0.6907349,1.5235901,1.5428467h0.0000305v45.2571411
		h-0.0000305c0,0.8521118-0.6821289,1.5428467-1.5236206,1.5428467l0,0h0.0000305h-90.9094543h-0.0000305
		c-0.8414307,0-1.5236206-0.6907349-1.5236206-1.5428467h0.0000305V20.4456196c0-0.8521118,0.6821594-1.5428467,1.5236206-1.5428467
		l0,0H351.3381653L351.3381653,18.9027729L351.3381653,18.9027729z"/>
	<path class="st1" d="M351.3381653,18.9027729c0.8414612,0,1.5235901,0.6907349,1.5235901,1.5428467h0.0000305v45.2571411
		h-0.0000305c0,0.8521118-0.6821289,1.5428467-1.5236206,1.5428467l0,0h0.0000305h-90.9094543h-0.0000305
		c-0.8414307,0-1.5236206-0.6907349-1.5236206-1.5428467h0.0000305V20.4456196c0-0.8521118,0.6821594-1.5428467,1.5236206-1.5428467
		l0,0H351.3381653L351.3381653,18.9027729L351.3381653,18.9027729z"/>
	<polygon class="st2" points="263.9838257,43.0741577 272.6177063,43.0741577 272.6177063,34.3312988 263.9838257,34.3312988 	"/>
	<polygon class="st3" points="263.9838257,43.0741577 272.6177063,43.0741577 272.6177063,34.3312988 263.9838257,34.3312988 	"/>
	<text transform="matrix(0.85 0 0 1 275.1577148 41.5311127)" class="st4 st5 st6">GMLで定義されたクラス</text>
	<polygon class="st7" points="263.9838257,52.8456421 272.6177063,52.8456421 272.6177063,44.1027222 263.9838257,44.1027222 	"/>
	<polygon class="st3" points="263.9838257,52.8456421 272.6177063,52.8456421 272.6177063,44.1027222 263.9838257,44.1027222 	"/>
	<text transform="matrix(0.85 0 0 1 275.1577148 51.2967377)" class="st4 st5 st6">CityGMLで定義されたクラス</text>
	<polygon class="st8" points="263.9838257,62.6170044 272.6177063,62.6170044 272.6177063,53.8742065 263.9838257,53.8742065 	"/>
	<polygon class="st3" points="263.9838257,62.6170044 272.6177063,62.6170044 272.6177063,53.8742065 263.9838257,53.8742065 	"/>
	<text transform="matrix(0.85 0 0 1 275.1577148 61.0701752)" class="st4 st5 st6">i-URで定義されたクラス</text>
	<text transform="matrix(0.85 0 0 1 300.0478516 31.9637299)" class="st4 st9 st10">凡例</text>
	<polygon class="st8" points="95.8775101,50.2741699 181.7082367,50.2741699 181.7082367,9.1312742 95.8775101,9.1312742 	"/>
	<polygon class="st11" points="95.8775101,50.2741699 181.7082367,50.2741699 181.7082367,9.1312742 95.8775101,9.1312742 	"/>
	<text transform="matrix(0.85 0 0 1 121.2666016 19.4139252)" class="st5 st6">«DataType»</text>
	<text transform="matrix(0.85 0 -0.3126727 0.9498609 107.5707016 28.1577721)" class="st5 st12">u</text>
	<text transform="matrix(0.85 0 -0.3126727 0.9498609 107.5707016 28.1577721)" class="st13 st5 st12">u</text>
	<text transform="matrix(0.85 0 -0.3126727 0.9498609 111.6302719 28.1577721)" class="st5 st12">r</text>
	<text transform="matrix(0.85 0 -0.3126727 0.9498609 111.6302719 28.1577721)" class="st13 st5 st12">r</text>
	<text transform="matrix(0.85 0 -0.3126727 0.9498609 114.163475 28.1577721)" class="st5 st12">o</text>
	<text transform="matrix(0.85 0 -0.3126727 0.9498609 114.163475 28.1577721)" class="st13 st5 st12">o</text>
	<text transform="matrix(0.85 0 -0.3126727 0.9498609 118.2240219 28.1577721)" class="st5 st12">::</text>
	<text transform="matrix(0.85 0 -0.3126727 0.9498609 118.2240219 28.1577721)" class="st13 st5 st12">::</text>
	<text transform="matrix(0.85 0 -0.3126727 0.9498609 121.2582016 28.1577721)" class="st5 st12">F</text>
	<text transform="matrix(0.85 0 -0.3126727 0.9498609 121.2582016 28.1577721)" class="st13 st5 st12">F</text>
	<text transform="matrix(0.85 0 -0.3126727 0.9498609 124.8119125 28.1577721)" class="st5 st12">a</text>
	<text transform="matrix(0.85 0 -0.3126727 0.9498609 124.8119125 28.1577721)" class="st13 st5 st12">a</text>
	<text transform="matrix(0.85 0 -0.3126727 0.9498609 128.3626862 28.1577721)" class="st5 st12">c</text>
	<text transform="matrix(0.85 0 -0.3126727 0.9498609 128.3626862 28.1577721)" class="st13 st5 st12">c</text>
	<text transform="matrix(0.85 0 -0.3126727 0.9498609 131.4124908 28.1577721)" class="st5 st12">ili</text>
	<text transform="matrix(0.85 0 -0.3126727 0.9498609 131.4124908 28.1577721)" class="st13 st5 st12">ili</text>
	<text transform="matrix(0.85 0 -0.3126727 0.9498609 135.9915924 28.1577721)" class="st5 st12">t</text>
	<text transform="matrix(0.85 0 -0.3126727 0.9498609 135.9915924 28.1577721)" class="st13 st5 st12">t</text>
	<text transform="matrix(0.85 0 -0.3126727 0.9498609 138.5257721 28.1577721)" class="st5 st12">y</text>
	<text transform="matrix(0.85 0 -0.3126727 0.9498609 138.5257721 28.1577721)" class="st13 st5 st12">y</text>
	<text transform="matrix(0.85 0 -0.3126727 0.9498609 142.0775299 28.1577721)" class="st5 st12">A</text>
	<text transform="matrix(0.85 0 -0.3126727 0.9498609 142.0775299 28.1577721)" class="st13 st5 st12">A</text>
	<text transform="matrix(0.85 0 -0.3126727 0.9498609 146.6458893 28.1577721)" class="st5 st12">tt</text>
	<text transform="matrix(0.85 0 -0.3126727 0.9498609 146.6458893 28.1577721)" class="st13 st5 st12">tt</text>
	<text transform="matrix(0.85 0 -0.3126727 0.9498609 151.7152252 28.1577721)" class="st5 st12">r</text>
	<text transform="matrix(0.85 0 -0.3126727 0.9498609 151.7152252 28.1577721)" class="st13 st5 st12">r</text>
	<text transform="matrix(0.85 0 -0.3126727 0.9498609 154.2484283 28.1577721)" class="st5 st12">i</text>
	<text transform="matrix(0.85 0 -0.3126727 0.9498609 154.2484283 28.1577721)" class="st13 st5 st12">i</text>
	<text transform="matrix(0.85 0 -0.3126727 0.9498609 155.7747955 28.1577721)" class="st5 st12">b</text>
	<text transform="matrix(0.85 0 -0.3126727 0.9498609 155.7747955 28.1577721)" class="st13 st5 st12">b</text>
	<text transform="matrix(0.85 0 -0.3126727 0.9498609 159.8343658 28.1577721)" class="st5 st12">u</text>
	<text transform="matrix(0.85 0 -0.3126727 0.9498609 159.8343658 28.1577721)" class="st13 st5 st12">u</text>
	<text transform="matrix(0.85 0 -0.3126727 0.9498609 163.8939362 28.1577721)" class="st5 st12">t</text>
	<text transform="matrix(0.85 0 -0.3126727 0.9498609 163.8939362 28.1577721)" class="st13 st5 st12">t</text>
	<text transform="matrix(0.85 0 -0.3126727 0.9498609 166.4281158 28.1577721)" class="st5 st12">e</text>
	<text transform="matrix(0.85 0 -0.3126727 0.9498609 166.4281158 28.1577721)" class="st13 st5 st12">e</text>
	<line class="st11" x1="95.8775101" y1="32.2741699" x2="181.2003632" y2="32.2741699"/>
	<text transform="matrix(0.85 0 0 1 98.4228516 41.5311127)" class="st5 st6">+ </text>
	<text transform="matrix(0.85 0 0 1 109.5947266 41.5311127)" class="st5 st6">facilityId: xs::string [0..1]</text>
	<polygon class="st8" points="269.062561,353.1885071 434.6295166,353.1885071 434.6295166,294.559906 269.062561,294.559906 	"/>
	<polygon class="st11" points="269.062561,353.1885071 434.6295166,353.1885071 434.6295166,294.559906 269.062561,294.559906 	"/>
	<text transform="matrix(0.85 0 0 1 334.0712891 304.8436279)" class="st5 st6">«DataType»</text>
	<text transform="matrix(0.85 0 0 1 315.2744141 313.5780029)" class="st9 st6">uro::LongevityMeasures</text>
	<line class="st11" x1="269.062561" y1="317.7027893" x2="434.1216431" y2="317.7027893"/>
	<text transform="matrix(0.85 0 0 1 271.6030273 326.9608154)" class="st5 st6">+ </text>
	<text transform="matrix(0.85 0 0 1 282.7749023 326.9608154)" class="st5 st6">fiscalYearForCountermeasures: xs::gYear</text>
	<text transform="matrix(0.85 0 0 1 271.6030273 335.7030029)" class="st5 st6">+ </text>
	<text transform="matrix(0.85 0 0 1 282.7749023 335.7030029)" class="st5 st6">countermeasuresCost: CountermeasuresCost [0..1]</text>
	<text transform="matrix(0.85 0 0 1 271.6030273 344.4373779)" class="st5 st6">+ </text>
	<text transform="matrix(0.85 0 0 1 282.7749023 344.4373779)" class="st5 st6">description: xs::string [0..1]</text>
	<polygon class="st8" points="269.062561,285.3027649 385.8736267,285.3027649 385.8736267,218.9598999 269.062561,218.9598999 	"/>
	<polygon class="st11" points="269.062561,285.3027649 385.8736267,285.3027649 385.8736267,218.9598999 269.062561,218.9598999 	
		"/>
	<text transform="matrix(0.85 0 0 1 309.6884766 229.2498627)" class="st5 st6">«DataType»</text>
	<text transform="matrix(0.85 0 0 1 320.3603516 237.9842377)" class="st9 st6">uro::</text>
	<text transform="matrix(0.85 0 0 1 271.0952148 246.7264252)" class="st9 st6">RepairsBeforeParkHealthAssessment</text>
	<line class="st11" x1="269.062561" y1="250.8456116" x2="385.3657532" y2="250.8456116"/>
	<text transform="matrix(0.85 0 0 1 271.6030273 260.1092529)" class="st5 st6">+ </text>
	<text transform="matrix(0.85 0 0 1 282.7749023 260.1092529)" class="st5 st6">repair: gml::CodeType</text>
	<text transform="matrix(0.85 0 0 1 271.6030273 268.8436279)" class="st5 st6">+ </text>
	<text transform="matrix(0.85 0 0 1 282.7749023 268.8436279)" class="st5 st6">repairFiscalYear: xs::gYear [0..1]</text>
	<polygon class="st8" points="271.0940857,143.3599243 376.223999,143.3599243 376.223999,92.9598999 271.0940857,92.9598999 	"/>
	<polygon class="st11" points="271.0940857,143.3599243 376.223999,143.3599243 376.223999,92.9598999 271.0940857,92.9598999 	"/>
	<text transform="matrix(0.85 0 0 1 306.1337891 103.2420502)" class="st5 st6">«DataType»</text>
	<text transform="matrix(0.85 0 0 1 287.8530273 111.9842377)" class="st9 st6">uro::NumberOfFacilities</text>
	<line class="st11" x1="271.0940857" y1="116.1027222" x2="375.7161255" y2="116.1027222"/>
	<text transform="matrix(0.85 0 0 1 273.6342773 125.3592377)" class="st5 st6">+ </text>
	<text transform="matrix(0.85 0 0 1 284.8061523 125.3592377)" class="st5 st6">quantity: xs::integer</text>
	<text transform="matrix(0.85 0 0 1 273.6342773 134.1014252)" class="st5 st6">+ </text>
	<text transform="matrix(0.85 0 0 1 284.8061523 134.1014252)" class="st5 st6">quantityUnit: gml::CodeType</text>
	<polygon class="st8" points="268.5546875,214.3313293 386.3815002,214.3313293 386.3815002,150.5598755 268.5546875,150.5598755 	
		"/>
	<polygon class="st11" points="268.5546875,214.3313293 386.3815002,214.3313293 386.3815002,150.5598755 268.5546875,150.5598755 	
		"/>
	<text transform="matrix(0.85 0 0 1 309.6884766 160.8436127)" class="st5 st6">«</text>
	<text transform="matrix(0.85 0 0 1 313.2392578 160.8436127)" class="st5 st6">D</text>
	<text transform="matrix(0.85 0 0 1 317.8164062 160.8436127)" class="st5 st6">a</text>
	<text transform="matrix(0.85 0 0 1 321.3671875 160.8436127)" class="st5 st6">t</text>
	<text transform="matrix(0.85 0 0 1 323.3994141 160.8436127)" class="st5 st6">a</text>
	<text transform="matrix(0.85 0 0 1 326.9501953 160.8436127)" class="st5 st6">T</text>
	<text transform="matrix(0.85 0 0 1 330.5019531 160.8436127)" class="st5 st6">y</text>
	<text transform="matrix(0.85 0 0 1 333.5507812 160.8436127)" class="st5 st6">p</text>
	<text transform="matrix(0.85 0 0 1 337.6113281 160.8436127)" class="st5 st6">e</text>
	<text transform="matrix(0.85 0 0 1 341.1630859 160.8436127)" class="st5 st6">»</text>
	<text transform="matrix(0.85 0 0 1 285.3139648 169.5858002)" class="st9 st6">u</text>
	<text transform="matrix(0.85 0 0 1 289.3706055 169.5858002)" class="st9 st6">r</text>
	<text transform="matrix(0.85 0 0 1 291.9067383 169.5858002)" class="st9 st6">o</text>
	<text transform="matrix(0.85 0 0 1 295.9682617 169.5858002)" class="st9 st6">::</text>
	<text transform="matrix(0.85 0 0 1 299.0214844 169.5858002)" class="st9 st6">P</text>
	<text transform="matrix(0.85 0 0 1 303.078125 169.5858002)" class="st9 st6">a</text>
	<text transform="matrix(0.85 0 0 1 306.6298828 169.5858002)" class="st9 st6">r</text>
	<text transform="matrix(0.85 0 0 1 309.1660156 169.5858002)" class="st9 st6">k</text>
	<text transform="matrix(0.85 0 0 1 312.7177734 169.5858002)" class="st9 st6">H</text>
	<text transform="matrix(0.85 0 0 1 317.7910156 169.5858002)" class="st9 st6">e</text>
	<text transform="matrix(0.85 0 0 1 321.3447266 169.5858002)" class="st9 st6">a</text>
	<text transform="matrix(0.85 0 0 1 324.8964844 169.5858002)" class="st9 st6">l</text>
	<text transform="matrix(0.85 0 0 1 326.4228516 169.5858002)" class="st9 st6">t</text>
	<text transform="matrix(0.85 0 0 1 328.9599609 169.5858002)" class="st9 st6">h</text>
	<text transform="matrix(0.85 0 0 1 333.0205078 169.5858002)" class="st9 st6">A</text>
	<text transform="matrix(0.85 0 0 1 337.5859375 169.5858002)" class="st9 st6">ss</text>
	<text transform="matrix(0.85 0 0 1 343.6748047 169.5858002)" class="st9 st6">e</text>
	<text transform="matrix(0.85 0 0 1 347.2285156 169.5858002)" class="st9 st6">ss</text>
	<text transform="matrix(0.85 0 0 1 353.3183594 169.5858002)" class="st9 st6">m</text>
	<text transform="matrix(0.85 0 0 1 359.4101562 169.5858002)" class="st9 st6">e</text>
	<text transform="matrix(0.85 0 0 1 362.9638672 169.5858002)" class="st9 st6">n</text>
	<text transform="matrix(0.85 0 0 1 367.0214844 169.5858002)" class="st9 st6">t</text>
	<line class="st11" x1="268.5546875" y1="173.7027588" x2="385.8736267" y2="173.7027588"/>
	<text transform="matrix(0.85 0 0 1 271.0952148 182.9529877)" class="st5 st6">+ </text>
	<text transform="matrix(0.85 0 0 1 282.2670898 182.9529877)" class="st5 st6">assessmentFiscalYear: xs::gYear</text>
	<text transform="matrix(0.85 0 0 1 271.0952148 191.6951752)" class="st5 st6">+ </text>
	<text transform="matrix(0.85 0 0 1 282.2670898 191.6951752)" class="st5 st6">deteriorationStatus: xs::string [0..1]</text>
	<text transform="matrix(0.85 0 0 1 271.0952148 200.4451752)" class="st5 st6">+ </text>
	<text transform="matrix(0.85 0 0 1 282.2670898 200.4451752)" class="st5 st6">condition: gml::CodeType [0..1]</text>
	<text transform="matrix(0.85 0 0 1 271.0952148 209.1873627)" class="st5 st6">+ </text>
	<text transform="matrix(0.85 0 0 1 282.2670898 209.1873627)" class="st5 st6">urgency: gml::CodeType [0..1]</text>
	<polygon class="st8" points="10.046792,288.9028015 259.4129639,288.9028015 259.4129639,92.9598999 10.046792,92.9598999 	"/>
	<polygon class="st11" points="10.046792,288.9028015 259.4129639,288.9028015 259.4129639,92.9598999 10.046792,92.9598999 	"/>
	<text transform="matrix(0.85 0 0 1 117.2041016 103.2420502)" class="st5 st6">«DataType»</text>
	<text transform="matrix(0.85 0 0 1 88.7666016 111.9842377)" class="st9 st6">uro::ParkFacilityLongevityPlan</text>
	<line class="st11" x1="10.046792" y1="116.1027222" x2="258.9050903" y2="116.1027222"/>
	<text transform="matrix(0.85 0 0 1 12.5869141 125.3592377)" class="st5 st6">+ </text>
	<text transform="matrix(0.85 0 0 1 23.7587891 125.3592377)" class="st5 st6">parkCode: gml::CodeType</text>
	<text transform="matrix(0.85 0 0 1 12.5869141 134.1014252)" class="st5 st6">+ </text>
	<text transform="matrix(0.85 0 0 1 23.7587891 134.1014252)" class="st5 st6">parkName: gml::CodeType</text>
	<text transform="matrix(0.85 0 0 1 12.5869141 142.8436127)" class="st5 st6">+ </text>
	<text transform="matrix(0.85 0 0 1 23.7587891 142.8436127)" class="st5 st6">parkType: gml::CodeType</text>
	<text transform="matrix(0.85 0 0 1 12.5869141 151.5936127)" class="st5 st6">+ </text>
	<text transform="matrix(0.85 0 0 1 23.7587891 151.5936127)" class="st5 st6">facilityName: gml::CodeType [0..1]</text>
	<text transform="matrix(0.85 0 0 1 12.5869141 160.3279877)" class="st5 st6">+ </text>
	<text transform="matrix(0.85 0 0 1 23.7587891 160.3279877)" class="st5 st6">facilityNameOptional: xs::string [0..1]</text>
	<text transform="matrix(0.85 0 0 1 12.5869141 169.0701752)" class="st5 st6">+ </text>
	<text transform="matrix(0.85 0 0 1 23.7587891 169.0701752)" class="st5 st6">specificFacilityName: xs::string</text>
	<text transform="matrix(0.85 0 0 1 12.5869141 177.8201752)" class="st5 st6">+ </text>
	<text transform="matrix(0.85 0 0 1 23.7587891 177.8201752)" class="st5 st6">numberOfFacilities: NumberOfFacilities [0..1]</text>
	<text transform="matrix(0.85 0 0 1 12.5869141 186.5623627)" class="st5 st6">+ </text>
	<text transform="matrix(0.85 0 0 1 23.7587891 186.5623627)" class="st5 st6">size: xs::string [0..1]</text>
	<text transform="matrix(0.85 0 0 1 12.5869141 195.2967377)" class="st5 st6">+ </text>
	<text transform="matrix(0.85 0 0 1 23.7587891 195.2967377)" class="st5 st6">mainMaterial: gml::CodeType [0..1]</text>
	<text transform="matrix(0.85 0 0 1 12.5869141 204.0389252)" class="st5 st6">+ </text>
	<text transform="matrix(0.85 0 0 1 23.7587891 204.0389252)" class="st5 st6">mainMaterialOptional: xs::string [0..1]</text>
	<text transform="matrix(0.85 0 0 1 12.5869141 212.7811127)" class="st5 st6">+ </text>
	<text transform="matrix(0.85 0 0 1 23.7587891 212.7811127)" class="st5 st6">installationYear: xs::gYear</text>
	<text transform="matrix(0.85 0 0 1 12.5869141 221.5311127)" class="st5 st6">+ </text>
	<text transform="matrix(0.85 0 0 1 23.7587891 221.5311127)" class="st5 st6">disposalLimitPeriod: xs::integer [0..1]</text>
	<text transform="matrix(0.85 0 0 1 12.5869141 230.2733002)" class="st5 st6">+ </text>
	<text transform="matrix(0.85 0 0 1 23.7587891 230.2733002)" class="st5 st6">expectedUsagePeriod: xs::integer [0..1]</text>
	<text transform="matrix(0.85 0 0 1 12.5869141 239.0154877)" class="st5 st6">+ </text>
	<text transform="matrix(0.85 0 0 1 23.7587891 239.0154877)" class="st5 st6">repairsBeforeParkHealthAssessment: RepairsBeforeParkHealthAssessment [0..1]</text>
	<text transform="matrix(0.85 0 0 1 12.5869141 247.7654877)" class="st5 st6">+ </text>
	<text transform="matrix(0.85 0 0 1 23.7587891 247.7654877)" class="st5 st6">parkHealthAssessment: ParkHealthAssessment [0..*]</text>
	<text transform="matrix(0.85 0 0 1 12.5869141 256.4998779)" class="st5 st6">+ </text>
	<text transform="matrix(0.85 0 0 1 23.7587891 256.4998779)" class="st5 st6">managementType: gml::CodeType [0..1]</text>
	<text transform="matrix(0.85 0 0 1 12.5869141 265.2420654)" class="st5 st6">+ </text>
	<text transform="matrix(0.85 0 0 1 23.7587891 265.2420654)" class="st5 st6">expectedRenewalYearWithMeasures: xs::gYear [0..1]</text>
	<text transform="matrix(0.85 0 0 1 12.5869141 273.9920654)" class="st5 st6">+ </text>
	<text transform="matrix(0.85 0 0 1 23.7587891 273.9920654)" class="st5 st6">longevityMeasures: LongevityMeasures [0..*]</text>
	<text transform="matrix(0.85 0 0 1 12.5869141 282.7342529)" class="st5 st6">+ </text>
	<text transform="matrix(0.85 0 0 1 23.7587891 282.7342529)" class="st5 st6">noteForLongevity: xs::string [0..1]</text>
	<line class="st11" x1="144.1255646" y1="92.4456177" x2="144.1255646" y2="50.7884521"/>
	<polyline class="st14" points="147.1728058,59.0170288 141.0783234,59.0170288 144.1255646,50.7884521 147.1728058,59.0170288 	"/>
	<polygon class="st11" points="147.1728058,59.0170288 141.0783234,59.0170288 144.1255646,50.7884521 	"/>
</g>
</svg>
