<?xml version="1.0" encoding="utf-8"?>
<!-- Generator: Adobe Illustrator 26.5.2, SVG Export Plug-In . SVG Version: 6.00 Build 0)  -->
<svg version="1.1" id="レイヤー_1" xmlns="http://www.w3.org/2000/svg" xmlns:xlink="http://www.w3.org/1999/xlink" x="0px"
	 y="0px" viewBox="0 0 619.9 477.9" style="enable-background:new 0 0 619.9 477.9;" xml:space="preserve">
<style type="text/css">
	.st0{fill-rule:evenodd;clip-rule:evenodd;fill:#CFD1D8;}
	.st1{fill-rule:evenodd;clip-rule:evenodd;fill:#FFFFCC;}
	.st2{fill:none;stroke:#000000;stroke-width:1.7322;stroke-linecap:round;stroke-linejoin:round;stroke-miterlimit:10;}
	.st3{font-family:'YuGothicUI-Regular';}
	.st4{font-size:11.2598px;}
	.st5{font-size:11.8721px;}
	.st6{fill:none;stroke:#000000;stroke-width:0.3218;stroke-miterlimit:10;}
	.st7{font-family:'YuGothicUI-Bold';}
	.st8{fill-rule:evenodd;clip-rule:evenodd;fill:#CCFFCC;}
	.st9{fill-rule:evenodd;clip-rule:evenodd;fill:#FFFFFF;}
	.st10{fill:none;stroke:#000000;stroke-width:1.7322;stroke-linecap:square;stroke-miterlimit:10;}
	.st11{fill-rule:evenodd;clip-rule:evenodd;fill:#DCDCDC;}
	.st12{fill-rule:evenodd;clip-rule:evenodd;fill:#F0F0F0;}
	.st13{fill:none;stroke:#D7D7D7;stroke-width:0.8662;stroke-linecap:square;stroke-miterlimit:10;}
	.st14{fill:none;stroke:#000000;stroke-width:0.8662;stroke-linecap:square;stroke-miterlimit:10;}
	.st15{fill:#003060;}
	.st16{fill-rule:evenodd;clip-rule:evenodd;fill:#FFCCFF;}
	.st17{font-family:'MS-PGothic';}
	.st18{font-size:13.8582px;}
	.st19{fill:none;stroke:#003060;stroke-width:0.396;stroke-miterlimit:10;}
	.st20{fill:none;stroke:#000000;stroke-width:1.7322;stroke-linejoin:round;stroke-miterlimit:10;}
	.st21{fill:none;stroke:#000000;stroke-width:1.7322;stroke-linecap:round;stroke-linejoin:bevel;stroke-miterlimit:10;}
	.st22{font-family:'Calibri';}
	.st23{font-size:9.5276px;}
</style>
<g>
	<path class="st0" d="M563.7,193c1.2,0,2.2,1,2.2,2.2l0,0v100.5l0,0c0,1.2-1,2.2-2.2,2.2l0,0l0,0H282.4l0,0c-1.2,0-2.2-1-2.2-2.2
		l0,0V195.2c0-1.2,1-2.2,2.2-2.2l0,0H563.7L563.7,193L563.7,193z"/>
	<path class="st1" d="M561.1,190.4c1.2,0,2.2,1,2.2,2.2l0,0v100.5l0,0c0,1.2-1,2.2-2.2,2.2l0,0l0,0H279.8l0,0c-1.2,0-2.2-1-2.2-2.2
		l0,0V192.6c0-1.2,1-2.2,2.2-2.2l0,0L561.1,190.4L561.1,190.4L561.1,190.4z"/>
	<path class="st2" d="M561.1,190.4c1.2,0,2.2,1,2.2,2.2l0,0v100.5l0,0c0,1.2-1,2.2-2.2,2.2l0,0l0,0H279.8l0,0c-1.2,0-2.2-1-2.2-2.2
		l0,0V192.6c0-1.2,1-2.2,2.2-2.2l0,0L561.1,190.4L561.1,190.4L561.1,190.4z"/>
	<text transform="matrix(1.0023 0 0 1 383.5179 207.7413)" class="st3 st4">«</text>
	<text transform="matrix(1.0023 0 0 1 389.5882 207.7413)" class="st3 st4">F</text>
	<text transform="matrix(1.0023 0 0 1 394.805 207.7413)" class="st3 st4">e</text>
	<text transform="matrix(1.0023 0 0 1 400.8753 207.7413)" class="st3 st4">a</text>
	<text transform="matrix(1.0023 0 0 1 406.9456 207.7413)" class="st3 st4">t</text>
	<text transform="matrix(1.0023 0 0 1 410.4202 207.7413)" class="st3 st4">u</text>
	<text transform="matrix(1.0023 0 0 1 416.5023 207.7413)" class="st3 st4">r</text>
	<text transform="matrix(1.0023 0 0 1 420.8304 207.7413)" class="st3 st4">e</text>
	<text transform="matrix(1.0023 0 0 1 426.9026 207.7413)" class="st3 st4">T</text>
	<text transform="matrix(1.0023 0 0 1 432.973 207.7413)" class="st3 st4">y</text>
	<text transform="matrix(1.0023 0 0 1 438.1859 207.7413)" class="st3 st4">p</text>
	<text transform="matrix(1.0023 0 0 1 445.1253 207.7413)" class="st3 st4">e</text>
	<text transform="matrix(1.0023 0 0 1 451.1956 207.7413)" class="st3 st4">»</text>
	<text transform="matrix(0.9506 0 -0.3169 0.9485 377.4194 222.49)" class="st3 st5">c</text>
	<text transform="matrix(0.9506 0 -0.3169 0.9485 377.4194 222.49)" class="st6 st3 st5">c</text>
	<text transform="matrix(0.9506 0 -0.3169 0.9485 382.6323 222.49)" class="st3 st5">o</text>
	<text transform="matrix(0.9506 0 -0.3169 0.9485 382.6323 222.49)" class="st6 st3 st5">o</text>
	<text transform="matrix(0.9506 0 -0.3169 0.9485 389.5717 222.49)" class="st3 st5">r</text>
	<text transform="matrix(0.9506 0 -0.3169 0.9485 389.5717 222.49)" class="st6 st3 st5">r</text>
	<text transform="matrix(0.9506 0 -0.3169 0.9485 393.9018 222.49)" class="st3 st5">e</text>
	<text transform="matrix(0.9506 0 -0.3169 0.9485 393.9018 222.49)" class="st6 st3 st5">e</text>
	<text transform="matrix(0.9506 0 -0.3169 0.9485 399.9721 222.49)" class="st3 st5">:</text>
	<text transform="matrix(0.9506 0 -0.3169 0.9485 399.9721 222.49)" class="st6 st3 st5">:</text>
	<text transform="matrix(0.9506 0 -0.3169 0.9485 402.5659 222.49)" class="st3 st5">:</text>
	<text transform="matrix(0.9506 0 -0.3169 0.9485 402.5659 222.49)" class="st6 st3 st5">:</text>
	<text transform="matrix(0.9506 0 -0.3169 0.9485 405.1596 222.49)" class="st3 st5">_</text>
	<text transform="matrix(0.9506 0 -0.3169 0.9485 405.1596 222.49)" class="st6 st3 st5">_</text>
	<text transform="matrix(0.9506 0 -0.3169 0.9485 409.5053 222.49)" class="st3 st5">C</text>
	<text transform="matrix(0.9506 0 -0.3169 0.9485 409.5053 222.49)" class="st6 st3 st5">C</text>
	<text transform="matrix(0.9506 0 -0.3169 0.9485 416.4584 222.49)" class="st3 st5">i</text>
	<text transform="matrix(0.9506 0 -0.3169 0.9485 416.4584 222.49)" class="st6 st3 st5">i</text>
	<text transform="matrix(0.9506 0 -0.3169 0.9485 419.0678 222.49)" class="st3 st5">t</text>
	<text transform="matrix(0.9506 0 -0.3169 0.9485 419.0678 222.49)" class="st6 st3 st5">t</text>
	<text transform="matrix(0.9506 0 -0.3169 0.9485 423.3998 222.49)" class="st3 st5">y</text>
	<text transform="matrix(0.9506 0 -0.3169 0.9485 423.3998 222.49)" class="st6 st3 st5">y</text>
	<text transform="matrix(0.9506 0 -0.3169 0.9485 429.4702 222.49)" class="st3 st5">O</text>
	<text transform="matrix(0.9506 0 -0.3169 0.9485 429.4702 222.49)" class="st6 st3 st5">O</text>
	<text transform="matrix(0.9506 0 -0.3169 0.9485 438.1479 222.49)" class="st3 st5">b</text>
	<text transform="matrix(0.9506 0 -0.3169 0.9485 438.1479 222.49)" class="st6 st3 st5">b</text>
	<text transform="matrix(0.9506 0 -0.3169 0.9485 445.0854 222.49)" class="st3 st5">j</text>
	<text transform="matrix(0.9506 0 -0.3169 0.9485 445.0854 222.49)" class="st6 st3 st5">j</text>
	<text transform="matrix(0.9506 0 -0.3169 0.9485 447.6948 222.49)" class="st3 st5">e</text>
	<text transform="matrix(0.9506 0 -0.3169 0.9485 447.6948 222.49)" class="st6 st3 st5">e</text>
	<text transform="matrix(0.9506 0 -0.3169 0.9485 453.767 222.49)" class="st3 st5">c</text>
	<text transform="matrix(0.9506 0 -0.3169 0.9485 453.767 222.49)" class="st6 st3 st5">c</text>
	<text transform="matrix(0.9506 0 -0.3169 0.9485 458.9799 222.49)" class="st3 st5">t</text>
	<text transform="matrix(0.9506 0 -0.3169 0.9485 458.9799 222.49)" class="st6 st3 st5">t</text>
	<line class="st2" x1="277.6" y1="229.4" x2="563.2" y2="229.4"/>
	<text transform="matrix(1.0023 0 0 1 281.9554 244.9913)" class="st3 st4">+</text>
	<text transform="matrix(1.0023 0 0 1 289.7659 244.9913)" class="st3 st4"> </text>
	<text transform="matrix(1.0023 0 0 1 301.0491 244.9913)" class="st3 st4">c</text>
	<text transform="matrix(1.0023 0 0 1 306.262 244.9913)" class="st3 st4">r</text>
	<text transform="matrix(1.0023 0 0 1 310.5921 244.9913)" class="st3 st4">e</text>
	<text transform="matrix(1.0023 0 0 1 316.6624 244.9913)" class="st3 st4">a</text>
	<text transform="matrix(1.0023 0 0 1 322.7327 244.9913)" class="st3 st4">t</text>
	<text transform="matrix(1.0023 0 0 1 326.2054 244.9913)" class="st3 st4">i</text>
	<text transform="matrix(1.0023 0 0 1 328.8148 244.9913)" class="st3 st4">o</text>
	<text transform="matrix(1.0023 0 0 1 335.7542 244.9913)" class="st3 st4">n</text>
	<text transform="matrix(1.0023 0 0 1 341.8362 244.9913)" class="st3 st4">D</text>
	<text transform="matrix(1.0023 0 0 1 349.6605 244.9913)" class="st3 st4">a</text>
	<text transform="matrix(1.0023 0 0 1 355.7288 244.9913)" class="st3 st4">t</text>
	<text transform="matrix(1.0023 0 0 1 359.2034 244.9913)" class="st3 st4">e</text>
	<text transform="matrix(1.0023 0 0 1 365.2737 244.9913)" class="st3 st4">:</text>
	<text transform="matrix(1.0023 0 0 1 367.8675 244.9913)" class="st3 st4"> </text>
	<text transform="matrix(1.0023 0 0 1 371.3323 244.9913)" class="st3 st4">x</text>
	<text transform="matrix(1.0023 0 0 1 376.5335 244.9913)" class="st3 st4">s</text>
	<text transform="matrix(1.0023 0 0 1 381.7405 244.9913)" class="st3 st4">:</text>
	<text transform="matrix(1.0023 0 0 1 384.3343 244.9913)" class="st3 st4">:</text>
	<text transform="matrix(1.0023 0 0 1 386.9261 244.9913)" class="st3 st4">d</text>
	<text transform="matrix(1.0023 0 0 1 393.8655 244.9913)" class="st3 st4">a</text>
	<text transform="matrix(1.0023 0 0 1 399.9339 244.9913)" class="st3 st4">t</text>
	<text transform="matrix(1.0023 0 0 1 403.4085 244.9913)" class="st3 st4">e</text>
	<text transform="matrix(1.0023 0 0 1 409.4808 244.9913)" class="st3 st4"> </text>
	<text transform="matrix(1.0023 0 0 1 412.9437 244.9913)" class="st3 st4">[</text>
	<text transform="matrix(1.0023 0 0 1 416.4066 244.9913)" class="st3 st4">0</text>
	<text transform="matrix(1.0023 0 0 1 422.4886 244.9913)" class="st3 st4">.</text>
	<text transform="matrix(1.0023 0 0 1 425.0823 244.9913)" class="st3 st4">.</text>
	<text transform="matrix(1.0023 0 0 1 427.6761 244.9913)" class="st3 st4">1</text>
	<text transform="matrix(1.0023 0 0 1 433.7601 244.9913)" class="st3 st4">]</text>
	<text transform="matrix(1.0023 0 0 1 281.9554 259.7257)" class="st3 st4">+</text>
	<text transform="matrix(1.0023 0 0 1 289.7659 259.7257)" class="st3 st4"> </text>
	<text transform="matrix(1.0023 0 0 1 301.0491 259.7257)" class="st3 st4">t</text>
	<text transform="matrix(1.0023 0 0 1 304.5237 259.7257)" class="st3 st4">e</text>
	<text transform="matrix(1.0023 0 0 1 310.5941 259.7257)" class="st3 st4">r</text>
	<text transform="matrix(1.0023 0 0 1 314.9241 259.7257)" class="st3 st4">m</text>
	<text transform="matrix(1.0023 0 0 1 324.4749 259.7257)" class="st3 st4">i</text>
	<text transform="matrix(1.0023 0 0 1 327.0843 259.7257)" class="st3 st4">n</text>
	<text transform="matrix(1.0023 0 0 1 333.1663 259.7257)" class="st3 st4">a</text>
	<text transform="matrix(1.0023 0 0 1 339.2347 259.7257)" class="st3 st4">t</text>
	<text transform="matrix(1.0023 0 0 1 342.7093 259.7257)" class="st3 st4">i</text>
	<text transform="matrix(1.0023 0 0 1 345.3187 259.7257)" class="st3 st4">o</text>
	<text transform="matrix(1.0023 0 0 1 352.2581 259.7257)" class="st3 st4">n</text>
	<text transform="matrix(1.0023 0 0 1 358.3401 259.7257)" class="st3 st4">D</text>
	<text transform="matrix(1.0023 0 0 1 366.1644 259.7257)" class="st3 st4">a</text>
	<text transform="matrix(1.0023 0 0 1 372.2327 259.7257)" class="st3 st4">t</text>
	<text transform="matrix(1.0023 0 0 1 375.7073 259.7257)" class="st3 st4">e</text>
	<text transform="matrix(1.0023 0 0 1 381.7776 259.7257)" class="st3 st4">:</text>
	<text transform="matrix(1.0023 0 0 1 384.3714 259.7257)" class="st3 st4"> </text>
	<text transform="matrix(1.0023 0 0 1 387.8343 259.7257)" class="st3 st4">x</text>
	<text transform="matrix(1.0023 0 0 1 393.0374 259.7257)" class="st3 st4">s</text>
	<text transform="matrix(1.0023 0 0 1 398.2444 259.7257)" class="st3 st4">:</text>
	<text transform="matrix(1.0023 0 0 1 400.8362 259.7257)" class="st3 st4">:</text>
	<text transform="matrix(1.0023 0 0 1 403.43 259.7257)" class="st3 st4">d</text>
	<text transform="matrix(1.0023 0 0 1 410.3694 259.7257)" class="st3 st4">a</text>
	<text transform="matrix(1.0023 0 0 1 416.4378 259.7257)" class="st3 st4">t</text>
	<text transform="matrix(1.0023 0 0 1 419.9124 259.7257)" class="st3 st4">e</text>
	<text transform="matrix(1.0023 0 0 1 425.9847 259.7257)" class="st3 st4"> </text>
	<text transform="matrix(1.0023 0 0 1 429.4476 259.7257)" class="st3 st4">[</text>
	<text transform="matrix(1.0023 0 0 1 432.9105 259.7257)" class="st3 st4">0</text>
	<text transform="matrix(1.0023 0 0 1 438.9925 259.7257)" class="st3 st4">.</text>
	<text transform="matrix(1.0023 0 0 1 441.5862 259.7257)" class="st3 st4">.</text>
	<text transform="matrix(1.0023 0 0 1 444.18 259.7257)" class="st3 st4">1</text>
	<text transform="matrix(1.0023 0 0 1 450.264 259.7257)" class="st3 st4">]</text>
	<text transform="matrix(1.0023 0 0 1 281.9554 274.4445)" class="st3 st4">+</text>
	<text transform="matrix(1.0023 0 0 1 289.7659 274.4445)" class="st3 st4"> </text>
	<text transform="matrix(1.0023 0 0 1 301.0491 274.4445)" class="st3 st4">r</text>
	<text transform="matrix(1.0023 0 0 1 305.3792 274.4445)" class="st3 st4">e</text>
	<text transform="matrix(1.0023 0 0 1 311.4495 274.4445)" class="st3 st4">l</text>
	<text transform="matrix(1.0023 0 0 1 314.0589 274.4445)" class="st3 st4">a</text>
	<text transform="matrix(1.0023 0 0 1 320.1273 274.4445)" class="st3 st4">t</text>
	<text transform="matrix(1.0023 0 0 1 323.6019 274.4445)" class="st3 st4">i</text>
	<text transform="matrix(1.0023 0 0 1 326.2112 274.4445)" class="st3 st4">v</text>
	<text transform="matrix(1.0023 0 0 1 331.4261 274.4445)" class="st3 st4">e</text>
	<text transform="matrix(1.0023 0 0 1 337.4964 274.4445)" class="st3 st4">T</text>
	<text transform="matrix(1.0023 0 0 1 343.5667 274.4445)" class="st3 st4">o</text>
	<text transform="matrix(1.0023 0 0 1 350.5062 274.4445)" class="st3 st4">T</text>
	<text transform="matrix(1.0023 0 0 1 356.5784 274.4445)" class="st3 st4">e</text>
	<text transform="matrix(1.0023 0 0 1 362.6487 274.4445)" class="st3 st4">r</text>
	<text transform="matrix(1.0023 0 0 1 366.9788 274.4445)" class="st3 st4">r</text>
	<text transform="matrix(1.0023 0 0 1 371.3089 274.4445)" class="st3 st4">a</text>
	<text transform="matrix(1.0023 0 0 1 377.3773 274.4445)" class="st3 st4">i</text>
	<text transform="matrix(1.0023 0 0 1 379.9866 274.4445)" class="st3 st4">n</text>
	<text transform="matrix(1.0023 0 0 1 386.0687 274.4445)" class="st3 st4">:</text>
	<text transform="matrix(1.0023 0 0 1 388.6624 274.4445)" class="st3 st4"> </text>
	<text transform="matrix(1.0023 0 0 1 392.1253 274.4445)" class="st3 st4">c</text>
	<text transform="matrix(1.0023 0 0 1 397.3382 274.4445)" class="st3 st4">o</text>
	<text transform="matrix(1.0023 0 0 1 404.2776 274.4445)" class="st3 st4">r</text>
	<text transform="matrix(1.0023 0 0 1 408.6077 274.4445)" class="st3 st4">e</text>
	<text transform="matrix(1.0023 0 0 1 414.678 274.4445)" class="st3 st4">:</text>
	<text transform="matrix(1.0023 0 0 1 417.2718 274.4445)" class="st3 st4">:</text>
	<text transform="matrix(1.0023 0 0 1 419.8655 274.4445)" class="st3 st4">R</text>
	<text transform="matrix(1.0023 0 0 1 426.8069 274.4445)" class="st3 st4">e</text>
	<text transform="matrix(1.0023 0 0 1 432.8792 274.4445)" class="st3 st4">l</text>
	<text transform="matrix(1.0023 0 0 1 435.4866 274.4445)" class="st3 st4">a</text>
	<text transform="matrix(1.0023 0 0 1 441.5569 274.4445)" class="st3 st4">t</text>
	<text transform="matrix(1.0023 0 0 1 445.0316 274.4445)" class="st3 st4">i</text>
	<text transform="matrix(1.0023 0 0 1 447.6409 274.4445)" class="st3 st4">v</text>
	<text transform="matrix(1.0023 0 0 1 452.8538 274.4445)" class="st3 st4">e</text>
	<text transform="matrix(1.0023 0 0 1 458.9241 274.4445)" class="st3 st4">T</text>
	<text transform="matrix(1.0023 0 0 1 464.9964 274.4445)" class="st3 st4">o</text>
	<text transform="matrix(1.0023 0 0 1 471.9359 274.4445)" class="st3 st4">T</text>
	<text transform="matrix(1.0023 0 0 1 478.0062 274.4445)" class="st3 st4">e</text>
	<text transform="matrix(1.0023 0 0 1 484.0765 274.4445)" class="st3 st4">r</text>
	<text transform="matrix(1.0023 0 0 1 488.4066 274.4445)" class="st3 st4">r</text>
	<text transform="matrix(1.0023 0 0 1 492.7366 274.4445)" class="st3 st4">a</text>
	<text transform="matrix(1.0023 0 0 1 498.805 274.4445)" class="st3 st4">i</text>
	<text transform="matrix(1.0023 0 0 1 501.4144 274.4445)" class="st3 st4">n</text>
	<text transform="matrix(1.0023 0 0 1 507.4964 274.4445)" class="st3 st4">T</text>
	<text transform="matrix(1.0023 0 0 1 513.5667 274.4445)" class="st3 st4">y</text>
	<text transform="matrix(1.0023 0 0 1 518.7796 274.4445)" class="st3 st4">p</text>
	<text transform="matrix(1.0023 0 0 1 525.7191 274.4445)" class="st3 st4">e</text>
	<text transform="matrix(1.0023 0 0 1 531.7913 274.4445)" class="st3 st4"> </text>
	<text transform="matrix(1.0023 0 0 1 535.2542 274.4445)" class="st3 st4">[</text>
	<text transform="matrix(1.0023 0 0 1 538.7151 274.4445)" class="st3 st4">0</text>
	<text transform="matrix(1.0023 0 0 1 544.7991 274.4445)" class="st3 st4">.</text>
	<text transform="matrix(1.0023 0 0 1 547.3929 274.4445)" class="st3 st4">.</text>
	<text transform="matrix(1.0023 0 0 1 549.9866 274.4445)" class="st3 st4">1</text>
	<text transform="matrix(1.0023 0 0 1 556.0706 274.4445)" class="st3 st4">]</text>
	<text transform="matrix(1.0023 0 0 1 281.9554 289.1788)" class="st3 st4">+</text>
	<text transform="matrix(1.0023 0 0 1 289.7659 289.1788)" class="st3 st4"> </text>
	<text transform="matrix(1.0023 0 0 1 301.0491 289.1788)" class="st3 st4">r</text>
	<text transform="matrix(1.0023 0 0 1 305.3792 289.1788)" class="st3 st4">e</text>
	<text transform="matrix(1.0023 0 0 1 311.4495 289.1788)" class="st3 st4">l</text>
	<text transform="matrix(1.0023 0 0 1 314.0589 289.1788)" class="st3 st4">a</text>
	<text transform="matrix(1.0023 0 0 1 320.1273 289.1788)" class="st3 st4">t</text>
	<text transform="matrix(1.0023 0 0 1 323.6019 289.1788)" class="st3 st4">i</text>
	<text transform="matrix(1.0023 0 0 1 326.2112 289.1788)" class="st3 st4">v</text>
	<text transform="matrix(1.0023 0 0 1 331.4261 289.1788)" class="st3 st4">e</text>
	<text transform="matrix(1.0023 0 0 1 337.4964 289.1788)" class="st3 st4">T</text>
	<text transform="matrix(1.0023 0 0 1 343.5667 289.1788)" class="st3 st4">o</text>
	<text transform="matrix(1.0023 0 0 1 350.5062 289.1788)" class="st3 st4">W</text>
	<text transform="matrix(1.0023 0 0 1 360.9241 289.1788)" class="st3 st4">a</text>
	<text transform="matrix(1.0023 0 0 1 366.9925 289.1788)" class="st3 st4">t</text>
	<text transform="matrix(1.0023 0 0 1 370.4671 289.1788)" class="st3 st4">e</text>
	<text transform="matrix(1.0023 0 0 1 376.5394 289.1788)" class="st3 st4">r</text>
	<text transform="matrix(1.0023 0 0 1 380.8694 289.1788)" class="st3 st4">:</text>
	<text transform="matrix(1.0023 0 0 1 383.4612 289.1788)" class="st3 st4"> </text>
	<text transform="matrix(1.0023 0 0 1 386.9261 289.1788)" class="st3 st4">c</text>
	<text transform="matrix(1.0023 0 0 1 392.139 289.1788)" class="st3 st4">o</text>
	<text transform="matrix(1.0023 0 0 1 399.0784 289.1788)" class="st3 st4">r</text>
	<text transform="matrix(1.0023 0 0 1 403.4085 289.1788)" class="st3 st4">e</text>
	<text transform="matrix(1.0023 0 0 1 409.4788 289.1788)" class="st3 st4">:</text>
	<text transform="matrix(1.0023 0 0 1 412.0726 289.1788)" class="st3 st4">:</text>
	<text transform="matrix(1.0023 0 0 1 414.6663 289.1788)" class="st3 st4">R</text>
	<text transform="matrix(1.0023 0 0 1 421.6077 289.1788)" class="st3 st4">e</text>
	<text transform="matrix(1.0023 0 0 1 427.678 289.1788)" class="st3 st4">l</text>
	<text transform="matrix(1.0023 0 0 1 430.2874 289.1788)" class="st3 st4">a</text>
	<text transform="matrix(1.0023 0 0 1 436.3577 289.1788)" class="st3 st4">t</text>
	<text transform="matrix(1.0023 0 0 1 439.8323 289.1788)" class="st3 st4">i</text>
	<text transform="matrix(1.0023 0 0 1 442.4398 289.1788)" class="st3 st4">v</text>
	<text transform="matrix(1.0023 0 0 1 447.6546 289.1788)" class="st3 st4">e</text>
	<text transform="matrix(1.0023 0 0 1 453.7249 289.1788)" class="st3 st4">T</text>
	<text transform="matrix(1.0023 0 0 1 459.7952 289.1788)" class="st3 st4">o</text>
	<text transform="matrix(1.0023 0 0 1 466.7366 289.1788)" class="st3 st4">W</text>
	<text transform="matrix(1.0023 0 0 1 477.1526 289.1788)" class="st3 st4">a</text>
	<text transform="matrix(1.0023 0 0 1 483.223 289.1788)" class="st3 st4">t</text>
	<text transform="matrix(1.0023 0 0 1 486.6976 289.1788)" class="st3 st4">e</text>
	<text transform="matrix(1.0023 0 0 1 492.7679 289.1788)" class="st3 st4">r</text>
	<text transform="matrix(1.0023 0 0 1 497.098 289.1788)" class="st3 st4">T</text>
	<text transform="matrix(1.0023 0 0 1 503.1683 289.1788)" class="st3 st4">y</text>
	<text transform="matrix(1.0023 0 0 1 508.3812 289.1788)" class="st3 st4">p</text>
	<text transform="matrix(1.0023 0 0 1 515.3206 289.1788)" class="st3 st4">e</text>
	<text transform="matrix(1.0023 0 0 1 521.3909 289.1788)" class="st3 st4"> </text>
	<text transform="matrix(1.0023 0 0 1 524.8558 289.1788)" class="st3 st4">[</text>
	<text transform="matrix(1.0023 0 0 1 528.3167 289.1788)" class="st3 st4">0</text>
	<text transform="matrix(1.0023 0 0 1 534.4007 289.1788)" class="st3 st4">.</text>
	<text transform="matrix(1.0023 0 0 1 536.9944 289.1788)" class="st3 st4">.</text>
	<text transform="matrix(1.0023 0 0 1 539.5862 289.1788)" class="st3 st4">1</text>
	<text transform="matrix(1.0023 0 0 1 545.6702 289.1788)" class="st3 st4">]</text>
	<path class="st0" d="M181.7,288.3c1.2,0,2.2,1,2.2,2.2l0,0v64.1l0,0c0,1.2-1,2.2-2.2,2.2l0,0l0,0H74l0,0c-1.2,0-2.2-1-2.2-2.2l0,0
		v-64.1c0-1.2,1-2.2,2.2-2.2l0,0H181.7L181.7,288.3L181.7,288.3z"/>
	<path class="st1" d="M179.1,285.7c1.2,0,2.2,1,2.2,2.2l0,0V352l0,0c0,1.2-1,2.2-2.2,2.2l0,0l0,0H71.4l0,0c-1.2,0-2.2-1-2.2-2.2l0,0
		v-64.1c0-1.2,1-2.2,2.2-2.2l0,0H179.1L179.1,285.7L179.1,285.7z"/>
	<path class="st2" d="M179.1,285.7c1.2,0,2.2,1,2.2,2.2l0,0V352l0,0c0,1.2-1,2.2-2.2,2.2l0,0l0,0H71.4l0,0c-1.2,0-2.2-1-2.2-2.2l0,0
		v-64.1c0-1.2,1-2.2,2.2-2.2l0,0H179.1L179.1,285.7L179.1,285.7z"/>
	<text transform="matrix(1.0023 0 0 1 88.3616 303.0226)" class="st3 st4">«</text>
	<text transform="matrix(1.0023 0 0 1 94.432 303.0226)" class="st3 st4">F</text>
	<text transform="matrix(1.0023 0 0 1 99.6488 303.0226)" class="st3 st4">e</text>
	<text transform="matrix(1.0023 0 0 1 105.72 303.0226)" class="st3 st4">a</text>
	<text transform="matrix(1.0023 0 0 1 111.7884 303.0226)" class="st3 st4">t</text>
	<text transform="matrix(1.0023 0 0 1 115.263 303.0226)" class="st3 st4">u</text>
	<text transform="matrix(1.0023 0 0 1 121.345 303.0226)" class="st3 st4">r</text>
	<text transform="matrix(1.0023 0 0 1 125.6751 303.0226)" class="st3 st4">e</text>
	<text transform="matrix(1.0023 0 0 1 131.7454 303.0226)" class="st3 st4">T</text>
	<text transform="matrix(1.0023 0 0 1 137.8167 303.0226)" class="st3 st4">y</text>
	<text transform="matrix(1.0023 0 0 1 143.0286 303.0226)" class="st3 st4">p</text>
	<text transform="matrix(1.0023 0 0 1 149.9681 303.0226)" class="st3 st4">e</text>
	<text transform="matrix(1.0023 0 0 1 156.0394 303.0226)" class="st3 st4">»</text>
	<text transform="matrix(1.0023 0 0 1 84.8929 317.7413)" class="st7 st4">c</text>
	<text transform="matrix(1.0023 0 0 1 90.1087 317.7413)" class="st7 st4">o</text>
	<text transform="matrix(1.0023 0 0 1 97.0511 317.7413)" class="st7 st4">r</text>
	<text transform="matrix(1.0023 0 0 1 101.3861 317.7413)" class="st7 st4">e</text>
	<text transform="matrix(1.0023 0 0 1 107.4613 317.7413)" class="st7 st4">:</text>
	<text transform="matrix(1.0023 0 0 1 110.0706 317.7413)" class="st7 st4">:</text>
	<text transform="matrix(1.0023 0 0 1 112.679 317.7413)" class="st7 st4">C</text>
	<text transform="matrix(1.0023 0 0 1 119.6321 317.7413)" class="st7 st4">i</text>
	<text transform="matrix(1.0023 0 0 1 122.2415 317.7413)" class="st7 st4">t</text>
	<text transform="matrix(1.0023 0 0 1 126.5794 317.7413)" class="st7 st4">y</text>
	<text transform="matrix(1.0023 0 0 1 132.6546 317.7413)" class="st7 st4">M</text>
	<text transform="matrix(1.0023 0 0 1 143.0745 317.7413)" class="st7 st4">o</text>
	<text transform="matrix(1.0023 0 0 1 150.0169 317.7413)" class="st7 st4">d</text>
	<text transform="matrix(1.0023 0 0 1 156.9515 317.7413)" class="st7 st4">e</text>
	<text transform="matrix(1.0023 0 0 1 163.0267 317.7413)" class="st7 st4">l</text>
	<path class="st0" d="M390,28.5c1.2,0,2.2,1,2.2,2.2l0,0v85.7l0,0c0,1.2-1,2.2-2.2,2.2l0,0l0,0H169.5l0,0c-1.2,0-2.2-1-2.2-2.2l0,0
		V30.6c0-1.2,1-2.2,2.2-2.2l0,0H390L390,28.5L390,28.5z"/>
	<path class="st8" d="M387.4,25.9c1.2,0,2.2,1,2.2,2.2l0,0v85.7l0,0c0,1.2-1,2.2-2.2,2.2l0,0l0,0H166.9l0,0c-1.2,0-2.2-1-2.2-2.2
		l0,0V28c0-1.2,1-2.2,2.2-2.2l0,0L387.4,25.9L387.4,25.9L387.4,25.9z"/>
	<path class="st2" d="M387.4,25.9c1.2,0,2.2,1,2.2,2.2l0,0v85.7l0,0c0,1.2-1,2.2-2.2,2.2l0,0l0,0H166.9l0,0c-1.2,0-2.2-1-2.2-2.2
		l0,0V28c0-1.2,1-2.2,2.2-2.2l0,0L387.4,25.9L387.4,25.9L387.4,25.9z"/>
	<text transform="matrix(1.0023 0 0 1 240.2835 43.1788)" class="st3 st4">«</text>
	<text transform="matrix(1.0023 0 0 1 246.3538 43.1788)" class="st3 st4">F</text>
	<text transform="matrix(1.0023 0 0 1 251.5706 43.1788)" class="st3 st4">e</text>
	<text transform="matrix(1.0023 0 0 1 257.6419 43.1788)" class="st3 st4">a</text>
	<text transform="matrix(1.0023 0 0 1 263.7103 43.1788)" class="st3 st4">t</text>
	<text transform="matrix(1.0023 0 0 1 267.1849 43.1788)" class="st3 st4">u</text>
	<text transform="matrix(1.0023 0 0 1 273.2669 43.1788)" class="st3 st4">r</text>
	<text transform="matrix(1.0023 0 0 1 277.597 43.1788)" class="st3 st4">e</text>
	<text transform="matrix(1.0023 0 0 1 283.6673 43.1788)" class="st3 st4">T</text>
	<text transform="matrix(1.0023 0 0 1 289.7386 43.1788)" class="st3 st4">y</text>
	<text transform="matrix(1.0023 0 0 1 294.9505 43.1788)" class="st3 st4">p</text>
	<text transform="matrix(1.0023 0 0 1 301.89 43.1788)" class="st3 st4">e</text>
	<text transform="matrix(1.0023 0 0 1 307.9612 43.1788)" class="st3 st4">»</text>
	<text transform="matrix(0.9506 0 -0.3169 0.9485 242.8642 57.9317)" class="st3 st5">g</text>
	<text transform="matrix(0.9506 0 -0.3169 0.9485 242.8642 57.9317)" class="st6 st3 st5">g</text>
	<text transform="matrix(0.9506 0 -0.3169 0.9485 249.8037 57.9317)" class="st3 st5">m</text>
	<text transform="matrix(0.9506 0 -0.3169 0.9485 249.8037 57.9317)" class="st6 st3 st5">m</text>
	<text transform="matrix(0.9506 0 -0.3169 0.9485 260.2119 57.9317)" class="st3 st5">l</text>
	<text transform="matrix(0.9506 0 -0.3169 0.9485 260.2119 57.9317)" class="st6 st3 st5">l</text>
	<text transform="matrix(0.9506 0 -0.3169 0.9485 262.8213 57.9317)" class="st3 st5">:</text>
	<text transform="matrix(0.9506 0 -0.3169 0.9485 262.8213 57.9317)" class="st6 st3 st5">:</text>
	<text transform="matrix(0.9506 0 -0.3169 0.9485 265.415 57.9317)" class="st3 st5">:</text>
	<text transform="matrix(0.9506 0 -0.3169 0.9485 265.415 57.9317)" class="st6 st3 st5">:</text>
	<text transform="matrix(0.9506 0 -0.3169 0.9485 268.0088 57.9317)" class="st3 st5">_</text>
	<text transform="matrix(0.9506 0 -0.3169 0.9485 268.0088 57.9317)" class="st6 st3 st5">_</text>
	<text transform="matrix(0.9506 0 -0.3169 0.9485 272.3525 57.9317)" class="st3 st5">F</text>
	<text transform="matrix(0.9506 0 -0.3169 0.9485 272.3525 57.9317)" class="st6 st3 st5">F</text>
	<text transform="matrix(0.9506 0 -0.3169 0.9485 278.4287 57.9317)" class="st3 st5">e</text>
	<text transform="matrix(0.9506 0 -0.3169 0.9485 278.4287 57.9317)" class="st6 st3 st5">e</text>
	<text transform="matrix(0.9506 0 -0.3169 0.9485 284.499 57.9317)" class="st3 st5">a</text>
	<text transform="matrix(0.9506 0 -0.3169 0.9485 284.499 57.9317)" class="st6 st3 st5">a</text>
	<text transform="matrix(0.9506 0 -0.3169 0.9485 290.5674 57.9317)" class="st3 st5">t</text>
	<text transform="matrix(0.9506 0 -0.3169 0.9485 290.5674 57.9317)" class="st6 st3 st5">t</text>
	<text transform="matrix(0.9506 0 -0.3169 0.9485 294.8994 57.9317)" class="st3 st5">u</text>
	<text transform="matrix(0.9506 0 -0.3169 0.9485 294.8994 57.9317)" class="st6 st3 st5">u</text>
	<text transform="matrix(0.9506 0 -0.3169 0.9485 301.8389 57.9317)" class="st3 st5">r</text>
	<text transform="matrix(0.9506 0 -0.3169 0.9485 301.8389 57.9317)" class="st6 st3 st5">r</text>
	<text transform="matrix(0.9506 0 -0.3169 0.9485 306.1689 57.9317)" class="st3 st5">e</text>
	<text transform="matrix(0.9506 0 -0.3169 0.9485 306.1689 57.9317)" class="st6 st3 st5">e</text>
	<line class="st2" x1="164.8" y1="64.8" x2="389.6" y2="64.8"/>
	<text transform="matrix(1.0023 0 0 1 169.096 80.4445)" class="st3 st4">+</text>
	<text transform="matrix(1.0023 0 0 1 176.9066 80.4445)" class="st3 st4"> </text>
	<text transform="matrix(1.0023 0 0 1 188.2054 80.4445)" class="st3 st4">d</text>
	<text transform="matrix(1.0023 0 0 1 195.1449 80.4445)" class="st3 st4">e</text>
	<text transform="matrix(1.0023 0 0 1 201.2152 80.4445)" class="st3 st4">s</text>
	<text transform="matrix(1.0023 0 0 1 206.4212 80.4445)" class="st3 st4">c</text>
	<text transform="matrix(1.0023 0 0 1 211.6341 80.4445)" class="st3 st4">r</text>
	<text transform="matrix(1.0023 0 0 1 215.9642 80.4445)" class="st3 st4">i</text>
	<text transform="matrix(1.0023 0 0 1 218.5736 80.4445)" class="st3 st4">p</text>
	<text transform="matrix(1.0023 0 0 1 225.512 80.4445)" class="st3 st4">t</text>
	<text transform="matrix(1.0023 0 0 1 228.9866 80.4445)" class="st3 st4">i</text>
	<text transform="matrix(1.0023 0 0 1 231.596 80.4445)" class="st3 st4">o</text>
	<text transform="matrix(1.0023 0 0 1 238.5355 80.4445)" class="st3 st4">n</text>
	<text transform="matrix(1.0023 0 0 1 244.6175 80.4445)" class="st3 st4">:</text>
	<text transform="matrix(1.0023 0 0 1 247.2113 80.4445)" class="st3 st4"> </text>
	<text transform="matrix(1.0023 0 0 1 250.6751 80.4445)" class="st3 st4">g</text>
	<text transform="matrix(1.0023 0 0 1 257.6136 80.4445)" class="st3 st4">m</text>
	<text transform="matrix(1.0023 0 0 1 267.1653 80.4445)" class="st3 st4">l</text>
	<text transform="matrix(1.0023 0 0 1 269.7737 80.4445)" class="st3 st4">:</text>
	<text transform="matrix(1.0023 0 0 1 272.3675 80.4445)" class="st3 st4">:</text>
	<text transform="matrix(1.0023 0 0 1 274.9603 80.4445)" class="st3 st4">S</text>
	<text transform="matrix(1.0023 0 0 1 281.0355 80.4445)" class="st3 st4">t</text>
	<text transform="matrix(1.0023 0 0 1 284.5091 80.4445)" class="st3 st4">r</text>
	<text transform="matrix(1.0023 0 0 1 288.8392 80.4445)" class="st3 st4">i</text>
	<text transform="matrix(1.0023 0 0 1 291.4485 80.4445)" class="st3 st4">n</text>
	<text transform="matrix(1.0023 0 0 1 297.5306 80.4445)" class="st3 st4">g</text>
	<text transform="matrix(1.0023 0 0 1 304.4691 80.4445)" class="st3 st4">O</text>
	<text transform="matrix(1.0023 0 0 1 313.1468 80.4445)" class="st3 st4">r</text>
	<text transform="matrix(1.0023 0 0 1 317.4769 80.4445)" class="st3 st4">R</text>
	<text transform="matrix(1.0023 0 0 1 324.4183 80.4445)" class="st3 st4">e</text>
	<text transform="matrix(1.0023 0 0 1 330.4886 80.4445)" class="st3 st4">f</text>
	<text transform="matrix(1.0023 0 0 1 333.9651 80.4445)" class="st3 st4">T</text>
	<text transform="matrix(1.0023 0 0 1 340.0355 80.4445)" class="st3 st4">y</text>
	<text transform="matrix(1.0023 0 0 1 345.2484 80.4445)" class="st3 st4">p</text>
	<text transform="matrix(1.0023 0 0 1 352.1878 80.4445)" class="st3 st4">e</text>
	<text transform="matrix(1.0023 0 0 1 358.2581 80.4445)" class="st3 st4"> </text>
	<text transform="matrix(1.0023 0 0 1 361.723 80.4445)" class="st3 st4">[</text>
	<text transform="matrix(1.0023 0 0 1 365.1839 80.4445)" class="st3 st4">0</text>
	<text transform="matrix(1.0023 0 0 1 371.2679 80.4445)" class="st3 st4">.</text>
	<text transform="matrix(1.0023 0 0 1 373.8616 80.4445)" class="st3 st4">.</text>
	<text transform="matrix(1.0023 0 0 1 376.4554 80.4445)" class="st3 st4">1</text>
	<text transform="matrix(1.0023 0 0 1 382.5374 80.4445)" class="st3 st4">]</text>
	<text transform="matrix(1.0023 0 0 1 169.096 95.1788)" class="st3 st4">+</text>
	<text transform="matrix(1.0023 0 0 1 176.9066 95.1788)" class="st3 st4"> </text>
	<text transform="matrix(1.0023 0 0 1 188.2054 95.1788)" class="st3 st4">n</text>
	<text transform="matrix(1.0023 0 0 1 194.2874 95.1788)" class="st3 st4">a</text>
	<text transform="matrix(1.0023 0 0 1 200.3568 95.1788)" class="st3 st4">m</text>
	<text transform="matrix(1.0023 0 0 1 209.9075 95.1788)" class="st3 st4">e</text>
	<text transform="matrix(1.0023 0 0 1 215.9788 95.1788)" class="st3 st4">:</text>
	<text transform="matrix(1.0023 0 0 1 218.5716 95.1788)" class="st3 st4"> </text>
	<text transform="matrix(1.0023 0 0 1 222.0355 95.1788)" class="st3 st4">g</text>
	<text transform="matrix(1.0023 0 0 1 228.9749 95.1788)" class="st3 st4">m</text>
	<text transform="matrix(1.0023 0 0 1 238.5257 95.1788)" class="st3 st4">l</text>
	<text transform="matrix(1.0023 0 0 1 241.1351 95.1788)" class="st3 st4">:</text>
	<text transform="matrix(1.0023 0 0 1 243.7279 95.1788)" class="st3 st4">:</text>
	<text transform="matrix(1.0023 0 0 1 246.3216 95.1788)" class="st3 st4">C</text>
	<text transform="matrix(1.0023 0 0 1 253.2747 95.1788)" class="st3 st4">o</text>
	<text transform="matrix(1.0023 0 0 1 260.2151 95.1788)" class="st3 st4">d</text>
	<text transform="matrix(1.0023 0 0 1 267.1536 95.1788)" class="st3 st4">e</text>
	<text transform="matrix(1.0023 0 0 1 273.2249 95.1788)" class="st3 st4">T</text>
	<text transform="matrix(1.0023 0 0 1 279.2952 95.1788)" class="st3 st4">y</text>
	<text transform="matrix(1.0023 0 0 1 284.5081 95.1788)" class="st3 st4">p</text>
	<text transform="matrix(1.0023 0 0 1 291.4476 95.1788)" class="st3 st4">e</text>
	<text transform="matrix(1.0023 0 0 1 297.5189 95.1788)" class="st3 st4"> </text>
	<text transform="matrix(1.0023 0 0 1 300.9818 95.1788)" class="st3 st4">[</text>
	<text transform="matrix(1.0023 0 0 1 304.4437 95.1788)" class="st3 st4">0</text>
	<text transform="matrix(1.0023 0 0 1 310.5276 95.1788)" class="st3 st4">.</text>
	<text transform="matrix(1.0023 0 0 1 313.1214 95.1788)" class="st3 st4">.</text>
	<text transform="matrix(1.0023 0 0 1 315.7151 95.1788)" class="st3 st4">1</text>
	<text transform="matrix(1.0023 0 0 1 321.7972 95.1788)" class="st3 st4">]</text>
	<text transform="matrix(1.0023 0 0 1 169.096 109.882)" class="st3 st4">+</text>
	<text transform="matrix(1.0023 0 0 1 176.9066 109.882)" class="st3 st4"> </text>
	<text transform="matrix(1.0023 0 0 1 188.2054 109.882)" class="st3 st4">b</text>
	<text transform="matrix(1.0023 0 0 1 195.1449 109.882)" class="st3 st4">o</text>
	<text transform="matrix(1.0023 0 0 1 202.0843 109.882)" class="st3 st4">u</text>
	<text transform="matrix(1.0023 0 0 1 208.1663 109.882)" class="st3 st4">n</text>
	<text transform="matrix(1.0023 0 0 1 214.2484 109.882)" class="st3 st4">d</text>
	<text transform="matrix(1.0023 0 0 1 221.1878 109.882)" class="st3 st4">e</text>
	<text transform="matrix(1.0023 0 0 1 227.2581 109.882)" class="st3 st4">d</text>
	<text transform="matrix(1.0023 0 0 1 234.1976 109.882)" class="st3 st4">B</text>
	<text transform="matrix(1.0023 0 0 1 240.2825 109.882)" class="st3 st4">y</text>
	<text transform="matrix(1.0023 0 0 1 245.4954 109.882)" class="st3 st4">:</text>
	<text transform="matrix(1.0023 0 0 1 248.0892 109.882)" class="st3 st4"> </text>
	<text transform="matrix(1.0023 0 0 1 251.5531 109.882)" class="st3 st4">g</text>
	<text transform="matrix(1.0023 0 0 1 258.4915 109.882)" class="st3 st4">m</text>
	<text transform="matrix(1.0023 0 0 1 268.0433 109.882)" class="st3 st4">l</text>
	<text transform="matrix(1.0023 0 0 1 270.6517 109.882)" class="st3 st4">:</text>
	<text transform="matrix(1.0023 0 0 1 273.2454 109.882)" class="st3 st4">:</text>
	<text transform="matrix(1.0023 0 0 1 275.8382 109.882)" class="st3 st4">E</text>
	<text transform="matrix(1.0023 0 0 1 281.9085 109.882)" class="st3 st4">n</text>
	<text transform="matrix(1.0023 0 0 1 287.9905 109.882)" class="st3 st4">v</text>
	<text transform="matrix(1.0023 0 0 1 293.2044 109.882)" class="st3 st4">e</text>
	<text transform="matrix(1.0023 0 0 1 299.2757 109.882)" class="st3 st4">l</text>
	<text transform="matrix(1.0023 0 0 1 301.8841 109.882)" class="st3 st4">o</text>
	<text transform="matrix(1.0023 0 0 1 308.8245 109.882)" class="st3 st4">p</text>
	<text transform="matrix(1.0023 0 0 1 315.764 109.882)" class="st3 st4">e</text>
	<text transform="matrix(1.0023 0 0 1 321.8343 109.882)" class="st3 st4"> </text>
	<text transform="matrix(1.0023 0 0 1 325.2991 109.882)" class="st3 st4">[</text>
	<text transform="matrix(1.0023 0 0 1 328.7601 109.882)" class="st3 st4">0</text>
	<text transform="matrix(1.0023 0 0 1 334.8441 109.882)" class="st3 st4">.</text>
	<text transform="matrix(1.0023 0 0 1 337.4378 109.882)" class="st3 st4">.</text>
	<text transform="matrix(1.0023 0 0 1 340.0296 109.882)" class="st3 st4">1</text>
	<text transform="matrix(1.0023 0 0 1 346.1136 109.882)" class="st3 st4">]</text>
	<path class="st0" d="M190.4,193c1.2,0,2.2,1,2.2,2.2l0,0v64.1l0,0c0,1.2-1,2.2-2.2,2.2l0,0l0,0h-125l0,0c-1.2,0-2.2-1-2.2-2.2l0,0
		v-64.1c0-1.2,1-2.2,2.2-2.2l0,0L190.4,193L190.4,193L190.4,193z"/>
	<path class="st8" d="M187.8,190.4c1.2,0,2.2,1,2.2,2.2l0,0v64.1l0,0c0,1.2-1,2.2-2.2,2.2l0,0l0,0h-125l0,0c-1.2,0-2.2-1-2.2-2.2
		l0,0v-64.1c0-1.2,1-2.2,2.2-2.2l0,0H187.8L187.8,190.4L187.8,190.4z"/>
	<path class="st2" d="M187.8,190.4c1.2,0,2.2,1,2.2,2.2l0,0v64.1l0,0c0,1.2-1,2.2-2.2,2.2l0,0l0,0h-125l0,0c-1.2,0-2.2-1-2.2-2.2
		l0,0v-64.1c0-1.2,1-2.2,2.2-2.2l0,0H187.8L187.8,190.4L187.8,190.4z"/>
	<text transform="matrix(1.0023 0 0 1 88.3616 207.7413)" class="st3 st4">«</text>
	<text transform="matrix(1.0023 0 0 1 94.432 207.7413)" class="st3 st4">F</text>
	<text transform="matrix(1.0023 0 0 1 99.6488 207.7413)" class="st3 st4">e</text>
	<text transform="matrix(1.0023 0 0 1 105.72 207.7413)" class="st3 st4">a</text>
	<text transform="matrix(1.0023 0 0 1 111.7884 207.7413)" class="st3 st4">t</text>
	<text transform="matrix(1.0023 0 0 1 115.263 207.7413)" class="st3 st4">u</text>
	<text transform="matrix(1.0023 0 0 1 121.345 207.7413)" class="st3 st4">r</text>
	<text transform="matrix(1.0023 0 0 1 125.6751 207.7413)" class="st3 st4">e</text>
	<text transform="matrix(1.0023 0 0 1 131.7454 207.7413)" class="st3 st4">T</text>
	<text transform="matrix(1.0023 0 0 1 137.8167 207.7413)" class="st3 st4">y</text>
	<text transform="matrix(1.0023 0 0 1 143.0286 207.7413)" class="st3 st4">p</text>
	<text transform="matrix(1.0023 0 0 1 149.9681 207.7413)" class="st3 st4">e</text>
	<text transform="matrix(1.0023 0 0 1 156.0394 207.7413)" class="st3 st4">»</text>
	<text transform="matrix(0.9506 0 -0.3169 0.9485 64.9194 222.49)" class="st3 st5">g</text>
	<text transform="matrix(0.9506 0 -0.3169 0.9485 64.9194 222.49)" class="st6 st3 st5">g</text>
	<text transform="matrix(0.9506 0 -0.3169 0.9485 71.8588 222.49)" class="st3 st5">m</text>
	<text transform="matrix(0.9506 0 -0.3169 0.9485 71.8588 222.49)" class="st6 st3 st5">m</text>
	<text transform="matrix(0.9506 0 -0.3169 0.9485 82.267 222.49)" class="st3 st5">l</text>
	<text transform="matrix(0.9506 0 -0.3169 0.9485 82.267 222.49)" class="st6 st3 st5">l</text>
	<text transform="matrix(0.9506 0 -0.3169 0.9485 84.8764 222.49)" class="st3 st5">:</text>
	<text transform="matrix(0.9506 0 -0.3169 0.9485 84.8764 222.49)" class="st6 st3 st5">:</text>
	<text transform="matrix(0.9506 0 -0.3169 0.9485 87.4702 222.49)" class="st3 st5">:</text>
	<text transform="matrix(0.9506 0 -0.3169 0.9485 87.4702 222.49)" class="st6 st3 st5">:</text>
	<text transform="matrix(0.9506 0 -0.3169 0.9485 90.0639 222.49)" class="st3 st5">_</text>
	<text transform="matrix(0.9506 0 -0.3169 0.9485 90.0639 222.49)" class="st6 st3 st5">_</text>
	<text transform="matrix(0.9506 0 -0.3169 0.9485 94.4077 222.49)" class="st3 st5">F</text>
	<text transform="matrix(0.9506 0 -0.3169 0.9485 94.4077 222.49)" class="st6 st3 st5">F</text>
	<text transform="matrix(0.9506 0 -0.3169 0.9485 100.4838 222.49)" class="st3 st5">e</text>
	<text transform="matrix(0.9506 0 -0.3169 0.9485 100.4838 222.49)" class="st6 st3 st5">e</text>
	<text transform="matrix(0.9506 0 -0.3169 0.9485 106.5542 222.49)" class="st3 st5">a</text>
	<text transform="matrix(0.9506 0 -0.3169 0.9485 106.5542 222.49)" class="st6 st3 st5">a</text>
	<text transform="matrix(0.9506 0 -0.3169 0.9485 112.6225 222.49)" class="st3 st5">t</text>
	<text transform="matrix(0.9506 0 -0.3169 0.9485 112.6225 222.49)" class="st6 st3 st5">t</text>
	<text transform="matrix(0.9506 0 -0.3169 0.9485 116.9545 222.49)" class="st3 st5">u</text>
	<text transform="matrix(0.9506 0 -0.3169 0.9485 116.9545 222.49)" class="st6 st3 st5">u</text>
	<text transform="matrix(0.9506 0 -0.3169 0.9485 123.894 222.49)" class="st3 st5">r</text>
	<text transform="matrix(0.9506 0 -0.3169 0.9485 123.894 222.49)" class="st6 st3 st5">r</text>
	<text transform="matrix(0.9506 0 -0.3169 0.9485 128.2241 222.49)" class="st3 st5">e</text>
	<text transform="matrix(0.9506 0 -0.3169 0.9485 128.2241 222.49)" class="st6 st3 st5">e</text>
	<text transform="matrix(0.9506 0 -0.3169 0.9485 134.2963 222.49)" class="st3 st5">C</text>
	<text transform="matrix(0.9506 0 -0.3169 0.9485 134.2963 222.49)" class="st6 st3 st5">C</text>
	<text transform="matrix(0.9506 0 -0.3169 0.9485 141.2495 222.49)" class="st3 st5">o</text>
	<text transform="matrix(0.9506 0 -0.3169 0.9485 141.2495 222.49)" class="st6 st3 st5">o</text>
	<text transform="matrix(0.9506 0 -0.3169 0.9485 148.1889 222.49)" class="st3 st5">l</text>
	<text transform="matrix(0.9506 0 -0.3169 0.9485 148.1889 222.49)" class="st6 st3 st5">l</text>
	<text transform="matrix(0.9506 0 -0.3169 0.9485 150.7983 222.49)" class="st3 st5">l</text>
	<text transform="matrix(0.9506 0 -0.3169 0.9485 150.7983 222.49)" class="st6 st3 st5">l</text>
	<text transform="matrix(0.9506 0 -0.3169 0.9485 153.4077 222.49)" class="st3 st5">e</text>
	<text transform="matrix(0.9506 0 -0.3169 0.9485 153.4077 222.49)" class="st6 st3 st5">e</text>
	<text transform="matrix(0.9506 0 -0.3169 0.9485 159.478 222.49)" class="st3 st5">c</text>
	<text transform="matrix(0.9506 0 -0.3169 0.9485 159.478 222.49)" class="st6 st3 st5">c</text>
	<text transform="matrix(0.9506 0 -0.3169 0.9485 164.6909 222.49)" class="st3 st5">t</text>
	<text transform="matrix(0.9506 0 -0.3169 0.9485 164.6909 222.49)" class="st6 st3 st5">t</text>
	<text transform="matrix(0.9506 0 -0.3169 0.9485 169.0229 222.49)" class="st3 st5">i</text>
	<text transform="matrix(0.9506 0 -0.3169 0.9485 169.0229 222.49)" class="st6 st3 st5">i</text>
	<text transform="matrix(0.9506 0 -0.3169 0.9485 171.6323 222.49)" class="st3 st5">o</text>
	<text transform="matrix(0.9506 0 -0.3169 0.9485 171.6323 222.49)" class="st6 st3 st5">o</text>
	<text transform="matrix(0.9506 0 -0.3169 0.9485 178.5717 222.49)" class="st3 st5">n</text>
	<text transform="matrix(0.9506 0 -0.3169 0.9485 178.5717 222.49)" class="st6 st3 st5">n</text>
	<polyline class="st0" points="28.5,392.2 28.5,452.9 271.5,452.9 271.5,402.6 261.1,392.2 28.5,392.2 	"/>
	<polyline class="st9" points="25.9,389.6 25.9,450.3 268.9,450.3 268.9,400 258.5,389.6 25.9,389.6 	"/>
	<polygon class="st10" points="25.9,389.6 25.9,450.3 268.9,450.3 268.9,400 258.5,389.6 	"/>
	<polyline class="st11" points="258.5,389.6 258.5,400 268.9,400 258.5,389.6 	"/>
	<polyline class="st10" points="258.5,389.6 258.5,400 268.9,400 	"/>
	<text transform="matrix(1.0023 0 0 1 30.2054 416.4908)" class="st3 st4">g</text>
	<text transform="matrix(1.0023 0 0 1 37.1448 416.4908)" class="st3 st4">m</text>
	<text transform="matrix(1.0023 0 0 1 46.6956 416.4908)" class="st3 st4">l</text>
	<text transform="matrix(1.0023 0 0 1 49.305 416.4908)" class="st3 st4">:</text>
	<text transform="matrix(1.0023 0 0 1 51.8978 416.4908)" class="st3 st4">:</text>
	<text transform="matrix(1.0023 0 0 1 54.4915 416.4908)" class="st3 st4">E</text>
	<text transform="matrix(1.0023 0 0 1 60.5609 416.4908)" class="st3 st4">n</text>
	<text transform="matrix(1.0023 0 0 1 66.6429 416.4908)" class="st3 st4">v</text>
	<text transform="matrix(1.0023 0 0 1 71.8568 416.4908)" class="st3 st4">e</text>
	<text transform="matrix(1.0023 0 0 1 77.928 416.4908)" class="st3 st4">l</text>
	<text transform="matrix(1.0023 0 0 1 80.5374 416.4908)" class="st3 st4">o</text>
	<text transform="matrix(1.0023 0 0 1 87.4769 416.4908)" class="st3 st4">p</text>
	<text transform="matrix(1.0023 0 0 1 94.4163 416.4908)" class="st3 st4">e</text>
	<text transform="matrix(1.0023 0 0 1 100.4876 416.4908)" class="st3 st4">を</text>
	<text transform="matrix(1.0023 0 0 1 109.1644 416.4908)" class="st3 st4">用</text>
	<text transform="matrix(1.0023 0 0 1 120.4505 416.4908)" class="st3 st4">い</text>
	<text transform="matrix(1.0023 0 0 1 129.9964 416.4908)" class="st3 st4">て</text>
	<text transform="matrix(1.0023 0 0 1 138.6761 416.4908)" class="st3 st4">都</text>
	<text transform="matrix(1.0023 0 0 1 149.9613 416.4908)" class="st3 st4">市</text>
	<text transform="matrix(1.0023 0 0 1 161.2464 416.4908)" class="st3 st4">計</text>
	<text transform="matrix(1.0023 0 0 1 172.5316 416.4908)" class="st3 st4">画</text>
	<text transform="matrix(1.0023 0 0 1 183.8177 416.4908)" class="st3 st4">デ</text>
	<text transform="matrix(1.0023 0 0 1 192.5091 416.4908)" class="st3 st4">ー</text>
	<text transform="matrix(1.0023 0 0 1 199.4613 416.4908)" class="st3 st4">タ</text>
	<text transform="matrix(1.0023 0 0 1 208.14 416.4908)" class="st3 st4">の</text>
	<text transform="matrix(1.0023 0 0 1 217.6868 416.4908)" class="st3 st4">空</text>
	<text transform="matrix(1.0023 0 0 1 228.972 416.4908)" class="st3 st4">間</text>
	<text transform="matrix(1.0023 0 0 1 240.2572 416.4908)" class="st3 st4">範</text>
	<text transform="matrix(1.0023 0 0 1 30.2054 436.4283)" class="st3 st4">囲</text>
	<text transform="matrix(1.0023 0 0 1 41.4906 436.4283)" class="st3 st4">、</text>
	<text transform="matrix(1.0023 0 0 1 49.3011 436.4283)" class="st3 st4">空</text>
	<text transform="matrix(1.0023 0 0 1 60.5863 436.4283)" class="st3 st4">間</text>
	<text transform="matrix(1.0023 0 0 1 71.8714 436.4283)" class="st3 st4">参</text>
	<text transform="matrix(1.0023 0 0 1 83.1575 436.4283)" class="st3 st4">照</text>
	<text transform="matrix(1.0023 0 0 1 94.4427 436.4283)" class="st3 st4">系</text>
	<text transform="matrix(1.0023 0 0 1 105.7279 436.4283)" class="st3 st4">及</text>
	<text transform="matrix(1.0023 0 0 1 117.014 436.4283)" class="st3 st4">び</text>
	<text transform="matrix(1.0023 0 0 1 126.5589 436.4283)" class="st3 st4">次</text>
	<text transform="matrix(1.0023 0 0 1 137.8441 436.4283)" class="st3 st4">元</text>
	<text transform="matrix(1.0023 0 0 1 149.1292 436.4283)" class="st3 st4">数</text>
	<text transform="matrix(1.0023 0 0 1 160.4154 436.4283)" class="st3 st4">を</text>
	<text transform="matrix(1.0023 0 0 1 169.0921 436.4283)" class="st3 st4">指</text>
	<text transform="matrix(1.0023 0 0 1 180.3783 436.4283)" class="st3 st4">定</text>
	<text transform="matrix(1.0023 0 0 1 191.6634 436.4283)" class="st3 st4">す</text>
	<text transform="matrix(1.0023 0 0 1 201.2103 436.4283)" class="st3 st4">る</text>
	<text transform="matrix(1.0023 0 0 1 209.8909 436.4283)" class="st3 st4">。</text>
	<path class="st12" d="M591.9,25.9c1.4,0,2.6,1.2,2.6,2.6l0,0V109l0,0c0,1.4-1.2,2.6-2.6,2.6l0,0l0,0H436.5l0,0
		c-1.4,0-2.6-1.2-2.6-2.6V28.5c0-1.4,1.2-2.6,2.6-2.6l0,0H591.9L591.9,25.9L591.9,25.9z"/>
	<path class="st13" d="M591.9,25.9c1.4,0,2.6,1.2,2.6,2.6l0,0V109l0,0c0,1.4-1.2,2.6-2.6,2.6l0,0l0,0H436.5l0,0
		c-1.4,0-2.6-1.2-2.6-2.6V28.5c0-1.4,1.2-2.6,2.6-2.6l0,0H591.9L591.9,25.9L591.9,25.9z"/>
	<path class="st8" d="M454.3,51.9c1.2,0,2.2,1,2.2,2.2l0,0v9.5l0,0c0,1.2-1,2.2-2.2,2.2l0,0l0,0h-9.5l0,0c-1.2,0-2.2-1-2.2-2.2l0,0
		V54c0-1.2,1-2.2,2.2-2.2l0,0H454.3L454.3,51.9L454.3,51.9z"/>
	<path class="st14" d="M454.3,51.9c1.2,0,2.2,1,2.2,2.2l0,0v9.5l0,0c0,1.2-1,2.2-2.2,2.2l0,0l0,0h-9.5l0,0c-1.2,0-2.2-1-2.2-2.2l0,0
		V54c0-1.2,1-2.2,2.2-2.2l0,0H454.3L454.3,51.9L454.3,51.9z"/>
	<text transform="matrix(1.0023 0 0 1 461.6585 63.9757)" class="st15 st3 st4">G</text>
	<text transform="matrix(1.0023 0 0 1 469.4691 63.9757)" class="st15 st3 st4">M</text>
	<text transform="matrix(1.0023 0 0 1 479.8851 63.9757)" class="st15 st3 st4">L</text>
	<text transform="matrix(1.0023 0 0 1 485.0941 63.9757)" class="st15 st3 st4">に</text>
	<text transform="matrix(1.0023 0 0 1 493.7816 63.9757)" class="st15 st3 st4">定</text>
	<text transform="matrix(1.0023 0 0 1 505.0667 63.9757)" class="st15 st3 st4">義</text>
	<text transform="matrix(1.0023 0 0 1 516.3538 63.9757)" class="st15 st3 st4">さ</text>
	<text transform="matrix(1.0023 0 0 1 524.1605 63.9757)" class="st15 st3 st4">れ</text>
	<text transform="matrix(1.0023 0 0 1 534.5687 63.9757)" class="st15 st3 st4">た</text>
	<text transform="matrix(1.0023 0 0 1 543.2601 63.9757)" class="st15 st3 st4">ク</text>
	<text transform="matrix(1.0023 0 0 1 551.9378 63.9757)" class="st15 st3 st4">ラ</text>
	<text transform="matrix(1.0023 0 0 1 559.7464 63.9757)" class="st15 st3 st4">ス</text>
	<path class="st1" d="M454.3,68.3c1.2,0,2.2,1,2.2,2.2l0,0V80l0,0c0,1.2-1,2.2-2.2,2.2l0,0l0,0h-9.5l0,0c-1.2,0-2.2-1-2.2-2.2l0,0
		v-9.5c0-1.2,1-2.2,2.2-2.2l0,0H454.3L454.3,68.3L454.3,68.3z"/>
	<path class="st14" d="M454.3,68.3c1.2,0,2.2,1,2.2,2.2l0,0V80l0,0c0,1.2-1,2.2-2.2,2.2l0,0l0,0h-9.5l0,0c-1.2,0-2.2-1-2.2-2.2l0,0
		v-9.5c0-1.2,1-2.2,2.2-2.2l0,0H454.3L454.3,68.3L454.3,68.3z"/>
	<text transform="matrix(1.0023 0 0 1 461.6585 80.4445)" class="st15 st3 st4">C</text>
	<text transform="matrix(1.0023 0 0 1 468.6116 80.4445)" class="st15 st3 st4">i</text>
	<text transform="matrix(1.0023 0 0 1 471.221 80.4445)" class="st15 st3 st4">t</text>
	<text transform="matrix(1.0023 0 0 1 474.6956 80.4445)" class="st15 st3 st4">y</text>
	<text transform="matrix(1.0023 0 0 1 479.9085 80.4445)" class="st15 st3 st4">G</text>
	<text transform="matrix(1.0023 0 0 1 487.7171 80.4445)" class="st15 st3 st4">M</text>
	<text transform="matrix(1.0023 0 0 1 498.1331 80.4445)" class="st15 st3 st4">L</text>
	<text transform="matrix(1.0023 0 0 1 503.3441 80.4445)" class="st15 st3 st4">に</text>
	<text transform="matrix(1.0023 0 0 1 512.0316 80.4445)" class="st15 st3 st4">定</text>
	<text transform="matrix(1.0023 0 0 1 523.3167 80.4445)" class="st15 st3 st4">義</text>
	<text transform="matrix(1.0023 0 0 1 534.6019 80.4445)" class="st15 st3 st4">さ</text>
	<text transform="matrix(1.0023 0 0 1 542.4105 80.4445)" class="st15 st3 st4">れ</text>
	<text transform="matrix(1.0023 0 0 1 552.8167 80.4445)" class="st15 st3 st4">た</text>
	<text transform="matrix(1.0023 0 0 1 561.5081 80.4445)" class="st15 st3 st4">ク</text>
	<text transform="matrix(1.0023 0 0 1 570.1878 80.4445)" class="st15 st3 st4">ラ</text>
	<text transform="matrix(1.0023 0 0 1 577.9964 80.4445)" class="st15 st3 st4">ス</text>
	<path class="st16" d="M454.3,84.8c1.2,0,2.2,1,2.2,2.2l0,0v9.5l0,0c0,1.2-1,2.2-2.2,2.2l0,0l0,0h-9.5l0,0c-1.2,0-2.2-1-2.2-2.2l0,0
		v-9.5c0-1.2,1-2.2,2.2-2.2l0,0H454.3L454.3,84.8L454.3,84.8z"/>
	<path class="st14" d="M454.3,84.8c1.2,0,2.2,1,2.2,2.2l0,0v9.5l0,0c0,1.2-1,2.2-2.2,2.2l0,0l0,0h-9.5l0,0c-1.2,0-2.2-1-2.2-2.2l0,0
		v-9.5c0-1.2,1-2.2,2.2-2.2l0,0H454.3L454.3,84.8L454.3,84.8z"/>
	<text transform="matrix(1.0023 0 0 1 461.6585 96.8976)" class="st15 st3 st4">i</text>
	<text transform="matrix(1.0023 0 0 1 464.2679 96.8976)" class="st15 st3 st4">-</text>
	<text transform="matrix(1.0023 0 0 1 468.6116 96.8976)" class="st15 st3 st4">U</text>
	<text transform="matrix(1.0023 0 0 1 476.4202 96.8976)" class="st15 st3 st4">R</text>
	<text transform="matrix(1.0023 0 0 1 483.3636 96.8976)" class="st15 st3 st4">に</text>
	<text transform="matrix(1.0023 0 0 1 492.0511 96.8976)" class="st15 st3 st4">定</text>
	<text transform="matrix(1.0023 0 0 1 503.3362 96.8976)" class="st15 st3 st4">義</text>
	<text transform="matrix(1.0023 0 0 1 514.6214 96.8976)" class="st15 st3 st4">さ</text>
	<text transform="matrix(1.0023 0 0 1 522.428 96.8976)" class="st15 st3 st4">れ</text>
	<text transform="matrix(1.0023 0 0 1 532.8362 96.8976)" class="st15 st3 st4">た</text>
	<text transform="matrix(1.0023 0 0 1 541.5276 96.8976)" class="st15 st3 st4">ク</text>
	<text transform="matrix(1.0023 0 0 1 550.2073 96.8976)" class="st15 st3 st4">ラ</text>
	<text transform="matrix(1.0023 0 0 1 558.0159 96.8976)" class="st15 st3 st4">ス</text>
	<text transform="matrix(1.0023 0 0 1 500.721 44.0538)" class="st15 st17 st18">凡例</text>
	<text transform="matrix(1.0023 0 0 1 500.721 44.0538)" class="st19 st17 st18">凡例</text>
	<path class="st20" d="M117.9,355.9l-3.5,4.3 M110.1,365.4l-3.5,4.3 M102.3,374.9l-3.5,4.3 M94.4,384.5l-4.3,4.3"/>
	<line class="st21" x1="125.7" y1="189.6" x2="125.7" y2="160.1"/>
	<line class="st21" x1="125.7" y1="160.1" x2="277.6" y2="160.1"/>
	<line class="st21" x1="277.6" y1="160.1" x2="277.6" y2="117.7"/>
	<polyline class="st9" points="282.8,131.5 272.4,131.5 277.6,117.7 282.8,131.5 	"/>
	<polygon class="st21" points="282.8,131.5 272.4,131.5 277.6,117.7 	"/>
	<line class="st21" x1="123.1" y1="284.8" x2="123.1" y2="260.6"/>
	<polyline class="st9" points="128.3,274.5 117.9,274.5 123.1,260.6 128.3,274.5 	"/>
	<polygon class="st21" points="128.3,274.5 117.9,274.5 123.1,260.6 	"/>
	<line class="st21" x1="301.9" y1="297" x2="301.9" y2="327.3"/>
	<line class="st21" x1="301.9" y1="327.3" x2="183" y2="327.3"/>
	<polyline class="st9" points="191.7,323 183,327.3 191.7,331.6 200.4,327.3 191.7,323 	"/>
	<polygon class="st21" points="191.7,323 183,327.3 191.7,331.6 200.4,327.3 	"/>
	<path class="st21" d="M301.9,297l-5.2,13 M301.9,297l5.2,13"/>
	<line class="st21" x1="419.1" y1="189.6" x2="419.1" y2="160.1"/>
	<line class="st21" x1="419.1" y1="160.1" x2="277.6" y2="160.1"/>
	<polyline class="st9" points="161.5,643.1 161.5,656.1 251.1,656.1 251.1,643.1 161.5,643.1 	"/>
	<text transform="matrix(1.0023 0 0 1 244.6273 348.0538)" class="st22 st23">+</text>
	<text transform="matrix(1.0023 0 0 1 248.973 348.0538)" class="st22 st23">c</text>
	<text transform="matrix(1.0023 0 0 1 253.307 348.0538)" class="st22 st23">i</text>
	<text transform="matrix(1.0023 0 0 1 255.9085 348.0538)" class="st22 st23">t</text>
	<text transform="matrix(1.0023 0 0 1 259.3743 348.0538)" class="st22 st23">y</text>
	<text transform="matrix(1.0023 0 0 1 263.7064 348.0538)" class="st22 st23">O</text>
	<text transform="matrix(1.0023 0 0 1 269.8001 348.0538)" class="st22 st23">b</text>
	<text transform="matrix(1.0023 0 0 1 275.0179 348.0538)" class="st22 st23">j</text>
	<text transform="matrix(1.0023 0 0 1 277.6273 348.0538)" class="st22 st23">e</text>
	<text transform="matrix(1.0023 0 0 1 282.8362 348.0538)" class="st22 st23">c</text>
	<text transform="matrix(1.0023 0 0 1 287.18 348.0538)" class="st22 st23">t</text>
	<text transform="matrix(1.0023 0 0 1 290.6556 348.0538)" class="st22 st23">M</text>
	<text transform="matrix(1.0023 0 0 1 298.4857 348.0538)" class="st22 st23">e</text>
	<text transform="matrix(1.0023 0 0 1 303.6956 348.0538)" class="st22 st23">m</text>
	<text transform="matrix(1.0023 0 0 1 311.514 348.0538)" class="st22 st23">b</text>
	<text transform="matrix(1.0023 0 0 1 316.723 348.0538)" class="st22 st23">e</text>
	<text transform="matrix(1.0023 0 0 1 321.9319 348.0538)" class="st22 st23">r</text>
	<polyline class="st9" points="161.5,643.1 161.5,656.1 178.1,656.1 178.1,643.1 161.5,643.1 	"/>
	<text transform="matrix(1.0023 0 0 1 273.2679 310.8351)" class="st22 st23">0</text>
	<text transform="matrix(1.0023 0 0 1 278.471 310.8351)" class="st22 st23">.</text>
	<text transform="matrix(1.0023 0 0 1 281.0726 310.8351)" class="st22 st23">.</text>
	<text transform="matrix(1.0023 0 0 1 283.6741 310.8351)" class="st22 st23">*</text>
</g>
</svg>
