<?xml version="1.0" encoding="utf-8"?>
<!-- Generator: Adobe Illustrator 26.5.2, SVG Export Plug-In . SVG Version: 6.00 Build 0)  -->
<svg version="1.1" id="レイヤー_1" xmlns="http://www.w3.org/2000/svg" xmlns:xlink="http://www.w3.org/1999/xlink" x="0px"
	 y="0px" viewBox="0 0 694.1 399.1" style="enable-background:new 0 0 694.1 399.1;" xml:space="preserve">
<style type="text/css">
	.st0{fill-rule:evenodd;clip-rule:evenodd;fill:#CFD1D8;}
	.st1{fill-rule:evenodd;clip-rule:evenodd;fill:#CCFFCC;}
	.st2{fill:none;stroke:#000000;stroke-width:1.7322;stroke-linecap:round;stroke-linejoin:round;stroke-miterlimit:10;}
	.st3{font-family:'MeiryoUI';}
	.st4{font-size:8.6614px;}
	.st5{font-family:'MeiryoUI-Bold';}
	.st6{font-family:'MeiryoUI-BoldItalic';}
	.st7{font-family:'Calibri';}
	.st8{font-size:9.5276px;}
	.st9{font-family:'Calibri-BoldItalic';}
	.st10{fill:none;stroke:#000000;stroke-width:1.7322;stroke-linecap:round;stroke-linejoin:bevel;stroke-miterlimit:10;}
	.st11{fill-rule:evenodd;clip-rule:evenodd;fill:#FFFFFF;}
</style>
<g>
	<path class="st0" d="M199.1,158.4c1.2,0,2.2,1,2.2,2.2l0,0V190l0,0c0,1.2-1,2.2-2.2,2.2l0,0l0,0H74l0,0c-1.2,0-2.2-1-2.2-2.2l0,0
		v-29.4c0-1.2,1-2.2,2.2-2.2l0,0H199.1L199.1,158.4L199.1,158.4z"/>
	<path class="st1" d="M196.5,155.8c1.2,0,2.2,1,2.2,2.2l0,0v29.4l0,0c0,1.2-1,2.2-2.2,2.2l0,0l0,0h-125l0,0c-1.2,0-2.2-1-2.2-2.2
		l0,0V158c0-1.2,1-2.2,2.2-2.2l0,0H196.5L196.5,155.8L196.5,155.8z"/>
	<path class="st2" d="M196.5,155.8c1.2,0,2.2,1,2.2,2.2l0,0v29.4l0,0c0,1.2-1,2.2-2.2,2.2l0,0l0,0h-125l0,0c-1.2,0-2.2-1-2.2-2.2
		l0,0V158c0-1.2,1-2.2,2.2-2.2l0,0H196.5L196.5,155.8L196.5,155.8z"/>
	<text transform="matrix(1.0023 0 0 1 117.8903 170.5168)" class="st3 st4">«</text>
	<text transform="matrix(1.0023 0 0 1 123.9597 170.5168)" class="st3 st4">T</text>
	<text transform="matrix(1.0023 0 0 1 129.1755 170.5168)" class="st3 st4">y</text>
	<text transform="matrix(1.0023 0 0 1 134.3825 170.5168)" class="st3 st4">p</text>
	<text transform="matrix(1.0023 0 0 1 139.5954 170.5168)" class="st3 st4">e</text>
	<text transform="matrix(1.0023 0 0 1 144.7966 170.5168)" class="st3 st4">»</text>
	<text transform="matrix(1.0023 0 0 1 79.6872 181.7668)" class="st5 st4">g</text>
	<text transform="matrix(1.0023 0 0 1 85.7595 181.7668)" class="st5 st4">m</text>
	<text transform="matrix(1.0023 0 0 1 94.4441 181.7668)" class="st5 st4">l</text>
	<text transform="matrix(1.0023 0 0 1 97.0495 181.7668)" class="st5 st4">:</text>
	<text transform="matrix(1.0023 0 0 1 100.529 181.7668)" class="st5 st4">:</text>
	<text transform="matrix(1.0023 0 0 1 104.0085 181.7668)" class="st5 st4">G</text>
	<text transform="matrix(1.0023 0 0 1 110.9528 181.7668)" class="st5 st4">e</text>
	<text transform="matrix(1.0023 0 0 1 116.1628 181.7668)" class="st5 st4">o</text>
	<text transform="matrix(1.0023 0 0 1 121.3747 181.7668)" class="st5 st4">m</text>
	<text transform="matrix(1.0023 0 0 1 130.0593 181.7668)" class="st5 st4">e</text>
	<text transform="matrix(1.0023 0 0 1 135.2683 181.7668)" class="st5 st4">t</text>
	<text transform="matrix(1.0023 0 0 1 138.7478 181.7668)" class="st5 st4">r</text>
	<text transform="matrix(1.0023 0 0 1 143.0857 181.7668)" class="st5 st4">i</text>
	<text transform="matrix(1.0023 0 0 1 145.6921 181.7668)" class="st5 st4">c</text>
	<text transform="matrix(1.0023 0 0 1 150.0398 181.7668)" class="st5 st4">C</text>
	<text transform="matrix(1.0023 0 0 1 156.1169 181.7668)" class="st5 st4">o</text>
	<text transform="matrix(1.0023 0 0 1 161.3288 181.7668)" class="st5 st4">m</text>
	<text transform="matrix(1.0023 0 0 1 170.0134 181.7668)" class="st5 st4">p</text>
	<text transform="matrix(1.0023 0 0 1 176.0857 181.7668)" class="st5 st4">l</text>
	<text transform="matrix(1.0023 0 0 1 178.6911 181.7668)" class="st5 st4">e</text>
	<text transform="matrix(1.0023 0 0 1 183.9011 181.7668)" class="st5 st4">x</text>
	<path class="st0" d="M407.4,158.4c1.2,0,2.2,1,2.2,2.2l0,0V190l0,0c0,1.2-1,2.2-2.2,2.2l0,0l0,0H256.3l0,0c-1.2,0-2.2-1-2.2-2.2
		l0,0v-29.4c0-1.2,1-2.2,2.2-2.2l0,0H407.4L407.4,158.4L407.4,158.4z"/>
	<path class="st1" d="M404.8,155.8c1.2,0,2.2,1,2.2,2.2l0,0v29.4l0,0c0,1.2-1,2.2-2.2,2.2l0,0l0,0H253.7l0,0c-1.2,0-2.2-1-2.2-2.2
		l0,0V158c0-1.2,1-2.2,2.2-2.2l0,0H404.8L404.8,155.8L404.8,155.8z"/>
	<path class="st2" d="M404.8,155.8c1.2,0,2.2,1,2.2,2.2l0,0v29.4l0,0c0,1.2-1,2.2-2.2,2.2l0,0l0,0H253.7l0,0c-1.2,0-2.2-1-2.2-2.2
		l0,0V158c0-1.2,1-2.2,2.2-2.2l0,0H404.8L404.8,155.8L404.8,155.8z"/>
	<text transform="matrix(1.0023 0 0 1 313.2029 170.5168)" class="st3 st4">«</text>
	<text transform="matrix(1.0023 0 0 1 319.2722 170.5168)" class="st3 st4">T</text>
	<text transform="matrix(1.0023 0 0 1 324.488 170.5168)" class="st3 st4">y</text>
	<text transform="matrix(1.0023 0 0 1 329.695 170.5168)" class="st3 st4">p</text>
	<text transform="matrix(1.0023 0 0 1 334.9079 170.5168)" class="st3 st4">e</text>
	<text transform="matrix(1.0023 0 0 1 340.1091 170.5168)" class="st3 st4">»</text>
	<text transform="matrix(1.0023 0 0 1 270.6716 181.7668)" class="st5 st4">g</text>
	<text transform="matrix(1.0023 0 0 1 276.7439 181.7668)" class="st5 st4">m</text>
	<text transform="matrix(1.0023 0 0 1 285.4284 181.7668)" class="st5 st4">l</text>
	<text transform="matrix(1.0023 0 0 1 288.0339 181.7668)" class="st5 st4">:</text>
	<text transform="matrix(1.0023 0 0 1 291.5134 181.7668)" class="st5 st4">:</text>
	<text transform="matrix(1.0023 0 0 1 294.9929 181.7668)" class="st5 st4">_</text>
	<text transform="matrix(1.0023 0 0 1 301.0681 181.7668)" class="st5 st4">G</text>
	<text transform="matrix(1.0023 0 0 1 308.0114 181.7668)" class="st5 st4">e</text>
	<text transform="matrix(1.0023 0 0 1 313.2214 181.7668)" class="st5 st4">o</text>
	<text transform="matrix(1.0023 0 0 1 318.4333 181.7668)" class="st5 st4">m</text>
	<text transform="matrix(1.0023 0 0 1 327.1179 181.7668)" class="st5 st4">e</text>
	<text transform="matrix(1.0023 0 0 1 332.3279 181.7668)" class="st5 st4">t</text>
	<text transform="matrix(1.0023 0 0 1 335.8073 181.7668)" class="st5 st4">r</text>
	<text transform="matrix(1.0023 0 0 1 340.1452 181.7668)" class="st5 st4">i</text>
	<text transform="matrix(1.0023 0 0 1 342.7507 181.7668)" class="st5 st4">c</text>
	<text transform="matrix(1.0023 0 0 1 347.1003 181.7668)" class="st5 st4">P</text>
	<text transform="matrix(1.0023 0 0 1 353.1726 181.7668)" class="st5 st4">r</text>
	<text transform="matrix(1.0023 0 0 1 357.5105 181.7668)" class="st5 st4">i</text>
	<text transform="matrix(1.0023 0 0 1 360.1159 181.7668)" class="st5 st4">m</text>
	<text transform="matrix(1.0023 0 0 1 368.8015 181.7668)" class="st5 st4">i</text>
	<text transform="matrix(1.0023 0 0 1 371.407 181.7668)" class="st5 st4">t</text>
	<text transform="matrix(1.0023 0 0 1 374.8855 181.7668)" class="st5 st4">i</text>
	<text transform="matrix(1.0023 0 0 1 377.4909 181.7668)" class="st5 st4">v</text>
	<text transform="matrix(1.0023 0 0 1 382.7038 181.7668)" class="st5 st4">e</text>
	<path class="st0" d="M624.4,158.4c1.2,0,2.2,1,2.2,2.2l0,0V190l0,0c0,1.2-1,2.2-2.2,2.2l0,0l0,0H430l0,0c-1.2,0-2.2-1-2.2-2.2l0,0
		v-29.4c0-1.2,1-2.2,2.2-2.2l0,0H624.4L624.4,158.4L624.4,158.4z"/>
	<path class="st1" d="M621.8,155.8c1.2,0,2.2,1,2.2,2.2l0,0v29.4l0,0c0,1.2-1,2.2-2.2,2.2l0,0l0,0H427.4l0,0c-1.2,0-2.2-1-2.2-2.2
		l0,0V158c0-1.2,1-2.2,2.2-2.2l0,0H621.8L621.8,155.8L621.8,155.8z"/>
	<path class="st2" d="M621.8,155.8c1.2,0,2.2,1,2.2,2.2l0,0v29.4l0,0c0,1.2-1,2.2-2.2,2.2l0,0l0,0H427.4l0,0c-1.2,0-2.2-1-2.2-2.2
		l0,0V158c0-1.2,1-2.2,2.2-2.2l0,0H621.8L621.8,155.8L621.8,155.8z"/>
	<text transform="matrix(1.0023 0 0 1 508.532 170.5168)" class="st3 st4">«</text>
	<text transform="matrix(1.0023 0 0 1 514.6022 170.5168)" class="st3 st4">T</text>
	<text transform="matrix(1.0023 0 0 1 519.8171 170.5168)" class="st3 st4">y</text>
	<text transform="matrix(1.0023 0 0 1 525.0241 170.5168)" class="st3 st4">p</text>
	<text transform="matrix(1.0023 0 0 1 530.237 170.5168)" class="st3 st4">e</text>
	<text transform="matrix(1.0023 0 0 1 535.4382 170.5168)" class="st3 st4">»</text>
	<text transform="matrix(1.0023 0 0 1 444.2976 181.7668)" class="st6 st4">g</text>
	<text transform="matrix(1.0023 0 0 1 450.3679 181.7668)" class="st6 st4">m</text>
	<text transform="matrix(1.0023 0 0 1 459.0534 181.7668)" class="st6 st4">l</text>
	<text transform="matrix(1.0023 0 0 1 461.6589 181.7668)" class="st6 st4">:</text>
	<text transform="matrix(1.0023 0 0 1 465.1374 181.7668)" class="st6 st4">:</text>
	<text transform="matrix(1.0023 0 0 1 468.6179 181.7668)" class="st6 st4">_</text>
	<text transform="matrix(1.0023 0 0 1 474.6921 181.7668)" class="st6 st4">A</text>
	<text transform="matrix(1.0023 0 0 1 480.7702 181.7668)" class="st6 st4">b</text>
	<text transform="matrix(1.0023 0 0 1 486.8405 181.7668)" class="st6 st4">s</text>
	<text transform="matrix(1.0023 0 0 1 491.1882 181.7668)" class="st6 st4">t</text>
	<text transform="matrix(1.0023 0 0 1 494.6628 181.7668)" class="st6 st4">r</text>
	<text transform="matrix(1.0023 0 0 1 498.9968 181.7668)" class="st6 st4">a</text>
	<text transform="matrix(1.0023 0 0 1 504.2155 181.7668)" class="st6 st4">c</text>
	<text transform="matrix(1.0023 0 0 1 508.5593 181.7668)" class="st6 st4">t</text>
	<text transform="matrix(1.0023 0 0 1 512.0339 181.7668)" class="st6 st4">G</text>
	<text transform="matrix(1.0023 0 0 1 518.9792 181.7668)" class="st6 st4">e</text>
	<text transform="matrix(1.0023 0 0 1 524.194 181.7668)" class="st6 st4">o</text>
	<text transform="matrix(1.0023 0 0 1 529.4069 181.7668)" class="st6 st4">m</text>
	<text transform="matrix(1.0023 0 0 1 538.0905 181.7668)" class="st6 st4">e</text>
	<text transform="matrix(1.0023 0 0 1 543.3073 181.7668)" class="st6 st4">t</text>
	<text transform="matrix(1.0023 0 0 1 546.7819 181.7668)" class="st6 st4">r</text>
	<text transform="matrix(1.0023 0 0 1 551.1179 181.7668)" class="st6 st4">i</text>
	<text transform="matrix(1.0023 0 0 1 553.7233 181.7668)" class="st6 st4">c</text>
	<text transform="matrix(1.0023 0 0 1 558.0671 181.7668)" class="st6 st4">A</text>
	<text transform="matrix(1.0023 0 0 1 564.1472 181.7668)" class="st6 st4">g</text>
	<text transform="matrix(1.0023 0 0 1 570.2155 181.7668)" class="st6 st4">g</text>
	<text transform="matrix(1.0023 0 0 1 576.2858 181.7668)" class="st6 st4">r</text>
	<text transform="matrix(1.0023 0 0 1 580.6198 181.7668)" class="st6 st4">e</text>
	<text transform="matrix(1.0023 0 0 1 585.8347 181.7668)" class="st6 st4">g</text>
	<text transform="matrix(1.0023 0 0 1 591.905 181.7668)" class="st6 st4">a</text>
	<text transform="matrix(1.0023 0 0 1 597.1218 181.7668)" class="st6 st4">t</text>
	<text transform="matrix(1.0023 0 0 1 600.5964 181.7668)" class="st6 st4">e</text>
	<path class="st0" d="M147,262.3c1.2,0,2.2,1,2.2,2.2l0,0v29.4l0,0c0,1.2-1,2.2-2.2,2.2l0,0l0,0H30.6l0,0c-1.2,0-2.2-1-2.2-2.2l0,0
		v-29.4c0-1.2,1-2.2,2.2-2.2l0,0L147,262.3L147,262.3L147,262.3z"/>
	<path class="st1" d="M144.4,259.7c1.2,0,2.2,1,2.2,2.2l0,0v29.4l0,0c0,1.2-1,2.2-2.2,2.2l0,0l0,0H28l0,0c-1.2,0-2.2-1-2.2-2.2l0,0
		v-29.4c0-1.2,1-2.2,2.2-2.2l0,0L144.4,259.7L144.4,259.7L144.4,259.7z"/>
	<path class="st2" d="M144.4,259.7c1.2,0,2.2,1,2.2,2.2l0,0v29.4l0,0c0,1.2-1,2.2-2.2,2.2l0,0l0,0H28l0,0c-1.2,0-2.2-1-2.2-2.2l0,0
		v-29.4c0-1.2,1-2.2,2.2-2.2l0,0L144.4,259.7L144.4,259.7L144.4,259.7z"/>
	<text transform="matrix(1.0023 0 0 1 70.1403 274.4543)" class="st3 st4">«</text>
	<text transform="matrix(1.0023 0 0 1 76.2097 274.4543)" class="st3 st4">T</text>
	<text transform="matrix(1.0023 0 0 1 81.4255 274.4543)" class="st3 st4">y</text>
	<text transform="matrix(1.0023 0 0 1 86.6325 274.4543)" class="st3 st4">p</text>
	<text transform="matrix(1.0023 0 0 1 91.8454 274.4543)" class="st3 st4">e</text>
	<text transform="matrix(1.0023 0 0 1 97.0466 274.4543)" class="st3 st4">»</text>
	<text transform="matrix(1.0023 0 0 1 40.6247 285.7043)" class="st5 st4">g</text>
	<text transform="matrix(1.0023 0 0 1 46.697 285.7043)" class="st5 st4">m</text>
	<text transform="matrix(1.0023 0 0 1 55.3816 285.7043)" class="st5 st4">l</text>
	<text transform="matrix(1.0023 0 0 1 57.987 285.7043)" class="st5 st4">:</text>
	<text transform="matrix(1.0023 0 0 1 61.4665 285.7043)" class="st5 st4">:</text>
	<text transform="matrix(1.0023 0 0 1 64.946 285.7043)" class="st5 st4">M</text>
	<text transform="matrix(1.0023 0 0 1 72.7653 285.7043)" class="st5 st4">u</text>
	<text transform="matrix(1.0023 0 0 1 78.8347 285.7043)" class="st5 st4">l</text>
	<text transform="matrix(1.0023 0 0 1 81.4411 285.7043)" class="st5 st4">t</text>
	<text transform="matrix(1.0023 0 0 1 84.9206 285.7043)" class="st5 st4">i</text>
	<text transform="matrix(1.0023 0 0 1 87.5261 285.7043)" class="st5 st4">G</text>
	<text transform="matrix(1.0023 0 0 1 94.4704 285.7043)" class="st5 st4">e</text>
	<text transform="matrix(1.0023 0 0 1 99.6794 285.7043)" class="st5 st4">o</text>
	<text transform="matrix(1.0023 0 0 1 104.8923 285.7043)" class="st5 st4">m</text>
	<text transform="matrix(1.0023 0 0 1 113.5759 285.7043)" class="st5 st4">e</text>
	<text transform="matrix(1.0023 0 0 1 118.7859 285.7043)" class="st5 st4">t</text>
	<text transform="matrix(1.0023 0 0 1 122.2653 285.7043)" class="st5 st4">r</text>
	<text transform="matrix(1.0023 0 0 1 126.6032 285.7043)" class="st5 st4">y</text>
	<path class="st0" d="M658.3,262.3c1.2,0,2.2,1,2.2,2.2l0,0v29.4l0,0c0,1.2-1,2.2-2.2,2.2l0,0l0,0h-81.6l0,0c-1.2,0-2.2-1-2.2-2.2
		l0,0v-29.4c0-1.2,1-2.2,2.2-2.2l0,0L658.3,262.3L658.3,262.3L658.3,262.3z"/>
	<path class="st1" d="M655.7,259.7c1.2,0,2.2,1,2.2,2.2l0,0v29.4l0,0c0,1.2-1,2.2-2.2,2.2l0,0l0,0h-81.6l0,0c-1.2,0-2.2-1-2.2-2.2
		l0,0v-29.4c0-1.2,1-2.2,2.2-2.2l0,0L655.7,259.7L655.7,259.7L655.7,259.7z"/>
	<path class="st2" d="M655.7,259.7c1.2,0,2.2,1,2.2,2.2l0,0v29.4l0,0c0,1.2-1,2.2-2.2,2.2l0,0l0,0h-81.6l0,0c-1.2,0-2.2-1-2.2-2.2
		l0,0v-29.4c0-1.2,1-2.2,2.2-2.2l0,0L655.7,259.7L655.7,259.7L655.7,259.7z"/>
	<text transform="matrix(1.0023 0 0 1 598.8132 274.4543)" class="st3 st4">«</text>
	<text transform="matrix(1.0023 0 0 1 604.8835 274.4543)" class="st3 st4">T</text>
	<text transform="matrix(1.0023 0 0 1 610.0983 274.4543)" class="st3 st4">y</text>
	<text transform="matrix(1.0023 0 0 1 615.3054 274.4543)" class="st3 st4">p</text>
	<text transform="matrix(1.0023 0 0 1 620.5182 274.4543)" class="st3 st4">e</text>
	<text transform="matrix(1.0023 0 0 1 625.7194 274.4543)" class="st3 st4">»</text>
	<text transform="matrix(1.0023 0 0 1 579.7194 285.7043)" class="st5 st4">g</text>
	<text transform="matrix(1.0023 0 0 1 585.7897 285.7043)" class="st5 st4">m</text>
	<text transform="matrix(1.0023 0 0 1 594.4772 285.7043)" class="st5 st4">l</text>
	<text transform="matrix(1.0023 0 0 1 597.0827 285.7043)" class="st5 st4">:</text>
	<text transform="matrix(1.0023 0 0 1 600.5612 285.7043)" class="st5 st4">:</text>
	<text transform="matrix(1.0023 0 0 1 604.0397 285.7043)" class="st5 st4">M</text>
	<text transform="matrix(1.0023 0 0 1 611.86 285.7043)" class="st5 st4">u</text>
	<text transform="matrix(1.0023 0 0 1 617.9304 285.7043)" class="st5 st4">l</text>
	<text transform="matrix(1.0023 0 0 1 620.5358 285.7043)" class="st5 st4">t</text>
	<text transform="matrix(1.0023 0 0 1 624.0143 285.7043)" class="st5 st4">i</text>
	<text transform="matrix(1.0023 0 0 1 626.6198 285.7043)" class="st5 st4">P</text>
	<text transform="matrix(1.0023 0 0 1 632.694 285.7043)" class="st5 st4">o</text>
	<text transform="matrix(1.0023 0 0 1 637.905 285.7043)" class="st5 st4">i</text>
	<text transform="matrix(1.0023 0 0 1 640.5104 285.7043)" class="st5 st4">n</text>
	<text transform="matrix(1.0023 0 0 1 646.5807 285.7043)" class="st5 st4">t</text>
	<path class="st0" d="M441.3,262.3c1.2,0,2.2,1,2.2,2.2l0,0v29.4l0,0c0,1.2-1,2.2-2.2,2.2l0,0l0,0h-81.6l0,0c-1.2,0-2.2-1-2.2-2.2
		l0,0v-29.4c0-1.2,1-2.2,2.2-2.2l0,0L441.3,262.3L441.3,262.3L441.3,262.3z"/>
	<path class="st1" d="M438.7,259.7c1.2,0,2.2,1,2.2,2.2l0,0v29.4l0,0c0,1.2-1,2.2-2.2,2.2l0,0l0,0h-81.6l0,0c-1.2,0-2.2-1-2.2-2.2
		l0,0v-29.4c0-1.2,1-2.2,2.2-2.2l0,0L438.7,259.7L438.7,259.7L438.7,259.7z"/>
	<path class="st2" d="M438.7,259.7c1.2,0,2.2,1,2.2,2.2l0,0v29.4l0,0c0,1.2-1,2.2-2.2,2.2l0,0l0,0h-81.6l0,0c-1.2,0-2.2-1-2.2-2.2
		l0,0v-29.4c0-1.2,1-2.2,2.2-2.2l0,0L438.7,259.7L438.7,259.7L438.7,259.7z"/>
	<text transform="matrix(1.0023 0 0 1 381.7976 274.4543)" class="st3 st4">«</text>
	<text transform="matrix(1.0023 0 0 1 387.8679 274.4543)" class="st3 st4">T</text>
	<text transform="matrix(1.0023 0 0 1 393.0827 274.4543)" class="st3 st4">y</text>
	<text transform="matrix(1.0023 0 0 1 398.2898 274.4543)" class="st3 st4">p</text>
	<text transform="matrix(1.0023 0 0 1 403.5027 274.4543)" class="st3 st4">e</text>
	<text transform="matrix(1.0023 0 0 1 408.7038 274.4543)" class="st3 st4">»</text>
	<text transform="matrix(1.0023 0 0 1 357.4851 285.7043)" class="st5 st4">g</text>
	<text transform="matrix(1.0023 0 0 1 363.5573 285.7043)" class="st5 st4">m</text>
	<text transform="matrix(1.0023 0 0 1 372.2429 285.7043)" class="st5 st4">l</text>
	<text transform="matrix(1.0023 0 0 1 374.8484 285.7043)" class="st5 st4">:</text>
	<text transform="matrix(1.0023 0 0 1 378.3269 285.7043)" class="st5 st4">:</text>
	<text transform="matrix(1.0023 0 0 1 381.8073 285.7043)" class="st5 st4">M</text>
	<text transform="matrix(1.0023 0 0 1 389.6257 285.7043)" class="st5 st4">u</text>
	<text transform="matrix(1.0023 0 0 1 395.696 285.7043)" class="st5 st4">l</text>
	<text transform="matrix(1.0023 0 0 1 398.3015 285.7043)" class="st5 st4">t</text>
	<text transform="matrix(1.0023 0 0 1 401.78 285.7043)" class="st5 st4">i</text>
	<text transform="matrix(1.0023 0 0 1 404.3855 285.7043)" class="st5 st4">S</text>
	<text transform="matrix(1.0023 0 0 1 410.4577 285.7043)" class="st5 st4">u</text>
	<text transform="matrix(1.0023 0 0 1 416.5261 285.7043)" class="st5 st4">r</text>
	<text transform="matrix(1.0023 0 0 1 420.864 285.7043)" class="st5 st4">f</text>
	<text transform="matrix(1.0023 0 0 1 424.3347 285.7043)" class="st5 st4">a</text>
	<text transform="matrix(1.0023 0 0 1 429.5495 285.7043)" class="st5 st4">c</text>
	<text transform="matrix(1.0023 0 0 1 433.8991 285.7043)" class="st5 st4">e</text>
	<path class="st0" d="M337.1,262.3c1.2,0,2.2,1,2.2,2.2l0,0v32l0,0c0,1.2-1,2.2-2.2,2.2l0,0l0,0h-81.6l0,0c-1.2,0-2.2-1-2.2-2.2l0,0
		v-32c0-1.2,1-2.2,2.2-2.2l0,0L337.1,262.3L337.1,262.3L337.1,262.3z"/>
	<path class="st1" d="M334.5,259.7c1.2,0,2.2,1,2.2,2.2l0,0v32l0,0c0,1.2-1,2.2-2.2,2.2l0,0l0,0h-81.6l0,0c-1.2,0-2.2-1-2.2-2.2l0,0
		v-32c0-1.2,1-2.2,2.2-2.2l0,0L334.5,259.7L334.5,259.7L334.5,259.7z"/>
	<path class="st2" d="M334.5,259.7c1.2,0,2.2,1,2.2,2.2l0,0v32l0,0c0,1.2-1,2.2-2.2,2.2l0,0l0,0h-81.6l0,0c-1.2,0-2.2-1-2.2-2.2l0,0
		v-32c0-1.2,1-2.2,2.2-2.2l0,0L334.5,259.7L334.5,259.7L334.5,259.7z"/>
	<text transform="matrix(1.0023 0 0 1 277.6091 274.4543)" class="st3 st4">«</text>
	<text transform="matrix(1.0023 0 0 1 283.6784 274.4543)" class="st3 st4">T</text>
	<text transform="matrix(1.0023 0 0 1 288.8943 274.4543)" class="st3 st4">y</text>
	<text transform="matrix(1.0023 0 0 1 294.1013 274.4543)" class="st3 st4">p</text>
	<text transform="matrix(1.0023 0 0 1 299.3142 274.4543)" class="st3 st4">e</text>
	<text transform="matrix(1.0023 0 0 1 304.5154 274.4543)" class="st3 st4">»</text>
	<text transform="matrix(1.0023 0 0 1 259.3904 285.7043)" class="st5 st4">g</text>
	<text transform="matrix(1.0023 0 0 1 265.4626 285.7043)" class="st5 st4">m</text>
	<text transform="matrix(1.0023 0 0 1 274.1472 285.7043)" class="st5 st4">l</text>
	<text transform="matrix(1.0023 0 0 1 276.7527 285.7043)" class="st5 st4">:</text>
	<text transform="matrix(1.0023 0 0 1 280.2321 285.7043)" class="st5 st4">:</text>
	<text transform="matrix(1.0023 0 0 1 283.7116 285.7043)" class="st5 st4">M</text>
	<text transform="matrix(1.0023 0 0 1 291.531 285.7043)" class="st5 st4">u</text>
	<text transform="matrix(1.0023 0 0 1 297.6003 285.7043)" class="st5 st4">l</text>
	<text transform="matrix(1.0023 0 0 1 300.2068 285.7043)" class="st5 st4">t</text>
	<text transform="matrix(1.0023 0 0 1 303.6862 285.7043)" class="st5 st4">i</text>
	<text transform="matrix(1.0023 0 0 1 306.2917 285.7043)" class="st5 st4">S</text>
	<text transform="matrix(1.0023 0 0 1 312.362 285.7043)" class="st5 st4">o</text>
	<text transform="matrix(1.0023 0 0 1 317.5749 285.7043)" class="st5 st4">l</text>
	<text transform="matrix(1.0023 0 0 1 320.1804 285.7043)" class="st5 st4">i</text>
	<text transform="matrix(1.0023 0 0 1 322.7859 285.7043)" class="st5 st4">d</text>
	<path class="st0" d="M554.1,262.3c1.2,0,2.2,1,2.2,2.2l0,0v29.4l0,0c0,1.2-1,2.2-2.2,2.2l0,0l0,0h-81.6l0,0c-1.2,0-2.2-1-2.2-2.2
		l0,0v-29.4c0-1.2,1-2.2,2.2-2.2l0,0L554.1,262.3L554.1,262.3L554.1,262.3z"/>
	<path class="st1" d="M551.5,259.7c1.2,0,2.2,1,2.2,2.2l0,0v29.4l0,0c0,1.2-1,2.2-2.2,2.2l0,0l0,0h-81.6l0,0c-1.2,0-2.2-1-2.2-2.2
		l0,0v-29.4c0-1.2,1-2.2,2.2-2.2l0,0L551.5,259.7L551.5,259.7L551.5,259.7z"/>
	<path class="st2" d="M551.5,259.7c1.2,0,2.2,1,2.2,2.2l0,0v29.4l0,0c0,1.2-1,2.2-2.2,2.2l0,0l0,0h-81.6l0,0c-1.2,0-2.2-1-2.2-2.2
		l0,0v-29.4c0-1.2,1-2.2,2.2-2.2l0,0L551.5,259.7L551.5,259.7L551.5,259.7z"/>
	<text transform="matrix(1.0023 0 0 1 494.6413 274.4543)" class="st3 st4">«</text>
	<text transform="matrix(1.0023 0 0 1 500.7116 274.4543)" class="st3 st4">T</text>
	<text transform="matrix(1.0023 0 0 1 505.9265 274.4543)" class="st3 st4">y</text>
	<text transform="matrix(1.0023 0 0 1 511.1335 274.4543)" class="st3 st4">p</text>
	<text transform="matrix(1.0023 0 0 1 516.3464 274.4543)" class="st3 st4">e</text>
	<text transform="matrix(1.0023 0 0 1 521.5475 274.4543)" class="st3 st4">»</text>
	<text transform="matrix(1.0023 0 0 1 473.8132 285.7043)" class="st5 st4">g</text>
	<text transform="matrix(1.0023 0 0 1 479.8855 285.7043)" class="st5 st4">m</text>
	<text transform="matrix(1.0023 0 0 1 488.571 285.7043)" class="st5 st4">l</text>
	<text transform="matrix(1.0023 0 0 1 491.1765 285.7043)" class="st5 st4">:</text>
	<text transform="matrix(1.0023 0 0 1 494.655 285.7043)" class="st5 st4">:</text>
	<text transform="matrix(1.0023 0 0 1 498.1355 285.7043)" class="st5 st4">M</text>
	<text transform="matrix(1.0023 0 0 1 505.9538 285.7043)" class="st5 st4">u</text>
	<text transform="matrix(1.0023 0 0 1 512.0241 285.7043)" class="st5 st4">l</text>
	<text transform="matrix(1.0023 0 0 1 514.6296 285.7043)" class="st5 st4">t</text>
	<text transform="matrix(1.0023 0 0 1 518.1061 285.7043)" class="st5 st4">i</text>
	<text transform="matrix(1.0023 0 0 1 520.7136 285.7043)" class="st5 st4">C</text>
	<text transform="matrix(1.0023 0 0 1 526.7897 285.7043)" class="st5 st4">u</text>
	<text transform="matrix(1.0023 0 0 1 532.86 285.7043)" class="st5 st4">r</text>
	<text transform="matrix(1.0023 0 0 1 537.1979 285.7043)" class="st5 st4">v</text>
	<text transform="matrix(1.0023 0 0 1 542.4108 285.7043)" class="st5 st4">e</text>
	<path class="st0" d="M337.1,340.3c1.2,0,2.2,1,2.2,2.2l0,0v29.4l0,0c0,1.2-1,2.2-2.2,2.2l0,0l0,0h-81.6l0,0c-1.2,0-2.2-1-2.2-2.2
		l0,0v-29.4c0-1.2,1-2.2,2.2-2.2l0,0H337.1L337.1,340.3L337.1,340.3z"/>
	<path class="st1" d="M334.5,337.7c1.2,0,2.2,1,2.2,2.2l0,0v29.4l0,0c0,1.2-1,2.2-2.2,2.2l0,0l0,0h-81.6l0,0c-1.2,0-2.2-1-2.2-2.2
		l0,0v-29.4c0-1.2,1-2.2,2.2-2.2l0,0H334.5L334.5,337.7L334.5,337.7z"/>
	<path class="st2" d="M334.5,337.7c1.2,0,2.2,1,2.2,2.2l0,0v29.4l0,0c0,1.2-1,2.2-2.2,2.2l0,0l0,0h-81.6l0,0c-1.2,0-2.2-1-2.2-2.2
		l0,0v-29.4c0-1.2,1-2.2,2.2-2.2l0,0H334.5L334.5,337.7L334.5,337.7z"/>
	<text transform="matrix(1.0023 0 0 1 277.6091 352.407)" class="st3 st4">«</text>
	<text transform="matrix(1.0023 0 0 1 283.6784 352.407)" class="st3 st4">T</text>
	<text transform="matrix(1.0023 0 0 1 288.8943 352.407)" class="st3 st4">y</text>
	<text transform="matrix(1.0023 0 0 1 294.1013 352.407)" class="st3 st4">p</text>
	<text transform="matrix(1.0023 0 0 1 299.3142 352.407)" class="st3 st4">e</text>
	<text transform="matrix(1.0023 0 0 1 304.5154 352.407)" class="st3 st4">»</text>
	<text transform="matrix(1.0023 0 0 1 267.2029 363.6726)" class="st6 st4">g</text>
	<text transform="matrix(1.0023 0 0 1 273.2722 363.6726)" class="st6 st4">m</text>
	<text transform="matrix(1.0023 0 0 1 281.9577 363.6726)" class="st6 st4">l</text>
	<text transform="matrix(1.0023 0 0 1 284.5642 363.6726)" class="st6 st4">:</text>
	<text transform="matrix(1.0023 0 0 1 288.0437 363.6726)" class="st6 st4">:</text>
	<text transform="matrix(1.0023 0 0 1 291.5232 363.6726)" class="st6 st4">_</text>
	<text transform="matrix(1.0023 0 0 1 297.5974 363.6726)" class="st6 st4">S</text>
	<text transform="matrix(1.0023 0 0 1 303.6677 363.6726)" class="st6 st4">o</text>
	<text transform="matrix(1.0023 0 0 1 308.8816 363.6726)" class="st6 st4">l</text>
	<text transform="matrix(1.0023 0 0 1 311.487 363.6726)" class="st6 st4">i</text>
	<text transform="matrix(1.0023 0 0 1 314.0925 363.6726)" class="st6 st4">d</text>
	<path class="st0" d="M449.9,340.3c1.2,0,2.2,1,2.2,2.2l0,0v29.4l0,0c0,1.2-1,2.2-2.2,2.2l0,0l0,0h-81.6l0,0c-1.2,0-2.2-1-2.2-2.2
		l0,0v-29.4c0-1.2,1-2.2,2.2-2.2l0,0H449.9L449.9,340.3L449.9,340.3z"/>
	<path class="st1" d="M447.3,337.7c1.2,0,2.2,1,2.2,2.2l0,0v29.4l0,0c0,1.2-1,2.2-2.2,2.2l0,0l0,0h-81.6l0,0c-1.2,0-2.2-1-2.2-2.2
		l0,0v-29.4c0-1.2,1-2.2,2.2-2.2l0,0H447.3L447.3,337.7L447.3,337.7z"/>
	<path class="st2" d="M447.3,337.7c1.2,0,2.2,1,2.2,2.2l0,0v29.4l0,0c0,1.2-1,2.2-2.2,2.2l0,0l0,0h-81.6l0,0c-1.2,0-2.2-1-2.2-2.2
		l0,0v-29.4c0-1.2,1-2.2,2.2-2.2l0,0H447.3L447.3,337.7L447.3,337.7z"/>
	<text transform="matrix(1.0023 0 0 1 390.4851 352.407)" class="st3 st4">«</text>
	<text transform="matrix(1.0023 0 0 1 396.5554 352.407)" class="st3 st4">T</text>
	<text transform="matrix(1.0023 0 0 1 401.7702 352.407)" class="st3 st4">y</text>
	<text transform="matrix(1.0023 0 0 1 406.9773 352.407)" class="st3 st4">p</text>
	<text transform="matrix(1.0023 0 0 1 412.1902 352.407)" class="st3 st4">e</text>
	<text transform="matrix(1.0023 0 0 1 417.3913 352.407)" class="st3 st4">»</text>
	<text transform="matrix(1.0023 0 0 1 373.9851 363.6726)" class="st5 st4">g</text>
	<text transform="matrix(1.0023 0 0 1 380.0573 363.6726)" class="st5 st4">m</text>
	<text transform="matrix(1.0023 0 0 1 388.7429 363.6726)" class="st5 st4">l</text>
	<text transform="matrix(1.0023 0 0 1 391.3484 363.6726)" class="st5 st4">:</text>
	<text transform="matrix(1.0023 0 0 1 394.8269 363.6726)" class="st5 st4">:</text>
	<text transform="matrix(1.0023 0 0 1 398.3073 363.6726)" class="st5 st4">_</text>
	<text transform="matrix(1.0023 0 0 1 404.3816 363.6726)" class="st5 st4">S</text>
	<text transform="matrix(1.0023 0 0 1 410.4519 363.6726)" class="st5 st4">u</text>
	<text transform="matrix(1.0023 0 0 1 416.5222 363.6726)" class="st5 st4">r</text>
	<text transform="matrix(1.0023 0 0 1 420.8601 363.6726)" class="st5 st4">f</text>
	<text transform="matrix(1.0023 0 0 1 424.3288 363.6726)" class="st5 st4">a</text>
	<text transform="matrix(1.0023 0 0 1 429.5456 363.6726)" class="st5 st4">c</text>
	<text transform="matrix(1.0023 0 0 1 433.8933 363.6726)" class="st5 st4">e</text>
	<path class="st0" d="M562.8,340.3c1.2,0,2.2,1,2.2,2.2l0,0v29.4l0,0c0,1.2-1,2.2-2.2,2.2l0,0l0,0h-81.6l0,0c-1.2,0-2.2-1-2.2-2.2
		l0,0v-29.4c0-1.2,1-2.2,2.2-2.2l0,0H562.8L562.8,340.3L562.8,340.3z"/>
	<path class="st1" d="M560.2,337.7c1.2,0,2.2,1,2.2,2.2l0,0v29.4l0,0c0,1.2-1,2.2-2.2,2.2l0,0l0,0h-81.6l0,0c-1.2,0-2.2-1-2.2-2.2
		l0,0v-29.4c0-1.2,1-2.2,2.2-2.2l0,0H560.2L560.2,337.7L560.2,337.7z"/>
	<path class="st2" d="M560.2,337.7c1.2,0,2.2,1,2.2,2.2l0,0v29.4l0,0c0,1.2-1,2.2-2.2,2.2l0,0l0,0h-81.6l0,0c-1.2,0-2.2-1-2.2-2.2
		l0,0v-29.4c0-1.2,1-2.2,2.2-2.2l0,0H560.2L560.2,337.7L560.2,337.7z"/>
	<text transform="matrix(1.0023 0 0 1 503.3288 352.407)" class="st3 st4">«</text>
	<text transform="matrix(1.0023 0 0 1 509.3991 352.407)" class="st3 st4">T</text>
	<text transform="matrix(1.0023 0 0 1 514.614 352.407)" class="st3 st4">y</text>
	<text transform="matrix(1.0023 0 0 1 519.821 352.407)" class="st3 st4">p</text>
	<text transform="matrix(1.0023 0 0 1 525.0319 352.407)" class="st3 st4">e</text>
	<text transform="matrix(1.0023 0 0 1 530.235 352.407)" class="st3 st4">»</text>
	<text transform="matrix(1.0023 0 0 1 491.1726 363.6726)" class="st6 st4">g</text>
	<text transform="matrix(1.0023 0 0 1 497.2429 363.6726)" class="st6 st4">m</text>
	<text transform="matrix(1.0023 0 0 1 505.9284 363.6726)" class="st6 st4">l</text>
	<text transform="matrix(1.0023 0 0 1 508.5339 363.6726)" class="st6 st4">:</text>
	<text transform="matrix(1.0023 0 0 1 512.0124 363.6726)" class="st6 st4">:</text>
	<text transform="matrix(1.0023 0 0 1 515.4929 363.6726)" class="st6 st4">_</text>
	<text transform="matrix(1.0023 0 0 1 521.5671 363.6726)" class="st6 st4">C</text>
	<text transform="matrix(1.0023 0 0 1 527.6432 363.6726)" class="st6 st4">u</text>
	<text transform="matrix(1.0023 0 0 1 533.7155 363.6726)" class="st6 st4">r</text>
	<text transform="matrix(1.0023 0 0 1 538.0515 363.6726)" class="st6 st4">v</text>
	<text transform="matrix(1.0023 0 0 1 543.2604 363.6726)" class="st6 st4">e</text>
	<path class="st0" d="M667,340.3c1.2,0,2.2,1,2.2,2.2l0,0v29.4l0,0c0,1.2-1,2.2-2.2,2.2l0,0l0,0h-81.6l0,0c-1.2,0-2.2-1-2.2-2.2l0,0
		v-29.4c0-1.2,1-2.2,2.2-2.2l0,0H667L667,340.3L667,340.3z"/>
	<path class="st1" d="M664.4,337.7c1.2,0,2.2,1,2.2,2.2l0,0v29.4l0,0c0,1.2-1,2.2-2.2,2.2l0,0l0,0h-81.6l0,0c-1.2,0-2.2-1-2.2-2.2
		l0,0v-29.4c0-1.2,1-2.2,2.2-2.2l0,0H664.4L664.4,337.7L664.4,337.7z"/>
	<path class="st2" d="M664.4,337.7c1.2,0,2.2,1,2.2,2.2l0,0v29.4l0,0c0,1.2-1,2.2-2.2,2.2l0,0l0,0h-81.6l0,0c-1.2,0-2.2-1-2.2-2.2
		l0,0v-29.4c0-1.2,1-2.2,2.2-2.2l0,0H664.4L664.4,337.7L664.4,337.7z"/>
	<text transform="matrix(1.0023 0 0 1 607.5007 352.407)" class="st3 st4">«</text>
	<text transform="matrix(1.0023 0 0 1 613.571 352.407)" class="st3 st4">T</text>
	<text transform="matrix(1.0023 0 0 1 618.7858 352.407)" class="st3 st4">y</text>
	<text transform="matrix(1.0023 0 0 1 623.9929 352.407)" class="st3 st4">p</text>
	<text transform="matrix(1.0023 0 0 1 629.2057 352.407)" class="st3 st4">e</text>
	<text transform="matrix(1.0023 0 0 1 634.4069 352.407)" class="st3 st4">»</text>
	<text transform="matrix(1.0023 0 0 1 599.6882 363.6726)" class="st5 st4">g</text>
	<text transform="matrix(1.0023 0 0 1 605.7604 363.6726)" class="st5 st4">m</text>
	<text transform="matrix(1.0023 0 0 1 614.446 363.6726)" class="st5 st4">l</text>
	<text transform="matrix(1.0023 0 0 1 617.0515 363.6726)" class="st5 st4">:</text>
	<text transform="matrix(1.0023 0 0 1 620.53 363.6726)" class="st5 st4">:</text>
	<text transform="matrix(1.0023 0 0 1 624.0104 363.6726)" class="st5 st4">P</text>
	<text transform="matrix(1.0023 0 0 1 630.0827 363.6726)" class="st5 st4">o</text>
	<text transform="matrix(1.0023 0 0 1 635.2956 363.6726)" class="st5 st4">i</text>
	<text transform="matrix(1.0023 0 0 1 637.8991 363.6726)" class="st5 st4">n</text>
	<text transform="matrix(1.0023 0 0 1 643.9694 363.6726)" class="st5 st4">t</text>
	<path class="st0" d="M424.8,28.5c1.2,0,2.2,1,2.2,2.2l0,0v64.1l0,0c0,1.2-1,2.2-2.2,2.2l0,0l0,0h-81.6l0,0c-1.2,0-2.2-1-2.2-2.2
		l0,0V30.6c0-1.2,1-2.2,2.2-2.2l0,0H424.8L424.8,28.5L424.8,28.5z"/>
	<path class="st1" d="M422.2,25.9c1.2,0,2.2,1,2.2,2.2l0,0v64.1l0,0c0,1.2-1,2.2-2.2,2.2l0,0l0,0h-81.6l0,0c-1.2,0-2.2-1-2.2-2.2
		l0,0V28c0-1.2,1-2.2,2.2-2.2l0,0L422.2,25.9L422.2,25.9L422.2,25.9z"/>
	<path class="st2" d="M422.2,25.9c1.2,0,2.2,1,2.2,2.2l0,0v64.1l0,0c0,1.2-1,2.2-2.2,2.2l0,0l0,0h-81.6l0,0c-1.2,0-2.2-1-2.2-2.2
		l0,0V28c0-1.2,1-2.2,2.2-2.2l0,0L422.2,25.9L422.2,25.9L422.2,25.9z"/>
	<text transform="matrix(1.0023 0 0 1 367.0476 39.7356)" class="st7 st8">«</text>
	<text transform="matrix(1.0023 0 0 1 372.2546 39.7356)" class="st7 st8">T</text>
	<text transform="matrix(1.0023 0 0 1 376.6023 39.7356)" class="st7 st8">y</text>
	<text transform="matrix(1.0023 0 0 1 380.9343 39.7356)" class="st7 st8">p</text>
	<text transform="matrix(1.0023 0 0 1 386.1511 39.7356)" class="st7 st8">e</text>
	<text transform="matrix(1.0023 0 0 1 391.3601 39.7356)" class="st7 st8">»</text>
	<text transform="matrix(1.0023 0 0 1 349.6726 50.9856)" class="st9 st8">g</text>
	<text transform="matrix(1.0023 0 0 1 354.8757 50.9856)" class="st9 st8">m</text>
	<text transform="matrix(1.0023 0 0 1 362.6843 50.9856)" class="st9 st8">l</text>
	<text transform="matrix(1.0023 0 0 1 365.2878 50.9856)" class="st9 st8">:</text>
	<text transform="matrix(1.0023 0 0 1 367.8933 50.9856)" class="st9 st8">:</text>
	<text transform="matrix(1.0023 0 0 1 370.4987 50.9856)" class="st9 st8">_</text>
	<text transform="matrix(1.0023 0 0 1 374.8445 50.9856)" class="st9 st8">G</text>
	<text transform="matrix(1.0023 0 0 1 380.9284 50.9856)" class="st9 st8">e</text>
	<text transform="matrix(1.0023 0 0 1 385.2761 50.9856)" class="st9 st8">o</text>
	<text transform="matrix(1.0023 0 0 1 390.4812 50.9856)" class="st9 st8">m</text>
	<text transform="matrix(1.0023 0 0 1 398.2917 50.9856)" class="st9 st8">e</text>
	<text transform="matrix(1.0023 0 0 1 402.6394 50.9856)" class="st9 st8">t</text>
	<text transform="matrix(1.0023 0 0 1 406.1023 50.9856)" class="st9 st8">r</text>
	<text transform="matrix(1.0023 0 0 1 409.5691 50.9856)" class="st9 st8">y</text>
	<line class="st10" x1="388.7" y1="295.2" x2="388.7" y2="336.8"/>
	<path class="st10" d="M388.7,336.8l-5.2-13 M388.7,336.8l5.2-13"/>
	<line class="st10" x1="200.4" y1="173.1" x2="250.7" y2="173.1"/>
	<path class="st10" d="M250.7,173.1l-13,5.2 M250.7,173.1l-13-5.2"/>
	<line class="st10" x1="329.7" y1="154.9" x2="329.7" y2="138.5"/>
	<line class="st10" x1="381.8" y1="138.5" x2="381.8" y2="96"/>
	<polyline class="st11" points="387,109.9 376.6,109.9 381.8,96 387,109.9 	"/>
	<polygon class="st10" points="387,109.9 376.6,109.9 381.8,96 	"/>
	<line class="st10" x1="523.3" y1="154.9" x2="523.3" y2="138.5"/>
	<line class="st10" x1="523.3" y1="138.5" x2="381.8" y2="138.5"/>
	<line class="st10" x1="49.3" y1="258.9" x2="49.3" y2="61.4"/>
	<line class="st10" x1="49.3" y1="61.4" x2="337.5" y2="61.4"/>
	<path class="st10" d="M337.5,61.4l-13,5.2 M337.5,61.4l-13-5.2"/>
	<line class="st10" x1="86.6" y1="258.9" x2="86.6" y2="233.7"/>
	<line class="st10" x1="86.6" y1="233.7" x2="525" y2="233.7"/>
	<line class="st10" x1="525" y1="233.7" x2="525" y2="191.3"/>
	<polyline class="st11" points="530.2,205.2 519.8,205.2 525,191.3 530.2,205.2 	"/>
	<polygon class="st10" points="530.2,205.2 519.8,205.2 525,191.3 	"/>
	<line class="st10" x1="615.3" y1="258.9" x2="615.3" y2="233.7"/>
	<line class="st10" x1="615.3" y1="233.7" x2="525" y2="233.7"/>
	<line class="st10" x1="134.4" y1="154.9" x2="134.4" y2="138.5"/>
	<line class="st10" x1="134.4" y1="138.5" x2="381.8" y2="138.5"/>
	<line class="st10" x1="398.3" y1="258.9" x2="398.3" y2="233.7"/>
	<line class="st10" x1="294.1" y1="258.9" x2="294.1" y2="233.7"/>
	<line class="st10" x1="275" y1="297.8" x2="275" y2="336.8"/>
	<path class="st10" d="M275,336.8l-5.2-13 M275,336.8l5.2-13"/>
	<line class="st10" x1="512.9" y1="258.9" x2="512.9" y2="233.7"/>
	<line class="st10" x1="498.1" y1="295.2" x2="498.1" y2="336.8"/>
	<path class="st10" d="M498.1,336.8l-5.2-13 M498.1,336.8l5.2-13"/>
	<line class="st10" x1="594.5" y1="295.2" x2="594.5" y2="336.8"/>
	<path class="st10" d="M594.5,336.8l-5.2-13 M594.5,336.8l5.2-13"/>
	<text transform="matrix(1.0023 0 0 1 393.9538 318.6418)" class="st7 st8">+</text>
	<text transform="matrix(1.0023 0 0 1 398.2995 318.6418)" class="st7 st8">s</text>
	<text transform="matrix(1.0023 0 0 1 402.6355 318.6418)" class="st7 st8">u</text>
	<text transform="matrix(1.0023 0 0 1 407.8445 318.6418)" class="st7 st8">r</text>
	<text transform="matrix(1.0023 0 0 1 411.3152 318.6418)" class="st7 st8">f</text>
	<text transform="matrix(1.0023 0 0 1 413.9245 318.6418)" class="st7 st8">a</text>
	<text transform="matrix(1.0023 0 0 1 419.1296 318.6418)" class="st7 st8">c</text>
	<text transform="matrix(1.0023 0 0 1 423.4636 318.6418)" class="st7 st8">e</text>
	<text transform="matrix(1.0023 0 0 1 428.6628 318.6418)" class="st7 st8">M</text>
	<text transform="matrix(1.0023 0 0 1 436.4812 318.6418)" class="st7 st8">e</text>
	<text transform="matrix(1.0023 0 0 1 441.6843 318.6418)" class="st7 st8">m</text>
	<text transform="matrix(1.0023 0 0 1 449.4929 318.6418)" class="st7 st8">b</text>
	<text transform="matrix(1.0023 0 0 1 454.6921 318.6418)" class="st7 st8">e</text>
	<text transform="matrix(1.0023 0 0 1 459.8913 318.6418)" class="st7 st8">r</text>
	<text transform="matrix(1.0023 0 0 1 395.6726 329.8918)" class="st7 st8">0</text>
	<text transform="matrix(1.0023 0 0 1 400.8757 329.8918)" class="st7 st8">.</text>
	<text transform="matrix(1.0023 0 0 1 403.4773 329.8918)" class="st7 st8">.</text>
	<text transform="matrix(1.0023 0 0 1 406.0788 329.8918)" class="st7 st8">*</text>
	<text transform="matrix(1.0023 0 0 1 281.9529 317.7512)" class="st7 st8">+</text>
	<text transform="matrix(1.0023 0 0 1 286.2986 317.7512)" class="st7 st8">s</text>
	<text transform="matrix(1.0023 0 0 1 290.6345 317.7512)" class="st7 st8">o</text>
	<text transform="matrix(1.0023 0 0 1 295.8425 317.7512)" class="st7 st8">l</text>
	<text transform="matrix(1.0023 0 0 1 298.4441 317.7512)" class="st7 st8">i</text>
	<text transform="matrix(1.0023 0 0 1 301.0466 317.7512)" class="st7 st8">d</text>
	<text transform="matrix(1.0023 0 0 1 306.2546 317.7512)" class="st7 st8">M</text>
	<text transform="matrix(1.0023 0 0 1 314.0749 317.7512)" class="st7 st8">e</text>
	<text transform="matrix(1.0023 0 0 1 319.2751 317.7512)" class="st7 st8">m</text>
	<text transform="matrix(1.0023 0 0 1 327.0847 317.7512)" class="st7 st8">b</text>
	<text transform="matrix(1.0023 0 0 1 332.2829 317.7512)" class="st7 st8">e</text>
	<text transform="matrix(1.0023 0 0 1 337.4831 317.7512)" class="st7 st8">r</text>
	<text transform="matrix(1.0023 0 0 1 281.9529 329.8918)" class="st7 st8">0</text>
	<text transform="matrix(1.0023 0 0 1 287.156 329.8918)" class="st7 st8">.</text>
	<text transform="matrix(1.0023 0 0 1 289.7575 329.8918)" class="st7 st8">.</text>
	<text transform="matrix(1.0023 0 0 1 292.3591 329.8918)" class="st7 st8">*</text>
	<text transform="matrix(1.0023 0 0 1 209.031 166.173)" class="st7 st8">+</text>
	<text transform="matrix(1.0023 0 0 1 213.3767 166.173)" class="st7 st8">e</text>
	<text transform="matrix(1.0023 0 0 1 218.5769 166.173)" class="st7 st8">l</text>
	<text transform="matrix(1.0023 0 0 1 221.1784 166.173)" class="st7 st8">e</text>
	<text transform="matrix(1.0023 0 0 1 226.3786 166.173)" class="st7 st8">m</text>
	<text transform="matrix(1.0023 0 0 1 234.1882 166.173)" class="st7 st8">e</text>
	<text transform="matrix(1.0023 0 0 1 239.3884 166.173)" class="st7 st8">n</text>
	<text transform="matrix(1.0023 0 0 1 244.5964 166.173)" class="st7 st8">t</text>
	<text transform="matrix(1.0023 0 0 1 233.3435 186.0949)" class="st7 st8">1</text>
	<text transform="matrix(1.0023 0 0 1 238.5466 186.0949)" class="st7 st8">.</text>
	<text transform="matrix(1.0023 0 0 1 241.1482 186.0949)" class="st7 st8">.</text>
	<text transform="matrix(1.0023 0 0 1 243.7497 186.0949)" class="st7 st8">*</text>
	<text transform="matrix(1.0023 0 0 1 599.7038 317.7512)" class="st7 st8">+</text>
	<text transform="matrix(1.0023 0 0 1 604.0495 317.7512)" class="st7 st8">p</text>
	<text transform="matrix(1.0023 0 0 1 609.2565 317.7512)" class="st7 st8">o</text>
	<text transform="matrix(1.0023 0 0 1 614.4655 317.7512)" class="st7 st8">i</text>
	<text transform="matrix(1.0023 0 0 1 617.0671 317.7512)" class="st7 st8">n</text>
	<text transform="matrix(1.0023 0 0 1 622.2741 317.7512)" class="st7 st8">t</text>
	<text transform="matrix(1.0023 0 0 1 625.7409 317.7512)" class="st7 st8">M</text>
	<text transform="matrix(1.0023 0 0 1 633.5612 317.7512)" class="st7 st8">e</text>
	<text transform="matrix(1.0023 0 0 1 638.7624 317.7512)" class="st7 st8">m</text>
	<text transform="matrix(1.0023 0 0 1 646.571 317.7512)" class="st7 st8">b</text>
	<text transform="matrix(1.0023 0 0 1 651.7702 317.7512)" class="st7 st8">e</text>
	<text transform="matrix(1.0023 0 0 1 656.9694 317.7512)" class="st7 st8">r</text>
	<text transform="matrix(1.0023 0 0 1 601.4225 329.8918)" class="st7 st8">0</text>
	<text transform="matrix(1.0023 0 0 1 606.6257 329.8918)" class="st7 st8">.</text>
	<text transform="matrix(1.0023 0 0 1 609.2272 329.8918)" class="st7 st8">.</text>
	<text transform="matrix(1.0023 0 0 1 611.8288 329.8918)" class="st7 st8">*</text>
	<text transform="matrix(1.0023 0 0 1 501.5945 317.7512)" class="st7 st8">+</text>
	<text transform="matrix(1.0023 0 0 1 505.9402 317.7512)" class="st7 st8">c</text>
	<text transform="matrix(1.0023 0 0 1 510.2741 317.7512)" class="st7 st8">u</text>
	<text transform="matrix(1.0023 0 0 1 515.4811 317.7512)" class="st7 st8">r</text>
	<text transform="matrix(1.0023 0 0 1 518.9538 317.7512)" class="st7 st8">v</text>
	<text transform="matrix(1.0023 0 0 1 523.2858 317.7512)" class="st7 st8">e</text>
	<text transform="matrix(1.0023 0 0 1 528.487 317.7512)" class="st7 st8">M</text>
	<text transform="matrix(1.0023 0 0 1 536.3073 317.7512)" class="st7 st8">e</text>
	<text transform="matrix(1.0023 0 0 1 541.5065 317.7512)" class="st7 st8">m</text>
	<text transform="matrix(1.0023 0 0 1 549.3171 317.7512)" class="st7 st8">b</text>
	<text transform="matrix(1.0023 0 0 1 554.5143 317.7512)" class="st7 st8">e</text>
	<text transform="matrix(1.0023 0 0 1 559.7155 317.7512)" class="st7 st8">r</text>
	<text transform="matrix(1.0023 0 0 1 504.1882 331.6262)" class="st7 st8">0</text>
	<text transform="matrix(1.0023 0 0 1 509.3913 331.6262)" class="st7 st8">.</text>
	<text transform="matrix(1.0023 0 0 1 511.9929 331.6262)" class="st7 st8">.</text>
	<text transform="matrix(1.0023 0 0 1 514.5944 331.6262)" class="st7 st8">*</text>
	<text transform="matrix(1.0023 0 0 1 256.781 54.4543)" class="st7 st8">+</text>
	<text transform="matrix(1.0023 0 0 1 261.1267 54.4543)" class="st7 st8">g</text>
	<text transform="matrix(1.0023 0 0 1 265.4685 54.4543)" class="st7 st8">e</text>
	<text transform="matrix(1.0023 0 0 1 270.6687 54.4543)" class="st7 st8">o</text>
	<text transform="matrix(1.0023 0 0 1 275.8757 54.4543)" class="st7 st8">m</text>
	<text transform="matrix(1.0023 0 0 1 283.6765 54.4543)" class="st7 st8">e</text>
	<text transform="matrix(1.0023 0 0 1 288.8767 54.4543)" class="st7 st8">t</text>
	<text transform="matrix(1.0023 0 0 1 292.3425 54.4543)" class="st7 st8">r</text>
	<text transform="matrix(1.0023 0 0 1 295.8142 54.4543)" class="st7 st8">y</text>
	<text transform="matrix(1.0023 0 0 1 300.1462 54.4543)" class="st7 st8">M</text>
	<text transform="matrix(1.0023 0 0 1 307.9763 54.4543)" class="st7 st8">e</text>
	<text transform="matrix(1.0023 0 0 1 313.1862 54.4543)" class="st7 st8">m</text>
	<text transform="matrix(1.0023 0 0 1 321.0056 54.4543)" class="st7 st8">b</text>
	<text transform="matrix(1.0023 0 0 1 326.2136 54.4543)" class="st7 st8">e</text>
	<text transform="matrix(1.0023 0 0 1 331.4236 54.4543)" class="st7 st8">r</text>
	<text transform="matrix(1.0023 0 0 1 320.1716 74.3762)" class="st7 st8">0</text>
	<text transform="matrix(1.0023 0 0 1 325.3747 74.3762)" class="st7 st8">.</text>
	<text transform="matrix(1.0023 0 0 1 327.9763 74.3762)" class="st7 st8">.</text>
	<text transform="matrix(1.0023 0 0 1 330.5779 74.3762)" class="st7 st8">*</text>
</g>
</svg>
