<?xml version="1.0" encoding="utf-8"?>
<!-- Generator: Adobe Illustrator 27.4.1, SVG Export Plug-In . SVG Version: 6.00 Build 0)  -->
<svg version="1.1" id="レイヤー_1" xmlns="http://www.w3.org/2000/svg" xmlns:xlink="http://www.w3.org/1999/xlink" x="0px"
	 y="0px" viewBox="0 0 649.8 453.4" style="enable-background:new 0 0 649.8 453.4;" xml:space="preserve">
<style type="text/css">
	.st0{fill-rule:evenodd;clip-rule:evenodd;fill:#CFD1D8;}
	.st1{fill-rule:evenodd;clip-rule:evenodd;fill:#FFFFFF;}
	.st2{fill:none;stroke:#000000;stroke-width:0.8662;stroke-linecap:round;stroke-linejoin:round;stroke-miterlimit:10;}
	.st3{font-family:'YuGothicUI-Bold';}
	.st4{font-size:9.9213px;}
</style>
<polygon class="st0" points="3,81 124.6,81 124.6,23.8 3,23.8 "/>
<polygon class="st0" points="3,23.8 94.2,23.8 94.2,3 3,3 "/>
<polygon class="st1" points="0.4,78.4 122,78.4 122,21.2 0.4,21.2 "/>
<polyline class="st2" points="0.4,21.2 122,21.2 122,78.4 0.4,78.4 0.4,21.2 "/>
<polygon class="st1" points="0.4,21.2 91.6,21.2 91.6,0.4 0.4,0.4 "/>
<polyline class="st2" points="0.4,0.4 91.6,0.4 91.6,21.2 0.4,21.2 0.4,0.4 "/>
<text transform="matrix(1.0023 0 0 1 4.7515 15.1652)" class="st3 st4">建築物モデル</text>
<polygon class="st0" points="3,262.9 147.1,262.9 147.1,205.7 3,205.7 "/>
<polygon class="st0" points="3,205.7 134.1,205.7 134.1,184.9 3,184.9 "/>
<polygon class="st1" points="0.4,260.3 144.5,260.3 144.5,203.1 0.4,203.1 "/>
<polyline class="st2" points="0.4,203.1 144.5,203.1 144.5,260.3 0.4,260.3 0.4,203.1 "/>
<polygon class="st1" points="0.4,203.1 131.5,203.1 131.5,182.3 0.4,182.3 "/>
<polyline class="st2" points="0.4,182.3 131.5,182.3 131.5,203.1 0.4,203.1 0.4,182.3 "/>
<text transform="matrix(1.0023 0 0 1 4.7515 197.0558)" class="st3 st4">都市計画決定情報モデル</text>
<polygon class="st0" points="3,348.6 148.9,348.6 148.9,291.5 3,291.5 "/>
<polygon class="st0" points="3,291.5 94.2,291.5 94.2,270.7 3,270.7 "/>
<polygon class="st1" points="0.4,346 146.3,346 146.3,288.9 0.4,288.9 "/>
<polyline class="st2" points="0.4,288.9 146.3,288.9 146.3,346 0.4,346 0.4,288.9 "/>
<polygon class="st1" points="0.4,288.9 91.6,288.9 91.6,268.1 0.4,268.1 "/>
<polyline class="st2" points="0.4,268.1 91.6,268.1 91.6,288.9 0.4,288.9 0.4,268.1 "/>
<text transform="matrix(1.0023 0 0 1 4.7515 282.7888)" class="st3 st4">都市設備モデル</text>
<polygon class="st0" points="506.5,358.1 628.1,358.1 628.1,301 506.5,301 "/>
<polygon class="st0" points="506.5,301 597.7,301 597.7,280.2 506.5,280.2 "/>
<polygon class="st1" points="503.9,355.6 625.5,355.6 625.5,298.4 503.9,298.4 "/>
<polyline class="st2" points="503.9,298.4 625.5,298.4 625.5,355.6 503.9,355.6 503.9,298.4 "/>
<polygon class="st1" points="503.9,298.4 595.1,298.4 595.1,277.6 503.9,277.6 "/>
<polyline class="st2" points="503.9,277.6 595.1,277.6 595.1,298.4 503.9,298.4 503.9,277.6 "/>
<text transform="matrix(1.0023 0 0 1 508.2842 292.32)" class="st3 st4">植生モデル</text>
<polygon class="st0" points="506.5,176.3 649.8,176.3 649.8,119.1 506.5,119.1 "/>
<polygon class="st0" points="506.5,119.1 597.7,119.1 597.7,98.3 506.5,98.3 "/>
<polygon class="st1" points="503.9,173.7 647.2,173.7 647.2,116.5 503.9,116.5 "/>
<polyline class="st2" points="503.9,116.5 647.2,116.5 647.2,173.7 503.9,173.7 503.9,116.5 "/>
<polygon class="st1" points="503.9,116.5 595.1,116.5 595.1,95.7 503.9,95.7 "/>
<polyline class="st2" points="503.9,95.7 595.1,95.7 595.1,116.5 503.9,116.5 503.9,95.7 "/>
<text transform="matrix(1.0023 0 0 1 508.2842 110.4308)" class="st3 st4">災害リスクモデル</text>
<polygon class="st0" points="3,453.4 124.6,453.4 124.6,396.3 3,396.3 "/>
<polygon class="st0" points="3,396.3 94.2,396.3 94.2,375.5 3,375.5 "/>
<polygon class="st1" points="0.4,450.8 122,450.8 122,393.7 0.4,393.7 "/>
<polyline class="st2" points="0.4,393.7 122,393.7 122,450.8 0.4,450.8 0.4,393.7 "/>
<polygon class="st1" points="0.4,393.7 91.6,393.7 91.6,372.9 0.4,372.9 "/>
<polyline class="st2" points="0.4,372.9 91.6,372.9 91.6,393.7 0.4,393.7 0.4,372.9 "/>
<text transform="matrix(1.0023 0 0 1 4.7515 387.6017)" class="st3 st4">地形モデル</text>
<polygon class="st0" points="185.3,81 306.9,81 306.9,23.8 185.3,23.8 "/>
<polygon class="st0" points="185.3,23.8 293.9,23.8 293.9,3 185.3,3 "/>
<polygon class="st1" points="182.7,78.4 304.3,78.4 304.3,21.2 182.7,21.2 "/>
<polyline class="st2" points="182.7,21.2 304.3,21.2 304.3,78.4 182.7,78.4 182.7,21.2 "/>
<polygon class="st1" points="182.7,21.2 291.2,21.2 291.2,0.4 182.7,0.4 "/>
<polyline class="st2" points="182.7,0.4 291.2,0.4 291.2,21.2 182.7,21.2 182.7,0.4 "/>
<text transform="matrix(1.0023 0 0 1 187.064 15.1652)" class="st3 st4">交通（道路）モデル</text>
<polygon class="st0" points="350.3,176.3 471.8,176.3 471.8,119.1 350.3,119.1 "/>
<polygon class="st0" points="350.3,119.1 441.4,119.1 441.4,98.3 350.3,98.3 "/>
<polygon class="st1" points="347.7,173.7 469.2,173.7 469.2,116.5 347.7,116.5 "/>
<polyline class="st2" points="347.7,116.5 469.2,116.5 469.2,173.7 347.7,173.7 347.7,116.5 "/>
<polygon class="st1" points="347.7,116.5 438.8,116.5 438.8,95.7 347.7,95.7 "/>
<polyline class="st2" points="347.7,95.7 438.8,95.7 438.8,116.5 347.7,116.5 347.7,95.7 "/>
<text transform="matrix(1.0023 0 0 1 352.0029 110.4308)" class="st3 st4">土地利用モデル</text>
<polygon class="st0" points="185.3,262.9 306.9,262.9 306.9,205.7 185.3,205.7 "/>
<polygon class="st0" points="185.3,205.7 276.5,205.7 276.5,184.9 185.3,184.9 "/>
<polygon class="st1" points="182.7,260.3 304.3,260.3 304.3,203.1 182.7,203.1 "/>
<polyline class="st2" points="182.7,203.1 304.3,203.1 304.3,260.3 182.7,260.3 182.7,203.1 "/>
<polygon class="st1" points="182.7,203.1 273.9,203.1 273.9,182.3 182.7,182.3 "/>
<polyline class="st2" points="182.7,182.3 273.9,182.3 273.9,203.1 182.7,203.1 182.7,182.3 "/>
<text transform="matrix(1.0023 0 0 1 187.064 197.0558)" class="st3 st4">橋梁モデル</text>
<polygon class="st0" points="350.3,262.9 471.8,262.9 471.8,205.7 350.3,205.7 "/>
<polygon class="st0" points="350.3,205.7 441.4,205.7 441.4,184.9 350.3,184.9 "/>
<polygon class="st1" points="347.7,260.3 469.2,260.3 469.2,203.1 347.7,203.1 "/>
<polyline class="st2" points="347.7,203.1 469.2,203.1 469.2,260.3 347.7,260.3 347.7,203.1 "/>
<polygon class="st1" points="347.7,203.1 438.8,203.1 438.8,182.3 347.7,182.3 "/>
<polyline class="st2" points="347.7,182.3 438.8,182.3 438.8,203.1 347.7,203.1 347.7,182.3 "/>
<text transform="matrix(1.0023 0 0 1 350.377 197.0558)" class="st3 st4">トンネルモデル</text>
<polygon class="st0" points="506.5,262.9 633.3,262.9 633.3,205.7 506.5,205.7 "/>
<polygon class="st0" points="506.5,205.7 620.3,205.7 620.3,184.9 506.5,184.9 "/>
<polygon class="st1" points="503.9,260.3 630.7,260.3 630.7,203.1 503.9,203.1 "/>
<polyline class="st2" points="503.9,203.1 630.7,203.1 630.7,260.3 503.9,260.3 503.9,203.1 "/>
<polygon class="st1" points="503.9,203.1 617.7,203.1 617.7,182.3 503.9,182.3 "/>
<polyline class="st2" points="503.9,182.3 617.7,182.3 617.7,203.1 503.9,203.1 503.9,182.3 "/>
<text transform="matrix(1.0023 0 0 1 507.8438 197.0558)" class="st3 st4">その他の構造物モデル</text>
<polygon class="st0" points="506.5,451.6 633.3,451.6 633.3,394.4 506.5,394.4 "/>
<polygon class="st0" points="506.5,394.4 620.3,394.4 620.3,373.6 506.5,373.6 "/>
<polygon class="st1" points="503.9,449 630.7,449 630.7,391.8 503.9,391.8 "/>
<polyline class="st2" points="503.9,391.8 630.7,391.8 630.7,449 503.9,449 503.9,391.8 "/>
<polygon class="st1" points="503.9,391.8 617.7,391.8 617.7,371 503.9,371 "/>
<polyline class="st2" points="503.9,371 617.7,371 617.7,391.8 503.9,391.8 503.9,371 "/>
<text transform="matrix(1.0023 0 0 1 507.8438 385.7629)" class="st3 st4">汎用都市オブジェクト</text>
<polygon class="st0" points="350.3,358.1 471.8,358.1 471.8,301 350.3,301 "/>
<polygon class="st0" points="350.3,301 441.4,301 441.4,280.2 350.3,280.2 "/>
<polygon class="st1" points="347.7,355.6 469.2,355.6 469.2,298.4 347.7,298.4 "/>
<polyline class="st2" points="347.7,298.4 469.2,298.4 469.2,355.6 347.7,355.6 347.7,298.4 "/>
<polygon class="st1" points="347.7,298.4 438.8,298.4 438.8,277.6 347.7,277.6 "/>
<polyline class="st2" points="347.7,277.6 438.8,277.6 438.8,298.4 347.7,298.4 347.7,277.6 "/>
<text transform="matrix(1.0023 0 0 1 352.0029 292.32)" class="st3 st4">地下街モデル</text>
<polygon class="st0" points="185.3,358.1 306.9,358.1 306.9,301 185.3,301 "/>
<polygon class="st0" points="185.3,301 282.6,301 282.6,280.2 185.3,280.2 "/>
<polygon class="st1" points="182.7,355.6 304.3,355.6 304.3,298.4 182.7,298.4 "/>
<polyline class="st2" points="182.7,298.4 304.3,298.4 304.3,355.6 182.7,355.6 182.7,298.4 "/>
<polygon class="st1" points="182.7,298.4 280,298.4 280,277.6 182.7,277.6 "/>
<polyline class="st2" points="182.7,277.6 280,277.6 280,298.4 182.7,298.4 182.7,277.6 "/>
<text transform="matrix(1.0023 0 0 1 187.064 292.32)" class="st3 st4">地下埋設物モデル</text>
<polygon class="st0" points="350.3,81 471.8,81 471.8,23.8 350.3,23.8 "/>
<polygon class="st0" points="350.3,23.8 458.8,23.8 458.8,3 350.3,3 "/>
<polygon class="st1" points="347.7,78.4 469.2,78.4 469.2,21.2 347.7,21.2 "/>
<polyline class="st2" points="347.7,21.2 469.2,21.2 469.2,78.4 347.7,78.4 347.7,21.2 "/>
<polygon class="st1" points="347.7,21.2 456.2,21.2 456.2,0.4 347.7,0.4 "/>
<polyline class="st2" points="347.7,0.4 456.2,0.4 456.2,21.2 347.7,21.2 347.7,0.4 "/>
<text transform="matrix(1.0023 0 0 1 352.0029 15.1652)" class="st3 st4">交通（鉄道）モデル</text>
<polygon class="st0" points="506.5,81 639.4,81 639.4,23.8 506.5,23.8 "/>
<polygon class="st0" points="506.5,23.8 626.3,23.8 626.3,3 506.5,3 "/>
<polygon class="st1" points="503.9,78.4 636.8,78.4 636.8,21.2 503.9,21.2 "/>
<polyline class="st2" points="503.9,21.2 636.8,21.2 636.8,78.4 503.9,78.4 503.9,21.2 "/>
<polygon class="st1" points="503.9,21.2 623.7,21.2 623.7,0.4 503.9,0.4 "/>
<polyline class="st2" points="503.9,0.4 623.7,0.4 623.7,21.2 503.9,21.2 503.9,0.4 "/>
<text transform="matrix(1.0023 0 0 1 508.2842 15.1652)" class="st3 st4">交通（徒歩道）モデル</text>
<polygon class="st0" points="3,176.3 124.6,176.3 124.6,119.1 3,119.1 "/>
<polygon class="st0" points="3,119.1 111.6,119.1 111.6,98.3 3,98.3 "/>
<polygon class="st1" points="0.4,173.7 122,173.7 122,116.5 0.4,116.5 "/>
<polyline class="st2" points="0.4,116.5 122,116.5 122,173.7 0.4,173.7 0.4,116.5 "/>
<polygon class="st1" points="0.4,116.5 108.9,116.5 108.9,95.7 0.4,95.7 "/>
<polyline class="st2" points="0.4,95.7 108.9,95.7 108.9,116.5 0.4,116.5 0.4,95.7 "/>
<text transform="matrix(1.0023 0 0 1 4.7515 110.4308)" class="st3 st4">交通（広場）モデル</text>
<polygon class="st0" points="185.3,176.3 306.9,176.3 306.9,119.1 185.3,119.1 "/>
<polygon class="st0" points="185.3,119.1 293.9,119.1 293.9,98.3 185.3,98.3 "/>
<polygon class="st1" points="182.7,173.7 304.3,173.7 304.3,116.5 182.7,116.5 "/>
<polyline class="st2" points="182.7,116.5 304.3,116.5 304.3,173.7 182.7,173.7 182.7,116.5 "/>
<polygon class="st1" points="182.7,116.5 291.2,116.5 291.2,95.7 182.7,95.7 "/>
<polyline class="st2" points="182.7,95.7 291.2,95.7 291.2,116.5 182.7,116.5 182.7,95.7 "/>
<text transform="matrix(1.0023 0 0 1 187.064 110.4308)" class="st3 st4">交通（航路）モデル</text>
<polygon class="st0" points="185.3,453.4 306.9,453.4 306.9,396.3 185.3,396.3 "/>
<polygon class="st0" points="185.3,396.3 276.5,396.3 276.5,375.5 185.3,375.5 "/>
<polygon class="st1" points="182.7,450.8 304.3,450.8 304.3,393.7 182.7,393.7 "/>
<polyline class="st2" points="182.7,393.7 304.3,393.7 304.3,450.8 182.7,450.8 182.7,393.7 "/>
<polygon class="st1" points="182.7,393.7 273.9,393.7 273.9,372.9 182.7,372.9 "/>
<polyline class="st2" points="182.7,372.9 273.9,372.9 273.9,393.7 182.7,393.7 182.7,372.9 "/>
<text transform="matrix(1.0023 0 0 1 187.064 387.6017)" class="st3 st4">水部モデル</text>
<polygon class="st0" points="350.3,453.4 471.8,453.4 471.8,396.3 350.3,396.3 "/>
<polygon class="st0" points="350.3,396.3 441.4,396.3 441.4,375.5 350.3,375.5 "/>
<polygon class="st1" points="347.7,450.8 469.2,450.8 469.2,393.7 347.7,393.7 "/>
<polyline class="st2" points="347.7,393.7 469.2,393.7 469.2,450.8 347.7,450.8 347.7,393.7 "/>
<polygon class="st1" points="347.7,393.7 438.8,393.7 438.8,372.9 347.7,372.9 "/>
<polyline class="st2" points="347.7,372.9 438.8,372.9 438.8,393.7 347.7,393.7 347.7,372.9 "/>
<text transform="matrix(1.0023 0 0 1 352.0029 387.6017)" class="st3 st4">区域モデル</text>
</svg>
