<?xml version="1.0" encoding="utf-8"?>
<!-- Generator: Adobe Illustrator 27.0.0, SVG Export Plug-In . SVG Version: 6.00 Build 0)  -->
<svg version="1.1" id="レイヤー_1" xmlns="http://www.w3.org/2000/svg" xmlns:xlink="http://www.w3.org/1999/xlink" x="0px"
	 y="0px" viewBox="0 0 813.1989136 960.8822632" style="enable-background:new 0 0 813.1989136 960.8822632;" xml:space="preserve">
<style type="text/css">
	.st0{fill-rule:evenodd;clip-rule:evenodd;fill:#FFCCFF;}
	.st1{fill:none;stroke:#000000;stroke-width:1.0285715;stroke-linecap:round;stroke-linejoin:bevel;stroke-miterlimit:10;}
	.st2{font-family:'YuGothicUI-Regular';}
	.st3{font-size:6.6857147px;}
	.st4{font-family:'YuGothicUI-Bold';}
	.st5{font-size:7.0386257px;}
	.st6{fill:none;stroke:#000000;stroke-width:0.1910204;stroke-miterlimit:10;}
	.st7{fill-rule:evenodd;clip-rule:evenodd;fill:#F0F0F0;}
	.st8{fill:none;stroke:#D7D7D7;stroke-width:0.5142857;stroke-linecap:square;stroke-miterlimit:10;}
	.st9{fill-rule:evenodd;clip-rule:evenodd;fill:#A0FFC0;}
	.st10{fill:none;stroke:#000000;stroke-width:0.5142857;stroke-linecap:square;stroke-miterlimit:10;}
	.st11{fill:#003060;}
	.st12{fill-rule:evenodd;clip-rule:evenodd;fill:#FFFFCC;}
	.st13{font-size:8.2285719px;}
	.st14{font-size:6.1714287px;}
	.st15{fill-rule:evenodd;clip-rule:evenodd;}
	.st16{fill-rule:evenodd;clip-rule:evenodd;fill:#FFFFFF;}
</style>
<polygon class="st0" points="351.1442871,754.9290771 442.561615,754.9290771 442.561615,718.9290771 351.1442871,718.9290771 "/>
<polygon class="st1" points="351.1442871,754.9290771 442.561615,754.9290771 442.561615,718.9290771 351.1442871,718.9290771 "/>
<text transform="matrix(0.85 0 0 1 379.0712891 729.2113037)" class="st2 st3">«DataType»</text>
<text transform="matrix(0.85 0 0 1 355.2119141 737.9534912)" class="st4 st3">uro::LandSlideRiskAttribute</text>
<line class="st1" x1="351.1442871" y1="742.0718994" x2="442.0537415" y2="742.0718994"/>
<text transform="matrix(0.85 0 0 1 353.6806641 751.3284912)" class="st2 st3">+</text>
<text transform="matrix(0.85 0 0 1 358.25 751.3284912)" class="st2 st3"> </text>
<text transform="matrix(0.85 0 0 1 364.8525391 751.3284912)" class="st2 st3">areaType: gml::CodeType</text>
<polygon class="st0" points="304.4198608,656.1861572 401.4238281,656.1861572 401.4238281,617.6147461 304.4198608,617.6147461 "/>
<polygon class="st1" points="304.4198608,656.1861572 401.4238281,656.1861572 401.4238281,617.6147461 304.4198608,617.6147461 "/>
<text transform="matrix(0.85 0 0 1 335.3994141 627.8909912)" class="st2 st3">«DataType»</text>
<text transform="matrix(0.85 0 -0.3126727 0.9498609 313.5714417 636.6503296)" class="st2 st5">u</text>
<text transform="matrix(0.85 0 -0.3126727 0.9498609 313.5714417 636.6503296)" class="st6 st2 st5">u</text>
<text transform="matrix(0.85 0 -0.3126727 0.9498609 317.631012 636.6503296)" class="st2 st5">r</text>
<text transform="matrix(0.85 0 -0.3126727 0.9498609 317.631012 636.6503296)" class="st6 st2 st5">r</text>
<text transform="matrix(0.85 0 -0.3126727 0.9498609 320.1642151 636.6503296)" class="st2 st5">o</text>
<text transform="matrix(0.85 0 -0.3126727 0.9498609 320.1642151 636.6503296)" class="st6 st2 st5">o</text>
<text transform="matrix(0.85 0 -0.3126727 0.9498609 324.224762 636.6503296)" class="st2 st5">::</text>
<text transform="matrix(0.85 0 -0.3126727 0.9498609 324.224762 636.6503296)" class="st6 st2 st5">::</text>
<text transform="matrix(0.85 0 -0.3126727 0.9498609 327.2589417 636.6503296)" class="st2 st5">D</text>
<text transform="matrix(0.85 0 -0.3126727 0.9498609 327.2589417 636.6503296)" class="st6 st2 st5">D</text>
<text transform="matrix(0.85 0 -0.3126727 0.9498609 331.8351135 636.6503296)" class="st2 st5">i</text>
<text transform="matrix(0.85 0 -0.3126727 0.9498609 331.8351135 636.6503296)" class="st6 st2 st5">i</text>
<text transform="matrix(0.85 0 -0.3126727 0.9498609 333.3614807 636.6503296)" class="st2 st5">s</text>
<text transform="matrix(0.85 0 -0.3126727 0.9498609 333.3614807 636.6503296)" class="st6 st2 st5">s</text>
<text transform="matrix(0.85 0 -0.3126727 0.9498609 336.4073792 636.6503296)" class="st2 st5">a</text>
<text transform="matrix(0.85 0 -0.3126727 0.9498609 336.4073792 636.6503296)" class="st6 st2 st5">a</text>
<text transform="matrix(0.85 0 -0.3126727 0.9498609 339.9581604 636.6503296)" class="st2 st5">s</text>
<text transform="matrix(0.85 0 -0.3126727 0.9498609 339.9581604 636.6503296)" class="st6 st2 st5">s</text>
<text transform="matrix(0.85 0 -0.3126727 0.9498609 343.0040588 636.6503296)" class="st2 st5">t</text>
<text transform="matrix(0.85 0 -0.3126727 0.9498609 343.0040588 636.6503296)" class="st6 st2 st5">t</text>
<text transform="matrix(0.85 0 -0.3126727 0.9498609 345.5382385 636.6503296)" class="st2 st5">e</text>
<text transform="matrix(0.85 0 -0.3126727 0.9498609 345.5382385 636.6503296)" class="st6 st2 st5">e</text>
<text transform="matrix(0.85 0 -0.3126727 0.9498609 349.0899963 636.6503296)" class="st2 st5">r</text>
<text transform="matrix(0.85 0 -0.3126727 0.9498609 349.0899963 636.6503296)" class="st6 st2 st5">r</text>
<text transform="matrix(0.85 0 -0.3126727 0.9498609 351.6231995 636.6503296)" class="st2 st5">R</text>
<text transform="matrix(0.85 0 -0.3126727 0.9498609 351.6231995 636.6503296)" class="st6 st2 st5">R</text>
<text transform="matrix(0.85 0 -0.3126727 0.9498609 355.6847229 636.6503296)" class="st2 st5">i</text>
<text transform="matrix(0.85 0 -0.3126727 0.9498609 355.6847229 636.6503296)" class="st6 st2 st5">i</text>
<text transform="matrix(0.85 0 -0.3126727 0.9498609 357.2110901 636.6503296)" class="st2 st5">s</text>
<text transform="matrix(0.85 0 -0.3126727 0.9498609 357.2110901 636.6503296)" class="st6 st2 st5">s</text>
<text transform="matrix(0.85 0 -0.3126727 0.9498609 360.2569885 636.6503296)" class="st2 st5">k</text>
<text transform="matrix(0.85 0 -0.3126727 0.9498609 360.2569885 636.6503296)" class="st6 st2 st5">k</text>
<text transform="matrix(0.85 0 -0.3126727 0.9498609 363.8087463 636.6503296)" class="st2 st5">A</text>
<text transform="matrix(0.85 0 -0.3126727 0.9498609 363.8087463 636.6503296)" class="st6 st2 st5">A</text>
<text transform="matrix(0.85 0 -0.3126727 0.9498609 368.3780823 636.6503296)" class="st2 st5">tt</text>
<text transform="matrix(0.85 0 -0.3126727 0.9498609 368.3780823 636.6503296)" class="st6 st2 st5">tt</text>
<text transform="matrix(0.85 0 -0.3126727 0.9498609 373.4474182 636.6503296)" class="st2 st5">r</text>
<text transform="matrix(0.85 0 -0.3126727 0.9498609 373.4474182 636.6503296)" class="st6 st2 st5">r</text>
<text transform="matrix(0.85 0 -0.3126727 0.9498609 375.9796448 636.6503296)" class="st2 st5">i</text>
<text transform="matrix(0.85 0 -0.3126727 0.9498609 375.9796448 636.6503296)" class="st6 st2 st5">i</text>
<text transform="matrix(0.85 0 -0.3126727 0.9498609 377.506012 636.6503296)" class="st2 st5">b</text>
<text transform="matrix(0.85 0 -0.3126727 0.9498609 377.506012 636.6503296)" class="st6 st2 st5">b</text>
<text transform="matrix(0.85 0 -0.3126727 0.9498609 381.5665588 636.6503296)" class="st2 st5">u</text>
<text transform="matrix(0.85 0 -0.3126727 0.9498609 381.5665588 636.6503296)" class="st6 st2 st5">u</text>
<text transform="matrix(0.85 0 -0.3126727 0.9498609 385.6261292 636.6503296)" class="st2 st5">t</text>
<text transform="matrix(0.85 0 -0.3126727 0.9498609 385.6261292 636.6503296)" class="st6 st2 st5">t</text>
<text transform="matrix(0.85 0 -0.3126727 0.9498609 388.1603088 636.6503296)" class="st2 st5">e</text>
<text transform="matrix(0.85 0 -0.3126727 0.9498609 388.1603088 636.6503296)" class="st6 st2 st5">e</text>
<line class="st1" x1="304.4198608" y1="640.7576904" x2="400.9159546" y2="640.7576904"/>
<text transform="matrix(0.85 0 0 1 306.9541016 650.0159912)" class="st2 st3">+</text>
<text transform="matrix(0.85 0 0 1 311.5234375 650.0159912)" class="st2 st3"> </text>
<text transform="matrix(0.85 0 0 1 318.1259766 650.0159912)" class="st2 st3">description: gml::CodeType</text>
<polygon class="st0" points="227.2230072,772.9290771 331.8450623,772.9290771 331.8450623,718.9290771 227.2230072,718.9290771 "/>
<polygon class="st1" points="227.2230072,772.9290771 331.8450623,772.9290771 331.8450623,718.9290771 227.2230072,718.9290771 "/>
<text transform="matrix(0.85 0 0 1 261.7583008 729.2113037)" class="st2 st3">«DataType»</text>
<text transform="matrix(0.85 0 -0.3126727 0.9498609 238.9094696 737.9589233)" class="st2 st5">u</text>
<text transform="matrix(0.85 0 -0.3126727 0.9498609 238.9094696 737.9589233)" class="st6 st2 st5">u</text>
<text transform="matrix(0.85 0 -0.3126727 0.9498609 242.9700165 737.9589233)" class="st2 st5">r</text>
<text transform="matrix(0.85 0 -0.3126727 0.9498609 242.9700165 737.9589233)" class="st6 st2 st5">r</text>
<text transform="matrix(0.85 0 -0.3126727 0.9498609 245.5032196 737.9589233)" class="st2 st5">o</text>
<text transform="matrix(0.85 0 -0.3126727 0.9498609 245.5032196 737.9589233)" class="st6 st2 st5">o</text>
<text transform="matrix(0.85 0 -0.3126727 0.9498609 249.5637665 737.9589233)" class="st2 st5">::</text>
<text transform="matrix(0.85 0 -0.3126727 0.9498609 249.5637665 737.9589233)" class="st6 st2 st5">::</text>
<text transform="matrix(0.85 0 -0.3126727 0.9498609 252.5969696 737.9589233)" class="st2 st5">F</text>
<text transform="matrix(0.85 0 -0.3126727 0.9498609 252.5969696 737.9589233)" class="st6 st2 st5">F</text>
<text transform="matrix(0.85 0 -0.3126727 0.9498609 256.1516724 737.9589233)" class="st2 st5">l</text>
<text transform="matrix(0.85 0 -0.3126727 0.9498609 256.1516724 737.9589233)" class="st6 st2 st5">l</text>
<text transform="matrix(0.85 0 -0.3126727 0.9498609 257.677063 737.9589233)" class="st2 st5">oo</text>
<text transform="matrix(0.85 0 -0.3126727 0.9498609 257.677063 737.9589233)" class="st6 st2 st5">oo</text>
<text transform="matrix(0.85 0 -0.3126727 0.9498609 265.7981567 737.9589233)" class="st2 st5">d</text>
<text transform="matrix(0.85 0 -0.3126727 0.9498609 265.7981567 737.9589233)" class="st6 st2 st5">d</text>
<text transform="matrix(0.85 0 -0.3126727 0.9498609 269.8567505 737.9589233)" class="st2 st5">i</text>
<text transform="matrix(0.85 0 -0.3126727 0.9498609 269.8567505 737.9589233)" class="st6 st2 st5">i</text>
<text transform="matrix(0.85 0 -0.3126727 0.9498609 271.3840942 737.9589233)" class="st2 st5">n</text>
<text transform="matrix(0.85 0 -0.3126727 0.9498609 271.3840942 737.9589233)" class="st6 st2 st5">n</text>
<text transform="matrix(0.85 0 -0.3126727 0.9498609 275.442688 737.9589233)" class="st2 st5">g</text>
<text transform="matrix(0.85 0 -0.3126727 0.9498609 275.442688 737.9589233)" class="st6 st2 st5">g</text>
<text transform="matrix(0.85 0 -0.3126727 0.9498609 279.5032349 737.9589233)" class="st2 st5">R</text>
<text transform="matrix(0.85 0 -0.3126727 0.9498609 279.5032349 737.9589233)" class="st6 st2 st5">R</text>
<text transform="matrix(0.85 0 -0.3126727 0.9498609 283.5637817 737.9589233)" class="st2 st5">i</text>
<text transform="matrix(0.85 0 -0.3126727 0.9498609 283.5637817 737.9589233)" class="st6 st2 st5">i</text>
<text transform="matrix(0.85 0 -0.3126727 0.9498609 285.0911255 737.9589233)" class="st2 st5">s</text>
<text transform="matrix(0.85 0 -0.3126727 0.9498609 285.0911255 737.9589233)" class="st6 st2 st5">s</text>
<text transform="matrix(0.85 0 -0.3126727 0.9498609 288.1360474 737.9589233)" class="st2 st5">k</text>
<text transform="matrix(0.85 0 -0.3126727 0.9498609 288.1360474 737.9589233)" class="st6 st2 st5">k</text>
<text transform="matrix(0.85 0 -0.3126727 0.9498609 291.6887817 737.9589233)" class="st2 st5">A</text>
<text transform="matrix(0.85 0 -0.3126727 0.9498609 291.6887817 737.9589233)" class="st6 st2 st5">A</text>
<text transform="matrix(0.85 0 -0.3126727 0.9498609 296.2590942 737.9589233)" class="st2 st5">tt</text>
<text transform="matrix(0.85 0 -0.3126727 0.9498609 296.2590942 737.9589233)" class="st6 st2 st5">tt</text>
<text transform="matrix(0.85 0 -0.3126727 0.9498609 301.3274536 737.9589233)" class="st2 st5">r</text>
<text transform="matrix(0.85 0 -0.3126727 0.9498609 301.3274536 737.9589233)" class="st6 st2 st5">r</text>
<text transform="matrix(0.85 0 -0.3126727 0.9498609 303.8606567 737.9589233)" class="st2 st5">i</text>
<text transform="matrix(0.85 0 -0.3126727 0.9498609 303.8606567 737.9589233)" class="st6 st2 st5">i</text>
<text transform="matrix(0.85 0 -0.3126727 0.9498609 305.3860474 737.9589233)" class="st2 st5">b</text>
<text transform="matrix(0.85 0 -0.3126727 0.9498609 305.3860474 737.9589233)" class="st6 st2 st5">b</text>
<text transform="matrix(0.85 0 -0.3126727 0.9498609 309.4465942 737.9589233)" class="st2 st5">u</text>
<text transform="matrix(0.85 0 -0.3126727 0.9498609 309.4465942 737.9589233)" class="st6 st2 st5">u</text>
<text transform="matrix(0.85 0 -0.3126727 0.9498609 313.505188 737.9589233)" class="st2 st5">t</text>
<text transform="matrix(0.85 0 -0.3126727 0.9498609 313.505188 737.9589233)" class="st6 st2 st5">t</text>
<text transform="matrix(0.85 0 -0.3126727 0.9498609 316.0403442 737.9589233)" class="st2 st5">e</text>
<text transform="matrix(0.85 0 -0.3126727 0.9498609 316.0403442 737.9589233)" class="st6 st2 st5">e</text>
<line class="st1" x1="227.2230072" y1="742.0718994" x2="331.3371887" y2="742.0718994"/>
<text transform="matrix(0.85 0 0 1 229.7583008 751.3284912)" class="st2 st3">+</text>
<text transform="matrix(0.85 0 0 1 234.3276367 751.3284912)" class="st2 st3"> </text>
<text transform="matrix(0.85 0 0 1 240.9379883 751.3284912)" class="st2 st3">rank: gml::CodeType [0..1]</text>
<text transform="matrix(0.85 0 0 1 229.7583008 760.0706787)" class="st2 st3">+</text>
<text transform="matrix(0.85 0 0 1 234.3276367 760.0706787)" class="st2 st3"> </text>
<text transform="matrix(0.85 0 0 1 240.9379883 760.0706787)" class="st2 st3">rankOrg: gml::CodeType [0..1]</text>
<text transform="matrix(0.85 0 0 1 229.7583008 768.8128662)" class="st2 st3">+</text>
<text transform="matrix(0.85 0 0 1 234.3276367 768.8128662)" class="st2 st3"> </text>
<text transform="matrix(0.85 0 0 1 240.9379883 768.8128662)" class="st2 st3">depth: gml::LengthType [0..1]</text>
<polygon class="st0" points="107.3647156,878.8718872 222.6521301,878.8718872 222.6521301,824.8719482 107.3647156,824.8719482 "/>
<polygon class="st1" points="107.3647156,878.8718872 222.6521301,878.8718872 222.6521301,824.8719482 107.3647156,824.8719482 "/>
<text transform="matrix(0.85 0 0 1 147.4848633 835.1566162)" class="st2 st3">«DataType»</text>
<text transform="matrix(0.85 0 0 1 117.0161133 843.8988037)" class="st4 st3">uro::RiverFloodingRiskAttribute</text>
<line class="st1" x1="107.3647156" y1="848.0147705" x2="222.1442566" y2="848.0147705"/>
<text transform="matrix(0.85 0 0 1 109.9067383 857.2659912)" class="st2 st3">+</text>
<text transform="matrix(0.85 0 0 1 114.4760742 857.2659912)" class="st2 st3"> </text>
<text transform="matrix(0.85 0 0 1 121.0786133 857.2659912)" class="st2 st3">adminType: gml::CodeType</text>
<text transform="matrix(0.85 0 0 1 109.9067383 866.0081787)" class="st2 st3">+</text>
<text transform="matrix(0.85 0 0 1 114.4760742 866.0081787)" class="st2 st3"> </text>
<text transform="matrix(0.85 0 0 1 121.0786133 866.0081787)" class="st2 st3">scale: gml::CodeType</text>
<text transform="matrix(0.85 0 0 1 109.9067383 874.7503662)" class="st2 st3">+</text>
<text transform="matrix(0.85 0 0 1 114.4760742 874.7503662)" class="st2 st3"> </text>
<text transform="matrix(0.85 0 0 1 121.0786133 874.7503662)" class="st2 st3">duration: gml::MeasureType [0..1]</text>
<polygon class="st0" points="192.1796875,946.7575684 290.7072754,946.7575684 290.7072754,907.671875 192.1796875,907.671875 "/>
<polygon class="st1" points="192.1796875,946.7575684 290.7072754,946.7575684 290.7072754,907.671875 192.1796875,907.671875 "/>
<text transform="matrix(0.85 0 0 1 223.6645508 917.9534912)" class="st2 st3">«DataType»</text>
<text transform="matrix(0.85 0 0 1 201.3208008 926.7034912)" class="st4 st3">uro::TsunamiRiskAttribute</text>
<polygon class="st0" points="308.9907532,928.7575684 425.8017883,928.7575684 425.8017883,889.1576538 308.9907532,889.1576538 "/>
<polygon class="st1" points="308.9907532,928.7575684 425.8017883,928.7575684 425.8017883,889.1576538 308.9907532,889.1576538 "/>
<text transform="matrix(0.85 0 0 1 349.6181641 899.4378662)" class="st2 st3">«DataType»</text>
<text transform="matrix(0.85 0 0 1 317.1103516 908.1878662)" class="st4 st3">uro::InlandFloodingRiskAttribute</text>
<polygon class="st0" points="640.1246338,727.671875 794.5183105,727.671875 794.5183105,607.8433838 640.1246338,607.8433838 "/>
<polygon class="st1" points="640.1246338,727.671875 794.5183105,727.671875 794.5183105,607.8433838 640.1246338,607.8433838 "/>
<text transform="matrix(0.85 0 0 1 699.5400391 618.1253662)" class="st2 st3">«DataType»</text>
<text transform="matrix(0.85 0 0 1 659.9306641 626.8675537)" class="st4 st3">uro::PublicSuveyDataQualityAttribute</text>
<line class="st1" x1="640.1246338" y1="630.9862061" x2="794.010437" y2="630.9862061"/>
<text transform="matrix(0.85 0 0 1 642.6572266 640.2347412)" class="st2 st3">+</text>
<text transform="matrix(0.85 0 0 1 647.2265625 640.2347412)" class="st2 st3"> </text>
<text transform="matrix(0.85 0 0 1 653.8369141 640.2347412)" class="st2 st3">srcScaleLod0: gml::CodeType [0..1]</text>
<text transform="matrix(0.85 0 0 1 642.6572266 648.9847412)" class="st2 st3">+</text>
<text transform="matrix(0.85 0 0 1 647.2265625 648.9847412)" class="st2 st3"> </text>
<text transform="matrix(0.85 0 0 1 653.8369141 648.9847412)" class="st2 st3">srcScaleLod1: gml::CodeType [0..1]</text>
<text transform="matrix(0.85 0 0 1 642.6572266 657.7269287)" class="st2 st3">+</text>
<text transform="matrix(0.85 0 0 1 647.2265625 657.7269287)" class="st2 st3"> </text>
<text transform="matrix(0.85 0 0 1 653.8369141 657.7269287)" class="st2 st3">srcScaleLod2: gml::CodeType [0..1]</text>
<text transform="matrix(0.85 0 0 1 642.6572266 666.4691162)" class="st2 st3">+</text>
<text transform="matrix(0.85 0 0 1 647.2265625 666.4691162)" class="st2 st3"> </text>
<text transform="matrix(0.85 0 0 1 653.8369141 666.4691162)" class="st2 st3">srcScaleLod3: gml::CodeType [0..1]</text>
<text transform="matrix(0.85 0 0 1 642.6572266 675.2113037)" class="st2 st3">+</text>
<text transform="matrix(0.85 0 0 1 647.2265625 675.2113037)" class="st2 st3"> </text>
<text transform="matrix(0.85 0 0 1 653.8369141 675.2113037)" class="st2 st3">srcScaleLod4: gml::CodeType [0..1]</text>
<text transform="matrix(0.85 0 0 1 642.6572266 683.9534912)" class="st2 st3">+</text>
<text transform="matrix(0.85 0 0 1 647.2265625 683.9534912)" class="st2 st3"> </text>
<text transform="matrix(0.85 0 0 1 653.8369141 683.9534912)" class="st2 st3">publicSurveySrcDescLod0: gml::CodeType [0..*]</text>
<text transform="matrix(0.85 0 0 1 642.6572266 692.7034912)" class="st2 st3">+</text>
<text transform="matrix(0.85 0 0 1 647.2265625 692.7034912)" class="st2 st3"> </text>
<text transform="matrix(0.85 0 0 1 653.8369141 692.7034912)" class="st2 st3">publicSurveySrcDescLod1: gml::CodeType [0..*]</text>
<text transform="matrix(0.85 0 0 1 642.6572266 701.4378662)" class="st2 st3">+</text>
<text transform="matrix(0.85 0 0 1 647.2265625 701.4378662)" class="st2 st3"> </text>
<text transform="matrix(0.85 0 0 1 653.8369141 701.4378662)" class="st2 st3">publicSurveySrcDescLod2: gml::CodeType [0..*]</text>
<text transform="matrix(0.85 0 0 1 642.6572266 710.1800537)" class="st2 st3">+</text>
<text transform="matrix(0.85 0 0 1 647.2265625 710.1800537)" class="st2 st3"> </text>
<text transform="matrix(0.85 0 0 1 653.8369141 710.1800537)" class="st2 st3">publicSurveySrcDescLod3: gml::CodeType [0..*]</text>
<text transform="matrix(0.85 0 0 1 642.6572266 718.9300537)" class="st2 st3">+</text>
<text transform="matrix(0.85 0 0 1 647.2265625 718.9300537)" class="st2 st3"> </text>
<text transform="matrix(0.85 0 0 1 653.8369141 718.9300537)" class="st2 st3">publicSurveySrcDescLod4: gml::CodeType [0..*]</text>
<polygon class="st0" points="393.2978516,859.3290405 512.6482544,859.3290405 512.6482544,823.3289795 393.2978516,823.3289795 "/>
<polygon class="st1" points="393.2978516,859.3290405 512.6482544,859.3290405 512.6482544,823.3289795 393.2978516,823.3289795 "/>
<text transform="matrix(0.85 0 0 1 435.4541016 833.6175537)" class="st2 st3">«DataType»</text>
<text transform="matrix(0.85 0 0 1 398.3681641 842.3597412)" class="st4 st3">uro::ReservoirFloodingRiskAttribute</text>
<polygon class="st0" points="262.7742004,859.3290405 361.3017578,859.3290405 361.3017578,819.2147217 262.7742004,819.2147217 "/>
<polygon class="st1" points="262.7742004,859.3290405 361.3017578,859.3290405 361.3017578,819.2147217 262.7742004,819.2147217 "/>
<text transform="matrix(0.85 0 0 1 294.2583008 829.5003662)" class="st2 st3">«DataType»</text>
<text transform="matrix(0.85 0 0 1 271.4067383 838.2503662)" class="st4 st3">uro::HighTideRiskAttribute</text>
<path class="st7" d="M166.7859802,72.4719009c0.8414612,0,1.5236206,0.6906738,1.5236206,1.5428467h0.0000153v45.2570801h-0.0000153
	c0,0.8520508-0.6821594,1.5428467-1.5236359,1.5428467l0,0h0.0000153H75.8765259h-0.0000076
	c-0.8414688,0-1.5236206-0.6907959-1.5236206-1.5428467h0.0000076V74.0147476c0-0.8521729,0.6821442-1.5429688,1.5236206-1.5428467
	v-0.0001221h90.9094543V72.4719009L166.7859802,72.4719009z"/>
<path class="st8" d="M166.7859802,72.4719009c0.8414612,0,1.5236206,0.6906738,1.5236206,1.5428467h0.0000153v45.2570801h-0.0000153
	c0,0.8520508-0.6821594,1.5428467-1.5236359,1.5428467l0,0h0.0000153H75.8765259h-0.0000076
	c-0.8414688,0-1.5236206-0.6907959-1.5236206-1.5428467h0.0000076V74.0147476c0-0.8521729,0.6821442-1.5429688,1.5236206-1.5428467
	v-0.0001221h90.9094543V72.4719009L166.7859802,72.4719009z"/>
<polygon class="st9" points="79.4316559,96.6432877 88.065506,96.6432877 88.065506,87.9003677 79.4316559,87.9003677 "/>
<polygon class="st10" points="79.4316559,96.6432877 88.065506,96.6432877 88.065506,87.9003677 79.4316559,87.9003677 "/>
<text transform="matrix(0.85 0 0 1 90.6020508 95.1024017)" class="st11 st2 st3">GMLで定義されたクラス</text>
<polygon class="st12" points="79.4316559,106.41465 88.065506,106.41465 88.065506,97.6718521 79.4316559,97.6718521 "/>
<polygon class="st10" points="79.4316559,106.41465 88.065506,106.41465 88.065506,97.6718521 79.4316559,97.6718521 "/>
<text transform="matrix(0.85 0 0 1 90.6020508 104.8680267)" class="st11 st2 st3">CityGMLで定義されたクラス</text>
<polygon class="st0" points="79.4316559,116.1861343 88.065506,116.1861343 88.065506,107.4432144 79.4316559,107.4432144 "/>
<polygon class="st10" points="79.4316559,116.1861343 88.065506,116.1861343 88.065506,107.4432144 79.4316559,107.4432144 "/>
<text transform="matrix(0.85 0 0 1 90.6020508 114.6414642)" class="st11 st2 st3">i-URで定義されたクラス</text>
<text transform="matrix(0.85 0 0 1 115.4926758 85.5350189)" class="st11 st4 st13">凡例</text>
<polygon class="st0" points="150.5340118,607.8433838 326.2584534,607.8433838 326.2584534,232.4146423 150.5340118,232.4146423 "/>
<polygon class="st1" points="150.5340118,607.8433838 326.2584534,607.8433838 326.2584534,232.4146423 150.5340118,232.4146423 "/>
<text transform="matrix(0.85 0 0 1 220.6176758 242.7039642)" class="st2 st3">«DataType»</text>
<text transform="matrix(0.85 0 0 1 196.2426758 251.4383392)" class="st4 st3">uro::BuildingDetailAttribute</text>
<line class="st1" x1="150.5340118" y1="255.5575867" x2="325.7505798" y2="255.5575867"/>
<text transform="matrix(0.85 0 0 1 153.0708008 264.8133545)" class="st2 st3">+</text>
<text transform="matrix(0.85 0 0 1 157.6401367 264.8133545)" class="st2 st3"> </text>
<text transform="matrix(0.85 0 0 1 164.2426758 264.8133545)" class="st2 st3">serialNumberOfBuildingCertification: xs::string [0..1]</text>
<text transform="matrix(0.85 0 0 1 153.0708008 273.5633545)" class="st2 st3">+</text>
<text transform="matrix(0.85 0 0 1 157.6401367 273.5633545)" class="st2 st3"> </text>
<text transform="matrix(0.85 0 0 1 164.2426758 273.5633545)" class="st2 st3">siteArea: gml::MeasureType [0..1]</text>
<text transform="matrix(0.85 0 0 1 153.0708008 282.2977295)" class="st2 st3">+</text>
<text transform="matrix(0.85 0 0 1 157.6401367 282.2977295)" class="st2 st3"> </text>
<text transform="matrix(0.85 0 0 1 164.2426758 282.2977295)" class="st2 st3">totalFloorArea: gml:MeasureType [0..1]</text>
<text transform="matrix(0.85 0 0 1 153.0708008 291.039917)" class="st2 st3">+</text>
<text transform="matrix(0.85 0 0 1 157.6401367 291.039917)" class="st2 st3"> </text>
<text transform="matrix(0.85 0 0 1 164.2426758 291.039917)" class="st2 st3">buildingFootprintArea: gml::MeasureType [0..1]</text>
<text transform="matrix(0.85 0 0 1 153.0708008 299.789917)" class="st2 st3">+</text>
<text transform="matrix(0.85 0 0 1 157.6401367 299.789917)" class="st2 st3"> </text>
<text transform="matrix(0.85 0 0 1 164.2426758 299.789917)" class="st2 st3">buildingRoofEdgeArea: gml::MeasureType [0..1]</text>
<text transform="matrix(0.85 0 0 1 153.0708008 308.5321045)" class="st2 st3">+</text>
<text transform="matrix(0.85 0 0 1 157.6401367 308.5321045)" class="st2 st3"> </text>
<text transform="matrix(0.85 0 0 1 164.2426758 308.5321045)" class="st2 st3">developmentArea: gml::MeasureType [0..1]</text>
<text transform="matrix(0.85 0 0 1 153.0708008 317.2664795)" class="st2 st3">+</text>
<text transform="matrix(0.85 0 0 1 157.6401367 317.2664795)" class="st2 st3"> </text>
<text transform="matrix(0.85 0 0 1 164.2426758 317.2664795)" class="st2 st3">buildingStructureType: gml::CodeType [0..1]</text>
<text transform="matrix(0.85 0 0 1 153.0708008 326.008667)" class="st2 st3">+</text>
<text transform="matrix(0.85 0 0 1 157.6401367 326.008667)" class="st2 st3"> </text>
<text transform="matrix(0.85 0 0 1 164.2426758 326.008667)" class="st2 st3">buildingStructureOrgType: gml::CodeType [0..1]</text>
<text transform="matrix(0.85 0 0 1 153.0708008 334.7508545)" class="st2 st3">+</text>
<text transform="matrix(0.85 0 0 1 157.6401367 334.7508545)" class="st2 st3"> </text>
<text transform="matrix(0.85 0 0 1 164.2426758 334.7508545)" class="st2 st3">fireproofStructureType: gml::CodeType [0..1]</text>
<text transform="matrix(0.85 0 0 1 153.0708008 343.5008545)" class="st2 st3">+</text>
<text transform="matrix(0.85 0 0 1 157.6401367 343.5008545)" class="st2 st3"> </text>
<text transform="matrix(0.85 0 0 1 164.2426758 343.5008545)" class="st2 st3">implementingBody: xs::string [0..1]</text>
<text transform="matrix(0.85 0 0 1 153.0708008 352.243042)" class="st2 st3">+</text>
<text transform="matrix(0.85 0 0 1 157.6401367 352.243042)" class="st2 st3"> </text>
<text transform="matrix(0.85 0 0 1 164.2426758 352.243042)" class="st2 st3">urbanPlanType: gml::CodeType [0..1]</text>
<text transform="matrix(0.85 0 0 1 153.0708008 360.9852295)" class="st2 st3">+</text>
<text transform="matrix(0.85 0 0 1 157.6401367 360.9852295)" class="st2 st3"> </text>
<text transform="matrix(0.85 0 0 1 164.2426758 360.9852295)" class="st2 st3">areaClassificationType: gml::CodeType [0..1]</text>
<text transform="matrix(0.85 0 0 1 153.0708008 369.7352295)" class="st2 st3">+</text>
<text transform="matrix(0.85 0 0 1 157.6401367 369.7352295)" class="st2 st3"> </text>
<text transform="matrix(0.85 0 0 1 164.2426758 369.7352295)" class="st2 st3">districtsAndZonesType: gml::CodeType [0..*]</text>
<text transform="matrix(0.85 0 0 1 153.0708008 378.4696045)" class="st2 st3">+</text>
<text transform="matrix(0.85 0 0 1 157.6401367 378.4696045)" class="st2 st3"> </text>
<text transform="matrix(0.85 0 0 1 164.2426758 378.4696045)" class="st2 st3">landUseType: gml::CodeType [0..1]</text>
<text transform="matrix(0.85 0 0 1 153.0708008 387.211792)" class="st2 st3">+</text>
<text transform="matrix(0.85 0 0 1 157.6401367 387.211792)" class="st2 st3"> </text>
<text transform="matrix(0.85 0 0 1 164.2426758 387.211792)" class="st2 st3">reference: xs::string [0..1]</text>
<text transform="matrix(0.85 0 0 1 153.0708008 395.9539795)" class="st2 st3">+</text>
<text transform="matrix(0.85 0 0 1 157.6401367 395.9539795)" class="st2 st3"> </text>
<text transform="matrix(0.85 0 0 1 164.2426758 395.9539795)" class="st2 st3">majorUsage: gml::CodeType [0..1]</text>
<text transform="matrix(0.85 0 0 1 153.0708008 404.6883545)" class="st2 st3">+</text>
<text transform="matrix(0.85 0 0 1 157.6401367 404.6883545)" class="st2 st3"> </text>
<text transform="matrix(0.85 0 0 1 164.2426758 404.6883545)" class="st2 st3">majorUsage2: gml::CodeType [0..1]</text>
<text transform="matrix(0.85 0 0 1 153.0708008 413.4383545)" class="st2 st3">+</text>
<text transform="matrix(0.85 0 0 1 157.6401367 413.4383545)" class="st2 st3"> </text>
<text transform="matrix(0.85 0 0 1 164.2426758 413.4383545)" class="st2 st3">orgUsage: gml::CodeType [0..1]</text>
<text transform="matrix(0.85 0 0 1 153.0708008 422.1810303)" class="st2 st3">+</text>
<text transform="matrix(0.85 0 0 1 157.6401367 422.1810303)" class="st2 st3"> </text>
<text transform="matrix(0.85 0 0 1 164.2426758 422.1810303)" class="st2 st3">orgUsage2: gml::CodeType [0..1]</text>
<text transform="matrix(0.85 0 0 1 153.0708008 430.9232178)" class="st2 st3">+</text>
<text transform="matrix(0.85 0 0 1 157.6401367 430.9232178)" class="st2 st3"> </text>
<text transform="matrix(0.85 0 0 1 164.2426758 430.9232178)" class="st2 st3">detailedUsage: gml::CodeType [0..1]</text>
<text transform="matrix(0.85 0 0 1 153.0708008 439.6732178)" class="st2 st3">+</text>
<text transform="matrix(0.85 0 0 1 157.6401367 439.6732178)" class="st2 st3"> </text>
<text transform="matrix(0.85 0 0 1 164.2426758 439.6732178)" class="st2 st3">detailedUsage2: gml::CodeType [0..1]</text>
<text transform="matrix(0.85 0 0 1 153.0708008 448.4154053)" class="st2 st3">+</text>
<text transform="matrix(0.85 0 0 1 157.6401367 448.4154053)" class="st2 st3"> </text>
<text transform="matrix(0.85 0 0 1 164.2426758 448.4154053)" class="st2 st3">detailedUsage3: gml::CodeType [0..1]</text>
<text transform="matrix(0.85 0 0 1 153.0708008 457.1575928)" class="st2 st3">+</text>
<text transform="matrix(0.85 0 0 1 157.6401367 457.1575928)" class="st2 st3"> </text>
<text transform="matrix(0.85 0 0 1 164.2426758 457.1575928)" class="st2 st3">groundFloorUsage: gml::CodeType [0..1]</text>
<text transform="matrix(0.85 0 0 1 153.0708008 465.9075928)" class="st2 st3">+</text>
<text transform="matrix(0.85 0 0 1 157.6401367 465.9075928)" class="st2 st3"> </text>
<text transform="matrix(0.85 0 0 1 164.2426758 465.9075928)" class="st2 st3">secondFloorUsage: gml::CodeType [0..1]</text>
<text transform="matrix(0.85 0 0 1 153.0708008 474.6419678)" class="st2 st3">+</text>
<text transform="matrix(0.85 0 0 1 157.6401367 474.6419678)" class="st2 st3"> </text>
<text transform="matrix(0.85 0 0 1 164.2426758 474.6419678)" class="st2 st3">thirdFloorUsage: gml::CodeType [0..1]</text>
<text transform="matrix(0.85 0 0 1 153.0708008 483.3831787)" class="st2 st3">+</text>
<text transform="matrix(0.85 0 0 1 157.6401367 483.3831787)" class="st2 st3"> </text>
<text transform="matrix(0.85 0 0 1 164.2426758 483.3831787)" class="st2 st3">basementUsage: gml::CodeType [0..1]</text>
<text transform="matrix(0.85 0 0 1 153.0708008 492.1253662)" class="st2 st3">+</text>
<text transform="matrix(0.85 0 0 1 157.6401367 492.1253662)" class="st2 st3"> </text>
<text transform="matrix(0.85 0 0 1 164.2426758 492.1253662)" class="st2 st3">basementFirstUsage: gml::CodeType [0..1]</text>
<text transform="matrix(0.85 0 0 1 153.0708008 500.8597412)" class="st2 st3">+</text>
<text transform="matrix(0.85 0 0 1 157.6401367 500.8597412)" class="st2 st3"> </text>
<text transform="matrix(0.85 0 0 1 164.2426758 500.8597412)" class="st2 st3">basementSecondUsage: gml::CodeType [0..1]</text>
<text transform="matrix(0.85 0 0 1 153.0708008 509.6097412)" class="st2 st3">+</text>
<text transform="matrix(0.85 0 0 1 157.6401367 509.6097412)" class="st2 st3"> </text>
<text transform="matrix(0.85 0 0 1 164.2426758 509.6097412)" class="st2 st3">vacancy: gml::CodeType [0..1]</text>
<text transform="matrix(0.85 0 0 1 153.0708008 518.3519287)" class="st2 st3">+</text>
<text transform="matrix(0.85 0 0 1 157.6401367 518.3519287)" class="st2 st3"> </text>
<text transform="matrix(0.85 0 0 1 164.2426758 518.3519287)" class="st2 st3">buildingCoverageRate: xs::integer [0..1]</text>
<text transform="matrix(0.85 0 0 1 153.0708008 527.0941162)" class="st2 st3">+</text>
<text transform="matrix(0.85 0 0 1 157.6401367 527.0941162)" class="st2 st3"> </text>
<text transform="matrix(0.85 0 0 1 164.2426758 527.0941162)" class="st2 st3">floorAreaRate: xs::integer [0..1]</text>
<text transform="matrix(0.85 0 0 1 153.0708008 535.8441162)" class="st2 st3">+</text>
<text transform="matrix(0.85 0 0 1 157.6401367 535.8441162)" class="st2 st3"> </text>
<text transform="matrix(0.85 0 0 1 164.2426758 535.8441162)" class="st2 st3">specifiedBuildingCoverageRate: xs::integer [0..1]</text>
<text transform="matrix(0.85 0 0 1 153.0708008 544.5863037)" class="st2 st3">+</text>
<text transform="matrix(0.85 0 0 1 157.6401367 544.5863037)" class="st2 st3"> </text>
<text transform="matrix(0.85 0 0 1 164.2426758 544.5863037)" class="st2 st3">specifiedFloorAreaRate: xs::integer [0..1]</text>
<text transform="matrix(0.85 0 0 1 153.0708008 553.3284912)" class="st2 st3">+</text>
<text transform="matrix(0.85 0 0 1 157.6401367 553.3284912)" class="st2 st3"> </text>
<text transform="matrix(0.85 0 0 1 164.2426758 553.3284912)" class="st2 st3">standardFloorAreaRate: xs::integer [0..1]</text>
<text transform="matrix(0.85 0 0 1 153.0708008 562.0784912)" class="st2 st3">+</text>
<text transform="matrix(0.85 0 0 1 157.6401367 562.0784912)" class="st2 st3"> </text>
<text transform="matrix(0.85 0 0 1 164.2426758 562.0784912)" class="st2 st3">buildingHeight: gml::LengthType [0..1]</text>
<text transform="matrix(0.85 0 0 1 153.0708008 570.8128662)" class="st2 st3">+</text>
<text transform="matrix(0.85 0 0 1 157.6401367 570.8128662)" class="st2 st3"> </text>
<text transform="matrix(0.85 0 0 1 164.2426758 570.8128662)" class="st2 st3">eaveHeight: gml::LengthType [0..1]</text>
<text transform="matrix(0.85 0 0 1 153.0708008 579.5550537)" class="st2 st3">+</text>
<text transform="matrix(0.85 0 0 1 157.6401367 579.5550537)" class="st2 st3"> </text>
<text transform="matrix(0.85 0 0 1 164.2426758 579.5550537)" class="st2 st3">note: xs::string [0..1]</text>
<text transform="matrix(0.85 0 0 1 153.0708008 588.2972412)" class="st2 st3">+</text>
<text transform="matrix(0.85 0 0 1 157.6401367 588.2972412)" class="st2 st3"> </text>
<text transform="matrix(0.85 0 0 1 164.2426758 588.2972412)" class="st2 st3">surveyYear: xs::gYear</text>
<polygon class="st0" points="513.6640015,285.9005127 654.8529663,285.9005127 654.8529663,231.9004822 513.6640015,231.9004822 "/>
<polygon class="st1" points="513.6640015,285.9005127 654.8529663,285.9005127 654.8529663,231.9004822 513.6640015,231.9004822 "/>
<text transform="matrix(0.85 0 0 1 566.4853516 242.1805267)" class="st2 st3">«DataType»</text>
<text transform="matrix(0.85 0 0 1 543.6259766 250.9227142)" class="st4 st3">uro::KeyValuePairAttribute</text>
<line class="st1" x1="513.6640015" y1="255.0433044" x2="654.3450928" y2="255.0433044"/>
<text transform="matrix(0.85 0 0 1 516.2041016 264.2977295)" class="st2 st3">+</text>
<text transform="matrix(0.85 0 0 1 520.7734375 264.2977295)" class="st2 st3"> </text>
<text transform="matrix(0.85 0 0 1 527.3759766 264.2977295)" class="st2 st3">key: gml::CodeType</text>
<text transform="matrix(0.85 0 0 1 516.2041016 273.039917)" class="st2 st3">+</text>
<text transform="matrix(0.85 0 0 1 520.7734375 273.039917)" class="st2 st3"> </text>
<text transform="matrix(0.85 0 0 1 527.3759766 273.039917)" class="st2 st3">codeValue: gml::CodeType [0..1]</text>
<polygon class="st0" points="354.1915283,427.3289795 499.9513855,427.3289795 499.9513855,231.9004822 354.1915283,231.9004822 "/>
<polygon class="st1" points="354.1915283,427.3289795 499.9513855,427.3289795 499.9513855,231.9004822 354.1915283,231.9004822 "/>
<text transform="matrix(0.85 0 0 1 409.5478516 242.1805267)" class="st2 st3">«DataType»</text>
<text transform="matrix(0.85 0 0 1 372.4775391 250.9227142)" class="st4 st3">uro::LargeCustomerFacilityAttribute</text>
<line class="st1" x1="354.1915283" y1="255.0433044" x2="499.443512" y2="255.0433044"/>
<text transform="matrix(0.85 0 0 1 356.7275391 264.2977295)" class="st2 st3">+</text>
<text transform="matrix(0.85 0 0 1 361.296875 264.2977295)" class="st2 st3"> </text>
<text transform="matrix(0.85 0 0 1 367.8994141 264.2977295)" class="st2 st3">class: gml::CodeType [0..1]</text>
<text transform="matrix(0.85 0 0 1 356.7275391 273.039917)" class="st2 st3">+</text>
<text transform="matrix(0.85 0 0 1 361.296875 273.039917)" class="st2 st3"> </text>
<text transform="matrix(0.85 0 0 1 367.8994141 273.039917)" class="st2 st3">name: xs::string [0..1]</text>
<text transform="matrix(0.85 0 0 1 356.7275391 281.7821045)" class="st2 st3">+</text>
<text transform="matrix(0.85 0 0 1 361.296875 281.7821045)" class="st2 st3"> </text>
<text transform="matrix(0.85 0 0 1 367.8994141 281.7821045)" class="st2 st3">capacity: xs::integer [0..1]</text>
<text transform="matrix(0.85 0 0 1 356.7275391 290.5321045)" class="st2 st3">+</text>
<text transform="matrix(0.85 0 0 1 361.296875 290.5321045)" class="st2 st3"> </text>
<text transform="matrix(0.85 0 0 1 367.8994141 290.5321045)" class="st2 st3">owner: xs::string [0..1]</text>
<text transform="matrix(0.85 0 0 1 356.7275391 299.274292)" class="st2 st3">+</text>
<text transform="matrix(0.85 0 0 1 361.296875 299.274292)" class="st2 st3"> </text>
<text transform="matrix(0.85 0 0 1 367.8994141 299.274292)" class="st2 st3">totalFloorArea: gml::MeasureType [0..1]</text>
<text transform="matrix(0.85 0 0 1 356.7275391 308.0164795)" class="st2 st3">+</text>
<text transform="matrix(0.85 0 0 1 361.296875 308.0164795)" class="st2 st3"> </text>
<text transform="matrix(0.85 0 0 1 367.8994141 308.0164795)" class="st2 st3">totalStoreFloorArea: gml::MeasureType [0..1]</text>
<text transform="matrix(0.85 0 0 1 356.7275391 316.7508545)" class="st2 st3">+</text>
<text transform="matrix(0.85 0 0 1 361.296875 316.7508545)" class="st2 st3"> </text>
<text transform="matrix(0.85 0 0 1 367.8994141 316.7508545)" class="st2 st3">inauguralDate: xs::date [0..1]</text>
<text transform="matrix(0.85 0 0 1 356.7275391 325.493042)" class="st2 st3">+</text>
<text transform="matrix(0.85 0 0 1 361.296875 325.493042)" class="st2 st3"> </text>
<text transform="matrix(0.85 0 0 1 367.8994141 325.493042)" class="st2 st3">yearOpened: xs::gYear [0..1]</text>
<text transform="matrix(0.85 0 0 1 356.7275391 334.243042)" class="st2 st3">+</text>
<text transform="matrix(0.85 0 0 1 361.296875 334.243042)" class="st2 st3"> </text>
<text transform="matrix(0.85 0 0 1 367.8994141 334.243042)" class="st2 st3">yearClosed: xs::gYear [0..1]</text>
<text transform="matrix(0.85 0 0 1 356.7275391 342.9852295)" class="st2 st3">+</text>
<text transform="matrix(0.85 0 0 1 361.296875 342.9852295)" class="st2 st3"> </text>
<text transform="matrix(0.85 0 0 1 367.8994141 342.9852295)" class="st2 st3">keyTenants: xs::string [0..1]</text>
<text transform="matrix(0.85 0 0 1 356.7275391 351.7196045)" class="st2 st3">+</text>
<text transform="matrix(0.85 0 0 1 361.296875 351.7196045)" class="st2 st3"> </text>
<text transform="matrix(0.85 0 0 1 367.8994141 351.7196045)" class="st2 st3">availability: xs::boolean [0..1]</text>
<text transform="matrix(0.85 0 0 1 356.7275391 360.4696045)" class="st2 st3">+</text>
<text transform="matrix(0.85 0 0 1 361.296875 360.4696045)" class="st2 st3"> </text>
<text transform="matrix(0.85 0 0 1 367.8994141 360.4696045)" class="st2 st3">urbanPlanType: gml::CodeType [0..1]</text>
<text transform="matrix(0.85 0 0 1 356.7275391 369.211792)" class="st2 st3">+</text>
<text transform="matrix(0.85 0 0 1 361.296875 369.211792)" class="st2 st3"> </text>
<text transform="matrix(0.85 0 0 1 367.8994141 369.211792)" class="st2 st3">areaClassificationType: gml::CodeType [0..1]</text>
<text transform="matrix(0.85 0 0 1 356.7275391 377.9539795)" class="st2 st3">+</text>
<text transform="matrix(0.85 0 0 1 361.296875 377.9539795)" class="st2 st3"> </text>
<text transform="matrix(0.85 0 0 1 367.8994141 377.9539795)" class="st2 st3">districtsAndZonesType: gml::CodeType [0..*]</text>
<text transform="matrix(0.85 0 0 1 356.7275391 386.7039795)" class="st2 st3">+</text>
<text transform="matrix(0.85 0 0 1 361.296875 386.7039795)" class="st2 st3"> </text>
<text transform="matrix(0.85 0 0 1 367.8994141 386.7039795)" class="st2 st3">landUseType: gml::CodeType [0..1]</text>
<text transform="matrix(0.85 0 0 1 356.7275391 395.446167)" class="st2 st3">+</text>
<text transform="matrix(0.85 0 0 1 361.296875 395.446167)" class="st2 st3"> </text>
<text transform="matrix(0.85 0 0 1 367.8994141 395.446167)" class="st2 st3">reference: xs::string [0..1]</text>
<text transform="matrix(0.85 0 0 1 356.7275391 404.1883545)" class="st2 st3">+</text>
<text transform="matrix(0.85 0 0 1 361.296875 404.1883545)" class="st2 st3"> </text>
<text transform="matrix(0.85 0 0 1 367.8994141 404.1883545)" class="st2 st3">note: xs::string [0..1]</text>
<text transform="matrix(0.85 0 0 1 356.7275391 412.9227295)" class="st2 st3">+</text>
<text transform="matrix(0.85 0 0 1 361.296875 412.9227295)" class="st2 st3"> </text>
<text transform="matrix(0.85 0 0 1 367.8994141 412.9227295)" class="st2 st3">surveyYear: xs::gYear</text>
<polygon class="st0" points="33.7229843,314.1861572 144.4395294,314.1861572 144.4395294,232.4146423 33.7229843,232.4146423 "/>
<polygon class="st1" points="33.7229843,314.1861572 144.4395294,314.1861572 144.4395294,232.4146423 33.7229843,232.4146423 "/>
<text transform="matrix(0.85 0 0 1 71.3051758 242.7039642)" class="st2 st3">«DataType»</text>
<text transform="matrix(0.85 0 0 1 52.5083008 251.4383392)" class="st4 st3">uro::BuildingIDAttribute</text>
<line class="st1" x1="33.7229843" y1="255.5575867" x2="143.9316559" y2="255.5575867"/>
<text transform="matrix(0.85 0 0 1 36.2583008 264.8133545)" class="st2 st3">+</text>
<text transform="matrix(0.85 0 0 1 40.8276367 264.8133545)" class="st2 st3"> </text>
<text transform="matrix(0.85 0 0 1 47.4301758 264.8133545)" class="st2 st3">buildingID: xs::string</text>
<text transform="matrix(0.85 0 0 1 36.2583008 273.5633545)" class="st2 st3">+</text>
<text transform="matrix(0.85 0 0 1 40.8276367 273.5633545)" class="st2 st3"> </text>
<text transform="matrix(0.85 0 0 1 47.4301758 273.5633545)" class="st2 st3">branchID: xs::integer [0..1]</text>
<text transform="matrix(0.85 0 0 1 36.2583008 282.2977295)" class="st2 st3">+</text>
<text transform="matrix(0.85 0 0 1 40.8276367 282.2977295)" class="st2 st3"> </text>
<text transform="matrix(0.85 0 0 1 47.4301758 282.2977295)" class="st2 st3">partID: xs::integer [0..1]</text>
<text transform="matrix(0.85 0 0 1 36.2583008 291.039917)" class="st2 st3">+</text>
<text transform="matrix(0.85 0 0 1 40.8276367 291.039917)" class="st2 st3"> </text>
<text transform="matrix(0.85 0 0 1 47.4301758 291.039917)" class="st2 st3">prefecture: gml::CodeType [0..1]</text>
<text transform="matrix(0.85 0 0 1 36.2583008 299.789917)" class="st2 st3">+</text>
<text transform="matrix(0.85 0 0 1 40.8276367 299.789917)" class="st2 st3"> </text>
<text transform="matrix(0.85 0 0 1 47.4301758 299.789917)" class="st2 st3">city: gml::CodeType</text>
<polygon class="st12" points="277.5025635,139.8432465 478.620697,139.8432465 478.620697,15.9003706 277.5025635,15.9003706 "/>
<polygon class="st1" points="277.5025635,139.8432465 478.620697,139.8432465 478.620697,15.9003706 277.5025635,15.9003706 "/>
<text transform="matrix(0.85 0 0 1 356.2275391 26.1883392)" class="st2 st3">«FeatureType»</text>
<text transform="matrix(0.85 0 -0.3126727 0.9498609 343.019043 34.9273872)" class="st2 st5">b</text>
<text transform="matrix(0.85 0 -0.3126727 0.9498609 343.019043 34.9273872)" class="st6 st2 st5">b</text>
<text transform="matrix(0.85 0 -0.3126727 0.9498609 347.0795898 34.9273872)" class="st2 st5">l</text>
<text transform="matrix(0.85 0 -0.3126727 0.9498609 347.0795898 34.9273872)" class="st6 st2 st5">l</text>
<text transform="matrix(0.85 0 -0.3126727 0.9498609 348.6049805 34.9273872)" class="st2 st5">dg</text>
<text transform="matrix(0.85 0 -0.3126727 0.9498609 348.6049805 34.9273872)" class="st6 st2 st5">dg</text>
<text transform="matrix(0.85 0 -0.3126727 0.9498609 356.7241211 34.9273872)" class="st2 st5">::</text>
<text transform="matrix(0.85 0 -0.3126727 0.9498609 356.7241211 34.9273872)" class="st6 st2 st5">::</text>
<text transform="matrix(0.85 0 -0.3126727 0.9498609 359.7592773 34.9273872)" class="st2 st5">_</text>
<text transform="matrix(0.85 0 -0.3126727 0.9498609 359.7592773 34.9273872)" class="st6 st2 st5">_</text>
<text transform="matrix(0.85 0 -0.3126727 0.9498609 362.3022461 34.9273872)" class="st2 st5">A</text>
<text transform="matrix(0.85 0 -0.3126727 0.9498609 362.3022461 34.9273872)" class="st6 st2 st5">A</text>
<text transform="matrix(0.85 0 -0.3126727 0.9498609 366.8706055 34.9273872)" class="st2 st5">b</text>
<text transform="matrix(0.85 0 -0.3126727 0.9498609 366.8706055 34.9273872)" class="st6 st2 st5">b</text>
<text transform="matrix(0.85 0 -0.3126727 0.9498609 370.9291992 34.9273872)" class="st2 st5">s</text>
<text transform="matrix(0.85 0 -0.3126727 0.9498609 370.9291992 34.9273872)" class="st6 st2 st5">s</text>
<text transform="matrix(0.85 0 -0.3126727 0.9498609 373.9760742 34.9273872)" class="st2 st5">t</text>
<text transform="matrix(0.85 0 -0.3126727 0.9498609 373.9760742 34.9273872)" class="st6 st2 st5">t</text>
<text transform="matrix(0.85 0 -0.3126727 0.9498609 376.5092773 34.9273872)" class="st2 st5">r</text>
<text transform="matrix(0.85 0 -0.3126727 0.9498609 376.5092773 34.9273872)" class="st6 st2 st5">r</text>
<text transform="matrix(0.85 0 -0.3126727 0.9498609 379.0424805 34.9273872)" class="st2 st5">a</text>
<text transform="matrix(0.85 0 -0.3126727 0.9498609 379.0424805 34.9273872)" class="st6 st2 st5">a</text>
<text transform="matrix(0.85 0 -0.3126727 0.9498609 382.5932617 34.9273872)" class="st2 st5">c</text>
<text transform="matrix(0.85 0 -0.3126727 0.9498609 382.5932617 34.9273872)" class="st6 st2 st5">c</text>
<text transform="matrix(0.85 0 -0.3126727 0.9498609 385.644043 34.9273872)" class="st2 st5">t</text>
<text transform="matrix(0.85 0 -0.3126727 0.9498609 385.644043 34.9273872)" class="st6 st2 st5">t</text>
<text transform="matrix(0.85 0 -0.3126727 0.9498609 388.1772461 34.9273872)" class="st2 st5">B</text>
<text transform="matrix(0.85 0 -0.3126727 0.9498609 388.1772461 34.9273872)" class="st6 st2 st5">B</text>
<text transform="matrix(0.85 0 -0.3126727 0.9498609 392.2397461 34.9273872)" class="st2 st5">u</text>
<text transform="matrix(0.85 0 -0.3126727 0.9498609 392.2397461 34.9273872)" class="st6 st2 st5">u</text>
<text transform="matrix(0.85 0 -0.3126727 0.9498609 396.300293 34.9273872)" class="st2 st5">il</text>
<text transform="matrix(0.85 0 -0.3126727 0.9498609 396.300293 34.9273872)" class="st6 st2 st5">il</text>
<text transform="matrix(0.85 0 -0.3126727 0.9498609 399.3530273 34.9273872)" class="st2 st5">d</text>
<text transform="matrix(0.85 0 -0.3126727 0.9498609 399.3530273 34.9273872)" class="st6 st2 st5">d</text>
<text transform="matrix(0.85 0 -0.3126727 0.9498609 403.4116211 34.9273872)" class="st2 st5">i</text>
<text transform="matrix(0.85 0 -0.3126727 0.9498609 403.4116211 34.9273872)" class="st6 st2 st5">i</text>
<text transform="matrix(0.85 0 -0.3126727 0.9498609 404.9389648 34.9273872)" class="st2 st5">n</text>
<text transform="matrix(0.85 0 -0.3126727 0.9498609 404.9389648 34.9273872)" class="st6 st2 st5">n</text>
<text transform="matrix(0.85 0 -0.3126727 0.9498609 408.9995117 34.9273872)" class="st2 st5">g</text>
<text transform="matrix(0.85 0 -0.3126727 0.9498609 408.9995117 34.9273872)" class="st6 st2 st5">g</text>
<line class="st1" x1="277.5025635" y1="39.0433159" x2="478.112793" y2="39.0433159"/>
<text transform="matrix(0.85 0 0 1 280.0395508 48.2977142)" class="st2 st3">+</text>
<text transform="matrix(0.85 0 0 1 284.6088867 48.2977142)" class="st2 st3"> </text>
<text transform="matrix(0.85 0 0 1 291.2114258 48.2977142)" class="st2 st3">class: gml::CodeType [0..1]</text>
<text transform="matrix(0.85 0 0 1 280.0395508 57.0320892)" class="st2 st3">+</text>
<text transform="matrix(0.85 0 0 1 284.6088867 57.0320892)" class="st2 st3"> </text>
<text transform="matrix(0.85 0 0 1 291.2114258 57.0320892)" class="st2 st3">function: gml::CodeType [0..*]</text>
<text transform="matrix(0.85 0 0 1 280.0395508 65.7820892)" class="st2 st3">+</text>
<text transform="matrix(0.85 0 0 1 284.6088867 65.7820892)" class="st2 st3"> </text>
<text transform="matrix(0.85 0 0 1 291.2114258 65.7820892)" class="st2 st3">usage: gml::CodeType [0..*]</text>
<text transform="matrix(0.85 0 0 1 280.0395508 74.5242767)" class="st2 st3">+</text>
<text transform="matrix(0.85 0 0 1 284.6088867 74.5242767)" class="st2 st3"> </text>
<text transform="matrix(0.85 0 0 1 291.2114258 74.5242767)" class="st2 st3">yearOfConstruction: xs::gYear [0..1]</text>
<text transform="matrix(0.85 0 0 1 280.0395508 83.2664642)" class="st2 st3">+</text>
<text transform="matrix(0.85 0 0 1 284.6088867 83.2664642)" class="st2 st3"> </text>
<text transform="matrix(0.85 0 0 1 291.2114258 83.2664642)" class="st2 st3">yearOfDemolition: xs::gYear [0..1]</text>
<text transform="matrix(0.85 0 0 1 280.0395508 92.0164642)" class="st2 st3">+</text>
<text transform="matrix(0.85 0 0 1 284.6088867 92.0164642)" class="st2 st3"> </text>
<text transform="matrix(0.85 0 0 1 291.2114258 92.0164642)" class="st2 st3">roofType: gml::CodeType [0..1]</text>
<text transform="matrix(0.85 0 0 1 280.0395508 100.7586517)" class="st2 st3">+</text>
<text transform="matrix(0.85 0 0 1 284.6088867 100.7586517)" class="st2 st3"> </text>
<text transform="matrix(0.85 0 0 1 291.2114258 100.7586517)" class="st2 st3">measuredHeight: gml::LengthType [0..1]</text>
<text transform="matrix(0.85 0 0 1 280.0395508 109.5008392)" class="st2 st3">+</text>
<text transform="matrix(0.85 0 0 1 284.6088867 109.5008392)" class="st2 st3"> </text>
<text transform="matrix(0.85 0 0 1 291.2114258 109.5008392)" class="st2 st3">storeysAboveGround: xs::nonNegativeInteger [0..1]</text>
<text transform="matrix(0.85 0 0 1 280.0395508 118.2508392)" class="st2 st3">+</text>
<text transform="matrix(0.85 0 0 1 284.6088867 118.2508392)" class="st2 st3"> </text>
<text transform="matrix(0.85 0 0 1 291.2114258 118.2508392)" class="st2 st3">storeysBelowGround: xs::nonNegativeInteger [0..1]</text>
<text transform="matrix(0.85 0 0 1 280.0395508 126.9852142)" class="st2 st3">+</text>
<text transform="matrix(0.85 0 0 1 284.6088867 126.9852142)" class="st2 st3"> </text>
<text transform="matrix(0.85 0 0 1 291.2114258 126.9852142)" class="st2 st3">storeyHeightsAboveGround: gml::MeasureOrNullListType [0..1]</text>
<text transform="matrix(0.85 0 0 1 280.0395508 135.7274017)" class="st2 st3">+</text>
<text transform="matrix(0.85 0 0 1 284.6088867 135.7274017)" class="st2 st3"> </text>
<text transform="matrix(0.85 0 0 1 291.2114258 135.7274017)" class="st2 st3">storeyHeightsBelowGround: gml::MeasureOrNullListType [0..1]</text>
<polygon class="st0" points="566.4828491,376.9290771 722.9080811,376.9290771 722.9080811,304.9290771 566.4828491,304.9290771 "/>
<polygon class="st1" points="566.4828491,376.9290771 722.9080811,376.9290771 722.9080811,304.9290771 566.4828491,304.9290771 "/>
<text transform="matrix(0.85 0 0 1 628.9541016 314.1883545)" class="st2 st14">«DataType»</text>
<text transform="matrix(0.85 0 0 1 609.6494141 321.899292)" class="st4 st14">uro::RealEstateIDAttribute</text>
<line class="st1" x1="566.4828491" y1="326.0147705" x2="722.4002075" y2="326.0147705"/>
<text transform="matrix(0.85 0 0 1 569.0244141 334.243042)" class="st2 st14">+</text>
<text transform="matrix(0.85 0 0 1 573.0898438 334.243042)" class="st2 st14"> </text>
<text transform="matrix(0.85 0 0 1 579.1806641 334.243042)" class="st2 st14">realEstateIDOfBuilding: xs::string</text>
<text transform="matrix(0.85 0 0 1 569.0244141 341.9539795)" class="st2 st14">+</text>
<text transform="matrix(0.85 0 0 1 573.0898438 341.9539795)" class="st2 st14"> </text>
<text transform="matrix(0.85 0 0 1 579.1806641 341.9539795)" class="st2 st14">numberOfBuildingUnitOwnership: xs::integer [0..1]</text>
<text transform="matrix(0.85 0 0 1 569.0244141 349.6727295)" class="st2 st14">+</text>
<text transform="matrix(0.85 0 0 1 573.0898438 349.6727295)" class="st2 st14"> </text>
<text transform="matrix(0.85 0 0 1 579.1806641 349.6727295)" class="st2 st14">realEstateIDOfBuildingUnitOwnership: xs::string [0..*]</text>
<text transform="matrix(0.85 0 0 1 569.0244141 357.3914795)" class="st2 st14">+</text>
<text transform="matrix(0.85 0 0 1 573.0898438 357.3914795)" class="st2 st14"> </text>
<text transform="matrix(0.85 0 0 1 579.1806641 357.3914795)" class="st2 st14">numberOfRealEstateIDOfLand: xs::integer [0..1]</text>
<text transform="matrix(0.85 0 0 1 569.0244141 365.102417)" class="st2 st14">+</text>
<text transform="matrix(0.85 0 0 1 573.0898438 365.102417)" class="st2 st14"> </text>
<text transform="matrix(0.85 0 0 1 579.1806641 365.102417)" class="st2 st14">realEstateIDOfLand: xs::string [0..*]</text>
<text transform="matrix(0.85 0 0 1 569.0244141 372.8133545)" class="st2 st14">+</text>
<text transform="matrix(0.85 0 0 1 573.0898438 372.8133545)" class="st2 st14"> </text>
<text transform="matrix(0.85 0 0 1 579.1806641 372.8133545)" class="st2 st14">matchingScore: xs::integer [0..1]</text>
<polygon class="st0" points="640.6325073,550.2432861 792.9946899,550.2432861 792.9946899,400.0718994 640.6325073,400.0718994 "/>
<polygon class="st1" points="640.6325073,550.2432861 792.9946899,550.2432861 792.9946899,400.0718994 640.6325073,400.0718994 "/>
<text transform="matrix(0.85 0 0 1 699.0400391 410.3602295)" class="st2 st3">«DataType»</text>
<text transform="matrix(0.85 0 0 1 677.7119141 419.0946045)" class="st4 st3">uro::DataQualityAttribute</text>
<line class="st1" x1="640.6325073" y1="423.2147217" x2="792.4868164" y2="423.2147217"/>
<text transform="matrix(0.85 0 0 1 643.1728516 432.4700928)" class="st2 st3">+</text>
<text transform="matrix(0.85 0 0 1 647.7421875 432.4700928)" class="st2 st3"> </text>
<text transform="matrix(0.85 0 0 1 654.3447266 432.4700928)" class="st2 st3">geometrySrcDescLod0: gml::CodeType [0..*]</text>
<text transform="matrix(0.85 0 0 1 643.1728516 441.2200928)" class="st2 st3">+</text>
<text transform="matrix(0.85 0 0 1 647.7421875 441.2200928)" class="st2 st3"> </text>
<text transform="matrix(0.85 0 0 1 654.3447266 441.2200928)" class="st2 st3">geometrySrcDescLod1: gml::CodeType [1..*]</text>
<text transform="matrix(0.85 0 0 1 643.1728516 449.9544678)" class="st2 st3">+</text>
<text transform="matrix(0.85 0 0 1 647.7421875 449.9544678)" class="st2 st3"> </text>
<text transform="matrix(0.85 0 0 1 654.3447266 449.9544678)" class="st2 st3">geometrySrcDescLod2: gml::CodeType [0..*]</text>
<text transform="matrix(0.85 0 0 1 643.1728516 458.6966553)" class="st2 st3">+</text>
<text transform="matrix(0.85 0 0 1 647.7421875 458.6966553)" class="st2 st3"> </text>
<text transform="matrix(0.85 0 0 1 654.3447266 458.6966553)" class="st2 st3">geometrySrcDescLod3: gml::CodeType [0..*]</text>
<text transform="matrix(0.85 0 0 1 643.1728516 467.4466553)" class="st2 st3">+</text>
<text transform="matrix(0.85 0 0 1 647.7421875 467.4466553)" class="st2 st3"> </text>
<text transform="matrix(0.85 0 0 1 654.3447266 467.4466553)" class="st2 st3">geometrySrcDescLod4: gml::CodeType [0..*]</text>
<text transform="matrix(0.85 0 0 1 643.1728516 476.1888428)" class="st2 st3">+</text>
<text transform="matrix(0.85 0 0 1 647.7421875 476.1888428)" class="st2 st3"> </text>
<text transform="matrix(0.85 0 0 1 654.3447266 476.1888428)" class="st2 st3">thematicSrcDesc: gml::CodeType [0..*]</text>
<text transform="matrix(0.85 0 0 1 643.1728516 484.9222412)" class="st2 st3">+</text>
<text transform="matrix(0.85 0 0 1 647.7421875 484.9222412)" class="st2 st3"> </text>
<text transform="matrix(0.85 0 0 1 654.3447266 484.9222412)" class="st2 st3">appearanceSrcDescLod0: gml::CodeType [0..*]</text>
<text transform="matrix(0.85 0 0 1 643.1728516 493.6644287)" class="st2 st3">+</text>
<text transform="matrix(0.85 0 0 1 647.7421875 493.6644287)" class="st2 st3"> </text>
<text transform="matrix(0.85 0 0 1 654.3447266 493.6644287)" class="st2 st3">appearanceSrcDescLod1: gml::CodeType [0..*]</text>
<text transform="matrix(0.85 0 0 1 643.1728516 502.4066162)" class="st2 st3">+</text>
<text transform="matrix(0.85 0 0 1 647.7421875 502.4066162)" class="st2 st3"> </text>
<text transform="matrix(0.85 0 0 1 654.3447266 502.4066162)" class="st2 st3">appearanceSrcDescLod2: gml::CodeType [0..*]</text>
<text transform="matrix(0.85 0 0 1 643.1728516 511.1566162)" class="st2 st3">+</text>
<text transform="matrix(0.85 0 0 1 647.7421875 511.1566162)" class="st2 st3"> </text>
<text transform="matrix(0.85 0 0 1 654.3447266 511.1566162)" class="st2 st3">appearanceSrcDescLod3: gml::CodeType [0..*]</text>
<text transform="matrix(0.85 0 0 1 643.1728516 519.8988037)" class="st2 st3">+</text>
<text transform="matrix(0.85 0 0 1 647.7421875 519.8988037)" class="st2 st3"> </text>
<text transform="matrix(0.85 0 0 1 654.3447266 519.8988037)" class="st2 st3">appearanceSrcDescLod4: gml::CodeType [0..*]</text>
<text transform="matrix(0.85 0 0 1 643.1728516 528.6409912)" class="st2 st3">+</text>
<text transform="matrix(0.85 0 0 1 647.7421875 528.6409912)" class="st2 st3"> </text>
<text transform="matrix(0.85 0 0 1 654.3447266 528.6409912)" class="st2 st3">lodType: gml::CodeType [0..*]</text>
<text transform="matrix(0.85 0 0 1 643.1728516 537.3909912)" class="st2 st3">+</text>
<text transform="matrix(0.85 0 0 1 647.7421875 537.3909912)" class="st2 st3"> </text>
<text transform="matrix(0.85 0 0 1 654.3447266 537.3909912)" class="st2 st3">lod1HeightType: gml::CodeType [0..1]</text>
<text transform="matrix(0.85 0 0 1 643.1728516 546.1253662)" class="st2 st3">+</text>
<text transform="matrix(0.85 0 0 1 647.7421875 546.1253662)" class="st2 st3"> </text>
<text transform="matrix(0.85 0 0 1 654.3447266 546.1253662)" class="st2 st3">tranDataAcquisition: xs::string [0..1]</text>
<line class="st1" x1="678.2151489" y1="304.4146729" x2="678.2151489" y2="165.5576019"/>
<line class="st1" x1="378.061615" y1="165.5576019" x2="378.061615" y2="140.3575287"/>
<polyline class="st15" points="380.6009827,145.500351 378.061615,140.3575287 375.5222473,145.500351 378.061615,150.6432953 
	380.6009827,145.500351 "/>
<polyline class="st1" points="380.6009827,145.500351 378.061615,140.3575287 375.5222473,145.500351 378.061615,150.6432953 "/>
<polyline class="st1" points="681.2623901,296.7004395 678.2151489,304.4146729 675.1679077,296.7004395 "/>
<line class="st1" x1="88.5733795" y1="231.9004822" x2="88.5733795" y2="165.5576019"/>
<line class="st1" x1="88.5733795" y1="165.5576019" x2="378.061615" y2="165.5576019"/>
<polyline class="st15" points="380.6009827,145.500351 378.061615,140.3575287 375.5222473,145.500351 378.061615,150.6432953 
	380.6009827,145.500351 "/>
<polyline class="st1" points="380.6009827,145.500351 378.061615,140.3575287 375.5222473,145.500351 378.061615,150.6432953 "/>
<polyline class="st1" points="91.6206207,224.1861267 88.5733795,231.9004822 85.5261383,224.1861267 "/>
<line class="st1" x1="752.8726807" y1="399.5576172" x2="752.8726807" y2="165.5576019"/>
<line class="st1" x1="752.8726807" y1="165.5576019" x2="378.061615" y2="165.5576019"/>
<polyline class="st15" points="380.6009827,145.500351 378.061615,140.3575287 375.5222473,145.500351 378.061615,150.6432953 
	380.6009827,145.500351 "/>
<polyline class="st1" points="380.6009827,145.500351 378.061615,140.3575287 375.5222473,145.500351 378.061615,150.6432953 "/>
<polyline class="st1" points="755.9199219,391.8433838 752.8726807,399.5576172 749.8253784,391.8433838 "/>
<line class="st1" x1="472.5261841" y1="822.8148193" x2="472.5261841" y2="798.6433105"/>
<line class="st1" x1="472.5261841" y1="798.6433105" x2="279.5340576" y2="798.6433105"/>
<line class="st1" x1="279.5340576" y1="798.6433105" x2="279.5340576" y2="773.4433594"/>
<polyline class="st16" points="282.5812988,781.6719971 276.4868164,781.6719971 279.5340576,773.4433594 282.5812988,781.6719971 
	"/>
<polygon class="st1" points="282.5812988,781.6719971 276.4868164,781.6719971 279.5340576,773.4433594 "/>
<line class="st1" x1="743.2230225" y1="607.3289795" x2="743.2230225" y2="550.7576904"/>
<polyline class="st15" points="745.7623901,555.9005127 743.2230225,550.7576904 740.6836548,555.9005127 743.2230225,561.043335 
	745.7623901,555.9005127 "/>
<polygon class="st1" points="745.7623901,555.9005127 743.2230225,550.7576904 740.6836548,555.9005127 743.2230225,561.043335 "/>
<polyline class="st1" points="746.2702637,599.6147461 743.2230225,607.3289795 740.1757812,599.6147461 "/>
<line class="st1" x1="463.3844604" y1="231.3860779" x2="463.3844604" y2="165.5576019"/>
<polyline class="st15" points="380.6009827,145.500351 378.061615,140.3575287 375.5222473,145.500351 378.061615,150.6432953 
	380.6009827,145.500351 "/>
<polyline class="st1" points="380.6009827,145.500351 378.061615,140.3575287 375.5222473,145.500351 378.061615,150.6432953 "/>
<polyline class="st1" points="466.4317017,223.6718445 463.3844604,231.3860779 460.3372192,223.6718445 "/>
<line class="st1" x1="396.8529663" y1="718.4146729" x2="396.8529663" y2="681.9005127"/>
<line class="st1" x1="396.8529663" y1="681.9005127" x2="352.6679077" y2="681.9005127"/>
<line class="st1" x1="352.6679077" y1="681.9005127" x2="352.6679077" y2="656.7004395"/>
<polyline class="st16" points="355.7151489,664.9290771 349.6206665,664.9290771 352.6679077,656.7004395 355.7151489,664.9290771 
	"/>
<polygon class="st1" points="355.7151489,664.9290771 349.6206665,664.9290771 352.6679077,656.7004395 "/>
<line class="st1" x1="367.3962708" y1="888.6433105" x2="367.3962708" y2="798.6433105"/>
<line class="st1" x1="312.0379944" y1="818.7005615" x2="312.0379944" y2="798.6433105"/>
<line class="st1" x1="241.4434662" y1="907.1575928" x2="241.4434662" y2="798.6433105"/>
<line class="st1" x1="164.7544861" y1="824.3575439" x2="164.7544861" y2="798.6433105"/>
<line class="st1" x1="164.7544861" y1="798.6433105" x2="279.5340576" y2="798.6433105"/>
<line class="st1" x1="279.0261841" y1="718.4146729" x2="279.0261841" y2="681.9005127"/>
<line class="st1" x1="279.0261841" y1="681.9005127" x2="352.6679077" y2="681.9005127"/>
<line class="st1" x1="339.9710693" y1="617.1004639" x2="339.9710693" y2="165.5576019"/>
<polyline class="st15" points="380.6009827,145.500351 378.061615,140.3575287 375.5222473,145.500351 378.061615,150.6432953 
	380.6009827,145.500351 "/>
<polyline class="st1" points="380.6009827,145.500351 378.061615,140.3575287 375.5222473,145.500351 378.061615,150.6432953 "/>
<polyline class="st1" points="343.0183105,609.3861084 339.9710693,617.1004639 336.9238281,609.3861084 "/>
<line class="st1" x1="613.7151489" y1="231.3860779" x2="613.7151489" y2="165.5576019"/>
<polyline class="st15" points="380.6009827,145.500351 378.061615,140.3575287 375.5222473,145.500351 378.061615,150.6432953 
	380.6009827,145.500351 "/>
<polyline class="st1" points="380.6009827,145.500351 378.061615,140.3575287 375.5222473,145.500351 378.061615,150.6432953 "/>
<polyline class="st1" points="616.7623901,223.6718445 613.7151489,231.3860779 610.6679077,223.6718445 "/>
<line class="st1" x1="237.3804779" y1="231.9004822" x2="237.3804779" y2="165.5576019"/>
<polyline class="st15" points="380.6009827,145.500351 378.061615,140.3575287 375.5222473,145.500351 378.061615,150.6432953 
	380.6009827,145.500351 "/>
<polygon class="st1" points="380.6009827,145.500351 378.061615,140.3575287 375.5222473,145.500351 378.061615,150.6432953 "/>
<polyline class="st1" points="240.4277191,224.1861267 237.3804779,231.9004822 234.3332367,224.1861267 "/>
<text transform="matrix(0.85 0 0 1 160.6879883 223.6649017)" class="st2 st3">+buildingDetailAttribute</text>
<text transform="matrix(0.85 0 0 1 247.5395508 224.1883392)" class="st2 st3">0..*</text>
<text transform="matrix(0.85 0 0 1 16.9614258 226.2352142)" class="st2 st3">+buildingIDAttribute</text>
<text transform="matrix(0.85 0 0 1 98.7270508 228.8133392)" class="st2 st3">1</text>
<text transform="matrix(0.85 0 0 1 583.7509766 300.2977295)" class="st2 st3">+bldgRealEstateIDAttribute</text>
<text transform="matrix(0.85 0 0 1 685.3212891 300.2977295)" class="st2 st3">0..1</text>
<text transform="matrix(0.85 0 0 1 364.3525391 585.7269287)" class="st2 st3">+bldgDisasterRiskAttribute</text>
<text transform="matrix(0.85 0 0 1 350.1337891 613.5003662)" class="st2 st3">0..*</text>
<text transform="matrix(0.85 0 0 1 361.3056641 223.6649017)" class="st2 st3">+largeCustomerFacilityAttribute</text>
<text transform="matrix(0.85 0 0 1 470.4931641 223.1570892)" class="st2 st3">0..*</text>
<text transform="matrix(0.85 0 0 1 628.9462891 594.9847412)" class="st2 st3">+publicSurveyDataQualityAttribute</text>
<text transform="matrix(0.85 0 0 1 750.8447266 602.1800537)" class="st2 st3">0..1</text>
<text transform="matrix(0.85 0 0 1 515.1884766 225.7274017)" class="st2 st3">+bldgKeyValuePairAttribute</text>
<text transform="matrix(0.85 0 0 1 618.2822266 227.7820892)" class="st2 st3">0..*</text>
<text transform="matrix(0.85 0 0 1 653.3291016 392.3602295)" class="st2 st3">+bldgDataQualityAttribute</text>
<text transform="matrix(0.85 0 0 1 760.4931641 393.899292)" class="st2 st3">0..1</text>
</svg>
