<?xml version="1.0" encoding="utf-8"?>
<!-- Generator: Adobe Illustrator 27.0.1, SVG Export Plug-In . SVG Version: 6.00 Build 0)  -->
<svg version="1.1" id="レイヤー_1" xmlns="http://www.w3.org/2000/svg" xmlns:xlink="http://www.w3.org/1999/xlink" x="0px"
	 y="0px" viewBox="0 0 457.4 514.8" style="enable-background:new 0 0 457.4 514.8;" xml:space="preserve">
<style type="text/css">
	.st0{fill-rule:evenodd;clip-rule:evenodd;fill:#CFD1D8;}
	.st1{fill-rule:evenodd;clip-rule:evenodd;fill:#FFCCFF;}
	.st2{fill:none;stroke:#000000;stroke-width:0.8661;stroke-linecap:round;stroke-linejoin:round;stroke-miterlimit:10;}
	.st3{font-family:'YuGothicUI-Regular';}
	.st4{font-size:5.6299px;}
	.st5{font-family:'YuGothicUI-Bold';}
	.st6{font-size:5.9364px;}
	.st7{fill:none;stroke:#000000;stroke-width:0.1609;stroke-miterlimit:10;}
	.st8{fill-rule:evenodd;clip-rule:evenodd;fill:#FFFFCC;}
	.st9{fill-rule:evenodd;clip-rule:evenodd;fill:#F0F0F0;}
	.st10{fill:none;stroke:#D7D7D7;stroke-width:0.4331;stroke-linecap:square;stroke-miterlimit:10;}
	.st11{fill-rule:evenodd;clip-rule:evenodd;fill:#A0FFC0;}
	.st12{fill:none;stroke:#000000;stroke-width:0.4331;stroke-linecap:square;stroke-miterlimit:10;}
	.st13{fill:#003060;}
	.st14{font-family:'MS-PGothic';}
	.st15{font-size:6.9291px;}
	.st16{fill:none;stroke:#003060;stroke-width:0.198;stroke-miterlimit:10;}
	.st17{fill:none;stroke:#000000;stroke-width:0.8661;stroke-linecap:round;stroke-linejoin:bevel;stroke-miterlimit:10;}
	.st18{fill-rule:evenodd;clip-rule:evenodd;fill:#FFFFFF;}
	.st19{fill-rule:evenodd;clip-rule:evenodd;}
	.st20{font-family:'Calibri';}
	.st21{font-size:4.7638px;}
	.st22{font-size:5.9362px;}
</style>
<path class="st0" d="M96.4,336.5c0.6,0,1.1,0.5,1.1,1.1l0,0v57.6l0,0c0,0.6-0.5,1.1-1.1,1.1l0,0l0,0H8.3l0,0c-0.6,0-1.1-0.5-1.1-1.1
	l0,0v-57.6c0-0.6,0.5-1.1,1.1-1.1l0,0H96.4L96.4,336.5L96.4,336.5z"/>
<path class="st1" d="M95.1,335.1c0.6,0,1.1,0.5,1.1,1.1l0,0v57.6l0,0c0,0.6-0.5,1.1-1.1,1.1l0,0l0,0H7l0,0c-0.6,0-1.1-0.5-1.1-1.1
	l0,0v-57.6c0-0.6,0.5-1.1,1.1-1.1l0,0H95.1L95.1,335.1L95.1,335.1z"/>
<path class="st2" d="M95.1,335.1c0.6,0,1.1,0.5,1.1,1.1l0,0v57.6l0,0c0,0.6-0.5,1.1-1.1,1.1l0,0l0,0H7l0,0c-0.6,0-1.1-0.5-1.1-1.1
	l0,0v-57.6c0-0.6,0.5-1.1,1.1-1.1l0,0H95.1L95.1,335.1L95.1,335.1z"/>
<text transform="matrix(0.85 0 0 1 36.3193 343.8039)" class="st3 st4">«DataType»</text>
<text transform="matrix(0.85 0 0 1 12.0146 351.1711)" class="st5 st4">uro::IndoorTactileTileAttribute</text>
<line class="st2" x1="5.9" y1="354.6" x2="96.2" y2="354.6"/>
<text transform="matrix(0.85 0 0 1 8.1084 362.4289)" class="st3 st4">+ </text>
<text transform="matrix(0.85 0 0 1 17.6553 362.4289)" class="st3 st4">startNode: xs::string [0..1]</text>
<text transform="matrix(0.85 0 0 1 8.1084 369.7961)" class="st3 st4">+ </text>
<text transform="matrix(0.85 0 0 1 17.6553 369.7961)" class="st3 st4">endNode: xs::string [0..1]</text>
<text transform="matrix(0.85 0 0 1 8.1084 377.1555)" class="st3 st4">+ </text>
<text transform="matrix(0.85 0 0 1 17.6553 377.1555)" class="st3 st4">category: gml::CodeType [0..1]</text>
<text transform="matrix(0.85 0 0 1 8.1084 384.5226)" class="st3 st4">+ </text>
<text transform="matrix(0.85 0 0 1 17.6553 384.5226)" class="st3 st4">roof: gml::CodeType [0..1]</text>
<text transform="matrix(0.85 0 0 1 8.1084 391.882)" class="st3 st4">+ </text>
<text transform="matrix(0.85 0 0 1 17.6553 391.882)" class="st3 st4">floorId: xs::string [0..1]</text>
<path class="st0" d="M273.5,241.2c0.6,0,1.1,0.5,1.1,1.1l0,0v32l0,0c0,0.6-0.5,1.1-1.1,1.1l0,0l0,0h-82.9l0,0
	c-0.6,0-1.1-0.5-1.1-1.1l0,0v-32.1c0-0.6,0.5-1.1,1.1-1.1l0,0L273.5,241.2L273.5,241.2L273.5,241.2z"/>
<path class="st1" d="M272.2,239.9c0.6,0,1.1,0.5,1.1,1.1l0,0v32l0,0c0,0.6-0.5,1.1-1.1,1.1l0,0l0,0h-82.9l0,0
	c-0.6,0-1.1-0.5-1.1-1.1l0,0v-32.1c0-0.6,0.5-1.1,1.1-1.1l0,0h82.9V239.9L272.2,239.9z"/>
<path class="st2" d="M272.2,239.9c0.6,0,1.1,0.5,1.1,1.1l0,0v32l0,0c0,0.6-0.5,1.1-1.1,1.1l0,0l0,0h-82.9l0,0
	c-0.6,0-1.1-0.5-1.1-1.1l0,0v-32.1c0-0.6,0.5-1.1,1.1-1.1l0,0h82.9V239.9L272.2,239.9z"/>
<text transform="matrix(0.85 0 0 1 216.0146 248.5383)" class="st3 st4">«DataType»</text>
<text transform="matrix(0.85 0 -0.3169 0.9485 204.2937 255.9002)" class="st3 st6">u</text>
<text transform="matrix(0.85 0 -0.3169 0.9485 204.2937 255.9002)" class="st7 st3 st6">u</text>
<text transform="matrix(0.85 0 -0.3169 0.9485 207.7635 255.9002)" class="st3 st6">r</text>
<text transform="matrix(0.85 0 -0.3169 0.9485 207.7635 255.9002)" class="st7 st3 st6">r</text>
<text transform="matrix(0.85 0 -0.3169 0.9485 209.9305 255.9002)" class="st3 st6">o</text>
<text transform="matrix(0.85 0 -0.3169 0.9485 209.9305 255.9002)" class="st7 st3 st6">o</text>
<text transform="matrix(0.85 0 -0.3169 0.9485 213.4002 255.9002)" class="st3 st6">::</text>
<text transform="matrix(0.85 0 -0.3169 0.9485 213.4002 255.9002)" class="st7 st3 st6">::</text>
<text transform="matrix(0.85 0 -0.3169 0.9485 215.9959 255.9002)" class="st3 st6">I</text>
<text transform="matrix(0.85 0 -0.3169 0.9485 215.9959 255.9002)" class="st7 st3 st6">I</text>
<text transform="matrix(0.85 0 -0.3169 0.9485 217.7254 255.9002)" class="st3 st6">n</text>
<text transform="matrix(0.85 0 -0.3169 0.9485 217.7254 255.9002)" class="st7 st3 st6">n</text>
<text transform="matrix(0.85 0 -0.3169 0.9485 221.1951 255.9002)" class="st3 st6">d</text>
<text transform="matrix(0.85 0 -0.3169 0.9485 221.1951 255.9002)" class="st7 st3 st6">d</text>
<text transform="matrix(0.85 0 -0.3169 0.9485 224.6648 255.9002)" class="st3 st6">oo</text>
<text transform="matrix(0.85 0 -0.3169 0.9485 224.6648 255.9002)" class="st7 st3 st6">oo</text>
<text transform="matrix(0.85 0 -0.3169 0.9485 231.6043 255.9002)" class="st3 st6">r</text>
<text transform="matrix(0.85 0 -0.3169 0.9485 231.6043 255.9002)" class="st7 st3 st6">r</text>
<text transform="matrix(0.85 0 -0.3169 0.9485 233.7713 255.9002)" class="st3 st6">A</text>
<text transform="matrix(0.85 0 -0.3169 0.9485 233.7713 255.9002)" class="st7 st3 st6">A</text>
<text transform="matrix(0.85 0 -0.3169 0.9485 237.6687 255.9002)" class="st3 st6">tt</text>
<text transform="matrix(0.85 0 -0.3169 0.9485 237.6687 255.9002)" class="st7 st3 st6">tt</text>
<text transform="matrix(0.85 0 -0.3169 0.9485 242.0037 255.9002)" class="st3 st6">r</text>
<text transform="matrix(0.85 0 -0.3169 0.9485 242.0037 255.9002)" class="st7 st3 st6">r</text>
<text transform="matrix(0.85 0 -0.3169 0.9485 244.1717 255.9002)" class="st3 st6">i</text>
<text transform="matrix(0.85 0 -0.3169 0.9485 244.1717 255.9002)" class="st7 st3 st6">i</text>
<text transform="matrix(0.85 0 -0.3169 0.9485 245.4734 255.9002)" class="st3 st6">b</text>
<text transform="matrix(0.85 0 -0.3169 0.9485 245.4734 255.9002)" class="st7 st3 st6">b</text>
<text transform="matrix(0.85 0 -0.3169 0.9485 248.9431 255.9002)" class="st3 st6">u</text>
<text transform="matrix(0.85 0 -0.3169 0.9485 248.9431 255.9002)" class="st7 st3 st6">u</text>
<text transform="matrix(0.85 0 -0.3169 0.9485 252.4129 255.9002)" class="st3 st6">t</text>
<text transform="matrix(0.85 0 -0.3169 0.9485 252.4129 255.9002)" class="st7 st3 st6">t</text>
<text transform="matrix(0.85 0 -0.3169 0.9485 254.5799 255.9002)" class="st3 st6">e</text>
<text transform="matrix(0.85 0 -0.3169 0.9485 254.5799 255.9002)" class="st7 st3 st6">e</text>
<line class="st2" x1="188.2" y1="259.4" x2="273.3" y2="259.4"/>
<text transform="matrix(0.85 0 0 1 190.4131 267.1555)" class="st3 st4">+ </text>
<text transform="matrix(0.85 0 0 1 199.96 267.1555)" class="st3 st4">source: gml::CodeType [0..1]</text>
<path class="st0" d="M451.5,366.3c0.6,0,1.1,0.5,1.1,1.1l0,0v50.2l0,0c0,0.6-0.5,1.1-1.1,1.1l0,0l0,0h-87.2l0,0
	c-0.6,0-1.1-0.5-1.1-1.1l0,0v-50.2c0-0.6,0.5-1.1,1.1-1.1l0,0H451.5L451.5,366.3L451.5,366.3z"/>
<path class="st1" d="M450.2,365c0.6,0,1.1,0.5,1.1,1.1l0,0v50.2l0,0c0,0.6-0.5,1.1-1.1,1.1l0,0l0,0H363l0,0c-0.6,0-1.1-0.5-1.1-1.1
	l0,0v-50.2c0-0.6,0.5-1.1,1.1-1.1l0,0H450.2L450.2,365L450.2,365z"/>
<path class="st2" d="M450.2,365c0.6,0,1.1,0.5,1.1,1.1l0,0v50.2l0,0c0,0.6-0.5,1.1-1.1,1.1l0,0l0,0H363l0,0c-0.6,0-1.1-0.5-1.1-1.1
	l0,0v-50.2c0-0.6,0.5-1.1,1.1-1.1l0,0H450.2L450.2,365L450.2,365z"/>
<text transform="matrix(0.85 0 0 1 391.8115 373.6945)" class="st3 st4">«DataType»</text>
<text transform="matrix(0.85 0 0 1 370.9756 381.0539)" class="st5 st4">uro::IndoorFacilityAttribute</text>
<line class="st2" x1="361.9" y1="384.5" x2="451.3" y2="384.5"/>
<text transform="matrix(0.85 0 0 1 364.0381 392.3117)" class="st3 st4">+ </text>
<text transform="matrix(0.85 0 0 1 373.5771 392.3117)" class="st3 st4">weekdayHours: xs::string [0..1]</text>
<text transform="matrix(0.85 0 0 1 364.0381 399.6789)" class="st3 st4">+ </text>
<text transform="matrix(0.85 0 0 1 373.5771 399.6789)" class="st3 st4">weekendHours: xs::string [0..1]</text>
<text transform="matrix(0.85 0 0 1 364.0381 407.0383)" class="st3 st4">+ </text>
<text transform="matrix(0.85 0 0 1 373.5771 407.0383)" class="st3 st4">phone: xs::string [0..1]</text>
<text transform="matrix(0.85 0 0 1 364.0381 414.4055)" class="st3 st4">+ </text>
<text transform="matrix(0.85 0 0 1 373.5771 414.4055)" class="st3 st4">website: xs::string [0..1]</text>
<path class="st0" d="M392,323.9c0.6,0,1.1,0.5,1.1,1.1l0,0v32l0,0c0,0.6-0.5,1.1-1.1,1.1l0,0l0,0h-79.9l0,0c-0.6,0-1.1-0.5-1.1-1.1
	l0,0v-32c0-0.6,0.5-1.1,1.1-1.1l0,0H392L392,323.9L392,323.9z"/>
<path class="st1" d="M390.7,322.6c0.6,0,1.1,0.5,1.1,1.1l0,0v32l0,0c0,0.6-0.5,1.1-1.1,1.1l0,0l0,0h-79.9l0,0
	c-0.6,0-1.1-0.5-1.1-1.1l0,0v-32c0-0.6,0.5-1.1,1.1-1.1l0,0H390.7L390.7,322.6L390.7,322.6z"/>
<path class="st2" d="M390.7,322.6c0.6,0,1.1,0.5,1.1,1.1l0,0v32l0,0c0,0.6-0.5,1.1-1.1,1.1l0,0l0,0h-79.9l0,0
	c-0.6,0-1.1-0.5-1.1-1.1l0,0v-32c0-0.6,0.5-1.1,1.1-1.1l0,0H390.7L390.7,322.6L390.7,322.6z"/>
<text transform="matrix(0.85 0 0 1 335.8193 331.2492)" class="st3 st4">«DataType»</text>
<text transform="matrix(0.85 0 0 1 310.21 338.6164)" class="st5 st4">uro::IndoorFurnishingAttribute</text>
<line class="st2" x1="309.8" y1="342.1" x2="391.8" y2="342.1"/>
<text transform="matrix(0.85 0 0 1 311.9443 349.8742)" class="st3 st4">+ </text>
<text transform="matrix(0.85 0 0 1 321.4912 349.8742)" class="st3 st4">floorId: xs::string [0..1]</text>
<path class="st0" d="M348.6,362c0.6,0,1.1,0.5,1.1,1.1l0,0v35.5l0,0c0,0.6-0.5,1.1-1.1,1.1l0,0l0,0h-88.5l0,0
	c-0.6,0-1.1-0.5-1.1-1.1l0,0v-35.5c0-0.6,0.5-1.1,1.1-1.1l0,0H348.6L348.6,362L348.6,362z"/>
<path class="st1" d="M347.3,360.7c0.6,0,1.1,0.5,1.1,1.1l0,0v35.5l0,0c0,0.6-0.5,1.1-1.1,1.1l0,0l0,0h-88.5l0,0
	c-0.6,0-1.1-0.5-1.1-1.1l0,0v-35.5c0-0.6,0.5-1.1,1.1-1.1l0,0H347.3L347.3,360.7L347.3,360.7z"/>
<path class="st2" d="M347.3,360.7c0.6,0,1.1,0.5,1.1,1.1l0,0v35.5l0,0c0,0.6-0.5,1.1-1.1,1.1l0,0l0,0h-88.5l0,0
	c-0.6,0-1.1-0.5-1.1-1.1l0,0v-35.5c0-0.6,0.5-1.1,1.1-1.1l0,0H347.3L347.3,360.7L347.3,360.7z"/>
<text transform="matrix(0.85 0 0 1 288.0693 369.3664)" class="st3 st4">«DataType»</text>
<text transform="matrix(0.85 0 0 1 263.7646 376.7258)" class="st5 st4">uro::IndoorPublicTagAttribute</text>
<line class="st2" x1="257.7" y1="380.2" x2="348.4" y2="380.2"/>
<text transform="matrix(0.85 0 0 1 259.8584 387.9914)" class="st3 st4">+ </text>
<text transform="matrix(0.85 0 0 1 269.4053 387.9914)" class="st3 st4">ucode: xs::string [0..1]</text>
<path class="st0" d="M298.3,422.6c0.6,0,1.1,0.5,1.1,1.1l0,0v57.6l0,0c0,0.6-0.5,1.1-1.1,1.1l0,0l0,0h-85.9l0,0
	c-0.6,0-1.1-0.5-1.1-1.1l0,0v-57.6c0-0.6,0.5-1.1,1.1-1.1l0,0H298.3L298.3,422.6L298.3,422.6z"/>
<path class="st1" d="M297,421.3c0.6,0,1.1,0.5,1.1,1.1l0,0V480l0,0c0,0.6-0.5,1.1-1.1,1.1l0,0l0,0h-86l0,0c-0.6,0-1.1-0.5-1.1-1.1
	l0,0v-57.6c0-0.6,0.5-1.1,1.1-1.1l0,0H297L297,421.3L297,421.3z"/>
<path class="st2" d="M297,421.3c0.6,0,1.1,0.5,1.1,1.1l0,0V480l0,0c0,0.6-0.5,1.1-1.1,1.1l0,0l0,0h-86l0,0c-0.6,0-1.1-0.5-1.1-1.1
	l0,0v-57.6c0-0.6,0.5-1.1,1.1-1.1l0,0H297L297,421.3L297,421.3z"/>
<text transform="matrix(0.85 0 0 1 239.0225 429.9914)" class="st3 st4">«DataType»</text>
<text transform="matrix(0.85 0 0 1 219.9209 437.3508)" class="st5 st4">uro::IndoorSpaceAttribute</text>
<line class="st2" x1="209.9" y1="440.8" x2="298.1" y2="440.8"/>
<text transform="matrix(0.85 0 0 1 212.1084 448.6164)" class="st3 st4">+ </text>
<text transform="matrix(0.85 0 0 1 221.6631 448.6164)" class="st3 st4">floorId: xs::string [0..1]</text>
<text transform="matrix(0.85 0 0 1 212.1084 455.9758)" class="st3 st4">+ </text>
<text transform="matrix(0.85 0 0 1 221.6631 455.9758)" class="st3 st4">isRestricted: xs::boolean [0..1]</text>
<text transform="matrix(0.85 0 0 1 212.1084 463.3351)" class="st3 st4">+ </text>
<text transform="matrix(0.85 0 0 1 221.6631 463.3351)" class="st3 st4">suite: xs::string [0..1]</text>
<text transform="matrix(0.85 0 0 1 212.1084 470.7023)" class="st3 st4">+ </text>
<text transform="matrix(0.85 0 0 1 221.6631 470.7023)" class="st3 st4">isPublic: xs::boolean [0..1]</text>
<text transform="matrix(0.85 0 0 1 212.1084 478.0695)" class="st3 st4">+ </text>
<text transform="matrix(0.85 0 0 1 221.6631 478.0695)" class="st3 st4">tollType: gml::CodeType [0..1]</text>
<path class="st0" d="M239.2,331.7c0.6,0,1.1,0.5,1.1,1.1l0,0v35.5l0,0c0,0.6-0.5,1.1-1.1,1.1l0,0l0,0h-79l0,0
	c-0.6,0-1.1-0.5-1.1-1.1l0,0v-35.5c0-0.6,0.5-1.1,1.1-1.1l0,0H239.2L239.2,331.7L239.2,331.7z"/>
<path class="st1" d="M237.9,330.4c0.6,0,1.1,0.5,1.1,1.1l0,0V367l0,0c0,0.6-0.5,1.1-1.1,1.1l0,0l0,0h-79l0,0c-0.6,0-1.1-0.5-1.1-1.1
	l0,0v-35.5c0-0.6,0.5-1.1,1.1-1.1l0,0H237.9L237.9,330.4L237.9,330.4z"/>
<path class="st2" d="M237.9,330.4c0.6,0,1.1,0.5,1.1,1.1l0,0V367l0,0c0,0.6-0.5,1.1-1.1,1.1l0,0l0,0h-79l0,0c-0.6,0-1.1-0.5-1.1-1.1
	l0,0v-35.5c0-0.6,0.5-1.1,1.1-1.1l0,0H237.9L237.9,330.4L237.9,330.4z"/>
<text transform="matrix(0.85 0 0 1 183.4678 339.0383)" class="st3 st4">«DataType»</text>
<text transform="matrix(0.85 0 0 1 163.499 346.4055)" class="st5 st4">uro::IndoorStoreyAttribute</text>
<line class="st2" x1="157.9" y1="349.9" x2="239" y2="349.9"/>
<text transform="matrix(0.85 0 0 1 160.0225 357.6789)" class="st3 st4">+ </text>
<text transform="matrix(0.85 0 0 1 169.5771 357.6789)" class="st3 st4">category: xs::boolean [0..1]</text>
<text transform="matrix(0.85 0 0 1 160.0225 365.0305)" class="st3 st4">+ </text>
<text transform="matrix(0.85 0 0 1 169.5771 365.0305)" class="st3 st4">ordinal: xs::double [0..1]</text>
<path class="st0" d="M198,448.6c0.6,0,1.1,0.5,1.1,1.1l0,0v50.2l0,0c0,0.6-0.5,1.1-1.1,1.1l0,0l0,0H90.8l0,0c-0.6,0-1.1-0.5-1.1-1.1
	l0,0v-50.2c0-0.6,0.5-1.1,1.1-1.1l0,0H198L198,448.6L198,448.6z"/>
<path class="st1" d="M196.7,447.3c0.6,0,1.1,0.5,1.1,1.1l0,0v50.2l0,0c0,0.6-0.5,1.1-1.1,1.1l0,0l0,0H89.5l0,0
	c-0.6,0-1.1-0.5-1.1-1.1l0,0v-50.2c0-0.6,0.5-1.1,1.1-1.1l0,0H196.7L196.7,447.3L196.7,447.3z"/>
<path class="st2" d="M196.7,447.3c0.6,0,1.1,0.5,1.1,1.1l0,0v50.2l0,0c0,0.6-0.5,1.1-1.1,1.1l0,0l0,0H89.5l0,0
	c-0.6,0-1.1-0.5-1.1-1.1l0,0v-50.2c0-0.6,0.5-1.1,1.1-1.1l0,0H196.7L196.7,447.3L196.7,447.3z"/>
<text transform="matrix(0.85 0 0 1 128.3428 455.9758)" class="st3 st4">«DataType»</text>
<text transform="matrix(0.85 0 0 1 100.5537 463.3351)" class="st5 st4">uro::IndoorUserDefinedAttribute</text>
<line class="st2" x1="88.4" y1="466.8" x2="197.8" y2="466.8"/>
<text transform="matrix(0.85 0 0 1 90.5771 474.6008)" class="st3 st4">+ </text>
<text transform="matrix(0.85 0 0 1 100.1318 474.6008)" class="st3 st4">name: xs::string [0..1]</text>
<text transform="matrix(0.85 0 0 1 90.5771 481.9601)" class="st3 st4">+ </text>
<text transform="matrix(0.85 0 0 1 100.1318 481.9601)" class="st3 st4">nominalValue: UserDefinedValue [0..1]</text>
<text transform="matrix(0.85 0 0 1 90.5771 489.3273)" class="st3 st4">+ </text>
<text transform="matrix(0.85 0 0 1 100.1318 489.3273)" class="st3 st4">description: xs::string [0..1]</text>
<text transform="matrix(0.85 0 0 1 90.5771 496.6789)" class="st3 st4">+ </text>
<text transform="matrix(0.85 0 0 1 100.1318 496.6789)" class="st3 st4">unit: xs::string [0..1]</text>
<path class="st0" d="M140.7,401c0.6,0,1.1,0.5,1.1,1.1l0,0v32l0,0c0,0.6-0.5,1.1-1.1,1.1l0,0l0,0H73.4l0,0c-0.6,0-1.1-0.5-1.1-1.1
	l0,0v-32c0-0.6,0.5-1.1,1.1-1.1l0,0H140.7L140.7,401L140.7,401z"/>
<path class="st1" d="M139.4,399.7c0.6,0,1.1,0.5,1.1,1.1l0,0v32l0,0c0,0.6-0.5,1.1-1.1,1.1l0,0l0,0H72.1l0,0c-0.6,0-1.1-0.5-1.1-1.1
	l0,0v-32c0-0.6,0.5-1.1,1.1-1.1l0,0H139.4L139.4,399.7L139.4,399.7z"/>
<path class="st2" d="M139.4,399.7c0.6,0,1.1,0.5,1.1,1.1l0,0v32l0,0c0,0.6-0.5,1.1-1.1,1.1l0,0l0,0H72.1l0,0c-0.6,0-1.1-0.5-1.1-1.1
	l0,0v-32c0-0.6,0.5-1.1,1.1-1.1l0,0H139.4L139.4,399.7L139.4,399.7z"/>
<text transform="matrix(0.85 0 0 1 91.0146 408.3351)" class="st3 st4">«DataType»</text>
<text transform="matrix(0.85 0 0 1 72.3428 415.7023)" class="st5 st4">uro::IndoorZoneAttribute</text>
<line class="st2" x1="71" y1="419.2" x2="140.5" y2="419.2"/>
<text transform="matrix(0.85 0 0 1 73.21 426.9601)" class="st3 st4">+ </text>
<text transform="matrix(0.85 0 0 1 82.7646 426.9601)" class="st3 st4">floorId: xs::string [0..1]</text>
<path class="st0" d="M96.9,180.1c0.6,0,1.1,0.5,1.1,1.1l0,0v32.1l0,0c0,0.6-0.5,1.1-1.1,1.1l0,0l0,0H25.7l0,0
	c-0.6,0-1.1-0.5-1.1-1.1l0,0v-32.1c0-0.6,0.5-1.1,1.1-1.1l0,0H96.9L96.9,180.1L96.9,180.1z"/>
<path class="st8" d="M95.6,178.8c0.6,0,1.1,0.5,1.1,1.1l0,0V212l0,0c0,0.6-0.5,1.1-1.1,1.1l0,0l0,0H24.4l0,0c-0.6,0-1.1-0.5-1.1-1.1
	l0,0v-32.1c0-0.6,0.5-1.1,1.1-1.1l0,0L95.6,178.8L95.6,178.8L95.6,178.8z"/>
<path class="st2" d="M95.6,178.8c0.6,0,1.1,0.5,1.1,1.1l0,0V212l0,0c0,0.6-0.5,1.1-1.1,1.1l0,0l0,0H24.4l0,0c-0.6,0-1.1-0.5-1.1-1.1
	l0,0v-32.1c0-0.6,0.5-1.1,1.1-1.1l0,0L95.6,178.8L95.6,178.8L95.6,178.8z"/>
<text transform="matrix(0.85 0 -0.3169 0.9485 64.7589 186.1734)" class="st3 st6">_CityObject</text>
<text transform="matrix(0.85 0 0 1 41.5303 196.132)" class="st3 st4">«FeatureType»</text>
<text transform="matrix(0.85 0 -0.3169 0.9485 29.3711 203.4976)" class="st3 st6">b</text>
<text transform="matrix(0.85 0 -0.3169 0.9485 29.3711 203.4976)" class="st7 st3 st6">b</text>
<text transform="matrix(0.85 0 -0.3169 0.9485 32.8408 203.4976)" class="st3 st6">l</text>
<text transform="matrix(0.85 0 -0.3169 0.9485 32.8408 203.4976)" class="st7 st3 st6">l</text>
<text transform="matrix(0.85 0 -0.3169 0.9485 34.1426 203.4976)" class="st3 st6">dg</text>
<text transform="matrix(0.85 0 -0.3169 0.9485 34.1426 203.4976)" class="st7 st3 st6">dg</text>
<text transform="matrix(0.85 0 -0.3169 0.9485 41.0811 203.4976)" class="st3 st6">::</text>
<text transform="matrix(0.85 0 -0.3169 0.9485 41.0811 203.4976)" class="st7 st3 st6">::</text>
<text transform="matrix(0.85 0 -0.3169 0.9485 43.6768 203.4976)" class="st3 st6">_</text>
<text transform="matrix(0.85 0 -0.3169 0.9485 43.6768 203.4976)" class="st7 st3 st6">_</text>
<text transform="matrix(0.85 0 -0.3169 0.9485 45.8545 203.4976)" class="st3 st6">B</text>
<text transform="matrix(0.85 0 -0.3169 0.9485 45.8545 203.4976)" class="st7 st3 st6">B</text>
<text transform="matrix(0.85 0 -0.3169 0.9485 49.3242 203.4976)" class="st3 st6">o</text>
<text transform="matrix(0.85 0 -0.3169 0.9485 49.3242 203.4976)" class="st7 st3 st6">o</text>
<text transform="matrix(0.85 0 -0.3169 0.9485 52.794 203.4976)" class="st3 st6">un</text>
<text transform="matrix(0.85 0 -0.3169 0.9485 52.794 203.4976)" class="st7 st3 st6">un</text>
<text transform="matrix(0.85 0 -0.3169 0.9485 59.7334 203.4976)" class="st3 st6">d</text>
<text transform="matrix(0.85 0 -0.3169 0.9485 59.7334 203.4976)" class="st7 st3 st6">d</text>
<text transform="matrix(0.85 0 -0.3169 0.9485 63.2031 203.4976)" class="st3 st6">a</text>
<text transform="matrix(0.85 0 -0.3169 0.9485 63.2031 203.4976)" class="st7 st3 st6">a</text>
<text transform="matrix(0.85 0 -0.3169 0.9485 66.2354 203.4976)" class="st3 st6">r</text>
<text transform="matrix(0.85 0 -0.3169 0.9485 66.2354 203.4976)" class="st7 st3 st6">r</text>
<text transform="matrix(0.85 0 -0.3169 0.9485 68.4014 203.4976)" class="st3 st6">y</text>
<text transform="matrix(0.85 0 -0.3169 0.9485 68.4014 203.4976)" class="st7 st3 st6">y</text>
<text transform="matrix(0.85 0 -0.3169 0.9485 71.4346 203.4976)" class="st3 st6">S</text>
<text transform="matrix(0.85 0 -0.3169 0.9485 71.4346 203.4976)" class="st7 st3 st6">S</text>
<text transform="matrix(0.85 0 -0.3169 0.9485 74.4678 203.4976)" class="st3 st6">u</text>
<text transform="matrix(0.85 0 -0.3169 0.9485 74.4678 203.4976)" class="st7 st3 st6">u</text>
<text transform="matrix(0.85 0 -0.3169 0.9485 77.9375 203.4976)" class="st3 st6">r</text>
<text transform="matrix(0.85 0 -0.3169 0.9485 77.9375 203.4976)" class="st7 st3 st6">r</text>
<text transform="matrix(0.85 0 -0.3169 0.9485 80.1045 203.4976)" class="st3 st6">f</text>
<text transform="matrix(0.85 0 -0.3169 0.9485 80.1045 203.4976)" class="st7 st3 st6">f</text>
<text transform="matrix(0.85 0 -0.3169 0.9485 81.8428 203.4976)" class="st3 st6">a</text>
<text transform="matrix(0.85 0 -0.3169 0.9485 81.8428 203.4976)" class="st7 st3 st6">a</text>
<text transform="matrix(0.85 0 -0.3169 0.9485 84.876 203.4976)" class="st3 st6">ce</text>
<text transform="matrix(0.85 0 -0.3169 0.9485 84.876 203.4976)" class="st7 st3 st6">ce</text>
<path class="st0" d="M361.6,6.9c0.6,0,1.1,0.5,1.1,1.1l0,0v32l0,0c0,0.6-0.5,1.1-1.1,1.1l0,0l0,0h-49.5l0,0c-0.6,0-1.1-0.5-1.1-1.1
	l0,0V8c0-0.6,0.5-1.1,1.1-1.1l0,0H361.6L361.6,6.9L361.6,6.9z"/>
<path class="st8" d="M360.3,5.6c0.6,0,1.1,0.5,1.1,1.1l0,0v32l0,0c0,0.6-0.5,1.1-1.1,1.1l0,0l0,0h-49.5l0,0c-0.6,0-1.1-0.5-1.1-1.1
	l0,0v-32c0-0.6,0.5-1.1,1.1-1.1l0,0L360.3,5.6L360.3,5.6L360.3,5.6z"/>
<path class="st2" d="M360.3,5.6c0.6,0,1.1,0.5,1.1,1.1l0,0v32l0,0c0,0.6-0.5,1.1-1.1,1.1l0,0l0,0h-49.5l0,0c-0.6,0-1.1-0.5-1.1-1.1
	l0,0v-32c0-0.6,0.5-1.1,1.1-1.1l0,0L360.3,5.6L360.3,5.6L360.3,5.6z"/>
<text transform="matrix(0.85 0 -0.3169 0.9485 329.4134 12.9436)" class="st3 st6">_CityObject</text>
<text transform="matrix(0.85 0 0 1 317.1553 22.9133)" class="st3 st4">«FeatureType»</text>
<path class="st0" d="M110.8,119.5c0.6,0,1.1,0.5,1.1,1.1l0,0v51.5l0,0c0,0.6-0.5,1.1-1.1,1.1l0,0l0,0H25.7l0,0
	c-0.6,0-1.1-0.5-1.1-1.1l0,0v-51.5c0-0.6,0.5-1.1,1.1-1.1l0,0L110.8,119.5L110.8,119.5L110.8,119.5z"/>
<path class="st8" d="M109.5,118.2c0.6,0,1.1,0.5,1.1,1.1l0,0v51.5l0,0c0,0.6-0.5,1.1-1.1,1.1l0,0l0,0H24.4l0,0
	c-0.6,0-1.1-0.5-1.1-1.1l0,0v-51.5c0-0.6,0.5-1.1,1.1-1.1l0,0L109.5,118.2L109.5,118.2L109.5,118.2z"/>
<path class="st2" d="M109.5,118.2c0.6,0,1.1,0.5,1.1,1.1l0,0v51.5l0,0c0,0.6-0.5,1.1-1.1,1.1l0,0l0,0H24.4l0,0
	c-0.6,0-1.1-0.5-1.1-1.1l0,0v-51.5c0-0.6,0.5-1.1,1.1-1.1l0,0L109.5,118.2L109.5,118.2L109.5,118.2z"/>
<text transform="matrix(0.85 0 -0.3169 0.9485 78.6383 125.5449)" class="st3 st6">_CityObject</text>
<text transform="matrix(0.85 0 0 1 48.4756 135.507)" class="st3 st4">«FeatureType»</text>
<text transform="matrix(0.85 0 0 1 51.9443 142.8664)" class="st5 st4">bldg::Room</text>
<line class="st2" x1="23.3" y1="146.3" x2="110.5" y2="146.3"/>
<text transform="matrix(0.85 0 0 1 25.4678 154.1164)" class="st3 st4">+ </text>
<text transform="matrix(0.85 0 0 1 35.0225 154.1164)" class="st3 st4">class: gml::CodeType [0..1]</text>
<text transform="matrix(0.85 0 0 1 25.4678 161.4836)" class="st3 st4">+ </text>
<text transform="matrix(0.85 0 0 1 35.0225 161.4836)" class="st3 st4">function: gml::CodeType [0..*]</text>
<text transform="matrix(0.85 0 0 1 25.4678 168.8508)" class="st3 st4">+ </text>
<text transform="matrix(0.85 0 0 1 35.0225 168.8508)" class="st3 st4">usage: gml::CodeType [0..*]</text>
<path class="st0" d="M397.2,50.2c0.6,0,1.1,0.5,1.1,1.1l0,0v51.5l0,0c0,0.6-0.5,1.1-1.1,1.1l0,0l0,0h-85.1l0,0
	c-0.6,0-1.1-0.5-1.1-1.1l0,0V51.3c0-0.6,0.5-1.1,1.1-1.1l0,0H397.2L397.2,50.2L397.2,50.2z"/>
<path class="st8" d="M395.9,48.9c0.6,0,1.1,0.5,1.1,1.1l0,0v51.5l0,0c0,0.6-0.5,1.1-1.1,1.1l0,0l0,0h-85.1l0,0
	c-0.6,0-1.1-0.5-1.1-1.1l0,0V50c0-0.6,0.5-1.1,1.1-1.1l0,0H395.9L395.9,48.9L395.9,48.9z"/>
<path class="st2" d="M395.9,48.9c0.6,0,1.1,0.5,1.1,1.1l0,0v51.5l0,0c0,0.6-0.5,1.1-1.1,1.1l0,0l0,0h-85.1l0,0
	c-0.6,0-1.1-0.5-1.1-1.1l0,0V50c0-0.6,0.5-1.1,1.1-1.1l0,0H395.9L395.9,48.9L395.9,48.9z"/>
<text transform="matrix(0.85 0 -0.3169 0.9485 364.8739 56.2478)" class="st3 st6">_CityObject</text>
<text transform="matrix(0.85 0 0 1 334.9521 66.2101)" class="st3 st4">«FeatureType»</text>
<text transform="matrix(0.85 0 0 1 317.585 73.5695)" class="st5 st4">bldg::IntBuildingInstallation</text>
<line class="st2" x1="309.8" y1="77" x2="397" y2="77"/>
<text transform="matrix(0.85 0 0 1 311.9443 84.8351)" class="st3 st4">+ </text>
<text transform="matrix(0.85 0 0 1 321.4912 84.8351)" class="st3 st4">class: gml::CodeType [0..1]</text>
<text transform="matrix(0.85 0 0 1 311.9443 92.1945)" class="st3 st4">+ </text>
<text transform="matrix(0.85 0 0 1 321.4912 92.1945)" class="st3 st4">function: gml::CodeType [0..*]</text>
<text transform="matrix(0.85 0 0 1 311.9443 99.5617)" class="st3 st4">+ </text>
<text transform="matrix(0.85 0 0 1 321.4912 99.5617)" class="st3 st4">usage: gml::CodeType [0..*]</text>
<path class="st0" d="M397.2,110.8c0.6,0,1.1,0.5,1.1,1.1l0,0v51.5l0,0c0,0.6-0.5,1.1-1.1,1.1l0,0l0,0h-85.1l0,0
	c-0.6,0-1.1-0.5-1.1-1.1l0,0v-51.5c0-0.6,0.5-1.1,1.1-1.1l0,0L397.2,110.8L397.2,110.8L397.2,110.8z"/>
<path class="st8" d="M395.9,109.5c0.6,0,1.1,0.5,1.1,1.1l0,0v51.5l0,0c0,0.6-0.5,1.1-1.1,1.1l0,0l0,0h-85.1l0,0
	c-0.6,0-1.1-0.5-1.1-1.1l0,0v-51.5c0-0.6,0.5-1.1,1.1-1.1l0,0L395.9,109.5L395.9,109.5L395.9,109.5z"/>
<path class="st2" d="M395.9,109.5c0.6,0,1.1,0.5,1.1,1.1l0,0v51.5l0,0c0,0.6-0.5,1.1-1.1,1.1l0,0l0,0h-85.1l0,0
	c-0.6,0-1.1-0.5-1.1-1.1l0,0v-51.5c0-0.6,0.5-1.1,1.1-1.1l0,0L395.9,109.5L395.9,109.5L395.9,109.5z"/>
<text transform="matrix(0.85 0 -0.3169 0.9485 364.8732 116.8828)" class="st3 st6">_CityObject</text>
<text transform="matrix(0.85 0 0 1 334.9521 126.843)" class="st3 st4">«FeatureType»</text>
<text transform="matrix(0.85 0 0 1 323.6631 134.1945)" class="st5 st4">bldg::BuildingFurniture</text>
<line class="st2" x1="309.8" y1="137.7" x2="397" y2="137.7"/>
<text transform="matrix(0.85 0 0 1 311.9443 145.468)" class="st3 st4">+ </text>
<text transform="matrix(0.85 0 0 1 321.4912 145.468)" class="st3 st4">class: gml::CodeType [0..1]</text>
<text transform="matrix(0.85 0 0 1 311.9443 152.8351)" class="st3 st4">+ </text>
<text transform="matrix(0.85 0 0 1 321.4912 152.8351)" class="st3 st4">function: gml::CodeType [0..*]</text>
<text transform="matrix(0.85 0 0 1 311.9443 160.1945)" class="st3 st4">+ </text>
<text transform="matrix(0.85 0 0 1 321.4912 160.1945)" class="st3 st4">usage: gml::CodeType [0..*]</text>
<path class="st0" d="M397.2,171.4c0.6,0,1.1,0.5,1.1,1.1l0,0V224l0,0c0,0.6-0.5,1.1-1.1,1.1l0,0l0,0h-85.1l0,0
	c-0.6,0-1.1-0.5-1.1-1.1l0,0v-51.5c0-0.6,0.5-1.1,1.1-1.1l0,0H397.2L397.2,171.4L397.2,171.4z"/>
<path class="st8" d="M395.9,170.1c0.6,0,1.1,0.5,1.1,1.1l0,0v51.5l0,0c0,0.6-0.5,1.1-1.1,1.1l0,0l0,0h-85.1l0,0
	c-0.6,0-1.1-0.5-1.1-1.1l0,0v-51.5c0-0.6,0.5-1.1,1.1-1.1l0,0H395.9L395.9,170.1L395.9,170.1z"/>
<path class="st2" d="M395.9,170.1c0.6,0,1.1,0.5,1.1,1.1l0,0v51.5l0,0c0,0.6-0.5,1.1-1.1,1.1l0,0l0,0h-85.1l0,0
	c-0.6,0-1.1-0.5-1.1-1.1l0,0v-51.5c0-0.6,0.5-1.1,1.1-1.1l0,0H395.9L395.9,170.1L395.9,170.1z"/>
<text transform="matrix(0.85 0 -0.3169 0.9485 364.8784 177.5029)" class="st3 st6">_CityObject</text>
<text transform="matrix(0.85 0 0 1 334.9521 187.468)" class="st3 st4">«FeatureType»</text>
<text transform="matrix(0.85 0 0 1 325.835 194.8351)" class="st5 st4">grp::CityObjectGroup</text>
<line class="st2" x1="309.8" y1="198.3" x2="397" y2="198.3"/>
<text transform="matrix(0.85 0 0 1 311.9443 206.093)" class="st3 st4">+ </text>
<text transform="matrix(0.85 0 0 1 321.4912 206.093)" class="st3 st4">class: gml::CodeType [0..1]</text>
<text transform="matrix(0.85 0 0 1 311.9443 213.4601)" class="st3 st4">+ </text>
<text transform="matrix(0.85 0 0 1 321.4912 213.4601)" class="st3 st4">function: gml::CodeType [0..*]</text>
<text transform="matrix(0.85 0 0 1 311.9443 220.8195)" class="st3 st4">+ </text>
<text transform="matrix(0.85 0 0 1 321.4912 220.8195)" class="st3 st4">usage: gml::CodeType [0..*]</text>
<path class="st9" d="M102.3,230.8c0.7,0,1.3,0.6,1.3,1.3l0,0v38.1l0,0c0,0.7-0.6,1.3-1.3,1.3l0,0l0,0H24.6l0,0
	c-0.7,0-1.3-0.6-1.3-1.3v-38.1c0-0.7,0.6-1.3,1.3-1.3l0,0H102.3L102.3,230.8L102.3,230.8z"/>
<path class="st10" d="M102.3,230.8c0.7,0,1.3,0.6,1.3,1.3l0,0v38.1l0,0c0,0.7-0.6,1.3-1.3,1.3l0,0l0,0H24.6l0,0
	c-0.7,0-1.3-0.6-1.3-1.3v-38.1c0-0.7,0.6-1.3,1.3-1.3l0,0H102.3L102.3,230.8L102.3,230.8z"/>
<path class="st11" d="M33.5,243.8c0.6,0,1.1,0.5,1.1,1.1l0,0v4.8l0,0c0,0.6-0.5,1.1-1.1,1.1l0,0l0,0h-4.8l0,0
	c-0.6,0-1.1-0.5-1.1-1.1l0,0v-4.8c0-0.6,0.5-1.1,1.1-1.1l0,0H33.5L33.5,243.8L33.5,243.8z"/>
<path class="st12" d="M33.5,243.8c0.6,0,1.1,0.5,1.1,1.1l0,0v4.8l0,0c0,0.6-0.5,1.1-1.1,1.1l0,0l0,0h-4.8l0,0
	c-0.6,0-1.1-0.5-1.1-1.1l0,0v-4.8c0-0.6,0.5-1.1,1.1-1.1l0,0H33.5L33.5,243.8L33.5,243.8z"/>
<text transform="matrix(0.85 0 0 1 37.1865 249.8351)" class="st13 st3 st4">G</text>
<text transform="matrix(0.85 0 0 1 41.0957 249.8351)" class="st13 st3 st4">M</text>
<text transform="matrix(0.85 0 0 1 46.2979 249.8351)" class="st13 st3 st4">L</text>
<text transform="matrix(0.85 0 0 1 48.9033 250.8605)" class="st13 st3 st4">で</text>
<text transform="matrix(0.85 0 0 1 53.2539 250.8605)" class="st13 st3 st4">定義</text>
<text transform="matrix(0.85 0 0 1 64.5391 250.8605)" class="st13 st3 st4">さ</text>
<text transform="matrix(0.85 0 0 1 68.4385 250.8605)" class="st13 st3 st4">れ</text>
<text transform="matrix(0.85 0 0 1 73.6401 250.8605)" class="st13 st3 st4">た</text>
<text transform="matrix(0.85 0 0 1 77.9902 250.8605)" class="st13 st3 st4">ク</text>
<text transform="matrix(0.85 0 0 1 82.3301 250.8605)" class="st13 st3 st4">ラ</text>
<text transform="matrix(0.85 0 0 1 86.2295 250.8605)" class="st13 st3 st4">ス</text>
<path class="st8" d="M33.5,252c0.6,0,1.1,0.5,1.1,1.1l0,0v4.8l0,0c0,0.6-0.5,1.1-1.1,1.1l0,0l0,0h-4.8l0,0c-0.6,0-1.1-0.5-1.1-1.1
	l0,0v-4.8c0-0.6,0.5-1.1,1.1-1.1l0,0L33.5,252L33.5,252L33.5,252z"/>
<path class="st12" d="M33.5,252c0.6,0,1.1,0.5,1.1,1.1l0,0v4.8l0,0c0,0.6-0.5,1.1-1.1,1.1l0,0l0,0h-4.8l0,0c-0.6,0-1.1-0.5-1.1-1.1
	l0,0v-4.8c0-0.6,0.5-1.1,1.1-1.1l0,0L33.5,252L33.5,252L33.5,252z"/>
<text transform="matrix(0.85 0 0 1 37.1865 258.0695)" class="st13 st3 st4">C</text>
<text transform="matrix(0.85 0 0 1 40.665 258.0695)" class="st13 st3 st4">i</text>
<text transform="matrix(0.85 0 0 1 41.9678 258.0695)" class="st13 st3 st4">t</text>
<text transform="matrix(0.85 0 0 1 43.7012 258.0695)" class="st13 st3 st4">y</text>
<text transform="matrix(0.85 0 0 1 46.3071 258.0695)" class="st13 st3 st4">G</text>
<text transform="matrix(0.85 0 0 1 50.2168 258.0695)" class="st13 st3 st4">M</text>
<text transform="matrix(0.85 0 0 1 55.4282 258.0695)" class="st13 st3 st4">L</text>
<text transform="matrix(0.85 0 0 1 58.0342 259.0954)" class="st13 st3 st4">で</text>
<text transform="matrix(0.85 0 0 1 62.374 259.0954)" class="st13 st3 st4">定義</text>
<text transform="matrix(0.85 0 0 1 73.6602 259.0954)" class="st13 st3 st4">さ</text>
<text transform="matrix(0.85 0 0 1 77.5596 259.0954)" class="st13 st3 st4">れ</text>
<text transform="matrix(0.85 0 0 1 82.7715 259.0954)" class="st13 st3 st4">た</text>
<text transform="matrix(0.85 0 0 1 87.1108 259.0954)" class="st13 st3 st4">ク</text>
<text transform="matrix(0.85 0 0 1 91.4512 259.0954)" class="st13 st3 st4">ラ</text>
<text transform="matrix(0.85 0 0 1 95.3604 259.0954)" class="st13 st3 st4">ス</text>
<path class="st1" d="M33.5,260.2c0.6,0,1.1,0.5,1.1,1.1l0,0v4.8l0,0c0,0.6-0.5,1.1-1.1,1.1l0,0l0,0h-4.8l0,0c-0.6,0-1.1-0.5-1.1-1.1
	l0,0v-4.8c0-0.6,0.5-1.1,1.1-1.1l0,0H33.5L33.5,260.2L33.5,260.2z"/>
<path class="st12" d="M33.5,260.2c0.6,0,1.1,0.5,1.1,1.1l0,0v4.8l0,0c0,0.6-0.5,1.1-1.1,1.1l0,0l0,0h-4.8l0,0
	c-0.6,0-1.1-0.5-1.1-1.1l0,0v-4.8c0-0.6,0.5-1.1,1.1-1.1l0,0H33.5L33.5,260.2L33.5,260.2z"/>
<text transform="matrix(0.85 0 0 1 37.1865 266.2883)" class="st13 st3 st4">i</text>
<text transform="matrix(0.85 0 0 1 38.4893 266.2883)" class="st13 st3 st4">-</text>
<text transform="matrix(0.85 0 0 1 40.665 266.2883)" class="st13 st3 st4">U</text>
<text transform="matrix(0.85 0 0 1 44.5635 266.2883)" class="st13 st3 st4">R</text>
<text transform="matrix(0.85 0 0 1 48.042 267.3141)" class="st13 st3 st4">で</text>
<text transform="matrix(0.85 0 0 1 52.3813 267.3141)" class="st13 st3 st4">定義</text>
<text transform="matrix(0.85 0 0 1 63.667 267.3141)" class="st13 st3 st4">さ</text>
<text transform="matrix(0.85 0 0 1 67.5762 267.3141)" class="st13 st3 st4">れ</text>
<text transform="matrix(0.85 0 0 1 72.7783 267.3141)" class="st13 st3 st4">た</text>
<text transform="matrix(0.85 0 0 1 77.1182 267.3141)" class="st13 st3 st4">ク</text>
<text transform="matrix(0.85 0 0 1 81.458 267.3141)" class="st13 st3 st4">ラ</text>
<text transform="matrix(0.85 0 0 1 85.3672 267.3141)" class="st13 st3 st4">ス</text>
<text transform="matrix(0.85 0 0 1 56.7178 239.8742)" class="st13 st14 st15">凡例</text>
<text transform="matrix(0.85 0 0 1 56.7178 239.8742)" class="st16 st14 st15">凡例</text>
<path class="st0" d="M195,6.9c0.6,0,1.1,0.5,1.1,1.1l0,0v101.8l0,0c0,0.6-0.5,1.1-1.1,1.1l0,0l0,0H25.7l0,0c-0.6,0-1.1-0.5-1.1-1.1
	l0,0V8c0-0.6,0.5-1.1,1.1-1.1l0,0H195L195,6.9L195,6.9z"/>
<path class="st8" d="M193.7,5.6c0.6,0,1.1,0.5,1.1,1.1l0,0v101.8l0,0c0,0.6-0.5,1.1-1.1,1.1l0,0l0,0H24.4l0,0
	c-0.6,0-1.1-0.5-1.1-1.1l0,0V6.7c0-0.6,0.5-1.1,1.1-1.1l0,0H193.7L193.7,5.6L193.7,5.6z"/>
<path class="st2" d="M193.7,5.6c0.6,0,1.1,0.5,1.1,1.1l0,0v101.8l0,0c0,0.6-0.5,1.1-1.1,1.1l0,0l0,0H24.4l0,0
	c-0.6,0-1.1-0.5-1.1-1.1l0,0V6.7c0-0.6,0.5-1.1,1.1-1.1l0,0H193.7L193.7,5.6L193.7,5.6z"/>
<text transform="matrix(0.85 0 0 1 90.5771 14.2492)" class="st3 st4">«FeatureType»</text>
<text transform="matrix(0.85 0 -0.3169 0.9485 79.29 21.5993)" class="st3 st6">b</text>
<text transform="matrix(0.85 0 -0.3169 0.9485 79.29 21.5993)" class="st7 st3 st6">b</text>
<text transform="matrix(0.85 0 -0.3169 0.9485 82.7588 21.5993)" class="st3 st6">l</text>
<text transform="matrix(0.85 0 -0.3169 0.9485 82.7588 21.5993)" class="st7 st3 st6">l</text>
<text transform="matrix(0.85 0 -0.3169 0.9485 84.0625 21.5993)" class="st3 st6">dg</text>
<text transform="matrix(0.85 0 -0.3169 0.9485 84.0625 21.5993)" class="st7 st3 st6">dg</text>
<text transform="matrix(0.85 0 -0.3169 0.9485 91.001 21.5993)" class="st3 st6">::</text>
<text transform="matrix(0.85 0 -0.3169 0.9485 91.001 21.5993)" class="st7 st3 st6">::</text>
<text transform="matrix(0.85 0 -0.3169 0.9485 93.5967 21.5993)" class="st3 st6">_</text>
<text transform="matrix(0.85 0 -0.3169 0.9485 93.5967 21.5993)" class="st7 st3 st6">_</text>
<text transform="matrix(0.85 0 -0.3169 0.9485 95.7725 21.5993)" class="st3 st6">A</text>
<text transform="matrix(0.85 0 -0.3169 0.9485 95.7725 21.5993)" class="st7 st3 st6">A</text>
<text transform="matrix(0.85 0 -0.3169 0.9485 99.6709 21.5993)" class="st3 st6">b</text>
<text transform="matrix(0.85 0 -0.3169 0.9485 99.6709 21.5993)" class="st7 st3 st6">b</text>
<text transform="matrix(0.85 0 -0.3169 0.9485 103.1406 21.5993)" class="st3 st6">s</text>
<text transform="matrix(0.85 0 -0.3169 0.9485 103.1406 21.5993)" class="st7 st3 st6">s</text>
<text transform="matrix(0.85 0 -0.3169 0.9485 105.7451 21.5993)" class="st3 st6">t</text>
<text transform="matrix(0.85 0 -0.3169 0.9485 105.7451 21.5993)" class="st7 st3 st6">t</text>
<text transform="matrix(0.85 0 -0.3169 0.9485 107.9121 21.5993)" class="st3 st6">r</text>
<text transform="matrix(0.85 0 -0.3169 0.9485 107.9121 21.5993)" class="st7 st3 st6">r</text>
<text transform="matrix(0.85 0 -0.3169 0.9485 110.0801 21.5993)" class="st3 st6">a</text>
<text transform="matrix(0.85 0 -0.3169 0.9485 110.0801 21.5993)" class="st7 st3 st6">a</text>
<text transform="matrix(0.85 0 -0.3169 0.9485 113.1123 21.5993)" class="st3 st6">c</text>
<text transform="matrix(0.85 0 -0.3169 0.9485 113.1123 21.5993)" class="st7 st3 st6">c</text>
<text transform="matrix(0.85 0 -0.3169 0.9485 115.7168 21.5993)" class="st3 st6">t</text>
<text transform="matrix(0.85 0 -0.3169 0.9485 115.7168 21.5993)" class="st7 st3 st6">t</text>
<text transform="matrix(0.85 0 -0.3169 0.9485 117.8838 21.5993)" class="st3 st6">B</text>
<text transform="matrix(0.85 0 -0.3169 0.9485 117.8838 21.5993)" class="st7 st3 st6">B</text>
<text transform="matrix(0.85 0 -0.3169 0.9485 121.3535 21.5993)" class="st3 st6">u</text>
<text transform="matrix(0.85 0 -0.3169 0.9485 121.3535 21.5993)" class="st7 st3 st6">u</text>
<text transform="matrix(0.85 0 -0.3169 0.9485 124.8242 21.5993)" class="st3 st6">il</text>
<text transform="matrix(0.85 0 -0.3169 0.9485 124.8242 21.5993)" class="st7 st3 st6">il</text>
<text transform="matrix(0.85 0 -0.3169 0.9485 127.4375 21.5993)" class="st3 st6">d</text>
<text transform="matrix(0.85 0 -0.3169 0.9485 127.4375 21.5993)" class="st7 st3 st6">d</text>
<text transform="matrix(0.85 0 -0.3169 0.9485 130.9082 21.5993)" class="st3 st6">i</text>
<text transform="matrix(0.85 0 -0.3169 0.9485 130.9082 21.5993)" class="st7 st3 st6">i</text>
<text transform="matrix(0.85 0 -0.3169 0.9485 132.21 21.5993)" class="st3 st6">n</text>
<text transform="matrix(0.85 0 -0.3169 0.9485 132.21 21.5993)" class="st7 st3 st6">n</text>
<text transform="matrix(0.85 0 -0.3169 0.9485 135.6797 21.5993)" class="st3 st6">g</text>
<text transform="matrix(0.85 0 -0.3169 0.9485 135.6797 21.5993)" class="st7 st3 st6">g</text>
<line class="st2" x1="23.3" y1="25.1" x2="194.8" y2="25.1"/>
<text transform="matrix(0.85 0 0 1 25.4678 32.8664)" class="st3 st4">+ </text>
<text transform="matrix(0.85 0 0 1 35.0225 32.8664)" class="st3 st4">class: gml::CodeType [0..1]</text>
<text transform="matrix(0.85 0 0 1 25.4678 40.2336)" class="st3 st4">+ </text>
<text transform="matrix(0.85 0 0 1 35.0225 40.2336)" class="st3 st4">function: gml::CodeType [0..*]</text>
<text transform="matrix(0.85 0 0 1 25.4678 47.5851)" class="st3 st4">+ </text>
<text transform="matrix(0.85 0 0 1 35.0225 47.5851)" class="st3 st4">usage: gml::CodeType [0..*]</text>
<text transform="matrix(0.85 0 0 1 25.4678 54.9523)" class="st3 st4">+ </text>
<text transform="matrix(0.85 0 0 1 35.0225 54.9523)" class="st3 st4">yearOfConstruction: xs::gYear [0..1]</text>
<text transform="matrix(0.85 0 0 1 25.4678 62.3117)" class="st3 st4">+ </text>
<text transform="matrix(0.85 0 0 1 35.0225 62.3117)" class="st3 st4">yearOfDemolition: xs::gYear [0..1]</text>
<text transform="matrix(0.85 0 0 1 25.4678 69.6789)" class="st3 st4">+ </text>
<text transform="matrix(0.85 0 0 1 35.0225 69.6789)" class="st3 st4">roofType: gml::CodeType [0..1]</text>
<text transform="matrix(0.85 0 0 1 25.4678 77.0383)" class="st3 st4">+ </text>
<text transform="matrix(0.85 0 0 1 35.0225 77.0383)" class="st3 st4">measuredHeight: gml::LengthType [0..1]</text>
<text transform="matrix(0.85 0 0 1 25.4678 84.4055)" class="st3 st4">+ </text>
<text transform="matrix(0.85 0 0 1 35.0225 84.4055)" class="st3 st4">storeysAboveGround: xs::nonNegativeInteger [0..1]</text>
<text transform="matrix(0.85 0 0 1 25.4678 91.7648)" class="st3 st4">+ </text>
<text transform="matrix(0.85 0 0 1 35.0225 91.7648)" class="st3 st4">storeysBelowGround: xs::nonNegativeInteger [0..1]</text>
<text transform="matrix(0.85 0 0 1 25.4678 99.1164)" class="st3 st4">+ </text>
<text transform="matrix(0.85 0 0 1 35.0225 99.1164)" class="st3 st4">storeyHeightsAboveGround: gml::MeasureOrNullListType [0..1]</text>
<text transform="matrix(0.85 0 0 1 25.4678 106.4836)" class="st3 st4">+ </text>
<text transform="matrix(0.85 0 0 1 35.0225 106.4836)" class="st3 st4">storeyHeightsBelowGround: gml::MeasureOrNullListType [0..1]</text>
<path class="st0" d="M431.1,435.6c0.6,0,1.1,0.5,1.1,1.1l0,0V509l0,0c0,0.6-0.5,1.1-1.1,1.1l0,0l0,0H320.8l0,0
	c-0.6,0-1.1-0.5-1.1-1.1l0,0v-72.3c0-0.6,0.5-1.1,1.1-1.1l0,0H431.1L431.1,435.6L431.1,435.6z"/>
<path class="st1" d="M429.8,434.3c0.6,0,1.1,0.5,1.1,1.1l0,0v72.3l0,0c0,0.6-0.5,1.1-1.1,1.1l0,0l0,0H319.5l0,0
	c-0.6,0-1.1-0.5-1.1-1.1l0,0v-72.3c0-0.6,0.5-1.1,1.1-1.1l0,0L429.8,434.3L429.8,434.3L429.8,434.3z"/>
<path class="st2" d="M429.8,434.3c0.6,0,1.1,0.5,1.1,1.1l0,0v72.3l0,0c0,0.6-0.5,1.1-1.1,1.1l0,0l0,0H319.5l0,0
	c-0.6,0-1.1-0.5-1.1-1.1l0,0v-72.3c0-0.6,0.5-1.1,1.1-1.1l0,0L429.8,434.3L429.8,434.3L429.8,434.3z"/>
<text transform="matrix(0.85 0 0 1 359.6865 442.9914)" class="st3 st4">«DataType»</text>
<text transform="matrix(0.85 0 0 1 345.8037 450.3508)" class="st5 st4">uro::UserDefinedValue</text>
<line class="st2" x1="318.5" y1="453.8" x2="430.9" y2="453.8"/>
<text transform="matrix(0.85 0 0 1 320.624 461.6008)" class="st3 st4">+ </text>
<text transform="matrix(0.85 0 0 1 330.1787 461.6008)" class="st3 st4">stringValue: xs::string [0..1]</text>
<text transform="matrix(0.85 0 0 1 320.624 468.9601)" class="st3 st4">+ </text>
<text transform="matrix(0.85 0 0 1 330.1787 468.9601)" class="st3 st4">intValue: xs::integer [0..1]</text>
<text transform="matrix(0.85 0 0 1 320.624 476.3273)" class="st3 st4">+ </text>
<text transform="matrix(0.85 0 0 1 330.1787 476.3273)" class="st3 st4">doubleValue: xs::double [0..1]</text>
<text transform="matrix(0.85 0 0 1 320.624 483.6945)" class="st3 st4">+ </text>
<text transform="matrix(0.85 0 0 1 330.1787 483.6945)" class="st3 st4">codeValue: gml::CodeType [0..1]</text>
<text transform="matrix(0.85 0 0 1 320.624 491.0539)" class="st3 st4">+ </text>
<text transform="matrix(0.85 0 0 1 330.1787 491.0539)" class="st3 st4">dateValue: xs::date [0..1]</text>
<text transform="matrix(0.85 0 0 1 320.624 498.4133)" class="st3 st4">+ </text>
<text transform="matrix(0.85 0 0 1 330.1787 498.4133)" class="st3 st4">uriValue: xs::anyURI [0..1]</text>
<text transform="matrix(0.85 0 0 1 320.624 505.7805)" class="st3 st4">+ </text>
<text transform="matrix(0.85 0 0 1 330.1787 505.7805)" class="st3 st4">measureValue: gml::MeasureType [0..1]</text>
<line class="st17" x1="351" y1="322.2" x2="351" y2="296.2"/>
<line class="st17" x1="230.8" y1="296.2" x2="230.8" y2="275"/>
<polyline class="st18" points="233.4,281.9 228.2,281.9 230.8,275 233.4,281.9 "/>
<polygon class="st17" points="233.4,281.9 228.2,281.9 230.8,275 "/>
<line class="st17" x1="105.3" y1="399.2" x2="105.3" y2="296.2"/>
<line class="st17" x1="143.1" y1="446.9" x2="143.1" y2="296.2"/>
<line class="st17" x1="198.7" y1="330" x2="198.7" y2="296.2"/>
<line class="st17" x1="302.8" y1="360.3" x2="302.8" y2="296.2"/>
<line class="st17" x1="50.6" y1="334.7" x2="50.6" y2="296.2"/>
<line class="st17" x1="50.6" y1="296.2" x2="230.8" y2="296.2"/>
<line class="st17" x1="423.5" y1="364.6" x2="423.5" y2="296.2"/>
<line class="st17" x1="423.5" y1="296.2" x2="230.8" y2="296.2"/>
<line class="st17" x1="230.8" y1="196.1" x2="97.1" y2="196.1"/>
<polyline class="st19" points="101.4,194 97.1,196.1 101.4,198.3 105.8,196.1 101.4,194 "/>
<polygon class="st17" points="101.4,194 97.1,196.1 101.4,198.3 105.8,196.1 "/>
<line class="st17" x1="230.8" y1="239.9" x2="230.8" y2="22.9"/>
<line class="st17" x1="230.8" y1="22.9" x2="309.8" y2="22.9"/>
<polyline class="st19" points="305.4,25.1 309.8,22.9 305.4,20.7 301.1,22.9 305.4,25.1 "/>
<polygon class="st17" points="305.4,25.1 309.8,22.9 305.4,20.7 301.1,22.9 "/>
<path class="st17" d="M230.8,239.9l2.6-6.5 M230.8,239.9l-2.6-6.5"/>
<line class="st17" x1="230.8" y1="145" x2="111" y2="145"/>
<polyline class="st19" points="115.3,142.9 111,145 115.3,147.2 119.7,145 115.3,142.9 "/>
<polygon class="st17" points="115.3,142.9 111,145 115.3,147.2 119.7,145 "/>
<line class="st17" x1="230.8" y1="75.7" x2="309.8" y2="75.7"/>
<polyline class="st19" points="305.4,77.9 309.8,75.7 305.4,73.6 301.1,75.7 305.4,77.9 "/>
<polygon class="st17" points="305.4,77.9 309.8,75.7 305.4,73.6 301.1,75.7 "/>
<line class="st17" x1="230.8" y1="136.4" x2="309.8" y2="136.4"/>
<polyline class="st19" points="305.4,138.5 309.8,136.4 305.4,134.2 301.1,136.4 305.4,138.5 "/>
<polygon class="st17" points="305.4,138.5 309.8,136.4 305.4,134.2 301.1,136.4 "/>
<line class="st17" x1="230.8" y1="197" x2="309.8" y2="197"/>
<polyline class="st19" points="305.4,199.2 309.8,197 305.4,194.8 301.1,197 305.4,199.2 "/>
<polygon class="st17" points="305.4,199.2 309.8,197 305.4,194.8 301.1,197 "/>
<line class="st17" x1="230.8" y1="57.5" x2="195.2" y2="57.5"/>
<polyline class="st19" points="199.5,55.4 195.2,57.5 199.5,59.7 203.9,57.5 199.5,55.4 "/>
<polygon class="st17" points="199.5,55.4 195.2,57.5 199.5,59.7 203.9,57.5 "/>
<line class="st17" x1="253.8" y1="420.9" x2="253.8" y2="296.2"/>
<polyline class="st18" points="-0.6,1212 -0.6,1225 101.6,1225 101.6,1212 -0.6,1212 "/>
<text transform="matrix(0.85 0 0 1 179.124 152.8351)" class="st20 st21">+indoorRoomAttribute</text>
<polyline class="st18" points="-0.6,1212 -0.6,1225 16,1225 16,1212 -0.6,1212 "/>
<text transform="matrix(0.85 0 0 1 237.7178 161.9211)" class="st20 st21">0..*</text>
<polyline class="st18" points="-0.6,1212 -0.6,1225 117,1225 117,1212 -0.6,1212 "/>
<text transform="matrix(0.85 0 0 1 234.249 154.9914)" class="st20 st21">+indoorFurnitureAttribute</text>
<polyline class="st18" points="-0.6,1212 -0.6,1225 16,1225 16,1212 -0.6,1212 "/>
<text transform="matrix(0.85 0 0 1 239.4521 116.4445)" class="st20 st21">0..*</text>
<polyline class="st18" points="-0.6,1212 -0.6,1225 151.9,1225 151.9,1212 -0.6,1212 "/>
<text transform="matrix(0.85 0 0 1 155.249 205.2336)" class="st20 st21">+indoorBoundarySurfaceAttribute</text>
<polyline class="st18" points="-0.6,1212 -0.6,1225 16,1225 16,1212 -0.6,1212 "/>
<text transform="matrix(0.85 0 0 1 215.1475 131.1711)" class="st20 st21">0..*</text>
<polyline class="st18" points="-0.6,1212 -0.6,1225 111.3,1225 111.3,1212 -0.6,1212 "/>
<text transform="matrix(0.85 0 0 1 173.4756 123.382)" class="st20 st21">+indoorBuildingAttribute</text>
<polyline class="st18" points="-0.6,1212 -0.6,1225 16,1225 16,1212 -0.6,1212 "/>
<text transform="matrix(0.85 0 0 1 236.4131 219.0851)" class="st20 st21">0..*</text>
<polyline class="st18" points="-0.6,1212 -0.6,1225 137.4,1225 137.4,1212 -0.6,1212 "/>
<text transform="matrix(0.85 0 0 1 234.249 107.3508)" class="st20 st21">+indoorIntInstallationAttribute</text>
<polyline class="st18" points="-0.6,1212 -0.6,1225 16,1225 16,1212 -0.6,1212 "/>
<text transform="matrix(0.85 0 0 1 213.4131 160.1945)" class="st20 st21">0..*</text>
<polyline class="st18" points="-0.6,1212 -0.6,1225 113,1225 113,1212 -0.6,1212 "/>
<text transform="matrix(0.85 0 0 1 236.8506 54.9523)" class="st20 st21">+indoorOpeningAttribute</text>
<polyline class="st18" points="-0.6,1212 -0.6,1225 16,1225 16,1212 -0.6,1212 "/>
<text transform="matrix(0.85 0 0 1 240.3193 69.2414)" class="st20 st21">0..*</text>
<polyline class="st18" points="-0.6,1212 -0.6,1225 104.1,1225 104.1,1212 -0.6,1212 "/>
<text transform="matrix(0.85 0 0 1 237.7178 206.093)" class="st20 st21">+indoorStoreyAttribute</text>
<polyline class="st18" points="-0.6,1212 -0.6,1225 16,1225 16,1212 -0.6,1212 "/>
<text transform="matrix(0.85 0 0 1 212.9756 208.6945)" class="st20 st21">0..*</text>
<text transform="matrix(0.85 0 -0.3169 0.9485 315.1738 30.2688)" class="st3 st22">b</text>
<text transform="matrix(0.85 0 -0.3169 0.9485 315.1738 30.2688)" class="st7 st3 st22">b</text>
<text transform="matrix(0.85 0 -0.3169 0.9485 318.6435 30.2688)" class="st3 st22">l</text>
<text transform="matrix(0.85 0 -0.3169 0.9485 318.6435 30.2688)" class="st7 st3 st22">l</text>
<text transform="matrix(0.85 0 -0.3169 0.9485 319.9462 30.2688)" class="st3 st22">dg</text>
<text transform="matrix(0.85 0 -0.3169 0.9485 319.9462 30.2688)" class="st7 st3 st22">dg</text>
<text transform="matrix(0.85 0 -0.3169 0.9485 326.8857 30.2688)" class="st3 st22">::</text>
<text transform="matrix(0.85 0 -0.3169 0.9485 326.8857 30.2688)" class="st7 st3 st22">::</text>
<text transform="matrix(0.85 0 -0.3169 0.9485 329.4804 30.2688)" class="st3 st22">_</text>
<text transform="matrix(0.85 0 -0.3169 0.9485 329.4804 30.2688)" class="st7 st3 st22">_</text>
<text transform="matrix(0.85 0 -0.3169 0.9485 331.6572 30.2688)" class="st3 st22">O</text>
<text transform="matrix(0.85 0 -0.3169 0.9485 331.6572 30.2688)" class="st7 st3 st22">O</text>
<text transform="matrix(0.85 0 -0.3169 0.9485 335.9921 30.2688)" class="st3 st22">p</text>
<text transform="matrix(0.85 0 -0.3169 0.9485 335.9921 30.2688)" class="st7 st3 st22">p</text>
<text transform="matrix(0.85 0 -0.3169 0.9485 339.4619 30.2688)" class="st3 st22">e</text>
<text transform="matrix(0.85 0 -0.3169 0.9485 339.4619 30.2688)" class="st7 st3 st22">e</text>
<text transform="matrix(0.85 0 -0.3169 0.9485 342.4941 30.2688)" class="st3 st22">n</text>
<text transform="matrix(0.85 0 -0.3169 0.9485 342.4941 30.2688)" class="st7 st3 st22">n</text>
<text transform="matrix(0.85 0 -0.3169 0.9485 345.9638 30.2688)" class="st3 st22">i</text>
<text transform="matrix(0.85 0 -0.3169 0.9485 345.9638 30.2688)" class="st7 st3 st22">i</text>
<text transform="matrix(0.85 0 -0.3169 0.9485 347.2665 30.2688)" class="st3 st22">n</text>
<text transform="matrix(0.85 0 -0.3169 0.9485 347.2665 30.2688)" class="st7 st3 st22">n</text>
<text transform="matrix(0.85 0 -0.3169 0.9485 350.7353 30.2688)" class="st3 st22">g</text>
<text transform="matrix(0.85 0 -0.3169 0.9485 350.7353 30.2688)" class="st7 st3 st22">g</text>
</svg>
