<?xml version="1.0" encoding="utf-8"?>
<!-- Generator: Adobe Illustrator 27.0.0, SVG Export Plug-In . SVG Version: 6.00 Build 0)  -->
<svg version="1.1" id="レイヤー_1" xmlns="http://www.w3.org/2000/svg" xmlns:xlink="http://www.w3.org/1999/xlink" x="0px"
	 y="0px" viewBox="0 0 638.9747925 462.4504395" style="enable-background:new 0 0 638.9747925 462.4504395;" xml:space="preserve">
<style type="text/css">
	.st0{fill-rule:evenodd;clip-rule:evenodd;fill:#FFCCFF;}
	.st1{fill:none;stroke:#000000;stroke-width:1.0285715;stroke-linecap:round;stroke-linejoin:bevel;stroke-miterlimit:10;}
	.st2{font-family:'YuGothicUI-Regular';}
	.st3{font-size:6.6857147px;}
	.st4{font-family:'YuGothicUI-Bold';}
	.st5{fill-rule:evenodd;clip-rule:evenodd;fill:#FFFFCC;}
	.st6{font-size:7.0386257px;}
	.st7{fill:none;stroke:#000000;stroke-width:0.1910204;stroke-miterlimit:10;}
	.st8{fill-rule:evenodd;clip-rule:evenodd;fill:#F0F0F0;}
	.st9{fill:none;stroke:#D7D7D7;stroke-width:0.5142857;stroke-linecap:square;stroke-miterlimit:10;}
	.st10{fill-rule:evenodd;clip-rule:evenodd;fill:#CCFFCC;}
	.st11{fill:none;stroke:#000000;stroke-width:0.5142857;stroke-linecap:square;stroke-miterlimit:10;}
	.st12{fill:#003060;}
	.st13{font-size:8.2285719px;}
	.st14{letter-spacing:-1.1764705;}
	.st15{fill-rule:evenodd;clip-rule:evenodd;}
	.st16{fill-rule:evenodd;clip-rule:evenodd;fill:#FFFFFF;}
</style>
<polygon class="st0" points="232.7784729,453.1130981 342.4792786,453.1130981 342.4792786,329.1702271 232.7784729,329.1702271 "/>
<polygon class="st1" points="232.7784729,453.1130981 342.4792786,453.1130981 342.4792786,329.1702271 232.7784729,329.1702271 "/>
<text transform="matrix(0.85 0 0 1 269.8572083 339.4485474)" class="st2 st3">«DataType»</text>
<text transform="matrix(0.85 0 0 1 253.0915833 348.1985474)" class="st4 st3">uro::FacilityIdAttribute</text>
<line class="st1" x1="232.7784729" y1="352.3130493" x2="341.971405" y2="352.3130493"/>
<text transform="matrix(0.85 0 0 1 235.3181458 361.5657349)" class="st2 st3">+</text>
<text transform="matrix(0.85 0 0 1 239.8874817 361.5657349)" class="st2 st3"> </text>
<text transform="matrix(0.85 0 0 1 246.4900208 361.5657349)" class="st2 st3">id: xs::string [0..1]</text>
<text transform="matrix(0.85 0 0 1 235.3181458 370.3079224)" class="st2 st3">+</text>
<text transform="matrix(0.85 0 0 1 239.8874817 370.3079224)" class="st2 st3"> </text>
<text transform="matrix(0.85 0 0 1 246.4900208 370.3079224)" class="st2 st3">partId: xs::string [0..1]</text>
<text transform="matrix(0.85 0 0 1 235.3181458 379.0579224)" class="st2 st3">+</text>
<text transform="matrix(0.85 0 0 1 239.8874817 379.0579224)" class="st2 st3"> </text>
<text transform="matrix(0.85 0 0 1 246.4900208 379.0579224)" class="st2 st3">branchId: xs::string [0..1]</text>
<text transform="matrix(0.85 0 0 1 235.3181458 387.8001099)" class="st2 st3">+</text>
<text transform="matrix(0.85 0 0 1 239.8874817 387.8001099)" class="st2 st3"> </text>
<text transform="matrix(0.85 0 0 1 246.4900208 387.8001099)" class="st2 st3">prefecture: gml::CodeType [0..*]</text>
<text transform="matrix(0.85 0 0 1 235.3181458 396.5422974)" class="st2 st3">+</text>
<text transform="matrix(0.85 0 0 1 239.8874817 396.5422974)" class="st2 st3"> </text>
<text transform="matrix(0.85 0 0 1 246.4900208 396.5422974)" class="st2 st3">city: gml::CodeType [0..*]</text>
<text transform="matrix(0.85 0 0 1 235.3181458 405.2922974)" class="st2 st3">+</text>
<text transform="matrix(0.85 0 0 1 239.8874817 405.2922974)" class="st2 st3"> </text>
<text transform="matrix(0.85 0 0 1 246.4900208 405.2922974)" class="st2 st3">route: xs::string [0..1]</text>
<text transform="matrix(0.85 0 0 1 235.3181458 414.0266724)" class="st2 st3">+</text>
<text transform="matrix(0.85 0 0 1 239.8874817 414.0266724)" class="st2 st3"> </text>
<text transform="matrix(0.85 0 0 1 246.4900208 414.0266724)" class="st2 st3">startPost: xs::string [0..1]</text>
<text transform="matrix(0.85 0 0 1 235.3181458 422.7688599)" class="st2 st3">+</text>
<text transform="matrix(0.85 0 0 1 239.8874817 422.7688599)" class="st2 st3"> </text>
<text transform="matrix(0.85 0 0 1 246.4900208 422.7688599)" class="st2 st3">endPost: xs::string [0..1]</text>
<text transform="matrix(0.85 0 0 1 235.3181458 431.5110474)" class="st2 st3">+</text>
<text transform="matrix(0.85 0 0 1 239.8874817 431.5110474)" class="st2 st3"> </text>
<text transform="matrix(0.85 0 0 1 246.4900208 431.5110474)" class="st2 st3">startLat: xs::double [0..1]</text>
<text transform="matrix(0.85 0 0 1 235.3181458 440.2454224)" class="st2 st3">+</text>
<text transform="matrix(0.85 0 0 1 239.8874817 440.2454224)" class="st2 st3"> </text>
<text transform="matrix(0.85 0 0 1 246.4900208 440.2454224)" class="st2 st3">startLong: xs::double [0..1]</text>
<text transform="matrix(0.85 0 0 1 235.3181458 448.9954224)" class="st2 st3">+</text>
<text transform="matrix(0.85 0 0 1 239.8874817 448.9954224)" class="st2 st3"> </text>
<text transform="matrix(0.85 0 0 1 246.4900208 448.9954224)" class="st2 st3">alternativeName: xs::string [0..*]</text>
<polygon class="st0" points="379.5540771,393.9702759 482.1446228,393.9702759 482.1446228,348.7130737 379.5540771,348.7130737 "/>
<polygon class="st1" points="379.5540771,393.9702759 482.1446228,393.9702759 482.1446228,348.7130737 379.5540771,348.7130737 "/>
<text transform="matrix(0.85 0 0 1 413.0681458 358.9954224)" class="st2 st3">«DataType»</text>
<text transform="matrix(0.85 0 0 1 392.2478333 367.7376099)" class="st4 st3">uro::FacilityTypeAttribute</text>
<line class="st1" x1="379.5540771" y1="371.855957" x2="481.6367493" y2="371.855957"/>
<text transform="matrix(0.85 0 0 1 382.0915833 381.1047974)" class="st2 st3">+</text>
<text transform="matrix(0.85 0 0 1 386.6609192 381.1047974)" class="st2 st3"> </text>
<text transform="matrix(0.85 0 0 1 393.2634583 381.1047974)" class="st2 st3">class: gml::CodeType [0..1]</text>
<text transform="matrix(0.85 0 0 1 382.0915833 389.8547974)" class="st2 st3">+</text>
<text transform="matrix(0.85 0 0 1 386.6609192 389.8547974)" class="st2 st3"> </text>
<text transform="matrix(0.85 0 0 1 393.2634583 389.8547974)" class="st2 st3">function: gml::CodeType [0..*]</text>
<polygon class="st5" points="470.4635315,46.827301 539.5344238,46.827301 539.5344238,5.6844797 470.4635315,5.6844797 "/>
<polygon class="st1" points="470.4635315,46.827301 539.5344238,46.827301 539.5344238,5.6844797 470.4635315,5.6844797 "/>
<text transform="matrix(0.85 0 0 1 483.1618958 15.9714823)" class="st2 st3">«FeatureType»</text>
<text transform="matrix(0.85 0 0 1 489.2556458 24.7136707)" class="st4 st3">tran::Road</text>
<polygon class="st5" points="309.9753418,277.7416382 417.6446228,277.7416382 417.6446228,213.4559174 309.9753418,213.4559174 "/>
<polygon class="st1" points="309.9753418,277.7416382 417.6446228,277.7416382 417.6446228,213.4559174 309.9753418,213.4559174 "/>
<text transform="matrix(0.85 0 0 1 341.9743958 223.7449188)" class="st2 st3">«FeatureType»</text>
<text transform="matrix(0.85 0 0 1 333.3337708 232.4875946)" class="st4 st3">tran::TrafficComplex</text>
<line class="st1" x1="309.9753418" y1="236.5988007" x2="417.1367493" y2="236.5988007"/>
<text transform="matrix(0.85 0 0 1 312.5134583 245.8547821)" class="st2 st3">+</text>
<text transform="matrix(0.85 0 0 1 317.0827942 245.8547821)" class="st2 st3"> </text>
<text transform="matrix(0.85 0 0 1 323.6853333 245.8547821)" class="st2 st3">class: gml::CodeType [0..1]</text>
<text transform="matrix(0.85 0 0 1 312.5134583 254.5969696)" class="st2 st3">+</text>
<text transform="matrix(0.85 0 0 1 317.0827942 254.5969696)" class="st2 st3"> </text>
<text transform="matrix(0.85 0 0 1 323.6853333 254.5969696)" class="st2 st3">function: gml::CodeType [0..*]</text>
<text transform="matrix(0.85 0 0 1 312.5134583 263.3391724)" class="st2 st3">+</text>
<text transform="matrix(0.85 0 0 1 317.0827942 263.3391724)" class="st2 st3"> </text>
<text transform="matrix(0.85 0 0 1 323.6853333 263.3391724)" class="st2 st3">usage: gml::CodeType [0..*]</text>
<polygon class="st5" points="470.4635315,185.1702118 531.4084473,185.1702118 531.4084473,144.0273285 470.4635315,144.0273285 "/>
<polygon class="st1" points="470.4635315,185.1702118 531.4084473,185.1702118 531.4084473,144.0273285 470.4635315,144.0273285 "/>
<text transform="matrix(0.85 0 0 1 479.0993958 154.3074188)" class="st2 st3">«FeatureType»</text>
<text transform="matrix(0.85 0 0 1 484.6853333 163.0496063)" class="st4 st3">tran::Track</text>
<polygon class="st5" points="470.4635315,93.1130829 531.4084473,93.1130829 531.4084473,51.9701843 470.4635315,51.9701843 "/>
<polygon class="st1" points="470.4635315,93.1130829 531.4084473,93.1130829 531.4084473,51.9701843 470.4635315,51.9701843 "/>
<text transform="matrix(0.85 0 0 1 479.0993958 62.2527313)" class="st2 st3">«FeatureType»</text>
<text transform="matrix(0.85 0 0 1 481.6384583 70.9949188)" class="st4 st3">tran::Railway</text>
<polygon class="st5" points="470.4635315,139.3987885 531.4084473,139.3987885 531.4084473,98.2559052 470.4635315,98.2559052 "/>
<polygon class="st1" points="470.4635315,139.3987885 531.4084473,139.3987885 531.4084473,98.2559052 470.4635315,98.2559052 "/>
<text transform="matrix(0.85 0 0 1 479.0993958 108.5417938)" class="st2 st3">«FeatureType»</text>
<text transform="matrix(0.85 0 0 1 482.1462708 117.2761688)" class="st4 st3">tran::Square</text>
<polygon class="st0" points="499.412384,392.4273682 584.7352295,392.4273682 584.7352295,351.2844849 499.412384,351.2844849 "/>
<polygon class="st1" points="499.412384,392.4273682 584.7352295,392.4273682 584.7352295,351.2844849 499.412384,351.2844849 "/>
<text transform="matrix(0.85 0 0 1 524.2947388 361.5657349)" class="st2 st3">«DataType»</text>
<text transform="matrix(0.85 0 -0.3126727 0.9498609 510.5823059 370.321106)" class="st2 st6">u</text>
<text transform="matrix(0.85 0 -0.3126727 0.9498609 510.5823059 370.321106)" class="st7 st2 st6">u</text>
<text transform="matrix(0.85 0 -0.3126727 0.9498609 514.6418457 370.321106)" class="st2 st6">r</text>
<text transform="matrix(0.85 0 -0.3126727 0.9498609 514.6418457 370.321106)" class="st7 st2 st6">r</text>
<text transform="matrix(0.85 0 -0.3126727 0.9498609 517.1750488 370.321106)" class="st2 st6">o</text>
<text transform="matrix(0.85 0 -0.3126727 0.9498609 517.1750488 370.321106)" class="st7 st2 st6">o</text>
<text transform="matrix(0.85 0 -0.3126727 0.9498609 521.2355957 370.321106)" class="st2 st6">::</text>
<text transform="matrix(0.85 0 -0.3126727 0.9498609 521.2355957 370.321106)" class="st7 st2 st6">::</text>
<text transform="matrix(0.85 0 -0.3126727 0.9498609 524.2697754 370.321106)" class="st2 st6">F</text>
<text transform="matrix(0.85 0 -0.3126727 0.9498609 524.2697754 370.321106)" class="st7 st2 st6">F</text>
<text transform="matrix(0.85 0 -0.3126727 0.9498609 527.8234863 370.321106)" class="st2 st6">a</text>
<text transform="matrix(0.85 0 -0.3126727 0.9498609 527.8234863 370.321106)" class="st7 st2 st6">a</text>
<text transform="matrix(0.85 0 -0.3126727 0.9498609 531.3742676 370.321106)" class="st2 st6">c</text>
<text transform="matrix(0.85 0 -0.3126727 0.9498609 531.3742676 370.321106)" class="st7 st2 st6">c</text>
<text transform="matrix(0.85 0 -0.3126727 0.9498609 534.4240723 370.321106)" class="st2 st6">ili</text>
<text transform="matrix(0.85 0 -0.3126727 0.9498609 534.4240723 370.321106)" class="st7 st2 st6">ili</text>
<text transform="matrix(0.85 0 -0.3126727 0.9498609 539.0031738 370.321106)" class="st2 st6">t</text>
<text transform="matrix(0.85 0 -0.3126727 0.9498609 539.0031738 370.321106)" class="st7 st2 st6">t</text>
<text transform="matrix(0.85 0 -0.3126727 0.9498609 541.5373535 370.321106)" class="st2 st6">y</text>
<text transform="matrix(0.85 0 -0.3126727 0.9498609 541.5373535 370.321106)" class="st7 st2 st6">y</text>
<text transform="matrix(0.85 0 -0.3126727 0.9498609 545.0891113 370.321106)" class="st2 st6">A</text>
<text transform="matrix(0.85 0 -0.3126727 0.9498609 545.0891113 370.321106)" class="st7 st2 st6">A</text>
<text transform="matrix(0.85 0 -0.3126727 0.9498609 549.6574707 370.321106)" class="st2 st6">tt</text>
<text transform="matrix(0.85 0 -0.3126727 0.9498609 549.6574707 370.321106)" class="st7 st2 st6">tt</text>
<text transform="matrix(0.85 0 -0.3126727 0.9498609 554.7268066 370.321106)" class="st2 st6">r</text>
<text transform="matrix(0.85 0 -0.3126727 0.9498609 554.7268066 370.321106)" class="st7 st2 st6">r</text>
<text transform="matrix(0.85 0 -0.3126727 0.9498609 557.2600098 370.321106)" class="st2 st6">i</text>
<text transform="matrix(0.85 0 -0.3126727 0.9498609 557.2600098 370.321106)" class="st7 st2 st6">i</text>
<text transform="matrix(0.85 0 -0.3126727 0.9498609 558.786377 370.321106)" class="st2 st6">b</text>
<text transform="matrix(0.85 0 -0.3126727 0.9498609 558.786377 370.321106)" class="st7 st2 st6">b</text>
<text transform="matrix(0.85 0 -0.3126727 0.9498609 562.8459473 370.321106)" class="st2 st6">u</text>
<text transform="matrix(0.85 0 -0.3126727 0.9498609 562.8459473 370.321106)" class="st7 st2 st6">u</text>
<text transform="matrix(0.85 0 -0.3126727 0.9498609 566.9055176 370.321106)" class="st2 st6">t</text>
<text transform="matrix(0.85 0 -0.3126727 0.9498609 566.9055176 370.321106)" class="st7 st2 st6">t</text>
<text transform="matrix(0.85 0 -0.3126727 0.9498609 569.4396973 370.321106)" class="st2 st6">e</text>
<text transform="matrix(0.85 0 -0.3126727 0.9498609 569.4396973 370.321106)" class="st7 st2 st6">e</text>
<line class="st1" x1="499.412384" y1="374.4273682" x2="584.227356" y2="374.4273682"/>
<text transform="matrix(0.85 0 0 1 501.9509583 383.6829224)" class="st2 st3">+</text>
<text transform="matrix(0.85 0 0 1 506.5202942 383.6829224)" class="st2 st3"> </text>
<text transform="matrix(0.85 0 0 1 513.1228638 383.6829224)" class="st2 st3">facilityId: xs::string [0..1]</text>
<polygon class="st5" points="323.1800537,129.1130829 404.4399109,129.1130829 404.4399109,87.9701996 323.1800537,87.9701996 "/>
<polygon class="st1" points="323.1800537,129.1130829 404.4399109,129.1130829 404.4399109,87.9701996 323.1800537,87.9701996 "/>
<text transform="matrix(0.85 0 -0.3126727 0.9498609 370.4045105 96.7166595)" class="st2 st6">_CityObject</text>
<text transform="matrix(0.85 0 -0.3126727 0.9498609 355.6907349 107.0018692)" class="st2 st6">t</text>
<text transform="matrix(0.85 0 -0.3126727 0.9498609 355.6907349 107.0018692)" class="st7 st2 st6">t</text>
<text transform="matrix(0.85 0 -0.3126727 0.9498609 358.2249146 107.0018692)" class="st2 st6">r</text>
<text transform="matrix(0.85 0 -0.3126727 0.9498609 358.2249146 107.0018692)" class="st7 st2 st6">r</text>
<text transform="matrix(0.85 0 -0.3126727 0.9498609 360.7581177 107.0018692)" class="st2 st6">a</text>
<text transform="matrix(0.85 0 -0.3126727 0.9498609 360.7581177 107.0018692)" class="st7 st2 st6">a</text>
<text transform="matrix(0.85 0 -0.3126727 0.9498609 364.3088989 107.0018692)" class="st2 st6">n</text>
<text transform="matrix(0.85 0 -0.3126727 0.9498609 364.3088989 107.0018692)" class="st7 st2 st6">n</text>
<text transform="matrix(0.85 0 -0.3126727 0.9498609 368.3684692 107.0018692)" class="st2 st6">:</text>
<text transform="matrix(0.85 0 -0.3126727 0.9498609 368.3684692 107.0018692)" class="st7 st2 st6">:</text>
<text transform="matrix(0.85 0 -0.3126727 0.9498609 369.8860474 107.0018692)" class="st2 st6">:</text>
<text transform="matrix(0.85 0 -0.3126727 0.9498609 369.8860474 107.0018692)" class="st7 st2 st6">:</text>
<text transform="matrix(0.85 0 -0.3126727 0.9498609 329.7897339 115.7435608)" class="st2 st6">_</text>
<text transform="matrix(0.85 0 -0.3126727 0.9498609 329.7897339 115.7435608)" class="st7 st2 st6">_</text>
<text transform="matrix(0.85 0 -0.3126727 0.9498609 332.3317261 115.7435608)" class="st2 st6">T</text>
<text transform="matrix(0.85 0 -0.3126727 0.9498609 332.3317261 115.7435608)" class="st7 st2 st6">T</text>
<text transform="matrix(0.85 0 -0.3126727 0.9498609 335.8834839 115.7435608)" class="st2 st6">r</text>
<text transform="matrix(0.85 0 -0.3126727 0.9498609 335.8834839 115.7435608)" class="st7 st2 st6">r</text>
<text transform="matrix(0.85 0 -0.3126727 0.9498609 338.416687 115.7435608)" class="st2 st6">a</text>
<text transform="matrix(0.85 0 -0.3126727 0.9498609 338.416687 115.7435608)" class="st7 st2 st6">a</text>
<text transform="matrix(0.85 0 -0.3126727 0.9498609 341.9674683 115.7435608)" class="st2 st6">n</text>
<text transform="matrix(0.85 0 -0.3126727 0.9498609 341.9674683 115.7435608)" class="st7 st2 st6">n</text>
<text transform="matrix(0.85 0 -0.3126727 0.9498609 346.0270386 115.7435608)" class="st2 st6">s</text>
<text transform="matrix(0.85 0 -0.3126727 0.9498609 346.0270386 115.7435608)" class="st7 st2 st6">s</text>
<text transform="matrix(0.85 0 -0.3126727 0.9498609 349.072937 115.7435608)" class="st2 st6">p</text>
<text transform="matrix(0.85 0 -0.3126727 0.9498609 349.072937 115.7435608)" class="st7 st2 st6">p</text>
<text transform="matrix(0.85 0 -0.3126727 0.9498609 353.1325073 115.7435608)" class="st2 st6">o</text>
<text transform="matrix(0.85 0 -0.3126727 0.9498609 353.1325073 115.7435608)" class="st7 st2 st6">o</text>
<text transform="matrix(0.85 0 -0.3126727 0.9498609 357.1930542 115.7435608)" class="st2 st6">r</text>
<text transform="matrix(0.85 0 -0.3126727 0.9498609 357.1930542 115.7435608)" class="st7 st2 st6">r</text>
<text transform="matrix(0.85 0 -0.3126727 0.9498609 359.7252808 115.7435608)" class="st2 st6">t</text>
<text transform="matrix(0.85 0 -0.3126727 0.9498609 359.7252808 115.7435608)" class="st7 st2 st6">t</text>
<text transform="matrix(0.85 0 -0.3126727 0.9498609 362.260437 115.7435608)" class="st2 st6">a</text>
<text transform="matrix(0.85 0 -0.3126727 0.9498609 362.260437 115.7435608)" class="st7 st2 st6">a</text>
<text transform="matrix(0.85 0 -0.3126727 0.9498609 365.8102417 115.7435608)" class="st2 st6">t</text>
<text transform="matrix(0.85 0 -0.3126727 0.9498609 365.8102417 115.7435608)" class="st7 st2 st6">t</text>
<text transform="matrix(0.85 0 -0.3126727 0.9498609 368.3453979 115.7435608)" class="st2 st6">i</text>
<text transform="matrix(0.85 0 -0.3126727 0.9498609 368.3453979 115.7435608)" class="st7 st2 st6">i</text>
<text transform="matrix(0.85 0 -0.3126727 0.9498609 369.8717651 115.7435608)" class="st2 st6">o</text>
<text transform="matrix(0.85 0 -0.3126727 0.9498609 369.8717651 115.7435608)" class="st7 st2 st6">o</text>
<text transform="matrix(0.85 0 -0.3126727 0.9498609 373.9313354 115.7435608)" class="st2 st6">n</text>
<text transform="matrix(0.85 0 -0.3126727 0.9498609 373.9313354 115.7435608)" class="st7 st2 st6">n</text>
<text transform="matrix(0.85 0 -0.3126727 0.9498609 377.9918823 115.7435608)" class="st2 st6">O</text>
<text transform="matrix(0.85 0 -0.3126727 0.9498609 377.9918823 115.7435608)" class="st7 st2 st6">O</text>
<text transform="matrix(0.85 0 -0.3126727 0.9498609 383.0680542 115.7435608)" class="st2 st6">b</text>
<text transform="matrix(0.85 0 -0.3126727 0.9498609 383.0680542 115.7435608)" class="st7 st2 st6">b</text>
<text transform="matrix(0.85 0 -0.3126727 0.9498609 387.1276245 115.7435608)" class="st2 st6">j</text>
<text transform="matrix(0.85 0 -0.3126727 0.9498609 387.1276245 115.7435608)" class="st7 st2 st6">j</text>
<text transform="matrix(0.85 0 -0.3126727 0.9498609 388.6539917 115.7435608)" class="st2 st6">e</text>
<text transform="matrix(0.85 0 -0.3126727 0.9498609 388.6539917 115.7435608)" class="st7 st2 st6">e</text>
<text transform="matrix(0.85 0 -0.3126727 0.9498609 392.2057495 115.7435608)" class="st2 st6">ct</text>
<text transform="matrix(0.85 0 -0.3126727 0.9498609 392.2057495 115.7435608)" class="st7 st2 st6">ct</text>
<polygon class="st0" points="58.5776711,62.2558899 170.309967,62.2558899 170.309967,16.9987507 58.5776711,16.9987507 "/>
<polygon class="st1" points="58.5776711,62.2558899 170.309967,62.2558899 170.309967,16.9987507 58.5776711,16.9987507 "/>
<text transform="matrix(0.85 0 0 1 96.6697159 27.2761707)" class="st2 st3">«DataType»</text>
<text transform="matrix(0.85 0 -0.3126727 0.9498609 88.0376205 36.0294533)" class="st2 st6">u</text>
<text transform="matrix(0.85 0 -0.3126727 0.9498609 88.0376205 36.0294533)" class="st7 st2 st6">u</text>
<text transform="matrix(0.85 0 -0.3126727 0.9498609 92.0971909 36.0294533)" class="st2 st6">r</text>
<text transform="matrix(0.85 0 -0.3126727 0.9498609 92.0971909 36.0294533)" class="st7 st2 st6">r</text>
<text transform="matrix(0.85 0 -0.3126727 0.9498609 94.630394 36.0294533)" class="st2 st6">o</text>
<text transform="matrix(0.85 0 -0.3126727 0.9498609 94.630394 36.0294533)" class="st7 st2 st6">o</text>
<text transform="matrix(0.85 0 -0.3126727 0.9498609 98.6909409 36.0294533)" class="st2 st6">::</text>
<text transform="matrix(0.85 0 -0.3126727 0.9498609 98.6909409 36.0294533)" class="st7 st2 st6">::</text>
<text transform="matrix(0.85 0 -0.3126727 0.9498609 101.7251205 36.0294533)" class="st2 st6">D</text>
<text transform="matrix(0.85 0 -0.3126727 0.9498609 101.7251205 36.0294533)" class="st7 st2 st6">D</text>
<text transform="matrix(0.85 0 -0.3126727 0.9498609 106.3012924 36.0294533)" class="st2 st6">m</text>
<text transform="matrix(0.85 0 -0.3126727 0.9498609 106.3012924 36.0294533)" class="st7 st2 st6">m</text>
<text transform="matrix(0.85 0 -0.3126727 0.9498609 112.3911362 36.0294533)" class="st2 st6">A</text>
<text transform="matrix(0.85 0 -0.3126727 0.9498609 112.3911362 36.0294533)" class="st7 st2 st6">A</text>
<text transform="matrix(0.85 0 -0.3126727 0.9498609 116.9604721 36.0294533)" class="st2 st6">tt</text>
<text transform="matrix(0.85 0 -0.3126727 0.9498609 116.9604721 36.0294533)" class="st7 st2 st6">tt</text>
<text transform="matrix(0.85 0 -0.3126727 0.9498609 122.0288315 36.0294533)" class="st2 st6">r</text>
<text transform="matrix(0.85 0 -0.3126727 0.9498609 122.0288315 36.0294533)" class="st7 st2 st6">r</text>
<text transform="matrix(0.85 0 -0.3126727 0.9498609 124.5620346 36.0294533)" class="st2 st6">i</text>
<text transform="matrix(0.85 0 -0.3126727 0.9498609 124.5620346 36.0294533)" class="st7 st2 st6">i</text>
<text transform="matrix(0.85 0 -0.3126727 0.9498609 126.0884018 36.0294533)" class="st2 st6">b</text>
<text transform="matrix(0.85 0 -0.3126727 0.9498609 126.0884018 36.0294533)" class="st7 st2 st6">b</text>
<text transform="matrix(0.85 0 -0.3126727 0.9498609 130.1479645 36.0294533)" class="st2 st6">u</text>
<text transform="matrix(0.85 0 -0.3126727 0.9498609 130.1479645 36.0294533)" class="st7 st2 st6">u</text>
<text transform="matrix(0.85 0 -0.3126727 0.9498609 134.2075348 36.0294533)" class="st2 st6">t</text>
<text transform="matrix(0.85 0 -0.3126727 0.9498609 134.2075348 36.0294533)" class="st7 st2 st6">t</text>
<text transform="matrix(0.85 0 -0.3126727 0.9498609 136.742691 36.0294533)" class="st2 st6">e</text>
<text transform="matrix(0.85 0 -0.3126727 0.9498609 136.742691 36.0294533)" class="st7 st2 st6">e</text>
<line class="st1" x1="58.5776711" y1="40.1416321" x2="169.8020935" y2="40.1416321"/>
<text transform="matrix(0.85 0 0 1 61.1150284 49.4011688)" class="st2 st3">+</text>
<text transform="matrix(0.85 0 0 1 65.6843643 49.4011688)" class="st2 st3"> </text>
<text transform="matrix(0.85 0 0 1 72.2869034 49.4011688)" class="st2 st3">dmCode: gml::CodeType</text>
<text transform="matrix(0.85 0 0 1 61.1150284 58.1355438)" class="st2 st3">+</text>
<text transform="matrix(0.85 0 0 1 65.6843643 58.1355438)" class="st2 st3"> </text>
<text transform="matrix(0.85 0 0 1 72.2869034 58.1355438)" class="st2 st3">meshCode: gml::CodeType [0..1]</text>
<path class="st8" d="M622.8258057,190.3130951c0.8413696,0,1.5235596,0.6907349,1.5235596,1.5428467l0.000061-0.000061v58.1143188
	l-0.000061,0.000061c0,0.8520508-0.6821899,1.5428467-1.5236206,1.5428467l0,0h0.000061h-94.9724731h-0.000061
	c-0.8414307,0-1.5236206-0.6907959-1.5236206-1.5429077h0.000061v-58.1143188c0-0.8520508,0.6821289-1.5428467,1.5236206-1.5427856
	v-0.000061h94.9724731V190.3130951L622.8258057,190.3130951z"/>
<path class="st9" d="M622.8258057,190.3130951c0.8413696,0,1.5235596,0.6907349,1.5235596,1.5428467l0.000061-0.000061v58.1143188
	l-0.000061,0.000061c0,0.8520508-0.6821899,1.5428467-1.5236206,1.5428467l0,0h0.000061h-94.9724731h-0.000061
	c-0.8414307,0-1.5236206-0.6907959-1.5236206-1.5429077h0.000061v-58.1143188c0-0.8520508,0.6821289-1.5428467,1.5236206-1.5427856
	v-0.000061h94.9724731V190.3130951L622.8258057,190.3130951z"/>
<polygon class="st10" points="531.4084473,214.4845428 540.0422974,214.4845428 540.0422974,205.7416229 531.4084473,205.7416229 
	"/>
<polygon class="st11" points="531.4084473,214.4845428 540.0422974,214.4845428 540.0422974,205.7416229 531.4084473,205.7416229 
	"/>
<text transform="matrix(0.85 0 0 1 542.5759888 212.9480438)" class="st12 st2 st3">GMLに定義されたクラス</text>
<polygon class="st5" points="531.4084473,224.2559052 540.0422974,224.2559052 540.0422974,215.5131073 531.4084473,215.5131073 "/>
<polygon class="st11" points="531.4084473,224.2559052 540.0422974,224.2559052 540.0422974,215.5131073 531.4084473,215.5131073 
	"/>
<text transform="matrix(0.85 0 0 1 542.5759888 222.7136688)" class="st12 st2 st3">CityGMLに定義されたクラス</text>
<polygon class="st0" points="531.4084473,234.0273895 540.0422974,234.0273895 540.0422974,225.2844696 531.4084473,225.2844696 "/>
<polygon class="st11" points="531.4084473,234.0273895 540.0422974,234.0273895 540.0422974,225.2844696 531.4084473,225.2844696 
	"/>
<text transform="matrix(0.85 0 0 1 542.5759888 232.4875946)" class="st12 st2 st3">i-URに定義されたクラス</text>
<text transform="matrix(0.85 0 0 1 567.4666138 203.3728485)" class="st12 st4 st13 st14">凡例</text>
<polygon class="st0" points="45.3729439,458.2559814 199.7666626,458.2559814 199.7666626,343.0559692 45.3729439,343.0559692 "/>
<polygon class="st1" points="45.3729439,458.2559814 199.7666626,458.2559814 199.7666626,343.0559692 45.3729439,343.0559692 "/>
<text transform="matrix(0.85 0 0 1 104.7947159 353.3391724)" class="st2 st3">«DataType»</text>
<text transform="matrix(0.85 0 0 1 65.1775284 362.0891724)" class="st4 st3">uro::PublicSuveyDataQualityAttribute</text>
<line class="st1" x1="45.3729439" y1="366.1987915" x2="199.2587891" y2="366.1987915"/>
<text transform="matrix(0.85 0 0 1 47.9119034 375.4563599)" class="st2 st3">+</text>
<text transform="matrix(0.85 0 0 1 52.4812393 375.4563599)" class="st2 st3"> </text>
<text transform="matrix(0.85 0 0 1 59.0837784 375.4563599)" class="st2 st3">srcScaleLod0: gml::CodeType [0..1]</text>
<text transform="matrix(0.85 0 0 1 47.9119034 384.1985474)" class="st2 st3">+</text>
<text transform="matrix(0.85 0 0 1 52.4812393 384.1985474)" class="st2 st3"> </text>
<text transform="matrix(0.85 0 0 1 59.0837784 384.1985474)" class="st2 st3">srcScaleLod1: gml::CodeType [0..1]</text>
<text transform="matrix(0.85 0 0 1 47.9119034 392.9485474)" class="st2 st3">+</text>
<text transform="matrix(0.85 0 0 1 52.4812393 392.9485474)" class="st2 st3"> </text>
<text transform="matrix(0.85 0 0 1 59.0837784 392.9485474)" class="st2 st3">srcScaleLod2: gml::CodeType [0..1]</text>
<text transform="matrix(0.85 0 0 1 47.9119034 401.6829224)" class="st2 st3">+</text>
<text transform="matrix(0.85 0 0 1 52.4812393 401.6829224)" class="st2 st3"> </text>
<text transform="matrix(0.85 0 0 1 59.0837784 401.6829224)" class="st2 st3">srcScaleLod3: gml::CodeType [0..1]</text>
<text transform="matrix(0.85 0 0 1 47.9119034 410.4251099)" class="st2 st3">+</text>
<text transform="matrix(0.85 0 0 1 52.4812393 410.4251099)" class="st2 st3"> </text>
<text transform="matrix(0.85 0 0 1 59.0837784 410.4251099)" class="st2 st3">srcScaleLod4: gml::CodeType [0..1]</text>
<text transform="matrix(0.85 0 0 1 47.9119034 419.1672974)" class="st2 st3">+</text>
<text transform="matrix(0.85 0 0 1 52.4812393 419.1672974)" class="st2 st3"> </text>
<text transform="matrix(0.85 0 0 1 59.0837784 419.1672974)" class="st2 st3">publicSurveySrcDescLod0: gml::CodeType [0..*]</text>
<text transform="matrix(0.85 0 0 1 47.9119034 427.9016724)" class="st2 st3">+</text>
<text transform="matrix(0.85 0 0 1 52.4812393 427.9016724)" class="st2 st3"> </text>
<text transform="matrix(0.85 0 0 1 59.0837784 427.9016724)" class="st2 st3">publicSurveySrcDescLod1: gml::CodeType [0..*]</text>
<text transform="matrix(0.85 0 0 1 47.9119034 436.6516724)" class="st2 st3">+</text>
<text transform="matrix(0.85 0 0 1 52.4812393 436.6516724)" class="st2 st3"> </text>
<text transform="matrix(0.85 0 0 1 59.0837784 436.6516724)" class="st2 st3">publicSurveySrcDescLod2: gml::CodeType [0..*]</text>
<text transform="matrix(0.85 0 0 1 47.9119034 445.3938599)" class="st2 st3">+</text>
<text transform="matrix(0.85 0 0 1 52.4812393 445.3938599)" class="st2 st3"> </text>
<text transform="matrix(0.85 0 0 1 59.0837784 445.3938599)" class="st2 st3">publicSurveySrcDescLod3: gml::CodeType [0..*]</text>
<text transform="matrix(0.85 0 0 1 47.9119034 454.1360474)" class="st2 st3">+</text>
<text transform="matrix(0.85 0 0 1 52.4812393 454.1360474)" class="st2 st3"> </text>
<text transform="matrix(0.85 0 0 1 59.0837784 454.1360474)" class="st2 st3">publicSurveySrcDescLod4: gml::CodeType [0..*]</text>
<polygon class="st0" points="58.5776711,141.4559174 199.7666626,141.4559174 199.7666626,89.5130463 58.5776711,89.5130463 "/>
<polygon class="st1" points="58.5776711,141.4559174 199.7666626,141.4559174 199.7666626,89.5130463 58.5776711,89.5130463 "/>
<text transform="matrix(0.85 0 0 1 111.3962784 99.7996063)" class="st2 st3">«DataType»</text>
<text transform="matrix(0.85 0 0 1 88.5369034 108.5417938)" class="st4 st3">uro::KeyValuePairAttribute</text>
<line class="st1" x1="58.5776711" y1="112.6559296" x2="199.2587891" y2="112.6559296"/>
<text transform="matrix(0.85 0 0 1 61.1150284 121.9089813)" class="st2 st3">+</text>
<text transform="matrix(0.85 0 0 1 65.6843643 121.9089813)" class="st2 st3"> </text>
<text transform="matrix(0.85 0 0 1 72.2869034 121.9089813)" class="st2 st3">key: gml::CodeType</text>
<text transform="matrix(0.85 0 0 1 61.1150284 130.6589813)" class="st2 st3">+</text>
<text transform="matrix(0.85 0 0 1 65.6843643 130.6589813)" class="st2 st3"> </text>
<text transform="matrix(0.85 0 0 1 72.2869034 130.6589813)" class="st2 st3">codeValue: gml::CodeType [0..1]</text>
<polygon class="st0" points="46.3886909,310.6559448 198.7509155,310.6559448 198.7509155,160.4844818 46.3886909,160.4844818 "/>
<polygon class="st1" points="46.3886909,310.6559448 198.7509155,310.6559448 198.7509155,160.4844818 46.3886909,160.4844818 "/>
<text transform="matrix(0.85 0 0 1 104.7947159 170.7683563)" class="st2 st3">«DataType»</text>
<text transform="matrix(0.85 0 0 1 83.4587784 179.5105438)" class="st4 st3">uro::DataQualityAttribute</text>
<line class="st1" x1="46.3886909" y1="183.6273651" x2="198.2430267" y2="183.6273651"/>
<text transform="matrix(0.85 0 0 1 48.9275284 192.8855438)" class="st2 st3">+</text>
<text transform="matrix(0.85 0 0 1 53.4968643 192.8855438)" class="st2 st3"> </text>
<text transform="matrix(0.85 0 0 1 60.0994034 192.8855438)" class="st2 st3">geometrySrcDescLod0: gml::CodeType [0..*]</text>
<text transform="matrix(0.85 0 0 1 48.9275284 201.6277313)" class="st2 st3">+</text>
<text transform="matrix(0.85 0 0 1 53.4968643 201.6277313)" class="st2 st3"> </text>
<text transform="matrix(0.85 0 0 1 60.0994034 201.6277313)" class="st2 st3">geometrySrcDescLod1: gml::CodeType [1..*]</text>
<text transform="matrix(0.85 0 0 1 48.9275284 210.3699188)" class="st2 st3">+</text>
<text transform="matrix(0.85 0 0 1 53.4968643 210.3699188)" class="st2 st3"> </text>
<text transform="matrix(0.85 0 0 1 60.0994034 210.3699188)" class="st2 st3">geometrySrcDescLod2: gml::CodeType [0..*]</text>
<text transform="matrix(0.85 0 0 1 48.9275284 219.1199188)" class="st2 st3">+</text>
<text transform="matrix(0.85 0 0 1 53.4968643 219.1199188)" class="st2 st3"> </text>
<text transform="matrix(0.85 0 0 1 60.0994034 219.1199188)" class="st2 st3">geometrySrcDescLod3: gml::CodeType [0..*]</text>
<text transform="matrix(0.85 0 0 1 48.9275284 227.8542938)" class="st2 st3">+</text>
<text transform="matrix(0.85 0 0 1 53.4968643 227.8542938)" class="st2 st3"> </text>
<text transform="matrix(0.85 0 0 1 60.0994034 227.8542938)" class="st2 st3">geometrySrcDescLod4: gml::CodeType [0..*]</text>
<text transform="matrix(0.85 0 0 1 48.9275284 236.5969696)" class="st2 st3">+</text>
<text transform="matrix(0.85 0 0 1 53.4968643 236.5969696)" class="st2 st3"> </text>
<text transform="matrix(0.85 0 0 1 60.0994034 236.5969696)" class="st2 st3">thematicSrcDesc: gml::CodeType [0..*]</text>
<text transform="matrix(0.85 0 0 1 48.9275284 245.3391571)" class="st2 st3">+</text>
<text transform="matrix(0.85 0 0 1 53.4968643 245.3391571)" class="st2 st3"> </text>
<text transform="matrix(0.85 0 0 1 60.0994034 245.3391571)" class="st2 st3">appearanceSrcDescLod0: gml::CodeType [0..*]</text>
<text transform="matrix(0.85 0 0 1 48.9275284 254.0735321)" class="st2 st3">+</text>
<text transform="matrix(0.85 0 0 1 53.4968643 254.0735321)" class="st2 st3"> </text>
<text transform="matrix(0.85 0 0 1 60.0994034 254.0735321)" class="st2 st3">appearanceSrcDescLod1: gml::CodeType [0..*]</text>
<text transform="matrix(0.85 0 0 1 48.9275284 262.8235474)" class="st2 st3">+</text>
<text transform="matrix(0.85 0 0 1 53.4968643 262.8235474)" class="st2 st3"> </text>
<text transform="matrix(0.85 0 0 1 60.0994034 262.8235474)" class="st2 st3">appearanceSrcDescLod2: gml::CodeType [0..*]</text>
<text transform="matrix(0.85 0 0 1 48.9275284 271.5657349)" class="st2 st3">+</text>
<text transform="matrix(0.85 0 0 1 53.4968643 271.5657349)" class="st2 st3"> </text>
<text transform="matrix(0.85 0 0 1 60.0994034 271.5657349)" class="st2 st3">appearanceSrcDescLod3: gml::CodeType [0..*]</text>
<text transform="matrix(0.85 0 0 1 48.9275284 280.3079224)" class="st2 st3">+</text>
<text transform="matrix(0.85 0 0 1 53.4968643 280.3079224)" class="st2 st3"> </text>
<text transform="matrix(0.85 0 0 1 60.0994034 280.3079224)" class="st2 st3">appearanceSrcDescLod4: gml::CodeType [0..*]</text>
<text transform="matrix(0.85 0 0 1 48.9275284 289.0579224)" class="st2 st3">+</text>
<text transform="matrix(0.85 0 0 1 53.4968643 289.0579224)" class="st2 st3"> </text>
<text transform="matrix(0.85 0 0 1 60.0994034 289.0579224)" class="st2 st3">lodType: gml::CodeType [0..*]</text>
<text transform="matrix(0.85 0 0 1 48.9275284 297.8001099)" class="st2 st3">+</text>
<text transform="matrix(0.85 0 0 1 53.4968643 297.8001099)" class="st2 st3"> </text>
<text transform="matrix(0.85 0 0 1 60.0994034 297.8001099)" class="st2 st3">lod1HeightType: gml::CodeType [0..1]</text>
<text transform="matrix(0.85 0 0 1 48.9275284 306.5422974)" class="st2 st3">+</text>
<text transform="matrix(0.85 0 0 1 53.4968643 306.5422974)" class="st2 st3"> </text>
<text transform="matrix(0.85 0 0 1 60.0994034 306.5422974)" class="st2 st3">tranDataAcquisition: xs::string [0..1]</text>
<line class="st1" x1="170.8178406" y1="24.7130451" x2="284.5816345" y2="24.7130451"/>
<line class="st1" x1="284.5816345" y1="24.7130451" x2="284.5816345" y2="245.3415985"/>
<line class="st1" x1="284.5816345" y1="245.3415985" x2="309.4674683" y2="245.3415985"/>
<polyline class="st15" points="304.3887024,247.9130707 309.4674683,245.3415985 304.3887024,242.7701874 299.309967,245.3415985 
	304.3887024,247.9130707 "/>
<polyline class="st1" points="304.3887024,247.9130707 309.4674683,245.3415985 304.3887024,242.7701874 299.309967,245.3415985 "/>
<polyline class="st1" points="178.4359436,27.7987385 170.8178406,24.7130451 178.4359436,21.6273518 "/>
<line class="st1" x1="541.565918" y1="350.7702026" x2="541.565918" y2="303.4559326"/>
<line class="st1" x1="541.565918" y1="303.4559326" x2="363.809967" y2="303.4559326"/>
<line class="st1" x1="363.809967" y1="303.4559326" x2="363.809967" y2="278.2559204"/>
<polyline class="st15" points="366.3493652,283.3988037 363.809967,278.2559204 361.2705994,283.3988037 363.809967,288.541687 
	366.3493652,283.3988037 "/>
<polyline class="st1" points="366.3493652,283.3988037 363.809967,278.2559204 361.2705994,283.3988037 363.809967,288.541687 "/>
<polyline class="st1" points="544.6131592,343.0559692 541.565918,350.7702026 538.5186768,343.0559692 "/>
<line class="st1" x1="469.955658" y1="118.3130341" x2="443.0383301" y2="118.3130341"/>
<line class="st1" x1="443.0383301" y1="245.3415985" x2="418.1524963" y2="245.3415985"/>
<polyline class="st16" points="426.2785034,242.2559052 426.2785034,248.4273529 418.1524963,245.3415985 426.2785034,242.2559052 
	"/>
<polygon class="st1" points="426.2785034,242.2559052 426.2785034,248.4273529 418.1524963,245.3415985 "/>
<line class="st1" x1="469.955658" y1="72.0273285" x2="443.0383301" y2="72.0273285"/>
<line class="st1" x1="469.955658" y1="164.0845184" x2="443.0383301" y2="164.0845184"/>
<line class="st1" x1="357.7154846" y1="212.9416351" x2="357.7154846" y2="129.6273651"/>
<polyline class="st16" points="360.7627258,137.8559418 354.6682434,137.8559418 357.7154846,129.6273651 360.7627258,137.8559418 
	"/>
<polygon class="st1" points="360.7627258,137.8559418 354.6682434,137.8559418 357.7154846,129.6273651 "/>
<line class="st1" x1="469.955658" y1="25.2273273" x2="443.0383301" y2="25.2273273"/>
<line class="st1" x1="443.0383301" y1="25.2273273" x2="443.0383301" y2="245.3415985"/>
<line class="st1" x1="430.3414917" y1="348.1987915" x2="430.3414917" y2="303.4559326"/>
<polyline class="st15" points="366.3493652,283.3988037 363.809967,278.2559204 361.2705994,283.3988037 363.809967,288.541687 
	366.3493652,283.3988037 "/>
<polyline class="st1" points="366.3493652,283.3988037 363.809967,278.2559204 361.2705994,283.3988037 363.809967,288.541687 "/>
<polyline class="st1" points="433.3887329,340.4845581 430.3414917,348.1987915 427.2942505,340.4845581 "/>
<line class="st1" x1="286.1052551" y1="328.6559448" x2="286.1052551" y2="303.4559326"/>
<line class="st1" x1="286.1052551" y1="303.4559326" x2="363.809967" y2="303.4559326"/>
<polyline class="st15" points="366.3493652,283.3988037 363.809967,278.2559204 361.2705994,283.3988037 363.809967,288.541687 
	366.3493652,283.3988037 "/>
<polygon class="st1" points="366.3493652,283.3988037 363.809967,278.2559204 361.2705994,283.3988037 363.809967,288.541687 "/>
<polyline class="st1" points="289.1524963,320.9416504 286.1052551,328.6559448 283.0580139,320.9416504 "/>
<line class="st1" x1="200.2745361" y1="114.7130585" x2="284.5816345" y2="114.7130585"/>
<polyline class="st15" points="304.3887024,247.9130707 309.4674683,245.3415985 304.3887024,242.7701874 299.309967,245.3415985 
	304.3887024,247.9130707 "/>
<polygon class="st1" points="304.3887024,247.9130707 309.4674683,245.3415985 304.3887024,242.7701874 299.309967,245.3415985 "/>
<polyline class="st1" points="207.8926392,117.7987518 200.2745361,114.7130585 207.8926392,111.6273651 "/>
<line class="st1" x1="122.5698013" y1="342.541687" x2="122.5698013" y2="311.1702271"/>
<polyline class="st15" points="125.109169,316.3130493 122.5698013,311.1702271 120.0304337,316.3130493 122.5698013,321.4559326 
	125.109169,316.3130493 "/>
<polygon class="st1" points="125.109169,316.3130493 122.5698013,311.1702271 120.0304337,316.3130493 122.5698013,321.4559326 "/>
<polyline class="st1" points="125.6170425,334.8273315 122.5698013,342.541687 119.5225601,334.8273315 "/>
<line class="st1" x1="199.2587891" y1="265.9130859" x2="309.4674683" y2="264.8845215"/>
<polyline class="st15" points="304.3887024,267.4559326 309.4674683,264.8845215 304.3887024,262.3130493 299.309967,264.8845215 
	304.3887024,267.4559326 "/>
<polygon class="st1" points="304.3887024,267.4559326 309.4674683,264.8845215 304.3887024,262.3130493 299.309967,264.8845215 "/>
<polyline class="st1" points="206.8768921,268.9988403 199.2587891,265.9130859 206.8768921,262.8273315 "/>
<text transform="matrix(0.85 0 0 1 204.3337708 322.9954224)" class="st2 st3">+tranFacilityIdAttribute</text>
<text transform="matrix(0.85 0 0 1 294.7322083 324.5344849)" class="st2 st3">0..1</text>
<text transform="matrix(0.85 0 0 1 202.8103333 254.0735321)" class="st2 st3">+tranDataQualityAttribute</text>
<text transform="matrix(0.85 0 0 1 200.7790833 275.6829224)" class="st2 st3">1</text>
<text transform="matrix(0.85 0 0 1 202.3025208 106.4792938)" class="st2 st3">+tranKeyValuePairAttribute</text>
<text transform="matrix(0.85 0 0 1 210.9353333 124.4871063)" class="st2 st3">0..*</text>
<text transform="matrix(0.85 0 0 1 470.9665833 343.0501099)" class="st2 st3">+tranFacilityAttribute</text>
<text transform="matrix(0.85 0 0 1 551.2088013 345.6204224)" class="st2 st3">0..*</text>
<text transform="matrix(0.85 0 0 1 11.8494015 330.7063599)" class="st2 st3">+publicSurveyDataQualityAttribute</text>
<text transform="matrix(0.85 0 0 1 131.2009583 336.3626099)" class="st2 st3">0..1</text>
<text transform="matrix(0.85 0 0 1 350.0993958 343.5735474)" class="st2 st3">+tranFacilityTypeAttribute</text>
<text transform="matrix(0.85 0 0 1 444.5603333 343.0501099)" class="st2 st3">0..*</text>
<text transform="matrix(0.85 0 0 1 183.0056458 18.5417957)" class="st2 st3">+tranDmAttribute</text>
<text transform="matrix(0.85 0 0 1 181.4822083 34.4871063)" class="st2 st3">0..*</text>
</svg>
