<?xml version="1.0" encoding="utf-8"?>
<!-- Generator: Adobe Illustrator 27.0.0, SVG Export Plug-In . SVG Version: 6.00 Build 0)  -->
<svg version="1.1" id="レイヤー_1" xmlns="http://www.w3.org/2000/svg" xmlns:xlink="http://www.w3.org/1999/xlink" x="0px"
	 y="0px" viewBox="0 0 529.276001 596.1099854" style="enable-background:new 0 0 529.276001 596.1099854;" xml:space="preserve">
<style type="text/css">
	.st0{fill-rule:evenodd;clip-rule:evenodd;fill:#FFFFCC;}
	.st1{fill:none;stroke:#000000;stroke-width:1.0285715;stroke-linecap:round;stroke-linejoin:bevel;stroke-miterlimit:10;}
	.st2{font-family:'YuGothicUI-Regular';}
	.st3{font-size:6.6857147px;}
	.st4{font-family:'YuGothicUI-Bold';}
	.st5{fill-rule:evenodd;clip-rule:evenodd;fill:#FFCCFF;}
	.st6{fill-rule:evenodd;clip-rule:evenodd;fill:#F0F0F0;}
	.st7{fill:none;stroke:#D7D7D7;stroke-width:0.5142857;stroke-linecap:square;stroke-miterlimit:10;}
	.st8{fill-rule:evenodd;clip-rule:evenodd;fill:#CCFFCC;}
	.st9{fill:none;stroke:#000000;stroke-width:0.5142857;stroke-linecap:square;stroke-miterlimit:10;}
	.st10{fill:#003060;}
	.st11{font-size:8.2285719px;}
	.st12{letter-spacing:-1.1764705;}
	.st13{font-size:7.0386257px;}
	.st14{fill:none;stroke:#000000;stroke-width:0.1910204;stroke-miterlimit:10;}
	.st15{fill-rule:evenodd;clip-rule:evenodd;}
	.st16{fill-rule:evenodd;clip-rule:evenodd;fill:#FFFFFF;}
</style>
<polygon class="st0" points="227.915863,184.4000244 330.5064697,184.4000244 330.5064697,124.2286224 227.915863,124.2286224 "/>
<polygon class="st1" points="227.915863,184.4000244 330.5064697,184.4000244 330.5064697,124.2286224 227.915863,124.2286224 "/>
<text transform="matrix(0.85 0 0 1 257.3691406 134.5126953)" class="st2 st3">«FeatureType»</text>
<text transform="matrix(0.85 0 0 1 248.7363281 143.2548828)" class="st4 st3">tran::TrafficComplex</text>
<line class="st1" x1="227.915863" y1="147.37146" x2="329.9985962" y2="147.37146"/>
<text transform="matrix(0.85 0 0 1 230.4472656 156.6220703)" class="st2 st3">+</text>
<text transform="matrix(0.85 0 0 1 235.0166016 156.6220703)" class="st2 st3"> </text>
<text transform="matrix(0.85 0 0 1 241.6269531 156.6220703)" class="st2 st3">class: gml::CodeType [0..1]</text>
<text transform="matrix(0.85 0 0 1 230.4472656 165.3720703)" class="st2 st3">+</text>
<text transform="matrix(0.85 0 0 1 235.0166016 165.3720703)" class="st2 st3"> </text>
<text transform="matrix(0.85 0 0 1 241.6269531 165.3720703)" class="st2 st3">function: gml::CodeType [0..*]</text>
<text transform="matrix(0.85 0 0 1 230.4472656 174.1142578)" class="st2 st3">+</text>
<text transform="matrix(0.85 0 0 1 235.0166016 174.1142578)" class="st2 st3"> </text>
<text transform="matrix(0.85 0 0 1 241.6269531 174.1142578)" class="st2 st3">usage: gml::CodeType [0..*]</text>
<polygon class="st0" points="243.1520996,253.8286133 304.0969849,253.8286133 304.0969849,212.68573 243.1520996,212.68573 "/>
<polygon class="st1" points="243.1520996,253.8286133 304.0969849,253.8286133 304.0969849,212.68573 243.1520996,212.68573 "/>
<text transform="matrix(0.85 0 0 1 251.7832031 222.9658203)" class="st2 st3">«FeatureType»</text>
<text transform="matrix(0.85 0 0 1 254.8300781 231.7080078)" class="st4 st3">tran::Square</text>
<polygon class="st5" points="202.522171,480.1143188 338.1245728,480.1143188 338.1245728,294.9714355 202.522171,294.9714355 "/>
<polygon class="st1" points="202.522171,480.1143188 338.1245728,480.1143188 338.1245728,294.9714355 202.522171,294.9714355 "/>
<text transform="matrix(0.85 0 0 1 252.7988281 305.2548828)" class="st2 st3">«DataType»</text>
<text transform="matrix(0.85 0 0 1 222.8378906 313.9970703)" class="st4 st3">uro::SquareUrbanPlanAttribute</text>
<line class="st1" x1="202.522171" y1="318.1143188" x2="337.6166992" y2="318.1143188"/>
<text transform="matrix(0.85 0 0 1 205.0566406 327.3642578)" class="st2 st3">+</text>
<text transform="matrix(0.85 0 0 1 209.6259766 327.3642578)" class="st2 st3"> </text>
<text transform="matrix(0.85 0 0 1 216.2285156 327.3642578)" class="st2 st3">prefecture: gml::CodeType [0..1]</text>
<text transform="matrix(0.85 0 0 1 205.0566406 336.1142578)" class="st2 st3">+</text>
<text transform="matrix(0.85 0 0 1 209.6259766 336.1142578)" class="st2 st3"> </text>
<text transform="matrix(0.85 0 0 1 216.2285156 336.1142578)" class="st2 st3">city: gml::CodeType [0..1]</text>
<text transform="matrix(0.85 0 0 1 205.0566406 344.8564453)" class="st2 st3">+</text>
<text transform="matrix(0.85 0 0 1 209.6259766 344.8564453)" class="st2 st3"> </text>
<text transform="matrix(0.85 0 0 1 216.2285156 344.8564453)" class="st2 st3">urbanPlanningAreaName: xs::string [0..1]</text>
<text transform="matrix(0.85 0 0 1 205.0566406 353.5908203)" class="st2 st3">+</text>
<text transform="matrix(0.85 0 0 1 209.6259766 353.5908203)" class="st2 st3"> </text>
<text transform="matrix(0.85 0 0 1 216.2285156 353.5908203)" class="st2 st3">enforcer: xs::string [0..*]</text>
<text transform="matrix(0.85 0 0 1 205.0566406 362.3408203)" class="st2 st3">+</text>
<text transform="matrix(0.85 0 0 1 209.6259766 362.3408203)" class="st2 st3"> </text>
<text transform="matrix(0.85 0 0 1 216.2285156 362.3408203)" class="st2 st3">dateOfDecision: xs::date [0..1]</text>
<text transform="matrix(0.85 0 0 1 205.0566406 371.0830078)" class="st2 st3">+</text>
<text transform="matrix(0.85 0 0 1 209.6259766 371.0830078)" class="st2 st3"> </text>
<text transform="matrix(0.85 0 0 1 216.2285156 371.0830078)" class="st2 st3">dateOfRevision: xs::date [0..*]</text>
<text transform="matrix(0.85 0 0 1 205.0566406 379.8251953)" class="st2 st3">+</text>
<text transform="matrix(0.85 0 0 1 209.6259766 379.8251953)" class="st2 st3"> </text>
<text transform="matrix(0.85 0 0 1 216.2285156 379.8251953)" class="st2 st3">areaPlanned: gml::MeasureType [0..1]</text>
<text transform="matrix(0.85 0 0 1 205.0566406 388.5751953)" class="st2 st3">+</text>
<text transform="matrix(0.85 0 0 1 209.6259766 388.5751953)" class="st2 st3"> </text>
<text transform="matrix(0.85 0 0 1 216.2285156 388.5751953)" class="st2 st3">areaInService: gml::MeasureType [0..1]</text>
<text transform="matrix(0.85 0 0 1 205.0566406 397.3173828)" class="st2 st3">+</text>
<text transform="matrix(0.85 0 0 1 209.6259766 397.3173828)" class="st2 st3"> </text>
<text transform="matrix(0.85 0 0 1 216.2285156 397.3173828)" class="st2 st3">remarks: xs::string [0..1]</text>
<text transform="matrix(0.85 0 0 1 205.0566406 406.0595703)" class="st2 st3">+</text>
<text transform="matrix(0.85 0 0 1 209.6259766 406.0595703)" class="st2 st3"> </text>
<text transform="matrix(0.85 0 0 1 216.2285156 406.0595703)" class="st2 st3">status: gml::CodeType [0..1]</text>
<text transform="matrix(0.85 0 0 1 205.0566406 414.7939453)" class="st2 st3">+</text>
<text transform="matrix(0.85 0 0 1 209.6259766 414.7939453)" class="st2 st3"> </text>
<text transform="matrix(0.85 0 0 1 216.2285156 414.7939453)" class="st2 st3">areaImproved: gml::MeasureType [0..1]</text>
<text transform="matrix(0.85 0 0 1 205.0566406 423.5361328)" class="st2 st3">+</text>
<text transform="matrix(0.85 0 0 1 209.6259766 423.5361328)" class="st2 st3"> </text>
<text transform="matrix(0.85 0 0 1 216.2285156 423.5361328)" class="st2 st3">areaCompleted: gml::MeasureType [0..1]</text>
<text transform="matrix(0.85 0 0 1 205.0566406 432.2861328)" class="st2 st3">+</text>
<text transform="matrix(0.85 0 0 1 209.6259766 432.2861328)" class="st2 st3"> </text>
<text transform="matrix(0.85 0 0 1 216.2285156 432.2861328)" class="st2 st3">projectStartDate: xs::date [0..1]</text>
<text transform="matrix(0.85 0 0 1 205.0566406 441.0283203)" class="st2 st3">+</text>
<text transform="matrix(0.85 0 0 1 209.6259766 441.0283203)" class="st2 st3"> </text>
<text transform="matrix(0.85 0 0 1 216.2285156 441.0283203)" class="st2 st3">projectEndDate: xs::date [0..1]</text>
<text transform="matrix(0.85 0 0 1 205.0566406 449.7626953)" class="st2 st3">+</text>
<text transform="matrix(0.85 0 0 1 209.6259766 449.7626953)" class="st2 st3"> </text>
<text transform="matrix(0.85 0 0 1 216.2285156 449.7626953)" class="st2 st3">isCompleted: xs::boolean [0..1]</text>
<text transform="matrix(0.85 0 0 1 205.0566406 458.5126953)" class="st2 st3">+</text>
<text transform="matrix(0.85 0 0 1 209.6259766 458.5126953)" class="st2 st3"> </text>
<text transform="matrix(0.85 0 0 1 216.2285156 458.5126953)" class="st2 st3">isAuthorized: xs::boolean [0..1]</text>
<text transform="matrix(0.85 0 0 1 205.0566406 467.2548828)" class="st2 st3">+</text>
<text transform="matrix(0.85 0 0 1 209.6259766 467.2548828)" class="st2 st3"> </text>
<text transform="matrix(0.85 0 0 1 216.2285156 467.2548828)" class="st2 st3">purpose: xs::string [0..1]</text>
<text transform="matrix(0.85 0 0 1 205.0566406 475.9970703)" class="st2 st3">+</text>
<text transform="matrix(0.85 0 0 1 209.6259766 475.9970703)" class="st2 st3"> </text>
<text transform="matrix(0.85 0 0 1 216.2285156 475.9970703)" class="st2 st3">note: xs::string [0..1]</text>
<polygon class="st5" points="148.6875305,571.6571655 262.451355,571.6571655 262.451355,517.6572266 148.6875305,517.6572266 "/>
<polygon class="st1" points="148.6875305,571.6571655 262.451355,571.6571655 262.451355,517.6572266 148.6875305,517.6572266 "/>
<text transform="matrix(0.85 0 0 1 187.7910156 527.9423828)" class="st2 st3">«DataType»</text>
<text transform="matrix(0.85 0 0 1 162.9082031 536.6845703)" class="st4 st3">uro::StationSquareAttribute</text>
<line class="st1" x1="148.6875305" y1="540.8000488" x2="261.9434814" y2="540.8000488"/>
<text transform="matrix(0.85 0 0 1 151.2207031 550.0595703)" class="st2 st3">+</text>
<text transform="matrix(0.85 0 0 1 155.7900391 550.0595703)" class="st2 st3"> </text>
<text transform="matrix(0.85 0 0 1 162.4003906 550.0595703)" class="st2 st3">station: xs::string [0..*]</text>
<text transform="matrix(0.85 0 0 1 151.2207031 558.8017578)" class="st2 st3">+</text>
<text transform="matrix(0.85 0 0 1 155.7900391 558.8017578)" class="st2 st3"> </text>
<text transform="matrix(0.85 0 0 1 162.4003906 558.8017578)" class="st2 st3">route: xs::string [0..*]</text>
<text transform="matrix(0.85 0 0 1 151.2207031 567.5439453)" class="st2 st3">+</text>
<text transform="matrix(0.85 0 0 1 155.7900391 567.5439453)" class="st2 st3"> </text>
<text transform="matrix(0.85 0 0 1 162.4003906 567.5439453)" class="st2 st3">railwayType: gml::CodeType [0..*]</text>
<polygon class="st5" points="280.2269287,589.1428833 417.8607788,589.1428833 417.8607788,517.6572266 280.2269287,517.6572266 "/>
<polygon class="st1" points="280.2269287,589.1428833 417.8607788,589.1428833 417.8607788,517.6572266 280.2269287,517.6572266 "/>
<text transform="matrix(0.85 0 0 1 331.5175781 527.9423828)" class="st2 st3">«DataType»</text>
<text transform="matrix(0.85 0 0 1 314.7597656 536.6845703)" class="st4 st3">uro::TerminalAttribute</text>
<line class="st1" x1="280.2269287" y1="540.8000488" x2="417.3529053" y2="540.8000488"/>
<text transform="matrix(0.85 0 0 1 282.7675781 550.0595703)" class="st2 st3">+</text>
<text transform="matrix(0.85 0 0 1 287.3369141 550.0595703)" class="st2 st3"> </text>
<text transform="matrix(0.85 0 0 1 293.9394531 550.0595703)" class="st2 st3">terminalType: gml::CodeType [0..1]</text>
<text transform="matrix(0.85 0 0 1 282.7675781 558.8017578)" class="st2 st3">+</text>
<text transform="matrix(0.85 0 0 1 287.3369141 558.8017578)" class="st2 st3"> </text>
<text transform="matrix(0.85 0 0 1 293.9394531 558.8017578)" class="st2 st3">structure: xs::string [0..1]</text>
<text transform="matrix(0.85 0 0 1 282.7675781 567.5439453)" class="st2 st3">+</text>
<text transform="matrix(0.85 0 0 1 287.3369141 567.5439453)" class="st2 st3"> </text>
<text transform="matrix(0.85 0 0 1 293.9394531 567.5439453)" class="st2 st3">numberOfBerthsPlanned: xs::integer [0..1]</text>
<text transform="matrix(0.85 0 0 1 282.7675781 576.2783203)" class="st2 st3">+</text>
<text transform="matrix(0.85 0 0 1 287.3369141 576.2783203)" class="st2 st3"> </text>
<text transform="matrix(0.85 0 0 1 293.9394531 576.2783203)" class="st2 st3">numberOfBerthsInService: xs::integer [0..1]</text>
<text transform="matrix(0.85 0 0 1 282.7675781 585.0205078)" class="st2 st3">+</text>
<text transform="matrix(0.85 0 0 1 287.3369141 585.0205078)" class="st2 st3"> </text>
<text transform="matrix(0.85 0 0 1 293.9394531 585.0205078)" class="st2 st3">userType: gml::CodeType [0..1]</text>
<path class="st6" d="M509.2781372,340.2286377c0.8414307,0,1.5235596,0.6907959,1.5235596,1.5428467h0.000061v58.1142578h-0.000061
	c0,0.8521118-0.6821289,1.5429077-1.5236206,1.5429077v-0.000061h0.000061h-94.9724731v0.000061
	c-0.8414917-0.000061-1.5236206-0.6907959-1.5236206-1.5429077l0,0v-58.1142578
	c0-0.8520508,0.6821289-1.5428467,1.5236206-1.5428467l0,0H509.2781372L509.2781372,340.2286377L509.2781372,340.2286377z"/>
<path class="st7" d="M509.2781372,340.2286377c0.8414307,0,1.5235596,0.6907959,1.5235596,1.5428467h0.000061v58.1142578h-0.000061
	c0,0.8521118-0.6821289,1.5429077-1.5236206,1.5429077v-0.000061h0.000061h-94.9724731v0.000061
	c-0.8414917-0.000061-1.5236206-0.6907959-1.5236206-1.5429077l0,0v-58.1142578
	c0-0.8520508,0.6821289-1.5428467,1.5236206-1.5428467l0,0H509.2781372L509.2781372,340.2286377L509.2781372,340.2286377z"/>
<polygon class="st8" points="417.8607788,364.4000244 426.4946289,364.4000244 426.4946289,355.6571655 417.8607788,355.6571655 "/>
<polygon class="st9" points="417.8607788,364.4000244 426.4946289,364.4000244 426.4946289,355.6571655 417.8607788,355.6571655 "/>
<text transform="matrix(0.85 0 0 1 429.0332031 362.8564453)" class="st10 st2 st3">GMLに定義されたクラス</text>
<polygon class="st0" points="417.8607788,374.1715088 426.4946289,374.1715088 426.4946289,365.4285889 417.8607788,365.4285889 "/>
<polygon class="st9" points="417.8607788,374.1715088 426.4946289,374.1715088 426.4946289,365.4285889 417.8607788,365.4285889 "/>
<text transform="matrix(0.85 0 0 1 429.0332031 372.6298828)" class="st10 st2 st3">CityGMLに定義されたクラス</text>
<polygon class="st5" points="417.8607788,383.9428711 426.4946289,383.9428711 426.4946289,375.2000732 417.8607788,375.2000732 "/>
<polygon class="st9" points="417.8607788,383.9428711 426.4946289,383.9428711 426.4946289,375.2000732 417.8607788,375.2000732 "/>
<text transform="matrix(0.85 0 0 1 429.0332031 382.4033203)" class="st10 st2 st3">i-URに定義されたクラス</text>
<text transform="matrix(0.85 0 0 1 453.9238281 353.28125)" class="st10 st4 st11 st12">凡例</text>
<polygon class="st0" points="233.5025024,72.8000336 324.9198608,72.8000336 324.9198608,31.6570892 233.5025024,31.6570892 "/>
<polygon class="st1" points="233.5025024,72.8000336 324.9198608,72.8000336 324.9198608,31.6570892 233.5025024,31.6570892 "/>
<text transform="matrix(0.85 0 -0.3126727 0.9498609 290.8859863 40.400322)" class="st2 st13">_CityObject</text>
<text transform="matrix(0.85 0 -0.3126727 0.9498609 237.0628204 50.6855354)" class="st2 st13">t</text>
<text transform="matrix(0.85 0 -0.3126727 0.9498609 237.0628204 50.6855354)" class="st14 st2 st13">t</text>
<text transform="matrix(0.85 0 -0.3126727 0.9498609 239.5970001 50.6855354)" class="st2 st13">r</text>
<text transform="matrix(0.85 0 -0.3126727 0.9498609 239.5970001 50.6855354)" class="st14 st2 st13">r</text>
<text transform="matrix(0.85 0 -0.3126727 0.9498609 242.1302032 50.6855354)" class="st2 st13">a</text>
<text transform="matrix(0.85 0 -0.3126727 0.9498609 242.1302032 50.6855354)" class="st14 st2 st13">a</text>
<text transform="matrix(0.85 0 -0.3126727 0.9498609 245.6809845 50.6855354)" class="st2 st13">n</text>
<text transform="matrix(0.85 0 -0.3126727 0.9498609 245.6809845 50.6855354)" class="st14 st2 st13">n</text>
<text transform="matrix(0.85 0 -0.3126727 0.9498609 249.7405548 50.6855354)" class="st2 st13">::</text>
<text transform="matrix(0.85 0 -0.3126727 0.9498609 249.7405548 50.6855354)" class="st14 st2 st13">::</text>
<text transform="matrix(0.85 0 -0.3126727 0.9498609 252.7757111 50.6855354)" class="st2 st13">_</text>
<text transform="matrix(0.85 0 -0.3126727 0.9498609 252.7757111 50.6855354)" class="st14 st2 st13">_</text>
<text transform="matrix(0.85 0 -0.3126727 0.9498609 255.3177032 50.6855354)" class="st2 st13">T</text>
<text transform="matrix(0.85 0 -0.3126727 0.9498609 255.3177032 50.6855354)" class="st14 st2 st13">T</text>
<text transform="matrix(0.85 0 -0.3126727 0.9498609 258.8694458 50.6855354)" class="st2 st13">r</text>
<text transform="matrix(0.85 0 -0.3126727 0.9498609 258.8694458 50.6855354)" class="st14 st2 st13">r</text>
<text transform="matrix(0.85 0 -0.3126727 0.9498609 261.4016724 50.6855354)" class="st2 st13">a</text>
<text transform="matrix(0.85 0 -0.3126727 0.9498609 261.4016724 50.6855354)" class="st14 st2 st13">a</text>
<text transform="matrix(0.85 0 -0.3126727 0.9498609 264.9524536 50.6855354)" class="st2 st13">n</text>
<text transform="matrix(0.85 0 -0.3126727 0.9498609 264.9524536 50.6855354)" class="st14 st2 st13">n</text>
<text transform="matrix(0.85 0 -0.3126727 0.9498609 269.0130005 50.6855354)" class="st2 st13">s</text>
<text transform="matrix(0.85 0 -0.3126727 0.9498609 269.0130005 50.6855354)" class="st14 st2 st13">s</text>
<text transform="matrix(0.85 0 -0.3126727 0.9498609 272.0579224 50.6855354)" class="st2 st13">p</text>
<text transform="matrix(0.85 0 -0.3126727 0.9498609 272.0579224 50.6855354)" class="st14 st2 st13">p</text>
<text transform="matrix(0.85 0 -0.3126727 0.9498609 276.1184692 50.6855354)" class="st2 st13">o</text>
<text transform="matrix(0.85 0 -0.3126727 0.9498609 276.1184692 50.6855354)" class="st14 st2 st13">o</text>
<text transform="matrix(0.85 0 -0.3126727 0.9498609 280.1780396 50.6855354)" class="st2 st13">r</text>
<text transform="matrix(0.85 0 -0.3126727 0.9498609 280.1780396 50.6855354)" class="st14 st2 st13">r</text>
<text transform="matrix(0.85 0 -0.3126727 0.9498609 282.7112427 50.6855354)" class="st2 st13">t</text>
<text transform="matrix(0.85 0 -0.3126727 0.9498609 282.7112427 50.6855354)" class="st14 st2 st13">t</text>
<text transform="matrix(0.85 0 -0.3126727 0.9498609 285.2454224 50.6855354)" class="st2 st13">a</text>
<text transform="matrix(0.85 0 -0.3126727 0.9498609 285.2454224 50.6855354)" class="st14 st2 st13">a</text>
<text transform="matrix(0.85 0 -0.3126727 0.9498609 288.7962036 50.6855354)" class="st2 st13">t</text>
<text transform="matrix(0.85 0 -0.3126727 0.9498609 288.7962036 50.6855354)" class="st14 st2 st13">t</text>
<text transform="matrix(0.85 0 -0.3126727 0.9498609 291.3303833 50.6855354)" class="st2 st13">i</text>
<text transform="matrix(0.85 0 -0.3126727 0.9498609 291.3303833 50.6855354)" class="st14 st2 st13">i</text>
<text transform="matrix(0.85 0 -0.3126727 0.9498609 292.8567505 50.6855354)" class="st2 st13">o</text>
<text transform="matrix(0.85 0 -0.3126727 0.9498609 292.8567505 50.6855354)" class="st14 st2 st13">o</text>
<text transform="matrix(0.85 0 -0.3126727 0.9498609 296.9172974 50.6855354)" class="st2 st13">n</text>
<text transform="matrix(0.85 0 -0.3126727 0.9498609 296.9172974 50.6855354)" class="st14 st2 st13">n</text>
<text transform="matrix(0.85 0 -0.3126727 0.9498609 300.9768677 50.6855354)" class="st2 st13">O</text>
<text transform="matrix(0.85 0 -0.3126727 0.9498609 300.9768677 50.6855354)" class="st14 st2 st13">O</text>
<text transform="matrix(0.85 0 -0.3126727 0.9498609 306.0530396 50.6855354)" class="st2 st13">b</text>
<text transform="matrix(0.85 0 -0.3126727 0.9498609 306.0530396 50.6855354)" class="st14 st2 st13">b</text>
<text transform="matrix(0.85 0 -0.3126727 0.9498609 310.1135864 50.6855354)" class="st2 st13">j</text>
<text transform="matrix(0.85 0 -0.3126727 0.9498609 310.1135864 50.6855354)" class="st14 st2 st13">j</text>
<text transform="matrix(0.85 0 -0.3126727 0.9498609 311.6399536 50.6855354)" class="st2 st13">e</text>
<text transform="matrix(0.85 0 -0.3126727 0.9498609 311.6399536 50.6855354)" class="st14 st2 st13">e</text>
<text transform="matrix(0.85 0 -0.3126727 0.9498609 315.1917114 50.6855354)" class="st2 st13">ct</text>
<text transform="matrix(0.85 0 -0.3126727 0.9498609 315.1917114 50.6855354)" class="st14 st2 st13">ct</text>
<polygon class="st5" points="8.514286,53.7714691 120.246582,53.7714691 120.246582,8.514267 8.514286,8.514267 "/>
<polygon class="st1" points="8.514286,53.7714691 120.246582,53.7714691 120.246582,8.514267 8.514286,8.514267 "/>
<text transform="matrix(0.85 0 0 1 46.6035156 18.8017578)" class="st2 st3">«DataType»</text>
<text transform="matrix(0.85 0 -0.3126727 0.9498609 37.970829 27.5400982)" class="st2 st13">u</text>
<text transform="matrix(0.85 0 -0.3126727 0.9498609 37.970829 27.5400982)" class="st14 st2 st13">u</text>
<text transform="matrix(0.85 0 -0.3126727 0.9498609 42.0303993 27.5400982)" class="st2 st13">r</text>
<text transform="matrix(0.85 0 -0.3126727 0.9498609 42.0303993 27.5400982)" class="st14 st2 st13">r</text>
<text transform="matrix(0.85 0 -0.3126727 0.9498609 44.5636024 27.5400982)" class="st2 st13">o</text>
<text transform="matrix(0.85 0 -0.3126727 0.9498609 44.5636024 27.5400982)" class="st14 st2 st13">o</text>
<text transform="matrix(0.85 0 -0.3126727 0.9498609 48.6241493 27.5400982)" class="st2 st13">::</text>
<text transform="matrix(0.85 0 -0.3126727 0.9498609 48.6241493 27.5400982)" class="st14 st2 st13">::</text>
<text transform="matrix(0.85 0 -0.3126727 0.9498609 51.658329 27.5400982)" class="st2 st13">D</text>
<text transform="matrix(0.85 0 -0.3126727 0.9498609 51.658329 27.5400982)" class="st14 st2 st13">D</text>
<text transform="matrix(0.85 0 -0.3126727 0.9498609 56.2345009 27.5400982)" class="st2 st13">m</text>
<text transform="matrix(0.85 0 -0.3126727 0.9498609 56.2345009 27.5400982)" class="st14 st2 st13">m</text>
<text transform="matrix(0.85 0 -0.3126727 0.9498609 62.3243446 27.5400982)" class="st2 st13">A</text>
<text transform="matrix(0.85 0 -0.3126727 0.9498609 62.3243446 27.5400982)" class="st14 st2 st13">A</text>
<text transform="matrix(0.85 0 -0.3126727 0.9498609 66.8936844 27.5400982)" class="st2 st13">tt</text>
<text transform="matrix(0.85 0 -0.3126727 0.9498609 66.8936844 27.5400982)" class="st14 st2 st13">tt</text>
<text transform="matrix(0.85 0 -0.3126727 0.9498609 71.9620438 27.5400982)" class="st2 st13">r</text>
<text transform="matrix(0.85 0 -0.3126727 0.9498609 71.9620438 27.5400982)" class="st14 st2 st13">r</text>
<text transform="matrix(0.85 0 -0.3126727 0.9498609 74.4952469 27.5400982)" class="st2 st13">i</text>
<text transform="matrix(0.85 0 -0.3126727 0.9498609 74.4952469 27.5400982)" class="st14 st2 st13">i</text>
<text transform="matrix(0.85 0 -0.3126727 0.9498609 76.0216141 27.5400982)" class="st2 st13">b</text>
<text transform="matrix(0.85 0 -0.3126727 0.9498609 76.0216141 27.5400982)" class="st14 st2 st13">b</text>
<text transform="matrix(0.85 0 -0.3126727 0.9498609 80.0811844 27.5400982)" class="st2 st13">u</text>
<text transform="matrix(0.85 0 -0.3126727 0.9498609 80.0811844 27.5400982)" class="st14 st2 st13">u</text>
<text transform="matrix(0.85 0 -0.3126727 0.9498609 84.1407547 27.5400982)" class="st2 st13">t</text>
<text transform="matrix(0.85 0 -0.3126727 0.9498609 84.1407547 27.5400982)" class="st14 st2 st13">t</text>
<text transform="matrix(0.85 0 -0.3126727 0.9498609 86.6759109 27.5400982)" class="st2 st13">e</text>
<text transform="matrix(0.85 0 -0.3126727 0.9498609 86.6759109 27.5400982)" class="st14 st2 st13">e</text>
<line class="st1" x1="8.514286" y1="31.6570892" x2="119.7387085" y2="31.6570892"/>
<text transform="matrix(0.85 0 0 1 11.0488281 40.9111328)" class="st2 st3">+</text>
<text transform="matrix(0.85 0 0 1 15.6181641 40.9111328)" class="st2 st3"> </text>
<text transform="matrix(0.85 0 0 1 22.2285156 40.9111328)" class="st2 st3">dmCode: gml::CodeType</text>
<text transform="matrix(0.85 0 0 1 11.0488281 49.6533203)" class="st2 st3">+</text>
<text transform="matrix(0.85 0 0 1 15.6181641 49.6533203)" class="st2 st3"> </text>
<text transform="matrix(0.85 0 0 1 22.2285156 49.6533203)" class="st2 st3">meshCode: gml::CodeType [0..1]</text>
<polygon class="st5" points="410.7505493,316.0571289 520.451355,316.0571289 520.451355,192.1143188 410.7505493,192.1143188 "/>
<polygon class="st1" points="410.7505493,316.0571289 520.451355,316.0571289 520.451355,192.1143188 410.7505493,192.1143188 "/>
<text transform="matrix(0.85 0 0 1 447.8222656 202.4033203)" class="st2 st3">«DataType»</text>
<text transform="matrix(0.85 0 0 1 431.0644531 211.1455078)" class="st4 st3">uro::FacilityIdAttribute</text>
<line class="st1" x1="410.7505493" y1="215.2572021" x2="519.9434814" y2="215.2572021"/>
<text transform="matrix(0.85 0 0 1 413.2910156 224.5126953)" class="st2 st3">+</text>
<text transform="matrix(0.85 0 0 1 417.8603516 224.5126953)" class="st2 st3"> </text>
<text transform="matrix(0.85 0 0 1 424.4628906 224.5126953)" class="st2 st3">id: xs::string [0..1]</text>
<text transform="matrix(0.85 0 0 1 413.2910156 233.2548828)" class="st2 st3">+</text>
<text transform="matrix(0.85 0 0 1 417.8603516 233.2548828)" class="st2 st3"> </text>
<text transform="matrix(0.85 0 0 1 424.4628906 233.2548828)" class="st2 st3">partId: xs::string [0..1]</text>
<text transform="matrix(0.85 0 0 1 413.2910156 241.9970703)" class="st2 st3">+</text>
<text transform="matrix(0.85 0 0 1 417.8603516 241.9970703)" class="st2 st3"> </text>
<text transform="matrix(0.85 0 0 1 424.4628906 241.9970703)" class="st2 st3">branchId: xs::string [0..1]</text>
<text transform="matrix(0.85 0 0 1 413.2910156 250.7470703)" class="st2 st3">+</text>
<text transform="matrix(0.85 0 0 1 417.8603516 250.7470703)" class="st2 st3"> </text>
<text transform="matrix(0.85 0 0 1 424.4628906 250.7470703)" class="st2 st3">prefecture: gml::CodeType [0..*]</text>
<text transform="matrix(0.85 0 0 1 413.2910156 259.4814453)" class="st2 st3">+</text>
<text transform="matrix(0.85 0 0 1 417.8603516 259.4814453)" class="st2 st3"> </text>
<text transform="matrix(0.85 0 0 1 424.4628906 259.4814453)" class="st2 st3">city: gml::CodeType [0..*]</text>
<text transform="matrix(0.85 0 0 1 413.2910156 268.2236328)" class="st2 st3">+</text>
<text transform="matrix(0.85 0 0 1 417.8603516 268.2236328)" class="st2 st3"> </text>
<text transform="matrix(0.85 0 0 1 424.4628906 268.2236328)" class="st2 st3">route: xs::string [0..1]</text>
<text transform="matrix(0.85 0 0 1 413.2910156 276.9736328)" class="st2 st3">+</text>
<text transform="matrix(0.85 0 0 1 417.8603516 276.9736328)" class="st2 st3"> </text>
<text transform="matrix(0.85 0 0 1 424.4628906 276.9736328)" class="st2 st3">startPost: xs::string [0..1]</text>
<text transform="matrix(0.85 0 0 1 413.2910156 285.7158203)" class="st2 st3">+</text>
<text transform="matrix(0.85 0 0 1 417.8603516 285.7158203)" class="st2 st3"> </text>
<text transform="matrix(0.85 0 0 1 424.4628906 285.7158203)" class="st2 st3">endPost: xs::string [0..1]</text>
<text transform="matrix(0.85 0 0 1 413.2910156 294.4501953)" class="st2 st3">+</text>
<text transform="matrix(0.85 0 0 1 417.8603516 294.4501953)" class="st2 st3"> </text>
<text transform="matrix(0.85 0 0 1 424.4628906 294.4501953)" class="st2 st3">startLat: xs::double [0..1]</text>
<text transform="matrix(0.85 0 0 1 413.2910156 303.1923828)" class="st2 st3">+</text>
<text transform="matrix(0.85 0 0 1 417.8603516 303.1923828)" class="st2 st3"> </text>
<text transform="matrix(0.85 0 0 1 424.4628906 303.1923828)" class="st2 st3">startLong: xs::double [0..1]</text>
<text transform="matrix(0.85 0 0 1 413.2910156 311.9345703)" class="st2 st3">+</text>
<text transform="matrix(0.85 0 0 1 417.8603516 311.9345703)" class="st2 st3"> </text>
<text transform="matrix(0.85 0 0 1 424.4628906 311.9345703)" class="st2 st3">alternativeName: xs::string [0..*]</text>
<polygon class="st5" points="410.7505493,180.8000488 513.3411255,180.8000488 513.3411255,135.5428467 410.7505493,135.5428467 "/>
<polygon class="st1" points="410.7505493,180.8000488 513.3411255,180.8000488 513.3411255,135.5428467 410.7505493,135.5428467 "/>
<text transform="matrix(0.85 0 0 1 444.2675781 145.8251953)" class="st2 st3">«DataType»</text>
<text transform="matrix(0.85 0 0 1 423.4472656 154.5751953)" class="st4 st3">uro::FacilityTypeAttribute</text>
<line class="st1" x1="410.7505493" y1="158.6856689" x2="512.833252" y2="158.6856689"/>
<text transform="matrix(0.85 0 0 1 413.2910156 167.9423828)" class="st2 st3">+</text>
<text transform="matrix(0.85 0 0 1 417.8603516 167.9423828)" class="st2 st3"> </text>
<text transform="matrix(0.85 0 0 1 424.4628906 167.9423828)" class="st2 st3">class: gml::CodeType [0..1]</text>
<text transform="matrix(0.85 0 0 1 413.2910156 176.6845703)" class="st2 st3">+</text>
<text transform="matrix(0.85 0 0 1 417.8603516 176.6845703)" class="st2 st3"> </text>
<text transform="matrix(0.85 0 0 1 424.4628906 176.6845703)" class="st2 st3">function: gml::CodeType [0..*]</text>
<polygon class="st5" points="410.7505493,99.5428314 496.0734253,99.5428314 496.0734253,58.4000092 410.7505493,58.4000092 "/>
<polygon class="st1" points="410.7505493,99.5428314 496.0734253,99.5428314 496.0734253,58.4000092 410.7505493,58.4000092 "/>
<text transform="matrix(0.85 0 0 1 435.6347656 68.6845703)" class="st2 st3">«DataType»</text>
<text transform="matrix(0.85 0 -0.3126727 0.9498609 421.9231873 77.4300537)" class="st2 st13">u</text>
<text transform="matrix(0.85 0 -0.3126727 0.9498609 421.9231873 77.4300537)" class="st14 st2 st13">u</text>
<text transform="matrix(0.85 0 -0.3126727 0.9498609 425.9827576 77.4300537)" class="st2 st13">r</text>
<text transform="matrix(0.85 0 -0.3126727 0.9498609 425.9827576 77.4300537)" class="st14 st2 st13">r</text>
<text transform="matrix(0.85 0 -0.3126727 0.9498609 428.5159607 77.4300537)" class="st2 st13">o</text>
<text transform="matrix(0.85 0 -0.3126727 0.9498609 428.5159607 77.4300537)" class="st14 st2 st13">o</text>
<text transform="matrix(0.85 0 -0.3126727 0.9498609 432.5765076 77.4300537)" class="st2 st13">::</text>
<text transform="matrix(0.85 0 -0.3126727 0.9498609 432.5765076 77.4300537)" class="st14 st2 st13">::</text>
<text transform="matrix(0.85 0 -0.3126727 0.9498609 435.6106873 77.4300537)" class="st2 st13">F</text>
<text transform="matrix(0.85 0 -0.3126727 0.9498609 435.6106873 77.4300537)" class="st14 st2 st13">F</text>
<text transform="matrix(0.85 0 -0.3126727 0.9498609 439.1643982 77.4300537)" class="st2 st13">a</text>
<text transform="matrix(0.85 0 -0.3126727 0.9498609 439.1643982 77.4300537)" class="st14 st2 st13">a</text>
<text transform="matrix(0.85 0 -0.3126727 0.9498609 442.7151794 77.4300537)" class="st2 st13">c</text>
<text transform="matrix(0.85 0 -0.3126727 0.9498609 442.7151794 77.4300537)" class="st14 st2 st13">c</text>
<text transform="matrix(0.85 0 -0.3126727 0.9498609 445.7649841 77.4300537)" class="st2 st13">ili</text>
<text transform="matrix(0.85 0 -0.3126727 0.9498609 445.7649841 77.4300537)" class="st14 st2 st13">ili</text>
<text transform="matrix(0.85 0 -0.3126727 0.9498609 450.3440857 77.4300537)" class="st2 st13">t</text>
<text transform="matrix(0.85 0 -0.3126727 0.9498609 450.3440857 77.4300537)" class="st14 st2 st13">t</text>
<text transform="matrix(0.85 0 -0.3126727 0.9498609 452.8782654 77.4300537)" class="st2 st13">y</text>
<text transform="matrix(0.85 0 -0.3126727 0.9498609 452.8782654 77.4300537)" class="st14 st2 st13">y</text>
<text transform="matrix(0.85 0 -0.3126727 0.9498609 456.4300232 77.4300537)" class="st2 st13">A</text>
<text transform="matrix(0.85 0 -0.3126727 0.9498609 456.4300232 77.4300537)" class="st14 st2 st13">A</text>
<text transform="matrix(0.85 0 -0.3126727 0.9498609 460.9983826 77.4300537)" class="st2 st13">tt</text>
<text transform="matrix(0.85 0 -0.3126727 0.9498609 460.9983826 77.4300537)" class="st14 st2 st13">tt</text>
<text transform="matrix(0.85 0 -0.3126727 0.9498609 466.0677185 77.4300537)" class="st2 st13">r</text>
<text transform="matrix(0.85 0 -0.3126727 0.9498609 466.0677185 77.4300537)" class="st14 st2 st13">r</text>
<text transform="matrix(0.85 0 -0.3126727 0.9498609 468.6009216 77.4300537)" class="st2 st13">i</text>
<text transform="matrix(0.85 0 -0.3126727 0.9498609 468.6009216 77.4300537)" class="st14 st2 st13">i</text>
<text transform="matrix(0.85 0 -0.3126727 0.9498609 470.1272888 77.4300537)" class="st2 st13">b</text>
<text transform="matrix(0.85 0 -0.3126727 0.9498609 470.1272888 77.4300537)" class="st14 st2 st13">b</text>
<text transform="matrix(0.85 0 -0.3126727 0.9498609 474.1868591 77.4300537)" class="st2 st13">u</text>
<text transform="matrix(0.85 0 -0.3126727 0.9498609 474.1868591 77.4300537)" class="st14 st2 st13">u</text>
<text transform="matrix(0.85 0 -0.3126727 0.9498609 478.2464294 77.4300537)" class="st2 st13">t</text>
<text transform="matrix(0.85 0 -0.3126727 0.9498609 478.2464294 77.4300537)" class="st14 st2 st13">t</text>
<text transform="matrix(0.85 0 -0.3126727 0.9498609 480.7806091 77.4300537)" class="st2 st13">e</text>
<text transform="matrix(0.85 0 -0.3126727 0.9498609 480.7806091 77.4300537)" class="st14 st2 st13">e</text>
<line class="st1" x1="410.7505493" y1="81.5428314" x2="495.5655518" y2="81.5428314"/>
<text transform="matrix(0.85 0 0 1 413.2910156 90.8017578)" class="st2 st3">+</text>
<text transform="matrix(0.85 0 0 1 417.8603516 90.8017578)" class="st2 st3"> </text>
<text transform="matrix(0.85 0 0 1 424.4628906 90.8017578)" class="st2 st3">facilityId: xs::string [0..1]</text>
<polygon class="st5" points="9.5300331,451.3143311 163.9237518,451.3143311 163.9237518,336.1143188 9.5300331,336.1143188 "/>
<polygon class="st1" points="9.5300331,451.3143311 163.9237518,451.3143311 163.9237518,336.1143188 9.5300331,336.1143188 "/>
<text transform="matrix(0.85 0 0 1 68.9472656 346.3955078)" class="st2 st3">«DataType»</text>
<text transform="matrix(0.85 0 0 1 29.3378906 355.1376953)" class="st4 st3">uro::PublicSuveyDataQualityAttribute</text>
<line class="st1" x1="9.5300331" y1="359.2572021" x2="163.4158783" y2="359.2572021"/>
<text transform="matrix(0.85 0 0 1 12.0644531 368.5126953)" class="st2 st3">+</text>
<text transform="matrix(0.85 0 0 1 16.6337891 368.5126953)" class="st2 st3"> </text>
<text transform="matrix(0.85 0 0 1 23.2441406 368.5126953)" class="st2 st3">srcScaleLod0: gml::CodeType [0..1]</text>
<text transform="matrix(0.85 0 0 1 12.0644531 377.2548828)" class="st2 st3">+</text>
<text transform="matrix(0.85 0 0 1 16.6337891 377.2548828)" class="st2 st3"> </text>
<text transform="matrix(0.85 0 0 1 23.2441406 377.2548828)" class="st2 st3">srcScaleLod1: gml::CodeType [0..1]</text>
<text transform="matrix(0.85 0 0 1 12.0644531 385.9970703)" class="st2 st3">+</text>
<text transform="matrix(0.85 0 0 1 16.6337891 385.9970703)" class="st2 st3"> </text>
<text transform="matrix(0.85 0 0 1 23.2441406 385.9970703)" class="st2 st3">srcScaleLod2: gml::CodeType [0..1]</text>
<text transform="matrix(0.85 0 0 1 12.0644531 394.7392578)" class="st2 st3">+</text>
<text transform="matrix(0.85 0 0 1 16.6337891 394.7392578)" class="st2 st3"> </text>
<text transform="matrix(0.85 0 0 1 23.2441406 394.7392578)" class="st2 st3">srcScaleLod3: gml::CodeType [0..1]</text>
<text transform="matrix(0.85 0 0 1 12.0644531 403.4814453)" class="st2 st3">+</text>
<text transform="matrix(0.85 0 0 1 16.6337891 403.4814453)" class="st2 st3"> </text>
<text transform="matrix(0.85 0 0 1 23.2441406 403.4814453)" class="st2 st3">srcScaleLod4: gml::CodeType [0..1]</text>
<text transform="matrix(0.85 0 0 1 12.0644531 412.2314453)" class="st2 st3">+</text>
<text transform="matrix(0.85 0 0 1 16.6337891 412.2314453)" class="st2 st3"> </text>
<text transform="matrix(0.85 0 0 1 23.2441406 412.2314453)" class="st2 st3">publicSurveySrcDescLod0: gml::CodeType [0..*]</text>
<text transform="matrix(0.85 0 0 1 12.0644531 420.9658203)" class="st2 st3">+</text>
<text transform="matrix(0.85 0 0 1 16.6337891 420.9658203)" class="st2 st3"> </text>
<text transform="matrix(0.85 0 0 1 23.2441406 420.9658203)" class="st2 st3">publicSurveySrcDescLod1: gml::CodeType [0..*]</text>
<text transform="matrix(0.85 0 0 1 12.0644531 429.7080078)" class="st2 st3">+</text>
<text transform="matrix(0.85 0 0 1 16.6337891 429.7080078)" class="st2 st3"> </text>
<text transform="matrix(0.85 0 0 1 23.2441406 429.7080078)" class="st2 st3">publicSurveySrcDescLod2: gml::CodeType [0..*]</text>
<text transform="matrix(0.85 0 0 1 12.0644531 438.4580078)" class="st2 st3">+</text>
<text transform="matrix(0.85 0 0 1 16.6337891 438.4580078)" class="st2 st3"> </text>
<text transform="matrix(0.85 0 0 1 23.2441406 438.4580078)" class="st2 st3">publicSurveySrcDescLod3: gml::CodeType [0..*]</text>
<text transform="matrix(0.85 0 0 1 12.0644531 447.2001953)" class="st2 st3">+</text>
<text transform="matrix(0.85 0 0 1 16.6337891 447.2001953)" class="st2 st3"> </text>
<text transform="matrix(0.85 0 0 1 23.2441406 447.2001953)" class="st2 st3">publicSurveySrcDescLod4: gml::CodeType [0..*]</text>
<polygon class="st5" points="8.514286,117.0285492 149.7032776,117.0285492 149.7032776,66.1142426 8.514286,66.1142426 "/>
<polygon class="st1" points="8.514286,117.0285492 149.7032776,117.0285492 149.7032776,66.1142426 8.514286,66.1142426 "/>
<text transform="matrix(0.85 0 0 1 61.3300781 76.3955078)" class="st2 st3">«DataType»</text>
<text transform="matrix(0.85 0 0 1 38.4785156 85.1376953)" class="st4 st3">uro::KeyValuePairAttribute</text>
<line class="st1" x1="8.514286" y1="89.2571869" x2="149.1954041" y2="89.2571869"/>
<text transform="matrix(0.85 0 0 1 11.0488281 98.5126953)" class="st2 st3">+</text>
<text transform="matrix(0.85 0 0 1 15.6181641 98.5126953)" class="st2 st3"> </text>
<text transform="matrix(0.85 0 0 1 22.2285156 98.5126953)" class="st2 st3">key: gml::CodeType</text>
<text transform="matrix(0.85 0 0 1 11.0488281 107.2548828)" class="st2 st3">+</text>
<text transform="matrix(0.85 0 0 1 15.6181641 107.2548828)" class="st2 st3"> </text>
<text transform="matrix(0.85 0 0 1 22.2285156 107.2548828)" class="st2 st3">codeValue: gml::CodeType [0..1]</text>
<polygon class="st5" points="10.5457802,281.6000366 162.9080048,281.6000366 162.9080048,131.4285736 10.5457802,131.4285736 "/>
<polygon class="st1" points="10.5457802,281.6000366 162.9080048,281.6000366 162.9080048,131.4285736 10.5457802,131.4285736 "/>
<text transform="matrix(0.85 0 0 1 68.9472656 141.7080078)" class="st2 st3">«DataType»</text>
<text transform="matrix(0.85 0 0 1 47.6191406 150.4501953)" class="st4 st3">uro::DataQualityAttribute</text>
<line class="st1" x1="10.5457802" y1="154.5714111" x2="162.4001312" y2="154.5714111"/>
<text transform="matrix(0.85 0 0 1 13.0800781 163.8251953)" class="st2 st3">+</text>
<text transform="matrix(0.85 0 0 1 17.6494141 163.8251953)" class="st2 st3"> </text>
<text transform="matrix(0.85 0 0 1 24.2597656 163.8251953)" class="st2 st3">geometrySrcDescLod0: gml::CodeType [0..*]</text>
<text transform="matrix(0.85 0 0 1 13.0800781 172.5673828)" class="st2 st3">+</text>
<text transform="matrix(0.85 0 0 1 17.6494141 172.5673828)" class="st2 st3"> </text>
<text transform="matrix(0.85 0 0 1 24.2597656 172.5673828)" class="st2 st3">geometrySrcDescLod1: gml::CodeType [1..*]</text>
<text transform="matrix(0.85 0 0 1 13.0800781 181.3095703)" class="st2 st3">+</text>
<text transform="matrix(0.85 0 0 1 17.6494141 181.3095703)" class="st2 st3"> </text>
<text transform="matrix(0.85 0 0 1 24.2597656 181.3095703)" class="st2 st3">geometrySrcDescLod2: gml::CodeType [0..*]</text>
<text transform="matrix(0.85 0 0 1 13.0800781 190.0595703)" class="st2 st3">+</text>
<text transform="matrix(0.85 0 0 1 17.6494141 190.0595703)" class="st2 st3"> </text>
<text transform="matrix(0.85 0 0 1 24.2597656 190.0595703)" class="st2 st3">geometrySrcDescLod3: gml::CodeType [0..*]</text>
<text transform="matrix(0.85 0 0 1 13.0800781 198.8017578)" class="st2 st3">+</text>
<text transform="matrix(0.85 0 0 1 17.6494141 198.8017578)" class="st2 st3"> </text>
<text transform="matrix(0.85 0 0 1 24.2597656 198.8017578)" class="st2 st3">geometrySrcDescLod4: gml::CodeType [0..*]</text>
<text transform="matrix(0.85 0 0 1 13.0800781 207.5439453)" class="st2 st3">+</text>
<text transform="matrix(0.85 0 0 1 17.6494141 207.5439453)" class="st2 st3"> </text>
<text transform="matrix(0.85 0 0 1 24.2597656 207.5439453)" class="st2 st3">thematicSrcDesc: gml::CodeType [0..*]</text>
<text transform="matrix(0.85 0 0 1 13.0800781 216.2783203)" class="st2 st3">+</text>
<text transform="matrix(0.85 0 0 1 17.6494141 216.2783203)" class="st2 st3"> </text>
<text transform="matrix(0.85 0 0 1 24.2597656 216.2783203)" class="st2 st3">appearanceSrcDescLod0: gml::CodeType [0..*]</text>
<text transform="matrix(0.85 0 0 1 13.0800781 225.0205078)" class="st2 st3">+</text>
<text transform="matrix(0.85 0 0 1 17.6494141 225.0205078)" class="st2 st3"> </text>
<text transform="matrix(0.85 0 0 1 24.2597656 225.0205078)" class="st2 st3">appearanceSrcDescLod1: gml::CodeType [0..*]</text>
<text transform="matrix(0.85 0 0 1 13.0800781 233.7705078)" class="st2 st3">+</text>
<text transform="matrix(0.85 0 0 1 17.6494141 233.7705078)" class="st2 st3"> </text>
<text transform="matrix(0.85 0 0 1 24.2597656 233.7705078)" class="st2 st3">appearanceSrcDescLod2: gml::CodeType [0..*]</text>
<text transform="matrix(0.85 0 0 1 13.0800781 242.5126953)" class="st2 st3">+</text>
<text transform="matrix(0.85 0 0 1 17.6494141 242.5126953)" class="st2 st3"> </text>
<text transform="matrix(0.85 0 0 1 24.2597656 242.5126953)" class="st2 st3">appearanceSrcDescLod3: gml::CodeType [0..*]</text>
<text transform="matrix(0.85 0 0 1 13.0800781 251.2470703)" class="st2 st3">+</text>
<text transform="matrix(0.85 0 0 1 17.6494141 251.2470703)" class="st2 st3"> </text>
<text transform="matrix(0.85 0 0 1 24.2597656 251.2470703)" class="st2 st3">appearanceSrcDescLod4: gml::CodeType [0..*]</text>
<text transform="matrix(0.85 0 0 1 13.0800781 259.9970703)" class="st2 st3">+</text>
<text transform="matrix(0.85 0 0 1 17.6494141 259.9970703)" class="st2 st3"> </text>
<text transform="matrix(0.85 0 0 1 24.2597656 259.9970703)" class="st2 st3">lodType: gml::CodeType [0..*]</text>
<text transform="matrix(0.85 0 0 1 13.0800781 268.7392578)" class="st2 st3">+</text>
<text transform="matrix(0.85 0 0 1 17.6494141 268.7392578)" class="st2 st3"> </text>
<text transform="matrix(0.85 0 0 1 24.2597656 268.7392578)" class="st2 st3">lod1HeightType: gml::CodeType [0..1]</text>
<text transform="matrix(0.85 0 0 1 13.0800781 277.4814453)" class="st2 st3">+</text>
<text transform="matrix(0.85 0 0 1 17.6494141 277.4814453)" class="st2 st3"> </text>
<text transform="matrix(0.85 0 0 1 24.2597656 277.4814453)" class="st2 st3">tranDataAcquisition: xs::string [0..1]</text>
<line class="st1" x1="410.2426758" y1="78.9714203" x2="355.9001465" y2="78.9714203"/>
<line class="st1" x1="355.9001465" y1="78.9714203" x2="355.9001465" y2="154.0571289"/>
<line class="st1" x1="355.9001465" y1="154.0571289" x2="331.0143433" y2="154.0571289"/>
<polyline class="st15" points="336.0930786,151.4857178 331.0143433,154.0571289 336.0930786,156.62854 341.171814,154.0571289 
	336.0930786,151.4857178 "/>
<polyline class="st1" points="336.0930786,151.4857178 331.0143433,154.0571289 336.0930786,156.62854 341.171814,154.0571289 "/>
<polyline class="st1" points="402.6245728,75.8857269 410.2426758,78.9714203 402.6245728,82.0571136 "/>
<line class="st1" x1="410.2426758" y1="147.8857422" x2="355.9001465" y2="147.8857422"/>
<polyline class="st15" points="336.0930786,151.4857178 331.0143433,154.0571289 336.0930786,156.62854 341.171814,154.0571289 
	336.0930786,151.4857178 "/>
<polyline class="st1" points="336.0930786,151.4857178 331.0143433,154.0571289 336.0930786,156.62854 341.171814,154.0571289 "/>
<polyline class="st1" points="402.6245728,144.8000488 410.2426758,147.8857422 402.6245728,150.9714355 "/>
<line class="st1" x1="410.2426758" y1="252.8000488" x2="355.9001465" y2="252.8000488"/>
<line class="st1" x1="355.9001465" y1="252.8000488" x2="355.9001465" y2="154.0571289"/>
<polyline class="st15" points="336.0930786,151.4857178 331.0143433,154.0571289 336.0930786,156.62854 341.171814,154.0571289 
	336.0930786,151.4857178 "/>
<polygon class="st1" points="336.0930786,151.4857178 331.0143433,154.0571289 336.0930786,156.62854 341.171814,154.0571289 "/>
<polyline class="st1" points="402.6245728,249.7142944 410.2426758,252.8000488 402.6245728,255.8857422 "/>
<line class="st1" x1="120.7544556" y1="30.1142426" x2="208.1088104" y2="30.1142426"/>
<line class="st1" x1="208.1088104" y1="30.1142426" x2="208.1088104" y2="52.2286224"/>
<line class="st1" x1="208.1088104" y1="52.2286224" x2="232.9946289" y2="52.2286224"/>
<polyline class="st15" points="227.915863,54.8000336 232.9946289,52.2286224 227.915863,49.6570892 222.8371429,52.2286224 
	227.915863,54.8000336 "/>
<polygon class="st1" points="227.915863,54.8000336 232.9946289,52.2286224 227.915863,49.6570892 222.8371429,52.2286224 "/>
<polyline class="st1" points="128.3725739,33.200058 120.7544556,30.1142426 128.3725739,27.0285492 "/>
<line class="st1" x1="348.2820435" y1="517.1429443" x2="348.2820435" y2="505.8286133"/>
<line class="st1" x1="348.2820435" y1="505.8286133" x2="270.069458" y2="505.8286133"/>
<line class="st1" x1="270.069458" y1="505.8286133" x2="270.069458" y2="480.6286011"/>
<polyline class="st16" points="273.1166992,488.8571777 267.0222168,488.8571777 270.069458,480.6286011 273.1166992,488.8571777 
	"/>
<polygon class="st1" points="273.1166992,488.8571777 267.0222168,488.8571777 270.069458,480.6286011 "/>
<line class="st1" x1="204.5536957" y1="517.1429443" x2="204.5536957" y2="505.8286133"/>
<line class="st1" x1="204.5536957" y1="505.8286133" x2="270.069458" y2="505.8286133"/>
<line class="st1" x1="270.5773315" y1="294.4571533" x2="270.5773315" y2="254.3428955"/>
<polyline class="st15" points="273.1166992,259.4857178 270.5773315,254.3428955 268.0379639,259.4857178 270.5773315,264.6286011 
	273.1166992,259.4857178 "/>
<polygon class="st1" points="273.1166992,259.4857178 270.5773315,254.3428955 268.0379639,259.4857178 270.5773315,264.6286011 "/>
<polyline class="st1" points="273.6245728,286.7429199 270.5773315,294.4571533 267.5300903,286.7429199 "/>
<line class="st1" x1="278.1954346" y1="212.1714478" x2="278.1954346" y2="184.9143066"/>
<polyline class="st16" points="281.2426758,193.1428833 275.1481934,193.1428833 278.1954346,184.9143066 281.2426758,193.1428833 
	"/>
<polygon class="st1" points="281.2426758,193.1428833 275.1481934,193.1428833 278.1954346,184.9143066 "/>
<line class="st1" x1="283.2741699" y1="123.7143402" x2="283.2741699" y2="73.3143158"/>
<polyline class="st16" points="286.3214111,81.5428314 280.2269287,81.5428314 283.2741699,73.3143158 286.3214111,81.5428314 "/>
<polygon class="st1" points="286.3214111,81.5428314 280.2269287,81.5428314 283.2741699,73.3143158 "/>
<line class="st1" x1="163.4158783" y1="175.1428833" x2="227.4079895" y2="174.6286011"/>
<polyline class="st15" points="222.3292694,177.2000122 227.4079895,174.6286011 222.3292694,172.0571289 217.2505341,174.6286011 
	222.3292694,177.2000122 "/>
<polygon class="st1" points="222.3292694,177.2000122 227.4079895,174.6286011 222.3292694,172.0571289 217.2505341,174.6286011 "/>
<polyline class="st1" points="171.0339966,178.2285767 163.4158783,175.1428833 171.0339966,172.0571289 "/>
<line class="st1" x1="150.2111511" y1="90.2857513" x2="202.522171" y2="90.2857513"/>
<line class="st1" x1="202.522171" y1="90.2857513" x2="202.522171" y2="154.0571289"/>
<line class="st1" x1="202.522171" y1="154.0571289" x2="227.4079895" y2="154.0571289"/>
<polyline class="st15" points="222.3292694,156.62854 227.4079895,154.0571289 222.3292694,151.4857178 217.2505341,154.0571289 
	222.3292694,156.62854 "/>
<polygon class="st1" points="222.3292694,156.62854 227.4079895,154.0571289 222.3292694,151.4857178 217.2505341,154.0571289 "/>
<polyline class="st1" points="157.8292694,93.3714447 150.2111511,90.2857513 157.8292694,87.200058 "/>
<line class="st1" x1="86.7268906" y1="335.6000366" x2="86.7268906" y2="282.1143188"/>
<polyline class="st15" points="89.2662582,287.2572021 86.7268906,282.1143188 84.1875229,287.2572021 86.7268906,292.4000244 
	89.2662582,287.2572021 "/>
<polygon class="st1" points="89.2662582,287.2572021 86.7268906,282.1143188 84.1875229,287.2572021 86.7268906,292.4000244 "/>
<polyline class="st1" points="89.7741318,327.8857422 86.7268906,335.6000366 83.6796494,327.8857422 "/>
<text transform="matrix(0.85 0 0 1 93.8378906 326.8564453)" class="st2 st3">+publicSurveyDataQualityAttribute</text>
<text transform="matrix(0.85 0 0 1 65.9003906 327.8798828)" class="st2 st3">0..1</text>
<text transform="matrix(0.85 0 0 1 170.0175781 199.3173828)" class="st2 st3">+tranDataQualityAttribute</text>
<text transform="matrix(0.85 0 0 1 164.9394531 184.9111328)" class="st2 st3">1</text>
<text transform="matrix(0.85 0 0 1 175.6035156 85.1376953)" class="st2 st3">+tranKeyValuePairAttribute</text>
<text transform="matrix(0.85 0 0 1 158.3300781 84.6298828)" class="st2 st3">0</text>
<text transform="matrix(0.85 0 0 1 161.8891602 84.6298828)" class="st2 st3">..</text>
<text transform="matrix(0.85 0 0 1 164.9233398 84.6298828)" class="st2 st3">*</text>
<text transform="matrix(0.85 0 0 1 183.2285156 289.8251953)" class="st2 st3">+squareUrbanPlanAttribute</text>
<text transform="matrix(0.85 0 0 1 280.2285156 291.8876953)" class="st2 st3">0..1</text>
<text transform="matrix(0.85 0 0 1 362.5019531 128.3408203)" class="st2 st3">+tranFacilityTypeAttribute</text>
<text transform="matrix(0.85 0 0 1 388.9082031 161.2470703)" class="st2 st3">0..*</text>
<text transform="matrix(0.85 0 0 1 187.2910156 22.9111328)" class="st2 st3">+tranDmAttribute</text>
<text transform="matrix(0.85 0 0 1 148.1738281 42.9658203)" class="st2 st3">0</text>
<text transform="matrix(0.85 0 0 1 151.7329102 42.9658203)" class="st2 st3">..</text>
<text transform="matrix(0.85 0 0 1 154.7670898 42.9658203)" class="st2 st3">*</text>
<text transform="matrix(0.85 0 0 1 342.6972656 74.8564453)" class="st2 st3">+tranFacilityAttribute</text>
<text transform="matrix(0.85 0 0 1 399.5722656 88.7392578)" class="st2 st3">0..*</text>
<text transform="matrix(0.85 0 0 1 335.0722656 265.1376953)" class="st2 st3">+tranFacilityIdAttribute</text>
<text transform="matrix(0.85 0 0 1 387.3847656 250.2236328)" class="st2 st3">0..1</text>
</svg>
