<?xml version="1.0" encoding="utf-8"?>
<!-- Generator: Adobe Illustrator 27.0.0, SVG Export Plug-In . SVG Version: 6.00 Build 0)  -->
<svg version="1.1" id="レイヤー_1" xmlns="http://www.w3.org/2000/svg" xmlns:xlink="http://www.w3.org/1999/xlink" x="0px"
	 y="0px" viewBox="0 0 805.2354736 761.1738281" style="enable-background:new 0 0 805.2354736 761.1738281;" xml:space="preserve">
<style type="text/css">
	.st0{fill-rule:evenodd;clip-rule:evenodd;fill:#F0F0F0;}
	.st1{fill:none;stroke:#D7D7D7;stroke-width:0.5142857;stroke-linecap:square;stroke-miterlimit:10;}
	.st2{fill-rule:evenodd;clip-rule:evenodd;fill:#A0FFC0;}
	.st3{fill:none;stroke:#000000;stroke-width:0.5142857;stroke-linecap:square;stroke-miterlimit:10;}
	.st4{fill:#003060;}
	.st5{font-family:'YuGothicUI-Regular';}
	.st6{font-size:6.6857147px;}
	.st7{fill-rule:evenodd;clip-rule:evenodd;fill:#FFFFCC;}
	.st8{fill-rule:evenodd;clip-rule:evenodd;fill:#FFCCFF;}
	.st9{font-family:'YuGothicUI-Bold';}
	.st10{font-size:8.2285719px;}
	.st11{letter-spacing:-1.1764705;}
	.st12{fill:none;stroke:#000000;stroke-width:1.0285715;stroke-linecap:round;stroke-linejoin:bevel;stroke-miterlimit:10;}
	.st13{font-size:7.0386257px;}
	.st14{fill:none;stroke:#000000;stroke-width:0.1910204;stroke-miterlimit:10;}
	.st15{fill-rule:evenodd;clip-rule:evenodd;}
	.st16{fill-rule:evenodd;clip-rule:evenodd;fill:#FFFFFF;}
</style>
<path class="st0" d="M159.871994,35.3603973c0.8414612,0,1.5236053,0.6907959,1.5236053,1.5428467h0.0000153v45.2572021h-0.0000153
	c0,0.8520508-0.6821442,1.5428467-1.5236206,1.5428467l0,0h0.0000153H68.9625397H68.962532
	c-0.8414688,0-1.5236206-0.6907959-1.5236206-1.5428467h0.0000076V36.903244c0-0.8520508,0.6821442-1.5428467,1.5236206-1.5428467
	l0,0H159.871994L159.871994,35.3603973L159.871994,35.3603973z"/>
<path class="st1" d="M159.871994,35.3603973c0.8414612,0,1.5236053,0.6907959,1.5236053,1.5428467h0.0000153v45.2572021h-0.0000153
	c0,0.8520508-0.6821442,1.5428467-1.5236206,1.5428467l0,0h0.0000153H68.9625397H68.962532
	c-0.8414688,0-1.5236206-0.6907959-1.5236206-1.5428467h0.0000076V36.903244c0-0.8520508,0.6821442-1.5428467,1.5236206-1.5428467
	l0,0H159.871994L159.871994,35.3603973L159.871994,35.3603973z"/>
<polygon class="st2" points="72.5176544,59.5319061 81.1515198,59.5319061 81.1515198,50.7889862 72.5176544,50.7889862 "/>
<polygon class="st3" points="72.5176544,59.5319061 81.1515198,59.5319061 81.1515198,50.7889862 72.5176544,50.7889862 "/>
<text transform="matrix(0.85 0 0 1 83.6862869 57.9908981)" class="st4 st5 st6">GMLで定義されたクラス</text>
<polygon class="st7" points="72.5176544,69.3032684 81.1515198,69.3032684 81.1515198,60.5604706 72.5176544,60.5604706 "/>
<polygon class="st3" points="72.5176544,69.3032684 81.1515198,69.3032684 81.1515198,60.5604706 72.5176544,60.5604706 "/>
<text transform="matrix(0.85 0 0 1 83.6862869 67.7643356)" class="st4 st5 st6">CityGMLで定義されたクラス</text>
<polygon class="st8" points="72.5176544,79.0747528 81.1515198,79.0747528 81.1515198,70.3318329 72.5176544,70.3318329 "/>
<polygon class="st3" points="72.5176544,79.0747528 81.1515198,79.0747528 81.1515198,70.3318329 72.5176544,70.3318329 "/>
<text transform="matrix(0.85 0 0 1 83.6862869 77.5299606)" class="st4 st5 st6">i-URで定義されたクラス</text>
<text transform="matrix(0.85 0 0 1 108.5847244 48.4157028)" class="st4 st9 st10 st11">凡例</text>
<polygon class="st8" points="89.7853775,569.1890259 175.6160889,569.1890259 175.6160889,528.0462036 89.7853775,528.0462036 "/>
<polygon class="st12" points="89.7853775,569.1890259 175.6160889,569.1890259 175.6160889,528.0462036 89.7853775,528.0462036 "/>
<text transform="matrix(0.85 0 0 1 115.1784744 538.3268433)" class="st5 st6">«DataType»</text>
<text transform="matrix(0.85 0 -0.3126727 0.9498609 101.468956 547.0757446)" class="st5 st13">u</text>
<text transform="matrix(0.85 0 -0.3126727 0.9498609 101.468956 547.0757446)" class="st14 st5 st13">u</text>
<text transform="matrix(0.85 0 -0.3126727 0.9498609 105.5275497 547.0757446)" class="st5 st13">r</text>
<text transform="matrix(0.85 0 -0.3126727 0.9498609 105.5275497 547.0757446)" class="st14 st5 st13">r</text>
<text transform="matrix(0.85 0 -0.3126727 0.9498609 108.0607529 547.0757446)" class="st5 st13">o</text>
<text transform="matrix(0.85 0 -0.3126727 0.9498609 108.0607529 547.0757446)" class="st14 st5 st13">o</text>
<text transform="matrix(0.85 0 -0.3126727 0.9498609 112.1212997 547.0757446)" class="st5 st13">::</text>
<text transform="matrix(0.85 0 -0.3126727 0.9498609 112.1212997 547.0757446)" class="st14 st5 st13">::</text>
<text transform="matrix(0.85 0 -0.3126727 0.9498609 115.156456 547.0757446)" class="st5 st13">F</text>
<text transform="matrix(0.85 0 -0.3126727 0.9498609 115.156456 547.0757446)" class="st14 st5 st13">F</text>
<text transform="matrix(0.85 0 -0.3126727 0.9498609 118.7091904 547.0757446)" class="st5 st13">a</text>
<text transform="matrix(0.85 0 -0.3126727 0.9498609 118.7091904 547.0757446)" class="st14 st5 st13">a</text>
<text transform="matrix(0.85 0 -0.3126727 0.9498609 122.2599716 547.0757446)" class="st5 st13">c</text>
<text transform="matrix(0.85 0 -0.3126727 0.9498609 122.2599716 547.0757446)" class="st14 st5 st13">c</text>
<text transform="matrix(0.85 0 -0.3126727 0.9498609 125.3107529 547.0757446)" class="st5 st13">ili</text>
<text transform="matrix(0.85 0 -0.3126727 0.9498609 125.3107529 547.0757446)" class="st14 st5 st13">ili</text>
<text transform="matrix(0.85 0 -0.3126727 0.9498609 129.8888702 547.0757446)" class="st5 st13">t</text>
<text transform="matrix(0.85 0 -0.3126727 0.9498609 129.8888702 547.0757446)" class="st14 st5 st13">t</text>
<text transform="matrix(0.85 0 -0.3126727 0.9498609 132.4240265 547.0757446)" class="st5 st13">y</text>
<text transform="matrix(0.85 0 -0.3126727 0.9498609 132.4240265 547.0757446)" class="st14 st5 st13">y</text>
<text transform="matrix(0.85 0 -0.3126727 0.9498609 135.9748077 547.0757446)" class="st5 st13">A</text>
<text transform="matrix(0.85 0 -0.3126727 0.9498609 135.9748077 547.0757446)" class="st14 st5 st13">A</text>
<text transform="matrix(0.85 0 -0.3126727 0.9498609 140.5431671 547.0757446)" class="st5 st13">tt</text>
<text transform="matrix(0.85 0 -0.3126727 0.9498609 140.5431671 547.0757446)" class="st14 st5 st13">tt</text>
<text transform="matrix(0.85 0 -0.3126727 0.9498609 145.6134796 547.0757446)" class="st5 st13">r</text>
<text transform="matrix(0.85 0 -0.3126727 0.9498609 145.6134796 547.0757446)" class="st14 st5 st13">r</text>
<text transform="matrix(0.85 0 -0.3126727 0.9498609 148.1466827 547.0757446)" class="st5 st13">i</text>
<text transform="matrix(0.85 0 -0.3126727 0.9498609 148.1466827 547.0757446)" class="st14 st5 st13">i</text>
<text transform="matrix(0.85 0 -0.3126727 0.9498609 149.6720734 547.0757446)" class="st5 st13">b</text>
<text transform="matrix(0.85 0 -0.3126727 0.9498609 149.6720734 547.0757446)" class="st14 st5 st13">b</text>
<text transform="matrix(0.85 0 -0.3126727 0.9498609 153.7326202 547.0757446)" class="st5 st13">u</text>
<text transform="matrix(0.85 0 -0.3126727 0.9498609 153.7326202 547.0757446)" class="st14 st5 st13">u</text>
<text transform="matrix(0.85 0 -0.3126727 0.9498609 157.791214 547.0757446)" class="st5 st13">t</text>
<text transform="matrix(0.85 0 -0.3126727 0.9498609 157.791214 547.0757446)" class="st14 st5 st13">t</text>
<text transform="matrix(0.85 0 -0.3126727 0.9498609 160.3263702 547.0757446)" class="st5 st13">e</text>
<text transform="matrix(0.85 0 -0.3126727 0.9498609 160.3263702 547.0757446)" class="st14 st5 st13">e</text>
<line class="st12" x1="89.7853775" y1="551.1890259" x2="175.1082153" y2="551.1890259"/>
<text transform="matrix(0.85 0 0 1 92.3190994 560.4362183)" class="st5 st6">+</text>
<text transform="matrix(0.85 0 0 1 96.8884354 560.4362183)" class="st5 st6"> </text>
<text transform="matrix(0.85 0 0 1 103.4909744 560.4362183)" class="st5 st6">facilityId: xs::string [0..1]</text>
<polygon class="st8" points="186.7893219,573.3033447 289.3798828,573.3033447 289.3798828,528.0462036 186.7893219,528.0462036 "/>
<polygon class="st12" points="186.7893219,573.3033447 289.3798828,573.3033447 289.3798828,528.0462036 186.7893219,528.0462036 
	"/>
<text transform="matrix(0.85 0 0 1 220.3112793 538.3268433)" class="st5 st6">«DataType»</text>
<text transform="matrix(0.85 0 0 1 199.4831543 547.0690308)" class="st9 st6">uro::FacilityTypeAttribute</text>
<line class="st12" x1="186.7893219" y1="551.1890259" x2="288.8720093" y2="551.1890259"/>
<text transform="matrix(0.85 0 0 1 189.3269043 560.4362183)" class="st5 st6">+</text>
<text transform="matrix(0.85 0 0 1 193.8962402 560.4362183)" class="st5 st6"> </text>
<text transform="matrix(0.85 0 0 1 200.4987793 560.4362183)" class="st5 st6">class: gml::CodeType [0..1]</text>
<text transform="matrix(0.85 0 0 1 189.3269043 569.1862183)" class="st5 st6">+</text>
<text transform="matrix(0.85 0 0 1 193.8962402 569.1862183)" class="st5 st6"> </text>
<text transform="matrix(0.85 0 0 1 200.4987793 569.1862183)" class="st5 st6">function: gml::CodeType [0..*]</text>
<polygon class="st8" points="296.9979858,651.9890747 406.6987915,651.9890747 406.6987915,528.0462036 296.9979858,528.0462036 "/>
<polygon class="st12" points="296.9979858,651.9890747 406.6987915,651.9890747 406.6987915,528.0462036 296.9979858,528.0462036 
	"/>
<text transform="matrix(0.85 0 0 1 334.0690918 538.3268433)" class="st5 st6">«DataType»</text>
<text transform="matrix(0.85 0 0 1 317.3112793 547.0690308)" class="st9 st6">uro::FacilityIdAttribute</text>
<line class="st12" x1="296.9979858" y1="551.1890259" x2="406.190918" y2="551.1890259"/>
<text transform="matrix(0.85 0 0 1 299.5378418 560.4362183)" class="st5 st6">+</text>
<text transform="matrix(0.85 0 0 1 304.1071777 560.4362183)" class="st5 st6"> </text>
<text transform="matrix(0.85 0 0 1 310.7097168 560.4362183)" class="st5 st6">id: xs::string [0..1]</text>
<text transform="matrix(0.85 0 0 1 299.5378418 569.1862183)" class="st5 st6">+</text>
<text transform="matrix(0.85 0 0 1 304.1071777 569.1862183)" class="st5 st6"> </text>
<text transform="matrix(0.85 0 0 1 310.7097168 569.1862183)" class="st5 st6">partId: xs::string [0..1]</text>
<text transform="matrix(0.85 0 0 1 299.5378418 577.9284058)" class="st5 st6">+</text>
<text transform="matrix(0.85 0 0 1 304.1071777 577.9284058)" class="st5 st6"> </text>
<text transform="matrix(0.85 0 0 1 310.7097168 577.9284058)" class="st5 st6">branchId: xs::string [0..1]</text>
<text transform="matrix(0.85 0 0 1 299.5378418 586.6705933)" class="st5 st6">+</text>
<text transform="matrix(0.85 0 0 1 304.1071777 586.6705933)" class="st5 st6"> </text>
<text transform="matrix(0.85 0 0 1 310.7097168 586.6705933)" class="st5 st6">prefecture: gml::CodeType [0..*]</text>
<text transform="matrix(0.85 0 0 1 299.5378418 595.4205933)" class="st5 st6">+</text>
<text transform="matrix(0.85 0 0 1 304.1071777 595.4205933)" class="st5 st6"> </text>
<text transform="matrix(0.85 0 0 1 310.7097168 595.4205933)" class="st5 st6">city: gml::CodeType [0..*]</text>
<text transform="matrix(0.85 0 0 1 299.5378418 604.1627808)" class="st5 st6">+</text>
<text transform="matrix(0.85 0 0 1 304.1071777 604.1627808)" class="st5 st6"> </text>
<text transform="matrix(0.85 0 0 1 310.7097168 604.1627808)" class="st5 st6">route: xs::string [0..1]</text>
<text transform="matrix(0.85 0 0 1 299.5378418 612.9049683)" class="st5 st6">+</text>
<text transform="matrix(0.85 0 0 1 304.1071777 612.9049683)" class="st5 st6"> </text>
<text transform="matrix(0.85 0 0 1 310.7097168 612.9049683)" class="st5 st6">startPost: xs::string [0..1]</text>
<text transform="matrix(0.85 0 0 1 299.5378418 621.6393433)" class="st5 st6">+</text>
<text transform="matrix(0.85 0 0 1 304.1071777 621.6393433)" class="st5 st6"> </text>
<text transform="matrix(0.85 0 0 1 310.7097168 621.6393433)" class="st5 st6">endPost: xs::string [0..1]</text>
<text transform="matrix(0.85 0 0 1 299.5378418 630.3815308)" class="st5 st6">+</text>
<text transform="matrix(0.85 0 0 1 304.1071777 630.3815308)" class="st5 st6"> </text>
<text transform="matrix(0.85 0 0 1 310.7097168 630.3815308)" class="st5 st6">startLat: xs::double [0..1]</text>
<text transform="matrix(0.85 0 0 1 299.5378418 639.1315308)" class="st5 st6">+</text>
<text transform="matrix(0.85 0 0 1 304.1071777 639.1315308)" class="st5 st6"> </text>
<text transform="matrix(0.85 0 0 1 310.7097168 639.1315308)" class="st5 st6">startLong: xs::double [0..1]</text>
<text transform="matrix(0.85 0 0 1 299.5378418 647.8737183)" class="st5 st6">+</text>
<text transform="matrix(0.85 0 0 1 304.1071777 647.8737183)" class="st5 st6"> </text>
<text transform="matrix(0.85 0 0 1 310.7097168 647.8737183)" class="st5 st6">alternativeName: xs::string [0..*]</text>
<polygon class="st8" points="179.1712036,198.9033661 299.5373535,198.9033661 299.5373535,153.6461639 179.1712036,153.6461639 "/>
<polygon class="st12" points="179.1712036,198.9033661 299.5373535,198.9033661 299.5373535,153.6461639 179.1712036,153.6461639 
	"/>
<text transform="matrix(0.85 0 0 1 221.8347168 163.9284058)" class="st5 st6">«DataType»</text>
<text transform="matrix(0.85 0 0 1 192.3737793 172.6705933)" class="st9 st6">uro::BridgeFunctionalAttribute</text>
<line class="st12" x1="179.1712036" y1="176.7889862" x2="299.02948" y2="176.7889862"/>
<text transform="matrix(0.85 0 0 1 181.7097168 186.0455933)" class="st5 st6">+</text>
<text transform="matrix(0.85 0 0 1 186.2790527 186.0455933)" class="st5 st6"> </text>
<text transform="matrix(0.85 0 0 1 192.8815918 186.0455933)" class="st5 st6">directionType: gml::CodeType [0..1]</text>
<text transform="matrix(0.85 0 0 1 181.7097168 194.7877808)" class="st5 st6">+</text>
<text transform="matrix(0.85 0 0 1 186.2790527 194.7877808)" class="st5 st6"> </text>
<text transform="matrix(0.85 0 0 1 192.8815918 194.7877808)" class="st5 st6">userType: gml::CodeType [0..1]</text>
<polygon class="st8" points="6.4940238,303.8175659 131.9389191,303.8175659 131.9389191,153.6461639 6.4940238,153.6461639 "/>
<polygon class="st12" points="6.4940238,303.8175659 131.9389191,303.8175659 131.9389191,153.6461639 6.4940238,153.6461639 "/>
<text transform="matrix(0.85 0 0 1 51.6940956 163.9284058)" class="st5 st6">«DataType»</text>
<text transform="matrix(0.85 0 0 1 21.217535 172.6705933)" class="st9 st6">uro::ConstructionBaseAttribute</text>
<line class="st12" x1="6.4940238" y1="176.7889862" x2="131.4310455" y2="176.7889862"/>
<text transform="matrix(0.85 0 0 1 9.0300341 186.0455933)" class="st5 st6">+</text>
<text transform="matrix(0.85 0 0 1 13.59937 186.0455933)" class="st5 st6"> </text>
<text transform="matrix(0.85 0 0 1 20.20191 186.0455933)" class="st5 st6">adminType: gml::CodeType [0..1]</text>
<text transform="matrix(0.85 0 0 1 9.0300341 194.7877808)" class="st5 st6">+</text>
<text transform="matrix(0.85 0 0 1 13.59937 194.7877808)" class="st5 st6"> </text>
<text transform="matrix(0.85 0 0 1 20.20191 194.7877808)" class="st5 st6">administrator: xs::string [0..1]</text>
<text transform="matrix(0.85 0 0 1 9.0300341 203.5299683)" class="st5 st6">+</text>
<text transform="matrix(0.85 0 0 1 13.59937 203.5299683)" class="st5 st6"> </text>
<text transform="matrix(0.85 0 0 1 20.20191 203.5299683)" class="st5 st6">adminOffice: xs::string [0..1]</text>
<text transform="matrix(0.85 0 0 1 9.0300341 212.2799683)" class="st5 st6">+</text>
<text transform="matrix(0.85 0 0 1 13.59937 212.2799683)" class="st5 st6"> </text>
<text transform="matrix(0.85 0 0 1 20.20191 212.2799683)" class="st5 st6">operatorType: gml::CodeType [0..1]</text>
<text transform="matrix(0.85 0 0 1 9.0300341 221.0143433)" class="st5 st6">+</text>
<text transform="matrix(0.85 0 0 1 13.59937 221.0143433)" class="st5 st6"> </text>
<text transform="matrix(0.85 0 0 1 20.20191 221.0143433)" class="st5 st6">installerType: gml::CodeType [0..1]</text>
<text transform="matrix(0.85 0 0 1 9.0300341 229.7565308)" class="st5 st6">+</text>
<text transform="matrix(0.85 0 0 1 13.59937 229.7565308)" class="st5 st6"> </text>
<text transform="matrix(0.85 0 0 1 20.20191 229.7565308)" class="st5 st6">installer: xs::string [0..1]</text>
<text transform="matrix(0.85 0 0 1 9.0300341 238.5065308)" class="st5 st6">+</text>
<text transform="matrix(0.85 0 0 1 13.59937 238.5065308)" class="st5 st6"> </text>
<text transform="matrix(0.85 0 0 1 20.20191 238.5065308)" class="st5 st6">structureOrdinance: xs::string [0..1]</text>
<text transform="matrix(0.85 0 0 1 9.0300341 247.2487183)" class="st5 st6">+</text>
<text transform="matrix(0.85 0 0 1 13.59937 247.2487183)" class="st5 st6"> </text>
<text transform="matrix(0.85 0 0 1 20.20191 247.2487183)" class="st5 st6">specification: xs::string [0..1]</text>
<text transform="matrix(0.85 0 0 1 9.0300341 255.9830933)" class="st5 st6">+</text>
<text transform="matrix(0.85 0 0 1 13.59937 255.9830933)" class="st5 st6"> </text>
<text transform="matrix(0.85 0 0 1 20.20191 255.9830933)" class="st5 st6">kana: xs::string [0..1]</text>
<text transform="matrix(0.85 0 0 1 9.0300341 264.7252808)" class="st5 st6">+</text>
<text transform="matrix(0.85 0 0 1 13.59937 264.7252808)" class="st5 st6"> </text>
<text transform="matrix(0.85 0 0 1 20.20191 264.7252808)" class="st5 st6">constructionStartYear: xs::gYear [0..1]</text>
<text transform="matrix(0.85 0 0 1 9.0300341 273.4674683)" class="st5 st6">+</text>
<text transform="matrix(0.85 0 0 1 13.59937 273.4674683)" class="st5 st6"> </text>
<text transform="matrix(0.85 0 0 1 20.20191 273.4674683)" class="st5 st6">completionYear: xs::gYear [0..1]</text>
<text transform="matrix(0.85 0 0 1 9.0300341 282.2174683)" class="st5 st6">+</text>
<text transform="matrix(0.85 0 0 1 13.59937 282.2174683)" class="st5 st6"> </text>
<text transform="matrix(0.85 0 0 1 20.20191 282.2174683)" class="st5 st6">facilityAge: xs::integer [0..1]</text>
<text transform="matrix(0.85 0 0 1 9.0300341 290.9596558)" class="st5 st6">+</text>
<text transform="matrix(0.85 0 0 1 13.59937 290.9596558)" class="st5 st6"> </text>
<text transform="matrix(0.85 0 0 1 20.20191 290.9596558)" class="st5 st6">update: xs::date [0..1]</text>
<text transform="matrix(0.85 0 0 1 9.0300341 299.7018433)" class="st5 st6">+</text>
<text transform="matrix(0.85 0 0 1 13.59937 299.7018433)" class="st5 st6"> </text>
<text transform="matrix(0.85 0 0 1 20.20191 299.7018433)" class="st5 st6">purpose: gml::CodeType [0..1]</text>
<polygon class="st8" points="642.8602905,474.0462036 797.2539673,474.0462036 797.2539673,358.8462524 642.8602905,358.8462524 "/>
<polygon class="st12" points="642.8602905,474.0462036 797.2539673,474.0462036 797.2539673,358.8462524 642.8602905,358.8462524 
	"/>
<text transform="matrix(0.85 0 0 1 702.2805176 369.1315308)" class="st5 st6">«DataType»</text>
<text transform="matrix(0.85 0 0 1 662.6633301 377.8737183)" class="st9 st6">uro::PublicSuveyDataQualityAttribute</text>
<line class="st12" x1="642.8602905" y1="381.9890747" x2="796.7460938" y2="381.9890747"/>
<text transform="matrix(0.85 0 0 1 645.3977051 391.2409058)" class="st5 st6">+</text>
<text transform="matrix(0.85 0 0 1 649.967041 391.2409058)" class="st5 st6"> </text>
<text transform="matrix(0.85 0 0 1 656.5695801 391.2409058)" class="st5 st6">srcScaleLod0: gml::CodeType [0..1]</text>
<text transform="matrix(0.85 0 0 1 645.3977051 399.9909058)" class="st5 st6">+</text>
<text transform="matrix(0.85 0 0 1 649.967041 399.9909058)" class="st5 st6"> </text>
<text transform="matrix(0.85 0 0 1 656.5695801 399.9909058)" class="st5 st6">srcScaleLod1: gml::CodeType [0..1]</text>
<text transform="matrix(0.85 0 0 1 645.3977051 408.7330933)" class="st5 st6">+</text>
<text transform="matrix(0.85 0 0 1 649.967041 408.7330933)" class="st5 st6"> </text>
<text transform="matrix(0.85 0 0 1 656.5695801 408.7330933)" class="st5 st6">srcScaleLod2: gml::CodeType [0..1]</text>
<text transform="matrix(0.85 0 0 1 645.3977051 417.4674683)" class="st5 st6">+</text>
<text transform="matrix(0.85 0 0 1 649.967041 417.4674683)" class="st5 st6"> </text>
<text transform="matrix(0.85 0 0 1 656.5695801 417.4674683)" class="st5 st6">srcScaleLod3: gml::CodeType [0..1]</text>
<text transform="matrix(0.85 0 0 1 645.3977051 426.2174683)" class="st5 st6">+</text>
<text transform="matrix(0.85 0 0 1 649.967041 426.2174683)" class="st5 st6"> </text>
<text transform="matrix(0.85 0 0 1 656.5695801 426.2174683)" class="st5 st6">srcScaleLod4: gml::CodeType [0..1]</text>
<text transform="matrix(0.85 0 0 1 645.3977051 434.9596558)" class="st5 st6">+</text>
<text transform="matrix(0.85 0 0 1 649.967041 434.9596558)" class="st5 st6"> </text>
<text transform="matrix(0.85 0 0 1 656.5695801 434.9596558)" class="st5 st6">publicSurveySrcDescLod0: gml::CodeType [0..*]</text>
<text transform="matrix(0.85 0 0 1 645.3977051 443.7018433)" class="st5 st6">+</text>
<text transform="matrix(0.85 0 0 1 649.967041 443.7018433)" class="st5 st6"> </text>
<text transform="matrix(0.85 0 0 1 656.5695801 443.7018433)" class="st5 st6">publicSurveySrcDescLod1: gml::CodeType [0..*]</text>
<text transform="matrix(0.85 0 0 1 645.3977051 452.4440308)" class="st5 st6">+</text>
<text transform="matrix(0.85 0 0 1 649.967041 452.4440308)" class="st5 st6"> </text>
<text transform="matrix(0.85 0 0 1 656.5695801 452.4440308)" class="st5 st6">publicSurveySrcDescLod2: gml::CodeType [0..*]</text>
<text transform="matrix(0.85 0 0 1 645.3977051 461.1862183)" class="st5 st6">+</text>
<text transform="matrix(0.85 0 0 1 649.967041 461.1862183)" class="st5 st6"> </text>
<text transform="matrix(0.85 0 0 1 656.5695801 461.1862183)" class="st5 st6">publicSurveySrcDescLod3: gml::CodeType [0..*]</text>
<text transform="matrix(0.85 0 0 1 645.3977051 469.9362183)" class="st5 st6">+</text>
<text transform="matrix(0.85 0 0 1 649.967041 469.9362183)" class="st5 st6"> </text>
<text transform="matrix(0.85 0 0 1 656.5695801 469.9362183)" class="st5 st6">publicSurveySrcDescLod4: gml::CodeType [0..*]</text>
<polygon class="st8" points="94.8641129,448.3318481 235.5452271,448.3318481 235.5452271,324.3889771 94.8641129,324.3889771 "/>
<polygon class="st12" points="94.8641129,448.3318481 235.5452271,448.3318481 235.5452271,324.3889771 94.8641129,324.3889771 "/>
<text transform="matrix(0.85 0 0 1 147.6784668 334.6784058)" class="st5 st6">«DataType»</text>
<text transform="matrix(0.85 0 0 1 120.2565994 343.4205933)" class="st9 st6">uro::BridgeStructureAttribute</text>
<line class="st12" x1="94.8641129" y1="347.5319214" x2="235.0373535" y2="347.5319214"/>
<text transform="matrix(0.85 0 0 1 97.3972244 356.7877808)" class="st5 st6">+</text>
<text transform="matrix(0.85 0 0 1 101.9665604 356.7877808)" class="st5 st6"> </text>
<text transform="matrix(0.85 0 0 1 108.5769119 356.7877808)" class="st5 st6">material: gml::CodeType [0..1]</text>
<text transform="matrix(0.85 0 0 1 97.3972244 365.5299683)" class="st5 st6">+</text>
<text transform="matrix(0.85 0 0 1 101.9665604 365.5299683)" class="st5 st6"> </text>
<text transform="matrix(0.85 0 0 1 108.5769119 365.5299683)" class="st5 st6">bridgeType: gml::CodeType [0..1]</text>
<text transform="matrix(0.85 0 0 1 97.3972244 374.2643433)" class="st5 st6">+</text>
<text transform="matrix(0.85 0 0 1 101.9665604 374.2643433)" class="st5 st6"> </text>
<text transform="matrix(0.85 0 0 1 108.5769119 374.2643433)" class="st5 st6">length: gml::LengthType [0..1]</text>
<text transform="matrix(0.85 0 0 1 97.3972244 383.0143433)" class="st5 st6">+</text>
<text transform="matrix(0.85 0 0 1 101.9665604 383.0143433)" class="st5 st6"> </text>
<text transform="matrix(0.85 0 0 1 108.5769119 383.0143433)" class="st5 st6">width: gml::LengthType [0..1]</text>
<text transform="matrix(0.85 0 0 1 97.3972244 391.7565308)" class="st5 st6">+</text>
<text transform="matrix(0.85 0 0 1 101.9665604 391.7565308)" class="st5 st6"> </text>
<text transform="matrix(0.85 0 0 1 108.5769119 391.7565308)" class="st5 st6">area: gml::MeasureType [0..1]</text>
<text transform="matrix(0.85 0 0 1 97.3972244 400.4987183)" class="st5 st6">+</text>
<text transform="matrix(0.85 0 0 1 101.9665604 400.4987183)" class="st5 st6"> </text>
<text transform="matrix(0.85 0 0 1 108.5769119 400.4987183)" class="st5 st6">weightRestriction: gml::MeasureType [0..1]</text>
<text transform="matrix(0.85 0 0 1 97.3972244 409.2487183)" class="st5 st6">+</text>
<text transform="matrix(0.85 0 0 1 101.9665604 409.2487183)" class="st5 st6"> </text>
<text transform="matrix(0.85 0 0 1 108.5769119 409.2487183)" class="st5 st6">heightRestriction: gml::LengthType [0..1]</text>
<text transform="matrix(0.85 0 0 1 97.3972244 417.9909058)" class="st5 st6">+</text>
<text transform="matrix(0.85 0 0 1 101.9665604 417.9909058)" class="st5 st6"> </text>
<text transform="matrix(0.85 0 0 1 108.5769119 417.9909058)" class="st5 st6">widthRestriction: gml::LengthType [0..1]</text>
<text transform="matrix(0.85 0 0 1 97.3972244 426.7330933)" class="st5 st6">+</text>
<text transform="matrix(0.85 0 0 1 101.9665604 426.7330933)" class="st5 st6"> </text>
<text transform="matrix(0.85 0 0 1 108.5769119 426.7330933)" class="st5 st6">underGirderHeight: gml::LengthType [0..1]</text>
<text transform="matrix(0.85 0 0 1 97.3972244 435.4674683)" class="st5 st6">+</text>
<text transform="matrix(0.85 0 0 1 101.9665604 435.4674683)" class="st5 st6"> </text>
<text transform="matrix(0.85 0 0 1 108.5769119 435.4674683)" class="st5 st6">slopeType: gml::CodeType [0..1]</text>
<text transform="matrix(0.85 0 0 1 97.3972244 444.2096558)" class="st5 st6">+</text>
<text transform="matrix(0.85 0 0 1 101.9665604 444.2096558)" class="st5 st6"> </text>
<text transform="matrix(0.85 0 0 1 108.5769119 444.2096558)" class="st5 st6">escalator: xs::boolean [0..1]</text>
<polygon class="st8" points="203.0412903,289.4175415 344.7381592,289.4175415 344.7381592,225.131897 203.0412903,225.131897 "/>
<polygon class="st12" points="203.0412903,289.4175415 344.7381592,289.4175415 344.7381592,225.131897 203.0412903,225.131897 "/>
<text transform="matrix(0.85 0 0 1 256.3659668 235.4205933)" class="st5 st6">«DataType»</text>
<text transform="matrix(0.85 0 0 1 208.6315918 244.1627808)" class="st9 st6">uro::ConstructionRiskAssessmentAttribute</text>
<line class="st12" x1="203.0412903" y1="248.2747192" x2="344.2302856" y2="248.2747192"/>
<text transform="matrix(0.85 0 0 1 205.5769043 257.5299683)" class="st5 st6">+</text>
<text transform="matrix(0.85 0 0 1 210.1462402 257.5299683)" class="st5 st6"> </text>
<text transform="matrix(0.85 0 0 1 216.7565918 257.5299683)" class="st5 st6">surveyYear: xs::gYear [0..1]</text>
<text transform="matrix(0.85 0 0 1 205.5769043 266.2721558)" class="st5 st6">+</text>
<text transform="matrix(0.85 0 0 1 210.1462402 266.2721558)" class="st5 st6"> </text>
<text transform="matrix(0.85 0 0 1 216.7565918 266.2721558)" class="st5 st6">riskType: gml::CodeType</text>
<text transform="matrix(0.85 0 0 1 205.5769043 275.0143433)" class="st5 st6">+</text>
<text transform="matrix(0.85 0 0 1 210.1462402 275.0143433)" class="st5 st6"> </text>
<text transform="matrix(0.85 0 0 1 216.7565918 275.0143433)" class="st5 st6">status: gml::CodeType [0..1]</text>
<text transform="matrix(0.85 0 0 1 205.5769043 283.7643433)" class="st5 st6">+</text>
<text transform="matrix(0.85 0 0 1 210.1462402 283.7643433)" class="st5 st6"> </text>
<text transform="matrix(0.85 0 0 1 216.7565918 283.7643433)" class="st5 st6">referenceDate: xs::date</text>
<polygon class="st8" points="533.6673584,465.817688 630.6712646,465.817688 630.6712646,427.2461548 533.6673584,427.2461548 "/>
<polygon class="st12" points="533.6673584,465.817688 630.6712646,465.817688 630.6712646,427.2461548 533.6673584,427.2461548 "/>
<text transform="matrix(0.85 0 0 1 564.6477051 437.5299683)" class="st5 st6">«DataType»</text>
<text transform="matrix(0.85 0 -0.3126727 0.9498609 542.8066406 446.2717285)" class="st5 st13">u</text>
<text transform="matrix(0.85 0 -0.3126727 0.9498609 542.8066406 446.2717285)" class="st14 st5 st13">u</text>
<text transform="matrix(0.85 0 -0.3126727 0.9498609 546.8662109 446.2717285)" class="st5 st13">r</text>
<text transform="matrix(0.85 0 -0.3126727 0.9498609 546.8662109 446.2717285)" class="st14 st5 st13">r</text>
<text transform="matrix(0.85 0 -0.3126727 0.9498609 549.3994141 446.2717285)" class="st5 st13">o</text>
<text transform="matrix(0.85 0 -0.3126727 0.9498609 549.3994141 446.2717285)" class="st14 st5 st13">o</text>
<text transform="matrix(0.85 0 -0.3126727 0.9498609 553.4599609 446.2717285)" class="st5 st13">::</text>
<text transform="matrix(0.85 0 -0.3126727 0.9498609 553.4599609 446.2717285)" class="st14 st5 st13">::</text>
<text transform="matrix(0.85 0 -0.3126727 0.9498609 556.4941406 446.2717285)" class="st5 st13">D</text>
<text transform="matrix(0.85 0 -0.3126727 0.9498609 556.4941406 446.2717285)" class="st14 st5 st13">D</text>
<text transform="matrix(0.85 0 -0.3126727 0.9498609 561.0703125 446.2717285)" class="st5 st13">i</text>
<text transform="matrix(0.85 0 -0.3126727 0.9498609 561.0703125 446.2717285)" class="st14 st5 st13">i</text>
<text transform="matrix(0.85 0 -0.3126727 0.9498609 562.5966797 446.2717285)" class="st5 st13">s</text>
<text transform="matrix(0.85 0 -0.3126727 0.9498609 562.5966797 446.2717285)" class="st14 st5 st13">s</text>
<text transform="matrix(0.85 0 -0.3126727 0.9498609 565.6425781 446.2717285)" class="st5 st13">a</text>
<text transform="matrix(0.85 0 -0.3126727 0.9498609 565.6425781 446.2717285)" class="st14 st5 st13">a</text>
<text transform="matrix(0.85 0 -0.3126727 0.9498609 569.1933594 446.2717285)" class="st5 st13">s</text>
<text transform="matrix(0.85 0 -0.3126727 0.9498609 569.1933594 446.2717285)" class="st14 st5 st13">s</text>
<text transform="matrix(0.85 0 -0.3126727 0.9498609 572.2392578 446.2717285)" class="st5 st13">t</text>
<text transform="matrix(0.85 0 -0.3126727 0.9498609 572.2392578 446.2717285)" class="st14 st5 st13">t</text>
<text transform="matrix(0.85 0 -0.3126727 0.9498609 574.7734375 446.2717285)" class="st5 st13">e</text>
<text transform="matrix(0.85 0 -0.3126727 0.9498609 574.7734375 446.2717285)" class="st14 st5 st13">e</text>
<text transform="matrix(0.85 0 -0.3126727 0.9498609 578.3251953 446.2717285)" class="st5 st13">r</text>
<text transform="matrix(0.85 0 -0.3126727 0.9498609 578.3251953 446.2717285)" class="st14 st5 st13">r</text>
<text transform="matrix(0.85 0 -0.3126727 0.9498609 580.8583984 446.2717285)" class="st5 st13">R</text>
<text transform="matrix(0.85 0 -0.3126727 0.9498609 580.8583984 446.2717285)" class="st14 st5 st13">R</text>
<text transform="matrix(0.85 0 -0.3126727 0.9498609 584.9199219 446.2717285)" class="st5 st13">i</text>
<text transform="matrix(0.85 0 -0.3126727 0.9498609 584.9199219 446.2717285)" class="st14 st5 st13">i</text>
<text transform="matrix(0.85 0 -0.3126727 0.9498609 586.4462891 446.2717285)" class="st5 st13">s</text>
<text transform="matrix(0.85 0 -0.3126727 0.9498609 586.4462891 446.2717285)" class="st14 st5 st13">s</text>
<text transform="matrix(0.85 0 -0.3126727 0.9498609 589.4921875 446.2717285)" class="st5 st13">k</text>
<text transform="matrix(0.85 0 -0.3126727 0.9498609 589.4921875 446.2717285)" class="st14 st5 st13">k</text>
<text transform="matrix(0.85 0 -0.3126727 0.9498609 593.0439453 446.2717285)" class="st5 st13">A</text>
<text transform="matrix(0.85 0 -0.3126727 0.9498609 593.0439453 446.2717285)" class="st14 st5 st13">A</text>
<text transform="matrix(0.85 0 -0.3126727 0.9498609 597.6132812 446.2717285)" class="st5 st13">tt</text>
<text transform="matrix(0.85 0 -0.3126727 0.9498609 597.6132812 446.2717285)" class="st14 st5 st13">tt</text>
<text transform="matrix(0.85 0 -0.3126727 0.9498609 602.6826172 446.2717285)" class="st5 st13">r</text>
<text transform="matrix(0.85 0 -0.3126727 0.9498609 602.6826172 446.2717285)" class="st14 st5 st13">r</text>
<text transform="matrix(0.85 0 -0.3126727 0.9498609 605.2148438 446.2717285)" class="st5 st13">i</text>
<text transform="matrix(0.85 0 -0.3126727 0.9498609 605.2148438 446.2717285)" class="st14 st5 st13">i</text>
<text transform="matrix(0.85 0 -0.3126727 0.9498609 606.7412109 446.2717285)" class="st5 st13">b</text>
<text transform="matrix(0.85 0 -0.3126727 0.9498609 606.7412109 446.2717285)" class="st14 st5 st13">b</text>
<text transform="matrix(0.85 0 -0.3126727 0.9498609 610.8017578 446.2717285)" class="st5 st13">u</text>
<text transform="matrix(0.85 0 -0.3126727 0.9498609 610.8017578 446.2717285)" class="st14 st5 st13">u</text>
<text transform="matrix(0.85 0 -0.3126727 0.9498609 614.8613281 446.2717285)" class="st5 st13">t</text>
<text transform="matrix(0.85 0 -0.3126727 0.9498609 614.8613281 446.2717285)" class="st14 st5 st13">t</text>
<text transform="matrix(0.85 0 -0.3126727 0.9498609 617.3955078 446.2717285)" class="st5 st13">e</text>
<text transform="matrix(0.85 0 -0.3126727 0.9498609 617.3955078 446.2717285)" class="st14 st5 st13">e</text>
<line class="st12" x1="533.6673584" y1="450.3889771" x2="630.1633911" y2="450.3889771"/>
<text transform="matrix(0.85 0 0 1 536.2102051 459.6393433)" class="st5 st6">+</text>
<text transform="matrix(0.85 0 0 1 540.779541 459.6393433)" class="st5 st6"> </text>
<text transform="matrix(0.85 0 0 1 547.3820801 459.6393433)" class="st5 st6">description: gml::CodeType</text>
<polygon class="st7" points="291.9192505,96.560463 411.2696533,96.560463 411.2696533,6.0461855 291.9192505,6.0461855 "/>
<polygon class="st12" points="291.9192505,96.560463 411.2696533,96.560463 411.2696533,6.0461855 291.9192505,6.0461855 "/>
<text transform="matrix(0.85 0 -0.3126727 0.9498609 377.2400513 14.7900209)" class="st5 st13">_CityObject</text>
<text transform="matrix(0.85 0 0 1 330.0065918 26.6080875)" class="st5 st6">«FeatureType»</text>
<text transform="matrix(0.85 0 -0.3126727 0.9498609 319.8403015 35.3678665)" class="st5 st13">b</text>
<text transform="matrix(0.85 0 -0.3126727 0.9498609 319.8403015 35.3678665)" class="st14 st5 st13">b</text>
<text transform="matrix(0.85 0 -0.3126727 0.9498609 323.8998718 35.3678665)" class="st5 st13">r</text>
<text transform="matrix(0.85 0 -0.3126727 0.9498609 323.8998718 35.3678665)" class="st14 st5 st13">r</text>
<text transform="matrix(0.85 0 -0.3126727 0.9498609 326.433075 35.3678665)" class="st5 st13">i</text>
<text transform="matrix(0.85 0 -0.3126727 0.9498609 326.433075 35.3678665)" class="st14 st5 st13">i</text>
<text transform="matrix(0.85 0 -0.3126727 0.9498609 327.9594421 35.3678665)" class="st5 st13">d</text>
<text transform="matrix(0.85 0 -0.3126727 0.9498609 327.9594421 35.3678665)" class="st14 st5 st13">d</text>
<text transform="matrix(0.85 0 -0.3126727 0.9498609 332.0190125 35.3678665)" class="st5 st13">::</text>
<text transform="matrix(0.85 0 -0.3126727 0.9498609 332.0190125 35.3678665)" class="st14 st5 st13">::</text>
<text transform="matrix(0.85 0 -0.3126727 0.9498609 335.0531921 35.3678665)" class="st5 st13">_</text>
<text transform="matrix(0.85 0 -0.3126727 0.9498609 335.0531921 35.3678665)" class="st14 st5 st13">_</text>
<text transform="matrix(0.85 0 -0.3126727 0.9498609 337.5951843 35.3678665)" class="st5 st13">A</text>
<text transform="matrix(0.85 0 -0.3126727 0.9498609 337.5951843 35.3678665)" class="st14 st5 st13">A</text>
<text transform="matrix(0.85 0 -0.3126727 0.9498609 342.1645203 35.3678665)" class="st5 st13">b</text>
<text transform="matrix(0.85 0 -0.3126727 0.9498609 342.1645203 35.3678665)" class="st14 st5 st13">b</text>
<text transform="matrix(0.85 0 -0.3126727 0.9498609 346.2240906 35.3678665)" class="st5 st13">s</text>
<text transform="matrix(0.85 0 -0.3126727 0.9498609 346.2240906 35.3678665)" class="st14 st5 st13">s</text>
<text transform="matrix(0.85 0 -0.3126727 0.9498609 349.269989 35.3678665)" class="st5 st13">t</text>
<text transform="matrix(0.85 0 -0.3126727 0.9498609 349.269989 35.3678665)" class="st14 st5 st13">t</text>
<text transform="matrix(0.85 0 -0.3126727 0.9498609 351.8041687 35.3678665)" class="st5 st13">r</text>
<text transform="matrix(0.85 0 -0.3126727 0.9498609 351.8041687 35.3678665)" class="st14 st5 st13">r</text>
<text transform="matrix(0.85 0 -0.3126727 0.9498609 354.3373718 35.3678665)" class="st5 st13">a</text>
<text transform="matrix(0.85 0 -0.3126727 0.9498609 354.3373718 35.3678665)" class="st14 st5 st13">a</text>
<text transform="matrix(0.85 0 -0.3126727 0.9498609 357.8881531 35.3678665)" class="st5 st13">c</text>
<text transform="matrix(0.85 0 -0.3126727 0.9498609 357.8881531 35.3678665)" class="st14 st5 st13">c</text>
<text transform="matrix(0.85 0 -0.3126727 0.9498609 360.9379578 35.3678665)" class="st5 st13">t</text>
<text transform="matrix(0.85 0 -0.3126727 0.9498609 360.9379578 35.3678665)" class="st14 st5 st13">t</text>
<text transform="matrix(0.85 0 -0.3126727 0.9498609 363.4721375 35.3678665)" class="st5 st13">B</text>
<text transform="matrix(0.85 0 -0.3126727 0.9498609 363.4721375 35.3678665)" class="st14 st5 st13">B</text>
<text transform="matrix(0.85 0 -0.3126727 0.9498609 367.5346375 35.3678665)" class="st5 st13">r</text>
<text transform="matrix(0.85 0 -0.3126727 0.9498609 367.5346375 35.3678665)" class="st14 st5 st13">r</text>
<text transform="matrix(0.85 0 -0.3126727 0.9498609 370.066864 35.3678665)" class="st5 st13">i</text>
<text transform="matrix(0.85 0 -0.3126727 0.9498609 370.066864 35.3678665)" class="st14 st5 st13">i</text>
<text transform="matrix(0.85 0 -0.3126727 0.9498609 371.5932312 35.3678665)" class="st5 st13">dg</text>
<text transform="matrix(0.85 0 -0.3126727 0.9498609 371.5932312 35.3678665)" class="st14 st5 st13">dg</text>
<text transform="matrix(0.85 0 -0.3126727 0.9498609 379.7123718 35.3678665)" class="st5 st13">e</text>
<text transform="matrix(0.85 0 -0.3126727 0.9498609 379.7123718 35.3678665)" class="st14 st5 st13">e</text>
<line class="st12" x1="291.9192505" y1="39.4747772" x2="410.7617798" y2="39.4747772"/>
<text transform="matrix(0.85 0 0 1 294.4597168 48.7330856)" class="st5 st6">+</text>
<text transform="matrix(0.85 0 0 1 299.0290527 48.7330856)" class="st5 st6"> </text>
<text transform="matrix(0.85 0 0 1 305.6315918 48.7330856)" class="st5 st6">class: gml::CodeType [0..1]</text>
<text transform="matrix(0.85 0 0 1 294.4597168 57.4674606)" class="st5 st6">+</text>
<text transform="matrix(0.85 0 0 1 299.0290527 57.4674606)" class="st5 st6"> </text>
<text transform="matrix(0.85 0 0 1 305.6315918 57.4674606)" class="st5 st6">function: gml::CodeType [0..*]</text>
<text transform="matrix(0.85 0 0 1 294.4597168 66.2174606)" class="st5 st6">+</text>
<text transform="matrix(0.85 0 0 1 299.0290527 66.2174606)" class="st5 st6"> </text>
<text transform="matrix(0.85 0 0 1 305.6315918 66.2174606)" class="st5 st6">usage: gml::CodeType [0..*]</text>
<text transform="matrix(0.85 0 0 1 294.4597168 74.9596481)" class="st5 st6">+</text>
<text transform="matrix(0.85 0 0 1 299.0290527 74.9596481)" class="st5 st6"> </text>
<text transform="matrix(0.85 0 0 1 305.6315918 74.9596481)" class="st5 st6">yearOfConstruction: xs::gYear [0..1]</text>
<text transform="matrix(0.85 0 0 1 294.4597168 83.7018356)" class="st5 st6">+</text>
<text transform="matrix(0.85 0 0 1 299.0290527 83.7018356)" class="st5 st6"> </text>
<text transform="matrix(0.85 0 0 1 305.6315918 83.7018356)" class="st5 st6">yearOfDemolition: xs::gYear [0..1]</text>
<text transform="matrix(0.85 0 0 1 294.4597168 92.4440231)" class="st5 st6">+</text>
<text transform="matrix(0.85 0 0 1 299.0290527 92.4440231)" class="st5 st6"> </text>
<text transform="matrix(0.85 0 0 1 305.6315918 92.4440231)" class="st5 st6">isMovable: xs::boolean [0..1]</text>
<polygon class="st8" points="464.088562,316.6747437 575.8208618,316.6747437 575.8208618,271.4175415 464.088562,271.4175415 "/>
<polygon class="st12" points="464.088562,316.6747437 575.8208618,316.6747437 575.8208618,271.4175415 464.088562,271.4175415 "/>
<text transform="matrix(0.85 0 0 1 502.1789551 281.7018433)" class="st5 st6">«DataType»</text>
<text transform="matrix(0.85 0 -0.3126727 0.9498609 493.5473633 290.442627)" class="st5 st13">u</text>
<text transform="matrix(0.85 0 -0.3126727 0.9498609 493.5473633 290.442627)" class="st14 st5 st13">u</text>
<text transform="matrix(0.85 0 -0.3126727 0.9498609 497.6069336 290.442627)" class="st5 st13">r</text>
<text transform="matrix(0.85 0 -0.3126727 0.9498609 497.6069336 290.442627)" class="st14 st5 st13">r</text>
<text transform="matrix(0.85 0 -0.3126727 0.9498609 500.1401367 290.442627)" class="st5 st13">o</text>
<text transform="matrix(0.85 0 -0.3126727 0.9498609 500.1401367 290.442627)" class="st14 st5 st13">o</text>
<text transform="matrix(0.85 0 -0.3126727 0.9498609 504.2006836 290.442627)" class="st5 st13">::</text>
<text transform="matrix(0.85 0 -0.3126727 0.9498609 504.2006836 290.442627)" class="st14 st5 st13">::</text>
<text transform="matrix(0.85 0 -0.3126727 0.9498609 507.2348633 290.442627)" class="st5 st13">D</text>
<text transform="matrix(0.85 0 -0.3126727 0.9498609 507.2348633 290.442627)" class="st14 st5 st13">D</text>
<text transform="matrix(0.85 0 -0.3126727 0.9498609 511.8110352 290.442627)" class="st5 st13">m</text>
<text transform="matrix(0.85 0 -0.3126727 0.9498609 511.8110352 290.442627)" class="st14 st5 st13">m</text>
<text transform="matrix(0.85 0 -0.3126727 0.9498609 517.9008789 290.442627)" class="st5 st13">A</text>
<text transform="matrix(0.85 0 -0.3126727 0.9498609 517.9008789 290.442627)" class="st14 st5 st13">A</text>
<text transform="matrix(0.85 0 -0.3126727 0.9498609 522.4702148 290.442627)" class="st5 st13">tt</text>
<text transform="matrix(0.85 0 -0.3126727 0.9498609 522.4702148 290.442627)" class="st14 st5 st13">tt</text>
<text transform="matrix(0.85 0 -0.3126727 0.9498609 527.5385742 290.442627)" class="st5 st13">r</text>
<text transform="matrix(0.85 0 -0.3126727 0.9498609 527.5385742 290.442627)" class="st14 st5 st13">r</text>
<text transform="matrix(0.85 0 -0.3126727 0.9498609 530.0717773 290.442627)" class="st5 st13">i</text>
<text transform="matrix(0.85 0 -0.3126727 0.9498609 530.0717773 290.442627)" class="st14 st5 st13">i</text>
<text transform="matrix(0.85 0 -0.3126727 0.9498609 531.5981445 290.442627)" class="st5 st13">b</text>
<text transform="matrix(0.85 0 -0.3126727 0.9498609 531.5981445 290.442627)" class="st14 st5 st13">b</text>
<text transform="matrix(0.85 0 -0.3126727 0.9498609 535.6577148 290.442627)" class="st5 st13">u</text>
<text transform="matrix(0.85 0 -0.3126727 0.9498609 535.6577148 290.442627)" class="st14 st5 st13">u</text>
<text transform="matrix(0.85 0 -0.3126727 0.9498609 539.7172852 290.442627)" class="st5 st13">t</text>
<text transform="matrix(0.85 0 -0.3126727 0.9498609 539.7172852 290.442627)" class="st14 st5 st13">t</text>
<text transform="matrix(0.85 0 -0.3126727 0.9498609 542.2524414 290.442627)" class="st5 st13">e</text>
<text transform="matrix(0.85 0 -0.3126727 0.9498609 542.2524414 290.442627)" class="st14 st5 st13">e</text>
<line class="st12" x1="464.088562" y1="294.5604858" x2="575.3129883" y2="294.5604858"/>
<text transform="matrix(0.85 0 0 1 466.6320801 303.8190308)" class="st5 st6">+</text>
<text transform="matrix(0.85 0 0 1 471.201416 303.8190308)" class="st5 st6"> </text>
<text transform="matrix(0.85 0 0 1 477.8039551 303.8190308)" class="st5 st6">dmCode: gml::CodeType</text>
<text transform="matrix(0.85 0 0 1 466.6320801 312.5612183)" class="st5 st6">+</text>
<text transform="matrix(0.85 0 0 1 471.201416 312.5612183)" class="st5 st6"> </text>
<text transform="matrix(0.85 0 0 1 477.8039551 312.5612183)" class="st5 st6">meshCode: gml::CodeType [0..1]</text>
<polygon class="st8" points="445.8050842,564.5604858 550.4271851,564.5604858 550.4271851,510.5604858 445.8050842,510.5604858 "/>
<polygon class="st12" points="445.8050842,564.5604858 550.4271851,564.5604858 550.4271851,510.5604858 445.8050842,510.5604858 
	"/>
<text transform="matrix(0.85 0 0 1 480.3352051 520.8424683)" class="st5 st6">«DataType»</text>
<text transform="matrix(0.85 0 -0.3126727 0.9498609 457.4897156 529.5923462)" class="st5 st13">u</text>
<text transform="matrix(0.85 0 -0.3126727 0.9498609 457.4897156 529.5923462)" class="st14 st5 st13">u</text>
<text transform="matrix(0.85 0 -0.3126727 0.9498609 461.5483093 529.5923462)" class="st5 st13">r</text>
<text transform="matrix(0.85 0 -0.3126727 0.9498609 461.5483093 529.5923462)" class="st14 st5 st13">r</text>
<text transform="matrix(0.85 0 -0.3126727 0.9498609 464.0815125 529.5923462)" class="st5 st13">o</text>
<text transform="matrix(0.85 0 -0.3126727 0.9498609 464.0815125 529.5923462)" class="st14 st5 st13">o</text>
<text transform="matrix(0.85 0 -0.3126727 0.9498609 468.1420593 529.5923462)" class="st5 st13">::</text>
<text transform="matrix(0.85 0 -0.3126727 0.9498609 468.1420593 529.5923462)" class="st14 st5 st13">::</text>
<text transform="matrix(0.85 0 -0.3126727 0.9498609 471.1772156 529.5923462)" class="st5 st13">F</text>
<text transform="matrix(0.85 0 -0.3126727 0.9498609 471.1772156 529.5923462)" class="st14 st5 st13">F</text>
<text transform="matrix(0.85 0 -0.3126727 0.9498609 474.72995 529.5923462)" class="st5 st13">l</text>
<text transform="matrix(0.85 0 -0.3126727 0.9498609 474.72995 529.5923462)" class="st14 st5 st13">l</text>
<text transform="matrix(0.85 0 -0.3126727 0.9498609 476.2572937 529.5923462)" class="st5 st13">oo</text>
<text transform="matrix(0.85 0 -0.3126727 0.9498609 476.2572937 529.5923462)" class="st14 st5 st13">oo</text>
<text transform="matrix(0.85 0 -0.3126727 0.9498609 484.3764343 529.5923462)" class="st5 st13">d</text>
<text transform="matrix(0.85 0 -0.3126727 0.9498609 484.3764343 529.5923462)" class="st14 st5 st13">d</text>
<text transform="matrix(0.85 0 -0.3126727 0.9498609 488.4369812 529.5923462)" class="st5 st13">i</text>
<text transform="matrix(0.85 0 -0.3126727 0.9498609 488.4369812 529.5923462)" class="st14 st5 st13">i</text>
<text transform="matrix(0.85 0 -0.3126727 0.9498609 489.9623718 529.5923462)" class="st5 st13">n</text>
<text transform="matrix(0.85 0 -0.3126727 0.9498609 489.9623718 529.5923462)" class="st14 st5 st13">n</text>
<text transform="matrix(0.85 0 -0.3126727 0.9498609 494.0229187 529.5923462)" class="st5 st13">g</text>
<text transform="matrix(0.85 0 -0.3126727 0.9498609 494.0229187 529.5923462)" class="st14 st5 st13">g</text>
<text transform="matrix(0.85 0 -0.3126727 0.9498609 498.0815125 529.5923462)" class="st5 st13">R</text>
<text transform="matrix(0.85 0 -0.3126727 0.9498609 498.0815125 529.5923462)" class="st14 st5 st13">R</text>
<text transform="matrix(0.85 0 -0.3126727 0.9498609 502.1440125 529.5923462)" class="st5 st13">i</text>
<text transform="matrix(0.85 0 -0.3126727 0.9498609 502.1440125 529.5923462)" class="st14 st5 st13">i</text>
<text transform="matrix(0.85 0 -0.3126727 0.9498609 503.6694031 529.5923462)" class="st5 st13">s</text>
<text transform="matrix(0.85 0 -0.3126727 0.9498609 503.6694031 529.5923462)" class="st14 st5 st13">s</text>
<text transform="matrix(0.85 0 -0.3126727 0.9498609 506.7162781 529.5923462)" class="st5 st13">k</text>
<text transform="matrix(0.85 0 -0.3126727 0.9498609 506.7162781 529.5923462)" class="st14 st5 st13">k</text>
<text transform="matrix(0.85 0 -0.3126727 0.9498609 510.2690125 529.5923462)" class="st5 st13">A</text>
<text transform="matrix(0.85 0 -0.3126727 0.9498609 510.2690125 529.5923462)" class="st14 st5 st13">A</text>
<text transform="matrix(0.85 0 -0.3126727 0.9498609 514.8373413 529.5923462)" class="st5 st13">tt</text>
<text transform="matrix(0.85 0 -0.3126727 0.9498609 514.8373413 529.5923462)" class="st14 st5 st13">tt</text>
<text transform="matrix(0.85 0 -0.3126727 0.9498609 519.9057007 529.5923462)" class="st5 st13">r</text>
<text transform="matrix(0.85 0 -0.3126727 0.9498609 519.9057007 529.5923462)" class="st14 st5 st13">r</text>
<text transform="matrix(0.85 0 -0.3126727 0.9498609 522.4389038 529.5923462)" class="st5 st13">i</text>
<text transform="matrix(0.85 0 -0.3126727 0.9498609 522.4389038 529.5923462)" class="st14 st5 st13">i</text>
<text transform="matrix(0.85 0 -0.3126727 0.9498609 523.9662476 529.5923462)" class="st5 st13">b</text>
<text transform="matrix(0.85 0 -0.3126727 0.9498609 523.9662476 529.5923462)" class="st14 st5 st13">b</text>
<text transform="matrix(0.85 0 -0.3126727 0.9498609 528.0248413 529.5923462)" class="st5 st13">u</text>
<text transform="matrix(0.85 0 -0.3126727 0.9498609 528.0248413 529.5923462)" class="st14 st5 st13">u</text>
<text transform="matrix(0.85 0 -0.3126727 0.9498609 532.0853882 529.5923462)" class="st5 st13">t</text>
<text transform="matrix(0.85 0 -0.3126727 0.9498609 532.0853882 529.5923462)" class="st14 st5 st13">t</text>
<text transform="matrix(0.85 0 -0.3126727 0.9498609 534.6205444 529.5923462)" class="st5 st13">e</text>
<text transform="matrix(0.85 0 -0.3126727 0.9498609 534.6205444 529.5923462)" class="st14 st5 st13">e</text>
<line class="st12" x1="445.8050842" y1="533.7033081" x2="549.9193115" y2="533.7033081"/>
<text transform="matrix(0.85 0 0 1 448.3430176 542.9596558)" class="st5 st6">+</text>
<text transform="matrix(0.85 0 0 1 452.9123535 542.9596558)" class="st5 st6"> </text>
<text transform="matrix(0.85 0 0 1 459.5227051 542.9596558)" class="st5 st6">rank: gml::CodeType [0..1]</text>
<text transform="matrix(0.85 0 0 1 448.3430176 551.7018433)" class="st5 st6">+</text>
<text transform="matrix(0.85 0 0 1 452.9123535 551.7018433)" class="st5 st6"> </text>
<text transform="matrix(0.85 0 0 1 459.5227051 551.7018433)" class="st5 st6">rankOrg: gml::CodeType [0..1]</text>
<text transform="matrix(0.85 0 0 1 448.3430176 560.4362183)" class="st5 st6">+</text>
<text transform="matrix(0.85 0 0 1 452.9123535 560.4362183)" class="st5 st6"> </text>
<text transform="matrix(0.85 0 0 1 459.5227051 560.4362183)" class="st5 st6">depth: gml::LengthType [0..1]</text>
<polygon class="st8" points="418.3798828,663.817627 533.6673584,663.817627 533.6673584,609.817627 418.3798828,609.817627 "/>
<polygon class="st12" points="418.3798828,663.817627 533.6673584,663.817627 533.6673584,609.817627 418.3798828,609.817627 "/>
<text transform="matrix(0.85 0 0 1 458.5070801 620.1002808)" class="st5 st6">«DataType»</text>
<text transform="matrix(0.85 0 0 1 428.0227051 628.8424683)" class="st9 st6">uro::RiverFloodingRiskAttribute</text>
<line class="st12" x1="418.3798828" y1="632.9605103" x2="533.1594849" y2="632.9605103"/>
<text transform="matrix(0.85 0 0 1 420.9133301 642.2174683)" class="st5 st6">+</text>
<text transform="matrix(0.85 0 0 1 425.482666 642.2174683)" class="st5 st6"> </text>
<text transform="matrix(0.85 0 0 1 432.0930176 642.2174683)" class="st5 st6">adminType: gml::CodeType</text>
<text transform="matrix(0.85 0 0 1 420.9133301 650.9596558)" class="st5 st6">+</text>
<text transform="matrix(0.85 0 0 1 425.482666 650.9596558)" class="st5 st6"> </text>
<text transform="matrix(0.85 0 0 1 432.0930176 650.9596558)" class="st5 st6">scale: gml::CodeType</text>
<text transform="matrix(0.85 0 0 1 420.9133301 659.7018433)" class="st5 st6">+</text>
<text transform="matrix(0.85 0 0 1 425.482666 659.7018433)" class="st5 st6"> </text>
<text transform="matrix(0.85 0 0 1 432.0930176 659.7018433)" class="st5 st6">duration: gml::MeasureType [0..1]</text>
<polygon class="st8" points="496.0846252,709.0747681 594.6122437,709.0747681 594.6122437,669.9890747 496.0846252,669.9890747 "/>
<polygon class="st12" points="496.0846252,709.0747681 594.6122437,709.0747681 594.6122437,669.9890747 496.0846252,669.9890747 
	"/>
<text transform="matrix(0.85 0 0 1 527.5695801 680.2721558)" class="st5 st6">«DataType»</text>
<text transform="matrix(0.85 0 0 1 505.2258301 689.0143433)" class="st9 st6">uro::TsunamiRiskAttribute</text>
<polygon class="st8" points="556.5216675,649.9318848 655.0492554,649.9318848 655.0492554,609.817627 556.5216675,609.817627 "/>
<polygon class="st12" points="556.5216675,649.9318848 655.0492554,649.9318848 655.0492554,609.817627 556.5216675,609.817627 "/>
<text transform="matrix(0.85 0 0 1 588.0070801 620.1002808)" class="st5 st6">«DataType»</text>
<text transform="matrix(0.85 0 0 1 565.1555176 628.8424683)" class="st9 st6">uro::HighTideRiskAttribute</text>
<polygon class="st8" points="605.7854614,709.5890503 722.5964966,709.5890503 722.5964966,669.9890747 605.7854614,669.9890747 "/>
<polygon class="st12" points="605.7854614,709.5890503 722.5964966,709.5890503 722.5964966,669.9890747 605.7854614,669.9890747 
	"/>
<text transform="matrix(0.85 0 0 1 646.4133301 680.2721558)" class="st5 st6">«DataType»</text>
<text transform="matrix(0.85 0 0 1 613.9133301 689.0143433)" class="st9 st6">uro::InlandFloodingRiskAttribute</text>
<polygon class="st8" points="569.7263794,546.5604858 661.1437378,546.5604858 661.1437378,510.5604858 569.7263794,510.5604858 "/>
<polygon class="st12" points="569.7263794,546.5604858 661.1437378,546.5604858 661.1437378,510.5604858 569.7263794,510.5604858 
	"/>
<text transform="matrix(0.85 0 0 1 597.6555176 520.8424683)" class="st5 st6">«DataType»</text>
<text transform="matrix(0.85 0 0 1 573.7883301 529.5924683)" class="st9 st6">uro::LandSlideRiskAttribute</text>
<line class="st12" x1="569.7263794" y1="533.7033081" x2="660.6358643" y2="533.7033081"/>
<text transform="matrix(0.85 0 0 1 572.2648926 542.9596558)" class="st5 st6">+</text>
<text transform="matrix(0.85 0 0 1 576.8342285 542.9596558)" class="st5 st6"> </text>
<text transform="matrix(0.85 0 0 1 583.4367676 542.9596558)" class="st5 st6">areaType: gml::CodeType</text>
<polygon class="st8" points="625.0846558,756.3890381 744.4350586,756.3890381 744.4350586,720.3890381 625.0846558,720.3890381 "/>
<polygon class="st12" points="625.0846558,756.3890381 744.4350586,756.3890381 744.4350586,720.3890381 625.0846558,720.3890381 
	"/>
<text transform="matrix(0.85 0 0 1 667.2336426 730.6705933)" class="st5 st6">«DataType»</text>
<text transform="matrix(0.85 0 0 1 630.1633301 739.4127808)" class="st9 st6">uro::ReservoirFloodingRiskAttribute</text>
<polygon class="st8" points="369.1161194,212.7889862 509.7972107,212.7889862 509.7972107,153.6461639 369.1161194,153.6461639 "/>
<polygon class="st12" points="369.1161194,212.7889862 509.7972107,212.7889862 509.7972107,153.6461639 369.1161194,153.6461639 
	"/>
<text transform="matrix(0.85 0 0 1 421.9289551 163.9284058)" class="st5 st6">«DataType»</text>
<text transform="matrix(0.85 0 0 1 398.5690918 172.6705933)" class="st9 st6">uro::KeyValuePairAttribute</text>
<line class="st12" x1="369.1161194" y1="176.7889862" x2="509.2893372" y2="176.7889862"/>
<text transform="matrix(0.85 0 0 1 371.6550293 186.0455933)" class="st5 st6">+</text>
<text transform="matrix(0.85 0 0 1 376.2243652 186.0455933)" class="st5 st6"> </text>
<text transform="matrix(0.85 0 0 1 382.8269043 186.0455933)" class="st5 st6">key: gml::CodeType</text>
<text transform="matrix(0.85 0 0 1 371.6550293 194.7877808)" class="st5 st6">+</text>
<text transform="matrix(0.85 0 0 1 376.2243652 194.7877808)" class="st5 st6"> </text>
<text transform="matrix(0.85 0 0 1 382.8269043 194.7877808)" class="st5 st6">codeValue: gml::CodeType [0..1]</text>
<polygon class="st8" points="643.8760376,304.8462524 796.2382202,304.8462524 796.2382202,154.6747284 643.8760376,154.6747284 "/>
<polygon class="st12" points="643.8760376,304.8462524 796.2382202,304.8462524 796.2382202,154.6747284 643.8760376,154.6747284 
	"/>
<text transform="matrix(0.85 0 0 1 702.2805176 164.9596558)" class="st5 st6">«DataType»</text>
<text transform="matrix(0.85 0 0 1 680.9523926 173.7018433)" class="st9 st6">uro::DataQualityAttribute</text>
<line class="st12" x1="643.8760376" y1="177.8175507" x2="795.7303467" y2="177.8175507"/>
<text transform="matrix(0.85 0 0 1 646.4133301 187.0690308)" class="st5 st6">+</text>
<text transform="matrix(0.85 0 0 1 650.982666 187.0690308)" class="st5 st6"> </text>
<text transform="matrix(0.85 0 0 1 657.5852051 187.0690308)" class="st5 st6">geometrySrcDescLod0: gml::CodeType [0..*]</text>
<text transform="matrix(0.85 0 0 1 646.4133301 195.8112183)" class="st5 st6">+</text>
<text transform="matrix(0.85 0 0 1 650.982666 195.8112183)" class="st5 st6"> </text>
<text transform="matrix(0.85 0 0 1 657.5852051 195.8112183)" class="st5 st6">geometrySrcDescLod1: gml::CodeType [1..*]</text>
<text transform="matrix(0.85 0 0 1 646.4133301 204.5612183)" class="st5 st6">+</text>
<text transform="matrix(0.85 0 0 1 650.982666 204.5612183)" class="st5 st6"> </text>
<text transform="matrix(0.85 0 0 1 657.5852051 204.5612183)" class="st5 st6">geometrySrcDescLod2: gml::CodeType [0..*]</text>
<text transform="matrix(0.85 0 0 1 646.4133301 213.3034058)" class="st5 st6">+</text>
<text transform="matrix(0.85 0 0 1 650.982666 213.3034058)" class="st5 st6"> </text>
<text transform="matrix(0.85 0 0 1 657.5852051 213.3034058)" class="st5 st6">geometrySrcDescLod3: gml::CodeType [0..*]</text>
<text transform="matrix(0.85 0 0 1 646.4133301 222.0455933)" class="st5 st6">+</text>
<text transform="matrix(0.85 0 0 1 650.982666 222.0455933)" class="st5 st6"> </text>
<text transform="matrix(0.85 0 0 1 657.5852051 222.0455933)" class="st5 st6">geometrySrcDescLod4: gml::CodeType [0..*]</text>
<text transform="matrix(0.85 0 0 1 646.4133301 230.7955933)" class="st5 st6">+</text>
<text transform="matrix(0.85 0 0 1 650.982666 230.7955933)" class="st5 st6"> </text>
<text transform="matrix(0.85 0 0 1 657.5852051 230.7955933)" class="st5 st6">thematicSrcDesc: gml::CodeType [0..*]</text>
<text transform="matrix(0.85 0 0 1 646.4133301 239.5299683)" class="st5 st6">+</text>
<text transform="matrix(0.85 0 0 1 650.982666 239.5299683)" class="st5 st6"> </text>
<text transform="matrix(0.85 0 0 1 657.5852051 239.5299683)" class="st5 st6">appearanceSrcDescLod0: gml::CodeType [0..*]</text>
<text transform="matrix(0.85 0 0 1 646.4133301 248.2721558)" class="st5 st6">+</text>
<text transform="matrix(0.85 0 0 1 650.982666 248.2721558)" class="st5 st6"> </text>
<text transform="matrix(0.85 0 0 1 657.5852051 248.2721558)" class="st5 st6">appearanceSrcDescLod1: gml::CodeType [0..*]</text>
<text transform="matrix(0.85 0 0 1 646.4133301 257.0143433)" class="st5 st6">+</text>
<text transform="matrix(0.85 0 0 1 650.982666 257.0143433)" class="st5 st6"> </text>
<text transform="matrix(0.85 0 0 1 657.5852051 257.0143433)" class="st5 st6">appearanceSrcDescLod2: gml::CodeType [0..*]</text>
<text transform="matrix(0.85 0 0 1 646.4133301 265.7487183)" class="st5 st6">+</text>
<text transform="matrix(0.85 0 0 1 650.982666 265.7487183)" class="st5 st6"> </text>
<text transform="matrix(0.85 0 0 1 657.5852051 265.7487183)" class="st5 st6">appearanceSrcDescLod3: gml::CodeType [0..*]</text>
<text transform="matrix(0.85 0 0 1 646.4133301 274.4987183)" class="st5 st6">+</text>
<text transform="matrix(0.85 0 0 1 650.982666 274.4987183)" class="st5 st6"> </text>
<text transform="matrix(0.85 0 0 1 657.5852051 274.4987183)" class="st5 st6">appearanceSrcDescLod4: gml::CodeType [0..*]</text>
<text transform="matrix(0.85 0 0 1 646.4133301 283.2409058)" class="st5 st6">+</text>
<text transform="matrix(0.85 0 0 1 650.982666 283.2409058)" class="st5 st6"> </text>
<text transform="matrix(0.85 0 0 1 657.5852051 283.2409058)" class="st5 st6">lodType: gml::CodeType [0..*]</text>
<text transform="matrix(0.85 0 0 1 646.4133301 291.9830933)" class="st5 st6">+</text>
<text transform="matrix(0.85 0 0 1 650.982666 291.9830933)" class="st5 st6"> </text>
<text transform="matrix(0.85 0 0 1 657.5852051 291.9830933)" class="st5 st6">lod1HeightType: gml::CodeType [0..1]</text>
<text transform="matrix(0.85 0 0 1 646.4133301 300.7330933)" class="st5 st6">+</text>
<text transform="matrix(0.85 0 0 1 650.982666 300.7330933)" class="st5 st6"> </text>
<text transform="matrix(0.85 0 0 1 657.5852051 300.7330933)" class="st5 st6">tranDataAcquisition: xs::string [0..1]</text>
<line class="st12" x1="142.6042786" y1="527.5319214" x2="142.6042786" y2="466.8462524"/>
<line class="st12" x1="142.6042786" y1="466.8462524" x2="352.3562622" y2="466.8462524"/>
<line class="st12" x1="352.3562622" y1="466.8462524" x2="352.3562622" y2="97.0747452"/>
<polyline class="st15" points="354.8956299,102.2175674 352.3562622,97.0747452 349.8168945,102.2175674 352.3562622,107.3603897 
	354.8956299,102.2175674 "/>
<polygon class="st12" points="354.8956299,102.2175674 352.3562622,97.0747452 349.8168945,102.2175674 352.3562622,107.3603897 "/>
<polyline class="st12" points="145.6515198,519.817627 142.6042786,527.5319214 139.5570221,519.817627 "/>
<line class="st12" x1="734.7854614" y1="719.8747559" x2="734.7854614" y2="590.2747803"/>
<line class="st12" x1="734.7854614" y1="590.2747803" x2="498.1161194" y2="590.2747803"/>
<line class="st12" x1="498.1161194" y1="590.2747803" x2="498.1161194" y2="565.0747681"/>
<polyline class="st16" points="501.1633606,573.3033447 495.0688782,573.3033447 498.1161194,565.0747681 501.1633606,573.3033447 
	"/>
<polygon class="st12" points="501.1633606,573.3033447 495.0688782,573.3033447 498.1161194,565.0747681 "/>
<line class="st12" x1="260.4310608" y1="153.1318817" x2="260.4310608" y2="122.2746964"/>
<line class="st12" x1="351.3405151" y1="122.2746964" x2="351.3405151" y2="97.0747452"/>
<polyline class="st15" points="353.8798828,102.2175674 351.3405151,97.0747452 348.8011475,102.2175674 351.3405151,107.3603897 
	353.8798828,102.2175674 "/>
<polyline class="st12" points="353.8798828,102.2175674 351.3405151,97.0747452 348.8011475,102.2175674 351.3405151,107.3603897 
	"/>
<polyline class="st12" points="263.478302,145.4175262 260.4310608,153.1318817 257.3838196,145.4175262 "/>
<line class="st12" x1="68.9625397" y1="153.1318817" x2="68.9625397" y2="122.2746964"/>
<line class="st12" x1="68.9625397" y1="122.2746964" x2="351.3405151" y2="122.2746964"/>
<polyline class="st15" points="353.8798828,102.2175674 351.3405151,97.0747452 348.8011475,102.2175674 351.3405151,107.3603897 
	353.8798828,102.2175674 "/>
<polyline class="st12" points="353.8798828,102.2175674 351.3405151,97.0747452 348.8011475,102.2175674 351.3405151,107.3603897 
	"/>
<polyline class="st12" points="72.0097809,145.4175262 68.9625397,153.1318817 65.9152908,145.4175262 "/>
<line class="st12" x1="720.0571289" y1="358.3318481" x2="720.0571289" y2="305.3604126"/>
<polyline class="st15" points="722.5964966,310.5033569 720.0571289,305.3604126 717.5177612,310.5033569 720.0571289,315.6461792 
	722.5964966,310.5033569 "/>
<polygon class="st12" points="722.5964966,310.5033569 720.0571289,305.3604126 717.5177612,310.5033569 720.0571289,315.6461792 
	"/>
<polyline class="st12" points="723.1043701,350.6176147 720.0571289,358.3318481 717.0098877,350.6176147 "/>
<line class="st12" x1="160.8877411" y1="323.8748169" x2="160.8877411" y2="122.2746964"/>
<polyline class="st15" points="353.8798828,102.2175674 351.3405151,97.0747452 348.8011475,102.2175674 351.3405151,107.3603897 
	353.8798828,102.2175674 "/>
<polyline class="st12" points="353.8798828,102.2175674 351.3405151,97.0747452 348.8011475,102.2175674 351.3405151,107.3603897 
	"/>
<polyline class="st12" points="163.9349823,316.1604614 160.8877411,323.8748169 157.8404999,316.1604614 "/>
<line class="st12" x1="312.2342224" y1="224.6176147" x2="312.2342224" y2="122.2746964"/>
<polyline class="st15" points="353.8798828,102.2175674 351.3405151,97.0747452 348.8011475,102.2175674 351.3405151,107.3603897 
	353.8798828,102.2175674 "/>
<polyline class="st12" points="353.8798828,102.2175674 351.3405151,97.0747452 348.8011475,102.2175674 351.3405151,107.3603897 
	"/>
<polyline class="st12" points="315.2814636,216.9033813 312.2342224,224.6176147 309.1869812,216.9033813 "/>
<line class="st12" x1="590.5492554" y1="426.7318726" x2="590.5492554" y2="122.2746964"/>
<polyline class="st15" points="353.8798828,102.2175674 351.3405151,97.0747452 348.8011475,102.2175674 351.3405151,107.3603897 
	353.8798828,102.2175674 "/>
<polyline class="st12" points="353.8798828,102.2175674 351.3405151,97.0747452 348.8011475,102.2175674 351.3405151,107.3603897 
	"/>
<polyline class="st12" points="593.5964966,419.0176392 590.5492554,426.7318726 587.5020142,419.0176392 "/>
<line class="st12" x1="469.1672974" y1="153.1318817" x2="469.1672974" y2="122.2746964"/>
<polyline class="st15" points="353.8798828,102.2175674 351.3405151,97.0747452 348.8011475,102.2175674 351.3405151,107.3603897 
	353.8798828,102.2175674 "/>
<polyline class="st12" points="353.8798828,102.2175674 351.3405151,97.0747452 348.8011475,102.2175674 351.3405151,107.3603897 
	"/>
<polyline class="st12" points="472.2145386,145.4175262 469.1672974,153.1318817 466.1200562,145.4175262 "/>
<line class="st12" x1="242.147583" y1="527.5319214" x2="242.147583" y2="466.8462524"/>
<line class="st12" x1="242.147583" y1="466.8462524" x2="351.3405151" y2="466.8462524"/>
<line class="st12" x1="351.3405151" y1="466.8462524" x2="351.3405151" y2="97.0747452"/>
<polyline class="st15" points="353.8798828,102.2175674 351.3405151,97.0747452 348.8011475,102.2175674 351.3405151,107.3603897 
	353.8798828,102.2175674 "/>
<polyline class="st12" points="353.8798828,102.2175674 351.3405151,97.0747452 348.8011475,102.2175674 351.3405151,107.3603897 
	"/>
<polyline class="st12" points="245.1948242,519.817627 242.147583,527.5319214 239.1003418,519.817627 "/>
<line class="st12" x1="615.4350586" y1="510.0462036" x2="615.4350586" y2="491.5319214"/>
<line class="st12" x1="615.4350586" y1="491.5319214" x2="581.9153442" y2="491.5319214"/>
<line class="st12" x1="581.9153442" y1="491.5319214" x2="581.9153442" y2="466.3318481"/>
<polyline class="st16" points="584.9626465,474.5604858 578.868103,474.5604858 581.9153442,466.3318481 584.9626465,474.5604858 
	"/>
<polygon class="st12" points="584.9626465,474.5604858 578.868103,474.5604858 581.9153442,466.3318481 "/>
<line class="st12" x1="718.5335083" y1="154.1604462" x2="718.5335083" y2="122.2746964"/>
<line class="st12" x1="718.5335083" y1="122.2746964" x2="351.3405151" y2="122.2746964"/>
<polyline class="st15" points="353.8798828,102.2175674 351.3405151,97.0747452 348.8011475,102.2175674 351.3405151,107.3603897 
	353.8798828,102.2175674 "/>
<polyline class="st12" points="353.8798828,102.2175674 351.3405151,97.0747452 348.8011475,102.2175674 351.3405151,107.3603897 
	"/>
<polyline class="st12" points="721.5807495,146.4460907 718.5335083,154.1604462 715.4862671,146.4460907 "/>
<line class="st12" x1="538.2382202" y1="270.9033813" x2="538.2382202" y2="122.2746964"/>
<polyline class="st15" points="353.8798828,102.2175674 351.3405151,97.0747452 348.8011475,102.2175674 351.3405151,107.3603897 
	353.8798828,102.2175674 "/>
<polyline class="st12" points="353.8798828,102.2175674 351.3405151,97.0747452 348.8011475,102.2175674 351.3405151,107.3603897 
	"/>
<polyline class="st12" points="541.2854614,263.1890259 538.2382202,270.9033813 535.190979,263.1890259 "/>
<line class="st12" x1="497.6082458" y1="510.0462036" x2="497.6082458" y2="491.5319214"/>
<line class="st12" x1="497.6082458" y1="491.5319214" x2="581.9153442" y2="491.5319214"/>
<line class="st12" x1="475.7696533" y1="609.3033447" x2="475.7696533" y2="590.2747803"/>
<line class="st12" x1="475.7696533" y1="590.2747803" x2="498.1161194" y2="590.2747803"/>
<line class="st12" x1="544.8405762" y1="669.4747925" x2="544.8405762" y2="590.2747803"/>
<line class="st12" x1="605.7854614" y1="609.3033447" x2="605.7854614" y2="590.2747803"/>
<line class="st12" x1="664.190979" y1="669.4747925" x2="664.190979" y2="590.2747803"/>
<line class="st12" x1="379.2735901" y1="527.5319214" x2="379.2735901" y2="466.8462524"/>
<line class="st12" x1="379.2735901" y1="466.8462524" x2="351.8483887" y2="466.8462524"/>
<line class="st12" x1="351.8483887" y1="466.8462524" x2="351.8483887" y2="97.0747452"/>
<polyline class="st15" points="354.3877563,102.2175674 351.8483887,97.0747452 349.309021,102.2175674 351.8483887,107.3603897 
	354.3877563,102.2175674 "/>
<polygon class="st12" points="354.3877563,102.2175674 351.8483887,97.0747452 349.309021,102.2175674 351.8483887,107.3603897 "/>
<polyline class="st12" points="382.3208313,519.817627 379.2735901,527.5319214 376.2263489,519.817627 "/>
<text transform="matrix(0.85 0 0 1 636.2570801 146.9674683)" class="st5 st6">+bridDataQualityAttribute</text>
<text transform="matrix(0.85 0 0 1 724.1164551 145.9284058)" class="st5 st6">0..1</text>
<text transform="matrix(0.85 0 0 1 162.4128418 512.1002808)" class="st5 st6">+bridFacilityTypeAttribute</text>
<text transform="matrix(0.85 0 0 1 253.8269043 519.8112183)" class="st5 st6">0..*</text>
<text transform="matrix(0.85 0 0 1 210.1550293 219.4752808)" class="st5 st6">+bridRiskAssessmentAttribute</text>
<text transform="matrix(0.85 0 0 1 322.8972168 221.0143433)" class="st5 st6">0..1</text>
<text transform="matrix(0.85 0 0 1 495.5695801 423.1393433)" class="st5 st6">+bridDisasterRiskAttribute</text>
<text transform="matrix(0.85 0 0 1 600.7023926 424.1627808)" class="st5 st6">0..*</text>
<text transform="matrix(0.85 0 0 1 374.7019043 149.5299683)" class="st5 st6">+bridKeyValuePairAttribute</text>
<text transform="matrix(0.85 0 0 1 477.2883301 149.5299683)" class="st5 st6">0..*</text>
<text transform="matrix(0.85 0 0 1 469.6789551 265.7487183)" class="st5 st6">+bridDmAttribute</text>
<text transform="matrix(0.85 0 0 1 542.8117676 256.5065308)" class="st5 st6">0..*</text>
<text transform="matrix(0.85 0 0 1 609.8508301 353.1862183)" class="st5 st6">+publicSurveyDataQualityAttribute</text>
<text transform="matrix(0.85 0 0 1 729.1945801 354.7252808)" class="st5 st6">0..1</text>
<text transform="matrix(0.85 0 0 1 6.490972 144.3893433)" class="st5 st6">+bridBaseAttribute</text>
<text transform="matrix(0.85 0 0 1 73.0222244 142.8424683)" class="st5 st6">0..1</text>
<text transform="matrix(0.85 0 0 1 79.1159744 509.5299683)" class="st5 st6">+bridFacilityAttribute</text>
<text transform="matrix(0.85 0 0 1 146.1628418 511.0768433)" class="st5 st6">0..*</text>
<text transform="matrix(0.85 0 0 1 175.6159668 149.5299683)" class="st5 st6">+bridFunctionalAttribute</text>
<text transform="matrix(0.85 0 0 1 269.5690918 149.5299683)" class="st5 st6">0..1</text>
<text transform="matrix(0.85 0 0 1 84.1940994 316.1627808)" class="st5 st6">+bridStructureAttribute</text>
<text transform="matrix(0.85 0 0 1 166.9753418 320.2721558)" class="st5 st6">0..1</text>
<text transform="matrix(0.85 0 0 1 309.1862793 509.5299683)" class="st5 st6">+bridFacilityIdAttribute</text>
<text transform="matrix(0.85 0 0 1 385.3659668 518.7877808)" class="st5 st6">0..1</text>
</svg>
