<?xml version="1.0" encoding="utf-8"?>
<!-- Generator: Adobe Illustrator 27.4.1, SVG Export Plug-In . SVG Version: 6.00 Build 0)  -->
<svg version="1.1" id="レイヤー_1" xmlns="http://www.w3.org/2000/svg" xmlns:xlink="http://www.w3.org/1999/xlink" x="0px"
	 y="0px" viewBox="0 0 1067.9 1185.9" style="enable-background:new 0 0 1067.9 1185.9;" xml:space="preserve">
<style type="text/css">
	.st0{fill-rule:evenodd;clip-rule:evenodd;fill:#CFD1D8;}
	.st1{fill-rule:evenodd;clip-rule:evenodd;fill:#FFFFCC;}
	.st2{fill:none;stroke:#000000;stroke-width:0.8662;stroke-linecap:round;stroke-linejoin:round;stroke-miterlimit:10;}
	.st3{font-family:'Calibri';}
	.st4{font-size:9.5276px;}
	.st5{font-family:'Calibri-Bold';}
	.st6{font-family:'Calibri-BoldItalic';}
	.st7{fill-rule:evenodd;clip-rule:evenodd;fill:#CCFFCC;}
	.st8{fill-rule:evenodd;clip-rule:evenodd;fill:#F0F0F0;}
	.st9{fill:none;stroke:#D7D7D7;stroke-width:0.8662;stroke-linecap:square;stroke-miterlimit:10;}
	.st10{fill:none;stroke:#000000;stroke-width:0.8662;stroke-linecap:square;stroke-miterlimit:10;}
	.st11{fill:#003060;}
	.st12{font-family:'YuGothicUI-Regular';}
	.st13{font-size:11.2598px;}
	.st14{fill-rule:evenodd;clip-rule:evenodd;fill:#FFCCFF;}
	.st15{font-family:'MS-PGothic';}
	.st16{font-size:13.8582px;}
	.st17{fill:none;stroke:#003060;stroke-width:0.396;stroke-miterlimit:10;}
	.st18{fill:none;stroke:#000000;stroke-width:0.8662;stroke-linecap:round;stroke-linejoin:bevel;stroke-miterlimit:10;}
	.st19{fill-rule:evenodd;clip-rule:evenodd;fill:#FFFFFF;}
</style>
<path class="st0" d="M641.4,607.5c1.2,0,2.2,1,2.2,2.2l0,0v38.1l0,0c0,1.2-1,2.2-2.2,2.2l0,0l0,0h-99l0,0c-1.2,0-2.2-1-2.2-2.2l0,0
	v-38.1c0-1.2,1-2.2,2.2-2.2l0,0H641.4L641.4,607.5L641.4,607.5z"/>
<path class="st1" d="M638.8,604.9c1.2,0,2.2,1,2.2,2.2l0,0v38.1l0,0c0,1.2-1,2.2-2.2,2.2l0,0l0,0h-99l0,0c-1.2,0-2.2-1-2.2-2.2l0,0
	V607c0-1.2,1-2.2,2.2-2.2l0,0h99V604.9L638.8,604.9z"/>
<path class="st2" d="M638.8,604.9c1.2,0,2.2,1,2.2,2.2l0,0v38.1l0,0c0,1.2-1,2.2-2.2,2.2l0,0l0,0h-99l0,0c-1.2,0-2.2-1-2.2-2.2l0,0
	V607c0-1.2,1-2.2,2.2-2.2l0,0h99V604.9L638.8,604.9z"/>
<text transform="matrix(0.83 0 0 1 558.4512 618.757)" class="st3 st4">«FeatureType»</text>
<text transform="matrix(0.83 0 0 1 566.2637 630.007)" class="st5 st4">tun::Tunnel</text>
<path class="st0" d="M762.9,607.5c1.2,0,2.2,1,2.2,2.2l0,0v38.1l0,0c0,1.2-1,2.2-2.2,2.2l0,0l0,0h-99l0,0c-1.2,0-2.2-1-2.2-2.2l0,0
	v-38.1c0-1.2,1-2.2,2.2-2.2l0,0H762.9L762.9,607.5L762.9,607.5z"/>
<path class="st1" d="M760.3,604.9c1.2,0,2.2,1,2.2,2.2l0,0v38.1l0,0c0,1.2-1,2.2-2.2,2.2l0,0l0,0h-99l0,0c-1.2,0-2.2-1-2.2-2.2l0,0
	V607c0-1.2,1-2.2,2.2-2.2l0,0h99V604.9L760.3,604.9z"/>
<path class="st2" d="M760.3,604.9c1.2,0,2.2,1,2.2,2.2l0,0v38.1l0,0c0,1.2-1,2.2-2.2,2.2l0,0l0,0h-99l0,0c-1.2,0-2.2-1-2.2-2.2l0,0
	V607c0-1.2,1-2.2,2.2-2.2l0,0h99V604.9L760.3,604.9z"/>
<text transform="matrix(0.83 0 0 1 679.9824 618.757)" class="st3 st4">«FeatureType»</text>
<text transform="matrix(0.83 0 0 1 679.123 630.007)" class="st5 st4">tun::TunnelPart</text>
<path class="st0" d="M333.2,262.8c1.2,0,2.2,1,2.2,2.2l0,0v82.3l0,0c0,1.2-1,2.2-2.2,2.2l0,0l0,0h-138l0,0c-1.2,0-2.2-1-2.2-2.2l0,0
	V265c0-1.2,1-2.2,2.2-2.2l0,0H333.2L333.2,262.8L333.2,262.8z"/>
<path class="st1" d="M330.6,260.2c1.2,0,2.2,1,2.2,2.2l0,0v82.3l0,0c0,1.2-1,2.2-2.2,2.2l0,0l0,0h-138l0,0c-1.2,0-2.2-1-2.2-2.2l0,0
	v-82.3c0-1.2,1-2.2,2.2-2.2l0,0H330.6L330.6,260.2L330.6,260.2z"/>
<path class="st2" d="M330.6,260.2c1.2,0,2.2,1,2.2,2.2l0,0v82.3l0,0c0,1.2-1,2.2-2.2,2.2l0,0l0,0h-138l0,0c-1.2,0-2.2-1-2.2-2.2l0,0
	v-82.3c0-1.2,1-2.2,2.2-2.2l0,0H330.6L330.6,260.2L330.6,260.2z"/>
<text transform="matrix(0.83 0 0 1 231.1689 274.0241)" class="st3 st4">«FeatureType»</text>
<text transform="matrix(0.83 0 0 1 -7658.2339 -7594.4951)" class="st5" style="font-size:4.7638px;">i</text>
<text transform="matrix(0.83 0 0 1 210.3252 285.2741)" class="st5 st4">tun::IntTunnelInstallation</text>
<line class="st2" x1="190.4" y1="292.2" x2="332.7" y2="292.2"/>
<text transform="matrix(0.83 0 0 1 194.7002 304.3361)" class="st3 st4">+ class: gml::CodeType [0..1]</text>
<text transform="matrix(0.83 0 0 1 -7658.2339 -7594.4951)" class="st3" style="font-size:4.7638px;">i</text>
<text transform="matrix(0.83 0 0 1 194.7002 315.5861)" class="st3 st4">+ functon: gml::CodeType [0..*]</text>
<text transform="matrix(0.83 0 0 1 194.7002 326.8517)" class="st3 st4">+ usage: gml::CodeType [0..*]</text>
<path class="st0" d="M324.5,539.9c1.2,0,2.2,1,2.2,2.2l0,0v82.3l0,0c0,1.2-1,2.2-2.2,2.2l0,0l0,0h-138l0,0c-1.2,0-2.2-1-2.2-2.2l0,0
	v-82.3c0-1.2,1-2.2,2.2-2.2l0,0H324.5L324.5,539.9L324.5,539.9z"/>
<path class="st1" d="M321.9,537.3c1.2,0,2.2,1,2.2,2.2l0,0v82.3l0,0c0,1.2-1,2.2-2.2,2.2l0,0l0,0h-138l0,0c-1.2,0-2.2-1-2.2-2.2l0,0
	v-82.3c0-1.2,1-2.2,2.2-2.2l0,0H321.9L321.9,537.3L321.9,537.3z"/>
<path class="st2" d="M321.9,537.3c1.2,0,2.2,1,2.2,2.2l0,0v82.3l0,0c0,1.2-1,2.2-2.2,2.2l0,0l0,0h-138l0,0c-1.2,0-2.2-1-2.2-2.2l0,0
	v-82.3c0-1.2,1-2.2,2.2-2.2l0,0H321.9L321.9,537.3L321.9,537.3z"/>
<text transform="matrix(0.83 0 0 1 222.498 551.1642)" class="st3 st4">«FeatureType»</text>
<text transform="matrix(0.83 0 0 1 217.2939 562.4455)" class="st5 st4">tun::HollowSpace</text>
<line class="st2" x1="181.7" y1="569.4" x2="324.1" y2="569.4"/>
<text transform="matrix(0.83 0 0 1 186.0439 581.4767)" class="st3 st4">+ class: gml::CodeType [0..1]</text>
<text transform="matrix(0.83 0 0 1 -7658.2339 -7594.4951)" class="st3" style="font-size:4.7638px;">i</text>
<text transform="matrix(0.83 0 0 1 186.0439 592.758)" class="st3 st4">+ function: gml::CodeType [0..*]</text>
<text transform="matrix(0.83 0 0 1 186.0439 604.0226)" class="st3 st4">+ usage: gml::CodeType [0..*]</text>
<path class="st0" d="M181.3,921c1.2,0,2.2,1,2.2,2.2l0,0v64.1l0,0c0,1.2-1,2.2-2.2,2.2l0,0l0,0h-99l0,0c-1.2,0-2.2-1-2.2-2.2l0,0
	v-64.1c0-1.2,1-2.2,2.2-2.2l0,0H181.3L181.3,921L181.3,921z"/>
<path class="st1" d="M178.7,918.4c1.2,0,2.2,1,2.2,2.2l0,0v64.1l0,0c0,1.2-1,2.2-2.2,2.2l0,0l0,0h-99l0,0c-1.2,0-2.2-1-2.2-2.2l0,0
	v-64.1c0-1.2,1-2.2,2.2-2.2l0,0H178.7L178.7,918.4L178.7,918.4z"/>
<path class="st2" d="M178.7,918.4c1.2,0,2.2,1,2.2,2.2l0,0v64.1l0,0c0,1.2-1,2.2-2.2,2.2l0,0l0,0h-99l0,0c-1.2,0-2.2-1-2.2-2.2l0,0
	v-64.1c0-1.2,1-2.2,2.2-2.2l0,0H178.7L178.7,918.4L178.7,918.4z"/>
<text transform="matrix(0.83 0 0 1 98.3574 932.2883)" class="st3 st4">«FeatureType»</text>
<text transform="matrix(0.83 0 0 1 100.9502 943.5558)" class="st6 st4">tun::_Opening</text>
<path class="st0" d="M815,1118.5c1.2,0,2.2,1,2.2,2.2l0,0v37.2l0,0c0,1.2-1,2.2-2.2,2.2l0,0l0,0h-99l0,0c-1.2,0-2.2-1-2.2-2.2l0,0
	v-37.2c0-1.2,1-2.2,2.2-2.2l0,0H815L815,1118.5L815,1118.5z"/>
<path class="st1" d="M812.4,1115.9c1.2,0,2.2,1,2.2,2.2l0,0v37.2l0,0c0,1.2-1,2.2-2.2,2.2l0,0l0,0h-99l0,0c-1.2,0-2.2-1-2.2-2.2l0,0
	v-37.2c0-1.2,1-2.2,2.2-2.2l0,0H812.4L812.4,1115.9L812.4,1115.9z"/>
<path class="st2" d="M812.4,1115.9c1.2,0,2.2,1,2.2,2.2l0,0v37.2l0,0c0,1.2-1,2.2-2.2,2.2l0,0l0,0h-99l0,0c-1.2,0-2.2-1-2.2-2.2l0,0
	v-37.2c0-1.2,1-2.2,2.2-2.2l0,0H812.4L812.4,1115.9L812.4,1115.9z"/>
<text transform="matrix(0.83 0 0 1 732.0762 1129.7571)" class="st3 st4">«FeatureType»</text>
<text transform="matrix(0.83 0 0 1 723.4043 1141.0071)" class="st5 st4">tun::ClosureSurface</text>
<path class="st0" d="M762.9,868.2c1.2,0,2.2,1,2.2,2.2l0,0v106.5l0,0c0,1.2-1,2.2-2.2,2.2l0,0l0,0h-99l0,0c-1.2,0-2.2-1-2.2-2.2l0,0
	V870.4c0-1.2,1-2.2,2.2-2.2l0,0H762.9L762.9,868.2L762.9,868.2z"/>
<path class="st1" d="M760.3,865.6c1.2,0,2.2,1,2.2,2.2l0,0v106.5l0,0c0,1.2-1,2.2-2.2,2.2l0,0l0,0h-99l0,0c-1.2,0-2.2-1-2.2-2.2l0,0
	V867.8c0-1.2,1-2.2,2.2-2.2l0,0H760.3L760.3,865.6L760.3,865.6z"/>
<path class="st2" d="M760.3,865.6c1.2,0,2.2,1,2.2,2.2l0,0v106.5l0,0c0,1.2-1,2.2-2.2,2.2l0,0l0,0h-99l0,0c-1.2,0-2.2-1-2.2-2.2l0,0
	V867.8c0-1.2,1-2.2,2.2-2.2l0,0H760.3L760.3,865.6L760.3,865.6z"/>
<text transform="matrix(0.83 0 0 1 679.9824 879.4465)" class="st3 st4">«FeatureType»</text>
<text transform="matrix(0.83 0 0 1 665.2324 890.6965)" class="st6 st4">tun::_BoundarySurface</text>
<path class="st0" d="M884.4,1042.3c1.2,0,2.2,1,2.2,2.2l0,0v37.2l0,0c0,1.2-1,2.2-2.2,2.2l0,0l0,0h-99l0,0c-1.2,0-2.2-1-2.2-2.2l0,0
	v-37.2c0-1.2,1-2.2,2.2-2.2l0,0H884.4L884.4,1042.3L884.4,1042.3z"/>
<path class="st1" d="M881.8,1039.7c1.2,0,2.2,1,2.2,2.2l0,0v37.2l0,0c0,1.2-1,2.2-2.2,2.2l0,0l0,0h-99l0,0c-1.2,0-2.2-1-2.2-2.2l0,0
	v-37.2c0-1.2,1-2.2,2.2-2.2l0,0H881.8L881.8,1039.7L881.8,1039.7z"/>
<path class="st2" d="M881.8,1039.7c1.2,0,2.2,1,2.2,2.2l0,0v37.2l0,0c0,1.2-1,2.2-2.2,2.2l0,0l0,0h-99l0,0c-1.2,0-2.2-1-2.2-2.2l0,0
	v-37.2c0-1.2,1-2.2,2.2-2.2l0,0H881.8L881.8,1039.7L881.8,1039.7z"/>
<text transform="matrix(0.83 0 0 1 801.5293 1053.554)" class="st3 st4">«FeatureType»</text>
<text transform="matrix(0.83 0 0 1 794.5762 1064.804)" class="st5 st4">tun::CeilingSurface</text>
<path class="st0" d="M250.7,1058.7c1.2,0,2.2,1,2.2,2.2l0,0v38.1l0,0c0,1.2-1,2.2-2.2,2.2l0,0l0,0h-99l0,0c-1.2,0-2.2-1-2.2-2.2l0,0
	v-38.1c0-1.2,1-2.2,2.2-2.2l0,0H250.7L250.7,1058.7L250.7,1058.7z"/>
<path class="st1" d="M248.1,1056.1c1.2,0,2.2,1,2.2,2.2l0,0v38.1l0,0c0,1.2-1,2.2-2.2,2.2l0,0l0,0h-99l0,0c-1.2,0-2.2-1-2.2-2.2l0,0
	v-38.1c0-1.2,1-2.2,2.2-2.2l0,0H248.1L248.1,1056.1L248.1,1056.1z"/>
<path class="st2" d="M248.1,1056.1c1.2,0,2.2,1,2.2,2.2l0,0v38.1l0,0c0,1.2-1,2.2-2.2,2.2l0,0l0,0h-99l0,0c-1.2,0-2.2-1-2.2-2.2l0,0
	v-38.1c0-1.2,1-2.2,2.2-2.2l0,0H248.1L248.1,1056.1L248.1,1056.1z"/>
<text transform="matrix(0.83 0 0 1 167.8096 1070.0071)" class="st3 st4">«FeatureType»</text>
<text transform="matrix(0.83 0 0 1 179.0752 1081.2571)" class="st5 st4">tun::Door</text>
<path class="st0" d="M1040.7,1042.3c1.2,0,2.2,1,2.2,2.2l0,0v37.2l0,0c0,1.2-1,2.2-2.2,2.2l0,0l0,0h-99l0,0c-1.2,0-2.2-1-2.2-2.2
	l0,0v-37.2c0-1.2,1-2.2,2.2-2.2l0,0H1040.7L1040.7,1042.3L1040.7,1042.3z"/>
<path class="st1" d="M1038.1,1039.7c1.2,0,2.2,1,2.2,2.2l0,0v37.2l0,0c0,1.2-1,2.2-2.2,2.2l0,0l0,0h-99l0,0c-1.2,0-2.2-1-2.2-2.2
	l0,0v-37.2c0-1.2,1-2.2,2.2-2.2l0,0H1038.1L1038.1,1039.7L1038.1,1039.7z"/>
<path class="st2" d="M1038.1,1039.7c1.2,0,2.2,1,2.2,2.2l0,0v37.2l0,0c0,1.2-1,2.2-2.2,2.2l0,0l0,0h-99l0,0c-1.2,0-2.2-1-2.2-2.2
	l0,0v-37.2c0-1.2,1-2.2,2.2-2.2l0,0H1038.1L1038.1,1039.7L1038.1,1039.7z"/>
<text transform="matrix(0.83 0 0 1 957.7793 1053.554)" class="st3 st4">«FeatureType»</text>
<text transform="matrix(0.83 0 0 1 954.3262 1064.804)" class="st5 st4">tun::FloorSurface</text>
<path class="st0" d="M745.5,1042.3c1.2,0,2.2,1,2.2,2.2l0,0v37.2l0,0c0,1.2-1,2.2-2.2,2.2l0,0l0,0h-99l0,0c-1.2,0-2.2-1-2.2-2.2l0,0
	v-37.2c0-1.2,1-2.2,2.2-2.2l0,0H745.5L745.5,1042.3L745.5,1042.3z"/>
<path class="st1" d="M742.9,1039.7c1.2,0,2.2,1,2.2,2.2l0,0v37.2l0,0c0,1.2-1,2.2-2.2,2.2l0,0l0,0h-99l0,0c-1.2,0-2.2-1-2.2-2.2l0,0
	v-37.2c0-1.2,1-2.2,2.2-2.2l0,0H742.9L742.9,1039.7L742.9,1039.7z"/>
<path class="st2" d="M742.9,1039.7c1.2,0,2.2,1,2.2,2.2l0,0v37.2l0,0c0,1.2-1,2.2-2.2,2.2l0,0l0,0h-99l0,0c-1.2,0-2.2-1-2.2-2.2l0,0
	v-37.2c0-1.2,1-2.2,2.2-2.2l0,0H742.9L742.9,1039.7L742.9,1039.7z"/>
<text transform="matrix(0.83 0 0 1 662.623 1053.554)" class="st3 st4">«FeatureType»</text>
<text transform="matrix(0.83 0 0 1 653.9512 1064.804)" class="st5 st4">tun::GroundSurface</text>
<path class="st0" d="M953.9,1119.4c1.2,0,2.2,1,2.2,2.2l0,0v37.2l0,0c0,1.2-1,2.2-2.2,2.2l0,0l0,0h-99l0,0c-1.2,0-2.2-1-2.2-2.2l0,0
	v-37.2c0-1.2,1-2.2,2.2-2.2l0,0H953.9L953.9,1119.4L953.9,1119.4z"/>
<path class="st1" d="M951.3,1116.8c1.2,0,2.2,1,2.2,2.2l0,0v37.2l0,0c0,1.2-1,2.2-2.2,2.2l0,0l0,0h-99l0,0c-1.2,0-2.2-1-2.2-2.2l0,0
	V1119c0-1.2,1-2.2,2.2-2.2l0,0H951.3L951.3,1116.8L951.3,1116.8z"/>
<path class="st2" d="M951.3,1116.8c1.2,0,2.2,1,2.2,2.2l0,0v37.2l0,0c0,1.2-1,2.2-2.2,2.2l0,0l0,0h-99l0,0c-1.2,0-2.2-1-2.2-2.2l0,0
	V1119c0-1.2,1-2.2,2.2-2.2l0,0H951.3L951.3,1116.8L951.3,1116.8z"/>
<text transform="matrix(0.83 0 0 1 870.9824 1130.6321)" class="st3 st4">«FeatureType»</text>
<text transform="matrix(0.83 0 0 1 852.7324 1141.8977)" class="st5 st4">tun::InteriorWallSurface</text>
<path class="st0" d="M537.2,1118.5c1.2,0,2.2,1,2.2,2.2l0,0v37.2l0,0c0,1.2-1,2.2-2.2,2.2l0,0l0,0h-99l0,0c-1.2,0-2.2-1-2.2-2.2l0,0
	v-37.2c0-1.2,1-2.2,2.2-2.2l0,0H537.2L537.2,1118.5L537.2,1118.5z"/>
<path class="st1" d="M534.6,1115.9c1.2,0,2.2,1,2.2,2.2l0,0v37.2l0,0c0,1.2-1,2.2-2.2,2.2l0,0l0,0h-99l0,0c-1.2,0-2.2-1-2.2-2.2l0,0
	v-37.2c0-1.2,1-2.2,2.2-2.2l0,0H534.6L534.6,1115.9L534.6,1115.9z"/>
<path class="st2" d="M534.6,1115.9c1.2,0,2.2,1,2.2,2.2l0,0v37.2l0,0c0,1.2-1,2.2-2.2,2.2l0,0l0,0h-99l0,0c-1.2,0-2.2-1-2.2-2.2l0,0
	v-37.2c0-1.2,1-2.2,2.2-2.2l0,0H534.6L534.6,1115.9L534.6,1115.9z"/>
<text transform="matrix(0.83 0 0 1 454.2783 1129.7571)" class="st3 st4">«FeatureType»</text>
<text transform="matrix(0.83 0 0 1 435.1689 1141.0071)" class="st5 st4">tun::OuterCeilingSurface</text>
<path class="st0" d="M667.4,1118.5c1.2,0,2.2,1,2.2,2.2l0,0v37.2l0,0c0,1.2-1,2.2-2.2,2.2l0,0l0,0h-99l0,0c-1.2,0-2.2-1-2.2-2.2l0,0
	v-37.2c0-1.2,1-2.2,2.2-2.2l0,0H667.4L667.4,1118.5L667.4,1118.5z"/>
<path class="st1" d="M664.8,1115.9c1.2,0,2.2,1,2.2,2.2l0,0v37.2l0,0c0,1.2-1,2.2-2.2,2.2l0,0l0,0h-99l0,0c-1.2,0-2.2-1-2.2-2.2l0,0
	v-37.2c0-1.2,1-2.2,2.2-2.2l0,0H664.8L664.8,1115.9L664.8,1115.9z"/>
<path class="st2" d="M664.8,1115.9c1.2,0,2.2,1,2.2,2.2l0,0v37.2l0,0c0,1.2-1,2.2-2.2,2.2l0,0l0,0h-99l0,0c-1.2,0-2.2-1-2.2-2.2l0,0
	v-37.2c0-1.2,1-2.2,2.2-2.2l0,0H664.8L664.8,1115.9L664.8,1115.9z"/>
<text transform="matrix(0.83 0 0 1 584.498 1129.7571)" class="st3 st4">«FeatureType»</text>
<text transform="matrix(0.83 0 0 1 568.873 1141.0071)" class="st5 st4">tun::OuterFloorSurface</text>
<path class="st0" d="M467.7,1042.3c1.2,0,2.2,1,2.2,2.2l0,0v37.2l0,0c0,1.2-1,2.2-2.2,2.2l0,0l0,0h-99l0,0c-1.2,0-2.2-1-2.2-2.2l0,0
	v-37.2c0-1.2,1-2.2,2.2-2.2l0,0H467.7L467.7,1042.3L467.7,1042.3z"/>
<path class="st1" d="M465.1,1039.7c1.2,0,2.2,1,2.2,2.2l0,0v37.2l0,0c0,1.2-1,2.2-2.2,2.2l0,0l0,0h-99l0,0c-1.2,0-2.2-1-2.2-2.2l0,0
	v-37.2c0-1.2,1-2.2,2.2-2.2l0,0H465.1L465.1,1039.7L465.1,1039.7z"/>
<path class="st2" d="M465.1,1039.7c1.2,0,2.2,1,2.2,2.2l0,0v37.2l0,0c0,1.2-1,2.2-2.2,2.2l0,0l0,0h-99l0,0c-1.2,0-2.2-1-2.2-2.2l0,0
	v-37.2c0-1.2,1-2.2,2.2-2.2l0,0H465.1L465.1,1039.7L465.1,1039.7z"/>
<text transform="matrix(0.83 0 0 1 384.8252 1053.554)" class="st3 st4">«FeatureType»</text>
<text transform="matrix(0.83 0 0 1 382.2324 1064.804)" class="st5 st4">tun::RoofSurface</text>
<path class="st0" d="M598,1042.3c1.2,0,2.2,1,2.2,2.2l0,0v37.2l0,0c0,1.2-1,2.2-2.2,2.2l0,0l0,0h-99l0,0c-1.2,0-2.2-1-2.2-2.2l0,0
	v-37.2c0-1.2,1-2.2,2.2-2.2l0,0H598L598,1042.3L598,1042.3z"/>
<path class="st1" d="M595.3,1039.7c1.2,0,2.2,1,2.2,2.2l0,0v37.2l0,0c0,1.2-1,2.2-2.2,2.2l0,0l0,0h-99l0,0c-1.2,0-2.2-1-2.2-2.2l0,0
	v-37.2c0-1.2,1-2.2,2.2-2.2l0,0H595.3L595.3,1039.7L595.3,1039.7z"/>
<path class="st2" d="M595.3,1039.7c1.2,0,2.2,1,2.2,2.2l0,0v37.2l0,0c0,1.2-1,2.2-2.2,2.2l0,0l0,0h-99l0,0c-1.2,0-2.2-1-2.2-2.2l0,0
	v-37.2c0-1.2,1-2.2,2.2-2.2l0,0H595.3L595.3,1039.7L595.3,1039.7z"/>
<text transform="matrix(0.83 0 0 1 515.0449 1053.554)" class="st3 st4">«FeatureType»</text>
<text transform="matrix(0.83 0 0 1 512.4512 1064.804)" class="st5 st4">tun::WallSurface</text>
<path class="st0" d="M129.2,1058.7c1.2,0,2.2,1,2.2,2.2l0,0v38.1l0,0c0,1.2-1,2.2-2.2,2.2l0,0l0,0h-99l0,0c-1.2,0-2.2-1-2.2-2.2l0,0
	v-38.1c0-1.2,1-2.2,2.2-2.2l0,0H129.2L129.2,1058.7L129.2,1058.7z"/>
<path class="st1" d="M126.6,1056.1c1.2,0,2.2,1,2.2,2.2l0,0v38.1l0,0c0,1.2-1,2.2-2.2,2.2l0,0l0,0h-99l0,0c-1.2,0-2.2-1-2.2-2.2l0,0
	v-38.1c0-1.2,1-2.2,2.2-2.2l0,0H126.6L126.6,1056.1L126.6,1056.1z"/>
<path class="st2" d="M126.6,1056.1c1.2,0,2.2,1,2.2,2.2l0,0v38.1l0,0c0,1.2-1,2.2-2.2,2.2l0,0l0,0h-99l0,0c-1.2,0-2.2-1-2.2-2.2l0,0
	v-38.1c0-1.2,1-2.2,2.2-2.2l0,0H126.6L126.6,1056.1L126.6,1056.1z"/>
<text transform="matrix(0.83 0 0 1 46.2627 1070.0071)" class="st3 st4">«FeatureType»</text>
<text transform="matrix(0.83 0 0 1 50.6074 1081.2571)" class="st5 st4">tun::Window</text>
<path class="st0" d="M775.9,210.8c1.2,0,2.2,1,2.2,2.2l0,0v82.3l0,0c0,1.2-1,2.2-2.2,2.2l0,0l0,0h-138l0,0c-1.2,0-2.2-1-2.2-2.2l0,0
	V213c0-1.2,1-2.2,2.2-2.2l0,0H775.9L775.9,210.8L775.9,210.8z"/>
<path class="st1" d="M773.3,208.2c1.2,0,2.2,1,2.2,2.2l0,0v82.3l0,0c0,1.2-1,2.2-2.2,2.2l0,0l0,0h-138l0,0c-1.2,0-2.2-1-2.2-2.2l0,0
	v-82.3c0-1.2,1-2.2,2.2-2.2l0,0L773.3,208.2L773.3,208.2L773.3,208.2z"/>
<path class="st2" d="M773.3,208.2c1.2,0,2.2,1,2.2,2.2l0,0v82.3l0,0c0,1.2-1,2.2-2.2,2.2l0,0l0,0h-138l0,0c-1.2,0-2.2-1-2.2-2.2l0,0
	v-82.3c0-1.2,1-2.2,2.2-2.2l0,0L773.3,208.2L773.3,208.2L773.3,208.2z"/>
<text transform="matrix(0.83 0 0 1 673.9043 222.0554)" class="st3 st4">«FeatureType»</text>
<text transform="matrix(0.83 0 0 1 -7658.2339 -7594.4951)" class="st5" style="font-size:4.7638px;">i</text>
<text transform="matrix(0.83 0 0 1 658.2793 233.321)" class="st5 st4">tun::TunnelInstallation</text>
<line class="st2" x1="633.1" y1="240.2" x2="775.5" y2="240.2"/>
<text transform="matrix(0.83 0 0 1 637.4512 252.3679)" class="st3 st4">+ class: gml::CodeType [0..1]</text>
<text transform="matrix(0.83 0 0 1 -7658.2339 -7594.4951)" class="st3" style="font-size:4.7638px;">i</text>
<text transform="matrix(0.83 0 0 1 637.4512 263.6335)" class="st3 st4">+ function: gml::CodeType [0..*]</text>
<text transform="matrix(0.83 0 0 1 637.4512 274.8835)" class="st3 st4">+ usage: gml::CodeType [0..*]</text>
<path class="st0" d="M272.4,374.5c1.2,0,2.2,1,2.2,2.2l0,0V459l0,0c0,1.2-1,2.2-2.2,2.2l0,0l0,0h-138l0,0c-1.2,0-2.2-1-2.2-2.2l0,0
	v-82.3c0-1.2,1-2.2,2.2-2.2l0,0H272.4L272.4,374.5L272.4,374.5z"/>
<path class="st1" d="M269.8,371.9c1.2,0,2.2,1,2.2,2.2l0,0v82.3l0,0c0,1.2-1,2.2-2.2,2.2l0,0l0,0h-138l0,0c-1.2,0-2.2-1-2.2-2.2l0,0
	v-82.3c0-1.2,1-2.2,2.2-2.2l0,0L269.8,371.9L269.8,371.9L269.8,371.9z"/>
<path class="st2" d="M269.8,371.9c1.2,0,2.2,1,2.2,2.2l0,0v82.3l0,0c0,1.2-1,2.2-2.2,2.2l0,0l0,0h-138l0,0c-1.2,0-2.2-1-2.2-2.2l0,0
	v-82.3c0-1.2,1-2.2,2.2-2.2l0,0L269.8,371.9L269.8,371.9L269.8,371.9z"/>
<text transform="matrix(0.83 0 0 1 170.4189 385.7424)" class="st3 st4">«FeatureType»</text>
<text transform="matrix(0.83 0 0 1 158.2471 397.008)" class="st5 st4">tun::TunnelFurniture</text>
<line class="st2" x1="129.6" y1="403.9" x2="272" y2="403.9"/>
<text transform="matrix(0.83 0 0 1 133.9502 416.0549)" class="st3 st4">+ class: gml::CodeType [0..1]</text>
<text transform="matrix(0.83 0 0 1 -7658.2339 -7594.4951)" class="st3" style="font-size:4.7638px;">i</text>
<text transform="matrix(0.83 0 0 1 133.9502 427.3205)" class="st3 st4">+ function: gml::CodeType [0..*]</text>
<text transform="matrix(0.83 0 0 1 133.9502 438.6017)" class="st3 st4">+ usage: gml::CodeType [0..*]</text>
<path class="st0" d="M738.6,409.1c1.2,0,2.2,1,2.2,2.2l0,0v116.1l0,0c0,1.2-1,2.2-2.2,2.2l0,0l0,0H577.1l0,0c-1.2,0-2.2-1-2.2-2.2
	l0,0V411.3c0-1.2,1-2.2,2.2-2.2l0,0L738.6,409.1L738.6,409.1L738.6,409.1z"/>
<path class="st1" d="M736,406.5c1.2,0,2.2,1,2.2,2.2l0,0v116.1l0,0c0,1.2-1,2.2-2.2,2.2l0,0l0,0H574.5l0,0c-1.2,0-2.2-1-2.2-2.2l0,0
	V408.7c0-1.2,1-2.2,2.2-2.2l0,0H736L736,406.5L736,406.5z"/>
<path class="st2" d="M736,406.5c1.2,0,2.2,1,2.2,2.2l0,0v116.1l0,0c0,1.2-1,2.2-2.2,2.2l0,0l0,0H574.5l0,0c-1.2,0-2.2-1-2.2-2.2l0,0
	V408.7c0-1.2,1-2.2,2.2-2.2l0,0H736L736,406.5L736,406.5z"/>
<text transform="matrix(0.83 0 0 1 624.4355 420.383)" class="st3 st4">«FeatureType»</text>
<text transform="matrix(0.83 0 0 1 613.1387 431.6642)" class="st6 st4">tun::_AbstractTunnel</text>
<line class="st2" x1="572.3" y1="438.6" x2="738.2" y2="438.6"/>
<text transform="matrix(0.83 0 0 1 576.6855 450.6955)" class="st3 st4">+ class: gml::CodeType [0..1]</text>
<text transform="matrix(0.83 0 0 1 -7658.2339 -7594.4951)" class="st3" style="font-size:4.7638px;">i</text>
<text transform="matrix(0.83 0 0 1 576.6855 461.9767)" class="st3 st4">+ functon: gml::CodeType [0..*]</text>
<text transform="matrix(0.83 0 0 1 576.6855 473.2424)" class="st3 st4">+ usage: gml::CodeType [0..*]</text>
<text transform="matrix(0.83 0 0 1 -7658.2339 -7594.4951)" class="st3" style="font-size:4.7638px;">i</text>
<text transform="matrix(0.83 0 0 1 576.6855 484.4924)" class="st3 st4">+ yearOfConstruction: xs::gYear [0..1]</text>
<text transform="matrix(0.83 0 0 1 -7658.2339 -7594.4951)" class="st3" style="font-size:4.7638px;">i</text>
<text transform="matrix(0.83 0 0 1 576.6855 495.7424)" class="st3 st4">+ yearOfDemolition: xs::gYear [0..1]</text>
<path class="st0" d="M531.1,97.3c1.2,0,2.2,1,2.2,2.2l0,0V193l0,0c0,1.2-1,2.2-2.2,2.2l0,0l0,0H299.3l0,0c-1.2,0-2.2-1-2.2-2.2l0,0
	V99.5c0-1.2,1-2.2,2.2-2.2l0,0H531.1L531.1,97.3L531.1,97.3z"/>
<path class="st1" d="M528.5,94.7c1.2,0,2.2,1,2.2,2.2l0,0v93.5l0,0c0,1.2-1,2.2-2.2,2.2l0,0l0,0H296.7l0,0c-1.2,0-2.2-1-2.2-2.2l0,0
	V96.9c0-1.2,1-2.2,2.2-2.2l0,0L528.5,94.7L528.5,94.7L528.5,94.7z"/>
<path class="st2" d="M528.5,94.7c1.2,0,2.2,1,2.2,2.2l0,0v93.5l0,0c0,1.2-1,2.2-2.2,2.2l0,0l0,0H296.7l0,0c-1.2,0-2.2-1-2.2-2.2l0,0
	V96.9c0-1.2,1-2.2,2.2-2.2l0,0L528.5,94.7L528.5,94.7L528.5,94.7z"/>
<text transform="matrix(0.83 0 0 1 382.2324 108.6022)" class="st3 st4">«FeatureType»</text>
<text transform="matrix(0.83 0 0 1 378.748 119.8522)" class="st6 st4">core::_CityObject</text>
<line class="st2" x1="294.5" y1="126.8" x2="530.7" y2="126.8"/>
<text transform="matrix(0.83 0 0 1 -7658.2339 -7594.4951)" class="st3" style="font-size:4.7638px;">i</text>
<text transform="matrix(0.83 0 0 1 298.8887 138.9147)" class="st3 st4">+ creationDate: xs::date [0..1]</text>
<text transform="matrix(0.83 0 0 1 -7658.2339 -7594.4951)" class="st3" style="font-size:4.7638px;">i</text>
<text transform="matrix(0.83 0 0 1 298.8887 150.1647)" class="st3 st4">+ terminatonDate: xs::date [0..1]</text>
<text transform="matrix(0.83 0 0 1 -7658.2339 -7594.4951)" class="st3" style="font-size:4.7638px;">i</text>
<text transform="matrix(0.83 0 0 1 -7658.2339 -7594.4951)" class="st3" style="font-size:4.7638px;">t</text>
<text transform="matrix(0.83 0 0 1 298.8887 161.4147)" class="st3 st4">+ relativeToTerrain: core::RelativeToTerrainType [0..1]</text>
<text transform="matrix(0.83 0 0 1 -7658.2339 -7594.4951)" class="st3" style="font-size:4.7638px;">i</text>
<text transform="matrix(0.83 0 0 1 -7658.2339 -7594.4951)" class="st3" style="font-size:4.7638px;">t</text>
<text transform="matrix(0.83 0 0 1 298.8887 172.6804)" class="st3 st4">+ relativeToWater: core::RelativeToWaterType [0..1]</text>
<path class="st0" d="M389.6,720.1c1.2,0,2.2,1,2.2,2.2l0,0v64.1l0,0c0,1.2-1,2.2-2.2,2.2l0,0l0,0H308l0,0c-1.2,0-2.2-1-2.2-2.2l0,0
	v-64.1c0-1.2,1-2.2,2.2-2.2l0,0H389.6L389.6,720.1L389.6,720.1z"/>
<path class="st7" d="M387,717.5c1.2,0,2.2,1,2.2,2.2l0,0v64.1l0,0c0,1.2-1,2.2-2.2,2.2l0,0l0,0h-81.6l0,0c-1.2,0-2.2-1-2.2-2.2l0,0
	v-64.1c0-1.2,1-2.2,2.2-2.2l0,0H387L387,717.5L387,717.5z"/>
<path class="st2" d="M387,717.5c1.2,0,2.2,1,2.2,2.2l0,0v64.1l0,0c0,1.2-1,2.2-2.2,2.2l0,0l0,0h-81.6l0,0c-1.2,0-2.2-1-2.2-2.2l0,0
	v-64.1c0-1.2,1-2.2,2.2-2.2l0,0H387L387,717.5L387,717.5z"/>
<text transform="matrix(0.83 0 0 1 331.873 731.3215)" class="st3 st4">«Type»</text>
<text transform="matrix(0.83 0 0 1 326.6689 742.6027)" class="st5 st4">gml::Solid</text>
<path class="st0" d="M806.3,781.6c1.2,0,2.2,1,2.2,2.2l0,0v64.1l0,0c0,1.2-1,2.2-2.2,2.2l0,0l0,0H716l0,0c-1.2,0-2.2-1-2.2-2.2l0,0
	v-64.1c0-1.2,1-2.2,2.2-2.2l0,0H806.3L806.3,781.6L806.3,781.6z"/>
<path class="st7" d="M803.7,779c1.2,0,2.2,1,2.2,2.2l0,0v64.1l0,0c0,1.2-1,2.2-2.2,2.2l0,0l0,0h-90.3l0,0c-1.2,0-2.2-1-2.2-2.2l0,0
	v-64.1c0-1.2,1-2.2,2.2-2.2l0,0H803.7L803.7,779L803.7,779z"/>
<path class="st2" d="M803.7,779c1.2,0,2.2,1,2.2,2.2l0,0v64.1l0,0c0,1.2-1,2.2-2.2,2.2l0,0l0,0h-90.3l0,0c-1.2,0-2.2-1-2.2-2.2l0,0
	v-64.1c0-1.2,1-2.2,2.2-2.2l0,0H803.7L803.7,779L803.7,779z"/>
<text transform="matrix(0.83 0 0 1 744.2168 792.8371)" class="st3 st4">«Type»</text>
<text transform="matrix(0.83 0 0 1 -7658.2339 -7594.4951)" class="st5" style="font-size:4.7638px;">i</text>
<text transform="matrix(0.83 0 0 1 725.998 804.1027)" class="st5 st4">gml::MultiCurve</text>
<path class="st0" d="M537.2,720.1c1.2,0,2.2,1,2.2,2.2l0,0v64.1l0,0c0,1.2-1,2.2-2.2,2.2l0,0l0,0h-81.6l0,0c-1.2,0-2.2-1-2.2-2.2
	l0,0v-64.1c0-1.2,1-2.2,2.2-2.2l0,0H537.2L537.2,720.1L537.2,720.1z"/>
<path class="st7" d="M534.6,717.5c1.2,0,2.2,1,2.2,2.2l0,0v64.1l0,0c0,1.2-1,2.2-2.2,2.2l0,0l0,0H453l0,0c-1.2,0-2.2-1-2.2-2.2l0,0
	v-64.1c0-1.2,1-2.2,2.2-2.2l0,0H534.6L534.6,717.5L534.6,717.5z"/>
<path class="st2" d="M534.6,717.5c1.2,0,2.2,1,2.2,2.2l0,0v64.1l0,0c0,1.2-1,2.2-2.2,2.2l0,0l0,0H453l0,0c-1.2,0-2.2-1-2.2-2.2l0,0
	v-64.1c0-1.2,1-2.2,2.2-2.2l0,0H534.6L534.6,717.5L534.6,717.5z"/>
<text transform="matrix(0.83 0 0 1 479.4502 731.3215)" class="st3 st4">«Type»</text>
<text transform="matrix(0.83 0 0 1 -7658.2339 -7594.4951)" class="st5" style="font-size:4.7638px;">i</text>
<text transform="matrix(0.83 0 0 1 457.7637 742.6027)" class="st5 st4">gml::MultiSurface</text>
<path class="st0" d="M528.5,322.5c1.2,0,2.2,1,2.2,2.2l0,0v64.1l0,0c0,1.2-1,2.2-2.2,2.2l0,0l0,0h-81.6l0,0c-1.2,0-2.2-1-2.2-2.2
	l0,0v-64.1c0-1.2,1-2.2,2.2-2.2l0,0H528.5L528.5,322.5L528.5,322.5z"/>
<path class="st7" d="M525.9,319.9c1.2,0,2.2,1,2.2,2.2l0,0v64.1l0,0c0,1.2-1,2.2-2.2,2.2l0,0l0,0h-81.6l0,0c-1.2,0-2.2-1-2.2-2.2
	l0,0v-64.1c0-1.2,1-2.2,2.2-2.2l0,0H525.9L525.9,319.9L525.9,319.9z"/>
<path class="st2" d="M525.9,319.9c1.2,0,2.2,1,2.2,2.2l0,0v64.1l0,0c0,1.2-1,2.2-2.2,2.2l0,0l0,0h-81.6l0,0c-1.2,0-2.2-1-2.2-2.2
	l0,0v-64.1c0-1.2,1-2.2,2.2-2.2l0,0H525.9L525.9,319.9L525.9,319.9z"/>
<text transform="matrix(0.83 0 0 1 470.7637 333.7892)" class="st3 st4">«Type»</text>
<text transform="matrix(0.83 0 0 1 453.4189 345.0392)" class="st6 st4">gml::_Geometry</text>
<path class="st8" d="M229.4,25.4c1.4,0,2.6,1.2,2.6,2.6l0,0v76.2l0,0c0,1.4-1.2,2.6-2.6,2.6l0,0l0,0H54.1l0,0
	c-1.4,0-2.6-1.2-2.6-2.6V28c0-1.4,1.2-2.6,2.6-2.6l0,0H229.4L229.4,25.4L229.4,25.4z"/>
<path class="st9" d="M229.4,25.4c1.4,0,2.6,1.2,2.6,2.6l0,0v76.2l0,0c0,1.4-1.2,2.6-2.6,2.6l0,0l0,0H54.1l0,0
	c-1.4,0-2.6-1.2-2.6-2.6V28c0-1.4,1.2-2.6,2.6-2.6l0,0H229.4L229.4,25.4L229.4,25.4z"/>
<path class="st7" d="M71.9,51.4c1.2,0,2.2,1,2.2,2.2l0,0v9.5l0,0c0,1.2-1,2.2-2.2,2.2l0,0l0,0h-9.5l0,0c-1.2,0-2.2-1-2.2-2.2l0,0
	v-9.5c0-1.2,1-2.2,2.2-2.2l0,0H71.9L71.9,51.4L71.9,51.4z"/>
<path class="st10" d="M71.9,51.4c1.2,0,2.2,1,2.2,2.2l0,0v9.5l0,0c0,1.2-1,2.2-2.2,2.2l0,0l0,0h-9.5l0,0c-1.2,0-2.2-1-2.2-2.2l0,0
	v-9.5c0-1.2,1-2.2,2.2-2.2l0,0H71.9L71.9,51.4L71.9,51.4z"/>
<text transform="matrix(0.83 0 0 1 79.2471 63.5554)" class="st11 st12 st13">GMLに定義されたクラス</text>
<path class="st1" d="M71.9,67.9c1.2,0,2.2,1,2.2,2.2l0,0v9.5l0,0c0,1.2-1,2.2-2.2,2.2l0,0l0,0h-9.5l0,0c-1.2,0-2.2-1-2.2-2.2l0,0V70
	c0-1.2,1-2.2,2.2-2.2l0,0L71.9,67.9L71.9,67.9L71.9,67.9z"/>
<path class="st10" d="M71.9,67.9c1.2,0,2.2,1,2.2,2.2l0,0v9.5l0,0c0,1.2-1,2.2-2.2,2.2l0,0l0,0h-9.5l0,0c-1.2,0-2.2-1-2.2-2.2l0,0
	V70c0-1.2,1-2.2,2.2-2.2l0,0L71.9,67.9L71.9,67.9L71.9,67.9z"/>
<text transform="matrix(0.83 0 0 1 79.2471 80.0085)" class="st11 st12 st13">CityGMLに定義されたクラス</text>
<path class="st14" d="M71.9,84.3c1.2,0,2.2,1,2.2,2.2l0,0V96l0,0c0,1.2-1,2.2-2.2,2.2l0,0l0,0h-9.5l0,0c-1.2,0-2.2-1-2.2-2.2l0,0
	v-9.5c0-1.2,1-2.2,2.2-2.2l0,0H71.9L71.9,84.3L71.9,84.3z"/>
<path class="st10" d="M71.9,84.3c1.2,0,2.2,1,2.2,2.2l0,0V96l0,0c0,1.2-1,2.2-2.2,2.2l0,0l0,0h-9.5l0,0c-1.2,0-2.2-1-2.2-2.2l0,0
	v-9.5c0-1.2,1-2.2,2.2-2.2l0,0H71.9L71.9,84.3L71.9,84.3z"/>
<text transform="matrix(0.83 0 0 1 79.2471 96.446)" class="st11 st12 st13">i-URに定義されたクラス</text>
<g>
	<text transform="matrix(0.83 0 0 1 118.3252 43.6179)" class="st11 st15 st16">凡例</text>
	<text transform="matrix(0.83 0 0 1 118.3252 43.6179)" class="st17 st15 st16">凡例</text>
</g>
<line class="st18" x1="739" y1="449.8" x2="850.1" y2="449.8"/>
<line class="st18" x1="850.1" y1="449.8" x2="850.1" y2="729.6"/>
<line class="st18" x1="850.1" y1="729.6" x2="716.4" y2="729.6"/>
<line class="st18" x1="716.4" y1="729.6" x2="716.4" y2="779"/>
<path class="st18" d="M716.4,779l-5.2-13 M716.4,779l5.2-13"/>
<line class="st18" x1="509.8" y1="717.5" x2="509.8" y2="509.6"/>
<line class="st18" x1="509.8" y1="509.6" x2="572.3" y2="509.6"/>
<path class="st18" d="M509.8,717.5l5.2-13 M509.8,717.5l-5.2-13"/>
<line class="st18" x1="416.1" y1="1039.7" x2="416.1" y2="1020.6"/>
<line class="st18" x1="416.1" y1="1020.6" x2="711.2" y2="1020.6"/>
<line class="st18" x1="711.2" y1="1020.6" x2="711.2" y2="977.3"/>
<polyline class="st19" points="716.4,991.2 706,991.2 711.2,977.3 716.4,991.2 "/>
<polygon class="st18" points="716.4,991.2 706,991.2 711.2,977.3 "/>
<line class="st18" x1="546.3" y1="1039.7" x2="546.3" y2="1020.6"/>
<line class="st18" x1="77.5" y1="1056.1" x2="77.5" y2="1031"/>
<line class="st18" x1="77.5" y1="1031" x2="129.6" y2="1031"/>
<line class="st18" x1="129.6" y1="1031" x2="129.6" y2="987.7"/>
<polyline class="st19" points="134.8,1001.6 124.4,1001.6 129.6,987.7 134.8,1001.6 "/>
<polygon class="st18" points="134.8,1001.6 124.4,1001.6 129.6,987.7 "/>
<line class="st18" x1="718.2" y1="295.7" x2="718.2" y2="406.5"/>
<polyline class="st19" points="713.8,397.9 718.2,406.5 722.5,397.9 718.2,389.2 713.8,397.9 "/>
<polygon class="st18" points="713.8,397.9 718.2,406.5 722.5,397.9 718.2,389.2 "/>
<path class="st18" d="M718.2,295.7l-5.2,13 M718.2,295.7l5.2,13"/>
<line class="st18" x1="704.3" y1="208.2" x2="704.3" y2="144.1"/>
<line class="st18" x1="704.3" y1="144.1" x2="531.5" y2="144.1"/>
<polyline class="st19" points="545.4,138.9 545.4,149.3 531.5,144.1 545.4,138.9 "/>
<polyline class="st18" points="545.4,138.9 545.4,149.3 531.5,144.1 "/>
<line class="st18" x1="633.1" y1="230.7" x2="521.1" y2="230.7"/>
<line class="st18" x1="521.1" y1="230.7" x2="521.1" y2="319.9"/>
<path class="st18" d="M521.1,319.9l-5.2-13 M521.1,319.9l5.2-13"/>
<line class="st18" x1="633.1" y1="245.4" x2="521.1" y2="245.4"/>
<line class="st18" x1="521.1" y1="245.4" x2="521.1" y2="319.9"/>
<path class="st18" d="M521.1,319.9l-5.2-13 M521.1,319.9l5.2-13"/>
<line class="st18" x1="633.1" y1="260.2" x2="521.1" y2="260.2"/>
<line class="st18" x1="521.1" y1="260.2" x2="521.1" y2="319.9"/>
<path class="st18" d="M521.1,319.9l-5.2-13 M521.1,319.9l5.2-13"/>
<line class="st18" x1="232.9" y1="459.4" x2="232.9" y2="537.3"/>
<polyline class="st19" points="228.6,528.7 232.9,537.3 237.3,528.7 232.9,520 228.6,528.7 "/>
<polygon class="st18" points="228.6,528.7 232.9,537.3 237.3,528.7 232.9,520 "/>
<path class="st18" d="M232.9,459.4l-5.2,13 M232.9,459.4l5.2,13"/>
<line class="st18" x1="272.8" y1="416.9" x2="492.5" y2="416.9"/>
<line class="st18" x1="492.5" y1="416.9" x2="492.5" y2="389.2"/>
<path class="st18" d="M492.5,389.2l5.2,13 M492.5,389.2l-5.2,13"/>
<line class="st18" x1="129.6" y1="414.3" x2="54.9" y2="414.3"/>
<line class="st18" x1="54.9" y1="414.3" x2="54.9" y2="137.2"/>
<line class="st18" x1="54.9" y1="137.2" x2="294.5" y2="137.2"/>
<polyline class="st19" points="280.7,142.4 280.7,132 294.5,137.2 280.7,142.4 "/>
<polyline class="st18" points="280.7,142.4 280.7,132 294.5,137.2 "/>
<line class="st18" x1="484.7" y1="1115.9" x2="484.7" y2="1020.6"/>
<line class="st18" x1="739" y1="450.7" x2="850.1" y2="450.7"/>
<line class="st18" x1="850.1" y1="450.7" x2="850.1" y2="729.6"/>
<line class="st18" x1="850.1" y1="729.6" x2="774.6" y2="729.6"/>
<line class="st18" x1="774.6" y1="729.6" x2="774.6" y2="779"/>
<path class="st18" d="M774.6,779l-5.2-13 M774.6,779l5.2-13"/>
<line class="st18" x1="901.4" y1="1116.8" x2="901.4" y2="1020.6"/>
<line class="st18" x1="572.3" y1="495.7" x2="430.8" y2="495.7"/>
<line class="st18" x1="430.8" y1="495.7" x2="430.8" y2="643"/>
<line class="st18" x1="430.8" y1="643" x2="340.6" y2="643"/>
<line class="st18" x1="340.6" y1="643" x2="340.6" y2="717.5"/>
<path class="st18" d="M340.6,717.5l-5.2-13 M340.6,717.5l5.2-13"/>
<path class="st18" d="M618.4,406.5v-142c2.6,0,4.3-1.7,4.3-4.3c0-3.5-1.7-5.2-4.3-5.2v-5.2c2.6,0,4.3-1.7,4.3-4.3
	c0-3.5-1.7-5.2-4.3-5.2V235c2.6,0,4.3-1.7,4.3-4.3c0-3.5-1.7-5.2-4.3-5.2v-81.4"/>
<line class="st18" x1="618.4" y1="144.1" x2="531.5" y2="144.1"/>
<polyline class="st19" points="545.4,138.9 545.4,149.3 531.5,144.1 545.4,138.9 "/>
<polyline class="st18" points="545.4,138.9 545.4,149.3 531.5,144.1 "/>
<line class="st18" x1="739" y1="449.8" x2="850.1" y2="449.8"/>
<line class="st18" x1="850.1" y1="449.8" x2="850.1" y2="729.6"/>
<line class="st18" x1="850.1" y1="729.6" x2="802.4" y2="729.6"/>
<line class="st18" x1="802.4" y1="729.6" x2="802.4" y2="779"/>
<path class="st18" d="M802.4,779l-5.2-13 M802.4,779l5.2-13"/>
<line class="st18" x1="572.3" y1="495.7" x2="430.8" y2="495.7"/>
<line class="st18" x1="430.8" y1="495.7" x2="430.8" y2="643"/>
<line class="st18" x1="430.8" y1="643" x2="317.1" y2="643"/>
<line class="st18" x1="317.1" y1="643" x2="317.1" y2="717.5"/>
<path class="st18" d="M317.1,717.5l-5.2-13 M317.1,717.5l5.2-13"/>
<line class="st18" x1="739" y1="449.8" x2="851" y2="449.8"/>
<line class="st18" x1="851" y1="449.8" x2="851" y2="729.6"/>
<line class="st18" x1="851" y1="729.6" x2="746" y2="729.6"/>
<line class="st18" x1="746" y1="729.6" x2="746" y2="779"/>
<path class="st18" d="M746,779l-5.2-13 M746,779l5.2-13"/>
<line class="st18" x1="572.3" y1="495.7" x2="430.8" y2="495.7"/>
<line class="st18" x1="430.8" y1="495.7" x2="430.8" y2="643"/>
<line class="st18" x1="430.8" y1="643" x2="382.2" y2="643"/>
<line class="st18" x1="382.2" y1="643" x2="382.2" y2="717.5"/>
<path class="st18" d="M382.2,717.5l-5.2-13 M382.2,717.5l5.2-13"/>
<line class="st18" x1="806.7" y1="800.6" x2="892.7" y2="800.6"/>
<line class="st18" x1="892.7" y1="800.6" x2="892.7" y2="430.8"/>
<line class="st18" x1="892.7" y1="430.8" x2="739" y2="430.8"/>
<path class="st18" d="M806.7,800.6l13,5.2 M806.7,800.6l13-5.2"/>
<line class="st18" x1="806.7" y1="821.4" x2="892.7" y2="821.4"/>
<line class="st18" x1="892.7" y1="821.4" x2="892.7" y2="430.8"/>
<line class="st18" x1="892.7" y1="430.8" x2="739" y2="430.8"/>
<path class="st18" d="M806.7,821.4l13,5.2 M806.7,821.4l13-5.2"/>
<line class="st18" x1="806.7" y1="837.9" x2="892.7" y2="837.9"/>
<line class="st18" x1="892.7" y1="837.9" x2="892.7" y2="431.7"/>
<line class="st18" x1="892.7" y1="431.7" x2="739" y2="431.7"/>
<path class="st18" d="M806.7,837.9l13,5.2 M806.7,837.9l13-5.2"/>
<line class="st18" x1="523.7" y1="717.5" x2="523.7" y2="509.6"/>
<line class="st18" x1="523.7" y1="509.6" x2="572.3" y2="509.6"/>
<path class="st18" d="M523.7,717.5l5.2-13 M523.7,717.5l-5.2-13"/>
<line class="st18" x1="479.5" y1="717.5" x2="479.5" y2="509.6"/>
<line class="st18" x1="479.5" y1="509.6" x2="572.3" y2="509.6"/>
<path class="st18" d="M479.5,717.5l5.2-13 M479.5,717.5l-5.2-13"/>
<line class="st18" x1="494.2" y1="717.5" x2="494.2" y2="509.6"/>
<line class="st18" x1="494.2" y1="509.6" x2="572.3" y2="509.6"/>
<path class="st18" d="M494.2,717.5l5.2-13 M494.2,717.5l-5.2-13"/>
<line class="st18" x1="572.3" y1="495.7" x2="430.8" y2="495.7"/>
<line class="st18" x1="430.8" y1="495.7" x2="430.8" y2="643"/>
<line class="st18" x1="430.8" y1="643" x2="361.4" y2="643"/>
<line class="st18" x1="361.4" y1="643" x2="361.4" y2="717.5"/>
<path class="st18" d="M361.4,717.5l-5.2-13 M361.4,717.5l5.2-13"/>
<line class="st18" x1="762.5" y1="1115.9" x2="762.5" y2="1020.6"/>
<line class="st18" x1="763.3" y1="624.8" x2="788.5" y2="624.8"/>
<line class="st18" x1="788.5" y1="624.8" x2="788.5" y2="465.4"/>
<line class="st18" x1="788.5" y1="465.4" x2="739" y2="465.4"/>
<polyline class="st19" points="747.7,461.1 739,465.4 747.7,469.8 756.4,465.4 747.7,461.1 "/>
<polygon class="st18" points="747.7,461.1 739,465.4 747.7,469.8 756.4,465.4 "/>
<path class="st18" d="M763.3,624.8l13,5.2 M763.3,624.8l13-5.2"/>
<line class="st18" x1="711.2" y1="604.9" x2="711.2" y2="571.1"/>
<line class="st18" x1="711.2" y1="571.1" x2="655.7" y2="571.1"/>
<line class="st18" x1="655.7" y1="571.1" x2="655.7" y2="527.8"/>
<polyline class="st19" points="660.9,541.7 650.5,541.7 655.7,527.8 660.9,541.7 "/>
<polygon class="st18" points="660.9,541.7 650.5,541.7 655.7,527.8 "/>
<path class="st18" d="M289.3,347.6v64.1l0,0c-3.5,0-5.2,2.6-5.2,5.2s1.7,4.3,5.2,4.3l0,0v116.1"/>
<polyline class="st19" points="285,528.7 289.3,537.3 293.7,528.7 289.3,520 285,528.7 "/>
<polygon class="st18" points="285,528.7 289.3,537.3 293.7,528.7 289.3,520 "/>
<path class="st18" d="M289.3,347.6l-5.2,13 M289.3,347.6l5.2,13"/>
<line class="st18" x1="333.6" y1="274.9" x2="484.7" y2="274.9"/>
<line class="st18" x1="484.7" y1="274.9" x2="484.7" y2="319.9"/>
<path class="st18" d="M484.7,319.9l-5.2-13 M484.7,319.9l5.2-13"/>
<line class="st18" x1="245.1" y1="260.2" x2="245.1" y2="137.2"/>
<line class="st18" x1="245.1" y1="137.2" x2="294.5" y2="137.2"/>
<polyline class="st19" points="280.7,142.4 280.7,132 294.5,137.2 280.7,142.4 "/>
<polyline class="st18" points="280.7,142.4 280.7,132 294.5,137.2 "/>
<line class="st18" x1="333.6" y1="303.5" x2="388.3" y2="303.5"/>
<path class="st18" d="M388.3,303.5v108.3l0,0c-3.5,0-5.2,2.6-5.2,5.2s1.7,4.3,5.2,4.3l0,0v45.9"/>
<line class="st18" x1="388.3" y1="467.2" x2="572.3" y2="467.2"/>
<polyline class="st19" points="563.7,471.5 572.3,467.2 563.7,462.8 555,467.2 563.7,471.5 "/>
<polygon class="st18" points="563.7,471.5 572.3,467.2 563.7,462.8 555,467.2 "/>
<path class="st18" d="M333.6,303.5l13,5.2 M333.6,303.5l13-5.2"/>
<line class="st18" x1="181.7" y1="561.6" x2="54.9" y2="561.6"/>
<line class="st18" x1="54.9" y1="561.6" x2="54.9" y2="138"/>
<line class="st18" x1="54.9" y1="138" x2="294.5" y2="138"/>
<polyline class="st19" points="280.7,143.2 280.7,132.8 294.5,138 280.7,143.2 "/>
<polyline class="st18" points="280.7,143.2 280.7,132.8 294.5,138 "/>
<line class="st18" x1="248.5" y1="624.8" x2="248.5" y2="753"/>
<line class="st18" x1="248.5" y1="753" x2="303.2" y2="752.1"/>
<path class="st18" d="M303.2,752.1l-13,5.2 M303.2,752.1l-13-5.2"/>
<line class="st18" x1="324.9" y1="546.9" x2="388.3" y2="546.9"/>
<line class="st18" x1="388.3" y1="546.9" x2="388.3" y2="476.7"/>
<line class="st18" x1="388.3" y1="476.7" x2="572.3" y2="476.7"/>
<polyline class="st19" points="563.7,481 572.3,476.7 563.7,472.4 555,476.7 563.7,481 "/>
<polygon class="st18" points="563.7,481 572.3,476.7 563.7,472.4 555,476.7 "/>
<path class="st18" d="M324.9,546.9l13,5.2 M324.9,546.9l13-5.2"/>
<line class="st18" x1="226" y1="624.8" x2="226" y2="814.5"/>
<line class="st18" x1="226" y1="814.5" x2="490.7" y2="814.5"/>
<line class="st18" x1="490.7" y1="814.5" x2="490.7" y2="786.8"/>
<path class="st18" d="M490.7,786.8l5.2,13 M490.7,786.8l-5.2,13"/>
<line class="st18" x1="181.7" y1="970.4" x2="506.4" y2="970.4"/>
<line class="st18" x1="506.4" y1="970.4" x2="506.4" y2="786.8"/>
<path class="st18" d="M506.4,786.8l5.2,13 M506.4,786.8l-5.2,13"/>
<line class="st18" x1="181.7" y1="976.5" x2="525.5" y2="976.5"/>
<line class="st18" x1="525.5" y1="976.5" x2="525.5" y2="786.8"/>
<path class="st18" d="M525.5,786.8l5.2,13 M525.5,786.8l-5.2,13"/>
<line class="st18" x1="615.7" y1="1115.9" x2="615.7" y2="1020.6"/>
<path class="st18" d="M181.7,951.3h319.5l0,0c0,2.6,1.7,4.3,5.2,4.3c2.6,0,4.3-1.7,4.3-4.3l0,0h9.5l0,0c0,2.6,1.7,4.3,5.2,4.3
	c2.6,0,4.3-1.7,4.3-4.3l0,0H659"/>
<polyline class="st19" points="650.5,955.7 659.2,951.3 650.5,947 641.8,951.3 650.5,955.7 "/>
<polygon class="st18" points="650.5,955.7 659.2,951.3 650.5,947 641.8,951.3 "/>
<path class="st18" d="M181.7,951.3l13,5.2 M181.7,951.3l13-5.2"/>
<line class="st18" x1="589.7" y1="604.9" x2="589.7" y2="571.1"/>
<line class="st18" x1="589.7" y1="571.1" x2="655.7" y2="571.1"/>
<path class="st18" d="M659.2,883.8H529.8c0-3.5-1.7-5.2-4.3-5.2c-3.5,0-5.2,1.7-5.2,5.2h-9.5c0-3.5-1.7-5.2-4.3-5.2
	c-3.5,0-5.2,1.7-5.2,5.2H201.7"/>
<line class="st18" x1="201.7" y1="883.8" x2="201.7" y2="624.8"/>
<polyline class="st19" points="206,633.5 201.7,624.8 197.3,633.5 201.7,642.1 206,633.5 "/>
<polygon class="st18" points="206,633.5 201.7,624.8 197.3,633.5 201.7,642.1 "/>
<path class="st18" d="M659.2,883.8l-13-5.2 M659.2,883.8l-13,5.2"/>
<path class="st18" d="M659.2,902.8H529.8c0-3.5-1.7-5.2-4.3-5.2c-3.5,0-5.2,1.7-5.2,5.2h-9.5c0-3.5-1.7-5.2-4.3-5.2
	c-3.5,0-5.2,1.7-5.2,5.2H96.6"/>
<path class="st18" d="M96.6,902.8V565.9c2.6,0,4.3-1.7,4.3-4.3c0-3.5-1.7-5.2-4.3-5.2V418.7c2.6,0,4.3-1.7,4.3-4.3
	c0-3.5-1.7-5.2-4.3-5.2V306.9"/>
<line class="st18" x1="96.6" y1="306.9" x2="190.4" y2="306.9"/>
<polyline class="st19" points="181.7,311.3 190.4,306.9 181.7,302.6 173,306.9 181.7,311.3 "/>
<polygon class="st18" points="181.7,311.3 190.4,306.9 181.7,302.6 173,306.9 "/>
<path class="st18" d="M659.2,902.8l-13-5.2 M659.2,902.8l-13,5.2"/>
<line class="st18" x1="763.3" y1="898.5" x2="903.1" y2="898.5"/>
<line class="st18" x1="903.1" y1="898.5" x2="903.1" y2="420.4"/>
<line class="st18" x1="903.1" y1="420.4" x2="739" y2="420.4"/>
<polyline class="st19" points="747.7,416.1 739,420.4 747.7,424.7 756.4,420.4 747.7,416.1 "/>
<polygon class="st18" points="747.7,416.1 739,420.4 747.7,424.7 756.4,420.4 "/>
<path class="st18" d="M763.3,898.5l13,5.2 M763.3,898.5l13-5.2"/>
<line class="st18" x1="763.3" y1="935.7" x2="962.1" y2="935.7"/>
<line class="st18" x1="962.1" y1="935.7" x2="962.1" y2="249.8"/>
<line class="st18" x1="962.1" y1="249.8" x2="776.3" y2="249.8"/>
<polyline class="st19" points="785,245.4 776.3,249.8 785,254.1 793.7,249.8 785,245.4 "/>
<polygon class="st18" points="785,245.4 776.3,249.8 785,254.1 793.7,249.8 "/>
<path class="st18" d="M763.3,935.7l13,5.2 M763.3,935.7l13-5.2"/>
<line class="st18" x1="684.3" y1="865.6" x2="684.3" y2="753.9"/>
<line class="st18" x1="684.3" y1="753.9" x2="537.6" y2="753.9"/>
<path class="st18" d="M537.6,753.9l13-5.2 M537.6,753.9l13,5.2"/>
<line class="st18" x1="684.3" y1="865.6" x2="684.3" y2="728.7"/>
<line class="st18" x1="684.3" y1="728.7" x2="537.6" y2="728.7"/>
<path class="st18" d="M537.6,728.7l13-5.2 M537.6,728.7l13,5.2"/>
<line class="st18" x1="684.3" y1="865.6" x2="684.3" y2="779.8"/>
<line class="st18" x1="684.3" y1="779.8" x2="537.6" y2="779.8"/>
<path class="st18" d="M537.6,779.8l13-5.2 M537.6,779.8l13,5.2"/>
<line class="st18" x1="763.3" y1="960.9" x2="996.8" y2="960.9"/>
<line class="st18" x1="996.8" y1="960.9" x2="996.8" y2="144.1"/>
<line class="st18" x1="996.8" y1="144.1" x2="531.5" y2="144.1"/>
<polyline class="st19" points="545.4,138.9 545.4,149.3 531.5,144.1 545.4,138.9 "/>
<polygon class="st18" points="545.4,138.9 545.4,149.3 531.5,144.1 "/>
<line class="st18" x1="832.8" y1="1039.7" x2="832.8" y2="1020.6"/>
<line class="st18" x1="198.2" y1="1056.1" x2="198.2" y2="1031"/>
<line class="st18" x1="198.2" y1="1031" x2="129.6" y2="1031"/>
<line class="st18" x1="989" y1="1039.7" x2="989" y2="1020.6"/>
<line class="st18" x1="989" y1="1020.6" x2="711.2" y2="1020.6"/>
<line class="st18" x1="693.9" y1="1039.7" x2="693.9" y2="1020.6"/>
<line class="st18" x1="77.5" y1="953.1" x2="54.9" y2="953.1"/>
<line class="st18" x1="54.9" y1="953.1" x2="54.9" y2="138"/>
<line class="st18" x1="54.9" y1="138" x2="294.5" y2="138"/>
<polyline class="st19" points="280.7,143.2 280.7,132.8 294.5,138 280.7,143.2 "/>
<polygon class="st18" points="280.7,143.2 280.7,132.8 294.5,138 "/>
<text transform="matrix(0.83 0 0 1 267.6387 652.5226)" class="st3 st4">+lod4Solid</text>
<text transform="matrix(0.83 0 0 1 312.7783 637.7883)" class="st3 st4">0..1</text>
<text transform="matrix(0.83 0 0 1 -7658.2339 -7594.4951)" class="st3" style="font-size:4.7638px;">i</text>
<text transform="matrix(0.83 0 0 1 828.4355 850.8527)" class="st3 st4">+lod4MultiCurve</text>
<text transform="matrix(0.83 0 0 1 809.3418 850.8527)" class="st3 st4">0..1</text>
<text transform="matrix(0.83 0 0 1 416.0752 312.133)" class="st3 st4">+lod4Geometry</text>
<text transform="matrix(0.83 0 0 1 525.4668 287.8835)" class="st3 st4">0..1</text>
<text transform="matrix(0.83 0 0 1 -7658.2339 -7594.4951)" class="st3" style="font-size:4.7638px;">i</text>
<text transform="matrix(0.83 0 0 1 178.2314 360.633)" class="st3 st4">+hollowSpaceInstallation</text>
<text transform="matrix(0.83 0 0 1 296.2783 360.633)" class="st3 st4">0..*</text>
<text transform="matrix(0.83 0 0 1 765.9355 891.5715)" class="st3 st4">+boundedBy</text>
<text transform="matrix(0.83 0 0 1 765.9355 911.4777)" class="st3 st4">0..*</text>
<text transform="matrix(0.83 0 0 1 -7658.2339 -7594.4951)" class="st3" style="font-size:4.7638px;">i</text>
<text transform="matrix(0.83 0 0 1 565.3887 775.507)" class="st3 st4">+lod2MultiSurface</text>
<text transform="matrix(0.83 0 0 1 540.2168 792.8371)" class="st3 st4">0..1</text>
<text transform="matrix(0.83 0 0 1 422.1533 402.2111)" class="st3 st4">+lod4Geometry</text>
<text transform="matrix(0.83 0 0 1 502.8887 402.2111)" class="st3 st4">0..1</text>
<text transform="matrix(0.83 0 0 1 -7658.2339 -7594.4951)" class="st3" style="font-size:4.7638px;">i</text>
<text transform="matrix(0.83 0 0 1 823.2324 831.8215)" class="st3 st4">+lod3MultiCurve</text>
<text transform="matrix(0.83 0 0 1 809.3418 834.4133)" class="st3 st4">0..1</text>
<text transform="matrix(0.83 0 0 1 -7658.2339 -7594.4951)" class="st3" style="font-size:4.7638px;">i</text>
<text transform="matrix(0.83 0 0 1 732.0762 317.3205)" class="st3 st4">+outerTunnelInstallation</text>
<text transform="matrix(0.83 0 0 1 725.1387 308.6642)" class="st3 st4">0..*</text>
<text transform="matrix(0.83 0 0 1 336.2158 571.9767)" class="st3 st4">+interiorHollowSpace</text>
<text transform="matrix(0.83 0 0 1 327.5439 559.8517)" class="st3 st4">0..*</text>
<text transform="matrix(0.83 0 0 1 573.2012 918.4465)" class="st3 st4">+boundedBy</text>
<text transform="matrix(0.83 0 0 1 641.7949 915.8215)" class="st3 st4">0..*</text>
<text transform="matrix(0.83 0 0 1 184.2939 937.4777)" class="st3 st4">+opening</text>
<text transform="matrix(0.83 0 0 1 234.6533 942.6808)" class="st3 st4">0..*</text>
<text transform="matrix(0.83 0 0 1 -7658.2339 -7594.4951)" class="st3" style="font-size:4.7638px;">i</text>
<text transform="matrix(0.83 0 0 1 561.9199 746.9308)" class="st3 st4">+lod3MultiSurface</text>
<text transform="matrix(0.83 0 0 1 540.2168 766.8527)" class="st3 st4">0..1</text>
<text transform="matrix(0.83 0 0 1 262.4189 666.3683)" class="st3 st4">+lod3Solid</text>
<text transform="matrix(0.83 0 0 1 335.3574 637.7883)" class="st3 st4">0..1</text>
<text transform="matrix(0.83 0 0 1 -7658.2339 -7594.4951)" class="st3" style="font-size:4.7638px;">i</text>
<text transform="matrix(0.83 0 0 1 397.8574 681.9777)" class="st3 st4">+lod2MultiSurface</text>
<text transform="matrix(0.83 0 0 1 532.4043 678.507)" class="st3 st4">0..1</text>
<text transform="matrix(0.83 0 0 1 -7658.2339 -7594.4951)" class="st3" style="font-size:4.7638px;">i</text>
<text transform="matrix(0.83 0 0 1 680.8574 697.5558)" class="st3 st4">+lod3TerrainIntersection</text>
<text transform="matrix(0.83 0 0 1 752.9199 772.0558)" class="st3 st4">0..1</text>
<text transform="matrix(0.83 0 0 1 452.5439 239.3835)" class="st3 st4">+lod3Geometry</text>
<text transform="matrix(0.83 0 0 1 525.4668 303.4767)" class="st3 st4">0..1</text>
<text transform="matrix(0.83 0 0 1 258.0908 745.1965)" class="st3 st4">+lod4Solid</text>
<text transform="matrix(0.83 0 0 1 284.998 765.1183)" class="st3 st4">0..1</text>
<text transform="matrix(0.83 0 0 1 453.4189 223.7897)" class="st3 st4">+lod4Geometry</text>
<text transform="matrix(0.83 0 0 1 494.2158 311.258)" class="st3 st4">0..1</text>
<text transform="matrix(0.83 0 0 1 -7658.2339 -7594.4951)" class="st3" style="font-size:4.7638px;">i</text>
<text transform="matrix(0.83 0 0 1 560.2012 719.2277)" class="st3 st4">+lod4MultiSurface</text>
<text transform="matrix(0.83 0 0 1 540.2168 741.7433)" class="st3 st4">0..1</text>
<text transform="matrix(0.83 0 0 1 265.9033 697.5558)" class="st3 st4">+lod1Solid</text>
<text transform="matrix(0.83 0 0 1 382.2324 636.9308)" class="st3 st4">0..1</text>
<text transform="matrix(0.83 0 0 1 698.2324 553.7892)" class="st3 st4">+consistsOfTunnelPart</text>
<text transform="matrix(0.83 0 0 1 765.9355 637.7883)" class="st3 st4">0..*</text>
<text transform="matrix(0.83 0 0 1 -7658.2339 -7594.4951)" class="st3" style="font-size:4.7638px;">i</text>
<text transform="matrix(0.83 0 0 1 428.248 836.132)" class="st3 st4">+lod4MultiSurface</text>
<text transform="matrix(0.83 0 0 1 486.4033 850.8527)" class="st3 st4">0..1</text>
<text transform="matrix(0.83 0 0 1 572.3418 895.0383)" class="st3 st4">+boundedBy</text>
<text transform="matrix(0.83 0 0 1 641.7949 896.7726)" class="st3 st4">0..*</text>
<text transform="matrix(0.83 0 0 1 152.1689 472.3674)" class="st3 st4">+interiorFurniture</text>
<text transform="matrix(0.83 0 0 1 239.8574 472.3674)" class="st3 st4">0..*</text>
<text transform="matrix(0.83 0 0 1 -7658.2339 -7594.4951)" class="st3" style="font-size:4.7638px;">i</text>
<text transform="matrix(0.83 0 0 1 690.4199 710.5383)" class="st3 st4">+lod2TerrainIntersection</text>
<text transform="matrix(0.83 0 0 1 781.5605 772.0558)" class="st3 st4">0..1</text>
<text transform="matrix(0.83 0 0 1 -7658.2339 -7594.4951)" class="st3" style="font-size:4.7638px;">i</text>
<text transform="matrix(0.83 0 0 1 673.0449 684.5715)" class="st3 st4">+lod4TerrainIntersection</text>
<text transform="matrix(0.83 0 0 1 723.4043 772.0558)" class="st3 st4">0..1</text>
<text transform="matrix(0.83 0 0 1 -7658.2339 -7594.4951)" class="st3" style="font-size:4.7638px;">i</text>
<text transform="matrix(0.83 0 0 1 400.4502 696.6965)" class="st3 st4">+lod1MultiSurface</text>
<text transform="matrix(0.83 0 0 1 531.5449 666.3683)" class="st3 st4">0..1</text>
<text transform="matrix(0.83 0 0 1 -7658.2339 -7594.4951)" class="st3" style="font-size:4.7638px;">i</text>
<text transform="matrix(0.83 0 0 1 398.7158 667.2433)" class="st3 st4">+lod3MultiSurface</text>
<text transform="matrix(0.83 0 0 1 532.4043 691.4777)" class="st3 st4">0..1</text>
<text transform="matrix(0.83 0 0 1 265.9033 681.1027)" class="st3 st4">+lod2Solid</text>
<text transform="matrix(0.83 0 0 1 357.9189 637.7883)" class="st3 st4">0..1</text>
<text transform="matrix(0.83 0 0 1 -7658.2339 -7594.4951)" class="st3" style="font-size:4.7638px;">i</text>
<text transform="matrix(0.83 0 0 1 336.2158 296.5241)" class="st3 st4">+interiorTunnellnstallation</text>
<text transform="matrix(0.83 0 0 1 336.2158 316.4455)" class="st3 st4">0..*</text>
<text transform="matrix(0.83 0 0 1 -7658.2339 -7594.4951)" class="st3" style="font-size:4.7638px;">i</text>
<text transform="matrix(0.83 0 0 1 409.1387 799.757)" class="st3 st4">+lod4MultiSurface</text>
<text transform="matrix(0.83 0 0 1 384.8252 802.3683)" class="st3 st4">0..1</text>
<text transform="matrix(0.83 0 0 1 -7658.2339 -7594.4951)" class="st3" style="font-size:4.7638px;">i</text>
<text transform="matrix(0.83 0 0 1 705.1543 723.5558)" class="st3 st4">+lod1TerrainIntersection</text>
<text transform="matrix(0.83 0 0 1 812.8105 772.9308)" class="st3 st4">0..1</text>
<text transform="matrix(0.83 0 0 1 -7658.2339 -7594.4951)" class="st3" style="font-size:4.7638px;">i</text>
<text transform="matrix(0.83 0 0 1 823.2324 813.632)" class="st3 st4">+lod2MultiCurve</text>
<text transform="matrix(0.83 0 0 1 809.3418 813.632)" class="st3 st4">0..1</text>
<text transform="matrix(0.83 0 0 1 -7658.2339 -7594.4951)" class="st3" style="font-size:4.7638px;">i</text>
<text transform="matrix(0.83 0 0 1 396.1074 654.257)" class="st3 st4">+lod4MultiSurface</text>
<text transform="matrix(0.83 0 0 1 532.4043 704.4933)" class="st3 st4">0..1</text>
<text transform="matrix(0.83 0 0 1 452.5439 259.2897)" class="st3 st4">+lod2Geometry</text>
<text transform="matrix(0.83 0 0 1 525.4668 274.0241)" class="st3 st4">0..1</text>
<text transform="matrix(0.83 0 0 1 -7658.2339 -7594.4951)" class="st3" style="font-size:4.7638px;">i</text>
<text transform="matrix(0.83 0 0 1 531.5449 822.2883)" class="st3 st4">+lod3MultSurface</text>
<text transform="matrix(0.83 0 0 1 530.6699 846.5226)" class="st3 st4">0..1</text>
<text transform="matrix(0.83 0 0 1 765.9355 928.8215)" class="st3 st4">+boundedBy</text>
<text transform="matrix(0.83 0 0 1 765.9355 948.757)" class="st3 st4">0..*</text>
</svg>
