<?xml version="1.0" encoding="utf-8"?>
<!-- Generator: Adobe Illustrator 27.0.0, SVG Export Plug-In . SVG Version: 6.00 Build 0)  -->
<svg version="1.1" id="レイヤー_1" xmlns="http://www.w3.org/2000/svg" xmlns:xlink="http://www.w3.org/1999/xlink" x="0px"
	 y="0px" viewBox="0 0 547.4473877 408.1100159" style="enable-background:new 0 0 547.4473877 408.1100159;" xml:space="preserve">
<style type="text/css">
	.st0{fill-rule:evenodd;clip-rule:evenodd;fill:#FFCCFF;}
	.st1{fill:none;stroke:#000000;stroke-width:1.0285715;stroke-linecap:round;stroke-linejoin:bevel;stroke-miterlimit:10;}
	.st2{font-family:'YuGothicUI-Regular';}
	.st3{font-size:6.6857147px;}
	.st4{font-family:'YuGothicUI-Bold';}
	.st5{fill-rule:evenodd;clip-rule:evenodd;fill:#F0F0F0;}
	.st6{fill:none;stroke:#D7D7D7;stroke-width:0.5142857;stroke-linecap:square;stroke-miterlimit:10;}
	.st7{fill-rule:evenodd;clip-rule:evenodd;fill:#CCFFCC;}
	.st8{fill:none;stroke:#000000;stroke-width:0.5142857;stroke-linecap:square;stroke-miterlimit:10;}
	.st9{fill:#003060;}
	.st10{fill-rule:evenodd;clip-rule:evenodd;fill:#FFFFCC;}
	.st11{font-size:8.2285719px;}
	.st12{letter-spacing:-1.1764705;}
	.st13{font-size:7.0386257px;}
	.st14{fill:none;stroke:#000000;stroke-width:0.1910204;stroke-miterlimit:10;}
	.st15{font-family:'Calibri';}
	.st16{font-family:'Calibri-Bold';}
	.st17{fill-rule:evenodd;clip-rule:evenodd;}
	.st18{fill-rule:evenodd;clip-rule:evenodd;fill:#FFFFFF;}
</style>
<polygon class="st0" points="164.5960693,402.5142822 356.5724487,402.5142822 356.5724487,345.9428711 164.5960693,345.9428711 "/>
<polygon class="st1" points="164.5960693,402.5142822 356.5724487,402.5142822 356.5724487,345.9428711 164.5960693,345.9428711 "/>
<text transform="matrix(0.85 0 0 1 242.8025055 356.2255859)" class="st2 st3">«DataType»</text>
<text transform="matrix(0.85 0 0 1 224.5212555 364.9677734)" class="st4 st3">urf::UrbanParkAttribute</text>
<line class="st1" x1="164.5960693" y1="369.0857544" x2="356.0645752" y2="369.0857544"/>
<text transform="matrix(0.85 0 0 1 167.1306305 378.3349609)" class="st2 st3">+</text>
<text transform="matrix(0.85 0 0 1 171.6999664 378.3349609)" class="st2 st3"> </text>
<text transform="matrix(0.85 0 0 1 178.3025055 378.3349609)" class="st2 st3">parkCode: gml::CodeType</text>
<text transform="matrix(0.85 0 0 1 167.1306305 387.0849609)" class="st2 st3">+</text>
<text transform="matrix(0.85 0 0 1 171.6999664 387.0849609)" class="st2 st3"> </text>
<text transform="matrix(0.85 0 0 1 178.3025055 387.0849609)" class="st2 st3">startFrom: xs::date</text>
<text transform="matrix(0.85 0 0 1 167.1306305 395.8271484)" class="st2 st3">+</text>
<text transform="matrix(0.85 0 0 1 171.6999664 395.8271484)" class="st2 st3"> </text>
<text transform="matrix(0.85 0 0 1 178.3025055 395.8271484)" class="st2 st3">breakdownOfNominalArea: BreakdownOfNominalArea [0..*]</text>
<path class="st5" d="M511.4740601,12.6857147c0.8414307,0,1.5236206,0.6907349,1.5236206,1.5428467l0,0v58.1143341l0,0
	c0,0.8520508-0.6821899,1.5428467-1.5236206,1.5428467l0,0l0,0h-90.9094849h-0.0000305
	c-0.8414307,0-1.5236206-0.6907959-1.5236206-1.5428467h0.0000305V14.2285614c0-0.8521118,0.6821594-1.5428467,1.5236206-1.5428467
	l0,0H511.4740601L511.4740601,12.6857147L511.4740601,12.6857147z"/>
<path class="st6" d="M511.4740601,12.6857147c0.8414307,0,1.5236206,0.6907349,1.5236206,1.5428467l0,0v58.1143341l0,0
	c0,0.8520508-0.6821899,1.5428467-1.5236206,1.5428467l0,0l0,0h-90.9094849h-0.0000305
	c-0.8414307,0-1.5236206-0.6907959-1.5236206-1.5428467h0.0000305V14.2285614c0-0.8521118,0.6821594-1.5428467,1.5236206-1.5428467
	l0,0H511.4740601L511.4740601,12.6857147L511.4740601,12.6857147z"/>
<polygon class="st7" points="424.1197205,36.8571625 432.7535706,36.8571625 432.7535706,28.1143036 424.1197205,28.1143036 "/>
<polygon class="st8" points="424.1197205,36.8571625 432.7535706,36.8571625 432.7535706,28.1143036 424.1197205,28.1143036 "/>
<text transform="matrix(0.85 0 0 1 435.2946777 35.3115234)" class="st9 st2 st3">GMLに定義されたクラス</text>
<polygon class="st10" points="424.1197205,46.6286011 432.7535706,46.6286011 432.7535706,37.8857269 424.1197205,37.8857269 "/>
<polygon class="st8" points="424.1197205,46.6286011 432.7535706,46.6286011 432.7535706,37.8857269 424.1197205,37.8857269 "/>
<text transform="matrix(0.85 0 0 1 435.2946777 45.0849609)" class="st9 st2 st3">CityGMLに定義されたクラス</text>
<polygon class="st0" points="424.1197205,56.4000244 432.7535706,56.4000244 432.7535706,47.6571655 424.1197205,47.6571655 "/>
<polygon class="st8" points="424.1197205,56.4000244 432.7535706,56.4000244 432.7535706,47.6571655 424.1197205,47.6571655 "/>
<text transform="matrix(0.85 0 0 1 435.2946777 54.8505859)" class="st9 st2 st3">i-URに定義されたクラス</text>
<text transform="matrix(0.85 0 0 1 460.1774902 25.7441406)" class="st9 st4 st11 st12">凡例</text>
<polygon class="st0" points="411.4228516,398.9143066 542.4543457,398.9143066 542.4543457,349.0285645 411.4228516,349.0285645 "/>
<polygon class="st1" points="411.4228516,398.9143066 542.4543457,398.9143066 542.4543457,349.0285645 411.4228516,349.0285645 "/>
<text transform="matrix(0.85 0 0 1 459.1618652 359.3193359)" class="st2 st3">«DataType»</text>
<text transform="matrix(0.85 0 0 1 430.2165527 368.0537109)" class="st4 st3">urf::BreakdownOfNominalArea</text>
<line class="st1" x1="411.4228516" y1="372.1714478" x2="541.9464722" y2="372.1714478"/>
<text transform="matrix(0.85 0 0 1 413.9587402 381.4287109)" class="st2 st3">+</text>
<text transform="matrix(0.85 0 0 1 418.5280762 381.4287109)" class="st2 st3"> </text>
<text transform="matrix(0.85 0 0 1 425.1306152 381.4287109)" class="st2 st3">breakdown: xs::string</text>
<text transform="matrix(0.85 0 0 1 413.9587402 390.1787109)" class="st2 st3">+</text>
<text transform="matrix(0.85 0 0 1 418.5280762 390.1787109)" class="st2 st3"> </text>
<text transform="matrix(0.85 0 0 1 425.1306152 390.1787109)" class="st2 st3">areaInSquareMeter: gml::MeasureType</text>
<polygon class="st0" points="178.30867,241.5428467 352.5094604,241.5428467 352.5094604,12.6857147 178.30867,12.6857147 "/>
<polygon class="st1" points="178.30867,241.5428467 352.5094604,241.5428467 352.5094604,12.6857147 178.30867,12.6857147 "/>
<text transform="matrix(0.85 0 0 1 243.8181305 22.9677734)" class="st2 st3">«FeatureType»</text>
<text transform="matrix(0.85 0 -0.3126727 0.9498609 235.1848602 31.71805)" class="st2 st13">u</text>
<text transform="matrix(0.85 0 -0.3126727 0.9498609 235.1848602 31.71805)" class="st14 st2 st13">u</text>
<text transform="matrix(0.85 0 -0.3126727 0.9498609 239.243454 31.71805)" class="st2 st13">r</text>
<text transform="matrix(0.85 0 -0.3126727 0.9498609 239.243454 31.71805)" class="st14 st2 st13">r</text>
<text transform="matrix(0.85 0 -0.3126727 0.9498609 241.7766571 31.71805)" class="st2 st13">f</text>
<text transform="matrix(0.85 0 -0.3126727 0.9498609 241.7766571 31.71805)" class="st14 st2 st13">f</text>
<text transform="matrix(0.85 0 -0.3126727 0.9498609 243.8098602 31.71805)" class="st2 st13">::</text>
<text transform="matrix(0.85 0 -0.3126727 0.9498609 243.8098602 31.71805)" class="st14 st2 st13">::</text>
<text transform="matrix(0.85 0 -0.3126727 0.9498609 246.8450165 31.71805)" class="st2 st13">_</text>
<text transform="matrix(0.85 0 -0.3126727 0.9498609 246.8450165 31.71805)" class="st14 st2 st13">_</text>
<text transform="matrix(0.85 0 -0.3126727 0.9498609 249.3879852 31.71805)" class="st2 st13">U</text>
<text transform="matrix(0.85 0 -0.3126727 0.9498609 249.3879852 31.71805)" class="st14 st2 st13">U</text>
<text transform="matrix(0.85 0 -0.3126727 0.9498609 253.9563446 31.71805)" class="st2 st13">r</text>
<text transform="matrix(0.85 0 -0.3126727 0.9498609 253.9563446 31.71805)" class="st14 st2 st13">r</text>
<text transform="matrix(0.85 0 -0.3126727 0.9498609 256.489563 31.71805)" class="st2 st13">b</text>
<text transform="matrix(0.85 0 -0.3126727 0.9498609 256.489563 31.71805)" class="st14 st2 st13">b</text>
<text transform="matrix(0.85 0 -0.3126727 0.9498609 260.5481567 31.71805)" class="st2 st13">a</text>
<text transform="matrix(0.85 0 -0.3126727 0.9498609 260.5481567 31.71805)" class="st14 st2 st13">a</text>
<text transform="matrix(0.85 0 -0.3126727 0.9498609 264.098938 31.71805)" class="st2 st13">n</text>
<text transform="matrix(0.85 0 -0.3126727 0.9498609 264.098938 31.71805)" class="st14 st2 st13">n</text>
<text transform="matrix(0.85 0 -0.3126727 0.9498609 268.1594849 31.71805)" class="st2 st13">F</text>
<text transform="matrix(0.85 0 -0.3126727 0.9498609 268.1594849 31.71805)" class="st14 st2 st13">F</text>
<text transform="matrix(0.85 0 -0.3126727 0.9498609 271.7141724 31.71805)" class="st2 st13">un</text>
<text transform="matrix(0.85 0 -0.3126727 0.9498609 271.7141724 31.71805)" class="st14 st2 st13">un</text>
<text transform="matrix(0.85 0 -0.3126727 0.9498609 279.833313 31.71805)" class="st2 st13">c</text>
<text transform="matrix(0.85 0 -0.3126727 0.9498609 279.833313 31.71805)" class="st14 st2 st13">c</text>
<text transform="matrix(0.85 0 -0.3126727 0.9498609 282.8821411 31.71805)" class="st2 st13">t</text>
<text transform="matrix(0.85 0 -0.3126727 0.9498609 282.8821411 31.71805)" class="st14 st2 st13">t</text>
<text transform="matrix(0.85 0 -0.3126727 0.9498609 285.4172974 31.71805)" class="st2 st13">i</text>
<text transform="matrix(0.85 0 -0.3126727 0.9498609 285.4172974 31.71805)" class="st14 st2 st13">i</text>
<text transform="matrix(0.85 0 -0.3126727 0.9498609 286.9446411 31.71805)" class="st2 st13">o</text>
<text transform="matrix(0.85 0 -0.3126727 0.9498609 286.9446411 31.71805)" class="st14 st2 st13">o</text>
<text transform="matrix(0.85 0 -0.3126727 0.9498609 291.0032349 31.71805)" class="st2 st13">n</text>
<text transform="matrix(0.85 0 -0.3126727 0.9498609 291.0032349 31.71805)" class="st14 st2 st13">n</text>
<line class="st1" x1="178.30867" y1="35.828598" x2="352.0015869" y2="35.828598"/>
<text transform="matrix(0.85 0 0 1 180.841568 45.0849609)" class="st2 st3">+</text>
<text transform="matrix(0.85 0 0 1 185.4109039 45.0849609)" class="st2 st3"> </text>
<text transform="matrix(0.85 0 0 1 192.0212555 45.0849609)" class="st2 st3">class: gml::CodeType [0..1]</text>
<text transform="matrix(0.85 0 0 1 180.841568 53.8271484)" class="st2 st3">+</text>
<text transform="matrix(0.85 0 0 1 185.4109039 53.8271484)" class="st2 st3"> </text>
<text transform="matrix(0.85 0 0 1 192.0212555 53.8271484)" class="st2 st3">function: gml::CodeType [0..*]</text>
<text transform="matrix(0.85 0 0 1 180.841568 62.5693359)" class="st2 st3">+</text>
<text transform="matrix(0.85 0 0 1 185.4109039 62.5693359)" class="st2 st3"> </text>
<text transform="matrix(0.85 0 0 1 192.0212555 62.5693359)" class="st2 st3">usage: gml::CodeType [0..*]</text>
<text transform="matrix(0.85 0 0 1 180.841568 71.3037109)" class="st2 st3">+</text>
<text transform="matrix(0.85 0 0 1 185.4109039 71.3037109)" class="st2 st3"> </text>
<text transform="matrix(0.85 0 0 1 192.0212555 71.3037109)" class="st2 st3">validFrom: xs::date [0..1]</text>
<text transform="matrix(0.85 0 0 1 180.841568 80.0537109)" class="st2 st3">+</text>
<text transform="matrix(0.85 0 0 1 185.4109039 80.0537109)" class="st2 st3"> </text>
<text transform="matrix(0.85 0 0 1 192.0212555 80.0537109)" class="st2 st3">validFromType: gml::CodeType [0..1]</text>
<text transform="matrix(0.85 0 0 1 180.841568 88.7958984)" class="st2 st3">+</text>
<text transform="matrix(0.85 0 0 1 185.4109039 88.7958984)" class="st2 st3"> </text>
<text transform="matrix(0.85 0 0 1 192.0212555 88.7958984)" class="st2 st3">enactmentFiscalYear: xs::gYear [0..1]</text>
<text transform="matrix(0.85 0 0 1 180.841568 97.5380859)" class="st2 st3">+</text>
<text transform="matrix(0.85 0 0 1 185.4109039 97.5380859)" class="st2 st3"> </text>
<text transform="matrix(0.85 0 0 1 192.0212555 97.5380859)" class="st2 st3">validTo: xs::date [0..1]</text>
<text transform="matrix(0.85 0 0 1 180.841568 106.2880859)" class="st2 st3">+</text>
<text transform="matrix(0.85 0 0 1 185.4109039 106.2880859)" class="st2 st3"> </text>
<text transform="matrix(0.85 0 0 1 192.0212555 106.2880859)" class="st2 st3">validToType: gml::CodeType [0..1]</text>
<text transform="matrix(0.85 0 0 1 180.841568 115.0302734)" class="st2 st3">+</text>
<text transform="matrix(0.85 0 0 1 185.4109039 115.0302734)" class="st2 st3"> </text>
<text transform="matrix(0.85 0 0 1 192.0212555 115.0302734)" class="st2 st3">expirationFiscalYear: xs::gYear [0..1]</text>
<text transform="matrix(0.85 0 0 1 180.841568 123.7724609)" class="st2 st3">+</text>
<text transform="matrix(0.85 0 0 1 185.4109039 123.7724609)" class="st2 st3"> </text>
<text transform="matrix(0.85 0 0 1 192.0212555 123.7724609)" class="st2 st3">legalGrounds: xs::string [0..1]</text>
<text transform="matrix(0.85 0 0 1 180.841568 132.5068359)" class="st2 st3">+</text>
<text transform="matrix(0.85 0 0 1 185.4109039 132.5068359)" class="st2 st3"> </text>
<text transform="matrix(0.85 0 0 1 192.0212555 132.5068359)" class="st2 st3">custodian: xs::string [0..1]</text>
<text transform="matrix(0.85 0 0 1 180.841568 141.2490234)" class="st2 st3">+</text>
<text transform="matrix(0.85 0 0 1 185.4109039 141.2490234)" class="st2 st3"> </text>
<text transform="matrix(0.85 0 0 1 192.0212555 141.2490234)" class="st2 st3">notificationNumber: xs::string [0..1]</text>
<text transform="matrix(0.85 0 0 1 180.841568 149.9990234)" class="st2 st3">+</text>
<text transform="matrix(0.85 0 0 1 185.4109039 149.9990234)" class="st2 st3"> </text>
<text transform="matrix(0.85 0 0 1 192.0212555 149.9990234)" class="st2 st3">finalNotificationNumber: xs::string [0..1]</text>
<text transform="matrix(0.85 0 0 1 180.841568 158.7412109)" class="st2 st3">+</text>
<text transform="matrix(0.85 0 0 1 185.4109039 158.7412109)" class="st2 st3"> </text>
<text transform="matrix(0.85 0 0 1 192.0212555 158.7412109)" class="st2 st3">finalNotificationDate: xs::date [0..1]</text>
<text transform="matrix(0.85 0 0 1 180.841568 167.4755859)" class="st2 st3">+</text>
<text transform="matrix(0.85 0 0 1 185.4109039 167.4755859)" class="st2 st3"> </text>
<text transform="matrix(0.85 0 0 1 192.0212555 167.4755859)" class="st2 st3">urbanPlanType: gml::CodeType [0..1]</text>
<text transform="matrix(0.85 0 0 1 180.841568 176.2255859)" class="st2 st3">+</text>
<text transform="matrix(0.85 0 0 1 185.4109039 176.2255859)" class="st2 st3"> </text>
<text transform="matrix(0.85 0 0 1 192.0212555 176.2255859)" class="st2 st3">areaClassificationType: gml::CodeType [0..1]</text>
<text transform="matrix(0.85 0 0 1 180.841568 184.9677734)" class="st2 st3">+</text>
<text transform="matrix(0.85 0 0 1 185.4109039 184.9677734)" class="st2 st3"> </text>
<text transform="matrix(0.85 0 0 1 192.0212555 184.9677734)" class="st2 st3">nominalArea: gml::MeasureType [0..1]</text>
<text transform="matrix(0.85 0 0 1 180.841568 193.7099609)" class="st2 st3">+</text>
<text transform="matrix(0.85 0 0 1 185.4109039 193.7099609)" class="st2 st3"> </text>
<text transform="matrix(0.85 0 0 1 192.0212555 193.7099609)" class="st2 st3">prefecture: gml::CodeType [0..1]</text>
<text transform="matrix(0.85 0 0 1 180.841568 202.4599609)" class="st2 st3">+</text>
<text transform="matrix(0.85 0 0 1 185.4109039 202.4599609)" class="st2 st3"> </text>
<text transform="matrix(0.85 0 0 1 192.0212555 202.4599609)" class="st2 st3">city: gml::CodeType [0..1]</text>
<text transform="matrix(0.85 0 0 1 180.841568 211.2021484)" class="st2 st3">+</text>
<text transform="matrix(0.85 0 0 1 185.4109039 211.2021484)" class="st2 st3"> </text>
<text transform="matrix(0.85 0 0 1 192.0212555 211.2021484)" class="st2 st3">reference: xs::anyURI [0..1]</text>
<text transform="matrix(0.85 0 0 1 180.841568 219.9443359)" class="st2 st3">+</text>
<text transform="matrix(0.85 0 0 1 185.4109039 219.9443359)" class="st2 st3"> </text>
<text transform="matrix(0.85 0 0 1 192.0212555 219.9443359)" class="st2 st3">reason: gml:StringOrRefType [0..1]</text>
<text transform="matrix(0.85 0 0 1 180.841568 228.6787109)" class="st2 st3">+</text>
<text transform="matrix(0.85 0 0 1 185.4109039 228.6787109)" class="st2 st3"> </text>
<text transform="matrix(0.85 0 0 1 192.0212555 228.6787109)" class="st2 st3">note: gml:StringOrRefType [0..1]</text>
<text transform="matrix(0.85 0 0 1 180.841568 237.4208984)" class="st2 st3">+</text>
<text transform="matrix(0.85 0 0 1 185.4109039 237.4208984)" class="st2 st3"> </text>
<text transform="matrix(0.85 0 0 1 192.0212555 237.4208984)" class="st2 st3">surveyYear: xs::gYear [0..1]</text>
<polygon class="st7" points="418.0252075,150.5142822 514.5213013,150.5142822 514.5213013,109.37146 418.0252075,109.37146 "/>
<polygon class="st1" points="418.0252075,150.5142822 514.5213013,150.5142822 514.5213013,109.37146 418.0252075,109.37146 "/>
<text transform="matrix(0.85 0 0 1 455.6071777 119.6552734)" class="st2 st3">«Type»</text>
<text transform="matrix(0.85 0 0 1 439.8649902 128.3974609)" class="st4 st3">gml::MultiSurface</text>
<polygon class="st0" points="218.9385986,317.1428833 302.2299194,317.1428833 302.2299194,276 218.9385986,276 "/>
<polygon class="st1" points="218.9385986,317.1428833 302.2299194,317.1428833 302.2299194,276 218.9385986,276 "/>
<text transform="matrix(0.85 0 0 1 240.2712555 285.2568359)" class="st15 st3">«FeatureType»</text>
<text transform="matrix(0.85 0 0 1 247.3806305 292.9677734)" class="st16 st3">urf::Zone</text>
<line class="st1" x1="218.9385986" y1="297.0857544" x2="301.7220459" y2="297.0857544"/>
<text transform="matrix(0.85 0 0 1 221.4743805 305.3115234)" class="st15 st3">+</text>
<text transform="matrix(0.85 0 0 1 224.5251617 305.3115234)" class="st15 st3"> </text>
<text transform="matrix(0.85 0 0 1 232.1462555 305.3115234)" class="st15 st3">location: xs::string [0..1]</text>
<polygon class="st0" points="408.8834839,336.68573 511.4740601,336.68573 511.4740601,265.2000122 408.8834839,265.2000122 "/>
<polygon class="st1" points="408.8834839,336.68573 511.4740601,336.68573 511.4740601,265.2000122 408.8834839,265.2000122 "/>
<text transform="matrix(0.85 0 0 1 442.4040527 275.4912109)" class="st2 st3">«DataType»</text>
<text transform="matrix(0.85 0 0 1 439.3571777 284.2255859)" class="st4 st3">urf::Boundary</text>
<line class="st1" x1="408.8834839" y1="288.3428955" x2="510.9661865" y2="288.3428955"/>
<text transform="matrix(0.85 0 0 1 411.4196777 297.6005859)" class="st2 st3">+</text>
<text transform="matrix(0.85 0 0 1 415.9890137 297.6005859)" class="st2 st3"> </text>
<text transform="matrix(0.85 0 0 1 422.5915527 297.6005859)" class="st2 st3">class: gml::CodeType [0..*]</text>
<text transform="matrix(0.85 0 0 1 411.4196777 306.3505859)" class="st2 st3">+</text>
<text transform="matrix(0.85 0 0 1 415.9890137 306.3505859)" class="st2 st3"> </text>
<text transform="matrix(0.85 0 0 1 422.5915527 306.3505859)" class="st2 st3">function: gml::CodeType [0..*]</text>
<text transform="matrix(0.85 0 0 1 411.4196777 315.0849609)" class="st2 st3">+</text>
<text transform="matrix(0.85 0 0 1 415.9890137 315.0849609)" class="st2 st3"> </text>
<text transform="matrix(0.85 0 0 1 422.5915527 315.0849609)" class="st2 st3">usage: gml::CodeType [0..*]</text>
<text transform="matrix(0.85 0 0 1 411.4196777 323.8271484)" class="st2 st3">+</text>
<text transform="matrix(0.85 0 0 1 415.9890137 323.8271484)" class="st2 st3"> </text>
<text transform="matrix(0.85 0 0 1 422.5915527 323.8271484)" class="st2 st3">offset: gml::LengthType [0..1]</text>
<text transform="matrix(0.85 0 0 1 411.4196777 332.5693359)" class="st2 st3">+</text>
<text transform="matrix(0.85 0 0 1 415.9890137 332.5693359)" class="st2 st3"> </text>
<text transform="matrix(0.85 0 0 1 422.5915527 332.5693359)" class="st2 st3">offsetDirection: xs::string [0..1]</text>
<polygon class="st7" points="420.5645752,218.9143066 512.9976807,218.9143066 512.9976807,177.7714844 420.5645752,177.7714844 "/>
<polygon class="st1" points="420.5645752,218.9143066 512.9976807,218.9143066 512.9976807,177.7714844 420.5645752,177.7714844 "/>
<text transform="matrix(0.85 0 0 1 456.1149902 188.0537109)" class="st2 st3">«Type»</text>
<text transform="matrix(0.85 0 0 1 442.4040527 196.7958984)" class="st4 st3">gml::MultiCurve</text>
<polygon class="st0" points="3.5999873,360.3428955 155.9622192,360.3428955 155.9622192,210.1714478 3.5999873,210.1714478 "/>
<polygon class="st1" points="3.5999873,360.3428955 155.9622192,360.3428955 155.9622192,210.1714478 3.5999873,210.1714478 "/>
<text transform="matrix(0.85 0 0 1 62.0056229 220.4599609)" class="st2 st3">«DataType»</text>
<text transform="matrix(0.85 0 0 1 40.6696854 229.1943359)" class="st4 st3">uro::DataQualityAttribute</text>
<line class="st1" x1="3.5999873" y1="233.3143311" x2="155.4543457" y2="233.3143311"/>
<text transform="matrix(0.85 0 0 1 6.1384354 242.5693359)" class="st2 st3">+</text>
<text transform="matrix(0.85 0 0 1 10.7077713 242.5693359)" class="st2 st3"> </text>
<text transform="matrix(0.85 0 0 1 17.3103104 242.5693359)" class="st2 st3">geometrySrcDescLod0: gml::CodeType [0..*]</text>
<text transform="matrix(0.85 0 0 1 6.1384354 251.3037109)" class="st2 st3">+</text>
<text transform="matrix(0.85 0 0 1 10.7077713 251.3037109)" class="st2 st3"> </text>
<text transform="matrix(0.85 0 0 1 17.3103104 251.3037109)" class="st2 st3">geometrySrcDescLod1: gml::CodeType [1..*]</text>
<text transform="matrix(0.85 0 0 1 6.1384354 260.0537109)" class="st2 st3">+</text>
<text transform="matrix(0.85 0 0 1 10.7077713 260.0537109)" class="st2 st3"> </text>
<text transform="matrix(0.85 0 0 1 17.3103104 260.0537109)" class="st2 st3">geometrySrcDescLod2: gml::CodeType [0..*]</text>
<text transform="matrix(0.85 0 0 1 6.1384354 268.7958984)" class="st2 st3">+</text>
<text transform="matrix(0.85 0 0 1 10.7077713 268.7958984)" class="st2 st3"> </text>
<text transform="matrix(0.85 0 0 1 17.3103104 268.7958984)" class="st2 st3">geometrySrcDescLod3: gml::CodeType [0..*]</text>
<text transform="matrix(0.85 0 0 1 6.1384354 277.5380859)" class="st2 st3">+</text>
<text transform="matrix(0.85 0 0 1 10.7077713 277.5380859)" class="st2 st3"> </text>
<text transform="matrix(0.85 0 0 1 17.3103104 277.5380859)" class="st2 st3">geometrySrcDescLod4: gml::CodeType [0..*]</text>
<text transform="matrix(0.85 0 0 1 6.1384354 286.2880859)" class="st2 st3">+</text>
<text transform="matrix(0.85 0 0 1 10.7077713 286.2880859)" class="st2 st3"> </text>
<text transform="matrix(0.85 0 0 1 17.3103104 286.2880859)" class="st2 st3">thematicSrcDesc: gml::CodeType [0..*]</text>
<text transform="matrix(0.85 0 0 1 6.1384354 295.0302734)" class="st2 st3">+</text>
<text transform="matrix(0.85 0 0 1 10.7077713 295.0302734)" class="st2 st3"> </text>
<text transform="matrix(0.85 0 0 1 17.3103104 295.0302734)" class="st2 st3">appearanceSrcDescLod0: gml::CodeType [0..*]</text>
<text transform="matrix(0.85 0 0 1 6.1384354 303.7724609)" class="st2 st3">+</text>
<text transform="matrix(0.85 0 0 1 10.7077713 303.7724609)" class="st2 st3"> </text>
<text transform="matrix(0.85 0 0 1 17.3103104 303.7724609)" class="st2 st3">appearanceSrcDescLod1: gml::CodeType [0..*]</text>
<text transform="matrix(0.85 0 0 1 6.1384354 312.5068359)" class="st2 st3">+</text>
<text transform="matrix(0.85 0 0 1 10.7077713 312.5068359)" class="st2 st3"> </text>
<text transform="matrix(0.85 0 0 1 17.3103104 312.5068359)" class="st2 st3">appearanceSrcDescLod2: gml::CodeType [0..*]</text>
<text transform="matrix(0.85 0 0 1 6.1384354 321.2490234)" class="st2 st3">+</text>
<text transform="matrix(0.85 0 0 1 10.7077713 321.2490234)" class="st2 st3"> </text>
<text transform="matrix(0.85 0 0 1 17.3103104 321.2490234)" class="st2 st3">appearanceSrcDescLod3: gml::CodeType [0..*]</text>
<text transform="matrix(0.85 0 0 1 6.1384354 329.9990234)" class="st2 st3">+</text>
<text transform="matrix(0.85 0 0 1 10.7077713 329.9990234)" class="st2 st3"> </text>
<text transform="matrix(0.85 0 0 1 17.3103104 329.9990234)" class="st2 st3">appearanceSrcDescLod4: gml::CodeType [0..*]</text>
<text transform="matrix(0.85 0 0 1 6.1384354 338.7412109)" class="st2 st3">+</text>
<text transform="matrix(0.85 0 0 1 10.7077713 338.7412109)" class="st2 st3"> </text>
<text transform="matrix(0.85 0 0 1 17.3103104 338.7412109)" class="st2 st3">lodType: gml::CodeType [0..*]</text>
<text transform="matrix(0.85 0 0 1 6.1384354 347.4755859)" class="st2 st3">+</text>
<text transform="matrix(0.85 0 0 1 10.7077713 347.4755859)" class="st2 st3"> </text>
<text transform="matrix(0.85 0 0 1 17.3103104 347.4755859)" class="st2 st3">lod1HeightType: gml::CodeType [0..1]</text>
<text transform="matrix(0.85 0 0 1 6.1384354 356.2255859)" class="st2 st3">+</text>
<text transform="matrix(0.85 0 0 1 10.7077713 356.2255859)" class="st2 st3"> </text>
<text transform="matrix(0.85 0 0 1 17.3103104 356.2255859)" class="st2 st3">tranDataAcquisition: xs::string [0..1]</text>
<polygon class="st0" points="22.3913269,58.4571533 163.5803223,58.4571533 163.5803223,6.514267 22.3913269,6.514267 "/>
<polygon class="st1" points="22.3913269,58.4571533 163.5803223,58.4571533 163.5803223,6.514267 22.3913269,6.514267 "/>
<text transform="matrix(0.85 0 0 1 75.2087479 16.7958984)" class="st2 st3">«DataType»</text>
<text transform="matrix(0.85 0 0 1 52.3571854 25.5458984)" class="st4 st3">uro::KeyValuePairAttribute</text>
<line class="st1" x1="22.3913269" y1="29.6571503" x2="163.0724487" y2="29.6571503"/>
<text transform="matrix(0.85 0 0 1 24.9274979 38.9130859)" class="st2 st3">+</text>
<text transform="matrix(0.85 0 0 1 29.4968338 38.9130859)" class="st2 st3"> </text>
<text transform="matrix(0.85 0 0 1 36.0993729 38.9130859)" class="st2 st3">key: gml::CodeType</text>
<text transform="matrix(0.85 0 0 1 24.9274979 47.6552734)" class="st2 st3">+</text>
<text transform="matrix(0.85 0 0 1 29.4968338 47.6552734)" class="st2 st3"> </text>
<text transform="matrix(0.85 0 0 1 36.0993729 47.6552734)" class="st2 st3">codeValue: gml::CodeType [0..1]</text>
<line class="st1" x1="465.2575073" y1="264.68573" x2="465.2575073" y2="219.4285889"/>
<polyline class="st1" points="468.3047485,227.1428833 465.2575073,219.4285889 462.2102661,227.1428833 "/>
<line class="st1" x1="408.3756104" y1="293.4857178" x2="302.737793" y2="293.4857178"/>
<polyline class="st17" points="307.8165588,290.9143066 302.737793,293.4857178 307.8165588,296.0571289 312.8952942,293.4857178 
	307.8165588,290.9143066 "/>
<polygon class="st1" points="307.8165588,290.9143066 302.737793,293.4857178 307.8165588,296.0571289 312.8952942,293.4857178 "/>
<polyline class="st1" points="400.7575073,290.4000244 408.3756104,293.4857178 400.7575073,296.5714722 "/>
<line class="st1" x1="93.4937057" y1="209.6571655" x2="93.4937057" y2="126.8571777"/>
<line class="st1" x1="93.4937057" y1="126.8571777" x2="177.8007965" y2="126.8571777"/>
<polyline class="st17" points="172.7220612,129.4285889 177.8007965,126.8571777 172.7220612,124.2857666 167.6433105,126.8571777 
	172.7220612,129.4285889 "/>
<polyline class="st1" points="167.6433105,126.8571777 172.7220612,129.4285889 177.8007965,126.8571777 172.7220612,124.2857666 
	167.6433105,126.8571777 "/>
<polyline class="st1" points="96.540947,201.9428711 93.4937057,209.6571655 90.4464569,201.9428711 "/>
<line class="st1" x1="261.0921326" y1="275.4857178" x2="261.6000061" y2="242.0571289"/>
<polyline class="st18" points="264.6472473,250.2857666 258.5527649,250.2857666 261.6000061,242.0571289 264.6472473,250.2857666 
	"/>
<polygon class="st1" points="264.6472473,250.2857666 258.5527649,250.2857666 261.6000061,242.0571289 "/>
<line class="st1" x1="353.017334" y1="134.0571289" x2="417.517334" y2="134.0571289"/>
<polyline class="st1" points="409.899231,137.1428833 417.517334,134.0571289 409.899231,130.9714355 "/>
<line class="st1" x1="260.584259" y1="345.4285889" x2="260.584259" y2="317.6571655"/>
<polyline class="st17" points="263.1236267,322.7999878 260.584259,317.6571655 258.0448914,322.7999878 260.584259,327.9428711 
	263.1236267,322.7999878 "/>
<polygon class="st1" points="263.1236267,322.7999878 260.584259,317.6571655 258.0448914,322.7999878 260.584259,327.9428711 "/>
<polyline class="st1" points="263.6315002,337.7142944 260.584259,345.4285889 257.5370178,337.7142944 "/>
<line class="st1" x1="92.9858322" y1="58.4571533" x2="92.9858322" y2="126.8571777"/>
<line class="st1" x1="92.9858322" y1="126.8571777" x2="178.30867" y2="126.8571777"/>
<polyline class="st17" points="173.2299347,129.4285889 178.30867,126.8571777 173.2299347,124.2857666 168.1511841,126.8571777 
	173.2299347,129.4285889 "/>
<polygon class="st1" points="173.2299347,129.4285889 178.30867,126.8571777 173.2299347,124.2857666 168.1511841,126.8571777 "/>
<polyline class="st1" points="89.9385834,66.1714478 92.9858322,58.4571533 96.0330734,66.1714478 "/>
<text transform="matrix(0.85 0 0 1 361.6462402 105.2568359)" class="st2 st3">+lod1MultiSurface</text>
<text transform="matrix(0.85 0 0 1 387.5524902 145.3662109)" class="st2 st3">0..1</text>
<text transform="matrix(0.85 0 0 1 366.2165527 288.8583984)" class="st2 st3">+</text>
<text transform="matrix(0.85 0 0 1 370.7858887 288.8583984)" class="st2 st3">b</text>
<text transform="matrix(0.85 0 0 1 374.845459 288.8583984)" class="st2 st3">o</text>
<text transform="matrix(0.85 0 0 1 378.9060059 288.8583984)" class="st2 st3">un</text>
<text transform="matrix(0.85 0 0 1 386.0222168 288.8583984)" class="st2 st3">d</text>
<text transform="matrix(0.85 0 0 1 390.0817871 288.8583984)" class="st2 st3">a</text>
<text transform="matrix(0.85 0 0 1 393.6325684 288.8583984)" class="st2 st3">r</text>
<text transform="matrix(0.85 0 0 1 396.1647949 288.8583984)" class="st2 st3">y</text>
<text transform="matrix(0.85 0 0 1 397.7087402 303.2568359)" class="st2 st3">0</text>
<text transform="matrix(0.85 0 0 1 401.267334 303.2568359)" class="st2 st3">..</text>
<text transform="matrix(0.85 0 0 1 404.3024902 303.2568359)" class="st2 st3">*</text>
<text transform="matrix(0.85 0 0 1 191.513443 338.7412109)" class="st2 st3">+urbanParkAttribute</text>
<text transform="matrix(0.85 0 0 1 266.1618652 338.7412109)" class="st2 st3">0..1</text>
<text transform="matrix(0.85 0 0 1 19.8493729 205.5458984)" class="st2 st3">+dataQualityAttribute</text>
<text transform="matrix(0.85 0 0 1 104.6618729 204.0068359)" class="st2 st3">0..1</text>
<text transform="matrix(0.85 0 0 1 433.2634277 229.1943359)" class="st2 st3">+location</text>
<text transform="matrix(0.85 0 0 1 470.8415527 229.1943359)" class="st2 st3">0..1</text>
<text transform="matrix(0.85 0 0 1 21.8806229 68.2255859)" class="st2 st3">+keyValuePairAttribute</text>
<text transform="matrix(0.85 0 0 1 97.0446854 68.2255859)" class="st2 st3">0..1</text>
</svg>
