<?xml version="1.0" encoding="utf-8"?>
<!-- Generator: Adobe Illustrator 27.0.0, SVG Export Plug-In . SVG Version: 6.00 Build 0)  -->
<svg version="1.1" id="レイヤー_1" xmlns="http://www.w3.org/2000/svg" xmlns:xlink="http://www.w3.org/1999/xlink" x="0px"
	 y="0px" viewBox="0 0 728.1260986 906.2817993" style="enable-background:new 0 0 728.1260986 906.2817993;" xml:space="preserve">
<style type="text/css">
	.st0{fill-rule:evenodd;clip-rule:evenodd;fill:#FFCCFF;}
	.st1{fill:none;stroke:#000000;stroke-width:1.0285715;stroke-linecap:round;stroke-linejoin:bevel;stroke-miterlimit:10;}
	.st2{font-family:'YuGothicUI-Regular';}
	.st3{font-size:6.6857147px;}
	.st4{font-size:7.0386257px;}
	.st5{fill:none;stroke:#000000;stroke-width:0.1910204;stroke-miterlimit:10;}
	.st6{font-family:'YuGothicUI-Bold';}
	.st7{fill-rule:evenodd;clip-rule:evenodd;fill:#F0F0F0;}
	.st8{fill:none;stroke:#D7D7D7;stroke-width:0.5142857;stroke-linecap:square;stroke-miterlimit:10;}
	.st9{fill-rule:evenodd;clip-rule:evenodd;fill:#A0FFC0;}
	.st10{fill:none;stroke:#000000;stroke-width:0.5142857;stroke-linecap:square;stroke-miterlimit:10;}
	.st11{fill:#003060;}
	.st12{fill-rule:evenodd;clip-rule:evenodd;fill:#FFFFCC;}
	.st13{font-size:8.2285719px;}
	.st14{letter-spacing:-1.1764705;}
	.st15{fill-rule:evenodd;clip-rule:evenodd;fill:#FFFFFF;}
</style>
<polygon class="st0" points="307.6322937,104.5716095 437.6480408,104.5716095 437.6480408,15.6001787 307.6322937,15.6001787 "/>
<polygon class="st1" points="307.6322937,104.5716095 437.6480408,104.5716095 437.6480408,15.6001787 307.6322937,15.6001787 "/>
<text transform="matrix(0.85 0 0 1 354.859375 25.8831635)" class="st2 st3">«DataType»</text>
<text transform="matrix(0.85 0 -0.3126727 0.9498609 345.2243042 34.6212807)" class="st2 st4">u</text>
<text transform="matrix(0.85 0 -0.3126727 0.9498609 345.2243042 34.6212807)" class="st5 st2 st4">u</text>
<text transform="matrix(0.85 0 -0.3126727 0.9498609 349.2838745 34.6212807)" class="st2 st4">r</text>
<text transform="matrix(0.85 0 -0.3126727 0.9498609 349.2838745 34.6212807)" class="st5 st2 st4">r</text>
<text transform="matrix(0.85 0 -0.3126727 0.9498609 351.8170776 34.6212807)" class="st2 st4">o</text>
<text transform="matrix(0.85 0 -0.3126727 0.9498609 351.8170776 34.6212807)" class="st5 st2 st4">o</text>
<text transform="matrix(0.85 0 -0.3126727 0.9498609 355.8776245 34.6212807)" class="st2 st4">::</text>
<text transform="matrix(0.85 0 -0.3126727 0.9498609 355.8776245 34.6212807)" class="st5 st2 st4">::</text>
<text transform="matrix(0.85 0 -0.3126727 0.9498609 358.9118042 34.6212807)" class="st2 st4">P</text>
<text transform="matrix(0.85 0 -0.3126727 0.9498609 358.9118042 34.6212807)" class="st5 st2 st4">P</text>
<text transform="matrix(0.85 0 -0.3126727 0.9498609 362.9723511 34.6212807)" class="st2 st4">o</text>
<text transform="matrix(0.85 0 -0.3126727 0.9498609 362.9723511 34.6212807)" class="st5 st2 st4">o</text>
<text transform="matrix(0.85 0 -0.3126727 0.9498609 367.0328979 34.6212807)" class="st2 st4">r</text>
<text transform="matrix(0.85 0 -0.3126727 0.9498609 367.0328979 34.6212807)" class="st5 st2 st4">r</text>
<text transform="matrix(0.85 0 -0.3126727 0.9498609 369.5651245 34.6212807)" class="st2 st4">t</text>
<text transform="matrix(0.85 0 -0.3126727 0.9498609 369.5651245 34.6212807)" class="st5 st2 st4">t</text>
<text transform="matrix(0.85 0 -0.3126727 0.9498609 372.1002808 34.6212807)" class="st2 st4">A</text>
<text transform="matrix(0.85 0 -0.3126727 0.9498609 372.1002808 34.6212807)" class="st5 st2 st4">A</text>
<text transform="matrix(0.85 0 -0.3126727 0.9498609 376.6686401 34.6212807)" class="st2 st4">tt</text>
<text transform="matrix(0.85 0 -0.3126727 0.9498609 376.6686401 34.6212807)" class="st5 st2 st4">tt</text>
<text transform="matrix(0.85 0 -0.3126727 0.9498609 381.7379761 34.6212807)" class="st2 st4">r</text>
<text transform="matrix(0.85 0 -0.3126727 0.9498609 381.7379761 34.6212807)" class="st5 st2 st4">r</text>
<text transform="matrix(0.85 0 -0.3126727 0.9498609 384.2711792 34.6212807)" class="st2 st4">i</text>
<text transform="matrix(0.85 0 -0.3126727 0.9498609 384.2711792 34.6212807)" class="st5 st2 st4">i</text>
<text transform="matrix(0.85 0 -0.3126727 0.9498609 385.7975464 34.6212807)" class="st2 st4">b</text>
<text transform="matrix(0.85 0 -0.3126727 0.9498609 385.7975464 34.6212807)" class="st5 st2 st4">b</text>
<text transform="matrix(0.85 0 -0.3126727 0.9498609 389.8571167 34.6212807)" class="st2 st4">u</text>
<text transform="matrix(0.85 0 -0.3126727 0.9498609 389.8571167 34.6212807)" class="st5 st2 st4">u</text>
<text transform="matrix(0.85 0 -0.3126727 0.9498609 393.916687 34.6212807)" class="st2 st4">t</text>
<text transform="matrix(0.85 0 -0.3126727 0.9498609 393.916687 34.6212807)" class="st5 st2 st4">t</text>
<text transform="matrix(0.85 0 -0.3126727 0.9498609 396.4508667 34.6212807)" class="st2 st4">e</text>
<text transform="matrix(0.85 0 -0.3126727 0.9498609 396.4508667 34.6212807)" class="st5 st2 st4">e</text>
<line class="st1" x1="307.6322937" y1="38.743" x2="437.1401672" y2="38.743"/>
<text transform="matrix(0.85 0 0 1 310.171875 48.000351)" class="st2 st3">+</text>
<text transform="matrix(0.85 0 0 1 314.7412109 48.000351)" class="st2 st3"> </text>
<text transform="matrix(0.85 0 0 1 321.34375 48.000351)" class="st2 st3">portFacilityDetailsType: gml::CodeType</text>
<text transform="matrix(0.85 0 0 1 310.171875 56.7425385)" class="st2 st3">+</text>
<text transform="matrix(0.85 0 0 1 314.7412109 56.7425385)" class="st2 st3"> </text>
<text transform="matrix(0.85 0 0 1 321.34375 56.7425385)" class="st2 st3">portName: xs::string</text>
<text transform="matrix(0.85 0 0 1 310.171875 65.4769135)" class="st2 st3">+</text>
<text transform="matrix(0.85 0 0 1 314.7412109 65.4769135)" class="st2 st3"> </text>
<text transform="matrix(0.85 0 0 1 321.34375 65.4769135)" class="st2 st3">portStatus: gml::CodeType [0..1]</text>
<text transform="matrix(0.85 0 0 1 310.171875 74.2269135)" class="st2 st3">+</text>
<text transform="matrix(0.85 0 0 1 314.7412109 74.2269135)" class="st2 st3"> </text>
<text transform="matrix(0.85 0 0 1 321.34375 74.2269135)" class="st2 st3">district: xs::string [0..1]</text>
<text transform="matrix(0.85 0 0 1 310.171875 82.969101)" class="st2 st3">+</text>
<text transform="matrix(0.85 0 0 1 314.7412109 82.969101)" class="st2 st3"> </text>
<text transform="matrix(0.85 0 0 1 321.34375 82.969101)" class="st2 st3">grantType: gml::CodeType [0..1]</text>
<text transform="matrix(0.85 0 0 1 310.171875 91.7112885)" class="st2 st3">+</text>
<text transform="matrix(0.85 0 0 1 314.7412109 91.7112885)" class="st2 st3"> </text>
<text transform="matrix(0.85 0 0 1 321.34375 91.7112885)" class="st2 st3">isDesignated: xs::boolean [0..1]</text>
<text transform="matrix(0.85 0 0 1 310.171875 100.453476)" class="st2 st3">+</text>
<text transform="matrix(0.85 0 0 1 314.7412109 100.453476)" class="st2 st3"> </text>
<text transform="matrix(0.85 0 0 1 321.34375 100.453476)" class="st2 st3">degradationLevel: xs::integer [0..1]</text>
<polygon class="st0" points="4.939333,319.0287781 148.1598206,319.0287781 148.1598206,160.1144562 4.939333,160.1144562 "/>
<polygon class="st1" points="4.939333,319.0287781 148.1598206,319.0287781 148.1598206,160.1144562 4.939333,160.1144562 "/>
<text transform="matrix(0.85 0 0 1 58.7734375 170.3987885)" class="st2 st3">«DataType»</text>
<text transform="matrix(0.85 0 0 1 48.109375 179.140976)" class="st6 st3">uro::HarborFacility</text>
<line class="st1" x1="4.939333" y1="183.2572784" x2="147.651947" y2="183.2572784"/>
<text transform="matrix(0.85 0 0 1 7.4765625 192.5081635)" class="st2 st3">+</text>
<text transform="matrix(0.85 0 0 1 12.0458984 192.5081635)" class="st2 st3"> </text>
<text transform="matrix(0.85 0 0 1 18.6484375 192.5081635)" class="st2 st3">geologicalType: gml::CodeType [0..1]</text>
<text transform="matrix(0.85 0 0 1 7.4765625 201.250351)" class="st2 st3">+</text>
<text transform="matrix(0.85 0 0 1 12.0458984 201.250351)" class="st2 st3"> </text>
<text transform="matrix(0.85 0 0 1 18.6484375 201.250351)" class="st2 st3">obstructingStructures: xs::string [0..1]</text>
<text transform="matrix(0.85 0 0 1 7.4765625 209.9925385)" class="st2 st3">+</text>
<text transform="matrix(0.85 0 0 1 12.0458984 209.9925385)" class="st2 st3"> </text>
<text transform="matrix(0.85 0 0 1 18.6484375 209.9925385)" class="st2 st3">structuralLimitations: gml::LengthType [0..1]</text>
<text transform="matrix(0.85 0 0 1 7.4765625 218.7425385)" class="st2 st3">+</text>
<text transform="matrix(0.85 0 0 1 12.0458984 218.7425385)" class="st2 st3"> </text>
<text transform="matrix(0.85 0 0 1 18.6484375 218.7425385)" class="st2 st3">length: gml::LengthType [0..1]</text>
<text transform="matrix(0.85 0 0 1 7.4765625 227.484726)" class="st2 st3">+</text>
<text transform="matrix(0.85 0 0 1 12.0458984 227.484726)" class="st2 st3"> </text>
<text transform="matrix(0.85 0 0 1 18.6484375 227.484726)" class="st2 st3">minimumWidth: gml::LengthType [0..1]</text>
<text transform="matrix(0.85 0 0 1 7.4765625 236.2269135)" class="st2 st3">+</text>
<text transform="matrix(0.85 0 0 1 12.0458984 236.2269135)" class="st2 st3"> </text>
<text transform="matrix(0.85 0 0 1 18.6484375 236.2269135)" class="st2 st3">maximumWidth: gml::LengthType [0..1]</text>
<text transform="matrix(0.85 0 0 1 7.4765625 244.9769135)" class="st2 st3">+</text>
<text transform="matrix(0.85 0 0 1 12.0458984 244.9769135)" class="st2 st3"> </text>
<text transform="matrix(0.85 0 0 1 18.6484375 244.9769135)" class="st2 st3">plannedDepth: gml::LengthType [0..1]</text>
<text transform="matrix(0.85 0 0 1 7.4765625 253.7112885)" class="st2 st3">+</text>
<text transform="matrix(0.85 0 0 1 12.0458984 253.7112885)" class="st2 st3"> </text>
<text transform="matrix(0.85 0 0 1 18.6484375 253.7112885)" class="st2 st3">currentDepth: gml::LengthType [0..1]</text>
<text transform="matrix(0.85 0 0 1 7.4765625 262.4534912)" class="st2 st3">+</text>
<text transform="matrix(0.85 0 0 1 12.0458984 262.4534912)" class="st2 st3"> </text>
<text transform="matrix(0.85 0 0 1 18.6484375 262.4534912)" class="st2 st3">isDredged: xs::boolean [0..1]</text>
<text transform="matrix(0.85 0 0 1 7.4765625 271.2034912)" class="st2 st3">+</text>
<text transform="matrix(0.85 0 0 1 12.0458984 271.2034912)" class="st2 st3"> </text>
<text transform="matrix(0.85 0 0 1 18.6484375 271.2034912)" class="st2 st3">areaType: gml::CodeType [0..1]</text>
<text transform="matrix(0.85 0 0 1 7.4765625 279.9456787)" class="st2 st3">+</text>
<text transform="matrix(0.85 0 0 1 12.0458984 279.9456787)" class="st2 st3"> </text>
<text transform="matrix(0.85 0 0 1 18.6484375 279.9456787)" class="st2 st3">innerArea: gml::MeasureType [0..1]</text>
<text transform="matrix(0.85 0 0 1 7.4765625 288.6800537)" class="st2 st3">+</text>
<text transform="matrix(0.85 0 0 1 12.0458984 288.6800537)" class="st2 st3"> </text>
<text transform="matrix(0.85 0 0 1 18.6484375 288.6800537)" class="st2 st3">outerArea: gml::MeasureType [0..1]</text>
<text transform="matrix(0.85 0 0 1 7.4765625 297.4222412)" class="st2 st3">+</text>
<text transform="matrix(0.85 0 0 1 12.0458984 297.4222412)" class="st2 st3"> </text>
<text transform="matrix(0.85 0 0 1 18.6484375 297.4222412)" class="st2 st3">totalCost: xs::integer [0..1]</text>
<text transform="matrix(0.85 0 0 1 7.4765625 306.1644287)" class="st2 st3">+</text>
<text transform="matrix(0.85 0 0 1 12.0458984 306.1644287)" class="st2 st3"> </text>
<text transform="matrix(0.85 0 0 1 18.6484375 306.1644287)" class="st2 st3">subsidy: xs::integer [0..1]</text>
<text transform="matrix(0.85 0 0 1 7.4765625 314.9144287)" class="st2 st3">+</text>
<text transform="matrix(0.85 0 0 1 12.0458984 314.9144287)" class="st2 st3"> </text>
<text transform="matrix(0.85 0 0 1 18.6484375 314.9144287)" class="st2 st3">note: xs::string [0..*]</text>
<polygon class="st0" points="60.8054848,406.4573669 180.6637573,406.4573669 180.6637573,334.9716492 60.8054848,334.9716492 "/>
<polygon class="st1" points="60.8054848,406.4573669 180.6637573,406.4573669 180.6637573,334.9716492 60.8054848,334.9716492 "/>
<text transform="matrix(0.85 0 0 1 102.953125 345.2581787)" class="st2 st3">«DataType»</text>
<text transform="matrix(0.85 0 0 1 81.125 353.9925537)" class="st6 st3">uro::PortProtectiveFacility</text>
<line class="st1" x1="60.8054848" y1="358.1144714" x2="180.1558838" y2="358.1144714"/>
<text transform="matrix(0.85 0 0 1 63.34375 367.3753662)" class="st2 st3">+</text>
<text transform="matrix(0.85 0 0 1 67.9130859 367.3753662)" class="st2 st3"> </text>
<text transform="matrix(0.85 0 0 1 74.515625 367.3753662)" class="st2 st3">structureType: gml::CodeType [0..1]</text>
<text transform="matrix(0.85 0 0 1 63.34375 376.1175537)" class="st2 st3">+</text>
<text transform="matrix(0.85 0 0 1 67.9130859 376.1175537)" class="st2 st3"> </text>
<text transform="matrix(0.85 0 0 1 74.515625 376.1175537)" class="st2 st3">mainMaterial: gml::CodeType [0..1]</text>
<text transform="matrix(0.85 0 0 1 63.34375 384.8519287)" class="st2 st3">+</text>
<text transform="matrix(0.85 0 0 1 67.9130859 384.8519287)" class="st2 st3"> </text>
<text transform="matrix(0.85 0 0 1 74.515625 384.8519287)" class="st2 st3">totalCost: xs::integer [0..1]</text>
<text transform="matrix(0.85 0 0 1 63.34375 393.5941162)" class="st2 st3">+</text>
<text transform="matrix(0.85 0 0 1 67.9130859 393.5941162)" class="st2 st3"> </text>
<text transform="matrix(0.85 0 0 1 74.515625 393.5941162)" class="st2 st3">subsidy: xs::integer [0..1]</text>
<text transform="matrix(0.85 0 0 1 63.34375 402.3363037)" class="st2 st3">+</text>
<text transform="matrix(0.85 0 0 1 67.9130859 402.3363037)" class="st2 st3"> </text>
<text transform="matrix(0.85 0 0 1 74.515625 402.3363037)" class="st2 st3">note: xs::string [0..*]</text>
<polygon class="st0" points="192.8527374,436.2859802 349.7858276,436.2859802 349.7858276,154.9716339 192.8527374,154.9716339 "/>
<polygon class="st1" points="192.8527374,436.2859802 349.7858276,436.2859802 349.7858276,154.9716339 192.8527374,154.9716339 "/>
<text transform="matrix(0.85 0 0 1 253.796875 165.2581635)" class="st2 st3">«DataType»</text>
<text transform="matrix(0.85 0 0 1 240.59375 173.9925385)" class="st6 st3">uro::MooringFacility</text>
<line class="st1" x1="192.8527374" y1="178.1144562" x2="349.2779541" y2="178.1144562"/>
<text transform="matrix(0.85 0 0 1 195.390625 187.375351)" class="st2 st3">+</text>
<text transform="matrix(0.85 0 0 1 199.9599609 187.375351)" class="st2 st3"> </text>
<text transform="matrix(0.85 0 0 1 206.5625 187.375351)" class="st2 st3">mainPartLength: gml::LengthType [0..1]</text>
<text transform="matrix(0.85 0 0 1 195.390625 196.1175385)" class="st2 st3">+</text>
<text transform="matrix(0.85 0 0 1 199.9599609 196.1175385)" class="st2 st3"> </text>
<text transform="matrix(0.85 0 0 1 206.5625 196.1175385)" class="st2 st3">totalLength: gml::LengthType [0..1]</text>
<text transform="matrix(0.85 0 0 1 195.390625 204.8519135)" class="st2 st3">+</text>
<text transform="matrix(0.85 0 0 1 199.9599609 204.8519135)" class="st2 st3"> </text>
<text transform="matrix(0.85 0 0 1 206.5625 204.8519135)" class="st2 st3">facilityWidth: gml::LengthType [0..1]</text>
<text transform="matrix(0.85 0 0 1 195.390625 213.594101)" class="st2 st3">+</text>
<text transform="matrix(0.85 0 0 1 199.9599609 213.594101)" class="st2 st3"> </text>
<text transform="matrix(0.85 0 0 1 206.5625 213.594101)" class="st2 st3">apronWidth: gml::LengthType [0..1]</text>
<text transform="matrix(0.85 0 0 1 195.390625 222.3362885)" class="st2 st3">+</text>
<text transform="matrix(0.85 0 0 1 199.9599609 222.3362885)" class="st2 st3"> </text>
<text transform="matrix(0.85 0 0 1 206.5625 222.3362885)" class="st2 st3">plannedDepth: gml::LengthType [0..1]</text>
<text transform="matrix(0.85 0 0 1 195.390625 231.0862885)" class="st2 st3">+</text>
<text transform="matrix(0.85 0 0 1 199.9599609 231.0862885)" class="st2 st3"> </text>
<text transform="matrix(0.85 0 0 1 206.5625 231.0862885)" class="st2 st3">currentDepth: gml::LengthType [0..1]</text>
<text transform="matrix(0.85 0 0 1 195.390625 239.828476)" class="st2 st3">+</text>
<text transform="matrix(0.85 0 0 1 199.9599609 239.828476)" class="st2 st3"> </text>
<text transform="matrix(0.85 0 0 1 206.5625 239.828476)" class="st2 st3">area: gml::MeasureType [0..1]</text>
<text transform="matrix(0.85 0 0 1 195.390625 248.5706635)" class="st2 st3">+</text>
<text transform="matrix(0.85 0 0 1 199.9599609 248.5706635)" class="st2 st3"> </text>
<text transform="matrix(0.85 0 0 1 206.5625 248.5706635)" class="st2 st3">ceilingHeight: gml::LengthType [0..1]</text>
<text transform="matrix(0.85 0 0 1 195.390625 257.3206787)" class="st2 st3">+</text>
<text transform="matrix(0.85 0 0 1 199.9599609 257.3206787)" class="st2 st3"> </text>
<text transform="matrix(0.85 0 0 1 206.5625 257.3206787)" class="st2 st3">gravityResistant: gml::MeasureType [0..1]</text>
<text transform="matrix(0.85 0 0 1 195.390625 266.0550537)" class="st2 st3">+</text>
<text transform="matrix(0.85 0 0 1 199.9599609 266.0550537)" class="st2 st3"> </text>
<text transform="matrix(0.85 0 0 1 206.5625 266.0550537)" class="st2 st3">form: gml::CodeType [0..1]</text>
<text transform="matrix(0.85 0 0 1 195.390625 274.7972412)" class="st2 st3">+</text>
<text transform="matrix(0.85 0 0 1 199.9599609 274.7972412)" class="st2 st3"> </text>
<text transform="matrix(0.85 0 0 1 206.5625 274.7972412)" class="st2 st3">mainVessels: gml::CodeType [0..1]</text>
<text transform="matrix(0.85 0 0 1 195.390625 283.5394287)" class="st2 st3">+</text>
<text transform="matrix(0.85 0 0 1 199.9599609 283.5394287)" class="st2 st3"> </text>
<text transform="matrix(0.85 0 0 1 206.5625 283.5394287)" class="st2 st3">mooringPostWeight: gml::MeasureType [0..1]</text>
<text transform="matrix(0.85 0 0 1 195.390625 292.2738037)" class="st2 st3">+</text>
<text transform="matrix(0.85 0 0 1 199.9599609 292.2738037)" class="st2 st3"> </text>
<text transform="matrix(0.85 0 0 1 206.5625 292.2738037)" class="st2 st3">numberOfMooringPosts: xs::integer [0..1]</text>
<text transform="matrix(0.85 0 0 1 195.390625 301.0238037)" class="st2 st3">+</text>
<text transform="matrix(0.85 0 0 1 199.9599609 301.0238037)" class="st2 st3"> </text>
<text transform="matrix(0.85 0 0 1 206.5625 301.0238037)" class="st2 st3">resistantMaterial: xs::integer [0..1]</text>
<text transform="matrix(0.85 0 0 1 195.390625 309.7659912)" class="st2 st3">+</text>
<text transform="matrix(0.85 0 0 1 199.9599609 309.7659912)" class="st2 st3"> </text>
<text transform="matrix(0.85 0 0 1 206.5625 309.7659912)" class="st2 st3">lighting: xs::integer [0..1]</text>
<text transform="matrix(0.85 0 0 1 195.390625 318.5081787)" class="st2 st3">+</text>
<text transform="matrix(0.85 0 0 1 199.9599609 318.5081787)" class="st2 st3"> </text>
<text transform="matrix(0.85 0 0 1 206.5625 318.5081787)" class="st2 st3">stairs: xs::integer [0..1]</text>
<text transform="matrix(0.85 0 0 1 195.390625 327.2581787)" class="st2 st3">+</text>
<text transform="matrix(0.85 0 0 1 199.9599609 327.2581787)" class="st2 st3"> </text>
<text transform="matrix(0.85 0 0 1 206.5625 327.2581787)" class="st2 st3">lifesavingAppliances: xs::string [0..1]</text>
<text transform="matrix(0.85 0 0 1 195.390625 336.0003662)" class="st2 st3">+</text>
<text transform="matrix(0.85 0 0 1 199.9599609 336.0003662)" class="st2 st3"> </text>
<text transform="matrix(0.85 0 0 1 206.5625 336.0003662)" class="st2 st3">numberOfLifesavingAppliances: xs::integer [0..1]</text>
<text transform="matrix(0.85 0 0 1 195.390625 344.7425537)" class="st2 st3">+</text>
<text transform="matrix(0.85 0 0 1 199.9599609 344.7425537)" class="st2 st3"> </text>
<text transform="matrix(0.85 0 0 1 206.5625 344.7425537)" class="st2 st3">bumper: gml::LengthType [0..1]</text>
<text transform="matrix(0.85 0 0 1 195.390625 353.4925537)" class="st2 st3">+</text>
<text transform="matrix(0.85 0 0 1 199.9599609 353.4925537)" class="st2 st3"> </text>
<text transform="matrix(0.85 0 0 1 206.5625 353.4925537)" class="st2 st3">numberOfVehicleBoardings: xs::integer [0..1]</text>
<text transform="matrix(0.85 0 0 1 195.390625 362.2269287)" class="st2 st3">+</text>
<text transform="matrix(0.85 0 0 1 199.9599609 362.2269287)" class="st2 st3"> </text>
<text transform="matrix(0.85 0 0 1 206.5625 362.2269287)" class="st2 st3">vehicleBoardingWidth: gml::LengthType [0..1]</text>
<text transform="matrix(0.85 0 0 1 195.390625 370.9691162)" class="st2 st3">+</text>
<text transform="matrix(0.85 0 0 1 199.9599609 370.9691162)" class="st2 st3"> </text>
<text transform="matrix(0.85 0 0 1 206.5625 370.9691162)" class="st2 st3">shipType: xs::string [0..1]</text>
<text transform="matrix(0.85 0 0 1 195.390625 379.7113037)" class="st2 st3">+</text>
<text transform="matrix(0.85 0 0 1 199.9599609 379.7113037)" class="st2 st3"> </text>
<text transform="matrix(0.85 0 0 1 206.5625 379.7113037)" class="st2 st3">numberOfSeats: xs::integer [0..1]</text>
<text transform="matrix(0.85 0 0 1 195.390625 388.4456787)" class="st2 st3">+</text>
<text transform="matrix(0.85 0 0 1 199.9599609 388.4456787)" class="st2 st3"> </text>
<text transform="matrix(0.85 0 0 1 206.5625 388.4456787)" class="st2 st3">mainCargo: gml::CodeType [0..1]</text>
<text transform="matrix(0.85 0 0 1 195.390625 397.1956787)" class="st2 st3">+</text>
<text transform="matrix(0.85 0 0 1 199.9599609 397.1956787)" class="st2 st3"> </text>
<text transform="matrix(0.85 0 0 1 206.5625 397.1956787)" class="st2 st3">structureType: gml::CodeType [0..1]</text>
<text transform="matrix(0.85 0 0 1 195.390625 405.9378662)" class="st2 st3">+</text>
<text transform="matrix(0.85 0 0 1 199.9599609 405.9378662)" class="st2 st3"> </text>
<text transform="matrix(0.85 0 0 1 206.5625 405.9378662)" class="st2 st3">mainMaterial: gml::CodeType [0..1]</text>
<text transform="matrix(0.85 0 0 1 195.390625 414.6800537)" class="st2 st3">+</text>
<text transform="matrix(0.85 0 0 1 199.9599609 414.6800537)" class="st2 st3"> </text>
<text transform="matrix(0.85 0 0 1 206.5625 414.6800537)" class="st2 st3">totalCost: xs::integer [0..1]</text>
<text transform="matrix(0.85 0 0 1 195.390625 423.4300537)" class="st2 st3">+</text>
<text transform="matrix(0.85 0 0 1 199.9599609 423.4300537)" class="st2 st3"> </text>
<text transform="matrix(0.85 0 0 1 206.5625 423.4300537)" class="st2 st3">subsidy: xs::integer [0..1]</text>
<text transform="matrix(0.85 0 0 1 195.390625 432.1722412)" class="st2 st3">+</text>
<text transform="matrix(0.85 0 0 1 199.9599609 432.1722412)" class="st2 st3"> </text>
<text transform="matrix(0.85 0 0 1 206.5625 432.1722412)" class="st2 st3">note: xs::string [0..1]</text>
<polygon class="st0" points="380.7661438,348.8572693 540.746521,348.8572693 540.746521,154.9716339 380.7661438,154.9716339 "/>
<polygon class="st1" points="380.7661438,348.8572693 540.746521,348.8572693 540.746521,154.9716339 380.7661438,154.9716339 "/>
<text transform="matrix(0.85 0 0 1 443.234375 165.2581635)" class="st2 st3">«DataType»</text>
<text transform="matrix(0.85 0 0 1 413.78125 173.9925385)" class="st6 st3">uro::PortTransportationFacility</text>
<line class="st1" x1="380.7661438" y1="178.1144562" x2="540.2386475" y2="178.1144562"/>
<text transform="matrix(0.85 0 0 1 383.3046875 187.375351)" class="st2 st3">+</text>
<text transform="matrix(0.85 0 0 1 387.8740234 187.375351)" class="st2 st3"> </text>
<text transform="matrix(0.85 0 0 1 394.484375 187.375351)" class="st2 st3">structureType: gml::CodeType [0..1]</text>
<text transform="matrix(0.85 0 0 1 383.3046875 196.1175385)" class="st2 st3">+</text>
<text transform="matrix(0.85 0 0 1 387.8740234 196.1175385)" class="st2 st3"> </text>
<text transform="matrix(0.85 0 0 1 394.484375 196.1175385)" class="st2 st3">startingPoint: xs::string [0..1]</text>
<text transform="matrix(0.85 0 0 1 383.3046875 204.8519135)" class="st2 st3">+</text>
<text transform="matrix(0.85 0 0 1 387.8740234 204.8519135)" class="st2 st3"> </text>
<text transform="matrix(0.85 0 0 1 394.484375 204.8519135)" class="st2 st3">length: gml::LengthType [0..1]</text>
<text transform="matrix(0.85 0 0 1 383.3046875 213.594101)" class="st2 st3">+</text>
<text transform="matrix(0.85 0 0 1 387.8740234 213.594101)" class="st2 st3"> </text>
<text transform="matrix(0.85 0 0 1 394.484375 213.594101)" class="st2 st3">area: gml::MeasureType [0..1]</text>
<text transform="matrix(0.85 0 0 1 383.3046875 222.3362885)" class="st2 st3">+</text>
<text transform="matrix(0.85 0 0 1 387.8740234 222.3362885)" class="st2 st3"> </text>
<text transform="matrix(0.85 0 0 1 394.484375 222.3362885)" class="st2 st3">beddingWidth: gml::LengthType [0..1]</text>
<text transform="matrix(0.85 0 0 1 383.3046875 231.0862885)" class="st2 st3">+</text>
<text transform="matrix(0.85 0 0 1 387.8740234 231.0862885)" class="st2 st3"> </text>
<text transform="matrix(0.85 0 0 1 394.484375 231.0862885)" class="st2 st3">numberOfLanes: xs::integer [0..1]</text>
<text transform="matrix(0.85 0 0 1 383.3046875 239.828476)" class="st2 st3">+</text>
<text transform="matrix(0.85 0 0 1 387.8740234 239.828476)" class="st2 st3"> </text>
<text transform="matrix(0.85 0 0 1 394.484375 239.828476)" class="st2 st3">parkingLotCapacityOfBus: xs::integer [0..1]</text>
<text transform="matrix(0.85 0 0 1 383.3046875 248.5706635)" class="st2 st3">+</text>
<text transform="matrix(0.85 0 0 1 387.8740234 248.5706635)" class="st2 st3"> </text>
<text transform="matrix(0.85 0 0 1 394.484375 248.5706635)" class="st2 st3">parkingLotCapacityOfCars: xs::integer [0..1]</text>
<text transform="matrix(0.85 0 0 1 383.3046875 257.3206787)" class="st2 st3">+</text>
<text transform="matrix(0.85 0 0 1 387.8740234 257.3206787)" class="st2 st3"> </text>
<text transform="matrix(0.85 0 0 1 394.484375 257.3206787)" class="st2 st3">routeType: gml::CodeType [0..1]</text>
<text transform="matrix(0.85 0 0 1 383.3046875 266.0550537)" class="st2 st3">+</text>
<text transform="matrix(0.85 0 0 1 387.8740234 266.0550537)" class="st2 st3"> </text>
<text transform="matrix(0.85 0 0 1 394.484375 266.0550537)" class="st2 st3">heightToDigit: gml::LengthType [0..1]</text>
<text transform="matrix(0.85 0 0 1 383.3046875 274.7972412)" class="st2 st3">+</text>
<text transform="matrix(0.85 0 0 1 387.8740234 274.7972412)" class="st2 st3"> </text>
<text transform="matrix(0.85 0 0 1 394.484375 274.7972412)" class="st2 st3">heightLimit: gml::LengthType [0..1]</text>
<text transform="matrix(0.85 0 0 1 383.3046875 283.5394287)" class="st2 st3">+</text>
<text transform="matrix(0.85 0 0 1 387.8740234 283.5394287)" class="st2 st3"> </text>
<text transform="matrix(0.85 0 0 1 394.484375 283.5394287)" class="st2 st3">minimumWidth: gml::LengthType [0..1]</text>
<text transform="matrix(0.85 0 0 1 383.3046875 292.2738037)" class="st2 st3">+</text>
<text transform="matrix(0.85 0 0 1 387.8740234 292.2738037)" class="st2 st3"> </text>
<text transform="matrix(0.85 0 0 1 394.484375 292.2738037)" class="st2 st3">minimumDepth: gml::LengthType [0..1]</text>
<text transform="matrix(0.85 0 0 1 383.3046875 301.0238037)" class="st2 st3">+</text>
<text transform="matrix(0.85 0 0 1 387.8740234 301.0238037)" class="st2 st3"> </text>
<text transform="matrix(0.85 0 0 1 394.484375 301.0238037)" class="st2 st3">numberOfAircraftParkingSpaces: xs::integer [0..1]</text>
<text transform="matrix(0.85 0 0 1 383.3046875 309.7659912)" class="st2 st3">+</text>
<text transform="matrix(0.85 0 0 1 387.8740234 309.7659912)" class="st2 st3"> </text>
<text transform="matrix(0.85 0 0 1 394.484375 309.7659912)" class="st2 st3">pavementType: gml::CodeType [0..1]</text>
<text transform="matrix(0.85 0 0 1 383.3046875 318.5081787)" class="st2 st3">+</text>
<text transform="matrix(0.85 0 0 1 387.8740234 318.5081787)" class="st2 st3"> </text>
<text transform="matrix(0.85 0 0 1 394.484375 318.5081787)" class="st2 st3">mainCargo: gml::CodeType [0..1]</text>
<text transform="matrix(0.85 0 0 1 383.3046875 327.2581787)" class="st2 st3">+</text>
<text transform="matrix(0.85 0 0 1 387.8740234 327.2581787)" class="st2 st3"> </text>
<text transform="matrix(0.85 0 0 1 394.484375 327.2581787)" class="st2 st3">totalCost: xs::integer [0..1]</text>
<text transform="matrix(0.85 0 0 1 383.3046875 336.0003662)" class="st2 st3">+</text>
<text transform="matrix(0.85 0 0 1 387.8740234 336.0003662)" class="st2 st3"> </text>
<text transform="matrix(0.85 0 0 1 394.484375 336.0003662)" class="st2 st3">subsidy: xs::integer [0..1]</text>
<text transform="matrix(0.85 0 0 1 383.3046875 344.7425537)" class="st2 st3">+</text>
<text transform="matrix(0.85 0 0 1 387.8740234 344.7425537)" class="st2 st3"> </text>
<text transform="matrix(0.85 0 0 1 394.484375 344.7425537)" class="st2 st3">note: xs::string [0..1]</text>
<polygon class="st0" points="187.7740021,810.6859741 299.5062866,810.6859741 299.5062866,756.6859741 187.7740021,756.6859741 "/>
<polygon class="st1" points="187.7740021,810.6859741 299.5062866,810.6859741 299.5062866,756.6859741 187.7740021,756.6859741 "/>
<text transform="matrix(0.85 0 0 1 225.859375 766.9613037)" class="st2 st3">«DataType»</text>
<text transform="matrix(0.85 0 0 1 193.359375 775.7113037)" class="st6 st3">uro::NavigationAssistanceFacility</text>
<line class="st1" x1="187.7740021" y1="779.8287964" x2="298.9984131" y2="779.8287964"/>
<text transform="matrix(0.85 0 0 1 190.3125 789.0863037)" class="st2 st3">+</text>
<text transform="matrix(0.85 0 0 1 194.8818359 789.0863037)" class="st2 st3"> </text>
<text transform="matrix(0.85 0 0 1 201.484375 789.0863037)" class="st2 st3">totalCost: xs::integer [0..1]</text>
<text transform="matrix(0.85 0 0 1 190.3125 797.8206787)" class="st2 st3">+</text>
<text transform="matrix(0.85 0 0 1 194.8818359 797.8206787)" class="st2 st3"> </text>
<text transform="matrix(0.85 0 0 1 201.484375 797.8206787)" class="st2 st3">subsidy: xs::integer [0..1]</text>
<text transform="matrix(0.85 0 0 1 190.3125 806.5706787)" class="st2 st3">+</text>
<text transform="matrix(0.85 0 0 1 194.8818359 806.5706787)" class="st2 st3"> </text>
<text transform="matrix(0.85 0 0 1 201.484375 806.5706787)" class="st2 st3">note: xs::string [0..1]</text>
<polygon class="st0" points="553.4433594,440.400238 710.3764648,440.400238 710.3764648,298.9716492 553.4433594,298.9716492 "/>
<polygon class="st1" points="553.4433594,440.400238 710.3764648,440.400238 710.3764648,298.9716492 553.4433594,298.9716492 "/>
<text transform="matrix(0.85 0 0 1 614.390625 309.2503662)" class="st2 st3">«DataType»</text>
<text transform="matrix(0.85 0 0 1 591.53125 318.0003662)" class="st6 st3">uro::CargoHandlingFacility</text>
<line class="st1" x1="553.4433594" y1="322.1144714" x2="709.8685913" y2="322.1144714"/>
<text transform="matrix(0.85 0 0 1 555.984375 331.3675537)" class="st2 st3">+</text>
<text transform="matrix(0.85 0 0 1 560.5537109 331.3675537)" class="st2 st3"> </text>
<text transform="matrix(0.85 0 0 1 567.15625 331.3675537)" class="st2 st3">mainCargo: gml::CodeType [0..1]</text>
<text transform="matrix(0.85 0 0 1 555.984375 340.1097412)" class="st2 st3">+</text>
<text transform="matrix(0.85 0 0 1 560.5537109 340.1097412)" class="st2 st3"> </text>
<text transform="matrix(0.85 0 0 1 567.15625 340.1097412)" class="st2 st3">mooringFacility: xs::string [0..1]</text>
<text transform="matrix(0.85 0 0 1 555.984375 348.8597412)" class="st2 st3">+</text>
<text transform="matrix(0.85 0 0 1 560.5537109 348.8597412)" class="st2 st3"> </text>
<text transform="matrix(0.85 0 0 1 567.15625 348.8597412)" class="st2 st3">liftableLoad: gml::MeasureType [0..1]</text>
<text transform="matrix(0.85 0 0 1 555.984375 357.6019287)" class="st2 st3">+</text>
<text transform="matrix(0.85 0 0 1 560.5537109 357.6019287)" class="st2 st3"> </text>
<text transform="matrix(0.85 0 0 1 567.15625 357.6019287)" class="st2 st3">ability: xs::integer [0..1]</text>
<text transform="matrix(0.85 0 0 1 555.984375 366.3363037)" class="st2 st3">+</text>
<text transform="matrix(0.85 0 0 1 560.5537109 366.3363037)" class="st2 st3"> </text>
<text transform="matrix(0.85 0 0 1 567.15625 366.3363037)" class="st2 st3">packingName: gml::CodeType [0..1]</text>
<text transform="matrix(0.85 0 0 1 555.984375 375.0784912)" class="st2 st3">+</text>
<text transform="matrix(0.85 0 0 1 560.5537109 375.0784912)" class="st2 st3"> </text>
<text transform="matrix(0.85 0 0 1 567.15625 375.0784912)" class="st2 st3">acquisitionYear: xs::gYear [0..1]</text>
<text transform="matrix(0.85 0 0 1 555.984375 383.8206787)" class="st2 st3">+</text>
<text transform="matrix(0.85 0 0 1 560.5537109 383.8206787)" class="st2 st3"> </text>
<text transform="matrix(0.85 0 0 1 567.15625 383.8206787)" class="st2 st3">innerTotalFloorArea: gml::MeasureType [0..1]</text>
<text transform="matrix(0.85 0 0 1 555.984375 392.5706787)" class="st2 st3">+</text>
<text transform="matrix(0.85 0 0 1 560.5537109 392.5706787)" class="st2 st3"> </text>
<text transform="matrix(0.85 0 0 1 567.15625 392.5706787)" class="st2 st3">innerOfSiteArea: gml::MeasureType [0..1]</text>
<text transform="matrix(0.85 0 0 1 555.984375 401.3128662)" class="st2 st3">+</text>
<text transform="matrix(0.85 0 0 1 560.5537109 401.3128662)" class="st2 st3"> </text>
<text transform="matrix(0.85 0 0 1 567.15625 401.3128662)" class="st2 st3">outerOfTotalFloorArea: gml::MeasureType [0..1]</text>
<text transform="matrix(0.85 0 0 1 555.984375 410.0550537)" class="st2 st3">+</text>
<text transform="matrix(0.85 0 0 1 560.5537109 410.0550537)" class="st2 st3"> </text>
<text transform="matrix(0.85 0 0 1 567.15625 410.0550537)" class="st2 st3">outerSiteArea: gml::MeasureType [0..1]</text>
<text transform="matrix(0.85 0 0 1 555.984375 418.8050537)" class="st2 st3">+</text>
<text transform="matrix(0.85 0 0 1 560.5537109 418.8050537)" class="st2 st3"> </text>
<text transform="matrix(0.85 0 0 1 567.15625 418.8050537)" class="st2 st3">mainMaterial: gml::CodeType [0..1]</text>
<text transform="matrix(0.85 0 0 1 555.984375 427.5394287)" class="st2 st3">+</text>
<text transform="matrix(0.85 0 0 1 560.5537109 427.5394287)" class="st2 st3"> </text>
<text transform="matrix(0.85 0 0 1 567.15625 427.5394287)" class="st2 st3">totalCost: xs::integer [0..1]</text>
<text transform="matrix(0.85 0 0 1 555.984375 436.2816162)" class="st2 st3">+</text>
<text transform="matrix(0.85 0 0 1 560.5537109 436.2816162)" class="st2 st3"> </text>
<text transform="matrix(0.85 0 0 1 567.15625 436.2816162)" class="st2 st3">note: xs::string [0..1]</text>
<polygon class="st0" points="588.9945679,243.9430695 721.5496826,243.9430695 721.5496826,154.9716339 588.9945679,154.9716339 "/>
<polygon class="st1" points="588.9945679,243.9430695 721.5496826,243.9430695 721.5496826,154.9716339 588.9945679,154.9716339 "/>
<text transform="matrix(0.85 0 0 1 637.75 165.2581635)" class="st2 st3">«DataType»</text>
<text transform="matrix(0.85 0 0 1 615.40625 173.9925385)" class="st6 st3">uro::PortPassengerFacility</text>
<line class="st1" x1="588.9945679" y1="178.1144562" x2="721.0418091" y2="178.1144562"/>
<text transform="matrix(0.85 0 0 1 591.53125 187.375351)" class="st2 st3">+</text>
<text transform="matrix(0.85 0 0 1 596.1005859 187.375351)" class="st2 st3"> </text>
<text transform="matrix(0.85 0 0 1 602.703125 187.375351)" class="st2 st3">length: gml::LengthType [0..1]</text>
<text transform="matrix(0.85 0 0 1 591.53125 196.1175385)" class="st2 st3">+</text>
<text transform="matrix(0.85 0 0 1 596.1005859 196.1175385)" class="st2 st3"> </text>
<text transform="matrix(0.85 0 0 1 602.703125 196.1175385)" class="st2 st3">width: gml::LengthType [0..1]</text>
<text transform="matrix(0.85 0 0 1 591.53125 204.8519135)" class="st2 st3">+</text>
<text transform="matrix(0.85 0 0 1 596.1005859 204.8519135)" class="st2 st3"> </text>
<text transform="matrix(0.85 0 0 1 602.703125 204.8519135)" class="st2 st3">mainMaterial: gml::CodeType [0..1]</text>
<text transform="matrix(0.85 0 0 1 591.53125 213.594101)" class="st2 st3">+</text>
<text transform="matrix(0.85 0 0 1 596.1005859 213.594101)" class="st2 st3"> </text>
<text transform="matrix(0.85 0 0 1 602.703125 213.594101)" class="st2 st3">totalFloorArea: gml::MeasureType [0..1]</text>
<text transform="matrix(0.85 0 0 1 591.53125 222.3362885)" class="st2 st3">+</text>
<text transform="matrix(0.85 0 0 1 596.1005859 222.3362885)" class="st2 st3"> </text>
<text transform="matrix(0.85 0 0 1 602.703125 222.3362885)" class="st2 st3">acquisitionYear: xs::gYear [0..1]</text>
<text transform="matrix(0.85 0 0 1 591.53125 231.0862885)" class="st2 st3">+</text>
<text transform="matrix(0.85 0 0 1 596.1005859 231.0862885)" class="st2 st3"> </text>
<text transform="matrix(0.85 0 0 1 602.703125 231.0862885)" class="st2 st3">totalCost: xs::integer [0..1]</text>
<text transform="matrix(0.85 0 0 1 591.53125 239.828476)" class="st2 st3">+</text>
<text transform="matrix(0.85 0 0 1 596.1005859 239.828476)" class="st2 st3"> </text>
<text transform="matrix(0.85 0 0 1 602.703125 239.828476)" class="st2 st3">note: xs::string [0..1]</text>
<polygon class="st0" points="528.0496826,891.9431152 684.9827271,891.9431152 684.9827271,776.743103 528.0496826,776.743103 "/>
<polygon class="st1" points="528.0496826,891.9431152 684.9827271,891.9431152 684.9827271,776.743103 528.0496826,776.743103 "/>
<text transform="matrix(0.85 0 0 1 588.9921875 787.0238037)" class="st2 st3">«DataType»</text>
<text transform="matrix(0.85 0 0 1 570.7109375 795.7738037)" class="st6 st3">uro::PortStorageFacility</text>
<line class="st1" x1="528.0496826" y1="799.8859863" x2="684.4748535" y2="799.8859863"/>
<text transform="matrix(0.85 0 0 1 530.5859375 809.1409912)" class="st2 st3">+</text>
<text transform="matrix(0.85 0 0 1 535.1552734 809.1409912)" class="st2 st3"> </text>
<text transform="matrix(0.85 0 0 1 541.7578125 809.1409912)" class="st2 st3">innerTotalFloorArea: gml::MeasureType [0..1]</text>
<text transform="matrix(0.85 0 0 1 530.5859375 817.8831787)" class="st2 st3">+</text>
<text transform="matrix(0.85 0 0 1 535.1552734 817.8831787)" class="st2 st3"> </text>
<text transform="matrix(0.85 0 0 1 541.7578125 817.8831787)" class="st2 st3">innerOfSiteArea: gml::MeasureType [0..1]</text>
<text transform="matrix(0.85 0 0 1 530.5859375 826.6253662)" class="st2 st3">+</text>
<text transform="matrix(0.85 0 0 1 535.1552734 826.6253662)" class="st2 st3"> </text>
<text transform="matrix(0.85 0 0 1 541.7578125 826.6253662)" class="st2 st3">outerOfTotalFloorArea: gml::MeasureType [0..1]</text>
<text transform="matrix(0.85 0 0 1 530.5859375 835.3675537)" class="st2 st3">+</text>
<text transform="matrix(0.85 0 0 1 535.1552734 835.3675537)" class="st2 st3"> </text>
<text transform="matrix(0.85 0 0 1 541.7578125 835.3675537)" class="st2 st3">outerSiteArea: gml::MeasureType [0..1]</text>
<text transform="matrix(0.85 0 0 1 530.5859375 844.1175537)" class="st2 st3">+</text>
<text transform="matrix(0.85 0 0 1 535.1552734 844.1175537)" class="st2 st3"> </text>
<text transform="matrix(0.85 0 0 1 541.7578125 844.1175537)" class="st2 st3">mainCargo: gml::CodeType [0..1]</text>
<text transform="matrix(0.85 0 0 1 530.5859375 852.8519287)" class="st2 st3">+</text>
<text transform="matrix(0.85 0 0 1 535.1552734 852.8519287)" class="st2 st3"> </text>
<text transform="matrix(0.85 0 0 1 541.7578125 852.8519287)" class="st2 st3">storageCapacity: xs::integer [0..1]</text>
<text transform="matrix(0.85 0 0 1 530.5859375 861.5941162)" class="st2 st3">+</text>
<text transform="matrix(0.85 0 0 1 535.1552734 861.5941162)" class="st2 st3"> </text>
<text transform="matrix(0.85 0 0 1 541.7578125 861.5941162)" class="st2 st3">storageCapacityUnit: gml::CodeType [0..1]</text>
<text transform="matrix(0.85 0 0 1 530.5859375 870.3441162)" class="st2 st3">+</text>
<text transform="matrix(0.85 0 0 1 535.1552734 870.3441162)" class="st2 st3"> </text>
<text transform="matrix(0.85 0 0 1 541.7578125 870.3441162)" class="st2 st3">mainMaterial: gml::CodeType [0..1]</text>
<text transform="matrix(0.85 0 0 1 530.5859375 879.0863037)" class="st2 st3">+</text>
<text transform="matrix(0.85 0 0 1 535.1552734 879.0863037)" class="st2 st3"> </text>
<text transform="matrix(0.85 0 0 1 541.7578125 879.0863037)" class="st2 st3">totalCost: xs::integer [0..1]</text>
<text transform="matrix(0.85 0 0 1 530.5859375 887.8206787)" class="st2 st3">+</text>
<text transform="matrix(0.85 0 0 1 535.1552734 887.8206787)" class="st2 st3"> </text>
<text transform="matrix(0.85 0 0 1 541.7578125 887.8206787)" class="st2 st3">note: xs::string [0..1]</text>
<polygon class="st0" points="462.026001,712.4573975 591.026062,712.4573975 591.026062,597.2574463 462.026001,597.2574463 "/>
<polygon class="st1" points="462.026001,712.4573975 591.026062,712.4573975 591.026062,597.2574463 462.026001,597.2574463 "/>
<text transform="matrix(0.85 0 0 1 508.75 607.5394287)" class="st2 st3">«DataType»</text>
<text transform="matrix(0.85 0 0 1 491.9921875 616.2816162)" class="st6 st3">uro::ShipServiceFacility</text>
<line class="st1" x1="462.026001" y1="620.4002686" x2="590.5181885" y2="620.4002686"/>
<text transform="matrix(0.85 0 0 1 464.5625 629.6644287)" class="st2 st3">+</text>
<text transform="matrix(0.85 0 0 1 469.1318359 629.6644287)" class="st2 st3"> </text>
<text transform="matrix(0.85 0 0 1 475.7421875 629.6644287)" class="st2 st3">shipType: xs::string [0..1]</text>
<text transform="matrix(0.85 0 0 1 464.5625 638.3988037)" class="st2 st3">+</text>
<text transform="matrix(0.85 0 0 1 469.1318359 638.3988037)" class="st2 st3"> </text>
<text transform="matrix(0.85 0 0 1 475.7421875 638.3988037)" class="st2 st3">supplyAbility: xs::integer [0..1]</text>
<text transform="matrix(0.85 0 0 1 464.5625 647.1409912)" class="st2 st3">+</text>
<text transform="matrix(0.85 0 0 1 469.1318359 647.1409912)" class="st2 st3"> </text>
<text transform="matrix(0.85 0 0 1 475.7421875 647.1409912)" class="st2 st3">supplyAbilityUnit: gml::CodeType [0..1]</text>
<text transform="matrix(0.85 0 0 1 464.5625 655.8831787)" class="st2 st3">+</text>
<text transform="matrix(0.85 0 0 1 469.1318359 655.8831787)" class="st2 st3"> </text>
<text transform="matrix(0.85 0 0 1 475.7421875 655.8831787)" class="st2 st3">mooringPlace: xs::string [0..1]</text>
<text transform="matrix(0.85 0 0 1 464.5625 664.6175537)" class="st2 st3">+</text>
<text transform="matrix(0.85 0 0 1 469.1318359 664.6175537)" class="st2 st3"> </text>
<text transform="matrix(0.85 0 0 1 475.7421875 664.6175537)" class="st2 st3">length: gml::LengthType [0..1]</text>
<text transform="matrix(0.85 0 0 1 464.5625 673.3675537)" class="st2 st3">+</text>
<text transform="matrix(0.85 0 0 1 469.1318359 673.3675537)" class="st2 st3"> </text>
<text transform="matrix(0.85 0 0 1 475.7421875 673.3675537)" class="st2 st3">width: gml::LengthType [0..1]</text>
<text transform="matrix(0.85 0 0 1 464.5625 682.1097412)" class="st2 st3">+</text>
<text transform="matrix(0.85 0 0 1 469.1318359 682.1097412)" class="st2 st3"> </text>
<text transform="matrix(0.85 0 0 1 475.7421875 682.1097412)" class="st2 st3">area: gml::MeasureType [0..1]</text>
<text transform="matrix(0.85 0 0 1 464.5625 690.8519287)" class="st2 st3">+</text>
<text transform="matrix(0.85 0 0 1 469.1318359 690.8519287)" class="st2 st3"> </text>
<text transform="matrix(0.85 0 0 1 475.7421875 690.8519287)" class="st2 st3">acquisitionYear: xs::gYear [0..1]</text>
<text transform="matrix(0.85 0 0 1 464.5625 699.6019287)" class="st2 st3">+</text>
<text transform="matrix(0.85 0 0 1 469.1318359 699.6019287)" class="st2 st3"> </text>
<text transform="matrix(0.85 0 0 1 475.7421875 699.6019287)" class="st2 st3">totalCost: xs::integer [0..1]</text>
<text transform="matrix(0.85 0 0 1 464.5625 708.3441162)" class="st2 st3">+</text>
<text transform="matrix(0.85 0 0 1 469.1318359 708.3441162)" class="st2 st3"> </text>
<text transform="matrix(0.85 0 0 1 475.7421875 708.3441162)" class="st2 st3">note: xs::string [0..1]</text>
<polygon class="st0" points="192.8527374,655.3717041 346.2307129,655.3717041 346.2307129,478.9716492 192.8527374,478.9716492 "/>
<polygon class="st1" points="192.8527374,655.3717041 346.2307129,655.3717041 346.2307129,478.9716492 192.8527374,478.9716492 "/>
<text transform="matrix(0.85 0 0 1 251.765625 489.2503662)" class="st2 st3">«DataType»</text>
<text transform="matrix(0.85 0 0 1 219.765625 498.0003662)" class="st6 st3">uro::PortWasteTreatmentFacility</text>
<line class="st1" x1="192.8527374" y1="502.1144714" x2="345.7228394" y2="502.1144714"/>
<text transform="matrix(0.85 0 0 1 195.390625 511.3675537)" class="st2 st3">+</text>
<text transform="matrix(0.85 0 0 1 199.9599609 511.3675537)" class="st2 st3"> </text>
<text transform="matrix(0.85 0 0 1 206.5625 511.3675537)" class="st2 st3">structureType: gml::CodeType [0..1]</text>
<text transform="matrix(0.85 0 0 1 195.390625 520.1097412)" class="st2 st3">+</text>
<text transform="matrix(0.85 0 0 1 199.9599609 520.1097412)" class="st2 st3"> </text>
<text transform="matrix(0.85 0 0 1 206.5625 520.1097412)" class="st2 st3">perimeter: gml::LengthType [0..1]</text>
<text transform="matrix(0.85 0 0 1 195.390625 528.8597412)" class="st2 st3">+</text>
<text transform="matrix(0.85 0 0 1 199.9599609 528.8597412)" class="st2 st3"> </text>
<text transform="matrix(0.85 0 0 1 206.5625 528.8597412)" class="st2 st3">mainPartLength: gml::LengthType [0..1]</text>
<text transform="matrix(0.85 0 0 1 195.390625 537.6019287)" class="st2 st3">+</text>
<text transform="matrix(0.85 0 0 1 199.9599609 537.6019287)" class="st2 st3"> </text>
<text transform="matrix(0.85 0 0 1 206.5625 537.6019287)" class="st2 st3">innterShoreLength: gml::LengthType [0..1]</text>
<text transform="matrix(0.85 0 0 1 195.390625 546.3363037)" class="st2 st3">+</text>
<text transform="matrix(0.85 0 0 1 199.9599609 546.3363037)" class="st2 st3"> </text>
<text transform="matrix(0.85 0 0 1 206.5625 546.3363037)" class="st2 st3">ceilingHeight: gml::LengthType [0..1]</text>
<text transform="matrix(0.85 0 0 1 195.390625 555.0784912)" class="st2 st3">+</text>
<text transform="matrix(0.85 0 0 1 199.9599609 555.0784912)" class="st2 st3"> </text>
<text transform="matrix(0.85 0 0 1 206.5625 555.0784912)" class="st2 st3">waveDissipatorLength: gml::LengthType [0..1]</text>
<text transform="matrix(0.85 0 0 1 195.390625 563.8206787)" class="st2 st3">+</text>
<text transform="matrix(0.85 0 0 1 199.9599609 563.8206787)" class="st2 st3"> </text>
<text transform="matrix(0.85 0 0 1 206.5625 563.8206787)" class="st2 st3">mainMaterial: gml::CodeType [0..1]</text>
<text transform="matrix(0.85 0 0 1 195.390625 572.5706787)" class="st2 st3">+</text>
<text transform="matrix(0.85 0 0 1 199.9599609 572.5706787)" class="st2 st3"> </text>
<text transform="matrix(0.85 0 0 1 206.5625 572.5706787)" class="st2 st3">wasteType: gml::CodeType [0..1]</text>
<text transform="matrix(0.85 0 0 1 195.390625 581.3128662)" class="st2 st3">+</text>
<text transform="matrix(0.85 0 0 1 199.9599609 581.3128662)" class="st2 st3"> </text>
<text transform="matrix(0.85 0 0 1 206.5625 581.3128662)" class="st2 st3">plannedDisposalArea: gml::MeasureType [0..1]</text>
<text transform="matrix(0.85 0 0 1 195.390625 590.0550537)" class="st2 st3">+</text>
<text transform="matrix(0.85 0 0 1 199.9599609 590.0550537)" class="st2 st3"> </text>
<text transform="matrix(0.85 0 0 1 206.5625 590.0550537)" class="st2 st3">plannedDisposalAmount: xs::integer [0..1]</text>
<text transform="matrix(0.85 0 0 1 195.390625 598.8050537)" class="st2 st3">+</text>
<text transform="matrix(0.85 0 0 1 199.9599609 598.8050537)" class="st2 st3"> </text>
<text transform="matrix(0.85 0 0 1 206.5625 598.8050537)" class="st2 st3">receivingCapacity: xs::integer [0..1]</text>
<text transform="matrix(0.85 0 0 1 195.390625 607.5394287)" class="st2 st3">+</text>
<text transform="matrix(0.85 0 0 1 199.9599609 607.5394287)" class="st2 st3"> </text>
<text transform="matrix(0.85 0 0 1 206.5625 607.5394287)" class="st2 st3">shipType: xs::string [0..1]</text>
<text transform="matrix(0.85 0 0 1 195.390625 616.2816162)" class="st2 st3">+</text>
<text transform="matrix(0.85 0 0 1 199.9599609 616.2816162)" class="st2 st3"> </text>
<text transform="matrix(0.85 0 0 1 206.5625 616.2816162)" class="st2 st3">unitOfReceivingCapacity: gml::CodeType [0..1]</text>
<text transform="matrix(0.85 0 0 1 195.390625 625.0316162)" class="st2 st3">+</text>
<text transform="matrix(0.85 0 0 1 199.9599609 625.0316162)" class="st2 st3"> </text>
<text transform="matrix(0.85 0 0 1 206.5625 625.0316162)" class="st2 st3">acquisitionYear: xs::gYear [0..1]</text>
<text transform="matrix(0.85 0 0 1 195.390625 633.7738037)" class="st2 st3">+</text>
<text transform="matrix(0.85 0 0 1 199.9599609 633.7738037)" class="st2 st3"> </text>
<text transform="matrix(0.85 0 0 1 206.5625 633.7738037)" class="st2 st3">totalCost: xs::integer [0..1]</text>
<text transform="matrix(0.85 0 0 1 195.390625 642.5081787)" class="st2 st3">+</text>
<text transform="matrix(0.85 0 0 1 199.9599609 642.5081787)" class="st2 st3"> </text>
<text transform="matrix(0.85 0 0 1 206.5625 642.5081787)" class="st2 st3">subsidy: xs::integer [0..1]</text>
<text transform="matrix(0.85 0 0 1 195.390625 651.2503662)" class="st2 st3">+</text>
<text transform="matrix(0.85 0 0 1 199.9599609 651.2503662)" class="st2 st3"> </text>
<text transform="matrix(0.85 0 0 1 206.5625 651.2503662)" class="st2 st3">note: xs::string [0..1]</text>
<polygon class="st0" points="385.8448792,880.114563 518.4000244,880.114563 518.4000244,782.4002686 385.8448792,782.4002686 "/>
<polygon class="st1" points="385.8448792,880.114563 518.4000244,880.114563 518.4000244,782.4002686 385.8448792,782.4002686 "/>
<text transform="matrix(0.85 0 0 1 434.59375 792.6878662)" class="st2 st3">«DataType»</text>
<text transform="matrix(0.85 0 0 1 445.265625 801.4300537)" class="st6 st3">uro::</text>
<text transform="matrix(0.85 0 0 1 391.4375 810.1644287)" class="st6 st3">PortEnvironmentalImprovementFacility</text>
<line class="st1" x1="385.8448792" y1="814.2859497" x2="517.8921509" y2="814.2859497"/>
<text transform="matrix(0.85 0 0 1 388.3828125 823.5394287)" class="st2 st3">+</text>
<text transform="matrix(0.85 0 0 1 392.9521484 823.5394287)" class="st2 st3"> </text>
<text transform="matrix(0.85 0 0 1 399.5625 823.5394287)" class="st2 st3">usage: xs::string [0..1]</text>
<text transform="matrix(0.85 0 0 1 388.3828125 832.2738037)" class="st2 st3">+</text>
<text transform="matrix(0.85 0 0 1 392.9521484 832.2738037)" class="st2 st3"> </text>
<text transform="matrix(0.85 0 0 1 399.5625 832.2738037)" class="st2 st3">length: gml::LengthType [0..1]</text>
<text transform="matrix(0.85 0 0 1 388.3828125 841.0238037)" class="st2 st3">+</text>
<text transform="matrix(0.85 0 0 1 392.9521484 841.0238037)" class="st2 st3"> </text>
<text transform="matrix(0.85 0 0 1 399.5625 841.0238037)" class="st2 st3">area: gml::MeasureType [0..1]</text>
<text transform="matrix(0.85 0 0 1 388.3828125 849.7659912)" class="st2 st3">+</text>
<text transform="matrix(0.85 0 0 1 392.9521484 849.7659912)" class="st2 st3"> </text>
<text transform="matrix(0.85 0 0 1 399.5625 849.7659912)" class="st2 st3">totalFloorArea: gml::MeasureType [0..1]</text>
<text transform="matrix(0.85 0 0 1 388.3828125 858.5081787)" class="st2 st3">+</text>
<text transform="matrix(0.85 0 0 1 392.9521484 858.5081787)" class="st2 st3"> </text>
<text transform="matrix(0.85 0 0 1 399.5625 858.5081787)" class="st2 st3">totalCost: xs::integer [0..1]</text>
<text transform="matrix(0.85 0 0 1 388.3828125 867.2581787)" class="st2 st3">+</text>
<text transform="matrix(0.85 0 0 1 392.9521484 867.2581787)" class="st2 st3"> </text>
<text transform="matrix(0.85 0 0 1 399.5625 867.2581787)" class="st2 st3">subsidy: xs::integer [0..1]</text>
<text transform="matrix(0.85 0 0 1 388.3828125 876.0003662)" class="st2 st3">+</text>
<text transform="matrix(0.85 0 0 1 392.9521484 876.0003662)" class="st2 st3"> </text>
<text transform="matrix(0.85 0 0 1 399.5625 876.0003662)" class="st2 st3">note: xs::string [0..1]</text>
<polygon class="st0" points="380.7661438,585.428833 527.0339355,585.428833 527.0339355,478.9716492 380.7661438,478.9716492 "/>
<polygon class="st1" points="380.7661438,585.428833 527.0339355,585.428833 527.0339355,478.9716492 380.7661438,478.9716492 "/>
<text transform="matrix(0.85 0 0 1 436.125 489.2503662)" class="st2 st3">«DataType»</text>
<text transform="matrix(0.85 0 0 1 404.640625 498.0003662)" class="st6 st3">uro::PortPollutionControlFacility</text>
<line class="st1" x1="380.7661438" y1="502.1144714" x2="526.526062" y2="502.1144714"/>
<text transform="matrix(0.85 0 0 1 383.3046875 511.3675537)" class="st2 st3">+</text>
<text transform="matrix(0.85 0 0 1 387.8740234 511.3675537)" class="st2 st3"> </text>
<text transform="matrix(0.85 0 0 1 394.484375 511.3675537)" class="st2 st3">length: gml::LengthType [0..1]</text>
<text transform="matrix(0.85 0 0 1 383.3046875 520.1097412)" class="st2 st3">+</text>
<text transform="matrix(0.85 0 0 1 387.8740234 520.1097412)" class="st2 st3"> </text>
<text transform="matrix(0.85 0 0 1 394.484375 520.1097412)" class="st2 st3">width: gml::LengthType [0..1]</text>
<text transform="matrix(0.85 0 0 1 383.3046875 528.8597412)" class="st2 st3">+</text>
<text transform="matrix(0.85 0 0 1 387.8740234 528.8597412)" class="st2 st3"> </text>
<text transform="matrix(0.85 0 0 1 394.484375 528.8597412)" class="st2 st3">crossSectionalArea: gml::MeasureType [0..1]</text>
<text transform="matrix(0.85 0 0 1 383.3046875 537.6019287)" class="st2 st3">+</text>
<text transform="matrix(0.85 0 0 1 387.8740234 537.6019287)" class="st2 st3"> </text>
<text transform="matrix(0.85 0 0 1 394.484375 537.6019287)" class="st2 st3">area: gml::MeasureType [0..1]</text>
<text transform="matrix(0.85 0 0 1 383.3046875 546.3363037)" class="st2 st3">+</text>
<text transform="matrix(0.85 0 0 1 387.8740234 546.3363037)" class="st2 st3"> </text>
<text transform="matrix(0.85 0 0 1 394.484375 546.3363037)" class="st2 st3">height: gml::LengthType [0..1]</text>
<text transform="matrix(0.85 0 0 1 383.3046875 555.0784912)" class="st2 st3">+</text>
<text transform="matrix(0.85 0 0 1 387.8740234 555.0784912)" class="st2 st3"> </text>
<text transform="matrix(0.85 0 0 1 394.484375 555.0784912)" class="st2 st3">mainMaterial: gml::CodeType [0..1]</text>
<text transform="matrix(0.85 0 0 1 383.3046875 563.8206787)" class="st2 st3">+</text>
<text transform="matrix(0.85 0 0 1 387.8740234 563.8206787)" class="st2 st3"> </text>
<text transform="matrix(0.85 0 0 1 394.484375 563.8206787)" class="st2 st3">totalCost: xs::integer [0..1]</text>
<text transform="matrix(0.85 0 0 1 383.3046875 572.5706787)" class="st2 st3">+</text>
<text transform="matrix(0.85 0 0 1 387.8740234 572.5706787)" class="st2 st3"> </text>
<text transform="matrix(0.85 0 0 1 394.484375 572.5706787)" class="st2 st3">subsidy: xs::integer [0..1]</text>
<text transform="matrix(0.85 0 0 1 383.3046875 581.3128662)" class="st2 st3">+</text>
<text transform="matrix(0.85 0 0 1 387.8740234 581.3128662)" class="st2 st3"> </text>
<text transform="matrix(0.85 0 0 1 394.484375 581.3128662)" class="st2 st3">note: xs::string [0..1]</text>
<polygon class="st0" points="243.6401367,877.0288086 376.195282,877.0288086 376.195282,823.0288086 243.6401367,823.0288086 "/>
<polygon class="st1" points="243.6401367,877.0288086 376.195282,877.0288086 376.195282,823.0288086 243.6401367,823.0288086 "/>
<text transform="matrix(0.85 0 0 1 292.3984375 833.3128662)" class="st2 st3">«DataType»</text>
<text transform="matrix(0.85 0 0 1 274.109375 842.0550537)" class="st6 st3">uro::PortWelfareFacility</text>
<line class="st1" x1="243.6401367" y1="846.1716919" x2="375.6874084" y2="846.1716919"/>
<text transform="matrix(0.85 0 0 1 246.1796875 855.4222412)" class="st2 st3">+</text>
<text transform="matrix(0.85 0 0 1 250.7490234 855.4222412)" class="st2 st3"> </text>
<text transform="matrix(0.85 0 0 1 257.3515625 855.4222412)" class="st2 st3">totalFloorArea: gml::MeasureType [0..1]</text>
<text transform="matrix(0.85 0 0 1 246.1796875 864.1722412)" class="st2 st3">+</text>
<text transform="matrix(0.85 0 0 1 250.7490234 864.1722412)" class="st2 st3"> </text>
<text transform="matrix(0.85 0 0 1 257.3515625 864.1722412)" class="st2 st3">totalCost: xs::integer [0..1]</text>
<text transform="matrix(0.85 0 0 1 246.1796875 872.9144287)" class="st2 st3">+</text>
<text transform="matrix(0.85 0 0 1 250.7490234 872.9144287)" class="st2 st3"> </text>
<text transform="matrix(0.85 0 0 1 257.3515625 872.9144287)" class="st2 st3">note: xs::string [0..1]</text>
<polygon class="st0" points="553.4433594,585.9431152 685.9984741,585.9431152 685.9984741,479.4859314 553.4433594,479.4859314 "/>
<polygon class="st1" points="553.4433594,585.9431152 685.9984741,585.9431152 685.9984741,479.4859314 553.4433594,479.4859314 "/>
<text transform="matrix(0.85 0 0 1 602.1953125 489.7659912)" class="st2 st3">«DataType»</text>
<text transform="matrix(0.85 0 0 1 575.28125 498.5081787)" class="st6 st3">uro::PortManagementFacility</text>
<line class="st1" x1="553.4433594" y1="502.6287537" x2="685.4906006" y2="502.6287537"/>
<text transform="matrix(0.85 0 0 1 555.984375 511.8831787)" class="st2 st3">+</text>
<text transform="matrix(0.85 0 0 1 560.5537109 511.8831787)" class="st2 st3"> </text>
<text transform="matrix(0.85 0 0 1 567.15625 511.8831787)" class="st2 st3">totalFloorArea: gml::MeasureType [0..1]</text>
<text transform="matrix(0.85 0 0 1 555.984375 520.6253662)" class="st2 st3">+</text>
<text transform="matrix(0.85 0 0 1 560.5537109 520.6253662)" class="st2 st3"> </text>
<text transform="matrix(0.85 0 0 1 567.15625 520.6253662)" class="st2 st3">numberOfShipTypes: xs::integer [0..1]</text>
<text transform="matrix(0.85 0 0 1 555.984375 529.3675537)" class="st2 st3">+</text>
<text transform="matrix(0.85 0 0 1 560.5537109 529.3675537)" class="st2 st3"> </text>
<text transform="matrix(0.85 0 0 1 567.15625 529.3675537)" class="st2 st3">unitOfShipType: gml::CodeType [0..1]</text>
<text transform="matrix(0.85 0 0 1 555.984375 538.1175537)" class="st2 st3">+</text>
<text transform="matrix(0.85 0 0 1 560.5537109 538.1175537)" class="st2 st3"> </text>
<text transform="matrix(0.85 0 0 1 567.15625 538.1175537)" class="st2 st3">loadingCapacity: xs::integer [0..1]</text>
<text transform="matrix(0.85 0 0 1 555.984375 546.8597412)" class="st2 st3">+</text>
<text transform="matrix(0.85 0 0 1 560.5537109 546.8597412)" class="st2 st3"> </text>
<text transform="matrix(0.85 0 0 1 567.15625 546.8597412)" class="st2 st3">acquisitionYear: xs::gYear [0..1]</text>
<text transform="matrix(0.85 0 0 1 555.984375 555.6019287)" class="st2 st3">+</text>
<text transform="matrix(0.85 0 0 1 560.5537109 555.6019287)" class="st2 st3"> </text>
<text transform="matrix(0.85 0 0 1 567.15625 555.6019287)" class="st2 st3">usage: xs::string [0..1]</text>
<text transform="matrix(0.85 0 0 1 555.984375 564.3363037)" class="st2 st3">+</text>
<text transform="matrix(0.85 0 0 1 560.5537109 564.3363037)" class="st2 st3"> </text>
<text transform="matrix(0.85 0 0 1 567.15625 564.3363037)" class="st2 st3">totalCost: xs::integer [0..1]</text>
<text transform="matrix(0.85 0 0 1 555.984375 573.0784912)" class="st2 st3">+</text>
<text transform="matrix(0.85 0 0 1 560.5537109 573.0784912)" class="st2 st3"> </text>
<text transform="matrix(0.85 0 0 1 567.15625 573.0784912)" class="st2 st3">subsidy: xs::integer [0..1]</text>
<text transform="matrix(0.85 0 0 1 555.984375 581.8284912)" class="st2 st3">+</text>
<text transform="matrix(0.85 0 0 1 560.5537109 581.8284912)" class="st2 st3"> </text>
<text transform="matrix(0.85 0 0 1 567.15625 581.8284912)" class="st2 st3">note: xs::string [0..1]</text>
<polygon class="st0" points="10.018074,856.4573975 166.9511566,856.4573975 166.9511566,478.9716492 10.018074,478.9716492 "/>
<polygon class="st1" points="10.018074,856.4573975 166.9511566,856.4573975 166.9511566,478.9716492 10.018074,478.9716492 "/>
<text transform="matrix(0.85 0 0 1 70.96875 489.2503662)" class="st2 st3">«DataType»</text>
<text transform="matrix(0.85 0 0 1 43.0234375 498.0003662)" class="st6 st3">uro::CyberportMarinaAndPBS</text>
<line class="st1" x1="10.018074" y1="502.1144714" x2="166.4432831" y2="502.1144714"/>
<text transform="matrix(0.85 0 0 1 12.5546875 511.3675537)" class="st2 st3">+</text>
<text transform="matrix(0.85 0 0 1 17.1240234 511.3675537)" class="st2 st3"> </text>
<text transform="matrix(0.85 0 0 1 23.7265625 511.3675537)" class="st2 st3">geologicalType: gml::CodeType [0..1]</text>
<text transform="matrix(0.85 0 0 1 12.5546875 520.1097412)" class="st2 st3">+</text>
<text transform="matrix(0.85 0 0 1 17.1240234 520.1097412)" class="st2 st3"> </text>
<text transform="matrix(0.85 0 0 1 23.7265625 520.1097412)" class="st2 st3">obstructingStructures: xs::string [0..1]</text>
<text transform="matrix(0.85 0 0 1 12.5546875 528.8597412)" class="st2 st3">+</text>
<text transform="matrix(0.85 0 0 1 17.1240234 528.8597412)" class="st2 st3"> </text>
<text transform="matrix(0.85 0 0 1 23.7265625 528.8597412)" class="st2 st3">mainPartLength: gml::LengthType [0..1]</text>
<text transform="matrix(0.85 0 0 1 12.5546875 537.6019287)" class="st2 st3">+</text>
<text transform="matrix(0.85 0 0 1 17.1240234 537.6019287)" class="st2 st3"> </text>
<text transform="matrix(0.85 0 0 1 23.7265625 537.6019287)" class="st2 st3">totalLength: gml::LengthType [0..1]</text>
<text transform="matrix(0.85 0 0 1 12.5546875 546.3363037)" class="st2 st3">+</text>
<text transform="matrix(0.85 0 0 1 17.1240234 546.3363037)" class="st2 st3"> </text>
<text transform="matrix(0.85 0 0 1 23.7265625 546.3363037)" class="st2 st3">waveDissipatorLength: gml::LengthType [0..1]</text>
<text transform="matrix(0.85 0 0 1 12.5546875 555.0784912)" class="st2 st3">+</text>
<text transform="matrix(0.85 0 0 1 17.1240234 555.0784912)" class="st2 st3"> </text>
<text transform="matrix(0.85 0 0 1 23.7265625 555.0784912)" class="st2 st3">facilityWidth: gml::LengthType [0..1]</text>
<text transform="matrix(0.85 0 0 1 12.5546875 563.8206787)" class="st2 st3">+</text>
<text transform="matrix(0.85 0 0 1 17.1240234 563.8206787)" class="st2 st3"> </text>
<text transform="matrix(0.85 0 0 1 23.7265625 563.8206787)" class="st2 st3">apronWidth: gml::LengthType [0..1]</text>
<text transform="matrix(0.85 0 0 1 12.5546875 572.5706787)" class="st2 st3">+</text>
<text transform="matrix(0.85 0 0 1 17.1240234 572.5706787)" class="st2 st3"> </text>
<text transform="matrix(0.85 0 0 1 23.7265625 572.5706787)" class="st2 st3">restrictionStructure: xs::string [0..1]</text>
<text transform="matrix(0.85 0 0 1 12.5546875 581.3128662)" class="st2 st3">+</text>
<text transform="matrix(0.85 0 0 1 17.1240234 581.3128662)" class="st2 st3"> </text>
<text transform="matrix(0.85 0 0 1 23.7265625 581.3128662)" class="st2 st3">plannedDepth: gml::LengthType [0..1]</text>
<text transform="matrix(0.85 0 0 1 12.5546875 590.0550537)" class="st2 st3">+</text>
<text transform="matrix(0.85 0 0 1 17.1240234 590.0550537)" class="st2 st3"> </text>
<text transform="matrix(0.85 0 0 1 23.7265625 590.0550537)" class="st2 st3">currentDepth: gml::LengthType [0..1]</text>
<text transform="matrix(0.85 0 0 1 12.5546875 598.8050537)" class="st2 st3">+</text>
<text transform="matrix(0.85 0 0 1 17.1240234 598.8050537)" class="st2 st3"> </text>
<text transform="matrix(0.85 0 0 1 23.7265625 598.8050537)" class="st2 st3">innerTotalFloorArea: gml::MeasureType [0..1]</text>
<text transform="matrix(0.85 0 0 1 12.5546875 607.5394287)" class="st2 st3">+</text>
<text transform="matrix(0.85 0 0 1 17.1240234 607.5394287)" class="st2 st3"> </text>
<text transform="matrix(0.85 0 0 1 23.7265625 607.5394287)" class="st2 st3">innerOfSiteArea: gml::MeasureType [0..1]</text>
<text transform="matrix(0.85 0 0 1 12.5546875 616.2816162)" class="st2 st3">+</text>
<text transform="matrix(0.85 0 0 1 17.1240234 616.2816162)" class="st2 st3"> </text>
<text transform="matrix(0.85 0 0 1 23.7265625 616.2816162)" class="st2 st3">outerOfTotalFloorArea: gml::MeasureType [0..1]</text>
<text transform="matrix(0.85 0 0 1 12.5546875 625.0316162)" class="st2 st3">+</text>
<text transform="matrix(0.85 0 0 1 17.1240234 625.0316162)" class="st2 st3"> </text>
<text transform="matrix(0.85 0 0 1 23.7265625 625.0316162)" class="st2 st3">outerSiteArea: gml::MeasureType [0..1]</text>
<text transform="matrix(0.85 0 0 1 12.5546875 633.7738037)" class="st2 st3">+</text>
<text transform="matrix(0.85 0 0 1 17.1240234 633.7738037)" class="st2 st3"> </text>
<text transform="matrix(0.85 0 0 1 23.7265625 633.7738037)" class="st2 st3">ceilingHeight: gml::LengthType [0..1]</text>
<text transform="matrix(0.85 0 0 1 12.5546875 642.5081787)" class="st2 st3">+</text>
<text transform="matrix(0.85 0 0 1 17.1240234 642.5081787)" class="st2 st3"> </text>
<text transform="matrix(0.85 0 0 1 23.7265625 642.5081787)" class="st2 st3">gravityResistant: gml::MeasureType [0..1]</text>
<text transform="matrix(0.85 0 0 1 12.5546875 651.2503662)" class="st2 st3">+</text>
<text transform="matrix(0.85 0 0 1 17.1240234 651.2503662)" class="st2 st3"> </text>
<text transform="matrix(0.85 0 0 1 23.7265625 651.2503662)" class="st2 st3">form: gml::CodeType [0..1]</text>
<text transform="matrix(0.85 0 0 1 12.5546875 659.9925537)" class="st2 st3">+</text>
<text transform="matrix(0.85 0 0 1 17.1240234 659.9925537)" class="st2 st3"> </text>
<text transform="matrix(0.85 0 0 1 23.7265625 659.9925537)" class="st2 st3">areaType: gml::CodeType [0..1]</text>
<text transform="matrix(0.85 0 0 1 12.5546875 668.7425537)" class="st2 st3">+</text>
<text transform="matrix(0.85 0 0 1 17.1240234 668.7425537)" class="st2 st3"> </text>
<text transform="matrix(0.85 0 0 1 23.7265625 668.7425537)" class="st2 st3">mainVessels: gml::CodeType [0..1]</text>
<text transform="matrix(0.85 0 0 1 12.5546875 677.4847412)" class="st2 st3">+</text>
<text transform="matrix(0.85 0 0 1 17.1240234 677.4847412)" class="st2 st3"> </text>
<text transform="matrix(0.85 0 0 1 23.7265625 677.4847412)" class="st2 st3">isDredged: xs::boolean [0..1]</text>
<text transform="matrix(0.85 0 0 1 12.5546875 686.2269287)" class="st2 st3">+</text>
<text transform="matrix(0.85 0 0 1 17.1240234 686.2269287)" class="st2 st3"> </text>
<text transform="matrix(0.85 0 0 1 23.7265625 686.2269287)" class="st2 st3">mooringPostWeight: gml::MeasureType [0..1]</text>
<text transform="matrix(0.85 0 0 1 12.5546875 694.9769287)" class="st2 st3">+</text>
<text transform="matrix(0.85 0 0 1 17.1240234 694.9769287)" class="st2 st3"> </text>
<text transform="matrix(0.85 0 0 1 23.7265625 694.9769287)" class="st2 st3">numberOfMooringPosts: xs::integer [0..1]</text>
<text transform="matrix(0.85 0 0 1 12.5546875 703.7113037)" class="st2 st3">+</text>
<text transform="matrix(0.85 0 0 1 17.1240234 703.7113037)" class="st2 st3"> </text>
<text transform="matrix(0.85 0 0 1 23.7265625 703.7113037)" class="st2 st3">resistantMaterial: xs::integer [0..1]</text>
<text transform="matrix(0.85 0 0 1 12.5546875 712.4534912)" class="st2 st3">+</text>
<text transform="matrix(0.85 0 0 1 17.1240234 712.4534912)" class="st2 st3"> </text>
<text transform="matrix(0.85 0 0 1 23.7265625 712.4534912)" class="st2 st3">lighting: xs::integer [0..1]</text>
<text transform="matrix(0.85 0 0 1 12.5546875 721.2034912)" class="st2 st3">+</text>
<text transform="matrix(0.85 0 0 1 17.1240234 721.2034912)" class="st2 st3"> </text>
<text transform="matrix(0.85 0 0 1 23.7265625 721.2034912)" class="st2 st3">stairs: xs::integer [0..1]</text>
<text transform="matrix(0.85 0 0 1 12.5546875 729.9456787)" class="st2 st3">+</text>
<text transform="matrix(0.85 0 0 1 17.1240234 729.9456787)" class="st2 st3"> </text>
<text transform="matrix(0.85 0 0 1 23.7265625 729.9456787)" class="st2 st3">lifesaving: xs::string [0..1]</text>
<text transform="matrix(0.85 0 0 1 12.5546875 738.6800537)" class="st2 st3">+</text>
<text transform="matrix(0.85 0 0 1 17.1240234 738.6800537)" class="st2 st3"> </text>
<text transform="matrix(0.85 0 0 1 23.7265625 738.6800537)" class="st2 st3">lifesavingNumber: xs::integer [0..1]</text>
<text transform="matrix(0.85 0 0 1 12.5546875 747.4222412)" class="st2 st3">+</text>
<text transform="matrix(0.85 0 0 1 17.1240234 747.4222412)" class="st2 st3"> </text>
<text transform="matrix(0.85 0 0 1 23.7265625 747.4222412)" class="st2 st3">bumper: gml::LengthType [0..1]</text>
<text transform="matrix(0.85 0 0 1 12.5546875 756.1644287)" class="st2 st3">+</text>
<text transform="matrix(0.85 0 0 1 17.1240234 756.1644287)" class="st2 st3"> </text>
<text transform="matrix(0.85 0 0 1 23.7265625 756.1644287)" class="st2 st3">numberOfVehicleBoardings: xs::integer [0..1]</text>
<text transform="matrix(0.85 0 0 1 12.5546875 764.9144287)" class="st2 st3">+</text>
<text transform="matrix(0.85 0 0 1 17.1240234 764.9144287)" class="st2 st3"> </text>
<text transform="matrix(0.85 0 0 1 23.7265625 764.9144287)" class="st2 st3">vehicleBoardingWidth: gml::LengthType [0..1]</text>
<text transform="matrix(0.85 0 0 1 12.5546875 773.6566162)" class="st2 st3">+</text>
<text transform="matrix(0.85 0 0 1 17.1240234 773.6566162)" class="st2 st3"> </text>
<text transform="matrix(0.85 0 0 1 23.7265625 773.6566162)" class="st2 st3">shipType: xs::string [0..1]</text>
<text transform="matrix(0.85 0 0 1 12.5546875 782.3988037)" class="st2 st3">+</text>
<text transform="matrix(0.85 0 0 1 17.1240234 782.3988037)" class="st2 st3"> </text>
<text transform="matrix(0.85 0 0 1 23.7265625 782.3988037)" class="st2 st3">numberOfSeats: xs::integer [0..1]</text>
<text transform="matrix(0.85 0 0 1 12.5546875 791.1488037)" class="st2 st3">+</text>
<text transform="matrix(0.85 0 0 1 17.1240234 791.1488037)" class="st2 st3"> </text>
<text transform="matrix(0.85 0 0 1 23.7265625 791.1488037)" class="st2 st3">mainCargo: gml::CodeType [0..1]</text>
<text transform="matrix(0.85 0 0 1 12.5546875 799.8831787)" class="st2 st3">+</text>
<text transform="matrix(0.85 0 0 1 17.1240234 799.8831787)" class="st2 st3"> </text>
<text transform="matrix(0.85 0 0 1 23.7265625 799.8831787)" class="st2 st3">storageCapacity: xs::integer [0..1]</text>
<text transform="matrix(0.85 0 0 1 12.5546875 808.6253662)" class="st2 st3">+</text>
<text transform="matrix(0.85 0 0 1 17.1240234 808.6253662)" class="st2 st3"> </text>
<text transform="matrix(0.85 0 0 1 23.7265625 808.6253662)" class="st2 st3">storageCapacityUnit: gml::CodeType [0..1]</text>
<text transform="matrix(0.85 0 0 1 12.5546875 817.3753662)" class="st2 st3">+</text>
<text transform="matrix(0.85 0 0 1 17.1240234 817.3753662)" class="st2 st3"> </text>
<text transform="matrix(0.85 0 0 1 23.7265625 817.3753662)" class="st2 st3">structureType: gml::CodeType [0..1]</text>
<text transform="matrix(0.85 0 0 1 12.5546875 826.1175537)" class="st2 st3">+</text>
<text transform="matrix(0.85 0 0 1 17.1240234 826.1175537)" class="st2 st3"> </text>
<text transform="matrix(0.85 0 0 1 23.7265625 826.1175537)" class="st2 st3">mainMaterial: gml::CodeType [0..1]</text>
<text transform="matrix(0.85 0 0 1 12.5546875 834.8519287)" class="st2 st3">+</text>
<text transform="matrix(0.85 0 0 1 17.1240234 834.8519287)" class="st2 st3"> </text>
<text transform="matrix(0.85 0 0 1 23.7265625 834.8519287)" class="st2 st3">totalCost: xs::integer [0..1]</text>
<text transform="matrix(0.85 0 0 1 12.5546875 843.5941162)" class="st2 st3">+</text>
<text transform="matrix(0.85 0 0 1 17.1240234 843.5941162)" class="st2 st3"> </text>
<text transform="matrix(0.85 0 0 1 23.7265625 843.5941162)" class="st2 st3">subsidy: xs::integer [0..1]</text>
<text transform="matrix(0.85 0 0 1 12.5546875 852.3363037)" class="st2 st3">+</text>
<text transform="matrix(0.85 0 0 1 17.1240234 852.3363037)" class="st2 st3"> </text>
<text transform="matrix(0.85 0 0 1 23.7265625 852.3363037)" class="st2 st3">note: xs::string [0..1]</text>
<polygon class="st0" points="152.2228088,78.3429718 238.0535278,78.3429718 238.0535278,41.8286934 152.2228088,41.8286934 "/>
<polygon class="st1" points="152.2228088,78.3429718 238.0535278,78.3429718 238.0535278,41.8286934 152.2228088,41.8286934 "/>
<text transform="matrix(0.85 0 0 1 177.6171875 52.109726)" class="st2 st3">«DataType»</text>
<text transform="matrix(0.85 0 -0.3126727 0.9498609 163.9070435 60.861187)" class="st2 st4">u</text>
<text transform="matrix(0.85 0 -0.3126727 0.9498609 163.9070435 60.861187)" class="st5 st2 st4">u</text>
<text transform="matrix(0.85 0 -0.3126727 0.9498609 167.9666138 60.861187)" class="st2 st4">r</text>
<text transform="matrix(0.85 0 -0.3126727 0.9498609 167.9666138 60.861187)" class="st5 st2 st4">r</text>
<text transform="matrix(0.85 0 -0.3126727 0.9498609 170.4998169 60.861187)" class="st2 st4">o</text>
<text transform="matrix(0.85 0 -0.3126727 0.9498609 170.4998169 60.861187)" class="st5 st2 st4">o</text>
<text transform="matrix(0.85 0 -0.3126727 0.9498609 174.5603638 60.861187)" class="st2 st4">::</text>
<text transform="matrix(0.85 0 -0.3126727 0.9498609 174.5603638 60.861187)" class="st5 st2 st4">::</text>
<text transform="matrix(0.85 0 -0.3126727 0.9498609 177.5945435 60.861187)" class="st2 st4">F</text>
<text transform="matrix(0.85 0 -0.3126727 0.9498609 177.5945435 60.861187)" class="st5 st2 st4">F</text>
<text transform="matrix(0.85 0 -0.3126727 0.9498609 181.1482544 60.861187)" class="st2 st4">a</text>
<text transform="matrix(0.85 0 -0.3126727 0.9498609 181.1482544 60.861187)" class="st5 st2 st4">a</text>
<text transform="matrix(0.85 0 -0.3126727 0.9498609 184.6990356 60.861187)" class="st2 st4">c</text>
<text transform="matrix(0.85 0 -0.3126727 0.9498609 184.6990356 60.861187)" class="st5 st2 st4">c</text>
<text transform="matrix(0.85 0 -0.3126727 0.9498609 187.7488403 60.861187)" class="st2 st4">ili</text>
<text transform="matrix(0.85 0 -0.3126727 0.9498609 187.7488403 60.861187)" class="st5 st2 st4">ili</text>
<text transform="matrix(0.85 0 -0.3126727 0.9498609 192.3279419 60.861187)" class="st2 st4">t</text>
<text transform="matrix(0.85 0 -0.3126727 0.9498609 192.3279419 60.861187)" class="st5 st2 st4">t</text>
<text transform="matrix(0.85 0 -0.3126727 0.9498609 194.8621216 60.861187)" class="st2 st4">y</text>
<text transform="matrix(0.85 0 -0.3126727 0.9498609 194.8621216 60.861187)" class="st5 st2 st4">y</text>
<text transform="matrix(0.85 0 -0.3126727 0.9498609 198.4138794 60.861187)" class="st2 st4">A</text>
<text transform="matrix(0.85 0 -0.3126727 0.9498609 198.4138794 60.861187)" class="st5 st2 st4">A</text>
<text transform="matrix(0.85 0 -0.3126727 0.9498609 202.9822388 60.861187)" class="st2 st4">tt</text>
<text transform="matrix(0.85 0 -0.3126727 0.9498609 202.9822388 60.861187)" class="st5 st2 st4">tt</text>
<text transform="matrix(0.85 0 -0.3126727 0.9498609 208.0515747 60.861187)" class="st2 st4">r</text>
<text transform="matrix(0.85 0 -0.3126727 0.9498609 208.0515747 60.861187)" class="st5 st2 st4">r</text>
<text transform="matrix(0.85 0 -0.3126727 0.9498609 210.5847778 60.861187)" class="st2 st4">i</text>
<text transform="matrix(0.85 0 -0.3126727 0.9498609 210.5847778 60.861187)" class="st5 st2 st4">i</text>
<text transform="matrix(0.85 0 -0.3126727 0.9498609 212.111145 60.861187)" class="st2 st4">b</text>
<text transform="matrix(0.85 0 -0.3126727 0.9498609 212.111145 60.861187)" class="st5 st2 st4">b</text>
<text transform="matrix(0.85 0 -0.3126727 0.9498609 216.1707153 60.861187)" class="st2 st4">u</text>
<text transform="matrix(0.85 0 -0.3126727 0.9498609 216.1707153 60.861187)" class="st5 st2 st4">u</text>
<text transform="matrix(0.85 0 -0.3126727 0.9498609 220.2302856 60.861187)" class="st2 st4">t</text>
<text transform="matrix(0.85 0 -0.3126727 0.9498609 220.2302856 60.861187)" class="st5 st2 st4">t</text>
<text transform="matrix(0.85 0 -0.3126727 0.9498609 222.7644653 60.861187)" class="st2 st4">e</text>
<text transform="matrix(0.85 0 -0.3126727 0.9498609 222.7644653 60.861187)" class="st5 st2 st4">e</text>
<line class="st1" x1="152.2228088" y1="64.9716339" x2="237.5456543" y2="64.9716339"/>
<text transform="matrix(0.85 0 0 1 154.765625 74.2269135)" class="st2 st3">+</text>
<text transform="matrix(0.85 0 0 1 159.3349609 74.2269135)" class="st2 st3"> </text>
<text transform="matrix(0.85 0 0 1 165.9375 74.2269135)" class="st2 st3">facilityId: xs::string [0..1]</text>
<path class="st7" d="M559.5378418,21.2572823c0.8414307,0,1.5235596,0.6907959,1.5235596,1.5428467h0.000061v45.2571983h-0.000061
	c0,0.8520508-0.6821289,1.5428467-1.5236206,1.5428467l0,0h0.000061h-90.9094849h-0.0000305
	c-0.8414307,0-1.5236206-0.6907959-1.5236206-1.5428467h0.0000305V22.8001289c0-0.8520508,0.6821594-1.5428467,1.5236206-1.5428467
	l0,0H559.5378418L559.5378418,21.2572823L559.5378418,21.2572823z"/>
<path class="st8" d="M559.5378418,21.2572823c0.8414307,0,1.5235596,0.6907959,1.5235596,1.5428467h0.000061v45.2571983h-0.000061
	c0,0.8520508-0.6821289,1.5428467-1.5236206,1.5428467l0,0h0.000061h-90.9094849h-0.0000305
	c-0.8414307,0-1.5236206-0.6907959-1.5236206-1.5428467h0.0000305V22.8001289c0-0.8520508,0.6821594-1.5428467,1.5236206-1.5428467
	l0,0H559.5378418L559.5378418,21.2572823L559.5378418,21.2572823z"/>
<polygon class="st9" points="472.1834717,45.428791 480.8173523,45.428791 480.8173523,36.6858711 472.1834717,36.6858711 "/>
<polygon class="st10" points="472.1834717,45.428791 480.8173523,45.428791 480.8173523,36.6858711 472.1834717,36.6858711 "/>
<text transform="matrix(0.85 0 0 1 483.359375 43.8831635)" class="st11 st2 st3">GMLで定義されたクラス</text>
<polygon class="st12" points="472.1834717,55.2001534 480.8173523,55.2001534 480.8173523,46.4573555 472.1834717,46.4573555 "/>
<polygon class="st10" points="472.1834717,55.2001534 480.8173523,55.2001534 480.8173523,46.4573555 472.1834717,46.4573555 "/>
<text transform="matrix(0.85 0 0 1 483.359375 53.656601)" class="st11 st2 st3">CityGMLで定義されたクラス</text>
<polygon class="st0" points="472.1834717,64.9716339 480.8173523,64.9716339 480.8173523,56.2287178 472.1834717,56.2287178 "/>
<polygon class="st10" points="472.1834717,64.9716339 480.8173523,64.9716339 480.8173523,56.2287178 472.1834717,56.2287178 "/>
<text transform="matrix(0.85 0 0 1 483.359375 63.4300385)" class="st11 st2 st3">i-URで定義されたクラス</text>
<text transform="matrix(0.85 0 0 1 508.2421875 34.3157806)" class="st11 st6 st13 st14">凡例</text>
<line class="st1" x1="620.9906006" y1="776.2288208" x2="620.9906006" y2="730.9716797"/>
<line class="st1" x1="620.9906006" y1="730.9716797" x2="372.6401672" y2="730.9716797"/>
<line class="st1" x1="372.6401672" y1="730.9716797" x2="372.6401672" y2="105.0858917"/>
<polyline class="st15" points="375.6874084,113.3144073 369.592926,113.3144073 372.6401672,105.0858917 375.6874084,113.3144073 
	"/>
<polyline class="st1" points="375.6874084,113.3144073 369.592926,113.3144073 372.6401672,105.0858917 "/>
<line class="st1" x1="75.0259552" y1="159.600174" x2="75.0259552" y2="130.2858429"/>
<line class="st1" x1="75.0259552" y1="130.2858429" x2="372.6401672" y2="130.2858429"/>
<line class="st1" x1="372.6401672" y1="130.2858429" x2="372.6401672" y2="105.0858917"/>
<polyline class="st15" points="375.6874084,113.3144073 369.592926,113.3144073 372.6401672,105.0858917 375.6874084,113.3144073 
	"/>
<polyline class="st1" points="375.6874084,113.3144073 369.592926,113.3144073 372.6401672,105.0858917 "/>
<line class="st1" x1="163.9039154" y1="334.4573669" x2="163.9039154" y2="130.2858429"/>
<line class="st1" x1="271.0653381" y1="154.4573517" x2="271.0653381" y2="130.2858429"/>
<line class="st1" x1="457.9630127" y1="154.4573517" x2="457.9630127" y2="130.2858429"/>
<line class="st1" x1="230.4354248" y1="756.1716919" x2="230.4354248" y2="730.9716797"/>
<line class="st1" x1="230.4354248" y1="730.9716797" x2="372.6401672" y2="730.9716797"/>
<line class="st1" x1="372.6401672" y1="730.9716797" x2="372.6401672" y2="105.0858917"/>
<polyline class="st15" points="375.6874084,113.3144073 369.592926,113.3144073 372.6401672,105.0858917 375.6874084,113.3144073 
	"/>
<polyline class="st1" points="375.6874084,113.3144073 369.592926,113.3144073 372.6401672,105.0858917 "/>
<line class="st1" x1="307.1244202" y1="59.8286934" x2="238.5614014" y2="59.8286934"/>
<polyline class="st15" points="246.6873779,56.743 246.6873779,62.9143867 238.5614014,59.8286934 246.6873779,56.743 "/>
<polygon class="st1" points="246.6873779,56.743 246.6873779,62.9143867 238.5614014,59.8286934 "/>
<line class="st1" x1="655.0181885" y1="154.4573517" x2="655.0181885" y2="130.2858429"/>
<line class="st1" x1="655.0181885" y1="130.2858429" x2="372.6401672" y2="130.2858429"/>
<line class="st1" x1="93.8172989" y1="478.4573669" x2="93.8172989" y2="451.2001648"/>
<line class="st1" x1="93.8172989" y1="451.2001648" x2="372.1322937" y2="451.2001648"/>
<line class="st1" x1="372.1322937" y1="451.2001648" x2="372.1322937" y2="105.0858917"/>
<polyline class="st15" points="375.1795349,113.3144073 369.0850525,113.3144073 372.1322937,105.0858917 375.1795349,113.3144073 
	"/>
<polyline class="st1" points="375.1795349,113.3144073 369.0850525,113.3144073 372.1322937,105.0858917 "/>
<line class="st1" x1="540.746521" y1="596.743042" x2="540.746521" y2="450.1716003"/>
<line class="st1" x1="540.746521" y1="450.1716003" x2="372.6401672" y2="450.1716003"/>
<line class="st1" x1="372.6401672" y1="450.1716003" x2="372.6401672" y2="105.0858917"/>
<polyline class="st15" points="375.6874084,113.3144073 369.592926,113.3144073 372.6401672,105.0858917 375.6874084,113.3144073 
	"/>
<polyline class="st1" points="375.6874084,113.3144073 369.592926,113.3144073 372.6401672,105.0858917 "/>
<line class="st1" x1="271.5732117" y1="478.4573669" x2="271.5732117" y2="450.6858826"/>
<line class="st1" x1="271.5732117" y1="450.6858826" x2="372.6401672" y2="450.6858826"/>
<line class="st1" x1="372.6401672" y1="450.6858826" x2="372.6401672" y2="105.0858917"/>
<polyline class="st15" points="375.6874084,113.3144073 369.592926,113.3144073 372.6401672,105.0858917 375.6874084,113.3144073 
	"/>
<polygon class="st1" points="375.6874084,113.3144073 369.592926,113.3144073 372.6401672,105.0858917 "/>
<line class="st1" x1="435.6165466" y1="781.8859863" x2="435.6165466" y2="730.9716797"/>
<line class="st1" x1="435.6165466" y1="730.9716797" x2="371.6244202" y2="730.9716797"/>
<line class="st1" x1="371.6244202" y1="730.9716797" x2="371.6244202" y2="105.0858917"/>
<polyline class="st15" points="374.6716614,113.3144073 368.577179,113.3144073 371.6244202,105.0858917 374.6716614,113.3144073 
	"/>
<polyline class="st1" points="374.6716614,113.3144073 368.577179,113.3144073 371.6244202,105.0858917 "/>
<line class="st1" x1="452.3764038" y1="478.4573669" x2="452.3764038" y2="450.6858826"/>
<line class="st1" x1="452.3764038" y1="450.6858826" x2="372.1322937" y2="450.6858826"/>
<line class="st1" x1="372.1322937" y1="450.6858826" x2="372.1322937" y2="105.0858917"/>
<polyline class="st15" points="375.1795349,113.3144073 369.0850525,113.3144073 372.1322937,105.0858917 375.1795349,113.3144073 
	"/>
<polyline class="st1" points="375.1795349,113.3144073 369.0850525,113.3144073 372.1322937,105.0858917 "/>
<line class="st1" x1="311.1874084" y1="822.5145264" x2="311.1874084" y2="730.9716797"/>
<line class="st1" x1="311.1874084" y1="730.9716797" x2="371.6244202" y2="730.9716797"/>
<line class="st1" x1="371.6244202" y1="730.9716797" x2="371.6244202" y2="105.0858917"/>
<polyline class="st15" points="374.6716614,113.3144073 368.577179,113.3144073 371.6244202,105.0858917 374.6716614,113.3144073 
	"/>
<polyline class="st1" points="374.6716614,113.3144073 368.577179,113.3144073 371.6244202,105.0858917 "/>
<line class="st1" x1="600.6756592" y1="478.9716492" x2="600.6756592" y2="450.1716003"/>
<line class="st1" x1="600.6756592" y1="450.1716003" x2="372.1322937" y2="450.1716003"/>
<line class="st1" x1="372.1322937" y1="450.1716003" x2="372.1322937" y2="105.0858917"/>
<polyline class="st15" points="375.1795349,113.3144073 369.0850525,113.3144073 372.1322937,105.0858917 375.1795349,113.3144073 
	"/>
<polygon class="st1" points="375.1795349,113.3144073 369.0850525,113.3144073 372.1322937,105.0858917 "/>
<line class="st1" x1="577.3134155" y1="298.4573669" x2="577.3134155" y2="130.2858429"/>
</svg>
