<?xml version="1.0" encoding="utf-8"?>
<!-- Generator: Adobe Illustrator 28.1.0, SVG Export Plug-In . SVG Version: 6.00 Build 0)  -->
<svg version="1.1" id="Layer_1" xmlns="http://www.w3.org/2000/svg" xmlns:xlink="http://www.w3.org/1999/xlink" x="0px" y="0px"
	 viewBox="0 0 4312.2 2468.4" style="enable-background:new 0 0 4312.2 2468.4;" xml:space="preserve">
<g transform="matrix(0.0625 0.0000 0.0000 0.0625 0.0000 0.0000)">
	<path style="fill:none;stroke:#00C2C0;stroke-width:8.375;stroke-linejoin:round;stroke-miterlimit:10;" d="M194,0v4913h4913V0H194
		z"/>
</g>
<g transform="matrix(1.0000 0.0000 0.0000 1.0000 0.0000 0.0000)">
</g>
<g transform="matrix(0.0625 0.0000 0.0000 0.0625 0.0000 0.0000)">
	<path style="fill:#878E8E;stroke:#00C2C0;stroke-width:8.375;stroke-linejoin:round;stroke-miterlimit:10;" d="M5107,0v4913h4913V0
		H5107z"/>
</g>
<g transform="matrix(1.0000 0.0000 0.0000 1.0000 0.0000 0.0000)">
</g>
<g transform="matrix(0.0625 0.0000 0.0000 0.0625 0.0000 0.0000)">
	<path style="fill:#878E8E;stroke:#00C2C0;stroke-width:8.375;stroke-linejoin:round;stroke-miterlimit:10;" d="M10020,0v4913h4914
		V0H10020z"/>
</g>
<g transform="matrix(1.0000 0.0000 0.0000 1.0000 0.0000 0.0000)">
</g>
<g transform="matrix(0.0625 0.0000 0.0000 0.0625 0.0000 0.0000)">
	<path style="fill:#878E8E;stroke:#00C2C0;stroke-width:8.375;stroke-linejoin:round;stroke-miterlimit:10;" d="M14934,0v4913h4913
		V0H14934z"/>
</g>
<g transform="matrix(1.0000 0.0000 0.0000 1.0000 0.0000 0.0000)">
</g>
<g transform="matrix(0.0625 0.0000 0.0000 0.0625 0.0000 0.0000)">
	<path style="fill:#878E8E;stroke:#00C2C0;stroke-width:8.375;stroke-linejoin:round;stroke-miterlimit:10;" d="M19847,0v4913h4914
		V0H19847z"/>
</g>
<g transform="matrix(1.0000 0.0000 0.0000 1.0000 0.0000 0.0000)">
</g>
<g transform="matrix(0.0625 0.0000 0.0000 0.0625 0.0000 0.0000)">
	<path style="fill:#878E8E;stroke:#00C2C0;stroke-width:8.375;stroke-linejoin:round;stroke-miterlimit:10;" d="M24761,0v4913h4913
		V0H24761z"/>
</g>
<g transform="matrix(1.0000 0.0000 0.0000 1.0000 0.0000 0.0000)">
</g>
<g transform="matrix(0.1250 0.0000 0.0000 0.1250 0.0000 0.0000)">
	<path style="fill:none;stroke:#00C2C0;stroke-width:8.375;stroke-linejoin:round;stroke-miterlimit:10;" d="M14837,0.5v2456h2457
		V0.5H14837z"/>
</g>
<g transform="matrix(1.0000 0.0000 0.0000 1.0000 0.0000 0.0000)">
</g>
<g transform="matrix(0.0625 0.0000 0.0000 0.0625 0.0000 0.0000)">
	<path style="fill:none;stroke:#00C2C0;stroke-width:8.375;stroke-linejoin:round;stroke-miterlimit:10;" d="M194,4913v4914h4913
		V4913H194z"/>
</g>
<g transform="matrix(1.0000 0.0000 0.0000 1.0000 0.0000 0.0000)">
</g>
<g transform="matrix(0.0625 0.0000 0.0000 0.0625 0.0000 0.0000)">
	<path style="fill:#878E8E;stroke:#00C2C0;stroke-width:8.375;stroke-linejoin:round;stroke-miterlimit:10;" d="M5107,4913v4914
		h4913V4913H5107z"/>
</g>
<g transform="matrix(1.0000 0.0000 0.0000 1.0000 0.0000 0.0000)">
</g>
<g transform="matrix(0.0625 0.0000 0.0000 0.0625 0.0000 0.0000)">
	<path style="fill:#737A7A;stroke:#737A7A;stroke-width:6.250000e-02;stroke-miterlimit:10;" d="M14934,4913v4914h4913V4913H14934z"
		/>
</g>
<g transform="matrix(0.0625 0.0000 0.0000 0.0625 0.0000 0.0000)">
	<path style="fill:#737A7A;stroke:#737A7A;stroke-width:6.250000e-02;stroke-miterlimit:10;" d="M14934,9764.3v4914h4913v-4914
		H14934z"/>
</g>
<g transform="matrix(1.0000 0.0000 0.0000 1.0000 0.0000 0.0000)">
</g>
<g transform="matrix(0.0625 0.0000 0.0000 0.0625 0.0000 0.0000)">
	<path style="fill:#878E8E;stroke:#00C2C0;stroke-width:8.375;stroke-linejoin:round;stroke-miterlimit:10;" d="M24761,4913v4914
		h4913V4913H24761z"/>
</g>
<g transform="matrix(1.0000 0.0000 0.0000 1.0000 0.0000 0.0000)">
</g>
<g transform="matrix(0.1250 0.0000 0.0000 0.1250 0.0000 0.0000)">
	<path style="fill:none;stroke:#00C2C0;stroke-width:8.375;stroke-linejoin:round;stroke-miterlimit:10;" d="M14837,2456.5v2457
		h2457v-2457H14837z"/>
</g>
<g transform="matrix(1.0000 0.0000 0.0000 1.0000 0.0000 0.0000)">
</g>
<g transform="matrix(0.0625 0.0000 0.0000 0.0625 0.0000 0.0000)">
	<path style="fill:#878E8E;stroke:#00C2C0;stroke-width:8.375;stroke-linejoin:round;stroke-miterlimit:10;" d="M194,9827v4913h4913
		V9827H194z"/>
</g>
<g transform="matrix(1.0000 0.0000 0.0000 1.0000 0.0000 0.0000)">
</g>
<g transform="matrix(0.0625 0.0000 0.0000 0.0625 0.0000 0.0000)">
	<path style="fill:#878E8E;stroke:#00C2C0;stroke-width:8.375;stroke-linejoin:round;stroke-miterlimit:10;" d="M5107,9827v4913
		h4913V9827H5107z"/>
</g>
<g transform="matrix(1.0000 0.0000 0.0000 1.0000 0.0000 0.0000)">
</g>
<g transform="matrix(0.0625 0.0000 0.0000 0.0625 0.0000 0.0000)">
	<path style="fill:none;stroke:#00C2C0;stroke-width:8.375;stroke-linejoin:round;stroke-miterlimit:10;" d="M14934,9827v4913h4913
		V9827H14934z"/>
</g>
<g transform="matrix(1.0000 0.0000 0.0000 1.0000 0.0000 0.0000)">
</g>
<g transform="matrix(0.0625 0.0000 0.0000 0.0625 0.0000 0.0000)">
	<path style="fill:#878E8E;stroke:#00C2C0;stroke-width:8.375;stroke-linejoin:round;stroke-miterlimit:10;" d="M24761,9827v4913
		h4913V9827H24761z"/>
</g>
<g transform="matrix(0.0625 0.0000 0.0000 0.0625 0.0000 0.0000)">
	<path style="fill:#FFFFFF;stroke:#00C2C0;stroke-width:8.375;stroke-linejoin:round;stroke-miterlimit:10;" d="M19847.5,9827v4913
		h4913V9827H19847.5z"/>
</g>
<g transform="matrix(0.0625 0.0000 0.0000 0.0625 0.0000 0.0000)">
	<path style="fill:#FFFFFF;stroke:#00C2C0;stroke-width:8.375;stroke-linejoin:round;stroke-miterlimit:10;" d="M19847.5,4913.5
		v4913h4913v-4913H19847.5z"/>
</g>
<g transform="matrix(0.0625 0.0000 0.0000 0.0625 0.0000 0.0000)">
	<path style="fill:#FFFFFF;stroke:#00C2C0;stroke-width:8.375;stroke-linejoin:round;stroke-miterlimit:10;" d="M10020.5,4913.5
		v4913h4913v-4913H10020.5z"/>
</g>
<g transform="matrix(0.0625 0.0000 0.0000 0.0625 0.0000 0.0000)">
	<path style="fill:#FFFFFF;stroke:#00C2C0;stroke-width:8.375;stroke-linejoin:round;stroke-miterlimit:10;" d="M10020.5,9827.5
		v4913h4913v-4913H10020.5z"/>
</g>
<g transform="matrix(0.0625 0.0000 0.0000 0.0625 0.0000 0.0000)">
	<path style="fill:#FFFFFF;stroke:#00C2C0;stroke-width:8.375;stroke-linejoin:round;stroke-miterlimit:10;" d="M5107.8,14740.2
		v4913h4913v-4913H5107.8z"/>
</g>
<g transform="matrix(0.0625 0.0000 0.0000 0.0625 0.0000 0.0000)">
	<path style="fill:none;stroke:#00C2C0;stroke-width:8.375;stroke-linejoin:round;stroke-miterlimit:10;" d="M10020.5,4913.5v4913
		h4913v-4913H10020.5z"/>
</g>
<g transform="matrix(0.0625 0.0000 0.0000 0.0625 0.0000 0.0000)">
	<path style="fill:none;stroke:#00C2C0;stroke-width:8.375;stroke-linejoin:round;stroke-miterlimit:10;" d="M14943.5,19653.5v4913
		h4913v-4913H14943.5z"/>
</g>
<g transform="matrix(0.0625 0.0000 0.0000 0.0625 0.0000 0.0000)">
	<path style="fill:#FFFFFF;stroke:#00C2C0;stroke-width:8.375;stroke-linejoin:round;stroke-miterlimit:10;" d="M14943.5,24567.5
		v4913h4913v-4913H14943.5z"/>
</g>
<g transform="matrix(0.0625 0.0000 0.0000 0.0625 0.0000 0.0000)">
	<path style="fill:none;stroke:#00C2C0;stroke-width:8.375;stroke-linejoin:round;stroke-miterlimit:10;" d="M14943.5,29480.5v4913
		h4913v-4913H14943.5z"/>
</g>
<g transform="matrix(0.0625 0.0000 0.0000 0.0625 0.0000 0.0000)">
	<path style="fill:#FFFFFF;stroke:#00C2C0;stroke-width:8.375;stroke-linejoin:round;stroke-miterlimit:10;" d="M19847.5,24567.5
		v4913h4913v-4913H19847.5z"/>
</g>
<g transform="matrix(0.0625 0.0000 0.0000 0.0625 0.0000 0.0000)">
	<path style="fill:#FFFFFF;stroke:#00C2C0;stroke-width:8.375;stroke-linejoin:round;stroke-miterlimit:10;" d="M19847.5,19653v4913
		h4913v-4913H19847.5z"/>
</g>
<g transform="matrix(0.0625 0.0000 0.0000 0.0625 0.0000 0.0000)">
	<path style="fill:#FFFFFF;stroke:#00C2C0;stroke-width:8.375;stroke-linejoin:round;stroke-miterlimit:10;" d="M19847.5,14740v4913
		h4913v-4913H19847.5z"/>
</g>
<g transform="matrix(1.0000 0.0000 0.0000 1.0000 0.0000 0.0000)">
</g>
<g transform="matrix(0.1250 0.0000 0.0000 0.1250 0.0000 0.0000)">
	<path style="fill:#878E8E;stroke:#00C2C0;stroke-width:8.375;stroke-linejoin:round;stroke-miterlimit:10;" d="M14837,4913.5v2457
		h2457v-2457H14837z"/>
</g>
<g transform="matrix(1.0000 0.0000 0.0000 1.0000 0.0000 0.0000)">
</g>
<g transform="matrix(0.0625 0.0000 0.0000 0.0625 0.0000 0.0000)">
	<path style="fill:#878E8E;stroke:#00C2C0;stroke-width:8.375;stroke-linejoin:round;stroke-miterlimit:10;" d="M194,14740v4913
		h4913v-4913H194z"/>
</g>
<g transform="matrix(1.0000 0.0000 0.0000 1.0000 0.0000 0.0000)">
</g>
<g transform="matrix(0.0625 0.0000 0.0000 0.0625 0.0000 0.0000)">
	<path style="fill:#878E8E;stroke:#00C2C0;stroke-width:8.375;stroke-linejoin:round;stroke-miterlimit:10;" d="M10020,14740v4913
		h4914v-4913H10020z"/>
</g>
<g transform="matrix(1.0000 0.0000 0.0000 1.0000 0.0000 0.0000)">
</g>
<g transform="matrix(0.0625 0.0000 0.0000 0.0625 0.0000 0.0000)">
	<path style="fill:#FFFFFF;stroke:#00C2C0;stroke-width:8.375;stroke-linejoin:round;stroke-miterlimit:10;" d="M14934,14740v4913
		h4913v-4913H14934z"/>
</g>
<g transform="matrix(0.0625 0.0000 0.0000 0.0625 0.0000 0.0000)">
	<path style="fill:#FFFFFF;stroke:#00C2C0;stroke-width:8.375;stroke-linejoin:round;stroke-miterlimit:10;" d="M14934,19653.5v4913
		h4913v-4913H14934z"/>
</g>
<g transform="matrix(1.0000 0.0000 0.0000 1.0000 0.0000 0.0000)">
</g>
<g transform="matrix(0.0625 0.0000 0.0000 0.0625 0.0000 0.0000)">
	<path style="fill:#878E8E;stroke:#00C2C0;stroke-width:8.375;stroke-linejoin:round;stroke-miterlimit:10;" d="M24761,14740v4913
		h4913v-4913H24761z"/>
</g>
<g transform="matrix(1.0000 0.0000 0.0000 1.0000 0.0000 0.0000)">
</g>
<g transform="matrix(0.1250 0.0000 0.0000 0.1250 0.0000 0.0000)">
	<path style="fill:#878E8E;stroke:#00C2C0;stroke-width:8.375;stroke-linejoin:round;stroke-miterlimit:10;" d="M14837,7370.5v2456
		h2457v-2456H14837z"/>
</g>
<g transform="matrix(1.0000 0.0000 0.0000 1.0000 0.0000 0.0000)">
</g>
<g transform="matrix(0.0625 0.0000 0.0000 0.0625 0.0000 0.0000)">
	<path style="fill:#878E8E;stroke:#00C2C0;stroke-width:8.375;stroke-linejoin:round;stroke-miterlimit:10;" d="M194,19653v4914
		h4913v-4914H194z"/>
</g>
<g transform="matrix(1.0000 0.0000 0.0000 1.0000 0.0000 0.0000)">
</g>
<g transform="matrix(0.0625 0.0000 0.0000 0.0625 0.0000 0.0000)">
	<path style="fill:#878E8E;stroke:#00C2C0;stroke-width:8.375;stroke-linejoin:round;stroke-miterlimit:10;" d="M5107,19653v4914
		h4913v-4914H5107z"/>
</g>
<g transform="matrix(1.0000 0.0000 0.0000 1.0000 0.0000 0.0000)">
</g>
<g transform="matrix(0.0625 0.0000 0.0000 0.0625 0.0000 0.0000)">
	<path style="fill:#878E8E;stroke:#00C2C0;stroke-width:8.375;stroke-linejoin:round;stroke-miterlimit:10;" d="M10020,19653v4914
		h4914v-4914H10020z"/>
</g>
<g transform="matrix(0.0625 0.0000 0.0000 0.0625 0.0000 0.0000)">
	<path style="fill:#878E8E;stroke:#00C2C0;stroke-width:8.375;stroke-linejoin:round;stroke-miterlimit:10;" d="M10020,24567v4914
		h4914v-4914H10020z"/>
</g>
<g transform="matrix(1.0000 0.0000 0.0000 1.0000 0.0000 0.0000)">
</g>
<g transform="matrix(0.0625 0.0000 0.0000 0.0625 0.0000 0.0000)">
	<path style="fill:#878E8E;stroke:#00C2C0;stroke-width:8.375;stroke-linejoin:round;stroke-miterlimit:10;" d="M24761,19653v4914
		h4913v-4914H24761z"/>
</g>
<g transform="matrix(1.0000 0.0000 0.0000 1.0000 0.0000 0.0000)">
</g>
<g transform="matrix(0.1250 0.0000 0.0000 0.1250 0.0000 0.0000)">
	<path style="fill:#878E8E;stroke:#00C2C0;stroke-width:8.375;stroke-linejoin:round;stroke-miterlimit:10;" d="M14837,9826.5v2457
		h2457v-2457H14837z"/>
</g>
<g transform="matrix(1.0000 0.0000 0.0000 1.0000 0.0000 0.0000)">
</g>
<g transform="matrix(0.1250 0.0000 0.0000 0.1250 0.0000 0.0000)">
	<path style="fill:none;stroke:#00C2C0;stroke-width:8.375;stroke-linejoin:round;stroke-miterlimit:10;" d="M97,12283.5v2457h2457
		v-2457H97z"/>
</g>
<g transform="matrix(1.0000 0.0000 0.0000 1.0000 0.0000 0.0000)">
</g>
<g transform="matrix(0.1250 0.0000 0.0000 0.1250 0.0000 0.0000)">
	<path style="fill:#878E8E;stroke:#00C2C0;stroke-width:8.375;stroke-linejoin:round;stroke-miterlimit:10;" d="M2554,12283.5v2457
		h2456v-2457H2554z"/>
</g>
<g transform="matrix(1.0000 0.0000 0.0000 1.0000 0.0000 0.0000)">
</g>
<g transform="matrix(1.0000 0.0000 0.0000 1.0000 0.0000 0.0000)">
</g>
<g transform="matrix(0.1250 0.0000 0.0000 0.1250 0.0000 0.0000)">
	<path style="fill:#878E8E;stroke:#00C2C0;stroke-width:8.375;stroke-linejoin:round;stroke-miterlimit:10;" d="M12380,12283.5v2457
		h2457v-2457H12380z"/>
</g>
<g transform="matrix(1.0000 0.0000 0.0000 1.0000 0.0000 0.0000)">
</g>
<g transform="matrix(0.1250 0.0000 0.0000 0.1250 0.0000 0.0000)">
	<path style="fill:none;stroke:#00C2C0;stroke-width:8.375;stroke-linejoin:round;stroke-miterlimit:10;" d="M14837,12283.5v2457
		h2457v-2457H14837z"/>
</g>
<g transform="matrix(1.0000 0.0000 0.0000 1.0000 0.0000 0.0000)">
</g>
<g transform="matrix(0.1250 0.0000 0.0000 0.1250 0.0000 0.0000)">
	<path style="fill:none;stroke:#00C2C0;stroke-width:8.375;stroke-linejoin:round;stroke-miterlimit:10;" d="M97,14740.5v2456h2457
		v-2456H97z"/>
</g>
<g transform="matrix(1.0000 0.0000 0.0000 1.0000 0.0000 0.0000)">
</g>
<g transform="matrix(0.1250 0.0000 0.0000 0.1250 0.0000 0.0000)">
	<path style="fill:#878E8E;stroke:#00C2C0;stroke-width:8.375;stroke-linejoin:round;stroke-miterlimit:10;" d="M2554,14740.5v2456
		h2456v-2456H2554z"/>
</g>
<g transform="matrix(1.0000 0.0000 0.0000 1.0000 0.0000 0.0000)">
</g>
<g transform="matrix(0.1250 0.0000 0.0000 0.1250 0.0000 0.0000)">
	<path style="fill:#878E8E;stroke:#00C2C0;stroke-width:8.375;stroke-linejoin:round;stroke-miterlimit:10;" d="M5010,14740.5v2456
		h2457v-2456H5010z"/>
</g>
<g transform="matrix(1.0000 0.0000 0.0000 1.0000 0.0000 0.0000)">
</g>
<g transform="matrix(0.1250 0.0000 0.0000 0.1250 0.0000 0.0000)">
	<path style="fill:#878E8E;stroke:#00C2C0;stroke-width:8.375;stroke-linejoin:round;stroke-miterlimit:10;" d="M12380,14740.5v2456
		h2457v-2456H12380z"/>
</g>
<g transform="matrix(0.1250 0.0000 0.0000 0.1250 0.0000 0.0000)">
	<path style="fill:#878E8E;stroke:#00C2C0;stroke-width:8.375;stroke-linejoin:round;stroke-miterlimit:10;" d="M7471.5,14740.5
		v2456h2457v-2456H7471.5z"/>
</g>
<g transform="matrix(0.1250 0.0000 0.0000 0.1250 0.0000 0.0000)">
	<path style="fill:#878E8E;stroke:#00C2C0;stroke-width:8.375;stroke-linejoin:round;stroke-miterlimit:10;" d="M9923.5,14740.5
		v2456h2457v-2456H9923.5z"/>
</g>
<g transform="matrix(1.0000 0.0000 0.0000 1.0000 0.0000 0.0000)">
</g>
<g transform="matrix(0.1250 0.0000 0.0000 0.1250 0.0000 0.0000)">
	<path style="fill:none;stroke:#00C2C0;stroke-width:8.375;stroke-linejoin:round;stroke-miterlimit:10;" d="M14837,14740.5v2456
		h2457v-2456H14837z"/>
</g>
<g transform="matrix(1.0000 0.0000 0.0000 1.0000 0.0000 0.0000)">
</g>
<g transform="matrix(0.1250 0.0000 0.0000 0.1250 0.0000 0.0000)">
	<path style="fill:none;stroke:#00C2C0;stroke-width:8.375;stroke-linejoin:round;stroke-miterlimit:10;" d="M97,17196.5v2457h2457
		v-2457H97z"/>
</g>
<g transform="matrix(1.0000 0.0000 0.0000 1.0000 0.0000 0.0000)">
</g>
<g transform="matrix(0.1250 0.0000 0.0000 0.1250 0.0000 0.0000)">
	<path style="fill:none;stroke:#00C2C0;stroke-width:8.375;stroke-linejoin:round;stroke-miterlimit:10;" d="M2554,17196.5v2457
		h2456v-2457H2554z"/>
</g>
<g transform="matrix(1.0000 0.0000 0.0000 1.0000 0.0000 0.0000)">
</g>
<g transform="matrix(0.1250 0.0000 0.0000 0.1250 0.0000 0.0000)">
	<path style="fill:#878E8E;stroke:#00C2C0;stroke-width:8.375;stroke-linejoin:round;stroke-miterlimit:10;" d="M5010,17196.5v2457
		h2457v-2457H5010z"/>
</g>
<g transform="matrix(1.0000 0.0000 0.0000 1.0000 0.0000 0.0000)">
</g>
<g transform="matrix(0.1250 0.0000 0.0000 0.1250 0.0000 0.0000)">
	<path style="fill:#878E8E;stroke:#00C2C0;stroke-width:8.375;stroke-linejoin:round;stroke-miterlimit:10;" d="M7467,17196.5v2457
		h2457v-2457H7467z"/>
</g>
<g transform="matrix(1.0000 0.0000 0.0000 1.0000 0.0000 0.0000)">
</g>
<g transform="matrix(0.1250 0.0000 0.0000 0.1250 0.0000 0.0000)">
	<path style="fill:#878E8E;stroke:#00C2C0;stroke-width:8.375;stroke-linejoin:round;stroke-miterlimit:10;" d="M9924,17196.5v2457
		h2456v-2457H9924z"/>
</g>
<g transform="matrix(1.0000 0.0000 0.0000 1.0000 0.0000 0.0000)">
</g>
<g transform="matrix(0.1250 0.0000 0.0000 0.1250 0.0000 0.0000)">
	<path style="fill:#878E8E;stroke:#00C2C0;stroke-width:8.375;stroke-linejoin:round;stroke-miterlimit:10;" d="M12380,17196.5v2457
		h2457v-2457H12380z"/>
</g>
<g transform="matrix(1.0000 0.0000 0.0000 1.0000 0.0000 0.0000)">
</g>
<g transform="matrix(0.1250 0.0000 0.0000 0.1250 0.0000 0.0000)">
	<path style="fill:none;stroke:#00C2C0;stroke-width:8.375;stroke-linejoin:round;stroke-miterlimit:10;" d="M14837,17196.5v2457
		h2457v-2457H14837z"/>
</g>
<g transform="matrix(1.0000 0.0000 0.0000 1.0000 0.0000 0.0000)">
</g>
<g transform="matrix(1.0000 0.0000 0.0000 1.0000 371.6562 333.0177)">
	<text transform="matrix(1 0 0 1 8.0001 -214.5625)" style="font-family:'ArialMT'; font-size:83px;">4</text>
</g>
<g transform="matrix(1.0000 0.0000 0.0000 1.0000 678.7428 333.0177)">
	<text transform="matrix(1 0 0 1 8 -214.5625)" style="font-family:'ArialMT'; font-size:83px;">11</text>
</g>
<g transform="matrix(1.0000 0.0000 0.0000 1.0000 985.8294 333.0177)">
	<text transform="matrix(1 0 0 1 7.9999 -214.5625)" style="font-family:'ArialMT'; font-size:83px;">19</text>
</g>
<g transform="matrix(1.0000 0.0000 0.0000 1.0000 1292.9160 333.0177)">
	<text transform="matrix(1 0 0 1 8 -214.5625)" style="font-family:'ArialMT'; font-size:83px;">27</text>
</g>
<g transform="matrix(1.0000 0.0000 0.0000 1.0000 1600.0027 333.0177)">
	<text transform="matrix(1 0 0 1 8 -214.5625)" style="font-family:'ArialMT'; font-size:83px;">35</text>
</g>
<g transform="matrix(1.0000 0.0000 0.0000 1.0000 371.6562 640.1043)">
	<text transform="matrix(1 0 0 1 8.0001 -214.5626)" style="font-family:'ArialMT'; font-size:83px;">5</text>
</g>
<g transform="matrix(1.0000 0.0000 0.0000 1.0000 678.7428 640.1043)">
	<text transform="matrix(1 0 0 1 8 -214.5626)" style="font-family:'ArialMT'; font-size:83px;">12</text>
</g>
<g transform="matrix(1.0000 0.0000 0.0000 1.0000 985.8294 640.1043)">
	<text transform="matrix(1 0 0 1 7.9999 -214.5626)" style="font-family:'ArialMT'; font-size:83px;">20</text>
</g>
<g transform="matrix(1.0000 0.0000 0.0000 1.0000 1292.9160 640.1043)">
	<text transform="matrix(1 0 0 1 8 -214.5626)" style="font-family:'ArialMT'; font-size:83px;">28</text>
</g>
<g transform="matrix(1.0000 0.0000 0.0000 1.0000 1600.0027 640.1043)">
	<text transform="matrix(1 0 0 1 8 -214.5626)" style="font-family:'ArialMT'; font-size:83px;">36</text>
</g>
<g transform="matrix(1.0000 0.0000 0.0000 1.0000 64.5696 947.1909)">
	<text transform="matrix(1 0 0 1 8 -214.5625)" style="font-family:'ArialMT'; font-size:83px;">1</text>
</g>
<g transform="matrix(1.0000 0.0000 0.0000 1.0000 371.6562 947.1909)">
	<text transform="matrix(1 0 0 1 8.0001 -214.5625)" style="font-family:'ArialMT'; font-size:83px;">6</text>
</g>
<g transform="matrix(1.0000 0.0000 0.0000 1.0000 678.7428 947.1909)">
	<text transform="matrix(1 0 0 1 8 -214.5625)" style="font-family:'ArialMT'; font-size:83px;">13</text>
</g>
<g transform="matrix(1.0000 0.0000 0.0000 1.0000 985.8294 947.1909)">
	<text transform="matrix(1 0 0 1 7.9999 -214.5625)" style="font-family:'ArialMT'; font-size:83px;">21</text>
</g>
<g transform="matrix(1.0000 0.0000 0.0000 1.0000 1292.9160 947.1909)">
	<text transform="matrix(1 0 0 1 8 -214.5625)" style="font-family:'ArialMT'; font-size:83px;">29</text>
</g>
<g transform="matrix(1.0000 0.0000 0.0000 1.0000 1600.0027 947.1909)">
	<text transform="matrix(1 0 0 1 8 -214.5625)" style="font-family:'ArialMT'; font-size:83px;">37</text>
</g>
<g transform="matrix(1.0000 0.0000 0.0000 1.0000 1907.0892 947.1909)">
	<text transform="matrix(1 0 0 1 8 -214.5625)" style="font-family:'ArialMT'; font-size:83px;">43</text>
</g>
<g transform="matrix(1.0000 0.0000 0.0000 1.0000 64.5696 1254.2776)">
	<text transform="matrix(1 0 0 1 8 -214.5625)" style="font-family:'ArialMT'; font-size:83px;">2</text>
</g>
<g transform="matrix(1.0000 0.0000 0.0000 1.0000 371.6562 1254.2776)">
	<text transform="matrix(1 0 0 1 8.0001 -214.5625)" style="font-family:'ArialMT'; font-size:83px;">7</text>
</g>
<g transform="matrix(1.0000 0.0000 0.0000 1.0000 678.7428 1254.2776)">
	<text transform="matrix(1 0 0 1 8 -214.5625)" style="font-family:'ArialMT'; font-size:83px;">14</text>
</g>
<g transform="matrix(1.0000 0.0000 0.0000 1.0000 985.8294 1254.2776)">
	<text transform="matrix(1 0 0 1 7.9999 -214.5625)" style="font-family:'ArialMT'; font-size:83px;">22</text>
</g>
<g transform="matrix(1.0000 0.0000 0.0000 1.0000 1292.9160 1254.2776)">
	<text transform="matrix(1 0 0 1 8 -214.5625)" style="font-family:'ArialMT'; font-size:83px;">30</text>
</g>
<g transform="matrix(1.0000 0.0000 0.0000 1.0000 1600.0027 1254.2776)">
	<text transform="matrix(1 0 0 1 8 -214.5625)" style="font-family:'ArialMT'; font-size:83px;">38</text>
</g>
<g transform="matrix(1.0000 0.0000 0.0000 1.0000 1907.0892 1254.2776)">
	<text transform="matrix(1 0 0 1 8 -214.5625)" style="font-family:'ArialMT'; font-size:83px;">44</text>
</g>
<g transform="matrix(1.0000 0.0000 0.0000 1.0000 64.5696 1561.3641)">
	<text transform="matrix(1 0 0 1 8 -214.5625)" style="font-family:'ArialMT'; font-size:83px;">3</text>
</g>
<g transform="matrix(1.0000 0.0000 0.0000 1.0000 371.6562 1561.3641)">
	<text transform="matrix(1 0 0 1 8.0001 -214.5625)" style="font-family:'ArialMT'; font-size:83px;">8</text>
</g>
<g transform="matrix(1.0000 0.0000 0.0000 1.0000 678.7428 1561.3641)">
	<text transform="matrix(1 0 0 1 8 -214.5625)" style="font-family:'ArialMT'; font-size:83px;">15</text>
</g>
<g transform="matrix(1.0000 0.0000 0.0000 1.0000 985.8294 1561.3641)">
	<text transform="matrix(1 0 0 1 7.9999 -214.5625)" style="font-family:'ArialMT'; font-size:83px;">23</text>
</g>
<g transform="matrix(1.0000 0.0000 0.0000 1.0000 1292.9160 1561.3641)">
	<text transform="matrix(1 0 0 1 8 -214.5625)" style="font-family:'ArialMT'; font-size:83px;">31</text>
</g>
<g transform="matrix(1.0000 0.0000 0.0000 1.0000 1600.0027 1561.3641)">
	<text transform="matrix(1 0 0 1 8 -214.5625)" style="font-family:'ArialMT'; font-size:83px;">39</text>
</g>
<g transform="matrix(1.0000 0.0000 0.0000 1.0000 371.6562 1868.4508)">
	<text transform="matrix(1 0 0 1 8.0001 -214.5625)" style="font-family:'ArialMT'; font-size:83px;">9</text>
</g>
<g transform="matrix(1.0000 0.0000 0.0000 1.0000 678.7428 1868.4508)">
	<text transform="matrix(1 0 0 1 8 -214.5625)" style="font-family:'ArialMT'; font-size:83px;">16</text>
</g>
<g transform="matrix(1.0000 0.0000 0.0000 1.0000 985.8294 1868.4508)">
	<text transform="matrix(1 0 0 1 7.9999 -214.5625)" style="font-family:'ArialMT'; font-size:83px;">24</text>
</g>
<g transform="matrix(1.0000 0.0000 0.0000 1.0000 1292.9160 1868.4508)">
	<text transform="matrix(1 0 0 1 8 -214.5625)" style="font-family:'ArialMT'; font-size:83px;">32</text>
</g>
<g transform="matrix(1.0000 0.0000 0.0000 1.0000 1600.0027 1868.4508)">
	<text transform="matrix(1 0 0 1 8 -214.5625)" style="font-family:'ArialMT'; font-size:83px;">40</text>
</g>
<g transform="matrix(1.0000 0.0000 0.0000 1.0000 371.6562 2175.5374)">
	<text transform="matrix(1 0 0 1 8.0001 -214.5625)" style="font-family:'ArialMT'; font-size:83px;">10</text>
</g>
<g transform="matrix(1.0000 0.0000 0.0000 1.0000 678.7428 2175.5374)">
	<text transform="matrix(1 0 0 1 8 -214.5625)" style="font-family:'ArialMT'; font-size:83px;">17</text>
</g>
<g transform="matrix(1.0000 0.0000 0.0000 1.0000 985.8294 2175.5374)">
	<text transform="matrix(1 0 0 1 7.9999 -214.5625)" style="font-family:'ArialMT'; font-size:83px;">25</text>
</g>
<g transform="matrix(1.0000 0.0000 0.0000 1.0000 1292.9160 2175.5374)">
	<text transform="matrix(1 0 0 1 8 -214.5625)" style="font-family:'ArialMT'; font-size:83px;">33</text>
</g>
<g transform="matrix(1.0000 0.0000 0.0000 1.0000 1600.0027 2175.5374)">
	<text transform="matrix(1 0 0 1 8 -214.5625)" style="font-family:'ArialMT'; font-size:83px;">41</text>
</g>
<g transform="matrix(1.0000 0.0000 0.0000 1.0000 678.7428 2482.6240)">
	<text transform="matrix(1 0 0 1 8 -214.5625)" style="font-family:'ArialMT'; font-size:83px;">18</text>
</g>
<g transform="matrix(1.0000 0.0000 0.0000 1.0000 985.8294 2482.6240)">
	<text transform="matrix(1 0 0 1 7.9999 -214.5625)" style="font-family:'ArialMT'; font-size:83px;">26</text>
</g>
<g transform="matrix(1.0000 0.0000 0.0000 1.0000 1292.9160 2482.6240)">
	<text transform="matrix(1 0 0 1 8 -214.5625)" style="font-family:'ArialMT'; font-size:83px;">34</text>
</g>
<g transform="matrix(1.0000 0.0000 0.0000 1.0000 1600.0027 2482.6240)">
	<text transform="matrix(1 0 0 1 8 -214.5625)" style="font-family:'ArialMT'; font-size:83px;">42</text>
</g>
<text transform="matrix(1 0 0 1 1466.0696 865.822)" style="fill:#E73A43; font-family:'KozGoPr6N-Regular-83pv-RKSJ-H'; font-size:133px;">B市</text>
<g transform="matrix(0.1250 0.0000 0.0000 0.1250 0.0000 0.0000)">
	<path style="fill:none;stroke:#E0F300;stroke-width:20;stroke-linejoin:round;stroke-miterlimit:10;" d="M8679,795.5l-4052,454
		l-939,1786l-868,1960l-1301,1720l-608,639l-391,400c29,187,52,375,87,560c21,107,85,182,130,280c18,39,37,78,44,120
		c8,53,0,107,0,160l347,1200l1736,1640l521,2639c72,107,135,220,217,320l217,200l564,640l2724,2226l1268-506l4470,480l260-1480
		l1389-2160l-1432-1439l954-2200l1649-1600l1215-1480l-998-1319l-1365-1080l-110-1560l-521-1720l-2039-1120l-1302,40L8679,795.5z"/>
</g>
<g transform="matrix(1.0000 0.0000 0.0000 1.0000 0.0000 0.0000)">
</g>
<g transform="matrix(1.0000 0.0000 0.0000 1.0000 0.0000 0.0000)">
</g>
<g transform="matrix(1.0000 0.0000 0.0000 1.0000 0.0000 0.0000)">
</g>
<g transform="matrix(0.1250 0.0000 0.0000 0.1250 0.0000 0.0000)">
	<path style="fill:none;stroke:#E0F400;stroke-width:20;stroke-linejoin:round;stroke-miterlimit:10;" d="M10832,579.5l-2983,3333
		c-9,1360-18,2720-27,4080l-1332,4639c-27,1297,346,3475,320,4772"/>
</g>
<g transform="matrix(1.0000 0.0000 0.0000 1.0000 0.0000 0.0000)">
</g>
<g transform="matrix(1.0000 0.0000 0.0000 1.0000 0.0000 0.0000)">
</g>
<text transform="matrix(1 0 0 1 528.4882 876.7485)" style="fill:#E73A43; font-family:'KozGoPr6N-Regular-83pv-RKSJ-H'; font-size:133px;">A市</text>
<g transform="matrix(1.0000 0.0000 0.0000 1.0000 0.0000 0.0000)">
</g>
<g transform="matrix(1.0000 0.0000 0.0000 1.0000 0.0000 0.0000)">
</g>
<g transform="matrix(1.0000 0.0000 0.0000 1.0000 0.0000 0.0000)">
</g>
<g transform="matrix(1.0000 0.0000 0.0000 1.0000 0.0000 0.0000)">
</g>
<g transform="matrix(1.0000 0.0000 0.0000 1.0000 0.0000 0.0000)">
</g>
<g transform="matrix(1.0000 0.0000 0.0000 1.0000 0.0000 0.0000)">
</g>
<g transform="matrix(1.0000 0.0000 0.0000 1.0000 0.0000 0.0000)">
</g>
<g transform="matrix(1.0000 0.0000 0.0000 1.0000 0.0000 0.0000)">
</g>
<g transform="matrix(1.0000 0.0000 0.0000 1.0000 0.0000 0.0000)">
</g>
<g transform="matrix(1.0000 0.0000 0.0000 1.0000 0.0000 0.0000)">
</g>
<g transform="matrix(1.0000 0.0000 0.0000 1.0000 0.0000 0.0000)">
</g>
<g transform="matrix(1.0000 0.0000 0.0000 1.0000 0.0000 0.0000)">
</g>
<g>
	<polygon style="fill-rule:evenodd;clip-rule:evenodd;fill:#A5A5A5;" points="2302.5,498.6 2766.9,498.6 2766.9,641.7 2302.5,641.7 
		2302.5,498.6 	"/>
	<polygon style="fill-rule:evenodd;clip-rule:evenodd;fill:#A5A5A5;" points="2766.9,498.6 4160.1,498.6 4160.1,641.7 2766.9,641.7 
		2766.9,498.6 	"/>
	<polygon style="fill-rule:evenodd;clip-rule:evenodd;fill:#E1E1E1;" points="2302.5,641.7 2766.9,641.7 2766.9,784.8 2302.5,784.8 
		2302.5,641.7 	"/>
	<polygon style="fill-rule:evenodd;clip-rule:evenodd;fill:#E1E1E1;" points="2766.9,641.7 4160.1,641.7 4160.1,784.8 2766.9,784.8 
		2766.9,641.7 	"/>
	<polygon style="fill-rule:evenodd;clip-rule:evenodd;fill:#F0F0F0;" points="2302.5,784.8 2766.9,784.8 2766.9,927.9 2302.5,927.9 
		2302.5,784.8 	"/>
	<polygon style="fill-rule:evenodd;clip-rule:evenodd;fill:#F0F0F0;" points="2766.9,784.8 4160.1,784.8 4160.1,927.9 2766.9,927.9 
		2766.9,784.8 	"/>
	
		<line style="fill:none;stroke:#FFFFFF;stroke-linejoin:round;stroke-miterlimit:10;" x1="2656.6" y1="496.2" x2="2656.6" y2="930.4"/>
</g>
<g>
	<text transform="matrix(1 0 0 1 2617.1064 242.3042)" style="font-family:'KozGoPr6N-Regular-83pv-RKSJ-H'; font-size:88px;">行政界</text>
	<text transform="matrix(1 0 0 1 2617.1064 401.125)" style="font-family:'KozGoPr6N-Regular-83pv-RKSJ-H'; font-size:88px;">行政界を跨ぐデータ（重複して含むデータ）</text>
	<line style="fill:none;stroke:#E8F540;stroke-width:20;stroke-miterlimit:8;" x1="2292" y1="220.1" x2="2582.1" y2="220.1"/>
	<text transform="matrix(1 0 0 1 2337.7549 887.1621)" style="font-family:'KozGoPr6N-Regular-83pv-RKSJ-H'; font-size:88px;">B市</text>
	<polygon style="fill-rule:evenodd;clip-rule:evenodd;fill:#737A7A;" points="2302.3,313.9 2592.8,313.9 2592.8,427.4 2302.3,427.4 
		2302.3,313.9 	"/>
	<line style="fill:none;stroke:#40D1D0;stroke-width:20;stroke-miterlimit:8;" x1="2292" y1="67.8" x2="2582.1" y2="67.8"/>
	<text transform="matrix(1 0 0 1 2732.6667 744.0381)" style="font-family:'KozGoPr6N-Regular-83pv-RKSJ-H'; font-size:88px;">1 ～２２</text>
	<text transform="matrix(1 0 0 1 2715.1267 887.1621)" style="font-family:'KozGoPr6N-Regular-83pv-RKSJ-H'; font-size:88px;">１４～４４</text>
	<text transform="matrix(1 0 0 1 2337.7549 744.0381)" style="font-family:'KozGoPr6N-Regular-83pv-RKSJ-H'; font-size:88px;">A市</text>
	
		<text transform="matrix(1 0 0 1 2742.7859 600.9131)" style="fill:#FFFFFF; font-family:'KozGoPr6N-Regular-83pv-RKSJ-H'; font-size:88px;">3D 都市モデルに含まれるデータ</text>
	<text transform="matrix(1 0 0 1 2617.1064 83.562)" style="font-family:'KozGoPr6N-Regular-83pv-RKSJ-H'; font-size:88px;">ファイル単位（メッシュ境界）</text>
</g>
</svg>
