<?xml version="1.0" encoding="utf-8"?>
<!-- Generator: Adobe Illustrator 28.1.0, SVG Export Plug-In . SVG Version: 6.00 Build 0)  -->
<svg version="1.1" id="Layer_1" xmlns="http://www.w3.org/2000/svg" xmlns:xlink="http://www.w3.org/1999/xlink" x="0px" y="0px"
	 viewBox="0 0 2907 2166" style="enable-background:new 0 0 2907 2166;" xml:space="preserve">
<style type="text/css">
	.st0{fill:#FFFFFF;stroke:#FFFFFF;stroke-width:10;stroke-miterlimit:10;}
	.st1{fill:#CDCDCD;stroke:#CDCDCD;stroke-width:2.441406e-04;stroke-miterlimit:10;}
	.st2{fill:none;stroke:#000000;stroke-width:10;stroke-miterlimit:10;}
	.st3{fill:#E7E6E6;stroke:#E7E6E6;stroke-width:10;stroke-miterlimit:10;}
	.st4{fill:#BAB9B9;stroke:#BAB9B9;stroke-width:1.953125e-03;stroke-miterlimit:10;}
	.st5{fill:none;stroke:#000000;stroke-width:10;stroke-miterlimit:1.25;}
	.st6{font-family:'KozGoPr6N-Regular-83pv-RKSJ-H';}
	.st7{font-size:117px;}
	.st8{fill:#FFFFFF;stroke:#FFFFFF;stroke-width:5;stroke-miterlimit:10;}
	.st9{fill:none;stroke:#A5A5A5;stroke-width:5;stroke-miterlimit:1.25;}
	.st10{fill:#CDCDCD;stroke:#CDCDCD;stroke-width:5;stroke-miterlimit:10;}
	.st11{fill:none;stroke:#A5A5A5;stroke-width:5;stroke-miterlimit:10;}
	.st12{fill:#A6A6A6;stroke:#A6A6A6;stroke-width:10;stroke-miterlimit:10;}
	.st13{fill:none;stroke:#000000;stroke-width:5;stroke-miterlimit:10;}
	.st14{font-size:133px;}
	.st15{font-family:'ArialMT';}
	.st16{font-size:100px;}
	.st17{fill:#595959;stroke:#595959;stroke-width:1.953125e-03;stroke-linejoin:round;stroke-miterlimit:10;}
</style>
<g transform="translate(0.0000, 0.00 00)">
	<g transform="matrix(0.0625 0.0000 0.0000 0.0625 0.0000 0.0000)">
		<path class="st0" d="M5648.1,272h14752v12294l-2458,2458h-12294L5648.1,272L5648.1,272z"/>
	</g>
	<g transform="matrix(1.0000 0.0000 0.0000 1.0000 0.0000 0.0000)">
	</g>
	<g transform="matrix(0.0625 0.0000 0.0000 0.0625 0.0000 0.0000)">
		<path class="st1" d="M17942.1,15024l492-1966l1966-492L17942.1,15024z"/>
	</g>
	<g transform="matrix(1.0000 0.0000 0.0000 1.0000 0.0000 0.0000)">
	</g>
	<g transform="matrix(0.0625 0.0000 0.0000 0.0625 0.0000 0.0000)">
		<path class="st2" d="M17942.1,15024l492-1966l1966-492L17942.1,15024h-12294V272h14752v12294"/>
	</g>
	<g transform="matrix(1.0000 0.0000 0.0000 1.0000 0.0000 0.0000)">
	</g>
	<g transform="matrix(0.1250 0.0000 0.0000 0.1250 0.0000 0.0000)">
		<path class="st3" d="M15848,32h7384v6354l-1230,1230h-6154V32z"/>
	</g>
	<g transform="matrix(1.0000 0.0000 0.0000 1.0000 0.0000 0.0000)">
	</g>
	<g transform="matrix(0.1250 0.0000 0.0000 0.1250 0.0000 0.0000)">
		<path class="st4" d="M22002,7616l246-984l984-246L22002,7616z"/>
	</g>
	<g transform="matrix(1.0000 0.0000 0.0000 1.0000 0.0000 0.0000)">
	</g>
	<g transform="matrix(0.1250 0.0000 0.0000 0.1250 0.0000 0.0000)">
		<path class="st5" d="M22002,7616l246-984l984-246L22002,7616h-6154V32h7384v6354"/>
	</g>
	<g transform="matrix(1.0000 0.0000 0.0000 1.0000 0.0000 0.0000)">
	</g>
	<g transform="matrix(1.0000 0.0000 0.0000 1.0000 557.3550 177.5066)">
		<text transform="matrix(1 0 0 1 -4.4947 0.5)" class="st6 st7">各都市の</text>
	</g>
	<g transform="matrix(1.0000 0.0000 0.0000 1.0000 663.3550 317.5066)">
		<text transform="matrix(1 0 0 1 -4.4947 0.5)" class="st6 st7">拡張</text>
	</g>
	<g transform="matrix(1.0000 0.0000 0.0000 1.0000 487.3550 457.5066)">
		<text transform="matrix(1 0 0 1 -4.4947 0.5)" class="st6 st7">製品仕様書</text>
	</g>
	<g transform="matrix(1.0000 0.0000 0.0000 1.0000 2312.5085 318.8740)">
		<text transform="matrix(1 0 0 1 -4.4946 0.5)" class="st6 st7">標準</text>
	</g>
	<g transform="matrix(1.0000 0.0000 0.0000 1.0000 2136.5085 458.8740)">
		<text transform="matrix(1 0 0 1 -4.4946 0.5)" class="st6 st7">製品仕様書</text>
	</g>
	<g transform="matrix(0.1250 0.0000 0.0000 0.1250 0.0000 0.0000)">
		<path class="st8" d="M32,17296l2607-2968h10425l-2606,2968H32z"/>
	</g>
	<g transform="matrix(1.0000 0.0000 0.0000 1.0000 0.0000 0.0000)">
	</g>
	<g transform="matrix(0.1250 0.0000 0.0000 0.1250 0.0000 0.0000)">
		<path class="st9" d="M32,17296l2607-2968h10425l-2606,2968H32z"/>
	</g>
	<g transform="matrix(1.0000 0.0000 0.0000 1.0000 0.0000 0.0000)">
	</g>
	<g transform="matrix(0.0625 0.0000 0.0000 0.0625 0.0000 0.0000)">
		<path class="st8" d="M10288.1,27980v2484h2004v-2484H10288.1z"/>
	</g>
	<g transform="matrix(1.0000 0.0000 0.0000 1.0000 0.0000 0.0000)">
	</g>
	<g transform="matrix(0.0625 0.0000 0.0000 0.0625 0.0000 0.0000)">
		<path class="st10" d="M12292.1,27980l668-668v2484l-668,668V27980z"/>
	</g>
	<g transform="matrix(1.0000 0.0000 0.0000 1.0000 0.0000 0.0000)">
	</g>
	<g transform="matrix(0.0625 0.0000 0.0000 0.0625 0.0000 0.0000)">
		<path class="st8" d="M10288.1,27980l668-668h2004l-668,668H10288.1z"/>
	</g>
	<g transform="matrix(1.0000 0.0000 0.0000 1.0000 0.0000 0.0000)">
	</g>
	<g transform="matrix(0.0625 0.0000 0.0000 0.0625 0.0000 0.0000)">
		<path class="st11" d="M10288.1,27980l668-668h2004v2484l-668,668h-2004V27980z"/>
		<path class="st11" d="M10288.1,27980h2004l668-668"/>
		<path class="st11" d="M12292.1,27980v2484"/>
	</g>
	<g transform="matrix(1.0000 0.0000 0.0000 1.0000 0.0000 0.0000)">
	</g>
	<g transform="matrix(0.0625 0.0000 0.0000 0.0625 0.0000 0.0000)">
		<path class="st8" d="M6432.1,27916v2500h2004v-2500H6432.1z"/>
	</g>
	<g transform="matrix(1.0000 0.0000 0.0000 1.0000 0.0000 0.0000)">
	</g>
	<g transform="matrix(0.0625 0.0000 0.0000 0.0625 0.0000 0.0000)">
		<path class="st10" d="M8436.1,27916l668-668v2500l-668,668V27916z"/>
	</g>
	<g transform="matrix(1.0000 0.0000 0.0000 1.0000 0.0000 0.0000)">
	</g>
	<g transform="matrix(0.0625 0.0000 0.0000 0.0625 0.0000 0.0000)">
		<path class="st8" d="M6432.1,27916l668-668h2004l-668,668H6432.1z"/>
	</g>
	<g transform="matrix(1.0000 0.0000 0.0000 1.0000 0.0000 0.0000)">
	</g>
	<g transform="matrix(0.0625 0.0000 0.0000 0.0625 0.0000 0.0000)">
		<path class="st11" d="M6432.1,27916l668-668h2004v2500l-668,668h-2004L6432.1,27916L6432.1,27916z"/>
		<path class="st11" d="M6432.1,27916h2004l668-668"/>
		<path class="st11" d="M8436.1,27916v2500"/>
	</g>
	<g transform="matrix(1.0000 0.0000 0.0000 1.0000 0.0000 0.0000)">
	</g>
	<g transform="matrix(0.0625 0.0000 0.0000 0.0625 0.0000 0.0000)">
		<path class="st8" d="M14528.1,27944v1416h2552v-1416H14528.1z"/>
	</g>
	<g transform="matrix(1.0000 0.0000 0.0000 1.0000 0.0000 0.0000)">
	</g>
	<g transform="matrix(0.0625 0.0000 0.0000 0.0625 0.0000 0.0000)">
		<path class="st10" d="M17080.1,27944l472-472v1416l-472,472V27944z"/>
	</g>
	<g transform="matrix(1.0000 0.0000 0.0000 1.0000 0.0000 0.0000)">
	</g>
	<g transform="matrix(0.0625 0.0000 0.0000 0.0625 0.0000 0.0000)">
		<path class="st8" d="M14528.1,27944l472-472h2552l-472,472H14528.1z"/>
	</g>
	<g transform="matrix(1.0000 0.0000 0.0000 1.0000 0.0000 0.0000)">
	</g>
	<g transform="matrix(0.0625 0.0000 0.0000 0.0625 0.0000 0.0000)">
		<path class="st11" d="M14528.1,27944l472-472h2552v1416l-472,472h-2552V27944z"/>
		<path class="st11" d="M14528.1,27944h2552l472-472"/>
		<path class="st11" d="M17080.1,27944v1416"/>
	</g>
	<g transform="matrix(1.0000 0.0000 0.0000 1.0000 0.0000 0.0000)">
	</g>
	<g transform="matrix(0.0625 0.0000 0.0000 0.0625 0.0000 0.0000)">
		<path class="st8" d="M4336.1,30556v916h804v-916H4336.1z"/>
	</g>
	<g transform="matrix(1.0000 0.0000 0.0000 1.0000 0.0000 0.0000)">
	</g>
	<g transform="matrix(0.0625 0.0000 0.0000 0.0625 0.0000 0.0000)">
		<path class="st10" d="M5140.1,30556l268-268v916l-268,268V30556z"/>
	</g>
	<g transform="matrix(1.0000 0.0000 0.0000 1.0000 0.0000 0.0000)">
	</g>
	<g transform="matrix(0.0625 0.0000 0.0000 0.0625 0.0000 0.0000)">
		<path class="st8" d="M4336.1,30556l268-268h804l-268,268H4336.1z"/>
	</g>
	<g transform="matrix(1.0000 0.0000 0.0000 1.0000 0.0000 0.0000)">
	</g>
	<g transform="matrix(0.0625 0.0000 0.0000 0.0625 0.0000 0.0000)">
		<path class="st11" d="M4336.1,30556l268-268h804v916l-268,268h-804V30556z"/>
		<path class="st11" d="M4336.1,30556h804l268-268"/>
		<path class="st11" d="M5140.1,30556v916"/>
	</g>
	<g transform="matrix(1.0000 0.0000 0.0000 1.0000 0.0000 0.0000)">
	</g>
	<g transform="matrix(0.1250 0.0000 0.0000 0.1250 0.0000 0.0000)">
		<path class="st8" d="M2968,16078v458h402v-458H2968z"/>
	</g>
	<g transform="matrix(1.0000 0.0000 0.0000 1.0000 0.0000 0.0000)">
	</g>
	<g transform="matrix(0.1250 0.0000 0.0000 0.1250 0.0000 0.0000)">
		<path class="st10" d="M3370,16078l134-134v458l-134,134V16078z"/>
	</g>
	<g transform="matrix(1.0000 0.0000 0.0000 1.0000 0.0000 0.0000)">
	</g>
	<g transform="matrix(0.0625 0.0000 0.0000 0.0625 0.0000 0.0000)">
		<path class="st8" d="M5936.1,32156l268-268h804l-268,268H5936.1z"/>
	</g>
	<g transform="matrix(1.0000 0.0000 0.0000 1.0000 0.0000 0.0000)">
	</g>
	<g transform="matrix(0.1250 0.0000 0.0000 0.1250 0.0000 0.0000)">
		<path class="st9" d="M2968,16078l134-134h402v458l-134,134h-402V16078z"/>
		<path class="st9" d="M2968,16078h402l134-134"/>
		<path class="st9" d="M3370,16078v458"/>
	</g>
	<g transform="matrix(1.0000 0.0000 0.0000 1.0000 0.0000 0.0000)">
	</g>
	<g transform="matrix(0.0625 0.0000 0.0000 0.0625 0.0000 0.0000)">
		<path class="st8" d="M6736.1,30812v916h804v-916H6736.1z"/>
	</g>
	<g transform="matrix(1.0000 0.0000 0.0000 1.0000 0.0000 0.0000)">
	</g>
	<g transform="matrix(0.0625 0.0000 0.0000 0.0625 0.0000 0.0000)">
		<path class="st10" d="M7540.1,30812l268-268v916l-268,268V30812z"/>
	</g>
	<g transform="matrix(1.0000 0.0000 0.0000 1.0000 0.0000 0.0000)">
	</g>
	<g transform="matrix(0.0625 0.0000 0.0000 0.0625 0.0000 0.0000)">
		<path class="st8" d="M6736.1,30812l268-268h804l-268,268H6736.1z"/>
	</g>
	<g transform="matrix(1.0000 0.0000 0.0000 1.0000 0.0000 0.0000)">
	</g>
	<g transform="matrix(0.0625 0.0000 0.0000 0.0625 0.0000 0.0000)">
		<path class="st11" d="M6736.1,30812l268-268h804v916l-268,268h-804V30812z"/>
		<path class="st11" d="M6736.1,30812h804l268-268"/>
		<path class="st11" d="M7540.1,30812v916"/>
	</g>
	<g transform="matrix(1.0000 0.0000 0.0000 1.0000 0.0000 0.0000)">
	</g>
	<g transform="matrix(0.1250 0.0000 0.0000 0.1250 0.0000 0.0000)">
		<path class="st8" d="M2424,16462v458h402v-458H2424z"/>
	</g>
	<g transform="matrix(1.0000 0.0000 0.0000 1.0000 0.0000 0.0000)">
	</g>
	<g transform="matrix(0.1250 0.0000 0.0000 0.1250 0.0000 0.0000)">
		<path class="st10" d="M2826,16462l134-134v458l-134,134V16462z"/>
	</g>
	<g transform="matrix(1.0000 0.0000 0.0000 1.0000 0.0000 0.0000)">
	</g>
	<g transform="matrix(0.1250 0.0000 0.0000 0.1250 0.0000 0.0000)">
		<path class="st8" d="M2424,16462l134-134h402l-134,134H2424z"/>
	</g>
	<g transform="matrix(1.0000 0.0000 0.0000 1.0000 0.0000 0.0000)">
	</g>
	<g transform="matrix(0.1250 0.0000 0.0000 0.1250 0.0000 0.0000)">
		<path class="st9" d="M2424,16462l134-134h402v458l-134,134h-402V16462z"/>
		<path class="st9" d="M2424,16462h402l134-134"/>
		<path class="st9" d="M2826,16462v458"/>
	</g>
	<g transform="matrix(1.0000 0.0000 0.0000 1.0000 0.0000 0.0000)">
	</g>
	<g transform="matrix(0.0625 0.0000 0.0000 0.0625 0.0000 0.0000)">
		<path class="st8" d="M4848.1,31436v916h804v-916H4848.1z"/>
	</g>
	<g transform="matrix(1.0000 0.0000 0.0000 1.0000 0.0000 0.0000)">
	</g>
	<g transform="matrix(0.0625 0.0000 0.0000 0.0625 0.0000 0.0000)">
		<path class="st10" d="M5652.1,31436l268-268v916l-268,268V31436z"/>
	</g>
	<g transform="matrix(1.0000 0.0000 0.0000 1.0000 0.0000 0.0000)">
	</g>
	<g transform="matrix(0.0625 0.0000 0.0000 0.0625 0.0000 0.0000)">
		<path class="st8" d="M4848.1,31436l268-268h804l-268,268H4848.1z"/>
	</g>
	<g transform="matrix(1.0000 0.0000 0.0000 1.0000 0.0000 0.0000)">
	</g>
	<g transform="matrix(0.1250 0.0000 0.0000 0.1250 0.0000 0.0000)">
		<path class="st9" d="M2424,15718l134-134h402v458l-134,134h-402V15718z"/>
		<path class="st9" d="M2424,15718h402l134-134"/>
		<path class="st9" d="M2826,15718v458"/>
	</g>
	<g transform="matrix(1.0000 0.0000 0.0000 1.0000 0.0000 0.0000)">
	</g>
	<g transform="matrix(0.1250 0.0000 0.0000 0.1250 0.0000 0.0000)">
		<path class="st8" d="M1744,16078v458h402v-458H1744z"/>
	</g>
	<g transform="matrix(1.0000 0.0000 0.0000 1.0000 0.0000 0.0000)">
	</g>
	<g transform="matrix(0.1250 0.0000 0.0000 0.1250 0.0000 0.0000)">
		<path class="st10" d="M2146,16078l134-134v458l-134,134V16078z"/>
	</g>
	<g transform="matrix(1.0000 0.0000 0.0000 1.0000 0.0000 0.0000)">
	</g>
	<g transform="matrix(0.0625 0.0000 0.0000 0.0625 0.0000 0.0000)">
		<path class="st8" d="M3488.1,32156l268-268h804l-268,268H3488.1z"/>
	</g>
	<g transform="matrix(1.0000 0.0000 0.0000 1.0000 0.0000 0.0000)">
	</g>
	<g transform="matrix(0.1250 0.0000 0.0000 0.1250 0.0000 0.0000)">
		<path class="st9" d="M1744,16078l134-134h402v458l-134,134h-402V16078z"/>
		<path class="st9" d="M1744,16078h402l134-134"/>
		<path class="st9" d="M2146,16078v458"/>
	</g>
	<g transform="matrix(1.0000 0.0000 0.0000 1.0000 0.0000 0.0000)">
	</g>
	<g transform="matrix(0.0625 0.0000 0.0000 0.0625 0.0000 0.0000)">
		<path class="st8" d="M20544.1,31532v916h804v-916H20544.1z"/>
	</g>
	<g transform="matrix(1.0000 0.0000 0.0000 1.0000 0.0000 0.0000)">
	</g>
	<g transform="matrix(0.0625 0.0000 0.0000 0.0625 0.0000 0.0000)">
		<path class="st10" d="M21348.1,31532l268-268v916l-268,268V31532z"/>
	</g>
	<g transform="matrix(1.0000 0.0000 0.0000 1.0000 0.0000 0.0000)">
	</g>
	<g transform="matrix(0.0625 0.0000 0.0000 0.0625 0.0000 0.0000)">
		<path class="st8" d="M20544.1,31532l268-268h804l-268,268H20544.1z"/>
	</g>
	<g transform="matrix(1.0000 0.0000 0.0000 1.0000 0.0000 0.0000)">
	</g>
	<g transform="matrix(0.1250 0.0000 0.0000 0.1250 0.0000 0.0000)">
		<path class="st9" d="M10272,15766l134-134h402v458l-134,134h-402V15766z"/>
		<path class="st9" d="M10272,15766h402l134-134"/>
		<path class="st9" d="M10674,15766v458"/>
	</g>
	<g transform="matrix(1.0000 0.0000 0.0000 1.0000 0.0000 0.0000)">
	</g>
	<g transform="matrix(0.0625 0.0000 0.0000 0.0625 0.0000 0.0000)">
		<path class="st8" d="M19968.1,29596v916h804v-916H19968.1z"/>
	</g>
	<g transform="matrix(1.0000 0.0000 0.0000 1.0000 0.0000 0.0000)">
	</g>
	<g transform="matrix(0.0625 0.0000 0.0000 0.0625 0.0000 0.0000)">
		<path class="st10" d="M20772.1,29596l268-268v916l-268,268V29596z"/>
	</g>
	<g transform="matrix(1.0000 0.0000 0.0000 1.0000 0.0000 0.0000)">
	</g>
	<g transform="matrix(0.0625 0.0000 0.0000 0.0625 0.0000 0.0000)">
		<path class="st8" d="M19968.1,29596l268-268h804l-268,268H19968.1z"/>
	</g>
	<g transform="matrix(1.0000 0.0000 0.0000 1.0000 0.0000 0.0000)">
	</g>
	<g transform="matrix(0.0625 0.0000 0.0000 0.0625 0.0000 0.0000)">
		<path class="st11" d="M19968.1,29596l268-268h804v916l-268,268h-804V29596z"/>
		<path class="st11" d="M19968.1,29596h804l268-268"/>
		<path class="st11" d="M20772.1,29596v916"/>
	</g>
	<g transform="matrix(1.0000 0.0000 0.0000 1.0000 0.0000 0.0000)">
	</g>
	<g transform="matrix(0.0625 0.0000 0.0000 0.0625 0.0000 0.0000)">
		<path class="st8" d="M21280.1,29664v912h816v-912H21280.1z"/>
	</g>
	<g transform="matrix(1.0000 0.0000 0.0000 1.0000 0.0000 0.0000)">
	</g>
	<g transform="matrix(0.0625 0.0000 0.0000 0.0625 0.0000 0.0000)">
		<path class="st10" d="M22096.1,29664l272-272v912l-272,272V29664z"/>
	</g>
	<g transform="matrix(1.0000 0.0000 0.0000 1.0000 0.0000 0.0000)">
	</g>
	<g transform="matrix(0.0625 0.0000 0.0000 0.0625 0.0000 0.0000)">
		<path class="st8" d="M21280.1,29664l272-272h816l-272,272H21280.1z"/>
	</g>
	<g transform="matrix(1.0000 0.0000 0.0000 1.0000 0.0000 0.0000)">
	</g>
	<g transform="matrix(0.0625 0.0000 0.0000 0.0625 0.0000 0.0000)">
		<path class="st11" d="M21280.1,29664l272-272h816v912l-272,272h-816V29664z"/>
		<path class="st11" d="M21280.1,29664h816l272-272"/>
		<path class="st11" d="M22096.1,29664v912"/>
	</g>
	<g transform="matrix(1.0000 0.0000 0.0000 1.0000 0.0000 0.0000)">
	</g>
	<g transform="matrix(0.0625 0.0000 0.0000 0.0625 0.0000 0.0000)">
		<path class="st8" d="M14704.1,29016v1416h2552v-1416H14704.1z"/>
	</g>
	<g transform="matrix(1.0000 0.0000 0.0000 1.0000 0.0000 0.0000)">
	</g>
	<g transform="matrix(0.0625 0.0000 0.0000 0.0625 0.0000 0.0000)">
		<path class="st10" d="M17256.1,29016l472-472v1416l-472,472V29016z"/>
	</g>
	<g transform="matrix(1.0000 0.0000 0.0000 1.0000 0.0000 0.0000)">
	</g>
	<g transform="matrix(0.0625 0.0000 0.0000 0.0625 0.0000 0.0000)">
		<path class="st8" d="M14704.1,29016l472-472h2552l-472,472H14704.1z"/>
	</g>
	<g transform="matrix(1.0000 0.0000 0.0000 1.0000 0.0000 0.0000)">
	</g>
	<g transform="matrix(0.0625 0.0000 0.0000 0.0625 0.0000 0.0000)">
		<path class="st11" d="M14704.1,29016l472-472h2552v1416l-472,472h-2552V29016z"/>
		<path class="st11" d="M14704.1,29016h2552l472-472"/>
		<path class="st11" d="M17256.1,29016v1416"/>
	</g>
	<g transform="matrix(1.0000 0.0000 0.0000 1.0000 0.0000 0.0000)">
	</g>
	<g transform="matrix(0.0625 0.0000 0.0000 0.0625 0.0000 0.0000)">
		<path class="st8" d="M13088.1,30204v932h804v-932H13088.1z"/>
	</g>
	<g transform="matrix(1.0000 0.0000 0.0000 1.0000 0.0000 0.0000)">
	</g>
	<g transform="matrix(0.0625 0.0000 0.0000 0.0625 0.0000 0.0000)">
		<path class="st10" d="M13892.1,30204l268-268v932l-268,268V30204z"/>
	</g>
	<g transform="matrix(1.0000 0.0000 0.0000 1.0000 0.0000 0.0000)">
	</g>
	<g transform="matrix(0.0625 0.0000 0.0000 0.0625 0.0000 0.0000)">
		<path class="st8" d="M13088.1,30204l268-268h804l-268,268H13088.1z"/>
	</g>
	<g transform="matrix(1.0000 0.0000 0.0000 1.0000 0.0000 0.0000)">
	</g>
	<g transform="matrix(0.0625 0.0000 0.0000 0.0625 0.0000 0.0000)">
		<path class="st11" d="M13088.1,30204l268-268h804v932l-268,268h-804V30204z"/>
		<path class="st11" d="M13088.1,30204h804l268-268"/>
		<path class="st11" d="M13892.1,30204v932"/>
	</g>
	<g transform="matrix(1.0000 0.0000 0.0000 1.0000 0.0000 0.0000)">
	</g>
	<g transform="matrix(0.0625 0.0000 0.0000 0.0625 0.0000 0.0000)">
		<path class="st8" d="M14688.1,31804v932h804v-932H14688.1z"/>
	</g>
	<g transform="matrix(1.0000 0.0000 0.0000 1.0000 0.0000 0.0000)">
	</g>
	<g transform="matrix(0.0625 0.0000 0.0000 0.0625 0.0000 0.0000)">
		<path class="st10" d="M15492.1,31804l268-268v932l-268,268V31804z"/>
	</g>
	<g transform="matrix(1.0000 0.0000 0.0000 1.0000 0.0000 0.0000)">
	</g>
	<g transform="matrix(0.0625 0.0000 0.0000 0.0625 0.0000 0.0000)">
		<path class="st8" d="M14688.1,31804l268-268h804l-268,268H14688.1z"/>
	</g>
	<g transform="matrix(1.0000 0.0000 0.0000 1.0000 0.0000 0.0000)">
	</g>
	<g transform="matrix(0.1250 0.0000 0.0000 0.1250 0.0000 0.0000)">
		<path class="st9" d="M7344,15902l134-134h402v466l-134,134h-402V15902z"/>
		<path class="st9" d="M7344,15902h402l134-134"/>
		<path class="st9" d="M7746,15902v466"/>
	</g>
	<g transform="matrix(1.0000 0.0000 0.0000 1.0000 0.0000 0.0000)">
	</g>
	<g transform="matrix(0.1250 0.0000 0.0000 0.1250 0.0000 0.0000)">
		<path class="st8" d="M8032,16206v458h402v-458H8032z"/>
	</g>
	<g transform="matrix(1.0000 0.0000 0.0000 1.0000 0.0000 0.0000)">
	</g>
	<g transform="matrix(0.1250 0.0000 0.0000 0.1250 0.0000 0.0000)">
		<path class="st10" d="M8434,16206l134-134v458l-134,134V16206z"/>
	</g>
	<g transform="matrix(1.0000 0.0000 0.0000 1.0000 0.0000 0.0000)">
	</g>
	<g transform="matrix(0.0625 0.0000 0.0000 0.0625 0.0000 0.0000)">
		<path class="st8" d="M16064.1,32412l268-268h804l-268,268H16064.1z"/>
	</g>
	<g transform="matrix(1.0000 0.0000 0.0000 1.0000 0.0000 0.0000)">
	</g>
	<g transform="matrix(0.1250 0.0000 0.0000 0.1250 0.0000 0.0000)">
		<path class="st9" d="M8032,16206l134-134h402v458l-134,134h-402V16206z"/>
		<path class="st9" d="M8032,16206h402l134-134"/>
		<path class="st9" d="M8434,16206v458"/>
	</g>
	<g transform="matrix(1.0000 0.0000 0.0000 1.0000 0.0000 0.0000)">
	</g>
	<g transform="matrix(0.0625 0.0000 0.0000 0.0625 0.0000 0.0000)">
		<path class="st8" d="M15488.1,30476v916h804v-916H15488.1z"/>
	</g>
	<g transform="matrix(1.0000 0.0000 0.0000 1.0000 0.0000 0.0000)">
	</g>
	<g transform="matrix(0.0625 0.0000 0.0000 0.0625 0.0000 0.0000)">
		<path class="st10" d="M16292.1,30476l268-268v916l-268,268V30476z"/>
	</g>
	<g transform="matrix(1.0000 0.0000 0.0000 1.0000 0.0000 0.0000)">
	</g>
	<g transform="matrix(0.0625 0.0000 0.0000 0.0625 0.0000 0.0000)">
		<path class="st8" d="M15488.1,30476l268-268h804l-268,268H15488.1z"/>
	</g>
	<g transform="matrix(1.0000 0.0000 0.0000 1.0000 0.0000 0.0000)">
	</g>
	<g transform="matrix(0.0625 0.0000 0.0000 0.0625 0.0000 0.0000)">
		<path class="st11" d="M15488.1,30476l268-268h804v916l-268,268h-804V30476z"/>
		<path class="st11" d="M15488.1,30476h804l268-268"/>
		<path class="st11" d="M16292.1,30476v916"/>
	</g>
	<g transform="matrix(1.0000 0.0000 0.0000 1.0000 0.0000 0.0000)">
	</g>
	<g transform="matrix(0.1250 0.0000 0.0000 0.1250 0.0000 0.0000)">
		<path class="st8" d="M6800,16286v458h402v-458H6800z"/>
	</g>
	<g transform="matrix(1.0000 0.0000 0.0000 1.0000 0.0000 0.0000)">
	</g>
	<g transform="matrix(0.1250 0.0000 0.0000 0.1250 0.0000 0.0000)">
		<path class="st10" d="M7202,16286l134-134v458l-134,134V16286z"/>
	</g>
	<g transform="matrix(1.0000 0.0000 0.0000 1.0000 0.0000 0.0000)">
	</g>
	<g transform="matrix(0.0625 0.0000 0.0000 0.0625 0.0000 0.0000)">
		<path class="st8" d="M13600.1,32572l268-268h804l-268,268H13600.1z"/>
	</g>
	<g transform="matrix(1.0000 0.0000 0.0000 1.0000 0.0000 0.0000)">
	</g>
	<g transform="matrix(0.1250 0.0000 0.0000 0.1250 0.0000 0.0000)">
		<path class="st9" d="M6800,16286l134-134h402v458l-134,134h-402V16286z"/>
		<path class="st9" d="M6800,16286h402l134-134"/>
		<path class="st9" d="M7202,16286v458"/>
	</g>
	<g transform="matrix(1.0000 0.0000 0.0000 1.0000 0.0000 0.0000)">
	</g>
	<g transform="matrix(0.0625 0.0000 0.0000 0.0625 0.0000 0.0000)">
		<path class="st8" d="M16800.1,30524v916h804v-916H16800.1z"/>
	</g>
	<g transform="matrix(1.0000 0.0000 0.0000 1.0000 0.0000 0.0000)">
	</g>
	<g transform="matrix(0.0625 0.0000 0.0000 0.0625 0.0000 0.0000)">
		<path class="st10" d="M17604.1,30524l268-268v916l-268,268V30524z"/>
	</g>
	<g transform="matrix(1.0000 0.0000 0.0000 1.0000 0.0000 0.0000)">
	</g>
	<g transform="matrix(0.0625 0.0000 0.0000 0.0625 0.0000 0.0000)">
		<path class="st8" d="M16800.1,30524l268-268h804l-268,268H16800.1z"/>
	</g>
	<g transform="matrix(1.0000 0.0000 0.0000 1.0000 0.0000 0.0000)">
	</g>
	<g transform="matrix(0.0625 0.0000 0.0000 0.0625 0.0000 0.0000)">
		<path class="st11" d="M16800.1,30524l268-268h804v916l-268,268h-804V30524z"/>
		<path class="st11" d="M16800.1,30524h804l268-268"/>
		<path class="st11" d="M17604.1,30524v916"/>
	</g>
	<g transform="matrix(1.0000 0.0000 0.0000 1.0000 0.0000 0.0000)">
	</g>
	<g transform="matrix(0.0625 0.0000 0.0000 0.0625 0.0000 0.0000)">
		<path class="st8" d="M13600.1,31084v916h804v-916H13600.1z"/>
	</g>
	<g transform="matrix(1.0000 0.0000 0.0000 1.0000 0.0000 0.0000)">
	</g>
	<g transform="matrix(0.0625 0.0000 0.0000 0.0625 0.0000 0.0000)">
		<path class="st10" d="M14404.1,31084l268-268v916l-268,268V31084z"/>
	</g>
	<g transform="matrix(1.0000 0.0000 0.0000 1.0000 0.0000 0.0000)">
	</g>
	<g transform="matrix(0.0625 0.0000 0.0000 0.0625 0.0000 0.0000)">
		<path class="st8" d="M13600.1,31084l268-268h804l-268,268H13600.1z"/>
	</g>
	<g transform="matrix(1.0000 0.0000 0.0000 1.0000 0.0000 0.0000)">
	</g>
	<g transform="matrix(0.0625 0.0000 0.0000 0.0625 0.0000 0.0000)">
		<path class="st11" d="M13600.1,31084l268-268h804v916l-268,268h-804V31084z"/>
		<path class="st11" d="M13600.1,31084h804l268-268"/>
		<path class="st11" d="M14404.1,31084v916"/>
	</g>
	<g transform="matrix(1.0000 0.0000 0.0000 1.0000 0.0000 0.0000)">
	</g>
	<g transform="matrix(0.0625 0.0000 0.0000 0.0625 0.0000 0.0000)">
		<path class="st8" d="M12240.1,31804v932h804v-932H12240.1z"/>
	</g>
	<g transform="matrix(1.0000 0.0000 0.0000 1.0000 0.0000 0.0000)">
	</g>
	<g transform="matrix(0.0625 0.0000 0.0000 0.0625 0.0000 0.0000)">
		<path class="st10" d="M13044.1,31804l268-268v932l-268,268V31804z"/>
	</g>
	<g transform="matrix(1.0000 0.0000 0.0000 1.0000 0.0000 0.0000)">
	</g>
	<g transform="matrix(0.0625 0.0000 0.0000 0.0625 0.0000 0.0000)">
		<path class="st8" d="M12240.1,31804l268-268h804l-268,268H12240.1z"/>
	</g>
	<g transform="matrix(1.0000 0.0000 0.0000 1.0000 0.0000 0.0000)">
	</g>
	<g transform="matrix(0.1250 0.0000 0.0000 0.1250 0.0000 0.0000)">
		<path class="st9" d="M6120,15902l134-134h402v466l-134,134h-402V15902z"/>
		<path class="st9" d="M6120,15902h402l134-134"/>
		<path class="st9" d="M6522,15902v466"/>
	</g>
	<g transform="matrix(1.0000 0.0000 0.0000 1.0000 0.0000 0.0000)">
	</g>
	<g transform="matrix(0.0625 0.0000 0.0000 0.0625 0.0000 0.0000)">
		<path class="st8" d="M19168.1,30620v916h804v-916H19168.1z"/>
	</g>
	<g transform="matrix(1.0000 0.0000 0.0000 1.0000 0.0000 0.0000)">
	</g>
	<g transform="matrix(0.0625 0.0000 0.0000 0.0625 0.0000 0.0000)">
		<path class="st10" d="M19972.1,30620l268-268v916l-268,268V30620z"/>
	</g>
	<g transform="matrix(1.0000 0.0000 0.0000 1.0000 0.0000 0.0000)">
	</g>
	<g transform="matrix(0.0625 0.0000 0.0000 0.0625 0.0000 0.0000)">
		<path class="st8" d="M19168.1,30620l268-268h804l-268,268H19168.1z"/>
	</g>
	<g transform="matrix(1.0000 0.0000 0.0000 1.0000 0.0000 0.0000)">
	</g>
	<g transform="matrix(0.0625 0.0000 0.0000 0.0625 0.0000 0.0000)">
		<path class="st11" d="M19168.1,30620l268-268h804v916l-268,268h-804V30620z"/>
		<path class="st11" d="M19168.1,30620h804l268-268"/>
		<path class="st11" d="M19972.1,30620v916"/>
	</g>
	<g transform="matrix(1.0000 0.0000 0.0000 1.0000 0.0000 0.0000)">
	</g>
	<g transform="matrix(0.0625 0.0000 0.0000 0.0625 0.0000 0.0000)">
		<path class="st12" d="M12388.1,19216v-3752h-836l1672-1672l1672,1672h-836v3752H12388.1z"/>
	</g>
	<g transform="matrix(1.0000 0.0000 0.0000 1.0000 0.0000 0.0000)">
	</g>
	<g transform="matrix(0.0625 0.0000 0.0000 0.0625 0.0000 0.0000)">
		<path class="st13" d="M12388.1,19216v-3752h-836l1672-1672l1672,1672h-836v3752H12388.1z"/>
	</g>
	<g transform="matrix(1.0000 0.0000 0.0000 1.0000 0.0000 0.0000)">
	</g>
	<g transform="matrix(1.0000 0.0000 0.0000 1.0000 579.6811 1362.5682)">
		<text transform="matrix(1 0 0 1 -4.4947 -13.6773)" class="st6 st14">各都市の</text>
	</g>
	<g transform="matrix(1.0000 0.0000 0.0000 1.0000 555.6811 1522.5682)">
		<text transform="matrix(1 0 0 1 -4.4947 -13.6773)" class="st6 st14">データ製品</text>
	</g>
	<g transform="matrix(1.0000 0.0000 0.0000 1.0000 328.6811 1682.5682)">
		<text transform="matrix(1 0 0 1 -4.4947 -13.6773)" class="st6 st14">（</text>
	</g>
	<g transform="matrix(1.0000 0.0000 0.0000 1.0000 461.6811 1682.5682)">
		<text transform="matrix(1 0 0 1 -4.4947 -13.6773)" class="st15 st14">3D</text>
	</g>
	<g transform="matrix(1.0000 0.0000 0.0000 1.0000 626.6811 1682.5682)">
		<text transform="matrix(1 0 0 1 -4.4947 -13.6773)" class="st6 st14">都市モデル）</text>
	</g>
	<g transform="matrix(1.0000 0.0000 0.0000 1.0000 1528.2979 382.9383)">
		<text transform="matrix(1 0 0 1 -4.4948 0.4999)" class="st6 st16">準拠</text>
	</g>
	<g transform="matrix(1.0000 0.0000 0.0000 1.0000 440.5814 1100.1108)">
		<text transform="matrix(1 0 0 1 -4.4947 0.5)" class="st6 st16">適合</text>
	</g>
	<g transform="matrix(0.1250 0.0000 0.0000 0.1250 0.0000 0.0000)">
		<path class="st17" d="M10204,3752h608v152h-608V3752z M11268,3752h608v152h-608V3752z M12332,3752h608v152h-608V3752z M13396,3752
			h608v152h-608V3752z M14460,3752h608v152h-608V3752z M15524,3752h175v152h-175V3752z M15282,3497l568,331l-568,332
			c-37,21-83,9-104-27c-22-36-9-83,27-104l456-266v131l-456-266l0,0c-36-21-49-68-27-104C15199,3488,15245,3476,15282,3497z"/>
	</g>
	<g transform="matrix(1.0000 0.0000 0.0000 1.0000 0.0000 0.0000)">
	</g>
</g>
</svg>
