<?xml version="1.0" encoding="utf-8"?>
<!-- Generator: Adobe Illustrator 27.5.0, SVG Export Plug-In . SVG Version: 6.00 Build 0)  -->
<svg version="1.1" id="レイヤー_1" xmlns="http://www.w3.org/2000/svg" xmlns:xlink="http://www.w3.org/1999/xlink" x="0px"
	 y="0px" viewBox="0 0 698.7244263 596.8898315" style="enable-background:new 0 0 698.7244263 596.8898315;" xml:space="preserve">
<style type="text/css">
	.st0{opacity:0.5019608;fill-rule:evenodd;clip-rule:evenodd;fill:#969696;enable-background:new    ;}
	.st1{fill-rule:evenodd;clip-rule:evenodd;fill:#FFCCFF;}
	.st2{fill:none;stroke:#000000;stroke-width:1.5013124;stroke-linecap:round;stroke-linejoin:round;stroke-miterlimit:10;}
	.st3{font-family:'YuGothicUI-Regular';}
	.st4{font-size:9.7585306px;}
	.st5{font-size:10.2875204px;}
	.st6{fill:none;stroke:#000000;stroke-width:0.2788152;stroke-miterlimit:10;}
	.st7{font-family:'YuGothicUI-Bold';}
	.st8{fill-rule:evenodd;clip-rule:evenodd;fill:#CCFFCC;}
	.st9{fill:none;stroke:#000000;stroke-width:1.5013124;stroke-linecap:round;stroke-linejoin:bevel;stroke-miterlimit:10;}
	.st10{fill-rule:evenodd;clip-rule:evenodd;fill:#FFFFFF;}
	.st11{fill-rule:evenodd;clip-rule:evenodd;}
	.st12{font-family:'Meiryo';}
	.st13{font-size:7.5065618px;}
</style>
<path class="st0" d="M380.2763977,13.8924408c1.0375366,0,1.8786621,0.84021,1.8786621,1.8766479l0,0v329.5380859v0.0000305
	c0,1.036438-0.8411255,1.8766479-1.8787231,1.8766174c0,0.0000305,0,0,0,0h0.000061H127.0288086v0.0000305
	c-1.0375671-0.0000305-1.8786926-0.84021-1.8786926-1.8766785h0.0000305V15.7690887
	c0-1.036438,0.841095-1.8766479,1.8786621-1.8766479l0,0H380.2763977L380.2763977,13.8924408L380.2763977,13.8924408z"/>
<path class="st1" d="M378.0219421,11.6404877c1.0375366,0,1.8786621,0.84021,1.8786621,1.8766479h0.000061v329.5380859
	l-0.000061,0.000061c0,1.0364075-0.8411255,1.8766479-1.8786621,1.8765869c0,0.000061,0,0,0,0l0,0H124.7743835v0.000061
	c-1.0375671-0.000061-1.8786926-0.8402405-1.8786926-1.876709l0,0V13.5171356c0-1.036438,0.8411255-1.8766479,1.8786926-1.8766479
	l0,0H378.0219421L378.0219421,11.6404877L378.0219421,11.6404877z"/>
<path class="st2" d="M378.0219421,11.6404877c1.0375366,0,1.8786621,0.84021,1.8786621,1.8766479h0.000061v329.5380859
	l-0.000061,0.000061c0,1.0364075-0.8411255,1.8766479-1.8786621,1.8765869c0,0.000061,0,0,0,0l0,0H124.7743835v0.000061
	c-1.0375671-0.000061-1.8786926-0.8402405-1.8786926-1.876709l0,0V13.5171356c0-1.036438,0.8411255-1.8766479,1.8786926-1.8766479
	l0,0H378.0219421L378.0219421,11.6404877L378.0219421,11.6404877z"/>
<text transform="matrix(0.85 0 0 1 219.8339844 26.6533203)" class="st3 st4">«FeatureType»</text>
<text transform="matrix(0.85 0 -0.3165385 0.9485797 207.0516205 39.4327469)" class="st3 st5">u</text>
<text transform="matrix(0.85 0 -0.3165385 0.9485797 207.0516205 39.4327469)" class="st6 st3 st5">u</text>
<text transform="matrix(0.85 0 -0.3165385 0.9485797 213.0584564 39.4327469)" class="st3 st5">r</text>
<text transform="matrix(0.85 0 -0.3165385 0.9485797 213.0584564 39.4327469)" class="st6 st3 st5">r</text>
<text transform="matrix(0.85 0 -0.3165385 0.9485797 216.8065033 39.4327469)" class="st3 st5">f</text>
<text transform="matrix(0.85 0 -0.3165385 0.9485797 216.8065033 39.4327469)" class="st6 st3 st5">f</text>
<text transform="matrix(0.85 0 -0.3165385 0.9485797 219.8152924 39.4327469)" class="st3 st5">::</text>
<text transform="matrix(0.85 0 -0.3165385 0.9485797 219.8152924 39.4327469)" class="st6 st3 st5">::</text>
<text transform="matrix(0.85 0 -0.3165385 0.9485797 224.3055267 39.4327469)" class="st3 st5">_</text>
<text transform="matrix(0.85 0 -0.3165385 0.9485797 224.3055267 39.4327469)" class="st6 st3 st5">_</text>
<text transform="matrix(0.85 0 -0.3165385 0.9485797 228.0672455 39.4327469)" class="st3 st5">U</text>
<text transform="matrix(0.85 0 -0.3165385 0.9485797 228.0672455 39.4327469)" class="st6 st3 st5">U</text>
<text transform="matrix(0.85 0 -0.3165385 0.9485797 234.8270111 39.4327469)" class="st3 st5">r</text>
<text transform="matrix(0.85 0 -0.3165385 0.9485797 234.8270111 39.4327469)" class="st6 st3 st5">r</text>
<text transform="matrix(0.85 0 -0.3165385 0.9485797 238.575058 39.4327469)" class="st3 st5">b</text>
<text transform="matrix(0.85 0 -0.3165385 0.9485797 238.575058 39.4327469)" class="st6 st3 st5">b</text>
<text transform="matrix(0.85 0 -0.3165385 0.9485797 244.5828705 39.4327469)" class="st3 st5">a</text>
<text transform="matrix(0.85 0 -0.3165385 0.9485797 244.5828705 39.4327469)" class="st6 st3 st5">a</text>
<text transform="matrix(0.85 0 -0.3165385 0.9485797 249.8358002 39.4327469)" class="st3 st5">n</text>
<text transform="matrix(0.85 0 -0.3165385 0.9485797 249.8358002 39.4327469)" class="st6 st3 st5">n</text>
<text transform="matrix(0.85 0 -0.3165385 0.9485797 255.8436127 39.4327469)" class="st3 st5">F</text>
<text transform="matrix(0.85 0 -0.3165385 0.9485797 255.8436127 39.4327469)" class="st6 st3 st5">F</text>
<text transform="matrix(0.85 0 -0.3165385 0.9485797 261.1023865 39.4327469)" class="st3 st5">un</text>
<text transform="matrix(0.85 0 -0.3165385 0.9485797 261.1023865 39.4327469)" class="st6 st3 st5">un</text>
<text transform="matrix(0.85 0 -0.3165385 0.9485797 273.1160583 39.4327469)" class="st3 st5">c</text>
<text transform="matrix(0.85 0 -0.3165385 0.9485797 273.1160583 39.4327469)" class="st6 st3 st5">c</text>
<text transform="matrix(0.85 0 -0.3165385 0.9485797 277.6287537 39.4327469)" class="st3 st5">t</text>
<text transform="matrix(0.85 0 -0.3165385 0.9485797 277.6287537 39.4327469)" class="st6 st3 st5">t</text>
<text transform="matrix(0.85 0 -0.3165385 0.9485797 281.3787537 39.4327469)" class="st3 st5">i</text>
<text transform="matrix(0.85 0 -0.3165385 0.9485797 281.3787537 39.4327469)" class="st6 st3 st5">i</text>
<text transform="matrix(0.85 0 -0.3165385 0.9485797 283.6375427 39.4327469)" class="st3 st5">o</text>
<text transform="matrix(0.85 0 -0.3165385 0.9485797 283.6375427 39.4327469)" class="st6 st3 st5">o</text>
<text transform="matrix(0.85 0 -0.3165385 0.9485797 289.6453552 39.4327469)" class="st3 st5">n</text>
<text transform="matrix(0.85 0 -0.3165385 0.9485797 289.6453552 39.4327469)" class="st6 st3 st5">n</text>
<line class="st2" x1="122.8956909" y1="45.4200287" x2="379.9006653" y2="45.4200287"/>
<text transform="matrix(0.85 0 0 1 126.6542969 58.9345703)" class="st3 st4">+ </text>
<text transform="matrix(0.85 0 0 1 143.1855469 58.9345703)" class="st3 st4">areaClassificationType: gml::CodeType [0..1]</text>
<text transform="matrix(0.85 0 0 1 126.6542969 71.6923828)" class="st3 st4">+ </text>
<text transform="matrix(0.85 0 0 1 143.1855469 71.6923828)" class="st3 st4">city: gml::CodeType [0..1]</text>
<text transform="matrix(0.85 0 0 1 126.6542969 84.4580078)" class="st3 st4">+ </text>
<text transform="matrix(0.85 0 0 1 143.1855469 84.4580078)" class="st3 st4">class: gml::CodeType [0..1]</text>
<text transform="matrix(0.85 0 0 1 126.6542969 97.2158203)" class="st3 st4">+ </text>
<text transform="matrix(0.85 0 0 1 143.1855469 97.2158203)" class="st3 st4">custodian: xs::string [0..1]</text>
<text transform="matrix(0.85 0 0 1 126.6542969 109.9814453)" class="st3 st4">+ </text>
<text transform="matrix(0.85 0 0 1 143.1855469 109.9814453)" class="st3 st4">enactmentFiscalYear: xs::gYear [0..1]</text>
<text transform="matrix(0.85 0 0 1 126.6542969 122.7392578)" class="st3 st4">+ </text>
<text transform="matrix(0.85 0 0 1 143.1855469 122.7392578)" class="st3 st4">expirationFiscalYear: xs::gYear [0..1]</text>
<text transform="matrix(0.85 0 0 1 126.6542969 135.4970703)" class="st3 st4">+ </text>
<text transform="matrix(0.85 0 0 1 143.1855469 135.4970703)" class="st3 st4">finalNotificationDate: xs::date [0..1]</text>
<text transform="matrix(0.85 0 0 1 126.6542969 148.2626953)" class="st3 st4">+ </text>
<text transform="matrix(0.85 0 0 1 143.1855469 148.2626953)" class="st3 st4">finalNotificationNumber: xs::string [0..1]</text>
<text transform="matrix(0.85 0 0 1 126.6542969 161.0283203)" class="st3 st4">+ </text>
<text transform="matrix(0.85 0 0 1 143.1855469 161.0283203)" class="st3 st4">function: gml::CodeType [0..*]</text>
<text transform="matrix(0.85 0 0 1 126.6542969 173.7783203)" class="st3 st4">+ </text>
<text transform="matrix(0.85 0 0 1 143.1855469 173.7783203)" class="st3 st4">legalGrounds: xs::string [0..1]</text>
<text transform="matrix(0.85 0 0 1 126.6542969 186.5439453)" class="st3 st4">+ </text>
<text transform="matrix(0.85 0 0 1 143.1855469 186.5439453)" class="st3 st4">nominalArea: gml::MeasureType [0..1]</text>
<text transform="matrix(0.85 0 0 1 126.6542969 199.3095703)" class="st3 st4">+ </text>
<text transform="matrix(0.85 0 0 1 143.1855469 199.3095703)" class="st3 st4">note: gml:StringOrRefType [0..1]</text>
<text transform="matrix(0.85 0 0 1 126.6542969 212.0751953)" class="st3 st4">+ </text>
<text transform="matrix(0.85 0 0 1 143.1855469 212.0751953)" class="st3 st4">notificationNumber: xs::string [0..1]</text>
<text transform="matrix(0.85 0 0 1 126.6542969 224.8251953)" class="st3 st4">+ </text>
<text transform="matrix(0.85 0 0 1 143.1855469 224.8251953)" class="st3 st4">prefecture: gml::CodeType [0..1]</text>
<text transform="matrix(0.85 0 0 1 126.6542969 237.5908203)" class="st3 st4">+ </text>
<text transform="matrix(0.85 0 0 1 143.1855469 237.5908203)" class="st3 st4">reason: gml:StringOrRefType [0..1]</text>
<text transform="matrix(0.85 0 0 1 126.6542969 250.3564453)" class="st3 st4">+ </text>
<text transform="matrix(0.85 0 0 1 143.1855469 250.3564453)" class="st3 st4">reference: xs::anyURI [0..1]</text>
<text transform="matrix(0.85 0 0 1 126.6542969 263.1220703)" class="st3 st4">+ </text>
<text transform="matrix(0.85 0 0 1 143.1855469 263.1220703)" class="st3 st4">surveyYear: xs::gYear [0..1]</text>
<text transform="matrix(0.85 0 0 1 126.6542969 275.8720703)" class="st3 st4">+ </text>
<text transform="matrix(0.85 0 0 1 143.1855469 275.8720703)" class="st3 st4">urbanPlanType: gml::CodeType [0..1]</text>
<text transform="matrix(0.85 0 0 1 126.6542969 288.6376953)" class="st3 st4">+ </text>
<text transform="matrix(0.85 0 0 1 143.1855469 288.6376953)" class="st3 st4">usage: gml::CodeType [0..*]</text>
<text transform="matrix(0.85 0 0 1 126.6542969 301.4033203)" class="st3 st4">+ </text>
<text transform="matrix(0.85 0 0 1 143.1855469 301.4033203)" class="st3 st4">validFrom: xs::date [0..1]</text>
<text transform="matrix(0.85 0 0 1 126.6542969 314.1533203)" class="st3 st4">+ </text>
<text transform="matrix(0.85 0 0 1 143.1855469 314.1533203)" class="st3 st4">validFromType: gml::CodeType [0..1]</text>
<text transform="matrix(0.85 0 0 1 126.6542969 326.9189453)" class="st3 st4">+ </text>
<text transform="matrix(0.85 0 0 1 143.1855469 326.9189453)" class="st3 st4">validTo: xs::date [0..1]</text>
<text transform="matrix(0.85 0 0 1 126.6542969 339.6845703)" class="st3 st4">+ </text>
<text transform="matrix(0.85 0 0 1 143.1855469 339.6845703)" class="st3 st4">validToType: gml::CodeType [0..1]</text>
<path class="st0" d="M216.4545288,396.7271729c1.0375366,0,1.8786316,0.8401794,1.8786316,1.8766479l0.000061-0.000061V498.44104
	l-0.000061,0.000061c0,1.036377-0.841095,1.8766479-1.8786926,1.8765869c0,0.000061,0,0,0,0h0.000061H51.1296997
	l-0.0000305,0.000061c-1.0375671-0.000061-1.8786926-0.840271-1.8786926-1.876709h0.0000305v-99.8372803
	c0-1.0364075,0.841095-1.8766174,1.8786926-1.8765869v-0.0000305h165.3248291V396.7271729L216.4545288,396.7271729z"/>
<path class="st1" d="M214.2001038,394.4752197c1.0375366,0,1.8786316,0.8401794,1.8786316,1.8766174l0.000061-0.0000305v99.8372803
	l-0.000061,0.000061c0,1.036377-0.841095,1.8765869-1.8786926,1.8765869l0,0h0.000061H48.8752747h-0.0000305
	c-1.0375671,0-1.8786926-0.84021-1.8786926-1.8766479h0.0000305v-99.8372803c0-1.0364075,0.841095-1.8766479,1.8786926-1.8765869
	v-0.000061h165.3248291V394.4752197L214.2001038,394.4752197z"/>
<path class="st2" d="M214.2001038,394.4752197c1.0375366,0,1.8786316,0.8401794,1.8786316,1.8766174l0.000061-0.0000305v99.8372803
	l-0.000061,0.000061c0,1.036377-0.841095,1.8765869-1.8786926,1.8765869l0,0h0.000061H48.8752747h-0.0000305
	c-1.0375671,0-1.8786926-0.84021-1.8786926-1.8766479h0.0000305v-99.8372803c0-1.0364075,0.841095-1.8766479,1.8786926-1.8765869
	v-0.000061h165.3248291V394.4752197L214.2001038,394.4752197z"/>
<text transform="matrix(0.85 0 0 1 105.6152344 409.4970703)" class="st3 st4">«DataType»</text>
<text transform="matrix(0.85 0 0 1 101.0996094 422.2470703)" class="st7 st4">urf::Boundary</text>
<line class="st2" x1="46.996582" y1="428.2546997" x2="216.0787964" y2="428.2546997"/>
<text transform="matrix(0.85 0 0 1 50.7558594 441.7705078)" class="st3 st4">+ </text>
<text transform="matrix(0.85 0 0 1 67.2871094 441.7705078)" class="st3 st4">class: gml::CodeType [0..*]</text>
<text transform="matrix(0.85 0 0 1 50.7558594 454.5361328)" class="st3 st4">+ </text>
<text transform="matrix(0.85 0 0 1 67.2871094 454.5361328)" class="st3 st4">function: gml::CodeType [0..*]</text>
<text transform="matrix(0.85 0 0 1 50.7558594 467.2861328)" class="st3 st4">+ </text>
<text transform="matrix(0.85 0 0 1 67.2871094 467.2861328)" class="st3 st4">offset: gml::LengthType [0..1]</text>
<text transform="matrix(0.85 0 0 1 50.7558594 480.0517578)" class="st3 st4">+ </text>
<text transform="matrix(0.85 0 0 1 67.2871094 480.0517578)" class="st3 st4">offsetDirection: xs::string [0..1]</text>
<text transform="matrix(0.85 0 0 1 50.7558594 492.8173828)" class="st3 st4">+ </text>
<text transform="matrix(0.85 0 0 1 67.2871094 492.8173828)" class="st3 st4">usage: gml::CodeType [0..*]</text>
<path class="st0" d="M413.3413391,404.2337341c1.0375366,0,1.8786621,0.8401794,1.8786621,1.8766479l0.000061-0.000061v55.5485535
	l-0.000061,0.000061c0,1.036438-0.8411255,1.8766479-1.8786621,1.8765869c0,0.000061,0,0,0,0l0,0H291.6021423v0.000061
	c-1.0375366-0.000061-1.8787231-0.84021-1.8787231-1.876709h0.000061V406.110321
	c0-1.0364075,0.8411255-1.8766174,1.8786621-1.8765869v-0.0000305h121.7391968V404.2337341L413.3413391,404.2337341z"/>
<path class="st1" d="M411.0869446,401.981781c1.0375366,0,1.8786011,0.8401794,1.8786011,1.8766174l0.000061-0.0000305v55.5485535
	l-0.000061,0.000061c0,1.036377-0.8410645,1.8766479-1.8786621,1.8765869c0,0.000061,0,0,0,0h0.000061H289.3477478
	l-0.000061,0.000061c-1.0375366-0.000061-1.8786621-0.840271-1.8786621-1.876709l0,0v-55.5485535
	c0-1.0364075,0.8411255-1.8766479,1.8787231-1.8765869v-0.000061h121.7391968V401.981781L411.0869446,401.981781z"/>
<path class="st2" d="M411.0869446,401.981781c1.0375366,0,1.8786011,0.8401794,1.8786011,1.8766174l0.000061-0.0000305v55.5485535
	l-0.000061,0.000061c0,1.036377-0.8410645,1.8766479-1.8786621,1.8765869c0,0.000061,0,0,0,0h0.000061H289.3477478
	l-0.000061,0.000061c-1.0375366-0.000061-1.8786621-0.840271-1.8786621-1.876709l0,0v-55.5485535
	c0-1.0364075,0.8411255-1.8766479,1.8787231-1.8765869v-0.000061h121.7391968V401.981781L411.0869446,401.981781z"/>
<text transform="matrix(0.85 0 0 1 318.2792969 416.9970703)" class="st3 st4">«FeatureType»</text>
<text transform="matrix(0.85 0 0 1 330.3027344 429.7626953)" class="st7 st4">urf::Zone</text>
<line class="st2" x1="287.4690247" y1="435.761261" x2="412.9656067" y2="435.761261"/>
<text transform="matrix(0.85 0 0 1 291.2246094 449.2783203)" class="st3 st4">+ </text>
<text transform="matrix(0.85 0 0 1 307.7558594 449.2783203)" class="st3 st4">location: xs::string [0..1]</text>
<path class="st0" d="M412.5898743,502.5697021c1.0375366,0,1.8786621,0.84021,1.8786621,1.8766479l0.000061-0.000061v55.548584
	h-0.000061c0,1.036438-0.8411255,1.8766479-1.8787231,1.8766479l0,0h0.000061H291.6021423l0,0
	c-1.0375366,0-1.8787231-0.84021-1.8787231-1.8766479h0.000061v-55.548584c0-1.036377,0.8411255-1.8766479,1.8786621-1.8765869
	v-0.000061h120.9877319V502.5697021L412.5898743,502.5697021z"/>
<path class="st1" d="M410.3354797,500.317749c1.0375366,0,1.8786011,0.8401489,1.8786011,1.8766479l0.000061-0.000061v55.5485229
	l-0.000061,0.000061c0,1.036438-0.8410645,1.8766479-1.8786621,1.8765869c0,0.000061,0,0,0,0h0.000061H289.3477478
	l-0.000061,0.000061c-1.0375366-0.000061-1.8786621-0.84021-1.8786621-1.876709l0,0v-55.5485229
	c0-1.036438,0.8411255-1.8766479,1.8787231-1.8765869v-0.000061h120.9877319V500.317749L410.3354797,500.317749z"/>
<path class="st2" d="M410.3354797,500.317749c1.0375366,0,1.8786011,0.8401489,1.8786011,1.8766479l0.000061-0.000061v55.5485229
	l-0.000061,0.000061c0,1.036438-0.8410645,1.8766479-1.8786621,1.8765869c0,0.000061,0,0,0,0h0.000061H289.3477478
	l-0.000061,0.000061c-1.0375366-0.000061-1.8786621-0.84021-1.8786621-1.876709l0,0v-55.5485229
	c0-1.036438,0.8411255-1.8766479,1.8787231-1.8765869v-0.000061h120.9877319V500.317749L410.3354797,500.317749z"/>
<text transform="matrix(0.85 0 0 1 318.2792969 515.3330078)" class="st3 st4">«FeatureType»</text>
<text transform="matrix(0.85 0 0 1 312.2636719 528.0986328)" class="st7 st4">urf::UrbanFacility</text>
<line class="st2" x1="287.4690247" y1="534.097229" x2="412.2141418" y2="534.097229"/>
<text transform="matrix(0.85 0 0 1 291.2246094 547.6064453)" class="st3 st4">+ </text>
<text transform="matrix(0.85 0 0 1 307.7558594 547.6064453)" class="st3 st4">number: xs::string [0..1]</text>
<path class="st0" d="M661.3285522,404.2337341c1.0375977,0,1.8786621,0.8401794,1.8786621,1.8766479l0.0001221-0.000061v61.5538025
	l-0.0001221,0.000061c0,1.036438-0.8410645,1.8766479-1.8786621,1.8765869c0,0.000061,0,0,0,0l0,0H464.4417419l-0.000061,0.000061
	c-1.0375366-0.000061-1.8786621-0.84021-1.8786621-1.876709h0.000061V406.110321
	c0-1.0364075,0.8410645-1.8766174,1.8786621-1.8765869v-0.0000305h196.8868103V404.2337341L661.3285522,404.2337341z"/>
<path class="st1" d="M659.0741577,401.981781c1.0374756,0,1.8786621,0.8401794,1.8786621,1.8766174v-0.0000305v61.5538025v0.000061
	c0,1.036377-0.8411865,1.8766479-1.8787842,1.8765869c0,0.000061,0,0,0,0h0.0001221H462.1873474l-0.000061,0.000061
	c-1.0375366-0.000061-1.8787231-0.840271-1.8787231-1.876709h0.000061v-61.5538025
	c0-1.0364075,0.8411255-1.8766479,1.8787231-1.8765869v-0.000061h196.8868103V401.981781L659.0741577,401.981781z"/>
<path class="st2" d="M659.0741577,401.981781c1.0374756,0,1.8786621,0.8401794,1.8786621,1.8766174v-0.0000305v61.5538025v0.000061
	c0,1.036377-0.8411865,1.8766479-1.8787842,1.8765869c0,0.000061,0,0,0,0h0.0001221H462.1873474l-0.000061,0.000061
	c-1.0375366-0.000061-1.8787231-0.840271-1.8787231-1.876709h0.000061v-61.5538025
	c0-1.0364075,0.8411255-1.8766479,1.8787231-1.8765869v-0.000061h196.8868103V401.981781L659.0741577,401.981781z"/>
<text transform="matrix(0.85 0 0 1 528.6933594 416.9970703)" class="st3 st4">«FeatureType»</text>
<text transform="matrix(0.85 0 0 1 497.1308594 429.7626953)" class="st7 st4">urf::ThreeDimensionalExtent</text>
<line class="st2" x1="460.3086243" y1="435.761261" x2="660.9528198" y2="435.761261"/>
<text transform="matrix(0.85 0 0 1 464.0605469 449.2783203)" class="st3 st4">+ </text>
<text transform="matrix(0.85 0 0 1 480.5996094 449.2783203)" class="st3 st4">maximumLoad: gml::MeasureType [0..1]</text>
<text transform="matrix(0.85 0 0 1 464.0605469 462.0361328)" class="st3 st4">+ </text>
<text transform="matrix(0.85 0 0 1 480.5996094 462.0361328)" class="st3 st4">minimumDistance: gml::LengthType [0..1]</text>
<path class="st0" d="M180.383667,532.5959473c1.0375366,0,1.8786316,0.84021,1.8786316,1.8766479l0.0000305-0.000061v53.2965698
	l-0.0000305,0.000061c0,1.036438-0.841095,1.8766479-1.8786926,1.8765869c0,0.000061,0,0,0,0h0.000061H81.9402466
	l-0.0000305,0.000061c-1.0375671-0.000061-1.8786926-0.84021-1.8786926-1.876709h0.0000305v-53.2965698
	c0-1.036377,0.841095-1.8766479,1.8786926-1.8765869v-0.000061h98.4434204V532.5959473L180.383667,532.5959473z"/>
<path class="st8" d="M178.1292114,530.3439941c1.0375671,0,1.8786621,0.8401489,1.8786621,1.8766479l0.0000305-0.000061v53.2965698
	l-0.0000305,0.000061c0,1.036438-0.841095,1.8766479-1.8786926,1.8765869c0,0.000061,0,0,0,0h0.0000305H79.685791v0.000061
	c-1.0375671-0.000061-1.8786926-0.84021-1.8786926-1.876709h0.0000305v-53.2965698
	c0-1.036438,0.841095-1.8766479,1.8786621-1.8765869v-0.000061h98.4434204V530.3439941L178.1292114,530.3439941z"/>
<path class="st2" d="M178.1292114,530.3439941c1.0375671,0,1.8786621,0.8401489,1.8786621,1.8766479l0.0000305-0.000061v53.2965698
	l-0.0000305,0.000061c0,1.036438-0.841095,1.8766479-1.8786926,1.8765869c0,0.000061,0,0,0,0h0.0000305H79.685791v0.000061
	c-1.0375671-0.000061-1.8786926-0.84021-1.8786926-1.876709h0.0000305v-53.2965698
	c0-1.036438,0.841095-1.8766479,1.8786621-1.8765869v-0.000061h98.4434204V530.3439941L178.1292114,530.3439941z"/>
<text transform="matrix(0.85 0 0 1 113.1230469 545.3642578)" class="st3 st4">«Type»</text>
<text transform="matrix(0.85 0 0 1 93.5839844 558.1220703)" class="st7 st4">gml::MultiCurve</text>
<line class="st9" x1="561.0065308" y1="468.0394897" x2="561.0065308" y2="530.3439331"/>
<line class="st9" x1="561.0065308" y1="530.3439331" x2="412.9656067" y2="530.3439331"/>
<polyline class="st10" points="420.4803772,526.5906372 412.9656067,530.3439331 420.4803772,534.097229 427.9951477,530.3439331 
	420.4803772,526.5906372 "/>
<polygon class="st9" points="427.9951477,530.3439331 420.4803772,534.097229 412.9656067,530.3439331 420.4803772,526.5906372 "/>
<path class="st9" d="M561.0065308,468.0394897l-4.5089111,11.2598267 M561.0065308,468.0394897l4.5087891,11.2598267"/>
<line class="st9" x1="561.0065308" y1="401.2310791" x2="561.0065308" y2="383.215332"/>
<line class="st9" x1="561.0065308" y1="383.215332" x2="251.3981934" y2="383.215332"/>
<line class="st9" x1="251.3981934" y1="383.215332" x2="251.3981934" y2="346.4331665"/>
<polyline class="st10" points="255.9070435,358.4436646 246.8893127,358.4436646 251.3981934,346.4331665 255.9070435,358.4436646 
	"/>
<polygon class="st9" points="255.9070435,358.4436646 246.8893127,358.4436646 251.3981934,346.4331665 "/>
<line class="st9" x1="349.8415833" y1="499.5670166" x2="349.8415833" y2="462.7848511"/>
<polyline class="st10" points="354.3504333,474.7953491 345.3327332,474.7953491 349.8415833,462.7848511 354.3504333,474.7953491 
	"/>
<polygon class="st9" points="354.3504333,474.7953491 345.3327332,474.7953491 349.8415833,462.7848511 "/>
<line class="st9" x1="349.8415833" y1="401.2310791" x2="349.8415833" y2="383.215332"/>
<line class="st9" x1="128.1560364" y1="499.5670166" x2="128.1560364" y2="529.5932617"/>
<path class="st9" d="M128.1560364,529.5932617l-4.5088501-11.2598267 M128.1560364,529.5932617l4.5088501-11.2598267"/>
<line class="st9" x1="217.5817261" y1="435.761261" x2="286.7175598" y2="435.761261"/>
<polyline class="st11" points="279.2028198,439.5145264 286.7175598,435.761261 279.2028198,432.0079651 271.6880493,435.761261 
	279.2028198,439.5145264 "/>
<polygon class="st9" points="279.2028198,439.5145264 286.7175598,435.761261 279.2028198,432.0079651 271.6880493,435.761261 "/>
<path class="st9" d="M217.5817261,435.761261l11.2721558,4.5039368 M217.5817261,435.761261l11.2721558-4.5039368"/>
<text transform="matrix(0.85 0 0 1 226.5991211 418.4892578)" class="st12 st13">+boundary</text>
<text transform="matrix(0.85 0 0 1 232.6069336 453.0205078)" class="st12 st13">0..*</text>
<text transform="matrix(0.85 0 0 1 451.2944336 484.5517578)" class="st12 st13">+threeDimensionalExtent</text>
<text transform="matrix(0.85 0 0 1 577.5444336 486.8095703)" class="st12 st13">0..*</text>
<text transform="matrix(0.85 0 0 1 83.0678711 522.8330078)" class="st12 st13">+location</text>
<text transform="matrix(0.85 0 0 1 134.1694336 522.8330078)" class="st12 st13">0..1</text>
</svg>
