<?xml version="1.0" encoding="utf-8"?>
<!-- Generator: Adobe Illustrator 27.5.0, SVG Export Plug-In . SVG Version: 6.00 Build 0)  -->
<svg version="1.1" id="レイヤー_1" xmlns="http://www.w3.org/2000/svg" xmlns:xlink="http://www.w3.org/1999/xlink" x="0px"
	 y="0px" viewBox="0 0 595.2755737 509" style="enable-background:new 0 0 595.2755737 509;" xml:space="preserve">
<style type="text/css">
	.st0{fill-rule:evenodd;clip-rule:evenodd;fill:#F0F0F0;}
	.st1{fill:none;stroke:#D7D7D7;stroke-width:0.7506562;stroke-linecap:square;stroke-miterlimit:10;}
	.st2{fill-rule:evenodd;clip-rule:evenodd;fill:#CCFFCC;}
	.st3{fill:none;stroke:#000000;stroke-width:0.7506562;stroke-linecap:square;stroke-miterlimit:10;}
	.st4{fill:#003060;}
	.st5{font-family:'YuGothicUI-Regular';}
	.st6{font-size:9.7585306px;}
	.st7{fill-rule:evenodd;clip-rule:evenodd;fill:#FFFFCC;}
	.st8{fill-rule:evenodd;clip-rule:evenodd;fill:#FFCCFF;}
	.st9{font-family:'Meiryo-Bold';}
	.st10{font-size:12.010499px;}
	.st11{letter-spacing:-2.352941;}
	.st12{opacity:0.5019608;fill-rule:evenodd;clip-rule:evenodd;fill:#969696;enable-background:new    ;}
	.st13{fill:none;stroke:#000000;stroke-width:1.5013124;stroke-linecap:round;stroke-linejoin:round;stroke-miterlimit:10;}
	.st14{font-size:10.2875204px;}
	.st15{fill:none;stroke:#000000;stroke-width:0.2788152;stroke-miterlimit:10;}
	.st16{font-family:'YuGothicUI-Bold';}
	.st17{font-family:'Calibri';}
	.st18{font-family:'Calibri-Bold';}
	.st19{font-family:'Meiryo';}
	.st20{font-size:7.5065618px;}
	.st21{fill:none;stroke:#000000;stroke-width:1.5013124;stroke-linecap:round;stroke-linejoin:bevel;stroke-miterlimit:10;}
	.st22{fill-rule:evenodd;clip-rule:evenodd;}
	.st23{fill-rule:evenodd;clip-rule:evenodd;fill:#FFFFFF;}
</style>
<path class="st0" d="M548.7495728,18.7506561c1.2450562,0,2.2543945,1.0082397,2.2543945,2.2519531l0,0v84.8241577l0,0
	c0,1.2437134-1.0093384,2.2519531-2.2544556,2.2519531l0,0h0.000061H414.2352905h-0.000061
	c-1.2450562,0-2.2544556-1.0082397-2.2543945-2.2519531V21.0026093c0-1.2437134,1.0093384-2.2519531,2.2544556-2.2519531l0,0
	H548.7495728L548.7495728,18.7506561L548.7495728,18.7506561z"/>
<path class="st1" d="M548.7495728,18.7506561c1.2450562,0,2.2543945,1.0082397,2.2543945,2.2519531l0,0v84.8241577l0,0
	c0,1.2437134-1.0093384,2.2519531-2.2544556,2.2519531l0,0h0.000061H414.2352905h-0.000061
	c-1.2450562,0-2.2544556-1.0082397-2.2543945-2.2519531V21.0026093c0-1.2437134,1.0093384-2.2519531,2.2544556-2.2519531l0,0
	H548.7495728L548.7495728,18.7506561L548.7495728,18.7506561z"/>
<path class="st2" d="M429.640564,41.2703705c1.0375366,0,1.8786011,0.8401489,1.8786011,1.8765869h0.000061v8.2572021h-0.000061
	c0,1.036499-0.8410645,1.876709-1.8786621,1.8766479c0,0.000061,0,0,0,0h0.000061h-8.2662354l-0.000061,0.000061
	c-1.0375366-0.000061-1.8787231-0.84021-1.8787231-1.876709h0.000061v-8.2572021
	c0-1.036438,0.8411255-1.8766479,1.8787231-1.8765869v-0.000061h8.2662354V41.2703705L429.640564,41.2703705z"/>
<path class="st3" d="M429.640564,41.2703705c1.0375366,0,1.8786011,0.8401489,1.8786011,1.8765869h0.000061v8.2572021h-0.000061
	c0,1.036499-0.8410645,1.876709-1.8786621,1.8766479c0,0.000061,0,0,0,0h0.000061h-8.2662354l-0.000061,0.000061
	c-1.0375366-0.000061-1.8787231-0.84021-1.8787231-1.876709h0.000061v-8.2572021
	c0-1.036438,0.8411255-1.8766479,1.8787231-1.8765869v-0.000061h8.2662354V41.2703705L429.640564,41.2703705z"/>
<text transform="matrix(0.85 0 0 1 436.0224609 51.7871094)" class="st4 st5 st6">GMLに定義されたクラス</text>
<path class="st7" d="M429.640564,55.5328217c1.0375366,0,1.8786011,0.84021,1.8786011,1.8765869h0.000061v8.2572021
	l-0.000061,0.000061c0,1.036438-0.8410645,1.8766479-1.8786621,1.8766479l0,0h0.000061h-8.2662354h-0.000061
	c-1.0375366,0-1.8787231-0.84021-1.8787231-1.876709h0.000061v-8.2572021c0-1.036377,0.8411255-1.8765869,1.8787231-1.8765869l0,0
	H429.640564L429.640564,55.5328217L429.640564,55.5328217z"/>
<path class="st3" d="M429.640564,55.5328217c1.0375366,0,1.8786011,0.84021,1.8786011,1.8765869h0.000061v8.2572021
	l-0.000061,0.000061c0,1.036438-0.8410645,1.8766479-1.8786621,1.8766479l0,0h0.000061h-8.2662354h-0.000061
	c-1.0375366,0-1.8787231-0.84021-1.8787231-1.876709h0.000061v-8.2572021c0-1.036377,0.8411255-1.8765869,1.8787231-1.8765869l0,0
	H429.640564L429.640564,55.5328217L429.640564,55.5328217z"/>
<text transform="matrix(0.85 0 0 1 436.0224609 66.0449219)" class="st4 st5 st6">CityGMLに定義されたクラス</text>
<path class="st8" d="M429.640564,69.7952728c1.0375366,0,1.8786011,0.84021,1.8786011,1.8766479h0.000061v8.2572021h-0.000061
	c0,1.036438-0.8410645,1.8766479-1.8786621,1.8766479l0,0h0.000061h-8.2662354h-0.000061
	c-1.0375366,0-1.8787231-0.84021-1.8787231-1.8766479h0.000061v-8.2572021c0-1.036438,0.8411255-1.8766479,1.8787231-1.8766479l0,0
	H429.640564L429.640564,69.7952728L429.640564,69.7952728z"/>
<path class="st3" d="M429.640564,69.7952728c1.0375366,0,1.8786011,0.84021,1.8786011,1.8766479h0.000061v8.2572021h-0.000061
	c0,1.036438-0.8410645,1.8766479-1.8786621,1.8766479l0,0h0.000061h-8.2662354h-0.000061
	c-1.0375366,0-1.8787231-0.84021-1.8787231-1.8766479h0.000061v-8.2572021c0-1.036438,0.8411255-1.8766479,1.8787231-1.8766479l0,0
	H429.640564L429.640564,69.7952728L429.640564,69.7952728z"/>
<text transform="matrix(0.85 0 0 1 436.0224609 80.3105469)" class="st4 st5 st6">i-URに定義されたクラス</text>
<text transform="matrix(0.85 0 0 1 473.6005859 37.0078125)" class="st4 st9 st10 st11">凡例</text>
<path class="st12" d="M308.652832,21.0026093c1.0375366,0,1.8786621,0.84021,1.8786621,1.8766479l0,0v329.5380859v0.0000305
	c0,1.036438-0.8411255,1.8766479-1.8787231,1.8766174c0,0.0000305,0,0,0,0h0.000061H55.4052734l-0.0000305,0.0000305
	c-1.0375671-0.0000305-1.8786926-0.84021-1.8786926-1.8766785h0.0000305V22.8792572
	c0-1.036438,0.841095-1.8766479,1.8786926-1.8766479l0,0H308.652832L308.652832,21.0026093L308.652832,21.0026093z"/>
<path class="st8" d="M306.398407,18.7506561c1.0375366,0,1.8786316,0.8401489,1.8786316,1.8766479h0.000061v329.5380249
	l-0.000061,0.000061c0,1.0364075-0.841095,1.8766479-1.8786926,1.8765869c0,0.000061,0,0,0,0h0.000061H53.1508179v0.000061
	c-1.0375671-0.000061-1.8787079-0.8402405-1.8787079-1.876709h0.0000305V20.6273041
	c0-1.036499,0.8411102-1.8766479,1.8786774-1.8766479l0,0H306.398407L306.398407,18.7506561L306.398407,18.7506561z"/>
<path class="st13" d="M306.398407,18.7506561c1.0375366,0,1.8786316,0.8401489,1.8786316,1.8766479h0.000061v329.5380249
	l-0.000061,0.000061c0,1.0364075-0.841095,1.8766479-1.8786926,1.8765869c0,0.000061,0,0,0,0h0.000061H53.1508179v0.000061
	c-1.0375671-0.000061-1.8787079-0.8402405-1.8787079-1.876709h0.0000305V20.6273041
	c0-1.036499,0.8411102-1.8766479,1.8786774-1.8766479l0,0H306.398407L306.398407,18.7506561L306.398407,18.7506561z"/>
<text transform="matrix(0.85 0 0 1 148.2099609 33.7714844)" class="st5 st6">«FeatureType»</text>
<text transform="matrix(0.85 0 -0.3165385 0.9485797 135.431488 46.5382919)" class="st5 st14">u</text>
<text transform="matrix(0.85 0 -0.3165385 0.9485797 135.431488 46.5382919)" class="st15 st5 st14">u</text>
<text transform="matrix(0.85 0 -0.3165385 0.9485797 141.438324 46.5382919)" class="st5 st14">r</text>
<text transform="matrix(0.85 0 -0.3165385 0.9485797 141.438324 46.5382919)" class="st15 st5 st14">r</text>
<text transform="matrix(0.85 0 -0.3165385 0.9485797 145.1863708 46.5382919)" class="st5 st14">f</text>
<text transform="matrix(0.85 0 -0.3165385 0.9485797 145.1863708 46.5382919)" class="st15 st5 st14">f</text>
<text transform="matrix(0.85 0 -0.3165385 0.9485797 148.1951599 46.5382919)" class="st5 st14">::</text>
<text transform="matrix(0.85 0 -0.3165385 0.9485797 148.1951599 46.5382919)" class="st15 st5 st14">::</text>
<text transform="matrix(0.85 0 -0.3165385 0.9485797 152.6853943 46.5382919)" class="st5 st14">_</text>
<text transform="matrix(0.85 0 -0.3165385 0.9485797 152.6853943 46.5382919)" class="st15 st5 st14">_</text>
<text transform="matrix(0.85 0 -0.3165385 0.9485797 156.447113 46.5382919)" class="st5 st14">U</text>
<text transform="matrix(0.85 0 -0.3165385 0.9485797 156.447113 46.5382919)" class="st15 st5 st14">U</text>
<text transform="matrix(0.85 0 -0.3165385 0.9485797 163.2068787 46.5382919)" class="st5 st14">r</text>
<text transform="matrix(0.85 0 -0.3165385 0.9485797 163.2068787 46.5382919)" class="st15 st5 st14">r</text>
<text transform="matrix(0.85 0 -0.3165385 0.9485797 166.9549255 46.5382919)" class="st5 st14">b</text>
<text transform="matrix(0.85 0 -0.3165385 0.9485797 166.9549255 46.5382919)" class="st15 st5 st14">b</text>
<text transform="matrix(0.85 0 -0.3165385 0.9485797 172.962738 46.5382919)" class="st5 st14">a</text>
<text transform="matrix(0.85 0 -0.3165385 0.9485797 172.962738 46.5382919)" class="st15 st5 st14">a</text>
<text transform="matrix(0.85 0 -0.3165385 0.9485797 178.2156677 46.5382919)" class="st5 st14">n</text>
<text transform="matrix(0.85 0 -0.3165385 0.9485797 178.2156677 46.5382919)" class="st15 st5 st14">n</text>
<text transform="matrix(0.85 0 -0.3165385 0.9485797 184.2234802 46.5382919)" class="st5 st14">F</text>
<text transform="matrix(0.85 0 -0.3165385 0.9485797 184.2234802 46.5382919)" class="st15 st5 st14">F</text>
<text transform="matrix(0.85 0 -0.3165385 0.9485797 189.4822693 46.5382919)" class="st5 st14">un</text>
<text transform="matrix(0.85 0 -0.3165385 0.9485797 189.4822693 46.5382919)" class="st15 st5 st14">un</text>
<text transform="matrix(0.85 0 -0.3165385 0.9485797 201.4959412 46.5382919)" class="st5 st14">c</text>
<text transform="matrix(0.85 0 -0.3165385 0.9485797 201.4959412 46.5382919)" class="st15 st5 st14">c</text>
<text transform="matrix(0.85 0 -0.3165385 0.9485797 206.0086365 46.5382919)" class="st5 st14">t</text>
<text transform="matrix(0.85 0 -0.3165385 0.9485797 206.0086365 46.5382919)" class="st15 st5 st14">t</text>
<text transform="matrix(0.85 0 -0.3165385 0.9485797 209.7586365 46.5382919)" class="st5 st14">i</text>
<text transform="matrix(0.85 0 -0.3165385 0.9485797 209.7586365 46.5382919)" class="st15 st5 st14">i</text>
<text transform="matrix(0.85 0 -0.3165385 0.9485797 212.0174255 46.5382919)" class="st5 st14">o</text>
<text transform="matrix(0.85 0 -0.3165385 0.9485797 212.0174255 46.5382919)" class="st15 st5 st14">o</text>
<text transform="matrix(0.85 0 -0.3165385 0.9485797 218.025238 46.5382919)" class="st5 st14">n</text>
<text transform="matrix(0.85 0 -0.3165385 0.9485797 218.025238 46.5382919)" class="st15 st5 st14">n</text>
<line class="st13" x1="51.2721405" y1="52.5301361" x2="308.2770996" y2="52.5301361"/>
<text transform="matrix(0.85 0 0 1 55.0302734 66.0449219)" class="st5 st6">+ </text>
<text transform="matrix(0.85 0 0 1 71.5615234 66.0449219)" class="st5 st6">areaClassificationType: gml::CodeType [0..1]</text>
<text transform="matrix(0.85 0 0 1 55.0302734 78.8027344)" class="st5 st6">+ </text>
<text transform="matrix(0.85 0 0 1 71.5615234 78.8027344)" class="st5 st6">city: gml::CodeType [0..1]</text>
<text transform="matrix(0.85 0 0 1 55.0302734 91.5683594)" class="st5 st6">+ </text>
<text transform="matrix(0.85 0 0 1 71.5615234 91.5683594)" class="st5 st6">class: gml::CodeType [0..1]</text>
<text transform="matrix(0.85 0 0 1 55.0302734 104.3261719)" class="st5 st6">+ </text>
<text transform="matrix(0.85 0 0 1 71.5615234 104.3261719)" class="st5 st6">custodian: xs::string [0..1]</text>
<text transform="matrix(0.85 0 0 1 55.0302734 117.0839844)" class="st5 st6">+ </text>
<text transform="matrix(0.85 0 0 1 71.5615234 117.0839844)" class="st5 st6">enactmentFiscalYear: xs::gYear [0..1]</text>
<text transform="matrix(0.85 0 0 1 55.0302734 129.8496094)" class="st5 st6">+ </text>
<text transform="matrix(0.85 0 0 1 71.5615234 129.8496094)" class="st5 st6">expirationFiscalYear: xs::gYear [0..1]</text>
<text transform="matrix(0.85 0 0 1 55.0302734 142.6152344)" class="st5 st6">+ </text>
<text transform="matrix(0.85 0 0 1 71.5615234 142.6152344)" class="st5 st6">finalNotificationDate: xs::date [0..1]</text>
<text transform="matrix(0.85 0 0 1 55.0302734 155.3652344)" class="st5 st6">+ </text>
<text transform="matrix(0.85 0 0 1 71.5615234 155.3652344)" class="st5 st6">finalNotificationNumber: xs::string [0..1]</text>
<text transform="matrix(0.85 0 0 1 55.0302734 168.1308594)" class="st5 st6">+ </text>
<text transform="matrix(0.85 0 0 1 71.5615234 168.1308594)" class="st5 st6">function: gml::CodeType [0..*]</text>
<text transform="matrix(0.85 0 0 1 55.0302734 180.8964844)" class="st5 st6">+ </text>
<text transform="matrix(0.85 0 0 1 71.5615234 180.8964844)" class="st5 st6">legalGrounds: xs::string [0..1]</text>
<text transform="matrix(0.85 0 0 1 55.0302734 193.6621094)" class="st5 st6">+ </text>
<text transform="matrix(0.85 0 0 1 71.5615234 193.6621094)" class="st5 st6">nominalArea: gml::MeasureType [0..1]</text>
<text transform="matrix(0.85 0 0 1 55.0302734 206.4121094)" class="st5 st6">+ </text>
<text transform="matrix(0.85 0 0 1 71.5615234 206.4121094)" class="st5 st6">note: gml:StringOrRefType [0..1]</text>
<text transform="matrix(0.85 0 0 1 55.0302734 219.1777344)" class="st5 st6">+ </text>
<text transform="matrix(0.85 0 0 1 71.5615234 219.1777344)" class="st5 st6">notificationNumber: xs::string [0..1]</text>
<text transform="matrix(0.85 0 0 1 55.0302734 231.9433594)" class="st5 st6">+ </text>
<text transform="matrix(0.85 0 0 1 71.5615234 231.9433594)" class="st5 st6">prefecture: gml::CodeType [0..1]</text>
<text transform="matrix(0.85 0 0 1 55.0302734 244.7089844)" class="st5 st6">+ </text>
<text transform="matrix(0.85 0 0 1 71.5615234 244.7089844)" class="st5 st6">reason: gml:StringOrRefType [0..1]</text>
<text transform="matrix(0.85 0 0 1 55.0302734 257.4589844)" class="st5 st6">+ </text>
<text transform="matrix(0.85 0 0 1 71.5615234 257.4589844)" class="st5 st6">reference: xs::anyURI [0..1]</text>
<text transform="matrix(0.85 0 0 1 55.0302734 270.2246094)" class="st5 st6">+ </text>
<text transform="matrix(0.85 0 0 1 71.5615234 270.2246094)" class="st5 st6">surveyYear: xs::gYear [0..1]</text>
<text transform="matrix(0.85 0 0 1 55.0302734 282.9902344)" class="st5 st6">+ </text>
<text transform="matrix(0.85 0 0 1 71.5615234 282.9902344)" class="st5 st6">urbanPlanType: gml::CodeType [0..1]</text>
<text transform="matrix(0.85 0 0 1 55.0302734 295.7480469)" class="st5 st6">+ </text>
<text transform="matrix(0.85 0 0 1 71.5615234 295.7480469)" class="st5 st6">usage: gml::CodeType [0..*]</text>
<text transform="matrix(0.85 0 0 1 55.0302734 308.5058594)" class="st5 st6">+ </text>
<text transform="matrix(0.85 0 0 1 71.5615234 308.5058594)" class="st5 st6">validFrom: xs::date [0..1]</text>
<text transform="matrix(0.85 0 0 1 55.0302734 321.2714844)" class="st5 st6">+ </text>
<text transform="matrix(0.85 0 0 1 71.5615234 321.2714844)" class="st5 st6">validFromType: gml::CodeType [0..1]</text>
<text transform="matrix(0.85 0 0 1 55.0302734 334.0292969)" class="st5 st6">+ </text>
<text transform="matrix(0.85 0 0 1 71.5615234 334.0292969)" class="st5 st6">validTo: xs::date [0..1]</text>
<text transform="matrix(0.85 0 0 1 55.0302734 346.7949219)" class="st5 st6">+ </text>
<text transform="matrix(0.85 0 0 1 71.5615234 346.7949219)" class="st5 st6">validToType: gml::CodeType [0..1]</text>
<path class="st12" d="M552.8826904,162.1259613c1.0375366,0,1.8786621,0.84021,1.8786621,1.876709v-0.000061v55.5485535v0.0000305
	c0,1.036438-0.8411255,1.8766479-1.8787231,1.8766174c0,0.0000305,0,0,0,0h0.000061H414.6110229l-0.000061,0.0000305
	c-1.0375366-0.0000305-1.8786621-0.84021-1.8786621-1.8766785l0,0v-55.5485535c0-1.036438,0.8411255-1.8766479,1.8787231-1.8766479
	l0,0H552.8826904L552.8826904,162.1259613L552.8826904,162.1259613z"/>
<path class="st2" d="M550.6282349,159.8740082c1.0375366,0,1.8786621,0.84021,1.8786621,1.8766479l0.000061-0.000061v55.5486145
	h-0.000061c0,1.036438-0.8411255,1.8766479-1.8786621,1.8766174c0,0.0000305,0,0,0,0l0,0H412.3565674l-0.000061,0.0000305
	c-1.0375366-0.0000305-1.8786621-0.84021-1.8786621-1.8766479h0.000061v-55.5486145
	c0-1.036377,0.8410645-1.8765869,1.8786621-1.8765869l0,0H550.6282349L550.6282349,159.8740082L550.6282349,159.8740082z"/>
<path class="st13" d="M550.6282349,159.8740082c1.0375366,0,1.8786621,0.84021,1.8786621,1.8766479l0.000061-0.000061v55.5486145
	h-0.000061c0,1.036438-0.8411255,1.8766479-1.8786621,1.8766174c0,0.0000305,0,0,0,0l0,0H412.3565674l-0.000061,0.0000305
	c-1.0375366-0.0000305-1.8786621-0.84021-1.8786621-1.8766479h0.000061v-55.5486145
	c0-1.036377,0.8410645-1.8765869,1.8786621-1.8765869l0,0H550.6282349L550.6282349,159.8740082L550.6282349,159.8740082z"/>
<text transform="matrix(0.85 0 0 1 466.0849609 174.8886719)" class="st5 st6">«Type»</text>
<text transform="matrix(0.85 0 0 1 442.7880859 187.6542969)" class="st16 st6">gml::MultiSurface</text>
<path class="st12" d="M238.7655334,405.338623c1.0375366,0,1.8786316,0.84021,1.8786316,1.8766479l0.0000305-0.000061v55.548584
	l-0.0000305,0.000061c0,1.036377-0.841095,1.8766479-1.8786926,1.8765869c0,0.000061,0,0,0,0h0.000061H120.0322266v0.000061
	c-1.0375671-0.000061-1.8786926-0.840271-1.8786926-1.876709l0,0V407.21521c0-1.036377,0.8411255-1.8766479,1.8786926-1.8765869
	v-0.000061h118.7333069V405.338623L238.7655334,405.338623z"/>
<path class="st8" d="M236.5110779,403.0866699c1.0375671,0,1.8786621,0.8401489,1.8786621,1.8766479l0.0000305-0.000061v55.548584
	H238.38974c0,1.036438-0.841095,1.8766479-1.8786926,1.8766479l0,0h0.0000305H117.7778015h-0.0000305
	c-1.0375671,0-1.8786926-0.84021-1.8786926-1.8766479h0.0000305v-55.548584c0-1.036438,0.841095-1.8766479,1.8786926-1.8765869
	v-0.000061h118.7332764V403.0866699L236.5110779,403.0866699z"/>
<path class="st13" d="M236.5110779,403.0866699c1.0375671,0,1.8786621,0.8401489,1.8786621,1.8766479l0.0000305-0.000061v55.548584
	H238.38974c0,1.036438-0.841095,1.8766479-1.8786926,1.8766479l0,0h0.0000305H117.7778015h-0.0000305
	c-1.0375671,0-1.8786926-0.84021-1.8786926-1.8766479h0.0000305v-55.548584c0-1.036438,0.841095-1.8766479,1.8786926-1.8765869
	v-0.000061h118.7332764V403.0866699L236.5110779,403.0866699z"/>
<text transform="matrix(0.85 0 0 1 147.4599609 416.5996094)" class="st17 st6">«FeatureType»</text>
<text transform="matrix(0.85 0 0 1 157.9755859 427.8574219)" class="st18 st6">urf::Zone</text>
<line class="st13" x1="115.8991089" y1="433.8635254" x2="238.3897705" y2="433.8635254"/>
<text transform="matrix(0.85 0 0 1 119.6552734 445.8808594)" class="st17 st6">+ </text>
<text transform="matrix(0.85 0 0 1 135.4365234 445.8808594)" class="st17 st6">location: xs::string [0..1]</text>
<path class="st12" d="M548.3738403,389.5748291c1.0375366,0,1.8786011,0.84021,1.8786011,1.8766479h0.000061v99.8372192
	l-0.000061,0.000061c0,1.036438-0.8410645,1.8766479-1.8786621,1.8765869c0,0.000061,0,0,0,0h0.000061H401.0844116v0.000061
	c-1.0375977-0.000061-1.8787231-0.84021-1.8787231-1.876709h0.000061v-99.8372192
	c0-1.036438,0.8410645-1.8766479,1.8786621-1.8766479l0,0H548.3738403L548.3738403,389.5748291L548.3738403,389.5748291z"/>
<path class="st8" d="M546.1193848,387.322876c1.0375366,0,1.8786621,0.84021,1.8786621,1.8766479l0.000061-0.000061v99.8372803
	l-0.000061,0.000061c0,1.036438-0.8411255,1.8766479-1.8787231,1.8765869c0,0.000061,0,0,0,0h0.000061H398.8300171
	l-0.000061,0.000061c-1.0375366-0.000061-1.8786621-0.84021-1.8786621-1.876709l0,0v-99.8372803
	c0-1.036377,0.8411255-1.8766174,1.8787231-1.8765869v-0.0000305h147.2893677V387.322876L546.1193848,387.322876z"/>
<path class="st13" d="M546.1193848,387.322876c1.0375366,0,1.8786621,0.84021,1.8786621,1.8766479l0.000061-0.000061v99.8372803
	l-0.000061,0.000061c0,1.036438-0.8411255,1.8766479-1.8787231,1.8765869c0,0.000061,0,0,0,0h0.000061H398.8300171
	l-0.000061,0.000061c-1.0375366-0.000061-1.8786621-0.84021-1.8786621-1.876709l0,0v-99.8372803
	c0-1.036377,0.8411255-1.8766174,1.8787231-1.8765869v-0.0000305h147.2893677V387.322876L546.1193848,387.322876z"/>
<text transform="matrix(0.85 0 0 1 449.5532227 400.0839844)" class="st19 st20">«DataType»</text>
<text transform="matrix(0.85 0 0 1 444.2954102 411.3496094)" class="st9 st20">urf::Boundary</text>
<line class="st13" x1="396.9512939" y1="418.0997314" x2="547.9981079" y2="418.0997314"/>
<text transform="matrix(0.85 0 0 1 400.7094727 429.3496094)" class="st19 st20">+ </text>
<text transform="matrix(0.85 0 0 1 417.9907227 429.3496094)" class="st19 st20">class: gml::CodeType [0..*]</text>
<text transform="matrix(0.85 0 0 1 400.7094727 440.6230469)" class="st19 st20">+ </text>
<text transform="matrix(0.85 0 0 1 417.9907227 440.6230469)" class="st19 st20">function: gml::CodeType [0..*]</text>
<text transform="matrix(0.85 0 0 1 400.7094727 451.8730469)" class="st19 st20">+ </text>
<text transform="matrix(0.85 0 0 1 417.9907227 451.8730469)" class="st19 st20">offset: gml::LengthType [0..1]</text>
<text transform="matrix(0.85 0 0 1 400.7094727 463.1464844)" class="st19 st20">+ </text>
<text transform="matrix(0.85 0 0 1 417.9907227 463.1464844)" class="st19 st20">offsetDirection: xs::string [0..1]</text>
<text transform="matrix(0.85 0 0 1 400.7094727 474.3964844)" class="st19 st20">+ </text>
<text transform="matrix(0.85 0 0 1 417.9907227 474.3964844)" class="st19 st20">usage: gml::CodeType [0..*]</text>
<path class="st12" d="M550.6282349,261.9633179c1.0375366,0,1.8786621,0.8401794,1.8786621,1.8766174l0.000061-0.0000305v55.5485535
	l-0.000061,0.0000305c0,1.036438-0.8411255,1.8766479-1.8786621,1.8766174c0,0.0000305,0,0,0,0l0,0H418.3684082l-0.000061,0.0000305
	c-1.0375366-0.0000305-1.8786621-0.84021-1.8786621-1.8766785l0,0v-55.5485535c0-1.0364075,0.8411255-1.8766479,1.8787231-1.8765869
	v-0.000061h132.2598267V261.9633179L550.6282349,261.9633179z"/>
<path class="st2" d="M548.3738403,259.7113037c1.0375366,0,1.8786011,0.84021,1.8786011,1.8766785l0.000061-0.000061v55.5485535
	l-0.000061,0.000061c0,1.0364075-0.8410645,1.8766479-1.8786621,1.8765869c0,0.000061,0,0,0,0h0.000061H416.1139526
	l-0.000061,0.000061c-1.0375366-0.000061-1.8786621-0.8402405-1.8786621-1.876709h0.000061v-55.5485535
	c0-1.0364075,0.8410645-1.8766479,1.8786621-1.8766174v-0.0000305h132.2598877V259.7113037L548.3738403,259.7113037z"/>
<path class="st13" d="M548.3738403,259.7113037c1.0375366,0,1.8786011,0.84021,1.8786011,1.8766785l0.000061-0.000061v55.5485535
	l-0.000061,0.000061c0,1.0364075-0.8410645,1.8766479-1.8786621,1.8765869c0,0.000061,0,0,0,0h0.000061H416.1139526
	l-0.000061,0.000061c-1.0375366-0.000061-1.8786621-0.8402405-1.8786621-1.876709h0.000061v-55.5485535
	c0-1.0364075,0.8410645-1.8766479,1.8786621-1.8766174v-0.0000305h132.2598877V259.7113037L548.3738403,259.7113037z"/>
<text transform="matrix(0.85 0 0 1 468.3422852 272.4667969)" class="st19 st20">«Type»</text>
<text transform="matrix(0.85 0 0 1 450.3110352 283.7246094)" class="st9 st20">gml::MultiCurve</text>
<line class="st21" x1="480.3651733" y1="386.5721741" x2="480.3651733" y2="320.5144348"/>
<path class="st21" d="M480.3651733,320.5144348l4.5089111,11.2598572 M480.3651733,320.5144348l-4.5088501,11.2598572"/>
<line class="st21" x1="396.1998291" y1="428.6089478" x2="239.8927307" y2="428.6089478"/>
<polyline class="st22" points="247.4075012,424.8556519 239.8927307,428.6089478 247.4075012,432.3621826 254.9222717,428.6089478 
	247.4075012,424.8556519 "/>
<polygon class="st21" points="247.4075012,424.8556519 239.8927307,428.6089478 247.4075012,432.3621826 254.9222717,428.6089478 
	"/>
<path class="st21" d="M396.1998291,428.6089478l-11.2721558-4.5039673 M396.1998291,428.6089478l-11.2721558,4.5039062"/>
<line class="st21" x1="177.5201721" y1="402.3359375" x2="177.5201721" y2="353.5433044"/>
<polyline class="st23" points="182.0290527,365.5538025 173.011322,365.5538025 177.5201721,353.5433044 182.0290527,365.5538025 
	"/>
<polygon class="st21" points="182.0290527,365.5538025 173.011322,365.5538025 177.5201721,353.5433044 "/>
<line class="st21" x1="309.7800293" y1="195.9055023" x2="409.7264404" y2="195.9055023"/>
<path class="st21" d="M409.7264404,195.9055023l-11.2721558,4.5039368 M409.7264404,195.9055023l-11.2721558-4.5039368"/>
<text transform="matrix(0.85 0 0 1 348.8579102 421.8496094)" class="st19 st20">+boundary</text>
<text transform="matrix(0.85 0 0 1 377.4125977 440.6230469)" class="st19 st20">0..*</text>
<text transform="matrix(0.85 0 0 1 321.0454102 186.1464844)" class="st19 st20">+lod1MultiSurface</text>
<text transform="matrix(0.85 0 0 1 363.8891602 210.1621094)" class="st19 st20">0..1</text>
<text transform="matrix(0.85 0 0 1 435.2797852 332.5292969)" class="st19 st20">+location</text>
<text transform="matrix(0.85 0 0 1 488.6313477 332.5292969)" class="st19 st20">0..1</text>
</svg>
