<?xml version="1.0" encoding="utf-8"?>
<!-- Generator: Adobe Illustrator 27.5.0, SVG Export Plug-In . SVG Version: 6.00 Build 0)  -->
<svg version="1.1" id="レイヤー_1" xmlns="http://www.w3.org/2000/svg" xmlns:xlink="http://www.w3.org/1999/xlink" x="0px"
	 y="0px" viewBox="0 0 683.0557861 381.8898315" style="enable-background:new 0 0 683.0557861 381.8898315;" xml:space="preserve">
<style type="text/css">
	.st0{opacity:0.5019608;fill-rule:evenodd;clip-rule:evenodd;fill:#969696;enable-background:new    ;}
	.st1{fill-rule:evenodd;clip-rule:evenodd;fill:#FFCCFF;}
	.st2{fill:none;stroke:#000000;stroke-width:1.5013124;stroke-linecap:round;stroke-linejoin:round;stroke-miterlimit:10;}
	.st3{font-family:'YuGothicUI-Regular';}
	.st4{font-size:9.7585306px;}
	.st5{font-family:'YuGothicUI-Bold';}
	.st6{font-size:10.2875204px;}
	.st7{fill:none;stroke:#000000;stroke-width:0.2788152;stroke-miterlimit:10;}
	.st8{fill-rule:evenodd;clip-rule:evenodd;fill:#F0F0F0;}
	.st9{fill:none;stroke:#D7D7D7;stroke-width:0.7506562;stroke-linecap:square;stroke-miterlimit:10;}
	.st10{fill-rule:evenodd;clip-rule:evenodd;fill:#CCFFCC;}
	.st11{fill:none;stroke:#000000;stroke-width:0.7506562;stroke-linecap:square;stroke-miterlimit:10;}
	.st12{fill:#003060;}
	.st13{fill-rule:evenodd;clip-rule:evenodd;fill:#FFFFCC;}
	.st14{font-family:'Meiryo-Bold';}
	.st15{font-size:12.010499px;}
	.st16{letter-spacing:-2.352941;}
	.st17{fill:none;stroke:#000000;stroke-width:1.5013124;stroke-linecap:round;stroke-linejoin:bevel;stroke-miterlimit:10;}
	.st18{fill-rule:evenodd;clip-rule:evenodd;fill:#FFFFFF;}
</style>
<path class="st0" d="M339.7406311,138.9974823c1.0375671,0,1.8786621,0.8401794,1.8786621,1.8766479l0.0000305-0.0000305v48.7926331
	l-0.0000305,0.0000305c0,1.036438-0.841095,1.8766479-1.8786926,1.8766174c0,0.0000305,0,0,0,0h0.0000305H218.7528992
	l-0.0000305,0.0000305c-1.0375671-0.0000305-1.8786926-0.84021-1.8786926-1.8766785h0.0000305v-48.7926331
	c0-1.036438,0.841095-1.8766479,1.8786926-1.8766174v-0.0000305h120.9877319V138.9974823L339.7406311,138.9974823z"/>
<path class="st1" d="M337.4862061,136.7455292c1.0375671,0,1.8786621,0.8401489,1.8786621,1.8766174l0.0000305-0.0000305v48.7926636
	h-0.0000305c0,1.036438-0.841095,1.8766479-1.8786926,1.8766479l0,0h0.0000305H216.4984436l0,0
	c-1.0375671,0-1.8787079-0.84021-1.8787079-1.8766479h0.0000305v-48.7926636c0-1.036438,0.8411102-1.8766479,1.8786774-1.8765869
	v-0.000061h120.9877625V136.7455292L337.4862061,136.7455292z"/>
<path class="st2" d="M337.4862061,136.7455292c1.0375671,0,1.8786621,0.8401489,1.8786621,1.8766174l0.0000305-0.0000305v48.7926636
	h-0.0000305c0,1.036438-0.841095,1.8766479-1.8786926,1.8766479l0,0h0.0000305H216.4984436l0,0
	c-1.0375671,0-1.8787079-0.84021-1.8787079-1.8766479h0.0000305v-48.7926636c0-1.036438,0.8411102-1.8766479,1.8786774-1.8765869
	v-0.000061h120.9877625V136.7455292L337.4862061,136.7455292z"/>
<text transform="matrix(0.85 0 0 1 245.4272461 151.7646484)" class="st3 st4">«FeatureType»</text>
<text transform="matrix(0.85 0 0 1 247.6850586 164.5224609)" class="st5 st4">UrbanFacility</text>
<line class="st2" x1="214.6197662" y1="170.5250092" x2="339.3648987" y2="170.5250092"/>
<text transform="matrix(0.85 0 0 1 218.3725586 184.0458984)" class="st3 st4">+ </text>
<text transform="matrix(0.85 0 0 1 234.9038086 184.0458984)" class="st3 st4">number: xs::string [0..1]</text>
<path class="st0" d="M345.7524414,229.0762177c1.0375366,0,1.8786316,0.8401794,1.8786316,1.8766479l0.000061-0.0000305v53.2966156
	h-0.000061c0,1.036438-0.841095,1.8766479-1.8786926,1.8766174c0,0.0000305,0,0,0,0h0.000061H211.2381287l-0.0000305,0.0000305
	c-1.0375671-0.0000305-1.8786926-0.84021-1.8786926-1.8766479h0.0000305v-53.2966156
	c0-1.036438,0.841095-1.8766479,1.8786926-1.8766174v-0.0000305h134.5143127V229.0762177L345.7524414,229.0762177z"/>
<path class="st1" d="M343.4980164,226.824234c1.0375366,0,1.8786316,0.84021,1.8786316,1.8766479l0.000061-0.0000305v53.2966156
	l-0.000061,0.0000305c0,1.036438-0.841095,1.8766479-1.8786621,1.8766174c0,0.0000305,0,0,0,0h0.0000305h-134.514328
	l-0.0000153,0.0000305c-1.0375671-0.0000305-1.8786926-0.84021-1.8786926-1.8766785h0.0000153v-53.2966156
	c0-1.0364075,0.8411102-1.8766174,1.8786926-1.8766174l0,0H343.4980164L343.4980164,226.824234L343.4980164,226.824234z"/>
<path class="st2" d="M343.4980164,226.824234c1.0375366,0,1.8786316,0.84021,1.8786316,1.8766479l0.000061-0.0000305v53.2966156
	l-0.000061,0.0000305c0,1.036438-0.841095,1.8766479-1.8786621,1.8766174c0,0.0000305,0,0,0,0h0.0000305h-134.514328
	l-0.0000153,0.0000305c-1.0375671-0.0000305-1.8786926-0.84021-1.8786926-1.8766785h0.0000153v-53.2966156
	c0-1.0364075,0.8411102-1.8766174,1.8786926-1.8766174l0,0H343.4980164L343.4980164,226.824234L343.4980164,226.824234z"/>
<text transform="matrix(0.85 0 0 1 244.6772461 241.8427734)" class="st3 st4">«FeatureType»</text>
<text transform="matrix(0.85 0 0 1 207.8569336 254.6005859)" class="st5 st4">EducationalAndCulturalFacility</text>
<path class="st0" d="M340.4920959,48.9187164c1.0375671,0,1.8786621,0.8401794,1.8786621,1.8766479l0.0000305-0.0000305v49.543335
	h-0.0000305c0,1.036438-0.841095,1.8766479-1.8786621,1.8766479l0,0l0,0H218.7528992h-0.0000305
	c-1.0375671,0-1.8786926-0.84021-1.8786926-1.8766479h0.0000305v-49.543335c0-1.036438,0.841095-1.8766174,1.8786926-1.8766174l0,0
	H340.4920959L340.4920959,48.9187164L340.4920959,48.9187164z"/>
<path class="st1" d="M338.2376709,46.6667633c1.0375671,0,1.8786621,0.8401794,1.8786621,1.8766174h0.0000305v49.5433044
	l-0.0000305,0.0000305c0,1.036438-0.841095,1.8766479-1.8786926,1.8766174c0,0.0000305,0,0,0,0h0.0000305H216.4984436v0.0000305
	c-1.0375671-0.0000305-1.8787079-0.84021-1.8787079-1.8766785h0.0000305V48.5433807
	c0-1.036438,0.8411102-1.8766479,1.8786774-1.8766174v-0.0000305h121.7392273V46.6667633L338.2376709,46.6667633z"/>
<path class="st2" d="M338.2376709,46.6667633c1.0375671,0,1.8786621,0.8401794,1.8786621,1.8766174h0.0000305v49.5433044
	l-0.0000305,0.0000305c0,1.036438-0.841095,1.8766479-1.8786926,1.8766174c0,0.0000305,0,0,0,0h0.0000305H216.4984436v0.0000305
	c-1.0375671-0.0000305-1.8787079-0.84021-1.8787079-1.8766785h0.0000305V48.5433807
	c0-1.036438,0.8411102-1.8766479,1.8786774-1.8766174v-0.0000305h121.7392273V46.6667633L338.2376709,46.6667633z"/>
<text transform="matrix(0.85 0 0 1 245.4272461 61.6787109)" class="st3 st4">«FeatureType»</text>
<text transform="matrix(0.85 0 0 1 265.7163086 74.4443359)" class="st5 st4">Zone</text>
<line class="st2" x1="214.6197662" y1="80.4462738" x2="340.1163635" y2="80.4462738"/>
<text transform="matrix(0.85 0 0 1 218.3725586 93.9677734)" class="st3 st4">+ </text>
<text transform="matrix(0.85 0 0 1 234.9038086 93.9677734)" class="st3 st4">location: xs::string [0..1]</text>
<path class="st0" d="M644.8400879,18.8924713c1.0375366,0,1.8786011,0.8401794,1.8786011,1.8766479l0.000061-0.0000305v344.5512085
	l-0.000061,0.0000305c0,1.036438-0.8410645,1.8766479-1.8786621,1.8766174c0,0.0000305,0,0,0,0h0.000061H391.5924988
	l-0.0000305,0.0000305c-1.0375671-0.0000305-1.8786926-0.84021-1.8786926-1.8766785h0.0000305V20.7690887
	c0-1.036438,0.841095-1.8766174,1.8786926-1.8766174l0,0H644.8400879L644.8400879,18.8924713L644.8400879,18.8924713z"/>
<path class="st1" d="M642.5856323,16.6404877c1.0375366,0,1.8786621,0.84021,1.8786621,1.8766479h0.000061v344.5512085
	l-0.000061,0.000061c0,1.0364075-0.8411255,1.8766479-1.8787231,1.8765869c0,0.000061,0,0,0,0h0.000061H389.3380737
	l-0.0000305,0.000061c-1.0375671-0.000061-1.8786926-0.8402405-1.8786926-1.876709h0.0000305V18.5171356
	c0-1.036438,0.841095-1.8766479,1.8786926-1.8766479l0,0H642.5856323L642.5856323,16.6404877L642.5856323,16.6404877z"/>
<path class="st2" d="M642.5856323,16.6404877c1.0375366,0,1.8786621,0.84021,1.8786621,1.8766479h0.000061v344.5512085
	l-0.000061,0.000061c0,1.0364075-0.8411255,1.8766479-1.8787231,1.8765869c0,0.000061,0,0,0,0h0.000061H389.3380737
	l-0.0000305,0.000061c-1.0375671-0.000061-1.8786926-0.8402405-1.8786926-1.876709h0.0000305V18.5171356
	c0-1.036438,0.841095-1.8766479,1.8786926-1.8766479l0,0H642.5856323L642.5856323,16.6404877L642.5856323,16.6404877z"/>
<text transform="matrix(0.85 0 -0.3165385 0.9485797 586.3516846 29.4203205)" class="st3 st6">_CityObject</text>
<text transform="matrix(0.85 0 0 1 484.3959961 46.6708984)" class="st3 st4">«FeatureType»</text>
<text transform="matrix(0.85 0 -0.3165385 0.9485797 480.6267395 59.4413872)" class="st3 st6">_</text>
<text transform="matrix(0.85 0 -0.3165385 0.9485797 480.6267395 59.4413872)" class="st7 st3 st6">_</text>
<text transform="matrix(0.85 0 -0.3165385 0.9485797 484.3884583 59.4413872)" class="st3 st6">U</text>
<text transform="matrix(0.85 0 -0.3165385 0.9485797 484.3884583 59.4413872)" class="st7 st3 st6">U</text>
<text transform="matrix(0.85 0 -0.3165385 0.9485797 491.1482239 59.4413872)" class="st3 st6">r</text>
<text transform="matrix(0.85 0 -0.3165385 0.9485797 491.1482239 59.4413872)" class="st7 st3 st6">r</text>
<text transform="matrix(0.85 0 -0.3165385 0.9485797 494.8962708 59.4413872)" class="st3 st6">b</text>
<text transform="matrix(0.85 0 -0.3165385 0.9485797 494.8962708 59.4413872)" class="st7 st3 st6">b</text>
<text transform="matrix(0.85 0 -0.3165385 0.9485797 500.9040833 59.4413872)" class="st3 st6">a</text>
<text transform="matrix(0.85 0 -0.3165385 0.9485797 500.9040833 59.4413872)" class="st7 st3 st6">a</text>
<text transform="matrix(0.85 0 -0.3165385 0.9485797 506.1570129 59.4413872)" class="st3 st6">n</text>
<text transform="matrix(0.85 0 -0.3165385 0.9485797 506.1570129 59.4413872)" class="st7 st3 st6">n</text>
<text transform="matrix(0.85 0 -0.3165385 0.9485797 512.164856 59.4413872)" class="st3 st6">F</text>
<text transform="matrix(0.85 0 -0.3165385 0.9485797 512.164856 59.4413872)" class="st7 st3 st6">F</text>
<text transform="matrix(0.85 0 -0.3165385 0.9485797 517.423645 59.4413872)" class="st3 st6">un</text>
<text transform="matrix(0.85 0 -0.3165385 0.9485797 517.423645 59.4413872)" class="st7 st3 st6">un</text>
<text transform="matrix(0.85 0 -0.3165385 0.9485797 529.4373169 59.4413872)" class="st3 st6">c</text>
<text transform="matrix(0.85 0 -0.3165385 0.9485797 529.4373169 59.4413872)" class="st7 st3 st6">c</text>
<text transform="matrix(0.85 0 -0.3165385 0.9485797 533.9500122 59.4413872)" class="st3 st6">t</text>
<text transform="matrix(0.85 0 -0.3165385 0.9485797 533.9500122 59.4413872)" class="st7 st3 st6">t</text>
<text transform="matrix(0.85 0 -0.3165385 0.9485797 537.7000122 59.4413872)" class="st3 st6">i</text>
<text transform="matrix(0.85 0 -0.3165385 0.9485797 537.7000122 59.4413872)" class="st7 st3 st6">i</text>
<text transform="matrix(0.85 0 -0.3165385 0.9485797 539.9588013 59.4413872)" class="st3 st6">o</text>
<text transform="matrix(0.85 0 -0.3165385 0.9485797 539.9588013 59.4413872)" class="st7 st3 st6">o</text>
<text transform="matrix(0.85 0 -0.3165385 0.9485797 545.9666138 59.4413872)" class="st3 st6">n</text>
<text transform="matrix(0.85 0 -0.3165385 0.9485797 545.9666138 59.4413872)" class="st7 st3 st6">n</text>
<line class="st2" x1="387.4593811" y1="65.4331512" x2="644.4643555" y2="65.4331512"/>
<text transform="matrix(0.85 0 0 1 391.2163086 78.9443359)" class="st3 st4">+ </text>
<text transform="matrix(0.85 0 0 1 407.7475586 78.9443359)" class="st3 st4">areaClassificationType: gml::CodeType [0..1]</text>
<text transform="matrix(0.85 0 0 1 391.2163086 91.7099609)" class="st3 st4">+ </text>
<text transform="matrix(0.85 0 0 1 407.7475586 91.7099609)" class="st3 st4">city: gml::CodeType [0..1]</text>
<text transform="matrix(0.85 0 0 1 391.2163086 104.4677734)" class="st3 st4">+ </text>
<text transform="matrix(0.85 0 0 1 407.7475586 104.4677734)" class="st3 st4">class: gml::CodeType [0..1]</text>
<text transform="matrix(0.85 0 0 1 391.2163086 117.2333984)" class="st3 st4">+ </text>
<text transform="matrix(0.85 0 0 1 407.7475586 117.2333984)" class="st3 st4">custodian: xs::string [0..1]</text>
<text transform="matrix(0.85 0 0 1 391.2163086 129.9912109)" class="st3 st4">+ </text>
<text transform="matrix(0.85 0 0 1 407.7475586 129.9912109)" class="st3 st4">enactmentFiscalYear: xs::gYear [0..1]</text>
<text transform="matrix(0.85 0 0 1 391.2163086 142.7490234)" class="st3 st4">+ </text>
<text transform="matrix(0.85 0 0 1 407.7475586 142.7490234)" class="st3 st4">expirationFiscalYear: xs::gYear [0..1]</text>
<text transform="matrix(0.85 0 0 1 391.2163086 155.5146484)" class="st3 st4">+ </text>
<text transform="matrix(0.85 0 0 1 407.7475586 155.5146484)" class="st3 st4">finalNotificationDate: xs::date [0..1]</text>
<text transform="matrix(0.85 0 0 1 391.2163086 168.2802734)" class="st3 st4">+ </text>
<text transform="matrix(0.85 0 0 1 407.7475586 168.2802734)" class="st3 st4">finalNotificationNumber: xs::string [0..1]</text>
<text transform="matrix(0.85 0 0 1 391.2163086 181.0302734)" class="st3 st4">+ </text>
<text transform="matrix(0.85 0 0 1 407.7475586 181.0302734)" class="st3 st4">function: gml::CodeType [0..*]</text>
<text transform="matrix(0.85 0 0 1 391.2163086 193.7958984)" class="st3 st4">+ </text>
<text transform="matrix(0.85 0 0 1 407.7475586 193.7958984)" class="st3 st4">legalGrounds: xs::string [0..1]</text>
<text transform="matrix(0.85 0 0 1 391.2163086 206.5615234)" class="st3 st4">+ </text>
<text transform="matrix(0.85 0 0 1 407.7475586 206.5615234)" class="st3 st4">nominalArea: gml::MeasureType [0..1]</text>
<text transform="matrix(0.85 0 0 1 391.2163086 219.3271484)" class="st3 st4">+ </text>
<text transform="matrix(0.85 0 0 1 407.7475586 219.3271484)" class="st3 st4">note: gml:StringOrRefType [0..1]</text>
<text transform="matrix(0.85 0 0 1 391.2163086 232.0771484)" class="st3 st4">+ </text>
<text transform="matrix(0.85 0 0 1 407.7475586 232.0771484)" class="st3 st4">notificationNumber: xs::string [0..1]</text>
<text transform="matrix(0.85 0 0 1 391.2163086 244.8427734)" class="st3 st4">+ </text>
<text transform="matrix(0.85 0 0 1 407.7475586 244.8427734)" class="st3 st4">prefecture: gml::CodeType [0..1]</text>
<text transform="matrix(0.85 0 0 1 391.2163086 257.6083984)" class="st3 st4">+ </text>
<text transform="matrix(0.85 0 0 1 407.7475586 257.6083984)" class="st3 st4">reason: gml:StringOrRefType [0..1]</text>
<text transform="matrix(0.85 0 0 1 391.2163086 270.3740234)" class="st3 st4">+ </text>
<text transform="matrix(0.85 0 0 1 407.7475586 270.3740234)" class="st3 st4">reference: xs::anyURI [0..1]</text>
<text transform="matrix(0.85 0 0 1 391.2163086 283.1240234)" class="st3 st4">+ </text>
<text transform="matrix(0.85 0 0 1 407.7475586 283.1240234)" class="st3 st4">surveyYear: xs::gYear [0..1]</text>
<text transform="matrix(0.85 0 0 1 391.2163086 295.8896484)" class="st3 st4">+ </text>
<text transform="matrix(0.85 0 0 1 407.7475586 295.8896484)" class="st3 st4">urbanPlanType: gml::CodeType [0..1]</text>
<text transform="matrix(0.85 0 0 1 391.2163086 308.6552734)" class="st3 st4">+ </text>
<text transform="matrix(0.85 0 0 1 407.7475586 308.6552734)" class="st3 st4">usage: gml::CodeType [0..*]</text>
<text transform="matrix(0.85 0 0 1 391.2163086 321.4052734)" class="st3 st4">+ </text>
<text transform="matrix(0.85 0 0 1 407.7475586 321.4052734)" class="st3 st4">validFrom: xs::date [0..1]</text>
<text transform="matrix(0.85 0 0 1 391.2163086 334.1708984)" class="st3 st4">+ </text>
<text transform="matrix(0.85 0 0 1 407.7475586 334.1708984)" class="st3 st4">validFromType: gml::CodeType [0..1]</text>
<text transform="matrix(0.85 0 0 1 391.2163086 346.9365234)" class="st3 st4">+ </text>
<text transform="matrix(0.85 0 0 1 407.7475586 346.9365234)" class="st3 st4">validTo: xs::date [0..1]</text>
<text transform="matrix(0.85 0 0 1 391.2163086 359.6943359)" class="st3 st4">+ </text>
<text transform="matrix(0.85 0 0 1 407.7475586 359.6943359)" class="st3 st4">validToType: gml::CodeType [0..1]</text>
<path class="st8" d="M171.0341339,45.9160919c1.2450714,0,2.2544098,1.0082397,2.2544098,2.2519836l0.0000153-0.0000305v84.8241577
	l-0.0000153,0.0000305c0,1.2437134-1.0093384,2.2519531-2.2544403,2.2519531l0,0h0.0000305H36.5198517h-0.0000076
	c-1.2450867,0-2.254425-1.0082397-2.254425-2.2519836V48.168045c0-1.2437134,1.0093384-2.2519531,2.2544327-2.2519531l0,0
	H171.0341339L171.0341339,45.9160919L171.0341339,45.9160919z"/>
<path class="st9" d="M171.0341339,45.9160919c1.2450714,0,2.2544098,1.0082397,2.2544098,2.2519836l0.0000153-0.0000305v84.8241577
	l-0.0000153,0.0000305c0,1.2437134-1.0093384,2.2519531-2.2544403,2.2519531l0,0h0.0000305H36.5198517h-0.0000076
	c-1.2450867,0-2.254425-1.0082397-2.254425-2.2519836V48.168045c0-1.2437134,1.0093384-2.2519531,2.2544327-2.2519531l0,0
	H171.0341339L171.0341339,45.9160919L171.0341339,45.9160919z"/>
<path class="st10" d="M51.9251175,68.4357758c1.0375671,0,1.878685,0.84021,1.878685,1.8766479h0.0000076v8.2572021h-0.0000076
	c0,1.036438-0.8411179,1.8766479-1.8786926,1.8766479l0,0h0.0000076h-8.266243l0,0
	c-1.0375748,0-1.8786926-0.84021-1.8786926-1.8766479h0.0000076v-8.2572021c0-1.036438,0.8411102-1.8766479,1.878685-1.8766479l0,0
	H51.9251175L51.9251175,68.4357758L51.9251175,68.4357758z"/>
<path class="st11" d="M51.9251175,68.4357758c1.0375671,0,1.878685,0.84021,1.878685,1.8766479h0.0000076v8.2572021h-0.0000076
	c0,1.036438-0.8411179,1.8766479-1.8786926,1.8766479l0,0h0.0000076h-8.266243l0,0
	c-1.0375748,0-1.8786926-0.84021-1.8786926-1.8766479h0.0000076v-8.2572021c0-1.036438,0.8411102-1.8766479,1.878685-1.8766479l0,0
	H51.9251175L51.9251175,68.4357758L51.9251175,68.4357758z"/>
<text transform="matrix(0.85 0 0 1 58.3100586 78.9443359)" class="st12 st3 st4">GMLに定義されたクラス</text>
<path class="st13" d="M51.9251175,82.6982269c1.0375671,0,1.878685,0.84021,1.878685,1.8766479h0.0000076v8.2572021
	l-0.0000076,0.0000305c0,1.036438-0.8411179,1.8766479-1.8786926,1.8766174c0,0.0000305,0,0,0,0h0.0000076h-8.266243v0.0000305
	c-1.0375748-0.0000305-1.8786926-0.84021-1.8786926-1.8766785h0.0000076v-8.2572021
	c0-1.036438,0.8411102-1.8766479,1.878685-1.8766479l0,0H51.9251175L51.9251175,82.6982269L51.9251175,82.6982269z"/>
<path class="st11" d="M51.9251175,82.6982269c1.0375671,0,1.878685,0.84021,1.878685,1.8766479h0.0000076v8.2572021
	l-0.0000076,0.0000305c0,1.036438-0.8411179,1.8766479-1.8786926,1.8766174c0,0.0000305,0,0,0,0h0.0000076h-8.266243v0.0000305
	c-1.0375748-0.0000305-1.8786926-0.84021-1.8786926-1.8766785h0.0000076v-8.2572021
	c0-1.036438,0.8411102-1.8766479,1.878685-1.8766479l0,0H51.9251175L51.9251175,82.6982269L51.9251175,82.6982269z"/>
<text transform="matrix(0.85 0 0 1 58.3100586 93.2099609)" class="st12 st3 st4">CityGMLに定義されたクラス</text>
<path class="st1" d="M51.9251175,96.9607391c1.0375671,0,1.878685,0.8401489,1.878685,1.8766174l0.0000076-0.0000305v8.2572327
	l-0.0000076,0.0000305c0,1.036438-0.8411179,1.8766479-1.8786926,1.8766174c0,0.0000305,0,0,0,0h0.0000076h-8.266243v0.0000305
	c-1.0375748-0.0000305-1.8786926-0.84021-1.8786926-1.8766785h0.0000076V98.837326
	c0-1.036438,0.8411102-1.8766174,1.878685-1.8765869v-0.0000305h8.266243V96.9607391L51.9251175,96.9607391z"/>
<path class="st11" d="M51.9251175,96.9607391c1.0375671,0,1.878685,0.8401489,1.878685,1.8766174l0.0000076-0.0000305v8.2572327
	l-0.0000076,0.0000305c0,1.036438-0.8411179,1.8766479-1.8786926,1.8766174c0,0.0000305,0,0,0,0h0.0000076h-8.266243v0.0000305
	c-1.0375748-0.0000305-1.8786926-0.84021-1.8786926-1.8766785h0.0000076V98.837326
	c0-1.036438,0.8411102-1.8766174,1.878685-1.8765869v-0.0000305h8.266243V96.9607391L51.9251175,96.9607391z"/>
<text transform="matrix(0.85 0 0 1 58.3100586 107.4677734)" class="st12 st3 st4">i-URに定義されたクラス</text>
<text transform="matrix(0.85 0 0 1 95.8881836 64.1723633)" class="st12 st14 st15 st16">凡例</text>
<line class="st17" x1="279.9982605" y1="135.9948273" x2="279.9982605" y2="101.4646454"/>
<polyline class="st18" points="284.5071106,113.4751434 275.4893494,113.4751434 279.9982605,101.4646454 284.5071106,113.4751434 
	"/>
<polygon class="st17" points="284.5071106,113.4751434 275.4893494,113.4751434 279.9982605,101.4646454 "/>
<line class="st17" x1="276.2408447" y1="226.0735626" x2="276.2408447" y2="190.7927094"/>
<polyline class="st18" points="280.7497253,202.8032379 271.7319641,202.8032379 276.2408447,190.7927094 280.7497253,202.8032379 
	"/>
<polygon class="st17" points="280.7497253,202.8032379 271.7319641,202.8032379 276.2408447,190.7927094 "/>
<line class="st17" x1="341.6193237" y1="72.1890717" x2="386.7079163" y2="72.1890717"/>
<polyline class="st18" points="374.6842957,76.6929779 374.6842957,67.6851044 386.7079163,72.1890717 374.6842957,76.6929779 "/>
<polygon class="st17" points="386.7079163,72.1890717 374.6842957,67.6851044 374.6842957,76.6929779 "/>
</svg>
