<?xml version="1.0" encoding="utf-8"?>
<!-- Generator: Adobe Illustrator 27.5.0, SVG Export Plug-In . SVG Version: 6.00 Build 0)  -->
<svg version="1.1" id="レイヤー_1" xmlns="http://www.w3.org/2000/svg" xmlns:xlink="http://www.w3.org/1999/xlink" x="0px"
	 y="0px" viewBox="0 0 761.2755737 678.4174194" style="enable-background:new 0 0 761.2755737 678.4174194;" xml:space="preserve">
<style type="text/css">
	.st0{opacity:0.5019608;fill-rule:evenodd;clip-rule:evenodd;fill:#969696;enable-background:new    ;}
	.st1{fill-rule:evenodd;clip-rule:evenodd;fill:#CCFFCC;}
	.st2{fill:none;stroke:#000000;stroke-width:1.5013124;stroke-linecap:round;stroke-linejoin:round;stroke-miterlimit:10;}
	.st3{font-family:'Calibri';}
	.st4{font-size:9.7585306px;}
	.st5{font-family:'Calibri-Bold';}
	.st6{fill-rule:evenodd;clip-rule:evenodd;fill:#FFFFCC;}
	.st7{font-family:'Calibri-BoldItalic';}
	.st8{fill-rule:evenodd;clip-rule:evenodd;fill:#F0F0F0;}
	.st9{fill:none;stroke:#D7D7D7;stroke-width:0.7506562;stroke-linecap:square;stroke-miterlimit:10;}
	.st10{fill:none;stroke:#000000;stroke-width:0.7506562;stroke-linecap:square;stroke-miterlimit:10;}
	.st11{enable-background:new    ;}
	.st12{fill:#003060;}
	.st13{font-family:'KozGoPr6N-Regular-90ms-RKSJ-H';}
	.st14{fill-rule:evenodd;clip-rule:evenodd;fill:#FFCCFF;}
	.st15{font-family:'Meiryo-Bold';}
	.st16{font-size:12.010499px;}
	.st17{letter-spacing:-2.352941;}
	.st18{fill:none;stroke:#000000;stroke-width:1.5013124;stroke-linecap:round;stroke-linejoin:bevel;stroke-miterlimit:10;}
	.st19{fill-rule:evenodd;clip-rule:evenodd;fill:#FFFFFF;}
	.st20{font-family:'Meiryo';}
	.st21{font-size:7.5065618px;}
</style>
<path class="st0" d="M683.6514282,492.8400269c1.0375366,0,1.8786011,0.8401794,1.8786011,1.8766479l0.000061-0.0000305v33.0289001
	l-0.000061,0.000061c0,1.036377-0.8410645,1.8765869-1.8786621,1.8765869l0,0h0.000061h-70.6387939h-0.000061
	c-1.0375366,0-1.8787231-0.84021-1.8787231-1.8766479h0.000061v-33.0289001c0-1.036438,0.8411255-1.8766479,1.8787231-1.8766174
	v-0.0000305h70.6387939V492.8400269L683.6514282,492.8400269z"/>
<path class="st1" d="M681.3969727,490.5880737c1.0375366,0,1.8786621,0.8401794,1.8786621,1.8766479v-0.000061v33.0289307l0,0
	c0,1.036438-0.8411255,1.8766479-1.8787231,1.8765869c0,0.000061,0,0,0,0h0.000061h-70.6387939l-0.000061,0.000061
	c-1.0375366-0.000061-1.8786621-0.84021-1.8786621-1.8766479h0.000061v-33.0289307
	c0-1.0364075,0.8410645-1.8766479,1.8786621-1.8765869v-0.000061h70.6387939V490.5880737L681.3969727,490.5880737z"/>
<path class="st2" d="M681.3969727,490.5880737c1.0375366,0,1.8786621,0.8401794,1.8786621,1.8766479v-0.000061v33.0289307l0,0
	c0,1.036438-0.8411255,1.8766479-1.8787231,1.8765869c0,0.000061,0,0,0,0h0.000061h-70.6387939l-0.000061,0.000061
	c-1.0375366-0.000061-1.8786621-0.84021-1.8786621-1.8766479h0.000061v-33.0289307
	c0-1.0364075,0.8410645-1.8766479,1.8786621-1.8765869v-0.000061h70.6387939V490.5880737L681.3969727,490.5880737z"/>
<text transform="matrix(0.85 0 0 1 631.4179688 504.097168)" class="st3 st4">«Type»</text>
<text transform="matrix(0.85 0 0 1 612.6367188 515.3549805)" class="st5 st4">gml::MultiCurve</text>
<path class="st0" d="M691.1661377,417.7744141c1.0375977,0,1.8786621,0.8401794,1.8786621,1.8766479l0.000061-0.000061v48.7926636
	l-0.000061,0.0000305c0,1.036438-0.8410645,1.8766479-1.8786621,1.8766174c0,0.0000305,0,0,0,0l0,0h-85.6682739l-0.000061,0.0000305
	c-1.0375366-0.0000305-1.8786621-0.84021-1.8786621-1.8766785l0,0V419.651001c0-1.0364075,0.8411255-1.8766174,1.8787231-1.8765869
	v-0.0000305h85.6682739V417.7744141L691.1661377,417.7744141z"/>
<path class="st6" d="M688.9117432,415.5224609c1.0375366,0,1.8786621,0.8401794,1.8786621,1.8766174v-0.0000305v48.7926331v0.000061
	c0,1.0364075-0.8411255,1.8766479-1.8787231,1.8765869c0,0.000061,0,0,0,0h0.000061h-85.668335l-0.000061,0.000061
	c-1.0375366-0.000061-1.8786621-0.8402405-1.8786621-1.876709h0.000061v-48.7926331
	c0-1.0364075,0.8410645-1.8766479,1.8786621-1.8765869v-0.000061h85.668335V415.5224609L688.9117432,415.5224609z"/>
<path class="st2" d="M688.9117432,415.5224609c1.0375366,0,1.8786621,0.8401794,1.8786621,1.8766174v-0.0000305v48.7926331v0.000061
	c0,1.0364075-0.8411255,1.8766479-1.8787231,1.8765869c0,0.000061,0,0,0,0h0.000061h-85.668335l-0.000061,0.000061
	c-1.0375366-0.000061-1.8786621-0.8402405-1.8786621-1.876709h0.000061v-48.7926331
	c0-1.0364075,0.8410645-1.8766479,1.8786621-1.8765869v-0.000061h85.668335V415.5224609L688.9117432,415.5224609z"/>
<text transform="matrix(0.85 0 0 1 616.3945312 429.0424805)" class="st3 st4">«FeatureType»</text>
<text transform="matrix(0.85 0 0 1 633.6757812 440.300293)" class="st5 st4">dem::</text>
<text transform="matrix(0.85 0 0 1 615.6367188 451.5581055)" class="st5 st4">BreaklineRelief</text>
<path class="st0" d="M377.8004761,125.0184631c1.0375671,0,1.8786621,0.84021,1.8786621,1.8766479h0.0000305v102.0892334h-0.0000305
	c0,1.036438-0.841095,1.8766479-1.8786926,1.8766479l0,0h0.0000305H132.0676727h-0.0000153
	c-1.0375671,0-1.8786926-0.84021-1.8786926-1.8766479h0.0000305V126.8951111c0-1.036438,0.841095-1.8766479,1.8786774-1.8766479l0,0
	H377.8004761L377.8004761,125.0184631L377.8004761,125.0184631z"/>
<path class="st6" d="M375.546051,122.76651c1.0375671,0,1.8786621,0.84021,1.8786621,1.8766479l0.0000305-0.000061v102.0892944
	h-0.0000305c0,1.036438-0.841095,1.8766479-1.8786926,1.8766479l0,0h0.0000305H129.8132477h-0.0000153
	c-1.0375671,0-1.878685-0.84021-1.878685-1.8766479h0.0000076V124.6430969c0-1.036377,0.8411102-1.8765869,1.8786926-1.8765869l0,0
	H375.546051L375.546051,122.76651L375.546051,122.76651z"/>
<path class="st2" d="M375.546051,122.76651c1.0375671,0,1.8786621,0.84021,1.8786621,1.8766479l0.0000305-0.000061v102.0892944
	h-0.0000305c0,1.036438-0.841095,1.8766479-1.8786926,1.8766479l0,0h0.0000305H129.8132477h-0.0000153
	c-1.0375671,0-1.878685-0.84021-1.878685-1.8766479h0.0000076V124.6430969c0-1.036377,0.8411102-1.8765869,1.8786926-1.8765869l0,0
	H375.546051L375.546051,122.76651L375.546051,122.76651z"/>
<text transform="matrix(0.85 0 0 1 222.6206055 136.2768555)" class="st3 st4">«FeatureType»</text>
<text transform="matrix(0.85 0 0 1 218.112793 147.5424805)" class="st7 st4">c</text>
<text transform="matrix(0.85 0 0 1 221.8701172 147.5424805)" class="st7 st4">o</text>
<text transform="matrix(0.85 0 0 1 227.1293945 147.5424805)" class="st7 st4">r</text>
<text transform="matrix(0.85 0 0 1 230.8813477 147.5424805)" class="st7 st4">e</text>
<text transform="matrix(0.85 0 0 1 235.3964844 147.5424805)" class="st7 st4">::</text>
<text transform="matrix(0.85 0 0 1 241.3925781 147.5424805)" class="st7 st4">_</text>
<text transform="matrix(0.85 0 0 1 245.90625 147.5424805)" class="st7 st4">C</text>
<text transform="matrix(0.85 0 0 1 251.1577148 147.5424805)" class="st7 st4">i</text>
<text transform="matrix(0.85 0 0 1 253.4204102 147.5424805)" class="st7 st4">t</text>
<text transform="matrix(0.85 0 0 1 257.168457 147.5424805)" class="st7 st4">y</text>
<text transform="matrix(0.85 0 0 1 261.684082 147.5424805)" class="st7 st4">O</text>
<text transform="matrix(0.85 0 0 1 268.4389648 147.5424805)" class="st7 st4">b</text>
<text transform="matrix(0.85 0 0 1 273.6933594 147.5424805)" class="st7 st4">j</text>
<text transform="matrix(0.85 0 0 1 275.9536133 147.5424805)" class="st7 st4">e</text>
<text transform="matrix(0.85 0 0 1 280.4692383 147.5424805)" class="st7 st4">c</text>
<text transform="matrix(0.85 0 0 1 284.2265625 147.5424805)" class="st7 st4">t</text>
<line class="st2" x1="127.9345551" y1="153.5433655" x2="377.4247437" y2="153.5433655"/>
<text transform="matrix(0.85 0 0 1 131.690918 165.5581055)" class="st3 st4">+ </text>
<text transform="matrix(0.85 0 0 1 147.472168 165.5581055)" class="st3 st4">creationDate: xs::date [0..1]</text>
<text transform="matrix(0.85 0 0 1 131.690918 176.815918)" class="st3 st4">+ </text>
<text transform="matrix(0.85 0 0 1 147.472168 176.815918)" class="st3 st4">relativeToTerrain: core::RelativeToTerrainType [0..1]</text>
<text transform="matrix(0.85 0 0 1 131.690918 188.0737305)" class="st3 st4">+ </text>
<text transform="matrix(0.85 0 0 1 147.472168 188.0737305)" class="st3 st4">relativeToWater: core::RelativeToWaterType [0..1]</text>
<text transform="matrix(0.85 0 0 1 131.690918 199.331543)" class="st3 st4">+ </text>
<text transform="matrix(0.85 0 0 1 147.472168 199.331543)" class="st3 st4">terminationDate: xs::date [0..1]</text>
<path class="st0" d="M248.546524,387.7481384c1.0375671,0,1.8786774,0.8401489,1.8786774,1.8766479h0.0000153v48.7926331
	l-0.0000153,0.0000305c0,1.036438-0.8411102,1.8766479-1.8786926,1.8766174c0,0.0000305,0,0,0,0h0.0000153H49.4052658v0.0000305
	c-1.037571-0.0000305-1.8786926-0.84021-1.8786926-1.8766785h0.0000038v-48.7926331
	c0-1.036499,0.8411179-1.876709,1.8786888-1.8766479v-0.000061H248.546524V387.7481384L248.546524,387.7481384z"/>
<path class="st6" d="M246.292099,385.4961853c1.0375671,0,1.8786621,0.8401489,1.8786621,1.8766479h0.0000305v48.7926025
	l-0.0000305,0.000061c0,1.0364075-0.841095,1.8766479-1.8786926,1.8765869c0,0.000061,0,0,0,0h0.0000305H47.1508369v0.000061
	c-1.037571-0.000061-1.8786926-0.8402405-1.8786926-1.876709h0.0000038v-48.7926025
	c0-1.036499,0.8411179-1.876709,1.8786888-1.8766479v-0.000061H246.292099V385.4961853L246.292099,385.4961853z"/>
<path class="st2" d="M246.292099,385.4961853c1.0375671,0,1.8786621,0.8401489,1.8786621,1.8766479h0.0000305v48.7926025
	l-0.0000305,0.000061c0,1.0364075-0.841095,1.8766479-1.8786926,1.8765869c0,0.000061,0,0,0,0h0.0000305H47.1508369v0.000061
	c-1.037571-0.000061-1.8786926-0.8402405-1.8786926-1.876709h0.0000038v-48.7926025
	c0-1.036499,0.8411179-1.876709,1.8786888-1.8766479v-0.000061H246.292099V385.4961853L246.292099,385.4961853z"/>
<text transform="matrix(0.85 0 0 1 116.659668 399.0112305)" class="st3 st4">«FeatureType»</text>
<text transform="matrix(0.85 0 0 1 106.8862305 410.269043)" class="st5 st4">dem::ReliefFeature</text>
<line class="st2" x1="45.2721481" y1="416.2730713" x2="248.1707916" y2="416.2730713"/>
<text transform="matrix(0.85 0 0 1 49.0268555 428.2924805)" class="st3 st4">+ </text>
<text transform="matrix(0.85 0 0 1 64.8081055 428.2924805)" class="st3 st4">lod: core::integerBetween0and4 = 1</text>
<path class="st0" d="M548.3856201,297.6694031c1.0375366,0,1.8786621,0.8401489,1.8786621,1.8766479h0.000061v48.7926025h-0.000061
	c0,1.036499-0.8411255,1.876709-1.8786621,1.8766479c0,0.000061,0,0,0,0l0,0H349.9958496l-0.0000305,0.000061
	c-1.0375671-0.000061-1.8786926-0.84021-1.8786926-1.876709h0.0000305V299.546051c0-1.036499,0.841095-1.876709,1.8786926-1.8766479
	v-0.000061h198.3897705V297.6694031L548.3856201,297.6694031z"/>
<path class="st6" d="M546.1312256,295.4173889c1.0375366,0,1.8786011,0.84021,1.8786011,1.876709l0.000061-0.000061v48.7926636
	h-0.000061c0,1.036499-0.8410645,1.876709-1.8786621,1.8766479c0,0.000061,0,0,0,0h0.000061h-198.389801l-0.0000305,0.000061
	c-1.0375671-0.000061-1.8786926-0.84021-1.8786926-1.876709h0.0000305v-48.7926636
	c0-1.036438,0.841095-1.8766479,1.8786926-1.8766479l0,0H546.1312256L546.1312256,295.4173889L546.1312256,295.4173889z"/>
<path class="st2" d="M546.1312256,295.4173889c1.0375366,0,1.8786011,0.84021,1.8786011,1.876709l0.000061-0.000061v48.7926636
	h-0.000061c0,1.036499-0.8410645,1.876709-1.8786621,1.8766479c0,0.000061,0,0,0,0h0.000061h-198.389801l-0.0000305,0.000061
	c-1.0375671-0.000061-1.8786926-0.84021-1.8786926-1.876709h0.0000305v-48.7926636
	c0-1.036438,0.841095-1.8766479,1.8786926-1.8766479l0,0H546.1312256L546.1312256,295.4173889L546.1312256,295.4173889z"/>
<text transform="matrix(0.85 0 0 1 417.2539062 308.9331055)" class="st3 st4">«FeatureType»</text>
<text transform="matrix(0.85 0 0 1 398.4648438 320.190918)" class="st7 st4">d</text>
<text transform="matrix(0.85 0 0 1 403.71875 320.190918)" class="st7 st4">e</text>
<text transform="matrix(0.85 0 0 1 408.234375 320.190918)" class="st7 st4">m</text>
<text transform="matrix(0.85 0 0 1 415.753418 320.190918)" class="st7 st4">::</text>
<text transform="matrix(0.85 0 0 1 421.7495117 320.190918)" class="st7 st4">_</text>
<text transform="matrix(0.85 0 0 1 426.2631836 320.190918)" class="st7 st4">R</text>
<text transform="matrix(0.85 0 0 1 431.5288086 320.190918)" class="st7 st4">e</text>
<text transform="matrix(0.85 0 0 1 436.0444336 320.190918)" class="st7 st4">li</text>
<text transform="matrix(0.85 0 0 1 440.5693359 320.190918)" class="st7 st4">e</text>
<text transform="matrix(0.85 0 0 1 445.0849609 320.190918)" class="st7 st4">f</text>
<text transform="matrix(0.85 0 0 1 448.0976562 320.190918)" class="st7 st4">C</text>
<text transform="matrix(0.85 0 0 1 453.3491211 320.190918)" class="st7 st4">o</text>
<text transform="matrix(0.85 0 0 1 458.6079102 320.190918)" class="st7 st4">m</text>
<text transform="matrix(0.85 0 0 1 466.1279297 320.190918)" class="st7 st4">p</text>
<text transform="matrix(0.85 0 0 1 471.3813477 320.190918)" class="st7 st4">on</text>
<text transform="matrix(0.85 0 0 1 481.9003906 320.190918)" class="st7 st4">e</text>
<text transform="matrix(0.85 0 0 1 486.4155273 320.190918)" class="st7 st4">n</text>
<text transform="matrix(0.85 0 0 1 491.6743164 320.190918)" class="st7 st4">t</text>
<line class="st2" x1="345.8627319" y1="326.1943054" x2="548.0098877" y2="326.1943054"/>
<text transform="matrix(0.85 0 0 1 349.6210938 338.2143555)" class="st3 st4">+ </text>
<text transform="matrix(0.85 0 0 1 365.4023438 338.2143555)" class="st3 st4">lod: core::integerBetween0and4 = 1</text>
<path class="st0" d="M721.9766846,297.6694031c1.0375366,0,1.8786621,0.8401489,1.8786621,1.8766479h0.000061v48.0419922h-0.000061
	c0,1.036438-0.8411255,1.8766479-1.8786621,1.8765869c0,0.000061,0,0,0,0l0,0h-78.9050293v0.000061
	c-1.0375977-0.000061-1.8787231-0.84021-1.8787231-1.8766479h0.000061V299.546051
	c0-1.036499,0.8410645-1.876709,1.8786621-1.8766479v-0.000061h78.9050293V297.6694031L721.9766846,297.6694031z"/>
<path class="st1" d="M719.72229,295.4173889c1.0375366,0,1.8786011,0.84021,1.8786011,1.876709l0.000061-0.000061v48.0420532
	h-0.000061c0,1.036377-0.8410645,1.8765869-1.8786621,1.8765869l0,0h0.000061h-78.9050293h-0.000061
	c-1.0375366,0-1.8787231-0.84021-1.8787231-1.8765869h0.000061v-48.0420532c0-1.036438,0.8411255-1.8766479,1.8787231-1.8766479l0,0
	H719.72229L719.72229,295.4173889L719.72229,295.4173889z"/>
<path class="st2" d="M719.72229,295.4173889c1.0375366,0,1.8786011,0.84021,1.8786011,1.876709l0.000061-0.000061v48.0420532
	h-0.000061c0,1.036377-0.8410645,1.8765869-1.8786621,1.8765869l0,0h0.000061h-78.9050293h-0.000061
	c-1.0375366,0-1.8787231-0.84021-1.8787231-1.8765869h0.000061v-48.0420532c0-1.036438,0.8411255-1.8766479,1.8787231-1.8766479l0,0
	H719.72229L719.72229,295.4173889L719.72229,295.4173889z"/>
<text transform="matrix(0.85 0 0 1 665.9960938 308.9331055)" class="st3 st4">«Type»</text>
<text transform="matrix(0.85 0 0 1 653.9648438 320.190918)" class="st5 st4">gml::Polygon</text>
<path class="st0" d="M398.090332,417.7744141c1.0375671,0,1.8786926,0.8401794,1.8786926,1.8766479v-0.000061v33.0288696v0.000061
	c0,1.0364075-0.8411255,1.8766479-1.8786926,1.8765869c0,0.000061,0,0,0,0l0,0h-93.183075l-0.0000305,0.000061
	c-1.0375671-0.000061-1.8786621-0.8402405-1.8786621-1.876709l0,0V419.651001c0-1.0364075,0.841095-1.8766174,1.8786926-1.8765869
	v-0.0000305h93.183075V417.7744141L398.090332,417.7744141z"/>
<path class="st6" d="M395.835907,415.5224609c1.0375671,0,1.8786621,0.8401794,1.8786621,1.8766174l0.0000305-0.0000305v33.0288696
	l-0.0000305,0.0000305c0,1.036438-0.841095,1.8766479-1.8786621,1.8766174c0,0.0000305,0,0,0,0l0,0h-93.183075l-0.0000305,0.0000305
	c-1.0375671-0.0000305-1.8786926-0.84021-1.8786926-1.8766785h0.0000305v-33.0288696
	c0-1.0364075,0.841095-1.8766479,1.8786926-1.8765869v-0.000061h93.183075V415.5224609L395.835907,415.5224609z"/>
<path class="st2" d="M395.835907,415.5224609c1.0375671,0,1.8786621,0.8401794,1.8786621,1.8766174l0.0000305-0.0000305v33.0288696
	l-0.0000305,0.0000305c0,1.036438-0.841095,1.8766479-1.8786621,1.8766174c0,0.0000305,0,0,0,0l0,0h-93.183075l-0.0000305,0.0000305
	c-1.0375671-0.0000305-1.8786926-0.84021-1.8786926-1.8766785h0.0000305v-33.0288696
	c0-1.0364075,0.841095-1.8766479,1.8786926-1.8765869v-0.000061h93.183075V415.5224609L395.835907,415.5224609z"/>
<text transform="matrix(0.85 0 0 1 319.5585938 429.0424805)" class="st3 st4">«FeatureType»</text>
<text transform="matrix(0.85 0 0 1 318.8085938 440.300293)" class="st5 st4">dem::TINRelief</text>
<path class="st0" d="M413.119873,492.8400269c1.0375671,0,1.8786621,0.8401794,1.8786621,1.8766479l0.0000305-0.0000305v40.5354309
	l-0.0000305,0.000061c0,1.036438-0.841095,1.8766479-1.8786926,1.8765869c0,0.000061,0,0,0,0h0.0000305h-130.756897
	l-0.0000305,0.000061c-1.0375671-0.000061-1.8786926-0.84021-1.8786926-1.876709h0.0000305v-40.5354309
	c0-1.036438,0.841095-1.8766479,1.8786926-1.8766174v-0.0000305h130.756897V492.8400269L413.119873,492.8400269z"/>
<path class="st1" d="M410.865448,490.5880737c1.0375671,0,1.8786621,0.8401794,1.8786621,1.8766479l0.0000305-0.000061v40.5354614
	l-0.0000305,0.000061c0,1.036377-0.841095,1.8766479-1.8786926,1.8765869c0,0.000061,0,0,0,0h0.0000305H280.1085205v0.000061
	c-1.0375671-0.000061-1.8786926-0.840271-1.8786926-1.876709h0.0000305v-40.5354614
	c0-1.0364075,0.841095-1.8766479,1.8786621-1.8765869v-0.000061H410.865448V490.5880737L410.865448,490.5880737z"/>
<path class="st2" d="M410.865448,490.5880737c1.0375671,0,1.8786621,0.8401794,1.8786621,1.8766479l0.0000305-0.000061v40.5354614
	l-0.0000305,0.000061c0,1.036377-0.841095,1.8766479-1.8786926,1.8765869c0,0.000061,0,0,0,0h0.0000305H280.1085205v0.000061
	c-1.0375671-0.000061-1.8786926-0.840271-1.8786926-1.876709h0.0000305v-40.5354614
	c0-1.0364075,0.841095-1.8766479,1.8786621-1.8765869v-0.000061H410.865448V490.5880737L410.865448,490.5880737z"/>
<text transform="matrix(0.85 0 0 1 330.8320312 504.097168)" class="st3 st4">«Type»</text>
<text transform="matrix(0.85 0 0 1 294.7617188 515.3549805)" class="st5 st4">gml::TriangulatedSurface</text>
<path class="st0" d="M448.43927,567.9057007c1.0375366,0,1.8786316,0.8401489,1.8786316,1.8766479l0.000061-0.000061v87.0761108
	l-0.000061,0.000061c0,1.036377-0.841095,1.8766479-1.8786926,1.8765869c0,0.000061,0,0,0,0h0.000061H252.3039093
	l-0.0000153,0.000061c-1.0375824-0.000061-1.8786926-0.840271-1.8786926-1.876709h0.0000153v-87.0761108
	c0-1.036438,0.841095-1.8766479,1.8786926-1.8765869v-0.000061H448.43927V567.9057007L448.43927,567.9057007z"/>
<path class="st1" d="M446.184845,565.6536865c1.0375366,0,1.8786316,0.84021,1.8786316,1.8766479h0.000061v87.0761108h-0.000061
	c0,1.036438-0.841095,1.8766479-1.8786926,1.8766479l0,0h0.000061H250.0494843h-0.0000305
	c-1.0375671,0-1.8786926-0.84021-1.8786926-1.8766479h0.0000305v-87.0761108c0-1.036438,0.841095-1.8766479,1.8786926-1.8766479l0,0
	H446.184845L446.184845,565.6536865L446.184845,565.6536865z"/>
<path class="st2" d="M446.184845,565.6536865c1.0375366,0,1.8786316,0.84021,1.8786316,1.8766479h0.000061v87.0761108h-0.000061
	c0,1.036438-0.841095,1.8766479-1.8786926,1.8766479l0,0h0.000061H250.0494843h-0.0000305
	c-1.0375671,0-1.8786926-0.84021-1.8786926-1.8766479h0.0000305v-87.0761108c0-1.036438,0.841095-1.8766479,1.8786926-1.8766479l0,0
	H446.184845L446.184845,565.6536865L446.184845,565.6536865z"/>
<text transform="matrix(0.85 0 0 1 333.8398438 579.1669922)" class="st3 st4">«Type»</text>
<text transform="matrix(0.85 0 0 1 331.5820312 590.4248047)" class="st5 st4">gml::Tin</text>
<line class="st2" x1="248.1707916" y1="596.430603" x2="448.0635376" y2="596.430603"/>
<text transform="matrix(0.85 0 0 1 251.925293 608.4482422)" class="st3 st4">+ </text>
<text transform="matrix(0.85 0 0 1 267.7070312 608.4482422)" class="st3 st4">breakLines: gml::LineStringSegment [0..*]</text>
<text transform="matrix(0.85 0 0 1 251.925293 619.7060547)" class="st3 st4">+ </text>
<text transform="matrix(0.85 0 0 1 267.7070312 619.7060547)" class="st3 st4">controlPoint: gml::posList</text>
<text transform="matrix(0.85 0 0 1 251.925293 630.9638672)" class="st3 st4">+ </text>
<text transform="matrix(0.85 0 0 1 267.7070312 630.9638672)" class="st3 st4">maxLength: gml::LengthType</text>
<text transform="matrix(0.85 0 0 1 251.925293 642.2216797)" class="st3 st4">+ </text>
<text transform="matrix(0.85 0 0 1 267.7070312 642.2216797)" class="st3 st4">stopLines: gml::LineStringSegment [0..*]</text>
<path class="st0" d="M337.972229,12.4200134c1.0375671,0,1.8786621,0.84021,1.8786621,1.8766479h0.0000305v74.3149414
	l-0.0000305,0.000061c0,1.036438-0.841095,1.8766479-1.8786926,1.8765869c0,0.000061,0,0,0,0h0.0000305H147.0971985v0.000061
	c-1.0375671-0.000061-1.8786926-0.84021-1.8786926-1.876709l0,0V14.2966614l0,0c0-1.036438,0.8411255-1.8766479,1.8786926-1.8766479
	l0,0H337.972229L337.972229,12.4200134L337.972229,12.4200134z"/>
<path class="st1" d="M335.717804,10.1680603c1.0375671,0,1.8786621,0.84021,1.8786621,1.8766479h0.0000305v74.3149414h-0.0000305
	c0,1.036438-0.841095,1.8766479-1.8786926,1.8766479l0,0h0.0000305H144.8427734l0,0
	c-1.0375671,0-1.8786926-0.84021-1.8786926-1.8766479l0,0V12.0447083l0,0c0-1.036438,0.8411255-1.8766479,1.8786926-1.8766479l0,0
	H335.717804L335.717804,10.1680603L335.717804,10.1680603z"/>
<path class="st2" d="M335.717804,10.1680603c1.0375671,0,1.8786621,0.84021,1.8786621,1.8766479h0.0000305v74.3149414h-0.0000305
	c0,1.036438-0.841095,1.8766479-1.8786926,1.8766479l0,0h0.0000305H144.8427734l0,0
	c-1.0375671,0-1.8786926-0.84021-1.8786926-1.8766479l0,0V12.0447083l0,0c0-1.036438,0.8411255-1.8766479,1.8786926-1.8766479l0,0
	H335.717804L335.717804,10.1680603L335.717804,10.1680603z"/>
<text transform="matrix(0.85 0 0 1 210.597168 23.6826172)" class="st3 st4">«FeatureType»</text>
<text transform="matrix(0.85 0 0 1 212.097168 34.9404297)" class="st7 st4">g</text>
<text transform="matrix(0.85 0 0 1 217.3515625 34.9404297)" class="st7 st4">m</text>
<text transform="matrix(0.85 0 0 1 224.8706055 34.9404297)" class="st7 st4">l</text>
<text transform="matrix(0.85 0 0 1 227.1333008 34.9404297)" class="st7 st4">::</text>
<text transform="matrix(0.85 0 0 1 233.1293945 34.9404297)" class="st7 st4">_</text>
<text transform="matrix(0.85 0 0 1 237.6430664 34.9404297)" class="st7 st4">F</text>
<text transform="matrix(0.85 0 0 1 242.1464844 34.9404297)" class="st7 st4">e</text>
<text transform="matrix(0.85 0 0 1 246.6621094 34.9404297)" class="st7 st4">a</text>
<text transform="matrix(0.85 0 0 1 251.9160156 34.9404297)" class="st7 st4">t</text>
<text transform="matrix(0.85 0 0 1 255.6645508 34.9404297)" class="st7 st4">u</text>
<text transform="matrix(0.85 0 0 1 260.9238281 34.9404297)" class="st7 st4">r</text>
<text transform="matrix(0.85 0 0 1 264.675293 34.9404297)" class="st7 st4">e</text>
<line class="st2" x1="142.9640808" y1="40.9449768" x2="337.5964966" y2="40.9449768"/>
<text transform="matrix(0.85 0 0 1 146.722168 52.9560547)" class="st3 st4">+ </text>
<text transform="matrix(0.85 0 0 1 162.503418 52.9560547)" class="st3 st4">boundedBy: gml::Envelope [0..1]</text>
<text transform="matrix(0.85 0 0 1 146.722168 64.2143555)" class="st3 st4">+ </text>
<text transform="matrix(0.85 0 0 1 162.503418 64.2143555)" class="st3 st4">description: gml::StringOrRefType [0..1]</text>
<text transform="matrix(0.85 0 0 1 146.722168 75.4799805)" class="st3 st4">+ </text>
<text transform="matrix(0.85 0 0 1 162.503418 75.4799805)" class="st3 st4">name: gml::CodeType [0..1]</text>
<path class="st0" d="M555.9003906,417.7744141c1.0375366,0,1.8786621,0.8401794,1.8786621,1.8766479l0.000061-0.000061v33.0288696
	l-0.000061,0.000061c0,1.0364075-0.8411255,1.8766479-1.8787231,1.8765869c0,0.000061,0,0,0,0h0.000061H448.43927
	l-0.000061,0.000061c-1.0375366-0.000061-1.8786926-0.8402405-1.8786926-1.876709h0.000061V419.651001
	c0-1.0364075,0.841095-1.8766174,1.8786926-1.8765869v-0.0000305h107.4611206V417.7744141L555.9003906,417.7744141z"/>
<path class="st6" d="M553.6459961,415.5224609c1.0375366,0,1.8786011,0.8401794,1.8786011,1.8766174l0.000061-0.0000305v33.0288696
	l-0.000061,0.0000305c0,1.036438-0.8410645,1.8766479-1.8786621,1.8766174c0,0.0000305,0,0,0,0h0.000061H446.184845
	l-0.000061,0.0000305c-1.0375366-0.0000305-1.8786926-0.84021-1.8786926-1.8766785h0.000061v-33.0288696
	c0-1.0364075,0.841095-1.8766479,1.8786926-1.8765869v-0.000061h107.4611511V415.5224609L553.6459961,415.5224609z"/>
<path class="st2" d="M553.6459961,415.5224609c1.0375366,0,1.8786011,0.8401794,1.8786011,1.8766174l0.000061-0.0000305v33.0288696
	l-0.000061,0.0000305c0,1.036438-0.8410645,1.8766479-1.8786621,1.8766174c0,0.0000305,0,0,0,0h0.000061H446.184845
	l-0.000061,0.0000305c-1.0375366-0.0000305-1.8786926-0.84021-1.8786926-1.8766785h0.000061v-33.0288696
	c0-1.0364075,0.841095-1.8766479,1.8786926-1.8765869v-0.000061h107.4611511V415.5224609L553.6459961,415.5224609z"/>
<text transform="matrix(0.85 0 0 1 469.8554688 429.0424805)" class="st3 st4">«FeatureType»</text>
<text transform="matrix(0.85 0 0 1 454.8242188 440.300293)" class="st5 st4">dem::MassPointRelief</text>
<path class="st0" d="M572.4328613,492.8400269c1.0375977,0,1.8786621,0.8401794,1.8786621,1.8766479l0.000061-0.0000305v40.5354309
	l-0.000061,0.000061c0,1.036438-0.8410645,1.8766479-1.8786621,1.8765869c0,0.000061,0,0,0,0l0,0H440.9244995l-0.0000305,0.000061
	c-1.0375671-0.000061-1.8786926-0.84021-1.8786926-1.876709h0.0000305v-40.5354309
	c0-1.036438,0.841095-1.8766479,1.8786926-1.8766174v-0.0000305h131.5083618V492.8400269L572.4328613,492.8400269z"/>
<path class="st1" d="M570.1784668,490.5880737c1.0375366,0,1.8786621,0.8401794,1.8786621,1.8766479v-0.000061v40.5354614v0.000061
	c0,1.036377-0.8411255,1.8766479-1.8787231,1.8765869c0,0.000061,0,0,0,0h0.000061H438.6700745l-0.000061,0.000061
	c-1.0375366-0.000061-1.8786621-0.840271-1.8786621-1.876709h0.0000305v-40.5354614
	c0-1.0364075,0.841095-1.8766479,1.8786926-1.8765869v-0.000061h131.5083923V490.5880737L570.1784668,490.5880737z"/>
<path class="st2" d="M570.1784668,490.5880737c1.0375366,0,1.8786621,0.8401794,1.8786621,1.8766479v-0.000061v40.5354614v0.000061
	c0,1.036377-0.8411255,1.8766479-1.8787231,1.8765869c0,0.000061,0,0,0,0h0.000061H438.6700745l-0.000061,0.000061
	c-1.0375366-0.000061-1.8786621-0.840271-1.8786621-1.876709h0.0000305v-40.5354614
	c0-1.0364075,0.841095-1.8766479,1.8786926-1.8765869v-0.000061h131.5083923V490.5880737L570.1784668,490.5880737z"/>
<text transform="matrix(0.85 0 0 1 490.1445312 504.097168)" class="st3 st4">«Type»</text>
<text transform="matrix(0.85 0 0 1 472.1132812 515.3549805)" class="st5 st4">gml::MultiPoint</text>
<path class="st8" d="M723.1039429,100.997467c1.2449951,0,2.2543335,1.0082397,2.2543335,2.2519531h0.000061v84.8241577h-0.000061
	c0,1.2437134-1.0093384,2.2520142-2.2543945,2.2519531c0,0.000061,0,0,0,0h0.000061H588.5895996v0.000061
	c-1.2450562-0.000061-2.2544556-1.0083008-2.2543945-2.2520142v-84.8241577c0-1.2437134,1.0093384-2.2519531,2.2543945-2.2519531
	l0,0H723.1039429L723.1039429,100.997467L723.1039429,100.997467z"/>
<path class="st9" d="M723.1039429,100.997467c1.2449951,0,2.2543335,1.0082397,2.2543335,2.2519531h0.000061v84.8241577h-0.000061
	c0,1.2437134-1.0093384,2.2520142-2.2543945,2.2519531c0,0.000061,0,0,0,0h0.000061H588.5895996v0.000061
	c-1.2450562-0.000061-2.2544556-1.0083008-2.2543945-2.2520142v-84.8241577c0-1.2437134,1.0093384-2.2519531,2.2543945-2.2519531
	l0,0H723.1039429L723.1039429,100.997467L723.1039429,100.997467z"/>
<path class="st1" d="M603.994873,123.5171814c1.0375977,0,1.8786621,0.8401489,1.8786621,1.8766479l0.000061-0.000061v8.2572632
	h-0.000061c0,1.036438-0.8410645,1.8766479-1.8786621,1.8765869c0,0.000061,0,0,0,0l0,0h-8.2662354v0.000061
	c-1.0375977-0.000061-1.8787231-0.84021-1.8787231-1.8766479h0.000061v-8.2572632
	c0-1.036438,0.8410645-1.8766479,1.8786621-1.8765869v-0.000061h8.2662354V123.5171814L603.994873,123.5171814z"/>
<path class="st10" d="M603.994873,123.5171814c1.0375977,0,1.8786621,0.8401489,1.8786621,1.8766479l0.000061-0.000061v8.2572632
	h-0.000061c0,1.036438-0.8410645,1.8766479-1.8786621,1.8765869c0,0.000061,0,0,0,0l0,0h-8.2662354v0.000061
	c-1.0375977-0.000061-1.8787231-0.84021-1.8787231-1.8766479h0.000061v-8.2572632
	c0-1.036438,0.8410645-1.8766479,1.8786621-1.8765869v-0.000061h8.2662354V123.5171814L603.994873,123.5171814z"/>
<text transform="matrix(0.85 0 0 1 610.3789062 133.9018555)" class="st11"><tspan x="0" y="0" class="st12 st3 st4">GML</tspan><tspan x="18.6023655" y="0" class="st12 st13 st4">に定義されたクラス</tspan></text>
<path class="st6" d="M603.994873,137.7796326c1.0375977,0,1.8786621,0.8401489,1.8786621,1.8766479h0.000061v8.2572021h-0.000061
	c0,1.036438-0.8410645,1.8766479-1.8786621,1.8766479l0,0l0,0h-8.2662354l0,0c-1.0375977,0-1.8787231-0.84021-1.8787231-1.8766479
	h0.000061v-8.2572021c0-1.036499,0.8410645-1.8766479,1.8786621-1.8766479l0,0H603.994873L603.994873,137.7796326
	L603.994873,137.7796326z"/>
<path class="st10" d="M603.994873,137.7796326c1.0375977,0,1.8786621,0.8401489,1.8786621,1.8766479h0.000061v8.2572021h-0.000061
	c0,1.036438-0.8410645,1.8766479-1.8786621,1.8766479l0,0l0,0h-8.2662354l0,0c-1.0375977,0-1.8787231-0.84021-1.8787231-1.8766479
	h0.000061v-8.2572021c0-1.036499,0.8410645-1.8766479,1.8786621-1.8766479l0,0H603.994873L603.994873,137.7796326
	L603.994873,137.7796326z"/>
<text transform="matrix(0.85 0 0 1 610.3789062 148.1674805)" class="st11"><tspan x="0" y="0" class="st12 st3 st4">CityGML</tspan><tspan x="33.7304688" y="0" class="st12 st13 st4">に定義されたクラス</tspan></text>
<path class="st14" d="M603.994873,152.0420837c1.0375977,0,1.8786621,0.84021,1.8786621,1.8766479h0.000061v8.2572021h-0.000061
	c0,1.036438-0.8410645,1.8766479-1.8786621,1.8766479l0,0l0,0h-8.2662354l0,0c-1.0375977,0-1.8787231-0.84021-1.8787231-1.8766479
	h0.000061v-8.2572021c0-1.036438,0.8410645-1.8766479,1.8786621-1.8766479l0,0H603.994873L603.994873,152.0420837
	L603.994873,152.0420837z"/>
<path class="st10" d="M603.994873,152.0420837c1.0375977,0,1.8786621,0.84021,1.8786621,1.8766479h0.000061v8.2572021h-0.000061
	c0,1.036438-0.8410645,1.8766479-1.8786621,1.8766479l0,0l0,0h-8.2662354l0,0c-1.0375977,0-1.8787231-0.84021-1.8787231-1.8766479
	h0.000061v-8.2572021c0-1.036438,0.8410645-1.8766479,1.8786621-1.8766479l0,0H603.994873L603.994873,152.0420837
	L603.994873,152.0420837z"/>
<text transform="matrix(0.85 0 0 1 610.3789062 162.4331055)" class="st11"><tspan x="0" y="0" class="st12 st3 st4">i-UR</tspan><tspan x="16.7865353" y="0" class="st12 st13 st4">に定義されたクラス</tspan></text>
<text transform="matrix(0.85 0 0 1 642.6992188 119.2548828)" class="st12 st15 st16 st17">凡例</text>
<line class="st18" x1="502.9213257" y1="453.8058777" x2="502.9213257" y2="489.8373718"/>
<path class="st18" d="M502.9213257,489.8373718l-4.5088806-11.2598572 M502.9213257,489.8373718l4.5088501-11.2598572"/>
<line class="st18" x1="499.1639404" y1="414.771759" x2="499.1639404" y2="386.2467957"/>
<line class="st18" x1="447.3120422" y1="386.2467957" x2="447.3120422" y2="349.4646301"/>
<polyline class="st19" points="451.8209229,361.4751282 442.8031921,361.4751282 447.3120422,349.4646301 451.8209229,361.4751282 
	"/>
<polygon class="st18" points="451.8209229,361.4751282 442.8031921,361.4751282 447.3120422,349.4646301 "/>
<line class="st18" x1="248.9222717" y1="122.0158386" x2="248.9222717" y2="89.7376404"/>
<polyline class="st19" points="253.4311218,101.7481384 244.4134064,101.7481384 248.9222717,89.7376404 253.4311218,101.7481384 
	"/>
<polygon class="st18" points="253.4311218,101.7481384 244.4134064,101.7481384 248.9222717,89.7376404 "/>
<line class="st18" x1="124.9286499" y1="384.7455139" x2="124.9286499" y2="266.8924866"/>
<line class="st18" x1="124.9286499" y1="266.8924866" x2="252.6796417" y2="266.8924866"/>
<line class="st18" x1="252.6796417" y1="266.8924866" x2="252.6796417" y2="230.110321"/>
<polyline class="st19" points="257.1885071,242.1208191 248.1707916,242.1208191 252.6796417,230.110321 257.1885071,242.1208191 
	"/>
<polygon class="st18" points="257.1885071,242.1208191 248.1707916,242.1208191 252.6796417,230.110321 "/>
<line class="st18" x1="345.1112671" y1="330.6982727" x2="183.543808" y2="330.6982727"/>
<line class="st18" x1="183.543808" y1="330.6982727" x2="183.543808" y2="384.7455139"/>
<polyline class="st19" points="179.786438,377.2389221 183.543808,384.7455139 187.3011932,377.2389221 183.543808,369.7323303 
	179.786438,377.2389221 "/>
<polygon class="st18" points="183.543808,369.7323303 187.3011932,377.2389221 183.543808,384.7455139 179.786438,377.2389221 "/>
<path class="st18" d="M345.1112671,330.6982727l-11.2721558-4.5039673 M345.1112671,330.6982727l-11.2721558,4.5039062"/>
<line class="st18" x1="446.5605774" y1="294.6667786" x2="446.5605774" y2="266.8924866"/>
<line class="st18" x1="446.5605774" y1="266.8924866" x2="252.6796417" y2="266.8924866"/>
<line class="st18" x1="638.1870728" y1="311.9318542" x2="549.5128784" y2="311.9318542"/>
<polyline class="st19" points="557.0275879,308.1785583 549.5128784,311.9318542 557.0275879,315.6850891 564.5423584,311.9318542 
	557.0275879,308.1785583 "/>
<polygon class="st18" points="564.5423584,311.9318542 557.0275879,315.6850891 549.5128784,311.9318542 557.0275879,308.1785583 
	"/>
<path class="st18" d="M638.1870728,311.9318542l-11.2721558-4.5039673 M638.1870728,311.9318542l-11.2721558,4.5039673"/>
<line class="st18" x1="349.6201172" y1="414.771759" x2="349.6201172" y2="386.2467957"/>
<line class="st18" x1="349.6201172" y1="386.2467957" x2="447.3120422" y2="386.2467957"/>
<line class="st18" x1="348.8686218" y1="453.8058777" x2="348.8686218" y2="489.8373718"/>
<path class="st18" d="M348.8686218,489.8373718l-4.5088501-11.2598572 M348.8686218,489.8373718l4.5088806-11.2598572"/>
<line class="st18" x1="348.117157" y1="564.9030151" x2="348.117157" y2="536.3780518"/>
<polyline class="st19" points="352.6260071,548.3885498 343.6083069,548.3885498 348.117157,536.3780518 352.6260071,548.3885498 
	"/>
<polygon class="st18" points="348.117157,536.3780518 343.6083069,548.3885498 352.6260071,548.3885498 "/>
<line class="st18" x1="668.9976196" y1="469.5696411" x2="668.9976196" y2="489.8373718"/>
<path class="st18" d="M668.9976196,489.8373718l-4.5088501-11.2598572 M668.9976196,489.8373718l4.5088501-11.2598572"/>
<line class="st18" x1="646.4533081" y1="414.771759" x2="646.4533081" y2="386.2467957"/>
<line class="st18" x1="646.4533081" y1="386.2467957" x2="447.3120422" y2="386.2467957"/>
<line class="st18" x1="629.1693726" y1="469.5696411" x2="629.1693726" y2="489.8373718"/>
<path class="st18" d="M629.1693726,489.8373718l-4.5088501-11.2598572 M629.1693726,489.8373718l4.5088501-11.2598572"/>
<text transform="matrix(0.85 0 0 1 599.1049805 297.6674805)" class="st20 st21">+extent</text>
<text transform="matrix(0.85 0 0 1 606.628418 325.4331055)" class="st20 st21">0..1</text>
<text transform="matrix(0.85 0 0 1 675.0112305 479.3237305)" class="st20 st21">+breaklines</text>
<text transform="matrix(0.85 0 0 1 684.0268555 487.5893555)" class="st20 st21">0..1</text>
<text transform="matrix(0.85 0 0 1 446.5581055 483.081543)" class="st20 st21">+reliefPoints</text>
<text transform="matrix(0.85 0 0 1 519.456543 480.0737305)" class="st20 st21">1</text>
<text transform="matrix(0.85 0 0 1 248.1674805 318.690918)" class="st20 st21">+reliefComponent</text>
<text transform="matrix(0.85 0 0 1 291.753418 341.9643555)" class="st20 st21">1..*</text>
<text transform="matrix(0.85 0 0 1 545.003418 480.0737305)" class="st20 st21">+ridgeOrValleyLines</text>
<text transform="matrix(0.85 0 0 1 635.1831055 483.081543)" class="st20 st21">0..1</text>
<text transform="matrix(0.85 0 0 1 313.550293 480.8237305)" class="st20 st21">+tin</text>
<text transform="matrix(0.85 0 0 1 354.878418 483.081543)" class="st20 st21">1</text>
</svg>
