<?xml version="1.0" encoding="utf-8"?>
<!-- Generator: Adobe Illustrator 27.4.1, SVG Export Plug-In . SVG Version: 6.00 Build 0)  -->
<svg version="1.1" id="レイヤー_1" xmlns="http://www.w3.org/2000/svg" xmlns:xlink="http://www.w3.org/1999/xlink" x="0px"
	 y="0px" viewBox="0 0 1004.9 830.4" style="enable-background:new 0 0 1004.9 830.4;" xml:space="preserve">
<style type="text/css">
	.st0{fill-rule:evenodd;clip-rule:evenodd;fill:#CFD1D8;}
	.st1{fill-rule:evenodd;clip-rule:evenodd;fill:#FFCCFF;}
	.st2{fill:none;stroke:#000000;stroke-width:1.7322;stroke-linecap:round;stroke-linejoin:round;stroke-miterlimit:10;}
	.st3{font-family:'Calibri';}
	.st4{font-size:9.5276px;}
	.st5{font-family:'Calibri-Bold';}
	.st6{font-family:'Calibri-Italic';}
	.st7{font-family:'Calibri-BoldItalic';}
	.st8{fill-rule:evenodd;clip-rule:evenodd;fill:#F0F0F0;}
	.st9{fill:none;stroke:#D7D7D7;stroke-width:0.8662;stroke-linecap:square;stroke-miterlimit:10;}
	.st10{fill-rule:evenodd;clip-rule:evenodd;fill:#CCFFCC;}
	.st11{fill:none;stroke:#000000;stroke-width:0.8662;stroke-linecap:square;stroke-miterlimit:10;}
	.st12{fill:#003060;}
	.st13{font-family:'YuGothicUI-Regular';}
	.st14{font-size:10.3938px;}
	.st15{fill-rule:evenodd;clip-rule:evenodd;fill:#FFFFCC;}
	.st16{font-family:'MS-PGothic';}
	.st17{font-size:13.8582px;}
	.st18{fill:none;stroke:#003060;stroke-width:0.396;stroke-miterlimit:10;}
	.st19{fill:none;stroke:#000000;stroke-width:1.7322;stroke-linecap:round;stroke-linejoin:bevel;stroke-miterlimit:10;}
	.st20{fill-rule:evenodd;clip-rule:evenodd;}
	.st21{fill-rule:evenodd;clip-rule:evenodd;fill:#FFFFFF;}
</style>
<path class="st0" d="M698.2,532.6c1.2,0,2.2,1,2.2,2.2l0,0v220l0,0c0,1.2-1,2.2-2.2,2.2l0,0l0,0H508.1l0,0c-1.2,0-2.2-1-2.2-2.2l0,0
	v-220c0-1.2,1-2.2,2.2-2.2l0,0H698.2L698.2,532.6L698.2,532.6z"/>
<path class="st1" d="M695.6,530c1.2,0,2.2,1,2.2,2.2l0,0v220l0,0c0,1.2-1,2.2-2.2,2.2l0,0l0,0H505.5l0,0c-1.2,0-2.2-1-2.2-2.2l0,0
	v-220c0-1.2,1-2.2,2.2-2.2l0,0H695.6L695.6,530L695.6,530z"/>
<path class="st2" d="M695.6,530c1.2,0,2.2,1,2.2,2.2l0,0v220l0,0c0,1.2-1,2.2-2.2,2.2l0,0l0,0H505.5l0,0c-1.2,0-2.2-1-2.2-2.2l0,0
	v-220c0-1.2,1-2.2,2.2-2.2l0,0H695.6L695.6,530L695.6,530z"/>
<text transform="matrix(0.85 0 0 1 576.2393 543.8127)" class="st3 st4">«DataType»</text>
<text transform="matrix(0.85 0 0 1 -7689.4883 -7772.0518)" class="st5" style="font-size:4.7638px;">t</text>
<text transform="matrix(0.85 0 0 1 543.2549 555.0783)" class="st5 st4">uro::RiverFacilityIdAttribute</text>
<line class="st2" x1="503.3" y1="562" x2="697.8" y2="562"/>
<text transform="matrix(0.85 0 0 1 507.6611 574.1252)" class="st3 st4">+ riverCode: gml::CodeType</text>
<text transform="matrix(0.85 0 0 1 507.6611 585.3908)" class="st3 st4">+ riverName: xs::string [0..1]</text>
<text transform="matrix(0.85 0 0 1 507.6611 596.6721)" class="st3 st4">+ sideType: gml::CodeType</text>
<text transform="matrix(0.85 0 0 1 -7689.4883 -7772.0518)" class="st3" style="font-size:4.7638px;">P</text>
<text transform="matrix(0.85 0 0 1 507.6611 607.9221)" class="st3 st4">+ leftost: gml::LengthType [0..1]</text>
<text transform="matrix(0.85 0 0 1 -7689.4883 -7772.0518)" class="st3" style="font-size:4.7638px;">t</text>
<text transform="matrix(0.85 0 0 1 507.6611 619.1721)" class="st3 st4">+ lefDistance: gml::LengthType [0..1]</text>
<text transform="matrix(0.85 0 0 1 507.6611 630.4377)" class="st3 st4">+ rightPost: gml::LengthType [0..1]</text>
<text transform="matrix(0.85 0 0 1 507.6611 641.7033)" class="st3 st4">+ rightDistance: gml::LengthType [0..1]</text>
<text transform="matrix(0.85 0 0 1 -7689.4883 -7772.0518)" class="st3" style="font-size:4.7638px;">t</text>
<text transform="matrix(0.85 0 0 1 507.6611 652.9533)" class="st3 st4">+ lefStartPost: gml::LengthType [0..1]</text>
<text transform="matrix(0.85 0 0 1 -7689.4883 -7772.0518)" class="st3" style="font-size:4.7638px;">t</text>
<text transform="matrix(0.85 0 0 1 507.6611 664.2033)" class="st3 st4">+ lefStartDistance: gml::LengthType [0..1]</text>
<text transform="matrix(0.85 0 0 1 -7689.4883 -7772.0518)" class="st3" style="font-size:4.7638px;">t</text>
<text transform="matrix(0.85 0 0 1 507.6611 675.4689)" class="st3 st4">+ lefEndPost: gml::LengthType [0..1]</text>
<text transform="matrix(0.85 0 0 1 -7689.4883 -7772.0518)" class="st3" style="font-size:4.7638px;">t</text>
<text transform="matrix(0.85 0 0 1 507.6611 686.7346)" class="st3 st4">+ lefEndDistance: gml::LengthType [0..1]</text>
<text transform="matrix(0.85 0 0 1 507.6611 697.9846)" class="st3 st4">+ rightStartPost: gml::LengthType [0..1]</text>
<text transform="matrix(0.85 0 0 1 507.6611 709.2346)" class="st3 st4">+ rightStartDistance: gml::LengthType [0..1]</text>
<text transform="matrix(0.85 0 0 1 507.6611 720.5158)" class="st3 st4">+ rightEndPost: gml::LengthType [0..1]</text>
<text transform="matrix(0.85 0 0 1 507.6611 731.7814)" class="st3 st4">+ rightEndDistance: gml::LengthType [0..1]</text>
<path class="st0" d="M767.7,63.1c1.2,0,2.2,1,2.2,2.2l0,0v82.3l0,0c0,1.2-1,2.2-2.2,2.2l0,0l0,0h-138l0,0c-1.2,0-2.2-1-2.2-2.2l0,0
	V65.3c0-1.2,1-2.2,2.2-2.2l0,0L767.7,63.1L767.7,63.1L767.7,63.1z"/>
<path class="st1" d="M765.1,60.5c1.2,0,2.2,1,2.2,2.2l0,0V145l0,0c0,1.2-1,2.2-2.2,2.2l0,0l0,0H627l0,0c-1.2,0-2.2-1-2.2-2.2l0,0
	V62.7c0-1.2,1-2.2,2.2-2.2l0,0H765.1L765.1,60.5L765.1,60.5z"/>
<path class="st2" d="M765.1,60.5c1.2,0,2.2,1,2.2,2.2l0,0V145l0,0c0,1.2-1,2.2-2.2,2.2l0,0l0,0H627l0,0c-1.2,0-2.2-1-2.2-2.2l0,0
	V62.7c0-1.2,1-2.2,2.2-2.2l0,0H765.1L765.1,60.5L765.1,60.5z"/>
<text transform="matrix(0.85 0 0 1 665.6611 74.3591)" class="st3 st4">«FeatureType»</text>
<text transform="matrix(0.85 0 0 1 -7689.4883 -7772.0518)" class="st5" style="font-size:4.7638px;">i</text>
<text transform="matrix(0.85 0 0 1 649.1768 85.6247)" class="st5 st4">uro::OtherConstruction</text>
<line class="st2" x1="624.9" y1="92.6" x2="767.2" y2="92.6"/>
<text transform="matrix(0.85 0 0 1 629.1924 104.6872)" class="st3 st4">+ class: gml::CodeType [0..1]</text>
<text transform="matrix(0.85 0 0 1 -7689.4883 -7772.0518)" class="st3" style="font-size:4.7638px;">i</text>
<text transform="matrix(0.85 0 0 1 629.1924 115.9528)" class="st3 st4">+ function: gml::CodeType [0..*]</text>
<text transform="matrix(0.85 0 0 1 629.1924 127.2028)" class="st3 st4">+ usage: gml::CodeType [0..*]</text>
<path class="st0" d="M669.6,306.5c1.2,0,2.2,1,2.2,2.2l0,0v158.5l0,0c0,1.2-1,2.2-2.2,2.2l0,0l0,0H516.8l0,0c-1.2,0-2.2-1-2.2-2.2
	l0,0V308.7c0-1.2,1-2.2,2.2-2.2l0,0H669.6L669.6,306.5L669.6,306.5z"/>
<path class="st1" d="M667,303.9c1.2,0,2.2,1,2.2,2.2l0,0v158.5l0,0c0,1.2-1,2.2-2.2,2.2l0,0l0,0H514.2l0,0c-1.2,0-2.2-1-2.2-2.2l0,0
	V306.1c0-1.2,1-2.2,2.2-2.2l0,0H667L667,303.9L667,303.9z"/>
<path class="st2" d="M667,303.9c1.2,0,2.2,1,2.2,2.2l0,0v158.5l0,0c0,1.2-1,2.2-2.2,2.2l0,0l0,0H514.2l0,0c-1.2,0-2.2-1-2.2-2.2l0,0
	V306.1c0-1.2,1-2.2,2.2-2.2l0,0H667L667,303.9L667,303.9z"/>
<text transform="matrix(0.85 0 0 1 565.833 317.7648)" class="st3 st4">«DataType»</text>
<text transform="matrix(0.85 0 0 1 -7689.4883 -7772.0518)" class="st5" style="font-size:4.7638px;">t</text>
<text transform="matrix(0.85 0 0 1 544.1299 329.0148)" class="st5 st4">uro::FacilityIdAttribute</text>
<line class="st2" x1="512" y1="335.9" x2="669.1" y2="335.9"/>
<text transform="matrix(0.85 0 0 1 516.3486 348.0773)" class="st3 st4">+ id: xs::string [0..1]</text>
<text transform="matrix(0.85 0 0 1 516.3486 359.3273)" class="st3 st4">+ partId: xs::string [0..1]</text>
<text transform="matrix(0.85 0 0 1 516.3486 370.593)" class="st3 st4">+ branchId: xs::string [0..1]</text>
<text transform="matrix(0.85 0 0 1 516.3486 381.8586)" class="st3 st4">+ prefecture: gml::CodeType [0..*]</text>
<text transform="matrix(0.85 0 0 1 516.3486 393.1086)" class="st3 st4">+ city: gml::CodeType [0..*]</text>
<text transform="matrix(0.85 0 0 1 516.3486 404.3596)" class="st3 st4">+ route: xs::string [0..1]</text>
<text transform="matrix(0.85 0 0 1 516.3486 415.6252)" class="st3 st4">+ startPost: xs::string [0..1]</text>
<text transform="matrix(0.85 0 0 1 516.3486 426.8908)" class="st3 st4">+ endPost: xs::string [0..1]</text>
<text transform="matrix(0.85 0 0 1 516.3486 438.1408)" class="st3 st4">+ startLat: xs::double [0..1]</text>
<text transform="matrix(0.85 0 0 1 516.3486 449.3908)" class="st3 st4">+ startLong: xs::double [0..1]</text>
<text transform="matrix(0.85 0 0 1 -7689.4883 -7772.0518)" class="st3" style="font-size:4.7638px;">i</text>
<text transform="matrix(0.85 0 0 1 516.3486 460.6721)" class="st3 st4">+ alternatveName: xs::string [0..*]</text>
<path class="st0" d="M230.3,305.6c1.2,0,2.2,1,2.2,2.2l0,0v192.3l0,0c0,1.2-1,2.2-2.2,2.2l0,0l0,0H48l0,0c-1.2,0-2.2-1-2.2-2.2l0,0
	V307.8c0-1.2,1-2.2,2.2-2.2l0,0L230.3,305.6L230.3,305.6L230.3,305.6z"/>
<path class="st1" d="M227.7,303c1.2,0,2.2,1,2.2,2.2l0,0v192.3l0,0c0,1.2-1,2.2-2.2,2.2l0,0l0,0H45.4l0,0c-1.2,0-2.2-1-2.2-2.2l0,0
	V305.2c0-1.2,1-2.2,2.2-2.2l0,0H227.7L227.7,303L227.7,303z"/>
<path class="st2" d="M227.7,303c1.2,0,2.2,1,2.2,2.2l0,0v192.3l0,0c0,1.2-1,2.2-2.2,2.2l0,0l0,0H45.4l0,0c-1.2,0-2.2-1-2.2-2.2l0,0
	V305.2c0-1.2,1-2.2,2.2-2.2l0,0H227.7L227.7,303L227.7,303z"/>
<text transform="matrix(0.85 0 0 1 111.8174 316.8898)" class="st3 st4">«DataType»</text>
<text transform="matrix(0.85 0 0 1 -7689.4883 -7772.0518)" class="st5" style="font-size:4.7638px;">i</text>
<text transform="matrix(0.85 0 0 1 -7689.4883 -7772.0518)" class="st5" style="font-size:4.7638px;">t</text>
<text transform="matrix(0.85 0 0 1 72.7549 328.1398)" class="st5 st4">uro::ConstructionBaseAttribute</text>
<line class="st2" x1="43.2" y1="335.1" x2="229.9" y2="335.1"/>
<text transform="matrix(0.85 0 0 1 47.5674 347.2023)" class="st3 st4">+ adminType: gml::CodeType [0..1]</text>
<text transform="matrix(0.85 0 0 1 47.5674 358.4523)" class="st3 st4">+ administrator: xs::string [0..1]</text>
<text transform="matrix(0.85 0 0 1 -7689.4883 -7772.0518)" class="st3" style="font-size:4.7638px;">f</text>
<text transform="matrix(0.85 0 0 1 -7689.4883 -7772.0518)" class="st3" style="font-size:4.7638px;">i</text>
<text transform="matrix(0.85 0 0 1 47.5674 369.7336)" class="st3 st4">+ adminOffice: xs::string [0..1]</text>
<text transform="matrix(0.85 0 0 1 47.5674 380.9992)" class="st3 st4">+ operatorType: gml::CodeType [0..1]</text>
<text transform="matrix(0.85 0 0 1 47.5674 392.2492)" class="st3 st4">+ installerType: gml::CodeType [0..1]</text>
<text transform="matrix(0.85 0 0 1 47.5674 403.5002)" class="st3 st4">+ installer: xs::string [0..1]</text>
<text transform="matrix(0.85 0 0 1 47.5674 414.7658)" class="st3 st4">+ structureOrdinance: xs::string [0..1]</text>
<text transform="matrix(0.85 0 0 1 -7689.4883 -7772.0518)" class="st3" style="font-size:4.7638px;">i</text>
<text transform="matrix(0.85 0 0 1 -7689.4883 -7772.0518)" class="st3" style="font-size:4.7638px;">t</text>
<text transform="matrix(0.85 0 0 1 47.5674 426.0471)" class="st3 st4">+ specification: xs::string [0..1]</text>
<text transform="matrix(0.85 0 0 1 47.5674 437.2971)" class="st3 st4">+ kana: xs::string [0..1]</text>
<text transform="matrix(0.85 0 0 1 -7689.4883 -7772.0518)" class="st3" style="font-size:4.7638px;">i</text>
<text transform="matrix(0.85 0 0 1 47.5674 448.5471)" class="st3 st4">+ constructonStartYear: xs::gYear [0..1]</text>
<text transform="matrix(0.85 0 0 1 -7689.4883 -7772.0518)" class="st3" style="font-size:4.7638px;">i</text>
<text transform="matrix(0.85 0 0 1 47.5674 459.8127)" class="st3 st4">+ completionYear: xs::gYear [0..1]</text>
<text transform="matrix(0.85 0 0 1 47.5674 471.0783)" class="st3 st4">+ facilityAge: xs::integer [0..1]</text>
<text transform="matrix(0.85 0 0 1 47.5674 482.3283)" class="st3 st4">+ update: xs::date [0..1]</text>
<text transform="matrix(0.85 0 0 1 47.5674 493.5783)" class="st3 st4">+ purpose: gml::CodeType [0..1]</text>
<path class="st0" d="M329.3,548.2c1.2,0,2.2,1,2.2,2.2l0,0v90.9l0,0c0,1.2-1,2.2-2.2,2.2l0,0l0,0H160.9l0,0c-1.2,0-2.2-1-2.2-2.2
	l0,0v-90.9c0-1.2,1-2.2,2.2-2.2l0,0H329.3L329.3,548.2L329.3,548.2z"/>
<path class="st1" d="M326.7,545.6c1.2,0,2.2,1,2.2,2.2l0,0v90.9l0,0c0,1.2-1,2.2-2.2,2.2l0,0l0,0H158.3l0,0c-1.2,0-2.2-1-2.2-2.2
	l0,0v-90.9c0-1.2,1-2.2,2.2-2.2l0,0H326.7L326.7,545.6L326.7,545.6z"/>
<path class="st2" d="M326.7,545.6c1.2,0,2.2,1,2.2,2.2l0,0v90.9l0,0c0,1.2-1,2.2-2.2,2.2l0,0l0,0H158.3l0,0c-1.2,0-2.2-1-2.2-2.2
	l0,0v-90.9c0-1.2,1-2.2,2.2-2.2l0,0H326.7L326.7,545.6L326.7,545.6z"/>
<text transform="matrix(0.85 0 0 1 217.7236 559.3908)" class="st3 st4">«DataType»</text>
<text transform="matrix(0.85 0 0 1 -7689.4883 -7772.0518)" class="st5" style="font-size:4.7638px;">i</text>
<text transform="matrix(0.85 0 0 1 -7689.4883 -7772.0518)" class="st5" style="font-size:4.7638px;">t</text>
<text transform="matrix(0.85 0 0 1 169.0986 570.6721)" class="st5 st4">uro::ConstructionStructureAttribute</text>
<line class="st2" x1="156.1" y1="577.6" x2="328.8" y2="577.6"/>
<text transform="matrix(0.85 0 0 1 160.4268 589.7346)" class="st3 st4">+ structureType: gml::CodeType [0..1]</text>
<text transform="matrix(0.85 0 0 1 160.4268 601.0002)" class="st3 st4">+ length: gml::LengthType [0..1]</text>
<text transform="matrix(0.85 0 0 1 160.4268 612.2502)" class="st3 st4">+ width: gml::LengthType [0..1]</text>
<text transform="matrix(0.85 0 0 1 160.4268 623.5002)" class="st3 st4">+ depth: gml::LengthType [0..1]</text>
<text transform="matrix(0.85 0 0 1 160.4268 634.7658)" class="st3 st4">+ volume: gml::MeasureType [0..1]</text>
<path class="st0" d="M234.6,721.4c1.2,0,2.2,1,2.2,2.2l0,0v79.7l0,0c0,1.2-1,2.2-2.2,2.2l0,0l0,0h-204l0,0c-1.2,0-2.2-1-2.2-2.2l0,0
	v-79.7c0-1.2,1-2.2,2.2-2.2l0,0H234.6L234.6,721.4L234.6,721.4z"/>
<path class="st1" d="M232,718.8c1.2,0,2.2,1,2.2,2.2l0,0v79.7l0,0c0,1.2-1,2.2-2.2,2.2l0,0l0,0H28l0,0c-1.2,0-2.2-1-2.2-2.2l0,0V721
	c0-1.2,1-2.2,2.2-2.2l0,0H232L232,718.8L232,718.8z"/>
<path class="st2" d="M232,718.8c1.2,0,2.2,1,2.2,2.2l0,0v79.7l0,0c0,1.2-1,2.2-2.2,2.2l0,0l0,0H28l0,0c-1.2,0-2.2-1-2.2-2.2l0,0V721
	c0-1.2,1-2.2,2.2-2.2l0,0H232L232,718.8L232,718.8z"/>
<text transform="matrix(0.85 0 0 1 105.7393 732.6408)" class="st3 st4">«DataType»</text>
<text transform="matrix(0.85 0 0 1 -7689.4883 -7772.0518)" class="st5" style="font-size:4.7638px;">t</text>
<text transform="matrix(0.85 0 0 1 75.3486 743.8908)" class="st5 st4">uro::EmbankmentAttribute</text>
<line class="st2" x1="25.9" y1="750.8" x2="234.2" y2="750.8"/>
<text transform="matrix(0.85 0 0 1 30.208 762.9533)" class="st3 st4">+ mainPartLength: gml::LengthType [0..1]</text>
<text transform="matrix(0.85 0 0 1 30.208 774.2033)" class="st3 st4">+ ceilingHeight: gml::LengthType [0..1]</text>
<text transform="matrix(0.85 0 0 1 30.208 785.4689)" class="st3 st4">+ waveDissipatorLength: gml::LengthType [0..1]</text>
<path class="st0" d="M479.5,721.4c1.2,0,2.2,1,2.2,2.2l0,0v63.2l0,0c0,1.2-1,2.2-2.2,2.2l0,0l0,0h-198l0,0c-1.2,0-2.2-1-2.2-2.2l0,0
	v-63.2c0-1.2,1-2.2,2.2-2.2l0,0H479.5L479.5,721.4L479.5,721.4z"/>
<path class="st1" d="M476.9,718.8c1.2,0,2.2,1,2.2,2.2l0,0v63.2l0,0c0,1.2-1,2.2-2.2,2.2l0,0l0,0h-198l0,0c-1.2,0-2.2-1-2.2-2.2l0,0
	V721c0-1.2,1-2.2,2.2-2.2l0,0H476.9L476.9,718.8L476.9,718.8z"/>
<path class="st2" d="M476.9,718.8c1.2,0,2.2,1,2.2,2.2l0,0v63.2l0,0c0,1.2-1,2.2-2.2,2.2l0,0l0,0h-198l0,0c-1.2,0-2.2-1-2.2-2.2l0,0
	V721c0-1.2,1-2.2,2.2-2.2l0,0H476.9L476.9,718.8L476.9,718.8z"/>
<text transform="matrix(0.85 0 0 1 353.1299 732.6408)" class="st3 st4">«DataType»</text>
<text transform="matrix(0.85 0 0 1 -7689.4883 -7772.0518)" class="st5" style="font-size:4.7638px;">t</text>
<text transform="matrix(0.85 0 0 1 340.1143 743.8908)" class="st5 st4">uro::DamAttribute</text>
<line class="st2" x1="276.8" y1="750.8" x2="479" y2="750.8"/>
<text transform="matrix(0.85 0 0 1 281.083 762.9533)" class="st3 st4">+ damCode: gml::CodeType [0..1]</text>
<text transform="matrix(0.85 0 0 1 281.083 774.2033)" class="st3 st4">+ totalWaterStorage: gml::MeasureType [0..1]</text>
<path class="st0" d="M561.9,28.5c1.2,0,2.2,1,2.2,2.2l0,0V164l0,0c0,1.2-1,2.2-2.2,2.2l0,0l0,0H291.1l0,0c-1.2,0-2.2-1-2.2-2.2l0,0
	V30.6c0-1.2,1-2.2,2.2-2.2l0,0h270.8V28.5L561.9,28.5z"/>
<path class="st1" d="M559.3,25.9c1.2,0,2.2,1,2.2,2.2l0,0v133.4l0,0c0,1.2-1,2.2-2.2,2.2l0,0l0,0H288.5l0,0c-1.2,0-2.2-1-2.2-2.2
	l0,0V28c0-1.2,1-2.2,2.2-2.2l0,0h270.8V25.9L559.3,25.9z"/>
<path class="st2" d="M559.3,25.9c1.2,0,2.2,1,2.2,2.2l0,0v133.4l0,0c0,1.2-1,2.2-2.2,2.2l0,0l0,0H288.5l0,0c-1.2,0-2.2-1-2.2-2.2
	l0,0V28c0-1.2,1-2.2,2.2-2.2l0,0h270.8V25.9L559.3,25.9z"/>
<text transform="matrix(0.85 0 0 1 504.7891 37.1398)" class="st6 st4">_CityObject</text>
<text transform="matrix(0.85 0 0 1 393.083 53.5773)" class="st3 st4">«FeatureType»</text>
<text transform="matrix(0.85 0 0 1 -7689.4883 -7772.0518)" class="st7" style="font-size:4.7638px;">i</text>
<text transform="matrix(0.85 0 0 1 371.3799 64.8434)" class="st7 st4">uro::AbstructConstruction</text>
<line class="st2" x1="286.3" y1="71.8" x2="561.5" y2="71.8"/>
<text transform="matrix(0.85 0 0 1 -7689.4883 -7772.0518)" class="st3" style="font-size:4.7638px;">i</text>
<text transform="matrix(0.85 0 0 1 -7689.4883 -7772.0518)" class="st3" style="font-size:4.7638px;">t</text>
<text transform="matrix(0.85 0 0 1 -7689.4883 -7772.0518)" class="st3" style="font-size:4.7638px;">i</text>
<text transform="matrix(0.85 0 0 1 -7689.4883 -7772.0518)" class="st3" style="font-size:4.7638px;">u</text>
<text transform="matrix(0.85 0 0 1 290.6299 83.8903)" class="st3 st4">+ conditonOfConstrucion: CondtionOfConstrctionValue [0..1]</text>
<text transform="matrix(0.85 0 0 1 -7689.4883 -7772.0518)" class="st3" style="font-size:4.7638px;">i</text>
<text transform="matrix(0.85 0 0 1 290.6299 95.1559)" class="st3 st4">+ dateOfConstruction: xs::date [0..1]</text>
<text transform="matrix(0.85 0 0 1 -7689.4883 -7772.0518)" class="st3" style="font-size:4.7638px;">i</text>
<text transform="matrix(0.85 0 0 1 290.6299 106.4216)" class="st3 st4">+ dateOfDemoliton: xs::date [0..1]</text>
<text transform="matrix(0.85 0 0 1 -7689.4883 -7772.0518)" class="st3" style="font-size:4.7638px;">i</text>
<text transform="matrix(0.85 0 0 1 -7689.4883 -7772.0518)" class="st3" style="font-size:4.7638px;">t</text>
<text transform="matrix(0.85 0 0 1 290.6299 117.6716)" class="st3 st4">+ constructionEvent: ConstrucionEvent [0..*]</text>
<text transform="matrix(0.85 0 0 1 -7689.4883 -7772.0518)" class="st3" style="font-size:4.7638px;">i</text>
<text transform="matrix(0.85 0 0 1 -7689.4883 -7772.0518)" class="st3" style="font-size:4.7638px;">t</text>
<text transform="matrix(0.85 0 0 1 290.6299 128.9216)" class="st3 st4">+ elevaton: Elevaion [0..*]</text>
<text transform="matrix(0.85 0 0 1 290.6299 140.2028)" class="st3 st4">+ height: Height [0..*]</text>
<text transform="matrix(0.85 0 0 1 290.6299 151.4684)" class="st3 st4">+ occupancy: Occupancy [0..*]</text>
<path class="st0" d="M485.5,306.5c1.2,0,2.2,1,2.2,2.2l0,0v124.7l0,0c0,1.2-1,2.2-2.2,2.2l0,0l0,0H273.7l0,0c-1.2,0-2.2-1-2.2-2.2
	l0,0V308.7c0-1.2,1-2.2,2.2-2.2l0,0H485.5L485.5,306.5L485.5,306.5z"/>
<path class="st1" d="M482.9,303.9c1.2,0,2.2,1,2.2,2.2l0,0v124.7l0,0c0,1.2-1,2.2-2.2,2.2l0,0l0,0H271.1l0,0c-1.2,0-2.2-1-2.2-2.2
	l0,0V306.1c0-1.2,1-2.2,2.2-2.2l0,0H482.9L482.9,303.9L482.9,303.9z"/>
<path class="st2" d="M482.9,303.9c1.2,0,2.2,1,2.2,2.2l0,0v124.7l0,0c0,1.2-1,2.2-2.2,2.2l0,0l0,0H271.1l0,0c-1.2,0-2.2-1-2.2-2.2
	l0,0V306.1c0-1.2,1-2.2,2.2-2.2l0,0H482.9L482.9,303.9L482.9,303.9z"/>
<text transform="matrix(0.85 0 0 1 352.2861 317.7648)" class="st3 st4">«DataType»</text>
<text transform="matrix(0.85 0 0 1 -7689.4883 -7772.0518)" class="st5" style="font-size:4.7638px;">i</text>
<text transform="matrix(0.85 0 0 1 -7689.4883 -7772.0518)" class="st5" style="font-size:4.7638px;">t</text>
<text transform="matrix(0.85 0 0 1 298.4424 329.0148)" class="st5 st4">uro::ConstructionDataQualityAttribute</text>
<line class="st2" x1="268.9" y1="335.9" x2="485.1" y2="335.9"/>
<text transform="matrix(0.85 0 0 1 273.2705 348.0773)" class="st3 st4">+ srcScale: gml::CodeType [0..1]</text>
<text transform="matrix(0.85 0 0 1 273.2705 359.3273)" class="st3 st4">+ geometrySrcDesc: gml::CodeType [0..*]</text>
<text transform="matrix(0.85 0 0 1 -7689.4883 -7772.0518)" class="st3" style="font-size:4.7638px;">i</text>
<text transform="matrix(0.85 0 0 1 273.2705 370.593)" class="st3 st4">+ thematicSrcDesc: gml::CodeType [0..*]</text>
<text transform="matrix(0.85 0 0 1 273.2705 381.8586)" class="st3 st4">+ appearanceSrcDesc: gml::CodeType [0..*]</text>
<text transform="matrix(0.85 0 0 1 -7689.4883 -7772.0518)" class="st3" style="font-size:4.7638px;">i</text>
<text transform="matrix(0.85 0 0 1 273.2705 393.1086)" class="st3 st4">+ dataAcquisition: xs::string [0..1]</text>
<text transform="matrix(0.85 0 0 1 273.2705 404.3596)" class="st3 st4">+ photoScale: xs::integer [0..1]</text>
<text transform="matrix(0.85 0 0 1 273.2705 415.6252)" class="st3 st4">+ lod1Height: gml::CodeType [0..1]</text>
<text transform="matrix(0.85 0 0 1 273.2705 426.8908)" class="st3 st4">+ lodType: gml::CodeType [0..*]</text>
<path class="st0" d="M930,417.4c1.2,0,2.2,1,2.2,2.2l0,0v64.1l0,0c0,1.2-1,2.2-2.2,2.2l0,0l0,0H811.9l0,0c-1.2,0-2.2-1-2.2-2.2l0,0
	v-64.1c0-1.2,1-2.2,2.2-2.2l0,0H930L930,417.4L930,417.4z"/>
<path class="st1" d="M927.4,414.8c1.2,0,2.2,1,2.2,2.2l0,0v64l0,0c0,1.2-1,2.2-2.2,2.2l0,0l0,0H809.3l0,0c-1.2,0-2.2-1-2.2-2.2l0,0
	v-64.1c0-1.2,1-2.2,2.2-2.2l0,0h118.1V414.8L927.4,414.8z"/>
<path class="st2" d="M927.4,414.8c1.2,0,2.2,1,2.2,2.2l0,0v64l0,0c0,1.2-1,2.2-2.2,2.2l0,0l0,0H809.3l0,0c-1.2,0-2.2-1-2.2-2.2l0,0
	v-64.1c0-1.2,1-2.2,2.2-2.2l0,0h118.1V414.8L927.4,414.8z"/>
<text transform="matrix(0.85 0 0 1 843.6299 428.6096)" class="st3 st4">«DataType»</text>
<text transform="matrix(0.85 0 0 1 -7689.4883 -7772.0518)" class="st7" style="font-size:4.7638px;">t</text>
<text transform="matrix(0.85 0 0 1 825.4111 439.8908)" class="st7 st4">uro::FacilityAttribute</text>
<line class="st2" x1="807.2" y1="446.8" x2="929.6" y2="446.8"/>
<text transform="matrix(0.85 0 0 1 811.5049 458.9221)" class="st3 st4">+ facilityId: xs::string [0..1]</text>
<path class="st0" d="M845.8,306.5c1.2,0,2.2,1,2.2,2.2l0,0v64.1l0,0c0,1.2-1,2.2-2.2,2.2l0,0l0,0h-138l0,0c-1.2,0-2.2-1-2.2-2.2l0,0
	v-64.1c0-1.2,1-2.2,2.2-2.2l0,0H845.8L845.8,306.5L845.8,306.5z"/>
<path class="st1" d="M843.2,303.9c1.2,0,2.2,1,2.2,2.2l0,0v64.1l0,0c0,1.2-1,2.2-2.2,2.2l0,0l0,0h-138l0,0c-1.2,0-2.2-1-2.2-2.2l0,0
	v-64.1c0-1.2,1-2.2,2.2-2.2l0,0H843.2L843.2,303.9L843.2,303.9z"/>
<path class="st2" d="M843.2,303.9c1.2,0,2.2,1,2.2,2.2l0,0v64.1l0,0c0,1.2-1,2.2-2.2,2.2l0,0l0,0h-138l0,0c-1.2,0-2.2-1-2.2-2.2l0,0
	v-64.1c0-1.2,1-2.2,2.2-2.2l0,0H843.2L843.2,303.9L843.2,303.9z"/>
<text transform="matrix(0.85 0 0 1 749.8799 317.7648)" class="st3 st4">«DataType»</text>
<text transform="matrix(0.85 0 0 1 -7689.4883 -7772.0518)" class="st5" style="font-size:4.7638px;">t</text>
<text transform="matrix(0.85 0 0 1 722.083 329.0148)" class="st5 st4">uro::FacilityTypeAttribute</text>
<line class="st2" x1="703" y1="335.9" x2="845.4" y2="335.9"/>
<text transform="matrix(0.85 0 0 1 707.333 348.0773)" class="st3 st4">+ class: gml::CodeType [0..1]</text>
<text transform="matrix(0.85 0 0 1 -7689.4883 -7772.0518)" class="st3" style="font-size:4.7638px;">i</text>
<text transform="matrix(0.85 0 0 1 707.333 359.3273)" class="st3 st4">+ function: gml::CodeType [0..*]</text>
<path class="st8" d="M199.5,34.5c1.4,0,2.6,1.2,2.6,2.6l0,0V135l0,0c0,1.4-1.2,2.6-2.6,2.6l0,0l0,0H37.2l0,0c-1.4,0-2.6-1.2-2.6-2.6
	V37.1c0-1.4,1.2-2.6,2.6-2.6l0,0H199.5L199.5,34.5L199.5,34.5z"/>
<path class="st9" d="M199.5,34.5c1.4,0,2.6,1.2,2.6,2.6l0,0V135l0,0c0,1.4-1.2,2.6-2.6,2.6l0,0l0,0H37.2l0,0c-1.4,0-2.6-1.2-2.6-2.6
	V37.1c0-1.4,1.2-2.6,2.6-2.6l0,0H199.5L199.5,34.5L199.5,34.5z"/>
<path class="st10" d="M54.9,60.5c1.2,0,2.2,1,2.2,2.2l0,0v9.5l0,0c0,1.2-1,2.2-2.2,2.2l0,0l0,0h-9.5l0,0c-1.2,0-2.2-1-2.2-2.2l0,0
	v-9.5c0-1.2,1-2.2,2.2-2.2l0,0L54.9,60.5L54.9,60.5L54.9,60.5z"/>
<path class="st11" d="M54.9,60.5c1.2,0,2.2,1,2.2,2.2l0,0v9.5l0,0c0,1.2-1,2.2-2.2,2.2l0,0l0,0h-9.5l0,0c-1.2,0-2.2-1-2.2-2.2l0,0
	v-9.5c0-1.2,1-2.2,2.2-2.2l0,0L54.9,60.5L54.9,60.5L54.9,60.5z"/>
<text transform="matrix(0.85 0 0 1 62.333 71.7809)" class="st12 st13 st14">GMLに定義されたクラス</text>
<path class="st15" d="M54.9,77c1.2,0,2.2,1,2.2,2.2l0,0v9.5l0,0c0,1.2-1,2.2-2.2,2.2l0,0l0,0h-9.5l0,0c-1.2,0-2.2-1-2.2-2.2l0,0
	v-9.5c0-1.2,1-2.2,2.2-2.2l0,0H54.9L54.9,77L54.9,77z"/>
<path class="st11" d="M54.9,77c1.2,0,2.2,1,2.2,2.2l0,0v9.5l0,0c0,1.2-1,2.2-2.2,2.2l0,0l0,0h-9.5l0,0c-1.2,0-2.2-1-2.2-2.2l0,0
	v-9.5c0-1.2,1-2.2,2.2-2.2l0,0H54.9L54.9,77L54.9,77z"/>
<text transform="matrix(0.85 0 0 1 62.333 88.2341)" class="st12 st13 st14">CityGMLに定義されたクラス</text>
<path class="st1" d="M54.9,93.4c1.2,0,2.2,1,2.2,2.2l0,0v9.5l0,0c0,1.2-1,2.2-2.2,2.2l0,0l0,0h-9.5l0,0c-1.2,0-2.2-1-2.2-2.2l0,0
	v-9.5c0-1.2,1-2.2,2.2-2.2l0,0H54.9L54.9,93.4L54.9,93.4z"/>
<path class="st11" d="M54.9,93.4c1.2,0,2.2,1,2.2,2.2l0,0v9.5l0,0c0,1.2-1,2.2-2.2,2.2l0,0l0,0h-9.5l0,0c-1.2,0-2.2-1-2.2-2.2l0,0
	v-9.5c0-1.2,1-2.2,2.2-2.2l0,0H54.9L54.9,93.4L54.9,93.4z"/>
<text transform="matrix(0.85 0 0 1 62.333 104.6872)" class="st12 st13 st14">i-URに定義されたクラス</text>
<g>
	<text transform="matrix(0.85 0 0 1 96.1924 52.7184)" class="st12 st16 st17">凡例</text>
	<text transform="matrix(0.85 0 0 1 96.1924 52.7184)" class="st18 st16 st17">凡例</text>
</g>
<path class="st0" d="M977.8,530.8c1.2,0,2.2,1,2.2,2.2l0,0v64.1l0,0c0,1.2-1,2.2-2.2,2.2l0,0l0,0H829.3l0,0c-1.2,0-2.2-1-2.2-2.2
	l0,0V533c0-1.2,1-2.2,2.2-2.2l0,0H977.8L977.8,530.8L977.8,530.8z"/>
<path class="st1" d="M975.1,528.2c1.2,0,2.2,1,2.2,2.2l0,0v64.1l0,0c0,1.2-1,2.2-2.2,2.2l0,0l0,0H826.7l0,0c-1.2,0-2.2-1-2.2-2.2
	l0,0v-64.1c0-1.2,1-2.2,2.2-2.2l0,0H975.1L975.1,528.2L975.1,528.2z"/>
<path class="st2" d="M975.1,528.2c1.2,0,2.2,1,2.2,2.2l0,0v64.1l0,0c0,1.2-1,2.2-2.2,2.2l0,0l0,0H826.7l0,0c-1.2,0-2.2-1-2.2-2.2
	l0,0v-64.1c0-1.2,1-2.2,2.2-2.2l0,0H975.1L975.1,528.2L975.1,528.2z"/>
<text transform="matrix(0.85 0 0 1 876.6143 542.0939)" class="st3 st4">«DataType»</text>
<text transform="matrix(0.85 0 0 1 -7689.4883 -7772.0518)" class="st7" style="font-size:4.7638px;">t</text>
<text transform="matrix(0.85 0 0 1 866.208 553.3439)" class="st7 st4">uro::DmAttribute</text>
<line class="st2" x1="824.5" y1="560.3" x2="977.3" y2="560.3"/>
<text transform="matrix(0.85 0 0 1 828.8643 572.4064)" class="st3 st4">+ dmCode: gml::CodeType</text>
<text transform="matrix(0.85 0 0 1 828.8643 583.6564)" class="st3 st4">+ meshCode: gml::CodeType [0..1]</text>
<line class="st19" x1="958.2" y1="527.4" x2="958.2" y2="207.8"/>
<line class="st19" x1="958.2" y1="207.8" x2="424.3" y2="207.8"/>
<line class="st19" x1="424.3" y1="207.8" x2="424.3" y2="165.3"/>
<polyline class="st20" points="428.7,174 424.3,165.3 420,174 424.3,182.6 428.7,174 "/>
<polyline class="st19" points="428.7,174 424.3,165.3 420,174 424.3,182.6 "/>
<path class="st19" d="M958.2,527.4l5.2-13 M958.2,527.4l-5.2-13"/>
<line class="st19" x1="413.9" y1="303" x2="413.9" y2="207.8"/>
<polyline class="st20" points="428.7,174 424.3,165.3 420,174 424.3,182.6 428.7,174 "/>
<polyline class="st19" points="428.7,174 424.3,165.3 420,174 424.3,182.6 "/>
<path class="st19" d="M413.9,303l5.2-13 M413.9,303l-5.2-13"/>
<line class="st19" x1="376.6" y1="717.9" x2="376.6" y2="685"/>
<line class="st19" x1="376.6" y1="685" x2="242.9" y2="685"/>
<line class="st19" x1="242.9" y1="685" x2="242.9" y2="642.6"/>
<polyline class="st21" points="248.1,656.4 237.7,656.4 242.9,642.6 248.1,656.4 "/>
<polygon class="st19" points="248.1,656.4 237.7,656.4 242.9,642.6 "/>
<line class="st19" x1="128.3" y1="717.9" x2="128.3" y2="685"/>
<line class="st19" x1="128.3" y1="685" x2="242.9" y2="685"/>
<line class="st19" x1="242.9" y1="544.7" x2="242.9" y2="207.8"/>
<polyline class="st20" points="428.7,174 424.3,165.3 420,174 424.3,182.6 428.7,174 "/>
<polyline class="st19" points="428.7,174 424.3,165.3 420,174 424.3,182.6 "/>
<path class="st19" d="M242.9,544.7l5.2-13 M242.9,544.7l-5.2-13"/>
<line class="st19" x1="137" y1="302.2" x2="137" y2="207.8"/>
<line class="st19" x1="137" y1="207.8" x2="424.3" y2="207.8"/>
<polyline class="st20" points="428.7,174 424.3,165.3 420,174 424.3,182.6 428.7,174 "/>
<polyline class="st19" points="428.7,174 424.3,165.3 420,174 424.3,182.6 "/>
<path class="st19" d="M137,302.2l5.2-13 M137,302.2l-5.2-13"/>
<line class="st19" x1="591" y1="303" x2="591" y2="207.8"/>
<polyline class="st20" points="428.7,174 424.3,165.3 420,174 424.3,182.6 428.7,174 "/>
<polyline class="st19" points="428.7,174 424.3,165.3 420,174 424.3,182.6 "/>
<path class="st19" d="M591,303l5.2-13 M591,303l-5.2-13"/>
<line class="st19" x1="624" y1="117.7" x2="563.2" y2="117.7"/>
<polyline class="st21" points="577.1,112.5 577.1,122.9 563.2,117.7 577.1,112.5 "/>
<polygon class="st19" points="577.1,112.5 577.1,122.9 563.2,117.7 "/>
<line class="st19" x1="593.6" y1="529.1" x2="593.6" y2="468.5"/>
<polyline class="st21" points="598.8,482.3 588.4,482.3 593.6,468.5 598.8,482.3 "/>
<polygon class="st19" points="598.8,482.3 588.4,482.3 593.6,468.5 "/>
<line class="st19" x1="774.2" y1="303" x2="774.2" y2="207.8"/>
<polyline class="st20" points="428.7,174 424.3,165.3 420,174 424.3,182.6 428.7,174 "/>
<polyline class="st19" points="428.7,174 424.3,165.3 420,174 424.3,182.6 "/>
<path class="st19" d="M774.2,303l5.2-13 M774.2,303l-5.2-13"/>
<line class="st19" x1="901.8" y1="413.9" x2="901.8" y2="207.8"/>
<polyline class="st20" points="428.7,174 424.3,165.3 420,174 424.3,182.6 428.7,174 "/>
<polygon class="st19" points="428.7,174 424.3,165.3 420,174 424.3,182.6 "/>
<path class="st19" d="M901.8,413.9l5.2-13 M901.8,413.9l-5.2-13"/>
<text transform="matrix(0.85 0 0 1 -7689.4883 -7772.0518)" class="st3" style="font-size:4.7638px;">t</text>
<text transform="matrix(0.85 0 0 1 785.458 398.2961)" class="st3 st4">+consFacilityAttribute</text>
<text transform="matrix(0.85 0 0 1 918.2705 401.7805)" class="st3 st4">0..*</text>
<text transform="matrix(0.85 0 0 1 -7689.4883 -7772.0518)" class="st3" style="font-size:4.7638px;">t</text>
<text transform="matrix(0.85 0 0 1 854.0361 516.9846)" class="st3 st4">+consDmAttribute</text>
<text transform="matrix(0.85 0 0 1 932.1768 503.1096)" class="st3 st4">0..*</text>
<text transform="matrix(0.85 0 0 1 -7689.4883 -7772.0518)" class="st3" style="font-size:4.7638px;">t</text>
<text transform="matrix(0.85 0 0 1 130.0361 530.8283)" class="st3 st4">+consStructureAttribute</text>
<text transform="matrix(0.85 0 0 1 260.2549 538.6096)" class="st3 st4">0..1</text>
<text transform="matrix(0.85 0 0 1 -7689.4883 -7772.0518)" class="st3" style="font-size:4.7638px;">t</text>
<text transform="matrix(0.85 0 0 1 655.2549 271.8591)" class="st3 st4">+consFacilityTypeAttribute</text>
<text transform="matrix(0.85 0 0 1 790.6768 298.7023)" class="st3 st4">0..*</text>
<text transform="matrix(0.85 0 0 1 -7689.4883 -7772.0518)" class="st3" style="font-size:4.7638px;">t</text>
<text transform="matrix(0.85 0 0 1 483.3486 284.8434)" class="st3 st4">+consFacilityIdAttribute</text>
<text transform="matrix(0.85 0 0 1 604.8955 295.2341)" class="st3 st4">0..1</text>
<text transform="matrix(0.85 0 0 1 -7689.4883 -7772.0518)" class="st3" style="font-size:4.7638px;">t</text>
<text transform="matrix(0.85 0 0 1 281.958 296.1091)" class="st3 st4">+consDataQualityAttribute</text>
<text transform="matrix(0.85 0 0 1 439.0986 296.9841)" class="st3 st4">0..1</text>
<text transform="matrix(0.85 0 0 1 -7689.4883 -7772.0518)" class="st3" style="font-size:4.7638px;">t</text>
<text transform="matrix(0.85 0 0 1 44.0986 296.1091)" class="st3 st4">+consBaseAttribute</text>
<text transform="matrix(0.85 0 0 1 152.6143 292.6403)" class="st3 st4">0..1</text>
</svg>
