<?xml version="1.0" encoding="utf-8"?>
<!-- Generator: Adobe Illustrator 27.9.1, SVG Export Plug-In . SVG Version: 6.00 Build 0)  -->
<svg version="1.1" id="レイヤー_1" xmlns="http://www.w3.org/2000/svg" xmlns:xlink="http://www.w3.org/1999/xlink" x="0px"
	 y="0px" viewBox="0 0 274.383 447.149" style="enable-background:new 0 0 274.383 447.149;" xml:space="preserve">
<style type="text/css">
	.st0{fill-rule:evenodd;clip-rule:evenodd;fill:#FFCCFF;}
	.st1{fill:none;stroke:#000000;stroke-width:1.0286;stroke-linecap:round;stroke-linejoin:bevel;stroke-miterlimit:10;}
	.st2{font-family:'YuGothicUI-Regular';}
	.st3{font-size:7.0392px;}
	.st4{font-size:6.6857px;}
	.st5{fill:none;stroke:#000000;stroke-width:0.191;stroke-miterlimit:10;}
	.st6{font-family:'YuGothicUI-Bold';}
	.st7{fill-rule:evenodd;clip-rule:evenodd;fill:#FFFFFF;}
</style>
<polygon class="st0" points="49.592,261.232 223.792,261.232 223.792,22.089 49.592,22.089 "/>
<polygon class="st1" points="49.592,261.232 223.792,261.232 223.792,22.089 49.592,22.089 "/>
<text transform="matrix(0.85 0 -0.3127 0.9499 186.4533 30.8329)" class="st2 st3">_CityObject</text>
<text transform="matrix(0.85 0 0 1 115.1035 42.6587)" class="st2 st4">«FeatureType»</text>
<text transform="matrix(0.85 0 -0.3127 0.9499 106.4771 51.4042)" class="st2 st3">u</text>
<text transform="matrix(0.85 0 -0.3127 0.9499 106.4771 51.4042)" class="st5 st2 st3">u</text>
<text transform="matrix(0.85 0 -0.3127 0.9499 110.1568 51.4042)" class="st2 st3">r</text>
<text transform="matrix(0.85 0 -0.3127 0.9499 110.1568 51.4042)" class="st5 st2 st3">r</text>
<text transform="matrix(0.85 0 -0.3127 0.9499 112.4517 51.4042)" class="st2 st3">f</text>
<text transform="matrix(0.85 0 -0.3127 0.9499 112.4517 51.4042)" class="st5 st2 st3">f</text>
<text transform="matrix(0.85 0 -0.3127 0.9499 114.2954 51.4042)" class="st2 st3">::</text>
<text transform="matrix(0.85 0 -0.3127 0.9499 114.2954 51.4042)" class="st5 st2 st3">::</text>
<text transform="matrix(0.85 0 -0.3127 0.9499 117.0435 51.4042)" class="st2 st3">_</text>
<text transform="matrix(0.85 0 -0.3127 0.9499 117.0435 51.4042)" class="st5 st2 st3">_</text>
<text transform="matrix(0.85 0 -0.3127 0.9499 119.3482 51.4042)" class="st2 st3">U</text>
<text transform="matrix(0.85 0 -0.3127 0.9499 119.3482 51.4042)" class="st5 st2 st3">U</text>
<text transform="matrix(0.85 0 -0.3127 0.9499 123.4888 51.4042)" class="st2 st3">r</text>
<text transform="matrix(0.85 0 -0.3127 0.9499 123.4888 51.4042)" class="st5 st2 st3">r</text>
<text transform="matrix(0.85 0 -0.3127 0.9499 125.7837 51.4042)" class="st2 st3">b</text>
<text transform="matrix(0.85 0 -0.3127 0.9499 125.7837 51.4042)" class="st5 st2 st3">b</text>
<text transform="matrix(0.85 0 -0.3127 0.9499 129.4615 51.4042)" class="st2 st3">a</text>
<text transform="matrix(0.85 0 -0.3127 0.9499 129.4615 51.4042)" class="st5 st2 st3">a</text>
<text transform="matrix(0.85 0 -0.3127 0.9499 132.6792 51.4042)" class="st2 st3">n</text>
<text transform="matrix(0.85 0 -0.3127 0.9499 132.6792 51.4042)" class="st5 st2 st3">n</text>
<text transform="matrix(0.85 0 -0.3127 0.9499 136.3579 51.4042)" class="st2 st3">F</text>
<text transform="matrix(0.85 0 -0.3127 0.9499 136.3579 51.4042)" class="st5 st2 st3">F</text>
<text transform="matrix(0.85 0 -0.3127 0.9499 139.5786 51.4042)" class="st2 st3">un</text>
<text transform="matrix(0.85 0 -0.3127 0.9499 139.5786 51.4042)" class="st5 st2 st3">un</text>
<text transform="matrix(0.85 0 -0.3127 0.9499 146.9361 51.4042)" class="st2 st3">c</text>
<text transform="matrix(0.85 0 -0.3127 0.9499 146.9361 51.4042)" class="st5 st2 st3">c</text>
<text transform="matrix(0.85 0 -0.3127 0.9499 149.6997 51.4042)" class="st2 st3">t</text>
<text transform="matrix(0.85 0 -0.3127 0.9499 149.6997 51.4042)" class="st5 st2 st3">t</text>
<text transform="matrix(0.85 0 -0.3127 0.9499 151.9966 51.4042)" class="st2 st3">i</text>
<text transform="matrix(0.85 0 -0.3127 0.9499 151.9966 51.4042)" class="st5 st2 st3">i</text>
<text transform="matrix(0.85 0 -0.3127 0.9499 153.3794 51.4042)" class="st2 st3">o</text>
<text transform="matrix(0.85 0 -0.3127 0.9499 153.3794 51.4042)" class="st5 st2 st3">o</text>
<text transform="matrix(0.85 0 -0.3127 0.9499 157.0591 51.4042)" class="st2 st3">n</text>
<text transform="matrix(0.85 0 -0.3127 0.9499 157.0591 51.4042)" class="st5 st2 st3">n</text>
<line class="st1" x1="49.592" y1="55.517" x2="223.285" y2="55.517"/>
<text transform="matrix(0.85 0 0 1 52.127 64.7681)" class="st2 st4">+</text>
<text transform="matrix(0.85 0 0 1 56.0596 64.7681)" class="st2 st4"> </text>
<text transform="matrix(0.85 0 0 1 63.2988 64.7681)" class="st2 st4">class: gml::CodeType [0..1]</text>
<text transform="matrix(0.85 0 0 1 52.127 73.5181)" class="st2 st4">+</text>
<text transform="matrix(0.85 0 0 1 56.0596 73.5181)" class="st2 st4"> </text>
<text transform="matrix(0.85 0 0 1 63.2988 73.5181)" class="st2 st4">function: gml::CodeType [0..*]</text>
<text transform="matrix(0.85 0 0 1 52.127 82.2603)" class="st2 st4">+</text>
<text transform="matrix(0.85 0 0 1 56.0596 82.2603)" class="st2 st4"> </text>
<text transform="matrix(0.85 0 0 1 63.2988 82.2603)" class="st2 st4">usage: gml::CodeType [0..*]</text>
<text transform="matrix(0.85 0 0 1 52.127 91.0024)" class="st2 st4">+</text>
<text transform="matrix(0.85 0 0 1 56.0596 91.0024)" class="st2 st4"> </text>
<text transform="matrix(0.85 0 0 1 63.2988 91.0024)" class="st2 st4">validFrom: xs::date [0..1]</text>
<text transform="matrix(0.85 0 0 1 52.127 99.7446)" class="st2 st4">+</text>
<text transform="matrix(0.85 0 0 1 56.0596 99.7446)" class="st2 st4"> </text>
<text transform="matrix(0.85 0 0 1 63.2988 99.7446)" class="st2 st4">validFromType: gml::CodeType [0..1]</text>
<text transform="matrix(0.85 0 0 1 52.127 108.4868)" class="st2 st4">+</text>
<text transform="matrix(0.85 0 0 1 56.0596 108.4868)" class="st2 st4"> </text>
<text transform="matrix(0.85 0 0 1 63.2988 108.4868)" class="st2 st4">enactmentFiscalYear: xs::gYear [0..1]</text>
<text transform="matrix(0.85 0 0 1 52.127 117.2368)" class="st2 st4">+</text>
<text transform="matrix(0.85 0 0 1 56.0596 117.2368)" class="st2 st4"> </text>
<text transform="matrix(0.85 0 0 1 63.2988 117.2368)" class="st2 st4">validTo: xs::date [0..1]</text>
<text transform="matrix(0.85 0 0 1 52.127 125.9712)" class="st2 st4">+</text>
<text transform="matrix(0.85 0 0 1 56.0596 125.9712)" class="st2 st4"> </text>
<text transform="matrix(0.85 0 0 1 63.2988 125.9712)" class="st2 st4">validToType: gml::CodeType [0..1]</text>
<text transform="matrix(0.85 0 0 1 52.127 134.7134)" class="st2 st4">+</text>
<text transform="matrix(0.85 0 0 1 56.0596 134.7134)" class="st2 st4"> </text>
<text transform="matrix(0.85 0 0 1 63.2988 134.7134)" class="st2 st4">expirationFiscalYear: xs::gYear [0..1]</text>
<text transform="matrix(0.85 0 0 1 52.127 143.4634)" class="st2 st4">+</text>
<text transform="matrix(0.85 0 0 1 56.0596 143.4634)" class="st2 st4"> </text>
<text transform="matrix(0.85 0 0 1 63.2988 143.4634)" class="st2 st4">legalGrounds: xs::string [0..1]</text>
<text transform="matrix(0.85 0 0 1 52.127 152.2056)" class="st2 st4">+</text>
<text transform="matrix(0.85 0 0 1 56.0596 152.2056)" class="st2 st4"> </text>
<text transform="matrix(0.85 0 0 1 63.2988 152.2056)" class="st2 st4">custodian: xs::string [0..1]</text>
<text transform="matrix(0.85 0 0 1 52.127 160.9399)" class="st2 st4">+</text>
<text transform="matrix(0.85 0 0 1 56.0596 160.9399)" class="st2 st4"> </text>
<text transform="matrix(0.85 0 0 1 63.2988 160.9399)" class="st2 st4">notificationNumber: xs::string [0..1]</text>
<text transform="matrix(0.85 0 0 1 52.127 169.6899)" class="st2 st4">+</text>
<text transform="matrix(0.85 0 0 1 56.0596 169.6899)" class="st2 st4"> </text>
<text transform="matrix(0.85 0 0 1 63.2988 169.6899)" class="st2 st4">finalNotificationNumber: xs::string [0..1]</text>
<text transform="matrix(0.85 0 0 1 52.127 178.4321)" class="st2 st4">+</text>
<text transform="matrix(0.85 0 0 1 56.0596 178.4321)" class="st2 st4"> </text>
<text transform="matrix(0.85 0 0 1 63.2988 178.4321)" class="st2 st4">finalNotificationDate: xs::date [0..1]</text>
<text transform="matrix(0.85 0 0 1 52.127 187.1743)" class="st2 st4">+</text>
<text transform="matrix(0.85 0 0 1 56.0596 187.1743)" class="st2 st4"> </text>
<text transform="matrix(0.85 0 0 1 63.2988 187.1743)" class="st2 st4">urbanPlanType: gml::CodeType [0..1]</text>
<text transform="matrix(0.85 0 0 1 52.127 195.9165)" class="st2 st4">+</text>
<text transform="matrix(0.85 0 0 1 56.0596 195.9165)" class="st2 st4"> </text>
<text transform="matrix(0.85 0 0 1 63.2988 195.9165)" class="st2 st4">areaClassificationType: gml::CodeType [0..1]</text>
<text transform="matrix(0.85 0 0 1 52.127 204.6587)" class="st2 st4">+</text>
<text transform="matrix(0.85 0 0 1 56.0596 204.6587)" class="st2 st4"> </text>
<text transform="matrix(0.85 0 0 1 63.2988 204.6587)" class="st2 st4">nominalArea: gml::MeasureType [0..1]</text>
<text transform="matrix(0.85 0 0 1 52.127 213.4087)" class="st2 st4">+</text>
<text transform="matrix(0.85 0 0 1 56.0596 213.4087)" class="st2 st4"> </text>
<text transform="matrix(0.85 0 0 1 63.2988 213.4087)" class="st2 st4">prefecture: gml::CodeType [0..1]</text>
<text transform="matrix(0.85 0 0 1 52.127 222.1431)" class="st2 st4">+</text>
<text transform="matrix(0.85 0 0 1 56.0596 222.1431)" class="st2 st4"> </text>
<text transform="matrix(0.85 0 0 1 63.2988 222.1431)" class="st2 st4">city: gml::CodeType [0..1]</text>
<text transform="matrix(0.85 0 0 1 52.127 230.8853)" class="st2 st4">+</text>
<text transform="matrix(0.85 0 0 1 56.0596 230.8853)" class="st2 st4"> </text>
<text transform="matrix(0.85 0 0 1 63.2988 230.8853)" class="st2 st4">reference: xs::anyURI [0..1]</text>
<text transform="matrix(0.85 0 0 1 52.127 239.6353)" class="st2 st4">+</text>
<text transform="matrix(0.85 0 0 1 56.0596 239.6353)" class="st2 st4"> </text>
<text transform="matrix(0.85 0 0 1 63.2988 239.6353)" class="st2 st4">reason: gml:StringOrRefType [0..1]</text>
<text transform="matrix(0.85 0 0 1 52.127 248.3774)" class="st2 st4">+</text>
<text transform="matrix(0.85 0 0 1 56.0596 248.3774)" class="st2 st4"> </text>
<text transform="matrix(0.85 0 0 1 63.2988 248.3774)" class="st2 st4">note: gml:StringOrRefType [0..1]</text>
<text transform="matrix(0.85 0 0 1 52.127 257.1118)" class="st2 st4">+</text>
<text transform="matrix(0.85 0 0 1 56.0596 257.1118)" class="st2 st4"> </text>
<text transform="matrix(0.85 0 0 1 63.2988 257.1118)" class="st2 st4">surveyYear: xs::gYear [0..1]</text>
<polygon class="st0" points="93.777,347.632 179.099,347.632 179.099,306.489 93.777,306.489 "/>
<polygon class="st1" points="93.777,347.632 179.099,347.632 179.099,306.489 93.777,306.489 "/>
<text transform="matrix(0.85 0 0 1 114.6035 316.7759)" class="st2 st4">«FeatureType»</text>
<text transform="matrix(0.85 0 0 1 122.7285 325.5181)" class="st6 st4">urf::Zone</text>
<line class="st1" x1="93.777" y1="329.632" x2="178.592" y2="329.632"/>
<text transform="matrix(0.85 0 0 1 96.3223 338.8931)" class="st2 st4">+</text>
<text transform="matrix(0.85 0 0 1 100.2549 338.8931)" class="st2 st4"> </text>
<text transform="matrix(0.85 0 0 1 107.4941 338.8931)" class="st2 st4">location: xs::string [0..1]</text>
<polygon class="st0" points="24.706,426.832 139.993,426.832 139.993,391.346 24.706,391.346 "/>
<polygon class="st1" points="24.706,426.832 139.993,426.832 139.993,391.346 24.706,391.346 "/>
<text transform="matrix(0.85 0 0 1 60.7598 401.627)" class="st2 st4">«FeatureType»</text>
<text transform="matrix(0.85 0 0 1 30.7988 410.377)" class="st6 st4">urf::UrbanFunctionAttractionArea</text>
<polygon class="st0" points="153.706,426.832 248.678,426.832 248.678,390.832 153.706,390.832 "/>
<polygon class="st1" points="153.706,426.832 248.678,426.832 248.678,390.832 153.706,390.832 "/>
<text transform="matrix(0.85 0 0 1 179.6113 401.1191)" class="st2 st4">«FeatureType»</text>
<text transform="matrix(0.85 0 0 1 157.2598 409.8613)" class="st6 st4">urf::ResidenceAttractionArea</text>
<line class="st1" x1="199.922" y1="390.317" x2="199.922" y2="373.346"/>
<line class="st1" x1="199.922" y1="373.346" x2="136.438" y2="373.346"/>
<line class="st1" x1="136.438" y1="373.346" x2="136.438" y2="348.146"/>
<polyline class="st7" points="139.485,356.374 133.391,356.374 136.438,348.146 139.485,356.374 "/>
<polygon class="st1" points="139.485,356.374 133.391,356.374 136.438,348.146 "/>
<line class="st1" x1="82.096" y1="390.832" x2="82.096" y2="373.346"/>
<line class="st1" x1="82.096" y1="373.346" x2="136.438" y2="373.346"/>
<line class="st1" x1="136.438" y1="305.974" x2="136.438" y2="286.946"/>
<line class="st1" x1="136.438" y1="286.946" x2="136.438" y2="286.946"/>
<line class="st1" x1="136.438" y1="286.946" x2="136.438" y2="261.746"/>
<polyline class="st7" points="139.485,269.974 133.391,269.974 136.438,261.746 139.485,269.974 "/>
<polygon class="st1" points="139.485,269.974 133.391,269.974 136.438,261.746 "/>
</svg>
