<?xml version="1.0" encoding="utf-8"?>
<!-- Generator: Adobe Illustrator 27.4.1, SVG Export Plug-In . SVG Version: 6.00 Build 0)  -->
<svg version="1.1" id="レイヤー_1" xmlns="http://www.w3.org/2000/svg" xmlns:xlink="http://www.w3.org/1999/xlink" x="0px"
	 y="0px" viewBox="0 0 1090.9 1195" style="enable-background:new 0 0 1090.9 1195;" xml:space="preserve">
<style type="text/css">
	.st0{fill-rule:evenodd;clip-rule:evenodd;fill:#F0F0F0;}
	.st1{fill:none;stroke:#D7D7D7;stroke-width:0.8662;stroke-linecap:square;stroke-miterlimit:10;}
	.st2{fill-rule:evenodd;clip-rule:evenodd;fill:#A0FFC0;}
	.st3{fill:none;stroke:#000000;stroke-width:0.8662;stroke-linecap:square;stroke-miterlimit:10;}
	.st4{fill:#003060;}
	.st5{font-family:'YuGothicUI-Regular';}
	.st6{font-size:11.2598px;}
	.st7{fill-rule:evenodd;clip-rule:evenodd;fill:#FFFFCC;}
	.st8{fill-rule:evenodd;clip-rule:evenodd;fill:#FFCCFF;}
	.st9{font-family:'MS-PGothic';}
	.st10{font-size:13.8582px;}
	.st11{fill:none;stroke:#003060;stroke-width:0.396;stroke-miterlimit:10;}
	.st12{fill-rule:evenodd;clip-rule:evenodd;fill:#CFD1D8;}
	.st13{fill:none;stroke:#000000;stroke-width:1.7322;stroke-linecap:round;stroke-linejoin:round;stroke-miterlimit:10;}
	.st14{font-size:11.8731px;}
	.st15{fill:none;stroke:#000000;stroke-width:0.3218;stroke-miterlimit:10;}
	.st16{font-family:'YuGothicUI-Bold';}
	.st17{fill:none;stroke:#000000;stroke-width:1.7322;stroke-linecap:round;stroke-linejoin:bevel;stroke-miterlimit:10;}
	.st18{fill-rule:evenodd;clip-rule:evenodd;}
	.st19{fill-rule:evenodd;clip-rule:evenodd;fill:#FFFFFF;}
	.st20{font-family:'Calibri';}
	.st21{font-size:9.5276px;}
</style>
<path class="st0" d="M262,268.4c1.4,0,2.6,1.2,2.6,2.6l0,0v76.2l0,0c0,1.4-1.2,2.6-2.6,2.6l0,0l0,0H106.6l0,0
	c-1.4,0-2.6-1.2-2.6-2.6V271c0-1.4,1.2-2.6,2.6-2.6l0,0H262L262,268.4L262,268.4z"/>
<path class="st1" d="M262,268.4c1.4,0,2.6,1.2,2.6,2.6l0,0v76.2l0,0c0,1.4-1.2,2.6-2.6,2.6l0,0l0,0H106.6l0,0
	c-1.4,0-2.6-1.2-2.6-2.6V271c0-1.4,1.2-2.6,2.6-2.6l0,0H262L262,268.4L262,268.4z"/>
<path class="st2" d="M124.4,294.4c1.2,0,2.2,1,2.2,2.2l0,0v9.5l0,0c0,1.2-1,2.2-2.2,2.2l0,0l0,0h-9.5l0,0c-1.2,0-2.2-1-2.2-2.2l0,0
	v-9.5c0-1.2,1-2.2,2.2-2.2l0,0H124.4L124.4,294.4L124.4,294.4z"/>
<path class="st3" d="M124.4,294.4c1.2,0,2.2,1,2.2,2.2l0,0v9.5l0,0c0,1.2-1,2.2-2.2,2.2l0,0l0,0h-9.5l0,0c-1.2,0-2.2-1-2.2-2.2l0,0
	v-9.5c0-1.2,1-2.2,2.2-2.2l0,0H124.4L124.4,294.4L124.4,294.4z"/>
<text transform="matrix(0.85 0 0 1 131.7739 306.508)" class="st4 st5 st6">GMLで定義されたクラス</text>
<path class="st7" d="M124.4,310.8c1.2,0,2.2,1,2.2,2.2l0,0v9.5l0,0c0,1.2-1,2.2-2.2,2.2l0,0l0,0h-9.5l0,0c-1.2,0-2.2-1-2.2-2.2l0,0
	V313c0-1.2,1-2.2,2.2-2.2l0,0H124.4L124.4,310.8L124.4,310.8z"/>
<path class="st3" d="M124.4,310.8c1.2,0,2.2,1,2.2,2.2l0,0v9.5l0,0c0,1.2-1,2.2-2.2,2.2l0,0l0,0h-9.5l0,0c-1.2,0-2.2-1-2.2-2.2l0,0
	V313c0-1.2,1-2.2,2.2-2.2l0,0H124.4L124.4,310.8L124.4,310.8z"/>
<text transform="matrix(0.85 0 0 1 131.7739 322.9455)" class="st4 st5 st6">CityGMLで定義されたクラス</text>
<path class="st8" d="M124.4,327.3c1.2,0,2.2,1,2.2,2.2l0,0v9.5l0,0c0,1.2-1,2.2-2.2,2.2l0,0l0,0h-9.5l0,0c-1.2,0-2.2-1-2.2-2.2l0,0
	v-9.5c0-1.2,1-2.2,2.2-2.2l0,0H124.4L124.4,327.3L124.4,327.3z"/>
<path class="st3" d="M124.4,327.3c1.2,0,2.2,1,2.2,2.2l0,0v9.5l0,0c0,1.2-1,2.2-2.2,2.2l0,0l0,0h-9.5l0,0c-1.2,0-2.2-1-2.2-2.2l0,0
	v-9.5c0-1.2,1-2.2,2.2-2.2l0,0H124.4L124.4,327.3L124.4,327.3z"/>
<text transform="matrix(0.85 0 0 1 131.7739 339.4142)" class="st4 st5 st6">i-URで定義されたクラス</text>
<text transform="matrix(0.85 0 0 1 170.8374 286.57)" class="st4 st9 st10">凡例</text>
<text transform="matrix(0.85 0 0 1 170.8374 286.57)" class="st11 st9 st10">凡例</text>
<path class="st12" d="M725.1,28.5c1.2,0,2.2,1,2.2,2.2l0,0v203.5l0,0c0,1.2-1,2.2-2.2,2.2l0,0l0,0H386.6l0,0c-1.2,0-2.2-1-2.2-2.2
	l0,0V30.6c0-1.2,1-2.2,2.2-2.2l0,0h338.5V28.5L725.1,28.5z"/>
<path class="st7" d="M722.5,25.9c1.2,0,2.2,1,2.2,2.2l0,0v203.5l0,0c0,1.2-1,2.2-2.2,2.2l0,0l0,0H384l0,0c-1.2,0-2.2-1-2.2-2.2l0,0
	V28c0-1.2,1-2.2,2.2-2.2l0,0h338.5V25.9L722.5,25.9z"/>
<path class="st13" d="M722.5,25.9c1.2,0,2.2,1,2.2,2.2l0,0v203.5l0,0c0,1.2-1,2.2-2.2,2.2l0,0l0,0H384l0,0c-1.2,0-2.2-1-2.2-2.2l0,0
	V28c0-1.2,1-2.2,2.2-2.2l0,0h338.5V25.9L722.5,25.9z"/>
<text transform="matrix(0.85 0 0 1 516.3525 43.1794)" class="st5 st6">«FeatureType»</text>
<text transform="matrix(0.85 0 -0.3169 0.9485 493.7604 57.9187)" class="st5 st14">b</text>
<text transform="matrix(0.85 0 -0.3169 0.9485 493.7604 57.9187)" class="st15 st5 st14">b</text>
<text transform="matrix(0.85 0 -0.3169 0.9485 500.6979 57.9187)" class="st5 st14">l</text>
<text transform="matrix(0.85 0 -0.3169 0.9485 500.6979 57.9187)" class="st15 st5 st14">l</text>
<text transform="matrix(0.85 0 -0.3169 0.9485 503.3073 57.9187)" class="st5 st14">d</text>
<text transform="matrix(0.85 0 -0.3169 0.9485 503.3073 57.9187)" class="st15 st5 st14">d</text>
<text transform="matrix(0.85 0 -0.3169 0.9485 510.2487 57.9187)" class="st5 st14">g</text>
<text transform="matrix(0.85 0 -0.3169 0.9485 510.2487 57.9187)" class="st15 st5 st14">g</text>
<text transform="matrix(0.85 0 -0.3169 0.9485 517.1862 57.9187)" class="st5 st14">:</text>
<text transform="matrix(0.85 0 -0.3169 0.9485 517.1862 57.9187)" class="st15 st5 st14">:</text>
<text transform="matrix(0.85 0 -0.3169 0.9485 519.78 57.9187)" class="st5 st14">:</text>
<text transform="matrix(0.85 0 -0.3169 0.9485 519.78 57.9187)" class="st15 st5 st14">:</text>
<text transform="matrix(0.85 0 -0.3169 0.9485 522.3737 57.9187)" class="st5 st14">_</text>
<text transform="matrix(0.85 0 -0.3169 0.9485 522.3737 57.9187)" class="st15 st5 st14">_</text>
<text transform="matrix(0.85 0 -0.3169 0.9485 526.7194 57.9187)" class="st5 st14">A</text>
<text transform="matrix(0.85 0 -0.3169 0.9485 526.7194 57.9187)" class="st15 st5 st14">A</text>
<text transform="matrix(0.85 0 -0.3169 0.9485 534.5261 57.9187)" class="st5 st14">b</text>
<text transform="matrix(0.85 0 -0.3169 0.9485 534.5261 57.9187)" class="st15 st5 st14">b</text>
<text transform="matrix(0.85 0 -0.3169 0.9485 541.4675 57.9187)" class="st5 st14">s</text>
<text transform="matrix(0.85 0 -0.3169 0.9485 541.4675 57.9187)" class="st15 st5 st14">s</text>
<text transform="matrix(0.85 0 -0.3169 0.9485 546.6745 57.9187)" class="st5 st14">t</text>
<text transform="matrix(0.85 0 -0.3169 0.9485 546.6745 57.9187)" class="st15 st5 st14">t</text>
<text transform="matrix(0.85 0 -0.3169 0.9485 551.0065 57.9187)" class="st5 st14">r</text>
<text transform="matrix(0.85 0 -0.3169 0.9485 551.0065 57.9187)" class="st15 st5 st14">r</text>
<text transform="matrix(0.85 0 -0.3169 0.9485 555.3347 57.9187)" class="st5 st14">a</text>
<text transform="matrix(0.85 0 -0.3169 0.9485 555.3347 57.9187)" class="st15 st5 st14">a</text>
<text transform="matrix(0.85 0 -0.3169 0.9485 561.405 57.9187)" class="st5 st14">c</text>
<text transform="matrix(0.85 0 -0.3169 0.9485 561.405 57.9187)" class="st15 st5 st14">c</text>
<text transform="matrix(0.85 0 -0.3169 0.9485 566.6159 57.9187)" class="st5 st14">t</text>
<text transform="matrix(0.85 0 -0.3169 0.9485 566.6159 57.9187)" class="st15 st5 st14">t</text>
<text transform="matrix(0.85 0 -0.3169 0.9485 570.9479 57.9187)" class="st5 st14">B</text>
<text transform="matrix(0.85 0 -0.3169 0.9485 570.9479 57.9187)" class="st15 st5 st14">B</text>
<text transform="matrix(0.85 0 -0.3169 0.9485 577.8932 57.9187)" class="st5 st14">u</text>
<text transform="matrix(0.85 0 -0.3169 0.9485 577.8932 57.9187)" class="st15 st5 st14">u</text>
<text transform="matrix(0.85 0 -0.3169 0.9485 584.8307 57.9187)" class="st5 st14">i</text>
<text transform="matrix(0.85 0 -0.3169 0.9485 584.8307 57.9187)" class="st15 st5 st14">i</text>
<text transform="matrix(0.85 0 -0.3169 0.9485 587.4401 57.9187)" class="st5 st14">l</text>
<text transform="matrix(0.85 0 -0.3169 0.9485 587.4401 57.9187)" class="st15 st5 st14">l</text>
<text transform="matrix(0.85 0 -0.3169 0.9485 590.0495 57.9187)" class="st5 st14">d</text>
<text transform="matrix(0.85 0 -0.3169 0.9485 590.0495 57.9187)" class="st15 st5 st14">d</text>
<text transform="matrix(0.85 0 -0.3169 0.9485 596.987 57.9187)" class="st5 st14">i</text>
<text transform="matrix(0.85 0 -0.3169 0.9485 596.987 57.9187)" class="st15 st5 st14">i</text>
<text transform="matrix(0.85 0 -0.3169 0.9485 599.5964 57.9187)" class="st5 st14">n</text>
<text transform="matrix(0.85 0 -0.3169 0.9485 599.5964 57.9187)" class="st15 st5 st14">n</text>
<text transform="matrix(0.85 0 -0.3169 0.9485 606.5378 57.9187)" class="st5 st14">g</text>
<text transform="matrix(0.85 0 -0.3169 0.9485 606.5378 57.9187)" class="st15 st5 st14">g</text>
<line class="st13" x1="381.8" y1="64.8" x2="724.7" y2="64.8"/>
<text transform="matrix(0.85 0 0 1 386.1333 80.445)" class="st5 st6">+ class: gml::CodeType [0..1]</text>
<text transform="matrix(0.85 0 0 1 386.1333 95.1481)" class="st5 st6">+ function: gml::CodeType [0..*]</text>
<text transform="matrix(0.85 0 0 1 386.1333 109.8825)" class="st5 st6">+ usage: gml::CodeType [0..*]</text>
<text transform="matrix(0.85 0 0 1 386.1333 124.6013)" class="st5 st6">+ yearOfConstruction: xs::gYear [0..1]</text>
<text transform="matrix(0.85 0 0 1 386.1333 139.3356)" class="st5 st6">+ yearOfDemolition: xs::gYear [0..1]</text>
<text transform="matrix(0.85 0 0 1 386.1333 154.0544)" class="st5 st6">+ roofType: gml::CodeType [0..1]</text>
<text transform="matrix(0.85 0 0 1 386.1333 168.7888)" class="st5 st6">+ measuredHeight: gml::LengthType [0..1]</text>
<text transform="matrix(0.85 0 0 1 386.1333 183.5075)" class="st5 st6">+ storeysAboveGround: xs::nonNegativeInteger [0..1]</text>
<text transform="matrix(0.85 0 0 1 386.1333 198.2263)" class="st5 st6">+ storeysBelowGround: xs::nonNegativeInteger [0..1]</text>
<text transform="matrix(0.85 0 0 1 386.1333 212.945)" class="st5 st6">+ storeyHeightsAboveGround: gml::MeasureOrNullListType [0..1]</text>
<text transform="matrix(0.85 0 0 1 386.1333 227.6638)" class="st5 st6">+ storeyHeightsBelowGround: gml::MeasureOrNullListType [0..1]</text>
<path class="st12" d="M1023.8,929.3c1.2,0,2.2,1,2.2,2.2l0,0V986l0,0c0,1.2-1,2.2-2.2,2.2l0,0l0,0H829.3l0,0c-1.2,0-2.2-1-2.2-2.2
	l0,0v-54.6c0-1.2,1-2.2,2.2-2.2l0,0L1023.8,929.3L1023.8,929.3L1023.8,929.3z"/>
<path class="st8" d="M1021.2,926.7c1.2,0,2.2,1,2.2,2.2l0,0v54.6l0,0c0,1.2-1,2.2-2.2,2.2l0,0l0,0H826.7l0,0c-1.2,0-2.2-1-2.2-2.2
	l0,0v-54.6c0-1.2,1-2.2,2.2-2.2l0,0H1021.2L1021.2,926.7L1021.2,926.7z"/>
<path class="st13" d="M1021.2,926.7c1.2,0,2.2,1,2.2,2.2l0,0v54.6l0,0c0,1.2-1,2.2-2.2,2.2l0,0l0,0H826.7l0,0c-1.2,0-2.2-1-2.2-2.2
	l0,0v-54.6c0-1.2,1-2.2,2.2-2.2l0,0H1021.2L1021.2,926.7L1021.2,926.7z"/>
<text transform="matrix(0.85 0 0 1 886.1494 943.9767)" class="st5 st6">«enumeration»</text>
<text transform="matrix(0.85 0 0 1 836.6807 958.7111)" class="st16 st6">uro::IfcElementCompositionEnum</text>
<path class="st12" d="M544.6,287.4c1.2,0,2.2,1,2.2,2.2l0,0v38.1l0,0c0,1.2-1,2.2-2.2,2.2l0,0l0,0H377.9l0,0c-1.2,0-2.2-1-2.2-2.2
	l0,0v-38.1c0-1.2,1-2.2,2.2-2.2l0,0H544.6L544.6,287.4L544.6,287.4z"/>
<path class="st8" d="M542,284.8c1.2,0,2.2,1,2.2,2.2l0,0v38.1l0,0c0,1.2-1,2.2-2.2,2.2l0,0l0,0H375.3l0,0c-1.2,0-2.2-1-2.2-2.2l0,0
	V287c0-1.2,1-2.2,2.2-2.2l0,0H542L542,284.8L542,284.8z"/>
<path class="st13" d="M542,284.8c1.2,0,2.2,1,2.2,2.2l0,0v38.1l0,0c0,1.2-1,2.2-2.2,2.2l0,0l0,0H375.3l0,0c-1.2,0-2.2-1-2.2-2.2l0,0
	V287c0-1.2,1-2.2,2.2-2.2l0,0H542L542,284.8L542,284.8z"/>
<text transform="matrix(0.85 0 0 1 428.665 302.1642)" class="st5 st6">«DataType»</text>
<text transform="matrix(0.85 0 -0.3169 0.9485 417.3792 316.8954)" class="st5 st14">u</text>
<text transform="matrix(0.85 0 -0.3169 0.9485 417.3792 316.8954)" class="st15 st5 st14">u</text>
<text transform="matrix(0.85 0 -0.3169 0.9485 424.3186 316.8954)" class="st5 st14">r</text>
<text transform="matrix(0.85 0 -0.3169 0.9485 424.3186 316.8954)" class="st15 st5 st14">r</text>
<text transform="matrix(0.85 0 -0.3169 0.9485 428.6487 316.8954)" class="st5 st14">o</text>
<text transform="matrix(0.85 0 -0.3169 0.9485 428.6487 316.8954)" class="st15 st5 st14">o</text>
<text transform="matrix(0.85 0 -0.3169 0.9485 435.5882 316.8954)" class="st5 st14">:</text>
<text transform="matrix(0.85 0 -0.3169 0.9485 435.5882 316.8954)" class="st15 st5 st14">:</text>
<text transform="matrix(0.85 0 -0.3169 0.9485 438.1819 316.8954)" class="st5 st14">:</text>
<text transform="matrix(0.85 0 -0.3169 0.9485 438.1819 316.8954)" class="st15 st5 st14">:</text>
<text transform="matrix(0.85 0 -0.3169 0.9485 440.7757 316.8954)" class="st5 st14">I</text>
<text transform="matrix(0.85 0 -0.3169 0.9485 440.7757 316.8954)" class="st15 st5 st14">I</text>
<text transform="matrix(0.85 0 -0.3169 0.9485 444.2405 316.8954)" class="st5 st14">f</text>
<text transform="matrix(0.85 0 -0.3169 0.9485 444.2405 316.8954)" class="st15 st5 st14">f</text>
<text transform="matrix(0.85 0 -0.3169 0.9485 447.7171 316.8954)" class="st5 st14">c</text>
<text transform="matrix(0.85 0 -0.3169 0.9485 447.7171 316.8954)" class="st15 st5 st14">c</text>
<text transform="matrix(0.85 0 -0.3169 0.9485 452.93 316.8954)" class="st5 st14">A</text>
<text transform="matrix(0.85 0 -0.3169 0.9485 452.93 316.8954)" class="st15 st5 st14">A</text>
<text transform="matrix(0.85 0 -0.3169 0.9485 460.7386 316.8954)" class="st5 st14">t</text>
<text transform="matrix(0.85 0 -0.3169 0.9485 460.7386 316.8954)" class="st15 st5 st14">t</text>
<text transform="matrix(0.85 0 -0.3169 0.9485 465.0706 316.8954)" class="st5 st14">t</text>
<text transform="matrix(0.85 0 -0.3169 0.9485 465.0706 316.8954)" class="st15 st5 st14">t</text>
<text transform="matrix(0.85 0 -0.3169 0.9485 469.4026 316.8954)" class="st5 st14">r</text>
<text transform="matrix(0.85 0 -0.3169 0.9485 469.4026 316.8954)" class="st15 st5 st14">r</text>
<text transform="matrix(0.85 0 -0.3169 0.9485 473.7327 316.8954)" class="st5 st14">i</text>
<text transform="matrix(0.85 0 -0.3169 0.9485 473.7327 316.8954)" class="st15 st5 st14">i</text>
<text transform="matrix(0.85 0 -0.3169 0.9485 476.3421 316.8954)" class="st5 st14">b</text>
<text transform="matrix(0.85 0 -0.3169 0.9485 476.3421 316.8954)" class="st15 st5 st14">b</text>
<text transform="matrix(0.85 0 -0.3169 0.9485 483.2815 316.8954)" class="st5 st14">u</text>
<text transform="matrix(0.85 0 -0.3169 0.9485 483.2815 316.8954)" class="st15 st5 st14">u</text>
<text transform="matrix(0.85 0 -0.3169 0.9485 490.221 316.8954)" class="st5 st14">t</text>
<text transform="matrix(0.85 0 -0.3169 0.9485 490.221 316.8954)" class="st15 st5 st14">t</text>
<text transform="matrix(0.85 0 -0.3169 0.9485 494.553 316.8954)" class="st5 st14">e</text>
<text transform="matrix(0.85 0 -0.3169 0.9485 494.553 316.8954)" class="st15 st5 st14">e</text>
<path class="st12" d="M276.3,1050.5c1.2,0,2.2,1,2.2,2.2l0,0v88.3l0,0c0,1.2-1,2.2-2.2,2.2l0,0l0,0H30.6l0,0c-1.2,0-2.2-1-2.2-2.2
	l0,0v-88.3c0-1.2,1-2.2,2.2-2.2l0,0H276.3L276.3,1050.5L276.3,1050.5z"/>
<path class="st8" d="M273.7,1047.9c1.2,0,2.2,1,2.2,2.2l0,0v88.3l0,0c0,1.2-1,2.2-2.2,2.2l0,0l0,0H28l0,0c-1.2,0-2.2-1-2.2-2.2l0,0
	v-88.3c0-1.2,1-2.2,2.2-2.2l0,0H273.7L273.7,1047.9L273.7,1047.9z"/>
<path class="st13" d="M273.7,1047.9c1.2,0,2.2,1,2.2,2.2l0,0v88.3l0,0c0,1.2-1,2.2-2.2,2.2l0,0l0,0H28l0,0c-1.2,0-2.2-1-2.2-2.2l0,0
	v-88.3c0-1.2,1-2.2,2.2-2.2l0,0H273.7L273.7,1047.9L273.7,1047.9z"/>
<text transform="matrix(0.85 0 0 1 121.3521 1065.2268)" class="st5 st6">«DataType»</text>
<text transform="matrix(0.85 0 0 1 111.8062 1079.9612)" class="st16 st6">uro::IfcBuilding</text>
<line class="st13" x1="25.9" y1="1086.9" x2="275.9" y2="1086.9"/>
<text transform="matrix(0.85 0 0 1 30.1968 1102.4768)" class="st5 st6">+ elevationOfRefHeight: gml::LengthType [0..1]</text>
<text transform="matrix(0.85 0 0 1 30.1968 1117.1956)" class="st5 st6">+ elevationOfTerrain: gml::LengthType [0..1]</text>
<text transform="matrix(0.85 0 0 1 30.1968 1131.9299)" class="st5 st6">+ buildingAddress: Address [0..1]</text>
<path class="st12" d="M989,998.5c1.2,0,2.2,1,2.2,2.2l0,0v56.3l0,0c0,1.2-1,2.2-2.2,2.2l0,0l0,0H829.3l0,0c-1.2,0-2.2-1-2.2-2.2l0,0
	v-56.3c0-1.2,1-2.2,2.2-2.2l0,0H989L989,998.5L989,998.5z"/>
<path class="st8" d="M986.4,995.9c1.2,0,2.2,1,2.2,2.2l0,0v56.3l0,0c0,1.2-1,2.2-2.2,2.2l0,0l0,0H826.7l0,0c-1.2,0-2.2-1-2.2-2.2
	l0,0v-56.3c0-1.2,1-2.2,2.2-2.2l0,0H986.4L986.4,995.9L986.4,995.9z"/>
<path class="st13" d="M986.4,995.9c1.2,0,2.2,1,2.2,2.2l0,0v56.3l0,0c0,1.2-1,2.2-2.2,2.2l0,0l0,0H826.7l0,0c-1.2,0-2.2-1-2.2-2.2
	l0,0v-56.3c0-1.2,1-2.2,2.2-2.2l0,0H986.4L986.4,995.9L986.4,995.9z"/>
<text transform="matrix(0.85 0 0 1 868.79 1013.258)" class="st5 st6">«enumeration»</text>
<text transform="matrix(0.85 0 0 1 862.7119 1027.9768)" class="st16 st6">uro::IfcUnitEnum</text>
<path class="st12" d="M538.5,790.7c1.2,0,2.2,1,2.2,2.2l0,0v100.5l0,0c0,1.2-1,2.2-2.2,2.2l0,0l0,0H186.9l0,0c-1.2,0-2.2-1-2.2-2.2
	l0,0V792.8c0-1.2,1-2.2,2.2-2.2l0,0h351.6V790.7L538.5,790.7z"/>
<path class="st8" d="M535.9,788.1c1.2,0,2.2,1,2.2,2.2l0,0v100.5l0,0c0,1.2-1,2.2-2.2,2.2l0,0l0,0H184.3l0,0c-1.2,0-2.2-1-2.2-2.2
	l0,0V790.2c0-1.2,1-2.2,2.2-2.2l0,0L535.9,788.1L535.9,788.1L535.9,788.1z"/>
<path class="st13" d="M535.9,788.1c1.2,0,2.2,1,2.2,2.2l0,0v100.5l0,0c0,1.2-1,2.2-2.2,2.2l0,0l0,0H184.3l0,0c-1.2,0-2.2-1-2.2-2.2
	l0,0V790.2c0-1.2,1-2.2,2.2-2.2l0,0L535.9,788.1L535.9,788.1L535.9,788.1z"/>
<text transform="matrix(0.85 0 0 1 330.5718 805.4142)" class="st5 st6">«DataType»</text>
<text transform="matrix(0.85 0 0 1 324.4927 820.1174)" class="st16 st6">uro::IfcProject</text>
<line class="st13" x1="182.1" y1="827" x2="538.1" y2="827"/>
<text transform="matrix(0.85 0 0 1 186.4624 842.633)" class="st5 st6">+ longName: xs::string [0..1]</text>
<text transform="matrix(0.85 0 0 1 186.4624 857.3517)" class="st5 st6">+ phase: xs::string [0..1]</text>
<text transform="matrix(0.85 0 0 1 186.4624 872.0861)" class="st5 st6">+ representationContexts: IfcGeometricRepresentationContext [0..1]</text>
<text transform="matrix(0.85 0 0 1 186.4624 886.8205)" class="st5 st6">+ unitsInContext: IfcUnit [0..*]</text>
<path class="st12" d="M803.3,1033.2c1.2,0,2.2,1,2.2,2.2l0,0v129.9l0,0c0,1.2-1,2.2-2.2,2.2l0,0l0,0H551.5l0,0c-1.2,0-2.2-1-2.2-2.2
	l0,0v-129.9c0-1.2,1-2.2,2.2-2.2l0,0H803.3L803.3,1033.2L803.3,1033.2z"/>
<path class="st8" d="M800.7,1030.6c1.2,0,2.2,1,2.2,2.2l0,0v129.9l0,0c0,1.2-1,2.2-2.2,2.2l0,0l0,0H548.9l0,0c-1.2,0-2.2-1-2.2-2.2
	l0,0v-129.9c0-1.2,1-2.2,2.2-2.2l0,0H800.7L800.7,1030.6L800.7,1030.6z"/>
<path class="st13" d="M800.7,1030.6c1.2,0,2.2,1,2.2,2.2l0,0v129.9l0,0c0,1.2-1,2.2-2.2,2.2l0,0l0,0H548.9l0,0c-1.2,0-2.2-1-2.2-2.2
	l0,0v-129.9c0-1.2,1-2.2,2.2-2.2l0,0H800.7L800.7,1030.6L800.7,1030.6z"/>
<text transform="matrix(0.85 0 0 1 644.8213 1047.9143)" class="st5 st6">«DataType»</text>
<text transform="matrix(0.85 0 0 1 569.29 1062.6331)" class="st16 st6">uro::IfcGeometricRepresentationContext</text>
<line class="st13" x1="546.7" y1="1069.6" x2="802.8" y2="1069.6"/>
<text transform="matrix(0.85 0 0 1 -7646.5171 -7588.8633)" class="st5" style="font-size:5.6299px;">i</text>
<text transform="matrix(0.85 0 0 1 551.0713 1085.1487)" class="st5 st6">+ contextIdentifer: xs::string [0..1]</text>
<text transform="matrix(0.85 0 0 1 551.0713 1099.8831)" class="st5 st6">+ contextType: xs::string [0..1]</text>
<text transform="matrix(0.85 0 0 1 551.0713 1114.6018)" class="st5 st6">+ coordinateSpaceDimension: xs::integer [0..1]</text>
<text transform="matrix(0.85 0 0 1 551.0713 1129.3362)" class="st5 st6">+ precision: xs::double [0..1]</text>
<text transform="matrix(0.85 0 0 1 551.0713 1144.0549)" class="st5 st6">+ worldCoordinateSystem: IfcAxis2Placement3D</text>
<text transform="matrix(0.85 0 0 1 551.0713 1158.7893)" class="st5 st6">+ trueNorth: xs::doubleList [0..1]</text>
<path class="st12" d="M1018.6,1067.8c1.2,0,2.2,1,2.2,2.2l0,0v85.7l0,0c0,1.2-1,2.2-2.2,2.2l0,0l0,0H829.3l0,0c-1.2,0-2.2-1-2.2-2.2
	l0,0V1070c0-1.2,1-2.2,2.2-2.2l0,0H1018.6L1018.6,1067.8L1018.6,1067.8z"/>
<path class="st8" d="M1015.9,1065.2c1.2,0,2.2,1,2.2,2.2l0,0v85.7l0,0c0,1.2-1,2.2-2.2,2.2l0,0l0,0H826.7l0,0c-1.2,0-2.2-1-2.2-2.2
	l0,0v-85.7c0-1.2,1-2.2,2.2-2.2l0,0H1015.9L1015.9,1065.2L1015.9,1065.2z"/>
<path class="st13" d="M1015.9,1065.2c1.2,0,2.2,1,2.2,2.2l0,0v85.7l0,0c0,1.2-1,2.2-2.2,2.2l0,0l0,0H826.7l0,0c-1.2,0-2.2-1-2.2-2.2
	l0,0v-85.7c0-1.2,1-2.2,2.2-2.2l0,0H1015.9L1015.9,1065.2L1015.9,1065.2z"/>
<text transform="matrix(0.85 0 0 1 891.3682 1082.5549)" class="st5 st6">«DataType»</text>
<text transform="matrix(0.85 0 0 1 855.7744 1097.2893)" class="st16 st6">uro::IfcAxis2Placement3D</text>
<line class="st13" x1="824.5" y1="1104.2" x2="1018.1" y2="1104.2"/>
<text transform="matrix(0.85 0 0 1 828.8682 1119.8049)" class="st5 st6">+ location: Point</text>
<text transform="matrix(0.85 0 0 1 828.8682 1134.5237)" class="st5 st6">+ axis: gml:doubleList [0..1]</text>
<text transform="matrix(0.85 0 0 1 828.8682 1149.2581)" class="st5 st6">+ refDirection: gml:doubleList [0..1]</text>
<path class="st12" d="M523.7,1050.5c1.2,0,2.2,1,2.2,2.2l0,0v115.2l0,0c0,1.2-1,2.2-2.2,2.2l0,0l0,0H325.8l0,0c-1.2,0-2.2-1-2.2-2.2
	l0,0v-115.2c0-1.2,1-2.2,2.2-2.2l0,0H523.7L523.7,1050.5L523.7,1050.5z"/>
<path class="st8" d="M521.1,1047.9c1.2,0,2.2,1,2.2,2.2l0,0v115.2l0,0c0,1.2-1,2.2-2.2,2.2l0,0l0,0H323.2l0,0c-1.2,0-2.2-1-2.2-2.2
	l0,0v-115.2c0-1.2,1-2.2,2.2-2.2l0,0H521.1L521.1,1047.9L521.1,1047.9z"/>
<path class="st13" d="M521.1,1047.9c1.2,0,2.2,1,2.2,2.2l0,0v115.2l0,0c0,1.2-1,2.2-2.2,2.2l0,0l0,0H323.2l0,0c-1.2,0-2.2-1-2.2-2.2
	l0,0v-115.2c0-1.2,1-2.2,2.2-2.2l0,0H521.1L521.1,1047.9L521.1,1047.9z"/>
<text transform="matrix(0.85 0 0 1 392.1968 1065.2268)" class="st5 st6">«DataType»</text>
<text transform="matrix(0.85 0 0 1 394.8062 1079.9612)" class="st16 st6">uro::IfcSite</text>
<line class="st13" x1="321" y1="1086.9" x2="523.3" y2="1086.9"/>
<text transform="matrix(0.85 0 0 1 325.3521 1102.4768)" class="st5 st6">+ refLongitude: xs::double [0..1]</text>
<text transform="matrix(0.85 0 0 1 325.3521 1117.1956)" class="st5 st6">+ refLatitude: xs::double [0..1]</text>
<text transform="matrix(0.85 0 0 1 325.3521 1131.9299)" class="st5 st6">+ refElevation: gml::LengthType [0..1]</text>
<text transform="matrix(0.85 0 0 1 325.3521 1146.6643)" class="st5 st6">+ landTitleNumber: xs::string [0..1]</text>
<text transform="matrix(0.85 0 0 1 325.3521 1161.3831)" class="st5 st6">+ siteAddress: Address [0..1]</text>
<path class="st12" d="M223.4,427.8c1.2,0,2.2,1,2.2,2.2l0,0v85.7l0,0c0,1.2-1,2.2-2.2,2.2l0,0l0,0H56.7l0,0c-1.2,0-2.2-1-2.2-2.2
	l0,0V430c0-1.2,1-2.2,2.2-2.2l0,0H223.4L223.4,427.8L223.4,427.8z"/>
<path class="st8" d="M220.8,425.2c1.2,0,2.2,1,2.2,2.2l0,0v85.7l0,0c0,1.2-1,2.2-2.2,2.2l0,0l0,0H54.1l0,0c-1.2,0-2.2-1-2.2-2.2l0,0
	v-85.7c0-1.2,1-2.2,2.2-2.2l0,0H220.8L220.8,425.2L220.8,425.2z"/>
<path class="st13" d="M220.8,425.2c1.2,0,2.2,1,2.2,2.2l0,0v85.7l0,0c0,1.2-1,2.2-2.2,2.2l0,0l0,0H54.1l0,0c-1.2,0-2.2-1-2.2-2.2
	l0,0v-85.7c0-1.2,1-2.2,2.2-2.2l0,0H220.8L220.8,425.2L220.8,425.2z"/>
<text transform="matrix(0.85 0 0 1 107.4624 442.4767)" class="st5 st6">«DataType»</text>
<text transform="matrix(0.85 0 -0.3169 0.9485 107.4547 457.2086)" class="st5 st14">u</text>
<text transform="matrix(0.85 0 -0.3169 0.9485 107.4547 457.2086)" class="st15 st5 st14">u</text>
<text transform="matrix(0.85 0 -0.3169 0.9485 114.3941 457.2086)" class="st5 st14">r</text>
<text transform="matrix(0.85 0 -0.3169 0.9485 114.3941 457.2086)" class="st15 st5 st14">r</text>
<text transform="matrix(0.85 0 -0.3169 0.9485 118.7242 457.2086)" class="st5 st14">o</text>
<text transform="matrix(0.85 0 -0.3169 0.9485 118.7242 457.2086)" class="st15 st5 st14">o</text>
<text transform="matrix(0.85 0 -0.3169 0.9485 125.6637 457.2086)" class="st5 st14">:</text>
<text transform="matrix(0.85 0 -0.3169 0.9485 125.6637 457.2086)" class="st15 st5 st14">:</text>
<text transform="matrix(0.85 0 -0.3169 0.9485 128.2574 457.2086)" class="st5 st14">:</text>
<text transform="matrix(0.85 0 -0.3169 0.9485 128.2574 457.2086)" class="st15 st5 st14">:</text>
<text transform="matrix(0.85 0 -0.3169 0.9485 130.8512 457.2086)" class="st5 st14">I</text>
<text transform="matrix(0.85 0 -0.3169 0.9485 130.8512 457.2086)" class="st15 st5 st14">I</text>
<text transform="matrix(0.85 0 -0.3169 0.9485 134.316 457.2086)" class="st5 st14">f</text>
<text transform="matrix(0.85 0 -0.3169 0.9485 134.316 457.2086)" class="st15 st5 st14">f</text>
<text transform="matrix(0.85 0 -0.3169 0.9485 137.7926 457.2086)" class="st5 st14">c</text>
<text transform="matrix(0.85 0 -0.3169 0.9485 137.7926 457.2086)" class="st15 st5 st14">c</text>
<text transform="matrix(0.85 0 -0.3169 0.9485 143.0055 457.2086)" class="st5 st14">R</text>
<text transform="matrix(0.85 0 -0.3169 0.9485 143.0055 457.2086)" class="st15 st5 st14">R</text>
<text transform="matrix(0.85 0 -0.3169 0.9485 149.9469 457.2086)" class="st5 st14">o</text>
<text transform="matrix(0.85 0 -0.3169 0.9485 149.9469 457.2086)" class="st15 st5 st14">o</text>
<text transform="matrix(0.85 0 -0.3169 0.9485 156.8863 457.2086)" class="st5 st14">o</text>
<text transform="matrix(0.85 0 -0.3169 0.9485 156.8863 457.2086)" class="st15 st5 st14">o</text>
<text transform="matrix(0.85 0 -0.3169 0.9485 163.8277 457.2086)" class="st5 st14">t</text>
<text transform="matrix(0.85 0 -0.3169 0.9485 163.8277 457.2086)" class="st15 st5 st14">t</text>
<line class="st13" x1="51.9" y1="464.1" x2="222.9" y2="464.1"/>
<text transform="matrix(0.85 0 0 1 56.2427 479.7267)" class="st5 st6">+ globalId: xs::string [0..1]</text>
<text transform="matrix(0.85 0 0 1 56.2427 494.4455)" class="st5 st6">+ name: xs::string [0..1]</text>
<text transform="matrix(0.85 0 0 1 56.2427 509.1799)" class="st5 st6">+ description: xs::string [0..1]</text>
<path class="st12" d="M207.7,556.8c1.2,0,2.2,1,2.2,2.2l0,0v37.2l0,0c0,1.2-1,2.2-2.2,2.2l0,0l0,0H65.4l0,0c-1.2,0-2.2-1-2.2-2.2
	l0,0V559c0-1.2,1-2.2,2.2-2.2l0,0H207.7L207.7,556.8L207.7,556.8z"/>
<path class="st8" d="M205.1,554.2c1.2,0,2.2,1,2.2,2.2l0,0v37.2l0,0c0,1.2-1,2.2-2.2,2.2l0,0l0,0H62.8l0,0c-1.2,0-2.2-1-2.2-2.2l0,0
	v-37.2c0-1.2,1-2.2,2.2-2.2l0,0H205.1L205.1,554.2L205.1,554.2z"/>
<path class="st13" d="M205.1,554.2c1.2,0,2.2,1,2.2,2.2l0,0v37.2l0,0c0,1.2-1,2.2-2.2,2.2l0,0l0,0H62.8l0,0c-1.2,0-2.2-1-2.2-2.2
	l0,0v-37.2c0-1.2,1-2.2,2.2-2.2l0,0H205.1L205.1,554.2L205.1,554.2z"/>
<text transform="matrix(0.85 0 0 1 103.9927 571.5392)" class="st5 st6">«DataType»</text>
<text transform="matrix(0.85 0 -0.3169 0.9485 74.4651 586.2589)" class="st5 st14">u</text>
<text transform="matrix(0.85 0 -0.3169 0.9485 74.4651 586.2589)" class="st15 st5 st14">u</text>
<text transform="matrix(0.85 0 -0.3169 0.9485 81.4045 586.2589)" class="st5 st14">r</text>
<text transform="matrix(0.85 0 -0.3169 0.9485 81.4045 586.2589)" class="st15 st5 st14">r</text>
<text transform="matrix(0.85 0 -0.3169 0.9485 85.7346 586.2589)" class="st5 st14">o</text>
<text transform="matrix(0.85 0 -0.3169 0.9485 85.7346 586.2589)" class="st15 st5 st14">o</text>
<text transform="matrix(0.85 0 -0.3169 0.9485 92.6741 586.2589)" class="st5 st14">:</text>
<text transform="matrix(0.85 0 -0.3169 0.9485 92.6741 586.2589)" class="st15 st5 st14">:</text>
<text transform="matrix(0.85 0 -0.3169 0.9485 95.2678 586.2589)" class="st5 st14">:</text>
<text transform="matrix(0.85 0 -0.3169 0.9485 95.2678 586.2589)" class="st15 st5 st14">:</text>
<text transform="matrix(0.85 0 -0.3169 0.9485 97.8616 586.2589)" class="st5 st14">I</text>
<text transform="matrix(0.85 0 -0.3169 0.9485 97.8616 586.2589)" class="st15 st5 st14">I</text>
<text transform="matrix(0.85 0 -0.3169 0.9485 101.3264 586.2589)" class="st5 st14">f</text>
<text transform="matrix(0.85 0 -0.3169 0.9485 101.3264 586.2589)" class="st15 st5 st14">f</text>
<text transform="matrix(0.85 0 -0.3169 0.9485 104.803 586.2589)" class="st5 st14">c</text>
<text transform="matrix(0.85 0 -0.3169 0.9485 104.803 586.2589)" class="st15 st5 st14">c</text>
<text transform="matrix(0.85 0 -0.3169 0.9485 110.0159 586.2589)" class="st5 st14">O</text>
<text transform="matrix(0.85 0 -0.3169 0.9485 110.0159 586.2589)" class="st15 st5 st14">O</text>
<text transform="matrix(0.85 0 -0.3169 0.9485 118.6936 586.2589)" class="st5 st14">b</text>
<text transform="matrix(0.85 0 -0.3169 0.9485 118.6936 586.2589)" class="st15 st5 st14">b</text>
<text transform="matrix(0.85 0 -0.3169 0.9485 125.6331 586.2589)" class="st5 st14">j</text>
<text transform="matrix(0.85 0 -0.3169 0.9485 125.6331 586.2589)" class="st15 st5 st14">j</text>
<text transform="matrix(0.85 0 -0.3169 0.9485 128.2405 586.2589)" class="st5 st14">e</text>
<text transform="matrix(0.85 0 -0.3169 0.9485 128.2405 586.2589)" class="st15 st5 st14">e</text>
<text transform="matrix(0.85 0 -0.3169 0.9485 134.3128 586.2589)" class="st5 st14">c</text>
<text transform="matrix(0.85 0 -0.3169 0.9485 134.3128 586.2589)" class="st15 st5 st14">c</text>
<text transform="matrix(0.85 0 -0.3169 0.9485 139.5257 586.2589)" class="st5 st14">t</text>
<text transform="matrix(0.85 0 -0.3169 0.9485 139.5257 586.2589)" class="st15 st5 st14">t</text>
<text transform="matrix(0.85 0 -0.3169 0.9485 143.8577 586.2589)" class="st5 st14">D</text>
<text transform="matrix(0.85 0 -0.3169 0.9485 143.8577 586.2589)" class="st15 st5 st14">D</text>
<text transform="matrix(0.85 0 -0.3169 0.9485 151.6799 586.2589)" class="st5 st14">e</text>
<text transform="matrix(0.85 0 -0.3169 0.9485 151.6799 586.2589)" class="st15 st5 st14">e</text>
<text transform="matrix(0.85 0 -0.3169 0.9485 157.7503 586.2589)" class="st5 st14">f</text>
<text transform="matrix(0.85 0 -0.3169 0.9485 157.7503 586.2589)" class="st15 st5 st14">f</text>
<text transform="matrix(0.85 0 -0.3169 0.9485 -7646.5181 -7588.8643)" class="st5" style="font-size:5.9364px;">i</text>
<text transform="matrix(0.85 0 -0.3169 0.9485 -7646.5181 -7588.8643)" class="st5" style="fill:none;stroke:#000000;stroke-width:0.1609;stroke-miterlimit:10; font-size:5.9364px;">i</text>
<text transform="matrix(0.85 0 -0.3169 0.9485 164.4983 586.2589)" class="st5 st14">n</text>
<text transform="matrix(0.85 0 -0.3169 0.9485 164.4983 586.2589)" class="st15 st5 st14">n</text>
<text transform="matrix(0.85 0 -0.3169 0.9485 171.4378 586.2589)" class="st5 st14">i</text>
<text transform="matrix(0.85 0 -0.3169 0.9485 171.4378 586.2589)" class="st15 st5 st14">i</text>
<text transform="matrix(0.85 0 -0.3169 0.9485 174.0471 586.2589)" class="st5 st14">t</text>
<text transform="matrix(0.85 0 -0.3169 0.9485 174.0471 586.2589)" class="st15 st5 st14">t</text>
<text transform="matrix(0.85 0 -0.3169 0.9485 178.3792 586.2589)" class="st5 st14">i</text>
<text transform="matrix(0.85 0 -0.3169 0.9485 178.3792 586.2589)" class="st15 st5 st14">i</text>
<text transform="matrix(0.85 0 -0.3169 0.9485 180.9885 586.2589)" class="st5 st14">o</text>
<text transform="matrix(0.85 0 -0.3169 0.9485 180.9885 586.2589)" class="st15 st5 st14">o</text>
<text transform="matrix(0.85 0 -0.3169 0.9485 187.928 586.2589)" class="st5 st14">n</text>
<text transform="matrix(0.85 0 -0.3169 0.9485 187.928 586.2589)" class="st15 st5 st14">n</text>
<path class="st12" d="M230.3,652.1c1.2,0,2.2,1,2.2,2.2l0,0v64.1l0,0c0,1.2-1,2.2-2.2,2.2l0,0l0,0H74l0,0c-1.2,0-2.2-1-2.2-2.2l0,0
	v-64.1c0-1.2,1-2.2,2.2-2.2l0,0H230.3L230.3,652.1L230.3,652.1z"/>
<path class="st8" d="M227.7,649.5c1.2,0,2.2,1,2.2,2.2l0,0v64.1l0,0c0,1.2-1,2.2-2.2,2.2l0,0l0,0H71.4l0,0c-1.2,0-2.2-1-2.2-2.2l0,0
	v-64.1c0-1.2,1-2.2,2.2-2.2l0,0H227.7L227.7,649.5L227.7,649.5z"/>
<path class="st13" d="M227.7,649.5c1.2,0,2.2,1,2.2,2.2l0,0v64.1l0,0c0,1.2-1,2.2-2.2,2.2l0,0l0,0H71.4l0,0c-1.2,0-2.2-1-2.2-2.2
	l0,0v-64.1c0-1.2,1-2.2,2.2-2.2l0,0H227.7L227.7,649.5L227.7,649.5z"/>
<text transform="matrix(0.85 0 0 1 119.6177 666.8205)" class="st5 st6">«DataType»</text>
<text transform="matrix(0.85 0 -0.3169 0.9485 115.286 681.5498)" class="st5 st14">u</text>
<text transform="matrix(0.85 0 -0.3169 0.9485 115.286 681.5498)" class="st15 st5 st14">u</text>
<text transform="matrix(0.85 0 -0.3169 0.9485 122.2254 681.5498)" class="st5 st14">r</text>
<text transform="matrix(0.85 0 -0.3169 0.9485 122.2254 681.5498)" class="st15 st5 st14">r</text>
<text transform="matrix(0.85 0 -0.3169 0.9485 126.5555 681.5498)" class="st5 st14">o</text>
<text transform="matrix(0.85 0 -0.3169 0.9485 126.5555 681.5498)" class="st15 st5 st14">o</text>
<text transform="matrix(0.85 0 -0.3169 0.9485 133.495 681.5498)" class="st5 st14">:</text>
<text transform="matrix(0.85 0 -0.3169 0.9485 133.495 681.5498)" class="st15 st5 st14">:</text>
<text transform="matrix(0.85 0 -0.3169 0.9485 136.0887 681.5498)" class="st5 st14">:</text>
<text transform="matrix(0.85 0 -0.3169 0.9485 136.0887 681.5498)" class="st15 st5 st14">:</text>
<text transform="matrix(0.85 0 -0.3169 0.9485 138.6825 681.5498)" class="st5 st14">I</text>
<text transform="matrix(0.85 0 -0.3169 0.9485 138.6825 681.5498)" class="st15 st5 st14">I</text>
<text transform="matrix(0.85 0 -0.3169 0.9485 142.1473 681.5498)" class="st5 st14">f</text>
<text transform="matrix(0.85 0 -0.3169 0.9485 142.1473 681.5498)" class="st15 st5 st14">f</text>
<text transform="matrix(0.85 0 -0.3169 0.9485 145.6239 681.5498)" class="st5 st14">c</text>
<text transform="matrix(0.85 0 -0.3169 0.9485 145.6239 681.5498)" class="st15 st5 st14">c</text>
<text transform="matrix(0.85 0 -0.3169 0.9485 150.8368 681.5498)" class="st5 st14">O</text>
<text transform="matrix(0.85 0 -0.3169 0.9485 150.8368 681.5498)" class="st15 st5 st14">O</text>
<text transform="matrix(0.85 0 -0.3169 0.9485 159.5145 681.5498)" class="st5 st14">b</text>
<text transform="matrix(0.85 0 -0.3169 0.9485 159.5145 681.5498)" class="st15 st5 st14">b</text>
<text transform="matrix(0.85 0 -0.3169 0.9485 166.454 681.5498)" class="st5 st14">j</text>
<text transform="matrix(0.85 0 -0.3169 0.9485 166.454 681.5498)" class="st15 st5 st14">j</text>
<text transform="matrix(0.85 0 -0.3169 0.9485 169.0614 681.5498)" class="st5 st14">e</text>
<text transform="matrix(0.85 0 -0.3169 0.9485 169.0614 681.5498)" class="st15 st5 st14">e</text>
<text transform="matrix(0.85 0 -0.3169 0.9485 175.1337 681.5498)" class="st5 st14">c</text>
<text transform="matrix(0.85 0 -0.3169 0.9485 175.1337 681.5498)" class="st15 st5 st14">c</text>
<text transform="matrix(0.85 0 -0.3169 0.9485 180.3465 681.5498)" class="st5 st14">t</text>
<text transform="matrix(0.85 0 -0.3169 0.9485 180.3465 681.5498)" class="st15 st5 st14">t</text>
<line class="st13" x1="69.3" y1="688.5" x2="229.9" y2="688.5"/>
<text transform="matrix(0.85 0 0 1 73.6021 704.0549)" class="st5 st6">+ objectType: xs::string [0..1]</text>
<path class="st12" d="M325.8,903.3c1.2,0,2.2,1,2.2,2.2l0,0v71l0,0c0,1.2-1,2.2-2.2,2.2l0,0l0,0H39.3l0,0c-1.2,0-2.2-1-2.2-2.2l0,0
	v-71c0-1.2,1-2.2,2.2-2.2l0,0H325.8L325.8,903.3L325.8,903.3z"/>
<path class="st8" d="M323.2,900.7c1.2,0,2.2,1,2.2,2.2l0,0v71l0,0c0,1.2-1,2.2-2.2,2.2l0,0l0,0H36.7l0,0c-1.2,0-2.2-1-2.2-2.2l0,0
	v-71c0-1.2,1-2.2,2.2-2.2l0,0H323.2L323.2,900.7L323.2,900.7z"/>
<path class="st13" d="M323.2,900.7c1.2,0,2.2,1,2.2,2.2l0,0v71l0,0c0,1.2-1,2.2-2.2,2.2l0,0l0,0H36.7l0,0c-1.2,0-2.2-1-2.2-2.2l0,0
	v-71c0-1.2,1-2.2,2.2-2.2l0,0H323.2L323.2,900.7L323.2,900.7z"/>
<text transform="matrix(0.85 0 0 1 149.9927 917.9767)" class="st5 st6">«DataType»</text>
<text transform="matrix(0.85 0 0 1 99.6489 932.7111)" class="st16 st6">uro::IfcSpatialStructureElement</text>
<line class="st13" x1="34.5" y1="939.6" x2="325.4" y2="939.6"/>
<text transform="matrix(0.85 0 0 1 38.8833 955.2267)" class="st5 st6">+ longName: xs::string [0..1]</text>
<text transform="matrix(0.85 0 0 1 38.8833 969.9611)" class="st5 st6">+ compositionType: IfcElementCompositionEnum [0..1]</text>
<path class="st12" d="M155.6,799.3c1.2,0,2.2,1,2.2,2.2l0,0v46.8l0,0c0,1.2-1,2.2-2.2,2.2l0,0l0,0H74l0,0c-1.2,0-2.2-1-2.2-2.2l0,0
	v-46.8c0-1.2,1-2.2,2.2-2.2l0,0H155.6L155.6,799.3L155.6,799.3z"/>
<path class="st8" d="M153,796.7c1.2,0,2.2,1,2.2,2.2l0,0v46.8l0,0c0,1.2-1,2.2-2.2,2.2l0,0l0,0H71.4l0,0c-1.2,0-2.2-1-2.2-2.2l0,0
	v-46.8c0-1.2,1-2.2,2.2-2.2l0,0H153L153,796.7L153,796.7z"/>
<path class="st13" d="M153,796.7c1.2,0,2.2,1,2.2,2.2l0,0v46.8l0,0c0,1.2-1,2.2-2.2,2.2l0,0l0,0H71.4l0,0c-1.2,0-2.2-1-2.2-2.2l0,0
	v-46.8c0-1.2,1-2.2,2.2-2.2l0,0H153L153,796.7L153,796.7z"/>
<text transform="matrix(0.85 0 0 1 82.2896 814.0549)" class="st5 st6">«DataType»</text>
<text transform="matrix(0.85 0 -0.3169 0.9485 73.5955 828.7858)" class="st5 st14">u</text>
<text transform="matrix(0.85 0 -0.3169 0.9485 73.5955 828.7858)" class="st15 st5 st14">u</text>
<text transform="matrix(0.85 0 -0.3169 0.9485 80.5349 828.7858)" class="st5 st14">r</text>
<text transform="matrix(0.85 0 -0.3169 0.9485 80.5349 828.7858)" class="st15 st5 st14">r</text>
<text transform="matrix(0.85 0 -0.3169 0.9485 84.865 828.7858)" class="st5 st14">o</text>
<text transform="matrix(0.85 0 -0.3169 0.9485 84.865 828.7858)" class="st15 st5 st14">o</text>
<text transform="matrix(0.85 0 -0.3169 0.9485 91.8045 828.7858)" class="st5 st14">:</text>
<text transform="matrix(0.85 0 -0.3169 0.9485 91.8045 828.7858)" class="st15 st5 st14">:</text>
<text transform="matrix(0.85 0 -0.3169 0.9485 94.3982 828.7858)" class="st5 st14">:</text>
<text transform="matrix(0.85 0 -0.3169 0.9485 94.3982 828.7858)" class="st15 st5 st14">:</text>
<text transform="matrix(0.85 0 -0.3169 0.9485 96.992 828.7858)" class="st5 st14">I</text>
<text transform="matrix(0.85 0 -0.3169 0.9485 96.992 828.7858)" class="st15 st5 st14">I</text>
<text transform="matrix(0.85 0 -0.3169 0.9485 100.4568 828.7858)" class="st5 st14">f</text>
<text transform="matrix(0.85 0 -0.3169 0.9485 100.4568 828.7858)" class="st15 st5 st14">f</text>
<text transform="matrix(0.85 0 -0.3169 0.9485 103.9334 828.7858)" class="st5 st14">c</text>
<text transform="matrix(0.85 0 -0.3169 0.9485 103.9334 828.7858)" class="st15 st5 st14">c</text>
<text transform="matrix(0.85 0 -0.3169 0.9485 109.1462 828.7858)" class="st5 st14">P</text>
<text transform="matrix(0.85 0 -0.3169 0.9485 109.1462 828.7858)" class="st15 st5 st14">P</text>
<text transform="matrix(0.85 0 -0.3169 0.9485 116.0877 828.7858)" class="st5 st14">r</text>
<text transform="matrix(0.85 0 -0.3169 0.9485 116.0877 828.7858)" class="st15 st5 st14">r</text>
<text transform="matrix(0.85 0 -0.3169 0.9485 120.4158 828.7858)" class="st5 st14">o</text>
<text transform="matrix(0.85 0 -0.3169 0.9485 120.4158 828.7858)" class="st15 st5 st14">o</text>
<text transform="matrix(0.85 0 -0.3169 0.9485 127.3572 828.7858)" class="st5 st14">d</text>
<text transform="matrix(0.85 0 -0.3169 0.9485 127.3572 828.7858)" class="st15 st5 st14">d</text>
<text transform="matrix(0.85 0 -0.3169 0.9485 134.2947 828.7858)" class="st5 st14">u</text>
<text transform="matrix(0.85 0 -0.3169 0.9485 134.2947 828.7858)" class="st15 st5 st14">u</text>
<text transform="matrix(0.85 0 -0.3169 0.9485 141.2361 828.7858)" class="st5 st14">c</text>
<text transform="matrix(0.85 0 -0.3169 0.9485 141.2361 828.7858)" class="st15 st5 st14">c</text>
<text transform="matrix(0.85 0 -0.3169 0.9485 146.449 828.7858)" class="st5 st14">t</text>
<text transform="matrix(0.85 0 -0.3169 0.9485 146.449 828.7858)" class="st15 st5 st14">t</text>
<path class="st12" d="M443,426.9c1.2,0,2.2,1,2.2,2.2l0,0v113.5l0,0c0,1.2-1,2.2-2.2,2.2l0,0l0,0H247.7l0,0c-1.2,0-2.2-1-2.2-2.2
	l0,0V429.1c0-1.2,1-2.2,2.2-2.2l0,0H443L443,426.9L443,426.9z"/>
<path class="st8" d="M440.4,424.3c1.2,0,2.2,1,2.2,2.2l0,0V540l0,0c0,1.2-1,2.2-2.2,2.2l0,0l0,0H245.1l0,0c-1.2,0-2.2-1-2.2-2.2l0,0
	V426.5c0-1.2,1-2.2,2.2-2.2l0,0H440.4L440.4,424.3L440.4,424.3z"/>
<path class="st13" d="M440.4,424.3c1.2,0,2.2,1,2.2,2.2l0,0V540l0,0c0,1.2-1,2.2-2.2,2.2l0,0l0,0H245.1l0,0c-1.2,0-2.2-1-2.2-2.2
	l0,0V426.5c0-1.2,1-2.2,2.2-2.2l0,0H440.4L440.4,424.3L440.4,424.3z"/>
<text transform="matrix(0.85 0 0 1 313.1968 441.6174)" class="st5 st6">«DataType»</text>
<text transform="matrix(0.85 0 0 1 251.5718 456.3517)" class="st16 st6">uro::IfcCoordinateReferenceSystem</text>
<line class="st13" x1="242.9" y1="463.3" x2="442.6" y2="463.3"/>
<text transform="matrix(0.85 0 0 1 247.2271 478.8674)" class="st5 st6">+ name: xs::string [0..1]</text>
<text transform="matrix(0.85 0 0 1 247.2271 493.5861)" class="st5 st6">+ description: xs::string [0..1]</text>
<text transform="matrix(0.85 0 0 1 247.2271 508.2892)" class="st5 st6">+ geodeticDatum: xs::string [0..1]</text>
<text transform="matrix(0.85 0 0 1 247.2271 523.0236)" class="st5 st6">+ verticalDatum: xs::string [0..1]</text>
<path class="st12" d="M758.1,426.9c1.2,0,2.2,1,2.2,2.2l0,0v159.4l0,0c0,1.2-1,2.2-2.2,2.2l0,0l0,0H464.7l0,0c-1.2,0-2.2-1-2.2-2.2
	l0,0V429.1c0-1.2,1-2.2,2.2-2.2l0,0H758.1L758.1,426.9L758.1,426.9z"/>
<path class="st8" d="M755.5,424.3c1.2,0,2.2,1,2.2,2.2l0,0v159.4l0,0c0,1.2-1,2.2-2.2,2.2l0,0l0,0H462.1l0,0c-1.2,0-2.2-1-2.2-2.2
	l0,0V426.5c0-1.2,1-2.2,2.2-2.2l0,0H755.5L755.5,424.3L755.5,424.3z"/>
<path class="st13" d="M755.5,424.3c1.2,0,2.2,1,2.2,2.2l0,0v159.4l0,0c0,1.2-1,2.2-2.2,2.2l0,0l0,0H462.1l0,0c-1.2,0-2.2-1-2.2-2.2
	l0,0V426.5c0-1.2,1-2.2,2.2-2.2l0,0H755.5L755.5,424.3L755.5,424.3z"/>
<text transform="matrix(0.85 0 0 1 578.8525 441.6174)" class="st5 st6">«DataType»</text>
<text transform="matrix(0.85 0 0 1 550.1963 456.3517)" class="st16 st6">uro::IfcMapConversion</text>
<line class="st13" x1="459.9" y1="463.3" x2="757.7" y2="463.3"/>
<text transform="matrix(0.85 0 0 1 464.2588 478.8674)" class="st5 st6">+ sourceCRS: IfcCoordinateReferenceSystemSelect [0..1]</text>
<text transform="matrix(0.85 0 0 1 464.2588 493.5861)" class="st5 st6">+ targetCRS: IfcCoordinateReferenceSystem [0..1]</text>
<text transform="matrix(0.85 0 0 1 464.2588 508.2892)" class="st5 st6">+ eastings: gml::LengthType [0..1]</text>
<text transform="matrix(0.85 0 0 1 464.2588 523.0236)" class="st5 st6">+ northings: gml::LengthType [0..1]</text>
<text transform="matrix(0.85 0 0 1 464.2588 537.758)" class="st5 st6">+ orthogonalHeight: gml::LengthType [0..1]</text>
<text transform="matrix(0.85 0 0 1 464.2588 552.4767)" class="st5 st6">+ xAxisAbscissa: xs::double [0..1]</text>
<text transform="matrix(0.85 0 0 1 464.2588 567.1955)" class="st5 st6">+ XAxisOrdinate: xs::double [0..1]</text>
<text transform="matrix(0.85 0 0 1 464.2588 581.9299)" class="st5 st6">+ scale: xs::double [0..1]</text>
<path class="st12" d="M1063.7,695.4c1.2,0,2.2,1,2.2,2.2l0,0V798l0,0c0,1.2-1,2.2-2.2,2.2l0,0l0,0H898.8l0,0c-1.2,0-2.2-1-2.2-2.2
	l0,0V697.6c0-1.2,1-2.2,2.2-2.2l0,0L1063.7,695.4L1063.7,695.4L1063.7,695.4z"/>
<path class="st8" d="M1061.1,692.8c1.2,0,2.2,1,2.2,2.2l0,0v100.5l0,0c0,1.2-1,2.2-2.2,2.2l0,0l0,0h-165l0,0c-1.2,0-2.2-1-2.2-2.2
	l0,0V695c0-1.2,1-2.2,2.2-2.2l0,0H1061.1L1061.1,692.8L1061.1,692.8z"/>
<path class="st13" d="M1061.1,692.8c1.2,0,2.2,1,2.2,2.2l0,0v100.5l0,0c0,1.2-1,2.2-2.2,2.2l0,0l0,0h-165l0,0c-1.2,0-2.2-1-2.2-2.2
	l0,0V695c0-1.2,1-2.2,2.2-2.2l0,0H1061.1L1061.1,692.8L1061.1,692.8z"/>
<text transform="matrix(0.85 0 0 1 948.665 710.1174)" class="st5 st6">«DataType»</text>
<text transform="matrix(0.85 0 0 1 950.3994 724.8361)" class="st16 st6">uro::IfcUnit</text>
<line class="st13" x1="894" y1="731.8" x2="1063.3" y2="731.8"/>
<text transform="matrix(0.85 0 0 1 898.3213 747.3517)" class="st5 st6">+ dimensions: xs::integer [0..1]</text>
<text transform="matrix(0.85 0 0 1 898.3213 762.0861)" class="st5 st6">+ unitType: IfcUnitEnum [0..1]</text>
<text transform="matrix(0.85 0 0 1 -7646.5171 -7588.8633)" class="st5" style="font-size:5.6299px;">i</text>
<text transform="matrix(0.85 0 0 1 898.3213 776.8205)" class="st5 st6">+ prefx: xs::string [0..1]</text>
<text transform="matrix(0.85 0 0 1 898.3213 791.5392)" class="st5 st6">+ name: xs::string [0..1]</text>
<path class="st12" d="M794.6,946.6c1.2,0,2.2,1,2.2,2.2l0,0v71l0,0c0,1.2-1,2.2-2.2,2.2l0,0l0,0H551.5l0,0c-1.2,0-2.2-1-2.2-2.2l0,0
	v-71c0-1.2,1-2.2,2.2-2.2l0,0H794.6L794.6,946.6L794.6,946.6z"/>
<path class="st8" d="M792,944c1.2,0,2.2,1,2.2,2.2l0,0v71l0,0c0,1.2-1,2.2-2.2,2.2l0,0l0,0H548.9l0,0c-1.2,0-2.2-1-2.2-2.2l0,0v-71
	c0-1.2,1-2.2,2.2-2.2l0,0H792L792,944L792,944z"/>
<path class="st13" d="M792,944c1.2,0,2.2,1,2.2,2.2l0,0v71l0,0c0,1.2-1,2.2-2.2,2.2l0,0l0,0H548.9l0,0c-1.2,0-2.2-1-2.2-2.2l0,0v-71
	c0-1.2,1-2.2,2.2-2.2l0,0H792L792,944L792,944z"/>
<text transform="matrix(0.85 0 0 1 650.04 961.3049)" class="st5 st6">«Union»</text>
<text transform="matrix(0.85 0 0 1 564.0869 976.0392)" class="st16 st6">uro::IfcCoordinateReferenceSystemSelect</text>
<line class="st13" x1="546.7" y1="983" x2="794.1" y2="983"/>
<text transform="matrix(0.85 0 0 1 551.0713 998.5549)" class="st5 st6">+ crs: IfcCoordinateReferenceSystem</text>
<text transform="matrix(0.85 0 0 1 551.0713 1013.258)" class="st5 st6">+ context: IfcGeometricRepresentationContext</text>
<path class="st12" d="M430,582.8c1.2,0,2.2,1,2.2,2.2l0,0v90l0,0c0,1.2-1,2.2-2.2,2.2l0,0l0,0H256.3l0,0c-1.2,0-2.2-1-2.2-2.2l0,0
	v-90c0-1.2,1-2.2,2.2-2.2l0,0H430L430,582.8L430,582.8z"/>
<path class="st8" d="M427.4,580.2c1.2,0,2.2,1,2.2,2.2l0,0v90.1l0,0c0,1.2-1,2.2-2.2,2.2l0,0l0,0H253.7l0,0c-1.2,0-2.2-1-2.2-2.2
	l0,0v-90.1c0-1.2,1-2.2,2.2-2.2l0,0H427.4L427.4,580.2L427.4,580.2z"/>
<path class="st13" d="M427.4,580.2c1.2,0,2.2,1,2.2,2.2l0,0v90.1l0,0c0,1.2-1,2.2-2.2,2.2l0,0l0,0H253.7l0,0c-1.2,0-2.2-1-2.2-2.2
	l0,0v-90.1c0-1.2,1-2.2,2.2-2.2l0,0H427.4L427.4,580.2L427.4,580.2z"/>
<text transform="matrix(0.85 0 0 1 310.6021 597.508)" class="st5 st6">«DataType»</text>
<text transform="matrix(0.85 0 0 1 288.0239 612.2424)" class="st16 st6">uro::IfcProjectedCRS</text>
<line class="st13" x1="251.6" y1="619.2" x2="429.5" y2="619.2"/>
<text transform="matrix(0.85 0 0 1 255.9146 634.758)" class="st5 st6">+ mapUnit: xs::string [0..1]</text>
<text transform="matrix(0.85 0 0 1 255.9146 649.4924)" class="st5 st6">+ mapProjection: xs::string [0..1]</text>
<text transform="matrix(0.85 0 0 1 255.9146 664.2111)" class="st5 st6">+ mapZone: xs::string [0..1]</text>
<path class="st12" d="M843.2,608.8c1.2,0,2.2,1,2.2,2.2l0,0v203.5l0,0c0,1.2-1,2.2-2.2,2.2l0,0l0,0h-257l0,0c-1.2,0-2.2-1-2.2-2.2
	l0,0V610.9c0-1.2,1-2.2,2.2-2.2l0,0L843.2,608.8L843.2,608.8L843.2,608.8z"/>
<path class="st8" d="M840.6,606.2c1.2,0,2.2,1,2.2,2.2l0,0v203.5l0,0c0,1.2-1,2.2-2.2,2.2l0,0l0,0h-257l0,0c-1.2,0-2.2-1-2.2-2.2
	l0,0V608.3c0-1.2,1-2.2,2.2-2.2l0,0L840.6,606.2L840.6,606.2L840.6,606.2z"/>
<path class="st13" d="M840.6,606.2c1.2,0,2.2,1,2.2,2.2l0,0v203.5l0,0c0,1.2-1,2.2-2.2,2.2l0,0l0,0h-257l0,0c-1.2,0-2.2-1-2.2-2.2
	l0,0V608.3c0-1.2,1-2.2,2.2-2.2l0,0L840.6,606.2L840.6,606.2L840.6,606.2z"/>
<text transform="matrix(0.85 0 0 1 682.1494 623.508)" class="st5 st6">«DataType»</text>
<text transform="matrix(0.85 0 0 1 637.8838 638.2267)" class="st16 st6">uro::IfcPsetBuildingCommon</text>
<line class="st13" x1="581.5" y1="645.2" x2="842.8" y2="645.2"/>
<text transform="matrix(0.85 0 0 1 585.79 660.758)" class="st5 st6">+ buildingId: xs::string [0..1]</text>
<text transform="matrix(0.85 0 0 1 585.79 675.4767)" class="st5 st6">+ isPermanentId: xs::boolean [0..1]</text>
<text transform="matrix(0.85 0 0 1 585.79 690.1955)" class="st5 st6">+ mainFireUse: xs::string [0..1]</text>
<text transform="matrix(0.85 0 0 1 585.79 704.9142)" class="st5 st6">+ ancillaryFireUse: xs::string [0..1]</text>
<text transform="matrix(0.85 0 0 1 585.79 719.6486)" class="st5 st6">+ splinklerProtection: xs::boolean [0..1]</text>
<text transform="matrix(0.85 0 0 1 585.79 734.3674)" class="st5 st6">+ splinklerProtectionAutomatic: xs::boolean [0..1]</text>
<text transform="matrix(0.85 0 0 1 585.79 749.1017)" class="st5 st6">+ occupancyType: gml::CodeType [0..1]</text>
<text transform="matrix(0.85 0 0 1 585.79 763.8205)" class="st5 st6">+ grossPlannedArea: gml::MeasureType [0..1]</text>
<text transform="matrix(0.85 0 0 1 585.79 778.5549)" class="st5 st6">+ numberOfStoreys: xs::integer [0..1]</text>
<text transform="matrix(0.85 0 0 1 585.79 793.258)" class="st5 st6">+ yearOfConstruction: xs::gYear [0..1]</text>
<text transform="matrix(0.85 0 0 1 585.79 807.9767)" class="st5 st6">+ isLandMarked: xs::boolean [0..1]</text>
<path class="st12" d="M987.3,826.2c1.2,0,2.2,1,2.2,2.2l0,0v85.7l0,0c0,1.2-1,2.2-2.2,2.2l0,0l0,0H751.2l0,0c-1.2,0-2.2-1-2.2-2.2
	l0,0v-85.7c0-1.2,1-2.2,2.2-2.2l0,0H987.3L987.3,826.2L987.3,826.2z"/>
<path class="st8" d="M984.7,823.6c1.2,0,2.2,1,2.2,2.2l0,0v85.7l0,0c0,1.2-1,2.2-2.2,2.2l0,0l0,0H748.6l0,0c-1.2,0-2.2-1-2.2-2.2
	l0,0v-85.7c0-1.2,1-2.2,2.2-2.2l0,0H984.7L984.7,823.6L984.7,823.6z"/>
<path class="st13" d="M984.7,823.6c1.2,0,2.2,1,2.2,2.2l0,0v85.7l0,0c0,1.2-1,2.2-2.2,2.2l0,0l0,0H748.6l0,0c-1.2,0-2.2-1-2.2-2.2
	l0,0v-85.7c0-1.2,1-2.2,2.2-2.2l0,0H984.7L984.7,823.6L984.7,823.6z"/>
<text transform="matrix(0.85 0 0 1 836.6807 840.9142)" class="st5 st6">«DataType»</text>
<text transform="matrix(0.85 0 0 1 803.6963 855.633)" class="st16 st6">uro::IfcPsetSiteCommon</text>
<line class="st13" x1="746.4" y1="862.6" x2="986.9" y2="862.6"/>
<text transform="matrix(0.85 0 0 1 750.7275 878.133)" class="st5 st6">+ buildableArea: gml::MeasureType [0..1]</text>
<text transform="matrix(0.85 0 0 1 750.7275 892.8674)" class="st5 st6">+ totalArea: gml::MeasureType [0..1]</text>
<text transform="matrix(0.85 0 0 1 750.7275 907.6017)" class="st5 st6">+ buildingHeightLimit: gml::LengthType [0..1]</text>
<line class="st17" x1="472.9" y1="284" x2="472.9" y2="235.5"/>
<polyline class="st18" points="477.3,244.1 472.9,235.5 468.6,244.1 472.9,252.8 477.3,244.1 "/>
<polygon class="st17" points="477.3,244.1 472.9,235.5 468.6,244.1 472.9,252.8 "/>
<path class="st17" d="M472.9,284l5.2-13 M472.9,284l-5.2-13"/>
<line class="st17" x1="137.9" y1="1047" x2="137.9" y2="1020.2"/>
<line class="st17" x1="137.9" y1="1020.2" x2="180.4" y2="1020.2"/>
<line class="st17" x1="180.4" y1="1020.2" x2="180.4" y2="977.8"/>
<polyline class="st19" points="185.6,991.6 175.2,991.6 180.4,977.8 185.6,991.6 "/>
<polygon class="st17" points="185.6,991.6 175.2,991.6 180.4,977.8 "/>
<line class="st17" x1="375.7" y1="787.2" x2="375.7" y2="762.1"/>
<line class="st17" x1="375.7" y1="762.1" x2="150" y2="762.1"/>
<line class="st17" x1="150" y1="762.1" x2="150" y2="719.6"/>
<polyline class="st19" points="155.2,733.5 144.8,733.5 150,719.6 155.2,733.5 "/>
<polygon class="st17" points="155.2,733.5 144.8,733.5 150,719.6 "/>
<line class="st17" x1="421.7" y1="1047" x2="421.7" y2="1020.2"/>
<line class="st17" x1="421.7" y1="1020.2" x2="180.4" y2="1020.2"/>
<line class="st17" x1="155.2" y1="424.3" x2="155.2" y2="371.5"/>
<line class="st17" x1="155.2" y1="371.5" x2="459.1" y2="371.5"/>
<line class="st17" x1="459.1" y1="371.5" x2="459.1" y2="329"/>
<polyline class="st19" points="464.3,342.9 453.8,342.9 459.1,329 464.3,342.9 "/>
<polygon class="st17" points="464.3,342.9 453.8,342.9 459.1,329 "/>
<line class="st17" x1="147.4" y1="553.3" x2="147.4" y2="517"/>
<polyline class="st19" points="152.6,530.8 142.2,530.8 147.4,517 152.6,530.8 "/>
<polygon class="st17" points="152.6,530.8 142.2,530.8 147.4,517 "/>
<line class="st17" x1="149.1" y1="648.6" x2="149.1" y2="597.5"/>
<polyline class="st19" points="154.3,611.4 143.9,611.4 149.1,597.5 154.3,611.4 "/>
<polygon class="st17" points="154.3,611.4 143.9,611.4 149.1,597.5 "/>
<line class="st17" x1="114.4" y1="899.8" x2="114.4" y2="849.6"/>
<polyline class="st19" points="119.6,863.4 109.2,863.4 114.4,849.6 119.6,863.4 "/>
<polygon class="st17" points="119.6,863.4 109.2,863.4 114.4,849.6 "/>
<line class="st17" x1="112.7" y1="795.9" x2="112.7" y2="762.1"/>
<line class="st17" x1="112.7" y1="762.1" x2="150" y2="762.1"/>
<line class="st17" x1="342.7" y1="423.4" x2="342.7" y2="371.5"/>
<line class="st17" x1="607.5" y1="423.4" x2="607.5" y2="371.5"/>
<line class="st17" x1="335.8" y1="579.3" x2="335.8" y2="543.8"/>
<polyline class="st19" points="341,557.7 330.6,557.7 335.8,543.8 341,557.7 "/>
<polygon class="st17" points="341,557.7 330.6,557.7 335.8,543.8 "/>
<line class="st17" x1="784.6" y1="605.3" x2="784.6" y2="371.5"/>
<line class="st17" x1="860.1" y1="822.7" x2="860.1" y2="371.5"/>
<line class="st17" x1="860.1" y1="371.5" x2="459.1" y2="371.5"/>
<text transform="matrix(0.85 0 0 1 -7646.5171 -7588.8633)" class="st20" style="font-size:4.7638px;">t</text>
<text transform="matrix(0.85 0 0 1 365.2896 280.5231)" class="st20 st21">+ifcBuildingAttribute</text>
<text transform="matrix(0.85 0 0 1 486.8379 279.6481)" class="st20 st21">0..*</text>
</svg>
