<?xml version="1.0" encoding="utf-8"?>
<!-- Generator: Adobe Illustrator 28.0.0, SVG Export Plug-In . SVG Version: 6.00 Build 0)  -->
<svg version="1.1" id="レイヤー_1" xmlns="http://www.w3.org/2000/svg" xmlns:xlink="http://www.w3.org/1999/xlink" x="0px"
	 y="0px" viewBox="0 0 964.1 661" style="enable-background:new 0 0 964.1 661;" xml:space="preserve">
<style type="text/css">
	.st0{fill-rule:evenodd;clip-rule:evenodd;fill:#CFD1D8;}
	.st1{fill-rule:evenodd;clip-rule:evenodd;fill:#FFFFCC;}
	.st2{fill:none;stroke:#000000;stroke-width:1.7322;stroke-linecap:round;stroke-linejoin:round;stroke-miterlimit:10;}
	.st3{font-family:'YuGothicUI-Regular';}
	.st4{font-size:11.2598px;}
	.st5{font-size:11.8731px;}
	.st6{fill:none;stroke:#000000;stroke-width:0.3218;stroke-miterlimit:10;}
	.st7{font-family:'YuGothicUI-Bold';}
	.st8{fill-rule:evenodd;clip-rule:evenodd;fill:#CCFFCC;}
	.st9{fill-rule:evenodd;clip-rule:evenodd;fill:#F0F0F0;}
	.st10{fill:none;stroke:#D7D7D7;stroke-width:0.8662;stroke-linecap:square;stroke-miterlimit:10;}
	.st11{fill:none;stroke:#000000;stroke-width:0.8662;stroke-linecap:square;stroke-miterlimit:10;}
	.st12{fill:#003060;}
	.st13{fill-rule:evenodd;clip-rule:evenodd;fill:#FFCCFF;}
	.st14{font-family:'MS-PGothic';}
	.st15{font-size:13.8582px;}
	.st16{fill:none;stroke:#003060;stroke-width:0.396;stroke-miterlimit:10;}
	.st17{font-family:'Calibri-Italic';}
	.st18{font-size:9.5276px;}
	.st19{font-family:'Calibri';}
	.st20{font-family:'Calibri-BoldItalic';}
	.st21{font-family:'Calibri-Bold';}
	.st22{fill:none;stroke:#000000;stroke-width:1.7322;stroke-linecap:round;stroke-linejoin:bevel;stroke-miterlimit:10;}
	.st23{fill-rule:evenodd;clip-rule:evenodd;fill:#FFFFFF;}
</style>
<path class="st0" d="M458.6,340.3c1.2,0,2.2,1,2.2,2.2l0,0v46.8l0,0c0,1.2-1,2.2-2.2,2.2l0,0l0,0H325.8l0,0c-1.2,0-2.2-1-2.2-2.2
	l0,0v-46.8c0-1.2,1-2.2,2.2-2.2l0,0H458.6L458.6,340.3L458.6,340.3z"/>
<path class="st1" d="M456,337.7c1.2,0,2.2,1,2.2,2.2l0,0v46.8l0,0c0,1.2-1,2.2-2.2,2.2l0,0l0,0H323.2l0,0c-1.2,0-2.2-1-2.2-2.2l0,0
	v-46.8c0-1.2,1-2.2,2.2-2.2l0,0H456L456,337.7L456,337.7z"/>
<path class="st2" d="M456,337.7c1.2,0,2.2,1,2.2,2.2l0,0v46.8l0,0c0,1.2-1,2.2-2.2,2.2l0,0l0,0H323.2l0,0c-1.2,0-2.2-1-2.2-2.2l0,0
	v-46.8c0-1.2,1-2.2,2.2-2.2l0,0H456L456,337.7L456,337.7z"/>
<text transform="matrix(0.85 0 0 1 353.1416 355.0021)" class="st3 st4">«FeatureType»</text>
<g>
	<text transform="matrix(0.85 0 -0.3169 0.9485 343.5937 369.7324)" class="st3 st5">w</text>
	<text transform="matrix(0.85 0 -0.3169 0.9485 343.5937 369.7324)" class="st6 st3 st5">w</text>
	<text transform="matrix(0.85 0 -0.3169 0.9485 352.2675 369.7324)" class="st3 st5">t</text>
	<text transform="matrix(0.85 0 -0.3169 0.9485 352.2675 369.7324)" class="st6 st3 st5">t</text>
	<text transform="matrix(0.85 0 -0.3169 0.9485 356.5995 369.7324)" class="st3 st5">r</text>
	<text transform="matrix(0.85 0 -0.3169 0.9485 356.5995 369.7324)" class="st6 st3 st5">r</text>
	<text transform="matrix(0.85 0 -0.3169 0.9485 360.9296 369.7324)" class="st3 st5">:</text>
	<text transform="matrix(0.85 0 -0.3169 0.9485 360.9296 369.7324)" class="st6 st3 st5">:</text>
	<text transform="matrix(0.85 0 -0.3169 0.9485 363.5234 369.7324)" class="st3 st5">:</text>
	<text transform="matrix(0.85 0 -0.3169 0.9485 363.5234 369.7324)" class="st6 st3 st5">:</text>
	<text transform="matrix(0.85 0 -0.3169 0.9485 366.1171 369.7324)" class="st3 st5">_</text>
	<text transform="matrix(0.85 0 -0.3169 0.9485 366.1171 369.7324)" class="st6 st3 st5">_</text>
	<text transform="matrix(0.85 0 -0.3169 0.9485 370.4628 369.7324)" class="st3 st5">W</text>
	<text transform="matrix(0.85 0 -0.3169 0.9485 370.4628 369.7324)" class="st6 st3 st5">W</text>
	<text transform="matrix(0.85 0 -0.3169 0.9485 381.7363 369.7324)" class="st3 st5">a</text>
	<text transform="matrix(0.85 0 -0.3169 0.9485 381.7363 369.7324)" class="st6 st3 st5">a</text>
	<text transform="matrix(0.85 0 -0.3169 0.9485 387.8066 369.7324)" class="st3 st5">t</text>
	<text transform="matrix(0.85 0 -0.3169 0.9485 387.8066 369.7324)" class="st6 st3 st5">t</text>
	<text transform="matrix(0.85 0 -0.3169 0.9485 392.1386 369.7324)" class="st3 st5">e</text>
	<text transform="matrix(0.85 0 -0.3169 0.9485 392.1386 369.7324)" class="st6 st3 st5">e</text>
	<text transform="matrix(0.85 0 -0.3169 0.9485 398.2089 369.7324)" class="st3 st5">r</text>
	<text transform="matrix(0.85 0 -0.3169 0.9485 398.2089 369.7324)" class="st6 st3 st5">r</text>
	<text transform="matrix(0.85 0 -0.3169 0.9485 402.539 369.7324)" class="st3 st5">O</text>
	<text transform="matrix(0.85 0 -0.3169 0.9485 402.539 369.7324)" class="st6 st3 st5">O</text>
	<text transform="matrix(0.85 0 -0.3169 0.9485 411.2167 369.7324)" class="st3 st5">b</text>
	<text transform="matrix(0.85 0 -0.3169 0.9485 411.2167 369.7324)" class="st6 st3 st5">b</text>
	<text transform="matrix(0.85 0 -0.3169 0.9485 418.1562 369.7324)" class="st3 st5">j</text>
	<text transform="matrix(0.85 0 -0.3169 0.9485 418.1562 369.7324)" class="st6 st3 st5">j</text>
	<text transform="matrix(0.85 0 -0.3169 0.9485 420.7656 369.7324)" class="st3 st5">e</text>
	<text transform="matrix(0.85 0 -0.3169 0.9485 420.7656 369.7324)" class="st6 st3 st5">e</text>
	<text transform="matrix(0.85 0 -0.3169 0.9485 426.8359 369.7324)" class="st3 st5">c</text>
	<text transform="matrix(0.85 0 -0.3169 0.9485 426.8359 369.7324)" class="st6 st3 st5">c</text>
	<text transform="matrix(0.85 0 -0.3169 0.9485 432.0488 369.7324)" class="st3 st5">t</text>
	<text transform="matrix(0.85 0 -0.3169 0.9485 432.0488 369.7324)" class="st6 st3 st5">t</text>
</g>
<path class="st0" d="M484.7,418.2c1.2,0,2.2,1,2.2,2.2l0,0v90.1l0,0c0,1.2-1,2.2-2.2,2.2l0,0l0,0H291.1l0,0c-1.2,0-2.2-1-2.2-2.2
	l0,0v-90.1c0-1.2,1-2.2,2.2-2.2l0,0L484.7,418.2L484.7,418.2L484.7,418.2z"/>
<path class="st1" d="M482.1,415.6c1.2,0,2.2,1,2.2,2.2l0,0v90.1l0,0c0,1.2-1,2.2-2.2,2.2l0,0l0,0H288.5l0,0c-1.2,0-2.2-1-2.2-2.2
	l0,0v-90.1c0-1.2,1-2.2,2.2-2.2l0,0H482.1L482.1,415.6L482.1,415.6z"/>
<path class="st2" d="M482.1,415.6c1.2,0,2.2,1,2.2,2.2l0,0v90.1l0,0c0,1.2-1,2.2-2.2,2.2l0,0l0,0H288.5l0,0c-1.2,0-2.2-1-2.2-2.2
	l0,0v-90.1c0-1.2,1-2.2,2.2-2.2l0,0H482.1L482.1,415.6L482.1,415.6z"/>
<text transform="matrix(0.85 0 0 1 348.7979 432.9542)" class="st3 st4">«</text>
<text transform="matrix(0.85 0 0 1 354.8682 432.9542)" class="st3 st4">F</text>
<text transform="matrix(0.85 0 0 1 360.085 432.9542)" class="st3 st4">e</text>
<text transform="matrix(0.85 0 0 1 366.1562 432.9542)" class="st3 st4">a</text>
<text transform="matrix(0.85 0 0 1 372.2246 432.9542)" class="st3 st4">t</text>
<text transform="matrix(0.85 0 0 1 375.6992 432.9542)" class="st3 st4">u</text>
<text transform="matrix(0.85 0 0 1 381.7812 432.9542)" class="st3 st4">r</text>
<text transform="matrix(0.85 0 0 1 386.1113 432.9542)" class="st3 st4">e</text>
<text transform="matrix(0.85 0 0 1 392.1816 432.9542)" class="st3 st4">T</text>
<text transform="matrix(0.85 0 0 1 398.252 432.9542)" class="st3 st4">y</text>
<text transform="matrix(0.85 0 0 1 403.4648 432.9542)" class="st3 st4">p</text>
<text transform="matrix(0.85 0 0 1 410.4043 432.9542)" class="st3 st4">e</text>
<text transform="matrix(0.85 0 0 1 416.4746 432.9542)" class="st3 st4">»</text>
<text transform="matrix(0.85 0 0 1 344.4541 447.673)" class="st7 st4">wtr::WaterBody</text>
<line class="st2" x1="286.3" y1="454.6" x2="484.2" y2="454.6"/>
<text transform="matrix(0.85 0 0 1 290.6416 470.1886)" class="st3 st4">+ class: gml::CodeType [0..1]</text>
<text transform="matrix(0.85 0 0 1 290.6416 484.923)" class="st3 st4">+ function: gml::CodeType [0..*]</text>
<text transform="matrix(0.85 0 0 1 290.6416 499.6417)" class="st3 st4">+ usage: gml::CodeType [0..*]</text>
<path class="st0" d="M181.7,400.9c1.2,0,2.2,1,2.2,2.2l0,0v64.1l0,0c0,1.2-1,2.2-2.2,2.2l0,0l0,0H30.6l0,0c-1.2,0-2.2-1-2.2-2.2l0,0
	v-64.1c0-1.2,1-2.2,2.2-2.2l0,0H181.7L181.7,400.9L181.7,400.9z"/>
<path class="st8" d="M179.1,398.3c1.2,0,2.2,1,2.2,2.2l0,0v64.1l0,0c0,1.2-1,2.2-2.2,2.2l0,0l0,0H28l0,0c-1.2,0-2.2-1-2.2-2.2l0,0
	v-64.1c0-1.2,1-2.2,2.2-2.2l0,0H179.1L179.1,398.3L179.1,398.3z"/>
<path class="st2" d="M179.1,398.3c1.2,0,2.2,1,2.2,2.2l0,0v64.1l0,0c0,1.2-1,2.2-2.2,2.2l0,0l0,0H28l0,0c-1.2,0-2.2-1-2.2-2.2l0,0
	v-64.1c0-1.2,1-2.2,2.2-2.2l0,0H179.1L179.1,398.3L179.1,398.3z"/>
<text transform="matrix(0.85 0 -0.3169 0.9485 29.9132 413.0523)" class="st3 st5">_AbstractGeometricAggregate</text>
<text transform="matrix(0.85 0 0 1 85.751 432.9542)" class="st3 st4">«Type»</text>
<text transform="matrix(0.85 0 0 1 58.8447 447.673)" class="st7 st4">gml::MultiSurface</text>
<path class="st0" d="M644.4,158.4c1.2,0,2.2,1,2.2,2.2l0,0V261l0,0c0,1.2-1,2.2-2.2,2.2l0,0l0,0H360.5l0,0c-1.2,0-2.2-1-2.2-2.2l0,0
	V160.6c0-1.2,1-2.2,2.2-2.2l0,0L644.4,158.4L644.4,158.4L644.4,158.4z"/>
<path class="st1" d="M641.8,155.8c1.2,0,2.2,1,2.2,2.2l0,0v100.5l0,0c0,1.2-1,2.2-2.2,2.2l0,0l0,0H357.9l0,0c-1.2,0-2.2-1-2.2-2.2
	l0,0V158c0-1.2,1-2.2,2.2-2.2l0,0H641.8L641.8,155.8L641.8,155.8z"/>
<path class="st2" d="M641.8,155.8c1.2,0,2.2,1,2.2,2.2l0,0v100.5l0,0c0,1.2-1,2.2-2.2,2.2l0,0l0,0H357.9l0,0c-1.2,0-2.2-1-2.2-2.2
	l0,0V158c0-1.2,1-2.2,2.2-2.2l0,0H641.8L641.8,155.8L641.8,155.8z"/>
<text transform="matrix(0.85 0 0 1 463.3906 173.1105)" class="st3 st4">«FeatureType»</text>
<text transform="matrix(0.85 0 -0.3169 0.9485 457.3023 187.8349)" class="st3 st5">c</text>
<text transform="matrix(0.85 0 -0.3169 0.9485 457.3023 187.8349)" class="st6 st3 st5">c</text>
<text transform="matrix(0.85 0 -0.3169 0.9485 462.5162 187.8349)" class="st3 st5">o</text>
<text transform="matrix(0.85 0 -0.3169 0.9485 462.5162 187.8349)" class="st6 st3 st5">o</text>
<text transform="matrix(0.85 0 -0.3169 0.9485 469.4547 187.8349)" class="st3 st5">r</text>
<text transform="matrix(0.85 0 -0.3169 0.9485 469.4547 187.8349)" class="st6 st3 st5">r</text>
<text transform="matrix(0.85 0 -0.3169 0.9485 473.7848 187.8349)" class="st3 st5">e</text>
<text transform="matrix(0.85 0 -0.3169 0.9485 473.7848 187.8349)" class="st6 st3 st5">e</text>
<text transform="matrix(0.85 0 -0.3169 0.9485 479.8551 187.8349)" class="st3 st5">:</text>
<text transform="matrix(0.85 0 -0.3169 0.9485 479.8551 187.8349)" class="st6 st3 st5">:</text>
<text transform="matrix(0.85 0 -0.3169 0.9485 482.4498 187.8349)" class="st3 st5">:</text>
<text transform="matrix(0.85 0 -0.3169 0.9485 482.4498 187.8349)" class="st6 st3 st5">:</text>
<text transform="matrix(0.85 0 -0.3169 0.9485 485.0426 187.8349)" class="st3 st5">_</text>
<text transform="matrix(0.85 0 -0.3169 0.9485 485.0426 187.8349)" class="st6 st3 st5">_</text>
<text transform="matrix(0.85 0 -0.3169 0.9485 489.3883 187.8349)" class="st3 st5">C</text>
<text transform="matrix(0.85 0 -0.3169 0.9485 489.3883 187.8349)" class="st6 st3 st5">C</text>
<text transform="matrix(0.85 0 -0.3169 0.9485 496.3414 187.8349)" class="st3 st5">i</text>
<text transform="matrix(0.85 0 -0.3169 0.9485 496.3414 187.8349)" class="st6 st3 st5">i</text>
<text transform="matrix(0.85 0 -0.3169 0.9485 498.9508 187.8349)" class="st3 st5">t</text>
<text transform="matrix(0.85 0 -0.3169 0.9485 498.9508 187.8349)" class="st6 st3 st5">t</text>
<text transform="matrix(0.85 0 -0.3169 0.9485 503.2838 187.8349)" class="st3 st5">y</text>
<text transform="matrix(0.85 0 -0.3169 0.9485 503.2838 187.8349)" class="st6 st3 st5">y</text>
<text transform="matrix(0.85 0 -0.3169 0.9485 509.3541 187.8349)" class="st3 st5">O</text>
<text transform="matrix(0.85 0 -0.3169 0.9485 509.3541 187.8349)" class="st6 st3 st5">O</text>
<text transform="matrix(0.85 0 -0.3169 0.9485 518.0308 187.8349)" class="st3 st5">b</text>
<text transform="matrix(0.85 0 -0.3169 0.9485 518.0308 187.8349)" class="st6 st3 st5">b</text>
<text transform="matrix(0.85 0 -0.3169 0.9485 524.9683 187.8349)" class="st3 st5">j</text>
<text transform="matrix(0.85 0 -0.3169 0.9485 524.9683 187.8349)" class="st6 st3 st5">j</text>
<text transform="matrix(0.85 0 -0.3169 0.9485 527.5787 187.8349)" class="st3 st5">e</text>
<text transform="matrix(0.85 0 -0.3169 0.9485 527.5787 187.8349)" class="st6 st3 st5">e</text>
<text transform="matrix(0.85 0 -0.3169 0.9485 533.6509 187.8349)" class="st3 st5">c</text>
<text transform="matrix(0.85 0 -0.3169 0.9485 533.6509 187.8349)" class="st6 st3 st5">c</text>
<text transform="matrix(0.85 0 -0.3169 0.9485 538.8638 187.8349)" class="st3 st5">t</text>
<text transform="matrix(0.85 0 -0.3169 0.9485 538.8638 187.8349)" class="st6 st3 st5">t</text>
<line class="st2" x1="355.7" y1="194.8" x2="644" y2="194.8"/>
<text transform="matrix(0.85 0 0 1 360.0791 210.3458)" class="st3 st4">+ creationDate: xs::date [0..1]</text>
<text transform="matrix(0.85 0 0 1 360.0791 225.0802)" class="st3 st4">+ terminationDate: xs::date [0..1]</text>
<text transform="matrix(0.85 0 0 1 360.0791 239.799)" class="st3 st4">+ relativeToTerrain: core::RelativeToTerrainType [0..1]</text>
<text transform="matrix(0.85 0 0 1 360.0791 254.5333)" class="st3 st4">+ relativeToWater: core::RelativeToWaterType [0..1]</text>
<path class="st0" d="M606.2,28.5c1.2,0,2.2,1,2.2,2.2l0,0v85.7l0,0c0,1.2-1,2.2-2.2,2.2l0,0l0,0H385.7l0,0c-1.2,0-2.2-1-2.2-2.2l0,0
	V30.6l0,0c0-1.2,1-2.2,2.2-2.2l0,0L606.2,28.5L606.2,28.5L606.2,28.5z"/>
<path class="st8" d="M603.6,25.9c1.2,0,2.2,1,2.2,2.2l0,0v85.7l0,0c0,1.2-1,2.2-2.2,2.2l0,0l0,0H383.1l0,0c-1.2,0-2.2-1-2.2-2.2l0,0
	V28l0,0c0-1.2,1-2.2,2.2-2.2l0,0h220.5V25.9L603.6,25.9z"/>
<path class="st2" d="M603.6,25.9c1.2,0,2.2,1,2.2,2.2l0,0v85.7l0,0c0,1.2-1,2.2-2.2,2.2l0,0l0,0H383.1l0,0c-1.2,0-2.2-1-2.2-2.2l0,0
	V28l0,0c0-1.2,1-2.2,2.2-2.2l0,0h220.5V25.9L603.6,25.9z"/>
<text transform="matrix(0.85 0 0 1 462.9141 43.1739)" class="st3 st4">«FeatureType»</text>
<g>
	<text transform="matrix(0.85 0 -0.3169 0.9485 459.0459 57.9251)" class="st3 st5">g</text>
	<text transform="matrix(0.85 0 -0.3169 0.9485 459.0459 57.9251)" class="st6 st3 st5">g</text>
	<text transform="matrix(0.85 0 -0.3169 0.9485 465.9873 57.9251)" class="st3 st5">m</text>
	<text transform="matrix(0.85 0 -0.3169 0.9485 465.9873 57.9251)" class="st6 st3 st5">m</text>
	<text transform="matrix(0.85 0 -0.3169 0.9485 476.3936 57.9251)" class="st3 st5">l</text>
	<text transform="matrix(0.85 0 -0.3169 0.9485 476.3936 57.9251)" class="st6 st3 st5">l</text>
	<text transform="matrix(0.85 0 -0.3169 0.9485 479.0029 57.9251)" class="st3 st5">:</text>
	<text transform="matrix(0.85 0 -0.3169 0.9485 479.0029 57.9251)" class="st6 st3 st5">:</text>
	<text transform="matrix(0.85 0 -0.3169 0.9485 481.5967 57.9251)" class="st3 st5">:</text>
	<text transform="matrix(0.85 0 -0.3169 0.9485 481.5967 57.9251)" class="st6 st3 st5">:</text>
	<text transform="matrix(0.85 0 -0.3169 0.9485 484.1904 57.9251)" class="st3 st5">_</text>
	<text transform="matrix(0.85 0 -0.3169 0.9485 484.1904 57.9251)" class="st6 st3 st5">_</text>
	<text transform="matrix(0.85 0 -0.3169 0.9485 488.5342 57.9251)" class="st3 st5">F</text>
	<text transform="matrix(0.85 0 -0.3169 0.9485 488.5342 57.9251)" class="st6 st3 st5">F</text>
	<text transform="matrix(0.85 0 -0.3169 0.9485 494.6123 57.9251)" class="st3 st5">e</text>
	<text transform="matrix(0.85 0 -0.3169 0.9485 494.6123 57.9251)" class="st6 st3 st5">e</text>
	<text transform="matrix(0.85 0 -0.3169 0.9485 500.6826 57.9251)" class="st3 st5">a</text>
	<text transform="matrix(0.85 0 -0.3169 0.9485 500.6826 57.9251)" class="st6 st3 st5">a</text>
	<text transform="matrix(0.85 0 -0.3169 0.9485 506.749 57.9251)" class="st3 st5">t</text>
	<text transform="matrix(0.85 0 -0.3169 0.9485 506.749 57.9251)" class="st6 st3 st5">t</text>
	<text transform="matrix(0.85 0 -0.3169 0.9485 511.0811 57.9251)" class="st3 st5">u</text>
	<text transform="matrix(0.85 0 -0.3169 0.9485 511.0811 57.9251)" class="st6 st3 st5">u</text>
	<text transform="matrix(0.85 0 -0.3169 0.9485 518.0225 57.9251)" class="st3 st5">r</text>
	<text transform="matrix(0.85 0 -0.3169 0.9485 518.0225 57.9251)" class="st6 st3 st5">r</text>
	<text transform="matrix(0.85 0 -0.3169 0.9485 522.3506 57.9251)" class="st3 st5">e</text>
	<text transform="matrix(0.85 0 -0.3169 0.9485 522.3506 57.9251)" class="st6 st3 st5">e</text>
</g>
<line class="st2" x1="380.9" y1="64.8" x2="605.8" y2="64.8"/>
<text transform="matrix(0.85 0 0 1 385.25 80.4239)" class="st3 st4">+ description: gml::StringOrRefType [0..1]</text>
<text transform="matrix(0.85 0 0 1 385.25 95.1583)" class="st3 st4">+ name: gml::CodeType [0..1]</text>
<text transform="matrix(0.85 0 0 1 385.25 109.8771)" class="st3 st4">+ boundedBy: gml::Envelope [0..1]</text>
<path class="st9" d="M183.9,77.8c1.4,0,2.6,1.2,2.6,2.6l0,0v97.9l0,0c0,1.4-1.2,2.6-2.6,2.6l0,0l0,0H28.5l0,0
	c-1.4,0-2.6-1.2-2.6-2.6V80.4c0-1.4,1.2-2.6,2.6-2.6l0,0H183.9L183.9,77.8L183.9,77.8z"/>
<path class="st10" d="M183.9,77.8c1.4,0,2.6,1.2,2.6,2.6l0,0v97.9l0,0c0,1.4-1.2,2.6-2.6,2.6l0,0l0,0H28.5l0,0
	c-1.4,0-2.6-1.2-2.6-2.6V80.4c0-1.4,1.2-2.6,2.6-2.6l0,0H183.9L183.9,77.8L183.9,77.8z"/>
<path class="st8" d="M46.3,103.8c1.2,0,2.2,1,2.2,2.2l0,0v9.5l0,0c0,1.2-1,2.2-2.2,2.2l0,0l0,0h-9.5l0,0c-1.2,0-2.2-1-2.2-2.2l0,0
	V106c0-1.2,1-2.2,2.2-2.2l0,0H46.3L46.3,103.8L46.3,103.8z"/>
<path class="st11" d="M46.3,103.8c1.2,0,2.2,1,2.2,2.2l0,0v9.5l0,0c0,1.2-1,2.2-2.2,2.2l0,0l0,0h-9.5l0,0c-1.2,0-2.2-1-2.2-2.2l0,0
	V106c0-1.2,1-2.2,2.2-2.2l0,0H46.3L46.3,103.8L46.3,103.8z"/>
<text transform="matrix(0.85 0 0 1 53.6416 115.9552)" class="st12 st3 st4">GMLに定義されたクラス</text>
<path class="st1" d="M46.3,120.3c1.2,0,2.2,1,2.2,2.2l0,0v9.5l0,0c0,1.2-1,2.2-2.2,2.2l0,0l0,0h-9.5l0,0c-1.2,0-2.2-1-2.2-2.2l0,0
	v-9.5c0-1.2,1-2.2,2.2-2.2l0,0H46.3L46.3,120.3L46.3,120.3z"/>
<path class="st11" d="M46.3,120.3c1.2,0,2.2,1,2.2,2.2l0,0v9.5l0,0c0,1.2-1,2.2-2.2,2.2l0,0l0,0h-9.5l0,0c-1.2,0-2.2-1-2.2-2.2l0,0
	v-9.5c0-1.2,1-2.2,2.2-2.2l0,0H46.3L46.3,120.3L46.3,120.3z"/>
<text transform="matrix(0.85 0 0 1 53.6416 132.3927)" class="st12 st3 st4">CityGMLに定義されたクラス</text>
<path class="st13" d="M46.3,136.7c1.2,0,2.2,1,2.2,2.2l0,0v9.5l0,0c0,1.2-1,2.2-2.2,2.2l0,0l0,0h-9.5l0,0c-1.2,0-2.2-1-2.2-2.2l0,0
	v-9.5c0-1.2,1-2.2,2.2-2.2l0,0H46.3L46.3,136.7L46.3,136.7z"/>
<path class="st11" d="M46.3,136.7c1.2,0,2.2,1,2.2,2.2l0,0v9.5l0,0c0,1.2-1,2.2-2.2,2.2l0,0l0,0h-9.5l0,0c-1.2,0-2.2-1-2.2-2.2l0,0
	v-9.5c0-1.2,1-2.2,2.2-2.2l0,0H46.3L46.3,136.7L46.3,136.7z"/>
<text transform="matrix(0.85 0 0 1 53.6416 148.8605)" class="st12 st3 st4">i-URに定義されたクラス</text>
<text transform="matrix(0.85 0 0 1 92.7041 96.0333)" class="st12 st14 st15">凡例</text>
<text transform="matrix(0.85 0 0 1 92.7041 96.0333)" class="st16 st14 st15">凡例</text>
<path class="st0" d="M112.2,565.5c1.2,0,2.2,1,2.2,2.2l0,0v64.1l0,0c0,1.2-1,2.2-2.2,2.2l0,0l0,0H30.6l0,0c-1.2,0-2.2-1-2.2-2.2l0,0
	v-64.1c0-1.2,1-2.2,2.2-2.2l0,0H112.2L112.2,565.5L112.2,565.5z"/>
<path class="st8" d="M109.6,562.9c1.2,0,2.2,1,2.2,2.2l0,0v64.1l0,0c0,1.2-1,2.2-2.2,2.2l0,0l0,0H28l0,0c-1.2,0-2.2-1-2.2-2.2l0,0
	V565c0-1.2,1-2.2,2.2-2.2l0,0h81.6V562.9L109.6,562.9z"/>
<path class="st2" d="M109.6,562.9c1.2,0,2.2,1,2.2,2.2l0,0v64.1l0,0c0,1.2-1,2.2-2.2,2.2l0,0l0,0H28l0,0c-1.2,0-2.2-1-2.2-2.2l0,0
	V565c0-1.2,1-2.2,2.2-2.2l0,0h81.6V562.9L109.6,562.9z"/>
<text transform="matrix(0.85 0 0 1 -7709.8945 -7857.8008)" class="st17" style="font-size:4.7638px;">i</text>
<text transform="matrix(0.85 0 0 1 30.5532 574.1417)" class="st17 st18">_GeometricPrimitve</text>
<text transform="matrix(0.85 0 0 1 54.5166 590.6105)" class="st19 st18">«Type»</text>
<text transform="matrix(0.85 0 0 1 46.6885 601.8605)" class="st20 st18">g</text>
<text transform="matrix(0.85 0 0 1 51.8916 601.8605)" class="st20 st18">m</text>
<text transform="matrix(0.85 0 0 1 59.6992 601.8605)" class="st20 st18">l</text>
<text transform="matrix(0.85 0 0 1 62.3018 601.8605)" class="st20 st18">:</text>
<text transform="matrix(0.85 0 0 1 64.9082 601.8605)" class="st20 st18">:</text>
<text transform="matrix(0.85 0 0 1 67.5146 601.8605)" class="st20 st18">_</text>
<text transform="matrix(0.85 0 0 1 71.8594 601.8605)" class="st20 st18">S</text>
<text transform="matrix(0.85 0 0 1 76.208 601.8605)" class="st20 st18">o</text>
<text transform="matrix(0.85 0 0 1 81.415 601.8605)" class="st20 st18">l</text>
<text transform="matrix(0.85 0 0 1 84.0186 601.8605)" class="st20 st18">i</text>
<text transform="matrix(0.85 0 0 1 86.6221 601.8605)" class="st20 st18">d</text>
<path class="st0" d="M169.5,297c1.2,0,2.2,1,2.2,2.2l0,0v64.1l0,0c0,1.2-1,2.2-2.2,2.2l0,0l0,0H48l0,0c-1.2,0-2.2-1-2.2-2.2l0,0
	v-64.1c0-1.2,1-2.2,2.2-2.2l0,0H169.5L169.5,297L169.5,297z"/>
<path class="st8" d="M166.9,294.4c1.2,0,2.2,1,2.2,2.2l0,0v64.1l0,0c0,1.2-1,2.2-2.2,2.2l0,0l0,0H45.4l0,0c-1.2,0-2.2-1-2.2-2.2l0,0
	v-64.1c0-1.2,1-2.2,2.2-2.2l0,0H166.9L166.9,294.4L166.9,294.4z"/>
<path class="st2" d="M166.9,294.4c1.2,0,2.2,1,2.2,2.2l0,0v64.1l0,0c0,1.2-1,2.2-2.2,2.2l0,0l0,0H45.4l0,0c-1.2,0-2.2-1-2.2-2.2l0,0
	v-64.1c0-1.2,1-2.2,2.2-2.2l0,0H166.9L166.9,294.4L166.9,294.4z"/>
<text transform="matrix(0.85 0 0 1 48.5 305.6427)" class="st17 st18">_AbstractGeometricAggregate</text>
<text transform="matrix(0.85 0 0 1 91.8447 322.0802)" class="st19 st18">«Type»</text>
<text transform="matrix(0.85 0 0 1 -7709.8945 -7857.8008)" class="st21" style="font-size:4.7638px;">i</text>
<text transform="matrix(0.85 0 0 1 73.6104 333.3302)" class="st21 st18">gml::MultiCurve</text>
<path class="st0" d="M572.3,530.8c1.2,0,2.2,1,2.2,2.2l0,0v38.1l0,0c0,1.2-1,2.2-2.2,2.2l0,0l0,0h-125l0,0c-1.2,0-2.2-1-2.2-2.2l0,0
	V533c0-1.2,1-2.2,2.2-2.2l0,0H572.3L572.3,530.8L572.3,530.8z"/>
<path class="st1" d="M569.7,528.2c1.2,0,2.2,1,2.2,2.2l0,0v38.1l0,0c0,1.2-1,2.2-2.2,2.2l0,0l0,0h-125l0,0c-1.2,0-2.2-1-2.2-2.2l0,0
	v-38.1c0-1.2,1-2.2,2.2-2.2l0,0H569.7L569.7,528.2L569.7,528.2z"/>
<path class="st2" d="M569.7,528.2c1.2,0,2.2,1,2.2,2.2l0,0v38.1l0,0c0,1.2-1,2.2-2.2,2.2l0,0l0,0h-125l0,0c-1.2,0-2.2-1-2.2-2.2l0,0
	v-38.1c0-1.2,1-2.2,2.2-2.2l0,0H569.7L569.7,528.2L569.7,528.2z"/>
<text transform="matrix(0.85 0 0 1 476.4219 542.0792)" class="st19 st18">«FeatureType»</text>
<text transform="matrix(0.85 0 0 1 462.9141 553.3292)" class="st21 st18">wtr::WaterGroundSurface</text>
<path class="st0" d="M754.6,348.9c1.2,0,2.2,1,2.2,2.2l0,0v64.1l0,0c0,1.2-1,2.2-2.2,2.2l0,0l0,0H638.3l0,0c-1.2,0-2.2-1-2.2-2.2
	l0,0v-64.1c0-1.2,1-2.2,2.2-2.2l0,0H754.6L754.6,348.9L754.6,348.9z"/>
<path class="st1" d="M752,346.3c1.2,0,2.2,1,2.2,2.2l0,0v64.1l0,0c0,1.2-1,2.2-2.2,2.2l0,0l0,0H635.7l0,0c-1.2,0-2.2-1-2.2-2.2l0,0
	v-64.1c0-1.2,1-2.2,2.2-2.2l0,0H752L752,346.3L752,346.3z"/>
<path class="st2" d="M752,346.3c1.2,0,2.2,1,2.2,2.2l0,0v64.1l0,0c0,1.2-1,2.2-2.2,2.2l0,0l0,0H635.7l0,0c-1.2,0-2.2-1-2.2-2.2l0,0
	v-64.1c0-1.2,1-2.2,2.2-2.2l0,0H752L752,346.3L752,346.3z"/>
<text transform="matrix(0.85 0 0 1 666.5068 360.2052)" class="st19 st18">«FeatureType»</text>
<text transform="matrix(0.85 0 0 1 635.2812 371.4552)" class="st20 st18">w</text>
<text transform="matrix(0.85 0 0 1 642.2344 371.4552)" class="st20 st18">t</text>
<text transform="matrix(0.85 0 0 1 645.6973 371.4552)" class="st20 st18">r</text>
<text transform="matrix(0.85 0 0 1 649.1641 371.4552)" class="st20 st18">:</text>
<text transform="matrix(0.85 0 0 1 651.7695 371.4552)" class="st20 st18">:</text>
<text transform="matrix(0.85 0 0 1 654.375 371.4552)" class="st20 st18">_</text>
<text transform="matrix(0.85 0 0 1 658.7207 371.4552)" class="st20 st18">W</text>
<text transform="matrix(0.85 0 0 1 667.3984 371.4552)" class="st20 st18">a</text>
<text transform="matrix(0.85 0 0 1 672.6016 371.4552)" class="st20 st18">t</text>
<text transform="matrix(0.85 0 0 1 676.0742 371.4552)" class="st20 st18">e</text>
<text transform="matrix(0.85 0 0 1 680.4219 371.4552)" class="st20 st18">r</text>
<text transform="matrix(0.85 0 0 1 683.8887 371.4552)" class="st20 st18">B</text>
<text transform="matrix(0.85 0 0 1 689.0977 371.4552)" class="st20 st18">o</text>
<text transform="matrix(0.85 0 0 1 694.3047 371.4552)" class="st20 st18">u</text>
<text transform="matrix(0.85 0 0 1 699.5137 371.4552)" class="st20 st18">n</text>
<text transform="matrix(0.85 0 0 1 704.7207 371.4552)" class="st20 st18">d</text>
<text transform="matrix(0.85 0 0 1 709.9336 371.4552)" class="st20 st18">a</text>
<text transform="matrix(0.85 0 0 1 715.1445 371.4552)" class="st20 st18">r</text>
<text transform="matrix(0.85 0 0 1 718.6113 371.4552)" class="st20 st18">y</text>
<text transform="matrix(0.85 0 0 1 722.959 371.4552)" class="st20 st18">S</text>
<text transform="matrix(0.85 0 0 1 727.3066 371.4552)" class="st20 st18">u</text>
<text transform="matrix(0.85 0 0 1 732.5137 371.4552)" class="st20 st18">r</text>
<text transform="matrix(0.85 0 0 1 735.9805 371.4552)" class="st20 st18">f</text>
<text transform="matrix(0.85 0 0 1 738.5918 371.4552)" class="st20 st18">a</text>
<text transform="matrix(0.85 0 0 1 743.7949 371.4552)" class="st20 st18">c</text>
<text transform="matrix(0.85 0 0 1 748.127 371.4552)" class="st20 st18">e</text>
<path class="st0" d="M936.9,348.9c1.2,0,2.2,1,2.2,2.2l0,0v64.1l0,0c0,1.2-1,2.2-2.2,2.2l0,0l0,0h-81.6l0,0c-1.2,0-2.2-1-2.2-2.2
	l0,0v-64.1c0-1.2,1-2.2,2.2-2.2l0,0H936.9L936.9,348.9L936.9,348.9z"/>
<path class="st8" d="M934.3,346.3c1.2,0,2.2,1,2.2,2.2l0,0v64.1l0,0c0,1.2-1,2.2-2.2,2.2l0,0l0,0h-81.6l0,0c-1.2,0-2.2-1-2.2-2.2
	l0,0v-64.1c0-1.2,1-2.2,2.2-2.2l0,0H934.3L934.3,346.3L934.3,346.3z"/>
<path class="st2" d="M934.3,346.3c1.2,0,2.2,1,2.2,2.2l0,0v64.1l0,0c0,1.2-1,2.2-2.2,2.2l0,0l0,0h-81.6l0,0c-1.2,0-2.2-1-2.2-2.2
	l0,0v-64.1c0-1.2,1-2.2,2.2-2.2l0,0H934.3L934.3,346.3L934.3,346.3z"/>
<text transform="matrix(0.85 0 0 1 -7709.8945 -7857.8008)" class="st17" style="font-size:4.7638px;">i</text>
<text transform="matrix(0.85 0 0 1 855.7119 357.5958)" class="st17 st18">_GeometricPrimitve</text>
<text transform="matrix(0.85 0 0 1 879.2188 374.0646)" class="st19 st18">«Type»</text>
<text transform="matrix(0.85 0 0 1 867.0625 385.3302)" class="st21 st18">gml::_Surface</text>
<path class="st0" d="M650.5,591.5c1.2,0,2.2,1,2.2,2.2l0,0v38.1l0,0c0,1.2-1,2.2-2.2,2.2l0,0l0,0H542.8l0,0c-1.2,0-2.2-1-2.2-2.2
	l0,0v-38.1c0-1.2,1-2.2,2.2-2.2l0,0H650.5L650.5,591.5L650.5,591.5z"/>
<path class="st1" d="M647.9,588.9c1.2,0,2.2,1,2.2,2.2l0,0v38.1l0,0c0,1.2-1,2.2-2.2,2.2l0,0l0,0H540.2l0,0c-1.2,0-2.2-1-2.2-2.2
	l0,0V591c0-1.2,1-2.2,2.2-2.2l0,0h107.7V588.9L647.9,588.9z"/>
<path class="st2" d="M647.9,588.9c1.2,0,2.2,1,2.2,2.2l0,0v38.1l0,0c0,1.2-1,2.2-2.2,2.2l0,0l0,0H540.2l0,0c-1.2,0-2.2-1-2.2-2.2
	l0,0V591c0-1.2,1-2.2,2.2-2.2l0,0h107.7V588.9L647.9,588.9z"/>
<text transform="matrix(0.85 0 0 1 563.2188 602.7042)" class="st19 st18">«FeatureType»</text>
<text transform="matrix(0.85 0 0 1 553.3877 613.9855)" class="st21 st18">wtr::WaterClosureSurace</text>
<path class="st0" d="M763.3,504.8c1.2,0,2.2,1,2.2,2.2l0,0v64.1l0,0c0,1.2-1,2.2-2.2,2.2l0,0l0,0h-151l0,0c-1.2,0-2.2-1-2.2-2.2l0,0
	V507c0-1.2,1-2.2,2.2-2.2l0,0H763.3L763.3,504.8L763.3,504.8z"/>
<path class="st1" d="M760.7,502.2c1.2,0,2.2,1,2.2,2.2l0,0v64.1l0,0c0,1.2-1,2.2-2.2,2.2l0,0l0,0h-151l0,0c-1.2,0-2.2-1-2.2-2.2l0,0
	v-64.1c0-1.2,1-2.2,2.2-2.2l0,0L760.7,502.2L760.7,502.2L760.7,502.2z"/>
<path class="st2" d="M760.7,502.2c1.2,0,2.2,1,2.2,2.2l0,0v64.1l0,0c0,1.2-1,2.2-2.2,2.2l0,0l0,0h-151l0,0c-1.2,0-2.2-1-2.2-2.2l0,0
	v-64.1c0-1.2,1-2.2,2.2-2.2l0,0L760.7,502.2L760.7,502.2L760.7,502.2z"/>
<text transform="matrix(0.85 0 0 1 654.375 516.1105)" class="st19 st18">«FeatureType»</text>
<text transform="matrix(0.85 0 0 1 648.2969 527.3605)" class="st21 st18">wtr::WaterSurface</text>
<line class="st2" x1="607.5" y1="534.3" x2="762.9" y2="534.3"/>
<text transform="matrix(0.85 0 0 1 611.8438 546.423)" class="st19 st18">+ waterLevel: gml::CodeType [0..1]</text>
<line class="st22" x1="285.4" y1="480.6" x2="156.1" y2="480.6"/>
<line class="st22" x1="156.1" y1="597.5" x2="113.5" y2="597.5"/>
<path class="st22" d="M113.5,597.5l13-5.2 M113.5,597.5l13,5.2"/>
<line class="st22" x1="285.4" y1="446.8" x2="183" y2="446.8"/>
<path class="st22" d="M183,446.8l13-5.2 M183,446.8l13,5.2"/>
<line class="st22" x1="392.2" y1="414.8" x2="392.2" y2="390.5"/>
<polyline class="st23" points="397.4,404.4 387,404.4 392.2,390.5 397.4,404.4 "/>
<polygon class="st22" points="397.4,404.4 387,404.4 392.2,390.5 "/>
<line class="st22" x1="285.4" y1="480.6" x2="180.4" y2="480.6"/>
<line class="st22" x1="225.5" y1="480.6" x2="225.5" y2="617.4"/>
<line class="st22" x1="225.5" y1="617.4" x2="113.5" y2="617.4"/>
<path class="st22" d="M113.5,617.4l13-5.2 M113.5,617.4l13,5.2"/>
<line class="st22" x1="285.4" y1="420.8" x2="225.5" y2="420.8"/>
<line class="st22" x1="225.5" y1="420.8" x2="225.5" y2="328.1"/>
<line class="st22" x1="225.5" y1="328.1" x2="170.8" y2="328.1"/>
<path class="st22" d="M170.8,328.1l13-5.2 M170.8,328.1l13,5.2"/>
<line class="st22" x1="389.6" y1="336.8" x2="389.6" y2="304.8"/>
<line class="st22" x1="389.6" y1="304.8" x2="499.9" y2="304.8"/>
<line class="st22" x1="499.9" y1="304.8" x2="499.9" y2="262.3"/>
<polyline class="st23" points="505.1,276.2 494.6,276.2 499.9,262.3 505.1,276.2 "/>
<polygon class="st22" points="505.1,276.2 494.6,276.2 499.9,262.3 "/>
<line class="st22" x1="685.6" y1="501.4" x2="685.6" y2="458.9"/>
<line class="st22" x1="694.3" y1="458.9" x2="694.3" y2="416.5"/>
<polyline class="st23" points="699.5,430.4 689.1,430.4 694.3,416.5 699.5,430.4 "/>
<polygon class="st22" points="699.5,430.4 689.1,430.4 694.3,416.5 "/>
<line class="st22" x1="594.5" y1="588" x2="594.5" y2="458.9"/>
<line class="st22" x1="632.7" y1="372.3" x2="459.9" y2="372.3"/>
<polyline class="st23" points="468.6,368 459.9,372.3 468.6,376.7 477.3,372.3 468.6,368 "/>
<polygon class="st22" points="468.6,368 459.9,372.3 468.6,376.7 477.3,372.3 "/>
<path class="st22" d="M632.7,372.3l-13-5.2 M632.7,372.3l-13,5.2"/>
<line class="st22" x1="755.9" y1="362.8" x2="849.7" y2="362.8"/>
<path class="st22" d="M849.7,362.8l-13,5.2 M849.7,362.8l-13-5.2"/>
<line class="st22" x1="694.3" y1="345.5" x2="694.3" y2="304.8"/>
<line class="st22" x1="694.3" y1="304.8" x2="499.9" y2="304.8"/>
<line class="st22" x1="755.9" y1="395.7" x2="849.7" y2="395.7"/>
<path class="st22" d="M849.7,395.7l-13,5.2 M849.7,395.7l-13-5.2"/>
<line class="st22" x1="506.8" y1="527.4" x2="506.8" y2="458.9"/>
<line class="st22" x1="506.8" y1="458.9" x2="694.3" y2="458.9"/>
<line class="st22" x1="493.8" y1="154.9" x2="493.8" y2="117.7"/>
<polyline class="st23" points="499,131.5 488.6,131.5 493.8,117.7 499,131.5 "/>
<polygon class="st22" points="499,131.5 488.6,131.5 493.8,117.7 "/>
<text transform="matrix(0.85 0 0 1 -7709.8945 -7857.8008)" class="st19" style="font-size:4.7638px;">i</text>
<text transform="matrix(0.85 0 0 1 185.5947 462.3917)" class="st19 st18">+lod1MulitSurface</text>
<text transform="matrix(0.85 0 0 1 185.5947 439.0167)" class="st19 st18">0..1</text>
<text transform="matrix(0.85 0 0 1 -7709.8945 -7857.8008)" class="st19" style="font-size:4.7638px;">i</text>
<text transform="matrix(0.85 0 0 1 189.0791 321.2365)" class="st19 st18">+lod0MultiCurve</text>
<text transform="matrix(0.85 0 0 1 173.4541 341.1427)" class="st19 st18">0..1</text>
<text transform="matrix(0.85 0 0 1 794.125 388.7677)" class="st19 st18">+lod3Surface</text>
<text transform="matrix(0.85 0 0 1 831.4688 408.6886)" class="st19 st18">0..1</text>
<line class="st22" x1="156.1" y1="480.6" x2="156.1" y2="597.5"/>
<text transform="matrix(0.85 0 0 1 101.3916 542.0792)" class="st19 st18">+lod2Solid</text>
<text transform="matrix(0.85 0 0 1 163.34 589.7198)" class="st19 st18">0..1</text>
<text transform="matrix(0.85 0 0 1 561.5 362.799)" class="st19 st18">+boundedBy</text>
<text transform="matrix(0.85 0 0 1 591.875 384.4552)" class="st19 st18">0..*</text>
<text transform="matrix(0.85 0 0 1 143.0635 633.0167)" class="st19 st18">+lod3Solid</text>
<text transform="matrix(0.85 0 0 1 192.5479 630.4542)" class="st19 st18">0..1</text>
<text transform="matrix(0.85 0 0 1 793.2812 349.799)" class="st19 st18">+lod2Surface</text>
<text transform="matrix(0.85 0 0 1 823.6562 329.8771)" class="st19 st18">0..1</text>
</svg>
