<?xml version="1.0" encoding="utf-8"?>
<!-- Generator: Adobe Illustrator 27.5.0, SVG Export Plug-In . SVG Version: 6.00 Build 0)  -->
<svg version="1.1" id="レイヤー_1" xmlns="http://www.w3.org/2000/svg" xmlns:xlink="http://www.w3.org/1999/xlink" x="0px"
	 y="0px" viewBox="0 0 583.4893799 571.2340698" style="enable-background:new 0 0 583.4893799 571.2340698;" xml:space="preserve">
<style type="text/css">
	.st0{fill-rule:evenodd;clip-rule:evenodd;fill:#FFFFCC;}
	.st1{fill:none;stroke:#000000;stroke-width:1.0285715;stroke-linecap:round;stroke-linejoin:bevel;stroke-miterlimit:10;}
	.st2{font-family:'YuGothicUI-Regular';}
	.st3{font-size:6.6857147px;}
	.st4{font-family:'YuGothicUI-Bold';}
	.st5{fill-rule:evenodd;clip-rule:evenodd;fill:#FFCCFF;}
	.st6{fill-rule:evenodd;clip-rule:evenodd;fill:#F0F0F0;}
	.st7{fill:none;stroke:#D7D7D7;stroke-width:0.5142857;stroke-linecap:square;stroke-miterlimit:10;}
	.st8{fill-rule:evenodd;clip-rule:evenodd;fill:#CCFFCC;}
	.st9{fill:none;stroke:#000000;stroke-width:0.5142857;stroke-linecap:square;stroke-miterlimit:10;}
	.st10{fill:#003060;}
	.st11{font-size:8.2285719px;}
	.st12{font-size:7.0386257px;}
	.st13{stroke:#000000;stroke-width:0.1910204;stroke-miterlimit:10;}
	.st14{fill-rule:evenodd;clip-rule:evenodd;}
	.st15{fill-rule:evenodd;clip-rule:evenodd;fill:#FFFFFF;}
</style>
<polygon class="st0" points="246.4085846,148.1599274 348.999176,148.1599274 348.999176,87.9884872 246.4085846,87.9884872 
	246.4085846,148.1599274 "/>
<polygon class="st1" points="246.4085846,148.1599274 348.999176,148.1599274 348.999176,87.9884872 246.4085846,87.9884872 
	246.4085846,148.1599274 "/>
<text transform="matrix(0.85 0 0 1 275.8647766 98.2730331)"><tspan x="0" y="0" class="st2 st3">«</tspan><tspan x="3.5960476" y="0" class="st2 st3">F</tspan><tspan x="6.6865807" y="0" class="st2 st3">e</tspan><tspan x="10.2832031" y="0" class="st2 st3">a</tspan><tspan x="13.8786764" y="0" class="st2 st3">t</tspan><tspan x="15.9369249" y="0" class="st2 st3">u</tspan><tspan x="19.5404415" y="0" class="st2 st3">r</tspan><tspan x="22.1047783" y="0" class="st2 st3">e</tspan><tspan x="25.7019749" y="0" class="st2 st3">T</tspan><tspan x="29.2980232" y="0" class="st2 st3">y</tspan><tspan x="32.3862572" y="0" class="st2 st3">p</tspan><tspan x="36.4970131" y="0" class="st2 st3">e</tspan><tspan x="40.0942078" y="0" class="st2 st3">»</tspan></text>
<text transform="matrix(0.85 0 0 1 267.2319641 107.0230331)"><tspan x="0" y="0" class="st4 st3">t</tspan><tspan x="2.5695083" y="0" class="st4 st3">r</tspan><tspan x="5.1378675" y="0" class="st4 st3">a</tspan><tspan x="8.7344894" y="0" class="st4 st3">n</tspan><tspan x="12.8429451" y="0" class="st4 st3">::</tspan><tspan x="15.9340525" y="0" class="st4 st3">T</tspan><tspan x="19.5364189" y="0" class="st4 st3">r</tspan><tspan x="22.1042042" y="0" class="st4 st3">a</tspan><tspan x="25.7008266" y="0" class="st4 st3">ffi</tspan><tspan x="32.2127762" y="0" class="st4 st3">c</tspan><tspan x="35.3021584" y="0" class="st4 st3">C</tspan><tspan x="39.4221039" y="0" class="st4 st3">o</tspan><tspan x="43.534008" y="0" class="st4 st3">m</tspan><tspan x="49.7035828" y="0" class="st4 st3">p</tspan><tspan x="53.8120384" y="0" class="st4 st3">l</tspan><tspan x="55.3584557" y="0" class="st4 st3">e</tspan><tspan x="58.9567986" y="0" class="st4 st3">x</tspan></text>
<line class="st1" x1="246.4085846" y1="111.1313705" x2="348.4913025" y2="111.1313705"/>
<text transform="matrix(0.85 0 0 1 248.9507141 120.3902206)" class="st2 st3">+ class: gml::CodeType [0..1]</text>
<text transform="matrix(0.85 0 0 1 248.9507141 129.1324005)" class="st2 st3">+ function: gml::CodeType [0..*]</text>
<text transform="matrix(0.85 0 0 1 248.9507141 137.8824005)" class="st2 st3">+ usage: gml::CodeType [0..*]</text>
<polygon class="st0" points="261.6448364,216.5598907 322.5897217,216.5598907 322.5897217,175.4170685 261.6448364,175.4170685 
	261.6448364,216.5598907 "/>
<polygon class="st1" points="261.6448364,216.5598907 322.5897217,216.5598907 322.5897217,175.4170685 261.6448364,175.4170685 
	261.6448364,216.5598907 "/>
<text transform="matrix(0.85 0 0 1 270.2788391 185.702713)"><tspan x="0" y="0" class="st2 st3">«</tspan><tspan x="3.5960476" y="0" class="st2 st3">F</tspan><tspan x="6.6865807" y="0" class="st2 st3">e</tspan><tspan x="10.2832031" y="0" class="st2 st3">a</tspan><tspan x="13.8786764" y="0" class="st2 st3">t</tspan><tspan x="15.9369249" y="0" class="st2 st3">u</tspan><tspan x="19.5398655" y="0" class="st2 st3">r</tspan><tspan x="22.1053524" y="0" class="st2 st3">e</tspan><tspan x="25.7019749" y="0" class="st2 st3">T</tspan><tspan x="29.2980232" y="0" class="st2 st3">y</tspan><tspan x="32.3862572" y="0" class="st2 st3">p</tspan><tspan x="36.4970131" y="0" class="st2 st3">e</tspan><tspan x="40.0942078" y="0" class="st2 st3">»</tspan></text>
<text transform="matrix(0.85 0 0 1 273.3257141 194.4449005)"><tspan x="0" y="0" class="st4 st3">t</tspan><tspan x="2.5695083" y="0" class="st4 st3">r</tspan><tspan x="5.1378675" y="0" class="st4 st3">a</tspan><tspan x="8.7344894" y="0" class="st4 st3">n</tspan><tspan x="12.8429451" y="0" class="st4 st3">::</tspan><tspan x="15.9340525" y="0" class="st4 st3">S</tspan><tspan x="19.5410156" y="0" class="st4 st3">q</tspan><tspan x="23.6488972" y="0" class="st4 st3">u</tspan><tspan x="27.7573528" y="0" class="st4 st3">a</tspan><tspan x="31.3545494" y="0" class="st4 st3">r</tspan><tspan x="33.9223328" y="0" class="st4 st3">e</tspan></text>
<polygon class="st5" points="221.0148773,442.8456726 356.6172791,442.8456726 356.6172791,257.7027893 221.0148773,257.7027893 
	221.0148773,442.8456726 "/>
<polygon class="st1" points="221.0148773,442.8456726 356.6172791,442.8456726 356.6172791,257.7027893 221.0148773,257.7027893 
	221.0148773,442.8456726 "/>
<text transform="matrix(0.85 0 0 1 271.2944641 267.9917908)"><tspan x="0" y="0" class="st2 st3">«</tspan><tspan x="3.5960476" y="0" class="st2 st3">D</tspan><tspan x="8.2301235" y="0" class="st2 st3">a</tspan><tspan x="11.8255968" y="0" class="st2 st3">t</tspan><tspan x="13.8838463" y="0" class="st2 st3">a</tspan><tspan x="17.4793186" y="0" class="st2 st3">T</tspan><tspan x="21.0759411" y="0" class="st2 st3">y</tspan><tspan x="24.1636028" y="0" class="st2 st3">p</tspan><tspan x="28.2755051" y="0" class="st2 st3">e</tspan><tspan x="31.8715515" y="0" class="st2 st3">»</tspan></text>
<text transform="matrix(0.85 0 0 1 241.3335266 276.7261658)"><tspan x="0" y="0" class="st4 st3">u</tspan><tspan x="4.1084557" y="0" class="st4 st3">r</tspan><tspan x="6.6762404" y="0" class="st4 st3">o</tspan><tspan x="10.7892923" y="0" class="st4 st3">::</tspan><tspan x="13.8809738" y="0" class="st4 st3">S</tspan><tspan x="17.4873619" y="0" class="st4 st3">q</tspan><tspan x="21.5958176" y="0" class="st4 st3">u</tspan><tspan x="25.7042732" y="0" class="st4 st3">a</tspan><tspan x="29.3008957" y="0" class="st4 st3">r</tspan><tspan x="31.8692551" y="0" class="st4 st3">e</tspan><tspan x="35.4676018" y="0" class="st4 st3">U</tspan><tspan x="40.1016769" y="0" class="st4 st3">r</tspan><tspan x="42.6700363" y="0" class="st4 st3">b</tspan><tspan x="46.778492" y="0" class="st4 st3">a</tspan><tspan x="50.3751144" y="0" class="st4 st3">n</tspan><tspan x="54.4835701" y="0" class="st4 st3">P</tspan><tspan x="58.5914497" y="0" class="st4 st3">l</tspan><tspan x="60.137867" y="0" class="st4 st3">a</tspan><tspan x="63.7339134" y="0" class="st4 st3">n</tspan><tspan x="67.8423691" y="0" class="st4 st3">A</tspan><tspan x="72.4655304" y="0" class="st4 st3">tt</tspan><tspan x="77.6045456" y="0" class="st4 st3">r</tspan><tspan x="80.1723328" y="0" class="st4 st3">i</tspan><tspan x="81.717598" y="0" class="st4 st3">b</tspan><tspan x="85.8272018" y="0" class="st4 st3">u</tspan><tspan x="89.9356613" y="0" class="st4 st3">t</tspan><tspan x="92.5045929" y="0" class="st4 st3">e</tspan></text>
<line class="st1" x1="221.0148773" y1="280.8456726" x2="356.1094055" y2="280.8456726"/>
<text transform="matrix(0.85 0 0 1 223.5522766 290.1089783)" class="st2 st3">+ prefecture: gml::CodeType [0..1]</text>
<text transform="matrix(0.85 0 0 1 223.5522766 298.8511658)" class="st2 st3">+ city: gml::CodeType [0..1]</text>
<text transform="matrix(0.85 0 0 1 223.5522766 307.5855408)" class="st2 st3">+ urbanPlanningAreaName: xs::string [0..1]</text>
<text transform="matrix(0.85 0 0 1 223.5522766 316.3355408)" class="st2 st3">+ enforcer: xs::string [0..*]</text>
<text transform="matrix(0.85 0 0 1 223.5522766 325.0777283)" class="st2 st3">+ dateOfDecision: xs::date [0..1]</text>
<text transform="matrix(0.85 0 0 1 223.5522766 333.8199158)" class="st2 st3">+ dateOfRevision: xs::date [0..*]</text>
<text transform="matrix(0.85 0 0 1 223.5522766 342.5621033)" class="st2 st3">+ areaPlanned: gml::MeasureType [0..1]</text>
<text transform="matrix(0.85 0 0 1 223.5522766 351.3042908)" class="st2 st3">+ areaInService: gml::MeasureType [0..1]</text>
<text transform="matrix(0.85 0 0 1 223.5522766 360.0542908)" class="st2 st3">+ remarks: xs::string [0..1]</text>
<text transform="matrix(0.85 0 0 1 223.5522766 368.7886658)" class="st2 st3">+ status: gml::CodeType [0..1]</text>
<text transform="matrix(0.85 0 0 1 223.5522766 377.5308533)" class="st2 st3">+ areaImproved: gml::MeasureType [0..1]</text>
<text transform="matrix(0.85 0 0 1 223.5522766 386.2808533)" class="st2 st3">+ areaCompleted: gml::MeasureType [0..1]</text>
<text transform="matrix(0.85 0 0 1 223.5522766 395.0230408)" class="st2 st3">+ projectStartDate: xs::date [0..1]</text>
<text transform="matrix(0.85 0 0 1 223.5522766 403.7574158)" class="st2 st3">+ projectEndDate: xs::date [0..1]</text>
<text transform="matrix(0.85 0 0 1 223.5522766 412.4996033)" class="st2 st3">+ isCompleted: xs::boolean [0..1]</text>
<text transform="matrix(0.85 0 0 1 223.5522766 421.2417908)" class="st2 st3">+ isAuthorized: xs::boolean [0..1]</text>
<text transform="matrix(0.85 0 0 1 223.5522766 429.9917908)" class="st2 st3">+ purpose: xs::string [0..1]</text>
<text transform="matrix(0.85 0 0 1 223.5522766 438.7339783)" class="st2 st3">+ note: xs::string [0..1]</text>
<polygon class="st5" points="165.1487427,537.9884644 278.9125366,537.9884644 278.9125366,483.9884949 165.1487427,483.9884949 
	165.1487427,537.9884644 "/>
<polygon class="st1" points="165.1487427,537.9884644 278.9125366,537.9884644 278.9125366,483.9884949 165.1487427,483.9884949 
	165.1487427,537.9884644 "/>
<text transform="matrix(0.85 0 0 1 204.2554016 494.2808533)"><tspan x="0" y="0" class="st2 st3">«</tspan><tspan x="3.5960476" y="0" class="st2 st3">D</tspan><tspan x="8.2301235" y="0" class="st2 st3">a</tspan><tspan x="11.8255968" y="0" class="st2 st3">t</tspan><tspan x="13.8838463" y="0" class="st2 st3">a</tspan><tspan x="17.4793186" y="0" class="st2 st3">T</tspan><tspan x="21.0759411" y="0" class="st2 st3">y</tspan><tspan x="24.1641769" y="0" class="st2 st3">p</tspan><tspan x="28.274931" y="0" class="st2 st3">e</tspan><tspan x="31.8715515" y="0" class="st2 st3">»</tspan></text>
<text transform="matrix(0.85 0 0 1 179.3725891 503.0230408)"><tspan x="0" y="0" class="st4 st3">u</tspan><tspan x="4.1084557" y="0" class="st4 st3">r</tspan><tspan x="6.6762404" y="0" class="st4 st3">o</tspan><tspan x="10.7892923" y="0" class="st4 st3">::</tspan><tspan x="13.8809738" y="0" class="st4 st3">S</tspan><tspan x="17.4873619" y="0" class="st4 st3">t</tspan><tspan x="20.0568695" y="0" class="st4 st3">a</tspan><tspan x="23.653492" y="0" class="st4 st3">t</tspan><tspan x="26.2229996" y="0" class="st4 st3">i</tspan><tspan x="27.7688408" y="0" class="st4 st3">o</tspan><tspan x="31.8818932" y="0" class="st4 st3">n</tspan><tspan x="35.9903488" y="0" class="st4 st3">S</tspan><tspan x="39.5967369" y="0" class="st4 st3">q</tspan><tspan x="43.7051926" y="0" class="st4 st3">u</tspan><tspan x="47.8136482" y="0" class="st4 st3">a</tspan><tspan x="51.4102707" y="0" class="st4 st3">r</tspan><tspan x="53.9786301" y="0" class="st4 st3">e</tspan><tspan x="57.576973" y="0" class="st4 st3">A</tspan><tspan x="62.1995621" y="0" class="st4 st3">tt</tspan><tspan x="67.3385773" y="0" class="st4 st3">r</tspan><tspan x="69.9063644" y="0" class="st4 st3">i</tspan><tspan x="71.4522018" y="0" class="st4 st3">b</tspan><tspan x="75.5612335" y="0" class="st4 st3">u</tspan><tspan x="79.669693" y="0" class="st4 st3">t</tspan><tspan x="82.2391968" y="0" class="st4 st3">e</tspan></text>
<line class="st1" x1="165.1487427" y1="507.1313782" x2="278.4046631" y2="507.1313782"/>
<text transform="matrix(0.85 0 0 1 167.6929016 516.3901978)" class="st2 st3">+ station: xs::string [0..*]</text>
<text transform="matrix(0.85 0 0 1 167.6929016 525.1323853)" class="st2 st3">+ route: xs::string [0..*]</text>
<text transform="matrix(0.85 0 0 1 167.6929016 533.8823853)" class="st2 st3">+ railwayType: gml::CodeType [0..*]</text>
<polygon class="st5" points="297.1960144,550.3313599 434.829895,550.3313599 434.829895,478.8456726 297.1960144,478.8456726 
	297.1960144,550.3313599 "/>
<polygon class="st1" points="297.1960144,550.3313599 434.829895,550.3313599 434.829895,478.8456726 297.1960144,478.8456726 
	297.1960144,550.3313599 "/>
<text transform="matrix(0.85 0 0 1 348.4897766 489.1324158)"><tspan x="0" y="0" class="st2 st3">«</tspan><tspan x="3.5960476" y="0" class="st2 st3">D</tspan><tspan x="8.2306986" y="0" class="st2 st3">a</tspan><tspan x="11.8255968" y="0" class="st2 st3">t</tspan><tspan x="13.8844204" y="0" class="st2 st3">a</tspan><tspan x="17.4793186" y="0" class="st2 st3">T</tspan><tspan x="21.0765152" y="0" class="st2 st3">y</tspan><tspan x="24.1636028" y="0" class="st2 st3">p</tspan><tspan x="28.2755051" y="0" class="st2 st3">e</tspan><tspan x="31.8715515" y="0" class="st2 st3">»</tspan></text>
<text transform="matrix(0.85 0 0 1 331.7319641 497.8824158)"><tspan x="0" y="0" class="st4 st3">u</tspan><tspan x="4.1084557" y="0" class="st4 st3">r</tspan><tspan x="6.6762404" y="0" class="st4 st3">o</tspan><tspan x="10.7892923" y="0" class="st4 st3">::</tspan><tspan x="13.8809738" y="0" class="st4 st3">T</tspan><tspan x="17.4827652" y="0" class="st4 st3">e</tspan><tspan x="21.0811119" y="0" class="st4 st3">r</tspan><tspan x="23.6500454" y="0" class="st4 st3">m</tspan><tspan x="29.8184738" y="0" class="st4 st3">i</tspan><tspan x="31.3648891" y="0" class="st4 st3">n</tspan><tspan x="35.4733429" y="0" class="st4 st3">a</tspan><tspan x="39.0693932" y="0" class="st4 st3">l</tspan><tspan x="40.6158066" y="0" class="st4 st3">A</tspan><tspan x="45.2378197" y="0" class="st4 st3">tt</tspan><tspan x="50.3768387" y="0" class="st4 st3">r</tspan><tspan x="52.944622" y="0" class="st4 st3">i</tspan><tspan x="54.4910355" y="0" class="st4 st3">b</tspan><tspan x="58.5994911" y="0" class="st4 st3">u</tspan><tspan x="62.7079468" y="0" class="st4 st3">t</tspan><tspan x="65.2780304" y="0" class="st4 st3">e</tspan></text>
<line class="st1" x1="297.1960144" y1="501.9884949" x2="434.3220215" y2="501.9884949"/>
<text transform="matrix(0.85 0 0 1 299.7397766 511.2417908)" class="st2 st3">+ terminalType: gml::CodeType [0..1]</text>
<text transform="matrix(0.85 0 0 1 299.7397766 519.9917603)" class="st2 st3">+ structure: xs::string [0..1]</text>
<text transform="matrix(0.85 0 0 1 299.7397766 528.7339478)" class="st2 st3">+ numberOfBerthsPlanned: xs::integer [0..1]</text>
<text transform="matrix(0.85 0 0 1 299.7397766 537.4761353)" class="st2 st3">+ numberOfBerthsInService: xs::integer [0..1]</text>
<text transform="matrix(0.85 0 0 1 299.7397766 546.2261353)" class="st2 st3">+ userType: gml::CodeType [0..1]</text>
<polygon class="st5" points="43.2589684,153.8170929 180.8928375,153.8170929 180.8928375,82.3313217 43.2589684,82.3313217 
	43.2589684,153.8170929 "/>
<polygon class="st1" points="43.2589684,153.8170929 180.8928375,153.8170929 180.8928375,82.3313217 43.2589684,82.3313217 
	43.2589684,153.8170929 "/>
<text transform="matrix(0.85 0 0 1 94.5522766 92.6167831)"><tspan x="0" y="0" class="st2 st3">«</tspan><tspan x="3.5960476" y="0" class="st2 st3">D</tspan><tspan x="8.2301235" y="0" class="st2 st3">a</tspan><tspan x="11.8255968" y="0" class="st2 st3">t</tspan><tspan x="13.8838463" y="0" class="st2 st3">a</tspan><tspan x="17.4793186" y="0" class="st2 st3">T</tspan><tspan x="21.0759411" y="0" class="st2 st3">y</tspan><tspan x="24.1641769" y="0" class="st2 st3">p</tspan><tspan x="28.274931" y="0" class="st2 st3">e</tspan><tspan x="31.8715515" y="0" class="st2 st3">»</tspan></text>
<text transform="matrix(0.85 0 0 1 50.3647804 101.3589706)"><tspan x="0" y="0" class="st4 st3">u</tspan><tspan x="4.1084557" y="0" class="st4 st3">r</tspan><tspan x="6.6762404" y="0" class="st4 st3">o</tspan><tspan x="10.7892923" y="0" class="st4 st3">::</tspan><tspan x="13.8809738" y="0" class="st4 st3">T</tspan><tspan x="17.4827652" y="0" class="st4 st3">r</tspan><tspan x="20.0511246" y="0" class="st4 st3">a</tspan><tspan x="23.647747" y="0" class="st4 st3">n</tspan><tspan x="27.7562027" y="0" class="st4 st3">s</tspan><tspan x="30.8392677" y="0" class="st4 st3">p</tspan><tspan x="34.9477234" y="0" class="st4 st3">o</tspan><tspan x="39.0607758" y="0" class="st4 st3">r</tspan><tspan x="41.6285591" y="0" class="st4 st3">t</tspan><tspan x="44.1980667" y="0" class="st4 st3">a</tspan><tspan x="47.7946892" y="0" class="st4 st3">t</tspan><tspan x="50.3642006" y="0" class="st4 st3">i</tspan><tspan x="51.910614" y="0" class="st4 st3">o</tspan><tspan x="56.0230904" y="0" class="st4 st3">n</tspan><tspan x="60.131546" y="0" class="st4 st3">D</tspan><tspan x="64.7667694" y="0" class="st4 st3">a</tspan><tspan x="68.3633957" y="0" class="st4 st3">t</tspan><tspan x="70.9328995" y="0" class="st4 st3">a</tspan><tspan x="74.5295258" y="0" class="st4 st3">Q</tspan><tspan x="79.669693" y="0" class="st4 st3">u</tspan><tspan x="83.7781448" y="0" class="st4 st3">a</tspan><tspan x="87.3747711" y="0" class="st4 st3">li</tspan><tspan x="90.4670258" y="0" class="st4 st3">t</tspan><tspan x="93.0365295" y="0" class="st4 st3">y</tspan><tspan x="96.6354523" y="0" class="st4 st3">A</tspan><tspan x="101.2574615" y="0" class="st4 st3">tt</tspan><tspan x="106.3964844" y="0" class="st4 st3">r</tspan><tspan x="108.9648438" y="0" class="st4 st3">i</tspan><tspan x="110.5106812" y="0" class="st4 st3">b</tspan><tspan x="114.6191406" y="0" class="st4 st3">u</tspan><tspan x="118.7275925" y="0" class="st4 st3">t</tspan><tspan x="121.2971039" y="0" class="st4 st3">e</tspan></text>
<line class="st1" x1="43.2589684" y1="105.474205" x2="180.384964" y2="105.474205"/>
<text transform="matrix(0.85 0 0 1 45.7944679 114.7417831)" class="st2 st3">+ srcScale: gml::CodeType [0..*]</text>
<text transform="matrix(0.85 0 0 1 45.7944679 123.4761581)" class="st2 st3">+ geometrySrcDesc: gml::CodeType [0..*]</text>
<text transform="matrix(0.85 0 0 1 45.7944679 132.218338)" class="st2 st3">+ thematicSrcDesc: gml::CodeType [0..*]</text>
<text transform="matrix(0.85 0 0 1 45.7944679 140.9605255)" class="st2 st3">+ appearanceSrcDesc: gml::CodeType [0..*]</text>
<text transform="matrix(0.85 0 0 1 45.7944679 149.6949005)" class="st2 st3">+ lodType: gml::CodeType [0..1]</text>
<path class="st6" d="M154.9912567,165.1313629c0.8414612,0,1.5236206,0.6907349,1.5236206,1.5428467h0.0000153v58.1143188
	h-0.0000153c0,0.8520508-0.6821594,1.5428467-1.5236359,1.5428467l0,0h0.0000153H60.0188179h-0.0000076
	c-0.8414688,0-1.5236282-0.6907959-1.5236282-1.5428467h0.0000076v-58.1143188c0-0.8521118,0.6821518-1.5428467,1.5236282-1.5428467
	l0,0H154.9912567L154.9912567,165.1313629L154.9912567,165.1313629z"/>
<path class="st7" d="M154.9912567,165.1313629c0.8414612,0,1.5236206,0.6907349,1.5236206,1.5428467h0.0000153v58.1143188
	h-0.0000153c0,0.8520508-0.6821594,1.5428467-1.5236359,1.5428467l0,0h0.0000153H60.0188179h-0.0000076
	c-0.8414688,0-1.5236282-0.6907959-1.5236282-1.5428467h0.0000076v-58.1143188c0-0.8521118,0.6821518-1.5428467,1.5236282-1.5428467
	l0,0H154.9912567L154.9912567,165.1313629L154.9912567,165.1313629z"/>
<polygon class="st8" points="63.5739326,189.3028107 72.2077866,189.3028107 72.2077866,180.5598907 63.5739326,180.5598907 
	63.5739326,189.3028107 "/>
<polygon class="st9" points="63.5739326,189.3028107 72.2077866,189.3028107 72.2077866,180.5598907 63.5739326,180.5598907 
	63.5739326,189.3028107 "/>
<text transform="matrix(0.85 0 0 1 74.7554016 187.765213)" class="st10 st2 st3">GMLに定義されたクラス</text>
<polygon class="st0" points="63.5739326,199.074173 72.2077866,199.074173 72.2077866,190.3313751 63.5739326,190.3313751 
	63.5739326,199.074173 "/>
<polygon class="st9" points="63.5739326,199.074173 72.2077866,199.074173 72.2077866,190.3313751 63.5739326,190.3313751 
	63.5739326,199.074173 "/>
<text transform="matrix(0.85 0 0 1 74.7554016 197.530838)" class="st10 st2 st3">CityGMLに定義されたクラス</text>
<polygon class="st5" points="63.5739326,208.8456573 72.2077866,208.8456573 72.2077866,200.1027985 63.5739326,200.1027985 
	63.5739326,208.8456573 "/>
<polygon class="st9" points="63.5739326,208.8456573 72.2077866,208.8456573 72.2077866,200.1027985 63.5739326,200.1027985 
	63.5739326,208.8456573 "/>
<text transform="matrix(0.85 0 0 1 74.7554016 207.3042755)" class="st10 st2 st3">i-URに定義されたクラス</text>
<text transform="matrix(0.85 0 0 1 99.6304016 177.4761505)" class="st10 st4 st11">凡例</text>
<polygon class="st0" points="251.4873505,62.27425 342.9046936,62.27425 342.9046936,21.1313076 251.4873505,21.1313076 
	251.4873505,62.27425 "/>
<polygon class="st1" points="251.4873505,62.27425 342.9046936,62.27425 342.9046936,21.1313076 251.4873505,21.1313076 
	251.4873505,62.27425 "/>
<text transform="matrix(0.85 0 -0.3126727 0.9498609 308.8908997 29.8803196)"><tspan x="0" y="0" class="st2 st12">_</tspan><tspan x="2.710248" y="0" class="st2 st12">C</tspan><tspan x="7.0473342" y="0" class="st2 st12">i</tspan><tspan x="8.6741724" y="0" class="st2 st12">t</tspan><tspan x="10.840992" y="0" class="st2 st12">y</tspan><tspan x="14.092371" y="0" class="st2 st12">O</tspan><tspan x="19.5036755" y="0" class="st2 st12">b</tspan><tspan x="23.8327198" y="0" class="st2 st12">j</tspan><tspan x="25.4595585" y="0" class="st2 st12">e</tspan><tspan x="29.2463226" y="0" class="st2 st12">ct</tspan></text>
<text transform="matrix(0.85 0 -0.3126727 0.9498609 255.052124 40.1655312)"><tspan x="0" y="0" class="st13 st2 st12">t</tspan><tspan x="2.7022059" y="0" class="st13 st2 st12">r</tspan><tspan x="5.4021139" y="0" class="st13 st2 st12">a</tspan><tspan x="9.1877298" y="0" class="st13 st2 st12">n</tspan><tspan x="13.515625" y="0" class="st13 st2 st12">::</tspan><tspan x="16.7509193" y="0" class="st13 st2 st12">_</tspan><tspan x="19.4611664" y="0" class="st13 st2 st12">T</tspan><tspan x="23.2467823" y="0" class="st13 st2 st12">r</tspan><tspan x="25.9478397" y="0" class="st13 st2 st12">a</tspan><tspan x="29.7323055" y="0" class="st13 st2 st12">n</tspan><tspan x="34.0613518" y="0" class="st13 st2 st12">s</tspan><tspan x="37.3081322" y="0" class="st13 st2 st12">p</tspan><tspan x="41.6360283" y="0" class="st13 st2 st12">o</tspan><tspan x="45.9639244" y="0" class="st13 st2 st12">r</tspan><tspan x="48.6649818" y="0" class="st13 st2 st12">t</tspan><tspan x="51.3660355" y="0" class="st13 st2 st12">a</tspan><tspan x="55.1516533" y="0" class="st13 st2 st12">t</tspan><tspan x="57.8538589" y="0" class="st13 st2 st12">i</tspan><tspan x="59.4806976" y="0" class="st13 st2 st12">o</tspan><tspan x="63.809742" y="0" class="st13 st2 st12">n</tspan><tspan x="68.1376343" y="0" class="st13 st2 st12">O</tspan><tspan x="73.5489426" y="0" class="st13 st2 st12">b</tspan><tspan x="77.8768387" y="0" class="st13 st2 st12">j</tspan><tspan x="79.5048218" y="0" class="st13 st2 st12">e</tspan><tspan x="83.2904358" y="0" class="st13 st2 st12">ct</tspan></text>
<polygon class="st5" points="53.4164543,66.3885117 165.1487427,66.3885117 165.1487427,21.1313076 53.4164543,21.1313076 
	53.4164543,66.3885117 "/>
<polygon class="st1" points="53.4164543,66.3885117 165.1487427,66.3885117 165.1487427,21.1313076 53.4164543,21.1313076 
	53.4164543,66.3885117 "/>
<text transform="matrix(0.85 0 0 1 91.5054016 31.4136562)"><tspan x="0" y="0" class="st2 st3">«</tspan><tspan x="3.5960476" y="0" class="st2 st3">D</tspan><tspan x="8.2301235" y="0" class="st2 st3">a</tspan><tspan x="11.8255968" y="0" class="st2 st3">t</tspan><tspan x="13.8838463" y="0" class="st2 st3">a</tspan><tspan x="17.4793186" y="0" class="st2 st3">T</tspan><tspan x="21.0759411" y="0" class="st2 st3">y</tspan><tspan x="24.1641769" y="0" class="st2 st3">p</tspan><tspan x="28.274931" y="0" class="st2 st3">e</tspan><tspan x="31.8715515" y="0" class="st2 st3">»</tspan></text>
<text transform="matrix(0.85 0 -0.3126727 0.9498609 82.880249 40.1655312)"><tspan x="0" y="0" class="st13 st2 st12">u</tspan><tspan x="4.3278952" y="0" class="st13 st2 st12">r</tspan><tspan x="7.0289521" y="0" class="st13 st2 st12">o</tspan><tspan x="11.3568468" y="0" class="st13 st2 st12">::</tspan><tspan x="14.5921412" y="0" class="st13 st2 st12">D</tspan><tspan x="19.4703579" y="0" class="st13 st2 st12">m</tspan><tspan x="25.9627743" y="0" class="st13 st2 st12">A</tspan><tspan x="30.8340988" y="0" class="st13 st2 st12">tt</tspan><tspan x="36.2373619" y="0" class="st13 st2 st12">r</tspan><tspan x="38.9372673" y="0" class="st13 st2 st12">i</tspan><tspan x="40.565258" y="0" class="st13 st2 st12">b</tspan><tspan x="44.8931503" y="0" class="st13 st2 st12">u</tspan><tspan x="49.2210464" y="0" class="st13 st2 st12">t</tspan><tspan x="51.9232521" y="0" class="st13 st2 st12">e</tspan></text>
<line class="st1" x1="53.4164543" y1="44.27425" x2="164.6408691" y2="44.27425"/>
<text transform="matrix(0.85 0 0 1 55.9585304 53.5386543)" class="st2 st3">+ dmCode: gml::CodeType</text>
<text transform="matrix(0.85 0 0 1 55.9585304 62.2730293)" class="st2 st3">+ meshCode: gml::CodeType [0..1]</text>
<polygon class="st5" points="429.2432861,278.7885437 538.9440308,278.7885437 538.9440308,154.8456573 429.2432861,154.8456573 
	429.2432861,278.7885437 "/>
<polygon class="st1" points="429.2432861,278.7885437 538.9440308,278.7885437 538.9440308,154.8456573 429.2432861,154.8456573 
	429.2432861,278.7885437 "/>
<text transform="matrix(0.85 0 0 1 466.3179016 165.1324005)"><tspan x="0" y="0" class="st2 st3">«</tspan><tspan x="3.5960476" y="0" class="st2 st3">D</tspan><tspan x="8.2306986" y="0" class="st2 st3">a</tspan><tspan x="11.8255968" y="0" class="st2 st3">t</tspan><tspan x="13.8844204" y="0" class="st2 st3">a</tspan><tspan x="17.4793186" y="0" class="st2 st3">T</tspan><tspan x="21.0765152" y="0" class="st2 st3">y</tspan><tspan x="24.1636028" y="0" class="st2 st3">p</tspan><tspan x="28.2755051" y="0" class="st2 st3">e</tspan><tspan x="31.8715515" y="0" class="st2 st3">»</tspan></text>
<text transform="matrix(0.85 0 0 1 449.5522766 173.8824005)"><tspan x="0" y="0" class="st4 st3">u</tspan><tspan x="4.1084557" y="0" class="st4 st3">r</tspan><tspan x="6.6762404" y="0" class="st4 st3">o</tspan><tspan x="10.7892923" y="0" class="st4 st3">::</tspan><tspan x="13.8809738" y="0" class="st4 st3">F</tspan><tspan x="17.4804688" y="0" class="st4 st3">a</tspan><tspan x="21.0776653" y="0" class="st4 st3">c</tspan><tspan x="24.1681976" y="0" class="st4 st3">ili</tspan><tspan x="28.8051472" y="0" class="st4 st3">t</tspan><tspan x="31.3752289" y="0" class="st4 st3">y</tspan><tspan x="34.9735756" y="0" class="st4 st3">I</tspan><tspan x="37.0301018" y="0" class="st4 st3">d</tspan><tspan x="41.1385574" y="0" class="st4 st3">A</tspan><tspan x="45.7605667" y="0" class="st4 st3">tt</tspan><tspan x="50.8995857" y="0" class="st4 st3">r</tspan><tspan x="53.4673691" y="0" class="st4 st3">i</tspan><tspan x="55.0137863" y="0" class="st4 st3">b</tspan><tspan x="59.122242" y="0" class="st4 st3">u</tspan><tspan x="63.2306976" y="0" class="st4 st3">t</tspan><tspan x="65.8007812" y="0" class="st4 st3">e</tspan></text>
<line class="st1" x1="429.2432861" y1="177.9884796" x2="538.4361572" y2="177.9884796"/>
<text transform="matrix(0.85 0 0 1 431.7866516 187.249588)" class="st2 st3">+ id: xs::string [0..1]</text>
<text transform="matrix(0.85 0 0 1 431.7866516 195.9917755)" class="st2 st3">+ partId: xs::string [0..1]</text>
<text transform="matrix(0.85 0 0 1 431.7866516 204.7417755)" class="st2 st3">+ branchId: xs::string [0..1]</text>
<text transform="matrix(0.85 0 0 1 431.7866516 213.4761505)" class="st2 st3">+ prefecture: gml::CodeType [0..*]</text>
<text transform="matrix(0.85 0 0 1 431.7866516 222.218338)" class="st2 st3">+ city: gml::CodeType [0..*]</text>
<text transform="matrix(0.85 0 0 1 431.7866516 230.9605255)" class="st2 st3">+ route: xs::string [0..1]</text>
<text transform="matrix(0.85 0 0 1 431.7866516 239.6949005)" class="st2 st3">+ startPost: xs::string [0..1]</text>
<text transform="matrix(0.85 0 0 1 431.7866516 248.4449005)" class="st2 st3">+ endPost: xs::string [0..1]</text>
<text transform="matrix(0.85 0 0 1 431.7866516 257.1871033)" class="st2 st3">+ startLat: xs::double [0..1]</text>
<text transform="matrix(0.85 0 0 1 431.7866516 265.9292908)" class="st2 st3">+ startLong: xs::double [0..1]</text>
<text transform="matrix(0.85 0 0 1 431.7866516 274.6792908)" class="st2 st3">+ alternativeName: xs::string [0..*]</text>
<polygon class="st5" points="429.2432861,143.5313263 531.8338013,143.5313263 531.8338013,98.2741928 429.2432861,98.2741928 
	429.2432861,143.5313263 "/>
<polygon class="st1" points="429.2432861,143.5313263 531.8338013,143.5313263 531.8338013,98.2741928 429.2432861,98.2741928 
	429.2432861,143.5313263 "/>
<text transform="matrix(0.85 0 0 1 462.7632141 108.5699081)"><tspan x="0" y="0" class="st2 st3">«</tspan><tspan x="3.5960476" y="0" class="st2 st3">D</tspan><tspan x="8.2306986" y="0" class="st2 st3">a</tspan><tspan x="11.8255968" y="0" class="st2 st3">t</tspan><tspan x="13.8844204" y="0" class="st2 st3">a</tspan><tspan x="17.4793186" y="0" class="st2 st3">T</tspan><tspan x="21.0765152" y="0" class="st2 st3">y</tspan><tspan x="24.1636028" y="0" class="st2 st3">p</tspan><tspan x="28.2755051" y="0" class="st2 st3">e</tspan><tspan x="31.8715515" y="0" class="st2 st3">»</tspan></text>
<text transform="matrix(0.85 0 0 1 441.9429016 117.3042831)"><tspan x="0" y="0" class="st4 st3">u</tspan><tspan x="4.1084557" y="0" class="st4 st3">r</tspan><tspan x="6.6762404" y="0" class="st4 st3">o</tspan><tspan x="10.7892923" y="0" class="st4 st3">::</tspan><tspan x="13.8809738" y="0" class="st4 st3">F</tspan><tspan x="17.4804688" y="0" class="st4 st3">a</tspan><tspan x="21.0776653" y="0" class="st4 st3">c</tspan><tspan x="24.1681976" y="0" class="st4 st3">ili</tspan><tspan x="28.8051472" y="0" class="st4 st3">t</tspan><tspan x="31.3752289" y="0" class="st4 st3">y</tspan><tspan x="34.9735756" y="0" class="st4 st3">T</tspan><tspan x="38.575367" y="0" class="st4 st3">y</tspan><tspan x="42.1748619" y="0" class="st4 st3">p</tspan><tspan x="46.2833176" y="0" class="st4 st3">e</tspan><tspan x="49.8816605" y="0" class="st4 st3">A</tspan><tspan x="54.5048256" y="0" class="st4 st3">tt</tspan><tspan x="59.6438408" y="0" class="st4 st3">r</tspan><tspan x="62.2116241" y="0" class="st4 st3">i</tspan><tspan x="63.7568932" y="0" class="st4 st3">b</tspan><tspan x="67.8664932" y="0" class="st4 st3">u</tspan><tspan x="71.9749527" y="0" class="st4 st3">t</tspan><tspan x="74.5438843" y="0" class="st4 st3">e</tspan></text>
<line class="st1" x1="429.2432861" y1="121.4170761" x2="531.3259277" y2="121.4170761"/>
<text transform="matrix(0.85 0 0 1 431.7866516 130.6792755)" class="st2 st3">+ class: gml::CodeType [0..1]</text>
<text transform="matrix(0.85 0 0 1 431.7866516 139.4136505)" class="st2 st3">+ function: gml::CodeType [0..*]</text>
<polygon class="st5" points="429.2432861,62.27425 514.5661011,62.27425 514.5661011,21.1313076 429.2432861,21.1313076 
	429.2432861,62.27425 "/>
<polygon class="st1" points="429.2432861,62.27425 514.5661011,62.27425 514.5661011,21.1313076 429.2432861,21.1313076 
	429.2432861,62.27425 "/>
<text transform="matrix(0.85 0 0 1 454.1304016 31.4136562)"><tspan x="0" y="0" class="st2 st3">«</tspan><tspan x="3.5960476" y="0" class="st2 st3">D</tspan><tspan x="8.2306986" y="0" class="st2 st3">a</tspan><tspan x="11.8255968" y="0" class="st2 st3">t</tspan><tspan x="13.8844204" y="0" class="st2 st3">a</tspan><tspan x="17.4793186" y="0" class="st2 st3">T</tspan><tspan x="21.0765152" y="0" class="st2 st3">y</tspan><tspan x="24.1636028" y="0" class="st2 st3">p</tspan><tspan x="28.2755051" y="0" class="st2 st3">e</tspan><tspan x="31.8715515" y="0" class="st2 st3">»</tspan></text>
<text transform="matrix(0.85 0 -0.3126727 0.9498609 440.427124 40.1655312)"><tspan x="0" y="0" class="st13 st2 st12">u</tspan><tspan x="4.3278952" y="0" class="st13 st2 st12">r</tspan><tspan x="7.0289521" y="0" class="st13 st2 st12">o</tspan><tspan x="11.3568468" y="0" class="st13 st2 st12">::</tspan><tspan x="14.5921412" y="0" class="st13 st2 st12">F</tspan><tspan x="18.3800545" y="0" class="st13 st2 st12">a</tspan><tspan x="22.1656704" y="0" class="st13 st2 st12">c</tspan><tspan x="25.4170494" y="0" class="st13 st2 st12">ili</tspan><tspan x="30.2987118" y="0" class="st13 st2 st12">t</tspan><tspan x="33.0009193" y="0" class="st13 st2 st12">y</tspan><tspan x="36.7865334" y="0" class="st13 st2 st12">A</tspan><tspan x="41.657856" y="0" class="st13 st2 st12">tt</tspan><tspan x="47.0611191" y="0" class="st13 st2 st12">r</tspan><tspan x="49.7621765" y="0" class="st13 st2 st12">i</tspan><tspan x="51.3890152" y="0" class="st13 st2 st12">b</tspan><tspan x="55.7169113" y="0" class="st13 st2 st12">u</tspan><tspan x="60.0448036" y="0" class="st13 st2 st12">t</tspan><tspan x="62.7470093" y="0" class="st13 st2 st12">e</tspan></text>
<line class="st1" x1="429.2432861" y1="44.27425" x2="514.0582275" y2="44.27425"/>
<text transform="matrix(0.85 0 0 1 431.7866516 53.5386543)" class="st2 st3">+ facilityId: xs::string [0..1]</text>
<line class="st1" x1="428.7354126" y1="41.7027168" x2="374.3928833" y2="41.7027168"/>
<line class="st1" x1="374.3928833" y1="41.7027168" x2="374.3928833" y2="117.8170395"/>
<line class="st1" x1="374.3928833" y1="117.8170395" x2="349.5070496" y2="117.8170395"/>
<polyline class="st14" points="354.5857849,115.2456284 349.5070496,117.8170395 354.5857849,120.3885117 359.6645203,117.8170395 
	354.5857849,115.2456284 "/>
<polyline class="st1" points="354.5857849,115.2456284 349.5070496,117.8170395 354.5857849,120.3885117 359.6645203,117.8170395 
	"/>
<polyline class="st1" points="421.1172791,38.6170235 428.7354126,41.7027168 421.1172791,44.7885323 "/>
<line class="st1" x1="428.7354126" y1="110.6170883" x2="374.3928833" y2="110.6170883"/>
<polyline class="st14" points="354.5857849,115.2456284 349.5070496,117.8170395 354.5857849,120.3885117 359.6645203,117.8170395 
	354.5857849,115.2456284 "/>
<polyline class="st1" points="354.5857849,115.2456284 349.5070496,117.8170395 354.5857849,120.3885117 359.6645203,117.8170395 
	"/>
<polyline class="st1" points="421.1172791,107.5313339 428.7354126,110.6170883 421.1172791,113.7027817 "/>
<line class="st1" x1="428.7354126" y1="215.5313263" x2="374.3928833" y2="215.5313263"/>
<line class="st1" x1="374.3928833" y1="215.5313263" x2="374.3928833" y2="117.8170395"/>
<polyline class="st14" points="354.5857849,115.2456284 349.5070496,117.8170395 354.5857849,120.3885117 359.6645203,117.8170395 
	354.5857849,115.2456284 "/>
<polygon class="st1" points="359.6645203,117.8170395 354.5857849,120.3885117 349.5070496,117.8170395 354.5857849,115.2456284 "/>
<polyline class="st1" points="421.1172791,212.4456329 428.7354126,215.5313263 421.1172791,218.6170807 "/>
<line class="st1" x1="165.6566162" y1="42.7312813" x2="250.9794769" y2="42.7312813"/>
<polyline class="st14" points="245.9007111,45.3028145 250.9794769,42.7312813 245.9007111,40.1598701 240.8219757,42.7312813 
	245.9007111,45.3028145 "/>
<polygon class="st1" points="245.9007111,45.3028145 250.9794769,42.7312813 245.9007111,40.1598701 240.8219757,42.7312813 "/>
<polyline class="st1" points="173.2747345,45.8170967 165.6566162,42.7312813 173.2747345,39.6455879 "/>
<line class="st1" x1="181.4007111" y1="118.3313828" x2="245.9007111" y2="118.3313828"/>
<polyline class="st14" points="240.8219757,120.9027939 245.9007111,118.3313828 240.8219757,115.7599106 235.7432404,118.3313828 
	240.8219757,120.9027939 "/>
<polygon class="st1" points="240.8219757,120.9027939 245.9007111,118.3313828 240.8219757,115.7599106 235.7432404,118.3313828 "/>
<polyline class="st1" points="189.0188293,121.4170761 181.4007111,118.3313828 189.0188293,115.2456284 "/>
<line class="st1" x1="365.7590332" y1="478.3313904" x2="365.7590332" y2="468.559906"/>
<line class="st1" x1="365.7590332" y1="468.559906" x2="288.5621643" y2="468.559906"/>
<line class="st1" x1="288.5621643" y1="468.559906" x2="288.5621643" y2="443.3599548"/>
<polyline class="st15" points="291.6094055,451.5885315 285.5149231,451.5885315 288.5621643,443.3599548 291.6094055,451.5885315 
	"/>
<polygon class="st1" points="291.6094055,451.5885315 285.5149231,451.5885315 288.5621643,443.3599548 "/>
<line class="st1" x1="222.0306549" y1="483.4742126" x2="222.0306549" y2="468.559906"/>
<line class="st1" x1="222.0306549" y1="468.559906" x2="288.5621643" y2="468.559906"/>
<line class="st1" x1="289.0700378" y1="257.1885071" x2="289.0700378" y2="217.074173"/>
<polyline class="st14" points="291.6094055,222.2170563 289.0700378,217.074173 286.5306702,222.2170563 289.0700378,227.3599396 
	291.6094055,222.2170563 "/>
<polygon class="st1" points="289.0700378,227.3599396 286.5306702,222.2170563 289.0700378,217.074173 291.6094055,222.2170563 "/>
<polyline class="st1" points="292.1172791,249.4741974 289.0700378,257.1885071 286.0227966,249.4741974 "/>
<line class="st1" x1="296.6881409" y1="174.9027863" x2="296.6881409" y2="148.6742096"/>
<polyline class="st15" points="299.7353821,156.9027863 293.6408997,156.9027863 296.6881409,148.6742096 299.7353821,156.9027863 
	"/>
<polygon class="st1" points="299.7353821,156.9027863 293.6408997,156.9027863 296.6881409,148.6742096 "/>
<line class="st1" x1="301.7668762" y1="87.474205" x2="301.7668762" y2="62.7885323"/>
<polyline class="st15" points="304.8141174,71.0170517 298.719635,71.0170517 301.7668762,62.7885323 304.8141174,71.0170517 "/>
<polygon class="st1" points="304.8141174,71.0170517 298.719635,71.0170517 301.7668762,62.7885323 "/>
<text transform="matrix(0.85 0 0 1 180.3882141 35.5386543)"><tspan x="0" y="0" class="st2 st3">+</tspan><tspan x="4.627183" y="0" class="st2 st3">t</tspan><tspan x="6.685432" y="0" class="st2 st3">r</tspan><tspan x="9.2503443" y="0" class="st2 st3">a</tspan><tspan x="12.8458176" y="0" class="st2 st3">n</tspan><tspan x="16.4487591" y="0" class="st2 st3">D</tspan><tspan x="21.0834103" y="0" class="st2 st3">m</tspan><tspan x="26.7417278" y="0" class="st2 st3">A</tspan><tspan x="30.8599491" y="0" class="st2 st3">tt</tspan><tspan x="34.9764481" y="0" class="st2 st3">r</tspan><tspan x="37.541935" y="0" class="st2 st3">i</tspan><tspan x="39.0872002" y="0" class="st2 st3">b</tspan><tspan x="43.1985283" y="0" class="st2 st3">u</tspan><tspan x="46.8014679" y="0" class="st2 st3">t</tspan><tspan x="48.8597183" y="0" class="st2 st3">e</tspan></text>
<text transform="matrix(0.85 0 0 1 183.9429016 55.5855293)"><tspan x="0" y="0" class="st2 st3">0</tspan><tspan x="3.60409" y="0" class="st2 st3">..</tspan><tspan x="6.676815" y="0" class="st2 st3">*</tspan></text>
<text transform="matrix(0.85 0 0 1 201.7163391 252.562088)"><tspan x="0" y="0" class="st2 st3">+</tspan><tspan x="4.627183" y="0" class="st2 st3">s</tspan><tspan x="7.7113967" y="0" class="st2 st3">q</tspan><tspan x="11.8221502" y="0" class="st2 st3">u</tspan><tspan x="15.4250917" y="0" class="st2 st3">a</tspan><tspan x="19.020565" y="0" class="st2 st3">r</tspan><tspan x="21.5854778" y="0" class="st2 st3">e</tspan><tspan x="25.1821003" y="0" class="st2 st3">U</tspan><tspan x="29.8087082" y="0" class="st2 st3">r</tspan><tspan x="32.3736191" y="0" class="st2 st3">b</tspan><tspan x="36.4849472" y="0" class="st2 st3">a</tspan><tspan x="40.0804214" y="0" class="st2 st3">n</tspan><tspan x="43.6833611" y="0" class="st2 st3">P</tspan><tspan x="47.2874527" y="0" class="st2 st3">l</tspan><tspan x="48.8327179" y="0" class="st2 st3">a</tspan><tspan x="52.4287682" y="0" class="st2 st3">n</tspan><tspan x="56.0317078" y="0" class="st2 st3">A</tspan><tspan x="60.149929" y="0" class="st2 st3">tt</tspan><tspan x="64.2664261" y="0" class="st2 st3">r</tspan><tspan x="66.8319168" y="0" class="st2 st3">i</tspan><tspan x="68.377182" y="0" class="st2 st3">b</tspan><tspan x="72.4885101" y="0" class="st2 st3">u</tspan><tspan x="76.0914536" y="0" class="st2 st3">t</tspan><tspan x="78.1496964" y="0" class="st2 st3">e</tspan></text>
<text transform="matrix(0.85 0 0 1 298.7241516 254.6167755)"><tspan x="0" y="0" class="st2 st3">0</tspan><tspan x="3.60409" y="0" class="st2 st3">..</tspan><tspan x="6.6762404" y="0" class="st2 st3">1</tspan></text>
<text transform="matrix(0.85 0 0 1 366.2632141 37.5855293)"><tspan x="0" y="0" class="st2 st3">+</tspan><tspan x="4.6266084" y="0" class="st2 st3">t</tspan><tspan x="6.685432" y="0" class="st2 st3">r</tspan><tspan x="9.2509184" y="0" class="st2 st3">a</tspan><tspan x="12.8458176" y="0" class="st2 st3">n</tspan><tspan x="16.4487591" y="0" class="st2 st3">F</tspan><tspan x="19.5392914" y="0" class="st2 st3">a</tspan><tspan x="23.1353397" y="0" class="st2 st3">c</tspan><tspan x="26.2235737" y="0" class="st2 st3">ili</tspan><tspan x="30.8605232" y="0" class="st2 st3">t</tspan><tspan x="32.9181976" y="0" class="st2 st3">y</tspan><tspan x="36.0064316" y="0" class="st2 st3">A</tspan><tspan x="40.1252289" y="0" class="st2 st3">tt</tspan><tspan x="44.2417259" y="0" class="st2 st3">r</tspan><tspan x="46.8072128" y="0" class="st2 st3">i</tspan><tspan x="48.3524818" y="0" class="st2 st3">b</tspan><tspan x="52.4632339" y="0" class="st2 st3">u</tspan><tspan x="56.0661736" y="0" class="st2 st3">t</tspan><tspan x="58.125" y="0" class="st2 st3">e</tspan></text>
<text transform="matrix(0.85 0 0 1 418.0679016 51.4761543)"><tspan x="0" y="0" class="st2 st3">0</tspan><tspan x="3.60409" y="0" class="st2 st3">..</tspan><tspan x="6.6762404" y="0" class="st2 st3">*</tspan></text>
<text transform="matrix(0.85 0 0 1 353.5679016 227.8824005)"><tspan x="0" y="0" class="st2 st3">+</tspan><tspan x="4.6266084" y="0" class="st2 st3">t</tspan><tspan x="6.685432" y="0" class="st2 st3">r</tspan><tspan x="9.2509184" y="0" class="st2 st3">a</tspan><tspan x="12.8458176" y="0" class="st2 st3">n</tspan><tspan x="16.4487591" y="0" class="st2 st3">F</tspan><tspan x="19.5392914" y="0" class="st2 st3">a</tspan><tspan x="23.1353397" y="0" class="st2 st3">c</tspan><tspan x="26.2235737" y="0" class="st2 st3">ili</tspan><tspan x="30.8605232" y="0" class="st2 st3">t</tspan><tspan x="32.9181976" y="0" class="st2 st3">y</tspan><tspan x="36.0064316" y="0" class="st2 st3">I</tspan><tspan x="37.5517006" y="0" class="st2 st3">d</tspan><tspan x="41.6624527" y="0" class="st2 st3">A</tspan><tspan x="45.78125" y="0" class="st2 st3">tt</tspan><tspan x="49.897747" y="0" class="st2 st3">r</tspan><tspan x="52.4632339" y="0" class="st2 st3">i</tspan><tspan x="54.0084991" y="0" class="st2 st3">b</tspan><tspan x="58.1192551" y="0" class="st2 st3">u</tspan><tspan x="61.7221947" y="0" class="st2 st3">t</tspan><tspan x="63.7810173" y="0" class="st2 st3">e</tspan></text>
<text transform="matrix(0.85 0 0 1 405.8804016 212.9605255)"><tspan x="0" y="0" class="st2 st3">0</tspan><tspan x="3.60409" y="0" class="st2 st3">..</tspan><tspan x="6.6762404" y="0" class="st2 st3">1</tspan></text>
<text transform="matrix(0.85 0 0 1 367.7866516 91.0777206)"><tspan x="0" y="0" class="st2 st3">+</tspan><tspan x="4.6266084" y="0" class="st2 st3">t</tspan><tspan x="6.685432" y="0" class="st2 st3">r</tspan><tspan x="9.2509184" y="0" class="st2 st3">a</tspan><tspan x="12.8458176" y="0" class="st2 st3">n</tspan><tspan x="16.4487591" y="0" class="st2 st3">F</tspan><tspan x="19.5392914" y="0" class="st2 st3">a</tspan><tspan x="23.1353397" y="0" class="st2 st3">c</tspan><tspan x="26.2235737" y="0" class="st2 st3">ili</tspan><tspan x="30.8605232" y="0" class="st2 st3">t</tspan><tspan x="32.9181976" y="0" class="st2 st3">y</tspan><tspan x="36.0064316" y="0" class="st2 st3">T</tspan><tspan x="39.6024818" y="0" class="st2 st3">y</tspan><tspan x="42.6907158" y="0" class="st2 st3">p</tspan><tspan x="46.8014679" y="0" class="st2 st3">e</tspan><tspan x="50.3986664" y="0" class="st2 st3">A</tspan><tspan x="54.5174599" y="0" class="st2 st3">tt</tspan><tspan x="58.6339607" y="0" class="st2 st3">r</tspan><tspan x="61.1982994" y="0" class="st2 st3">i</tspan><tspan x="62.7447128" y="0" class="st2 st3">b</tspan><tspan x="66.8554688" y="0" class="st2 st3">u</tspan><tspan x="70.4584045" y="0" class="st2 st3">t</tspan><tspan x="72.5160828" y="0" class="st2 st3">e</tspan></text>
<text transform="matrix(0.85 0 0 1 407.4116516 123.9917831)"><tspan x="0" y="0" class="st2 st3">0</tspan><tspan x="3.60409" y="0" class="st2 st3">..</tspan><tspan x="6.6762404" y="0" class="st2 st3">*</tspan></text>
<text transform="matrix(0.85 0 0 1 175.3100891 78.2105331)"><tspan x="0" y="0" class="st2 st3">+</tspan><tspan x="4.627183" y="0" class="st2 st3">t</tspan><tspan x="6.685432" y="0" class="st2 st3">r</tspan><tspan x="9.2503443" y="0" class="st2 st3">a</tspan><tspan x="12.8458176" y="0" class="st2 st3">n</tspan><tspan x="16.4487591" y="0" class="st2 st3">D</tspan><tspan x="21.0834103" y="0" class="st2 st3">a</tspan><tspan x="24.6788826" y="0" class="st2 st3">t</tspan><tspan x="26.7371311" y="0" class="st2 st3">a</tspan><tspan x="30.3326054" y="0" class="st2 st3">Q</tspan><tspan x="35.4733429" y="0" class="st2 st3">u</tspan><tspan x="39.0762863" y="0" class="st2 st3">a</tspan><tspan x="42.6717606" y="0" class="st2 st3">li</tspan><tspan x="45.762867" y="0" class="st2 st3">t</tspan><tspan x="47.8211136" y="0" class="st2 st3">y</tspan><tspan x="50.9093513" y="0" class="st2 st3">A</tspan><tspan x="55.0281448" y="0" class="st2 st3">tt</tspan><tspan x="59.1446457" y="0" class="st2 st3">r</tspan><tspan x="61.7095566" y="0" class="st2 st3">i</tspan><tspan x="63.2553978" y="0" class="st2 st3">b</tspan><tspan x="67.3661499" y="0" class="st2 st3">u</tspan><tspan x="70.9690933" y="0" class="st2 st3">t</tspan><tspan x="73.0273438" y="0" class="st2 st3">e</tspan></text>
<text transform="matrix(0.85 0 0 1 182.9272766 128.108963)"><tspan x="0" y="0" class="st2 st3">0</tspan><tspan x="3.60409" y="0" class="st2 st3">..</tspan><tspan x="6.676815" y="0" class="st2 st3">1</tspan></text>
</svg>
