<?xml version="1.0" encoding="utf-8"?>
<!-- Generator: Adobe Illustrator 27.4.1, SVG Export Plug-In . SVG Version: 6.00 Build 0)  -->
<svg version="1.1" id="レイヤー_1" xmlns="http://www.w3.org/2000/svg" xmlns:xlink="http://www.w3.org/1999/xlink" x="0px"
	 y="0px" viewBox="0 0 828.3 833" style="enable-background:new 0 0 828.3 833;" xml:space="preserve">
<style type="text/css">
	.st0{fill-rule:evenodd;clip-rule:evenodd;fill:#CFD1D8;}
	.st1{fill-rule:evenodd;clip-rule:evenodd;fill:#FFFFCC;}
	.st2{fill:none;stroke:#000000;stroke-width:1.7322;stroke-linecap:round;stroke-linejoin:round;stroke-miterlimit:10;}
	.st3{font-family:'YuGothicUI-Regular';}
	.st4{font-size:11.2598px;}
	.st5{font-size:11.8726px;}
	.st6{fill:none;stroke:#000000;stroke-width:0.3218;stroke-miterlimit:10;}
	.st7{font-family:'YuGothicUI-Bold';}
	.st8{fill-rule:evenodd;clip-rule:evenodd;fill:#CCFFCC;}
	.st9{fill-rule:evenodd;clip-rule:evenodd;fill:#F0F0F0;}
	.st10{fill:none;stroke:#D7D7D7;stroke-width:0.8662;stroke-linecap:square;stroke-miterlimit:10;}
	.st11{fill:none;stroke:#000000;stroke-width:0.8662;stroke-linecap:square;stroke-miterlimit:10;}
	.st12{fill:#003060;}
	.st13{fill-rule:evenodd;clip-rule:evenodd;fill:#FFCCFF;}
	.st14{font-family:'MS-PGothic';}
	.st15{font-size:13.8582px;}
	.st16{fill:none;stroke:#003060;stroke-width:0.396;stroke-miterlimit:10;}
	.st17{fill:none;stroke:#000000;stroke-width:1.7322;stroke-linecap:round;stroke-linejoin:bevel;stroke-miterlimit:10;}
	.st18{fill-rule:evenodd;clip-rule:evenodd;fill:#FFFFFF;}
	.st19{font-family:'Calibri';}
	.st20{font-size:9.5276px;}
</style>
<path class="st0" d="M430.8,279.6c1.2,0,2.2,1,2.2,2.2l0,0v38.1l0,0c0,1.2-1,2.2-2.2,2.2l0,0l0,0H291.1l0,0c-1.2,0-2.2-1-2.2-2.2
	l0,0v-38.1c0-1.2,1-2.2,2.2-2.2l0,0H430.8L430.8,279.6L430.8,279.6z"/>
<path class="st1" d="M428.2,277c1.2,0,2.2,1,2.2,2.2l0,0v38.1l0,0c0,1.2-1,2.2-2.2,2.2l0,0l0,0H288.5l0,0c-1.2,0-2.2-1-2.2-2.2l0,0
	v-38.1c0-1.2,1-2.2,2.2-2.2l0,0H428.2L428.2,277L428.2,277z"/>
<path class="st2" d="M428.2,277c1.2,0,2.2,1,2.2,2.2l0,0v38.1l0,0c0,1.2-1,2.2-2.2,2.2l0,0l0,0H288.5l0,0c-1.2,0-2.2-1-2.2-2.2l0,0
	v-38.1c0-1.2,1-2.2,2.2-2.2l0,0H428.2L428.2,277L428.2,277z"/>
<text transform="matrix(0.85 0 0 1 322.7427 294.3625)" class="st3 st4">«featureType»</text>
<text transform="matrix(0.85 0 -0.3169 0.9485 298.431 309.0882)" class="st3 st5">v</text>
<text transform="matrix(0.85 0 -0.3169 0.9485 298.431 309.0882)" class="st6 st3 st5">v</text>
<text transform="matrix(0.85 0 -0.3169 0.9485 304.5032 309.0882)" class="st3 st5">e</text>
<text transform="matrix(0.85 0 -0.3169 0.9485 304.5032 309.0882)" class="st6 st3 st5">e</text>
<text transform="matrix(0.85 0 -0.3169 0.9485 310.5735 309.0882)" class="st3 st5">g</text>
<text transform="matrix(0.85 0 -0.3169 0.9485 310.5735 309.0882)" class="st6 st3 st5">g</text>
<text transform="matrix(0.85 0 -0.3169 0.9485 317.513 309.0882)" class="st3 st5">:</text>
<text transform="matrix(0.85 0 -0.3169 0.9485 317.513 309.0882)" class="st6 st3 st5">:</text>
<text transform="matrix(0.85 0 -0.3169 0.9485 320.1068 309.0882)" class="st3 st5">:</text>
<text transform="matrix(0.85 0 -0.3169 0.9485 320.1068 309.0882)" class="st6 st3 st5">:</text>
<text transform="matrix(0.85 0 -0.3169 0.9485 322.6985 309.0882)" class="st3 st5">_</text>
<text transform="matrix(0.85 0 -0.3169 0.9485 322.6985 309.0882)" class="st6 st3 st5">_</text>
<text transform="matrix(0.85 0 -0.3169 0.9485 327.0443 309.0882)" class="st3 st5">V</text>
<text transform="matrix(0.85 0 -0.3169 0.9485 327.0443 309.0882)" class="st6 st3 st5">V</text>
<text transform="matrix(0.85 0 -0.3169 0.9485 333.9974 309.0882)" class="st3 st5">e</text>
<text transform="matrix(0.85 0 -0.3169 0.9485 333.9974 309.0882)" class="st6 st3 st5">e</text>
<text transform="matrix(0.85 0 -0.3169 0.9485 340.0677 309.0882)" class="st3 st5">g</text>
<text transform="matrix(0.85 0 -0.3169 0.9485 340.0677 309.0882)" class="st6 st3 st5">g</text>
<text transform="matrix(0.85 0 -0.3169 0.9485 347.0071 309.0882)" class="st3 st5">e</text>
<text transform="matrix(0.85 0 -0.3169 0.9485 347.0071 309.0882)" class="st6 st3 st5">e</text>
<text transform="matrix(0.85 0 -0.3169 0.9485 353.0775 309.0882)" class="st3 st5">t</text>
<text transform="matrix(0.85 0 -0.3169 0.9485 353.0775 309.0882)" class="st6 st3 st5">t</text>
<text transform="matrix(0.85 0 -0.3169 0.9485 357.4114 309.0882)" class="st3 st5">a</text>
<text transform="matrix(0.85 0 -0.3169 0.9485 357.4114 309.0882)" class="st6 st3 st5">a</text>
<text transform="matrix(0.85 0 -0.3169 0.9485 363.4798 309.0882)" class="st3 st5">t</text>
<text transform="matrix(0.85 0 -0.3169 0.9485 363.4798 309.0882)" class="st6 st3 st5">t</text>
<text transform="matrix(0.85 0 -0.3169 0.9485 367.8118 309.0882)" class="st3 st5">i</text>
<text transform="matrix(0.85 0 -0.3169 0.9485 367.8118 309.0882)" class="st6 st3 st5">i</text>
<text transform="matrix(0.85 0 -0.3169 0.9485 370.4212 309.0882)" class="st3 st5">o</text>
<text transform="matrix(0.85 0 -0.3169 0.9485 370.4212 309.0882)" class="st6 st3 st5">o</text>
<text transform="matrix(0.85 0 -0.3169 0.9485 377.3607 309.0882)" class="st3 st5">n</text>
<text transform="matrix(0.85 0 -0.3169 0.9485 377.3607 309.0882)" class="st6 st3 st5">n</text>
<text transform="matrix(0.85 0 -0.3169 0.9485 384.3001 309.0882)" class="st3 st5">O</text>
<text transform="matrix(0.85 0 -0.3169 0.9485 384.3001 309.0882)" class="st6 st3 st5">O</text>
<text transform="matrix(0.85 0 -0.3169 0.9485 392.9778 309.0882)" class="st3 st5">b</text>
<text transform="matrix(0.85 0 -0.3169 0.9485 392.9778 309.0882)" class="st6 st3 st5">b</text>
<text transform="matrix(0.85 0 -0.3169 0.9485 399.9173 309.0882)" class="st3 st5">j</text>
<text transform="matrix(0.85 0 -0.3169 0.9485 399.9173 309.0882)" class="st6 st3 st5">j</text>
<text transform="matrix(0.85 0 -0.3169 0.9485 402.5267 309.0882)" class="st3 st5">e</text>
<text transform="matrix(0.85 0 -0.3169 0.9485 402.5267 309.0882)" class="st6 st3 st5">e</text>
<text transform="matrix(0.85 0 -0.3169 0.9485 408.597 309.0882)" class="st3 st5">c</text>
<text transform="matrix(0.85 0 -0.3169 0.9485 408.597 309.0882)" class="st6 st3 st5">c</text>
<text transform="matrix(0.85 0 -0.3169 0.9485 413.8099 309.0882)" class="st3 st5">t</text>
<text transform="matrix(0.85 0 -0.3169 0.9485 413.8099 309.0882)" class="st6 st3 st5">t</text>
<path class="st0" d="M726.9,409.6c1.2,0,2.2,1,2.2,2.2l0,0v124.7l0,0c0,1.2-1,2.2-2.2,2.2l0,0l0,0H490.7l0,0c-1.2,0-2.2-1-2.2-2.2
	l0,0V411.7c0-1.2,1-2.2,2.2-2.2l0,0h236.2V409.6L726.9,409.6z"/>
<path class="st1" d="M724.3,407c1.2,0,2.2,1,2.2,2.2l0,0v124.7l0,0c0,1.2-1,2.2-2.2,2.2l0,0l0,0H488.1l0,0c-1.2,0-2.2-1-2.2-2.2l0,0
	V409.1c0-1.2,1-2.2,2.2-2.2l0,0h236.2V407L724.3,407z"/>
<path class="st2" d="M724.3,407c1.2,0,2.2,1,2.2,2.2l0,0v124.7l0,0c0,1.2-1,2.2-2.2,2.2l0,0l0,0H488.1l0,0c-1.2,0-2.2-1-2.2-2.2l0,0
	V409.1c0-1.2,1-2.2,2.2-2.2l0,0h236.2V407L724.3,407z"/>
<text transform="matrix(0.85 0 0 1 569.2891 424.2844)" class="st3 st4">«FeatureType»</text>
<text transform="matrix(0.85 0 0 1 565.8203 439.0187)" class="st7 st4">veg::PlantCover</text>
<line class="st2" x1="486" y1="445.9" x2="726.4" y2="445.9"/>
<text transform="matrix(0.85 0 0 1 490.3047 461.5344)" class="st3 st4">+ class: gml::CodeType [0..1]</text>
<text transform="matrix(0.85 0 0 1 490.3047 476.2687)" class="st3 st4">+ function: gml::CodeType [0..*]</text>
<text transform="matrix(0.85 0 0 1 490.3047 490.9875)" class="st3 st4">+ usage: gml::CodeType [0..*]</text>
<text transform="matrix(0.85 0 0 1 490.3047 505.7062)" class="st3 st4">+ averageHeight: gml::LengthType [0..1]</text>
<path class="st0" d="M390,600.1c1.2,0,2.2,1,2.2,2.2l0,0v64.1l0,0c0,1.2-1,2.2-2.2,2.2l0,0l0,0h-81.6l0,0c-1.2,0-2.2-1-2.2-2.2l0,0
	v-64.1c0-1.2,1-2.2,2.2-2.2l0,0H390L390,600.1L390,600.1z"/>
<path class="st8" d="M387.4,597.5c1.2,0,2.2,1,2.2,2.2l0,0v64.1l0,0c0,1.2-1,2.2-2.2,2.2l0,0l0,0h-81.6l0,0c-1.2,0-2.2-1-2.2-2.2
	l0,0v-64.1c0-1.2,1-2.2,2.2-2.2l0,0H387.4L387.4,597.5L387.4,597.5z"/>
<path class="st2" d="M387.4,597.5c1.2,0,2.2,1,2.2,2.2l0,0v64.1l0,0c0,1.2-1,2.2-2.2,2.2l0,0l0,0h-81.6l0,0c-1.2,0-2.2-1-2.2-2.2
	l0,0v-64.1c0-1.2,1-2.2,2.2-2.2l0,0H387.4L387.4,597.5L387.4,597.5z"/>
<text transform="matrix(0.85 0 0 1 328.8364 614.8625)" class="st3 st4">«Type»</text>
<text transform="matrix(0.85 0 -0.3169 0.9485 306.2329 629.5817)" class="st3 st5">g</text>
<text transform="matrix(0.85 0 -0.3169 0.9485 306.2329 629.5817)" class="st6 st3 st5">g</text>
<text transform="matrix(0.85 0 -0.3169 0.9485 313.1723 629.5817)" class="st3 st5">m</text>
<text transform="matrix(0.85 0 -0.3169 0.9485 313.1723 629.5817)" class="st6 st3 st5">m</text>
<text transform="matrix(0.85 0 -0.3169 0.9485 323.5805 629.5817)" class="st3 st5">l</text>
<text transform="matrix(0.85 0 -0.3169 0.9485 323.5805 629.5817)" class="st6 st3 st5">l</text>
<text transform="matrix(0.85 0 -0.3169 0.9485 326.1899 629.5817)" class="st3 st5">:</text>
<text transform="matrix(0.85 0 -0.3169 0.9485 326.1899 629.5817)" class="st6 st3 st5">:</text>
<text transform="matrix(0.85 0 -0.3169 0.9485 328.7837 629.5817)" class="st3 st5">:</text>
<text transform="matrix(0.85 0 -0.3169 0.9485 328.7837 629.5817)" class="st6 st3 st5">:</text>
<text transform="matrix(0.85 0 -0.3169 0.9485 331.3774 629.5817)" class="st3 st5">_</text>
<text transform="matrix(0.85 0 -0.3169 0.9485 331.3774 629.5817)" class="st6 st3 st5">_</text>
<text transform="matrix(0.85 0 -0.3169 0.9485 335.7212 629.5817)" class="st3 st5">G</text>
<text transform="matrix(0.85 0 -0.3169 0.9485 335.7212 629.5817)" class="st6 st3 st5">G</text>
<text transform="matrix(0.85 0 -0.3169 0.9485 343.5317 629.5817)" class="st3 st5">e</text>
<text transform="matrix(0.85 0 -0.3169 0.9485 343.5317 629.5817)" class="st6 st3 st5">e</text>
<text transform="matrix(0.85 0 -0.3169 0.9485 349.602 629.5817)" class="st3 st5">o</text>
<text transform="matrix(0.85 0 -0.3169 0.9485 349.602 629.5817)" class="st6 st3 st5">o</text>
<text transform="matrix(0.85 0 -0.3169 0.9485 356.5434 629.5817)" class="st3 st5">m</text>
<text transform="matrix(0.85 0 -0.3169 0.9485 356.5434 629.5817)" class="st6 st3 st5">m</text>
<text transform="matrix(0.85 0 -0.3169 0.9485 366.9516 629.5817)" class="st3 st5">e</text>
<text transform="matrix(0.85 0 -0.3169 0.9485 366.9516 629.5817)" class="st6 st3 st5">e</text>
<text transform="matrix(0.85 0 -0.3169 0.9485 373.0219 629.5817)" class="st3 st5">t</text>
<text transform="matrix(0.85 0 -0.3169 0.9485 373.0219 629.5817)" class="st6 st3 st5">t</text>
<text transform="matrix(0.85 0 -0.3169 0.9485 377.354 629.5817)" class="st3 st5">r</text>
<text transform="matrix(0.85 0 -0.3169 0.9485 377.354 629.5817)" class="st6 st3 st5">r</text>
<text transform="matrix(0.85 0 -0.3169 0.9485 381.6841 629.5817)" class="st3 st5">y</text>
<text transform="matrix(0.85 0 -0.3169 0.9485 381.6841 629.5817)" class="st6 st3 st5">y</text>
<path class="st0" d="M599.3,739.6c1.2,0,2.2,1,2.2,2.2l0,0v64.1l0,0c0,1.2-1,2.2-2.2,2.2l0,0l0,0h-152l0,0c-1.2,0-2.2-1-2.2-2.2l0,0
	v-64.1c0-1.2,1-2.2,2.2-2.2l0,0H599.3L599.3,739.6L599.3,739.6z"/>
<path class="st8" d="M596.6,737c1.2,0,2.2,1,2.2,2.2l0,0v64.1l0,0c0,1.2-1,2.2-2.2,2.2l0,0l0,0H444.7l0,0c-1.2,0-2.2-1-2.2-2.2l0,0
	v-64.1c0-1.2,1-2.2,2.2-2.2l0,0H596.6L596.6,737L596.6,737z"/>
<path class="st2" d="M596.6,737c1.2,0,2.2,1,2.2,2.2l0,0v64.1l0,0c0,1.2-1,2.2-2.2,2.2l0,0l0,0H444.7l0,0c-1.2,0-2.2-1-2.2-2.2l0,0
	v-64.1c0-1.2,1-2.2,2.2-2.2l0,0H596.6L596.6,737L596.6,737z"/>
<text transform="matrix(0.85 0 -0.3169 0.9485 444.2793 751.6962)" class="st3 st5">_AbstractGeometricAggregate</text>
<text transform="matrix(0.85 0 0 1 502.4453 771.6125)" class="st3 st4">«Type»</text>
<text transform="matrix(0.85 0 0 1 475.5391 786.3312)" class="st7 st4">gml::MultiSurface</text>
<path class="st0" d="M790.2,739.6c1.2,0,2.2,1,2.2,2.2l0,0v64.1l0,0c0,1.2-1,2.2-2.2,2.2l0,0l0,0H638.3l0,0c-1.2,0-2.2-1-2.2-2.2
	l0,0v-64.1c0-1.2,1-2.2,2.2-2.2l0,0H790.2L790.2,739.6L790.2,739.6z"/>
<path class="st8" d="M787.6,737c1.2,0,2.2,1,2.2,2.2l0,0v64.1l0,0c0,1.2-1,2.2-2.2,2.2l0,0l0,0H635.7l0,0c-1.2,0-2.2-1-2.2-2.2l0,0
	v-64.1c0-1.2,1-2.2,2.2-2.2l0,0H787.6L787.6,737L787.6,737z"/>
<path class="st2" d="M787.6,737c1.2,0,2.2,1,2.2,2.2l0,0v64.1l0,0c0,1.2-1,2.2-2.2,2.2l0,0l0,0H635.7l0,0c-1.2,0-2.2-1-2.2-2.2l0,0
	v-64.1c0-1.2,1-2.2,2.2-2.2l0,0H787.6L787.6,737L787.6,737z"/>
<text transform="matrix(0.85 0 -0.3169 0.9485 635.2637 751.6962)" class="st3 st5">_AbstractGeometricAggregate</text>
<text transform="matrix(0.85 0 0 1 693.4297 771.6125)" class="st3 st4">«Type»</text>
<text transform="matrix(0.85 0 0 1 673.4766 786.3312)" class="st7 st4">gml::MultiSolid</text>
<path class="st0" d="M265.9,409.6c1.2,0,2.2,1,2.2,2.2l0,0v176.7l0,0c0,1.2-1,2.2-2.2,2.2l0,0l0,0H30.6l0,0c-1.2,0-2.2-1-2.2-2.2
	l0,0V411.7c0-1.2,1-2.2,2.2-2.2l0,0h235.3V409.6L265.9,409.6z"/>
<path class="st1" d="M263.3,407c1.2,0,2.2,1,2.2,2.2l0,0v176.7l0,0c0,1.2-1,2.2-2.2,2.2l0,0l0,0H28l0,0c-1.2,0-2.2-1-2.2-2.2l0,0
	V409.1c0-1.2,1-2.2,2.2-2.2l0,0h235.3V407L263.3,407z"/>
<path class="st2" d="M263.3,407c1.2,0,2.2,1,2.2,2.2l0,0v176.7l0,0c0,1.2-1,2.2-2.2,2.2l0,0l0,0H28l0,0c-1.2,0-2.2-1-2.2-2.2l0,0
	V409.1c0-1.2,1-2.2,2.2-2.2l0,0h235.3V407L263.3,407z"/>
<text transform="matrix(0.85 0 0 1 109.1958 424.2844)" class="st3 st4">«FeatureType»</text>
<text transform="matrix(0.85 0 0 1 68.3833 439.0187)" class="st7 st4">veg::SolitaryVegetationObject</text>
<line class="st2" x1="25.9" y1="445.9" x2="265.5" y2="445.9"/>
<text transform="matrix(0.85 0 0 1 30.1958 461.5344)" class="st3 st4">+ class: gml::CodeType [0..1]</text>
<text transform="matrix(0.85 0 0 1 30.1958 476.2687)" class="st3 st4">+ function: gml::CodeType [0..*]</text>
<text transform="matrix(0.85 0 0 1 30.1958 490.9875)" class="st3 st4">+ usage: gml::CodeType [0..*]</text>
<text transform="matrix(0.85 0 0 1 30.1958 505.7062)" class="st3 st4">+ species: gml::CodeType [0..1]</text>
<text transform="matrix(0.85 0 0 1 30.1958 520.4406)" class="st3 st4">+ height: gml::LengthType [0..1]</text>
<text transform="matrix(0.85 0 0 1 30.1958 535.175)" class="st3 st4">+ trunckDiamiter: gml::LengthType [0..1]</text>
<text transform="matrix(0.85 0 0 1 30.1958 549.8937)" class="st3 st4">+ crownDiamiter: gml::LengthType [0..1]</text>
<path class="st0" d="M502.9,149.7c1.2,0,2.2,1,2.2,2.2l0,0v100.5l0,0c0,1.2-1,2.2-2.2,2.2l0,0l0,0H221.6l0,0c-1.2,0-2.2-1-2.2-2.2
	l0,0V151.9c0-1.2,1-2.2,2.2-2.2l0,0H502.9L502.9,149.7L502.9,149.7z"/>
<path class="st1" d="M500.3,147.1c1.2,0,2.2,1,2.2,2.2l0,0v100.5l0,0c0,1.2-1,2.2-2.2,2.2l0,0l0,0H219l0,0c-1.2,0-2.2-1-2.2-2.2l0,0
	V149.3c0-1.2,1-2.2,2.2-2.2l0,0H500.3L500.3,147.1L500.3,147.1z"/>
<path class="st2" d="M500.3,147.1c1.2,0,2.2,1,2.2,2.2l0,0v100.5l0,0c0,1.2-1,2.2-2.2,2.2l0,0l0,0H219l0,0c-1.2,0-2.2-1-2.2-2.2l0,0
	V149.3c0-1.2,1-2.2,2.2-2.2l0,0H500.3L500.3,147.1L500.3,147.1z"/>
<text transform="matrix(0.85 0 0 1 322.7427 164.4406)" class="st3 st4">«FeatureType»</text>
<text transform="matrix(0.85 0 -0.3169 0.9485 316.6765 179.1784)" class="st3 st5">c</text>
<text transform="matrix(0.85 0 -0.3169 0.9485 316.6765 179.1784)" class="st6 st3 st5">c</text>
<text transform="matrix(0.85 0 -0.3169 0.9485 321.8894 179.1784)" class="st3 st5">o</text>
<text transform="matrix(0.85 0 -0.3169 0.9485 321.8894 179.1784)" class="st6 st3 st5">o</text>
<text transform="matrix(0.85 0 -0.3169 0.9485 328.8288 179.1784)" class="st3 st5">r</text>
<text transform="matrix(0.85 0 -0.3169 0.9485 328.8288 179.1784)" class="st6 st3 st5">r</text>
<text transform="matrix(0.85 0 -0.3169 0.9485 333.1589 179.1784)" class="st3 st5">e</text>
<text transform="matrix(0.85 0 -0.3169 0.9485 333.1589 179.1784)" class="st6 st3 st5">e</text>
<text transform="matrix(0.85 0 -0.3169 0.9485 339.2292 179.1784)" class="st3 st5">:</text>
<text transform="matrix(0.85 0 -0.3169 0.9485 339.2292 179.1784)" class="st6 st3 st5">:</text>
<text transform="matrix(0.85 0 -0.3169 0.9485 341.823 179.1784)" class="st3 st5">:</text>
<text transform="matrix(0.85 0 -0.3169 0.9485 341.823 179.1784)" class="st6 st3 st5">:</text>
<text transform="matrix(0.85 0 -0.3169 0.9485 344.4167 179.1784)" class="st3 st5">_</text>
<text transform="matrix(0.85 0 -0.3169 0.9485 344.4167 179.1784)" class="st6 st3 st5">_</text>
<text transform="matrix(0.85 0 -0.3169 0.9485 348.7624 179.1784)" class="st3 st5">C</text>
<text transform="matrix(0.85 0 -0.3169 0.9485 348.7624 179.1784)" class="st6 st3 st5">C</text>
<text transform="matrix(0.85 0 -0.3169 0.9485 355.7155 179.1784)" class="st3 st5">i</text>
<text transform="matrix(0.85 0 -0.3169 0.9485 355.7155 179.1784)" class="st6 st3 st5">i</text>
<text transform="matrix(0.85 0 -0.3169 0.9485 358.3249 179.1784)" class="st3 st5">t</text>
<text transform="matrix(0.85 0 -0.3169 0.9485 358.3249 179.1784)" class="st6 st3 st5">t</text>
<text transform="matrix(0.85 0 -0.3169 0.9485 362.657 179.1784)" class="st3 st5">y</text>
<text transform="matrix(0.85 0 -0.3169 0.9485 362.657 179.1784)" class="st6 st3 st5">y</text>
<text transform="matrix(0.85 0 -0.3169 0.9485 368.7273 179.1784)" class="st3 st5">O</text>
<text transform="matrix(0.85 0 -0.3169 0.9485 368.7273 179.1784)" class="st6 st3 st5">O</text>
<text transform="matrix(0.85 0 -0.3169 0.9485 377.405 179.1784)" class="st3 st5">b</text>
<text transform="matrix(0.85 0 -0.3169 0.9485 377.405 179.1784)" class="st6 st3 st5">b</text>
<text transform="matrix(0.85 0 -0.3169 0.9485 384.3425 179.1784)" class="st3 st5">j</text>
<text transform="matrix(0.85 0 -0.3169 0.9485 384.3425 179.1784)" class="st6 st3 st5">j</text>
<text transform="matrix(0.85 0 -0.3169 0.9485 386.9519 179.1784)" class="st3 st5">e</text>
<text transform="matrix(0.85 0 -0.3169 0.9485 386.9519 179.1784)" class="st6 st3 st5">e</text>
<text transform="matrix(0.85 0 -0.3169 0.9485 393.0241 179.1784)" class="st3 st5">c</text>
<text transform="matrix(0.85 0 -0.3169 0.9485 393.0241 179.1784)" class="st6 st3 st5">c</text>
<text transform="matrix(0.85 0 -0.3169 0.9485 398.237 179.1784)" class="st3 st5">t</text>
<text transform="matrix(0.85 0 -0.3169 0.9485 398.237 179.1784)" class="st6 st3 st5">t</text>
<line class="st2" x1="216.9" y1="186.1" x2="502.5" y2="186.1"/>
<text transform="matrix(0.85 0 0 1 221.1802 201.6906)" class="st3 st4">+ creationDate: xs::date [0..1]</text>
<text transform="matrix(0.85 0 0 1 221.1802 216.425)" class="st3 st4">+ terminationDate: xs::date [0..1]</text>
<text transform="matrix(0.85 0 0 1 221.1802 231.1437)" class="st3 st4">+ relativeToTerrain: core::RelativeToTerrainType [0..1]</text>
<text transform="matrix(0.85 0 0 1 221.1802 245.8625)" class="st3 st4">+ relativeToWater: core::RelativeToWaterType [0..1]</text>
<path class="st0" d="M476.8,28.5c1.2,0,2.2,1,2.2,2.2l0,0v85.7l0,0c0,1.2-1,2.2-2.2,2.2l0,0l0,0H256.3l0,0c-1.2,0-2.2-1-2.2-2.2l0,0
	V30.6l0,0c0-1.2,1-2.2,2.2-2.2l0,0h220.5V28.5L476.8,28.5z"/>
<path class="st8" d="M474.2,25.9c1.2,0,2.2,1,2.2,2.2l0,0v85.7l0,0c0,1.2-1,2.2-2.2,2.2l0,0l0,0H253.7l0,0c-1.2,0-2.2-1-2.2-2.2l0,0
	V28l0,0c0-1.2,1-2.2,2.2-2.2l0,0L474.2,25.9L474.2,25.9L474.2,25.9z"/>
<path class="st2" d="M474.2,25.9c1.2,0,2.2,1,2.2,2.2l0,0v85.7l0,0c0,1.2-1,2.2-2.2,2.2l0,0l0,0H253.7l0,0c-1.2,0-2.2-1-2.2-2.2l0,0
	V28l0,0c0-1.2,1-2.2,2.2-2.2l0,0L474.2,25.9L474.2,25.9L474.2,25.9z"/>
<text transform="matrix(0.85 0 0 1 327.0864 43.1906)" class="st3 st4">«FeatureType»</text>
<g>
	<text transform="matrix(0.85 0 -0.3169 0.9485 329.6866 57.9233)" class="st3 st5">g</text>
	<text transform="matrix(0.85 0 -0.3169 0.9485 329.6866 57.9233)" class="st6 st3 st5">g</text>
	<text transform="matrix(0.85 0 -0.3169 0.9485 336.6261 57.9233)" class="st3 st5">m</text>
	<text transform="matrix(0.85 0 -0.3169 0.9485 336.6261 57.9233)" class="st6 st3 st5">m</text>
	<text transform="matrix(0.85 0 -0.3169 0.9485 347.0343 57.9233)" class="st3 st5">l</text>
	<text transform="matrix(0.85 0 -0.3169 0.9485 347.0343 57.9233)" class="st6 st3 st5">l</text>
	<text transform="matrix(0.85 0 -0.3169 0.9485 349.6437 57.9233)" class="st3 st5">:</text>
	<text transform="matrix(0.85 0 -0.3169 0.9485 349.6437 57.9233)" class="st6 st3 st5">:</text>
	<text transform="matrix(0.85 0 -0.3169 0.9485 352.2374 57.9233)" class="st3 st5">:</text>
	<text transform="matrix(0.85 0 -0.3169 0.9485 352.2374 57.9233)" class="st6 st3 st5">:</text>
	<text transform="matrix(0.85 0 -0.3169 0.9485 354.8312 57.9233)" class="st3 st5">_</text>
	<text transform="matrix(0.85 0 -0.3169 0.9485 354.8312 57.9233)" class="st6 st3 st5">_</text>
	<text transform="matrix(0.85 0 -0.3169 0.9485 359.1749 57.9233)" class="st3 st5">F</text>
	<text transform="matrix(0.85 0 -0.3169 0.9485 359.1749 57.9233)" class="st6 st3 st5">F</text>
	<text transform="matrix(0.85 0 -0.3169 0.9485 365.2511 57.9233)" class="st3 st5">e</text>
	<text transform="matrix(0.85 0 -0.3169 0.9485 365.2511 57.9233)" class="st6 st3 st5">e</text>
	<text transform="matrix(0.85 0 -0.3169 0.9485 371.3214 57.9233)" class="st3 st5">a</text>
	<text transform="matrix(0.85 0 -0.3169 0.9485 371.3214 57.9233)" class="st6 st3 st5">a</text>
	<text transform="matrix(0.85 0 -0.3169 0.9485 377.3898 57.9233)" class="st3 st5">t</text>
	<text transform="matrix(0.85 0 -0.3169 0.9485 377.3898 57.9233)" class="st6 st3 st5">t</text>
	<text transform="matrix(0.85 0 -0.3169 0.9485 381.7218 57.9233)" class="st3 st5">u</text>
	<text transform="matrix(0.85 0 -0.3169 0.9485 381.7218 57.9233)" class="st6 st3 st5">u</text>
	<text transform="matrix(0.85 0 -0.3169 0.9485 388.6613 57.9233)" class="st3 st5">r</text>
	<text transform="matrix(0.85 0 -0.3169 0.9485 388.6613 57.9233)" class="st6 st3 st5">r</text>
	<text transform="matrix(0.85 0 -0.3169 0.9485 392.9913 57.9233)" class="st3 st5">e</text>
	<text transform="matrix(0.85 0 -0.3169 0.9485 392.9913 57.9233)" class="st6 st3 st5">e</text>
</g>
<line class="st2" x1="251.6" y1="64.8" x2="476.4" y2="64.8"/>
<text transform="matrix(0.85 0 0 1 255.9146 80.4406)" class="st3 st4">+ description: gml::StringOrRefType [0..1]</text>
<text transform="matrix(0.85 0 0 1 255.9146 95.175)" class="st3 st4">+ name: gml::CodeType [0..1]</text>
<text transform="matrix(0.85 0 0 1 255.9146 109.8937)" class="st3 st4">+ boundedBy: gml::Envelope [0..1]</text>
<path class="st9" d="M791.5,43.2c1.4,0,2.6,1.2,2.6,2.6l0,0v97.9l0,0c0,1.4-1.2,2.6-2.6,2.6l0,0l0,0H636.1l0,0
	c-1.4,0-2.6-1.2-2.6-2.6V45.8c0-1.4,1.2-2.6,2.6-2.6l0,0H791.5L791.5,43.2L791.5,43.2z"/>
<path class="st10" d="M791.5,43.2c1.4,0,2.6,1.2,2.6,2.6l0,0v97.9l0,0c0,1.4-1.2,2.6-2.6,2.6l0,0l0,0H636.1l0,0
	c-1.4,0-2.6-1.2-2.6-2.6V45.8c0-1.4,1.2-2.6,2.6-2.6l0,0H791.5L791.5,43.2L791.5,43.2z"/>
<path class="st8" d="M653.9,69.2c1.2,0,2.2,1,2.2,2.2l0,0v9.5l0,0c0,1.2-1,2.2-2.2,2.2l0,0l0,0h-9.6l0,0c-1.2,0-2.2-1-2.2-2.2l0,0
	v-9.5c0-1.2,1-2.2,2.2-2.2l0,0H653.9L653.9,69.2L653.9,69.2z"/>
<path class="st11" d="M653.9,69.2c1.2,0,2.2,1,2.2,2.2l0,0v9.5l0,0c0,1.2-1,2.2-2.2,2.2l0,0l0,0h-9.6l0,0c-1.2,0-2.2-1-2.2-2.2l0,0
	v-9.5c0-1.2,1-2.2,2.2-2.2l0,0H653.9L653.9,69.2L653.9,69.2z"/>
<text transform="matrix(0.85 0 0 1 661.3203 81.3)" class="st12 st3 st4">GMLに定義されたクラス</text>
<path class="st1" d="M653.9,85.6c1.2,0,2.2,1,2.2,2.2l0,0v9.5l0,0c0,1.2-1,2.2-2.2,2.2l0,0l0,0h-9.6l0,0c-1.2,0-2.2-1-2.2-2.2l0,0
	v-9.5c0-1.2,1-2.2,2.2-2.2l0,0H653.9L653.9,85.6L653.9,85.6z"/>
<path class="st11" d="M653.9,85.6c1.2,0,2.2,1,2.2,2.2l0,0v9.5l0,0c0,1.2-1,2.2-2.2,2.2l0,0l0,0h-9.6l0,0c-1.2,0-2.2-1-2.2-2.2l0,0
	v-9.5c0-1.2,1-2.2,2.2-2.2l0,0H653.9L653.9,85.6L653.9,85.6z"/>
<text transform="matrix(0.85 0 0 1 661.3203 97.7375)" class="st12 st3 st4">CityGMLに定義されたクラス</text>
<path class="st13" d="M653.9,102.1c1.2,0,2.2,1,2.2,2.2l0,0v9.5l0,0c0,1.2-1,2.2-2.2,2.2l0,0l0,0h-9.6l0,0c-1.2,0-2.2-1-2.2-2.2l0,0
	v-9.5c0-1.2,1-2.2,2.2-2.2l0,0H653.9L653.9,102.1L653.9,102.1z"/>
<path class="st11" d="M653.9,102.1c1.2,0,2.2,1,2.2,2.2l0,0v9.5l0,0c0,1.2-1,2.2-2.2,2.2l0,0l0,0h-9.6l0,0c-1.2,0-2.2-1-2.2-2.2l0,0
	v-9.5c0-1.2,1-2.2,2.2-2.2l0,0H653.9L653.9,102.1L653.9,102.1z"/>
<text transform="matrix(0.85 0 0 1 661.3203 114.2072)" class="st12 st3 st4">i-URに定義されたクラス</text>
<text transform="matrix(0.85 0 0 1 700.3828 61.3781)" class="st12 st14 st15">凡例</text>
<text transform="matrix(0.85 0 0 1 700.3828 61.3781)" class="st16 st14 st15">凡例</text>
<line class="st17" x1="520.7" y1="536.9" x2="520.7" y2="737"/>
<path class="st17" d="M520.7,737l-5.2-13 M520.7,737l5.2-13"/>
<line class="st17" x1="548.5" y1="537.8" x2="548.5" y2="693.7"/>
<line class="st17" x1="574.5" y1="537.8" x2="574.5" y2="693.7"/>
<line class="st17" x1="574.5" y1="693.7" x2="520.7" y2="693.7"/>
<line class="st17" x1="641.4" y1="537.8" x2="641.4" y2="693.7"/>
<line class="st17" x1="641.4" y1="693.7" x2="711.7" y2="693.7"/>
<line class="st17" x1="711.7" y1="693.7" x2="711.7" y2="736.1"/>
<path class="st17" d="M711.7,736.1l-5.2-13 M711.7,736.1l5.2-13"/>
<line class="st17" x1="358.4" y1="276.2" x2="358.4" y2="253.7"/>
<polyline class="st18" points="363.6,267.5 353.1,267.5 358.4,253.7 363.6,267.5 "/>
<polygon class="st17" points="363.6,267.5 353.1,267.5 358.4,253.7 "/>
<line class="st17" x1="679.6" y1="537.8" x2="679.6" y2="693.7"/>
<line class="st17" x1="360.1" y1="146.3" x2="360.1" y2="117.7"/>
<polyline class="st18" points="365.3,131.5 354.9,131.5 360.1,117.7 365.3,131.5 "/>
<polygon class="st17" points="365.3,131.5 354.9,131.5 360.1,117.7 "/>
<line class="st17" x1="604.9" y1="406.1" x2="604.9" y2="363.7"/>
<line class="st17" x1="604.9" y1="363.7" x2="358.4" y2="363.7"/>
<line class="st17" x1="358.4" y1="363.7" x2="358.4" y2="321.2"/>
<polyline class="st18" points="363.6,335.1 353.1,335.1 358.4,321.2 363.6,335.1 "/>
<polygon class="st17" points="363.6,335.1 353.1,335.1 358.4,321.2 "/>
<line class="st17" x1="267.2" y1="432.1" x2="347.9" y2="432.1"/>
<line class="st17" x1="347.9" y1="432.1" x2="347.9" y2="596.7"/>
<path class="st17" d="M347.9,596.7l-5.2-13 M347.9,596.7l5.2-13"/>
<line class="st17" x1="267.2" y1="452.9" x2="347.1" y2="452.9"/>
<line class="st17" x1="347.1" y1="452.9" x2="347.1" y2="596.7"/>
<path class="st17" d="M347.1,596.7l-5.2-13 M347.1,596.7l5.2-13"/>
<line class="st17" x1="267.2" y1="476.3" x2="347.9" y2="476.3"/>
<line class="st17" x1="347.9" y1="476.3" x2="347.9" y2="596.7"/>
<path class="st17" d="M347.9,596.7l-5.2-13 M347.9,596.7l5.2-13"/>
<line class="st17" x1="109.2" y1="406.1" x2="109.2" y2="363.7"/>
<line class="st17" x1="109.2" y1="363.7" x2="358.4" y2="363.7"/>
<line class="st17" x1="661.3" y1="537.8" x2="661.3" y2="693.7"/>
<text transform="matrix(0.85 0 0 1 -7779.5703 -7769.8848)" class="st19" style="font-size:4.7638px;">i</text>
<text transform="matrix(0.85 0 0 1 710.8203 663.3469)" class="st19 st20">+lod2MultiSolid</text>
<text transform="matrix(0.85 0 0 1 787.1953 665.9562)" class="st19 st20">0..1</text>
<text transform="matrix(0.85 0 0 1 -7779.5703 -7769.8848)" class="st19" style="font-size:4.7638px;">i</text>
<text transform="matrix(0.85 0 0 1 406.1021 683.2687)" class="st19 st20">+lod3MultiSurface</text>
<text transform="matrix(0.85 0 0 1 492.8984 682.3937)" class="st19 st20">0..1</text>
<text transform="matrix(0.85 0 0 1 -7779.5703 -7769.8848)" class="st19" style="font-size:4.7638px;">i</text>
<text transform="matrix(0.85 0 0 1 713.4141 685.8625)" class="st19 st20">+lod1MultiSolid</text>
<text transform="matrix(0.85 0 0 1 788.0547 686.7375)" class="st19 st20">0..1</text>
<text transform="matrix(0.85 0 0 1 -7779.5703 -7769.8848)" class="st19" style="font-size:4.7638px;">i</text>
<text transform="matrix(0.85 0 0 1 405.2271 707.5187)" class="st19 st20">+lod2MultiSurface</text>
<text transform="matrix(0.85 0 0 1 491.1641 705.8)" class="st19 st20">0..1</text>
<text transform="matrix(0.85 0 0 1 377.4458 551.6125)" class="st19 st20">+lod2Geometry</text>
<text transform="matrix(0.85 0 0 1 314.0708 550.7531)" class="st19 st20">0..1</text>
<text transform="matrix(0.85 0 0 1 -7779.5703 -7769.8848)" class="st19" style="font-size:4.7638px;">i</text>
<text transform="matrix(0.85 0 0 1 709.0703 643.425)" class="st19 st20">+lod3MultiSolid</text>
<text transform="matrix(0.85 0 0 1 786.3203 645.175)" class="st19 st20">0..1</text>
<text transform="matrix(0.85 0 0 1 377.4458 529.0969)" class="st19 st20">+lod3Geometry</text>
<text transform="matrix(0.85 0 0 1 316.6646 572.3937)" class="st19 st20">0..1</text>
<text transform="matrix(0.85 0 0 1 -7779.5703 -7769.8848)" class="st19" style="font-size:4.7638px;">i</text>
<text transform="matrix(0.85 0 0 1 406.1021 730.9094)" class="st19 st20">+lod1MultiSurface</text>
<text transform="matrix(0.85 0 0 1 490.3047 727.425)" class="st19 st20">0..1</text>
<text transform="matrix(0.85 0 0 1 380.9302 574.1437)" class="st19 st20">+lod1Geometry</text>
<text transform="matrix(0.85 0 0 1 315.8208 529.0969)" class="st19 st20">0..1</text>
</svg>
