<?xml version="1.0" encoding="utf-8"?>
<!-- Generator: Adobe Illustrator 27.5.0, SVG Export Plug-In . SVG Version: 6.00 Build 0)  -->
<svg version="1.1" id="レイヤー_1" xmlns="http://www.w3.org/2000/svg" xmlns:xlink="http://www.w3.org/1999/xlink" x="0px"
	 y="0px" viewBox="0 0 528.3404541 289.3616943" style="enable-background:new 0 0 528.3404541 289.3616943;" xml:space="preserve">
<style type="text/css">
	.st0{fill-rule:evenodd;clip-rule:evenodd;fill:#F0F0F0;}
	.st1{fill:none;stroke:#D7D7D7;stroke-width:0.5142857;stroke-linecap:square;stroke-miterlimit:10;}
	.st2{fill-rule:evenodd;clip-rule:evenodd;fill:#A0FFC0;}
	.st3{fill:none;stroke:#000000;stroke-width:0.5142857;stroke-linecap:square;stroke-miterlimit:10;}
	.st4{fill:#003060;}
	.st5{font-family:'YuGothicUI-Regular';}
	.st6{font-size:6.6857147px;}
	.st7{fill-rule:evenodd;clip-rule:evenodd;fill:#FFFFCC;}
	.st8{fill-rule:evenodd;clip-rule:evenodd;fill:#FFCCFF;}
	.st9{font-family:'YuGothicUI-Bold';}
	.st10{font-size:8.2285719px;}
	.st11{fill:none;stroke:#000000;stroke-width:1.0285715;stroke-linecap:round;stroke-linejoin:bevel;stroke-miterlimit:10;}
	.st12{stroke:#000000;stroke-width:0.1910204;stroke-miterlimit:10;}
	.st13{font-size:7.0386257px;}
	.st14{fill-rule:evenodd;clip-rule:evenodd;fill:#CCFFCC;}
	.st15{fill-rule:evenodd;clip-rule:evenodd;fill:#FFFFFF;}
	.st16{fill-rule:evenodd;clip-rule:evenodd;}
</style>
<path class="st0" d="M119.8604355,13.937994c0.8414612,0,1.5236206,0.6907959,1.5236206,1.5428467h0.0000153v45.2571411
	l-0.0000153,0.0000305c0,0.8520813-0.6821594,1.5428772-1.5236359,1.5428772v-0.0000305h0.0000153H28.950983l-0.0000076,0.0000305
	c-0.8414688-0.0000305-1.5236206-0.6907959-1.5236206-1.5429077h0.0000076V15.4808407
	c0-0.8520508,0.6821442-1.5428467,1.5236206-1.5428467l0,0H119.8604355L119.8604355,13.937994L119.8604355,13.937994z"/>
<path class="st1" d="M119.8604355,13.937994c0.8414612,0,1.5236206,0.6907959,1.5236206,1.5428467h0.0000153v45.2571411
	l-0.0000153,0.0000305c0,0.8520813-0.6821594,1.5428772-1.5236359,1.5428772v-0.0000305h0.0000153H28.950983l-0.0000076,0.0000305
	c-0.8414688-0.0000305-1.5236206-0.6907959-1.5236206-1.5429077h0.0000076V15.4808407
	c0-0.8520508,0.6821442-1.5428467,1.5236206-1.5428467l0,0H119.8604355L119.8604355,13.937994L119.8604355,13.937994z"/>
<polygon class="st2" points="32.5061073,38.1094398 41.1399651,38.1094398 41.1399651,29.3665829 32.5061073,29.3665829 
	32.5061073,38.1094398 "/>
<polygon class="st3" points="32.5061073,38.1094398 41.1399651,38.1094398 41.1399651,29.3665829 32.5061073,29.3665829 
	32.5061073,38.1094398 "/>
<text transform="matrix(0.85 0 0 1 43.6747475 36.5711441)" class="st4 st5 st6">GMLで定義されたクラス</text>
<polygon class="st7" points="32.5061073,47.8808632 41.1399651,47.8808632 41.1399651,39.1380043 32.5061073,39.1380043 
	32.5061073,47.8808632 "/>
<polygon class="st3" points="32.5061073,47.8808632 41.1399651,47.8808632 41.1399651,39.1380043 32.5061073,39.1380043 
	32.5061073,47.8808632 "/>
<text transform="matrix(0.85 0 0 1 43.6747475 46.3445816)" class="st4 st5 st6">CityGMLで定義されたクラス</text>
<polygon class="st8" points="32.5061073,57.6522865 41.1399651,57.6522865 41.1399651,48.9094276 32.5061073,48.9094276 
	32.5061073,57.6522865 "/>
<polygon class="st3" points="32.5061073,57.6522865 41.1399651,57.6522865 41.1399651,48.9094276 32.5061073,48.9094276 
	32.5061073,57.6522865 "/>
<text transform="matrix(0.85 0 0 1 43.6747475 56.1102066)" class="st4 st5 st6">i-URで定義されたクラス</text>
<text transform="matrix(0.85 0 0 1 68.5653687 26.2898922)" class="st4 st9 st10">凡例</text>
<polygon class="st8" points="149.3171539,64.3380203 261.0494385,64.3380203 261.0494385,19.0808163 149.3171539,19.0808163 
	149.3171539,64.3380203 "/>
<polygon class="st11" points="149.3171539,64.3380203 261.0494385,64.3380203 261.0494385,19.0808163 149.3171539,19.0808163 
	149.3171539,64.3380203 "/>
<text transform="matrix(0.85 0 0 1 187.4091187 29.3680172)"><tspan x="0" y="0" class="st5 st6">«</tspan><tspan x="3.5960476" y="0" class="st5 st6">D</tspan><tspan x="8.2301235" y="0" class="st5 st6">a</tspan><tspan x="11.8255968" y="0" class="st5 st6">t</tspan><tspan x="13.8838463" y="0" class="st5 st6">a</tspan><tspan x="17.4793186" y="0" class="st5 st6">T</tspan><tspan x="21.0759411" y="0" class="st5 st6">y</tspan><tspan x="24.1641769" y="0" class="st5 st6">p</tspan><tspan x="28.274931" y="0" class="st5 st6">e</tspan><tspan x="31.8715515" y="0" class="st5 st6">»</tspan></text>
<text transform="matrix(0.85 0 -0.3126727 0.9498609 178.7802429 38.1167908)"><tspan x="0" y="0" class="st12 st5 st13">u</tspan><tspan x="4.3278952" y="0" class="st12 st5 st13">r</tspan><tspan x="7.0289521" y="0" class="st12 st5 st13">o</tspan><tspan x="11.3568468" y="0" class="st12 st5 st13">::</tspan><tspan x="14.5921412" y="0" class="st12 st5 st13">D</tspan><tspan x="19.4703579" y="0" class="st12 st5 st13">m</tspan><tspan x="25.9627743" y="0" class="st12 st5 st13">A</tspan><tspan x="30.8340988" y="0" class="st12 st5 st13">tt</tspan><tspan x="36.2373619" y="0" class="st12 st5 st13">r</tspan><tspan x="38.9372673" y="0" class="st12 st5 st13">i</tspan><tspan x="40.565258" y="0" class="st12 st5 st13">b</tspan><tspan x="44.8931503" y="0" class="st12 st5 st13">u</tspan><tspan x="49.2210464" y="0" class="st12 st5 st13">t</tspan><tspan x="51.9232521" y="0" class="st12 st5 st13">e</tspan></text>
<line class="st11" x1="149.3171539" y1="42.2236977" x2="260.5415649" y2="42.2236977"/>
<text transform="matrix(0.85 0 0 1 151.8622437 51.4773941)" class="st5 st6">+ dmCode: gml::CodeType</text>
<text transform="matrix(0.85 0 0 1 151.8622437 60.2273941)" class="st5 st6">+ meshCode: gml::CodeType [0..1]</text>
<polygon class="st8" points="220.4195099,216.5665588 360.5927734,216.5665588 360.5927734,101.3665848 220.4195099,101.3665848 
	220.4195099,216.5665588 "/>
<polygon class="st11" points="220.4195099,216.5665588 360.5927734,216.5665588 360.5927734,101.3665848 220.4195099,101.3665848 
	220.4195099,216.5665588 "/>
<text transform="matrix(0.85 0 0 1 272.7294312 111.6570816)"><tspan x="0" y="0" class="st5 st6">«</tspan><tspan x="3.5960476" y="0" class="st5 st6">D</tspan><tspan x="8.2306986" y="0" class="st5 st6">a</tspan><tspan x="11.8255968" y="0" class="st5 st6">t</tspan><tspan x="13.8844204" y="0" class="st5 st6">a</tspan><tspan x="17.4793186" y="0" class="st5 st6">T</tspan><tspan x="21.0765152" y="0" class="st5 st6">y</tspan><tspan x="24.1636028" y="0" class="st5 st6">p</tspan><tspan x="28.2755051" y="0" class="st5 st6">e</tspan><tspan x="31.8715515" y="0" class="st5 st6">»</tspan></text>
<text transform="matrix(0.85 0 0 1 248.3544312 120.3992691)"><tspan x="0" y="0" class="st9 st6">u</tspan><tspan x="4.1084557" y="0" class="st9 st6">r</tspan><tspan x="6.6762404" y="0" class="st9 st6">o</tspan><tspan x="10.7892923" y="0" class="st9 st6">::</tspan><tspan x="13.8809738" y="0" class="st9 st6">D</tspan><tspan x="18.515625" y="0" class="st9 st6">m</tspan><tspan x="24.6852016" y="0" class="st9 st6">G</tspan><tspan x="29.3198528" y="0" class="st9 st6">e</tspan><tspan x="32.9181976" y="0" class="st9 st6">o</tspan><tspan x="37.03125" y="0" class="st9 st6">m</tspan><tspan x="43.2008247" y="0" class="st9 st6">e</tspan><tspan x="46.7991714" y="0" class="st9 st6">t</tspan><tspan x="49.3692551" y="0" class="st9 st6">r</tspan><tspan x="51.9370384" y="0" class="st9 st6">i</tspan><tspan x="53.4823036" y="0" class="st9 st6">c</tspan><tspan x="56.5728378" y="0" class="st9 st6">A</tspan><tspan x="61.1959991" y="0" class="st9 st6">tt</tspan><tspan x="66.3350143" y="0" class="st9 st6">r</tspan><tspan x="68.9028015" y="0" class="st9 st6">i</tspan><tspan x="70.4480667" y="0" class="st9 st6">b</tspan><tspan x="74.5576706" y="0" class="st9 st6">u</tspan><tspan x="78.664978" y="0" class="st9 st6">t</tspan><tspan x="81.2350616" y="0" class="st9 st6">e</tspan></text>
<line class="st11" x1="220.4195099" y1="124.5094376" x2="360.0848999" y2="124.5094376"/>
<text transform="matrix(0.85 0 0 1 222.9559937 133.766449)" class="st5 st6">+ geometryType: gml::CodeType</text>
<text transform="matrix(0.85 0 0 1 222.9559937 142.516449)" class="st5 st6">+ mapLevel: gml::CodeType</text>
<text transform="matrix(0.85 0 0 1 222.9559937 151.2586365)" class="st5 st6">+ shapeType: gml::CodeType</text>
<text transform="matrix(0.85 0 0 1 222.9559937 159.9930115)" class="st5 st6">+ visibility: xs::boolean [0..1]</text>
<text transform="matrix(0.85 0 0 1 222.9559937 168.735199)" class="st5 st6">+ is3d: xs::boolean [0..1]</text>
<text transform="matrix(0.85 0 0 1 222.9559937 177.4773865)" class="st5 st6">+ isInstallation: xs::boolean [0..1]</text>
<text transform="matrix(0.85 0 0 1 222.9559937 186.2273865)" class="st5 st6">+ isEdited: xs::boolean [0..1]</text>
<text transform="matrix(0.85 0 0 1 222.9559937 194.969574)" class="st5 st6">+ isSupplementarySymbol: xs::boolean [0..1]</text>
<text transform="matrix(0.85 0 0 1 222.9559937 203.7117615)" class="st5 st6">+ angle: xs::double [0..1]</text>
<text transform="matrix(0.85 0 0 1 222.9559937 212.4617615)" class="st5 st6">+ elevation: gml::LengthType [0..1]</text>
<polygon class="st14" points="169.6320953,276.2237244 220.4195099,276.2237244 220.4195099,235.0808716 169.6320953,235.0808716 
	169.6320953,276.2237244 "/>
<polygon class="st11" points="169.6320953,276.2237244 220.4195099,276.2237244 220.4195099,235.0808716 169.6320953,235.0808716 
	169.6320953,276.2237244 "/>
<text transform="matrix(0.85 0 0 1 184.3622437 245.3680115)"><tspan x="0" y="0" class="st5 st6">«</tspan><tspan x="3.5960476" y="0" class="st5 st6">T</tspan><tspan x="7.1920953" y="0" class="st5 st6">y</tspan><tspan x="10.2803307" y="0" class="st5 st6">p</tspan><tspan x="14.3916588" y="0" class="st5 st6">e</tspan><tspan x="17.9877071" y="0" class="st5 st6">»</tspan></text>
<text transform="matrix(0.85 0 -0.3126727 0.9498609 171.1633301 254.113678)"><tspan x="0" y="0" class="st12 st5 st13">g</tspan><tspan x="4.3278952" y="0" class="st12 st5 st13">m</tspan><tspan x="10.8191633" y="0" class="st12 st5 st13">l</tspan><tspan x="12.4471502" y="0" class="st12 st5 st13">::</tspan><tspan x="15.6824446" y="0" class="st12 st5 st13">_</tspan><tspan x="18.3915443" y="0" class="st12 st5 st13">G</tspan><tspan x="23.262867" y="0" class="st12 st5 st13">e</tspan><tspan x="27.0496311" y="0" class="st12 st5 st13">o</tspan><tspan x="31.3775272" y="0" class="st12 st5 st13">m</tspan><tspan x="37.8699455" y="0" class="st12 st5 st13">e</tspan><tspan x="41.6555595" y="0" class="st12 st5 st13">t</tspan><tspan x="44.3577652" y="0" class="st12 st5 st13">r</tspan><tspan x="47.0588226" y="0" class="st12 st5 st13">y</tspan></text>
<polygon class="st8" points="370.7502441,231.9951477 499.7502441,231.9951477 499.7502441,64.3380203 370.7502441,64.3380203 
	370.7502441,231.9951477 "/>
<polygon class="st11" points="370.7502441,231.9951477 499.7502441,231.9951477 499.7502441,64.3380203 370.7502441,64.3380203 
	370.7502441,231.9951477 "/>
<text transform="matrix(0.85 0 0 1 417.4794312 74.6258316)"><tspan x="0" y="0" class="st5 st6">«</tspan><tspan x="3.5960476" y="0" class="st5 st6">D</tspan><tspan x="8.2306986" y="0" class="st5 st6">a</tspan><tspan x="11.8255968" y="0" class="st5 st6">t</tspan><tspan x="13.8844204" y="0" class="st5 st6">a</tspan><tspan x="17.4793186" y="0" class="st5 st6">T</tspan><tspan x="21.0765152" y="0" class="st5 st6">y</tspan><tspan x="24.1636028" y="0" class="st5 st6">p</tspan><tspan x="28.2755051" y="0" class="st5 st6">e</tspan><tspan x="31.8715515" y="0" class="st5 st6">»</tspan></text>
<text transform="matrix(0.85 0 0 1 410.3700562 83.3680191)"><tspan x="0" y="0" class="st9 st6">u</tspan><tspan x="4.1084557" y="0" class="st9 st6">r</tspan><tspan x="6.6762404" y="0" class="st9 st6">o</tspan><tspan x="10.7892923" y="0" class="st9 st6">::</tspan><tspan x="13.8809738" y="0" class="st9 st6">D</tspan><tspan x="18.515625" y="0" class="st9 st6">m</tspan><tspan x="24.6852016" y="0" class="st9 st6">E</tspan><tspan x="28.2789516" y="0" class="st9 st6">l</tspan><tspan x="29.825367" y="0" class="st9 st6">e</tspan><tspan x="33.4237137" y="0" class="st9 st6">m</tspan><tspan x="39.5932884" y="0" class="st9 st6">e</tspan><tspan x="43.1916351" y="0" class="st9 st6">n</tspan><tspan x="47.3000908" y="0" class="st9 st6">t</tspan></text>
<line class="st11" x1="370.7502441" y1="87.4808426" x2="499.2423706" y2="87.4808426"/>
<text transform="matrix(0.85 0 0 1 373.2919312 96.7352066)" class="st5 st6">+ locationType: gml::CodeType [0..1]</text>
<text transform="matrix(0.85 0 0 1 373.2919312 105.4852066)" class="st5 st6">+ infoType: gml::CodeType [0..1]</text>
<text transform="matrix(0.85 0 0 1 373.2919312 114.2273941)" class="st5 st6">+ elementKey: xs::string [0..1]</text>
<text transform="matrix(0.85 0 0 1 373.2919312 122.9617691)" class="st5 st6">+ hierarchyLevel: xs::string [0..1]</text>
<text transform="matrix(0.85 0 0 1 373.2919312 131.7117615)" class="st5 st6">+ dataType: gml::CodeType [0..1]</text>
<text transform="matrix(0.85 0 0 1 373.2919312 140.453949)" class="st5 st6">+ annotationType: gml::CodeType [0..1]</text>
<text transform="matrix(0.85 0 0 1 373.2919312 149.1961365)" class="st5 st6">+ precisionType: gml::CodeType [0..1]</text>
<text transform="matrix(0.85 0 0 1 373.2919312 157.9461365)" class="st5 st6">+ dislocationType: gml::CodeType [0..1]</text>
<text transform="matrix(0.85 0 0 1 373.2919312 166.688324)" class="st5 st6">+ breakType: gml::CodeType [0..1]</text>
<text transform="matrix(0.85 0 0 1 373.2919312 175.4305115)" class="st5 st6">+ attributeValue: xs::string [0..1]</text>
<text transform="matrix(0.85 0 0 1 373.2919312 184.1648865)" class="st5 st6">+ attributeType: gml::CodeType [0..1]</text>
<text transform="matrix(0.85 0 0 1 373.2919312 192.907074)" class="st5 st6">+ attributeValueType: xs::string [0..1]</text>
<text transform="matrix(0.85 0 0 1 373.2919312 201.657074)" class="st5 st6">+ creationDate: xs::gYearMonth [0..1]</text>
<text transform="matrix(0.85 0 0 1 373.2919312 210.3992615)" class="st5 st6">+ updateDate: xs::gYearMonth [0..1]</text>
<text transform="matrix(0.85 0 0 1 373.2919312 219.1336365)" class="st5 st6">+ terminationDate: xs::gYearMonth [0..1]</text>
<text transform="matrix(0.85 0 0 1 373.2919312 227.8836365)" class="st5 st6">+ freeSpace: xs::string [0..1]</text>
<polygon class="st8" points="62.9785576,199.0808716 169.6320953,199.0808716 169.6320953,101.3665848 62.9785576,101.3665848 
	62.9785576,199.0808716 "/>
<polygon class="st11" points="62.9785576,199.0808716 169.6320953,199.0808716 169.6320953,101.3665848 62.9785576,101.3665848 
	62.9785576,199.0808716 "/>
<text transform="matrix(0.85 0 0 1 98.5263062 111.6570816)"><tspan x="0" y="0" class="st5 st6">«</tspan><tspan x="3.5960476" y="0" class="st5 st6">D</tspan><tspan x="8.2301235" y="0" class="st5 st6">a</tspan><tspan x="11.8255968" y="0" class="st5 st6">t</tspan><tspan x="13.8838463" y="0" class="st5 st6">a</tspan><tspan x="17.4793186" y="0" class="st5 st6">T</tspan><tspan x="21.0759411" y="0" class="st5 st6">y</tspan><tspan x="24.1641769" y="0" class="st5 st6">p</tspan><tspan x="28.274931" y="0" class="st5 st6">e</tspan><tspan x="31.8715515" y="0" class="st5 st6">»</tspan></text>
<text transform="matrix(0.85 0 0 1 86.3388062 120.3992691)"><tspan x="0" y="0" class="st9 st6">u</tspan><tspan x="4.1084557" y="0" class="st9 st6">r</tspan><tspan x="6.6762404" y="0" class="st9 st6">o</tspan><tspan x="10.7892923" y="0" class="st9 st6">::</tspan><tspan x="13.8809738" y="0" class="st9 st6">D</tspan><tspan x="18.5161991" y="0" class="st9 st6">m</tspan><tspan x="24.6852016" y="0" class="st9 st6">A</tspan><tspan x="29.3077888" y="0" class="st9 st6">nn</tspan><tspan x="37.5241241" y="0" class="st9 st6">o</tspan><tspan x="41.6371765" y="0" class="st9 st6">t</tspan><tspan x="44.2066841" y="0" class="st9 st6">a</tspan><tspan x="47.8033066" y="0" class="st9 st6">t</tspan><tspan x="50.3728142" y="0" class="st9 st6">i</tspan><tspan x="51.9186554" y="0" class="st9 st6">o</tspan><tspan x="56.0317078" y="0" class="st9 st6">n</tspan></text>
<line class="st11" x1="62.9785576" y1="124.5094376" x2="169.1242218" y2="124.5094376"/>
<text transform="matrix(0.85 0 0 1 65.5263062 133.766449)" class="st5 st6">+ geometryType: gml::CodeType</text>
<text transform="matrix(0.85 0 0 1 65.5263062 142.516449)" class="st5 st6">+ shapeType: gml::CodeType</text>
<text transform="matrix(0.85 0 0 1 65.5263062 151.2586365)" class="st5 st6">+ label: xs::string</text>
<text transform="matrix(0.85 0 0 1 65.5263062 159.9930115)" class="st5 st6">+ isVertical: xs::boolean</text>
<text transform="matrix(0.85 0 0 1 65.5263062 168.735199)" class="st5 st6">+ size: xs::integer</text>
<text transform="matrix(0.85 0 0 1 65.5263062 177.4773865)" class="st5 st6">+ orientation: xs::integer</text>
<text transform="matrix(0.85 0 0 1 65.5263062 186.2273865)" class="st5 st6">+ lineWidth: xs::integer</text>
<text transform="matrix(0.85 0 0 1 65.5263062 194.969574)" class="st5 st6">+ spacing: xs::integer</text>
<line class="st11" x1="113.7659531" y1="100.8523026" x2="113.7659531" y2="90.0522842"/>
<line class="st11" x1="113.7659531" y1="90.0522842" x2="205.1832733" y2="90.0522842"/>
<line class="st11" x1="205.1832733" y1="90.0522842" x2="205.1832733" y2="64.8523026"/>
<polyline class="st15" points="208.2305145,73.0808792 202.1360321,73.0808792 205.1832733,64.8523026 208.2305145,73.0808792 "/>
<polygon class="st11" points="208.2305145,73.0808792 202.1360321,73.0808792 205.1832733,64.8523026 "/>
<line class="st11" x1="116.3053207" y1="199.0808716" x2="116.3053207" y2="255.6522827"/>
<line class="st11" x1="116.3053207" y1="255.6522827" x2="169.6320953" y2="255.6522827"/>
<polyline class="st11" points="162.0139923,258.7380066 169.6320953,255.6522827 162.0139923,252.5665588 "/>
<line class="st11" x1="435.2502441" y1="64.3380203" x2="435.2502441" y2="41.7094154"/>
<line class="st11" x1="435.2502441" y1="41.7094154" x2="261.0494385" y2="41.7094154"/>
<polyline class="st16" points="266.1281738,39.1380043 261.0494385,41.7094154 266.1281738,44.2808876 271.2069092,41.7094154 
	266.1281738,39.1380043 "/>
<polygon class="st11" points="271.2069092,41.7094154 266.1281738,44.2808876 261.0494385,41.7094154 266.1281738,39.1380043 "/>
<polyline class="st11" points="438.2974854,56.6237221 435.2502441,64.3380203 432.2030029,56.6237221 "/>
<line class="st11" x1="287.4588928" y1="100.8523026" x2="287.4588928" y2="90.0522842"/>
<line class="st11" x1="287.4588928" y1="90.0522842" x2="205.1832733" y2="90.0522842"/>
<line class="st11" x1="290.506134" y1="216.5665588" x2="290.506134" y2="255.6522827"/>
<line class="st11" x1="290.506134" y1="255.6522827" x2="220.4195099" y2="255.6522827"/>
<polyline class="st11" points="228.0376129,252.5665588 220.4195099,255.6522827 228.0376129,258.7380066 "/>
<text transform="matrix(0.85 0 0 1 226.0106812 245.3680115)"><tspan x="0" y="0" class="st5 st6">+</tspan><tspan x="4.627183" y="0" class="st5 st6">l</tspan><tspan x="6.1724491" y="0" class="st5 st6">o</tspan><tspan x="10.2837772" y="0" class="st5 st6">d</tspan><tspan x="14.3945312" y="0" class="st5 st6">0</tspan><tspan x="17.998621" y="0" class="st5 st6">G</tspan><tspan x="22.625803" y="0" class="st5 st6">e</tspan><tspan x="26.2224255" y="0" class="st5 st6">o</tspan><tspan x="30.3331795" y="0" class="st5 st6">m</tspan><tspan x="35.991497" y="0" class="st5 st6">e</tspan><tspan x="39.5881195" y="0" class="st5 st6">t</tspan><tspan x="41.6463699" y="0" class="st5 st6">r</tspan><tspan x="44.2118568" y="0" class="st5 st6">y</tspan></text>
<text transform="matrix(0.85 0 0 1 231.5966187 270.0555115)"><tspan x="0" y="0" class="st5 st6">0</tspan><tspan x="3.60409" y="0" class="st5 st6">..</tspan><tspan x="6.676815" y="0" class="st5 st6">1</tspan></text>
<text transform="matrix(0.85 0 0 1 108.6825562 245.8836365)"><tspan x="0" y="0" class="st5 st6">+</tspan><tspan x="4.627183" y="0" class="st5 st6">l</tspan><tspan x="6.1724491" y="0" class="st5 st6">o</tspan><tspan x="10.2837772" y="0" class="st5 st6">d</tspan><tspan x="14.3945312" y="0" class="st5 st6">0</tspan><tspan x="17.998621" y="0" class="st5 st6">A</tspan><tspan x="22.1174164" y="0" class="st5 st6">n</tspan><tspan x="25.7203579" y="0" class="st5 st6">c</tspan><tspan x="28.8085938" y="0" class="st5 st6">h</tspan><tspan x="32.4115334" y="0" class="st5 st6">o</tspan><tspan x="36.5228615" y="0" class="st5 st6">r</tspan><tspan x="39.0877762" y="0" class="st5 st6">P</tspan><tspan x="42.691864" y="0" class="st5 st6">o</tspan><tspan x="46.8031921" y="0" class="st5 st6">i</tspan><tspan x="48.3490334" y="0" class="st5 st6">n</tspan><tspan x="51.951973" y="0" class="st5 st6">t</tspan></text>
<text transform="matrix(0.85 0 0 1 161.5106812 269.5398865)" class="st5 st6">1</text>
<text transform="matrix(0.85 0 0 1 380.4013062 62.2820816)"><tspan x="0" y="0" class="st5 st6">+</tspan><tspan x="4.6266084" y="0" class="st5 st6">d</tspan><tspan x="8.7373619" y="0" class="st5 st6">m</tspan><tspan x="14.3956795" y="0" class="st5 st6">E</tspan><tspan x="17.9917278" y="0" class="st5 st6">l</tspan><tspan x="19.5381432" y="0" class="st5 st6">e</tspan><tspan x="23.1341896" y="0" class="st5 st6">m</tspan><tspan x="28.7925091" y="0" class="st5 st6">e</tspan><tspan x="32.3897057" y="0" class="st5 st6">n</tspan><tspan x="35.9926453" y="0" class="st5 st6">t</tspan></text>
<text transform="matrix(0.85 0 0 1 442.8700562 56.1102066)"><tspan x="0" y="0" class="st5 st6">0</tspan><tspan x="3.60409" y="0" class="st5 st6">..</tspan><tspan x="6.6762404" y="0" class="st5 st6">1</tspan></text>
</svg>
