<?xml version="1.0" encoding="utf-8"?>
<!-- Generator: Adobe Illustrator 27.4.1, SVG Export Plug-In . SVG Version: 6.00 Build 0)  -->
<svg version="1.1" id="レイヤー_1" xmlns="http://www.w3.org/2000/svg" xmlns:xlink="http://www.w3.org/1999/xlink" x="0px"
	 y="0px" viewBox="0 0 725 616.5" style="enable-background:new 0 0 725 616.5;" xml:space="preserve">
<style type="text/css">
	.st0{fill-rule:evenodd;clip-rule:evenodd;fill:#CFD1D8;}
	.st1{fill-rule:evenodd;clip-rule:evenodd;fill:#FFFFCC;}
	.st2{fill:none;stroke:#000000;stroke-width:1.7322;stroke-linecap:round;stroke-linejoin:round;stroke-miterlimit:10;}
	.st3{font-family:'YuGothicUI-Regular';}
	.st4{font-size:11.2598px;}
	.st5{font-size:11.8731px;}
	.st6{fill:none;stroke:#000000;stroke-width:0.3218;stroke-miterlimit:10;}
	.st7{fill-rule:evenodd;clip-rule:evenodd;fill:#F0F0F0;}
	.st8{fill:none;stroke:#D7D7D7;stroke-width:0.8662;stroke-linecap:square;stroke-miterlimit:10;}
	.st9{fill-rule:evenodd;clip-rule:evenodd;fill:#A0FFC0;}
	.st10{fill:none;stroke:#000000;stroke-width:0.8662;stroke-linecap:square;stroke-miterlimit:10;}
	.st11{fill:#003060;}
	.st12{fill-rule:evenodd;clip-rule:evenodd;fill:#FFCCFF;}
	.st13{font-family:'MS-PGothic';}
	.st14{font-size:13.8582px;}
	.st15{fill:none;stroke:#003060;stroke-width:0.396;stroke-miterlimit:10;}
	.st16{font-family:'YuGothicUI-Bold';}
	.st17{fill:none;stroke:#000000;stroke-width:1.7322;stroke-linecap:round;stroke-linejoin:bevel;stroke-miterlimit:10;}
	.st18{fill-rule:evenodd;clip-rule:evenodd;}
	.st19{font-family:'Calibri';}
	.st20{font-size:9.5276px;}
</style>
<path class="st0" d="M500.3,28.5c1.2,0,2.2,1,2.2,2.2l0,0v203.5l0,0c0,1.2-1,2.2-2.2,2.2l0,0l0,0H161.7l0,0c-1.2,0-2.2-1-2.2-2.2
	l0,0V30.6c0-1.2,1-2.2,2.2-2.2l0,0L500.3,28.5L500.3,28.5L500.3,28.5z"/>
<path class="st1" d="M497.7,25.9c1.2,0,2.2,1,2.2,2.2l0,0v203.5l0,0c0,1.2-1,2.2-2.2,2.2l0,0l0,0H159.1l0,0c-1.2,0-2.2-1-2.2-2.2
	l0,0V28c0-1.2,1-2.2,2.2-2.2l0,0L497.7,25.9L497.7,25.9L497.7,25.9z"/>
<path class="st2" d="M497.7,25.9c1.2,0,2.2,1,2.2,2.2l0,0v203.5l0,0c0,1.2-1,2.2-2.2,2.2l0,0l0,0H159.1l0,0c-1.2,0-2.2-1-2.2-2.2
	l0,0V28c0-1.2,1-2.2,2.2-2.2l0,0L497.7,25.9L497.7,25.9L497.7,25.9z"/>
<text transform="matrix(0.85 0 0 1 291.5156 43.1887)" class="st3 st4">«FeatureType»</text>
<text transform="matrix(0.85 0 -0.3169 0.9485 268.9267 57.9122)" class="st3 st5">b</text>
<text transform="matrix(0.85 0 -0.3169 0.9485 268.9267 57.9122)" class="st6 st3 st5">b</text>
<text transform="matrix(0.85 0 -0.3169 0.9485 275.8681 57.9122)" class="st3 st5">l</text>
<text transform="matrix(0.85 0 -0.3169 0.9485 275.8681 57.9122)" class="st6 st3 st5">l</text>
<text transform="matrix(0.85 0 -0.3169 0.9485 278.4774 57.9122)" class="st3 st5">d</text>
<text transform="matrix(0.85 0 -0.3169 0.9485 278.4774 57.9122)" class="st6 st3 st5">d</text>
<text transform="matrix(0.85 0 -0.3169 0.9485 285.4149 57.9122)" class="st3 st5">g</text>
<text transform="matrix(0.85 0 -0.3169 0.9485 285.4149 57.9122)" class="st6 st3 st5">g</text>
<text transform="matrix(0.85 0 -0.3169 0.9485 292.3524 57.9122)" class="st3 st5">:</text>
<text transform="matrix(0.85 0 -0.3169 0.9485 292.3524 57.9122)" class="st6 st3 st5">:</text>
<text transform="matrix(0.85 0 -0.3169 0.9485 294.9462 57.9122)" class="st3 st5">:</text>
<text transform="matrix(0.85 0 -0.3169 0.9485 294.9462 57.9122)" class="st6 st3 st5">:</text>
<text transform="matrix(0.85 0 -0.3169 0.9485 297.5399 57.9122)" class="st3 st5">_</text>
<text transform="matrix(0.85 0 -0.3169 0.9485 297.5399 57.9122)" class="st6 st3 st5">_</text>
<text transform="matrix(0.85 0 -0.3169 0.9485 301.8876 57.9122)" class="st3 st5">A</text>
<text transform="matrix(0.85 0 -0.3169 0.9485 301.8876 57.9122)" class="st6 st3 st5">A</text>
<text transform="matrix(0.85 0 -0.3169 0.9485 309.6962 57.9122)" class="st3 st5">b</text>
<text transform="matrix(0.85 0 -0.3169 0.9485 309.6962 57.9122)" class="st6 st3 st5">b</text>
<text transform="matrix(0.85 0 -0.3169 0.9485 316.6337 57.9122)" class="st3 st5">s</text>
<text transform="matrix(0.85 0 -0.3169 0.9485 316.6337 57.9122)" class="st6 st3 st5">s</text>
<text transform="matrix(0.85 0 -0.3169 0.9485 321.8407 57.9122)" class="st3 st5">t</text>
<text transform="matrix(0.85 0 -0.3169 0.9485 321.8407 57.9122)" class="st6 st3 st5">t</text>
<text transform="matrix(0.85 0 -0.3169 0.9485 326.1728 57.9122)" class="st3 st5">r</text>
<text transform="matrix(0.85 0 -0.3169 0.9485 326.1728 57.9122)" class="st6 st3 st5">r</text>
<text transform="matrix(0.85 0 -0.3169 0.9485 330.5048 57.9122)" class="st3 st5">a</text>
<text transform="matrix(0.85 0 -0.3169 0.9485 330.5048 57.9122)" class="st6 st3 st5">a</text>
<text transform="matrix(0.85 0 -0.3169 0.9485 336.5712 57.9122)" class="st3 st5">c</text>
<text transform="matrix(0.85 0 -0.3169 0.9485 336.5712 57.9122)" class="st6 st3 st5">c</text>
<text transform="matrix(0.85 0 -0.3169 0.9485 341.786 57.9122)" class="st3 st5">t</text>
<text transform="matrix(0.85 0 -0.3169 0.9485 341.786 57.9122)" class="st6 st3 st5">t</text>
<text transform="matrix(0.85 0 -0.3169 0.9485 346.1181 57.9122)" class="st3 st5">B</text>
<text transform="matrix(0.85 0 -0.3169 0.9485 346.1181 57.9122)" class="st6 st3 st5">B</text>
<text transform="matrix(0.85 0 -0.3169 0.9485 353.0595 57.9122)" class="st3 st5">u</text>
<text transform="matrix(0.85 0 -0.3169 0.9485 353.0595 57.9122)" class="st6 st3 st5">u</text>
<text transform="matrix(0.85 0 -0.3169 0.9485 360.0009 57.9122)" class="st3 st5">i</text>
<text transform="matrix(0.85 0 -0.3169 0.9485 360.0009 57.9122)" class="st6 st3 st5">i</text>
<text transform="matrix(0.85 0 -0.3169 0.9485 362.6103 57.9122)" class="st3 st5">l</text>
<text transform="matrix(0.85 0 -0.3169 0.9485 362.6103 57.9122)" class="st6 st3 st5">l</text>
<text transform="matrix(0.85 0 -0.3169 0.9485 365.2196 57.9122)" class="st3 st5">d</text>
<text transform="matrix(0.85 0 -0.3169 0.9485 365.2196 57.9122)" class="st6 st3 st5">d</text>
<text transform="matrix(0.85 0 -0.3169 0.9485 372.1571 57.9122)" class="st3 st5">i</text>
<text transform="matrix(0.85 0 -0.3169 0.9485 372.1571 57.9122)" class="st6 st3 st5">i</text>
<text transform="matrix(0.85 0 -0.3169 0.9485 374.7665 57.9122)" class="st3 st5">n</text>
<text transform="matrix(0.85 0 -0.3169 0.9485 374.7665 57.9122)" class="st6 st3 st5">n</text>
<text transform="matrix(0.85 0 -0.3169 0.9485 381.704 57.9122)" class="st3 st5">g</text>
<text transform="matrix(0.85 0 -0.3169 0.9485 381.704 57.9122)" class="st6 st3 st5">g</text>
<line class="st2" x1="157" y1="64.8" x2="499.9" y2="64.8"/>
<text transform="matrix(0.85 0 0 1 161.2969 80.4387)" class="st3 st4">+ class: gml::CodeType [0..1]</text>
<text transform="matrix(0.85 0 0 1 161.2969 95.173)" class="st3 st4">+ function: gml::CodeType [0..*]</text>
<text transform="matrix(0.85 0 0 1 161.2969 109.8918)" class="st3 st4">+ usage: gml::CodeType [0..*]</text>
<text transform="matrix(0.85 0 0 1 161.2969 124.6105)" class="st3 st4">+ yearOfConstruction: xs::gYear [0..1]</text>
<text transform="matrix(0.85 0 0 1 161.2969 139.3293)" class="st3 st4">+ yearOfDemolition: xs::gYear [0..1]</text>
<text transform="matrix(0.85 0 0 1 161.2969 154.048)" class="st3 st4">+ roofType: gml::CodeType [0..1]</text>
<text transform="matrix(0.85 0 0 1 161.2969 168.7824)" class="st3 st4">+ measuredHeight: gml::LengthType [0..1]</text>
<text transform="matrix(0.85 0 0 1 161.2969 183.5012)" class="st3 st4">+ storeysAboveGround: xs::nonNegativeInteger [0..1]</text>
<text transform="matrix(0.85 0 0 1 161.2969 198.2355)" class="st3 st4">+ storeysBelowGround: xs::nonNegativeInteger [0..1]</text>
<text transform="matrix(0.85 0 0 1 161.2969 212.9543)" class="st3 st4">+ storeyHeightsAboveGround: gml::MeasureOrNullListType [0..1]</text>
<text transform="matrix(0.85 0 0 1 161.2969 227.6887)" class="st3 st4">+ storeyHeightsBelowGround: gml::MeasureOrNullListType [0..1]</text>
<path class="st7" d="M696.9,129.8c1.4,0,2.6,1.2,2.6,2.6l0,0v76.2l0,0c0,1.4-1.2,2.6-2.6,2.6l0,0l0,0H541.5l0,0
	c-1.4,0-2.6-1.2-2.6-2.6v-76.2c0-1.4,1.2-2.6,2.6-2.6l0,0H696.9L696.9,129.8L696.9,129.8z"/>
<path class="st8" d="M696.9,129.8c1.4,0,2.6,1.2,2.6,2.6l0,0v76.2l0,0c0,1.4-1.2,2.6-2.6,2.6l0,0l0,0H541.5l0,0
	c-1.4,0-2.6-1.2-2.6-2.6v-76.2c0-1.4,1.2-2.6,2.6-2.6l0,0H696.9L696.9,129.8L696.9,129.8z"/>
<path class="st9" d="M559.3,155.8c1.2,0,2.2,1,2.2,2.2l0,0v9.5l0,0c0,1.2-1,2.2-2.2,2.2l0,0l0,0h-9.5l0,0c-1.2,0-2.2-1-2.2-2.2l0,0
	V158c0-1.2,1-2.2,2.2-2.2l0,0H559.3L559.3,155.8L559.3,155.8z"/>
<path class="st10" d="M559.3,155.8c1.2,0,2.2,1,2.2,2.2l0,0v9.5l0,0c0,1.2-1,2.2-2.2,2.2l0,0l0,0h-9.5l0,0c-1.2,0-2.2-1-2.2-2.2l0,0
	V158c0-1.2,1-2.2,2.2-2.2l0,0H559.3L559.3,155.8L559.3,155.8z"/>
<text transform="matrix(0.85 0 0 1 566.7021 167.923)" class="st11 st3 st4">GMLで定義されたクラス</text>
<path class="st1" d="M559.3,172.2c1.2,0,2.2,1,2.2,2.2l0,0v9.5l0,0c0,1.2-1,2.2-2.2,2.2l0,0l0,0h-9.5l0,0c-1.2,0-2.2-1-2.2-2.2l0,0
	v-9.5c0-1.2,1-2.2,2.2-2.2l0,0H559.3L559.3,172.2L559.3,172.2z"/>
<path class="st10" d="M559.3,172.2c1.2,0,2.2,1,2.2,2.2l0,0v9.5l0,0c0,1.2-1,2.2-2.2,2.2l0,0l0,0h-9.5l0,0c-1.2,0-2.2-1-2.2-2.2l0,0
	v-9.5c0-1.2,1-2.2,2.2-2.2l0,0H559.3L559.3,172.2L559.3,172.2z"/>
<text transform="matrix(0.85 0 0 1 566.7021 184.3605)" class="st11 st3 st4">CityGMLで定義されたクラス</text>
<path class="st12" d="M559.3,188.7c1.2,0,2.2,1,2.2,2.2l0,0v9.5l0,0c0,1.2-1,2.2-2.2,2.2l0,0l0,0h-9.5l0,0c-1.2,0-2.2-1-2.2-2.2l0,0
	v-9.5c0-1.2,1-2.2,2.2-2.2l0,0H559.3L559.3,188.7L559.3,188.7z"/>
<path class="st10" d="M559.3,188.7c1.2,0,2.2,1,2.2,2.2l0,0v9.5l0,0c0,1.2-1,2.2-2.2,2.2l0,0l0,0h-9.5l0,0c-1.2,0-2.2-1-2.2-2.2l0,0
	v-9.5c0-1.2,1-2.2,2.2-2.2l0,0H559.3L559.3,188.7L559.3,188.7z"/>
<text transform="matrix(0.85 0 0 1 566.7021 200.8293)" class="st11 st3 st4">i-URで定義されたクラス</text>
<g>
	<text transform="matrix(0.85 0 0 1 605.7666 148.0012)" class="st11 st13 st14">凡例</text>
	<text transform="matrix(0.85 0 0 1 605.7666 148.0012)" class="st15 st13 st14">凡例</text>
</g>
<path class="st0" d="M231.2,383.6c1.2,0,2.2,1,2.2,2.2l0,0v203.5l0,0c0,1.2-1,2.2-2.2,2.2l0,0l0,0H48.9l0,0c-1.2,0-2.2-1-2.2-2.2
	l0,0V385.8c0-1.2,1-2.2,2.2-2.2l0,0L231.2,383.6L231.2,383.6L231.2,383.6z"/>
<path class="st12" d="M228.6,381c1.2,0,2.2,1,2.2,2.2l0,0v203.5l0,0c0,1.2-1,2.2-2.2,2.2l0,0l0,0H46.3l0,0c-1.2,0-2.2-1-2.2-2.2l0,0
	V383.2c0-1.2,1-2.2,2.2-2.2l0,0H228.6L228.6,381L228.6,381z"/>
<path class="st2" d="M228.6,381c1.2,0,2.2,1,2.2,2.2l0,0v203.5l0,0c0,1.2-1,2.2-2.2,2.2l0,0l0,0H46.3l0,0c-1.2,0-2.2-1-2.2-2.2l0,0
	V383.2c0-1.2,1-2.2,2.2-2.2l0,0H228.6L228.6,381L228.6,381z"/>
<text transform="matrix(0.85 0 0 1 107.4688 398.3137)" class="st3 st4">«DataType»</text>
<text transform="matrix(0.85 0 0 1 78.8281 413.0324)" class="st16 st4">uro::FacilityIdAttribute</text>
<line class="st2" x1="44.1" y1="420" x2="230.7" y2="420"/>
<text transform="matrix(0.85 0 0 1 48.4375 435.548)" class="st3 st4">+ id: xs::string [0..1]</text>
<text transform="matrix(0.85 0 0 1 48.4375 450.2824)" class="st3 st4">+ partId: xs::string [0..1]</text>
<text transform="matrix(0.85 0 0 1 48.4375 465.0168)" class="st3 st4">+ branchId: xs::string [0..1]</text>
<text transform="matrix(0.85 0 0 1 48.4375 479.7355)" class="st3 st4">+ prefecture: gml::CodeType [0..*]</text>
<text transform="matrix(0.85 0 0 1 48.4375 494.4543)" class="st3 st4">+ city: gml::CodeType [0..*]</text>
<text transform="matrix(0.85 0 0 1 48.4375 509.173)" class="st3 st4">+ route: xs::string [0..1]</text>
<text transform="matrix(0.85 0 0 1 48.4375 523.8918)" class="st3 st4">+ startPost: xs::string [0..1]</text>
<text transform="matrix(0.85 0 0 1 48.4375 538.6262)" class="st3 st4">+ endPost: xs::string [0..1]</text>
<text transform="matrix(0.85 0 0 1 48.4375 553.3449)" class="st3 st4">+ startLat: xs::double [0..1]</text>
<text transform="matrix(0.85 0 0 1 48.4375 568.0793)" class="st3 st4">+ startLong: xs::double [0..1]</text>
<text transform="matrix(0.85 0 0 1 48.4375 582.798)" class="st3 st4">+ alternativeName: xs::string [0..*]</text>
<path class="st0" d="M427.4,383.6c1.2,0,2.2,1,2.2,2.2l0,0v71l0,0c0,1.2-1,2.2-2.2,2.2l0,0l0,0H257.2l0,0c-1.2,0-2.2-1-2.2-2.2l0,0
	v-71c0-1.2,1-2.2,2.2-2.2l0,0H427.4L427.4,383.6L427.4,383.6z"/>
<path class="st12" d="M424.8,381c1.2,0,2.2,1,2.2,2.2l0,0v71l0,0c0,1.2-1,2.2-2.2,2.2l0,0l0,0H254.6l0,0c-1.2,0-2.2-1-2.2-2.2l0,0
	v-71c0-1.2,1-2.2,2.2-2.2l0,0H424.8L424.8,381L424.8,381z"/>
<path class="st2" d="M424.8,381c1.2,0,2.2,1,2.2,2.2l0,0v71l0,0c0,1.2-1,2.2-2.2,2.2l0,0l0,0H254.6l0,0c-1.2,0-2.2-1-2.2-2.2l0,0
	v-71c0-1.2,1-2.2,2.2-2.2l0,0H424.8L424.8,381L424.8,381z"/>
<text transform="matrix(0.85 0 0 1 309.7344 398.3137)" class="st3 st4">«DataType»</text>
<text transform="matrix(0.85 0 0 1 274.1406 413.0324)" class="st16 st4">uro::FacilityTypeAttribute</text>
<line class="st2" x1="252.4" y1="420" x2="426.9" y2="420"/>
<text transform="matrix(0.85 0 0 1 256.7812 435.548)" class="st3 st4">+ class: gml::CodeType [0..1]</text>
<text transform="matrix(0.85 0 0 1 256.7812 450.2824)" class="st3 st4">+ function: gml::CodeType [0..*]</text>
<path class="st0" d="M589.7,383.6c1.2,0,2.2,1,2.2,2.2l0,0v64.1l0,0c0,1.2-1,2.2-2.2,2.2l0,0l0,0H448.2l0,0c-1.2,0-2.2-1-2.2-2.2
	l0,0v-64.1c0-1.2,1-2.2,2.2-2.2l0,0H589.7L589.7,383.6L589.7,383.6z"/>
<path class="st12" d="M587.1,381c1.2,0,2.2,1,2.2,2.2l0,0v64.1l0,0c0,1.2-1,2.2-2.2,2.2l0,0l0,0H445.6l0,0c-1.2,0-2.2-1-2.2-2.2l0,0
	v-64.1c0-1.2,1-2.2,2.2-2.2l0,0H587.1L587.1,381L587.1,381z"/>
<path class="st2" d="M587.1,381c1.2,0,2.2,1,2.2,2.2l0,0v64.1l0,0c0,1.2-1,2.2-2.2,2.2l0,0l0,0H445.6l0,0c-1.2,0-2.2-1-2.2-2.2l0,0
	v-64.1c0-1.2,1-2.2,2.2-2.2l0,0H587.1L587.1,381L587.1,381z"/>
<text transform="matrix(0.85 0 0 1 486.8291 398.3137)" class="st3 st4">«DataType»</text>
<text transform="matrix(0.85 0 -0.3169 0.9485 463.3829 413.0245)" class="st3 st5">u</text>
<text transform="matrix(0.85 0 -0.3169 0.9485 463.3829 413.0245)" class="st6 st3 st5">u</text>
<text transform="matrix(0.85 0 -0.3169 0.9485 470.3204 413.0245)" class="st3 st5">r</text>
<text transform="matrix(0.85 0 -0.3169 0.9485 470.3204 413.0245)" class="st6 st3 st5">r</text>
<text transform="matrix(0.85 0 -0.3169 0.9485 474.6524 413.0245)" class="st3 st5">o</text>
<text transform="matrix(0.85 0 -0.3169 0.9485 474.6524 413.0245)" class="st6 st3 st5">o</text>
<text transform="matrix(0.85 0 -0.3169 0.9485 481.5899 413.0245)" class="st3 st5">:</text>
<text transform="matrix(0.85 0 -0.3169 0.9485 481.5899 413.0245)" class="st6 st3 st5">:</text>
<text transform="matrix(0.85 0 -0.3169 0.9485 484.1837 413.0245)" class="st3 st5">:</text>
<text transform="matrix(0.85 0 -0.3169 0.9485 484.1837 413.0245)" class="st6 st3 st5">:</text>
<text transform="matrix(0.85 0 -0.3169 0.9485 486.7774 413.0245)" class="st3 st5">F</text>
<text transform="matrix(0.85 0 -0.3169 0.9485 486.7774 413.0245)" class="st6 st3 st5">F</text>
<text transform="matrix(0.85 0 -0.3169 0.9485 492.8517 413.0245)" class="st3 st5">a</text>
<text transform="matrix(0.85 0 -0.3169 0.9485 492.8517 413.0245)" class="st6 st3 st5">a</text>
<text transform="matrix(0.85 0 -0.3169 0.9485 498.922 413.0245)" class="st3 st5">c</text>
<text transform="matrix(0.85 0 -0.3169 0.9485 498.922 413.0245)" class="st6 st3 st5">c</text>
<text transform="matrix(0.85 0 -0.3169 0.9485 504.1329 413.0245)" class="st3 st5">i</text>
<text transform="matrix(0.85 0 -0.3169 0.9485 504.1329 413.0245)" class="st6 st3 st5">i</text>
<text transform="matrix(0.85 0 -0.3169 0.9485 506.7423 413.0245)" class="st3 st5">l</text>
<text transform="matrix(0.85 0 -0.3169 0.9485 506.7423 413.0245)" class="st6 st3 st5">l</text>
<text transform="matrix(0.85 0 -0.3169 0.9485 509.3517 413.0245)" class="st3 st5">i</text>
<text transform="matrix(0.85 0 -0.3169 0.9485 509.3517 413.0245)" class="st6 st3 st5">i</text>
<text transform="matrix(0.85 0 -0.3169 0.9485 511.961 413.0245)" class="st3 st5">t</text>
<text transform="matrix(0.85 0 -0.3169 0.9485 511.961 413.0245)" class="st6 st3 st5">t</text>
<text transform="matrix(0.85 0 -0.3169 0.9485 516.293 413.0245)" class="st3 st5">y</text>
<text transform="matrix(0.85 0 -0.3169 0.9485 516.293 413.0245)" class="st6 st3 st5">y</text>
<text transform="matrix(0.85 0 -0.3169 0.9485 522.3633 413.0245)" class="st3 st5">A</text>
<text transform="matrix(0.85 0 -0.3169 0.9485 522.3633 413.0245)" class="st6 st3 st5">A</text>
<text transform="matrix(0.85 0 -0.3169 0.9485 530.1719 413.0245)" class="st3 st5">t</text>
<text transform="matrix(0.85 0 -0.3169 0.9485 530.1719 413.0245)" class="st6 st3 st5">t</text>
<text transform="matrix(0.85 0 -0.3169 0.9485 534.504 413.0245)" class="st3 st5">t</text>
<text transform="matrix(0.85 0 -0.3169 0.9485 534.504 413.0245)" class="st6 st3 st5">t</text>
<text transform="matrix(0.85 0 -0.3169 0.9485 538.836 413.0245)" class="st3 st5">r</text>
<text transform="matrix(0.85 0 -0.3169 0.9485 538.836 413.0245)" class="st6 st3 st5">r</text>
<text transform="matrix(0.85 0 -0.3169 0.9485 543.168 413.0245)" class="st3 st5">i</text>
<text transform="matrix(0.85 0 -0.3169 0.9485 543.168 413.0245)" class="st6 st3 st5">i</text>
<text transform="matrix(0.85 0 -0.3169 0.9485 545.7774 413.0245)" class="st3 st5">b</text>
<text transform="matrix(0.85 0 -0.3169 0.9485 545.7774 413.0245)" class="st6 st3 st5">b</text>
<text transform="matrix(0.85 0 -0.3169 0.9485 552.7149 413.0245)" class="st3 st5">u</text>
<text transform="matrix(0.85 0 -0.3169 0.9485 552.7149 413.0245)" class="st6 st3 st5">u</text>
<text transform="matrix(0.85 0 -0.3169 0.9485 559.6563 413.0245)" class="st3 st5">t</text>
<text transform="matrix(0.85 0 -0.3169 0.9485 559.6563 413.0245)" class="st6 st3 st5">t</text>
<text transform="matrix(0.85 0 -0.3169 0.9485 563.9883 413.0245)" class="st3 st5">e</text>
<text transform="matrix(0.85 0 -0.3169 0.9485 563.9883 413.0245)" class="st6 st3 st5">e</text>
<line class="st2" x1="443.4" y1="420" x2="589.3" y2="420"/>
<text transform="matrix(0.85 0 0 1 447.7666 435.548)" class="st3 st4">+ facilityId: xs::string [0..1]</text>
<line class="st17" x1="515.5" y1="380.1" x2="515.5" y2="277.9"/>
<line class="st17" x1="515.5" y1="277.9" x2="328.8" y2="277.9"/>
<line class="st17" x1="328.8" y1="277.9" x2="328.8" y2="235.5"/>
<polyline class="st18" points="333.2,244.1 328.8,235.5 324.5,244.1 328.8,252.8 333.2,244.1 "/>
<polyline class="st17" points="333.2,244.1 328.8,235.5 324.5,244.1 328.8,252.8 "/>
<path class="st17" d="M515.5,380.1l5.2-13 M515.5,380.1l-5.2-13"/>
<line class="st17" x1="339.3" y1="380.1" x2="339.3" y2="277.9"/>
<polyline class="st18" points="333.2,244.1 328.8,235.5 324.5,244.1 328.8,252.8 333.2,244.1 "/>
<polyline class="st17" points="333.2,244.1 328.8,235.5 324.5,244.1 328.8,252.8 "/>
<path class="st17" d="M339.3,380.1l5.2-13 M339.3,380.1l-5.2-13"/>
<line class="st17" x1="136.1" y1="380.1" x2="136.1" y2="277.9"/>
<line class="st17" x1="136.1" y1="277.9" x2="328.8" y2="277.9"/>
<polyline class="st18" points="333.2,244.1 328.8,235.5 324.5,244.1 328.8,252.8 333.2,244.1 "/>
<polygon class="st17" points="333.2,244.1 328.8,235.5 324.5,244.1 328.8,252.8 "/>
<path class="st17" d="M136.1,380.1l5.2-13 M136.1,380.1l-5.2-13"/>
<text transform="matrix(0.85 0 0 1 -7828.3921 -7878.1602)" class="st19" style="font-size:4.7638px;">t</text>
<text transform="matrix(0.85 0 0 1 415.6416 352.3918)" class="st19 st20">+bldgFacilityAttribute</text>
<text transform="matrix(0.85 0 0 1 538.9229 375.798)" class="st19 st20">0..*</text>
<text transform="matrix(0.85 0 0 1 -7828.3921 -7878.1602)" class="st19" style="font-size:4.7638px;">t</text>
<text transform="matrix(0.85 0 0 1 25 366.2668)" class="st19 st20">+bldgFacilityIdAttribute</text>
<text transform="matrix(0.85 0 0 1 156.9531 372.3137)" class="st19 st20">0..1</text>
<text transform="matrix(0.85 0 0 1 -7828.3921 -7878.1602)" class="st19" style="font-size:4.7638px;">t</text>
<text transform="matrix(0.85 0 0 1 217.7188 368.0012)" class="st19 st20">+bldgFacilityTypeAttribute</text>
<text transform="matrix(0.85 0 0 1 354.8906 374.923)" class="st19 st20">0..*</text>
</svg>
