<?xml version="1.0" encoding="utf-8"?>
<!-- Generator: Adobe Illustrator 27.4.1, SVG Export Plug-In . SVG Version: 6.00 Build 0)  -->
<svg version="1.1" id="レイヤー_1" xmlns="http://www.w3.org/2000/svg" xmlns:xlink="http://www.w3.org/1999/xlink" x="0px"
	 y="0px" viewBox="0 0 841.9 595.3" style="enable-background:new 0 0 841.9 595.3;" xml:space="preserve">
<style type="text/css">
	.st0{fill-rule:evenodd;clip-rule:evenodd;fill:#CFD1D8;}
	.st1{fill-rule:evenodd;clip-rule:evenodd;fill:#FFFFCC;}
	.st2{fill:none;stroke:#000000;stroke-width:1.7322;stroke-linecap:round;stroke-linejoin:round;stroke-miterlimit:10;}
	.st3{font-family:'YuGothicUI-Regular';}
	.st4{font-size:11.8726px;}
	.st5{font-size:11.2598px;}
	.st6{fill:none;stroke:#000000;stroke-width:0.3218;stroke-miterlimit:10;}
	.st7{font-family:'YuGothicUI-Bold';}
	.st8{fill-rule:evenodd;clip-rule:evenodd;fill:#F0F0F0;}
	.st9{fill:none;stroke:#D7D7D7;stroke-width:0.8662;stroke-linecap:square;stroke-miterlimit:10;}
	.st10{fill-rule:evenodd;clip-rule:evenodd;fill:#CCFFCC;}
	.st11{fill:none;stroke:#000000;stroke-width:0.8662;stroke-linecap:square;stroke-miterlimit:10;}
	.st12{fill:#003060;}
	.st13{fill-rule:evenodd;clip-rule:evenodd;fill:#FFCCFF;}
	.st14{font-family:'MS-PGothic';}
	.st15{font-size:13.8582px;}
	.st16{fill:none;stroke:#003060;stroke-width:0.396;stroke-miterlimit:10;}
	.st17{fill:none;stroke:#000000;stroke-width:1.7322;stroke-linecap:round;stroke-linejoin:bevel;stroke-miterlimit:10;}
	.st18{fill-rule:evenodd;clip-rule:evenodd;fill:#FFFFFF;}
	.st19{fill-rule:evenodd;clip-rule:evenodd;}
	.st20{font-family:'Calibri';}
	.st21{font-size:9.5276px;}
</style>
<path class="st0" d="M521.2,31.4c1.2,0,2.2,1,2.2,2.2l0,0v117.8l0,0c0,1.2-1,2.2-2.2,2.2l0,0l0,0H222.5l0,0c-1.2,0-2.2-1-2.2-2.2
	l0,0V33.6c0-1.2,1-2.2,2.2-2.2l0,0L521.2,31.4L521.2,31.4L521.2,31.4z"/>
<path class="st1" d="M518.6,28.9c1.2,0,2.2,1,2.2,2.2l0,0v117.8l0,0c0,1.2-1,2.2-2.2,2.2l0,0l0,0H219.9l0,0c-1.2,0-2.2-1-2.2-2.2
	l0,0V31c0-1.2,1-2.2,2.2-2.2l0,0h298.7V28.9L518.6,28.9z"/>
<path class="st2" d="M518.6,28.9c1.2,0,2.2,1,2.2,2.2l0,0v117.8l0,0c0,1.2-1,2.2-2.2,2.2l0,0l0,0H219.9l0,0c-1.2,0-2.2-1-2.2-2.2
	l0,0V31c0-1.2,1-2.2,2.2-2.2l0,0h298.7V28.9L518.6,28.9z"/>
<text transform="matrix(0.85 0 -0.3169 0.9485 460.5428 43.5843)" class="st3 st4">_Feature</text>
<text transform="matrix(0.85 0 0 1 332.3525 63.4973)" class="st3 st5">«FeatureType»</text>
<g>
	<text transform="matrix(0.85 0 -0.3169 0.9485 326.2462 78.2199)" class="st3 st4">c</text>
	<text transform="matrix(0.85 0 -0.3169 0.9485 326.2462 78.2199)" class="st6 st3 st4">c</text>
	<text transform="matrix(0.85 0 -0.3169 0.9485 331.4591 78.2199)" class="st3 st4">o</text>
	<text transform="matrix(0.85 0 -0.3169 0.9485 331.4591 78.2199)" class="st6 st3 st4">o</text>
	<text transform="matrix(0.85 0 -0.3169 0.9485 338.3986 78.2199)" class="st3 st4">r</text>
	<text transform="matrix(0.85 0 -0.3169 0.9485 338.3986 78.2199)" class="st6 st3 st4">r</text>
	<text transform="matrix(0.85 0 -0.3169 0.9485 342.7267 78.2199)" class="st3 st4">e</text>
	<text transform="matrix(0.85 0 -0.3169 0.9485 342.7267 78.2199)" class="st6 st3 st4">e</text>
	<text transform="matrix(0.85 0 -0.3169 0.9485 348.799 78.2199)" class="st3 st4">:</text>
	<text transform="matrix(0.85 0 -0.3169 0.9485 348.799 78.2199)" class="st6 st3 st4">:</text>
	<text transform="matrix(0.85 0 -0.3169 0.9485 351.3908 78.2199)" class="st3 st4">:</text>
	<text transform="matrix(0.85 0 -0.3169 0.9485 351.3908 78.2199)" class="st6 st3 st4">:</text>
	<text transform="matrix(0.85 0 -0.3169 0.9485 353.9845 78.2199)" class="st3 st4">_</text>
	<text transform="matrix(0.85 0 -0.3169 0.9485 353.9845 78.2199)" class="st6 st3 st4">_</text>
	<text transform="matrix(0.85 0 -0.3169 0.9485 358.3322 78.2199)" class="st3 st4">C</text>
	<text transform="matrix(0.85 0 -0.3169 0.9485 358.3322 78.2199)" class="st6 st3 st4">C</text>
	<text transform="matrix(0.85 0 -0.3169 0.9485 365.2853 78.2199)" class="st3 st4">i</text>
	<text transform="matrix(0.85 0 -0.3169 0.9485 365.2853 78.2199)" class="st6 st3 st4">i</text>
	<text transform="matrix(0.85 0 -0.3169 0.9485 367.8947 78.2199)" class="st3 st4">t</text>
	<text transform="matrix(0.85 0 -0.3169 0.9485 367.8947 78.2199)" class="st6 st3 st4">t</text>
	<text transform="matrix(0.85 0 -0.3169 0.9485 372.2267 78.2199)" class="st3 st4">y</text>
	<text transform="matrix(0.85 0 -0.3169 0.9485 372.2267 78.2199)" class="st6 st3 st4">y</text>
	<text transform="matrix(0.85 0 -0.3169 0.9485 378.297 78.2199)" class="st3 st4">O</text>
	<text transform="matrix(0.85 0 -0.3169 0.9485 378.297 78.2199)" class="st6 st3 st4">O</text>
	<text transform="matrix(0.85 0 -0.3169 0.9485 386.9748 78.2199)" class="st3 st4">b</text>
	<text transform="matrix(0.85 0 -0.3169 0.9485 386.9748 78.2199)" class="st6 st3 st4">b</text>
	<text transform="matrix(0.85 0 -0.3169 0.9485 393.9123 78.2199)" class="st3 st4">j</text>
	<text transform="matrix(0.85 0 -0.3169 0.9485 393.9123 78.2199)" class="st6 st3 st4">j</text>
	<text transform="matrix(0.85 0 -0.3169 0.9485 396.5216 78.2199)" class="st3 st4">e</text>
	<text transform="matrix(0.85 0 -0.3169 0.9485 396.5216 78.2199)" class="st6 st3 st4">e</text>
	<text transform="matrix(0.85 0 -0.3169 0.9485 402.5939 78.2199)" class="st3 st4">c</text>
	<text transform="matrix(0.85 0 -0.3169 0.9485 402.5939 78.2199)" class="st6 st3 st4">c</text>
	<text transform="matrix(0.85 0 -0.3169 0.9485 407.8068 78.2199)" class="st3 st4">t</text>
	<text transform="matrix(0.85 0 -0.3169 0.9485 407.8068 78.2199)" class="st6 st3 st4">t</text>
</g>
<line class="st2" x1="217.8" y1="85.1" x2="520.7" y2="85.1"/>
<text transform="matrix(0.85 0 0 1 222.1182 100.7473)" class="st3 st5">+ creationDate: xs::date [0..1]</text>
<text transform="matrix(0.85 0 0 1 222.1182 115.466)" class="st3 st5">+ terminationDate: xs::date [0..1]</text>
<text transform="matrix(0.85 0 0 1 222.1182 130.1848)" class="st3 st5">+ relativeToTerrain: core::RelativeToTerrainType [0..1]</text>
<text transform="matrix(0.85 0 0 1 222.1182 144.9191)" class="st3 st5">+ relativeToWater: core::RelativeToWaterType [0..1]</text>
<path class="st0" d="M435.2,213.3c1.2,0,2.2,1,2.2,2.2l0,0v64.1l0,0c0,1.2-1,2.2-2.2,2.2l0,0l0,0H300.7l0,0c-1.2,0-2.2-1-2.2-2.2
	l0,0v-64.1c0-1.2,1-2.2,2.2-2.2l0,0H435.2L435.2,213.3L435.2,213.3z"/>
<path class="st1" d="M432.6,210.7c1.2,0,2.2,1,2.2,2.2l0,0V277l0,0c0,1.2-1,2.2-2.2,2.2l0,0l0,0H298.1l0,0c-1.2,0-2.2-1-2.2-2.2l0,0
	v-64.1c0-1.2,1-2.2,2.2-2.2l0,0H432.6L432.6,210.7L432.6,210.7z"/>
<path class="st2" d="M432.6,210.7c1.2,0,2.2,1,2.2,2.2l0,0V277l0,0c0,1.2-1,2.2-2.2,2.2l0,0l0,0H298.1l0,0c-1.2,0-2.2-1-2.2-2.2l0,0
	v-64.1c0-1.2,1-2.2,2.2-2.2l0,0H432.6L432.6,210.7L432.6,210.7z"/>
<text transform="matrix(0.85 0 0 1 335.8213 228.0598)" class="st3 st5">«DataType»</text>
<g>
	<text transform="matrix(0.85 0 -0.3169 0.9485 308.0289 242.793)" class="st3 st4">g</text>
	<text transform="matrix(0.85 0 -0.3169 0.9485 308.0289 242.793)" class="st6 st3 st4">g</text>
	<text transform="matrix(0.85 0 -0.3169 0.9485 314.9683 242.793)" class="st3 st4">e</text>
	<text transform="matrix(0.85 0 -0.3169 0.9485 314.9683 242.793)" class="st6 st3 st4">e</text>
	<text transform="matrix(0.85 0 -0.3169 0.9485 321.0386 242.793)" class="st3 st4">n</text>
	<text transform="matrix(0.85 0 -0.3169 0.9485 321.0386 242.793)" class="st6 st3 st4">n</text>
	<text transform="matrix(0.85 0 -0.3169 0.9485 327.9781 242.793)" class="st3 st4">:</text>
	<text transform="matrix(0.85 0 -0.3169 0.9485 327.9781 242.793)" class="st6 st3 st4">:</text>
	<text transform="matrix(0.85 0 -0.3169 0.9485 330.5718 242.793)" class="st3 st4">:</text>
	<text transform="matrix(0.85 0 -0.3169 0.9485 330.5718 242.793)" class="st6 st3 st4">:</text>
	<text transform="matrix(0.85 0 -0.3169 0.9485 333.1656 242.793)" class="st3 st4">_</text>
	<text transform="matrix(0.85 0 -0.3169 0.9485 333.1656 242.793)" class="st6 st3 st4">_</text>
	<text transform="matrix(0.85 0 -0.3169 0.9485 337.5113 242.793)" class="st3 st4">g</text>
	<text transform="matrix(0.85 0 -0.3169 0.9485 337.5113 242.793)" class="st6 st3 st4">g</text>
	<text transform="matrix(0.85 0 -0.3169 0.9485 344.4488 242.793)" class="st3 st4">e</text>
	<text transform="matrix(0.85 0 -0.3169 0.9485 344.4488 242.793)" class="st6 st3 st4">e</text>
	<text transform="matrix(0.85 0 -0.3169 0.9485 350.5211 242.793)" class="st3 st4">n</text>
	<text transform="matrix(0.85 0 -0.3169 0.9485 350.5211 242.793)" class="st6 st3 st4">n</text>
	<text transform="matrix(0.85 0 -0.3169 0.9485 357.4605 242.793)" class="st3 st4">e</text>
	<text transform="matrix(0.85 0 -0.3169 0.9485 357.4605 242.793)" class="st6 st3 st4">e</text>
	<text transform="matrix(0.85 0 -0.3169 0.9485 363.5308 242.793)" class="st3 st4">r</text>
	<text transform="matrix(0.85 0 -0.3169 0.9485 363.5308 242.793)" class="st6 st3 st4">r</text>
	<text transform="matrix(0.85 0 -0.3169 0.9485 367.8609 242.793)" class="st3 st4">i</text>
	<text transform="matrix(0.85 0 -0.3169 0.9485 367.8609 242.793)" class="st6 st3 st4">i</text>
	<text transform="matrix(0.85 0 -0.3169 0.9485 370.4703 242.793)" class="st3 st4">c</text>
	<text transform="matrix(0.85 0 -0.3169 0.9485 370.4703 242.793)" class="st6 st3 st4">c</text>
	<text transform="matrix(0.85 0 -0.3169 0.9485 375.6832 242.793)" class="st3 st4">A</text>
	<text transform="matrix(0.85 0 -0.3169 0.9485 375.6832 242.793)" class="st6 st3 st4">A</text>
	<text transform="matrix(0.85 0 -0.3169 0.9485 383.4918 242.793)" class="st3 st4">t</text>
	<text transform="matrix(0.85 0 -0.3169 0.9485 383.4918 242.793)" class="st6 st3 st4">t</text>
	<text transform="matrix(0.85 0 -0.3169 0.9485 387.8238 242.793)" class="st3 st4">t</text>
	<text transform="matrix(0.85 0 -0.3169 0.9485 387.8238 242.793)" class="st6 st3 st4">t</text>
	<text transform="matrix(0.85 0 -0.3169 0.9485 392.1558 242.793)" class="st3 st4">r</text>
	<text transform="matrix(0.85 0 -0.3169 0.9485 392.1558 242.793)" class="st6 st3 st4">r</text>
	<text transform="matrix(0.85 0 -0.3169 0.9485 396.4859 242.793)" class="st3 st4">i</text>
	<text transform="matrix(0.85 0 -0.3169 0.9485 396.4859 242.793)" class="st6 st3 st4">i</text>
	<text transform="matrix(0.85 0 -0.3169 0.9485 399.0953 242.793)" class="st3 st4">b</text>
	<text transform="matrix(0.85 0 -0.3169 0.9485 399.0953 242.793)" class="st6 st3 st4">b</text>
	<text transform="matrix(0.85 0 -0.3169 0.9485 406.0347 242.793)" class="st3 st4">u</text>
	<text transform="matrix(0.85 0 -0.3169 0.9485 406.0347 242.793)" class="st6 st3 st4">u</text>
	<text transform="matrix(0.85 0 -0.3169 0.9485 412.9742 242.793)" class="st3 st4">t</text>
	<text transform="matrix(0.85 0 -0.3169 0.9485 412.9742 242.793)" class="st6 st3 st4">t</text>
	<text transform="matrix(0.85 0 -0.3169 0.9485 417.3062 242.793)" class="st3 st4">e</text>
	<text transform="matrix(0.85 0 -0.3169 0.9485 417.3062 242.793)" class="st6 st3 st4">e</text>
</g>
<line class="st2" x1="295.9" y1="249.7" x2="434.8" y2="249.7"/>
<text transform="matrix(0.85 0 0 1 300.2432 265.3098)" class="st3 st5">+ name: xs::string</text>
<path class="st0" d="M428.3,455.9c1.2,0,2.2,1,2.2,2.2l0,0v64.1l0,0c0,1.2-1,2.2-2.2,2.2l0,0l0,0H309.4l0,0c-1.2,0-2.2-1-2.2-2.2
	l0,0V458c0-1.2,1-2.2,2.2-2.2l0,0h118.9V455.9L428.3,455.9z"/>
<path class="st1" d="M425.7,453.3c1.2,0,2.2,1,2.2,2.2l0,0v64.1l0,0c0,1.2-1,2.2-2.2,2.2l0,0l0,0h-119l0,0c-1.2,0-2.2-1-2.2-2.2l0,0
	v-64.1c0-1.2,1-2.2,2.2-2.2l0,0L425.7,453.3L425.7,453.3L425.7,453.3z"/>
<path class="st2" d="M425.7,453.3c1.2,0,2.2,1,2.2,2.2l0,0v64.1l0,0c0,1.2-1,2.2-2.2,2.2l0,0l0,0h-119l0,0c-1.2,0-2.2-1-2.2-2.2l0,0
	v-64.1c0-1.2,1-2.2,2.2-2.2l0,0L425.7,453.3L425.7,453.3L425.7,453.3z"/>
<text transform="matrix(0.85 0 0 1 336.6963 470.591)" class="st3 st5">«DataType»</text>
<text transform="matrix(0.85 0 0 1 318.4619 485.3098)" class="st7 st5">gen::dateAttribute</text>
<line class="st2" x1="304.6" y1="492.2" x2="427.9" y2="492.2"/>
<text transform="matrix(0.85 0 0 1 308.915 507.8254)" class="st3 st5">+ value: xs:date</text>
<path class="st0" d="M193.9,360.6c1.2,0,2.2,1,2.2,2.2l0,0v64.1l0,0c0,1.2-1,2.2-2.2,2.2l0,0l0,0H66.3l0,0c-1.2,0-2.2-1-2.2-2.2l0,0
	v-64.1c0-1.2,1-2.2,2.2-2.2l0,0H193.9L193.9,360.6L193.9,360.6z"/>
<path class="st1" d="M191.3,358c1.2,0,2.2,1,2.2,2.2l0,0v64.1l0,0c0,1.2-1,2.2-2.2,2.2l0,0l0,0H63.7l0,0c-1.2,0-2.2-1-2.2-2.2l0,0
	v-64.1c0-1.2,1-2.2,2.2-2.2l0,0H191.3L191.3,358L191.3,358z"/>
<path class="st2" d="M191.3,358c1.2,0,2.2,1,2.2,2.2l0,0v64.1l0,0c0,1.2-1,2.2-2.2,2.2l0,0l0,0H63.7l0,0c-1.2,0-2.2-1-2.2-2.2l0,0
	v-64.1c0-1.2,1-2.2,2.2-2.2l0,0H191.3L191.3,358L191.3,358z"/>
<text transform="matrix(0.85 0 0 1 97.9619 375.3098)" class="st3 st5">«DataType»</text>
<text transform="matrix(0.85 0 0 1 76.2588 390.0285)" class="st7 st5">gen::stringAttribute</text>
<line class="st2" x1="61.5" y1="397" x2="193.5" y2="397"/>
<text transform="matrix(0.85 0 0 1 65.8369 412.5598)" class="st3 st5">+ value: xs::string</text>
<path class="st0" d="M504.7,360.6c1.2,0,2.2,1,2.2,2.2l0,0v64.1l0,0c0,1.2-1,2.2-2.2,2.2l0,0l0,0H396.2l0,0c-1.2,0-2.2-1-2.2-2.2
	l0,0v-64.1c0-1.2,1-2.2,2.2-2.2l0,0H504.7L504.7,360.6L504.7,360.6z"/>
<path class="st1" d="M502.1,358c1.2,0,2.2,1,2.2,2.2l0,0v64.1l0,0c0,1.2-1,2.2-2.2,2.2l0,0l0,0H393.6l0,0c-1.2,0-2.2-1-2.2-2.2l0,0
	v-64.1c0-1.2,1-2.2,2.2-2.2l0,0H502.1L502.1,358L502.1,358z"/>
<path class="st2" d="M502.1,358c1.2,0,2.2,1,2.2,2.2l0,0v64.1l0,0c0,1.2-1,2.2-2.2,2.2l0,0l0,0H393.6l0,0c-1.2,0-2.2-1-2.2-2.2l0,0
	v-64.1c0-1.2,1-2.2,2.2-2.2l0,0H502.1L502.1,358L502.1,358z"/>
<text transform="matrix(0.85 0 0 1 418.3057 375.3098)" class="st3 st5">«DataType»</text>
<text transform="matrix(0.85 0 0 1 404.3994 390.0285)" class="st7 st5">gen::uriAttribute</text>
<line class="st2" x1="391.4" y1="397" x2="504.2" y2="397"/>
<text transform="matrix(0.85 0 0 1 395.7275 412.5598)" class="st3 st5">+ value: xs::anyURI</text>
<path class="st0" d="M260.7,455.9c1.2,0,2.2,1,2.2,2.2l0,0v64.1l0,0c0,1.2-1,2.2-2.2,2.2l0,0l0,0H153.1l0,0c-1.2,0-2.2-1-2.2-2.2
	l0,0V458c0-1.2,1-2.2,2.2-2.2l0,0h107.6V455.9L260.7,455.9z"/>
<path class="st1" d="M258.1,453.3c1.2,0,2.2,1,2.2,2.2l0,0v64.1l0,0c0,1.2-1,2.2-2.2,2.2l0,0l0,0H150.5l0,0c-1.2,0-2.2-1-2.2-2.2
	l0,0v-64.1c0-1.2,1-2.2,2.2-2.2l0,0L258.1,453.3L258.1,453.3L258.1,453.3z"/>
<path class="st2" d="M258.1,453.3c1.2,0,2.2,1,2.2,2.2l0,0v64.1l0,0c0,1.2-1,2.2-2.2,2.2l0,0l0,0H150.5l0,0c-1.2,0-2.2-1-2.2-2.2
	l0,0v-64.1c0-1.2,1-2.2,2.2-2.2l0,0L258.1,453.3L258.1,453.3L258.1,453.3z"/>
<text transform="matrix(0.85 0 0 1 174.3525 470.591)" class="st3 st5">«DataType»</text>
<text transform="matrix(0.85 0 0 1 161.3369 485.3098)" class="st7 st5">gen::intAttribute</text>
<line class="st2" x1="148.3" y1="492.2" x2="260.3" y2="492.2"/>
<text transform="matrix(0.85 0 0 1 152.6494 507.8254)" class="st3 st5">+ value: xs::integer</text>
<path class="st0" d="M345.8,360.6c1.2,0,2.2,1,2.2,2.2l0,0v64.1l0,0c0,1.2-1,2.2-2.2,2.2l0,0l0,0H231.2l0,0c-1.2,0-2.2-1-2.2-2.2
	l0,0v-64.1c0-1.2,1-2.2,2.2-2.2l0,0H345.8L345.8,360.6L345.8,360.6z"/>
<path class="st1" d="M343.2,358c1.2,0,2.2,1,2.2,2.2l0,0v64.1l0,0c0,1.2-1,2.2-2.2,2.2l0,0l0,0H228.6l0,0c-1.2,0-2.2-1-2.2-2.2l0,0
	v-64.1c0-1.2,1-2.2,2.2-2.2l0,0H343.2L343.2,358L343.2,358z"/>
<path class="st2" d="M343.2,358c1.2,0,2.2,1,2.2,2.2l0,0v64.1l0,0c0,1.2-1,2.2-2.2,2.2l0,0l0,0H228.6l0,0c-1.2,0-2.2-1-2.2-2.2l0,0
	v-64.1c0-1.2,1-2.2,2.2-2.2l0,0H343.2L343.2,358L343.2,358z"/>
<text transform="matrix(0.85 0 0 1 255.9619 375.3098)" class="st3 st5">«DataType»</text>
<text transform="matrix(0.85 0 0 1 231.6494 390.0285)" class="st7 st5">gen::doubleAttribute</text>
<line class="st2" x1="226.4" y1="397" x2="345.4" y2="397"/>
<text transform="matrix(0.85 0 0 1 230.7744 412.5598)" class="st3 st5">+ value: xs::double</text>
<path class="st0" d="M783.3,213.3c1.2,0,2.2,1,2.2,2.2l0,0v64.1l0,0c0,1.2-1,2.2-2.2,2.2l0,0l0,0H595.8l0,0c-1.2,0-2.2-1-2.2-2.2
	l0,0v-64.1c0-1.2,1-2.2,2.2-2.2l0,0H783.3L783.3,213.3L783.3,213.3z"/>
<path class="st1" d="M780.7,210.7c1.2,0,2.2,1,2.2,2.2l0,0V277l0,0c0,1.2-1,2.2-2.2,2.2l0,0l0,0H593.2l0,0c-1.2,0-2.2-1-2.2-2.2l0,0
	v-64.1c0-1.2,1-2.2,2.2-2.2l0,0H780.7L780.7,210.7L780.7,210.7z"/>
<path class="st2" d="M780.7,210.7c1.2,0,2.2,1,2.2,2.2l0,0V277l0,0c0,1.2-1,2.2-2.2,2.2l0,0l0,0H593.2l0,0c-1.2,0-2.2-1-2.2-2.2l0,0
	v-64.1c0-1.2,1-2.2,2.2-2.2l0,0H780.7L780.7,210.7L780.7,210.7z"/>
<text transform="matrix(0.85 0 0 1 657.0254 228.0598)" class="st3 st5">«DataType»</text>
<text transform="matrix(0.85 0 0 1 623.166 242.7941)" class="st7 st5">gen::genericAttributeSet</text>
<line class="st2" x1="591.1" y1="249.7" x2="782.9" y2="249.7"/>
<text transform="matrix(0.85 0 0 1 595.4004 265.3098)" class="st3 st5">+ codeSpace: gml::CodeType [0..1]</text>
<path class="st0" d="M613.2,455.9c1.2,0,2.2,1,2.2,2.2l0,0v64.1l0,0c0,1.2-1,2.2-2.2,2.2l0,0l0,0H465.6l0,0c-1.2,0-2.2-1-2.2-2.2
	l0,0V458c0-1.2,1-2.2,2.2-2.2l0,0h147.6V455.9L613.2,455.9z"/>
<path class="st1" d="M610.6,453.3c1.2,0,2.2,1,2.2,2.2l0,0v64.1l0,0c0,1.2-1,2.2-2.2,2.2l0,0l0,0H463l0,0c-1.2,0-2.2-1-2.2-2.2l0,0
	v-64.1c0-1.2,1-2.2,2.2-2.2l0,0L610.6,453.3L610.6,453.3L610.6,453.3z"/>
<path class="st2" d="M610.6,453.3c1.2,0,2.2,1,2.2,2.2l0,0v64.1l0,0c0,1.2-1,2.2-2.2,2.2l0,0l0,0H463l0,0c-1.2,0-2.2-1-2.2-2.2l0,0
	v-64.1c0-1.2,1-2.2,2.2-2.2l0,0L610.6,453.3L610.6,453.3L610.6,453.3z"/>
<text transform="matrix(0.85 0 0 1 506.8379 470.591)" class="st3 st5">«DataType»</text>
<text transform="matrix(0.85 0 0 1 478.1973 485.3098)" class="st7 st5">gen::measureAttribute</text>
<line class="st2" x1="460.8" y1="492.2" x2="612.8" y2="492.2"/>
<text transform="matrix(0.85 0 0 1 465.1816 507.8254)" class="st3 st5">+ value: gml::MeasureType</text>
<path class="st8" d="M740.4,28.9c1.4,0,2.6,1.2,2.6,2.6l0,0V112l0,0c0,1.4-1.2,2.6-2.6,2.6l0,0l0,0H585l0,0c-1.4,0-2.6-1.2-2.6-2.6
	V31.4c0-1.4,1.2-2.6,2.6-2.6l0,0h155.4V28.9L740.4,28.9z"/>
<path class="st9" d="M740.4,28.9c1.4,0,2.6,1.2,2.6,2.6l0,0V112l0,0c0,1.4-1.2,2.6-2.6,2.6l0,0l0,0H585l0,0c-1.4,0-2.6-1.2-2.6-2.6
	V31.4c0-1.4,1.2-2.6,2.6-2.6l0,0h155.4V28.9L740.4,28.9z"/>
<path class="st10" d="M602.8,54.8c1.2,0,2.2,1,2.2,2.2l0,0v9.5l0,0c0,1.2-1,2.2-2.2,2.2l0,0l0,0h-9.5l0,0c-1.2,0-2.2-1-2.2-2.2l0,0
	V57c0-1.2,1-2.2,2.2-2.2l0,0H602.8L602.8,54.8L602.8,54.8z"/>
<path class="st11" d="M602.8,54.8c1.2,0,2.2,1,2.2,2.2l0,0v9.5l0,0c0,1.2-1,2.2-2.2,2.2l0,0l0,0h-9.5l0,0c-1.2,0-2.2-1-2.2-2.2l0,0
	V57c0-1.2,1-2.2,2.2-2.2l0,0H602.8L602.8,54.8L602.8,54.8z"/>
<text transform="matrix(0.85 0 0 1 610.1504 66.9504)" class="st12 st3 st5">GMLに定義されたクラス</text>
<path class="st1" d="M602.8,71.3c1.2,0,2.2,1,2.2,2.2l0,0V83l0,0c0,1.2-1,2.2-2.2,2.2l0,0l0,0h-9.5l0,0c-1.2,0-2.2-1-2.2-2.2l0,0
	v-9.5c0-1.2,1-2.2,2.2-2.2l0,0H602.8L602.8,71.3L602.8,71.3z"/>
<path class="st11" d="M602.8,71.3c1.2,0,2.2,1,2.2,2.2l0,0V83l0,0c0,1.2-1,2.2-2.2,2.2l0,0l0,0h-9.5l0,0c-1.2,0-2.2-1-2.2-2.2l0,0
	v-9.5c0-1.2,1-2.2,2.2-2.2l0,0H602.8L602.8,71.3L602.8,71.3z"/>
<text transform="matrix(0.85 0 0 1 610.1504 83.4191)" class="st12 st3 st5">CityGMLに定義されたクラス</text>
<path class="st13" d="M602.8,87.7c1.2,0,2.2,1,2.2,2.2l0,0v9.5l0,0c0,1.2-1,2.2-2.2,2.2l0,0l0,0h-9.5l0,0c-1.2,0-2.2-1-2.2-2.2l0,0
	v-9.5c0-1.2,1-2.2,2.2-2.2l0,0H602.8L602.8,87.7L602.8,87.7z"/>
<path class="st11" d="M602.8,87.7c1.2,0,2.2,1,2.2,2.2l0,0v9.5l0,0c0,1.2-1,2.2-2.2,2.2l0,0l0,0h-9.5l0,0c-1.2,0-2.2-1-2.2-2.2l0,0
	v-9.5c0-1.2,1-2.2,2.2-2.2l0,0H602.8L602.8,87.7L602.8,87.7z"/>
<text transform="matrix(0.85 0 0 1 610.1504 99.8723)" class="st12 st3 st5">i-URに定義されたクラス</text>
<text transform="matrix(0.85 0 0 1 649.2129 47.0285)" class="st12 st14 st15">凡例</text>
<text transform="matrix(0.85 0 0 1 649.2129 47.0285)" class="st16 st14 st15">凡例</text>
<line class="st17" x1="536.4" y1="452.4" x2="536.4" y2="323.3"/>
<line class="st17" x1="536.4" y1="323.3" x2="365.3" y2="323.3"/>
<line class="st17" x1="365.3" y1="323.3" x2="365.3" y2="280.9"/>
<polyline class="st18" points="370.6,294.8 360.1,294.8 365.3,280.9 370.6,294.8 "/>
<polygon class="st17" points="370.6,294.8 360.1,294.8 365.3,280.9 "/>
<line class="st17" x1="590.2" y1="261" x2="436.5" y2="261"/>
<polyline class="st18" points="450.4,255.8 450.4,266.2 436.5,261 450.4,255.8 "/>
<polygon class="st17" points="450.4,255.8 450.4,266.2 436.5,261 "/>
<line class="st17" x1="286.4" y1="357.1" x2="286.4" y2="323.3"/>
<line class="st17" x1="204.7" y1="452.4" x2="204.7" y2="323.3"/>
<line class="st17" x1="447.8" y1="357.1" x2="447.8" y2="323.3"/>
<line class="st17" x1="127.5" y1="357.1" x2="127.5" y2="323.3"/>
<line class="st17" x1="127.5" y1="323.3" x2="365.3" y2="323.3"/>
<line class="st17" x1="365.3" y1="452.4" x2="365.3" y2="323.3"/>
<line class="st17" x1="436.5" y1="229.8" x2="590.2" y2="229.8"/>
<polyline class="st19" points="581.5,234.1 590.2,229.8 581.5,225.5 572.8,229.8 581.5,234.1 "/>
<polygon class="st17" points="581.5,234.1 590.2,229.8 581.5,225.5 572.8,229.8 "/>
<path class="st17" d="M436.5,229.8l13,5.2 M436.5,229.8l13-5.2"/>
<line class="st17" x1="366.2" y1="209.9" x2="366.2" y2="152.7"/>
<polyline class="st19" points="370.6,161.4 366.2,152.7 361.9,161.4 366.2,170 370.6,161.4 "/>
<polygon class="st17" points="370.6,161.4 366.2,152.7 361.9,161.4 366.2,170 "/>
<path class="st17" d="M366.2,209.9l5.2-13 M366.2,209.9l-5.2-13"/>
<text transform="matrix(0.85 0 0 1 -7768.8726 -7910.249)" class="st20" style="font-size:4.7638px;">t</text>
<text transform="matrix(0.85 0 0 1 452.1504 222.8723)" class="st20 st21">+_genericAttribute</text>
<text transform="matrix(0.85 0 0 1 463.4316 246.2473)" class="st20 st21">1..*</text>
<text transform="matrix(0.85 0 0 1 -7768.8726 -7910.249)" class="st20" style="font-size:4.7638px;">t</text>
<text transform="matrix(0.85 0 0 1 279.3994 202.9504)" class="st20 st21">+_genericAttribute</text>
<text transform="matrix(0.85 0 0 1 381.8369 202.0598)" class="st20 st21">0..*</text>
</svg>
