<?xml version="1.0" encoding="utf-8"?>
<!-- Generator: Adobe Illustrator 27.9.0, SVG Export Plug-In . SVG Version: 6.00 Build 0)  -->
<svg version="1.1" id="レイヤー_1" xmlns="http://www.w3.org/2000/svg" xmlns:xlink="http://www.w3.org/1999/xlink" x="0px"
	 y="0px" viewBox="0 0 912.8 841.9" style="enable-background:new 0 0 912.8 841.9;" xml:space="preserve">
<style type="text/css">
	.st0{fill-rule:evenodd;clip-rule:evenodd;fill:#F0F0F0;}
	.st1{fill:none;stroke:#D7D7D7;stroke-width:0.5143;stroke-linecap:square;stroke-miterlimit:10;}
	.st2{fill-rule:evenodd;clip-rule:evenodd;fill:#A0FFC0;}
	.st3{fill:none;stroke:#000000;stroke-width:0.5143;stroke-linecap:square;stroke-miterlimit:10;}
	.st4{fill:#003060;}
	.st5{font-family:'YuGothicUI-Regular';}
	.st6{font-size:6.6857px;}
	.st7{fill-rule:evenodd;clip-rule:evenodd;fill:#FFFFCC;}
	.st8{fill-rule:evenodd;clip-rule:evenodd;fill:#FFCCFF;}
	.st9{font-family:'YuGothicUI-Bold';}
	.st10{font-size:8.2286px;}
	.st11{fill:none;stroke:#000000;stroke-width:1.0286;stroke-linecap:round;stroke-linejoin:bevel;stroke-miterlimit:10;}
	.st12{font-size:7.0392px;}
	.st13{fill:none;stroke:#000000;stroke-width:0.191;stroke-miterlimit:10;}
	.st14{font-size:6.1714px;}
	.st15{fill-rule:evenodd;clip-rule:evenodd;}
	.st16{fill-rule:evenodd;clip-rule:evenodd;fill:#FFFFFF;}
</style>
<path class="st0" d="M168.6,126c0.8,0,1.5,0.7,1.5,1.5l0,0v45.3l0,0c0,0.9-0.7,1.5-1.5,1.5l0,0l0,0H77.7l0,0c-0.8,0-1.5-0.7-1.5-1.5
	l0,0v-45.3c0-0.9,0.7-1.5,1.5-1.5l0,0H168.6L168.6,126L168.6,126z"/>
<path class="st1" d="M168.6,126c0.8,0,1.5,0.7,1.5,1.5l0,0v45.3l0,0c0,0.9-0.7,1.5-1.5,1.5l0,0l0,0H77.7l0,0c-0.8,0-1.5-0.7-1.5-1.5
	l0,0v-45.3c0-0.9,0.7-1.5,1.5-1.5l0,0H168.6L168.6,126L168.6,126z"/>
<polygon class="st2" points="81.3,150.1 89.9,150.1 89.9,141.4 81.3,141.4 "/>
<polygon class="st3" points="81.3,150.1 89.9,150.1 89.9,141.4 81.3,141.4 "/>
<text transform="matrix(0.85 0 0 1 92.4199 148.6001)" class="st4 st5 st6">GMLで定義されたクラス</text>
<polygon class="st7" points="81.3,159.9 89.9,159.9 89.9,151.2 81.3,151.2 "/>
<polygon class="st3" points="81.3,159.9 89.9,159.9 89.9,151.2 81.3,151.2 "/>
<text transform="matrix(0.85 0 0 1 92.4199 158.3735)" class="st4 st5 st6">CityGMLで定義されたクラス</text>
<polygon class="st8" points="81.3,169.7 89.9,169.7 89.9,160.9 81.3,160.9 "/>
<polygon class="st3" points="81.3,169.7 89.9,169.7 89.9,160.9 81.3,160.9 "/>
<text transform="matrix(0.85 0 0 1 92.4199 168.147)" class="st4 st5 st6">i-URで定義されたクラス</text>
<text transform="matrix(0.85 0 0 1 117.3105 139.0327)" class="st4 st9 st10">凡例</text>
<polygon class="st8" points="152.4,651.1 328.1,651.1 328.1,275.6 152.4,275.6 "/>
<polygon class="st11" points="152.4,651.1 328.1,651.1 328.1,275.6 152.4,275.6 "/>
<text transform="matrix(0.85 0 -0.3127 0.9499 274.6938 284.3788)" class="st5 st12">BuildingAttribute</text>
<text transform="matrix(0.85 0 0 1 222.4434 296.1938)" class="st5 st6">«DataType»</text>
<text transform="matrix(0.85 0 0 1 198.0605 304.9438)" class="st9 st6">uro::BuildingDetailAttribute</text>
<line class="st11" x1="152.4" y1="309.1" x2="327.6" y2="309.1"/>
<text transform="matrix(0.85 0 0 1 154.8887 318.3188)" class="st5 st6">+ serialNumberOfBuildingCertification: xs::string [0..1]</text>
<text transform="matrix(0.85 0 0 1 154.8887 327.0532)" class="st5 st6">+ siteArea: gml::MeasureType [0..1]</text>
<text transform="matrix(0.85 0 0 1 154.8887 335.8032)" class="st5 st6">+ totalFloorArea: gml:MeasureType [0..1]</text>
<text transform="matrix(0.85 0 0 1 154.8887 344.5454)" class="st5 st6">+ buildingFootprintArea: gml::MeasureType [0..1]</text>
<text transform="matrix(0.85 0 0 1 154.8887 353.2876)" class="st5 st6">+ buildingRoofEdgeArea: gml::MeasureType [0..1]</text>
<text transform="matrix(0.85 0 0 1 154.8887 362.0298)" class="st5 st6">+ developmentArea: gml::MeasureType [0..1]</text>
<text transform="matrix(0.85 0 0 1 154.8887 370.772)" class="st5 st6">+ buildingStructureType: gml::CodeType [0..1]</text>
<text transform="matrix(0.85 0 0 1 154.8887 379.522)" class="st5 st6">+ buildingStructureOrgType: gml::CodeType [0..1]</text>
<text transform="matrix(0.85 0 0 1 154.8887 388.2559)" class="st5 st6">+ fireproofStructureType: gml::CodeType [0..1]</text>
<text transform="matrix(0.85 0 0 1 154.8887 396.998)" class="st5 st6">+ implementingBody: xs::string [0..1]</text>
<text transform="matrix(0.85 0 0 1 154.8887 405.748)" class="st5 st6">+ urbanPlanType: gml::CodeType [0..1]</text>
<text transform="matrix(0.85 0 0 1 154.8887 414.4902)" class="st5 st6">+ areaClassificationType: gml::CodeType [0..1]</text>
<text transform="matrix(0.85 0 0 1 154.8887 423.2246)" class="st5 st6">+ districtsAndZonesType: gml::CodeType [0..*]</text>
<text transform="matrix(0.85 0 0 1 154.8887 431.9746)" class="st5 st6">+ landUseType: gml::CodeType [0..1]</text>
<text transform="matrix(0.85 0 0 1 154.8887 440.7168)" class="st5 st6">+ reference: xs::string [0..1]</text>
<text transform="matrix(0.85 0 0 1 154.8887 449.459)" class="st5 st6">+ majorUsage: gml::CodeType [0..1]</text>
<text transform="matrix(0.85 0 0 1 154.8887 458.2012)" class="st5 st6">+ majorUsage2: gml::CodeType [0..1]</text>
<text transform="matrix(0.85 0 0 1 154.8887 466.9434)" class="st5 st6">+ orgUsage: gml::CodeType [0..1]</text>
<text transform="matrix(0.85 0 0 1 154.8887 475.6934)" class="st5 st6">+ orgUsage2: gml::CodeType [0..1]</text>
<text transform="matrix(0.85 0 0 1 154.8887 484.4277)" class="st5 st6">+ detailedUsage: gml::CodeType [0..1]</text>
<text transform="matrix(0.85 0 0 1 154.8887 493.1699)" class="st5 st6">+ detailedUsage2: gml::CodeType [0..1]</text>
<text transform="matrix(0.85 0 0 1 154.8887 501.9199)" class="st5 st6">+ detailedUsage3: gml::CodeType [0..1]</text>
<text transform="matrix(0.85 0 0 1 154.8887 510.6621)" class="st5 st6">+ groundFloorUsage: gml::CodeType [0..1]</text>
<text transform="matrix(0.85 0 0 1 154.8887 519.3965)" class="st5 st6">+ secondFloorUsage: gml::CodeType [0..1]</text>
<text transform="matrix(0.85 0 0 1 154.8887 528.1465)" class="st5 st6">+ thirdFloorUsage: gml::CodeType [0..1]</text>
<text transform="matrix(0.85 0 0 1 154.8887 536.8887)" class="st5 st6">+ basementUsage: gml::CodeType [0..1]</text>
<text transform="matrix(0.85 0 0 1 154.8887 545.6309)" class="st5 st6">+ basementFirstUsage: gml::CodeType [0..1]</text>
<text transform="matrix(0.85 0 0 1 154.8887 554.373)" class="st5 st6">+ basementSecondUsage: gml::CodeType [0..1]</text>
<text transform="matrix(0.85 0 0 1 154.8887 563.1152)" class="st5 st6">+ vacancy: gml::CodeType [0..1]</text>
<text transform="matrix(0.85 0 0 1 154.8887 571.8652)" class="st5 st6">+ buildingCoverageRate: xs::double [0..1]</text>
<text transform="matrix(0.85 0 0 1 154.8887 580.5996)" class="st5 st6">+ floorAreaRate: xs::double [0..1]</text>
<text transform="matrix(0.85 0 0 1 154.8887 589.3418)" class="st5 st6">+ specifiedBuildingCoverageRate: xs::double [0..1]</text>
<text transform="matrix(0.85 0 0 1 154.8887 598.0918)" class="st5 st6">+ specifiedFloorAreaRate: xs::double [0..1]</text>
<text transform="matrix(0.85 0 0 1 154.8887 606.834)" class="st5 st6">+ standardFloorAreaRate: xs::double [0..1]</text>
<text transform="matrix(0.85 0 0 1 154.8887 615.5684)" class="st5 st6">+ buildingHeight: gml::LengthType [0..1]</text>
<text transform="matrix(0.85 0 0 1 154.8887 624.3184)" class="st5 st6">+ eaveHeight: gml::LengthType [0..1]</text>
<text transform="matrix(0.85 0 0 1 154.8887 633.0605)" class="st5 st6">+ note: xs::string [0..1]</text>
<text transform="matrix(0.85 0 0 1 154.8887 641.8027)" class="st5 st6">+ surveyYear: xs::gYear</text>
<polygon class="st8" points="482.5,552.8 589.1,552.8 589.1,491.1 482.5,491.1 "/>
<polygon class="st11" points="482.5,552.8 589.1,552.8 589.1,491.1 482.5,491.1 "/>
<text transform="matrix(0.85 0 -0.3127 0.9499 536.4689 499.8562)" class="st5 st12">BuildingAttribute</text>
<text transform="matrix(0.85 0 0 1 518.0215 511.6855)" class="st5 st6">«DataType»</text>
<g>
	<text transform="matrix(0.85 0 -0.3127 0.9499 528.6932 520.4339)" class="st5 st12">u</text>
	<text transform="matrix(0.85 0 -0.3127 0.9499 528.6932 520.4339)" class="st13 st5 st12">u</text>
	<text transform="matrix(0.85 0 -0.3127 0.9499 532.7274 520.4339)" class="st5 st12">r</text>
	<text transform="matrix(0.85 0 -0.3127 0.9499 532.7274 520.4339)" class="st13 st5 st12">r</text>
	<text transform="matrix(0.85 0 -0.3127 0.9499 535.2596 520.4339)" class="st5 st12">o</text>
	<text transform="matrix(0.85 0 -0.3127 0.9499 535.2596 520.4339)" class="st13 st5 st12">o</text>
	<text transform="matrix(0.85 0 -0.3127 0.9499 539.3865 520.4339)" class="st5 st12">:</text>
	<text transform="matrix(0.85 0 -0.3127 0.9499 539.3865 520.4339)" class="st13 st5 st12">:</text>
	<text transform="matrix(0.85 0 -0.3127 0.9499 540.8875 520.4339)" class="st5 st12">:</text>
	<text transform="matrix(0.85 0 -0.3127 0.9499 540.8875 520.4339)" class="st13 st5 st12">:</text>
</g>
<g>
	<text transform="matrix(0.85 0 -0.3127 0.9499 491.107 529.1682)" class="st5 st12">B</text>
	<text transform="matrix(0.85 0 -0.3127 0.9499 491.107 529.1682)" class="st13 st5 st12">B</text>
	<text transform="matrix(0.85 0 -0.3127 0.9499 495.1412 529.1682)" class="st5 st12">u</text>
	<text transform="matrix(0.85 0 -0.3127 0.9499 495.1412 529.1682)" class="st13 st5 st12">u</text>
	<text transform="matrix(0.85 0 -0.3127 0.9499 499.2681 529.1682)" class="st5 st12">il</text>
	<text transform="matrix(0.85 0 -0.3127 0.9499 499.2681 529.1682)" class="st13 st5 st12">il</text>
	<text transform="matrix(0.85 0 -0.3127 0.9499 502.2701 529.1682)" class="st5 st12">d</text>
	<text transform="matrix(0.85 0 -0.3127 0.9499 502.2701 529.1682)" class="st13 st5 st12">d</text>
	<text transform="matrix(0.85 0 -0.3127 0.9499 506.3033 529.1682)" class="st5 st12">i</text>
	<text transform="matrix(0.85 0 -0.3127 0.9499 506.3033 529.1682)" class="st13 st5 st12">i</text>
	<text transform="matrix(0.85 0 -0.3127 0.9499 507.897 529.1682)" class="st5 st12">n</text>
	<text transform="matrix(0.85 0 -0.3127 0.9499 507.897 529.1682)" class="st13 st5 st12">n</text>
	<text transform="matrix(0.85 0 -0.3127 0.9499 511.9312 529.1682)" class="st5 st12">g</text>
	<text transform="matrix(0.85 0 -0.3127 0.9499 511.9312 529.1682)" class="st13 st5 st12">g</text>
	<text transform="matrix(0.85 0 -0.3127 0.9499 515.9644 529.1682)" class="st5 st12">D</text>
	<text transform="matrix(0.85 0 -0.3127 0.9499 515.9644 529.1682)" class="st13 st5 st12">D</text>
	<text transform="matrix(0.85 0 -0.3127 0.9499 520.5611 529.1682)" class="st5 st12">i</text>
	<text transform="matrix(0.85 0 -0.3127 0.9499 520.5611 529.1682)" class="st13 st5 st12">i</text>
	<text transform="matrix(0.85 0 -0.3127 0.9499 522.0611 529.1682)" class="st5 st12">s</text>
	<text transform="matrix(0.85 0 -0.3127 0.9499 522.0611 529.1682)" class="st13 st5 st12">s</text>
	<text transform="matrix(0.85 0 -0.3127 0.9499 525.1568 529.1682)" class="st5 st12">a</text>
	<text transform="matrix(0.85 0 -0.3127 0.9499 525.1568 529.1682)" class="st13 st5 st12">a</text>
	<text transform="matrix(0.85 0 -0.3127 0.9499 528.7213 529.1682)" class="st5 st12">s</text>
	<text transform="matrix(0.85 0 -0.3127 0.9499 528.7213 529.1682)" class="st13 st5 st12">s</text>
	<text transform="matrix(0.85 0 -0.3127 0.9499 531.7232 529.1682)" class="st5 st12">t</text>
	<text transform="matrix(0.85 0 -0.3127 0.9499 531.7232 529.1682)" class="st13 st5 st12">t</text>
	<text transform="matrix(0.85 0 -0.3127 0.9499 534.2554 529.1682)" class="st5 st12">e</text>
	<text transform="matrix(0.85 0 -0.3127 0.9499 534.2554 529.1682)" class="st13 st5 st12">e</text>
	<text transform="matrix(0.85 0 -0.3127 0.9499 537.8199 529.1682)" class="st5 st12">r</text>
	<text transform="matrix(0.85 0 -0.3127 0.9499 537.8199 529.1682)" class="st13 st5 st12">r</text>
	<text transform="matrix(0.85 0 -0.3127 0.9499 540.3521 529.1682)" class="st5 st12">R</text>
	<text transform="matrix(0.85 0 -0.3127 0.9499 540.3521 529.1682)" class="st13 st5 st12">R</text>
	<text transform="matrix(0.85 0 -0.3127 0.9499 544.3853 529.1682)" class="st5 st12">i</text>
	<text transform="matrix(0.85 0 -0.3127 0.9499 544.3853 529.1682)" class="st13 st5 st12">i</text>
	<text transform="matrix(0.85 0 -0.3127 0.9499 545.98 529.1682)" class="st5 st12">s</text>
	<text transform="matrix(0.85 0 -0.3127 0.9499 545.98 529.1682)" class="st13 st5 st12">s</text>
	<text transform="matrix(0.85 0 -0.3127 0.9499 548.982 529.1682)" class="st5 st12">k</text>
	<text transform="matrix(0.85 0 -0.3127 0.9499 548.982 529.1682)" class="st13 st5 st12">k</text>
	<text transform="matrix(0.85 0 -0.3127 0.9499 552.5464 529.1682)" class="st5 st12">A</text>
	<text transform="matrix(0.85 0 -0.3127 0.9499 552.5464 529.1682)" class="st13 st5 st12">A</text>
	<text transform="matrix(0.85 0 -0.3127 0.9499 557.1422 529.1682)" class="st5 st12">tt</text>
	<text transform="matrix(0.85 0 -0.3127 0.9499 557.1422 529.1682)" class="st13 st5 st12">tt</text>
	<text transform="matrix(0.85 0 -0.3127 0.9499 562.2076 529.1682)" class="st5 st12">r</text>
	<text transform="matrix(0.85 0 -0.3127 0.9499 562.2076 529.1682)" class="st13 st5 st12">r</text>
	<text transform="matrix(0.85 0 -0.3127 0.9499 564.7408 529.1682)" class="st5 st12">i</text>
	<text transform="matrix(0.85 0 -0.3127 0.9499 564.7408 529.1682)" class="st13 st5 st12">i</text>
	<text transform="matrix(0.85 0 -0.3127 0.9499 566.2408 529.1682)" class="st5 st12">b</text>
	<text transform="matrix(0.85 0 -0.3127 0.9499 566.2408 529.1682)" class="st13 st5 st12">b</text>
	<text transform="matrix(0.85 0 -0.3127 0.9499 570.274 529.1682)" class="st5 st12">u</text>
	<text transform="matrix(0.85 0 -0.3127 0.9499 570.274 529.1682)" class="st13 st5 st12">u</text>
	<text transform="matrix(0.85 0 -0.3127 0.9499 574.3082 529.1682)" class="st5 st12">t</text>
	<text transform="matrix(0.85 0 -0.3127 0.9499 574.3082 529.1682)" class="st13 st5 st12">t</text>
	<text transform="matrix(0.85 0 -0.3127 0.9499 576.9341 529.1682)" class="st5 st12">e</text>
	<text transform="matrix(0.85 0 -0.3127 0.9499 576.9341 529.1682)" class="st13 st5 st12">e</text>
</g>
<line class="st11" x1="482.5" y1="533.3" x2="588.6" y2="533.3"/>
<text transform="matrix(0.85 0 0 1 485.0059 542.5449)" class="st5 st6">+ description: gml::CodeType</text>
<polygon class="st8" points="538.3,640.3 663.8,640.3 663.8,599.1 538.3,599.1 "/>
<polygon class="st11" points="538.3,640.3 663.8,640.3 663.8,599.1 538.3,599.1 "/>
<text transform="matrix(0.85 0 0 1 583.5371 609.3965)" class="st5 st6">«DataType»</text>
<text transform="matrix(0.85 0 0 1 546.9746 618.1465)" class="st9 st6">uro::BuildingLandSlideRiskAttribute</text>
<line class="st11" x1="538.3" y1="622.3" x2="663.3" y2="622.3"/>
<text transform="matrix(0.85 0 0 1 540.8809 631.5215)" class="st5 st6">+ areaType: gml::CodeType</text>
<polygon class="st8" points="431.7,732.3 565.8,732.3 565.8,701.5 431.7,701.5 "/>
<polygon class="st11" points="431.7,732.3 565.8,732.3 565.8,701.5 431.7,701.5 "/>
<text transform="matrix(0.85 0 0 1 480.9434 711.7402)" class="st5 st6">«DataType»</text>
<text transform="matrix(0.85 0 0 1 446.4121 720.4824)" class="st9 st6">uro::BuildingTsunamiRiskAttribute</text>
<polygon class="st8" points="294.6,758 423.6,758 423.6,701.5 294.6,701.5 "/>
<polygon class="st11" points="294.6,758 423.6,758 423.6,701.5 294.6,701.5 "/>
<text transform="matrix(0.85 0 0 1 341.2793 711.7402)" class="st5 st6">«DataType»</text>
<g>
	<text transform="matrix(0.85 0 0 1 298.623 720.4824)" class="st9 st6">u</text>
	<text transform="matrix(0.85 0 0 1 302.6719 720.4824)" class="st9 st6">r</text>
	<text transform="matrix(0.85 0 0 1 305.2393 720.4824)" class="st9 st6">o</text>
	<text transform="matrix(0.85 0 0 1 309.2881 720.4824)" class="st9 st6">::</text>
	<text transform="matrix(0.85 0 0 1 312.3496 720.4824)" class="st9 st6">B</text>
	<text transform="matrix(0.85 0 0 1 316.3975 720.4824)" class="st9 st6">u</text>
	<text transform="matrix(0.85 0 0 1 320.4463 720.4824)" class="st9 st6">il</text>
	<text transform="matrix(0.85 0 0 1 323.5078 720.4824)" class="st9 st6">d</text>
	<text transform="matrix(0.85 0 0 1 327.5566 720.4824)" class="st9 st6">i</text>
	<text transform="matrix(0.85 0 0 1 329.0381 720.4824)" class="st9 st6">n</text>
	<text transform="matrix(0.85 0 0 1 333.1855 720.4824)" class="st9 st6">g</text>
	<text transform="matrix(0.85 0 0 1 337.2344 720.4824)" class="st9 st6">R</text>
	<text transform="matrix(0.85 0 0 1 341.2832 720.4824)" class="st9 st6">i</text>
	<text transform="matrix(0.85 0 0 1 342.7637 720.4824)" class="st9 st6">v</text>
	<text transform="matrix(0.85 0 0 1 346.3193 720.4824)" class="st9 st6">e</text>
	<text transform="matrix(0.85 0 0 1 349.874 720.4824)" class="st9 st6">r</text>
	<text transform="matrix(0.85 0 0 1 352.4414 720.4824)" class="st9 st6">F</text>
	<text transform="matrix(0.85 0 0 1 355.9971 720.4824)" class="st9 st6">l</text>
	<text transform="matrix(0.85 0 0 1 357.4775 720.4824)" class="st9 st6">oo</text>
	<text transform="matrix(0.85 0 0 1 365.6738 720.4824)" class="st9 st6">d</text>
	<text transform="matrix(0.85 0 0 1 369.7227 720.4824)" class="st9 st6">i</text>
	<text transform="matrix(0.85 0 0 1 371.2041 720.4824)" class="st9 st6">n</text>
	<text transform="matrix(0.85 0 0 1 375.2529 720.4824)" class="st9 st6">g</text>
	<text transform="matrix(0.85 0 0 1 379.3018 720.4824)" class="st9 st6">R</text>
	<text transform="matrix(0.85 0 0 1 383.3506 720.4824)" class="st9 st6">i</text>
	<text transform="matrix(0.85 0 0 1 384.9307 720.4824)" class="st9 st6">s</text>
	<text transform="matrix(0.85 0 0 1 387.9912 720.4824)" class="st9 st6">k</text>
	<text transform="matrix(0.85 0 0 1 391.5469 720.4824)" class="st9 st6">A</text>
	<text transform="matrix(0.85 0 0 1 396.0889 720.4824)" class="st9 st6">tt</text>
	<text transform="matrix(0.85 0 0 1 401.125 720.4824)" class="st9 st6">r</text>
	<text transform="matrix(0.85 0 0 1 403.6934 720.4824)" class="st9 st6">i</text>
	<text transform="matrix(0.85 0 0 1 405.2725 720.4824)" class="st9 st6">b</text>
	<text transform="matrix(0.85 0 0 1 409.3213 720.4824)" class="st9 st6">u</text>
	<text transform="matrix(0.85 0 0 1 413.3701 720.4824)" class="st9 st6">t</text>
	<text transform="matrix(0.85 0 0 1 415.8389 720.4824)" class="st9 st6">e</text>
</g>
<line class="st11" x1="294.6" y1="724.6" x2="423.1" y2="724.6"/>
<text transform="matrix(0.85 0 0 1 297.0996 733.8496)" class="st5 st6">+ adminType: gml::CodeType</text>
<text transform="matrix(0.85 0 0 1 297.0996 742.5996)" class="st5 st6">+ scale: gml::CodeType</text>
<text transform="matrix(0.85 0 0 1 297.0996 751.3418)" class="st5 st6">+ duration: gml::MeasureType [0..1]</text>
<polygon class="st8" points="523.1,773.5 650.1,773.5 650.1,742.6 523.1,742.6 "/>
<polygon class="st11" points="523.1,773.5 650.1,773.5 650.1,742.6 523.1,742.6 "/>
<text transform="matrix(0.85 0 0 1 568.8027 752.8887)" class="st5 st6">«DataType»</text>
<text transform="matrix(0.85 0 0 1 533.2559 761.6309)" class="st9 st6">uro::BuildingHighTideRiskAttribute</text>
<polygon class="st8" points="614.5,732.3 756.7,732.3 756.7,701.5 614.5,701.5 "/>
<polygon class="st11" points="614.5,732.3 756.7,732.3 756.7,701.5 614.5,701.5 "/>
<text transform="matrix(0.85 0 0 1 667.8418 711.7402)" class="st5 st6">«DataType»</text>
<text transform="matrix(0.85 0 0 1 623.1543 720.4824)" class="st9 st6">uro::BuildingInlandFloodingRiskAttribute</text>
<polygon class="st8" points="548.5,383.6 689.7,383.6 689.7,275.6 548.5,275.6 "/>
<polygon class="st11" points="548.5,383.6 689.7,383.6 689.7,275.6 548.5,275.6 "/>
<text transform="matrix(0.85 0 0 1 601.3105 285.9126)" class="st5 st6">«DataType»</text>
<text transform="matrix(0.85 0 0 1 578.459 294.6548)" class="st9 st6">uro::KeyValuePairAttribute</text>
<line class="st11" x1="548.5" y1="298.8" x2="689.2" y2="298.8"/>
<text transform="matrix(0.85 0 0 1 551.0371 308.0376)" class="st5 st6">+ key: gml::CodeType</text>
<text transform="matrix(0.85 0 0 1 551.0371 316.772)" class="st5 st6">+ codeValue: gml::CodeType [0..1]</text>
<text transform="matrix(0.85 0 0 1 551.0371 325.5142)" class="st5 st6">+ stringValue: xs::string [0..1]</text>
<text transform="matrix(0.85 0 0 1 551.0371 334.2642)" class="st5 st6">+ intValue: xs::integer [0..1]</text>
<text transform="matrix(0.85 0 0 1 551.0371 343.0063)" class="st5 st6">+ doubleValue: xs::double [0..1]</text>
<text transform="matrix(0.85 0 0 1 551.0371 351.7407)" class="st5 st6">+ measureValue: gml::MeasureType [0..1]</text>
<text transform="matrix(0.85 0 0 1 551.0371 360.4829)" class="st5 st6">+ dateValue: xs::date [0..1]</text>
<text transform="matrix(0.85 0 0 1 551.0371 369.2251)" class="st5 st6">+ uriValue: xs::anyURI [0..1]</text>
<polygon class="st8" points="345.3,470.5 491.1,470.5 491.1,275.1 345.3,275.1 "/>
<polygon class="st11" points="345.3,470.5 491.1,470.5 491.1,275.1 345.3,275.1 "/>
<text transform="matrix(0.85 0 -0.3127 0.9499 438.2735 283.8593)" class="st5 st12">BuildingAttribute</text>
<text transform="matrix(0.85 0 0 1 400.7012 295.6938)" class="st5 st6">«DataType»</text>
<text transform="matrix(0.85 0 0 1 363.6309 304.4282)" class="st9 st6">uro::LargeCustomerFacilityAttribute</text>
<line class="st11" x1="345.3" y1="308.5" x2="490.6" y2="308.5"/>
<text transform="matrix(0.85 0 0 1 347.8809 317.8032)" class="st5 st6">+ class: gml::CodeType [0..1]</text>
<text transform="matrix(0.85 0 0 1 347.8809 326.5532)" class="st5 st6">+ name: xs::string [0..1]</text>
<text transform="matrix(0.85 0 0 1 347.8809 335.2876)" class="st5 st6">+ capacity: xs::integer [0..1]</text>
<text transform="matrix(0.85 0 0 1 347.8809 344.0298)" class="st5 st6">+ owner: xs::string [0..1]</text>
<text transform="matrix(0.85 0 0 1 347.8809 352.7798)" class="st5 st6">+ totalFloorArea: gml::MeasureType [0..1]</text>
<text transform="matrix(0.85 0 0 1 347.8809 361.522)" class="st5 st6">+ totalStoreFloorArea: gml::MeasureType [0..1]</text>
<text transform="matrix(0.85 0 0 1 347.8809 370.2563)" class="st5 st6">+ inauguralDate: xs::date [0..1]</text>
<text transform="matrix(0.85 0 0 1 347.8809 378.9985)" class="st5 st6">+ yearOpened: xs::gYear [0..1]</text>
<text transform="matrix(0.85 0 0 1 347.8809 387.7402)" class="st5 st6">+ yearClosed: xs::gYear [0..1]</text>
<text transform="matrix(0.85 0 0 1 347.8809 396.4902)" class="st5 st6">+ keyTenants: xs::string [0..1]</text>
<text transform="matrix(0.85 0 0 1 347.8809 405.2324)" class="st5 st6">+ availability: xs::boolean [0..1]</text>
<text transform="matrix(0.85 0 0 1 347.8809 413.9746)" class="st5 st6">+ urbanPlanType: gml::CodeType [0..1]</text>
<text transform="matrix(0.85 0 0 1 347.8809 422.7246)" class="st5 st6">+ areaClassificationType: gml::CodeType [0..1]</text>
<text transform="matrix(0.85 0 0 1 347.8809 431.459)" class="st5 st6">+ districtsAndZonesType: gml::CodeType [0..*]</text>
<text transform="matrix(0.85 0 0 1 347.8809 440.2012)" class="st5 st6">+ landUseType: gml::CodeType [0..1]</text>
<text transform="matrix(0.85 0 0 1 347.8809 448.9434)" class="st5 st6">+ reference: xs::string [0..1]</text>
<text transform="matrix(0.85 0 0 1 347.8809 457.6777)" class="st5 st6">+ note: xs::string [0..1]</text>
<text transform="matrix(0.85 0 0 1 347.8809 466.4277)" class="st5 st6">+ surveyYear: xs::gYear</text>
<polygon class="st8" points="380.9,653.1 528.2,653.1 528.2,599.1 380.9,599.1 "/>
<polygon class="st11" points="380.9,653.1 528.2,653.1 528.2,599.1 380.9,599.1 "/>
<text transform="matrix(0.85 0 0 1 436.7637 609.3965)" class="st5 st6">«DataType»</text>
<g>
	<text transform="matrix(0.85 0 -0.3127 0.9499 401.7244 618.143)" class="st5 st12">u</text>
	<text transform="matrix(0.85 0 -0.3127 0.9499 401.7244 618.143)" class="st13 st5 st12">u</text>
	<text transform="matrix(0.85 0 -0.3127 0.9499 405.7585 618.143)" class="st5 st12">r</text>
	<text transform="matrix(0.85 0 -0.3127 0.9499 405.7585 618.143)" class="st13 st5 st12">r</text>
	<text transform="matrix(0.85 0 -0.3127 0.9499 408.2908 618.143)" class="st5 st12">o</text>
	<text transform="matrix(0.85 0 -0.3127 0.9499 408.2908 618.143)" class="st13 st5 st12">o</text>
	<text transform="matrix(0.85 0 -0.3127 0.9499 412.4177 618.143)" class="st5 st12">::</text>
	<text transform="matrix(0.85 0 -0.3127 0.9499 412.4177 618.143)" class="st13 st5 st12">::</text>
	<text transform="matrix(0.85 0 -0.3127 0.9499 415.4197 618.143)" class="st5 st12">B</text>
	<text transform="matrix(0.85 0 -0.3127 0.9499 415.4197 618.143)" class="st13 st5 st12">B</text>
	<text transform="matrix(0.85 0 -0.3127 0.9499 419.4529 618.143)" class="st5 st12">u</text>
	<text transform="matrix(0.85 0 -0.3127 0.9499 419.4529 618.143)" class="st13 st5 st12">u</text>
	<text transform="matrix(0.85 0 -0.3127 0.9499 423.5798 618.143)" class="st5 st12">il</text>
	<text transform="matrix(0.85 0 -0.3127 0.9499 423.5798 618.143)" class="st13 st5 st12">il</text>
	<text transform="matrix(0.85 0 -0.3127 0.9499 426.5818 618.143)" class="st5 st12">d</text>
	<text transform="matrix(0.85 0 -0.3127 0.9499 426.5818 618.143)" class="st13 st5 st12">d</text>
	<text transform="matrix(0.85 0 -0.3127 0.9499 430.615 618.143)" class="st5 st12">i</text>
	<text transform="matrix(0.85 0 -0.3127 0.9499 430.615 618.143)" class="st13 st5 st12">i</text>
	<text transform="matrix(0.85 0 -0.3127 0.9499 432.2097 618.143)" class="st5 st12">n</text>
	<text transform="matrix(0.85 0 -0.3127 0.9499 432.2097 618.143)" class="st13 st5 st12">n</text>
	<text transform="matrix(0.85 0 -0.3127 0.9499 436.2429 618.143)" class="st5 st12">g</text>
	<text transform="matrix(0.85 0 -0.3127 0.9499 436.2429 618.143)" class="st13 st5 st12">g</text>
	<text transform="matrix(0.85 0 -0.3127 0.9499 440.2771 618.143)" class="st5 st12">F</text>
	<text transform="matrix(0.85 0 -0.3127 0.9499 440.2771 618.143)" class="st13 st5 st12">F</text>
	<text transform="matrix(0.85 0 -0.3127 0.9499 443.8416 618.143)" class="st5 st12">l</text>
	<text transform="matrix(0.85 0 -0.3127 0.9499 443.8416 618.143)" class="st13 st5 st12">l</text>
	<text transform="matrix(0.85 0 -0.3127 0.9499 445.3416 618.143)" class="st5 st12">oo</text>
	<text transform="matrix(0.85 0 -0.3127 0.9499 445.3416 618.143)" class="st13 st5 st12">oo</text>
	<text transform="matrix(0.85 0 -0.3127 0.9499 453.5027 618.143)" class="st5 st12">d</text>
	<text transform="matrix(0.85 0 -0.3127 0.9499 453.5027 618.143)" class="st13 st5 st12">d</text>
	<text transform="matrix(0.85 0 -0.3127 0.9499 457.5359 618.143)" class="st5 st12">i</text>
	<text transform="matrix(0.85 0 -0.3127 0.9499 457.5359 618.143)" class="st13 st5 st12">i</text>
	<text transform="matrix(0.85 0 -0.3127 0.9499 459.0369 618.143)" class="st5 st12">n</text>
	<text transform="matrix(0.85 0 -0.3127 0.9499 459.0369 618.143)" class="st13 st5 st12">n</text>
	<text transform="matrix(0.85 0 -0.3127 0.9499 463.1638 618.143)" class="st5 st12">g</text>
	<text transform="matrix(0.85 0 -0.3127 0.9499 463.1638 618.143)" class="st13 st5 st12">g</text>
	<text transform="matrix(0.85 0 -0.3127 0.9499 467.197 618.143)" class="st5 st12">R</text>
	<text transform="matrix(0.85 0 -0.3127 0.9499 467.197 618.143)" class="st13 st5 st12">R</text>
	<text transform="matrix(0.85 0 -0.3127 0.9499 471.2302 618.143)" class="st5 st12">i</text>
	<text transform="matrix(0.85 0 -0.3127 0.9499 471.2302 618.143)" class="st13 st5 st12">i</text>
	<text transform="matrix(0.85 0 -0.3127 0.9499 472.825 618.143)" class="st5 st12">s</text>
	<text transform="matrix(0.85 0 -0.3127 0.9499 472.825 618.143)" class="st13 st5 st12">s</text>
	<text transform="matrix(0.85 0 -0.3127 0.9499 475.8269 618.143)" class="st5 st12">k</text>
	<text transform="matrix(0.85 0 -0.3127 0.9499 475.8269 618.143)" class="st13 st5 st12">k</text>
	<text transform="matrix(0.85 0 -0.3127 0.9499 479.3914 618.143)" class="st5 st12">A</text>
	<text transform="matrix(0.85 0 -0.3127 0.9499 479.3914 618.143)" class="st13 st5 st12">A</text>
	<text transform="matrix(0.85 0 -0.3127 0.9499 483.988 618.143)" class="st5 st12">tt</text>
	<text transform="matrix(0.85 0 -0.3127 0.9499 483.988 618.143)" class="st13 st5 st12">tt</text>
	<text transform="matrix(0.85 0 -0.3127 0.9499 489.0525 618.143)" class="st5 st12">r</text>
	<text transform="matrix(0.85 0 -0.3127 0.9499 489.0525 618.143)" class="st13 st5 st12">r</text>
	<text transform="matrix(0.85 0 -0.3127 0.9499 491.5857 618.143)" class="st5 st12">i</text>
	<text transform="matrix(0.85 0 -0.3127 0.9499 491.5857 618.143)" class="st13 st5 st12">i</text>
	<text transform="matrix(0.85 0 -0.3127 0.9499 493.0857 618.143)" class="st5 st12">b</text>
	<text transform="matrix(0.85 0 -0.3127 0.9499 493.0857 618.143)" class="st13 st5 st12">b</text>
	<text transform="matrix(0.85 0 -0.3127 0.9499 497.1189 618.143)" class="st5 st12">u</text>
	<text transform="matrix(0.85 0 -0.3127 0.9499 497.1189 618.143)" class="st13 st5 st12">u</text>
	<text transform="matrix(0.85 0 -0.3127 0.9499 501.1531 618.143)" class="st5 st12">t</text>
	<text transform="matrix(0.85 0 -0.3127 0.9499 501.1531 618.143)" class="st13 st5 st12">t</text>
	<text transform="matrix(0.85 0 -0.3127 0.9499 503.7791 618.143)" class="st5 st12">e</text>
	<text transform="matrix(0.85 0 -0.3127 0.9499 503.7791 618.143)" class="st13 st5 st12">e</text>
</g>
<line class="st11" x1="380.9" y1="622.3" x2="527.7" y2="622.3"/>
<text transform="matrix(0.85 0 0 1 383.4355 631.5215)" class="st5 st6">+ rank: gml::CodeType [0..1]</text>
<text transform="matrix(0.85 0 0 1 383.4355 640.2559)" class="st5 st6">+ rankOrg: gml::CodeType [0..1]</text>
<text transform="matrix(0.85 0 0 1 383.4355 648.998)" class="st5 st6">+ depth: gml::LengthType [0..1]</text>
<polygon class="st8" points="604.4,508.1 761.8,508.1 761.8,408.8 604.4,408.8 "/>
<polygon class="st11" points="604.4,508.1 761.8,508.1 761.8,408.8 604.4,408.8 "/>
<text transform="matrix(0.85 0 -0.3127 0.9499 708.9616 417.5813)" class="st5 st12">BuildingAttribute</text>
<text transform="matrix(0.85 0 0 1 665.3027 429.3965)" class="st5 st6">«DataType»</text>
<text transform="matrix(0.85 0 0 1 631.7871 438.1465)" class="st9 st6">uro::BuildingDataQualityAttribute</text>
<line class="st11" x1="604.4" y1="442.3" x2="761.3" y2="442.3"/>
<text transform="matrix(0.85 0 0 1 606.9043 451.5215)" class="st5 st6">+ srcScale: gml::CodeType [0..*]</text>
<text transform="matrix(0.85 0 0 1 606.9043 460.2559)" class="st5 st6">+ geometrySrcDesc: gml::CodeType [0..*]</text>
<text transform="matrix(0.85 0 0 1 606.9043 468.998)" class="st5 st6">+ thematicSrcDesc: gml::CodeType [0..*]</text>
<text transform="matrix(0.85 0 0 1 606.9043 477.7402)" class="st5 st6">+ appearanceSrcDesc: gml::CodeType [0..*]</text>
<text transform="matrix(0.85 0 0 1 606.9043 486.4902)" class="st5 st6">+ lod1HeightType: gml::CodeType</text>
<text transform="matrix(0.85 0 0 1 606.9043 495.2324)" class="st5 st6">+ lodType: BuildingLODType [0..3]</text>
<polygon class="st8" points="609.4,553.3 690.7,553.3 690.7,527.1 609.4,527.1 "/>
<polygon class="st11" points="609.4,553.3 690.7,553.3 690.7,527.1 609.4,527.1 "/>
<text transform="matrix(0.85 0 0 1 627.7246 537.3965)" class="st5 st6">«Enumeration»</text>
<text transform="matrix(0.85 0 0 1 617.0605 546.1465)" class="st9 st6">uro::BuildingLODType</text>
<polygon class="st8" points="35.5,357.4 146.3,357.4 146.3,275.6 35.5,275.6 "/>
<polygon class="st11" points="35.5,357.4 146.3,357.4 146.3,275.6 35.5,275.6 "/>
<text transform="matrix(0.85 0 -0.3127 0.9499 93.3999 284.3788)" class="st5 st12">BuildingAttribute</text>
<text transform="matrix(0.85 0 0 1 73.123 296.1938)" class="st5 st6">«DataType»</text>
<text transform="matrix(0.85 0 0 1 54.334 304.9438)" class="st9 st6">uro::BuildingIDAttribute</text>
<line class="st11" x1="35.5" y1="309.1" x2="145.8" y2="309.1"/>
<text transform="matrix(0.85 0 0 1 38.0762 318.3188)" class="st5 st6">+ buildingID: xs::string</text>
<text transform="matrix(0.85 0 0 1 38.0762 327.0532)" class="st5 st6">+ branchID: xs::integer [0..1]</text>
<text transform="matrix(0.85 0 0 1 38.0762 335.8032)" class="st5 st6">+ partID: xs::integer [0..1]</text>
<text transform="matrix(0.85 0 0 1 38.0762 344.5454)" class="st5 st6">+ prefecture: gml::CodeType [0..1]</text>
<text transform="matrix(0.85 0 0 1 38.0762 353.2876)" class="st5 st6">+ city: gml::CodeType</text>
<polygon class="st7" points="279.3,193.3 480.4,193.3 480.4,69.4 279.3,69.4 "/>
<polygon class="st11" points="279.3,193.3 480.4,193.3 480.4,69.4 279.3,69.4 "/>
<text transform="matrix(0.85 0 0 1 358.0371 79.6938)" class="st5 st6">«FeatureType»</text>
<g>
	<text transform="matrix(0.85 0 -0.3127 0.9499 344.8432 88.4328)" class="st5 st12">b</text>
	<text transform="matrix(0.85 0 -0.3127 0.9499 344.8432 88.4328)" class="st13 st5 st12">b</text>
	<text transform="matrix(0.85 0 -0.3127 0.9499 348.8764 88.4328)" class="st5 st12">l</text>
	<text transform="matrix(0.85 0 -0.3127 0.9499 348.8764 88.4328)" class="st13 st5 st12">l</text>
	<text transform="matrix(0.85 0 -0.3127 0.9499 350.4721 88.4328)" class="st5 st12">dg</text>
	<text transform="matrix(0.85 0 -0.3127 0.9499 350.4721 88.4328)" class="st13 st5 st12">dg</text>
	<text transform="matrix(0.85 0 -0.3127 0.9499 358.5375 88.4328)" class="st5 st12">::</text>
	<text transform="matrix(0.85 0 -0.3127 0.9499 358.5375 88.4328)" class="st13 st5 st12">::</text>
	<text transform="matrix(0.85 0 -0.3127 0.9499 361.5405 88.4328)" class="st5 st12">_</text>
	<text transform="matrix(0.85 0 -0.3127 0.9499 361.5405 88.4328)" class="st13 st5 st12">_</text>
	<text transform="matrix(0.85 0 -0.3127 0.9499 364.1664 88.4328)" class="st5 st12">A</text>
	<text transform="matrix(0.85 0 -0.3127 0.9499 364.1664 88.4328)" class="st13 st5 st12">A</text>
	<text transform="matrix(0.85 0 -0.3127 0.9499 368.6694 88.4328)" class="st5 st12">b</text>
	<text transform="matrix(0.85 0 -0.3127 0.9499 368.6694 88.4328)" class="st13 st5 st12">b</text>
	<text transform="matrix(0.85 0 -0.3127 0.9499 372.7953 88.4328)" class="st5 st12">s</text>
	<text transform="matrix(0.85 0 -0.3127 0.9499 372.7953 88.4328)" class="st13 st5 st12">s</text>
	<text transform="matrix(0.85 0 -0.3127 0.9499 375.7973 88.4328)" class="st5 st12">t</text>
	<text transform="matrix(0.85 0 -0.3127 0.9499 375.7973 88.4328)" class="st13 st5 st12">t</text>
	<text transform="matrix(0.85 0 -0.3127 0.9499 378.3305 88.4328)" class="st5 st12">r</text>
	<text transform="matrix(0.85 0 -0.3127 0.9499 378.3305 88.4328)" class="st13 st5 st12">r</text>
	<text transform="matrix(0.85 0 -0.3127 0.9499 380.8618 88.4328)" class="st5 st12">a</text>
	<text transform="matrix(0.85 0 -0.3127 0.9499 380.8618 88.4328)" class="st13 st5 st12">a</text>
	<text transform="matrix(0.85 0 -0.3127 0.9499 384.4272 88.4328)" class="st5 st12">c</text>
	<text transform="matrix(0.85 0 -0.3127 0.9499 384.4272 88.4328)" class="st13 st5 st12">c</text>
	<text transform="matrix(0.85 0 -0.3127 0.9499 387.4282 88.4328)" class="st5 st12">t</text>
	<text transform="matrix(0.85 0 -0.3127 0.9499 387.4282 88.4328)" class="st13 st5 st12">t</text>
	<text transform="matrix(0.85 0 -0.3127 0.9499 389.9614 88.4328)" class="st5 st12">B</text>
	<text transform="matrix(0.85 0 -0.3127 0.9499 389.9614 88.4328)" class="st13 st5 st12">B</text>
	<text transform="matrix(0.85 0 -0.3127 0.9499 394.0883 88.4328)" class="st5 st12">u</text>
	<text transform="matrix(0.85 0 -0.3127 0.9499 394.0883 88.4328)" class="st13 st5 st12">u</text>
	<text transform="matrix(0.85 0 -0.3127 0.9499 398.1225 88.4328)" class="st5 st12">il</text>
	<text transform="matrix(0.85 0 -0.3127 0.9499 398.1225 88.4328)" class="st13 st5 st12">il</text>
	<text transform="matrix(0.85 0 -0.3127 0.9499 401.2172 88.4328)" class="st5 st12">d</text>
	<text transform="matrix(0.85 0 -0.3127 0.9499 401.2172 88.4328)" class="st13 st5 st12">d</text>
	<text transform="matrix(0.85 0 -0.3127 0.9499 405.2504 88.4328)" class="st5 st12">i</text>
	<text transform="matrix(0.85 0 -0.3127 0.9499 405.2504 88.4328)" class="st13 st5 st12">i</text>
	<text transform="matrix(0.85 0 -0.3127 0.9499 406.7514 88.4328)" class="st5 st12">n</text>
	<text transform="matrix(0.85 0 -0.3127 0.9499 406.7514 88.4328)" class="st13 st5 st12">n</text>
	<text transform="matrix(0.85 0 -0.3127 0.9499 410.7846 88.4328)" class="st5 st12">g</text>
	<text transform="matrix(0.85 0 -0.3127 0.9499 410.7846 88.4328)" class="st13 st5 st12">g</text>
</g>
<line class="st11" x1="279.3" y1="92.5" x2="479.9" y2="92.5"/>
<text transform="matrix(0.85 0 0 1 281.8652 101.8032)" class="st5 st6">+ class: gml::CodeType [0..1]</text>
<text transform="matrix(0.85 0 0 1 281.8652 110.5454)" class="st5 st6">+ function: gml::CodeType [0..*]</text>
<text transform="matrix(0.85 0 0 1 281.8652 119.2876)" class="st5 st6">+ usage: gml::CodeType [0..*]</text>
<text transform="matrix(0.85 0 0 1 281.8652 128.0376)" class="st5 st6">+ yearOfConstruction: xs::gYear [0..1]</text>
<text transform="matrix(0.85 0 0 1 281.8652 136.772)" class="st5 st6">+ yearOfDemolition: xs::gYear [0..1]</text>
<text transform="matrix(0.85 0 0 1 281.8652 145.5142)" class="st5 st6">+ roofType: gml::CodeType [0..1]</text>
<text transform="matrix(0.85 0 0 1 281.8652 154.2642)" class="st5 st6">+ measuredHeight: gml::LengthType [0..1]</text>
<text transform="matrix(0.85 0 0 1 281.8652 163.0063)" class="st5 st6">+ storeysAboveGround: xs::nonNegativeInteger [0..1]</text>
<text transform="matrix(0.85 0 0 1 281.8652 171.7407)" class="st5 st6">+ storeysBelowGround: xs::nonNegativeInteger [0..1]</text>
<text transform="matrix(0.85 0 0 1 281.8652 180.4829)" class="st5 st6">+ storeyHeightsAboveGround: gml::MeasureOrNullListType [0..1]</text>
<text transform="matrix(0.85 0 0 1 281.8652 189.2251)" class="st5 st6">+ storeyHeightsBelowGround: gml::MeasureOrNullListType [0..1]</text>
<polygon class="st8" points="735.9,350.2 892.3,350.2 892.3,274.6 735.9,274.6 "/>
<polygon class="st11" points="735.9,350.2 892.3,350.2 892.3,274.6 735.9,274.6 "/>
<text transform="matrix(0.85 0 0 1 798.3652 283.8657)" class="st5 st14">«DataType»</text>
<text transform="matrix(0.85 0 0 1 779.0684 291.5767)" class="st9 st14">uro::RealEstateIDAttribute</text>
<line class="st11" x1="735.9" y1="295.7" x2="891.8" y2="295.7"/>
<text transform="matrix(0.85 0 0 1 738.4434 303.9204)" class="st5 st14">+ realEstateIDOfBuilding: xs::string</text>
<text transform="matrix(0.85 0 0 1 738.4434 311.6392)" class="st5 st14">+ numberOfBuildingUnitOwnership: xs::integer [0..1]</text>
<text transform="matrix(0.85 0 0 1 738.4434 319.3423)" class="st5 st14">+ realEstateIDOfBuildingUnitOwnership: xs::string [0..*]</text>
<text transform="matrix(0.85 0 0 1 738.4434 327.0532)" class="st5 st14">+ numberOfRealEstateIDOfLand: xs::integer [0..1]</text>
<text transform="matrix(0.85 0 0 1 738.4434 334.772)" class="st5 st14">+ realEstateIDOfLand: xs::string [0..*]</text>
<text transform="matrix(0.85 0 0 1 738.4434 342.4907)" class="st5 st14">+ matchingScore: xs::integer</text>
<line class="st11" x1="814.1" y1="274.1" x2="814.1" y2="219.1"/>
<line class="st11" x1="814.1" y1="219.1" x2="379.9" y2="219.1"/>
<line class="st11" x1="379.9" y1="219.1" x2="379.9" y2="193.9"/>
<polyline class="st15" points="382.4,199 379.9,193.9 377.3,199 379.9,204.1 382.4,199 "/>
<polyline class="st11" points="382.4,199 379.9,193.9 377.3,199 379.9,204.1 "/>
<polyline class="st11" points="817.2,266.4 814.1,274.1 811.1,266.4 "/>
<line class="st11" x1="90.4" y1="275.1" x2="90.4" y2="219.1"/>
<line class="st11" x1="90.4" y1="219.1" x2="379.9" y2="219.1"/>
<polyline class="st15" points="382.4,199 379.9,193.9 377.3,199 379.9,204.1 382.4,199 "/>
<polyline class="st11" points="382.4,199 379.9,193.9 377.3,199 379.9,204.1 "/>
<polyline class="st11" points="93.4,267.4 90.4,275.1 87.3,267.4 "/>
<line class="st11" x1="720.7" y1="408.3" x2="720.7" y2="219.1"/>
<polyline class="st15" points="382.4,199 379.9,193.9 377.3,199 379.9,204.1 382.4,199 "/>
<polyline class="st11" points="382.4,199 379.9,193.9 377.3,199 379.9,204.1 "/>
<polyline class="st11" points="723.7,400.6 720.7,408.3 717.6,400.6 "/>
<line class="st11" x1="454.5" y1="598.6" x2="454.5" y2="578.5"/>
<line class="st11" x1="454.5" y1="578.5" x2="535.8" y2="578.5"/>
<line class="st11" x1="535.8" y1="578.5" x2="535.8" y2="553.3"/>
<polyline class="st16" points="538.8,561.6 532.8,561.6 535.8,553.3 538.8,561.6 "/>
<polygon class="st11" points="538.8,561.6 532.8,561.6 535.8,553.3 "/>
<line class="st11" x1="418" y1="274.6" x2="418" y2="219.1"/>
<polyline class="st15" points="382.4,199 379.9,193.9 377.3,199 379.9,204.1 382.4,199 "/>
<polyline class="st11" points="382.4,199 379.9,193.9 377.3,199 379.9,204.1 "/>
<polyline class="st11" points="421,266.9 418,274.6 414.9,266.9 "/>
<line class="st11" x1="619.1" y1="275.1" x2="619.1" y2="219.1"/>
<polyline class="st15" points="382.4,199 379.9,193.9 377.3,199 379.9,204.1 382.4,199 "/>
<polyline class="st11" points="382.4,199 379.9,193.9 377.3,199 379.9,204.1 "/>
<polyline class="st11" points="622.1,267.4 619.1,275.1 616,267.4 "/>
<line class="st11" x1="685.6" y1="700.9" x2="685.6" y2="678.8"/>
<line class="st11" x1="685.6" y1="678.8" x2="454.5" y2="678.8"/>
<line class="st11" x1="454.5" y1="678.8" x2="454.5" y2="653.6"/>
<polyline class="st16" points="457.6,661.9 451.5,661.9 454.5,653.6 457.6,661.9 "/>
<polygon class="st11" points="457.6,661.9 451.5,661.9 454.5,653.6 "/>
<line class="st11" x1="590.1" y1="742.1" x2="590.1" y2="678.8"/>
<line class="st11" x1="379.4" y1="700.9" x2="379.4" y2="678.8"/>
<line class="st11" x1="379.4" y1="678.8" x2="454.5" y2="678.8"/>
<line class="st11" x1="487.6" y1="700.9" x2="487.6" y2="678.8"/>
<line class="st11" x1="600.8" y1="598.6" x2="600.8" y2="578.5"/>
<line class="st11" x1="600.8" y1="578.5" x2="535.8" y2="578.5"/>
<line class="st11" x1="535.3" y1="490.6" x2="535.3" y2="219.1"/>
<polyline class="st15" points="382.4,199 379.9,193.9 377.3,199 379.9,204.1 382.4,199 "/>
<polyline class="st11" points="382.4,199 379.9,193.9 377.3,199 379.9,204.1 "/>
<polyline class="st11" points="538.3,482.9 535.3,490.6 532.2,482.9 "/>
<line class="st11" x1="239.2" y1="275.1" x2="239.2" y2="219.1"/>
<polyline class="st15" points="382.4,199 379.9,193.9 377.3,199 379.9,204.1 382.4,199 "/>
<polygon class="st11" points="382.4,199 379.9,193.9 377.3,199 379.9,204.1 "/>
<polyline class="st11" points="242.2,267.4 239.2,275.1 236.2,267.4 "/>
<text transform="matrix(0.85 0 0 1 162.5059 266.8892)" class="st5 st6">+buildingDetailAttribute</text>
<text transform="matrix(0.85 0 0 1 249.3496 267.397)" class="st5 st6">0..*</text>
<text transform="matrix(0.85 0 0 1 537.4858 269.4595)" class="st5 st6">+keyValuePairAttribute</text>
<text transform="matrix(0.85 0 0 1 623.6621 271.522)" class="st5 st6">0..*</text>
<text transform="matrix(0.85 0 0 1 723.1123 269.9751)" class="st5 st6">+bldgRealEstateIDAttribute</text>
<text transform="matrix(0.85 0 0 1 821.2168 269.9751)" class="st5 st6">0..1</text>
<text transform="matrix(0.85 0 0 1 18.7793 269.4595)" class="st5 st6">+buildingIDAttribute</text>
<text transform="matrix(0.85 0 0 1 100.5527 272.0298)" class="st5 st6">1</text>
<text transform="matrix(0.85 0 0 1 618.584 400.084)" class="st5 st6">+buildingDataQualityAttribute</text>
<text transform="matrix(0.85 0 0 1 728.2793 399.0605)" class="st5 st6">0..1</text>
<text transform="matrix(0.85 0 0 1 428.1309 487.5137)" class="st5 st6">+buildingDisasterRiskAttribute</text>
<text transform="matrix(0.85 0 0 1 542.3965 485.9746)" class="st5 st6">0..*</text>
<text transform="matrix(0.85 0 0 1 320.459 266.8892)" class="st5 st6">+largeCustomerFacilityAttribute</text>
<text transform="matrix(0.85 0 0 1 425.084 266.3735)" class="st5 st6">0..*</text>
</svg>
