<?xml version="1.0" encoding="utf-8"?>
<!-- Generator: Adobe Illustrator 27.4.1, SVG Export Plug-In . SVG Version: 6.00 Build 0)  -->
<svg version="1.1" id="レイヤー_1" xmlns="http://www.w3.org/2000/svg" xmlns:xlink="http://www.w3.org/1999/xlink" x="0px"
	 y="0px" viewBox="0 0 498.4 260.5" style="enable-background:new 0 0 498.4 260.5;" xml:space="preserve">
<style type="text/css">
	.st0{fill-rule:evenodd;clip-rule:evenodd;fill:#CFD1D8;}
	.st1{fill-rule:evenodd;clip-rule:evenodd;fill:#FFFFCC;}
	.st2{fill:none;stroke:#000000;stroke-width:1.7322;stroke-linecap:round;stroke-linejoin:round;stroke-miterlimit:10;}
	.st3{font-family:'YuGothicUI-Regular';}
	.st4{font-size:11.2598px;}
	.st5{font-size:11.8726px;}
	.st6{fill:none;stroke:#000000;stroke-width:0.3218;stroke-miterlimit:10;}
	.st7{fill-rule:evenodd;clip-rule:evenodd;fill:#F0F0F0;}
	.st8{fill:none;stroke:#D7D7D7;stroke-width:0.8662;stroke-linecap:square;stroke-miterlimit:10;}
	.st9{fill-rule:evenodd;clip-rule:evenodd;fill:#CCFFCC;}
	.st10{fill:none;stroke:#000000;stroke-width:0.8662;stroke-linecap:square;stroke-miterlimit:10;}
	.st11{fill:#003060;}
	.st12{fill-rule:evenodd;clip-rule:evenodd;fill:#FFCCFF;}
	.st13{font-family:'MS-PGothic';}
	.st14{font-size:13.8582px;}
	.st15{fill:none;stroke:#003060;stroke-width:0.396;stroke-miterlimit:10;}
	.st16{font-family:'Calibri';}
	.st17{font-family:'Calibri-BoldItalic';}
	.st18{fill:none;stroke:#000000;stroke-width:1.7322;stroke-linecap:round;stroke-linejoin:bevel;stroke-miterlimit:10;}
	.st19{fill-rule:evenodd;clip-rule:evenodd;}
	.st20{font-size:9.5276px;}
</style>
<path class="st0" d="M259.8,28.5c1.2,0,2.2,1,2.2,2.2l0,0V87l0,0c0,1.2-1,2.2-2.2,2.2l0,0l0,0H30.6l0,0c-1.2,0-2.2-1-2.2-2.2l0,0
	V30.6c0-1.2,1-2.2,2.2-2.2l0,0h229.2V28.5L259.8,28.5z"/>
<path class="st1" d="M257.2,25.9c1.2,0,2.2,1,2.2,2.2l0,0v56.3l0,0c0,1.2-1,2.2-2.2,2.2l0,0l0,0H28l0,0c-1.2,0-2.2-1-2.2-2.2l0,0V28
	c0-1.2,1-2.2,2.2-2.2l0,0h229.2V25.9L257.2,25.9z"/>
<path class="st2" d="M257.2,25.9c1.2,0,2.2,1,2.2,2.2l0,0v56.3l0,0c0,1.2-1,2.2-2.2,2.2l0,0l0,0H28l0,0c-1.2,0-2.2-1-2.2-2.2l0,0V28
	c0-1.2,1-2.2,2.2-2.2l0,0h229.2V25.9L257.2,25.9z"/>
<text transform="matrix(0.85 0 0 1 105.7275 43.1955)" class="st3 st4">«FeatureType»</text>
<g>
	<text transform="matrix(0.85 0 -0.3169 0.9485 81.4249 57.9205)" class="st3 st5">d</text>
	<text transform="matrix(0.85 0 -0.3169 0.9485 81.4249 57.9205)" class="st6 st3 st5">d</text>
	<text transform="matrix(0.85 0 -0.3169 0.9485 88.3643 57.9205)" class="st3 st5">e</text>
	<text transform="matrix(0.85 0 -0.3169 0.9485 88.3643 57.9205)" class="st6 st3 st5">e</text>
	<text transform="matrix(0.85 0 -0.3169 0.9485 94.4346 57.9205)" class="st3 st5">m</text>
	<text transform="matrix(0.85 0 -0.3169 0.9485 94.4346 57.9205)" class="st6 st3 st5">m</text>
	<text transform="matrix(0.85 0 -0.3169 0.9485 104.8428 57.9205)" class="st3 st5">:</text>
	<text transform="matrix(0.85 0 -0.3169 0.9485 104.8428 57.9205)" class="st6 st3 st5">:</text>
	<text transform="matrix(0.85 0 -0.3169 0.9485 107.4366 57.9205)" class="st3 st5">:</text>
	<text transform="matrix(0.85 0 -0.3169 0.9485 107.4366 57.9205)" class="st6 st3 st5">:</text>
	<text transform="matrix(0.85 0 -0.3169 0.9485 110.0303 57.9205)" class="st3 st5">_</text>
	<text transform="matrix(0.85 0 -0.3169 0.9485 110.0303 57.9205)" class="st6 st3 st5">_</text>
	<text transform="matrix(0.85 0 -0.3169 0.9485 114.376 57.9205)" class="st3 st5">R</text>
	<text transform="matrix(0.85 0 -0.3169 0.9485 114.376 57.9205)" class="st6 st3 st5">R</text>
	<text transform="matrix(0.85 0 -0.3169 0.9485 121.3174 57.9205)" class="st3 st5">e</text>
	<text transform="matrix(0.85 0 -0.3169 0.9485 121.3174 57.9205)" class="st6 st3 st5">e</text>
	<text transform="matrix(0.85 0 -0.3169 0.9485 127.3897 57.9205)" class="st3 st5">l</text>
	<text transform="matrix(0.85 0 -0.3169 0.9485 127.3897 57.9205)" class="st6 st3 st5">l</text>
	<text transform="matrix(0.85 0 -0.3169 0.9485 129.9971 57.9205)" class="st3 st5">i</text>
	<text transform="matrix(0.85 0 -0.3169 0.9485 129.9971 57.9205)" class="st6 st3 st5">i</text>
	<text transform="matrix(0.85 0 -0.3169 0.9485 132.6065 57.9205)" class="st3 st5">e</text>
	<text transform="matrix(0.85 0 -0.3169 0.9485 132.6065 57.9205)" class="st6 st3 st5">e</text>
	<text transform="matrix(0.85 0 -0.3169 0.9485 138.6788 57.9205)" class="st3 st5">f</text>
	<text transform="matrix(0.85 0 -0.3169 0.9485 138.6788 57.9205)" class="st6 st3 st5">f</text>
	<text transform="matrix(0.85 0 -0.3169 0.9485 142.1534 57.9205)" class="st3 st5">C</text>
	<text transform="matrix(0.85 0 -0.3169 0.9485 142.1534 57.9205)" class="st6 st3 st5">C</text>
	<text transform="matrix(0.85 0 -0.3169 0.9485 149.1065 57.9205)" class="st3 st5">o</text>
	<text transform="matrix(0.85 0 -0.3169 0.9485 149.1065 57.9205)" class="st6 st3 st5">o</text>
	<text transform="matrix(0.85 0 -0.3169 0.9485 156.046 57.9205)" class="st3 st5">m</text>
	<text transform="matrix(0.85 0 -0.3169 0.9485 156.046 57.9205)" class="st6 st3 st5">m</text>
	<text transform="matrix(0.85 0 -0.3169 0.9485 166.4561 57.9205)" class="st3 st5">p</text>
	<text transform="matrix(0.85 0 -0.3169 0.9485 166.4561 57.9205)" class="st6 st3 st5">p</text>
	<text transform="matrix(0.85 0 -0.3169 0.9485 173.3956 57.9205)" class="st3 st5">o</text>
	<text transform="matrix(0.85 0 -0.3169 0.9485 173.3956 57.9205)" class="st6 st3 st5">o</text>
	<text transform="matrix(0.85 0 -0.3169 0.9485 180.335 57.9205)" class="st3 st5">n</text>
	<text transform="matrix(0.85 0 -0.3169 0.9485 180.335 57.9205)" class="st6 st3 st5">n</text>
	<text transform="matrix(0.85 0 -0.3169 0.9485 187.2745 57.9205)" class="st3 st5">e</text>
	<text transform="matrix(0.85 0 -0.3169 0.9485 187.2745 57.9205)" class="st6 st3 st5">e</text>
	<text transform="matrix(0.85 0 -0.3169 0.9485 193.3448 57.9205)" class="st3 st5">n</text>
	<text transform="matrix(0.85 0 -0.3169 0.9485 193.3448 57.9205)" class="st6 st3 st5">n</text>
	<text transform="matrix(0.85 0 -0.3169 0.9485 200.2842 57.9205)" class="st3 st5">t</text>
	<text transform="matrix(0.85 0 -0.3169 0.9485 200.2842 57.9205)" class="st6 st3 st5">t</text>
</g>
<line class="st2" x1="25.9" y1="64.8" x2="259.4" y2="64.8"/>
<text transform="matrix(0.85 0 0 1 30.1963 80.4299)" class="st3 st4">+ lod: core::integerBetween0and4 = 1</text>
<path class="st7" d="M470.3,34.5c1.4,0,2.6,1.2,2.6,2.6l0,0V135l0,0c0,1.4-1.2,2.6-2.6,2.6l0,0l0,0H314.9l0,0
	c-1.4,0-2.6-1.2-2.6-2.6V37.1c0-1.4,1.2-2.6,2.6-2.6l0,0H470.3L470.3,34.5L470.3,34.5z"/>
<path class="st8" d="M470.3,34.5c1.4,0,2.6,1.2,2.6,2.6l0,0V135l0,0c0,1.4-1.2,2.6-2.6,2.6l0,0l0,0H314.9l0,0
	c-1.4,0-2.6-1.2-2.6-2.6V37.1c0-1.4,1.2-2.6,2.6-2.6l0,0H470.3L470.3,34.5L470.3,34.5z"/>
<path class="st9" d="M332.7,60.5c1.2,0,2.2,1,2.2,2.2l0,0v9.5l0,0c0,1.2-1,2.2-2.2,2.2l0,0l0,0h-9.5l0,0c-1.2,0-2.2-1-2.2-2.2l0,0
	v-9.5c0-1.2,1-2.2,2.2-2.2l0,0L332.7,60.5L332.7,60.5L332.7,60.5z"/>
<path class="st10" d="M332.7,60.5c1.2,0,2.2,1,2.2,2.2l0,0v9.5l0,0c0,1.2-1,2.2-2.2,2.2l0,0l0,0h-9.5l0,0c-1.2,0-2.2-1-2.2-2.2l0,0
	v-9.5c0-1.2,1-2.2,2.2-2.2l0,0L332.7,60.5L332.7,60.5L332.7,60.5z"/>
<text transform="matrix(0.85 0 0 1 340.1172 72.6174)" class="st11 st3 st4">GMLに定義されたクラス</text>
<path class="st1" d="M332.7,77c1.2,0,2.2,1,2.2,2.2l0,0v9.5l0,0c0,1.2-1,2.2-2.2,2.2l0,0l0,0h-9.5l0,0c-1.2,0-2.2-1-2.2-2.2l0,0
	v-9.5c0-1.2,1-2.2,2.2-2.2l0,0H332.7L332.7,77L332.7,77z"/>
<path class="st10" d="M332.7,77c1.2,0,2.2,1,2.2,2.2l0,0v9.5l0,0c0,1.2-1,2.2-2.2,2.2l0,0l0,0h-9.5l0,0c-1.2,0-2.2-1-2.2-2.2l0,0
	v-9.5c0-1.2,1-2.2,2.2-2.2l0,0H332.7L332.7,77L332.7,77z"/>
<text transform="matrix(0.85 0 0 1 340.1172 89.0861)" class="st11 st3 st4">CityGMLに定義されたクラス</text>
<path class="st12" d="M332.7,93.4c1.2,0,2.2,1,2.2,2.2l0,0v9.5l0,0c0,1.2-1,2.2-2.2,2.2l0,0l0,0h-9.5l0,0c-1.2,0-2.2-1-2.2-2.2l0,0
	v-9.5c0-1.2,1-2.2,2.2-2.2l0,0H332.7L332.7,93.4L332.7,93.4z"/>
<path class="st10" d="M332.7,93.4c1.2,0,2.2,1,2.2,2.2l0,0v9.5l0,0c0,1.2-1,2.2-2.2,2.2l0,0l0,0h-9.5l0,0c-1.2,0-2.2-1-2.2-2.2l0,0
	v-9.5c0-1.2,1-2.2,2.2-2.2l0,0H332.7L332.7,93.4L332.7,93.4z"/>
<text transform="matrix(0.85 0 0 1 340.1172 105.5549)" class="st11 st3 st4">i-URに定義されたクラス</text>
<text transform="matrix(0.85 0 0 1 379.1797 52.7111)" class="st11 st13 st14">凡例</text>
<text transform="matrix(0.85 0 0 1 379.1797 52.7111)" class="st15 st13 st14">凡例</text>
<path class="st0" d="M226.8,167c1.2,0,2.2,1,2.2,2.2l0,0v64.1l0,0c0,1.2-1,2.2-2.2,2.2l0,0l0,0H56.7l0,0c-1.2,0-2.2-1-2.2-2.2l0,0
	v-64.1c0-1.2,1-2.2,2.2-2.2l0,0L226.8,167L226.8,167L226.8,167z"/>
<path class="st12" d="M224.2,164.4c1.2,0,2.2,1,2.2,2.2l0,0v64.1l0,0c0,1.2-1,2.2-2.2,2.2l0,0l0,0H54.1l0,0c-1.2,0-2.2-1-2.2-2.2
	l0,0v-64.1c0-1.2,1-2.2,2.2-2.2l0,0L224.2,164.4L224.2,164.4L224.2,164.4z"/>
<path class="st2" d="M224.2,164.4c1.2,0,2.2,1,2.2,2.2l0,0v64.1l0,0c0,1.2-1,2.2-2.2,2.2l0,0l0,0H54.1l0,0c-1.2,0-2.2-1-2.2-2.2l0,0
	v-64.1c0-1.2,1-2.2,2.2-2.2l0,0L224.2,164.4L224.2,164.4L224.2,164.4z"/>
<text transform="matrix(0.85 0 0 1 110.9307 180.0549)" class="st16 st4">«DataType»</text>
<text transform="matrix(0.85 0 0 1 -7942.3325 -8056.5908)" class="st17" style="font-size:5.6299px;">t</text>
<text transform="matrix(0.85 0 0 1 97.915 193.0392)" class="st17 st4">uro::DmAttribute</text>
<line class="st2" x1="51.9" y1="200" x2="226.4" y2="200"/>
<text transform="matrix(0.85 0 0 1 56.2432 213.8205)" class="st16 st4">+ dmCode: gml::CodeType</text>
<text transform="matrix(0.85 0 0 1 56.2432 226.8049)" class="st16 st4">+ meshCode: gml::CodeType [0..1]</text>
<line class="st18" x1="137" y1="163.6" x2="137" y2="88.2"/>
<polyline class="st19" points="141.3,96.9 137,88.2 132.6,96.9 137,105.6 141.3,96.9 "/>
<polygon class="st18" points="141.3,96.9 137,88.2 132.6,96.9 137,105.6 "/>
<path class="st18" d="M137,163.6l5.2-13 M137,163.6l-5.2-13"/>
<text transform="matrix(0.85 0 0 1 -7942.3325 -8056.5908)" class="st16" style="font-size:4.7638px;">t</text>
<text transform="matrix(0.85 0 0 1 54.5088 152.3049)" class="st16 st20">+demDmAttribute</text>
<text transform="matrix(0.85 0 0 1 145.665 157.508)" class="st16 st20">0..*</text>
</svg>
