<?xml version="1.0" encoding="utf-8"?>
<!-- Generator: Adobe Illustrator 27.4.1, SVG Export Plug-In . SVG Version: 6.00 Build 0)  -->
<svg version="1.1" id="レイヤー_1" xmlns="http://www.w3.org/2000/svg" xmlns:xlink="http://www.w3.org/1999/xlink" x="0px"
	 y="0px" viewBox="0 0 965.4 701.8" style="enable-background:new 0 0 965.4 701.8;" xml:space="preserve">
<style type="text/css">
	.st0{fill-rule:evenodd;clip-rule:evenodd;fill:#CFD1D8;}
	.st1{fill-rule:evenodd;clip-rule:evenodd;fill:#CCFFCC;}
	.st2{fill:none;stroke:#000000;stroke-width:1.7322;stroke-linecap:round;stroke-linejoin:round;stroke-miterlimit:10;}
	.st3{font-family:'Calibri-Italic';}
	.st4{font-size:9.5276px;}
	.st5{font-family:'Calibri';}
	.st6{font-family:'Calibri-Bold';}
	.st7{font-family:'Calibri-BoldItalic';}
	.st8{fill-rule:evenodd;clip-rule:evenodd;fill:#F0F0F0;}
	.st9{fill:none;stroke:#D7D7D7;stroke-width:0.8662;stroke-linecap:square;stroke-miterlimit:10;}
	.st10{fill:none;stroke:#000000;stroke-width:0.8662;stroke-linecap:square;stroke-miterlimit:10;}
	.st11{fill:#003060;}
	.st12{font-family:'YuGothicUI-Regular';}
	.st13{font-size:10.3938px;}
	.st14{fill-rule:evenodd;clip-rule:evenodd;fill:#FFFFCC;}
	.st15{fill-rule:evenodd;clip-rule:evenodd;fill:#FFCCFF;}
	.st16{font-family:'MS-PGothic';}
	.st17{font-size:13.8582px;}
	.st18{fill:none;stroke:#003060;stroke-width:0.396;stroke-miterlimit:10;}
	.st19{fill:none;stroke:#000000;stroke-width:1.7322;stroke-linecap:round;stroke-linejoin:bevel;stroke-miterlimit:10;}
	.st20{fill-rule:evenodd;clip-rule:evenodd;fill:#FFFFFF;}
	.st21{fill-rule:evenodd;clip-rule:evenodd;}
</style>
<path class="st0" d="M407,36.7c1.2,0,2.2,1,2.2,2.2l0,0v53.7l0,0c0,1.2-1,2.2-2.2,2.2l0,0l0,0H299.3l0,0c-1.2,0-2.2-1-2.2-2.2l0,0
	V38.9c0-1.2,1-2.2,2.2-2.2l0,0H407L407,36.7L407,36.7z"/>
<path class="st1" d="M404.4,34.1c1.2,0,2.2,1,2.2,2.2l0,0V90l0,0c0,1.2-1,2.2-2.2,2.2l0,0l0,0H296.7l0,0c-1.2,0-2.2-1-2.2-2.2l0,0
	V36.3c0-1.2,1-2.2,2.2-2.2l0,0H404.4L404.4,34.1L404.4,34.1z"/>
<path class="st2" d="M404.4,34.1c1.2,0,2.2,1,2.2,2.2l0,0V90l0,0c0,1.2-1,2.2-2.2,2.2l0,0l0,0H296.7l0,0c-1.2,0-2.2-1-2.2-2.2l0,0
	V36.3c0-1.2,1-2.2,2.2-2.2l0,0H404.4L404.4,34.1L404.4,34.1z"/>
<text transform="matrix(0.85 0 0 1 357.1 45.3537)" class="st3 st4">_Geometry</text>
<text transform="matrix(0.85 0 0 1 336.2275 61.8068)" class="st5 st4">«Type»</text>
<text transform="matrix(0.85 0 0 1 -7709.4541 -7836.5918)" class="st6" style="font-size:4.7638px;">i</text>
<text transform="matrix(0.85 0 0 1 298.0093 73.0724)" class="st6 st4">gml::_GeometricPrimitive</text>
<path class="st0" d="M120.5,166.6c1.2,0,2.2,1,2.2,2.2l0,0v38.1l0,0c0,1.2-1,2.2-2.2,2.2l0,0l0,0H38.9l0,0c-1.2,0-2.2-1-2.2-2.2l0,0
	v-38.1c0-1.2,1-2.2,2.2-2.2l0,0L120.5,166.6L120.5,166.6L120.5,166.6z"/>
<path class="st1" d="M117.9,164c1.2,0,2.2,1,2.2,2.2l0,0v38.1l0,0c0,1.2-1,2.2-2.2,2.2l0,0l0,0H36.3l0,0c-1.2,0-2.2-1-2.2-2.2l0,0
	v-38.1c0-1.2,1-2.2,2.2-2.2l0,0L117.9,164L117.9,164L117.9,164z"/>
<path class="st2" d="M117.9,164c1.2,0,2.2,1,2.2,2.2l0,0v38.1l0,0c0,1.2-1,2.2-2.2,2.2l0,0l0,0H36.3l0,0c-1.2,0-2.2-1-2.2-2.2l0,0
	v-38.1c0-1.2,1-2.2,2.2-2.2l0,0L117.9,164L117.9,164L117.9,164z"/>
<text transform="matrix(0.85 0 0 1 62.7593 177.8693)" class="st5 st4">«Type»</text>
<text transform="matrix(0.85 0 0 1 54.9468 189.1506)" class="st7 st4">gml::_Solid</text>
<path class="st0" d="M321.9,322.5c1.2,0,2.2,1,2.2,2.2l0,0v55.4l0,0c0,1.2-1,2.2-2.2,2.2l0,0l0,0h-81.6l0,0c-1.2,0-2.2-1-2.2-2.2
	l0,0v-55.4c0-1.2,1-2.2,2.2-2.2l0,0H321.9L321.9,322.5L321.9,322.5z"/>
<path class="st1" d="M319.3,319.9c1.2,0,2.2,1,2.2,2.2l0,0v55.4l0,0c0,1.2-1,2.2-2.2,2.2l0,0l0,0h-81.6l0,0c-1.2,0-2.2-1-2.2-2.2
	l0,0v-55.4c0-1.2,1-2.2,2.2-2.2l0,0H319.3L319.3,319.9L319.3,319.9z"/>
<path class="st2" d="M319.3,319.9c1.2,0,2.2,1,2.2,2.2l0,0v55.4l0,0c0,1.2-1,2.2-2.2,2.2l0,0l0,0h-81.6l0,0c-1.2,0-2.2-1-2.2-2.2
	l0,0v-55.4c0-1.2,1-2.2,2.2-2.2l0,0H319.3L319.3,319.9L319.3,319.9z"/>
<text transform="matrix(0.85 0 0 1 264.165 333.7912)" class="st5 st4">«Type»</text>
<text transform="matrix(0.85 0 0 1 253.7432 345.0412)" class="st6 st4">gml::Surface</text>
<path class="st0" d="M780.3,184.8c1.2,0,2.2,1,2.2,2.2l0,0v37.2l0,0c0,1.2-1,2.2-2.2,2.2l0,0l0,0h-81.6l0,0c-1.2,0-2.2-1-2.2-2.2
	l0,0V187c0-1.2,1-2.2,2.2-2.2l0,0H780.3L780.3,184.8L780.3,184.8z"/>
<path class="st1" d="M777.7,182.2c1.2,0,2.2,1,2.2,2.2l0,0v37.2l0,0c0,1.2-1,2.2-2.2,2.2l0,0l0,0H696l0,0c-1.2,0-2.2-1-2.2-2.2l0,0
	v-37.2c0-1.2,1-2.2,2.2-2.2l0,0H777.7L777.7,182.2L777.7,182.2z"/>
<path class="st2" d="M777.7,182.2c1.2,0,2.2,1,2.2,2.2l0,0v37.2l0,0c0,1.2-1,2.2-2.2,2.2l0,0l0,0H696l0,0c-1.2,0-2.2-1-2.2-2.2l0,0
	v-37.2c0-1.2,1-2.2,2.2-2.2l0,0H777.7L777.7,182.2L777.7,182.2z"/>
<text transform="matrix(0.85 0 0 1 722.5244 196.0568)" class="st5 st4">«Type»</text>
<text transform="matrix(0.85 0 0 1 712.9775 207.3224)" class="st7 st4">gml::_Curve</text>
<path class="st0" d="M354.9,175.3c1.2,0,2.2,1,2.2,2.2l0,0v64.1l0,0c0,1.2-1,2.2-2.2,2.2l0,0l0,0h-81.6l0,0c-1.2,0-2.2-1-2.2-2.2
	l0,0v-64.1c0-1.2,1-2.2,2.2-2.2l0,0H354.9L354.9,175.3L354.9,175.3z"/>
<path class="st1" d="M352.3,172.7c1.2,0,2.2,1,2.2,2.2l0,0V239l0,0c0,1.2-1,2.2-2.2,2.2l0,0l0,0h-81.6l0,0c-1.2,0-2.2-1-2.2-2.2l0,0
	v-64.1c0-1.2,1-2.2,2.2-2.2l0,0H352.3L352.3,172.7L352.3,172.7z"/>
<path class="st2" d="M352.3,172.7c1.2,0,2.2,1,2.2,2.2l0,0V239l0,0c0,1.2-1,2.2-2.2,2.2l0,0l0,0h-81.6l0,0c-1.2,0-2.2-1-2.2-2.2l0,0
	v-64.1c0-1.2,1-2.2,2.2-2.2l0,0H352.3L352.3,172.7L352.3,172.7z"/>
<text transform="matrix(0.85 0 0 1 297.1494 186.5256)" class="st5 st4">«Type»</text>
<text transform="matrix(0.85 0 0 1 284.9932 197.7912)" class="st6 st4">gml::_Surface</text>
<path class="st0" d="M146.5,305.2c1.2,0,2.2,1,2.2,2.2l0,0v38.1l0,0c0,1.2-1,2.2-2.2,2.2l0,0l0,0H64.9l0,0c-1.2,0-2.2-1-2.2-2.2l0,0
	v-38.1c0-1.2,1-2.2,2.2-2.2l0,0H146.5L146.5,305.2L146.5,305.2z"/>
<path class="st1" d="M143.9,302.6c1.2,0,2.2,1,2.2,2.2l0,0v38.1l0,0c0,1.2-1,2.2-2.2,2.2l0,0l0,0H62.3l0,0c-1.2,0-2.2-1-2.2-2.2l0,0
	v-38.1c0-1.2,1-2.2,2.2-2.2l0,0H143.9L143.9,302.6L143.9,302.6z"/>
<path class="st2" d="M143.9,302.6c1.2,0,2.2,1,2.2,2.2l0,0v38.1l0,0c0,1.2-1,2.2-2.2,2.2l0,0l0,0H62.3l0,0c-1.2,0-2.2-1-2.2-2.2l0,0
	v-38.1c0-1.2,1-2.2,2.2-2.2l0,0H143.9L143.9,302.6L143.9,302.6z"/>
<text transform="matrix(0.85 0 0 1 88.79 316.4474)" class="st5 st4">«Type»</text>
<text transform="matrix(0.85 0 0 1 83.5884 327.7131)" class="st6 st4">gml::Solid</text>
<path class="st0" d="M207.3,400.5c1.2,0,2.2,1,2.2,2.2l0,0v64.1l0,0c0,1.2-1,2.2-2.2,2.2l0,0l0,0h-81.6l0,0c-1.2,0-2.2-1-2.2-2.2
	l0,0v-64.1c0-1.2,1-2.2,2.2-2.2l0,0H207.3L207.3,400.5L207.3,400.5z"/>
<path class="st1" d="M204.7,397.9c1.2,0,2.2,1,2.2,2.2l0,0v64.1l0,0c0,1.2-1,2.2-2.2,2.2l0,0l0,0h-81.6l0,0c-1.2,0-2.2-1-2.2-2.2
	l0,0V400c0-1.2,1-2.2,2.2-2.2l0,0h81.6V397.9L204.7,397.9z"/>
<path class="st2" d="M204.7,397.9c1.2,0,2.2,1,2.2,2.2l0,0v64.1l0,0c0,1.2-1,2.2-2.2,2.2l0,0l0,0h-81.6l0,0c-1.2,0-2.2-1-2.2-2.2
	l0,0V400c0-1.2,1-2.2,2.2-2.2l0,0h81.6V397.9L204.7,397.9z"/>
<text transform="matrix(0.85 0 0 1 149.5718 411.7141)" class="st5 st4">«Type»</text>
<text transform="matrix(0.85 0 0 1 153.915 422.9953)" class="st6 st4">gml::</text>
<text transform="matrix(0.85 0 0 1 127.8682 434.2609)" class="st6 st4">CompositeSurface</text>
<path class="st0" d="M450.4,322.5c1.2,0,2.2,1,2.2,2.2l0,0v55.4l0,0c0,1.2-1,2.2-2.2,2.2l0,0l0,0h-81.6l0,0c-1.2,0-2.2-1-2.2-2.2
	l0,0v-55.4c0-1.2,1-2.2,2.2-2.2l0,0H450.4L450.4,322.5L450.4,322.5z"/>
<path class="st1" d="M447.8,319.9c1.2,0,2.2,1,2.2,2.2l0,0v55.4l0,0c0,1.2-1,2.2-2.2,2.2l0,0l0,0h-81.6l0,0c-1.2,0-2.2-1-2.2-2.2
	l0,0v-55.4c0-1.2,1-2.2,2.2-2.2l0,0H447.8L447.8,319.9L447.8,319.9z"/>
<path class="st2" d="M447.8,319.9c1.2,0,2.2,1,2.2,2.2l0,0v55.4l0,0c0,1.2-1,2.2-2.2,2.2l0,0l0,0h-81.6l0,0c-1.2,0-2.2-1-2.2-2.2
	l0,0v-55.4c0-1.2,1-2.2,2.2-2.2l0,0H447.8L447.8,319.9L447.8,319.9z"/>
<text transform="matrix(0.85 0 0 1 392.6494 333.7912)" class="st5 st4">«Type»</text>
<text transform="matrix(0.85 0 0 1 381.3525 345.0412)" class="st6 st4">gml::Polygon</text>
<path class="st0" d="M629.2,322.5c1.2,0,2.2,1,2.2,2.2l0,0v55.4l0,0c0,1.2-1,2.2-2.2,2.2l0,0l0,0H481.6l0,0c-1.2,0-2.2-1-2.2-2.2
	l0,0v-55.4c0-1.2,1-2.2,2.2-2.2l0,0H629.2L629.2,322.5L629.2,322.5z"/>
<path class="st1" d="M626.6,319.9c1.2,0,2.2,1,2.2,2.2l0,0v55.4l0,0c0,1.2-1,2.2-2.2,2.2l0,0l0,0H479l0,0c-1.2,0-2.2-1-2.2-2.2l0,0
	v-55.4c0-1.2,1-2.2,2.2-2.2l0,0H626.6L626.6,319.9L626.6,319.9z"/>
<path class="st2" d="M626.6,319.9c1.2,0,2.2,1,2.2,2.2l0,0v55.4l0,0c0,1.2-1,2.2-2.2,2.2l0,0l0,0H479l0,0c-1.2,0-2.2-1-2.2-2.2l0,0
	v-55.4c0-1.2,1-2.2,2.2-2.2l0,0H626.6L626.6,319.9L626.6,319.9z"/>
<text transform="matrix(0.85 0 0 1 538.4775 333.7912)" class="st5 st4">«Type»</text>
<text transform="matrix(0.85 0 0 1 506.3525 345.0412)" class="st6 st4">gml::OrientableSurface</text>
<line class="st2" x1="476.9" y1="352" x2="628.8" y2="352"/>
<text transform="matrix(0.85 0 0 1 -7709.4541 -7836.5918)" class="st5" style="font-size:4.7638px;">i</text>
<text transform="matrix(0.85 0 0 1 481.1807 364.1037)" class="st5 st4">+ orientation: gml::SignType [0..1]</text>
<path class="st0" d="M615.3,426.5c1.2,0,2.2,1,2.2,2.2l0,0v64.1l0,0c0,1.2-1,2.2-2.2,2.2l0,0l0,0h-81.6l0,0c-1.2,0-2.2-1-2.2-2.2
	l0,0v-64.1c0-1.2,1-2.2,2.2-2.2l0,0H615.3L615.3,426.5L615.3,426.5z"/>
<path class="st1" d="M612.7,423.9c1.2,0,2.2,1,2.2,2.2l0,0v64.1l0,0c0,1.2-1,2.2-2.2,2.2l0,0l0,0h-81.6l0,0c-1.2,0-2.2-1-2.2-2.2
	l0,0V426c0-1.2,1-2.2,2.2-2.2l0,0h81.6V423.9L612.7,423.9z"/>
<path class="st2" d="M612.7,423.9c1.2,0,2.2,1,2.2,2.2l0,0v64.1l0,0c0,1.2-1,2.2-2.2,2.2l0,0l0,0h-81.6l0,0c-1.2,0-2.2-1-2.2-2.2
	l0,0V426c0-1.2,1-2.2,2.2-2.2l0,0h81.6V423.9L612.7,423.9z"/>
<text transform="matrix(0.85 0 0 1 557.5869 437.7141)" class="st5 st4">«type»</text>
<text transform="matrix(0.85 0 0 1 551.5088 448.9953)" class="st6 st4">gml::_Ring</text>
<path class="st0" d="M321,591c1.2,0,2.2,1,2.2,2.2l0,0V633l0,0c0,1.2-1,2.2-2.2,2.2l0,0l0,0h-81.6l0,0c-1.2,0-2.2-1-2.2-2.2l0,0
	v-39.8c0-1.2,1-2.2,2.2-2.2l0,0H321L321,591L321,591z"/>
<path class="st1" d="M318.4,588.4c1.2,0,2.2,1,2.2,2.2l0,0v39.8l0,0c0,1.2-1,2.2-2.2,2.2l0,0l0,0h-81.6l0,0c-1.2,0-2.2-1-2.2-2.2
	l0,0v-39.8c0-1.2,1-2.2,2.2-2.2l0,0H318.4L318.4,588.4L318.4,588.4z"/>
<path class="st2" d="M318.4,588.4c1.2,0,2.2,1,2.2,2.2l0,0v39.8l0,0c0,1.2-1,2.2-2.2,2.2l0,0l0,0h-81.6l0,0c-1.2,0-2.2-1-2.2-2.2
	l0,0v-39.8c0-1.2,1-2.2,2.2-2.2l0,0H318.4L318.4,588.4L318.4,588.4z"/>
<text transform="matrix(0.85 0 0 1 257.2 599.6828)" class="st3 st4">_SurfacePatch</text>
<text transform="matrix(0.85 0 0 1 252.8843 616.1359)" class="st5 st4">«DataType»</text>
<text transform="matrix(0.85 0 0 1 252.0093 627.4016)" class="st6 st4">gml::Triangle</text>
<path class="st0" d="M433,591c1.2,0,2.2,1,2.2,2.2l0,0v37.2l0,0c0,1.2-1,2.2-2.2,2.2l0,0l0,0h-81.6l0,0c-1.2,0-2.2-1-2.2-2.2l0,0
	v-37.2c0-1.2,1-2.2,2.2-2.2l0,0H433L433,591L433,591z"/>
<path class="st1" d="M430.4,588.4c1.2,0,2.2,1,2.2,2.2l0,0v37.2l0,0c0,1.2-1,2.2-2.2,2.2l0,0l0,0h-81.6l0,0c-1.2,0-2.2-1-2.2-2.2
	l0,0v-37.2c0-1.2,1-2.2,2.2-2.2l0,0H430.4L430.4,588.4L430.4,588.4z"/>
<path class="st2" d="M430.4,588.4c1.2,0,2.2,1,2.2,2.2l0,0v37.2l0,0c0,1.2-1,2.2-2.2,2.2l0,0l0,0h-81.6l0,0c-1.2,0-2.2-1-2.2-2.2
	l0,0v-37.2c0-1.2,1-2.2,2.2-2.2l0,0H430.4L430.4,588.4L430.4,588.4z"/>
<text transform="matrix(0.85 0 0 1 370.3257 599.6828)" class="st3 st4">_SurfacePatch</text>
<text transform="matrix(0.85 0 0 1 364.8525 616.1359)" class="st5 st4">«DataType»</text>
<text transform="matrix(0.85 0 0 1 359.665 627.4016)" class="st6 st4">gml::Rectangle</text>
<path class="st0" d="M640.5,530.4c1.2,0,2.2,1,2.2,2.2l0,0V588l0,0c0,1.2-1,2.2-2.2,2.2l0,0l0,0h-158l0,0c-1.2,0-2.2-1-2.2-2.2l0,0
	v-55.4c0-1.2,1-2.2,2.2-2.2l0,0L640.5,530.4L640.5,530.4L640.5,530.4z"/>
<path class="st1" d="M637.9,527.8c1.2,0,2.2,1,2.2,2.2l0,0v55.4l0,0c0,1.2-1,2.2-2.2,2.2l0,0l0,0h-158l0,0c-1.2,0-2.2-1-2.2-2.2l0,0
	V530c0-1.2,1-2.2,2.2-2.2l0,0H637.9L637.9,527.8L637.9,527.8z"/>
<path class="st2" d="M637.9,527.8c1.2,0,2.2,1,2.2,2.2l0,0v55.4l0,0c0,1.2-1,2.2-2.2,2.2l0,0l0,0h-158l0,0c-1.2,0-2.2-1-2.2-2.2l0,0
	V530c0-1.2,1-2.2,2.2-2.2l0,0H637.9L637.9,527.8L637.9,527.8z"/>
<text transform="matrix(0.85 0 0 1 544.5557 541.6516)" class="st5 st4">«Type»</text>
<text transform="matrix(0.85 0 0 1 528.0713 552.9172)" class="st6 st4">gml::LinearRing</text>
<line class="st2" x1="477.7" y1="559.8" x2="640.1" y2="559.8"/>
<text transform="matrix(0.85 0 0 1 -7709.4541 -7836.5918)" class="st5" style="font-size:4.7638px;">i</text>
<text transform="matrix(0.85 0 0 1 -7709.4541 -7836.5918)" class="st5" style="font-size:4.7638px;">i</text>
<text transform="matrix(0.85 0 0 1 482.0557 571.9797)" class="st5 st4">+ position: gml::DirectPositon [4..*]</text>
<path class="st0" d="M208.2,487.1c1.2,0,2.2,1,2.2,2.2l0,0v37.2l0,0c0,1.2-1,2.2-2.2,2.2l0,0l0,0H100.5l0,0c-1.2,0-2.2-1-2.2-2.2
	l0,0v-37.2c0-1.2,1-2.2,2.2-2.2l0,0L208.2,487.1L208.2,487.1L208.2,487.1z"/>
<path class="st1" d="M205.6,484.5c1.2,0,2.2,1,2.2,2.2l0,0v37.2l0,0c0,1.2-1,2.2-2.2,2.2l0,0l0,0H97.9l0,0c-1.2,0-2.2-1-2.2-2.2l0,0
	v-37.2c0-1.2,1-2.2,2.2-2.2l0,0H205.6L205.6,484.5L205.6,484.5z"/>
<path class="st2" d="M205.6,484.5c1.2,0,2.2,1,2.2,2.2l0,0v37.2l0,0c0,1.2-1,2.2-2.2,2.2l0,0l0,0H97.9l0,0c-1.2,0-2.2-1-2.2-2.2l0,0
	v-37.2c0-1.2,1-2.2,2.2-2.2l0,0H205.6L205.6,484.5L205.6,484.5z"/>
<text transform="matrix(0.85 0 0 1 137.415 498.3703)" class="st5 st4">«Type»</text>
<text transform="matrix(0.85 0 0 1 101.8218 509.6203)" class="st6 st4">gml::TriangulatedSurface</text>
<path class="st0" d="M229.9,591c1.2,0,2.2,1,2.2,2.2l0,0v81.4l0,0c0,1.2-1,2.2-2.2,2.2l0,0l0,0h-191l0,0c-1.2,0-2.2-1-2.2-2.2l0,0
	v-81.4c0-1.2,1-2.2,2.2-2.2l0,0H229.9L229.9,591L229.9,591z"/>
<path class="st1" d="M227.3,588.4c1.2,0,2.2,1,2.2,2.2l0,0V672l0,0c0,1.2-1,2.2-2.2,2.2l0,0l0,0h-191l0,0c-1.2,0-2.2-1-2.2-2.2l0,0
	v-81.4c0-1.2,1-2.2,2.2-2.2l0,0L227.3,588.4L227.3,588.4L227.3,588.4z"/>
<path class="st2" d="M227.3,588.4c1.2,0,2.2,1,2.2,2.2l0,0V672l0,0c0,1.2-1,2.2-2.2,2.2l0,0l0,0h-191l0,0c-1.2,0-2.2-1-2.2-2.2l0,0
	v-81.4c0-1.2,1-2.2,2.2-2.2l0,0L227.3,588.4L227.3,588.4L227.3,588.4z"/>
<text transform="matrix(0.85 0 0 1 117.4468 602.2922)" class="st5 st4">«Type»</text>
<text transform="matrix(0.85 0 0 1 115.7134 613.5578)" class="st6 st4">gml::Tin</text>
<line class="st2" x1="34.1" y1="620.5" x2="229.4" y2="620.5"/>
<text transform="matrix(0.85 0 0 1 38.4468 632.6047)" class="st5 st4">+ stopLines: gml::LineStringSegment [0..*]</text>
<text transform="matrix(0.85 0 0 1 38.4468 643.8703)" class="st5 st4">+ breakLines: gml::LineStringSegment [0..*]</text>
<text transform="matrix(0.85 0 0 1 38.4468 655.1203)" class="st5 st4">+ maxLength: gml::LengthType</text>
<text transform="matrix(0.85 0 0 1 38.4468 666.3703)" class="st5 st4">+ controlPoint: gml::posList</text>
<path class="st0" d="M896.6,287.9c1.2,0,2.2,1,2.2,2.2l0,0v64.1l0,0c0,1.2-1,2.2-2.2,2.2l0,0l0,0H742.1l0,0c-1.2,0-2.2-1-2.2-2.2
	l0,0V290c0-1.2,1-2.2,2.2-2.2l0,0h154.5V287.9L896.6,287.9z"/>
<path class="st1" d="M894,285.3c1.2,0,2.2,1,2.2,2.2l0,0v64.1l0,0c0,1.2-1,2.2-2.2,2.2l0,0l0,0H739.5l0,0c-1.2,0-2.2-1-2.2-2.2l0,0
	v-64.1c0-1.2,1-2.2,2.2-2.2l0,0H894L894,285.3L894,285.3z"/>
<path class="st2" d="M894,285.3c1.2,0,2.2,1,2.2,2.2l0,0v64.1l0,0c0,1.2-1,2.2-2.2,2.2l0,0l0,0H739.5l0,0c-1.2,0-2.2-1-2.2-2.2l0,0
	v-64.1c0-1.2,1-2.2,2.2-2.2l0,0H894L894,285.3L894,285.3z"/>
<text transform="matrix(0.85 0 0 1 802.3838 299.1506)" class="st5 st4">«Type»</text>
<text transform="matrix(0.85 0 0 1 786.7588 310.4006)" class="st6 st4">gml::LineString</text>
<line class="st2" x1="737.3" y1="317.3" x2="896.1" y2="317.3"/>
<text transform="matrix(0.85 0 0 1 -7709.4541 -7836.5918)" class="st5" style="font-size:4.7638px;">i</text>
<text transform="matrix(0.85 0 0 1 -7709.4541 -7836.5918)" class="st5" style="font-size:4.7638px;">i</text>
<text transform="matrix(0.85 0 0 1 741.6338 329.4631)" class="st5 st4">+ position: gml::DirectPosition [2..*]</text>
<path class="st0" d="M745.5,391.8c1.2,0,2.2,1,2.2,2.2l0,0v29.4l0,0c0,1.2-1,2.2-2.2,2.2l0,0l0,0H637.9l0,0c-1.2,0-2.2-1-2.2-2.2
	l0,0V394c0-1.2,1-2.2,2.2-2.2l0,0H745.5L745.5,391.8L745.5,391.8z"/>
<path class="st1" d="M742.9,389.2c1.2,0,2.2,1,2.2,2.2l0,0v29.4l0,0c0,1.2-1,2.2-2.2,2.2l0,0l0,0H635.3l0,0c-1.2,0-2.2-1-2.2-2.2
	l0,0v-29.4c0-1.2,1-2.2,2.2-2.2l0,0H742.9L742.9,389.2L742.9,389.2z"/>
<path class="st2" d="M742.9,389.2c1.2,0,2.2,1,2.2,2.2l0,0v29.4l0,0c0,1.2-1,2.2-2.2,2.2l0,0l0,0H635.3l0,0c-1.2,0-2.2-1-2.2-2.2
	l0,0v-29.4c0-1.2,1-2.2,2.2-2.2l0,0H742.9L742.9,389.2L742.9,389.2z"/>
<text transform="matrix(0.85 0 0 1 674.7744 403.0734)" class="st5 st4">«Type»</text>
<text transform="matrix(0.85 0 0 1 646.1182 414.3391)" class="st6 st4">gml::CompositeCurve</text>
<path class="st0" d="M938.3,184.8c1.2,0,2.2,1,2.2,2.2l0,0v46.8l0,0c0,1.2-1,2.2-2.2,2.2l0,0l0,0H802.8l0,0c-1.2,0-2.2-1-2.2-2.2
	l0,0V187c0-1.2,1-2.2,2.2-2.2l0,0H938.3L938.3,184.8L938.3,184.8z"/>
<path class="st1" d="M935.6,182.2c1.2,0,2.2,1,2.2,2.2l0,0v46.8l0,0c0,1.2-1,2.2-2.2,2.2l0,0l0,0H800.2l0,0c-1.2,0-2.2-1-2.2-2.2
	l0,0v-46.8c0-1.2,1-2.2,2.2-2.2l0,0H935.6L935.6,182.2L935.6,182.2z"/>
<path class="st2" d="M935.6,182.2c1.2,0,2.2,1,2.2,2.2l0,0v46.8l0,0c0,1.2-1,2.2-2.2,2.2l0,0l0,0H800.2l0,0c-1.2,0-2.2-1-2.2-2.2
	l0,0v-46.8c0-1.2,1-2.2,2.2-2.2l0,0H935.6L935.6,182.2L935.6,182.2z"/>
<text transform="matrix(0.85 0 0 1 853.6025 196.0568)" class="st5 st4">«Type»</text>
<text transform="matrix(0.85 0 0 1 847.5244 207.3224)" class="st6 st4">gml::Point</text>
<line class="st2" x1="798.1" y1="214.3" x2="937.8" y2="214.3"/>
<text transform="matrix(0.85 0 0 1 -7709.4541 -7836.5918)" class="st5" style="font-size:4.7638px;">i</text>
<text transform="matrix(0.85 0 0 1 -7709.4541 -7836.5918)" class="st5" style="font-size:4.7638px;">i</text>
<text transform="matrix(0.85 0 0 1 802.3838 226.3693)" class="st5 st4">+ position: gml::DirectPosition</text>
<path class="st8" d="M173,25.4c1.4,0,2.6,1.2,2.6,2.6l0,0v80.6l0,0c0,1.4-1.2,2.6-2.6,2.6l0,0l0,0H28l0,0c-1.4,0-2.6-1.2-2.6-2.6V28
	c0-1.4,1.2-2.6,2.6-2.6l0,0H173L173,25.4L173,25.4z"/>
<path class="st9" d="M173,25.4c1.4,0,2.6,1.2,2.6,2.6l0,0v80.6l0,0c0,1.4-1.2,2.6-2.6,2.6l0,0l0,0H28l0,0c-1.4,0-2.6-1.2-2.6-2.6V28
	c0-1.4,1.2-2.6,2.6-2.6l0,0H173L173,25.4L173,25.4z"/>
<path class="st1" d="M45.8,51.4c1.2,0,2.2,1,2.2,2.2l0,0v9.5l0,0c0,1.2-1,2.2-2.2,2.2l0,0l0,0h-9.5l0,0c-1.2,0-2.2-1-2.2-2.2l0,0
	v-9.5c0-1.2,1-2.2,2.2-2.2l0,0H45.8L45.8,51.4L45.8,51.4z"/>
<path class="st10" d="M45.8,51.4c1.2,0,2.2,1,2.2,2.2l0,0v9.5l0,0c0,1.2-1,2.2-2.2,2.2l0,0l0,0h-9.5l0,0c-1.2,0-2.2-1-2.2-2.2l0,0
	v-9.5c0-1.2,1-2.2,2.2-2.2l0,0H45.8L45.8,51.4L45.8,51.4z"/>
<text transform="matrix(0.85 0 0 1 53.2134 62.6818)" class="st11 st12 st13">GMLに定義されたクラス</text>
<path class="st14" d="M45.8,67.9c1.2,0,2.2,1,2.2,2.2l0,0v9.5l0,0c0,1.2-1,2.2-2.2,2.2l0,0l0,0h-9.5l0,0c-1.2,0-2.2-1-2.2-2.2l0,0
	V70c0-1.2,1-2.2,2.2-2.2l0,0L45.8,67.9L45.8,67.9L45.8,67.9z"/>
<path class="st10" d="M45.8,67.9c1.2,0,2.2,1,2.2,2.2l0,0v9.5l0,0c0,1.2-1,2.2-2.2,2.2l0,0l0,0h-9.5l0,0c-1.2,0-2.2-1-2.2-2.2l0,0
	V70c0-1.2,1-2.2,2.2-2.2l0,0L45.8,67.9L45.8,67.9L45.8,67.9z"/>
<text transform="matrix(0.85 0 0 1 53.2134 79.1506)" class="st11 st12 st13">CityGMLに定義されたクラス</text>
<path class="st15" d="M45.8,84.3c1.2,0,2.2,1,2.2,2.2l0,0V96l0,0c0,1.2-1,2.2-2.2,2.2l0,0l0,0h-9.5l0,0c-1.2,0-2.2-1-2.2-2.2l0,0
	v-9.5c0-1.2,1-2.2,2.2-2.2l0,0H45.8L45.8,84.3L45.8,84.3z"/>
<path class="st10" d="M45.8,84.3c1.2,0,2.2,1,2.2,2.2l0,0V96l0,0c0,1.2-1,2.2-2.2,2.2l0,0l0,0h-9.5l0,0c-1.2,0-2.2-1-2.2-2.2l0,0
	v-9.5c0-1.2,1-2.2,2.2-2.2l0,0H45.8L45.8,84.3L45.8,84.3z"/>
<text transform="matrix(0.85 0 0 1 53.2134 95.5881)" class="st11 st12 st13">i-URに定義されたクラス</text>
<text transform="matrix(0.85 0 0 1 87.0718 43.6193)" class="st11 st16 st17">凡例</text>
<text transform="matrix(0.85 0 0 1 87.0718 43.6193)" class="st18 st16 st17">凡例</text>
<line class="st19" x1="553.2" y1="319.1" x2="553.2" y2="285.3"/>
<line class="st19" x1="553.2" y1="285.3" x2="311.9" y2="285.3"/>
<line class="st19" x1="311.9" y1="285.3" x2="311.9" y2="242.8"/>
<polyline class="st20" points="317.1,256.7 306.7,256.7 311.9,242.8 317.1,256.7 "/>
<polygon class="st19" points="317.1,256.7 306.7,256.7 311.9,242.8 "/>
<line class="st19" x1="278.1" y1="319.1" x2="278.1" y2="285.3"/>
<line class="st19" x1="736.4" y1="181.3" x2="736.4" y2="136.3"/>
<line class="st19" x1="351" y1="136.3" x2="351" y2="93.9"/>
<polyline class="st20" points="356.2,107.7 345.8,107.7 351,93.9 356.2,107.7 "/>
<polygon class="st19" points="356.2,107.7 345.8,107.7 351,93.9 "/>
<line class="st19" x1="311.9" y1="171.8" x2="311.9" y2="136.3"/>
<line class="st19" x1="131.3" y1="301.7" x2="131.3" y2="176.1"/>
<line class="st19" x1="131.3" y1="176.1" x2="267.6" y2="176.1"/>
<path class="st19" d="M267.6,176.1l-13,5.2 M267.6,176.1l-13-5.2"/>
<line class="st19" x1="139.2" y1="301.7" x2="139.2" y2="206.5"/>
<line class="st19" x1="139.2" y1="206.5" x2="267.6" y2="206.5"/>
<path class="st19" d="M267.6,206.5l-13,5.2 M267.6,206.5l-13-5.2"/>
<line class="st19" x1="103.6" y1="301.7" x2="103.6" y2="250.6"/>
<line class="st19" x1="103.6" y1="250.6" x2="77.5" y2="250.6"/>
<line class="st19" x1="77.5" y1="250.6" x2="77.5" y2="208.2"/>
<polyline class="st20" points="82.7,222 72.3,222 77.5,208.2 82.7,222 "/>
<polygon class="st19" points="82.7,222 72.3,222 77.5,208.2 "/>
<line class="st19" x1="180.8" y1="397" x2="180.8" y2="285.3"/>
<line class="st19" x1="180.8" y1="285.3" x2="311.9" y2="285.3"/>
<line class="st19" x1="163.5" y1="397" x2="163.5" y2="274"/>
<line class="st19" x1="163.5" y1="274" x2="163.5" y2="227.2"/>
<line class="st19" x1="163.5" y1="227.2" x2="267.6" y2="227.2"/>
<path class="st19" d="M267.6,227.2l-13,5.2 M267.6,227.2l-13-5.2"/>
<line class="st19" x1="408.3" y1="319.1" x2="408.3" y2="285.3"/>
<line class="st19" x1="77.5" y1="163.1" x2="77.5" y2="136.3"/>
<line class="st19" x1="77.5" y1="136.3" x2="351" y2="136.3"/>
<line class="st19" x1="437.8" y1="381.4" x2="437.8" y2="438.6"/>
<line class="st19" x1="437.8" y1="438.6" x2="528.1" y2="438.6"/>
<path class="st19" d="M528.1,438.6l-13,5.2 M528.1,438.6l-13-5.2"/>
<line class="st19" x1="867.5" y1="181.3" x2="867.5" y2="136.3"/>
<line class="st19" x1="867.5" y1="136.3" x2="351" y2="136.3"/>
<line class="st19" x1="567.1" y1="319.1" x2="567.1" y2="207.3"/>
<line class="st19" x1="567.1" y1="207.3" x2="456.9" y2="206.5"/>
<line class="st19" x1="456.9" y1="206.5" x2="356.2" y2="206.5"/>
<path class="st19" d="M356.2,206.5l13-5.2 M356.2,206.5l13,5.2"/>
<line class="st19" x1="278.1" y1="633.5" x2="278.1" y2="652.5"/>
<line class="st19" x1="278.1" y1="652.5" x2="446.5" y2="652.5"/>
<line class="st19" x1="446.5" y1="652.5" x2="446.5" y2="491.4"/>
<line class="st19" x1="446.5" y1="491.4" x2="528.9" y2="491.4"/>
<path class="st19" d="M528.9,491.4l-13,5.2 M528.9,491.4l-13-5.2"/>
<line class="st19" x1="252" y1="587.6" x2="252" y2="519.1"/>
<line class="st19" x1="252" y1="519.1" x2="209.5" y2="519.1"/>
<polyline class="st21" points="218.2,514.8 209.5,519.1 218.2,523.5 226.8,519.1 218.2,514.8 "/>
<polygon class="st19" points="218.2,514.8 209.5,519.1 218.2,523.5 226.8,519.1 "/>
<path class="st19" d="M252,587.6l5.2-13 M252,587.6l-5.2-13"/>
<line class="st19" x1="420.4" y1="587.6" x2="420.4" y2="470.6"/>
<line class="st19" x1="420.4" y1="470.6" x2="528.1" y2="470.6"/>
<path class="st19" d="M528.1,470.6l-13,5.2 M528.1,470.6l-13-5.2"/>
<line class="st19" x1="574.1" y1="526.9" x2="574.1" y2="494"/>
<polyline class="st20" points="579.3,507.9 568.9,507.9 574.1,494 579.3,507.9 "/>
<polygon class="st19" points="579.3,507.9 568.9,507.9 574.1,494 "/>
<line class="st19" x1="209.5" y1="495.7" x2="251.1" y2="495.7"/>
<line class="st19" x1="251.1" y1="495.7" x2="251.1" y2="420.4"/>
<line class="st19" x1="251.1" y1="420.4" x2="251.1" y2="381.4"/>
<polyline class="st20" points="256.3,395.3 245.9,395.3 251.1,381.4 256.3,395.3 "/>
<polygon class="st19" points="256.3,395.3 245.9,395.3 251.1,381.4 "/>
<line class="st19" x1="129.6" y1="587.6" x2="129.6" y2="527.8"/>
<polyline class="st20" points="134.8,541.7 124.4,541.7 129.6,527.8 134.8,541.7 "/>
<polygon class="st19" points="134.8,541.7 124.4,541.7 129.6,527.8 "/>
<line class="st19" x1="817.1" y1="284.4" x2="817.1" y2="268"/>
<line class="st19" x1="817.1" y1="268" x2="737.3" y2="268"/>
<line class="st19" x1="737.3" y1="268" x2="737.3" y2="225.5"/>
<polyline class="st20" points="742.5,239.4 732.1,239.4 737.3,225.5 742.5,239.4 "/>
<polygon class="st19" points="742.5,239.4 732.1,239.4 737.3,225.5 "/>
<line class="st19" x1="650.5" y1="388.3" x2="650.5" y2="388.3"/>
<line class="st19" x1="650.5" y1="388.3" x2="650.5" y2="203"/>
<line class="st19" x1="650.5" y1="203" x2="693" y2="203"/>
<path class="st19" d="M693,203l-13,5.2 M693,203l-13-5.2"/>
<line class="st19" x1="688.7" y1="388.3" x2="688.7" y2="268"/>
<line class="st19" x1="688.7" y1="268" x2="737.3" y2="268"/>
<line class="st19" x1="418.7" y1="381.4" x2="418.7" y2="455.9"/>
<line class="st19" x1="418.7" y1="455.9" x2="528.1" y2="455.9"/>
<path class="st19" d="M528.1,455.9l-13,5.2 M528.1,455.9l-13-5.2"/>
<text transform="matrix(0.85 0 0 1 229.4473 169.2131)" class="st5 st4">+interior</text>
<text transform="matrix(0.85 0 0 1 238.1182 188.2756)" class="st5 st4">0..*</text>
<text transform="matrix(0.85 0 0 1 152.1807 218.5881)" class="st5 st4">+surfaceMember</text>
<text transform="matrix(0.85 0 0 1 197.3223 239.3693)" class="st5 st4">1..*</text>
<text transform="matrix(0.85 0 0 1 452.54 480.1516)" class="st5 st4">+exterior</text>
<text transform="matrix(0.85 0 0 1 502.0244 482.7609)" class="st5 st4">1</text>
<text transform="matrix(0.85 0 0 1 449.9307 449.8391)" class="st5 st4">+exterior</text>
<text transform="matrix(0.85 0 0 1 508.1025 448.9953)" class="st5 st4">1</text>
<text transform="matrix(0.85 0 0 1 459.4775 502.6828)" class="st5 st4">+exterior</text>
<text transform="matrix(0.85 0 0 1 509.8369 500.9328)" class="st5 st4">1</text>
<text transform="matrix(0.85 0 0 1 449.9307 431.6516)" class="st5 st4">+interior</text>
<text transform="matrix(0.85 0 0 1 495.9473 431.6516)" class="st5 st4">0..*</text>
<text transform="matrix(0.85 0 0 1 358.7744 199.5256)" class="st5 st4">+baseSurface</text>
<text transform="matrix(0.85 0 0 1 365.7275 220.3068)" class="st5 st4">0..2</text>
<text transform="matrix(0.85 0 0 1 227.6973 199.5256)" class="st5 st4">+exterior</text>
<text transform="matrix(0.85 0 0 1 239.8525 215.9787)" class="st5 st4">1</text>
<text transform="matrix(0.85 0 0 1 617.4932 188.2756)" class="st5 st4">+curveMember</text>
<text transform="matrix(0.85 0 0 1 662.6338 330.3068)" class="st5 st4">1..*</text>
<text transform="matrix(0.85 0 0 1 181.6973 558.9953)" class="st5 st4">+trianglePatches</text>
<text transform="matrix(0.85 0 0 1 231.165 570.2453)" class="st5 st4">0..*</text>
</svg>
