<?xml version="1.0" encoding="utf-8"?>
<!-- Generator: Adobe Illustrator 27.0.1, SVG Export Plug-In . SVG Version: 6.00 Build 0)  -->
<svg version="1.1" id="レイヤー_1" xmlns="http://www.w3.org/2000/svg" xmlns:xlink="http://www.w3.org/1999/xlink" x="0px"
	 y="0px" viewBox="0 0 262.1 259.7" style="enable-background:new 0 0 262.1 259.7;" xml:space="preserve">
<style type="text/css">
	.st0{fill-rule:evenodd;clip-rule:evenodd;fill:#F0F0F0;}
	.st1{fill:none;stroke:#D7D7D7;stroke-width:0.4331;stroke-linecap:square;stroke-miterlimit:10;}
	.st2{fill-rule:evenodd;clip-rule:evenodd;fill:#A0FFC0;}
	.st3{fill:none;stroke:#000000;stroke-width:0.4331;stroke-linecap:square;stroke-miterlimit:10;}
	.st4{fill:#003060;}
	.st5{font-family:'YuGothicUI-Regular';}
	.st6{font-size:5.6299px;}
	.st7{fill-rule:evenodd;clip-rule:evenodd;fill:#FFFFCC;}
	.st8{fill-rule:evenodd;clip-rule:evenodd;fill:#FFCCFF;}
	.st9{font-family:'MS-PGothic';}
	.st10{font-size:6.9291px;}
	.st11{fill:none;stroke:#003060;stroke-width:0.198;stroke-miterlimit:10;}
	.st12{fill-rule:evenodd;clip-rule:evenodd;fill:#CFD1D8;}
	.st13{fill:none;stroke:#000000;stroke-width:0.8661;stroke-linecap:round;stroke-linejoin:round;stroke-miterlimit:10;}
	.st14{font-family:'Calibri-Italic';}
	.st15{font-family:'Calibri';}
	.st16{font-family:'Calibri-Bold';}
	.st17{font-family:'Calibri-BoldItalic';}
	.st18{fill:none;stroke:#000000;stroke-width:0.8661;stroke-linecap:round;stroke-linejoin:bevel;stroke-miterlimit:10;}
	.st19{fill-rule:evenodd;clip-rule:evenodd;}
	.st20{fill-rule:evenodd;clip-rule:evenodd;fill:#FFFFFF;}
	.st21{font-size:4.7638px;}
</style>
<path class="st0" d="M256.1,62c0.7,0,1.3,0.6,1.3,1.3l0,0v38.1l0,0c0,0.7-0.6,1.3-1.3,1.3l0,0l0,0h-77.7l0,0c-0.7,0-1.3-0.6-1.3-1.3
	V63.3c0-0.7,0.6-1.3,1.3-1.3l0,0H256.1L256.1,62L256.1,62z"/>
<path class="st1" d="M256.1,62c0.7,0,1.3,0.6,1.3,1.3l0,0v38.1l0,0c0,0.7-0.6,1.3-1.3,1.3l0,0l0,0h-77.7l0,0c-0.7,0-1.3-0.6-1.3-1.3
	V63.3c0-0.7,0.6-1.3,1.3-1.3l0,0H256.1L256.1,62L256.1,62z"/>
<path class="st2" d="M187.3,75c0.6,0,1.1,0.5,1.1,1.1l0,0v4.8l0,0c0,0.6-0.5,1.1-1.1,1.1l0,0l0,0h-4.8l0,0c-0.6,0-1.1-0.5-1.1-1.1
	l0,0v-4.8c0-0.6,0.5-1.1,1.1-1.1l0,0H187.3L187.3,75L187.3,75z"/>
<path class="st3" d="M187.3,75c0.6,0,1.1,0.5,1.1,1.1l0,0v4.8l0,0c0,0.6-0.5,1.1-1.1,1.1l0,0l0,0h-4.8l0,0c-0.6,0-1.1-0.5-1.1-1.1
	l0,0v-4.8c0-0.6,0.5-1.1,1.1-1.1l0,0H187.3L187.3,75L187.3,75z"/>
<text transform="matrix(0.85 0 0 1 191.0254 81.1047)" class="st4 st5 st6">GMLで定義されたクラス</text>
<path class="st7" d="M187.3,83.3c0.6,0,1.1,0.5,1.1,1.1l0,0v4.8l0,0c0,0.6-0.5,1.1-1.1,1.1l0,0l0,0h-4.8l0,0c-0.6,0-1.1-0.5-1.1-1.1
	l0,0v-4.8c0-0.6,0.5-1.1,1.1-1.1l0,0H187.3L187.3,83.3L187.3,83.3z"/>
<path class="st3" d="M187.3,83.3c0.6,0,1.1,0.5,1.1,1.1l0,0v4.8l0,0c0,0.6-0.5,1.1-1.1,1.1l0,0l0,0h-4.8l0,0c-0.6,0-1.1-0.5-1.1-1.1
	l0,0v-4.8c0-0.6,0.5-1.1,1.1-1.1l0,0H187.3L187.3,83.3L187.3,83.3z"/>
<text transform="matrix(0.85 0 0 1 191.0254 89.3391)" class="st4 st5 st6">CityGMLで定義されたクラス</text>
<path class="st8" d="M187.3,91.5c0.6,0,1.1,0.5,1.1,1.1l0,0v4.8l0,0c0,0.6-0.5,1.1-1.1,1.1l0,0l0,0h-4.8l0,0c-0.6,0-1.1-0.5-1.1-1.1
	l0,0v-4.8c0-0.6,0.5-1.1,1.1-1.1l0,0H187.3L187.3,91.5L187.3,91.5z"/>
<path class="st3" d="M187.3,91.5c0.6,0,1.1,0.5,1.1,1.1l0,0v4.8l0,0c0,0.6-0.5,1.1-1.1,1.1l0,0l0,0h-4.8l0,0c-0.6,0-1.1-0.5-1.1-1.1
	l0,0v-4.8c0-0.6,0.5-1.1,1.1-1.1l0,0H187.3L187.3,91.5L187.3,91.5z"/>
<text transform="matrix(0.85 0 0 1 191.0254 97.5656)" class="st4 st5 st6">i-URで定義されたクラス</text>
<text transform="matrix(0.85 0 0 1 210.5571 71.1437)" class="st4 st9 st10">凡例</text>
<text transform="matrix(0.85 0 0 1 210.5571 71.1437)" class="st11 st9 st10">凡例</text>
<path class="st12" d="M251.1,7.1c0.6,0,1.1,0.5,1.1,1.1l0,0v46.3l0,0c0,0.6-0.5,1.1-1.1,1.1l0,0l0,0h-80.3l0,0
	c-0.6,0-1.1-0.5-1.1-1.1l0,0V8.1c0-0.6,0.5-1.1,1.1-1.1l0,0L251.1,7.1L251.1,7.1L251.1,7.1z"/>
<path class="st7" d="M249.8,5.8c0.6,0,1.1,0.5,1.1,1.1l0,0v46.3l0,0c0,0.6-0.5,1.1-1.1,1.1l0,0l0,0h-80.3l0,0
	c-0.6,0-1.1-0.5-1.1-1.1l0,0V6.8c0-0.6,0.5-1.1,1.1-1.1l0,0L249.8,5.8L249.8,5.8L249.8,5.8z"/>
<path class="st13" d="M249.8,5.8c0.6,0,1.1,0.5,1.1,1.1l0,0v46.3l0,0c0,0.6-0.5,1.1-1.1,1.1l0,0l0,0h-80.3l0,0
	c-0.6,0-1.1-0.5-1.1-1.1l0,0V6.8c0-0.6,0.5-1.1,1.1-1.1l0,0L249.8,5.8L249.8,5.8L249.8,5.8z"/>
<text transform="matrix(0.85 0 0 1 222.0029 12.2453)" class="st14 st6">_CityObject</text>
<text transform="matrix(0.85 0 0 1 192.3223 21.3391)" class="st15 st6">«FeatureType»</text>
<text transform="matrix(0.85 0 0 1 182.3379 27.8469)" class="st16 st6">bldg::BuildingFurniture</text>
<line class="st13" x1="168.4" y1="31.3" x2="250.9" y2="31.3"/>
<text transform="matrix(0.85 0 0 1 170.6196 38.2375)" class="st15 st6">+ </text>
<text transform="matrix(0.85 0 0 1 179.7373 38.2375)" class="st15 st6">class: gml::CodeType [0..1]</text>
<text transform="matrix(0.85 0 0 1 170.6196 44.7297)" class="st15 st6">+ </text>
<text transform="matrix(0.85 0 0 1 179.7373 44.7297)" class="st15 st6">function: gml::CodeType [0..*]</text>
<text transform="matrix(0.85 0 0 1 170.6196 51.2219)" class="st15 st6">+ </text>
<text transform="matrix(0.85 0 0 1 179.7373 51.2219)" class="st15 st6">usage: gml::CodeType [0..*]</text>
<path class="st12" d="M77.1,15.7c0.6,0,1.1,0.5,1.1,1.1l0,0v32l0,0c0,0.6-0.5,1.1-1.1,1.1l0,0l0,0H27.6l0,0c-0.6,0-1.1-0.5-1.1-1.1
	l0,0v-32c0-0.6,0.5-1.1,1.1-1.1l0,0L77.1,15.7L77.1,15.7L77.1,15.7z"/>
<path class="st8" d="M75.8,14.4c0.6,0,1.1,0.5,1.1,1.1l0,0v32.1l0,0c0,0.6-0.5,1.1-1.1,1.1l0,0l0,0H26.3l0,0c-0.6,0-1.1-0.5-1.1-1.1
	l0,0v-32c0-0.6,0.5-1.1,1.1-1.1l0,0L75.8,14.4L75.8,14.4L75.8,14.4z"/>
<path class="st13" d="M75.8,14.4c0.6,0,1.1,0.5,1.1,1.1l0,0v32.1l0,0c0,0.6-0.5,1.1-1.1,1.1l0,0l0,0H26.3l0,0
	c-0.6,0-1.1-0.5-1.1-1.1l0,0v-32c0-0.6,0.5-1.1,1.1-1.1l0,0L75.8,14.4L75.8,14.4L75.8,14.4z"/>
<text transform="matrix(0.85 0 0 1 36.9321 22.2062)" class="st15 st6">«DataType»</text>
<text transform="matrix(0.85 0 0 1 31.7295 28.7062)" class="st17 st6">uro::IfcAttribute</text>
<path class="st12" d="M94.4,67.7c0.6,0,1.1,0.5,1.1,1.1l0,0v41.6l0,0c0,0.6-0.5,1.1-1.1,1.1l0,0l0,0H5.9l0,0c-0.6,0-1.1-0.5-1.1-1.1
	l0,0V68.8c0-0.6,0.5-1.1,1.1-1.1l0,0L94.4,67.7L94.4,67.7L94.4,67.7z"/>
<path class="st8" d="M93.1,66.4c0.6,0,1.1,0.5,1.1,1.1l0,0V109l0,0c0,0.6-0.5,1.1-1.1,1.1l0,0l0,0H4.6l0,0c-0.6,0-1.1-0.5-1.1-1.1
	l0,0V67.5c0-0.6,0.5-1.1,1.1-1.1l0,0H93.1L93.1,66.4L93.1,66.4z"/>
<path class="st13" d="M93.1,66.4c0.6,0,1.1,0.5,1.1,1.1l0,0V109l0,0c0,0.6-0.5,1.1-1.1,1.1l0,0l0,0H4.6l0,0c-0.6,0-1.1-0.5-1.1-1.1
	l0,0V67.5c0-0.6,0.5-1.1,1.1-1.1l0,0H93.1L93.1,66.4L93.1,66.4z"/>
<text transform="matrix(0.85 0 0 1 34.7607 74.1828)" class="st15 st6">«DataType»</text>
<text transform="matrix(0.85 0 0 1 34.7607 80.675)" class="st17 st6">uro::IfcRoot</text>
<line class="st13" x1="3.5" y1="84.1" x2="94.2" y2="84.1"/>
<text transform="matrix(0.85 0 0 1 5.6821 91.0656)" class="st15 st6">+ </text>
<text transform="matrix(0.85 0 0 1 14.792 91.0656)" class="st15 st6">globalId: xs::string [0..1]</text>
<text transform="matrix(0.85 0 0 1 5.6821 97.5656)" class="st15 st6">+ </text>
<text transform="matrix(0.85 0 0 1 14.792 97.5656)" class="st15 st6">name: xs::string [0..1]</text>
<text transform="matrix(0.85 0 0 1 5.6821 104.0656)" class="st15 st6">+ </text>
<text transform="matrix(0.85 0 0 1 14.792 104.0656)" class="st15 st6">description: xs::string [0..1]</text>
<path class="st12" d="M85.8,232.2c0.6,0,1.1,0.5,1.1,1.1l0,0v22.9l0,0c0,0.6-0.5,1.1-1.1,1.1l0,0l0,0H14.6l0,0
	c-0.6,0-1.1-0.5-1.1-1.1l0,0v-22.9c0-0.6,0.5-1.1,1.1-1.1l0,0L85.8,232.2L85.8,232.2L85.8,232.2z"/>
<path class="st8" d="M84.5,230.9c0.6,0,1.1,0.5,1.1,1.1l0,0v23l0,0c0,0.6-0.5,1.1-1.1,1.1l0,0l0,0H13.3l0,0c-0.6,0-1.1-0.5-1.1-1.1
	l0,0v-23c0-0.6,0.5-1.1,1.1-1.1l0,0H84.5L84.5,230.9L84.5,230.9z"/>
<path class="st13" d="M84.5,230.9c0.6,0,1.1,0.5,1.1,1.1l0,0v23l0,0c0,0.6-0.5,1.1-1.1,1.1l0,0l0,0H13.3l0,0c-0.6,0-1.1-0.5-1.1-1.1
	l0,0v-23c0-0.6,0.5-1.1,1.1-1.1l0,0H84.5L84.5,230.9L84.5,230.9z"/>
<text transform="matrix(0.85 0 0 1 34.7607 238.7375)" class="st15 st6">«DataType»</text>
<text transform="matrix(0.85 0 0 1 18.2676 245.2453)" class="st16 st6">uro::IfcFurnishingElement</text>
<path class="st12" d="M85.8,128.3c0.6,0,1.1,0.5,1.1,1.1l0,0v28.1l0,0c0,0.6-0.5,1.1-1.1,1.1l0,0l0,0H10.2l0,0
	c-0.6,0-1.1-0.5-1.1-1.1l0,0v-28.1c0-0.6,0.5-1.1,1.1-1.1l0,0H85.8L85.8,128.3L85.8,128.3z"/>
<path class="st8" d="M84.5,127c0.6,0,1.1,0.5,1.1,1.1l0,0v28.1l0,0c0,0.6-0.5,1.1-1.1,1.1l0,0l0,0H8.9l0,0c-0.6,0-1.1-0.5-1.1-1.1
	l0,0v-28.1c0-0.6,0.5-1.1,1.1-1.1l0,0L84.5,127L84.5,127L84.5,127z"/>
<path class="st13" d="M84.5,127c0.6,0,1.1,0.5,1.1,1.1l0,0v28.1l0,0c0,0.6-0.5,1.1-1.1,1.1l0,0l0,0H8.9l0,0c-0.6,0-1.1-0.5-1.1-1.1
	l0,0v-28.1c0-0.6,0.5-1.1,1.1-1.1l0,0L84.5,127L84.5,127L84.5,127z"/>
<text transform="matrix(0.85 0 0 1 32.5957 134.8078)" class="st15 st6">«DataType»</text>
<text transform="matrix(0.85 0 0 1 19.1357 141.3)" class="st17 st6">uro::IfcObjectDefinition</text>
<path class="st12" d="M193,128.3c0.6,0,1.1,0.5,1.1,1.1l0,0v32.1l0,0c0,0.6-0.5,1.1-1.1,1.1l0,0l0,0h-74.2l0,0
	c-0.6,0-1.1-0.5-1.1-1.1l0,0v-32c0-0.6,0.5-1.1,1.1-1.1l0,0L193,128.3L193,128.3L193,128.3z"/>
<path class="st8" d="M191.7,127c0.6,0,1.1,0.5,1.1,1.1l0,0v32.1l0,0c0,0.6-0.5,1.1-1.1,1.1l0,0l0,0h-74.2l0,0
	c-0.6,0-1.1-0.5-1.1-1.1l0,0v-32c0-0.6,0.5-1.1,1.1-1.1l0,0L191.7,127L191.7,127L191.7,127z"/>
<path class="st13" d="M191.7,127c0.6,0,1.1,0.5,1.1,1.1l0,0v32.1l0,0c0,0.6-0.5,1.1-1.1,1.1l0,0l0,0h-74.2l0,0
	c-0.6,0-1.1-0.5-1.1-1.1l0,0v-32c0-0.6,0.5-1.1,1.1-1.1l0,0L191.7,127L191.7,127L191.7,127z"/>
<text transform="matrix(0.85 0 0 1 140.6748 134.8078)" class="st15 st6">«DataType»</text>
<text transform="matrix(0.85 0 0 1 138.5024 141.3)" class="st17 st6">uro::IfcObject</text>
<line class="st13" x1="116.4" y1="144.8" x2="192.8" y2="144.8"/>
<text transform="matrix(0.85 0 0 1 118.5332 151.6984)" class="st15 st6">+ </text>
<text transform="matrix(0.85 0 0 1 127.6504 151.6984)" class="st15 st6">objectType: xs::string [0..1]</text>
<path class="st12" d="M185.6,175.9c0.6,0,1.1,0.5,1.1,1.1l0,0v19.5l0,0c0,0.6-0.5,1.1-1.1,1.1l0,0l0,0h-58.2l0,0
	c-0.6,0-1.1-0.5-1.1-1.1l0,0V177c0-0.6,0.5-1.1,1.1-1.1l0,0H185.6L185.6,175.9L185.6,175.9z"/>
<path class="st8" d="M184.3,174.6c0.6,0,1.1,0.5,1.1,1.1l0,0v19.5l0,0c0,0.6-0.5,1.1-1.1,1.1l0,0l0,0h-58.2l0,0
	c-0.6,0-1.1-0.5-1.1-1.1l0,0v-19.5c0-0.6,0.5-1.1,1.1-1.1l0,0H184.3L184.3,174.6L184.3,174.6z"/>
<path class="st13" d="M184.3,174.6c0.6,0,1.1,0.5,1.1,1.1l0,0v19.5l0,0c0,0.6-0.5,1.1-1.1,1.1l0,0l0,0h-58.2l0,0
	c-0.6,0-1.1-0.5-1.1-1.1l0,0v-19.5c0-0.6,0.5-1.1,1.1-1.1l0,0H184.3L184.3,174.6L184.3,174.6z"/>
<text transform="matrix(0.85 0 0 1 141.1045 182.4562)" class="st15 st6">«DataType»</text>
<text transform="matrix(0.85 0 0 1 137.6348 188.9484)" class="st17 st6">uro::IfcProduct</text>
<path class="st12" d="M79.2,171.6c0.6,0,1.1,0.5,1.1,1.1l0,0v32.1l0,0c0,0.6-0.5,1.1-1.1,1.1l0,0l0,0h-56l0,0
	c-0.6,0-1.1-0.5-1.1-1.1l0,0v-32.1c0-0.6,0.5-1.1,1.1-1.1l0,0H79.2L79.2,171.6L79.2,171.6z"/>
<path class="st8" d="M77.9,170.3c0.6,0,1.1,0.5,1.1,1.1l0,0v32.1l0,0c0,0.6-0.5,1.1-1.1,1.1l0,0l0,0H22l0,0c-0.6,0-1.1-0.5-1.1-1.1
	l0,0v-32.1c0-0.6,0.5-1.1,1.1-1.1l0,0L77.9,170.3L77.9,170.3L77.9,170.3z"/>
<path class="st13" d="M77.9,170.3c0.6,0,1.1,0.5,1.1,1.1l0,0v32.1l0,0c0,0.6-0.5,1.1-1.1,1.1l0,0l0,0H22l0,0c-0.6,0-1.1-0.5-1.1-1.1
	l0,0v-32.1c0-0.6,0.5-1.1,1.1-1.1l0,0L77.9,170.3L77.9,170.3L77.9,170.3z"/>
<text transform="matrix(0.85 0 0 1 36.0649 178.1125)" class="st15 st6">«DataType»</text>
<text transform="matrix(0.85 0 0 1 32.1582 184.6125)" class="st17 st6">uro::IfcElement</text>
<line class="st13" x1="20.9" y1="188.1" x2="79" y2="188.1"/>
<text transform="matrix(0.85 0 0 1 23.042 195.0109)" class="st15 st6">+ </text>
<text transform="matrix(0.85 0 0 1 32.1582 195.0109)" class="st15 st6">tag: xs::string [0..1]</text>
<line class="st18" x1="77.7" y1="29.6" x2="168" y2="29.6"/>
<polyline class="st19" points="163.7,31.7 168,29.6 163.7,27.4 159.3,29.6 163.7,31.7 "/>
<polyline class="st18" points="163.7,31.7 168,29.6 163.7,27.4 159.3,29.6 "/>
<path class="st18" d="M77.7,29.6l6.5,2.6 M77.7,29.6l6.5-2.6"/>
<line class="st18" x1="50.4" y1="65.9" x2="50.4" y2="49.5"/>
<polyline class="st20" points="53,56.4 47.8,56.4 50.4,49.5 53,56.4 "/>
<polygon class="st18" points="53,56.4 47.8,56.4 50.4,49.5 "/>
<line class="st18" x1="49.1" y1="230.5" x2="49.5" y2="205.4"/>
<polyline class="st20" points="52.1,212.3 46.9,212.3 49.5,205.4 52.1,212.3 "/>
<polygon class="st18" points="52.1,212.3 46.9,212.3 49.5,205.4 "/>
<line class="st18" x1="49.5" y1="126.6" x2="49.5" y2="111"/>
<polyline class="st20" points="52.1,117.9 46.9,117.9 49.5,111 52.1,117.9 "/>
<polygon class="st18" points="52.1,117.9 46.9,117.9 49.5,111 "/>
<line class="st18" x1="115.9" y1="137.8" x2="86.4" y2="137.8"/>
<polyline class="st20" points="93.4,135.2 93.4,140.4 86.4,137.8 93.4,135.2 "/>
<polygon class="st18" points="93.4,135.2 93.4,140.4 86.4,137.8 "/>
<line class="st18" x1="156.7" y1="174.2" x2="155.9" y2="162.1"/>
<polyline class="st20" points="158.9,169 153.7,169 155.9,162.1 158.9,169 "/>
<polygon class="st18" points="158.9,169 153.7,169 155.9,162.1 "/>
<line class="st18" x1="79.9" y1="188.5" x2="124.6" y2="188.5"/>
<polyline class="st20" points="117.7,191.1 117.7,185.9 124.6,188.5 117.7,191.1 "/>
<polygon class="st18" points="117.7,191.1 117.7,185.9 124.6,188.5 "/>
<polyline class="st20" points="-3,626.3 -3,639.3 131.6,639.3 131.6,626.3 -3,626.3 "/>
<text transform="matrix(0.85 0 0 1 84.6748 59.0187)" class="st15 st21">+ifcBuildingFurnitureAttribute</text>
<polyline class="st20" points="-3,626.3 -3,639.3 13.6,639.3 13.6,626.3 -3,626.3 "/>
<text transform="matrix(0.85 0 0 1 82.0732 38.6594)" class="st15 st21">0..*</text>
</svg>
