<?xml version="1.0" encoding="utf-8"?>
<!-- Generator: Adobe Illustrator 26.5.2, SVG Export Plug-In . SVG Version: 6.00 Build 0)  -->
<svg version="1.1" id="レイヤー_1" xmlns="http://www.w3.org/2000/svg" xmlns:xlink="http://www.w3.org/1999/xlink" x="0px"
	 y="0px" viewBox="0 0 573 503" style="enable-background:new 0 0 573 503;" xml:space="preserve">
<style type="text/css">
	.st0{fill-rule:evenodd;clip-rule:evenodd;fill:#CFD1D8;}
	.st1{fill-rule:evenodd;clip-rule:evenodd;fill:#FFFFCC;}
	.st2{fill:none;stroke:#000000;stroke-width:1.7322;stroke-linecap:round;stroke-linejoin:round;stroke-miterlimit:10;}
	.st3{font-family:'YuGothicUI-Regular';}
	.st4{font-size:11.2598px;}
	.st5{font-family:'YuGothicUI-Bold';}
	.st6{font-size:11.8721px;}
	.st7{fill:none;stroke:#000000;stroke-width:0.3218;stroke-miterlimit:10;}
	.st8{fill-rule:evenodd;clip-rule:evenodd;fill:#CCFFCC;}
	.st9{fill-rule:evenodd;clip-rule:evenodd;fill:#F0F0F0;}
	.st10{fill:none;stroke:#D7D7D7;stroke-width:0.8662;stroke-linecap:square;stroke-miterlimit:10;}
	.st11{fill:none;stroke:#000000;stroke-width:0.8662;stroke-linecap:square;stroke-miterlimit:10;}
	.st12{fill:#003060;}
	.st13{fill-rule:evenodd;clip-rule:evenodd;fill:#FFCCFF;}
	.st14{font-family:'MS-PGothic';}
	.st15{font-size:13.8582px;}
	.st16{fill:none;stroke:#003060;stroke-width:0.396;stroke-miterlimit:10;}
	.st17{fill:none;stroke:#000000;stroke-width:1.7322;stroke-linecap:round;stroke-linejoin:bevel;stroke-miterlimit:10;}
	.st18{fill-rule:evenodd;clip-rule:evenodd;fill:#FFFFFF;}
	.st19{font-family:'Calibri';}
	.st20{font-size:9.5276px;}
</style>
<g>
	<path class="st0" d="M476.4,305.6c1.2,0,2.2,1,2.2,2.2l0,0v168l0,0c0,1.2-1,2.2-2.2,2.2l0,0l0,0H299.3l0,0c-1.2,0-2.2-1-2.2-2.2
		l0,0v-168c0-1.2,1-2.2,2.2-2.2l0,0H476.4L476.4,305.6L476.4,305.6z"/>
	<path class="st1" d="M473.8,303c1.2,0,2.2,1,2.2,2.2l0,0v168l0,0c0,1.2-1,2.2-2.2,2.2l0,0l0,0H296.7l0,0c-1.2,0-2.2-1-2.2-2.2l0,0
		v-168c0-1.2,1-2.2,2.2-2.2l0,0H473.8L473.8,303L473.8,303z"/>
	<path class="st2" d="M473.8,303c1.2,0,2.2,1,2.2,2.2l0,0v168l0,0c0,1.2-1,2.2-2.2,2.2l0,0l0,0H296.7l0,0c-1.2,0-2.2-1-2.2-2.2l0,0
		v-168c0-1.2,1-2.2,2.2-2.2l0,0H473.8L473.8,303L473.8,303z"/>
	<text transform="matrix(1.0023 0 0 1 348.3578 320.3563)" class="st3 st4">«</text>
	<text transform="matrix(1.0023 0 0 1 354.4281 320.3563)" class="st3 st4">F</text>
	<text transform="matrix(1.0023 0 0 1 359.6449 320.3563)" class="st3 st4">e</text>
	<text transform="matrix(1.0023 0 0 1 365.7152 320.3563)" class="st3 st4">a</text>
	<text transform="matrix(1.0023 0 0 1 371.7855 320.3563)" class="st3 st4">t</text>
	<text transform="matrix(1.0023 0 0 1 375.2601 320.3563)" class="st3 st4">u</text>
	<text transform="matrix(1.0023 0 0 1 381.3422 320.3563)" class="st3 st4">r</text>
	<text transform="matrix(1.0023 0 0 1 385.6703 320.3563)" class="st3 st4">e</text>
	<text transform="matrix(1.0023 0 0 1 391.7426 320.3563)" class="st3 st4">T</text>
	<text transform="matrix(1.0023 0 0 1 397.8129 320.3563)" class="st3 st4">y</text>
	<text transform="matrix(1.0023 0 0 1 403.0258 320.3563)" class="st3 st4">p</text>
	<text transform="matrix(1.0023 0 0 1 409.9652 320.3563)" class="st3 st4">e</text>
	<text transform="matrix(1.0023 0 0 1 416.0355 320.3563)" class="st3 st4">»</text>
	<text transform="matrix(1.0023 0 0 1 326.6703 335.075)" class="st5 st4">g</text>
	<text transform="matrix(1.0023 0 0 1 333.6058 335.075)" class="st5 st4">e</text>
	<text transform="matrix(1.0023 0 0 1 339.6801 335.075)" class="st5 st4">n</text>
	<text transform="matrix(1.0023 0 0 1 346.6156 335.075)" class="st5 st4">:</text>
	<text transform="matrix(1.0023 0 0 1 349.225 335.075)" class="st5 st4">:</text>
	<text transform="matrix(1.0023 0 0 1 351.8344 335.075)" class="st5 st4">G</text>
	<text transform="matrix(1.0023 0 0 1 359.6566 335.075)" class="st5 st4">e</text>
	<text transform="matrix(1.0023 0 0 1 365.7308 335.075)" class="st5 st4">n</text>
	<text transform="matrix(1.0023 0 0 1 372.6664 335.075)" class="st5 st4">e</text>
	<text transform="matrix(1.0023 0 0 1 378.7406 335.075)" class="st5 st4">r</text>
	<text transform="matrix(1.0023 0 0 1 383.0765 335.075)" class="st5 st4">i</text>
	<text transform="matrix(1.0023 0 0 1 385.6859 335.075)" class="st5 st4">c</text>
	<text transform="matrix(1.0023 0 0 1 390.9008 335.075)" class="st5 st4">C</text>
	<text transform="matrix(1.0023 0 0 1 397.8539 335.075)" class="st5 st4">i</text>
	<text transform="matrix(1.0023 0 0 1 400.4633 335.075)" class="st5 st4">t</text>
	<text transform="matrix(1.0023 0 0 1 404.8011 335.075)" class="st5 st4">y</text>
	<text transform="matrix(1.0023 0 0 1 410.8754 335.075)" class="st5 st4">O</text>
	<text transform="matrix(1.0023 0 0 1 419.5531 335.075)" class="st5 st4">b</text>
	<text transform="matrix(1.0023 0 0 1 426.4886 335.075)" class="st5 st4">j</text>
	<text transform="matrix(1.0023 0 0 1 429.098 335.075)" class="st5 st4">e</text>
	<text transform="matrix(1.0023 0 0 1 435.1722 335.075)" class="st5 st4">c</text>
	<text transform="matrix(1.0023 0 0 1 440.389 335.075)" class="st5 st4">t</text>
	<line class="st2" x1="294.5" y1="342" x2="476" y2="342"/>
	<text transform="matrix(1.0023 0 0 1 298.889 357.6063)" class="st3 st4">+</text>
	<text transform="matrix(1.0023 0 0 1 306.6996 357.6063)" class="st3 st4"> </text>
	<text transform="matrix(1.0023 0 0 1 317.9828 357.6063)" class="st3 st4">c</text>
	<text transform="matrix(1.0023 0 0 1 323.1957 357.6063)" class="st3 st4">l</text>
	<text transform="matrix(1.0023 0 0 1 325.8051 357.6063)" class="st3 st4">a</text>
	<text transform="matrix(1.0023 0 0 1 331.8734 357.6063)" class="st3 st4">s</text>
	<text transform="matrix(1.0023 0 0 1 337.0804 357.6063)" class="st3 st4">s</text>
	<text transform="matrix(1.0023 0 0 1 342.2855 357.6063)" class="st3 st4">:</text>
	<text transform="matrix(1.0023 0 0 1 344.8793 357.6063)" class="st3 st4"> </text>
	<text transform="matrix(1.0023 0 0 1 348.3441 357.6063)" class="st3 st4">g</text>
	<text transform="matrix(1.0023 0 0 1 355.2816 357.6063)" class="st3 st4">m</text>
	<text transform="matrix(1.0023 0 0 1 364.8344 357.6063)" class="st3 st4">l</text>
	<text transform="matrix(1.0023 0 0 1 367.4418 357.6063)" class="st3 st4">:</text>
	<text transform="matrix(1.0023 0 0 1 370.0355 357.6063)" class="st3 st4">:</text>
	<text transform="matrix(1.0023 0 0 1 372.6293 357.6063)" class="st3 st4">C</text>
	<text transform="matrix(1.0023 0 0 1 379.5824 357.6063)" class="st3 st4">o</text>
	<text transform="matrix(1.0023 0 0 1 386.5219 357.6063)" class="st3 st4">d</text>
	<text transform="matrix(1.0023 0 0 1 393.4613 357.6063)" class="st3 st4">e</text>
	<text transform="matrix(1.0023 0 0 1 399.5316 357.6063)" class="st3 st4">T</text>
	<text transform="matrix(1.0023 0 0 1 405.6039 357.6063)" class="st3 st4">y</text>
	<text transform="matrix(1.0023 0 0 1 410.8148 357.6063)" class="st3 st4">p</text>
	<text transform="matrix(1.0023 0 0 1 417.7543 357.6063)" class="st3 st4">e</text>
	<text transform="matrix(1.0023 0 0 1 423.8265 357.6063)" class="st3 st4"> </text>
	<text transform="matrix(1.0023 0 0 1 427.2894 357.6063)" class="st3 st4">[</text>
	<text transform="matrix(1.0023 0 0 1 430.7523 357.6063)" class="st3 st4">0</text>
	<text transform="matrix(1.0023 0 0 1 436.8344 357.6063)" class="st3 st4">.</text>
	<text transform="matrix(1.0023 0 0 1 439.4281 357.6063)" class="st3 st4">.</text>
	<text transform="matrix(1.0023 0 0 1 442.0219 357.6063)" class="st3 st4">1</text>
	<text transform="matrix(1.0023 0 0 1 448.1058 357.6063)" class="st3 st4">]</text>
	<text transform="matrix(1.0023 0 0 1 298.889 372.325)" class="st3 st4">+</text>
	<text transform="matrix(1.0023 0 0 1 306.6996 372.325)" class="st3 st4"> </text>
	<text transform="matrix(1.0023 0 0 1 317.9828 372.325)" class="st3 st4">f</text>
	<text transform="matrix(1.0023 0 0 1 321.4594 372.325)" class="st3 st4">u</text>
	<text transform="matrix(1.0023 0 0 1 327.5414 372.325)" class="st3 st4">n</text>
	<text transform="matrix(1.0023 0 0 1 333.6215 372.325)" class="st3 st4">c</text>
	<text transform="matrix(1.0023 0 0 1 338.8344 372.325)" class="st3 st4">t</text>
	<text transform="matrix(1.0023 0 0 1 342.309 372.325)" class="st3 st4">i</text>
	<text transform="matrix(1.0023 0 0 1 344.9183 372.325)" class="st3 st4">o</text>
	<text transform="matrix(1.0023 0 0 1 351.8578 372.325)" class="st3 st4">n</text>
	<text transform="matrix(1.0023 0 0 1 357.9398 372.325)" class="st3 st4">:</text>
	<text transform="matrix(1.0023 0 0 1 360.5336 372.325)" class="st3 st4"> </text>
	<text transform="matrix(1.0023 0 0 1 363.9984 372.325)" class="st3 st4">g</text>
	<text transform="matrix(1.0023 0 0 1 370.9359 372.325)" class="st3 st4">m</text>
	<text transform="matrix(1.0023 0 0 1 380.4886 372.325)" class="st3 st4">l</text>
	<text transform="matrix(1.0023 0 0 1 383.0961 372.325)" class="st3 st4">:</text>
	<text transform="matrix(1.0023 0 0 1 385.6898 372.325)" class="st3 st4">:</text>
	<text transform="matrix(1.0023 0 0 1 388.2836 372.325)" class="st3 st4">C</text>
	<text transform="matrix(1.0023 0 0 1 395.2367 372.325)" class="st3 st4">o</text>
	<text transform="matrix(1.0023 0 0 1 402.1761 372.325)" class="st3 st4">d</text>
	<text transform="matrix(1.0023 0 0 1 409.1156 372.325)" class="st3 st4">e</text>
	<text transform="matrix(1.0023 0 0 1 415.1859 372.325)" class="st3 st4">T</text>
	<text transform="matrix(1.0023 0 0 1 421.2582 372.325)" class="st3 st4">y</text>
	<text transform="matrix(1.0023 0 0 1 426.4691 372.325)" class="st3 st4">p</text>
	<text transform="matrix(1.0023 0 0 1 433.4086 372.325)" class="st3 st4">e</text>
	<text transform="matrix(1.0023 0 0 1 439.4808 372.325)" class="st3 st4"> </text>
	<text transform="matrix(1.0023 0 0 1 442.9437 372.325)" class="st3 st4">[</text>
	<text transform="matrix(1.0023 0 0 1 446.4066 372.325)" class="st3 st4">0</text>
	<text transform="matrix(1.0023 0 0 1 452.4886 372.325)" class="st3 st4">.</text>
	<text transform="matrix(1.0023 0 0 1 455.0824 372.325)" class="st3 st4">.</text>
	<text transform="matrix(1.0023 0 0 1 457.6761 372.325)" class="st3 st4">*</text>
	<text transform="matrix(1.0023 0 0 1 462.0219 372.325)" class="st3 st4">]</text>
	<text transform="matrix(1.0023 0 0 1 298.889 387.0438)" class="st3 st4">+</text>
	<text transform="matrix(1.0023 0 0 1 306.6996 387.0438)" class="st3 st4"> </text>
	<text transform="matrix(1.0023 0 0 1 317.9828 387.0438)" class="st3 st4">u</text>
	<text transform="matrix(1.0023 0 0 1 324.0648 387.0438)" class="st3 st4">s</text>
	<text transform="matrix(1.0023 0 0 1 329.2699 387.0438)" class="st3 st4">a</text>
	<text transform="matrix(1.0023 0 0 1 335.3402 387.0438)" class="st3 st4">g</text>
	<text transform="matrix(1.0023 0 0 1 342.2797 387.0438)" class="st3 st4">e</text>
	<text transform="matrix(1.0023 0 0 1 348.35 387.0438)" class="st3 st4">:</text>
	<text transform="matrix(1.0023 0 0 1 350.9437 387.0438)" class="st3 st4"> </text>
	<text transform="matrix(1.0023 0 0 1 354.4066 387.0438)" class="st3 st4">g</text>
	<text transform="matrix(1.0023 0 0 1 361.3461 387.0438)" class="st3 st4">m</text>
	<text transform="matrix(1.0023 0 0 1 370.8969 387.0438)" class="st3 st4">l</text>
	<text transform="matrix(1.0023 0 0 1 373.5062 387.0438)" class="st3 st4">:</text>
	<text transform="matrix(1.0023 0 0 1 376.1 387.0438)" class="st3 st4">:</text>
	<text transform="matrix(1.0023 0 0 1 378.6937 387.0438)" class="st3 st4">C</text>
	<text transform="matrix(1.0023 0 0 1 385.6469 387.0438)" class="st3 st4">o</text>
	<text transform="matrix(1.0023 0 0 1 392.5863 387.0438)" class="st3 st4">d</text>
	<text transform="matrix(1.0023 0 0 1 399.5258 387.0438)" class="st3 st4">e</text>
	<text transform="matrix(1.0023 0 0 1 405.5961 387.0438)" class="st3 st4">T</text>
	<text transform="matrix(1.0023 0 0 1 411.6664 387.0438)" class="st3 st4">y</text>
	<text transform="matrix(1.0023 0 0 1 416.8793 387.0438)" class="st3 st4">p</text>
	<text transform="matrix(1.0023 0 0 1 423.8187 387.0438)" class="st3 st4">e</text>
	<text transform="matrix(1.0023 0 0 1 429.889 387.0438)" class="st3 st4"> </text>
	<text transform="matrix(1.0023 0 0 1 433.3539 387.0438)" class="st3 st4">[</text>
	<text transform="matrix(1.0023 0 0 1 436.8148 387.0438)" class="st3 st4">0</text>
	<text transform="matrix(1.0023 0 0 1 442.8988 387.0438)" class="st3 st4">.</text>
	<text transform="matrix(1.0023 0 0 1 445.4926 387.0438)" class="st3 st4">.</text>
	<text transform="matrix(1.0023 0 0 1 448.0863 387.0438)" class="st3 st4">*</text>
	<text transform="matrix(1.0023 0 0 1 452.4301 387.0438)" class="st3 st4">]</text>
	<path class="st0" d="M545.9,158.4c1.2,0,2.2,1,2.2,2.2l0,0v104.8l0,0c0,1.2-1,2.2-2.2,2.2l0,0l0,0H264.6l0,0c-1.2,0-2.2-1-2.2-2.2
		l0,0V160.6c0-1.2,1-2.2,2.2-2.2l0,0H545.9L545.9,158.4L545.9,158.4z"/>
	<path class="st1" d="M543.3,155.8c1.2,0,2.2,1,2.2,2.2l0,0v104.8l0,0c0,1.2-1,2.2-2.2,2.2l0,0l0,0H262l0,0c-1.2,0-2.2-1-2.2-2.2
		l0,0V158c0-1.2,1-2.2,2.2-2.2l0,0H543.3L543.3,155.8L543.3,155.8z"/>
	<path class="st2" d="M543.3,155.8c1.2,0,2.2,1,2.2,2.2l0,0v104.8l0,0c0,1.2-1,2.2-2.2,2.2l0,0l0,0H262l0,0c-1.2,0-2.2-1-2.2-2.2
		l0,0V158c0-1.2,1-2.2,2.2-2.2l0,0H543.3L543.3,155.8L543.3,155.8z"/>
	<text transform="matrix(1.0023 0 0 1 365.7328 173.1063)" class="st3 st4">«</text>
	<text transform="matrix(1.0023 0 0 1 371.8031 173.1063)" class="st3 st4">F</text>
	<text transform="matrix(1.0023 0 0 1 377.0199 173.1063)" class="st3 st4">e</text>
	<text transform="matrix(1.0023 0 0 1 383.0902 173.1063)" class="st3 st4">a</text>
	<text transform="matrix(1.0023 0 0 1 389.1605 173.1063)" class="st3 st4">t</text>
	<text transform="matrix(1.0023 0 0 1 392.6351 173.1063)" class="st3 st4">u</text>
	<text transform="matrix(1.0023 0 0 1 398.7172 173.1063)" class="st3 st4">r</text>
	<text transform="matrix(1.0023 0 0 1 403.0453 173.1063)" class="st3 st4">e</text>
	<text transform="matrix(1.0023 0 0 1 409.1176 173.1063)" class="st3 st4">T</text>
	<text transform="matrix(1.0023 0 0 1 415.1879 173.1063)" class="st3 st4">y</text>
	<text transform="matrix(1.0023 0 0 1 420.4008 173.1063)" class="st3 st4">p</text>
	<text transform="matrix(1.0023 0 0 1 427.3402 173.1063)" class="st3 st4">e</text>
	<text transform="matrix(1.0023 0 0 1 433.4105 173.1063)" class="st3 st4">»</text>
	<text transform="matrix(0.9506 0 -0.3169 0.9485 359.6435 187.8445)" class="st3 st6">c</text>
	<text transform="matrix(0.9506 0 -0.3169 0.9485 359.6435 187.8445)" class="st7 st3 st6">c</text>
	<text transform="matrix(0.9506 0 -0.3169 0.9485 364.8564 187.8445)" class="st3 st6">o</text>
	<text transform="matrix(0.9506 0 -0.3169 0.9485 364.8564 187.8445)" class="st7 st3 st6">o</text>
	<text transform="matrix(0.9506 0 -0.3169 0.9485 371.7958 187.8445)" class="st3 st6">r</text>
	<text transform="matrix(0.9506 0 -0.3169 0.9485 371.7958 187.8445)" class="st7 st3 st6">r</text>
	<text transform="matrix(0.9506 0 -0.3169 0.9485 376.1259 187.8445)" class="st3 st6">e</text>
	<text transform="matrix(0.9506 0 -0.3169 0.9485 376.1259 187.8445)" class="st7 st3 st6">e</text>
	<text transform="matrix(0.9506 0 -0.3169 0.9485 382.1962 187.8445)" class="st3 st6">:</text>
	<text transform="matrix(0.9506 0 -0.3169 0.9485 382.1962 187.8445)" class="st7 st3 st6">:</text>
	<text transform="matrix(0.9506 0 -0.3169 0.9485 384.7899 187.8445)" class="st3 st6">:</text>
	<text transform="matrix(0.9506 0 -0.3169 0.9485 384.7899 187.8445)" class="st7 st3 st6">:</text>
	<text transform="matrix(0.9506 0 -0.3169 0.9485 387.3837 187.8445)" class="st3 st6">_</text>
	<text transform="matrix(0.9506 0 -0.3169 0.9485 387.3837 187.8445)" class="st7 st3 st6">_</text>
	<text transform="matrix(0.9506 0 -0.3169 0.9485 391.7294 187.8445)" class="st3 st6">C</text>
	<text transform="matrix(0.9506 0 -0.3169 0.9485 391.7294 187.8445)" class="st7 st3 st6">C</text>
	<text transform="matrix(0.9506 0 -0.3169 0.9485 398.6825 187.8445)" class="st3 st6">i</text>
	<text transform="matrix(0.9506 0 -0.3169 0.9485 398.6825 187.8445)" class="st7 st3 st6">i</text>
	<text transform="matrix(0.9506 0 -0.3169 0.9485 401.2919 187.8445)" class="st3 st6">t</text>
	<text transform="matrix(0.9506 0 -0.3169 0.9485 401.2919 187.8445)" class="st7 st3 st6">t</text>
	<text transform="matrix(0.9506 0 -0.3169 0.9485 405.6239 187.8445)" class="st3 st6">y</text>
	<text transform="matrix(0.9506 0 -0.3169 0.9485 405.6239 187.8445)" class="st7 st3 st6">y</text>
	<text transform="matrix(0.9506 0 -0.3169 0.9485 411.6942 187.8445)" class="st3 st6">O</text>
	<text transform="matrix(0.9506 0 -0.3169 0.9485 411.6942 187.8445)" class="st7 st3 st6">O</text>
	<text transform="matrix(0.9506 0 -0.3169 0.9485 420.372 187.8445)" class="st3 st6">b</text>
	<text transform="matrix(0.9506 0 -0.3169 0.9485 420.372 187.8445)" class="st7 st3 st6">b</text>
	<text transform="matrix(0.9506 0 -0.3169 0.9485 427.3095 187.8445)" class="st3 st6">j</text>
	<text transform="matrix(0.9506 0 -0.3169 0.9485 427.3095 187.8445)" class="st7 st3 st6">j</text>
	<text transform="matrix(0.9506 0 -0.3169 0.9485 429.9189 187.8445)" class="st3 st6">e</text>
	<text transform="matrix(0.9506 0 -0.3169 0.9485 429.9189 187.8445)" class="st7 st3 st6">e</text>
	<text transform="matrix(0.9506 0 -0.3169 0.9485 435.9911 187.8445)" class="st3 st6">c</text>
	<text transform="matrix(0.9506 0 -0.3169 0.9485 435.9911 187.8445)" class="st7 st3 st6">c</text>
	<text transform="matrix(0.9506 0 -0.3169 0.9485 441.204 187.8445)" class="st3 st6">t</text>
	<text transform="matrix(0.9506 0 -0.3169 0.9485 441.204 187.8445)" class="st7 st3 st6">t</text>
	<line class="st2" x1="259.8" y1="194.8" x2="545.4" y2="194.8"/>
	<text transform="matrix(1.0023 0 0 1 264.1542 210.3563)" class="st3 st4">+</text>
	<text transform="matrix(1.0023 0 0 1 271.9647 210.3563)" class="st3 st4"> </text>
	<text transform="matrix(1.0023 0 0 1 283.2479 210.3563)" class="st3 st4">c</text>
	<text transform="matrix(1.0023 0 0 1 288.4608 210.3563)" class="st3 st4">r</text>
	<text transform="matrix(1.0023 0 0 1 292.7914 210.3563)" class="st3 st4">e</text>
	<text transform="matrix(1.0023 0 0 1 298.8617 210.3563)" class="st3 st4">a</text>
	<text transform="matrix(1.0023 0 0 1 304.932 210.3563)" class="st3 st4">t</text>
	<text transform="matrix(1.0023 0 0 1 308.4047 210.3563)" class="st3 st4">i</text>
	<text transform="matrix(1.0023 0 0 1 311.014 210.3563)" class="st3 st4">o</text>
	<text transform="matrix(1.0023 0 0 1 317.9535 210.3563)" class="st3 st4">n</text>
	<text transform="matrix(1.0023 0 0 1 324.0355 210.3563)" class="st3 st4">D</text>
	<text transform="matrix(1.0023 0 0 1 331.8597 210.3563)" class="st3 st4">a</text>
	<text transform="matrix(1.0023 0 0 1 337.9281 210.3563)" class="st3 st4">t</text>
	<text transform="matrix(1.0023 0 0 1 341.4027 210.3563)" class="st3 st4">e</text>
	<text transform="matrix(1.0023 0 0 1 347.473 210.3563)" class="st3 st4">:</text>
	<text transform="matrix(1.0023 0 0 1 350.0668 210.3563)" class="st3 st4"> </text>
	<text transform="matrix(1.0023 0 0 1 353.5316 210.3563)" class="st3 st4">x</text>
	<text transform="matrix(1.0023 0 0 1 358.7328 210.3563)" class="st3 st4">s</text>
	<text transform="matrix(1.0023 0 0 1 363.9398 210.3563)" class="st3 st4">:</text>
	<text transform="matrix(1.0023 0 0 1 366.5336 210.3563)" class="st3 st4">:</text>
	<text transform="matrix(1.0023 0 0 1 369.1254 210.3563)" class="st3 st4">d</text>
	<text transform="matrix(1.0023 0 0 1 376.0648 210.3563)" class="st3 st4">a</text>
	<text transform="matrix(1.0023 0 0 1 382.1332 210.3563)" class="st3 st4">t</text>
	<text transform="matrix(1.0023 0 0 1 385.6078 210.3563)" class="st3 st4">e</text>
	<text transform="matrix(1.0023 0 0 1 391.6801 210.3563)" class="st3 st4"> </text>
	<text transform="matrix(1.0023 0 0 1 395.1429 210.3563)" class="st3 st4">[</text>
	<text transform="matrix(1.0023 0 0 1 398.6058 210.3563)" class="st3 st4">0</text>
	<text transform="matrix(1.0023 0 0 1 404.6879 210.3563)" class="st3 st4">.</text>
	<text transform="matrix(1.0023 0 0 1 407.2816 210.3563)" class="st3 st4">.</text>
	<text transform="matrix(1.0023 0 0 1 409.8754 210.3563)" class="st3 st4">1</text>
	<text transform="matrix(1.0023 0 0 1 415.9594 210.3563)" class="st3 st4">]</text>
	<text transform="matrix(1.0023 0 0 1 264.1542 225.075)" class="st3 st4">+</text>
	<text transform="matrix(1.0023 0 0 1 271.9647 225.075)" class="st3 st4"> </text>
	<text transform="matrix(1.0023 0 0 1 283.2479 225.075)" class="st3 st4">t</text>
	<text transform="matrix(1.0023 0 0 1 286.7225 225.075)" class="st3 st4">e</text>
	<text transform="matrix(1.0023 0 0 1 292.7933 225.075)" class="st3 st4">r</text>
	<text transform="matrix(1.0023 0 0 1 297.1234 225.075)" class="st3 st4">m</text>
	<text transform="matrix(1.0023 0 0 1 306.6722 225.075)" class="st3 st4">i</text>
	<text transform="matrix(1.0023 0 0 1 309.2836 225.075)" class="st3 st4">n</text>
	<text transform="matrix(1.0023 0 0 1 315.3656 225.075)" class="st3 st4">a</text>
	<text transform="matrix(1.0023 0 0 1 321.434 225.075)" class="st3 st4">t</text>
	<text transform="matrix(1.0023 0 0 1 324.9086 225.075)" class="st3 st4">i</text>
	<text transform="matrix(1.0023 0 0 1 327.5179 225.075)" class="st3 st4">o</text>
	<text transform="matrix(1.0023 0 0 1 334.4574 225.075)" class="st3 st4">n</text>
	<text transform="matrix(1.0023 0 0 1 340.5394 225.075)" class="st3 st4">D</text>
	<text transform="matrix(1.0023 0 0 1 348.3636 225.075)" class="st3 st4">a</text>
	<text transform="matrix(1.0023 0 0 1 354.432 225.075)" class="st3 st4">t</text>
	<text transform="matrix(1.0023 0 0 1 357.9066 225.075)" class="st3 st4">e</text>
	<text transform="matrix(1.0023 0 0 1 363.9769 225.075)" class="st3 st4">:</text>
	<text transform="matrix(1.0023 0 0 1 366.5707 225.075)" class="st3 st4"> </text>
	<text transform="matrix(1.0023 0 0 1 370.0336 225.075)" class="st3 st4">x</text>
	<text transform="matrix(1.0023 0 0 1 375.2367 225.075)" class="st3 st4">s</text>
	<text transform="matrix(1.0023 0 0 1 380.4437 225.075)" class="st3 st4">:</text>
	<text transform="matrix(1.0023 0 0 1 383.0355 225.075)" class="st3 st4">:</text>
	<text transform="matrix(1.0023 0 0 1 385.6293 225.075)" class="st3 st4">d</text>
	<text transform="matrix(1.0023 0 0 1 392.5687 225.075)" class="st3 st4">a</text>
	<text transform="matrix(1.0023 0 0 1 398.6371 225.075)" class="st3 st4">t</text>
	<text transform="matrix(1.0023 0 0 1 402.1117 225.075)" class="st3 st4">e</text>
	<text transform="matrix(1.0023 0 0 1 408.184 225.075)" class="st3 st4"> </text>
	<text transform="matrix(1.0023 0 0 1 411.6469 225.075)" class="st3 st4">[</text>
	<text transform="matrix(1.0023 0 0 1 415.1097 225.075)" class="st3 st4">0</text>
	<text transform="matrix(1.0023 0 0 1 421.1918 225.075)" class="st3 st4">.</text>
	<text transform="matrix(1.0023 0 0 1 423.7855 225.075)" class="st3 st4">.</text>
	<text transform="matrix(1.0023 0 0 1 426.3793 225.075)" class="st3 st4">1</text>
	<text transform="matrix(1.0023 0 0 1 432.4633 225.075)" class="st3 st4">]</text>
	<text transform="matrix(1.0023 0 0 1 264.1542 239.8094)" class="st3 st4">+</text>
	<text transform="matrix(1.0023 0 0 1 271.9647 239.8094)" class="st3 st4"> </text>
	<text transform="matrix(1.0023 0 0 1 283.2479 239.8094)" class="st3 st4">r</text>
	<text transform="matrix(1.0023 0 0 1 287.578 239.8094)" class="st3 st4">e</text>
	<text transform="matrix(1.0023 0 0 1 293.6488 239.8094)" class="st3 st4">l</text>
	<text transform="matrix(1.0023 0 0 1 296.2582 239.8094)" class="st3 st4">a</text>
	<text transform="matrix(1.0023 0 0 1 302.3265 239.8094)" class="st3 st4">t</text>
	<text transform="matrix(1.0023 0 0 1 305.8011 239.8094)" class="st3 st4">i</text>
	<text transform="matrix(1.0023 0 0 1 308.4105 239.8094)" class="st3 st4">v</text>
	<text transform="matrix(1.0023 0 0 1 313.6254 239.8094)" class="st3 st4">e</text>
	<text transform="matrix(1.0023 0 0 1 319.6957 239.8094)" class="st3 st4">T</text>
	<text transform="matrix(1.0023 0 0 1 325.766 239.8094)" class="st3 st4">o</text>
	<text transform="matrix(1.0023 0 0 1 332.7054 239.8094)" class="st3 st4">T</text>
	<text transform="matrix(1.0023 0 0 1 338.7777 239.8094)" class="st3 st4">e</text>
	<text transform="matrix(1.0023 0 0 1 344.848 239.8094)" class="st3 st4">r</text>
	<text transform="matrix(1.0023 0 0 1 349.1781 239.8094)" class="st3 st4">r</text>
	<text transform="matrix(1.0023 0 0 1 353.5082 239.8094)" class="st3 st4">a</text>
	<text transform="matrix(1.0023 0 0 1 359.5765 239.8094)" class="st3 st4">i</text>
	<text transform="matrix(1.0023 0 0 1 362.1859 239.8094)" class="st3 st4">n</text>
	<text transform="matrix(1.0023 0 0 1 368.2679 239.8094)" class="st3 st4">:</text>
	<text transform="matrix(1.0023 0 0 1 370.8617 239.8094)" class="st3 st4"> </text>
	<text transform="matrix(1.0023 0 0 1 374.3246 239.8094)" class="st3 st4">c</text>
	<text transform="matrix(1.0023 0 0 1 379.5375 239.8094)" class="st3 st4">o</text>
	<text transform="matrix(1.0023 0 0 1 386.4769 239.8094)" class="st3 st4">r</text>
	<text transform="matrix(1.0023 0 0 1 390.807 239.8094)" class="st3 st4">e</text>
	<text transform="matrix(1.0023 0 0 1 396.8773 239.8094)" class="st3 st4">:</text>
	<text transform="matrix(1.0023 0 0 1 399.4711 239.8094)" class="st3 st4">:</text>
	<text transform="matrix(1.0023 0 0 1 402.0648 239.8094)" class="st3 st4">R</text>
	<text transform="matrix(1.0023 0 0 1 409.0062 239.8094)" class="st3 st4">e</text>
	<text transform="matrix(1.0023 0 0 1 415.0785 239.8094)" class="st3 st4">l</text>
	<text transform="matrix(1.0023 0 0 1 417.6859 239.8094)" class="st3 st4">a</text>
	<text transform="matrix(1.0023 0 0 1 423.7562 239.8094)" class="st3 st4">t</text>
	<text transform="matrix(1.0023 0 0 1 427.2308 239.8094)" class="st3 st4">i</text>
	<text transform="matrix(1.0023 0 0 1 429.8402 239.8094)" class="st3 st4">v</text>
	<text transform="matrix(1.0023 0 0 1 435.0531 239.8094)" class="st3 st4">e</text>
	<text transform="matrix(1.0023 0 0 1 441.1234 239.8094)" class="st3 st4">T</text>
	<text transform="matrix(1.0023 0 0 1 447.1957 239.8094)" class="st3 st4">o</text>
	<text transform="matrix(1.0023 0 0 1 454.1351 239.8094)" class="st3 st4">T</text>
	<text transform="matrix(1.0023 0 0 1 460.2054 239.8094)" class="st3 st4">e</text>
	<text transform="matrix(1.0023 0 0 1 466.2758 239.8094)" class="st3 st4">r</text>
	<text transform="matrix(1.0023 0 0 1 470.6058 239.8094)" class="st3 st4">r</text>
	<text transform="matrix(1.0023 0 0 1 474.9359 239.8094)" class="st3 st4">a</text>
	<text transform="matrix(1.0023 0 0 1 481.0043 239.8094)" class="st3 st4">i</text>
	<text transform="matrix(1.0023 0 0 1 483.6136 239.8094)" class="st3 st4">n</text>
	<text transform="matrix(1.0023 0 0 1 489.6957 239.8094)" class="st3 st4">T</text>
	<text transform="matrix(1.0023 0 0 1 495.766 239.8094)" class="st3 st4">y</text>
	<text transform="matrix(1.0023 0 0 1 500.9789 239.8094)" class="st3 st4">p</text>
	<text transform="matrix(1.0023 0 0 1 507.9183 239.8094)" class="st3 st4">e</text>
	<text transform="matrix(1.0023 0 0 1 513.9906 239.8094)" class="st3 st4"> </text>
	<text transform="matrix(1.0023 0 0 1 517.4535 239.8094)" class="st3 st4">[</text>
	<text transform="matrix(1.0023 0 0 1 520.9144 239.8094)" class="st3 st4">0</text>
	<text transform="matrix(1.0023 0 0 1 526.9984 239.8094)" class="st3 st4">.</text>
	<text transform="matrix(1.0023 0 0 1 529.5902 239.8094)" class="st3 st4">.</text>
	<text transform="matrix(1.0023 0 0 1 532.1859 239.8094)" class="st3 st4">1</text>
	<text transform="matrix(1.0023 0 0 1 538.2699 239.8094)" class="st3 st4">]</text>
	<text transform="matrix(1.0023 0 0 1 264.1542 254.5438)" class="st3 st4">+</text>
	<text transform="matrix(1.0023 0 0 1 271.9647 254.5438)" class="st3 st4"> </text>
	<text transform="matrix(1.0023 0 0 1 283.2479 254.5438)" class="st3 st4">r</text>
	<text transform="matrix(1.0023 0 0 1 287.578 254.5438)" class="st3 st4">e</text>
	<text transform="matrix(1.0023 0 0 1 293.6488 254.5438)" class="st3 st4">l</text>
	<text transform="matrix(1.0023 0 0 1 296.2582 254.5438)" class="st3 st4">a</text>
	<text transform="matrix(1.0023 0 0 1 302.3265 254.5438)" class="st3 st4">t</text>
	<text transform="matrix(1.0023 0 0 1 305.8011 254.5438)" class="st3 st4">i</text>
	<text transform="matrix(1.0023 0 0 1 308.4105 254.5438)" class="st3 st4">v</text>
	<text transform="matrix(1.0023 0 0 1 313.6254 254.5438)" class="st3 st4">e</text>
	<text transform="matrix(1.0023 0 0 1 319.6957 254.5438)" class="st3 st4">T</text>
	<text transform="matrix(1.0023 0 0 1 325.766 254.5438)" class="st3 st4">o</text>
	<text transform="matrix(1.0023 0 0 1 332.7054 254.5438)" class="st3 st4">W</text>
	<text transform="matrix(1.0023 0 0 1 343.1234 254.5438)" class="st3 st4">a</text>
	<text transform="matrix(1.0023 0 0 1 349.1918 254.5438)" class="st3 st4">t</text>
	<text transform="matrix(1.0023 0 0 1 352.6664 254.5438)" class="st3 st4">e</text>
	<text transform="matrix(1.0023 0 0 1 358.7386 254.5438)" class="st3 st4">r</text>
	<text transform="matrix(1.0023 0 0 1 363.0687 254.5438)" class="st3 st4">:</text>
	<text transform="matrix(1.0023 0 0 1 365.6605 254.5438)" class="st3 st4"> </text>
	<text transform="matrix(1.0023 0 0 1 369.1254 254.5438)" class="st3 st4">c</text>
	<text transform="matrix(1.0023 0 0 1 374.3383 254.5438)" class="st3 st4">o</text>
	<text transform="matrix(1.0023 0 0 1 381.2777 254.5438)" class="st3 st4">r</text>
	<text transform="matrix(1.0023 0 0 1 385.6078 254.5438)" class="st3 st4">e</text>
	<text transform="matrix(1.0023 0 0 1 391.6781 254.5438)" class="st3 st4">:</text>
	<text transform="matrix(1.0023 0 0 1 394.2719 254.5438)" class="st3 st4">:</text>
	<text transform="matrix(1.0023 0 0 1 396.8656 254.5438)" class="st3 st4">R</text>
	<text transform="matrix(1.0023 0 0 1 403.807 254.5438)" class="st3 st4">e</text>
	<text transform="matrix(1.0023 0 0 1 409.8773 254.5438)" class="st3 st4">l</text>
	<text transform="matrix(1.0023 0 0 1 412.4867 254.5438)" class="st3 st4">a</text>
	<text transform="matrix(1.0023 0 0 1 418.557 254.5438)" class="st3 st4">t</text>
	<text transform="matrix(1.0023 0 0 1 422.0316 254.5438)" class="st3 st4">i</text>
	<text transform="matrix(1.0023 0 0 1 424.639 254.5438)" class="st3 st4">v</text>
	<text transform="matrix(1.0023 0 0 1 429.8539 254.5438)" class="st3 st4">e</text>
	<text transform="matrix(1.0023 0 0 1 435.9222 254.5438)" class="st3 st4">T</text>
	<text transform="matrix(1.0023 0 0 1 441.9945 254.5438)" class="st3 st4">o</text>
	<text transform="matrix(1.0023 0 0 1 448.9359 254.5438)" class="st3 st4">W</text>
	<text transform="matrix(1.0023 0 0 1 459.3519 254.5438)" class="st3 st4">a</text>
	<text transform="matrix(1.0023 0 0 1 465.4222 254.5438)" class="st3 st4">t</text>
	<text transform="matrix(1.0023 0 0 1 468.8969 254.5438)" class="st3 st4">e</text>
	<text transform="matrix(1.0023 0 0 1 474.9652 254.5438)" class="st3 st4">r</text>
	<text transform="matrix(1.0023 0 0 1 479.2972 254.5438)" class="st3 st4">T</text>
	<text transform="matrix(1.0023 0 0 1 485.3676 254.5438)" class="st3 st4">y</text>
	<text transform="matrix(1.0023 0 0 1 490.5804 254.5438)" class="st3 st4">p</text>
	<text transform="matrix(1.0023 0 0 1 497.5199 254.5438)" class="st3 st4">e</text>
	<text transform="matrix(1.0023 0 0 1 503.5902 254.5438)" class="st3 st4"> </text>
	<text transform="matrix(1.0023 0 0 1 507.0551 254.5438)" class="st3 st4">[</text>
	<text transform="matrix(1.0023 0 0 1 510.516 254.5438)" class="st3 st4">0</text>
	<text transform="matrix(1.0023 0 0 1 516.598 254.5438)" class="st3 st4">.</text>
	<text transform="matrix(1.0023 0 0 1 519.1937 254.5438)" class="st3 st4">.</text>
	<text transform="matrix(1.0023 0 0 1 521.7855 254.5438)" class="st3 st4">1</text>
	<text transform="matrix(1.0023 0 0 1 527.8695 254.5438)" class="st3 st4">]</text>
	<path class="st0" d="M155.2,297c1.2,0,2.2,1,2.2,2.2l0,0v176.7l0,0c0,1.2-1,2.2-2.2,2.2l0,0l0,0H73.6l0,0c-1.2,0-2.2-1-2.2-2.2l0,0
		V299.1c0-1.2,1-2.2,2.2-2.2l0,0H155.2L155.2,297L155.2,297z"/>
	<path class="st8" d="M152.6,294.4c1.2,0,2.2,1,2.2,2.2l0,0v176.7l0,0c0,1.2-1,2.2-2.2,2.2l0,0l0,0H71l0,0c-1.2,0-2.2-1-2.2-2.2l0,0
		V296.5c0-1.2,1-2.2,2.2-2.2l0,0H152.6L152.6,294.4L152.6,294.4z"/>
	<path class="st2" d="M152.6,294.4c1.2,0,2.2,1,2.2,2.2l0,0v176.7l0,0c0,1.2-1,2.2-2.2,2.2l0,0l0,0H71l0,0c-1.2,0-2.2-1-2.2-2.2l0,0
		V296.5c0-1.2,1-2.2,2.2-2.2l0,0H152.6L152.6,294.4L152.6,294.4z"/>
	<text transform="matrix(1.0023 0 0 1 94.0135 311.6844)" class="st3 st4">«</text>
	<text transform="matrix(1.0023 0 0 1 100.0839 311.6844)" class="st3 st4">T</text>
	<text transform="matrix(1.0023 0 0 1 106.1542 311.6844)" class="st3 st4">y</text>
	<text transform="matrix(1.0023 0 0 1 111.3671 311.6844)" class="st3 st4">p</text>
	<text transform="matrix(1.0023 0 0 1 118.3065 311.6844)" class="st3 st4">e</text>
	<text transform="matrix(1.0023 0 0 1 124.3768 311.6844)" class="st3 st4">»</text>
	<text transform="matrix(0.9506 0 -0.3169 0.9485 71.4227 326.4257)" class="st3 st6">g</text>
	<text transform="matrix(0.9506 0 -0.3169 0.9485 71.4227 326.4257)" class="st7 st3 st6">g</text>
	<text transform="matrix(0.9506 0 -0.3169 0.9485 78.3621 326.4257)" class="st3 st6">m</text>
	<text transform="matrix(0.9506 0 -0.3169 0.9485 78.3621 326.4257)" class="st7 st3 st6">m</text>
	<text transform="matrix(0.9506 0 -0.3169 0.9485 88.7703 326.4257)" class="st3 st6">l</text>
	<text transform="matrix(0.9506 0 -0.3169 0.9485 88.7703 326.4257)" class="st7 st3 st6">l</text>
	<text transform="matrix(0.9506 0 -0.3169 0.9485 91.3797 326.4257)" class="st3 st6">:</text>
	<text transform="matrix(0.9506 0 -0.3169 0.9485 91.3797 326.4257)" class="st7 st3 st6">:</text>
	<text transform="matrix(0.9506 0 -0.3169 0.9485 93.9734 326.4257)" class="st3 st6">:</text>
	<text transform="matrix(0.9506 0 -0.3169 0.9485 93.9734 326.4257)" class="st7 st3 st6">:</text>
	<text transform="matrix(0.9506 0 -0.3169 0.9485 96.5672 326.4257)" class="st3 st6">_</text>
	<text transform="matrix(0.9506 0 -0.3169 0.9485 96.5672 326.4257)" class="st7 st3 st6">_</text>
	<text transform="matrix(0.9506 0 -0.3169 0.9485 100.9109 326.4257)" class="st3 st6">G</text>
	<text transform="matrix(0.9506 0 -0.3169 0.9485 100.9109 326.4257)" class="st7 st3 st6">G</text>
	<text transform="matrix(0.9506 0 -0.3169 0.9485 108.7215 326.4257)" class="st3 st6">e</text>
	<text transform="matrix(0.9506 0 -0.3169 0.9485 108.7215 326.4257)" class="st7 st3 st6">e</text>
	<text transform="matrix(0.9506 0 -0.3169 0.9485 114.7918 326.4257)" class="st3 st6">o</text>
	<text transform="matrix(0.9506 0 -0.3169 0.9485 114.7918 326.4257)" class="st7 st3 st6">o</text>
	<text transform="matrix(0.9506 0 -0.3169 0.9485 121.7332 326.4257)" class="st3 st6">m</text>
	<text transform="matrix(0.9506 0 -0.3169 0.9485 121.7332 326.4257)" class="st7 st3 st6">m</text>
	<text transform="matrix(0.9506 0 -0.3169 0.9485 132.1414 326.4257)" class="st3 st6">e</text>
	<text transform="matrix(0.9506 0 -0.3169 0.9485 132.1414 326.4257)" class="st7 st3 st6">e</text>
	<text transform="matrix(0.9506 0 -0.3169 0.9485 138.2117 326.4257)" class="st3 st6">t</text>
	<text transform="matrix(0.9506 0 -0.3169 0.9485 138.2117 326.4257)" class="st7 st3 st6">t</text>
	<text transform="matrix(0.9506 0 -0.3169 0.9485 142.5437 326.4257)" class="st3 st6">r</text>
	<text transform="matrix(0.9506 0 -0.3169 0.9485 142.5437 326.4257)" class="st7 st3 st6">r</text>
	<text transform="matrix(0.9506 0 -0.3169 0.9485 146.8738 326.4257)" class="st3 st6">y</text>
	<text transform="matrix(0.9506 0 -0.3169 0.9485 146.8738 326.4257)" class="st7 st3 st6">y</text>
	<path class="st9" d="M183.4,138.5c1.4,0,2.6,1.2,2.6,2.6l0,0v80.6l0,0c0,1.4-1.2,2.6-2.6,2.6l0,0l0,0H28l0,0
		c-1.4,0-2.6-1.2-2.6-2.6v-80.6c0-1.4,1.2-2.6,2.6-2.6l0,0L183.4,138.5L183.4,138.5L183.4,138.5z"/>
	<path class="st10" d="M183.4,138.5c1.4,0,2.6,1.2,2.6,2.6l0,0v80.6l0,0c0,1.4-1.2,2.6-2.6,2.6l0,0l0,0H28l0,0
		c-1.4,0-2.6-1.2-2.6-2.6v-80.6c0-1.4,1.2-2.6,2.6-2.6l0,0L183.4,138.5L183.4,138.5L183.4,138.5z"/>
	<path class="st8" d="M45.8,164.4c1.2,0,2.2,1,2.2,2.2l0,0v9.5l0,0c0,1.2-1,2.2-2.2,2.2l0,0l0,0h-9.5l0,0c-1.2,0-2.2-1-2.2-2.2l0,0
		v-9.5c0-1.2,1-2.2,2.2-2.2l0,0H45.8L45.8,164.4L45.8,164.4z"/>
	<path class="st11" d="M45.8,164.4c1.2,0,2.2,1,2.2,2.2l0,0v9.5l0,0c0,1.2-1,2.2-2.2,2.2l0,0l0,0h-9.5l0,0c-1.2,0-2.2-1-2.2-2.2l0,0
		v-9.5c0-1.2,1-2.2,2.2-2.2l0,0H45.8L45.8,164.4L45.8,164.4z"/>
	<text transform="matrix(1.0023 0 0 1 53.201 176.575)" class="st12 st3 st4">G</text>
	<text transform="matrix(1.0023 0 0 1 61.0106 176.575)" class="st12 st3 st4">M</text>
	<text transform="matrix(1.0023 0 0 1 71.4266 176.575)" class="st12 st3 st4">L</text>
	<text transform="matrix(1.0023 0 0 1 76.6376 176.575)" class="st12 st3 st4">に</text>
	<text transform="matrix(1.0023 0 0 1 85.3251 176.575)" class="st12 st3 st4">定</text>
	<text transform="matrix(1.0023 0 0 1 96.6102 176.575)" class="st12 st3 st4">義</text>
	<text transform="matrix(1.0023 0 0 1 107.8954 176.575)" class="st12 st3 st4">さ</text>
	<text transform="matrix(1.0023 0 0 1 115.703 176.575)" class="st12 st3 st4">れ</text>
	<text transform="matrix(1.0023 0 0 1 126.1102 176.575)" class="st12 st3 st4">た</text>
	<text transform="matrix(1.0023 0 0 1 134.8026 176.575)" class="st12 st3 st4">ク</text>
	<text transform="matrix(1.0023 0 0 1 143.4803 176.575)" class="st12 st3 st4">ラ</text>
	<text transform="matrix(1.0023 0 0 1 151.2889 176.575)" class="st12 st3 st4">ス</text>
	<path class="st1" d="M45.8,180.9c1.2,0,2.2,1,2.2,2.2l0,0v9.5l0,0c0,1.2-1,2.2-2.2,2.2l0,0l0,0h-9.5l0,0c-1.2,0-2.2-1-2.2-2.2l0,0
		v-9.5c0-1.2,1-2.2,2.2-2.2l0,0H45.8L45.8,180.9L45.8,180.9z"/>
	<path class="st11" d="M45.8,180.9c1.2,0,2.2,1,2.2,2.2l0,0v9.5l0,0c0,1.2-1,2.2-2.2,2.2l0,0l0,0h-9.5l0,0c-1.2,0-2.2-1-2.2-2.2l0,0
		v-9.5c0-1.2,1-2.2,2.2-2.2l0,0H45.8L45.8,180.9L45.8,180.9z"/>
	<text transform="matrix(1.0023 0 0 1 53.201 193.0282)" class="st12 st3 st4">C</text>
	<text transform="matrix(1.0023 0 0 1 60.1542 193.0282)" class="st12 st3 st4">i</text>
	<text transform="matrix(1.0023 0 0 1 62.7635 193.0282)" class="st12 st3 st4">t</text>
	<text transform="matrix(1.0023 0 0 1 66.2382 193.0282)" class="st12 st3 st4">y</text>
	<text transform="matrix(1.0023 0 0 1 71.4501 193.0282)" class="st12 st3 st4">G</text>
	<text transform="matrix(1.0023 0 0 1 79.2606 193.0282)" class="st12 st3 st4">M</text>
	<text transform="matrix(1.0023 0 0 1 89.6766 193.0282)" class="st12 st3 st4">L</text>
	<text transform="matrix(1.0023 0 0 1 94.8866 193.0282)" class="st12 st3 st4">に</text>
	<text transform="matrix(1.0023 0 0 1 103.5741 193.0282)" class="st12 st3 st4">定</text>
	<text transform="matrix(1.0023 0 0 1 114.8592 193.0282)" class="st12 st3 st4">義</text>
	<text transform="matrix(1.0023 0 0 1 126.1454 193.0282)" class="st12 st3 st4">さ</text>
	<text transform="matrix(1.0023 0 0 1 133.952 193.0282)" class="st12 st3 st4">れ</text>
	<text transform="matrix(1.0023 0 0 1 144.3602 193.0282)" class="st12 st3 st4">た</text>
	<text transform="matrix(1.0023 0 0 1 153.0516 193.0282)" class="st12 st3 st4">ク</text>
	<text transform="matrix(1.0023 0 0 1 161.7303 193.0282)" class="st12 st3 st4">ラ</text>
	<text transform="matrix(1.0023 0 0 1 169.5389 193.0282)" class="st12 st3 st4">ス</text>
	<path class="st13" d="M45.8,197.4c1.2,0,2.2,1,2.2,2.2l0,0v9.5l0,0c0,1.2-1,2.2-2.2,2.2l0,0l0,0h-9.5l0,0c-1.2,0-2.2-1-2.2-2.2l0,0
		v-9.5c0-1.2,1-2.2,2.2-2.2l0,0H45.8L45.8,197.4L45.8,197.4z"/>
	<path class="st11" d="M45.8,197.4c1.2,0,2.2,1,2.2,2.2l0,0v9.5l0,0c0,1.2-1,2.2-2.2,2.2l0,0l0,0h-9.5l0,0c-1.2,0-2.2-1-2.2-2.2l0,0
		v-9.5c0-1.2,1-2.2,2.2-2.2l0,0H45.8L45.8,197.4L45.8,197.4z"/>
	<text transform="matrix(1.0023 0 0 1 53.201 209.4969)" class="st12 st3 st4">i</text>
	<text transform="matrix(1.0023 0 0 1 55.8104 209.4969)" class="st12 st3 st4">-</text>
	<text transform="matrix(1.0023 0 0 1 60.1542 209.4969)" class="st12 st3 st4">U</text>
	<text transform="matrix(1.0023 0 0 1 67.9637 209.4969)" class="st12 st3 st4">R</text>
	<text transform="matrix(1.0023 0 0 1 74.9061 209.4969)" class="st12 st3 st4">に</text>
	<text transform="matrix(1.0023 0 0 1 83.5926 209.4969)" class="st12 st3 st4">定</text>
	<text transform="matrix(1.0023 0 0 1 94.8788 209.4969)" class="st12 st3 st4">義</text>
	<text transform="matrix(1.0023 0 0 1 106.1639 209.4969)" class="st12 st3 st4">さ</text>
	<text transform="matrix(1.0023 0 0 1 113.9715 209.4969)" class="st12 st3 st4">れ</text>
	<text transform="matrix(1.0023 0 0 1 124.3788 209.4969)" class="st12 st3 st4">た</text>
	<text transform="matrix(1.0023 0 0 1 133.0702 209.4969)" class="st12 st3 st4">ク</text>
	<text transform="matrix(1.0023 0 0 1 141.7489 209.4969)" class="st12 st3 st4">ラ</text>
	<text transform="matrix(1.0023 0 0 1 149.5575 209.4969)" class="st12 st3 st4">ス</text>
	<text transform="matrix(1.0023 0 0 1 92.2635 156.6375)" class="st12 st14 st15">凡例</text>
	<text transform="matrix(1.0023 0 0 1 92.2635 156.6375)" class="st16 st14 st15">凡例</text>
	<path class="st0" d="M493.8,28.5c1.2,0,2.2,1,2.2,2.2l0,0v85.7l0,0c0,1.2-1,2.2-2.2,2.2l0,0l0,0H273.3l0,0c-1.2,0-2.2-1-2.2-2.2
		l0,0V30.6c0-1.2,1-2.2,2.2-2.2l0,0L493.8,28.5L493.8,28.5L493.8,28.5z"/>
	<path class="st8" d="M491.2,25.9c1.2,0,2.2,1,2.2,2.2l0,0v85.7l0,0c0,1.2-1,2.2-2.2,2.2l0,0l0,0H270.7l0,0c-1.2,0-2.2-1-2.2-2.2
		l0,0V28c0-1.2,1-2.2,2.2-2.2l0,0H491.2L491.2,25.9L491.2,25.9z"/>
	<path class="st2" d="M491.2,25.9c1.2,0,2.2,1,2.2,2.2l0,0v85.7l0,0c0,1.2-1,2.2-2.2,2.2l0,0l0,0H270.7l0,0c-1.2,0-2.2-1-2.2-2.2
		l0,0V28c0-1.2,1-2.2,2.2-2.2l0,0H491.2L491.2,25.9L491.2,25.9z"/>
	<text transform="matrix(1.0023 0 0 1 344.0297 43.1844)" class="st3 st4">«</text>
	<text transform="matrix(1.0023 0 0 1 350.1 43.1844)" class="st3 st4">F</text>
	<text transform="matrix(1.0023 0 0 1 355.3168 43.1844)" class="st3 st4">e</text>
	<text transform="matrix(1.0023 0 0 1 361.3871 43.1844)" class="st3 st4">a</text>
	<text transform="matrix(1.0023 0 0 1 367.4574 43.1844)" class="st3 st4">t</text>
	<text transform="matrix(1.0023 0 0 1 370.932 43.1844)" class="st3 st4">u</text>
	<text transform="matrix(1.0023 0 0 1 377.014 43.1844)" class="st3 st4">r</text>
	<text transform="matrix(1.0023 0 0 1 381.3422 43.1844)" class="st3 st4">e</text>
	<text transform="matrix(1.0023 0 0 1 387.4144 43.1844)" class="st3 st4">T</text>
	<text transform="matrix(1.0023 0 0 1 393.4847 43.1844)" class="st3 st4">y</text>
	<text transform="matrix(1.0023 0 0 1 398.6976 43.1844)" class="st3 st4">p</text>
	<text transform="matrix(1.0023 0 0 1 405.6371 43.1844)" class="st3 st4">e</text>
	<text transform="matrix(1.0023 0 0 1 411.7074 43.1844)" class="st3 st4">»</text>
	<text transform="matrix(0.9506 0 -0.3169 0.9485 346.6283 57.9198)" class="st3 st6">g</text>
	<text transform="matrix(0.9506 0 -0.3169 0.9485 346.6283 57.9198)" class="st7 st3 st6">g</text>
	<text transform="matrix(0.9506 0 -0.3169 0.9485 353.5677 57.9198)" class="st3 st6">m</text>
	<text transform="matrix(0.9506 0 -0.3169 0.9485 353.5677 57.9198)" class="st7 st3 st6">m</text>
	<text transform="matrix(0.9506 0 -0.3169 0.9485 363.976 57.9198)" class="st3 st6">l</text>
	<text transform="matrix(0.9506 0 -0.3169 0.9485 363.976 57.9198)" class="st7 st3 st6">l</text>
	<text transform="matrix(0.9506 0 -0.3169 0.9485 366.5853 57.9198)" class="st3 st6">:</text>
	<text transform="matrix(0.9506 0 -0.3169 0.9485 366.5853 57.9198)" class="st7 st3 st6">:</text>
	<text transform="matrix(0.9506 0 -0.3169 0.9485 369.1791 57.9198)" class="st3 st6">:</text>
	<text transform="matrix(0.9506 0 -0.3169 0.9485 369.1791 57.9198)" class="st7 st3 st6">:</text>
	<text transform="matrix(0.9506 0 -0.3169 0.9485 371.7728 57.9198)" class="st3 st6">_</text>
	<text transform="matrix(0.9506 0 -0.3169 0.9485 371.7728 57.9198)" class="st7 st3 st6">_</text>
	<text transform="matrix(0.9506 0 -0.3169 0.9485 376.1166 57.9198)" class="st3 st6">F</text>
	<text transform="matrix(0.9506 0 -0.3169 0.9485 376.1166 57.9198)" class="st7 st3 st6">F</text>
	<text transform="matrix(0.9506 0 -0.3169 0.9485 382.1927 57.9198)" class="st3 st6">e</text>
	<text transform="matrix(0.9506 0 -0.3169 0.9485 382.1927 57.9198)" class="st7 st3 st6">e</text>
	<text transform="matrix(0.9506 0 -0.3169 0.9485 388.2631 57.9198)" class="st3 st6">a</text>
	<text transform="matrix(0.9506 0 -0.3169 0.9485 388.2631 57.9198)" class="st7 st3 st6">a</text>
	<text transform="matrix(0.9506 0 -0.3169 0.9485 394.3314 57.9198)" class="st3 st6">t</text>
	<text transform="matrix(0.9506 0 -0.3169 0.9485 394.3314 57.9198)" class="st7 st3 st6">t</text>
	<text transform="matrix(0.9506 0 -0.3169 0.9485 398.6635 57.9198)" class="st3 st6">u</text>
	<text transform="matrix(0.9506 0 -0.3169 0.9485 398.6635 57.9198)" class="st7 st3 st6">u</text>
	<text transform="matrix(0.9506 0 -0.3169 0.9485 405.6029 57.9198)" class="st3 st6">r</text>
	<text transform="matrix(0.9506 0 -0.3169 0.9485 405.6029 57.9198)" class="st7 st3 st6">r</text>
	<text transform="matrix(0.9506 0 -0.3169 0.9485 409.933 57.9198)" class="st3 st6">e</text>
	<text transform="matrix(0.9506 0 -0.3169 0.9485 409.933 57.9198)" class="st7 st3 st6">e</text>
	<line class="st2" x1="268.5" y1="64.8" x2="493.3" y2="64.8"/>
	<text transform="matrix(1.0023 0 0 1 272.8417 80.4344)" class="st3 st4">+</text>
	<text transform="matrix(1.0023 0 0 1 280.6522 80.4344)" class="st3 st4"> </text>
	<text transform="matrix(1.0023 0 0 1 291.9359 80.4344)" class="st3 st4">d</text>
	<text transform="matrix(1.0023 0 0 1 298.8754 80.4344)" class="st3 st4">e</text>
	<text transform="matrix(1.0023 0 0 1 304.9457 80.4344)" class="st3 st4">s</text>
	<text transform="matrix(1.0023 0 0 1 310.1527 80.4344)" class="st3 st4">c</text>
	<text transform="matrix(1.0023 0 0 1 315.3656 80.4344)" class="st3 st4">r</text>
	<text transform="matrix(1.0023 0 0 1 319.6937 80.4344)" class="st3 st4">i</text>
	<text transform="matrix(1.0023 0 0 1 322.3031 80.4344)" class="st3 st4">p</text>
	<text transform="matrix(1.0023 0 0 1 329.2426 80.4344)" class="st3 st4">t</text>
	<text transform="matrix(1.0023 0 0 1 332.7172 80.4344)" class="st3 st4">i</text>
	<text transform="matrix(1.0023 0 0 1 335.3265 80.4344)" class="st3 st4">o</text>
	<text transform="matrix(1.0023 0 0 1 342.266 80.4344)" class="st3 st4">n</text>
	<text transform="matrix(1.0023 0 0 1 348.348 80.4344)" class="st3 st4">:</text>
	<text transform="matrix(1.0023 0 0 1 350.9418 80.4344)" class="st3 st4"> </text>
	<text transform="matrix(1.0023 0 0 1 354.4047 80.4344)" class="st3 st4">g</text>
	<text transform="matrix(1.0023 0 0 1 361.3441 80.4344)" class="st3 st4">m</text>
	<text transform="matrix(1.0023 0 0 1 370.8949 80.4344)" class="st3 st4">l</text>
	<text transform="matrix(1.0023 0 0 1 373.5043 80.4344)" class="st3 st4">:</text>
	<text transform="matrix(1.0023 0 0 1 376.098 80.4344)" class="st3 st4">:</text>
	<text transform="matrix(1.0023 0 0 1 378.6918 80.4344)" class="st3 st4">S</text>
	<text transform="matrix(1.0023 0 0 1 384.766 80.4344)" class="st3 st4">t</text>
	<text transform="matrix(1.0023 0 0 1 388.2406 80.4344)" class="st3 st4">r</text>
	<text transform="matrix(1.0023 0 0 1 392.5687 80.4344)" class="st3 st4">i</text>
	<text transform="matrix(1.0023 0 0 1 395.1781 80.4344)" class="st3 st4">n</text>
	<text transform="matrix(1.0023 0 0 1 401.2601 80.4344)" class="st3 st4">g</text>
	<text transform="matrix(1.0023 0 0 1 408.1996 80.4344)" class="st3 st4">O</text>
	<text transform="matrix(1.0023 0 0 1 416.8773 80.4344)" class="st3 st4">r</text>
	<text transform="matrix(1.0023 0 0 1 421.2074 80.4344)" class="st3 st4">R</text>
	<text transform="matrix(1.0023 0 0 1 428.1488 80.4344)" class="st3 st4">e</text>
	<text transform="matrix(1.0023 0 0 1 434.2191 80.4344)" class="st3 st4">f</text>
	<text transform="matrix(1.0023 0 0 1 437.6957 80.4344)" class="st3 st4">T</text>
	<text transform="matrix(1.0023 0 0 1 443.766 80.4344)" class="st3 st4">y</text>
	<text transform="matrix(1.0023 0 0 1 448.9789 80.4344)" class="st3 st4">p</text>
	<text transform="matrix(1.0023 0 0 1 455.9183 80.4344)" class="st3 st4">e</text>
	<text transform="matrix(1.0023 0 0 1 461.9886 80.4344)" class="st3 st4"> </text>
	<text transform="matrix(1.0023 0 0 1 465.4535 80.4344)" class="st3 st4">[</text>
	<text transform="matrix(1.0023 0 0 1 468.9144 80.4344)" class="st3 st4">0</text>
	<text transform="matrix(1.0023 0 0 1 474.9984 80.4344)" class="st3 st4">.</text>
	<text transform="matrix(1.0023 0 0 1 477.5902 80.4344)" class="st3 st4">.</text>
	<text transform="matrix(1.0023 0 0 1 480.1859 80.4344)" class="st3 st4">1</text>
	<text transform="matrix(1.0023 0 0 1 486.2679 80.4344)" class="st3 st4">]</text>
	<text transform="matrix(1.0023 0 0 1 272.8417 95.1688)" class="st3 st4">+</text>
	<text transform="matrix(1.0023 0 0 1 280.6522 95.1688)" class="st3 st4"> </text>
	<text transform="matrix(1.0023 0 0 1 291.9359 95.1688)" class="st3 st4">n</text>
	<text transform="matrix(1.0023 0 0 1 298.0179 95.1688)" class="st3 st4">a</text>
	<text transform="matrix(1.0023 0 0 1 304.0863 95.1688)" class="st3 st4">m</text>
	<text transform="matrix(1.0023 0 0 1 313.639 95.1688)" class="st3 st4">e</text>
	<text transform="matrix(1.0023 0 0 1 319.7094 95.1688)" class="st3 st4">:</text>
	<text transform="matrix(1.0023 0 0 1 322.3031 95.1688)" class="st3 st4"> </text>
	<text transform="matrix(1.0023 0 0 1 325.766 95.1688)" class="st3 st4">g</text>
	<text transform="matrix(1.0023 0 0 1 332.7054 95.1688)" class="st3 st4">m</text>
	<text transform="matrix(1.0023 0 0 1 342.2562 95.1688)" class="st3 st4">l</text>
	<text transform="matrix(1.0023 0 0 1 344.8656 95.1688)" class="st3 st4">:</text>
	<text transform="matrix(1.0023 0 0 1 347.4594 95.1688)" class="st3 st4">:</text>
	<text transform="matrix(1.0023 0 0 1 350.0531 95.1688)" class="st3 st4">C</text>
	<text transform="matrix(1.0023 0 0 1 357.0062 95.1688)" class="st3 st4">o</text>
	<text transform="matrix(1.0023 0 0 1 363.9457 95.1688)" class="st3 st4">d</text>
	<text transform="matrix(1.0023 0 0 1 370.8851 95.1688)" class="st3 st4">e</text>
	<text transform="matrix(1.0023 0 0 1 376.9554 95.1688)" class="st3 st4">T</text>
	<text transform="matrix(1.0023 0 0 1 383.0258 95.1688)" class="st3 st4">y</text>
	<text transform="matrix(1.0023 0 0 1 388.2386 95.1688)" class="st3 st4">p</text>
	<text transform="matrix(1.0023 0 0 1 395.1781 95.1688)" class="st3 st4">e</text>
	<text transform="matrix(1.0023 0 0 1 401.2484 95.1688)" class="st3 st4"> </text>
	<text transform="matrix(1.0023 0 0 1 404.7133 95.1688)" class="st3 st4">[</text>
	<text transform="matrix(1.0023 0 0 1 408.1722 95.1688)" class="st3 st4">0</text>
	<text transform="matrix(1.0023 0 0 1 414.2582 95.1688)" class="st3 st4">.</text>
	<text transform="matrix(1.0023 0 0 1 416.8519 95.1688)" class="st3 st4">.</text>
	<text transform="matrix(1.0023 0 0 1 419.4457 95.1688)" class="st3 st4">1</text>
	<text transform="matrix(1.0023 0 0 1 425.5277 95.1688)" class="st3 st4">]</text>
	<text transform="matrix(1.0023 0 0 1 272.8417 109.8875)" class="st3 st4">+</text>
	<text transform="matrix(1.0023 0 0 1 280.6522 109.8875)" class="st3 st4"> </text>
	<text transform="matrix(1.0023 0 0 1 291.9359 109.8875)" class="st3 st4">b</text>
	<text transform="matrix(1.0023 0 0 1 298.8754 109.8875)" class="st3 st4">o</text>
	<text transform="matrix(1.0023 0 0 1 305.8148 109.8875)" class="st3 st4">u</text>
	<text transform="matrix(1.0023 0 0 1 311.8969 109.8875)" class="st3 st4">n</text>
	<text transform="matrix(1.0023 0 0 1 317.9789 109.8875)" class="st3 st4">d</text>
	<text transform="matrix(1.0023 0 0 1 324.9183 109.8875)" class="st3 st4">e</text>
	<text transform="matrix(1.0023 0 0 1 330.9886 109.8875)" class="st3 st4">d</text>
	<text transform="matrix(1.0023 0 0 1 337.9281 109.8875)" class="st3 st4">B</text>
	<text transform="matrix(1.0023 0 0 1 344.014 109.8875)" class="st3 st4">y</text>
	<text transform="matrix(1.0023 0 0 1 349.2269 109.8875)" class="st3 st4">:</text>
	<text transform="matrix(1.0023 0 0 1 351.8187 109.8875)" class="st3 st4"> </text>
	<text transform="matrix(1.0023 0 0 1 355.2836 109.8875)" class="st3 st4">g</text>
	<text transform="matrix(1.0023 0 0 1 362.223 109.8875)" class="st3 st4">m</text>
	<text transform="matrix(1.0023 0 0 1 371.7738 109.8875)" class="st3 st4">l</text>
	<text transform="matrix(1.0023 0 0 1 374.3832 109.8875)" class="st3 st4">:</text>
	<text transform="matrix(1.0023 0 0 1 376.975 109.8875)" class="st3 st4">:</text>
	<text transform="matrix(1.0023 0 0 1 379.5687 109.8875)" class="st3 st4">E</text>
	<text transform="matrix(1.0023 0 0 1 385.639 109.8875)" class="st3 st4">n</text>
	<text transform="matrix(1.0023 0 0 1 391.7211 109.8875)" class="st3 st4">v</text>
	<text transform="matrix(1.0023 0 0 1 396.934 109.8875)" class="st3 st4">e</text>
	<text transform="matrix(1.0023 0 0 1 403.0062 109.8875)" class="st3 st4">l</text>
	<text transform="matrix(1.0023 0 0 1 405.6156 109.8875)" class="st3 st4">o</text>
	<text transform="matrix(1.0023 0 0 1 412.5551 109.8875)" class="st3 st4">p</text>
	<text transform="matrix(1.0023 0 0 1 419.4945 109.8875)" class="st3 st4">e</text>
	<text transform="matrix(1.0023 0 0 1 425.5648 109.8875)" class="st3 st4"> </text>
	<text transform="matrix(1.0023 0 0 1 429.0297 109.8875)" class="st3 st4">[</text>
	<text transform="matrix(1.0023 0 0 1 432.4906 109.8875)" class="st3 st4">0</text>
	<text transform="matrix(1.0023 0 0 1 438.5746 109.8875)" class="st3 st4">.</text>
	<text transform="matrix(1.0023 0 0 1 441.1683 109.8875)" class="st3 st4">.</text>
	<text transform="matrix(1.0023 0 0 1 443.7601 109.8875)" class="st3 st4">1</text>
	<text transform="matrix(1.0023 0 0 1 449.8441 109.8875)" class="st3 st4">]</text>
	<line class="st17" x1="389.2" y1="154.9" x2="389.2" y2="117.7"/>
	<polyline class="st18" points="394.4,131.5 384,131.5 389.2,117.7 394.4,131.5 	"/>
	<polygon class="st17" points="394.4,131.5 384,131.5 389.2,117.7 	"/>
	<line class="st17" x1="293.7" y1="424.3" x2="156.5" y2="424.3"/>
	<path class="st17" d="M156.5,424.3l13-5.2 M156.5,424.3l13,5.2"/>
	<line class="st17" x1="293.7" y1="387" x2="156.5" y2="387"/>
	<path class="st17" d="M156.5,387l13-5.2 M156.5,387l13,5.2"/>
	<line class="st17" x1="293.7" y1="354.1" x2="156.5" y2="354.1"/>
	<path class="st17" d="M156.5,354.1l13-5.2 M156.5,354.1l13,5.2"/>
	<line class="st17" x1="293.7" y1="323" x2="156.5" y2="323"/>
	<path class="st17" d="M156.5,323l13-5.2 M156.5,323l13,5.2"/>
	<line class="st17" x1="293.7" y1="458.1" x2="156.5" y2="458.1"/>
	<path class="st17" d="M156.5,458.1l13-5.2 M156.5,458.1l13,5.2"/>
	<line class="st17" x1="390" y1="302.2" x2="390" y2="266.7"/>
	<polyline class="st18" points="395.2,280.5 384.8,280.5 390,266.7 395.2,280.5 	"/>
	<polygon class="st17" points="395.2,280.5 384.8,280.5 390,266.7 	"/>
	<text transform="matrix(1.0023 0 0 1 176.4823 380.1219)" class="st19 st20">+</text>
	<text transform="matrix(1.0023 0 0 1 180.828 380.1219)" class="st19 st20">l</text>
	<text transform="matrix(1.0023 0 0 1 183.4296 380.1219)" class="st19 st20">o</text>
	<text transform="matrix(1.0023 0 0 1 188.6376 380.1219)" class="st19 st20">d</text>
	<text transform="matrix(1.0023 0 0 1 193.8456 380.1219)" class="st19 st20">2</text>
	<text transform="matrix(1.0023 0 0 1 199.0477 380.1219)" class="st19 st20">G</text>
	<text transform="matrix(1.0023 0 0 1 205.12 380.1219)" class="st19 st20">e</text>
	<text transform="matrix(1.0023 0 0 1 210.3202 380.1219)" class="st19 st20">o</text>
	<text transform="matrix(1.0023 0 0 1 215.5282 380.1219)" class="st19 st20">m</text>
	<text transform="matrix(1.0023 0 0 1 223.328 380.1219)" class="st19 st20">e</text>
	<text transform="matrix(1.0023 0 0 1 228.5282 380.1219)" class="st19 st20">t</text>
	<text transform="matrix(1.0023 0 0 1 231.994 380.1219)" class="st19 st20">r</text>
	<text transform="matrix(1.0023 0 0 1 235.4667 380.1219)" class="st19 st20">y</text>
	<text transform="matrix(1.0023 0 0 1 159.1229 400.0438)" class="st19 st20">0</text>
	<text transform="matrix(1.0023 0 0 1 164.326 400.0438)" class="st19 st20">.</text>
	<text transform="matrix(1.0023 0 0 1 166.9276 400.0438)" class="st19 st20">.</text>
	<text transform="matrix(1.0023 0 0 1 169.5292 400.0438)" class="st19 st20">1</text>
	<text transform="matrix(1.0023 0 0 1 179.951 417.3719)" class="st19 st20">+</text>
	<text transform="matrix(1.0023 0 0 1 184.2968 417.3719)" class="st19 st20">l</text>
	<text transform="matrix(1.0023 0 0 1 186.8983 417.3719)" class="st19 st20">o</text>
	<text transform="matrix(1.0023 0 0 1 192.1063 417.3719)" class="st19 st20">d</text>
	<text transform="matrix(1.0023 0 0 1 197.3143 417.3719)" class="st19 st20">3</text>
	<text transform="matrix(1.0023 0 0 1 202.5165 417.3719)" class="st19 st20">G</text>
	<text transform="matrix(1.0023 0 0 1 208.5887 417.3719)" class="st19 st20">e</text>
	<text transform="matrix(1.0023 0 0 1 213.7889 417.3719)" class="st19 st20">o</text>
	<text transform="matrix(1.0023 0 0 1 218.9969 417.3719)" class="st19 st20">m</text>
	<text transform="matrix(1.0023 0 0 1 226.7968 417.3719)" class="st19 st20">e</text>
	<text transform="matrix(1.0023 0 0 1 231.9969 417.3719)" class="st19 st20">t</text>
	<text transform="matrix(1.0023 0 0 1 235.4628 417.3719)" class="st19 st20">r</text>
	<text transform="matrix(1.0023 0 0 1 238.9354 417.3719)" class="st19 st20">y</text>
	<text transform="matrix(1.0023 0 0 1 159.1229 437.2938)" class="st19 st20">0</text>
	<text transform="matrix(1.0023 0 0 1 164.326 437.2938)" class="st19 st20">.</text>
	<text transform="matrix(1.0023 0 0 1 166.9276 437.2938)" class="st19 st20">.</text>
	<text transform="matrix(1.0023 0 0 1 169.5292 437.2938)" class="st19 st20">1</text>
	<text transform="matrix(1.0023 0 0 1 176.4823 313.4188)" class="st19 st20">+</text>
	<text transform="matrix(1.0023 0 0 1 180.828 313.4188)" class="st19 st20">l</text>
	<text transform="matrix(1.0023 0 0 1 183.4296 313.4188)" class="st19 st20">o</text>
	<text transform="matrix(1.0023 0 0 1 188.6376 313.4188)" class="st19 st20">d</text>
	<text transform="matrix(1.0023 0 0 1 193.8456 313.4188)" class="st19 st20">0</text>
	<text transform="matrix(1.0023 0 0 1 199.0477 313.4188)" class="st19 st20">G</text>
	<text transform="matrix(1.0023 0 0 1 205.12 313.4188)" class="st19 st20">e</text>
	<text transform="matrix(1.0023 0 0 1 210.3202 313.4188)" class="st19 st20">o</text>
	<text transform="matrix(1.0023 0 0 1 215.5282 313.4188)" class="st19 st20">m</text>
	<text transform="matrix(1.0023 0 0 1 223.328 313.4188)" class="st19 st20">e</text>
	<text transform="matrix(1.0023 0 0 1 228.5282 313.4188)" class="st19 st20">t</text>
	<text transform="matrix(1.0023 0 0 1 231.994 313.4188)" class="st19 st20">r</text>
	<text transform="matrix(1.0023 0 0 1 235.4667 313.4188)" class="st19 st20">y</text>
	<text transform="matrix(1.0023 0 0 1 159.1229 335.95)" class="st19 st20">0</text>
	<text transform="matrix(1.0023 0 0 1 164.326 335.95)" class="st19 st20">.</text>
	<text transform="matrix(1.0023 0 0 1 166.9276 335.95)" class="st19 st20">.</text>
	<text transform="matrix(1.0023 0 0 1 169.5292 335.95)" class="st19 st20">1</text>
	<text transform="matrix(1.0023 0 0 1 176.4823 347.2)" class="st19 st20">+</text>
	<text transform="matrix(1.0023 0 0 1 180.828 347.2)" class="st19 st20">l</text>
	<text transform="matrix(1.0023 0 0 1 183.4296 347.2)" class="st19 st20">o</text>
	<text transform="matrix(1.0023 0 0 1 188.6376 347.2)" class="st19 st20">d</text>
	<text transform="matrix(1.0023 0 0 1 193.8456 347.2)" class="st19 st20">1</text>
	<text transform="matrix(1.0023 0 0 1 199.0477 347.2)" class="st19 st20">G</text>
	<text transform="matrix(1.0023 0 0 1 205.12 347.2)" class="st19 st20">e</text>
	<text transform="matrix(1.0023 0 0 1 210.3202 347.2)" class="st19 st20">o</text>
	<text transform="matrix(1.0023 0 0 1 215.5282 347.2)" class="st19 st20">m</text>
	<text transform="matrix(1.0023 0 0 1 223.328 347.2)" class="st19 st20">e</text>
	<text transform="matrix(1.0023 0 0 1 228.5282 347.2)" class="st19 st20">t</text>
	<text transform="matrix(1.0023 0 0 1 231.994 347.2)" class="st19 st20">r</text>
	<text transform="matrix(1.0023 0 0 1 235.4667 347.2)" class="st19 st20">y</text>
	<text transform="matrix(1.0023 0 0 1 159.1229 367.1063)" class="st19 st20">0</text>
	<text transform="matrix(1.0023 0 0 1 164.326 367.1063)" class="st19 st20">.</text>
	<text transform="matrix(1.0023 0 0 1 166.9276 367.1063)" class="st19 st20">.</text>
	<text transform="matrix(1.0023 0 0 1 169.5292 367.1063)" class="st19 st20">1</text>
	<text transform="matrix(1.0023 0 0 1 178.2323 448.5594)" class="st19 st20">+</text>
	<text transform="matrix(1.0023 0 0 1 182.578 448.5594)" class="st19 st20">l</text>
	<text transform="matrix(1.0023 0 0 1 185.1796 448.5594)" class="st19 st20">o</text>
	<text transform="matrix(1.0023 0 0 1 190.3876 448.5594)" class="st19 st20">d</text>
	<text transform="matrix(1.0023 0 0 1 195.5956 448.5594)" class="st19 st20">4</text>
	<text transform="matrix(1.0023 0 0 1 200.7977 448.5594)" class="st19 st20">G</text>
	<text transform="matrix(1.0023 0 0 1 206.87 448.5594)" class="st19 st20">e</text>
	<text transform="matrix(1.0023 0 0 1 212.0702 448.5594)" class="st19 st20">o</text>
	<text transform="matrix(1.0023 0 0 1 217.2782 448.5594)" class="st19 st20">m</text>
	<text transform="matrix(1.0023 0 0 1 225.078 448.5594)" class="st19 st20">e</text>
	<text transform="matrix(1.0023 0 0 1 230.2782 448.5594)" class="st19 st20">t</text>
	<text transform="matrix(1.0023 0 0 1 233.744 448.5594)" class="st19 st20">r</text>
	<text transform="matrix(1.0023 0 0 1 237.2167 448.5594)" class="st19 st20">y</text>
	<text transform="matrix(1.0023 0 0 1 159.1229 471.0594)" class="st19 st20">0</text>
	<text transform="matrix(1.0023 0 0 1 164.326 471.0594)" class="st19 st20">.</text>
	<text transform="matrix(1.0023 0 0 1 166.9276 471.0594)" class="st19 st20">.</text>
	<text transform="matrix(1.0023 0 0 1 169.5292 471.0594)" class="st19 st20">1</text>
</g>
</svg>
