<?xml version="1.0" encoding="utf-8"?>
<!-- Generator: Adobe Illustrator 27.5.0, SVG Export Plug-In . SVG Version: 6.00 Build 0)  -->
<svg version="1.1" id="レイヤー_1" xmlns="http://www.w3.org/2000/svg" xmlns:xlink="http://www.w3.org/1999/xlink" x="0px"
	 y="0px" viewBox="0 0 650.8939819 454.9790039" style="enable-background:new 0 0 650.8939819 454.9790039;" xml:space="preserve">
<style type="text/css">
	.st0{fill-rule:evenodd;clip-rule:evenodd;fill:#F0F0F0;}
	.st1{fill:none;stroke:#D7D7D7;stroke-width:0.7507;stroke-linecap:square;stroke-miterlimit:10;}
	.st2{fill-rule:evenodd;clip-rule:evenodd;fill:#CCFFCC;}
	.st3{fill:none;stroke:#000000;stroke-width:0.7507;stroke-linecap:square;stroke-miterlimit:10;}
	.st4{fill:#003060;}
	.st5{font-family:'YuGothicUI-Regular';}
	.st6{font-size:9.7585001px;}
	.st7{fill-rule:evenodd;clip-rule:evenodd;fill:#FFFFCC;}
	.st8{fill-rule:evenodd;clip-rule:evenodd;fill:#FFCCFF;}
	.st9{font-family:'Meiryo-Bold';}
	.st10{font-size:12.0105px;}
	.st11{opacity:0.502;fill-rule:evenodd;clip-rule:evenodd;fill:#969696;enable-background:new    ;}
	.st12{fill:none;stroke:#000000;stroke-width:1.5013;stroke-linecap:round;stroke-linejoin:round;stroke-miterlimit:10;}
	.st13{font-size:10.2875004px;}
	.st14{fill:none;stroke:#000000;stroke-width:0.2647485;stroke-miterlimit:9.4960003;}
	.st15{font-family:'YuGothicUI-Bold';}
	.st16{fill:none;stroke:#000000;stroke-width:1.5013;stroke-linecap:round;stroke-linejoin:bevel;stroke-miterlimit:10;}
	.st17{fill-rule:evenodd;clip-rule:evenodd;fill:#FFFFFF;}
	.st18{font-family:'Meiryo';}
	.st19{font-size:7.5065999px;}
</style>
<path class="st0" d="M566.7109985,37.3040009c1.2449951,0,2.2540283,1.0079994,2.2540283,2.2519989l0,0v84.8239975l0,0
	c0,1.2440033-1.0089722,2.2519989-2.2540283,2.2519989l0,0l0,0H432.196991l0,0
	c-1.2449951,0-2.2539978-1.0080032-2.2539978-2.2519989V39.5559998c0-1.2439995,1.0090027-2.2519989,2.2539978-2.2519989l0,0
	H566.7109985L566.7109985,37.3040009L566.7109985,37.3040009z"/>
<path class="st1" d="M566.7109985,37.3040009c1.2449951,0,2.2540283,1.0079994,2.2540283,2.2519989l0,0v84.8239975l0,0
	c0,1.2440033-1.0089722,2.2519989-2.2540283,2.2519989l0,0l0,0H432.196991l0,0
	c-1.2449951,0-2.2539978-1.0080032-2.2539978-2.2519989V39.5559998c0-1.2439995,1.0090027-2.2519989,2.2539978-2.2519989l0,0
	H566.7109985L566.7109985,37.3040009L566.7109985,37.3040009z"/>
<path class="st2" d="M447.6019897,59.8240013c1.0379944,0,1.8789978,0.8400002,1.8789978,1.8769989l0,0v8.257l0,0
	c0,1.0360031-0.8410034,1.8769989-1.8789978,1.8769989l0,0l0,0h-8.2659912l0,0
	c-1.0379944,0-1.8789978-0.8399963-1.8789978-1.8769989l0,0v-8.2579994c0-1.0359993,0.8410034-1.8769989,1.8789978-1.8769989l0,0
	h8.2659912V59.8240013L447.6019897,59.8240013z"/>
<path class="st3" d="M447.6019897,59.8240013c1.0379944,0,1.8789978,0.8400002,1.8789978,1.8769989l0,0v8.257l0,0
	c0,1.0360031-0.8410034,1.8769989-1.8789978,1.8769989l0,0l0,0h-8.2659912l0,0
	c-1.0379944,0-1.8789978-0.8399963-1.8789978-1.8769989l0,0v-8.2579994c0-1.0359993,0.8410034-1.8769989,1.8789978-1.8769989l0,0
	h8.2659912V59.8240013L447.6019897,59.8240013z"/>
<text transform="matrix(0.85 0 0 1 453.9853516 70.3286133)" class="st4 st5 st6">GMLに定義されたクラス</text>
<path class="st7" d="M447.6019897,74.0859985c1.0379944,0,1.8789978,0.8399963,1.8789978,1.8769989l0,0v8.2570038l0,0
	c0,1.0360031-0.8410034,1.8769989-1.8789978,1.8769989l0,0l0,0h-8.2659912l0,0
	c-1.0379944,0-1.8789978-0.8399963-1.8789978-1.8769989l0,0v-8.2570038c0-1.0360031,0.8410034-1.8769989,1.8789978-1.8769989l0,0
	H447.6019897L447.6019897,74.0859985L447.6019897,74.0859985z"/>
<path class="st3" d="M447.6019897,74.0859985c1.0379944,0,1.8789978,0.8399963,1.8789978,1.8769989l0,0v8.2570038l0,0
	c0,1.0360031-0.8410034,1.8769989-1.8789978,1.8769989l0,0l0,0h-8.2659912l0,0
	c-1.0379944,0-1.8789978-0.8399963-1.8789978-1.8769989l0,0v-8.2570038c0-1.0360031,0.8410034-1.8769989,1.8789978-1.8769989l0,0
	H447.6019897L447.6019897,74.0859985L447.6019897,74.0859985z"/>
<text transform="matrix(0.85 0 0 1 453.9853516 84.6020508)" class="st4 st5 st6">CityGMLに定義されたクラス</text>
<path class="st8" d="M447.6019897,88.3479996c1.0379944,0,1.8789978,0.8399963,1.8789978,1.8769989l0,0v8.2569962l0,0
	c0,1.0360031-0.8410034,1.8769989-1.8789978,1.8769989l0,0l0,0h-8.2659912l0,0
	c-1.0379944,0-1.8789978-0.8399963-1.8789978-1.8769989l0,0v-8.2570038c0-1.0360031,0.8410034-1.8769989,1.8789978-1.8769989l0,0
	h8.2659912V88.3479996L447.6019897,88.3479996z"/>
<path class="st3" d="M447.6019897,88.3479996c1.0379944,0,1.8789978,0.8399963,1.8789978,1.8769989l0,0v8.2569962l0,0
	c0,1.0360031-0.8410034,1.8769989-1.8789978,1.8769989l0,0l0,0h-8.2659912l0,0
	c-1.0379944,0-1.8789978-0.8399963-1.8789978-1.8769989l0,0v-8.2570038c0-1.0360031,0.8410034-1.8769989,1.8789978-1.8769989l0,0
	h8.2659912V88.3479996L447.6019897,88.3479996z"/>
<text transform="matrix(0.85 0 0 1 453.9853516 98.8598633)" class="st4 st5 st6">i-URに定義されたクラス</text>
<text transform="matrix(0.85 0 0 1 491.5634766 55.5566406)" class="st4 st9 st10">凡例</text>
<path class="st11" d="M319.1000061,39.5559998c1.0379944,0,1.8789978,0.8400002,1.8789978,1.8769989l0,0v329.5369873l0,0
	c0,1.0360107-0.8410034,1.8770142-1.8789978,1.8770142l0,0l0,0H65.8519974l0,0c-1.038002,0-1.8790016-0.8399963-1.8790016-1.8770142
	l0,0V41.4319992c0-1.0359993,0.8409996-1.8769989,1.8790016-1.8769989l0,0h253.2480164V39.5559998L319.1000061,39.5559998z"/>
<path class="st8" d="M316.8450012,37.3040009c1.0379944,0,1.8789978,0.8400002,1.8789978,1.8769989l0,0v329.5379944l0,0
	c0,1.0360107-0.8410034,1.8770142-1.8789978,1.8770142l0,0l0,0H63.5979996l0,0
	c-1.0379982,0-1.8790016-0.8399963-1.8790016-1.8770142l0,0V39.1800003c0-1.0359993,0.8409996-1.8769989,1.8790016-1.8769989l0,0
	h253.2470093V37.3040009L316.8450012,37.3040009z"/>
<path class="st12" d="M316.8450012,37.3040009c1.0379944,0,1.8789978,0.8400002,1.8789978,1.8769989l0,0v329.5379944l0,0
	c0,1.0360107-0.8410034,1.8770142-1.8789978,1.8770142l0,0l0,0H63.5979996l0,0
	c-1.0379982,0-1.8790016-0.8399963-1.8790016-1.8770142l0,0V39.1800003c0-1.0359993,0.8409996-1.8769989,1.8790016-1.8769989l0,0
	h253.2470093V37.3040009L316.8450012,37.3040009z"/>
<text transform="matrix(0.85 0 0 1 158.6572266 52.3291016)" class="st5 st6">«</text>
<text transform="matrix(0.85 0 0 1 163.9121094 52.3291016)" class="st5 st6">F</text>
<text transform="matrix(0.85 0 0 1 168.4277344 52.3291016)" class="st5 st6">e</text>
<text transform="matrix(0.85 0 0 1 173.6826172 52.3291016)" class="st5 st6">a</text>
<text transform="matrix(0.85 0 0 1 178.9375 52.3291016)" class="st5 st6">t</text>
<text transform="matrix(0.85 0 0 1 181.9448242 52.3291016)" class="st5 st6">u</text>
<text transform="matrix(0.85 0 0 1 187.2094727 52.3291016)" class="st5 st6">r</text>
<text transform="matrix(0.85 0 0 1 190.9575195 52.3291016)" class="st5 st6">e</text>
<text transform="matrix(0.85 0 0 1 196.2124023 52.3291016)" class="st5 st6">T</text>
<text transform="matrix(0.85 0 0 1 201.4682617 52.3291016)" class="st5 st6">y</text>
<text transform="matrix(0.85 0 0 1 205.9799805 52.3291016)" class="st5 st6">p</text>
<text transform="matrix(0.85 0 0 1 211.9868164 52.3291016)" class="st5 st6">e</text>
<text transform="matrix(0.85 0 0 1 217.2426758 52.3291016)" class="st5 st6">»</text>
<text transform="matrix(0.85 0 -0.3165 0.9486 145.8819427 65.0888367)" class="st5 st13">u</text>
<text transform="matrix(0.85 0 -0.3165 0.9486 145.8819427 65.0888367)" class="st14 st5 st13">u</text>
<text transform="matrix(0.85 0 -0.3165 0.9486 151.8887787 65.0888367)" class="st5 st13">r</text>
<text transform="matrix(0.85 0 -0.3165 0.9486 151.8887787 65.0888367)" class="st14 st5 st13">r</text>
<text transform="matrix(0.85 0 -0.3165 0.9486 155.635849 65.0888367)" class="st5 st13">f</text>
<text transform="matrix(0.85 0 -0.3165 0.9486 155.635849 65.0888367)" class="st14 st5 st13">f</text>
<text transform="matrix(0.85 0 -0.3165 0.9486 158.6456146 65.0888367)" class="st5 st13">::</text>
<text transform="matrix(0.85 0 -0.3165 0.9486 158.6456146 65.0888367)" class="st14 st5 st13">::</text>
<text transform="matrix(0.85 0 -0.3165 0.9486 163.1348724 65.0888367)" class="st5 st13">_</text>
<text transform="matrix(0.85 0 -0.3165 0.9486 163.1348724 65.0888367)" class="st14 st5 st13">_</text>
<text transform="matrix(0.85 0 -0.3165 0.9486 166.8975677 65.0888367)" class="st5 st13">U</text>
<text transform="matrix(0.85 0 -0.3165 0.9486 166.8975677 65.0888367)" class="st14 st5 st13">U</text>
<text transform="matrix(0.85 0 -0.3165 0.9486 173.6563568 65.0888367)" class="st5 st13">r</text>
<text transform="matrix(0.85 0 -0.3165 0.9486 173.6563568 65.0888367)" class="st14 st5 st13">r</text>
<text transform="matrix(0.85 0 -0.3165 0.9486 177.4044037 65.0888367)" class="st5 st13">b</text>
<text transform="matrix(0.85 0 -0.3165 0.9486 177.4044037 65.0888367)" class="st14 st5 st13">b</text>
<text transform="matrix(0.85 0 -0.3165 0.9486 183.4122162 65.0888367)" class="st5 st13">a</text>
<text transform="matrix(0.85 0 -0.3165 0.9486 183.4122162 65.0888367)" class="st14 st5 st13">a</text>
<text transform="matrix(0.85 0 -0.3165 0.9486 188.6651459 65.0888367)" class="st5 st13">n</text>
<text transform="matrix(0.85 0 -0.3165 0.9486 188.6651459 65.0888367)" class="st14 st5 st13">n</text>
<text transform="matrix(0.85 0 -0.3165 0.9486 194.6729584 65.0888367)" class="st5 st13">F</text>
<text transform="matrix(0.85 0 -0.3165 0.9486 194.6729584 65.0888367)" class="st14 st5 st13">F</text>
<text transform="matrix(0.85 0 -0.3165 0.9486 199.9317474 65.0888367)" class="st5 st13">un</text>
<text transform="matrix(0.85 0 -0.3165 0.9486 199.9317474 65.0888367)" class="st14 st5 st13">un</text>
<text transform="matrix(0.85 0 -0.3165 0.9486 211.9454193 65.0888367)" class="st5 st13">c</text>
<text transform="matrix(0.85 0 -0.3165 0.9486 211.9454193 65.0888367)" class="st14 st5 st13">c</text>
<text transform="matrix(0.85 0 -0.3165 0.9486 216.4581146 65.0888367)" class="st5 st13">t</text>
<text transform="matrix(0.85 0 -0.3165 0.9486 216.4581146 65.0888367)" class="st14 st5 st13">t</text>
<text transform="matrix(0.85 0 -0.3165 0.9486 220.2081146 65.0888367)" class="st5 st13">i</text>
<text transform="matrix(0.85 0 -0.3165 0.9486 220.2081146 65.0888367)" class="st14 st5 st13">i</text>
<text transform="matrix(0.85 0 -0.3165 0.9486 222.4659271 65.0888367)" class="st5 st13">o</text>
<text transform="matrix(0.85 0 -0.3165 0.9486 222.4659271 65.0888367)" class="st14 st5 st13">o</text>
<text transform="matrix(0.85 0 -0.3165 0.9486 228.4737396 65.0888367)" class="st5 st13">n</text>
<text transform="matrix(0.85 0 -0.3165 0.9486 228.4737396 65.0888367)" class="st14 st5 st13">n</text>
<line class="st12" x1="61.7190018" y1="71.0830002" x2="318.723999" y2="71.0830002"/>
<text transform="matrix(0.85 0 0 1 65.4697266 84.6020508)" class="st5 st6">+</text>
<text transform="matrix(0.85 0 0 1 72.230957 84.6020508)" class="st5 st6"> </text>
<text transform="matrix(0.85 0 0 1 82.0087891 84.6020508)" class="st5 st6">areaClassificationType: gml::CodeType [0..1]</text>
<text transform="matrix(0.85 0 0 1 65.4697266 97.3598633)" class="st5 st6">+</text>
<text transform="matrix(0.85 0 0 1 72.230957 97.3598633)" class="st5 st6"> </text>
<text transform="matrix(0.85 0 0 1 82.0087891 97.3598633)" class="st5 st6">city: gml::CodeType [0..1]</text>
<text transform="matrix(0.85 0 0 1 65.4697266 110.1176758)" class="st5 st6">+</text>
<text transform="matrix(0.85 0 0 1 72.230957 110.1176758)" class="st5 st6"> </text>
<text transform="matrix(0.85 0 0 1 82.0087891 110.1176758)" class="st5 st6">class: gml::CodeType [0..1]</text>
<text transform="matrix(0.85 0 0 1 65.4697266 122.8833008)" class="st5 st6">+ </text>
<text transform="matrix(0.85 0 0 1 82.0087891 122.8833008)" class="st5 st6">custodian: xs::string [0..1]</text>
<text transform="matrix(0.85 0 0 1 65.4697266 135.6411133)" class="st5 st6">+ </text>
<text transform="matrix(0.85 0 0 1 82.0087891 135.6411133)" class="st5 st6">enactmentFiscalYear: xs::gYear [0..1]</text>
<text transform="matrix(0.85 0 0 1 65.4697266 148.4067383)" class="st5 st6">+ </text>
<text transform="matrix(0.85 0 0 1 82.0087891 148.4067383)" class="st5 st6">expirationFiscalYear: xs::gYear [0..1]</text>
<text transform="matrix(0.85 0 0 1 65.4697266 161.1645508)" class="st5 st6">+ </text>
<text transform="matrix(0.85 0 0 1 82.0087891 161.1645508)" class="st5 st6">finalNotificationDate: xs::date [0..1]</text>
<text transform="matrix(0.85 0 0 1 65.4697266 173.9223633)" class="st5 st6">+ </text>
<text transform="matrix(0.85 0 0 1 82.0087891 173.9223633)" class="st5 st6">finalNotificationNumber: xs::string [0..1]</text>
<text transform="matrix(0.85 0 0 1 65.4697266 186.6879883)" class="st5 st6">+ </text>
<text transform="matrix(0.85 0 0 1 82.0087891 186.6879883)" class="st5 st6">function: gml::CodeType [0..*]</text>
<text transform="matrix(0.85 0 0 1 65.4697266 199.4536133)" class="st5 st6">+ </text>
<text transform="matrix(0.85 0 0 1 82.0087891 199.4536133)" class="st5 st6">legalGrounds: xs::string [0..1]</text>
<text transform="matrix(0.85 0 0 1 65.4697266 212.2036133)" class="st5 st6">+ </text>
<text transform="matrix(0.85 0 0 1 82.0087891 212.2036133)" class="st5 st6">nominalArea: gml::MeasureType [0..1]</text>
<text transform="matrix(0.85 0 0 1 65.4697266 224.9692383)" class="st5 st6">+ </text>
<text transform="matrix(0.85 0 0 1 82.0087891 224.9692383)" class="st5 st6">note: gml:StringOrRefType [0..1]</text>
<text transform="matrix(0.85 0 0 1 65.4697266 237.7348633)" class="st5 st6">+ </text>
<text transform="matrix(0.85 0 0 1 82.0087891 237.7348633)" class="st5 st6">notificationNumber: xs::string [0..1]</text>
<text transform="matrix(0.85 0 0 1 65.4697266 250.5004883)" class="st5 st6">+ </text>
<text transform="matrix(0.85 0 0 1 82.0087891 250.5004883)" class="st5 st6">prefecture: gml::CodeType [0..1]</text>
<text transform="matrix(0.85 0 0 1 65.4697266 263.2504883)" class="st5 st6">+ </text>
<text transform="matrix(0.85 0 0 1 82.0087891 263.2504883)" class="st5 st6">reason: gml:StringOrRefType [0..1]</text>
<text transform="matrix(0.85 0 0 1 65.4697266 276.0161133)" class="st5 st6">+ </text>
<text transform="matrix(0.85 0 0 1 82.0087891 276.0161133)" class="st5 st6">reference: xs::anyURI [0..1]</text>
<text transform="matrix(0.85 0 0 1 65.4697266 288.7817383)" class="st5 st6">+ </text>
<text transform="matrix(0.85 0 0 1 82.0087891 288.7817383)" class="st5 st6">surveyYear: xs::gYear [0..1]</text>
<text transform="matrix(0.85 0 0 1 65.4697266 301.5473633)" class="st5 st6">+ </text>
<text transform="matrix(0.85 0 0 1 82.0087891 301.5473633)" class="st5 st6">urbanPlanType: gml::CodeType [0..1]</text>
<text transform="matrix(0.85 0 0 1 65.4697266 314.2973633)" class="st5 st6">+ </text>
<text transform="matrix(0.85 0 0 1 82.0087891 314.2973633)" class="st5 st6">usage: gml::CodeType [0..*]</text>
<text transform="matrix(0.85 0 0 1 65.4697266 327.0629883)" class="st5 st6">+ </text>
<text transform="matrix(0.85 0 0 1 82.0087891 327.0629883)" class="st5 st6">validFrom: xs::date [0..1]</text>
<text transform="matrix(0.85 0 0 1 65.4697266 339.8286133)" class="st5 st6">+ </text>
<text transform="matrix(0.85 0 0 1 82.0087891 339.8286133)" class="st5 st6">validFromType: gml::CodeType [0..1]</text>
<text transform="matrix(0.85 0 0 1 65.4697266 352.5864258)" class="st5 st6">+ </text>
<text transform="matrix(0.85 0 0 1 82.0087891 352.5864258)" class="st5 st6">validTo: xs::date [0..1]</text>
<text transform="matrix(0.85 0 0 1 65.4697266 365.3442383)" class="st5 st6">+ </text>
<text transform="matrix(0.85 0 0 1 82.0087891 365.3442383)" class="st5 st6">validToType: gml::CodeType [0..1]</text>
<path class="st11" d="M597.8969727,317.2990112c1.0369873,0,1.8790283,0.8399963,1.8790283,1.8770142l0,0V427.269989l0,0
	c0,1.0360107-0.8410034,1.8770142-1.8790283,1.8770142l0,0l0,0H419.04599l0,0c-1.0379944,0-1.8789978-0.8399963-1.8789978-1.8770142
	l0,0V319.1749878c0-1.0360107,0.8410034-1.8770142,1.8789978-1.8770142l0,0L597.8969727,317.2990112L597.8969727,317.2990112
	L597.8969727,317.2990112z"/>
<path class="st8" d="M595.6430054,315.0469971c1.0369873,0,1.8790283,0.8399963,1.8790283,1.8770142l0,0v108.0950012l0,0
	c0,1.0360107-0.8410034,1.8770142-1.8790283,1.8770142l0,0l0,0H416.7919922l0,0
	c-1.0379944,0-1.8789978-0.8399963-1.8789978-1.8770142l0,0V316.9230042c0-1.0360107,0.8410034-1.8770142,1.8789978-1.8770142l0,0
	L595.6430054,315.0469971L595.6430054,315.0469971L595.6430054,315.0469971z"/>
<path class="st12" d="M595.6430054,315.0469971c1.0369873,0,1.8790283,0.8399963,1.8790283,1.8770142l0,0v108.0950012l0,0
	c0,1.0360107-0.8410034,1.8770142-1.8790283,1.8770142l0,0l0,0H416.7919922l0,0
	c-1.0379944,0-1.8789978-0.8399963-1.8789978-1.8770142l0,0V316.9230042c0-1.0360107,0.8410034-1.8770142,1.8789978-1.8770142l0,0
	L595.6430054,315.0469971L595.6430054,315.0469971L595.6430054,315.0469971z"/>
<text transform="matrix(0.85 0 0 1 474.2744141 330.0708008)" class="st5 st6">«FeatureType»</text>
<text transform="matrix(0.85 0 0 1 434.4462891 342.8208008)" class="st15 st6">urf::SedimentDisasterProneArea</text>
<line class="st12" x1="414.9129944" y1="348.8259888" x2="597.5219727" y2="348.8259888"/>
<text transform="matrix(0.85 0 0 1 418.6650391 362.3442383)" class="st5 st6">+ </text>
<text transform="matrix(0.85 0 0 1 435.2041016 362.3442383)" class="st5 st6">areaType: gml::CodeType</text>
<text transform="matrix(0.85 0 0 1 418.6650391 375.1098633)" class="st5 st6">+ </text>
<text transform="matrix(0.85 0 0 1 435.2041016 375.1098633)" class="st5 st6">disasterType: gml::CodeType</text>
<text transform="matrix(0.85 0 0 1 418.6650391 387.8598633)" class="st5 st6">+ </text>
<text transform="matrix(0.85 0 0 1 435.2041016 387.8598633)" class="st5 st6">status: gml::CodeType [0..1]</text>
<text transform="matrix(0.85 0 0 1 418.6650391 400.6254883)" class="st5 st6">+ </text>
<text transform="matrix(0.85 0 0 1 435.2041016 400.6254883)" class="st5 st6">zoneName: xs::string</text>
<text transform="matrix(0.85 0 0 1 418.6650391 413.3911133)" class="st5 st6">+ </text>
<text transform="matrix(0.85 0 0 1 435.2041016 413.3911133)" class="st5 st6">zoneNumber: xs::string</text>
<path class="st11" d="M572.3469849,144.647995c1.0380249,0,1.8790283,0.8399963,1.8790283,1.8769989l0,0v55.548996l0,0
	c0,1.0359955-0.8410034,1.8769989-1.8790283,1.8769989l0,0l0,0H434.0759888l0,0
	c-1.0379944,0-1.8789978-0.8399963-1.8789978-1.8769989l0,0v-55.548996c0-1.0359955,0.8410034-1.8769989,1.8789978-1.8769989l0,0
	H572.3469849L572.3469849,144.647995L572.3469849,144.647995z"/>
<path class="st2" d="M570.0930176,142.3959961c1.0380249,0,1.8790283,0.8399963,1.8790283,1.8769989l0,0v55.548996l0,0
	c0,1.0359955-0.8410034,1.8769989-1.8790283,1.8769989l0,0l0,0H431.8210144l0,0
	c-1.0379944,0-1.8789978-0.8399963-1.8789978-1.8769989l0,0v-55.548996c0-1.0359955,0.8410034-1.8769989,1.8789978-1.8769989l0,0
	H570.0930176L570.0930176,142.3959961L570.0930176,142.3959961z"/>
<path class="st12" d="M570.0930176,142.3959961c1.0380249,0,1.8790283,0.8399963,1.8790283,1.8769989l0,0v55.548996l0,0
	c0,1.0359955-0.8410034,1.8769989-1.8790283,1.8769989l0,0l0,0H431.8210144l0,0
	c-1.0379944,0-1.8789978-0.8399963-1.8789978-1.8769989l0,0v-55.548996c0-1.0359955,0.8410034-1.8769989,1.8789978-1.8769989l0,0
	H570.0930176L570.0930176,142.3959961L570.0930176,142.3959961z"/>
<text transform="matrix(0.85 0 0 1 485.5478516 157.4145508)" class="st5 st6">«Type»</text>
<text transform="matrix(0.85 0 0 1 462.2509766 170.1723633)" class="st15 st6">gml::MultiSurface</text>
<path class="st11" d="M567.8380127,219.7129974c1.0380249,0,1.8790283,0.8399963,1.8790283,1.8769989l0,0v55.5490112l0,0
	c0,1.0360107-0.8410034,1.8770142-1.8790283,1.8770142l0,0l0,0H449.105011l0,0
	c-1.0379944,0-1.8789978-0.8399963-1.8789978-1.8770142l0,0v-55.5490112c0-1.0359955,0.8410034-1.8769989,1.8789978-1.8769989l0,0
	H567.8380127L567.8380127,219.7129974L567.8380127,219.7129974z"/>
<path class="st8" d="M565.5839844,217.4609985c1.0380249,0,1.8790283,0.8399963,1.8790283,1.8769989l0,0v55.548996l0,0
	c0,1.0360107-0.8410034,1.8770142-1.8790283,1.8770142l0,0l0,0H446.8510132l0,0
	c-1.0379944,0-1.8789978-0.8399963-1.8789978-1.8770142l0,0v-55.548996c0-1.0359955,0.8410034-1.8769989,1.8789978-1.8769989l0,0
	H565.5839844L565.5839844,217.4609985L565.5839844,217.4609985z"/>
<path class="st12" d="M565.5839844,217.4609985c1.0380249,0,1.8790283,0.8399963,1.8790283,1.8769989l0,0v55.548996l0,0
	c0,1.0360107-0.8410034,1.8770142-1.8790283,1.8770142l0,0l0,0H446.8510132l0,0
	c-1.0379944,0-1.8789978-0.8399963-1.8789978-1.8770142l0,0v-55.548996c0-1.0359955,0.8410034-1.8769989,1.8789978-1.8769989l0,0
	H565.5839844L565.5839844,217.4609985L565.5839844,217.4609985z"/>
<text transform="matrix(0.85 0 0 1 474.2744141 232.4848633)" class="st5 st6">«FeatureType»</text>
<text transform="matrix(0.85 0 0 1 486.2978516 245.2426758)" class="st15 st6">urf::Zone</text>
<line class="st12" x1="444.9719849" y1="251.2409973" x2="567.4630127" y2="251.2409973"/>
<text transform="matrix(0.85 0 0 1 448.7275391 264.7583008)" class="st5 st6">+ </text>
<text transform="matrix(0.85 0 0 1 460.8710938 264.7583008)" class="st5 st6">location: xs::string [0..1]</text>
<line class="st16" x1="444.2200012" y1="242.9839935" x2="320.2269897" y2="242.2330017"/>
<polyline class="st17" points="332.25,237.7290039 332.25,246.7369995 320.2269897,242.2330017 332.25,237.7290039 "/>
<polygon class="st16" points="320.2269897,242.2330017 332.25,246.7369995 332.25,237.7290039 "/>
<line class="st16" x1="506.5929871" y1="314.29599" x2="506.5929871" y2="278.2640076"/>
<polyline class="st17" points="511.1019897,290.2749939 502.0840149,290.2749939 506.5929871,278.2640076 511.1019897,290.2749939 
	"/>
<polygon class="st16" points="506.5929871,278.2640076 502.0840149,290.2749939 511.1019897,290.2749939 "/>
<line class="st16" x1="320.2269897" y1="160.4109955" x2="429.1910095" y2="160.4109955"/>
<path class="st16" d="M429.1910095,160.4109955l-11.2720032,4.5039978 M429.1910095,160.4109955l-11.2720032-4.5039978"/>
<text transform="matrix(0.85 0 0 1 338.2587891 149.1489258)" class="st18 st19">+lod1MultiSurface</text>
<text transform="matrix(0.85 0 0 1 392.3681641 173.1723633)" class="st18 st19">0..1</text>
</svg>
