<?xml version="1.0" encoding="utf-8"?>
<!-- Generator: Adobe Illustrator 27.4.1, SVG Export Plug-In . SVG Version: 6.00 Build 0)  -->
<svg version="1.1" id="レイヤー_1" xmlns="http://www.w3.org/2000/svg" xmlns:xlink="http://www.w3.org/1999/xlink" x="0px"
	 y="0px" viewBox="0 0 644.2 526.4" style="enable-background:new 0 0 644.2 526.4;" xml:space="preserve">
<style type="text/css">
	.st0{fill-rule:evenodd;clip-rule:evenodd;fill:#CFD1D8;}
	.st1{fill-rule:evenodd;clip-rule:evenodd;fill:#FFCCFF;}
	.st2{fill:none;stroke:#000000;stroke-width:1.7322;stroke-linecap:round;stroke-linejoin:round;stroke-miterlimit:10;}
	.st3{font-family:'YuGothicUI-Regular';}
	.st4{font-size:11.2598px;}
	.st5{font-size:11.8726px;}
	.st6{fill:none;stroke:#000000;stroke-width:0.3218;stroke-miterlimit:10;}
	.st7{font-family:'YuGothicUI-Bold';}
	.st8{fill-rule:evenodd;clip-rule:evenodd;fill:#F0F0F0;}
	.st9{fill:none;stroke:#D7D7D7;stroke-width:0.8662;stroke-linecap:square;stroke-miterlimit:10;}
	.st10{fill-rule:evenodd;clip-rule:evenodd;fill:#CCFFCC;}
	.st11{fill:none;stroke:#000000;stroke-width:0.8662;stroke-linecap:square;stroke-miterlimit:10;}
	.st12{fill:#003060;}
	.st13{font-size:10.3938px;}
	.st14{fill-rule:evenodd;clip-rule:evenodd;fill:#FFFFCC;}
	.st15{font-family:'MS-PGothic';}
	.st16{font-size:13.8582px;}
	.st17{fill:none;stroke:#003060;stroke-width:0.396;stroke-miterlimit:10;}
	.st18{fill:none;stroke:#000000;stroke-width:1.7322;stroke-linecap:round;stroke-linejoin:bevel;stroke-miterlimit:10;}
	.st19{fill-rule:evenodd;clip-rule:evenodd;fill:#FFFFFF;}
</style>
<path class="st0" d="M356.2,28.5c1.2,0,2.2,1,2.2,2.2l0,0v64.1l0,0c0,1.2-1,2.2-2.2,2.2l0,0l0,0H195.6l0,0c-1.2,0-2.2-1-2.2-2.2l0,0
	V30.6c0-1.2,1-2.2,2.2-2.2l0,0h160.6V28.5L356.2,28.5z"/>
<path class="st1" d="M353.6,25.9c1.2,0,2.2,1,2.2,2.2l0,0v64.1l0,0c0,1.2-1,2.2-2.2,2.2l0,0l0,0H193l0,0c-1.2,0-2.2-1-2.2-2.2l0,0
	V28c0-1.2,1-2.2,2.2-2.2l0,0h160.6V25.9L353.6,25.9z"/>
<path class="st2" d="M353.6,25.9c1.2,0,2.2,1,2.2,2.2l0,0v64.1l0,0c0,1.2-1,2.2-2.2,2.2l0,0l0,0H193l0,0c-1.2,0-2.2-1-2.2-2.2l0,0
	V28c0-1.2,1-2.2,2.2-2.2l0,0h160.6V25.9L353.6,25.9z"/>
<text transform="matrix(0.85 0 0 1 243.7568 43.1916)" class="st3 st4">«DataType»</text>
<text transform="matrix(0.85 0 -0.3169 0.9485 206.4141 57.9205)" class="st3 st5">u</text>
<text transform="matrix(0.85 0 -0.3169 0.9485 206.4141 57.9205)" class="st6 st3 st5">u</text>
<text transform="matrix(0.85 0 -0.3169 0.9485 213.3536 57.9205)" class="st3 st5">r</text>
<text transform="matrix(0.85 0 -0.3169 0.9485 213.3536 57.9205)" class="st6 st3 st5">r</text>
<text transform="matrix(0.85 0 -0.3169 0.9485 217.6837 57.9205)" class="st3 st5">o</text>
<text transform="matrix(0.85 0 -0.3169 0.9485 217.6837 57.9205)" class="st6 st3 st5">o</text>
<text transform="matrix(0.85 0 -0.3169 0.9485 224.6231 57.9205)" class="st3 st5">:</text>
<text transform="matrix(0.85 0 -0.3169 0.9485 224.6231 57.9205)" class="st6 st3 st5">:</text>
<text transform="matrix(0.85 0 -0.3169 0.9485 227.2169 57.9205)" class="st3 st5">:</text>
<text transform="matrix(0.85 0 -0.3169 0.9485 227.2169 57.9205)" class="st6 st3 st5">:</text>
<text transform="matrix(0.85 0 -0.3169 0.9485 229.8106 57.9205)" class="st3 st5">D</text>
<text transform="matrix(0.85 0 -0.3169 0.9485 229.8106 57.9205)" class="st6 st3 st5">D</text>
<text transform="matrix(0.85 0 -0.3169 0.9485 237.6329 57.9205)" class="st3 st5">i</text>
<text transform="matrix(0.85 0 -0.3169 0.9485 237.6329 57.9205)" class="st6 st3 st5">i</text>
<text transform="matrix(0.85 0 -0.3169 0.9485 240.2422 57.9205)" class="st3 st5">s</text>
<text transform="matrix(0.85 0 -0.3169 0.9485 240.2422 57.9205)" class="st6 st3 st5">s</text>
<text transform="matrix(0.85 0 -0.3169 0.9485 245.4473 57.9205)" class="st3 st5">a</text>
<text transform="matrix(0.85 0 -0.3169 0.9485 245.4473 57.9205)" class="st6 st3 st5">a</text>
<text transform="matrix(0.85 0 -0.3169 0.9485 251.5176 57.9205)" class="st3 st5">s</text>
<text transform="matrix(0.85 0 -0.3169 0.9485 251.5176 57.9205)" class="st6 st3 st5">s</text>
<text transform="matrix(0.85 0 -0.3169 0.9485 256.7227 57.9205)" class="st3 st5">t</text>
<text transform="matrix(0.85 0 -0.3169 0.9485 256.7227 57.9205)" class="st6 st3 st5">t</text>
<text transform="matrix(0.85 0 -0.3169 0.9485 261.0547 57.9205)" class="st3 st5">e</text>
<text transform="matrix(0.85 0 -0.3169 0.9485 261.0547 57.9205)" class="st6 st3 st5">e</text>
<text transform="matrix(0.85 0 -0.3169 0.9485 267.127 57.9205)" class="st3 st5">r</text>
<text transform="matrix(0.85 0 -0.3169 0.9485 267.127 57.9205)" class="st6 st3 st5">r</text>
<text transform="matrix(0.85 0 -0.3169 0.9485 271.4551 57.9205)" class="st3 st5">R</text>
<text transform="matrix(0.85 0 -0.3169 0.9485 271.4551 57.9205)" class="st6 st3 st5">R</text>
<text transform="matrix(0.85 0 -0.3169 0.9485 278.3985 57.9205)" class="st3 st5">i</text>
<text transform="matrix(0.85 0 -0.3169 0.9485 278.3985 57.9205)" class="st6 st3 st5">i</text>
<text transform="matrix(0.85 0 -0.3169 0.9485 281.0079 57.9205)" class="st3 st5">s</text>
<text transform="matrix(0.85 0 -0.3169 0.9485 281.0079 57.9205)" class="st6 st3 st5">s</text>
<text transform="matrix(0.85 0 -0.3169 0.9485 286.213 57.9205)" class="st3 st5">k</text>
<text transform="matrix(0.85 0 -0.3169 0.9485 286.213 57.9205)" class="st6 st3 st5">k</text>
<text transform="matrix(0.85 0 -0.3169 0.9485 292.2852 57.9205)" class="st3 st5">A</text>
<text transform="matrix(0.85 0 -0.3169 0.9485 292.2852 57.9205)" class="st6 st3 st5">A</text>
<text transform="matrix(0.85 0 -0.3169 0.9485 300.0958 57.9205)" class="st3 st5">t</text>
<text transform="matrix(0.85 0 -0.3169 0.9485 300.0958 57.9205)" class="st6 st3 st5">t</text>
<text transform="matrix(0.85 0 -0.3169 0.9485 304.4278 57.9205)" class="st3 st5">t</text>
<text transform="matrix(0.85 0 -0.3169 0.9485 304.4278 57.9205)" class="st6 st3 st5">t</text>
<text transform="matrix(0.85 0 -0.3169 0.9485 308.7598 57.9205)" class="st3 st5">r</text>
<text transform="matrix(0.85 0 -0.3169 0.9485 308.7598 57.9205)" class="st6 st3 st5">r</text>
<text transform="matrix(0.85 0 -0.3169 0.9485 313.0899 57.9205)" class="st3 st5">i</text>
<text transform="matrix(0.85 0 -0.3169 0.9485 313.0899 57.9205)" class="st6 st3 st5">i</text>
<text transform="matrix(0.85 0 -0.3169 0.9485 315.6973 57.9205)" class="st3 st5">b</text>
<text transform="matrix(0.85 0 -0.3169 0.9485 315.6973 57.9205)" class="st6 st3 st5">b</text>
<text transform="matrix(0.85 0 -0.3169 0.9485 322.6368 57.9205)" class="st3 st5">u</text>
<text transform="matrix(0.85 0 -0.3169 0.9485 322.6368 57.9205)" class="st6 st3 st5">u</text>
<text transform="matrix(0.85 0 -0.3169 0.9485 329.5762 57.9205)" class="st3 st5">t</text>
<text transform="matrix(0.85 0 -0.3169 0.9485 329.5762 57.9205)" class="st6 st3 st5">t</text>
<text transform="matrix(0.85 0 -0.3169 0.9485 333.9102 57.9205)" class="st3 st5">e</text>
<text transform="matrix(0.85 0 -0.3169 0.9485 333.9102 57.9205)" class="st6 st3 st5">e</text>
<line class="st2" x1="190.8" y1="64.8" x2="355.7" y2="64.8"/>
<text transform="matrix(0.85 0 0 1 195.1484 80.4416)" class="st3 st4">+ description: gml::CodeType</text>
<path class="st0" d="M291.1,174c1.2,0,2.2,1,2.2,2.2l0,0v85.7l0,0c0,1.2-1,2.2-2.2,2.2l0,0l0,0H117.5l0,0c-1.2,0-2.2-1-2.2-2.2l0,0
	v-85.7c0-1.2,1-2.2,2.2-2.2l0,0H291.1L291.1,174L291.1,174z"/>
<path class="st1" d="M288.5,171.4c1.2,0,2.2,1,2.2,2.2l0,0v85.7l0,0c0,1.2-1,2.2-2.2,2.2l0,0l0,0H114.8l0,0c-1.2,0-2.2-1-2.2-2.2
	l0,0v-85.7c0-1.2,1-2.2,2.2-2.2l0,0H288.5L288.5,171.4L288.5,171.4z"/>
<path class="st2" d="M288.5,171.4c1.2,0,2.2,1,2.2,2.2l0,0v85.7l0,0c0,1.2-1,2.2-2.2,2.2l0,0l0,0H114.8l0,0c-1.2,0-2.2-1-2.2-2.2
	l0,0v-85.7c0-1.2,1-2.2,2.2-2.2l0,0H288.5L288.5,171.4L288.5,171.4z"/>
<text transform="matrix(0.85 0 0 1 171.71 188.6916)" class="st3 st4">«DataType»</text>
<text transform="matrix(0.85 0 -0.3169 0.9485 132.6413 203.4355)" class="st3 st5">u</text>
<text transform="matrix(0.85 0 -0.3169 0.9485 132.6413 203.4355)" class="st6 st3 st5">u</text>
<text transform="matrix(0.85 0 -0.3169 0.9485 139.5827 203.4355)" class="st3 st5">r</text>
<text transform="matrix(0.85 0 -0.3169 0.9485 139.5827 203.4355)" class="st6 st3 st5">r</text>
<text transform="matrix(0.85 0 -0.3169 0.9485 143.9109 203.4355)" class="st3 st5">o</text>
<text transform="matrix(0.85 0 -0.3169 0.9485 143.9109 203.4355)" class="st6 st3 st5">o</text>
<text transform="matrix(0.85 0 -0.3169 0.9485 150.8533 203.4355)" class="st3 st5">:</text>
<text transform="matrix(0.85 0 -0.3169 0.9485 150.8533 203.4355)" class="st6 st3 st5">:</text>
<text transform="matrix(0.85 0 -0.3169 0.9485 153.446 203.4355)" class="st3 st5">:</text>
<text transform="matrix(0.85 0 -0.3169 0.9485 153.446 203.4355)" class="st6 st3 st5">:</text>
<text transform="matrix(0.85 0 -0.3169 0.9485 156.0408 203.4355)" class="st3 st5">F</text>
<text transform="matrix(0.85 0 -0.3169 0.9485 156.0408 203.4355)" class="st6 st3 st5">F</text>
<text transform="matrix(0.85 0 -0.3169 0.9485 162.115 203.4355)" class="st3 st5">l</text>
<text transform="matrix(0.85 0 -0.3169 0.9485 162.115 203.4355)" class="st6 st3 st5">l</text>
<text transform="matrix(0.85 0 -0.3169 0.9485 164.7234 203.4355)" class="st3 st5">o</text>
<text transform="matrix(0.85 0 -0.3169 0.9485 164.7234 203.4355)" class="st6 st3 st5">o</text>
<text transform="matrix(0.85 0 -0.3169 0.9485 171.6609 203.4355)" class="st3 st5">o</text>
<text transform="matrix(0.85 0 -0.3169 0.9485 171.6609 203.4355)" class="st6 st3 st5">o</text>
<text transform="matrix(0.85 0 -0.3169 0.9485 178.6033 203.4355)" class="st3 st5">d</text>
<text transform="matrix(0.85 0 -0.3169 0.9485 178.6033 203.4355)" class="st6 st3 st5">d</text>
<text transform="matrix(0.85 0 -0.3169 0.9485 185.5408 203.4355)" class="st3 st5">i</text>
<text transform="matrix(0.85 0 -0.3169 0.9485 185.5408 203.4355)" class="st6 st3 st5">i</text>
<text transform="matrix(0.85 0 -0.3169 0.9485 188.1492 203.4355)" class="st3 st5">n</text>
<text transform="matrix(0.85 0 -0.3169 0.9485 188.1492 203.4355)" class="st6 st3 st5">n</text>
<text transform="matrix(0.85 0 -0.3169 0.9485 195.0906 203.4355)" class="st3 st5">g</text>
<text transform="matrix(0.85 0 -0.3169 0.9485 195.0906 203.4355)" class="st6 st3 st5">g</text>
<text transform="matrix(0.85 0 -0.3169 0.9485 202.0281 203.4355)" class="st3 st5">R</text>
<text transform="matrix(0.85 0 -0.3169 0.9485 202.0281 203.4355)" class="st6 st3 st5">R</text>
<text transform="matrix(0.85 0 -0.3169 0.9485 208.9695 203.4355)" class="st3 st5">i</text>
<text transform="matrix(0.85 0 -0.3169 0.9485 208.9695 203.4355)" class="st6 st3 st5">i</text>
<text transform="matrix(0.85 0 -0.3169 0.9485 211.5788 203.4355)" class="st3 st5">s</text>
<text transform="matrix(0.85 0 -0.3169 0.9485 211.5788 203.4355)" class="st6 st3 st5">s</text>
<text transform="matrix(0.85 0 -0.3169 0.9485 216.7859 203.4355)" class="st3 st5">k</text>
<text transform="matrix(0.85 0 -0.3169 0.9485 216.7859 203.4355)" class="st6 st3 st5">k</text>
<text transform="matrix(0.85 0 -0.3169 0.9485 222.8572 203.4355)" class="st3 st5">A</text>
<text transform="matrix(0.85 0 -0.3169 0.9485 222.8572 203.4355)" class="st6 st3 st5">A</text>
<text transform="matrix(0.85 0 -0.3169 0.9485 230.6697 203.4355)" class="st3 st5">t</text>
<text transform="matrix(0.85 0 -0.3169 0.9485 230.6697 203.4355)" class="st6 st3 st5">t</text>
<text transform="matrix(0.85 0 -0.3169 0.9485 235.0017 203.4355)" class="st3 st5">t</text>
<text transform="matrix(0.85 0 -0.3169 0.9485 235.0017 203.4355)" class="st6 st3 st5">t</text>
<text transform="matrix(0.85 0 -0.3169 0.9485 239.3327 203.4355)" class="st3 st5">r</text>
<text transform="matrix(0.85 0 -0.3169 0.9485 239.3327 203.4355)" class="st6 st3 st5">r</text>
<text transform="matrix(0.85 0 -0.3169 0.9485 243.6609 203.4355)" class="st3 st5">i</text>
<text transform="matrix(0.85 0 -0.3169 0.9485 243.6609 203.4355)" class="st6 st3 st5">i</text>
<text transform="matrix(0.85 0 -0.3169 0.9485 246.2702 203.4355)" class="st3 st5">b</text>
<text transform="matrix(0.85 0 -0.3169 0.9485 246.2702 203.4355)" class="st6 st3 st5">b</text>
<text transform="matrix(0.85 0 -0.3169 0.9485 253.2117 203.4355)" class="st3 st5">u</text>
<text transform="matrix(0.85 0 -0.3169 0.9485 253.2117 203.4355)" class="st6 st3 st5">u</text>
<text transform="matrix(0.85 0 -0.3169 0.9485 260.1492 203.4355)" class="st3 st5">t</text>
<text transform="matrix(0.85 0 -0.3169 0.9485 260.1492 203.4355)" class="st6 st3 st5">t</text>
<text transform="matrix(0.85 0 -0.3169 0.9485 264.4822 203.4355)" class="st3 st5">e</text>
<text transform="matrix(0.85 0 -0.3169 0.9485 264.4822 203.4355)" class="st6 st3 st5">e</text>
<line class="st2" x1="112.7" y1="210.4" x2="290.6" y2="210.4"/>
<text transform="matrix(0.85 0 0 1 117.0068 225.9416)" class="st3 st4">+ rank: gml::CodeType [0..1]</text>
<text transform="matrix(0.85 0 0 1 117.0068 240.6603)" class="st3 st4">+ rankOrg: gml::CodeType [0..1]</text>
<text transform="matrix(0.85 0 0 1 117.0068 255.3947)" class="st3 st4">+ depth: gml::LengthType [0..1]</text>
<path class="st0" d="M222.5,329.9c1.2,0,2.2,1,2.2,2.2l0,0v85.7l0,0c0,1.2-1,2.2-2.2,2.2l0,0l0,0H30.6l0,0c-1.2,0-2.2-1-2.2-2.2l0,0
	V332c0-1.2,1-2.2,2.2-2.2l0,0h191.9V329.9L222.5,329.9z"/>
<path class="st1" d="M219.9,327.3c1.2,0,2.2,1,2.2,2.2l0,0v85.7l0,0c0,1.2-1,2.2-2.2,2.2l0,0l0,0H28l0,0c-1.2,0-2.2-1-2.2-2.2l0,0
	v-85.7c0-1.2,1-2.2,2.2-2.2l0,0H219.9L219.9,327.3L219.9,327.3z"/>
<path class="st2" d="M219.9,327.3c1.2,0,2.2,1,2.2,2.2l0,0v85.7l0,0c0,1.2-1,2.2-2.2,2.2l0,0l0,0H28l0,0c-1.2,0-2.2-1-2.2-2.2l0,0
	v-85.7c0-1.2,1-2.2,2.2-2.2l0,0H219.9L219.9,327.3L219.9,327.3z"/>
<text transform="matrix(0.85 0 0 1 94.4443 344.6125)" class="st3 st4">«DataType»</text>
<text transform="matrix(0.85 0 0 1 42.3506 359.3469)" class="st7 st4">uro::RiverFloodingRiskAttribute</text>
<line class="st2" x1="25.9" y1="366.3" x2="222.1" y2="366.3"/>
<text transform="matrix(0.85 0 0 1 30.21 381.8469)" class="st3 st4">+ adminType: gml::CodeType</text>
<text transform="matrix(0.85 0 0 1 30.21 396.5656)" class="st3 st4">+ scale: gml::CodeType</text>
<text transform="matrix(0.85 0 0 1 30.21 411.2844)" class="st3 st4">+ duration: gml::MeasureType [0..1]</text>
<path class="st0" d="M286.7,435.6c1.2,0,2.2,1,2.2,2.2l0,0v61.5l0,0c0,1.2-1,2.2-2.2,2.2l0,0l0,0H134.8l0,0c-1.2,0-2.2-1-2.2-2.2
	l0,0v-61.5c0-1.2,1-2.2,2.2-2.2l0,0H286.7L286.7,435.6L286.7,435.6z"/>
<path class="st1" d="M284.1,433c1.2,0,2.2,1,2.2,2.2l0,0v61.5l0,0c0,1.2-1,2.2-2.2,2.2l0,0l0,0H132.2l0,0c-1.2,0-2.2-1-2.2-2.2l0,0
	v-61.5c0-1.2,1-2.2,2.2-2.2l0,0H284.1L284.1,433L284.1,433z"/>
<path class="st2" d="M284.1,433c1.2,0,2.2,1,2.2,2.2l0,0v61.5l0,0c0,1.2-1,2.2-2.2,2.2l0,0l0,0H132.2l0,0c-1.2,0-2.2-1-2.2-2.2l0,0
	v-61.5c0-1.2,1-2.2,2.2-2.2l0,0H284.1L284.1,433L284.1,433z"/>
<text transform="matrix(0.85 0 0 1 178.6484 450.2844)" class="st3 st4">«DataType»</text>
<text transform="matrix(0.85 0 0 1 138.71 465.0031)" class="st7 st4">uro::HighTideRiskAttribute</text>
<path class="st0" d="M502.9,435.6c1.2,0,2.2,1,2.2,2.2l0,0v55.4l0,0c0,1.2-1,2.2-2.2,2.2l0,0l0,0H325.8l0,0c-1.2,0-2.2-1-2.2-2.2
	l0,0v-55.4c0-1.2,1-2.2,2.2-2.2l0,0H502.9L502.9,435.6L502.9,435.6z"/>
<path class="st1" d="M500.3,433c1.2,0,2.2,1,2.2,2.2l0,0v55.4l0,0c0,1.2-1,2.2-2.2,2.2l0,0l0,0H323.2l0,0c-1.2,0-2.2-1-2.2-2.2l0,0
	v-55.4c0-1.2,1-2.2,2.2-2.2l0,0H500.3L500.3,433L500.3,433z"/>
<path class="st2" d="M500.3,433c1.2,0,2.2,1,2.2,2.2l0,0v55.4l0,0c0,1.2-1,2.2-2.2,2.2l0,0l0,0H323.2l0,0c-1.2,0-2.2-1-2.2-2.2l0,0
	v-55.4c0-1.2,1-2.2,2.2-2.2l0,0H500.3L500.3,433L500.3,433z"/>
<text transform="matrix(0.85 0 0 1 381.7891 450.2844)" class="st3 st4">«DataType»</text>
<text transform="matrix(0.85 0 0 1 326.2266 465.0031)" class="st7 st4">uro::InlandFloodingRiskAttribute</text>
<path class="st0" d="M468.2,174c1.2,0,2.2,1,2.2,2.2l0,0V249l0,0c0,1.2-1,2.2-2.2,2.2l0,0l0,0H317.1l0,0c-1.2,0-2.2-1-2.2-2.2l0,0
	v-72.8c0-1.2,1-2.2,2.2-2.2l0,0H468.2L468.2,174L468.2,174z"/>
<path class="st1" d="M465.6,171.4c1.2,0,2.2,1,2.2,2.2l0,0v72.8l0,0c0,1.2-1,2.2-2.2,2.2l0,0l0,0H314.5l0,0c-1.2,0-2.2-1-2.2-2.2
	l0,0v-72.8c0-1.2,1-2.2,2.2-2.2l0,0H465.6L465.6,171.4L465.6,171.4z"/>
<path class="st2" d="M465.6,171.4c1.2,0,2.2,1,2.2,2.2l0,0v72.8l0,0c0,1.2-1,2.2-2.2,2.2l0,0l0,0H314.5l0,0c-1.2,0-2.2-1-2.2-2.2
	l0,0v-72.8c0-1.2,1-2.2,2.2-2.2l0,0H465.6L465.6,171.4L465.6,171.4z"/>
<text transform="matrix(0.85 0 0 1 360.0859 188.6916)" class="st3 st4">«DataType»</text>
<text transform="matrix(0.85 0 0 1 319.2881 203.426)" class="st7 st4">uro::LandSlideRiskAttribute</text>
<line class="st2" x1="312.3" y1="210.4" x2="467.7" y2="210.4"/>
<text transform="matrix(0.85 0 0 1 316.6787 225.9416)" class="st3 st4">+ areaType: gml::CodeType</text>
<path class="st0" d="M416.1,331.6c1.2,0,2.2,1,2.2,2.2l0,0v61.5l0,0c0,1.2-1,2.2-2.2,2.2l0,0l0,0H256.4l0,0c-1.2,0-2.2-1-2.2-2.2
	l0,0v-61.5c0-1.2,1-2.2,2.2-2.2l0,0H416.1L416.1,331.6L416.1,331.6z"/>
<path class="st1" d="M413.5,329c1.2,0,2.2,1,2.2,2.2l0,0v61.5l0,0c0,1.2-1,2.2-2.2,2.2l0,0l0,0H253.7l0,0c-1.2,0-2.2-1-2.2-2.2l0,0
	v-61.5c0-1.2,1-2.2,2.2-2.2l0,0H413.5L413.5,329L413.5,329z"/>
<path class="st2" d="M413.5,329c1.2,0,2.2,1,2.2,2.2l0,0v61.5l0,0c0,1.2-1,2.2-2.2,2.2l0,0l0,0H253.7l0,0c-1.2,0-2.2-1-2.2-2.2l0,0
	v-61.5c0-1.2,1-2.2,2.2-2.2l0,0H413.5L413.5,329L413.5,329z"/>
<text transform="matrix(0.85 0 0 1 303.6631 346.3312)" class="st3 st4">«DataType»</text>
<text transform="matrix(0.85 0 0 1 265.46 361.0656)" class="st7 st4">uro::TsunamiRiskAttribute</text>
<path class="st8" d="M616.2,25.9c1.4,0,2.6,1.2,2.6,2.6l0,0v97.9l0,0c0,1.4-1.2,2.6-2.6,2.6l0,0l0,0H453.8l0,0
	c-1.4,0-2.6-1.2-2.6-2.6V28.5c0-1.4,1.2-2.6,2.6-2.6l0,0H616.2L616.2,25.9L616.2,25.9z"/>
<path class="st9" d="M616.2,25.9c1.4,0,2.6,1.2,2.6,2.6l0,0v97.9l0,0c0,1.4-1.2,2.6-2.6,2.6l0,0l0,0H453.8l0,0
	c-1.4,0-2.6-1.2-2.6-2.6V28.5c0-1.4,1.2-2.6,2.6-2.6l0,0H616.2L616.2,25.9L616.2,25.9z"/>
<path class="st10" d="M471.6,51.9c1.2,0,2.2,1,2.2,2.2l0,0v9.5l0,0c0,1.2-1,2.2-2.2,2.2l0,0l0,0h-9.5l0,0c-1.2,0-2.2-1-2.2-2.2l0,0
	V54c0-1.2,1-2.2,2.2-2.2l0,0h9.5V51.9L471.6,51.9z"/>
<path class="st11" d="M471.6,51.9c1.2,0,2.2,1,2.2,2.2l0,0v9.5l0,0c0,1.2-1,2.2-2.2,2.2l0,0l0,0h-9.5l0,0c-1.2,0-2.2-1-2.2-2.2l0,0
	V54c0-1.2,1-2.2,2.2-2.2l0,0h9.5V51.9L471.6,51.9z"/>
<text transform="matrix(0.85 0 0 1 479.0234 63.1135)" class="st12 st3 st13">GMLに定義されたクラス</text>
<path class="st14" d="M471.6,68.3c1.2,0,2.2,1,2.2,2.2l0,0V80l0,0c0,1.2-1,2.2-2.2,2.2l0,0l0,0h-9.5l0,0c-1.2,0-2.2-1-2.2-2.2l0,0
	v-9.5c0-1.2,1-2.2,2.2-2.2l0,0H471.6L471.6,68.3L471.6,68.3z"/>
<path class="st11" d="M471.6,68.3c1.2,0,2.2,1,2.2,2.2l0,0V80l0,0c0,1.2-1,2.2-2.2,2.2l0,0l0,0h-9.5l0,0c-1.2,0-2.2-1-2.2-2.2l0,0
	v-9.5c0-1.2,1-2.2,2.2-2.2l0,0H471.6L471.6,68.3L471.6,68.3z"/>
<text transform="matrix(0.85 0 0 1 479.0234 79.5666)" class="st12 st3 st13">CityGMLに定義されたクラス</text>
<path class="st1" d="M471.6,84.8c1.2,0,2.2,1,2.2,2.2l0,0v9.5l0,0c0,1.2-1,2.2-2.2,2.2l0,0l0,0h-9.5l0,0c-1.2,0-2.2-1-2.2-2.2l0,0
	V87c0-1.2,1-2.2,2.2-2.2l0,0H471.6L471.6,84.8L471.6,84.8z"/>
<path class="st11" d="M471.6,84.8c1.2,0,2.2,1,2.2,2.2l0,0v9.5l0,0c0,1.2-1,2.2-2.2,2.2l0,0l0,0h-9.5l0,0c-1.2,0-2.2-1-2.2-2.2l0,0
	V87c0-1.2,1-2.2,2.2-2.2l0,0H471.6L471.6,84.8L471.6,84.8z"/>
<text transform="matrix(0.85 0 0 1 479.0234 96.0187)" class="st12 st3 st13">i-URに定義されたクラス</text>
<text transform="matrix(0.85 0 0 1 512.8828 44.051)" class="st12 st15 st16">凡例</text>
<text transform="matrix(0.85 0 0 1 512.8828 44.051)" class="st17 st15 st16">凡例</text>
<line class="st18" x1="333.2" y1="328.1" x2="333.2" y2="305.6"/>
<line class="st18" x1="202.1" y1="305.6" x2="202.1" y2="263.2"/>
<polyline class="st19" points="207.3,277 196.9,277 202.1,263.2 207.3,277 "/>
<polygon class="st18" points="207.3,277 196.9,277 202.1,263.2 "/>
<line class="st18" x1="389.6" y1="170.5" x2="389.6" y2="138.5"/>
<line class="st18" x1="389.6" y1="138.5" x2="273.3" y2="138.5"/>
<line class="st18" x1="273.3" y1="138.5" x2="273.3" y2="96"/>
<polyline class="st19" points="278.5,109.9 268.1,109.9 273.3,96 278.5,109.9 "/>
<polygon class="st18" points="278.5,109.9 268.1,109.9 273.3,96 "/>
<line class="st18" x1="433.9" y1="432.1" x2="433.9" y2="305.6"/>
<line class="st18" x1="433.9" y1="305.6" x2="202.1" y2="305.6"/>
<line class="st18" x1="235.9" y1="432.1" x2="235.9" y2="305.6"/>
<line class="st18" x1="121.4" y1="326.4" x2="121.4" y2="305.6"/>
<line class="st18" x1="121.4" y1="305.6" x2="202.1" y2="305.6"/>
<line class="st18" x1="200.4" y1="170.5" x2="200.4" y2="138.5"/>
<line class="st18" x1="200.4" y1="138.5" x2="273.3" y2="138.5"/>
</svg>
