<?xml version="1.0" encoding="utf-8"?>
<!-- Generator: Adobe Illustrator 27.4.1, SVG Export Plug-In . SVG Version: 6.00 Build 0)  -->
<svg version="1.1" id="レイヤー_1" xmlns="http://www.w3.org/2000/svg" xmlns:xlink="http://www.w3.org/1999/xlink" x="0px"
	 y="0px" viewBox="0 0 814.8 743.8" style="enable-background:new 0 0 814.8 743.8;" xml:space="preserve">
<style type="text/css">
	.st0{fill-rule:evenodd;clip-rule:evenodd;fill:#CFD1D8;}
	.st1{fill-rule:evenodd;clip-rule:evenodd;fill:#FFFFCC;}
	.st2{fill:none;stroke:#000000;stroke-width:1.7322;stroke-linecap:round;stroke-linejoin:round;stroke-miterlimit:10;}
	.st3{font-family:'YuGothicUI-Regular';}
	.st4{font-size:11.8726px;}
	.st5{font-size:11.2598px;}
	.st6{fill:none;stroke:#000000;stroke-width:0.3218;stroke-miterlimit:10;}
	.st7{fill-rule:evenodd;clip-rule:evenodd;fill:#FFCCFF;}
	.st8{font-family:'Calibri';}
	.st9{font-size:9.5276px;}
	.st10{font-family:'Calibri-Bold';}
	.st11{font-family:'YuGothicUI-Bold';}
	.st12{font-family:'Calibri-BoldItalic';}
	.st13{fill-rule:evenodd;clip-rule:evenodd;fill:#F0F0F0;}
	.st14{fill:none;stroke:#D7D7D7;stroke-width:0.8662;stroke-linecap:square;stroke-miterlimit:10;}
	.st15{fill-rule:evenodd;clip-rule:evenodd;fill:#CCFFCC;}
	.st16{fill:none;stroke:#000000;stroke-width:0.8662;stroke-linecap:square;stroke-miterlimit:10;}
	.st17{fill:#003060;}
	.st18{font-size:10.3938px;}
	.st19{font-family:'MS-PGothic';}
	.st20{font-size:13.8582px;}
	.st21{fill:none;stroke:#003060;stroke-width:0.396;stroke-miterlimit:10;}
	.st22{fill:none;stroke:#000000;stroke-width:1.7322;stroke-linecap:round;stroke-linejoin:bevel;stroke-miterlimit:10;}
	.st23{fill-rule:evenodd;clip-rule:evenodd;fill:#FFFFFF;}
	.st24{fill-rule:evenodd;clip-rule:evenodd;}
</style>
<path class="st0" d="M474.2,115.1c1.2,0,2.2,1,2.2,2.2l0,0v64.1l0,0c0,1.2-1,2.2-2.2,2.2l0,0l0,0H334.5l0,0c-1.2,0-2.2-1-2.2-2.2
	l0,0v-64.1c0-1.2,1-2.2,2.2-2.2l0,0H474.2L474.2,115.1L474.2,115.1z"/>
<path class="st1" d="M471.6,112.5c1.2,0,2.2,1,2.2,2.2l0,0v64.1l0,0c0,1.2-1,2.2-2.2,2.2l0,0l0,0H331.9l0,0c-1.2,0-2.2-1-2.2-2.2
	l0,0v-64.1c0-1.2,1-2.2,2.2-2.2l0,0L471.6,112.5L471.6,112.5L471.6,112.5z"/>
<path class="st2" d="M471.6,112.5c1.2,0,2.2,1,2.2,2.2l0,0v64.1l0,0c0,1.2-1,2.2-2.2,2.2l0,0l0,0H331.9l0,0c-1.2,0-2.2-1-2.2-2.2
	l0,0v-64.1c0-1.2,1-2.2,2.2-2.2l0,0L471.6,112.5L471.6,112.5L471.6,112.5z"/>
<text transform="matrix(0.85 0 -0.3169 0.9485 415.6426 127.2287)" class="st3 st4">_CityObject</text>
<text transform="matrix(0.85 0 0 1 366.1646 147.1247)" class="st3 st5">«featureType»</text>
<g>
	<text transform="matrix(0.85 0 -0.3169 0.9485 341.8369 161.8624)" class="st3 st4">v</text>
	<text transform="matrix(0.85 0 -0.3169 0.9485 341.8369 161.8624)" class="st6 st3 st4">v</text>
	<text transform="matrix(0.85 0 -0.3169 0.9485 347.9072 161.8624)" class="st3 st4">e</text>
	<text transform="matrix(0.85 0 -0.3169 0.9485 347.9072 161.8624)" class="st6 st3 st4">e</text>
	<text transform="matrix(0.85 0 -0.3169 0.9485 353.9775 161.8624)" class="st3 st4">g</text>
	<text transform="matrix(0.85 0 -0.3169 0.9485 353.9775 161.8624)" class="st6 st3 st4">g</text>
	<text transform="matrix(0.85 0 -0.3169 0.9485 360.9189 161.8624)" class="st3 st4">:</text>
	<text transform="matrix(0.85 0 -0.3169 0.9485 360.9189 161.8624)" class="st6 st3 st4">:</text>
	<text transform="matrix(0.85 0 -0.3169 0.9485 363.5126 161.8624)" class="st3 st4">:</text>
	<text transform="matrix(0.85 0 -0.3169 0.9485 363.5126 161.8624)" class="st6 st3 st4">:</text>
	<text transform="matrix(0.85 0 -0.3169 0.9485 366.1025 161.8624)" class="st3 st4">_</text>
	<text transform="matrix(0.85 0 -0.3169 0.9485 366.1025 161.8624)" class="st6 st3 st4">_</text>
	<text transform="matrix(0.85 0 -0.3169 0.9485 370.4501 161.8624)" class="st3 st4">V</text>
	<text transform="matrix(0.85 0 -0.3169 0.9485 370.4501 161.8624)" class="st6 st3 st4">V</text>
	<text transform="matrix(0.85 0 -0.3169 0.9485 377.4033 161.8624)" class="st3 st4">e</text>
	<text transform="matrix(0.85 0 -0.3169 0.9485 377.4033 161.8624)" class="st6 st3 st4">e</text>
	<text transform="matrix(0.85 0 -0.3169 0.9485 383.4736 161.8624)" class="st3 st4">g</text>
	<text transform="matrix(0.85 0 -0.3169 0.9485 383.4736 161.8624)" class="st6 st3 st4">g</text>
	<text transform="matrix(0.85 0 -0.3169 0.9485 390.4111 161.8624)" class="st3 st4">e</text>
	<text transform="matrix(0.85 0 -0.3169 0.9485 390.4111 161.8624)" class="st6 st3 st4">e</text>
	<text transform="matrix(0.85 0 -0.3169 0.9485 396.4814 161.8624)" class="st3 st4">t</text>
	<text transform="matrix(0.85 0 -0.3169 0.9485 396.4814 161.8624)" class="st6 st3 st4">t</text>
	<text transform="matrix(0.85 0 -0.3169 0.9485 400.8173 161.8624)" class="st3 st4">a</text>
	<text transform="matrix(0.85 0 -0.3169 0.9485 400.8173 161.8624)" class="st6 st3 st4">a</text>
	<text transform="matrix(0.85 0 -0.3169 0.9485 406.8837 161.8624)" class="st3 st4">t</text>
	<text transform="matrix(0.85 0 -0.3169 0.9485 406.8837 161.8624)" class="st6 st3 st4">t</text>
	<text transform="matrix(0.85 0 -0.3169 0.9485 411.2158 161.8624)" class="st3 st4">i</text>
	<text transform="matrix(0.85 0 -0.3169 0.9485 411.2158 161.8624)" class="st6 st3 st4">i</text>
	<text transform="matrix(0.85 0 -0.3169 0.9485 413.8251 161.8624)" class="st3 st4">o</text>
	<text transform="matrix(0.85 0 -0.3169 0.9485 413.8251 161.8624)" class="st6 st3 st4">o</text>
	<text transform="matrix(0.85 0 -0.3169 0.9485 420.7665 161.8624)" class="st3 st4">n</text>
	<text transform="matrix(0.85 0 -0.3169 0.9485 420.7665 161.8624)" class="st6 st3 st4">n</text>
	<text transform="matrix(0.85 0 -0.3169 0.9485 427.704 161.8624)" class="st3 st4">O</text>
	<text transform="matrix(0.85 0 -0.3169 0.9485 427.704 161.8624)" class="st6 st3 st4">O</text>
	<text transform="matrix(0.85 0 -0.3169 0.9485 436.3837 161.8624)" class="st3 st4">b</text>
	<text transform="matrix(0.85 0 -0.3169 0.9485 436.3837 161.8624)" class="st6 st3 st4">b</text>
	<text transform="matrix(0.85 0 -0.3169 0.9485 443.3212 161.8624)" class="st3 st4">j</text>
	<text transform="matrix(0.85 0 -0.3169 0.9485 443.3212 161.8624)" class="st6 st3 st4">j</text>
	<text transform="matrix(0.85 0 -0.3169 0.9485 445.9306 161.8624)" class="st3 st4">e</text>
	<text transform="matrix(0.85 0 -0.3169 0.9485 445.9306 161.8624)" class="st6 st3 st4">e</text>
	<text transform="matrix(0.85 0 -0.3169 0.9485 452.0009 161.8624)" class="st3 st4">c</text>
	<text transform="matrix(0.85 0 -0.3169 0.9485 452.0009 161.8624)" class="st6 st3 st4">c</text>
	<text transform="matrix(0.85 0 -0.3169 0.9485 457.2158 161.8624)" class="st3 st4">t</text>
	<text transform="matrix(0.85 0 -0.3169 0.9485 457.2158 161.8624)" class="st6 st3 st4">t</text>
</g>
<path class="st0" d="M252.9,435.6c1.2,0,2.2,1,2.2,2.2l0,0v158.5l0,0c0,1.2-1,2.2-2.2,2.2l0,0l0,0H100.1l0,0c-1.2,0-2.2-1-2.2-2.2
	l0,0V437.7c0-1.2,1-2.2,2.2-2.2l0,0L252.9,435.6L252.9,435.6L252.9,435.6z"/>
<path class="st7" d="M250.3,433c1.2,0,2.2,1,2.2,2.2l0,0v158.5l0,0c0,1.2-1,2.2-2.2,2.2l0,0l0,0H97.5l0,0c-1.2,0-2.2-1-2.2-2.2l0,0
	V435.1c0-1.2,1-2.2,2.2-2.2l0,0h152.8V433L250.3,433z"/>
<path class="st2" d="M250.3,433c1.2,0,2.2,1,2.2,2.2l0,0v158.5l0,0c0,1.2-1,2.2-2.2,2.2l0,0l0,0H97.5l0,0c-1.2,0-2.2-1-2.2-2.2l0,0
	V435.1c0-1.2,1-2.2,2.2-2.2l0,0h152.8V433L250.3,433z"/>
<text transform="matrix(0.85 0 0 1 149.1328 446.8273)" class="st8 st9">«DataType»</text>
<text transform="matrix(0.85 0 0 1 -7784.5557 -7815.3623)" class="st10" style="font-size:4.7638px;">t</text>
<text transform="matrix(0.85 0 0 1 127.4302 458.0773)" class="st10 st9">uro::FacilityIdAttribute</text>
<line class="st2" x1="95.3" y1="465" x2="252.4" y2="465"/>
<text transform="matrix(0.85 0 0 1 99.6489 477.1398)" class="st8 st9">+ id: xs::string [0..1]</text>
<text transform="matrix(0.85 0 0 1 99.6489 488.3898)" class="st8 st9">+ partId: xs::string [0..1]</text>
<text transform="matrix(0.85 0 0 1 99.6489 499.6398)" class="st8 st9">+ branchId: xs::string [0..1]</text>
<text transform="matrix(0.85 0 0 1 99.6489 510.9055)" class="st8 st9">+ prefecture: gml::CodeType [0..*]</text>
<text transform="matrix(0.85 0 0 1 99.6489 522.1711)" class="st8 st9">+ city: gml::CodeType [0..*]</text>
<text transform="matrix(0.85 0 0 1 99.6489 533.4211)" class="st8 st9">+ route: xs::string [0..1]</text>
<text transform="matrix(0.85 0 0 1 99.6489 544.6711)" class="st8 st9">+ startPost: xs::string [0..1]</text>
<text transform="matrix(0.85 0 0 1 99.6489 555.9523)" class="st8 st9">+ endPost: xs::string [0..1]</text>
<text transform="matrix(0.85 0 0 1 99.6489 567.218)" class="st8 st9">+ startLat: xs::double [0..1]</text>
<text transform="matrix(0.85 0 0 1 99.6489 578.468)" class="st8 st9">+ startLong: xs::double [0..1]</text>
<text transform="matrix(0.85 0 0 1 -7784.5557 -7815.3623)" class="st8" style="font-size:4.7638px;">i</text>
<text transform="matrix(0.85 0 0 1 99.6489 589.718)" class="st8 st9">+ alternatveName: xs::string [0..*]</text>
<path class="st0" d="M359.7,340.3c1.2,0,2.2,1,2.2,2.2l0,0v64.1l0,0c0,1.2-1,2.2-2.2,2.2l0,0l0,0h-138l0,0c-1.2,0-2.2-1-2.2-2.2l0,0
	v-64.1c0-1.2,1-2.2,2.2-2.2l0,0H359.7L359.7,340.3L359.7,340.3z"/>
<path class="st7" d="M357.1,337.7c1.2,0,2.2,1,2.2,2.2l0,0V404l0,0c0,1.2-1,2.2-2.2,2.2l0,0l0,0H219l0,0c-1.2,0-2.2-1-2.2-2.2l0,0
	v-64.1c0-1.2,1-2.2,2.2-2.2l0,0H357.1L357.1,337.7L357.1,337.7z"/>
<path class="st2" d="M357.1,337.7c1.2,0,2.2,1,2.2,2.2l0,0V404l0,0c0,1.2-1,2.2-2.2,2.2l0,0l0,0H219l0,0c-1.2,0-2.2-1-2.2-2.2l0,0
	v-64.1c0-1.2,1-2.2,2.2-2.2l0,0H357.1L357.1,337.7L357.1,337.7z"/>
<text transform="matrix(0.85 0 0 1 263.7271 351.5305)" class="st8 st9">«DataType»</text>
<text transform="matrix(0.85 0 0 1 -7784.5557 -7815.3623)" class="st10" style="font-size:4.7638px;">t</text>
<text transform="matrix(0.85 0 0 1 235.9614 362.7961)" class="st10 st9">uro::FacilityTypeAttribute</text>
<line class="st2" x1="216.9" y1="369.7" x2="359.2" y2="369.7"/>
<text transform="matrix(0.85 0 0 1 221.1802 381.8586)" class="st8 st9">+ class: gml::CodeType [0..1]</text>
<text transform="matrix(0.85 0 0 1 -7784.5557 -7815.3623)" class="st8" style="font-size:4.7638px;">i</text>
<text transform="matrix(0.85 0 0 1 221.1802 393.1086)" class="st8 st9">+ functon: gml::CodeType [0..*]</text>
<path class="st0" d="M787.6,236.3c1.2,0,2.2,1,2.2,2.2l0,0v124.7l0,0c0,1.2-1,2.2-2.2,2.2l0,0l0,0H551.5l0,0c-1.2,0-2.2-1-2.2-2.2
	l0,0V238.5c0-1.2,1-2.2,2.2-2.2l0,0H787.6L787.6,236.3L787.6,236.3z"/>
<path class="st1" d="M785,233.7c1.2,0,2.2,1,2.2,2.2l0,0v124.7l0,0c0,1.2-1,2.2-2.2,2.2l0,0l0,0H548.9l0,0c-1.2,0-2.2-1-2.2-2.2l0,0
	V235.9c0-1.2,1-2.2,2.2-2.2l0,0H785L785,233.7L785,233.7z"/>
<path class="st2" d="M785,233.7c1.2,0,2.2,1,2.2,2.2l0,0v124.7l0,0c0,1.2-1,2.2-2.2,2.2l0,0l0,0H548.9l0,0c-1.2,0-2.2-1-2.2-2.2l0,0
	V235.9c0-1.2,1-2.2,2.2-2.2l0,0H785L785,233.7L785,233.7z"/>
<text transform="matrix(0.85 0 0 1 630.0703 251.0622)" class="st3 st5">«FeatureType»</text>
<text transform="matrix(0.85 0 0 1 626.6016 265.7966)" class="st11 st5">veg::PlantCover</text>
<line class="st2" x1="546.7" y1="272.7" x2="787.2" y2="272.7"/>
<text transform="matrix(0.85 0 0 1 551.0703 288.3122)" class="st3 st5">+ class: gml::CodeType [0..1]</text>
<text transform="matrix(0.85 0 0 1 551.0703 303.0461)" class="st3 st5">+ function: gml::CodeType [0..*]</text>
<text transform="matrix(0.85 0 0 1 551.0703 317.7648)" class="st3 st5">+ usage: gml::CodeType [0..*]</text>
<text transform="matrix(0.85 0 0 1 551.0703 332.4836)" class="st3 st5">+ averageHeight: gml::LengthType [0..1]</text>
<path class="st0" d="M786.8,28.5c1.2,0,2.2,1,2.2,2.2l0,0v176.7l0,0c0,1.2-1,2.2-2.2,2.2l0,0l0,0H551.5l0,0c-1.2,0-2.2-1-2.2-2.2
	l0,0V30.6c0-1.2,1-2.2,2.2-2.2l0,0L786.8,28.5L786.8,28.5L786.8,28.5z"/>
<path class="st1" d="M784.2,25.9c1.2,0,2.2,1,2.2,2.2l0,0v176.7l0,0c0,1.2-1,2.2-2.2,2.2l0,0l0,0H548.9l0,0c-1.2,0-2.2-1-2.2-2.2
	l0,0V28c0-1.2,1-2.2,2.2-2.2l0,0h235.3V25.9L784.2,25.9z"/>
<path class="st2" d="M784.2,25.9c1.2,0,2.2,1,2.2,2.2l0,0v176.7l0,0c0,1.2-1,2.2-2.2,2.2l0,0l0,0H548.9l0,0c-1.2,0-2.2-1-2.2-2.2
	l0,0V28c0-1.2,1-2.2,2.2-2.2l0,0h235.3V25.9L784.2,25.9z"/>
<text transform="matrix(0.85 0 0 1 630.0703 43.2028)" class="st3 st5">«FeatureType»</text>
<text transform="matrix(0.85 0 0 1 589.2578 57.9216)" class="st11 st5">veg::SolitaryVegetationObject</text>
<line class="st2" x1="546.7" y1="64.8" x2="786.3" y2="64.8"/>
<text transform="matrix(0.85 0 0 1 551.0703 80.4216)" class="st3 st5">+ class: gml::CodeType [0..1]</text>
<text transform="matrix(0.85 0 0 1 551.0703 95.1403)" class="st3 st5">+ function: gml::CodeType [0..*]</text>
<text transform="matrix(0.85 0 0 1 551.0703 109.8747)" class="st3 st5">+ usage: gml::CodeType [0..*]</text>
<text transform="matrix(0.85 0 0 1 551.0703 124.6091)" class="st3 st5">+ species: gml::CodeType [0..1]</text>
<text transform="matrix(0.85 0 0 1 551.0703 139.3278)" class="st3 st5">+ height: gml::LengthType [0..1]</text>
<text transform="matrix(0.85 0 0 1 551.0703 154.0466)" class="st3 st5">+ trunckDiamiter: gml::LengthType [0..1]</text>
<text transform="matrix(0.85 0 0 1 551.0703 168.7809)" class="st3 st5">+ crownDiamiter: gml::LengthType [0..1]</text>
<path class="st0" d="M530.7,366.3c1.2,0,2.2,1,2.2,2.2l0,0v64.1l0,0c0,1.2-1,2.2-2.2,2.2l0,0l0,0H412.6l0,0c-1.2,0-2.2-1-2.2-2.2
	l0,0v-64.1c0-1.2,1-2.2,2.2-2.2l0,0H530.7L530.7,366.3L530.7,366.3z"/>
<path class="st7" d="M528.1,363.7c1.2,0,2.2,1,2.2,2.2l0,0V430l0,0c0,1.2-1,2.2-2.2,2.2l0,0l0,0H410l0,0c-1.2,0-2.2-1-2.2-2.2l0,0
	v-64.1c0-1.2,1-2.2,2.2-2.2l0,0H528.1L528.1,363.7L528.1,363.7z"/>
<path class="st2" d="M528.1,363.7c1.2,0,2.2,1,2.2,2.2l0,0V430l0,0c0,1.2-1,2.2-2.2,2.2l0,0l0,0H410l0,0c-1.2,0-2.2-1-2.2-2.2l0,0
	v-64.1c0-1.2,1-2.2,2.2-2.2l0,0H528.1L528.1,363.7L528.1,363.7z"/>
<text transform="matrix(0.85 0 0 1 444.2891 377.5305)" class="st8 st9">«DataType»</text>
<text transform="matrix(0.85 0 0 1 -7784.5557 -7815.3623)" class="st12" style="font-size:4.7638px;">t</text>
<text transform="matrix(0.85 0 0 1 426.0703 388.7805)" class="st12 st9">uro::FacilityAttribute</text>
<line class="st2" x1="407.8" y1="395.7" x2="530.2" y2="395.7"/>
<text transform="matrix(0.85 0 0 1 412.1646 407.843)" class="st8 st9">+ facilityId: xs::string [0..1]</text>
<path class="st0" d="M491.6,487.5c1.2,0,2.2,1,2.2,2.2l0,0v64.1l0,0c0,1.2-1,2.2-2.2,2.2l0,0l0,0H343.2l0,0c-1.2,0-2.2-1-2.2-2.2
	l0,0v-64.1c0-1.2,1-2.2,2.2-2.2l0,0L491.6,487.5L491.6,487.5L491.6,487.5z"/>
<path class="st7" d="M489,484.9c1.2,0,2.2,1,2.2,2.2l0,0v64.1l0,0c0,1.2-1,2.2-2.2,2.2l0,0l0,0H340.6l0,0c-1.2,0-2.2-1-2.2-2.2l0,0
	v-64.1c0-1.2,1-2.2,2.2-2.2l0,0H489L489,484.9L489,484.9z"/>
<path class="st2" d="M489,484.9c1.2,0,2.2,1,2.2,2.2l0,0v64.1l0,0c0,1.2-1,2.2-2.2,2.2l0,0l0,0H340.6l0,0c-1.2,0-2.2-1-2.2-2.2l0,0
	v-64.1c0-1.2,1-2.2,2.2-2.2l0,0H489L489,484.9L489,484.9z"/>
<text transform="matrix(0.85 0 0 1 390.4614 498.7805)" class="st8 st9">«DataType»</text>
<text transform="matrix(0.85 0 0 1 -7784.5557 -7815.3623)" class="st12" style="font-size:4.7638px;">t</text>
<text transform="matrix(0.85 0 0 1 380.0552 510.0305)" class="st12 st9">uro::DmAttribute</text>
<line class="st2" x1="338.4" y1="517" x2="491.2" y2="517"/>
<text transform="matrix(0.85 0 0 1 342.7271 529.093)" class="st8 st9">+ dmCode: gml::CodeType</text>
<text transform="matrix(0.85 0 0 1 342.7271 540.343)" class="st8 st9">+ meshCode: gml::CodeType [0..1]</text>
<path class="st0" d="M216.4,634.8c1.2,0,2.2,1,2.2,2.2l0,0v79.7l0,0c0,1.2-1,2.2-2.2,2.2l0,0l0,0H30.6l0,0c-1.2,0-2.2-1-2.2-2.2l0,0
	V637c0-1.2,1-2.2,2.2-2.2l0,0H216.4L216.4,634.8L216.4,634.8z"/>
<path class="st7" d="M213.8,632.2c1.2,0,2.2,1,2.2,2.2l0,0V714l0,0c0,1.2-1,2.2-2.2,2.2l0,0l0,0H28l0,0c-1.2,0-2.2-1-2.2-2.2l0,0
	v-79.7c0-1.2,1-2.2,2.2-2.2l0,0h185.8V632.2L213.8,632.2z"/>
<path class="st2" d="M213.8,632.2c1.2,0,2.2,1,2.2,2.2l0,0V714l0,0c0,1.2-1,2.2-2.2,2.2l0,0l0,0H28l0,0c-1.2,0-2.2-1-2.2-2.2l0,0
	v-79.7c0-1.2,1-2.2,2.2-2.2l0,0h185.8V632.2L213.8,632.2z"/>
<text transform="matrix(0.85 0 0 1 96.1802 646.0305)" class="st8 st9">«DataType»</text>
<text transform="matrix(0.85 0 0 1 -7784.5557 -7815.3623)" class="st10" style="font-size:4.7638px;">i</text>
<text transform="matrix(0.85 0 0 1 -7784.5557 -7815.3623)" class="st10" style="font-size:4.7638px;">t</text>
<text transform="matrix(0.85 0 0 1 45.8364 657.2961)" class="st10 st9">uro::VegetationDataQualityAttribute</text>
<line class="st2" x1="25.9" y1="664.2" x2="216" y2="664.2"/>
<text transform="matrix(0.85 0 0 1 30.2114 676.343)" class="st8 st9">+ srcScale: gml::CodeType [0..*]</text>
<text transform="matrix(0.85 0 0 1 30.2114 687.6086)" class="st8 st9">+ geometrySrcDesc: gml::CodeType [0..*]</text>
<text transform="matrix(0.85 0 0 1 -7784.5557 -7815.3623)" class="st8" style="font-size:4.7638px;">i</text>
<text transform="matrix(0.85 0 0 1 30.2114 698.8586)" class="st8 st9">+ thematcSrcDesc: gml::CodeType [0..*]</text>
<text transform="matrix(0.85 0 0 1 30.2114 710.1086)" class="st8 st9">+ appearanceSrcDesc: gml::CodeType [0..*]</text>
<path class="st13" d="M737.7,389.6c1.4,0,2.6,1.2,2.6,2.6l0,0v97.9l0,0c0,1.4-1.2,2.6-2.6,2.6l0,0l0,0H575.4l0,0
	c-1.4,0-2.6-1.2-2.6-2.6v-97.9c0-1.4,1.2-2.6,2.6-2.6l0,0H737.7L737.7,389.6L737.7,389.6z"/>
<path class="st14" d="M737.7,389.6c1.4,0,2.6,1.2,2.6,2.6l0,0v97.9l0,0c0,1.4-1.2,2.6-2.6,2.6l0,0l0,0H575.4l0,0
	c-1.4,0-2.6-1.2-2.6-2.6v-97.9c0-1.4,1.2-2.6,2.6-2.6l0,0H737.7L737.7,389.6L737.7,389.6z"/>
<path class="st15" d="M593.2,415.6c1.2,0,2.2,1,2.2,2.2l0,0v9.5l0,0c0,1.2-1,2.2-2.2,2.2l0,0l0,0h-9.6l0,0c-1.2,0-2.2-1-2.2-2.2l0,0
	v-9.5c0-1.2,1-2.2,2.2-2.2l0,0H593.2L593.2,415.6L593.2,415.6z"/>
<path class="st16" d="M593.2,415.6c1.2,0,2.2,1,2.2,2.2l0,0v9.5l0,0c0,1.2-1,2.2-2.2,2.2l0,0l0,0h-9.6l0,0c-1.2,0-2.2-1-2.2-2.2l0,0
	v-9.5c0-1.2,1-2.2,2.2-2.2l0,0H593.2L593.2,415.6L593.2,415.6z"/>
<text transform="matrix(0.85 0 0 1 600.5547 426.9055)" class="st17 st3 st18">GMLに定義されたクラス</text>
<path class="st1" d="M593.2,432.1c1.2,0,2.2,1,2.2,2.2l0,0v9.5l0,0c0,1.2-1,2.2-2.2,2.2l0,0l0,0h-9.6l0,0c-1.2,0-2.2-1-2.2-2.2l0,0
	v-9.5c0-1.2,1-2.2,2.2-2.2l0,0H593.2L593.2,432.1L593.2,432.1z"/>
<path class="st16" d="M593.2,432.1c1.2,0,2.2,1,2.2,2.2l0,0v9.5l0,0c0,1.2-1,2.2-2.2,2.2l0,0l0,0h-9.6l0,0c-1.2,0-2.2-1-2.2-2.2l0,0
	v-9.5c0-1.2,1-2.2,2.2-2.2l0,0H593.2L593.2,432.1L593.2,432.1z"/>
<text transform="matrix(0.85 0 0 1 600.5547 443.3586)" class="st17 st3 st18">CityGMLに定義されたクラス</text>
<path class="st7" d="M593.2,448.5c1.2,0,2.2,1,2.2,2.2l0,0v9.5l0,0c0,1.2-1,2.2-2.2,2.2l0,0l0,0h-9.6l0,0c-1.2,0-2.2-1-2.2-2.2l0,0
	v-9.5c0-1.2,1-2.2,2.2-2.2l0,0H593.2L593.2,448.5L593.2,448.5z"/>
<path class="st16" d="M593.2,448.5c1.2,0,2.2,1,2.2,2.2l0,0v9.5l0,0c0,1.2-1,2.2-2.2,2.2l0,0l0,0h-9.6l0,0c-1.2,0-2.2-1-2.2-2.2l0,0
	v-9.5c0-1.2,1-2.2,2.2-2.2l0,0H593.2L593.2,448.5L593.2,448.5z"/>
<text transform="matrix(0.85 0 0 1 600.5547 459.8117)" class="st17 st3 st18">i-URに定義されたクラス</text>
<g>
	<text transform="matrix(0.85 0 0 1 634.4141 407.843)" class="st17 st19 st20">凡例</text>
	<text transform="matrix(0.85 0 0 1 634.4141 407.843)" class="st21 st19 st20">凡例</text>
</g>
<line class="st22" x1="545.9" y1="113.3" x2="518.1" y2="113.3"/>
<line class="st22" x1="518.1" y1="113.3" x2="518.1" y2="147.1"/>
<line class="st22" x1="518.1" y1="147.1" x2="475.5" y2="147.1"/>
<polyline class="st23" points="489.4,141.9 489.4,152.3 475.5,147.1 489.4,141.9 "/>
<polygon class="st22" points="489.4,141.9 489.4,152.3 475.5,147.1 "/>
<line class="st22" x1="545.9" y1="294.4" x2="518.1" y2="294.4"/>
<line class="st22" x1="518.1" y1="294.4" x2="518.1" y2="147.1"/>
<line class="st22" x1="311.5" y1="336.8" x2="311.5" y2="225.1"/>
<line class="st22" x1="401.8" y1="225.1" x2="401.8" y2="182.6"/>
<polyline class="st24" points="406.1,191.3 401.8,182.6 397.4,191.3 401.8,200 406.1,191.3 "/>
<polyline class="st22" points="406.1,191.3 401.8,182.6 397.4,191.3 401.8,200 "/>
<path class="st22" d="M311.5,336.8l5.2-13 M311.5,336.8l-5.2-13"/>
<line class="st22" x1="174.3" y1="432.1" x2="174.3" y2="225.1"/>
<polyline class="st24" points="406.1,191.3 401.8,182.6 397.4,191.3 401.8,200 406.1,191.3 "/>
<polyline class="st22" points="406.1,191.3 401.8,182.6 397.4,191.3 401.8,200 "/>
<path class="st22" d="M174.3,432.1l5.2-13 M174.3,432.1l-5.2-13"/>
<line class="st22" x1="55.4" y1="631.3" x2="55.4" y2="225.1"/>
<line class="st22" x1="55.4" y1="225.1" x2="401.8" y2="225.1"/>
<polyline class="st24" points="406.1,191.3 401.8,182.6 397.4,191.3 401.8,200 406.1,191.3 "/>
<polyline class="st22" points="406.1,191.3 401.8,182.6 397.4,191.3 401.8,200 "/>
<path class="st22" d="M55.4,631.3l5.2-13 M55.4,631.3l-5.2-13"/>
<line class="st22" x1="383.5" y1="484.1" x2="383.5" y2="225.1"/>
<polyline class="st24" points="406.1,191.3 401.8,182.6 397.4,191.3 401.8,200 406.1,191.3 "/>
<polyline class="st22" points="406.1,191.3 401.8,182.6 397.4,191.3 401.8,200 "/>
<path class="st22" d="M383.5,484.1l5.2-13 M383.5,484.1l-5.2-13"/>
<line class="st22" x1="489.4" y1="362.8" x2="489.4" y2="225.1"/>
<line class="st22" x1="489.4" y1="225.1" x2="401.8" y2="225.1"/>
<polyline class="st24" points="406.1,191.3 401.8,182.6 397.4,191.3 401.8,200 406.1,191.3 "/>
<polygon class="st22" points="406.1,191.3 401.8,182.6 397.4,191.3 401.8,200 "/>
<path class="st22" d="M489.4,362.8l5.2-13 M489.4,362.8l-5.2-13"/>
<text transform="matrix(0.85 0 0 1 -7784.5557 -7815.3623)" class="st8" style="font-size:4.7638px;">t</text>
<text transform="matrix(0.85 0 0 1 394.8208 348.0773)" class="st8 st9">+vegFacilityAttribute</text>
<text transform="matrix(0.85 0 0 1 511.1328 350.6711)" class="st8 st9">0..*</text>
<text transform="matrix(0.85 0 0 1 -7784.5557 -7815.3623)" class="st8" style="font-size:4.7638px;">i</text>
<text transform="matrix(0.85 0 0 1 -7784.5557 -7815.3623)" class="st8" style="font-size:4.7638px;">t</text>
<text transform="matrix(0.85 0 0 1 110.9302 622.6398)" class="st8 st9">+vegetatonDataQualityAttribute</text>
<text transform="matrix(0.85 0 0 1 82.2896 624.3586)" class="st8 st9">0..1</text>
<text transform="matrix(0.85 0 0 1 -7784.5557 -7815.3623)" class="st8" style="font-size:4.7638px;">t</text>
<text transform="matrix(0.85 0 0 1 75.3521 404.3586)" class="st8 st9">+vegFacilityIdAttribute</text>
<text transform="matrix(0.85 0 0 1 196.8828 426.9055)" class="st8 st9">0..1</text>
<text transform="matrix(0.85 0 0 1 -7784.5557 -7815.3623)" class="st8" style="font-size:4.7638px;">t</text>
<text transform="matrix(0.85 0 0 1 198.6177 306.4992)" class="st8 st9">+vegFacilityTypeAttribute</text>
<text transform="matrix(0.85 0 0 1 328.8364 330.7492)" class="st8 st9">0..*</text>
<text transform="matrix(0.85 0 0 1 -7784.5557 -7815.3623)" class="st8" style="font-size:4.7638px;">t</text>
<text transform="matrix(0.85 0 0 1 394.8208 455.4523)" class="st8 st9">+vegDmAttribute</text>
<text transform="matrix(0.85 0 0 1 400.0239 480.593)" class="st8 st9">0..*</text>
</svg>
