<?xml version="1.0" encoding="utf-8"?>
<!-- Generator: Adobe Illustrator 27.5.0, SVG Export Plug-In . SVG Version: 6.00 Build 0)  -->
<svg version="1.1" id="レイヤー_1" xmlns="http://www.w3.org/2000/svg" xmlns:xlink="http://www.w3.org/1999/xlink" x="0px"
	 y="0px" viewBox="0 0 693.7872314 482.3829651" style="enable-background:new 0 0 693.7872314 482.3829651;" xml:space="preserve">
<style type="text/css">
	.st0{fill-rule:evenodd;clip-rule:evenodd;fill:#FFFFCC;}
	.st1{fill:none;stroke:#000000;stroke-width:1.0285715;stroke-linecap:round;stroke-linejoin:bevel;stroke-miterlimit:10;}
	.st2{font-family:'YuGothicUI-Regular';}
	.st3{font-size:7.0386257px;}
	.st4{font-size:6.6857147px;}
	.st5{font-family:'YuGothicUI-Bold';}
	.st6{fill-rule:evenodd;clip-rule:evenodd;fill:#FFCCFF;}
	.st7{stroke:#000000;stroke-width:0.1910204;stroke-miterlimit:10;}
	.st8{fill-rule:evenodd;clip-rule:evenodd;fill:#F0F0F0;}
	.st9{fill:none;stroke:#D7D7D7;stroke-width:0.5142857;stroke-linecap:square;stroke-miterlimit:10;}
	.st10{fill-rule:evenodd;clip-rule:evenodd;fill:#CCFFCC;}
	.st11{fill:none;stroke:#000000;stroke-width:0.5142857;stroke-linecap:square;stroke-miterlimit:10;}
	.st12{fill:#003060;}
	.st13{font-size:8.2285719px;}
	.st14{fill-rule:evenodd;clip-rule:evenodd;fill:#FFFFFF;}
	.st15{fill-rule:evenodd;clip-rule:evenodd;}
</style>
<polygon class="st0" points="80.0584946,92.991478 182.6490479,92.991478 182.6490479,28.7057743 80.0584946,28.7057743 
	80.0584946,92.991478 "/>
<polygon class="st1" points="80.0584946,92.991478 182.6490479,92.991478 182.6490479,28.7057743 80.0584946,28.7057743 
	80.0584946,92.991478 "/>
<text transform="matrix(0.85 0 -0.3126727 0.9498609 148.6295929 37.4479408)"><tspan x="0" y="0" class="st2 st3">_</tspan><tspan x="2.710248" y="0" class="st2 st3">C</tspan><tspan x="7.0473342" y="0" class="st2 st3">i</tspan><tspan x="8.6741724" y="0" class="st2 st3">t</tspan><tspan x="10.840992" y="0" class="st2 st3">y</tspan><tspan x="14.092371" y="0" class="st2 st3">O</tspan><tspan x="19.5036755" y="0" class="st2 st3">b</tspan><tspan x="23.8327198" y="0" class="st2 st3">j</tspan><tspan x="25.4595585" y="0" class="st2 st3">e</tspan><tspan x="29.2463226" y="0" class="st2 st3">ct</tspan></text>
<text transform="matrix(0.85 0 0 1 109.5186157 49.2790794)"><tspan x="0" y="0" class="st2 st4">«</tspan><tspan x="3.5960476" y="0" class="st2 st4">F</tspan><tspan x="6.6865807" y="0" class="st2 st4">e</tspan><tspan x="10.2832031" y="0" class="st2 st4">a</tspan><tspan x="13.8786764" y="0" class="st2 st4">t</tspan><tspan x="15.9369249" y="0" class="st2 st4">u</tspan><tspan x="19.5398655" y="0" class="st2 st4">r</tspan><tspan x="22.1053524" y="0" class="st2 st4">e</tspan><tspan x="25.7014008" y="0" class="st2 st4">T</tspan><tspan x="29.2980232" y="0" class="st2 st4">y</tspan><tspan x="32.3862572" y="0" class="st2 st4">p</tspan><tspan x="36.4970131" y="0" class="st2 st4">e</tspan><tspan x="40.0936356" y="0" class="st2 st4">»</tspan></text>
<text transform="matrix(0.85 0 0 1 113.5811157 58.0134544)"><tspan x="0" y="0" class="st5 st4">b</tspan><tspan x="4.1084557" y="0" class="st5 st4">l</tspan><tspan x="5.6542969" y="0" class="st5 st4">dg</tspan><tspan x="13.8717823" y="0" class="st5 st4">::</tspan><tspan x="16.9634647" y="0" class="st5 st4">R</tspan><tspan x="21.0788136" y="0" class="st5 st4">oo</tspan><tspan x="29.3043423" y="0" class="st5 st4">m</tspan></text>
<line class="st1" x1="80.0584946" y1="62.134304" x2="182.1411743" y2="62.134304"/>
<text transform="matrix(0.85 0 0 1 82.5967407 71.3962631)" class="st2 st4">+ class: gml::CodeType [0..1]</text>
<text transform="matrix(0.85 0 0 1 82.5967407 80.1384506)" class="st2 st4">+ function: gml::CodeType [0..*]</text>
<text transform="matrix(0.85 0 0 1 82.5967407 88.8728256)" class="st2 st4">+ usage: gml::CodeType [0..*]</text>
<polygon class="st6" points="141.0033875,180.4200745 238.0073242,180.4200745 238.0073242,126.4200668 141.0033875,126.4200668 
	141.0033875,180.4200745 "/>
<polygon class="st1" points="141.0033875,180.4200745 238.0073242,180.4200745 238.0073242,126.4200668 141.0033875,126.4200668 
	141.0033875,180.4200745 "/>
<text transform="matrix(0.85 0 0 1 171.9873657 136.7087708)"><tspan x="0" y="0" class="st2 st4">«</tspan><tspan x="3.5960476" y="0" class="st2 st4">D</tspan><tspan x="8.2301235" y="0" class="st2 st4">a</tspan><tspan x="11.8255968" y="0" class="st2 st4">t</tspan><tspan x="13.8838463" y="0" class="st2 st4">a</tspan><tspan x="17.4793186" y="0" class="st2 st4">T</tspan><tspan x="21.0759411" y="0" class="st2 st4">y</tspan><tspan x="24.1641769" y="0" class="st2 st4">p</tspan><tspan x="28.274931" y="0" class="st2 st4">e</tspan><tspan x="31.8715515" y="0" class="st2 st4">»</tspan></text>
<text transform="matrix(0.85 0 -0.3126727 0.9498609 171.4815216 145.4575195)"><tspan x="0" y="0" class="st7 st2 st3">u</tspan><tspan x="4.3278952" y="0" class="st7 st2 st3">r</tspan><tspan x="7.0289521" y="0" class="st7 st2 st3">o</tspan><tspan x="11.3568468" y="0" class="st7 st2 st3">::</tspan><tspan x="14.5921412" y="0" class="st7 st2 st3">I</tspan><tspan x="16.7532158" y="0" class="st7 st2 st3">f</tspan><tspan x="18.9211845" y="0" class="st7 st2 st3">c</tspan><tspan x="22.1725636" y="0" class="st7 st2 st3">R</tspan><tspan x="26.5027561" y="0" class="st7 st2 st3">oo</tspan><tspan x="35.1585464" y="0" class="st7 st2 st3">t</tspan></text>
<line class="st1" x1="141.0033875" y1="149.5628967" x2="237.4994507" y2="149.5628967"/>
<text transform="matrix(0.85 0 0 1 143.5420532 158.8181458)" class="st2 st4">+ globalId: xs::string [0..1]</text>
<text transform="matrix(0.85 0 0 1 143.5420532 167.5681458)" class="st2 st4">+ name: xs::string [0..1]</text>
<text transform="matrix(0.85 0 0 1 143.5420532 176.3103333)" class="st2 st4">+ description: xs::string [0..1]</text>
<polygon class="st6" points="288.2868652,74.991478 354.3104858,74.991478 354.3104858,33.3343163 288.2868652,33.3343163 
	288.2868652,74.991478 "/>
<polygon class="st1" points="288.2868652,74.991478 354.3104858,74.991478 354.3104858,33.3343163 288.2868652,33.3343163 
	288.2868652,74.991478 "/>
<text transform="matrix(0.85 0 0 1 303.5264282 43.6228294)"><tspan x="0" y="0" class="st2 st4">«</tspan><tspan x="3.5960476" y="0" class="st2 st4">D</tspan><tspan x="8.2301235" y="0" class="st2 st4">a</tspan><tspan x="11.8255968" y="0" class="st2 st4">t</tspan><tspan x="13.8838463" y="0" class="st2 st4">a</tspan><tspan x="17.4793186" y="0" class="st2 st4">T</tspan><tspan x="21.0759411" y="0" class="st2 st4">y</tspan><tspan x="24.1641769" y="0" class="st2 st4">p</tspan><tspan x="28.274931" y="0" class="st2 st4">e</tspan><tspan x="31.8715515" y="0" class="st2 st4">»</tspan></text>
<text transform="matrix(0.85 0 -0.3126727 0.9498609 296.9305725 52.3637276)"><tspan x="0" y="0" class="st7 st2 st3">u</tspan><tspan x="4.3278952" y="0" class="st7 st2 st3">r</tspan><tspan x="7.0289521" y="0" class="st7 st2 st3">o</tspan><tspan x="11.3568468" y="0" class="st7 st2 st3">::</tspan><tspan x="14.5921412" y="0" class="st7 st2 st3">I</tspan><tspan x="16.7532158" y="0" class="st7 st2 st3">f</tspan><tspan x="18.9211845" y="0" class="st7 st2 st3">c</tspan><tspan x="22.1725636" y="0" class="st7 st2 st3">A</tspan><tspan x="27.0438862" y="0" class="st7 st2 st3">tt</tspan><tspan x="32.4471512" y="0" class="st7 st2 st3">r</tspan><tspan x="35.1470566" y="0" class="st7 st2 st3">i</tspan><tspan x="36.7750435" y="0" class="st7 st2 st3">b</tspan><tspan x="41.1029396" y="0" class="st7 st2 st3">u</tspan><tspan x="45.4308357" y="0" class="st7 st2 st3">t</tspan><tspan x="48.1330414" y="0" class="st7 st2 st3">e</tspan></text>
<polygon class="st6" points="516.8302002,421.6200562 655.4798584,421.6200562 655.4798584,280.1914978 516.8302002,280.1914978 
	516.8302002,421.6200562 "/>
<polygon class="st1" points="516.8302002,421.6200562 655.4798584,421.6200562 655.4798584,280.1914978 516.8302002,280.1914978 
	516.8302002,421.6200562 "/>
<text transform="matrix(0.85 0 0 1 568.6358032 290.4822083)"><tspan x="0" y="0" class="st2 st4">«</tspan><tspan x="3.5960476" y="0" class="st2 st4">D</tspan><tspan x="8.2306986" y="0" class="st2 st4">a</tspan><tspan x="11.8255968" y="0" class="st2 st4">t</tspan><tspan x="13.8844204" y="0" class="st2 st4">a</tspan><tspan x="17.4793186" y="0" class="st2 st4">T</tspan><tspan x="21.0765152" y="0" class="st2 st4">y</tspan><tspan x="24.1636028" y="0" class="st2 st4">p</tspan><tspan x="28.2755051" y="0" class="st2 st4">e</tspan><tspan x="31.8715515" y="0" class="st2 st4">»</tspan></text>
<text transform="matrix(0.85 0 0 1 546.2842407 299.2322083)"><tspan x="0" y="0" class="st5 st4">u</tspan><tspan x="4.1084557" y="0" class="st5 st4">r</tspan><tspan x="6.6762404" y="0" class="st5 st4">o</tspan><tspan x="10.7892923" y="0" class="st5 st4">::</tspan><tspan x="13.8809738" y="0" class="st5 st4">I</tspan><tspan x="15.9363508" y="0" class="st5 st4">f</tspan><tspan x="17.9940262" y="0" class="st5 st4">c</tspan><tspan x="21.0845585" y="0" class="st5 st4">S</tspan><tspan x="24.6909466" y="0" class="st5 st4">p</tspan><tspan x="28.7994022" y="0" class="st5 st4">a</tspan><tspan x="32.3965988" y="0" class="st5 st4">c</tspan><tspan x="35.485981" y="0" class="st5 st4">e</tspan><tspan x="39.0854759" y="0" class="st5 st4">B</tspan><tspan x="43.1962318" y="0" class="st5 st4">a</tspan><tspan x="46.7934265" y="0" class="st5 st4">s</tspan><tspan x="49.8770676" y="0" class="st5 st4">e</tspan><tspan x="53.4754105" y="0" class="st5 st4">Q</tspan><tspan x="58.6155777" y="0" class="st5 st4">u</tspan><tspan x="62.7240334" y="0" class="st5 st4">a</tspan><tspan x="66.3200836" y="0" class="st5 st4">n</tspan><tspan x="70.4285355" y="0" class="st5 st4">t</tspan><tspan x="72.9986191" y="0" class="st5 st4">i</tspan><tspan x="74.5438843" y="0" class="st5 st4">t</tspan><tspan x="77.1139679" y="0" class="st5 st4">y</tspan></text>
<line class="st1" x1="516.8302002" y1="303.3343811" x2="654.9719849" y2="303.3343811"/>
<text transform="matrix(0.85 0 0 1 519.3701782 312.5915833)" class="st2 st4">+ nominalHeight: gml::LengthType [0..1]</text>
<text transform="matrix(0.85 0 0 1 519.3701782 321.3415833)" class="st2 st4">+ clearHeight: gml::LengthType [0..1]</text>
<text transform="matrix(0.85 0 0 1 519.3701782 330.0759583)" class="st2 st4">+ finishCeilingHeight: gml::LengthType [0..1]</text>
<text transform="matrix(0.85 0 0 1 519.3701782 338.8181458)" class="st2 st4">+ grossPerimeter: gml::LengthType [0..1]</text>
<text transform="matrix(0.85 0 0 1 519.3701782 347.5681458)" class="st2 st4">+ netPerimeter: gml::LengthType [0..1]</text>
<text transform="matrix(0.85 0 0 1 519.3701782 356.3103333)" class="st2 st4">+ grossCeilingArea: gml::MeasureType [0..1]</text>
<text transform="matrix(0.85 0 0 1 519.3701782 365.0447083)" class="st2 st4">+ grossFloorArea: gml::MeasureType [0..1]</text>
<text transform="matrix(0.85 0 0 1 519.3701782 373.7947083)" class="st2 st4">+ netCeilingArea: gml::MeasureType [0..1]</text>
<text transform="matrix(0.85 0 0 1 519.3701782 382.5368958)" class="st2 st4">+ netFloorArea: gml::MeasureType [0..1]</text>
<text transform="matrix(0.85 0 0 1 519.3701782 391.2790833)" class="st2 st4">+ grossWallArea: gml::MeasureType [0..1]</text>
<text transform="matrix(0.85 0 0 1 519.3701782 400.0212708)" class="st2 st4">+ netWallArea: gml::MeasureType [0..1]</text>
<text transform="matrix(0.85 0 0 1 519.3701782 408.7634583)" class="st2 st4">+ grossVolume: gml::MeasureType [0..1]</text>
<text transform="matrix(0.85 0 0 1 519.3701782 417.5134583)" class="st2 st4">+ netVolume: gml::MeasureType [0..1]</text>
<polygon class="st6" points="394.9403992,352.70578 506.6727295,352.70578 506.6727295,321.8486633 394.9403992,321.8486633 
	394.9403992,352.70578 "/>
<polygon class="st1" points="394.9403992,352.70578 506.6727295,352.70578 506.6727295,321.8486633 394.9403992,321.8486633 
	394.9403992,352.70578 "/>
<text transform="matrix(0.85 0 0 1 428.4639282 330.5915833)"><tspan x="0" y="0" class="st2 st4">«</tspan><tspan x="3.5960476" y="0" class="st2 st4">e</tspan><tspan x="7.1920953" y="0" class="st2 st4">nu</tspan><tspan x="14.3991261" y="0" class="st2 st4">m</tspan><tspan x="20.0574436" y="0" class="st2 st4">e</tspan><tspan x="23.653492" y="0" class="st2 st4">r</tspan><tspan x="26.2189789" y="0" class="st2 st4">a</tspan><tspan x="29.8138771" y="0" class="st2 st4">t</tspan><tspan x="31.8727016" y="0" class="st2 st4">i</tspan><tspan x="33.4179688" y="0" class="st2 st4">o</tspan><tspan x="37.5287209" y="0" class="st2 st4">n</tspan><tspan x="41.1328125" y="0" class="st2 st4">»</tspan></text>
<text transform="matrix(0.85 0 0 1 399.5108032 339.3337708)"><tspan x="0" y="0" class="st5 st4">u</tspan><tspan x="4.1084557" y="0" class="st5 st4">r</tspan><tspan x="6.6762404" y="0" class="st5 st4">o</tspan><tspan x="10.7892923" y="0" class="st5 st4">::</tspan><tspan x="13.8809738" y="0" class="st5 st4">I</tspan><tspan x="15.9363508" y="0" class="st5 st4">f</tspan><tspan x="17.9940262" y="0" class="st5 st4">c</tspan><tspan x="21.0845585" y="0" class="st5 st4">E</tspan><tspan x="24.6783085" y="0" class="st5 st4">l</tspan><tspan x="26.2247238" y="0" class="st5 st4">e</tspan><tspan x="29.8230686" y="0" class="st5 st4">m</tspan><tspan x="35.9926453" y="0" class="st5 st4">e</tspan><tspan x="39.590992" y="0" class="st5 st4">n</tspan><tspan x="43.6994476" y="0" class="st5 st4">t</tspan><tspan x="46.2683792" y="0" class="st5 st4">C</tspan><tspan x="50.3871765" y="0" class="st5 st4">o</tspan><tspan x="54.5002289" y="0" class="st5 st4">m</tspan><tspan x="60.6698036" y="0" class="st5 st4">p</tspan><tspan x="64.7782593" y="0" class="st5 st4">o</tspan><tspan x="68.8913116" y="0" class="st5 st4">s</tspan><tspan x="71.9738007" y="0" class="st5 st4">i</tspan><tspan x="73.5202179" y="0" class="st5 st4">t</tspan><tspan x="76.0891495" y="0" class="st5 st4">i</tspan><tspan x="77.6355667" y="0" class="st5 st4">o</tspan><tspan x="81.7486191" y="0" class="st5 st4">n</tspan><tspan x="85.8570786" y="0" class="st5 st4">E</tspan><tspan x="89.4508209" y="0" class="st5 st4">nu</tspan><tspan x="97.6677399" y="0" class="st5 st4">m</tspan></text>
<polygon class="st6" points="212.1057434,454.5343628 393.4167786,454.5343628 393.4167786,404.1343384 212.1057434,404.1343384 
	212.1057434,454.5343628 "/>
<polygon class="st1" points="212.1057434,454.5343628 393.4167786,454.5343628 393.4167786,404.1343384 212.1057434,404.1343384 
	212.1057434,454.5343628 "/>
<text transform="matrix(0.85 0 0 1 285.2451782 414.4197083)"><tspan x="0" y="0" class="st2 st4">«</tspan><tspan x="3.5960476" y="0" class="st2 st4">D</tspan><tspan x="8.2301235" y="0" class="st2 st4">a</tspan><tspan x="11.8255968" y="0" class="st2 st4">t</tspan><tspan x="13.8838463" y="0" class="st2 st4">a</tspan><tspan x="17.4793186" y="0" class="st2 st4">T</tspan><tspan x="21.0759411" y="0" class="st2 st4">y</tspan><tspan x="24.1641769" y="0" class="st2 st4">p</tspan><tspan x="28.274931" y="0" class="st2 st4">e</tspan><tspan x="31.8715515" y="0" class="st2 st4">»</tspan></text>
<text transform="matrix(0.85 0 0 1 283.2139282 423.1618958)"><tspan x="0" y="0" class="st5 st4">u</tspan><tspan x="4.1084557" y="0" class="st5 st4">r</tspan><tspan x="6.6762404" y="0" class="st5 st4">o</tspan><tspan x="10.7892923" y="0" class="st5 st4">::</tspan><tspan x="13.8809738" y="0" class="st5 st4">I</tspan><tspan x="15.9369249" y="0" class="st5 st4">f</tspan><tspan x="17.9940262" y="0" class="st5 st4">c</tspan><tspan x="21.0845585" y="0" class="st5 st4">S</tspan><tspan x="24.6909466" y="0" class="st5 st4">p</tspan><tspan x="28.7994022" y="0" class="st5 st4">a</tspan><tspan x="32.3960228" y="0" class="st5 st4">c</tspan><tspan x="35.486557" y="0" class="st5 st4">e</tspan></text>
<line class="st1" x1="212.1057434" y1="427.2772217" x2="392.908905" y2="427.2772217"/>
<text transform="matrix(0.85 0 0 1 214.6436157 436.5290833)" class="st2 st4">+ interiorOrExteriorSpace: ifcInternalOrExternalEnum [0..1]</text>
<text transform="matrix(0.85 0 0 1 214.6436157 445.2790833)" class="st2 st4">+ elevationWithFlooring: gml::LengthType [0..1]</text>
<polygon class="st6" points="394.9403992,388.1914978 506.6727295,388.1914978 506.6727295,357.3343811 394.9403992,357.3343811 
	394.9403992,388.1914978 "/>
<polygon class="st1" points="394.9403992,388.1914978 506.6727295,388.1914978 506.6727295,357.3343811 394.9403992,357.3343811 
	394.9403992,388.1914978 "/>
<text transform="matrix(0.85 0 0 1 428.4639282 366.0837708)"><tspan x="0" y="0" class="st2 st4">«</tspan><tspan x="3.5960476" y="0" class="st2 st4">e</tspan><tspan x="7.1920953" y="0" class="st2 st4">nu</tspan><tspan x="14.3991261" y="0" class="st2 st4">m</tspan><tspan x="20.0574436" y="0" class="st2 st4">e</tspan><tspan x="23.653492" y="0" class="st2 st4">r</tspan><tspan x="26.2189789" y="0" class="st2 st4">a</tspan><tspan x="29.8138771" y="0" class="st2 st4">t</tspan><tspan x="31.8727016" y="0" class="st2 st4">i</tspan><tspan x="33.4179688" y="0" class="st2 st4">o</tspan><tspan x="37.5287209" y="0" class="st2 st4">n</tspan><tspan x="41.1328125" y="0" class="st2 st4">»</tspan></text>
<text transform="matrix(0.85 0 0 1 403.5733032 374.8259583)"><tspan x="0" y="0" class="st5 st4">u</tspan><tspan x="4.1084557" y="0" class="st5 st4">r</tspan><tspan x="6.6762404" y="0" class="st5 st4">o</tspan><tspan x="10.7892923" y="0" class="st5 st4">::</tspan><tspan x="13.8809738" y="0" class="st5 st4">i</tspan><tspan x="15.42624" y="0" class="st5 st4">f</tspan><tspan x="17.4839153" y="0" class="st5 st4">c</tspan><tspan x="20.5744476" y="0" class="st5 st4">I</tspan><tspan x="22.6298256" y="0" class="st5 st4">n</tspan><tspan x="26.7382812" y="0" class="st5 st4">t</tspan><tspan x="29.308363" y="0" class="st5 st4">e</tspan><tspan x="32.9067078" y="0" class="st5 st4">r</tspan><tspan x="35.4744949" y="0" class="st5 st4">n</tspan><tspan x="39.5829506" y="0" class="st5 st4">a</tspan><tspan x="43.1801453" y="0" class="st5 st4">l</tspan><tspan x="44.7254105" y="0" class="st5 st4">Or</tspan><tspan x="52.4345131" y="0" class="st5 st4">E</tspan><tspan x="56.0282631" y="0" class="st5 st4">x</tspan><tspan x="59.6254578" y="0" class="st5 st4">t</tspan><tspan x="62.1943932" y="0" class="st5 st4">e</tspan><tspan x="65.7927399" y="0" class="st5 st4">r</tspan><tspan x="68.3616714" y="0" class="st5 st4">n</tspan><tspan x="72.4701233" y="0" class="st5 st4">a</tspan><tspan x="76.0661774" y="0" class="st5 st4">l</tspan><tspan x="77.612587" y="0" class="st5 st4">E</tspan><tspan x="81.206337" y="0" class="st5 st4">nu</tspan><tspan x="89.4232483" y="0" class="st5 st4">m</tspan></text>
<polygon class="st6" points="141.0033875,244.70578 232.4207153,244.70578 232.4207153,203.0486145 141.0033875,203.0486145 
	141.0033875,244.70578 "/>
<polygon class="st1" points="141.0033875,244.70578 232.4207153,244.70578 232.4207153,203.0486145 141.0033875,203.0486145 
	141.0033875,244.70578 "/>
<text transform="matrix(0.85 0 0 1 168.9404907 213.3415833)"><tspan x="0" y="0" class="st2 st4">«</tspan><tspan x="3.5960476" y="0" class="st2 st4">D</tspan><tspan x="8.2301235" y="0" class="st2 st4">a</tspan><tspan x="11.8255968" y="0" class="st2 st4">t</tspan><tspan x="13.8838463" y="0" class="st2 st4">a</tspan><tspan x="17.4793186" y="0" class="st2 st4">T</tspan><tspan x="21.0759411" y="0" class="st2 st4">y</tspan><tspan x="24.1641769" y="0" class="st2 st4">p</tspan><tspan x="28.274931" y="0" class="st2 st4">e</tspan><tspan x="31.8715515" y="0" class="st2 st4">»</tspan></text>
<text transform="matrix(0.85 0 -0.3126727 0.9498609 151.6741333 222.0771637)"><tspan x="0" y="0" class="st7 st2 st3">u</tspan><tspan x="4.3278952" y="0" class="st7 st2 st3">r</tspan><tspan x="7.0289521" y="0" class="st7 st2 st3">o</tspan><tspan x="11.3568468" y="0" class="st7 st2 st3">::</tspan><tspan x="14.5921412" y="0" class="st7 st2 st3">I</tspan><tspan x="16.7532158" y="0" class="st7 st2 st3">f</tspan><tspan x="18.9211845" y="0" class="st7 st2 st3">c</tspan><tspan x="22.1725636" y="0" class="st7 st2 st3">O</tspan><tspan x="27.5850182" y="0" class="st7 st2 st3">b</tspan><tspan x="31.9129124" y="0" class="st7 st2 st3">j</tspan><tspan x="33.5397491" y="0" class="st7 st2 st3">e</tspan><tspan x="37.3265152" y="0" class="st7 st2 st3">c</tspan><tspan x="40.5778923" y="0" class="st7 st2 st3">t</tspan><tspan x="43.2789497" y="0" class="st7 st2 st3">D</tspan><tspan x="48.1583176" y="0" class="st7 st2 st3">e</tspan><tspan x="51.9450798" y="0" class="st7 st2 st3">fi</tspan><tspan x="56.153492" y="0" class="st7 st2 st3">n</tspan><tspan x="60.4813843" y="0" class="st7 st2 st3">i</tspan><tspan x="62.108223" y="0" class="st7 st2 st3">t</tspan><tspan x="64.8104324" y="0" class="st7 st2 st3">i</tspan><tspan x="66.4372711" y="0" class="st7 st2 st3">o</tspan><tspan x="70.7651672" y="0" class="st7 st2 st3">n</tspan></text>
<polygon class="st6" points="141.0033875,311.0486145 235.4679565,311.0486145 235.4679565,269.9057922 141.0033875,269.9057922 
	141.0033875,311.0486145 "/>
<polygon class="st1" points="141.0033875,311.0486145 235.4679565,311.0486145 235.4679565,269.9057922 141.0033875,269.9057922 
	141.0033875,311.0486145 "/>
<text transform="matrix(0.85 0 0 1 170.4639282 280.1931458)"><tspan x="0" y="0" class="st2 st4">«</tspan><tspan x="3.5960476" y="0" class="st2 st4">D</tspan><tspan x="8.2301235" y="0" class="st2 st4">a</tspan><tspan x="11.8255968" y="0" class="st2 st4">t</tspan><tspan x="13.8838463" y="0" class="st2 st4">a</tspan><tspan x="17.4793186" y="0" class="st2 st4">T</tspan><tspan x="21.0759411" y="0" class="st2 st4">y</tspan><tspan x="24.1641769" y="0" class="st2 st4">p</tspan><tspan x="28.274931" y="0" class="st2 st4">e</tspan><tspan x="31.8715515" y="0" class="st2 st4">»</tspan></text>
<text transform="matrix(0.85 0 -0.3126727 0.9498609 167.9227142 288.9384766)"><tspan x="0" y="0" class="st7 st2 st3">u</tspan><tspan x="4.3278952" y="0" class="st7 st2 st3">r</tspan><tspan x="7.0289521" y="0" class="st7 st2 st3">o</tspan><tspan x="11.3568468" y="0" class="st7 st2 st3">::</tspan><tspan x="14.5921412" y="0" class="st7 st2 st3">I</tspan><tspan x="16.7532158" y="0" class="st7 st2 st3">f</tspan><tspan x="18.9211845" y="0" class="st7 st2 st3">c</tspan><tspan x="22.1725636" y="0" class="st7 st2 st3">O</tspan><tspan x="27.5850182" y="0" class="st7 st2 st3">b</tspan><tspan x="31.9129124" y="0" class="st7 st2 st3">j</tspan><tspan x="33.5397491" y="0" class="st7 st2 st3">e</tspan><tspan x="37.3265152" y="0" class="st7 st2 st3">ct</tspan></text>
<line class="st1" x1="141.0033875" y1="293.0486145" x2="234.960083" y2="293.0486145"/>
<text transform="matrix(0.85 0 0 1 143.5420532 302.3025208)" class="st2 st4">+ objectType: xs::string [0..1]</text>
<polygon class="st6" points="212.1057434,387.6772156 382.7514343,387.6772156 382.7514343,342.4200745 212.1057434,342.4200745 
	212.1057434,387.6772156 "/>
<polygon class="st1" points="212.1057434,387.6772156 382.7514343,387.6772156 382.7514343,342.4200745 212.1057434,342.4200745 
	212.1057434,387.6772156 "/>
<text transform="matrix(0.85 0 0 1 279.6514282 352.7009583)"><tspan x="0" y="0" class="st2 st4">«</tspan><tspan x="3.5960476" y="0" class="st2 st4">D</tspan><tspan x="8.2301235" y="0" class="st2 st4">a</tspan><tspan x="11.8255968" y="0" class="st2 st4">t</tspan><tspan x="13.8838463" y="0" class="st2 st4">a</tspan><tspan x="17.4793186" y="0" class="st2 st4">T</tspan><tspan x="21.0759411" y="0" class="st2 st4">y</tspan><tspan x="24.1641769" y="0" class="st2 st4">p</tspan><tspan x="28.274931" y="0" class="st2 st4">e</tspan><tspan x="31.8715515" y="0" class="st2 st4">»</tspan></text>
<text transform="matrix(0.85 0 0 1 250.1983032 361.4509583)"><tspan x="0" y="0" class="st5 st4">u</tspan><tspan x="4.1084557" y="0" class="st5 st4">r</tspan><tspan x="6.6762404" y="0" class="st5 st4">o</tspan><tspan x="10.7892923" y="0" class="st5 st4">::</tspan><tspan x="13.8809738" y="0" class="st5 st4">I</tspan><tspan x="15.9369249" y="0" class="st5 st4">f</tspan><tspan x="17.9940262" y="0" class="st5 st4">c</tspan><tspan x="21.0845585" y="0" class="st5 st4">S</tspan><tspan x="24.6909466" y="0" class="st5 st4">p</tspan><tspan x="28.7994022" y="0" class="st5 st4">a</tspan><tspan x="32.3960228" y="0" class="st5 st4">t</tspan><tspan x="34.9655304" y="0" class="st5 st4">i</tspan><tspan x="36.5113716" y="0" class="st5 st4">a</tspan><tspan x="40.1085701" y="0" class="st5 st4">l</tspan><tspan x="41.6544113" y="0" class="st5 st4">S</tspan><tspan x="45.2607994" y="0" class="st5 st4">t</tspan><tspan x="47.830307" y="0" class="st5 st4">r</tspan><tspan x="50.3980904" y="0" class="st5 st4">u</tspan><tspan x="54.506546" y="0" class="st5 st4">c</tspan><tspan x="57.5970802" y="0" class="st5 st4">t</tspan><tspan x="60.1665878" y="0" class="st5 st4">u</tspan><tspan x="64.2750473" y="0" class="st5 st4">r</tspan><tspan x="66.8428268" y="0" class="st5 st4">e</tspan><tspan x="70.4411774" y="0" class="st5 st4">E</tspan><tspan x="74.0354996" y="0" class="st5 st4">l</tspan><tspan x="75.581337" y="0" class="st5 st4">e</tspan><tspan x="79.1802597" y="0" class="st5 st4">m</tspan><tspan x="85.3492661" y="0" class="st5 st4">e</tspan><tspan x="88.9476089" y="0" class="st5 st4">n</tspan><tspan x="93.0560608" y="0" class="st5 st4">t</tspan></text>
<line class="st1" x1="212.1057434" y1="365.5628967" x2="382.2435608" y2="365.5628967"/>
<text transform="matrix(0.85 0 0 1 214.6436157 374.8259583)" class="st2 st4">+ longName: xs::string [0..1]</text>
<text transform="matrix(0.85 0 0 1 214.6436157 383.5603333)" class="st2 st4">+ compositionType: IfcElementCompositionEnum [0..1]</text>
<polygon class="st6" points="278.129364,311.0486145 328.9167786,311.0486145 328.9167786,269.9057922 278.129364,269.9057922 
	278.129364,311.0486145 "/>
<polygon class="st1" points="278.129364,311.0486145 328.9167786,311.0486145 328.9167786,269.9057922 278.129364,269.9057922 
	278.129364,311.0486145 "/>
<text transform="matrix(0.85 0 0 1 285.7451782 280.1931458)"><tspan x="0" y="0" class="st2 st4">«</tspan><tspan x="3.5960476" y="0" class="st2 st4">D</tspan><tspan x="8.2301235" y="0" class="st2 st4">a</tspan><tspan x="11.8255968" y="0" class="st2 st4">t</tspan><tspan x="13.8838463" y="0" class="st2 st4">a</tspan><tspan x="17.4793186" y="0" class="st2 st4">T</tspan><tspan x="21.0759411" y="0" class="st2 st4">y</tspan><tspan x="24.1641769" y="0" class="st2 st4">p</tspan><tspan x="28.274931" y="0" class="st2 st4">e</tspan><tspan x="31.8715515" y="0" class="st2 st4">»</tspan></text>
<text transform="matrix(0.85 0 -0.3126727 0.9498609 280.680542 288.9384766)"><tspan x="0" y="0" class="st7 st2 st3">u</tspan><tspan x="4.3278952" y="0" class="st7 st2 st3">r</tspan><tspan x="7.0289521" y="0" class="st7 st2 st3">o</tspan><tspan x="11.3568468" y="0" class="st7 st2 st3">::</tspan><tspan x="14.5921412" y="0" class="st7 st2 st3">I</tspan><tspan x="16.7532158" y="0" class="st7 st2 st3">f</tspan><tspan x="18.9211845" y="0" class="st7 st2 st3">c</tspan><tspan x="22.1725636" y="0" class="st7 st2 st3">P</tspan><tspan x="26.5016079" y="0" class="st7 st2 st3">r</tspan><tspan x="29.2015152" y="0" class="st7 st2 st3">o</tspan><tspan x="33.5305595" y="0" class="st7 st2 st3">d</tspan><tspan x="37.8584557" y="0" class="st7 st2 st3">u</tspan><tspan x="42.1863518" y="0" class="st7 st2 st3">ct</tspan></text>
<polygon class="st6" points="247.6569214,188.6485901 380.7199402,188.6485901 380.7199402,125.9057846 247.6569214,125.9057846 
	247.6569214,188.6485901 "/>
<polygon class="st1" points="247.6569214,188.6485901 380.7199402,188.6485901 380.7199402,125.9057846 247.6569214,125.9057846 
	247.6569214,188.6485901 "/>
<text transform="matrix(0.85 0 0 1 296.4170532 136.1931458)"><tspan x="0" y="0" class="st2 st4">«</tspan><tspan x="3.5960476" y="0" class="st2 st4">D</tspan><tspan x="8.2301235" y="0" class="st2 st4">a</tspan><tspan x="11.8255968" y="0" class="st2 st4">t</tspan><tspan x="13.8838463" y="0" class="st2 st4">a</tspan><tspan x="17.4793186" y="0" class="st2 st4">T</tspan><tspan x="21.0759411" y="0" class="st2 st4">y</tspan><tspan x="24.1641769" y="0" class="st2 st4">p</tspan><tspan x="28.274931" y="0" class="st2 st4">e</tspan><tspan x="31.8715515" y="0" class="st2 st4">»</tspan></text>
<text transform="matrix(0.85 0 0 1 268.9951782 144.9353333)"><tspan x="0" y="0" class="st5 st4">u</tspan><tspan x="4.1084557" y="0" class="st5 st4">r</tspan><tspan x="6.6762404" y="0" class="st5 st4">o</tspan><tspan x="10.7892923" y="0" class="st5 st4">::</tspan><tspan x="13.8809738" y="0" class="st5 st4">I</tspan><tspan x="15.9369249" y="0" class="st5 st4">f</tspan><tspan x="17.9940262" y="0" class="st5 st4">c</tspan><tspan x="21.0845585" y="0" class="st5 st4">C</tspan><tspan x="25.2033539" y="0" class="st5 st4">l</tspan><tspan x="26.7491951" y="0" class="st5 st4">a</tspan><tspan x="30.3458176" y="0" class="st5 st4">ss</tspan><tspan x="36.5125237" y="0" class="st5 st4">ifi</tspan><tspan x="42.2909012" y="0" class="st5 st4">c</tspan><tspan x="45.3808594" y="0" class="st5 st4">a</tspan><tspan x="48.978054" y="0" class="st5 st4">t</tspan><tspan x="51.5475616" y="0" class="st5 st4">i</tspan><tspan x="53.0934029" y="0" class="st5 st4">o</tspan><tspan x="57.2058792" y="0" class="st5 st4">n</tspan><tspan x="61.3143349" y="0" class="st5 st4">R</tspan><tspan x="65.4296875" y="0" class="st5 st4">e</tspan><tspan x="69.0286026" y="0" class="st5 st4">f</tspan><tspan x="71.0857086" y="0" class="st5 st4">e</tspan><tspan x="74.6846237" y="0" class="st5 st4">r</tspan><tspan x="77.2524109" y="0" class="st5 st4">e</tspan><tspan x="80.8507538" y="0" class="st5 st4">n</tspan><tspan x="84.9592133" y="0" class="st5 st4">c</tspan><tspan x="88.0497437" y="0" class="st5 st4">e</tspan></text>
<line class="st1" x1="247.6569214" y1="149.0486145" x2="380.2120667" y2="149.0486145"/>
<text transform="matrix(0.85 0 0 1 250.1983032 158.3103333)" class="st2 st4">+ location: xs::anyURI [0..1]</text>
<text transform="matrix(0.85 0 0 1 250.1983032 167.0525208)" class="st2 st4">+ itemReference: gml::CodeType [0..1]</text>
<text transform="matrix(0.85 0 0 1 250.1983032 175.7947083)" class="st2 st4">+ name: xs::string [0..1]</text>
<text transform="matrix(0.85 0 0 1 250.1983032 184.5447083)" class="st2 st4">+ referencedSource: IfcClassification [0..1]</text>
<polygon class="st6" points="247.6569214,261.1629333 340.0899963,261.1629333 340.0899963,198.4200745 247.6569214,198.4200745 
	247.6569214,261.1629333 "/>
<polygon class="st1" points="247.6569214,261.1629333 340.0899963,261.1629333 340.0899963,198.4200745 247.6569214,198.4200745 
	247.6569214,261.1629333 "/>
<text transform="matrix(0.85 0 0 1 276.1045532 208.7087708)"><tspan x="0" y="0" class="st2 st4">«</tspan><tspan x="3.5960476" y="0" class="st2 st4">D</tspan><tspan x="8.2301235" y="0" class="st2 st4">a</tspan><tspan x="11.8255968" y="0" class="st2 st4">t</tspan><tspan x="13.8838463" y="0" class="st2 st4">a</tspan><tspan x="17.4793186" y="0" class="st2 st4">T</tspan><tspan x="21.0759411" y="0" class="st2 st4">y</tspan><tspan x="24.1641769" y="0" class="st2 st4">p</tspan><tspan x="28.274931" y="0" class="st2 st4">e</tspan><tspan x="31.8715515" y="0" class="st2 st4">»</tspan></text>
<text transform="matrix(0.85 0 0 1 263.9170532 217.4509583)"><tspan x="0" y="0" class="st5 st4">u</tspan><tspan x="4.1084557" y="0" class="st5 st4">r</tspan><tspan x="6.6762404" y="0" class="st5 st4">o</tspan><tspan x="10.7892923" y="0" class="st5 st4">::</tspan><tspan x="13.8809738" y="0" class="st5 st4">I</tspan><tspan x="15.9369249" y="0" class="st5 st4">f</tspan><tspan x="17.9940262" y="0" class="st5 st4">c</tspan><tspan x="21.0845585" y="0" class="st5 st4">C</tspan><tspan x="25.2033539" y="0" class="st5 st4">l</tspan><tspan x="26.7491951" y="0" class="st5 st4">a</tspan><tspan x="30.3458176" y="0" class="st5 st4">ss</tspan><tspan x="36.5125237" y="0" class="st5 st4">ifi</tspan><tspan x="42.2909012" y="0" class="st5 st4">c</tspan><tspan x="45.3808594" y="0" class="st5 st4">a</tspan><tspan x="48.978054" y="0" class="st5 st4">t</tspan><tspan x="51.5475616" y="0" class="st5 st4">i</tspan><tspan x="53.0934029" y="0" class="st5 st4">o</tspan><tspan x="57.2058792" y="0" class="st5 st4">n</tspan></text>
<line class="st1" x1="247.6569214" y1="221.5628967" x2="339.5821228" y2="221.5628967"/>
<text transform="matrix(0.85 0 0 1 250.1983032 230.8181458)" class="st2 st4">+ source: xs::string [0..1]</text>
<text transform="matrix(0.85 0 0 1 250.1983032 239.5603333)" class="st2 st4">+ edition: xs::string [0..1]</text>
<text transform="matrix(0.85 0 0 1 250.1983032 248.3103333)" class="st2 st4">+ editionDate: xs::date [0..1]</text>
<text transform="matrix(0.85 0 0 1 250.1983032 257.0525208)" class="st2 st4">+ name: xs::string [0..1]</text>
<polygon class="st6" points="394.9403992,258.5914612 539.1766357,258.5914612 539.1766357,125.9057846 394.9403992,125.9057846 
	394.9403992,258.5914612 "/>
<polygon class="st1" points="394.9403992,258.5914612 539.1766357,258.5914612 539.1766357,125.9057846 394.9403992,125.9057846 
	394.9403992,258.5914612 "/>
<text transform="matrix(0.85 0 0 1 449.2842407 136.1931458)"><tspan x="0" y="0" class="st2 st4">«</tspan><tspan x="3.5960476" y="0" class="st2 st4">D</tspan><tspan x="8.2306986" y="0" class="st2 st4">a</tspan><tspan x="11.8255968" y="0" class="st2 st4">t</tspan><tspan x="13.8844204" y="0" class="st2 st4">a</tspan><tspan x="17.4793186" y="0" class="st2 st4">T</tspan><tspan x="21.0765152" y="0" class="st2 st4">y</tspan><tspan x="24.1636028" y="0" class="st2 st4">p</tspan><tspan x="28.2755051" y="0" class="st2 st4">e</tspan><tspan x="31.8715515" y="0" class="st2 st4">»</tspan></text>
<text transform="matrix(0.85 0 0 1 426.9404907 144.9353333)"><tspan x="0" y="0" class="st5 st4">u</tspan><tspan x="4.1084557" y="0" class="st5 st4">r</tspan><tspan x="6.6762404" y="0" class="st5 st4">o</tspan><tspan x="10.7892923" y="0" class="st5 st4">::</tspan><tspan x="13.8809738" y="0" class="st5 st4">I</tspan><tspan x="15.9363508" y="0" class="st5 st4">f</tspan><tspan x="17.9940262" y="0" class="st5 st4">c</tspan><tspan x="21.0845585" y="0" class="st5 st4">Ps</tspan><tspan x="28.2755051" y="0" class="st5 st4">e</tspan><tspan x="31.8738499" y="0" class="st5 st4">t</tspan><tspan x="34.4439316" y="0" class="st5 st4">S</tspan><tspan x="38.0503197" y="0" class="st5 st4">p</tspan><tspan x="42.1587753" y="0" class="st5 st4">a</tspan><tspan x="45.7559738" y="0" class="st5 st4">c</tspan><tspan x="48.845356" y="0" class="st5 st4">e</tspan><tspan x="52.4448509" y="0" class="st5 st4">C</tspan><tspan x="56.5636482" y="0" class="st5 st4">o</tspan><tspan x="60.6766968" y="0" class="st5 st4">mm</tspan><tspan x="73.0147018" y="0" class="st5 st4">o</tspan><tspan x="77.1277542" y="0" class="st5 st4">n</tspan></text>
<line class="st1" x1="394.9403992" y1="149.0486145" x2="538.6687622" y2="149.0486145"/>
<text transform="matrix(0.85 0 0 1 397.4795532 158.3103333)" class="st2 st4">+ referene: xs::string [0..1]</text>
<text transform="matrix(0.85 0 0 1 397.4795532 167.0525208)" class="st2 st4">+ category: xs::string [0..1]</text>
<text transform="matrix(0.85 0 0 1 397.4795532 175.7947083)" class="st2 st4">+ floorCovering: xs::string [0..1]</text>
<text transform="matrix(0.85 0 0 1 397.4795532 184.5447083)" class="st2 st4">+ wallCovering: xs::string [0..1]</text>
<text transform="matrix(0.85 0 0 1 397.4795532 193.2790833)" class="st2 st4">+ ceilingCovering: xs::string [0..1]</text>
<text transform="matrix(0.85 0 0 1 397.4795532 202.0212708)" class="st2 st4">+ skirtingBoard: xs::string [0..1]</text>
<text transform="matrix(0.85 0 0 1 397.4795532 210.7634583)" class="st2 st4">+ grossPlannedArea: gml::MeasureType [0..1]</text>
<text transform="matrix(0.85 0 0 1 397.4795532 219.5134583)" class="st2 st4">+ netPlannedArea: gml::MeasureType [0..1]</text>
<text transform="matrix(0.85 0 0 1 397.4795532 228.2478333)" class="st2 st4">+ publiclyAccessible: xs::boolean [0..1]</text>
<text transform="matrix(0.85 0 0 1 397.4795532 236.9900208)" class="st2 st4">+ handicapAccessible: xs::boolean [0..1]</text>
<text transform="matrix(0.85 0 0 1 397.4795532 245.7322083)" class="st2 st4">+ concealedFlooring: xs::boolean [0..1]</text>
<text transform="matrix(0.85 0 0 1 397.4795532 254.4822083)" class="st2 st4">+ concealedCeiling: xs::boolean [0..1]</text>
<polygon class="st6" points="59.7435303,393.3343506 198.393158,393.3343506 198.393158,321.8486633 59.7435303,321.8486633 
	59.7435303,393.3343506 "/>
<polygon class="st1" points="59.7435303,393.3343506 198.393158,393.3343506 198.393158,321.8486633 59.7435303,321.8486633 
	59.7435303,393.3343506 "/>
<text transform="matrix(0.85 0 0 1 111.5498657 332.1384583)"><tspan x="0" y="0" class="st2 st4">«</tspan><tspan x="3.5960476" y="0" class="st2 st4">D</tspan><tspan x="8.2301235" y="0" class="st2 st4">a</tspan><tspan x="11.8255968" y="0" class="st2 st4">t</tspan><tspan x="13.8838463" y="0" class="st2 st4">a</tspan><tspan x="17.4793186" y="0" class="st2 st4">T</tspan><tspan x="21.0759411" y="0" class="st2 st4">y</tspan><tspan x="24.1641769" y="0" class="st2 st4">p</tspan><tspan x="28.274931" y="0" class="st2 st4">e</tspan><tspan x="31.8715515" y="0" class="st2 st4">»</tspan></text>
<text transform="matrix(0.85 0 0 1 81.0733032 340.8806458)"><tspan x="0" y="0" class="st5 st4">u</tspan><tspan x="4.1084557" y="0" class="st5 st4">r</tspan><tspan x="6.6762404" y="0" class="st5 st4">o</tspan><tspan x="10.7892923" y="0" class="st5 st4">::</tspan><tspan x="13.8809738" y="0" class="st5 st4">R</tspan><tspan x="17.9963226" y="0" class="st5 st4">oo</tspan><tspan x="26.2218513" y="0" class="st5 st4">m</tspan><tspan x="32.3908539" y="0" class="st5 st4">D</tspan><tspan x="37.0260773" y="0" class="st5 st4">a</tspan><tspan x="40.6226997" y="0" class="st5 st4">t</tspan><tspan x="43.1922112" y="0" class="st5 st4">a</tspan><tspan x="46.7894058" y="0" class="st5 st4">Q</tspan><tspan x="51.9295731" y="0" class="st5 st4">u</tspan><tspan x="56.0380287" y="0" class="st5 st4">a</tspan><tspan x="59.6346474" y="0" class="st5 st4">li</tspan><tspan x="62.7263298" y="0" class="st5 st4">t</tspan><tspan x="65.2958374" y="0" class="st5 st4">y</tspan><tspan x="68.8947601" y="0" class="st5 st4">A</tspan><tspan x="73.5173492" y="0" class="st5 st4">tt</tspan><tspan x="78.6563644" y="0" class="st5 st4">r</tspan><tspan x="81.2247238" y="0" class="st5 st4">i</tspan><tspan x="82.7705612" y="0" class="st5 st4">b</tspan><tspan x="86.8790207" y="0" class="st5 st4">u</tspan><tspan x="90.9874725" y="0" class="st5 st4">t</tspan><tspan x="93.5569839" y="0" class="st5 st4">e</tspan></text>
<line class="st1" x1="59.7435303" y1="344.9914856" x2="197.8852844" y2="344.9914856"/>
<text transform="matrix(0.85 0 0 1 62.2842407 354.2478333)" class="st2 st4">+ srcScale: gml::CodeType [0..1]</text>
<text transform="matrix(0.85 0 0 1 62.2842407 362.9978333)" class="st2 st4">+ geometrySrcDesc: gml::CodeType [0..1]</text>
<text transform="matrix(0.85 0 0 1 62.2842407 371.7400208)" class="st2 st4">+ thematicSrcDesc: gml::CodeType [0..1]</text>
<text transform="matrix(0.85 0 0 1 62.2842407 380.4822083)" class="st2 st4">+ appearanceSrcDesc: gml::CodeType [0..1]</text>
<text transform="matrix(0.85 0 0 1 62.2842407 389.2322083)" class="st2 st4">+ lodType: BuildingLODType [0..1]</text>
<path class="st8" d="M467.0585327,33.3343163c0.8414307,0,1.5235596,0.6907959,1.5235596,1.5428467h0.000061v47.8286095h-0.000061
	c0,0.8521118-0.6821289,1.5428467-1.5236206,1.5428467l0,0h0.000061h-90.9094543h-0.0000305
	c-0.8414612,0-1.5236206-0.6907959-1.5236206-1.5428467h0.0000305V34.8771629c0-0.8520508,0.6821289-1.5428467,1.5236206-1.5428467
	l0,0H467.0585327L467.0585327,33.3343163L467.0585327,33.3343163z"/>
<path class="st9" d="M467.0585327,33.3343163c0.8414307,0,1.5235596,0.6907959,1.5235596,1.5428467h0.000061v47.8286095h-0.000061
	c0,0.8521118-0.6821289,1.5428467-1.5236206,1.5428467l0,0h0.000061h-90.9094543h-0.0000305
	c-0.8414612,0-1.5236206-0.6907959-1.5236206-1.5428467h0.0000305V34.8771629c0-0.8520508,0.6821289-1.5428467,1.5236206-1.5428467
	l0,0H467.0585327L467.0585327,33.3343163L467.0585327,33.3343163z"/>
<polygon class="st10" points="379.7041931,57.505764 388.3380432,57.505764 388.3380432,48.7629051 379.7041931,48.7629051 
	379.7041931,57.505764 "/>
<polygon class="st11" points="379.7041931,57.505764 388.3380432,57.505764 388.3380432,48.7629051 379.7041931,48.7629051 
	379.7041931,57.505764 "/>
<text transform="matrix(0.85 0 0 1 390.8779907 55.9665794)" class="st12 st2 st4">GMLに定義されたクラス</text>
<polygon class="st0" points="379.7041931,67.2771835 388.3380432,67.2771835 388.3380432,58.5343285 379.7041931,58.5343285 
	379.7041931,67.2771835 "/>
<polygon class="st11" points="379.7041931,67.2771835 388.3380432,67.2771835 388.3380432,58.5343285 379.7041931,58.5343285 
	379.7041931,67.2771835 "/>
<text transform="matrix(0.85 0 0 1 390.8779907 65.7322006)" class="st12 st2 st4">CityGMLに定義されたクラス</text>
<polygon class="st6" points="379.7041931,77.0486069 388.3380432,77.0486069 388.3380432,68.305748 379.7041931,68.305748 
	379.7041931,77.0486069 "/>
<polygon class="st11" points="379.7041931,77.0486069 388.3380432,77.0486069 388.3380432,68.305748 379.7041931,68.305748 
	379.7041931,77.0486069 "/>
<text transform="matrix(0.85 0 0 1 390.8779907 75.5056381)" class="st12 st2 st4">i-URに定義されたクラス</text>
<text transform="matrix(0.85 0 0 1 415.7608032 45.6697044)" class="st12 st5 st13">凡例</text>
<line class="st1" x1="198.9010315" y1="125.9057846" x2="198.9010315" y2="100.7057724"/>
<line class="st1" x1="198.9010315" y1="100.7057724" x2="321.2986755" y2="100.7057724"/>
<line class="st1" x1="321.2986755" y1="100.7057724" x2="321.2986755" y2="75.5057602"/>
<polyline class="st14" points="324.3459167,83.7343369 318.2514343,83.7343369 321.2986755,75.5057602 324.3459167,83.7343369 "/>
<polygon class="st1" points="324.3459167,83.7343369 318.2514343,83.7343369 321.2986755,75.5057602 "/>
<line class="st1" x1="287.7789917" y1="53.9057274" x2="183.1569214" y2="53.9057274"/>
<polyline class="st15" points="188.2356567,51.3343163 183.1569214,53.9057274 188.2356567,56.4771996 193.3144226,53.9057274 
	188.2356567,51.3343163 "/>
<polygon class="st1" points="193.3144226,53.9057274 188.2356567,56.4771996 183.1569214,53.9057274 188.2356567,51.3343163 "/>
<polyline class="st1" points="280.1608582,50.820034 287.7789917,53.9057274 280.1608582,56.9914818 "/>
<line class="st1" x1="618.4050903" y1="279.6772156" x2="618.4050903" y2="100.7057724"/>
<line class="st1" x1="618.4050903" y1="100.7057724" x2="321.2986755" y2="100.7057724"/>
<line class="st1" x1="297.9364624" y1="403.6200562" x2="297.9364624" y2="388.1914978"/>
<polyline class="st14" points="300.9837036,396.4200745 294.8892212,396.4200745 297.9364624,388.1914978 300.9837036,396.4200745 
	"/>
<polygon class="st1" points="300.9837036,396.4200745 294.8892212,396.4200745 297.9364624,388.1914978 "/>
<line class="st1" x1="184.680542" y1="202.5343323" x2="184.680542" y2="180.9343567"/>
<polyline class="st14" points="187.7277832,189.1628723 181.6333008,189.1628723 184.680542,180.9343567 187.7277832,189.1628723 
	"/>
<polygon class="st1" points="187.7277832,189.1628723 181.6333008,189.1628723 184.680542,180.9343567 "/>
<line class="st1" x1="185.6962891" y1="269.39151" x2="185.6962891" y2="245.2200623"/>
<polyline class="st14" points="188.7435303,253.4486389 182.6490479,253.4486389 185.6962891,245.2200623 188.7435303,253.4486389 
	"/>
<polygon class="st1" points="188.7435303,253.4486389 182.6490479,253.4486389 185.6962891,245.2200623 "/>
<line class="st1" x1="300.9837036" y1="341.9057922" x2="300.9837036" y2="311.5628967"/>
<polyline class="st14" points="304.0309448,319.7914734 297.9364624,319.7914734 300.9837036,311.5628967 304.0309448,319.7914734 
	"/>
<polygon class="st1" points="304.0309448,319.7914734 297.9364624,319.7914734 300.9837036,311.5628967 "/>
<line class="st1" x1="277.6214905" y1="290.4772034" x2="235.9758301" y2="290.4772034"/>
<polyline class="st14" points="244.1018066,287.39151 244.1018066,293.5628967 235.9758301,290.4772034 244.1018066,287.39151 "/>
<polygon class="st1" points="244.1018066,287.39151 244.1018066,293.5628967 235.9758301,290.4772034 "/>
<line class="st1" x1="312.6647949" y1="125.3915024" x2="312.6647949" y2="100.7057724"/>
<line class="st1" x1="467.0585327" y1="125.3915024" x2="467.0585327" y2="100.7057724"/>
<line class="st1" x1="122.2120438" y1="321.3343811" x2="122.2120438" y2="93.5057602"/>
<polyline class="st15" points="124.7514114,98.6485825 122.2120438,93.5057602 119.6726761,98.6485825 122.2120438,103.7914658 
	124.7514114,98.6485825 "/>
<polygon class="st1" points="124.7514114,98.6485825 122.2120438,93.5057602 119.6726761,98.6485825 122.2120438,103.7914658 "/>
<polyline class="st1" points="125.259285,313.6200256 122.2120438,321.3343811 119.1647873,313.6200256 "/>
<text transform="matrix(0.85 0 0 1 36.8936157 315.6697083)"><tspan x="0" y="0" class="st2 st4">+</tspan><tspan x="4.627183" y="0" class="st2 st4">r</tspan><tspan x="7.1920953" y="0" class="st2 st4">oo</tspan><tspan x="15.4147511" y="0" class="st2 st4">m</tspan><tspan x="21.0730686" y="0" class="st2 st4">D</tspan><tspan x="25.7071457" y="0" class="st2 st4">a</tspan><tspan x="29.302618" y="0" class="st2 st4">t</tspan><tspan x="31.3608685" y="0" class="st2 st4">a</tspan><tspan x="34.9563408" y="0" class="st2 st4">Q</tspan><tspan x="40.0970802" y="0" class="st2 st4">u</tspan><tspan x="43.7000237" y="0" class="st2 st4">a</tspan><tspan x="47.2960701" y="0" class="st2 st4">li</tspan><tspan x="50.3871765" y="0" class="st2 st4">t</tspan><tspan x="52.4454269" y="0" class="st2 st4">y</tspan><tspan x="55.5336609" y="0" class="st2 st4">A</tspan><tspan x="59.6518822" y="0" class="st2 st4">tt</tspan><tspan x="63.7683792" y="0" class="st2 st4">r</tspan><tspan x="66.3332901" y="0" class="st2 st4">i</tspan><tspan x="67.8791351" y="0" class="st2 st4">b</tspan><tspan x="71.9898911" y="0" class="st2 st4">u</tspan><tspan x="75.5934067" y="0" class="st2 st4">t</tspan><tspan x="77.6516495" y="0" class="st2 st4">e</tspan></text>
<text transform="matrix(0.85 0 0 1 96.8154907 300.2556458)"><tspan x="0" y="0" class="st2 st4">0</tspan><tspan x="3.60409" y="0" class="st2 st4">..</tspan><tspan x="6.676815" y="0" class="st2 st4">1</tspan></text>
<text transform="matrix(0.85 0 0 1 219.7217407 47.7322044)"><tspan x="0" y="0" class="st2 st4">+</tspan><tspan x="4.627183" y="0" class="st2 st4">i</tspan><tspan x="6.1724491" y="0" class="st2 st4">f</tspan><tspan x="8.2318468" y="0" class="st2 st4">c</tspan><tspan x="11.3200827" y="0" class="st2 st4">R</tspan><tspan x="15.432559" y="0" class="st2 st4">oo</tspan><tspan x="23.6552162" y="0" class="st2 st4">m</tspan><tspan x="29.3135338" y="0" class="st2 st4">A</tspan><tspan x="33.4323273" y="0" class="st2 st4">tt</tspan><tspan x="37.5488281" y="0" class="st2 st4">r</tspan><tspan x="40.113739" y="0" class="st2 st4">i</tspan><tspan x="41.6595802" y="0" class="st2 st4">b</tspan><tspan x="45.7703323" y="0" class="st2 st4">u</tspan><tspan x="49.3732758" y="0" class="st2 st4">t</tspan><tspan x="51.4315262" y="0" class="st2 st4">e</tspan></text>
<text transform="matrix(0.85 0 0 1 262.3858032 64.7087631)"><tspan x="0" y="0" class="st2 st4">0</tspan><tspan x="3.60409" y="0" class="st2 st4">..</tspan><tspan x="6.676815" y="0" class="st2 st4">*</tspan></text>
</svg>
