<?xml version="1.0" encoding="utf-8"?>
<!-- Generator: Adobe Illustrator 27.4.1, SVG Export Plug-In . SVG Version: 6.00 Build 0)  -->
<svg version="1.1" id="レイヤー_1" xmlns="http://www.w3.org/2000/svg" xmlns:xlink="http://www.w3.org/1999/xlink" x="0px"
	 y="0px" viewBox="0 0 844.3 649.4" style="enable-background:new 0 0 844.3 649.4;" xml:space="preserve">
<style type="text/css">
	.st0{fill-rule:evenodd;clip-rule:evenodd;fill:#CFD1D8;}
	.st1{fill-rule:evenodd;clip-rule:evenodd;fill:#FFCCFF;}
	.st2{fill:none;stroke:#000000;stroke-width:1.7322;stroke-linecap:round;stroke-linejoin:round;stroke-miterlimit:10;}
	.st3{font-family:'Calibri';}
	.st4{font-size:9.5276px;}
	.st5{font-family:'Calibri-BoldItalic';}
	.st6{font-family:'Calibri-Bold';}
	.st7{fill-rule:evenodd;clip-rule:evenodd;fill:#F0F0F0;}
	.st8{fill:none;stroke:#D7D7D7;stroke-width:0.8662;stroke-linecap:square;stroke-miterlimit:10;}
	.st9{fill-rule:evenodd;clip-rule:evenodd;fill:#CCFFCC;}
	.st10{fill:none;stroke:#000000;stroke-width:0.8662;stroke-linecap:square;stroke-miterlimit:10;}
	.st11{fill:#003060;}
	.st12{font-family:'YuGothicUI-Regular';}
	.st13{font-size:11.2598px;}
	.st14{fill-rule:evenodd;clip-rule:evenodd;fill:#FFFFCC;}
	.st15{font-family:'MS-PGothic';}
	.st16{font-size:13.8582px;}
	.st17{fill:none;stroke:#003060;stroke-width:0.396;stroke-miterlimit:10;}
	.st18{font-size:11.8726px;}
	.st19{font-family:'YuGothicUI-Bold';}
	.st20{fill:none;stroke:#000000;stroke-width:1.7322;stroke-linecap:round;stroke-linejoin:bevel;stroke-miterlimit:10;}
	.st21{fill-rule:evenodd;clip-rule:evenodd;}
</style>
<path class="st0" d="M726,366.3c1.2,0,2.2,1,2.2,2.2l0,0v64.1l0,0c0,1.2-1,2.2-2.2,2.2l0,0l0,0H577.6l0,0c-1.2,0-2.2-1-2.2-2.2l0,0
	v-64.1c0-1.2,1-2.2,2.2-2.2l0,0H726L726,366.3L726,366.3z"/>
<path class="st1" d="M723.4,363.7c1.2,0,2.2,1,2.2,2.2l0,0V430l0,0c0,1.2-1,2.2-2.2,2.2l0,0l0,0H574.9l0,0c-1.2,0-2.2-1-2.2-2.2l0,0
	v-64.1c0-1.2,1-2.2,2.2-2.2l0,0H723.4L723.4,363.7L723.4,363.7z"/>
<path class="st2" d="M723.4,363.7c1.2,0,2.2,1,2.2,2.2l0,0V430l0,0c0,1.2-1,2.2-2.2,2.2l0,0l0,0H574.9l0,0c-1.2,0-2.2-1-2.2-2.2l0,0
	v-64.1c0-1.2,1-2.2,2.2-2.2l0,0H723.4L723.4,363.7L723.4,363.7z"/>
<text transform="matrix(0.85 0 0 1 624.8555 377.5314)" class="st3 st4">«DataType»</text>
<text transform="matrix(0.85 0 0 1 614.4492 388.7814)" class="st5 st4">u</text>
<text transform="matrix(0.85 0 0 1 619.6562 388.7814)" class="st5 st4">r</text>
<text transform="matrix(0.85 0 0 1 623.1211 388.7814)" class="st5 st4">o</text>
<text transform="matrix(0.85 0 0 1 628.332 388.7814)" class="st5 st4">:</text>
<text transform="matrix(0.85 0 0 1 630.9375 388.7814)" class="st5 st4">:</text>
<text transform="matrix(0.85 0 0 1 633.543 388.7814)" class="st5 st4">D</text>
<text transform="matrix(0.85 0 0 1 639.6094 388.7814)" class="st5 st4">m</text>
<text transform="matrix(0.85 0 0 1 647.418 388.7814)" class="st5 st4">A</text>
<text transform="matrix(0.85 0 0 1 653.4922 388.7814)" class="st5 st4">t</text>
<text transform="matrix(0.85 0 0 1 659.9102 388.7814)" class="st5 st4">r</text>
<text transform="matrix(0.85 0 0 1 663.377 388.7814)" class="st5 st4">i</text>
<text transform="matrix(0.85 0 0 1 665.9805 388.7814)" class="st5 st4">b</text>
<text transform="matrix(0.85 0 0 1 671.1836 388.7814)" class="st5 st4">u</text>
<text transform="matrix(0.85 0 0 1 676.3809 388.7814)" class="st5 st4">t</text>
<text transform="matrix(0.85 0 0 1 679.8535 388.7814)" class="st5 st4">e</text>
<line class="st2" x1="572.8" y1="395.7" x2="725.6" y2="395.7"/>
<text transform="matrix(0.85 0 0 1 577.1055 407.843)" class="st3 st4">+ dmCode: gml::CodeType</text>
<text transform="matrix(0.85 0 0 1 577.1055 419.093)" class="st3 st4">+ meshCode: gml::CodeType [0..1]</text>
<path class="st0" d="M817.1,271c1.2,0,2.2,1,2.2,2.2l0,0v64.1l0,0c0,1.2-1,2.2-2.2,2.2l0,0l0,0h-118l0,0c-1.2,0-2.2-1-2.2-2.2l0,0
	v-64.1c0-1.2,1-2.2,2.2-2.2l0,0H817.1L817.1,271L817.1,271z"/>
<path class="st1" d="M814.5,268.4c1.2,0,2.2,1,2.2,2.2l0,0v64.1l0,0c0,1.2-1,2.2-2.2,2.2l0,0l0,0h-118l0,0c-1.2,0-2.2-1-2.2-2.2l0,0
	v-64.1c0-1.2,1-2.2,2.2-2.2l0,0H814.5L814.5,268.4L814.5,268.4z"/>
<path class="st2" d="M814.5,268.4c1.2,0,2.2,1,2.2,2.2l0,0v64.1l0,0c0,1.2-1,2.2-2.2,2.2l0,0l0,0h-118l0,0c-1.2,0-2.2-1-2.2-2.2l0,0
	v-64.1c0-1.2,1-2.2,2.2-2.2l0,0H814.5L814.5,268.4L814.5,268.4z"/>
<text transform="matrix(0.85 0 0 1 730.7617 282.2658)" class="st3 st4">«DataType»</text>
<text transform="matrix(0.85 0 0 1 712.543 293.5158)" class="st5 st4">u</text>
<text transform="matrix(0.85 0 0 1 717.75 293.5158)" class="st5 st4">r</text>
<text transform="matrix(0.85 0 0 1 721.2148 293.5158)" class="st5 st4">o</text>
<text transform="matrix(0.85 0 0 1 726.4258 293.5158)" class="st5 st4">:</text>
<text transform="matrix(0.85 0 0 1 729.0312 293.5158)" class="st5 st4">:</text>
<text transform="matrix(0.85 0 0 1 731.6367 293.5158)" class="st5 st4">F</text>
<text transform="matrix(0.85 0 0 1 735.9902 293.5158)" class="st5 st4">a</text>
<text transform="matrix(0.85 0 0 1 741.1934 293.5158)" class="st5 st4">c</text>
<text transform="matrix(0.85 0 0 1 745.5234 293.5158)" class="st5 st4">i</text>
<text transform="matrix(0.85 0 0 1 748.1289 293.5158)" class="st5 st4">l</text>
<text transform="matrix(0.85 0 0 1 750.7305 293.5158)" class="st5 st4">i</text>
<text transform="matrix(0.85 0 0 1 753.334 293.5158)" class="st5 st4">t</text>
<text transform="matrix(0.85 0 0 1 756.7988 293.5158)" class="st5 st4">y</text>
<text transform="matrix(0.85 0 0 1 761.1445 293.5158)" class="st5 st4">A</text>
<text transform="matrix(0.85 0 0 1 767.2188 293.5158)" class="st5 st4">tt</text>
<text transform="matrix(0.85 0 0 1 773.6367 293.5158)" class="st5 st4">r</text>
<text transform="matrix(0.85 0 0 1 777.1035 293.5158)" class="st5 st4">i</text>
<text transform="matrix(0.85 0 0 1 779.707 293.5158)" class="st5 st4">b</text>
<text transform="matrix(0.85 0 0 1 784.9102 293.5158)" class="st5 st4">u</text>
<text transform="matrix(0.85 0 0 1 790.1055 293.5158)" class="st5 st4">t</text>
<text transform="matrix(0.85 0 0 1 793.5801 293.5158)" class="st5 st4">e</text>
<line class="st2" x1="694.3" y1="300.4" x2="816.7" y2="300.4"/>
<text transform="matrix(0.85 0 0 1 698.6523 312.5783)" class="st3 st4">+ facilityId: xs::string [0..1]</text>
<path class="st0" d="M594,262.3c1.2,0,2.2,1,2.2,2.2l0,0v64.1l0,0c0,1.2-1,2.2-2.2,2.2l0,0l0,0H456l0,0c-1.2,0-2.2-1-2.2-2.2l0,0
	v-64.1c0-1.2,1-2.2,2.2-2.2l0,0H594L594,262.3L594,262.3z"/>
<path class="st1" d="M591.4,259.7c1.2,0,2.2,1,2.2,2.2l0,0V326l0,0c0,1.2-1,2.2-2.2,2.2l0,0l0,0h-138l0,0c-1.2,0-2.2-1-2.2-2.2l0,0
	v-64.1c0-1.2,1-2.2,2.2-2.2l0,0L591.4,259.7L591.4,259.7L591.4,259.7z"/>
<path class="st2" d="M591.4,259.7c1.2,0,2.2,1,2.2,2.2l0,0V326l0,0c0,1.2-1,2.2-2.2,2.2l0,0l0,0h-138l0,0c-1.2,0-2.2-1-2.2-2.2l0,0
	v-64.1c0-1.2,1-2.2,2.2-2.2l0,0L591.4,259.7L591.4,259.7L591.4,259.7z"/>
<text transform="matrix(0.85 0 0 1 498.1211 273.5783)" class="st3 st4">«DataType»</text>
<text transform="matrix(0.85 0 0 1 470.3242 284.8283)" class="st6 st4">uro::FacilityTypeAttribute</text>
<line class="st2" x1="451.2" y1="291.8" x2="593.6" y2="291.8"/>
<text transform="matrix(0.85 0 0 1 455.5898 303.8908)" class="st3 st4">+ class: gml::CodeType [0..1]</text>
<text transform="matrix(0.85 0 0 1 455.5898 315.1408)" class="st3 st4">+ functon: gml::CodeType [0..*]</text>
<path class="st0" d="M348.4,262.3c1.2,0,2.2,1,2.2,2.2l0,0V423l0,0c0,1.2-1,2.2-2.2,2.2l0,0l0,0H195.6l0,0c-1.2,0-2.2-1-2.2-2.2l0,0
	V264.5c0-1.2,1-2.2,2.2-2.2l0,0H348.4L348.4,262.3L348.4,262.3z"/>
<path class="st1" d="M345.8,259.7c1.2,0,2.2,1,2.2,2.2l0,0v158.5l0,0c0,1.2-1,2.2-2.2,2.2l0,0l0,0H193l0,0c-1.2,0-2.2-1-2.2-2.2l0,0
	V261.9c0-1.2,1-2.2,2.2-2.2l0,0L345.8,259.7L345.8,259.7L345.8,259.7z"/>
<path class="st2" d="M345.8,259.7c1.2,0,2.2,1,2.2,2.2l0,0v158.5l0,0c0,1.2-1,2.2-2.2,2.2l0,0l0,0H193l0,0c-1.2,0-2.2-1-2.2-2.2l0,0
	V261.9c0-1.2,1-2.2,2.2-2.2l0,0L345.8,259.7L345.8,259.7L345.8,259.7z"/>
<text transform="matrix(0.85 0 0 1 244.6362 273.5783)" class="st3 st4">«DataType»</text>
<text transform="matrix(0.85 0 0 1 222.9331 284.8283)" class="st6 st4">u</text>
<text transform="matrix(0.85 0 0 1 228.1343 284.8283)" class="st6 st4">r</text>
<text transform="matrix(0.85 0 0 1 231.605 284.8283)" class="st6 st4">o</text>
<text transform="matrix(0.85 0 0 1 236.8149 284.8283)" class="st6 st4">:</text>
<text transform="matrix(0.85 0 0 1 239.4204 284.8283)" class="st6 st4">:</text>
<text transform="matrix(0.85 0 0 1 242.0259 284.8283)" class="st6 st4">F</text>
<text transform="matrix(0.85 0 0 1 246.3804 284.8283)" class="st6 st4">a</text>
<text transform="matrix(0.85 0 0 1 250.7222 284.8283)" class="st6 st4">c</text>
<text transform="matrix(0.85 0 0 1 255.062 284.8283)" class="st6 st4">i</text>
<text transform="matrix(0.85 0 0 1 257.6646 284.8283)" class="st6 st4">l</text>
<text transform="matrix(0.85 0 0 1 260.2681 284.8283)" class="st6 st4">i</text>
<text transform="matrix(0.85 0 0 1 262.8716 284.8283)" class="st6 st4">t</text>
<text transform="matrix(0.85 0 0 1 266.3345 284.8283)" class="st6 st4">y</text>
<text transform="matrix(0.85 0 0 1 270.6763 284.8283)" class="st6 st4">I</text>
<text transform="matrix(0.85 0 0 1 273.2788 284.8283)" class="st6 st4">d</text>
<text transform="matrix(0.85 0 0 1 278.48 284.8283)" class="st6 st4">A</text>
<text transform="matrix(0.85 0 0 1 284.5522 284.8283)" class="st6 st4">tt</text>
<text transform="matrix(0.85 0 0 1 290.9722 284.8283)" class="st6 st4">r</text>
<text transform="matrix(0.85 0 0 1 294.4429 284.8283)" class="st6 st4">i</text>
<text transform="matrix(0.85 0 0 1 297.0464 284.8283)" class="st6 st4">b</text>
<text transform="matrix(0.85 0 0 1 302.2466 284.8283)" class="st6 st4">u</text>
<text transform="matrix(0.85 0 0 1 307.4478 284.8283)" class="st6 st4">t</text>
<text transform="matrix(0.85 0 0 1 310.9106 284.8283)" class="st6 st4">e</text>
<line class="st2" x1="190.8" y1="291.8" x2="347.9" y2="291.8"/>
<text transform="matrix(0.85 0 0 1 195.1519 303.8908)" class="st3 st4">+ id: xs::string [0..1]</text>
<text transform="matrix(0.85 0 0 1 195.1519 315.1408)" class="st3 st4">+ partId: xs::string [0..1]</text>
<text transform="matrix(0.85 0 0 1 195.1519 326.4221)" class="st3 st4">+ branchId: xs::string [0..1]</text>
<text transform="matrix(0.85 0 0 1 195.1519 337.6877)" class="st3 st4">+ prefecture: gml::CodeType [0..*]</text>
<text transform="matrix(0.85 0 0 1 195.1519 348.9377)" class="st3 st4">+ city: gml::CodeType [0..*]</text>
<text transform="matrix(0.85 0 0 1 195.1519 360.1877)" class="st3 st4">+ route: xs::string [0..1]</text>
<text transform="matrix(0.85 0 0 1 195.1519 371.4533)" class="st3 st4">+ startPost: xs::string [0..1]</text>
<text transform="matrix(0.85 0 0 1 195.1519 382.7346)" class="st3 st4">+ endPost: xs::string [0..1]</text>
<text transform="matrix(0.85 0 0 1 195.1519 393.9836)" class="st3 st4">+ startLat: xs::double [0..1]</text>
<text transform="matrix(0.85 0 0 1 195.1519 405.2336)" class="st3 st4">+ startLong: xs::double [0..1]</text>
<text transform="matrix(0.85 0 0 1 195.1519 416.4992)" class="st3 st4">+ alternatveName: xs::string [0..*]</text>
<path class="st7" d="M749.9,34.5c1.4,0,2.6,1.2,2.6,2.6l0,0V135l0,0c0,1.4-1.2,2.6-2.6,2.6l0,0l0,0H592.7l0,0
	c-1.4,0-2.6-1.2-2.6-2.6V37.1c0-1.4,1.2-2.6,2.6-2.6l0,0H749.9L749.9,34.5L749.9,34.5z"/>
<path class="st8" d="M749.9,34.5c1.4,0,2.6,1.2,2.6,2.6l0,0V135l0,0c0,1.4-1.2,2.6-2.6,2.6l0,0l0,0H592.7l0,0
	c-1.4,0-2.6-1.2-2.6-2.6V37.1c0-1.4,1.2-2.6,2.6-2.6l0,0H749.9L749.9,34.5L749.9,34.5z"/>
<path class="st9" d="M610.5,60.5c1.2,0,2.2,1,2.2,2.2l0,0v9.5l0,0c0,1.2-1,2.2-2.2,2.2l0,0l0,0H601l0,0c-1.2,0-2.2-1-2.2-2.2l0,0
	v-9.5c0-1.2,1-2.2,2.2-2.2l0,0L610.5,60.5L610.5,60.5L610.5,60.5z"/>
<path class="st10" d="M610.5,60.5c1.2,0,2.2,1,2.2,2.2l0,0v9.5l0,0c0,1.2-1,2.2-2.2,2.2l0,0l0,0H601l0,0c-1.2,0-2.2-1-2.2-2.2l0,0
	v-9.5c0-1.2,1-2.2,2.2-2.2l0,0L610.5,60.5L610.5,60.5L610.5,60.5z"/>
<text transform="matrix(0.85 0 0 1 617.918 72.6408)" class="st11 st12 st13">GMLに定義されたクラス</text>
<path class="st14" d="M610.5,77c1.2,0,2.2,1,2.2,2.2l0,0v9.5l0,0c0,1.2-1,2.2-2.2,2.2l0,0l0,0H601l0,0c-1.2,0-2.2-1-2.2-2.2l0,0
	v-9.5c0-1.2,1-2.2,2.2-2.2l0,0H610.5L610.5,77L610.5,77z"/>
<path class="st10" d="M610.5,77c1.2,0,2.2,1,2.2,2.2l0,0v9.5l0,0c0,1.2-1,2.2-2.2,2.2l0,0l0,0H601l0,0c-1.2,0-2.2-1-2.2-2.2l0,0
	v-9.5c0-1.2,1-2.2,2.2-2.2l0,0H610.5L610.5,77L610.5,77z"/>
<text transform="matrix(0.85 0 0 1 617.918 89.0939)" class="st11 st12 st13">CityGMLに定義されたクラス</text>
<path class="st1" d="M610.5,93.4c1.2,0,2.2,1,2.2,2.2l0,0v9.5l0,0c0,1.2-1,2.2-2.2,2.2l0,0l0,0H601l0,0c-1.2,0-2.2-1-2.2-2.2l0,0
	v-9.5c0-1.2,1-2.2,2.2-2.2l0,0H610.5L610.5,93.4L610.5,93.4z"/>
<path class="st10" d="M610.5,93.4c1.2,0,2.2,1,2.2,2.2l0,0v9.5l0,0c0,1.2-1,2.2-2.2,2.2l0,0l0,0H601l0,0c-1.2,0-2.2-1-2.2-2.2l0,0
	v-9.5c0-1.2,1-2.2,2.2-2.2l0,0H610.5L610.5,93.4L610.5,93.4z"/>
<text transform="matrix(0.85 0 0 1 617.918 105.5471)" class="st11 st12 st13">i-URに定義されたクラス</text>
<text transform="matrix(0.85 0 0 1 656.9805 52.7346)" class="st11 st15 st16">凡例</text>
<text transform="matrix(0.85 0 0 1 656.9805 52.7346)" class="st17 st15 st16">凡例</text>
<path class="st0" d="M547.2,28.5c1.2,0,2.2,1,2.2,2.2l0,0V138l0,0c0,1.2-1,2.2-2.2,2.2l0,0l0,0H325.8l0,0c-1.2,0-2.2-1-2.2-2.2l0,0
	V30.6c0-1.2,1-2.2,2.2-2.2l0,0h221.4V28.5L547.2,28.5z"/>
<path class="st14" d="M544.6,25.9c1.2,0,2.2,1,2.2,2.2l0,0v107.4l0,0c0,1.2-1,2.2-2.2,2.2l0,0l0,0H323.2l0,0c-1.2,0-2.2-1-2.2-2.2
	l0,0V28c0-1.2,1-2.2,2.2-2.2l0,0L544.6,25.9L544.6,25.9L544.6,25.9z"/>
<path class="st2" d="M544.6,25.9c1.2,0,2.2,1,2.2,2.2l0,0v107.4l0,0c0,1.2-1,2.2-2.2,2.2l0,0l0,0H323.2l0,0c-1.2,0-2.2-1-2.2-2.2
	l0,0V28c0-1.2,1-2.2,2.2-2.2l0,0L544.6,25.9L544.6,25.9L544.6,25.9z"/>
<text transform="matrix(0.85 0 -0.3169 0.9485 478.0115 40.5916)" class="st12 st18">_CityObject</text>
<text transform="matrix(0.85 0 0 1 398.2769 60.5002)" class="st12 st13">«featureType»</text>
<text transform="matrix(0.85 0 0 1 389.605 75.2346)" class="st19 st13">frn::CityFurniture</text>
<line class="st2" x1="321" y1="82.2" x2="546.7" y2="82.2"/>
<text transform="matrix(0.85 0 0 1 325.355 97.7658)" class="st12 st13">+ class: gml::CodeType [0..1]</text>
<text transform="matrix(0.85 0 0 1 325.355 112.4689)" class="st12 st13">+ function: gml::CodeType [0..*]</text>
<text transform="matrix(0.85 0 0 1 325.355 127.2033)" class="st12 st13">+ usage: gml::CodeType [0..*]</text>
<path class="st0" d="M252,522.2c1.2,0,2.2,1,2.2,2.2l0,0v90.1l0,0c0,1.2-1,2.2-2.2,2.2l0,0l0,0H30.6l0,0c-1.2,0-2.2-1-2.2-2.2l0,0
	v-90.1c0-1.2,1-2.2,2.2-2.2l0,0H252L252,522.2L252,522.2z"/>
<path class="st1" d="M249.4,519.6c1.2,0,2.2,1,2.2,2.2l0,0v90.1l0,0c0,1.2-1,2.2-2.2,2.2l0,0l0,0H28l0,0c-1.2,0-2.2-1-2.2-2.2l0,0
	v-90.1c0-1.2,1-2.2,2.2-2.2l0,0H249.4L249.4,519.6L249.4,519.6z"/>
<path class="st2" d="M249.4,519.6c1.2,0,2.2,1,2.2,2.2l0,0v90.1l0,0c0,1.2-1,2.2-2.2,2.2l0,0l0,0H28l0,0c-1.2,0-2.2-1-2.2-2.2l0,0
	v-90.1c0-1.2,1-2.2,2.2-2.2l0,0H249.4L249.4,519.6L249.4,519.6z"/>
<text transform="matrix(0.85 0 0 1 109.1987 536.8898)" class="st12 st13">«DataType»</text>
<text transform="matrix(0.85 0 0 1 54.5112 551.6086)" class="st19 st13">uro::CityFurnitureDetailAttribute</text>
<line class="st2" x1="25.9" y1="558.5" x2="251.6" y2="558.5"/>
<text transform="matrix(0.85 0 0 1 30.1987 574.1398)" class="st12 st13">+ facilityType: xs::string [0..1]</text>
<text transform="matrix(0.85 0 0 1 30.1987 588.8586)" class="st12 st13">+ description: xs::string [0..1]</text>
<path class="st0" d="M550.6,487.5c1.2,0,2.2,1,2.2,2.2l0,0v132.5l0,0c0,1.2-1,2.2-2.2,2.2l0,0l0,0H308.4l0,0c-1.2,0-2.2-1-2.2-2.2
	l0,0V489.7c0-1.2,1-2.2,2.2-2.2l0,0H550.6L550.6,487.5L550.6,487.5z"/>
<path class="st1" d="M548,484.9c1.2,0,2.2,1,2.2,2.2l0,0v132.5l0,0c0,1.2-1,2.2-2.2,2.2l0,0l0,0H305.8l0,0c-1.2,0-2.2-1-2.2-2.2l0,0
	V487.1c0-1.2,1-2.2,2.2-2.2l0,0H548L548,484.9L548,484.9z"/>
<path class="st2" d="M548,484.9c1.2,0,2.2,1,2.2,2.2l0,0v132.5l0,0c0,1.2-1,2.2-2.2,2.2l0,0l0,0H305.8l0,0c-1.2,0-2.2-1-2.2-2.2l0,0
	V487.1c0-1.2,1-2.2,2.2-2.2l0,0H548L548,484.9L548,484.9z"/>
<text transform="matrix(0.85 0 0 1 397.4175 502.2336)" class="st12 st13">«DataType»</text>
<text transform="matrix(0.85 0 0 1 326.23 516.968)" class="st19 st13">uro::CityFurnitureDataQualityAttribute</text>
<line class="st2" x1="303.7" y1="523.9" x2="550.2" y2="523.9"/>
<text transform="matrix(0.85 0 0 1 307.9956 539.4836)" class="st12 st13">+ srcScale: gml::CodeType [0..*]</text>
<text transform="matrix(0.85 0 0 1 307.9956 554.2023)" class="st12 st13">+ geometrySrcDesc: gml::CodeType [0..*]</text>
<text transform="matrix(0.85 0 0 1 307.9956 568.9367)" class="st12 st13">+ thematicSrcDesc: gml::CodeType [0..*]</text>
<text transform="matrix(0.85 0 0 1 307.9956 583.6711)" class="st12 st13">+ appearanceSrcDesc: gml::CodeType [0..*]</text>
<text transform="matrix(0.85 0 0 1 307.9956 598.3898)" class="st12 st13">+ lodType: CityFurnitureLODType [0..1]</text>
<path class="st0" d="M763.3,530.8c1.2,0,2.2,1,2.2,2.2l0,0v64.1l0,0c0,1.2-1,2.2-2.2,2.2l0,0l0,0H594.9l0,0c-1.2,0-2.2-1-2.2-2.2
	l0,0V533c0-1.2,1-2.2,2.2-2.2l0,0H763.3L763.3,530.8L763.3,530.8z"/>
<path class="st1" d="M760.7,528.2c1.2,0,2.2,1,2.2,2.2l0,0v64.1l0,0c0,1.2-1,2.2-2.2,2.2l0,0l0,0H592.3l0,0c-1.2,0-2.2-1-2.2-2.2
	l0,0v-64.1c0-1.2,1-2.2,2.2-2.2l0,0H760.7L760.7,528.2L760.7,528.2z"/>
<path class="st2" d="M760.7,528.2c1.2,0,2.2,1,2.2,2.2l0,0v64.1l0,0c0,1.2-1,2.2-2.2,2.2l0,0l0,0H592.3l0,0c-1.2,0-2.2-1-2.2-2.2
	l0,0v-64.1c0-1.2,1-2.2,2.2-2.2l0,0H760.7L760.7,528.2L760.7,528.2z"/>
<text transform="matrix(0.85 0 0 1 638.7461 545.5461)" class="st12 st13">«Enumeration»</text>
<text transform="matrix(0.85 0 0 1 607.4961 560.2648)" class="st19 st13">uro::CityFurnitureLODType</text>
<line class="st20" x1="649.2" y1="362.8" x2="649.2" y2="181.8"/>
<line class="st20" x1="433.9" y1="181.8" x2="433.9" y2="139.3"/>
<polyline class="st21" points="438.2,148 433.9,139.3 429.5,148 433.9,156.7 438.2,148 "/>
<polyline class="st20" points="438.2,148 433.9,139.3 429.5,148 433.9,156.7 "/>
<path class="st20" d="M649.2,362.8l5.2-13 M649.2,362.8l-5.2-13"/>
<line class="st20" x1="755.9" y1="267.5" x2="755.9" y2="181.8"/>
<line class="st20" x1="755.9" y1="181.8" x2="433.9" y2="181.8"/>
<polyline class="st21" points="438.2,148 433.9,139.3 429.5,148 433.9,156.7 438.2,148 "/>
<polyline class="st20" points="438.2,148 433.9,139.3 429.5,148 433.9,156.7 "/>
<path class="st20" d="M755.9,267.5l5.2-13 M755.9,267.5l-5.2-13"/>
<line class="st20" x1="556.3" y1="258.9" x2="556.3" y2="181.8"/>
<polyline class="st21" points="438.2,148 433.9,139.3 429.5,148 433.9,156.7 438.2,148 "/>
<polyline class="st20" points="438.2,148 433.9,139.3 429.5,148 433.9,156.7 "/>
<path class="st20" d="M556.3,258.9l5.2-13 M556.3,258.9l-5.2-13"/>
<line class="st20" x1="268.1" y1="258.9" x2="268.1" y2="181.8"/>
<polyline class="st21" points="438.2,148 433.9,139.3 429.5,148 433.9,156.7 438.2,148 "/>
<polyline class="st20" points="438.2,148 433.9,139.3 429.5,148 433.9,156.7 "/>
<path class="st20" d="M268.1,258.9l5.2-13 M268.1,258.9l-5.2-13"/>
<line class="st20" x1="137.9" y1="518.7" x2="137.9" y2="181.8"/>
<line class="st20" x1="137.9" y1="181.8" x2="433.9" y2="181.8"/>
<polyline class="st21" points="438.2,148 433.9,139.3 429.5,148 433.9,156.7 438.2,148 "/>
<polyline class="st20" points="438.2,148 433.9,139.3 429.5,148 433.9,156.7 "/>
<path class="st20" d="M137.9,518.7l5.2-13 M137.9,518.7l-5.2-13"/>
<line class="st20" x1="426.9" y1="484.1" x2="426.9" y2="181.8"/>
<polyline class="st21" points="438.2,148 433.9,139.3 429.5,148 433.9,156.7 438.2,148 "/>
<polyline class="st20" points="438.2,148 433.9,139.3 429.5,148 433.9,156.7 "/>
<path class="st20" d="M426.9,484.1l5.2-13 M426.9,484.1l-5.2-13"/>
<text transform="matrix(0.85 0 0 1 669.9961 244.1408)" class="st3 st4">+frnFacilityAttribute</text>
<text transform="matrix(0.85 0 0 1 768.9648 244.1408)" class="st3 st4">0..*</text>
<text transform="matrix(0.85 0 0 1 446.043 464.9836)" class="st3 st4">+cityFurnitureDataQualityAttribute</text>
<text transform="matrix(0.85 0 0 1 398.2769 468.468)" class="st3 st4">0..1</text>
<text transform="matrix(0.85 0 0 1 444.292 216.4221)" class="st3 st4">+frnFacilityTypeAttribute</text>
<text transform="matrix(0.85 0 0 1 533.7148 236.3439)" class="st3 st4">0..*</text>
<text transform="matrix(0.85 0 0 1 563.2305 347.2189)" class="st3 st4">+frnDmAttribute</text>
<text transform="matrix(0.85 0 0 1 664.793 355.8752)" class="st3 st4">0..*</text>
<text transform="matrix(0.85 0 0 1 148.2612 502.2648)" class="st3 st4">+cityFurnitureDetailAttribute</text>
<text transform="matrix(0.85 0 0 1 103.1206 503.1086)" class="st3 st4">0..*</text>
<text transform="matrix(0.85 0 0 1 171.7144 229.4064)" class="st3 st4">+frnFacilityIdAttribute</text>
<text transform="matrix(0.85 0 0 1 276.7456 238.9377)" class="st3 st4">0..1</text>
</svg>
