<?xml version="1.0" encoding="utf-8"?>
<!-- Generator: Adobe Illustrator 27.5.0, SVG Export Plug-In . SVG Version: 6.00 Build 0)  -->
<svg version="1.1" id="レイヤー_1" xmlns="http://www.w3.org/2000/svg" xmlns:xlink="http://www.w3.org/1999/xlink" x="0px"
	 y="0px" viewBox="0 0 473.1914978 413.4468079" style="enable-background:new 0 0 473.1914978 413.4468079;" xml:space="preserve">
<style type="text/css">
	.st0{fill-rule:evenodd;clip-rule:evenodd;fill:#FFCCFF;}
	.st1{fill:none;stroke:#000000;stroke-width:1.0285715;stroke-linecap:round;stroke-linejoin:bevel;stroke-miterlimit:10;}
	.st2{font-family:'YuGothicUI-Regular';}
	.st3{font-size:6.6857147px;}
	.st4{stroke:#000000;stroke-width:0.1910204;stroke-miterlimit:10;}
	.st5{font-size:7.0386257px;}
	.st6{font-family:'YuGothicUI-Bold';}
	.st7{fill-rule:evenodd;clip-rule:evenodd;fill:#F0F0F0;}
	.st8{fill:none;stroke:#D7D7D7;stroke-width:0.5142857;stroke-linecap:square;stroke-miterlimit:10;}
	.st9{fill-rule:evenodd;clip-rule:evenodd;fill:#A0FFC0;}
	.st10{fill:none;stroke:#000000;stroke-width:0.5142857;stroke-linecap:square;stroke-miterlimit:10;}
	.st11{fill:#003060;}
	.st12{fill-rule:evenodd;clip-rule:evenodd;fill:#FFFFCC;}
	.st13{font-size:8.2285719px;}
	.st14{fill-rule:evenodd;clip-rule:evenodd;}
</style>
<polygon class="st0" points="269.8895874,264.0948792 355.2124329,264.0948792 355.2124329,222.9519196 269.8895874,222.9519196 
	269.8895874,264.0948792 "/>
<polygon class="st1" points="269.8895874,264.0948792 355.2124329,264.0948792 355.2124329,222.9519196 269.8895874,222.9519196 
	269.8895874,264.0948792 "/>
<text transform="matrix(0.85 0 0 1 294.7747192 233.2332306)"><tspan x="0" y="0" class="st2 st3">«</tspan><tspan x="3.5960476" y="0" class="st2 st3">D</tspan><tspan x="8.2306986" y="0" class="st2 st3">a</tspan><tspan x="11.8255968" y="0" class="st2 st3">t</tspan><tspan x="13.8844204" y="0" class="st2 st3">a</tspan><tspan x="17.4793186" y="0" class="st2 st3">T</tspan><tspan x="21.0765152" y="0" class="st2 st3">y</tspan><tspan x="24.1636028" y="0" class="st2 st3">p</tspan><tspan x="28.2755051" y="0" class="st2 st3">e</tspan><tspan x="31.8715515" y="0" class="st2 st3">»</tspan></text>
<text transform="matrix(0.85 0 -0.3126727 0.9498609 281.0733032 241.9832153)"><tspan x="0" y="0" class="st4 st2 st5">u</tspan><tspan x="4.3278952" y="0" class="st4 st2 st5">r</tspan><tspan x="7.0289521" y="0" class="st4 st2 st5">o</tspan><tspan x="11.3568468" y="0" class="st4 st2 st5">::</tspan><tspan x="14.5921412" y="0" class="st4 st2 st5">F</tspan><tspan x="18.3800545" y="0" class="st4 st2 st5">a</tspan><tspan x="22.1656704" y="0" class="st4 st2 st5">c</tspan><tspan x="25.4170494" y="0" class="st4 st2 st5">ili</tspan><tspan x="30.2987118" y="0" class="st4 st2 st5">t</tspan><tspan x="33.0009193" y="0" class="st4 st2 st5">y</tspan><tspan x="36.7865334" y="0" class="st4 st2 st5">A</tspan><tspan x="41.657856" y="0" class="st4 st2 st5">tt</tspan><tspan x="47.0611191" y="0" class="st4 st2 st5">r</tspan><tspan x="49.7621765" y="0" class="st4 st2 st5">i</tspan><tspan x="51.3890152" y="0" class="st4 st2 st5">b</tspan><tspan x="55.7169113" y="0" class="st4 st2 st5">u</tspan><tspan x="60.0448036" y="0" class="st4 st2 st5">t</tspan><tspan x="62.7470093" y="0" class="st4 st2 st5">e</tspan></text>
<line class="st1" x1="269.8895874" y1="246.0948639" x2="354.7045593" y2="246.0948639"/>
<text transform="matrix(0.85 0 0 1 272.4309692 255.3582306)" class="st2 st3">+ facilityId: xs::string [0..1]</text>
<polygon class="st0" points="203.8659668,211.1234283 306.4565125,211.1234283 306.4565125,165.8662262 203.8659668,165.8662262 
	203.8659668,211.1234283 "/>
<polygon class="st1" points="203.8659668,211.1234283 306.4565125,211.1234283 306.4565125,165.8662262 203.8659668,165.8662262 
	203.8659668,211.1234283 "/>
<text transform="matrix(0.85 0 0 1 237.3840942 176.1551056)"><tspan x="0" y="0" class="st2 st3">«</tspan><tspan x="3.5960476" y="0" class="st2 st3">D</tspan><tspan x="8.2306986" y="0" class="st2 st3">a</tspan><tspan x="11.8255968" y="0" class="st2 st3">t</tspan><tspan x="13.8844204" y="0" class="st2 st3">a</tspan><tspan x="17.4793186" y="0" class="st2 st3">T</tspan><tspan x="21.0765152" y="0" class="st2 st3">y</tspan><tspan x="24.1636028" y="0" class="st2 st3">p</tspan><tspan x="28.2755051" y="0" class="st2 st3">e</tspan><tspan x="31.8715515" y="0" class="st2 st3">»</tspan></text>
<text transform="matrix(0.85 0 0 1 216.5637817 184.8972931)"><tspan x="0" y="0" class="st6 st3">u</tspan><tspan x="4.1084557" y="0" class="st6 st3">r</tspan><tspan x="6.6762404" y="0" class="st6 st3">o</tspan><tspan x="10.7892923" y="0" class="st6 st3">::</tspan><tspan x="13.8809738" y="0" class="st6 st3">F</tspan><tspan x="17.4804688" y="0" class="st6 st3">a</tspan><tspan x="21.0776653" y="0" class="st6 st3">c</tspan><tspan x="24.1681976" y="0" class="st6 st3">ili</tspan><tspan x="28.8051472" y="0" class="st6 st3">t</tspan><tspan x="31.3752289" y="0" class="st6 st3">y</tspan><tspan x="34.9735756" y="0" class="st6 st3">T</tspan><tspan x="38.575367" y="0" class="st6 st3">y</tspan><tspan x="42.1748619" y="0" class="st6 st3">p</tspan><tspan x="46.2833176" y="0" class="st6 st3">e</tspan><tspan x="49.8816605" y="0" class="st6 st3">A</tspan><tspan x="54.5048256" y="0" class="st6 st3">tt</tspan><tspan x="59.6438408" y="0" class="st6 st3">r</tspan><tspan x="62.2116241" y="0" class="st6 st3">i</tspan><tspan x="63.7568932" y="0" class="st6 st3">b</tspan><tspan x="67.8664932" y="0" class="st6 st3">u</tspan><tspan x="71.9749527" y="0" class="st6 st3">t</tspan><tspan x="74.5438843" y="0" class="st6 st3">e</tspan></text>
<line class="st1" x1="203.8659668" y1="189.0091095" x2="305.9486389" y2="189.0091095"/>
<text transform="matrix(0.85 0 0 1 206.4075317 198.2644806)" class="st2 st3">+ class: gml::CodeType [0..1]</text>
<text transform="matrix(0.85 0 0 1 206.4075317 207.0066681)" class="st2 st3">+ function: gml::CodeType [0..*]</text>
<polygon class="st0" points="310.5195007,398.3234253 420.2203369,398.3234253 420.2203369,274.3805237 310.5195007,274.3805237 
	310.5195007,398.3234253 "/>
<polygon class="st1" points="310.5195007,398.3234253 420.2203369,398.3234253 420.2203369,274.3805237 310.5195007,274.3805237 
	310.5195007,398.3234253 "/>
<text transform="matrix(0.85 0 0 1 347.5950317 284.6629333)"><tspan x="0" y="0" class="st2 st3">«</tspan><tspan x="3.5960476" y="0" class="st2 st3">D</tspan><tspan x="8.2306986" y="0" class="st2 st3">a</tspan><tspan x="11.8255968" y="0" class="st2 st3">t</tspan><tspan x="13.8844204" y="0" class="st2 st3">a</tspan><tspan x="17.4793186" y="0" class="st2 st3">T</tspan><tspan x="21.0765152" y="0" class="st2 st3">y</tspan><tspan x="24.1636028" y="0" class="st2 st3">p</tspan><tspan x="28.2755051" y="0" class="st2 st3">e</tspan><tspan x="31.8715515" y="0" class="st2 st3">»</tspan></text>
<text transform="matrix(0.85 0 0 1 330.8372192 293.4129333)"><tspan x="0" y="0" class="st6 st3">u</tspan><tspan x="4.1084557" y="0" class="st6 st3">r</tspan><tspan x="6.6762404" y="0" class="st6 st3">o</tspan><tspan x="10.7892923" y="0" class="st6 st3">::</tspan><tspan x="13.8809738" y="0" class="st6 st3">F</tspan><tspan x="17.4804688" y="0" class="st6 st3">a</tspan><tspan x="21.0776653" y="0" class="st6 st3">c</tspan><tspan x="24.1681976" y="0" class="st6 st3">ili</tspan><tspan x="28.8051472" y="0" class="st6 st3">t</tspan><tspan x="31.3752289" y="0" class="st6 st3">y</tspan><tspan x="34.9735756" y="0" class="st6 st3">I</tspan><tspan x="37.0301018" y="0" class="st6 st3">d</tspan><tspan x="41.1385574" y="0" class="st6 st3">A</tspan><tspan x="45.7605667" y="0" class="st6 st3">tt</tspan><tspan x="50.8995857" y="0" class="st6 st3">r</tspan><tspan x="53.4673691" y="0" class="st6 st3">i</tspan><tspan x="55.0137863" y="0" class="st6 st3">b</tspan><tspan x="59.122242" y="0" class="st6 st3">u</tspan><tspan x="63.2306976" y="0" class="st6 st3">t</tspan><tspan x="65.8007812" y="0" class="st6 st3">e</tspan></text>
<line class="st1" x1="310.5195007" y1="297.523407" x2="419.7124634" y2="297.523407"/>
<text transform="matrix(0.85 0 0 1 313.0637817 306.7801208)" class="st2 st3">+ id: xs::string [0..1]</text>
<text transform="matrix(0.85 0 0 1 313.0637817 315.5223083)" class="st2 st3">+ partId: xs::string [0..1]</text>
<text transform="matrix(0.85 0 0 1 313.0637817 324.2723083)" class="st2 st3">+ branchId: xs::string [0..1]</text>
<text transform="matrix(0.85 0 0 1 313.0637817 333.0144958)" class="st2 st3">+ prefecture: gml::CodeType [0..*]</text>
<text transform="matrix(0.85 0 0 1 313.0637817 341.7488708)" class="st2 st3">+ city: gml::CodeType [0..*]</text>
<text transform="matrix(0.85 0 0 1 313.0637817 350.4988708)" class="st2 st3">+ route: xs::string [0..1]</text>
<text transform="matrix(0.85 0 0 1 313.0637817 359.2410583)" class="st2 st3">+ startPost: xs::string [0..1]</text>
<text transform="matrix(0.85 0 0 1 313.0637817 367.9832458)" class="st2 st3">+ endPost: xs::string [0..1]</text>
<text transform="matrix(0.85 0 0 1 313.0637817 376.7254333)" class="st2 st3">+ startLat: xs::double [0..1]</text>
<text transform="matrix(0.85 0 0 1 313.0637817 385.4676208)" class="st2 st3">+ startLong: xs::double [0..1]</text>
<text transform="matrix(0.85 0 0 1 313.0637817 394.2176208)" class="st2 st3">+ alternativeName: xs::string [0..*]</text>
<path class="st7" d="M393.3029785,22.3805122c0.8414307,0,1.5235596,0.6907959,1.5235596,1.5428467h0.000061v45.257206h-0.000061
	c0,0.8520508-0.6821289,1.5428467-1.5236206,1.5428467l0,0h0.000061h-90.9094543h-0.0000305
	c-0.8414307,0-1.5236206-0.6907959-1.5236206-1.5428467h0.0000305v-45.257206c0-0.8520508,0.6821594-1.5428467,1.5236206-1.5428467
	l0,0H393.3029785L393.3029785,22.3805122L393.3029785,22.3805122z"/>
<path class="st8" d="M393.3029785,22.3805122c0.8414307,0,1.5235596,0.6907959,1.5235596,1.5428467h0.000061v45.257206h-0.000061
	c0,0.8520508-0.6821289,1.5428467-1.5236206,1.5428467l0,0h0.000061h-90.9094543h-0.0000305
	c-0.8414307,0-1.5236206-0.6907959-1.5236206-1.5428467h0.0000305v-45.257206c0-0.8520508,0.6821594-1.5428467,1.5236206-1.5428467
	l0,0H393.3029785L393.3029785,22.3805122L393.3029785,22.3805122z"/>
<polygon class="st9" points="305.9486389,46.55196 314.582489,46.55196 314.582489,37.8091011 305.9486389,37.8091011 
	305.9486389,46.55196 "/>
<polygon class="st10" points="305.9486389,46.55196 314.582489,46.55196 314.582489,37.8091011 305.9486389,37.8091011 
	305.9486389,46.55196 "/>
<text transform="matrix(0.85 0 0 1 317.1262817 45.0144844)" class="st11 st2 st3">GMLで定義されたクラス</text>
<polygon class="st12" points="305.9486389,56.3233833 314.582489,56.3233833 314.582489,47.5805244 305.9486389,47.5805244 
	305.9486389,56.3233833 "/>
<polygon class="st10" points="305.9486389,56.3233833 314.582489,56.3233833 314.582489,47.5805244 305.9486389,47.5805244 
	305.9486389,56.3233833 "/>
<text transform="matrix(0.85 0 0 1 317.1262817 54.7801094)" class="st11 st2 st3">CityGMLで定義されたクラス</text>
<polygon class="st0" points="305.9486389,66.0948105 314.582489,66.0948105 314.582489,57.3519478 305.9486389,57.3519478 
	305.9486389,66.0948105 "/>
<polygon class="st10" points="305.9486389,66.0948105 314.582489,66.0948105 314.582489,57.3519478 305.9486389,57.3519478 
	305.9486389,66.0948105 "/>
<text transform="matrix(0.85 0 0 1 317.1262817 64.5535431)" class="st11 st2 st3">i-URで定義されたクラス</text>
<text transform="matrix(0.85 0 0 1 342.0090942 34.7176094)" class="st11 st6 st13">凡例</text>
<polygon class="st12" points="137.8423157,78.9519272 274.9683228,78.9519272 274.9683228,17.23769 137.8423157,17.23769 
	137.8423157,78.9519272 "/>
<polygon class="st1" points="137.8423157,78.9519272 274.9683228,78.9519272 274.9683228,17.23769 137.8423157,17.23769 
	137.8423157,78.9519272 "/>
<text transform="matrix(0.85 0 0 1 184.5715942 27.5222969)"><tspan x="0" y="0" class="st2 st3">«</tspan><tspan x="3.5960476" y="0" class="st2 st3">F</tspan><tspan x="6.6865807" y="0" class="st2 st3">e</tspan><tspan x="10.2832031" y="0" class="st2 st3">a</tspan><tspan x="13.8786764" y="0" class="st2 st3">t</tspan><tspan x="15.9369249" y="0" class="st2 st3">u</tspan><tspan x="19.5398655" y="0" class="st2 st3">r</tspan><tspan x="22.1053524" y="0" class="st2 st3">e</tspan><tspan x="25.7014008" y="0" class="st2 st3">T</tspan><tspan x="29.2980232" y="0" class="st2 st3">y</tspan><tspan x="32.3862572" y="0" class="st2 st3">p</tspan><tspan x="36.4970131" y="0" class="st2 st3">e</tspan><tspan x="40.0936356" y="0" class="st2 st3">»</tspan></text>
<text transform="matrix(0.85 0 0 1 185.5872192 36.2644844)"><tspan x="0" y="0" class="st6 st3">l</tspan><tspan x="1.545841" y="0" class="st6 st3">u</tspan><tspan x="5.6542969" y="0" class="st6 st3">s</tspan><tspan x="8.7373619" y="0" class="st6 st3">e</tspan><tspan x="12.3357077" y="0" class="st6 st3">::</tspan><tspan x="15.4273891" y="0" class="st6 st3">L</tspan><tspan x="18.5150509" y="0" class="st6 st3">a</tspan><tspan x="22.1116714" y="0" class="st6 st3">n</tspan><tspan x="26.2201271" y="0" class="st6 st3">d</tspan><tspan x="30.3285828" y="0" class="st6 st3">U</tspan><tspan x="34.9626617" y="0" class="st6 st3">s</tspan><tspan x="38.0457268" y="0" class="st6 st3">e</tspan></text>
<line class="st1" x1="137.8423157" y1="40.3805122" x2="274.4604492" y2="40.3805122"/>
<text transform="matrix(0.85 0 0 1 140.3840942 49.6394844)" class="st2 st3">+ class: gml::CodeType [0..1]</text>
<text transform="matrix(0.85 0 0 1 140.3840942 58.3816719)" class="st2 st3">+ function: gml::CodeType [0..*]</text>
<text transform="matrix(0.85 0 0 1 140.3840942 67.1238556)" class="st2 st3">+ usage: gml::CodeType [0..*]</text>
<polygon class="st0" points="26.1100311,369.0091248 198.2793274,369.0091248 198.2793274,166.3805084 26.1100311,166.3805084 
	26.1100311,369.0091248 "/>
<polygon class="st1" points="26.1100311,369.0091248 198.2793274,369.0091248 198.2793274,166.3805084 26.1100311,166.3805084 
	26.1100311,369.0091248 "/>
<text transform="matrix(0.85 0 0 1 94.6809692 176.6629181)"><tspan x="0" y="0" class="st2 st3">«</tspan><tspan x="3.5960476" y="0" class="st2 st3">D</tspan><tspan x="8.2301235" y="0" class="st2 st3">a</tspan><tspan x="11.8255968" y="0" class="st2 st3">t</tspan><tspan x="13.8838463" y="0" class="st2 st3">a</tspan><tspan x="17.4793186" y="0" class="st2 st3">T</tspan><tspan x="21.0759411" y="0" class="st2 st3">y</tspan><tspan x="24.1641769" y="0" class="st2 st3">p</tspan><tspan x="28.274931" y="0" class="st2 st3">e</tspan><tspan x="31.8715515" y="0" class="st2 st3">»</tspan></text>
<text transform="matrix(0.85 0 0 1 69.7903442 185.4129181)"><tspan x="0" y="0" class="st6 st3">u</tspan><tspan x="4.1084557" y="0" class="st6 st3">r</tspan><tspan x="6.6762404" y="0" class="st6 st3">o</tspan><tspan x="10.7892923" y="0" class="st6 st3">::</tspan><tspan x="13.8809738" y="0" class="st6 st3">L</tspan><tspan x="16.9680595" y="0" class="st6 st3">a</tspan><tspan x="20.564682" y="0" class="st6 st3">n</tspan><tspan x="24.6731377" y="0" class="st6 st3">d</tspan><tspan x="28.7815933" y="0" class="st6 st3">U</tspan><tspan x="33.4156685" y="0" class="st6 st3">s</tspan><tspan x="36.4987335" y="0" class="st6 st3">e</tspan><tspan x="40.0976562" y="0" class="st6 st3">D</tspan><tspan x="44.7328796" y="0" class="st6 st3">e</tspan><tspan x="48.3312263" y="0" class="st6 st3">t</tspan><tspan x="50.9007339" y="0" class="st6 st3">a</tspan><tspan x="54.4973564" y="0" class="st6 st3">il</tspan><tspan x="57.5890388" y="0" class="st6 st3">A</tspan><tspan x="62.2116241" y="0" class="st6 st3">tt</tspan><tspan x="67.3506393" y="0" class="st6 st3">r</tspan><tspan x="69.9189987" y="0" class="st6 st3">i</tspan><tspan x="71.4648438" y="0" class="st6 st3">b</tspan><tspan x="75.5732956" y="0" class="st6 st3">u</tspan><tspan x="79.6817551" y="0" class="st6 st3">t</tspan><tspan x="82.2512589" y="0" class="st6 st3">e</tspan></text>
<line class="st1" x1="26.1100311" y1="189.5233917" x2="197.7714539" y2="189.5233917"/>
<text transform="matrix(0.85 0 0 1 28.6497192 198.7801056)" class="st2 st3">+ id: xs::string [0..1]</text>
<text transform="matrix(0.85 0 0 1 28.6497192 207.5222931)" class="st2 st3">+ orgLandUse: gml::CodeType [0..1]</text>
<text transform="matrix(0.85 0 0 1 28.6497192 216.2644806)" class="st2 st3">+ nominalArea: gml::MeasureType [0..1]</text>
<text transform="matrix(0.85 0 0 1 28.6497192 225.0144806)" class="st2 st3">+ ownerType: gml::CodeType [0..1]</text>
<text transform="matrix(0.85 0 0 1 28.6497192 233.7566681)" class="st2 st3">+ owner: xs::string [0..1]</text>
<text transform="matrix(0.85 0 0 1 28.6497192 242.4988556)" class="st2 st3">+ areaInSquareMeter: gml::MeasureType [0..1]</text>
<text transform="matrix(0.85 0 0 1 28.6497192 251.2488556)" class="st2 st3">+ areaInHa: gml::MeasureType [0..1]</text>
<text transform="matrix(0.85 0 0 1 28.6497192 259.9832458)" class="st2 st3">+ buildingCoverageRate: xs::double [0..1]</text>
<text transform="matrix(0.85 0 0 1 28.6497192 268.7254333)" class="st2 st3">+ floorAreaRate: xs::double [0..1]</text>
<text transform="matrix(0.85 0 0 1 28.6497192 277.4676208)" class="st2 st3">+ specifiedBuildingCoverageRate: xs::double [0..1]</text>
<text transform="matrix(0.85 0 0 1 28.6497192 286.2019958)" class="st2 st3">+ specifiedFloorAreaRate: xs::double [0..1]</text>
<text transform="matrix(0.85 0 0 1 28.6497192 294.9519958)" class="st2 st3">+ standardFloorAreaRate: xs::double [0..1]</text>
<text transform="matrix(0.85 0 0 1 28.6497192 303.6941833)" class="st2 st3">+ urbanPlanType: gml::CodeType [0..1]</text>
<text transform="matrix(0.85 0 0 1 28.6497192 312.4363708)" class="st2 st3">+ areaClassificationType: gml::CodeType [0..1]</text>
<text transform="matrix(0.85 0 0 1 28.6497192 321.1863708)" class="st2 st3">+ districtsAndZonesType: gml::CodeType [0..*]</text>
<text transform="matrix(0.85 0 0 1 28.6497192 329.9285583)" class="st2 st3">+ prefecture: gml::CodeType [0..1]</text>
<text transform="matrix(0.85 0 0 1 28.6497192 338.6707458)" class="st2 st3">+ city: gml::CodeType [0..1]</text>
<text transform="matrix(0.85 0 0 1 28.6497192 347.4207458)" class="st2 st3">+ reference: xs::string [0..1]</text>
<text transform="matrix(0.85 0 0 1 28.6497192 356.1551208)" class="st2 st3">+ note: xs::string [0..1]</text>
<text transform="matrix(0.85 0 0 1 28.6497192 364.8973083)" class="st2 st3">+ surveyYear: xs::gYear [0..1]</text>
<line class="st1" x1="312.0431213" y1="222.4376373" x2="312.0431213" y2="104.6662827"/>
<line class="st1" x1="206.4053345" y1="104.6662827" x2="206.4053345" y2="79.4662094"/>
<polyline class="st14" points="208.9447021,84.6090927 206.4053345,79.4662094 203.8659668,84.6090927 206.4053345,89.751976 
	208.9447021,84.6090927 "/>
<polyline class="st1" points="208.9447021,84.6090927 206.4053345,79.4662094 203.8659668,84.6090927 206.4053345,89.751976 "/>
<polyline class="st1" points="315.0903625,214.7234039 312.0431213,222.4376373 308.9958801,214.7234039 "/>
<line class="st1" x1="254.6533508" y1="165.351944" x2="254.6533508" y2="104.6662827"/>
<polyline class="st14" points="208.9447021,84.6090927 206.4053345,79.4662094 203.8659668,84.6090927 206.4053345,89.751976 
	208.9447021,84.6090927 "/>
<polyline class="st1" points="208.9447021,84.6090927 206.4053345,79.4662094 203.8659668,84.6090927 206.4053345,89.751976 "/>
<polyline class="st1" points="257.700592,157.6376495 254.6533508,165.351944 251.6061096,157.6376495 "/>
<line class="st1" x1="373.4958801" y1="273.8662415" x2="373.4958801" y2="104.6662827"/>
<line class="st1" x1="373.4958801" y1="104.6662827" x2="206.4053345" y2="104.6662827"/>
<polyline class="st14" points="208.9447021,84.6090927 206.4053345,79.4662094 203.8659668,84.6090927 206.4053345,89.751976 
	208.9447021,84.6090927 "/>
<polyline class="st1" points="208.9447021,84.6090927 206.4053345,79.4662094 203.8659668,84.6090927 206.4053345,89.751976 "/>
<polyline class="st1" points="376.5431519,266.1520081 373.4958801,273.8662415 370.4486389,266.1520081 "/>
<line class="st1" x1="111.9407501" y1="165.8662262" x2="111.9407501" y2="104.6662827"/>
<line class="st1" x1="111.9407501" y1="104.6662827" x2="206.4053345" y2="104.6662827"/>
<polyline class="st14" points="208.9447021,84.6090927 206.4053345,79.4662094 203.8659668,84.6090927 206.4053345,89.751976 
	208.9447021,84.6090927 "/>
<polygon class="st1" points="208.9447021,84.6090927 206.4053345,79.4662094 203.8659668,84.6090927 206.4053345,89.751976 "/>
<polyline class="st1" points="114.9879913,158.1519928 111.9407501,165.8662262 108.8935089,158.1519928 "/>
<text transform="matrix(0.85 0 0 1 242.4622192 218.8426056)"><tspan x="0" y="0" class="st2 st3">+</tspan><tspan x="4.6266084" y="0" class="st2 st3">l</tspan><tspan x="6.1730237" y="0" class="st2 st3">u</tspan><tspan x="9.7759647" y="0" class="st2 st3">s</tspan><tspan x="12.8596048" y="0" class="st2 st3">e</tspan><tspan x="16.4568005" y="0" class="st2 st3">F</tspan><tspan x="19.5473347" y="0" class="st2 st3">a</tspan><tspan x="23.1422329" y="0" class="st2 st3">c</tspan><tspan x="26.2304688" y="0" class="st2 st3">ili</tspan><tspan x="30.8674164" y="0" class="st2 st3">t</tspan><tspan x="32.926239" y="0" class="st2 st3">y</tspan><tspan x="36.0144768" y="0" class="st2 st3">A</tspan><tspan x="40.1332703" y="0" class="st2 st3">tt</tspan><tspan x="44.2497673" y="0" class="st2 st3">r</tspan><tspan x="46.814106" y="0" class="st2 st3">i</tspan><tspan x="48.3605232" y="0" class="st2 st3">b</tspan><tspan x="52.4712753" y="0" class="st2 st3">u</tspan><tspan x="56.0742188" y="0" class="st2 st3">t</tspan><tspan x="58.1318932" y="0" class="st2 st3">e</tspan></text>
<text transform="matrix(0.85 0 0 1 324.7434692 217.8113556)"><tspan x="0" y="0" class="st2 st3">0</tspan><tspan x="3.60409" y="0" class="st2 st3">..</tspan><tspan x="6.6762404" y="0" class="st2 st3">*</tspan></text>
<text transform="matrix(0.85 0 0 1 170.8606567 157.6394806)"><tspan x="0" y="0" class="st2 st3">+</tspan><tspan x="4.627183" y="0" class="st2 st3">l</tspan><tspan x="6.1724491" y="0" class="st2 st3">u</tspan><tspan x="9.7759647" y="0" class="st2 st3">s</tspan><tspan x="12.8601789" y="0" class="st2 st3">e</tspan><tspan x="16.4568005" y="0" class="st2 st3">F</tspan><tspan x="19.5473347" y="0" class="st2 st3">a</tspan><tspan x="23.142807" y="0" class="st2 st3">c</tspan><tspan x="26.2310429" y="0" class="st2 st3">ili</tspan><tspan x="30.8679905" y="0" class="st2 st3">t</tspan><tspan x="32.926239" y="0" class="st2 st3">y</tspan><tspan x="36.0144768" y="0" class="st2 st3">T</tspan><tspan x="39.6105232" y="0" class="st2 st3">y</tspan><tspan x="42.6987572" y="0" class="st2 st3">p</tspan><tspan x="46.8095131" y="0" class="st2 st3">e</tspan><tspan x="50.4061356" y="0" class="st2 st3">A</tspan><tspan x="54.524929" y="0" class="st2 st3">tt</tspan><tspan x="58.6414261" y="0" class="st2 st3">r</tspan><tspan x="61.2063408" y="0" class="st2 st3">i</tspan><tspan x="62.752182" y="0" class="st2 st3">b</tspan><tspan x="66.8629379" y="0" class="st2 st3">u</tspan><tspan x="70.4658737" y="0" class="st2 st3">t</tspan><tspan x="72.5241241" y="0" class="st2 st3">e</tspan></text>
<text transform="matrix(0.85 0 0 1 263.7981567 159.7019806)"><tspan x="0" y="0" class="st2 st3">0</tspan><tspan x="3.60409" y="0" class="st2 st3">..</tspan><tspan x="6.6762404" y="0" class="st2 st3">*</tspan></text>
<text transform="matrix(0.85 0 0 1 379.5872192 270.2644958)"><tspan x="0" y="0" class="st2 st3">+</tspan><tspan x="4.6266084" y="0" class="st2 st3">l</tspan><tspan x="6.1730237" y="0" class="st2 st3">u</tspan><tspan x="9.7759647" y="0" class="st2 st3">s</tspan><tspan x="12.8596048" y="0" class="st2 st3">e</tspan><tspan x="16.4568005" y="0" class="st2 st3">F</tspan><tspan x="19.5473347" y="0" class="st2 st3">a</tspan><tspan x="23.1422329" y="0" class="st2 st3">c</tspan><tspan x="26.2304688" y="0" class="st2 st3">ili</tspan><tspan x="30.8674164" y="0" class="st2 st3">t</tspan><tspan x="32.926239" y="0" class="st2 st3">y</tspan><tspan x="36.0144768" y="0" class="st2 st3">I</tspan><tspan x="37.559742" y="0" class="st2 st3">d</tspan><tspan x="41.6704941" y="0" class="st2 st3">A</tspan><tspan x="45.7881432" y="0" class="st2 st3">tt</tspan><tspan x="49.9057884" y="0" class="st2 st3">r</tspan><tspan x="52.4701271" y="0" class="st2 st3">i</tspan><tspan x="54.0153923" y="0" class="st2 st3">b</tspan><tspan x="58.1272964" y="0" class="st2 st3">u</tspan><tspan x="61.7302361" y="0" class="st2 st3">t</tspan><tspan x="63.7879105" y="0" class="st2 st3">e</tspan></text>
<text transform="matrix(0.85 0 0 1 378.0637817 261.0144958)"><tspan x="0" y="0" class="st2 st3">0</tspan><tspan x="3.60409" y="0" class="st2 st3">..</tspan><tspan x="6.6762404" y="0" class="st2 st3">1</tspan></text>
<text transform="matrix(0.85 0 0 1 36.7747192 159.1863556)"><tspan x="0" y="0" class="st2 st3">+</tspan><tspan x="4.627183" y="0" class="st2 st3">l</tspan><tspan x="6.1724491" y="0" class="st2 st3">a</tspan><tspan x="9.7684965" y="0" class="st2 st3">n</tspan><tspan x="13.371438" y="0" class="st2 st3">d</tspan><tspan x="17.4821911" y="0" class="st2 st3">U</tspan><tspan x="22.108799" y="0" class="st2 st3">s</tspan><tspan x="25.1930141" y="0" class="st2 st3">e</tspan><tspan x="28.7896366" y="0" class="st2 st3">D</tspan><tspan x="33.4237137" y="0" class="st2 st3">e</tspan><tspan x="37.0203362" y="0" class="st2 st3">t</tspan><tspan x="39.0785828" y="0" class="st2 st3">a</tspan><tspan x="42.674057" y="0" class="st2 st3">il</tspan><tspan x="45.7657394" y="0" class="st2 st3">A</tspan><tspan x="49.8839607" y="0" class="st2 st3">tt</tspan><tspan x="54.0004578" y="0" class="st2 st3">r</tspan><tspan x="56.5653725" y="0" class="st2 st3">i</tspan><tspan x="58.1112099" y="0" class="st2 st3">b</tspan><tspan x="62.2219658" y="0" class="st2 st3">u</tspan><tspan x="65.8254776" y="0" class="st2 st3">t</tspan><tspan x="67.883728" y="0" class="st2 st3">e</tspan></text>
<text transform="matrix(0.85 0 0 1 124.6340942 156.6160431)"><tspan x="0" y="0" class="st2 st3">0</tspan><tspan x="3.60409" y="0" class="st2 st3">..</tspan><tspan x="6.676815" y="0" class="st2 st3">1</tspan></text>
</svg>
