<?xml version="1.0" encoding="utf-8"?>
<!-- Generator: Adobe Illustrator 27.4.1, SVG Export Plug-In . SVG Version: 6.00 Build 0)  -->
<svg version="1.1" id="レイヤー_1" xmlns="http://www.w3.org/2000/svg" xmlns:xlink="http://www.w3.org/1999/xlink" x="0px"
	 y="0px" viewBox="0 0 1254.9 1369.9" style="enable-background:new 0 0 1254.9 1369.9;" xml:space="preserve">
<style type="text/css">
	.st0{fill-rule:evenodd;clip-rule:evenodd;fill:#CFD1D8;}
	.st1{fill-rule:evenodd;clip-rule:evenodd;fill:#FFFFCC;}
	.st2{fill:none;stroke:#000000;stroke-width:1.7322;stroke-linecap:round;stroke-linejoin:round;stroke-miterlimit:10;}
	.st3{font-family:'YuGothicUI-Regular';}
	.st4{font-size:11.2598px;}
	.st5{font-family:'YuGothicUI-Bold';}
	.st6{font-size:10.3938px;}
	.st7{font-size:10.96px;}
	.st8{fill:none;stroke:#000000;stroke-width:0.297;stroke-miterlimit:10;}
	.st9{font-size:11.8736px;}
	.st10{fill:none;stroke:#000000;stroke-width:0.3218;stroke-miterlimit:10;}
	.st11{fill-rule:evenodd;clip-rule:evenodd;fill:#CCFFCC;}
	.st12{font-family:'Calibri';}
	.st13{font-size:9.5276px;}
	.st14{font-family:'Calibri-BoldItalic';}
	.st15{fill-rule:evenodd;clip-rule:evenodd;fill:#F0F0F0;}
	.st16{fill:none;stroke:#D7D7D7;stroke-width:0.8662;stroke-linecap:square;stroke-miterlimit:10;}
	.st17{fill:none;stroke:#000000;stroke-width:0.8662;stroke-linecap:square;stroke-miterlimit:10;}
	.st18{fill:#003060;}
	.st19{fill-rule:evenodd;clip-rule:evenodd;fill:#FFCCFF;}
	.st20{font-family:'MS-PGothic';}
	.st21{font-size:13.8582px;}
	.st22{fill:none;stroke:#003060;stroke-width:0.396;stroke-miterlimit:10;}
	.st23{fill:none;stroke:#000000;stroke-width:1.7322;stroke-linecap:round;stroke-linejoin:bevel;stroke-miterlimit:10;}
	.st24{fill-rule:evenodd;clip-rule:evenodd;}
	.st25{fill-rule:evenodd;clip-rule:evenodd;fill:#FFFFFF;}
	.st26{enable-background:new    ;}
	.st27{fill:none;stroke:#FFFFFF;stroke-width:2.8346;}
</style>
<path class="st0" d="M556.7,1266.6c1.2,0,2.2,1,2.2,2.2l0,0v46.8l0,0c0,1.2-1,2.2-2.2,2.2l0,0l0,0H423l0,0c-1.2,0-2.2-1-2.2-2.2l0,0
	v-46.8c0-1.2,1-2.2,2.2-2.2l0,0H556.7L556.7,1266.6L556.7,1266.6z"/>
<path class="st1" d="M554.1,1264c1.2,0,2.2,1,2.2,2.2l0,0v46.8l0,0c0,1.2-1,2.2-2.2,2.2l0,0l0,0H420.4l0,0c-1.2,0-2.2-1-2.2-2.2l0,0
	v-46.8c0-1.2,1-2.2,2.2-2.2l0,0H554.1L554.1,1264L554.1,1264z"/>
<path class="st2" d="M554.1,1264c1.2,0,2.2,1,2.2,2.2l0,0v46.8l0,0c0,1.2-1,2.2-2.2,2.2l0,0l0,0H420.4l0,0c-1.2,0-2.2-1-2.2-2.2l0,0
	v-46.8c0-1.2,1-2.2,2.2-2.2l0,0H554.1L554.1,1264L554.1,1264z"/>
<text transform="matrix(0.85 0 0 1 450.376 1281.3411)" class="st3 st4">«FeatureType»</text>
<text transform="matrix(0.85 0 0 1 421.7197 1296.0598)" class="st5 st4">bldg::OuterCeilingSurface</text>
<path class="st0" d="M1021.2,487.1c1.2,0,2.2,1,2.2,2.2l0,0V692l0,0c0,1.2-1,2.2-2.2,2.2l0,0l0,0H709.5l0,0c-1.2,0-2.2-1-2.2-2.2
	l0,0V489.3c0-1.2,1-2.2,2.2-2.2l0,0L1021.2,487.1L1021.2,487.1L1021.2,487.1z"/>
<path class="st1" d="M1018.6,484.5c1.2,0,2.2,1,2.2,2.2l0,0v202.7l0,0c0,1.2-1,2.2-2.2,2.2l0,0l0,0H706.9l0,0c-1.2,0-2.2-1-2.2-2.2
	l0,0V486.7c0-1.2,1-2.2,2.2-2.2l0,0H1018.6L1018.6,484.5L1018.6,484.5z"/>
<path class="st2" d="M1018.6,484.5c1.2,0,2.2,1,2.2,2.2l0,0v202.7l0,0c0,1.2-1,2.2-2.2,2.2l0,0l0,0H706.9l0,0c-1.2,0-2.2-1-2.2-2.2
	l0,0V486.7c0-1.2,1-2.2,2.2-2.2l0,0H1018.6L1018.6,484.5L1018.6,484.5z"/>
<text transform="matrix(0.85 0 0 1 829.75 500.091)" class="st3 st6">«FeatureType»</text>
<text transform="matrix(0.85 0 -0.3169 0.9485 809.7579 513.0726)" class="st3 st7">b</text>
<text transform="matrix(0.85 0 -0.3169 0.9485 809.7579 513.0726)" class="st8 st3 st7">b</text>
<text transform="matrix(0.85 0 -0.3169 0.9485 815.84 513.0726)" class="st3 st7">l</text>
<text transform="matrix(0.85 0 -0.3169 0.9485 815.84 513.0726)" class="st8 st3 st7">l</text>
<text transform="matrix(0.85 0 -0.3169 0.9485 818.4337 513.0726)" class="st3 st7">d</text>
<text transform="matrix(0.85 0 -0.3169 0.9485 818.4337 513.0726)" class="st8 st3 st7">d</text>
<text transform="matrix(0.85 0 -0.3169 0.9485 824.5157 513.0726)" class="st3 st7">g</text>
<text transform="matrix(0.85 0 -0.3169 0.9485 824.5157 513.0726)" class="st8 st3 st7">g</text>
<text transform="matrix(0.85 0 -0.3169 0.9485 830.6017 513.0726)" class="st3 st7">:</text>
<text transform="matrix(0.85 0 -0.3169 0.9485 830.6017 513.0726)" class="st8 st3 st7">:</text>
<text transform="matrix(0.85 0 -0.3169 0.9485 833.2032 513.0726)" class="st3 st7">:</text>
<text transform="matrix(0.85 0 -0.3169 0.9485 833.2032 513.0726)" class="st8 st3 st7">:</text>
<text transform="matrix(0.85 0 -0.3169 0.9485 835.8048 513.0726)" class="st3 st7">_</text>
<text transform="matrix(0.85 0 -0.3169 0.9485 835.8048 513.0726)" class="st8 st3 st7">_</text>
<text transform="matrix(0.85 0 -0.3169 0.9485 840.1388 513.0726)" class="st3 st7">A</text>
<text transform="matrix(0.85 0 -0.3169 0.9485 840.1388 513.0726)" class="st8 st3 st7">A</text>
<text transform="matrix(0.85 0 -0.3169 0.9485 847.0782 513.0726)" class="st3 st7">b</text>
<text transform="matrix(0.85 0 -0.3169 0.9485 847.0782 513.0726)" class="st8 st3 st7">b</text>
<text transform="matrix(0.85 0 -0.3169 0.9485 853.1603 513.0726)" class="st3 st7">s</text>
<text transform="matrix(0.85 0 -0.3169 0.9485 853.1603 513.0726)" class="st8 st3 st7">s</text>
<text transform="matrix(0.85 0 -0.3169 0.9485 857.5079 513.0726)" class="st3 st7">t</text>
<text transform="matrix(0.85 0 -0.3169 0.9485 857.5079 513.0726)" class="st8 st3 st7">t</text>
<text transform="matrix(0.85 0 -0.3169 0.9485 860.9845 513.0726)" class="st3 st7">r</text>
<text transform="matrix(0.85 0 -0.3169 0.9485 860.9845 513.0726)" class="st8 st3 st7">r</text>
<text transform="matrix(0.85 0 -0.3169 0.9485 864.4611 513.0726)" class="st3 st7">a</text>
<text transform="matrix(0.85 0 -0.3169 0.9485 864.4611 513.0726)" class="st8 st3 st7">a</text>
<text transform="matrix(0.85 0 -0.3169 0.9485 869.6759 513.0726)" class="st3 st7">c</text>
<text transform="matrix(0.85 0 -0.3169 0.9485 869.6759 513.0726)" class="st8 st3 st7">c</text>
<text transform="matrix(0.85 0 -0.3169 0.9485 874.8829 513.0726)" class="st3 st7">t</text>
<text transform="matrix(0.85 0 -0.3169 0.9485 874.8829 513.0726)" class="st8 st3 st7">t</text>
<text transform="matrix(0.85 0 -0.3169 0.9485 878.3634 513.0726)" class="st3 st7">B</text>
<text transform="matrix(0.85 0 -0.3169 0.9485 878.3634 513.0726)" class="st8 st3 st7">B</text>
<text transform="matrix(0.85 0 -0.3169 0.9485 884.4376 513.0726)" class="st3 st7">u</text>
<text transform="matrix(0.85 0 -0.3169 0.9485 884.4376 513.0726)" class="st8 st3 st7">u</text>
<text transform="matrix(0.85 0 -0.3169 0.9485 890.5118 513.0726)" class="st3 st7">i</text>
<text transform="matrix(0.85 0 -0.3169 0.9485 890.5118 513.0726)" class="st8 st3 st7">i</text>
<text transform="matrix(0.85 0 -0.3169 0.9485 893.1056 513.0726)" class="st3 st7">l</text>
<text transform="matrix(0.85 0 -0.3169 0.9485 893.1056 513.0726)" class="st8 st3 st7">l</text>
<text transform="matrix(0.85 0 -0.3169 0.9485 895.7032 513.0726)" class="st3 st7">d</text>
<text transform="matrix(0.85 0 -0.3169 0.9485 895.7032 513.0726)" class="st8 st3 st7">d</text>
<text transform="matrix(0.85 0 -0.3169 0.9485 901.7853 513.0726)" class="st3 st7">i</text>
<text transform="matrix(0.85 0 -0.3169 0.9485 901.7853 513.0726)" class="st8 st3 st7">i</text>
<text transform="matrix(0.85 0 -0.3169 0.9485 904.379 513.0726)" class="st3 st7">n</text>
<text transform="matrix(0.85 0 -0.3169 0.9485 904.379 513.0726)" class="st8 st3 st7">n</text>
<text transform="matrix(0.85 0 -0.3169 0.9485 910.4552 513.0726)" class="st3 st7">g</text>
<text transform="matrix(0.85 0 -0.3169 0.9485 910.4552 513.0726)" class="st8 st3 st7">g</text>
<line class="st2" x1="704.7" y1="520" x2="1020.7" y2="520"/>
<text transform="matrix(0.85 0 0 1 709.0625 533.8566)" class="st3 st6">+ class: gml::CodeType [0..1]</text>
<text transform="matrix(0.85 0 0 1 709.0625 546.841)" class="st3 st6">+ function: gml::CodeType [0..*]</text>
<text transform="matrix(0.85 0 0 1 709.0625 559.8566)" class="st3 st6">+ usage: gml::CodeType [0..*]</text>
<text transform="matrix(0.85 0 0 1 709.0625 572.841)" class="st3 st6">+ yearOfConstruction: xs::gYear [0..1]</text>
<text transform="matrix(0.85 0 0 1 709.0625 585.841)" class="st3 st6">+ yearOfDemolition: xs::gYear [0..1]</text>
<text transform="matrix(0.85 0 0 1 709.0625 598.8254)" class="st3 st6">+ roofType: gml::CodeType [0..1]</text>
<text transform="matrix(0.85 0 0 1 709.0625 611.8098)" class="st3 st6">+ measuredHeight: gml::LengthType [0..1]</text>
<text transform="matrix(0.85 0 0 1 709.0625 624.8098)" class="st3 st6">+ storeysAboveGround: xs::nonNegativeInteger [0..1]</text>
<text transform="matrix(0.85 0 0 1 709.0625 637.8098)" class="st3 st6">+ storeysBelowGround: xs::nonNegativeInteger [0..1]</text>
<text transform="matrix(0.85 0 0 1 709.0625 650.7941)" class="st3 st6">+ storeyHeightsAboveGround: gml::MeasureOrNullListType [0..1]</text>
<text transform="matrix(0.85 0 0 1 709.0625 663.7785)" class="st3 st6">+ storeyHeightsBelowGround: gml::MeasureOrNullListType [0..1]</text>
<path class="st0" d="M869.2,815.4c1.2,0,2.2,1,2.2,2.2l0,0v54.6l0,0c0,1.2-1,2.2-2.2,2.2l0,0l0,0h-81.6l0,0c-1.2,0-2.2-1-2.2-2.2
	l0,0v-54.6c0-1.2,1-2.2,2.2-2.2l0,0H869.2L869.2,815.4L869.2,815.4z"/>
<path class="st1" d="M866.6,812.8c1.2,0,2.2,1,2.2,2.2l0,0v54.6l0,0c0,1.2-1,2.2-2.2,2.2l0,0l0,0H785l0,0c-1.2,0-2.2-1-2.2-2.2l0,0
	V815c0-1.2,1-2.2,2.2-2.2l0,0H866.6L866.6,812.8L866.6,812.8z"/>
<path class="st2" d="M866.6,812.8c1.2,0,2.2,1,2.2,2.2l0,0v54.6l0,0c0,1.2-1,2.2-2.2,2.2l0,0l0,0H785l0,0c-1.2,0-2.2-1-2.2-2.2l0,0
	V815c0-1.2,1-2.2,2.2-2.2l0,0H866.6L866.6,812.8L866.6,812.8z"/>
<text transform="matrix(0.85 0 0 1 793.2812 828.3566)" class="st3 st6">«FeatureType»</text>
<text transform="matrix(0.85 0 0 1 794.1406 841.341)" class="st5 st6">bldg::Building</text>
<path class="st0" d="M1008.1,815.4c1.2,0,2.2,1,2.2,2.2l0,0V873l0,0c0,1.2-1,2.2-2.2,2.2l0,0l0,0H891.8l0,0c-1.2,0-2.2-1-2.2-2.2
	l0,0v-55.4c0-1.2,1-2.2,2.2-2.2l0,0L1008.1,815.4L1008.1,815.4L1008.1,815.4z"/>
<path class="st1" d="M1005.5,812.8c1.2,0,2.2,1,2.2,2.2l0,0v55.4l0,0c0,1.2-1,2.2-2.2,2.2l0,0l0,0H889.2l0,0c-1.2,0-2.2-1-2.2-2.2
	l0,0V815c0-1.2,1-2.2,2.2-2.2l0,0H1005.5L1005.5,812.8L1005.5,812.8z"/>
<path class="st2" d="M1005.5,812.8c1.2,0,2.2,1,2.2,2.2l0,0v55.4l0,0c0,1.2-1,2.2-2.2,2.2l0,0l0,0H889.2l0,0c-1.2,0-2.2-1-2.2-2.2
	l0,0V815c0-1.2,1-2.2,2.2-2.2l0,0H1005.5L1005.5,812.8L1005.5,812.8z"/>
<text transform="matrix(0.85 0 0 1 914.8125 828.3566)" class="st3 st6">«FeatureType»</text>
<text transform="matrix(0.85 0 0 1 906.125 841.341)" class="st5 st6">bldg::BuildingPart</text>
<path class="st0" d="M862.3,295.7c1.2,0,2.2,1,2.2,2.2l0,0V375l0,0c0,1.2-1,2.2-2.2,2.2l0,0l0,0H700.8l0,0c-1.2,0-2.2-1-2.2-2.2l0,0
	v-77.1c0-1.2,1-2.2,2.2-2.2l0,0L862.3,295.7L862.3,295.7L862.3,295.7z"/>
<path class="st1" d="M859.7,293.1c1.2,0,2.2,1,2.2,2.2l0,0v77.1l0,0c0,1.2-1,2.2-2.2,2.2l0,0l0,0H698.2l0,0c-1.2,0-2.2-1-2.2-2.2
	l0,0v-77.1c0-1.2,1-2.2,2.2-2.2l0,0H859.7L859.7,293.1L859.7,293.1z"/>
<path class="st2" d="M859.7,293.1c1.2,0,2.2,1,2.2,2.2l0,0v77.1l0,0c0,1.2-1,2.2-2.2,2.2l0,0l0,0H698.2l0,0c-1.2,0-2.2-1-2.2-2.2
	l0,0v-77.1c0-1.2,1-2.2,2.2-2.2l0,0H859.7L859.7,293.1L859.7,293.1z"/>
<text transform="matrix(0.85 0 0 1 746.4062 308.6682)" class="st3 st6">«FeatureType»</text>
<text transform="matrix(0.85 0 0 1 721.2188 321.6525)" class="st5 st6">bldg::BuildingInstallation</text>
<line class="st2" x1="696" y1="328.6" x2="861.9" y2="328.6"/>
<text transform="matrix(0.85 0 0 1 700.3906 342.4504)" class="st3 st6">+ class: gml::CodeType [0..1]</text>
<text transform="matrix(0.85 0 0 1 700.3906 355.4348)" class="st3 st6">+ function: gml::CodeType [0..*]</text>
<text transform="matrix(0.85 0 0 1 700.3906 368.4348)" class="st3 st6">+ usage: gml::CodeType [0..*]</text>
<path class="st0" d="M1199.1,1032.8c1.2,0,2.2,1,2.2,2.2l0,0v84.9l0,0c0,1.2-1,2.2-2.2,2.2l0,0l0,0h-185.8l0,0c-1.2,0-2.2-1-2.2-2.2
	l0,0V1035c0-1.2,1-2.2,2.2-2.2l0,0H1199.1L1199.1,1032.8L1199.1,1032.8z"/>
<path class="st1" d="M1196.5,1030.2c1.2,0,2.2,1,2.2,2.2l0,0v84.9l0,0c0,1.2-1,2.2-2.2,2.2l0,0l0,0h-185.8l0,0c-1.2,0-2.2-1-2.2-2.2
	l0,0v-84.9c0-1.2,1-2.2,2.2-2.2l0,0H1196.5L1196.5,1030.2L1196.5,1030.2z"/>
<path class="st2" d="M1196.5,1030.2c1.2,0,2.2,1,2.2,2.2l0,0v84.9l0,0c0,1.2-1,2.2-2.2,2.2l0,0l0,0h-185.8l0,0c-1.2,0-2.2-1-2.2-2.2
	l0,0v-84.9c0-1.2,1-2.2,2.2-2.2l0,0H1196.5L1196.5,1030.2L1196.5,1030.2z"/>
<text transform="matrix(0.85 0 0 1 1066.7188 1047.4661)" class="st3 st4">«FeatureType»</text>
<g>
	<text transform="matrix(0.85 0 -0.3169 0.9485 1042.4052 1062.2031)" class="st3 st9">b</text>
	<text transform="matrix(0.85 0 -0.3169 0.9485 1042.4052 1062.2031)" class="st10 st3 st9">b</text>
	<text transform="matrix(0.85 0 -0.3169 0.9485 1049.3446 1062.2031)" class="st3 st9">l</text>
	<text transform="matrix(0.85 0 -0.3169 0.9485 1049.3446 1062.2031)" class="st10 st3 st9">l</text>
	<text transform="matrix(0.85 0 -0.3169 0.9485 1051.954 1062.2031)" class="st3 st9">d</text>
	<text transform="matrix(0.85 0 -0.3169 0.9485 1051.954 1062.2031)" class="st10 st3 st9">d</text>
	<text transform="matrix(0.85 0 -0.3169 0.9485 1058.8934 1062.2031)" class="st3 st9">g</text>
	<text transform="matrix(0.85 0 -0.3169 0.9485 1058.8934 1062.2031)" class="st10 st3 st9">g</text>
	<text transform="matrix(0.85 0 -0.3169 0.9485 1065.8309 1062.2031)" class="st3 st9">:</text>
	<text transform="matrix(0.85 0 -0.3169 0.9485 1065.8309 1062.2031)" class="st10 st3 st9">:</text>
	<text transform="matrix(0.85 0 -0.3169 0.9485 1068.4247 1062.2031)" class="st3 st9">:</text>
	<text transform="matrix(0.85 0 -0.3169 0.9485 1068.4247 1062.2031)" class="st10 st3 st9">:</text>
	<text transform="matrix(0.85 0 -0.3169 0.9485 1071.0184 1062.2031)" class="st3 st9">_</text>
	<text transform="matrix(0.85 0 -0.3169 0.9485 1071.0184 1062.2031)" class="st10 st3 st9">_</text>
	<text transform="matrix(0.85 0 -0.3169 0.9485 1075.3641 1062.2031)" class="st3 st9">B</text>
	<text transform="matrix(0.85 0 -0.3169 0.9485 1075.3641 1062.2031)" class="st10 st3 st9">B</text>
	<text transform="matrix(0.85 0 -0.3169 0.9485 1082.3075 1062.2031)" class="st3 st9">o</text>
	<text transform="matrix(0.85 0 -0.3169 0.9485 1082.3075 1062.2031)" class="st10 st3 st9">o</text>
	<text transform="matrix(0.85 0 -0.3169 0.9485 1089.2469 1062.2031)" class="st3 st9">u</text>
	<text transform="matrix(0.85 0 -0.3169 0.9485 1089.2469 1062.2031)" class="st10 st3 st9">u</text>
	<text transform="matrix(0.85 0 -0.3169 0.9485 1096.1864 1062.2031)" class="st3 st9">n</text>
	<text transform="matrix(0.85 0 -0.3169 0.9485 1096.1864 1062.2031)" class="st10 st3 st9">n</text>
	<text transform="matrix(0.85 0 -0.3169 0.9485 1103.1259 1062.2031)" class="st3 st9">d</text>
	<text transform="matrix(0.85 0 -0.3169 0.9485 1103.1259 1062.2031)" class="st10 st3 st9">d</text>
	<text transform="matrix(0.85 0 -0.3169 0.9485 1110.0653 1062.2031)" class="st3 st9">a</text>
	<text transform="matrix(0.85 0 -0.3169 0.9485 1110.0653 1062.2031)" class="st10 st3 st9">a</text>
	<text transform="matrix(0.85 0 -0.3169 0.9485 1116.1337 1062.2031)" class="st3 st9">r</text>
	<text transform="matrix(0.85 0 -0.3169 0.9485 1116.1337 1062.2031)" class="st10 st3 st9">r</text>
	<text transform="matrix(0.85 0 -0.3169 0.9485 1120.4637 1062.2031)" class="st3 st9">y</text>
	<text transform="matrix(0.85 0 -0.3169 0.9485 1120.4637 1062.2031)" class="st10 st3 st9">y</text>
	<text transform="matrix(0.85 0 -0.3169 0.9485 1126.5341 1062.2031)" class="st3 st9">S</text>
	<text transform="matrix(0.85 0 -0.3169 0.9485 1126.5341 1062.2031)" class="st10 st3 st9">S</text>
	<text transform="matrix(0.85 0 -0.3169 0.9485 1132.6083 1062.2031)" class="st3 st9">u</text>
	<text transform="matrix(0.85 0 -0.3169 0.9485 1132.6083 1062.2031)" class="st10 st3 st9">u</text>
	<text transform="matrix(0.85 0 -0.3169 0.9485 1139.5477 1062.2031)" class="st3 st9">r</text>
	<text transform="matrix(0.85 0 -0.3169 0.9485 1139.5477 1062.2031)" class="st10 st3 st9">r</text>
	<text transform="matrix(0.85 0 -0.3169 0.9485 1143.8778 1062.2031)" class="st3 st9">f</text>
	<text transform="matrix(0.85 0 -0.3169 0.9485 1143.8778 1062.2031)" class="st10 st3 st9">f</text>
	<text transform="matrix(0.85 0 -0.3169 0.9485 1147.3544 1062.2031)" class="st3 st9">a</text>
	<text transform="matrix(0.85 0 -0.3169 0.9485 1147.3544 1062.2031)" class="st10 st3 st9">a</text>
	<text transform="matrix(0.85 0 -0.3169 0.9485 1153.4227 1062.2031)" class="st3 st9">c</text>
	<text transform="matrix(0.85 0 -0.3169 0.9485 1153.4227 1062.2031)" class="st10 st3 st9">c</text>
	<text transform="matrix(0.85 0 -0.3169 0.9485 1158.6356 1062.2031)" class="st3 st9">e</text>
	<text transform="matrix(0.85 0 -0.3169 0.9485 1158.6356 1062.2031)" class="st10 st3 st9">e</text>
</g>
<path class="st0" d="M391.8,1188.7c1.2,0,2.2,1,2.2,2.2l0,0v46.8l0,0c0,1.2-1,2.2-2.2,2.2l0,0l0,0H284.1l0,0c-1.2,0-2.2-1-2.2-2.2
	l0,0v-46.8c0-1.2,1-2.2,2.2-2.2l0,0H391.8L391.8,1188.7L391.8,1188.7z"/>
<path class="st1" d="M389.2,1186.1c1.2,0,2.2,1,2.2,2.2l0,0v46.8l0,0c0,1.2-1,2.2-2.2,2.2l0,0l0,0H281.5l0,0c-1.2,0-2.2-1-2.2-2.2
	l0,0v-46.8c0-1.2,1-2.2,2.2-2.2l0,0H389.2L389.2,1186.1L389.2,1186.1z"/>
<path class="st2" d="M389.2,1186.1c1.2,0,2.2,1,2.2,2.2l0,0v46.8l0,0c0,1.2-1,2.2-2.2,2.2l0,0l0,0H281.5l0,0c-1.2,0-2.2-1-2.2-2.2
	l0,0v-46.8c0-1.2,1-2.2,2.2-2.2l0,0H389.2L389.2,1186.1L389.2,1186.1z"/>
<text transform="matrix(0.85 0 0 1 298.4531 1203.3879)" class="st3 st4">«FeatureType»</text>
<text transform="matrix(0.85 0 0 1 289.7671 1218.0911)" class="st5 st4">bldg::RoofSurface</text>
<path class="st0" d="M808.5,1188.7c1.2,0,2.2,1,2.2,2.2l0,0v46.8l0,0c0,1.2-1,2.2-2.2,2.2l0,0l0,0H700.8l0,0c-1.2,0-2.2-1-2.2-2.2
	l0,0v-46.8c0-1.2,1-2.2,2.2-2.2l0,0H808.5L808.5,1188.7L808.5,1188.7z"/>
<path class="st1" d="M805.9,1186.1c1.2,0,2.2,1,2.2,2.2l0,0v46.8l0,0c0,1.2-1,2.2-2.2,2.2l0,0l0,0H698.2l0,0c-1.2,0-2.2-1-2.2-2.2
	l0,0v-46.8c0-1.2,1-2.2,2.2-2.2l0,0H805.9L805.9,1186.1L805.9,1186.1z"/>
<path class="st2" d="M805.9,1186.1c1.2,0,2.2,1,2.2,2.2l0,0v46.8l0,0c0,1.2-1,2.2-2.2,2.2l0,0l0,0H698.2l0,0c-1.2,0-2.2-1-2.2-2.2
	l0,0v-46.8c0-1.2,1-2.2,2.2-2.2l0,0H805.9L805.9,1186.1L805.9,1186.1z"/>
<text transform="matrix(0.85 0 0 1 715.125 1203.3879)" class="st3 st4">«FeatureType»</text>
<text transform="matrix(0.85 0 0 1 699.5 1218.0911)" class="st5 st4">bldg::ClosureSurface</text>
<path class="st0" d="M513.3,720.9c1.2,0,2.2,1,2.2,2.2l0,0v72.8l0,0c0,1.2-1,2.2-2.2,2.2l0,0l0,0h-125l0,0c-1.2,0-2.2-1-2.2-2.2l0,0
	v-72.8c0-1.2,1-2.2,2.2-2.2l0,0H513.3L513.3,720.9L513.3,720.9z"/>
<path class="st11" d="M510.7,718.3c1.2,0,2.2,1,2.2,2.2l0,0v72.8l0,0c0,1.2-1,2.2-2.2,2.2l0,0l0,0h-125l0,0c-1.2,0-2.2-1-2.2-2.2
	l0,0v-72.8c0-1.2,1-2.2,2.2-2.2l0,0H510.7L510.7,718.3L510.7,718.3z"/>
<path class="st2" d="M510.7,718.3c1.2,0,2.2,1,2.2,2.2l0,0v72.8l0,0c0,1.2-1,2.2-2.2,2.2l0,0l0,0h-125l0,0c-1.2,0-2.2-1-2.2-2.2l0,0
	v-72.8c0-1.2,1-2.2,2.2-2.2l0,0H510.7L510.7,718.3L510.7,718.3z"/>
<text transform="matrix(0.85 0 -0.3169 0.9485 411.2705 733.0715)" class="st3 st9">_GeometricPrimitive</text>
<text transform="matrix(0.85 0 0 1 430.3916 752.9816)" class="st3 st4">«Type»</text>
<g>
	<text transform="matrix(0.85 0 -0.3169 0.9485 420.8368 767.7201)" class="st3 st9">g</text>
	<text transform="matrix(0.85 0 -0.3169 0.9485 420.8368 767.7201)" class="st10 st3 st9">g</text>
	<text transform="matrix(0.85 0 -0.3169 0.9485 427.7762 767.7201)" class="st3 st9">m</text>
	<text transform="matrix(0.85 0 -0.3169 0.9485 427.7762 767.7201)" class="st10 st3 st9">m</text>
	<text transform="matrix(0.85 0 -0.3169 0.9485 438.1844 767.7201)" class="st3 st9">l</text>
	<text transform="matrix(0.85 0 -0.3169 0.9485 438.1844 767.7201)" class="st10 st3 st9">l</text>
	<text transform="matrix(0.85 0 -0.3169 0.9485 440.7938 767.7201)" class="st3 st9">:</text>
	<text transform="matrix(0.85 0 -0.3169 0.9485 440.7938 767.7201)" class="st10 st3 st9">:</text>
	<text transform="matrix(0.85 0 -0.3169 0.9485 443.3875 767.7201)" class="st3 st9">:</text>
	<text transform="matrix(0.85 0 -0.3169 0.9485 443.3875 767.7201)" class="st10 st3 st9">:</text>
	<text transform="matrix(0.85 0 -0.3169 0.9485 445.9813 767.7201)" class="st3 st9">_</text>
	<text transform="matrix(0.85 0 -0.3169 0.9485 445.9813 767.7201)" class="st10 st3 st9">_</text>
	<text transform="matrix(0.85 0 -0.3169 0.9485 450.325 767.7201)" class="st3 st9">S</text>
	<text transform="matrix(0.85 0 -0.3169 0.9485 450.325 767.7201)" class="st10 st3 st9">S</text>
	<text transform="matrix(0.85 0 -0.3169 0.9485 456.3993 767.7201)" class="st3 st9">o</text>
	<text transform="matrix(0.85 0 -0.3169 0.9485 456.3993 767.7201)" class="st10 st3 st9">o</text>
	<text transform="matrix(0.85 0 -0.3169 0.9485 463.3407 767.7201)" class="st3 st9">l</text>
	<text transform="matrix(0.85 0 -0.3169 0.9485 463.3407 767.7201)" class="st10 st3 st9">l</text>
	<text transform="matrix(0.85 0 -0.3169 0.9485 465.9481 767.7201)" class="st3 st9">i</text>
	<text transform="matrix(0.85 0 -0.3169 0.9485 465.9481 767.7201)" class="st10 st3 st9">i</text>
	<text transform="matrix(0.85 0 -0.3169 0.9485 468.5575 767.7201)" class="st3 st9">d</text>
	<text transform="matrix(0.85 0 -0.3169 0.9485 468.5575 767.7201)" class="st10 st3 st9">d</text>
</g>
<path class="st0" d="M661.8,834.4c1.2,0,2.2,1,2.2,2.2l0,0v64.1l0,0c0,1.2-1,2.2-2.2,2.2l0,0l0,0h-152l0,0c-1.2,0-2.2-1-2.2-2.2l0,0
	v-64.1c0-1.2,1-2.2,2.2-2.2l0,0H661.8L661.8,834.4L661.8,834.4z"/>
<path class="st11" d="M659.2,831.8c1.2,0,2.2,1,2.2,2.2l0,0v64.1l0,0c0,1.2-1,2.2-2.2,2.2l0,0l0,0h-152l0,0c-1.2,0-2.2-1-2.2-2.2
	l0,0V834c0-1.2,1-2.2,2.2-2.2l0,0H659.2L659.2,831.8L659.2,831.8z"/>
<path class="st2" d="M659.2,831.8c1.2,0,2.2,1,2.2,2.2l0,0v64.1l0,0c0,1.2-1,2.2-2.2,2.2l0,0l0,0h-152l0,0c-1.2,0-2.2-1-2.2-2.2l0,0
	V834c0-1.2,1-2.2,2.2-2.2l0,0H659.2L659.2,831.8L659.2,831.8z"/>
<text transform="matrix(0.85 0 -0.3169 0.9485 506.7817 846.5463)" class="st3 st9">_AbstractGeometricAggregate</text>
<text transform="matrix(0.85 0 0 1 564.9531 866.466)" class="st3 st4">«Type»</text>
<text transform="matrix(0.85 0 0 1 538.0469 881.1848)" class="st5 st4">gml::MultiSurface</text>
<path class="st0" d="M714.7,54c1.2,0,2.2,1,2.2,2.2l0,0v105.7l0,0c0,1.2-1,2.2-2.2,2.2l0,0l0,0h-257l0,0c-1.2,0-2.2-1-2.2-2.2l0,0
	V56.2c0-1.2,1-2.2,2.2-2.2l0,0H714.7L714.7,54L714.7,54z"/>
<path class="st1" d="M712.1,51.4c1.2,0,2.2,1,2.2,2.2l0,0v105.7l0,0c0,1.2-1,2.2-2.2,2.2l0,0l0,0h-257l0,0c-1.2,0-2.2-1-2.2-2.2l0,0
	V53.6c0-1.2,1-2.2,2.2-2.2l0,0L712.1,51.4L712.1,51.4L712.1,51.4z"/>
<path class="st2" d="M712.1,51.4c1.2,0,2.2,1,2.2,2.2l0,0v105.7l0,0c0,1.2-1,2.2-2.2,2.2l0,0l0,0h-257l0,0c-1.2,0-2.2-1-2.2-2.2l0,0
	V53.6c0-1.2,1-2.2,2.2-2.2l0,0L712.1,51.4L712.1,51.4L712.1,51.4z"/>
<text transform="matrix(0.85 0 -0.3169 0.9485 668.1602 64.4162)" class="st3 st7">_Feature</text>
<text transform="matrix(0.85 0 0 1 551.0625 82.6066)" class="st3 st6">«FeatureType»</text>
<text transform="matrix(0.85 0 -0.3169 0.9485 545.0176 95.5821)" class="st3 st7">c</text>
<text transform="matrix(0.85 0 -0.3169 0.9485 545.0176 95.5821)" class="st8 st3 st7">c</text>
<text transform="matrix(0.85 0 -0.3169 0.9485 550.2247 95.5821)" class="st3 st7">o</text>
<text transform="matrix(0.85 0 -0.3169 0.9485 550.2247 95.5821)" class="st8 st3 st7">o</text>
<text transform="matrix(0.85 0 -0.3169 0.9485 556.3087 95.5821)" class="st3 st7">r</text>
<text transform="matrix(0.85 0 -0.3169 0.9485 556.3087 95.5821)" class="st8 st3 st7">r</text>
<text transform="matrix(0.85 0 -0.3169 0.9485 559.7833 95.5821)" class="st3 st7">e</text>
<text transform="matrix(0.85 0 -0.3169 0.9485 559.7833 95.5821)" class="st8 st3 st7">e</text>
<text transform="matrix(0.85 0 -0.3169 0.9485 565.002 95.5821)" class="st3 st7">:</text>
<text transform="matrix(0.85 0 -0.3169 0.9485 565.002 95.5821)" class="st8 st3 st7">:</text>
<text transform="matrix(0.85 0 -0.3169 0.9485 567.6075 95.5821)" class="st3 st7">:</text>
<text transform="matrix(0.85 0 -0.3169 0.9485 567.6075 95.5821)" class="st8 st3 st7">:</text>
<text transform="matrix(0.85 0 -0.3169 0.9485 570.2071 95.5821)" class="st3 st7">_</text>
<text transform="matrix(0.85 0 -0.3169 0.9485 570.2071 95.5821)" class="st8 st3 st7">_</text>
<text transform="matrix(0.85 0 -0.3169 0.9485 574.5411 95.5821)" class="st3 st7">C</text>
<text transform="matrix(0.85 0 -0.3169 0.9485 574.5411 95.5821)" class="st8 st3 st7">C</text>
<text transform="matrix(0.85 0 -0.3169 0.9485 580.627 95.5821)" class="st3 st7">i</text>
<text transform="matrix(0.85 0 -0.3169 0.9485 580.627 95.5821)" class="st8 st3 st7">i</text>
<text transform="matrix(0.85 0 -0.3169 0.9485 583.2247 95.5821)" class="st3 st7">t</text>
<text transform="matrix(0.85 0 -0.3169 0.9485 583.2247 95.5821)" class="st8 st3 st7">t</text>
<text transform="matrix(0.85 0 -0.3169 0.9485 586.6993 95.5821)" class="st3 st7">y</text>
<text transform="matrix(0.85 0 -0.3169 0.9485 586.6993 95.5821)" class="st8 st3 st7">y</text>
<text transform="matrix(0.85 0 -0.3169 0.9485 591.9083 95.5821)" class="st3 st7">O</text>
<text transform="matrix(0.85 0 -0.3169 0.9485 591.9083 95.5821)" class="st8 st3 st7">O</text>
<text transform="matrix(0.85 0 -0.3169 0.9485 599.7325 95.5821)" class="st3 st7">b</text>
<text transform="matrix(0.85 0 -0.3169 0.9485 599.7325 95.5821)" class="st8 st3 st7">b</text>
<text transform="matrix(0.85 0 -0.3169 0.9485 605.8145 95.5821)" class="st3 st7">j</text>
<text transform="matrix(0.85 0 -0.3169 0.9485 605.8145 95.5821)" class="st8 st3 st7">j</text>
<text transform="matrix(0.85 0 -0.3169 0.9485 608.4083 95.5821)" class="st3 st7">e</text>
<text transform="matrix(0.85 0 -0.3169 0.9485 608.4083 95.5821)" class="st8 st3 st7">e</text>
<text transform="matrix(0.85 0 -0.3169 0.9485 613.627 95.5821)" class="st3 st7">c</text>
<text transform="matrix(0.85 0 -0.3169 0.9485 613.627 95.5821)" class="st8 st3 st7">c</text>
<text transform="matrix(0.85 0 -0.3169 0.9485 618.834 95.5821)" class="st3 st7">t</text>
<text transform="matrix(0.85 0 -0.3169 0.9485 618.834 95.5821)" class="st8 st3 st7">t</text>
<line class="st2" x1="453" y1="102.5" x2="714.3" y2="102.5"/>
<text transform="matrix(0.85 0 0 1 457.3125 116.3713)" class="st3 st6">+ creationDate: xs::date [0..1]</text>
<text transform="matrix(0.85 0 0 1 457.3125 129.3869)" class="st3 st6">+ terminationDate: xs::date [0..1]</text>
<text transform="matrix(0.85 0 0 1 457.3125 142.3566)" class="st3 st6">+ relativeToTerrain: core::RelativeToTerrainType [0..1]</text>
<text transform="matrix(0.85 0 0 1 457.3125 155.3713)" class="st3 st6">+ relativeToWater: core::RelativeToWaterType [0..1]</text>
<path class="st0" d="M270.2,1275.3c1.2,0,2.2,1,2.2,2.2l0,0v64.1l0,0c0,1.2-1,2.2-2.2,2.2l0,0l0,0h-99l0,0c-1.2,0-2.2-1-2.2-2.2l0,0
	v-64.1c0-1.2,1-2.2,2.2-2.2l0,0H270.2L270.2,1275.3L270.2,1275.3z"/>
<path class="st1" d="M267.6,1272.7c1.2,0,2.2,1,2.2,2.2l0,0v64.1l0,0c0,1.2-1,2.2-2.2,2.2l0,0l0,0h-99l0,0c-1.2,0-2.2-1-2.2-2.2l0,0
	v-64.1c0-1.2,1-2.2,2.2-2.2l0,0H267.6L267.6,1272.7L267.6,1272.7z"/>
<path class="st2" d="M267.6,1272.7c1.2,0,2.2,1,2.2,2.2l0,0v64.1l0,0c0,1.2-1,2.2-2.2,2.2l0,0l0,0h-99l0,0c-1.2,0-2.2-1-2.2-2.2l0,0
	v-64.1c0-1.2,1-2.2,2.2-2.2l0,0H267.6L267.6,1272.7L267.6,1272.7z"/>
<text transform="matrix(0.85 0 -0.3169 0.9485 224.6998 1285.6736)" class="st3 st7">_Feature</text>
<text transform="matrix(0.85 0 0 1 185.5947 1303.8567)" class="st3 st6">«FeatureType»</text>
<text transform="matrix(0.85 0 0 1 187.3447 1316.8411)" class="st5 st6">core::Address</text>
<path class="st0" d="M713,1266.6c1.2,0,2.2,1,2.2,2.2l0,0v46.8l0,0c0,1.2-1,2.2-2.2,2.2l0,0l0,0H588l0,0c-1.2,0-2.2-1-2.2-2.2l0,0
	v-46.8c0-1.2,1-2.2,2.2-2.2l0,0H713L713,1266.6L713,1266.6z"/>
<path class="st1" d="M710.4,1264c1.2,0,2.2,1,2.2,2.2l0,0v46.8l0,0c0,1.2-1,2.2-2.2,2.2l0,0l0,0h-125l0,0c-1.2,0-2.2-1-2.2-2.2l0,0
	v-46.8c0-1.2,1-2.2,2.2-2.2l0,0H710.4L710.4,1264L710.4,1264z"/>
<path class="st2" d="M710.4,1264c1.2,0,2.2,1,2.2,2.2l0,0v46.8l0,0c0,1.2-1,2.2-2.2,2.2l0,0l0,0h-125l0,0c-1.2,0-2.2-1-2.2-2.2l0,0
	v-46.8c0-1.2,1-2.2,2.2-2.2l0,0H710.4L710.4,1264L710.4,1264z"/>
<text transform="matrix(0.85 0 0 1 610.9688 1281.3411)" class="st3 st4">«FeatureType»</text>
<text transform="matrix(0.85 0 0 1 585.7969 1296.0598)" class="st5 st4">bldg::OuterFloorSurface</text>
<path class="st0" d="M921.3,1266.6c1.2,0,2.2,1,2.2,2.2l0,0v46.8l0,0c0,1.2-1,2.2-2.2,2.2l0,0l0,0H805l0,0c-1.2,0-2.2-1-2.2-2.2l0,0
	v-46.8c0-1.2,1-2.2,2.2-2.2l0,0H921.3L921.3,1266.6L921.3,1266.6z"/>
<path class="st1" d="M918.7,1264c1.2,0,2.2,1,2.2,2.2l0,0v46.8l0,0c0,1.2-1,2.2-2.2,2.2l0,0l0,0H802.4l0,0c-1.2,0-2.2-1-2.2-2.2l0,0
	v-46.8c0-1.2,1-2.2,2.2-2.2l0,0H918.7L918.7,1264L918.7,1264z"/>
<path class="st2" d="M918.7,1264c1.2,0,2.2,1,2.2,2.2l0,0v46.8l0,0c0,1.2-1,2.2-2.2,2.2l0,0l0,0H802.4l0,0c-1.2,0-2.2-1-2.2-2.2l0,0
	v-46.8c0-1.2,1-2.2,2.2-2.2l0,0H918.7L918.7,1264L918.7,1264z"/>
<text transform="matrix(0.85 0 0 1 823.6562 1281.3411)" class="st3 st4">«FeatureType»</text>
<text transform="matrix(0.85 0 0 1 807.1562 1296.0598)" class="st5 st4">bldg::GroundSurface</text>
<path class="st0" d="M307.6,88.7c1.2,0,2.2,1,2.2,2.2l0,0V155l0,0c0,1.2-1,2.2-2.2,2.2l0,0l0,0H197.3l0,0c-1.2,0-2.2-1-2.2-2.2l0,0
	V90.8c0-1.2,1-2.2,2.2-2.2l0,0L307.6,88.7L307.6,88.7L307.6,88.7z"/>
<path class="st1" d="M305,86.1c1.2,0,2.2,1,2.2,2.2l0,0v64.1l0,0c0,1.2-1,2.2-2.2,2.2l0,0l0,0H194.7l0,0c-1.2,0-2.2-1-2.2-2.2l0,0
	V88.2c0-1.2,1-2.2,2.2-2.2l0,0L305,86.1L305,86.1L305,86.1z"/>
<path class="st2" d="M305,86.1c1.2,0,2.2,1,2.2,2.2l0,0v64.1l0,0c0,1.2-1,2.2-2.2,2.2l0,0l0,0H194.7l0,0c-1.2,0-2.2-1-2.2-2.2l0,0
	V88.2c0-1.2,1-2.2,2.2-2.2l0,0L305,86.1L305,86.1L305,86.1z"/>
<text transform="matrix(0.85 0 0 1 223.7974 101.6525)" class="st3 st6">«DataType»</text>
<text transform="matrix(0.85 0 -0.3169 0.9485 199.5096 114.6403)" class="st3 st7">g</text>
<text transform="matrix(0.85 0 -0.3169 0.9485 199.5096 114.6403)" class="st8 st3 st7">g</text>
<text transform="matrix(0.85 0 -0.3169 0.9485 205.5916 114.6403)" class="st3 st7">e</text>
<text transform="matrix(0.85 0 -0.3169 0.9485 205.5916 114.6403)" class="st8 st3 st7">e</text>
<text transform="matrix(0.85 0 -0.3169 0.9485 210.8104 114.6403)" class="st3 st7">n</text>
<text transform="matrix(0.85 0 -0.3169 0.9485 210.8104 114.6403)" class="st8 st3 st7">n</text>
<text transform="matrix(0.85 0 -0.3169 0.9485 216.8826 114.6403)" class="st3 st7">:</text>
<text transform="matrix(0.85 0 -0.3169 0.9485 216.8826 114.6403)" class="st8 st3 st7">:</text>
<text transform="matrix(0.85 0 -0.3169 0.9485 219.4861 114.6403)" class="st3 st7">:</text>
<text transform="matrix(0.85 0 -0.3169 0.9485 219.4861 114.6403)" class="st8 st3 st7">:</text>
<text transform="matrix(0.85 0 -0.3169 0.9485 222.0877 114.6403)" class="st3 st7">_</text>
<text transform="matrix(0.85 0 -0.3169 0.9485 222.0877 114.6403)" class="st8 st3 st7">_</text>
<text transform="matrix(0.85 0 -0.3169 0.9485 226.4236 114.6403)" class="st3 st7">g</text>
<text transform="matrix(0.85 0 -0.3169 0.9485 226.4236 114.6403)" class="st8 st3 st7">g</text>
<text transform="matrix(0.85 0 -0.3169 0.9485 232.5057 114.6403)" class="st3 st7">e</text>
<text transform="matrix(0.85 0 -0.3169 0.9485 232.5057 114.6403)" class="st8 st3 st7">e</text>
<text transform="matrix(0.85 0 -0.3169 0.9485 237.7244 114.6403)" class="st3 st7">n</text>
<text transform="matrix(0.85 0 -0.3169 0.9485 237.7244 114.6403)" class="st8 st3 st7">n</text>
<text transform="matrix(0.85 0 -0.3169 0.9485 243.7947 114.6403)" class="st3 st7">e</text>
<text transform="matrix(0.85 0 -0.3169 0.9485 243.7947 114.6403)" class="st8 st3 st7">e</text>
<text transform="matrix(0.85 0 -0.3169 0.9485 249.0135 114.6403)" class="st3 st7">r</text>
<text transform="matrix(0.85 0 -0.3169 0.9485 249.0135 114.6403)" class="st8 st3 st7">r</text>
<text transform="matrix(0.85 0 -0.3169 0.9485 252.4901 114.6403)" class="st3 st7">i</text>
<text transform="matrix(0.85 0 -0.3169 0.9485 252.4901 114.6403)" class="st8 st3 st7">i</text>
<text transform="matrix(0.85 0 -0.3169 0.9485 255.0838 114.6403)" class="st3 st7">c</text>
<text transform="matrix(0.85 0 -0.3169 0.9485 255.0838 114.6403)" class="st8 st3 st7">c</text>
<text transform="matrix(0.85 0 -0.3169 0.9485 260.2947 114.6403)" class="st3 st7">A</text>
<text transform="matrix(0.85 0 -0.3169 0.9485 260.2947 114.6403)" class="st8 st3 st7">A</text>
<text transform="matrix(0.85 0 -0.3169 0.9485 267.2322 114.6403)" class="st3 st7">t</text>
<text transform="matrix(0.85 0 -0.3169 0.9485 267.2322 114.6403)" class="st8 st3 st7">t</text>
<text transform="matrix(0.85 0 -0.3169 0.9485 270.7088 114.6403)" class="st3 st7">t</text>
<text transform="matrix(0.85 0 -0.3169 0.9485 270.7088 114.6403)" class="st8 st3 st7">t</text>
<text transform="matrix(0.85 0 -0.3169 0.9485 274.1893 114.6403)" class="st3 st7">r</text>
<text transform="matrix(0.85 0 -0.3169 0.9485 274.1893 114.6403)" class="st8 st3 st7">r</text>
<text transform="matrix(0.85 0 -0.3169 0.9485 277.6619 114.6403)" class="st3 st7">i</text>
<text transform="matrix(0.85 0 -0.3169 0.9485 277.6619 114.6403)" class="st8 st3 st7">i</text>
<text transform="matrix(0.85 0 -0.3169 0.9485 280.2576 114.6403)" class="st3 st7">b</text>
<text transform="matrix(0.85 0 -0.3169 0.9485 280.2576 114.6403)" class="st8 st3 st7">b</text>
<text transform="matrix(0.85 0 -0.3169 0.9485 286.3416 114.6403)" class="st3 st7">u</text>
<text transform="matrix(0.85 0 -0.3169 0.9485 286.3416 114.6403)" class="st8 st3 st7">u</text>
<text transform="matrix(0.85 0 -0.3169 0.9485 292.4158 114.6403)" class="st3 st7">t</text>
<text transform="matrix(0.85 0 -0.3169 0.9485 292.4158 114.6403)" class="st8 st3 st7">t</text>
<text transform="matrix(0.85 0 -0.3169 0.9485 295.8904 114.6403)" class="st3 st7">e</text>
<text transform="matrix(0.85 0 -0.3169 0.9485 295.8904 114.6403)" class="st8 st3 st7">e</text>
<line class="st2" x1="192.5" y1="121.6" x2="307.1" y2="121.6"/>
<text transform="matrix(0.85 0 0 1 196.8916 135.4348)" class="st3 st6">+ name: xs::string</text>
<path class="st0" d="M331.9,235.9c1.2,0,2.2,1,2.2,2.2l0,0v134.3l0,0c0,1.2-1,2.2-2.2,2.2l0,0l0,0h-82.5l0,0c-1.2,0-2.2-1-2.2-2.2
	l0,0V238.1c0-1.2,1-2.2,2.2-2.2l0,0L331.9,235.9L331.9,235.9L331.9,235.9z"/>
<path class="st11" d="M329.3,233.3c1.2,0,2.2,1,2.2,2.2l0,0v134.3l0,0c0,1.2-1,2.2-2.2,2.2l0,0l0,0h-82.5l0,0c-1.2,0-2.2-1-2.2-2.2
	l0,0V235.5c0-1.2,1-2.2,2.2-2.2l0,0H329.3L329.3,233.3L329.3,233.3z"/>
<path class="st2" d="M329.3,233.3c1.2,0,2.2,1,2.2,2.2l0,0v134.3l0,0c0,1.2-1,2.2-2.2,2.2l0,0l0,0h-82.5l0,0c-1.2,0-2.2-1-2.2-2.2
	l0,0V235.5c0-1.2,1-2.2,2.2-2.2l0,0H329.3L329.3,233.3L329.3,233.3z"/>
<text transform="matrix(0.85 0 0 1 273.2822 247.1525)" class="st12 st13">«Type»</text>
<text transform="matrix(0.85 0 0 1 255.9072 258.4348)" class="st14 st13">g</text>
<text transform="matrix(0.85 0 0 1 261.1104 258.4348)" class="st14 st13">m</text>
<text transform="matrix(0.85 0 0 1 268.9185 258.4348)" class="st14 st13">l</text>
<text transform="matrix(0.85 0 0 1 271.5205 258.4348)" class="st14 st13">:</text>
<text transform="matrix(0.85 0 0 1 274.127 258.4348)" class="st14 st13">:</text>
<text transform="matrix(0.85 0 0 1 276.7339 258.4348)" class="st14 st13">_</text>
<text transform="matrix(0.85 0 0 1 281.0781 258.4348)" class="st14 st13">G</text>
<text transform="matrix(0.85 0 0 1 287.1621 258.4348)" class="st14 st13">e</text>
<text transform="matrix(0.85 0 0 1 291.5098 258.4348)" class="st14 st13">o</text>
<text transform="matrix(0.85 0 0 1 296.7183 258.4348)" class="st14 st13">m</text>
<text transform="matrix(0.85 0 0 1 304.5269 258.4348)" class="st14 st13">e</text>
<text transform="matrix(0.85 0 0 1 308.873 258.4348)" class="st14 st13">t</text>
<text transform="matrix(0.85 0 0 1 312.3369 258.4348)" class="st14 st13">r</text>
<text transform="matrix(0.85 0 0 1 315.8027 258.4348)" class="st14 st13">y</text>
<path class="st0" d="M209.5,946.1c1.2,0,2.2,1,2.2,2.2l0,0v55.4l0,0c0,1.2-1,2.2-2.2,2.2l0,0l0,0h-99l0,0c-1.2,0-2.2-1-2.2-2.2l0,0
	v-55.4c0-1.2,1-2.2,2.2-2.2l0,0H209.5L209.5,946.1L209.5,946.1z"/>
<path class="st1" d="M206.9,943.5c1.2,0,2.2,1,2.2,2.2l0,0v55.4l0,0c0,1.2-1,2.2-2.2,2.2l0,0l0,0h-99l0,0c-1.2,0-2.2-1-2.2-2.2l0,0
	v-55.4c0-1.2,1-2.2,2.2-2.2l0,0H206.9L206.9,943.5L206.9,943.5z"/>
<path class="st2" d="M206.9,943.5c1.2,0,2.2,1,2.2,2.2l0,0v55.4l0,0c0,1.2-1,2.2-2.2,2.2l0,0l0,0h-99l0,0c-1.2,0-2.2-1-2.2-2.2l0,0
	v-55.4c0-1.2,1-2.2,2.2-2.2l0,0H206.9L206.9,943.5L206.9,943.5z"/>
<text transform="matrix(0.85 0 0 1 126.5625 957.4035)" class="st12 st13">«FeatureType»</text>
<text transform="matrix(0.85 0 0 1 126.5625 968.6691)" class="st14 st13">b</text>
<text transform="matrix(0.85 0 0 1 131.7666 968.6691)" class="st14 st13">l</text>
<text transform="matrix(0.85 0 0 1 134.3691 968.6691)" class="st14 st13">d</text>
<text transform="matrix(0.85 0 0 1 139.5718 968.6691)" class="st14 st13">g</text>
<text transform="matrix(0.85 0 0 1 144.7744 968.6691)" class="st14 st13">:</text>
<text transform="matrix(0.85 0 0 1 147.3804 968.6691)" class="st14 st13">:</text>
<text transform="matrix(0.85 0 0 1 149.9863 968.6691)" class="st14 st13">_</text>
<text transform="matrix(0.85 0 0 1 154.332 968.6691)" class="st14 st13">O</text>
<text transform="matrix(0.85 0 0 1 160.4097 968.6691)" class="st14 st13">p</text>
<text transform="matrix(0.85 0 0 1 165.6113 968.6691)" class="st14 st13">e</text>
<text transform="matrix(0.85 0 0 1 169.9595 968.6691)" class="st14 st13">n</text>
<text transform="matrix(0.85 0 0 1 175.166 968.6691)" class="st14 st13">i</text>
<text transform="matrix(0.85 0 0 1 177.7695 968.6691)" class="st14 st13">n</text>
<text transform="matrix(0.85 0 0 1 182.9775 968.6691)" class="st14 st13">g</text>
<path class="st0" d="M132.2,1093.4c1.2,0,2.2,1,2.2,2.2l0,0v38.1l0,0c0,1.2-1,2.2-2.2,2.2l0,0l0,0H32.4l0,0c-1.2,0-2.2-1-2.2-2.2
	l0,0v-38.1c0-1.2,1-2.2,2.2-2.2l0,0H132.2L132.2,1093.4L132.2,1093.4z"/>
<path class="st1" d="M129.6,1090.8c1.2,0,2.2,1,2.2,2.2l0,0v38.1l0,0c0,1.2-1,2.2-2.2,2.2l0,0l0,0H29.8l0,0c-1.2,0-2.2-1-2.2-2.2
	l0,0V1093c0-1.2,1-2.2,2.2-2.2l0,0H129.6L129.6,1090.8L129.6,1090.8z"/>
<path class="st2" d="M129.6,1090.8c1.2,0,2.2,1,2.2,2.2l0,0v38.1l0,0c0,1.2-1,2.2-2.2,2.2l0,0l0,0H29.8l0,0c-1.2,0-2.2-1-2.2-2.2
	l0,0V1093c0-1.2,1-2.2,2.2-2.2l0,0H129.6L129.6,1090.8L129.6,1090.8z"/>
<text transform="matrix(0.85 0 0 1 43.2197 1108.0911)" class="st3 st4">«FeatureType»</text>
<text transform="matrix(0.85 0 0 1 44.0947 1122.8254)" class="st5 st4">bldg::Window</text>
<path class="st0" d="M261.6,1093.4c1.2,0,2.2,1,2.2,2.2l0,0v38.1l0,0c0,1.2-1,2.2-2.2,2.2l0,0l0,0h-99l0,0c-1.2,0-2.2-1-2.2-2.2l0,0
	v-38.1c0-1.2,1-2.2,2.2-2.2l0,0H261.6L261.6,1093.4L261.6,1093.4z"/>
<path class="st1" d="M259,1090.8c1.2,0,2.2,1,2.2,2.2l0,0v38.1l0,0c0,1.2-1,2.2-2.2,2.2l0,0l0,0h-99l0,0c-1.2,0-2.2-1-2.2-2.2l0,0
	V1093c0-1.2,1-2.2,2.2-2.2l0,0H259L259,1090.8L259,1090.8z"/>
<path class="st2" d="M259,1090.8c1.2,0,2.2,1,2.2,2.2l0,0v38.1l0,0c0,1.2-1,2.2-2.2,2.2l0,0l0,0h-99l0,0c-1.2,0-2.2-1-2.2-2.2l0,0
	V1093c0-1.2,1-2.2,2.2-2.2l0,0H259L259,1090.8L259,1090.8z"/>
<text transform="matrix(0.85 0 0 1 172.5781 1108.0911)" class="st3 st4">«FeatureType»</text>
<text transform="matrix(0.85 0 0 1 182.1265 1122.8254)" class="st5 st4">bldg::Door</text>
<path class="st0" d="M1207.8,1197.3c1.2,0,2.2,1,2.2,2.2l0,0v46.8l0,0c0,1.2-1,2.2-2.2,2.2l0,0l0,0h-116.3l0,0c-1.2,0-2.2-1-2.2-2.2
	l0,0v-46.8c0-1.2,1-2.2,2.2-2.2l0,0H1207.8L1207.8,1197.3L1207.8,1197.3z"/>
<path class="st1" d="M1205.2,1194.7c1.2,0,2.2,1,2.2,2.2l0,0v46.8l0,0c0,1.2-1,2.2-2.2,2.2l0,0l0,0h-116.3l0,0c-1.2,0-2.2-1-2.2-2.2
	l0,0v-46.8c0-1.2,1-2.2,2.2-2.2l0,0H1205.2L1205.2,1194.7L1205.2,1194.7z"/>
<path class="st2" d="M1205.2,1194.7c1.2,0,2.2,1,2.2,2.2l0,0v46.8l0,0c0,1.2-1,2.2-2.2,2.2l0,0l0,0h-116.3l0,0c-1.2,0-2.2-1-2.2-2.2
	l0,0v-46.8c0-1.2,1-2.2,2.2-2.2l0,0H1205.2L1205.2,1194.7L1205.2,1194.7z"/>
<text transform="matrix(0.85 0 0 1 1110.125 1212.0442)" class="st3 st4">«FeatureType»</text>
<text transform="matrix(0.85 0 0 1 1096.25 1226.7786)" class="st5 st4">bldg::CeilingSurface</text>
<path class="st0" d="M1025.5,1197.3c1.2,0,2.2,1,2.2,2.2l0,0v46.8l0,0c0,1.2-1,2.2-2.2,2.2l0,0l0,0H891.8l0,0c-1.2,0-2.2-1-2.2-2.2
	l0,0v-46.8c0-1.2,1-2.2,2.2-2.2l0,0H1025.5L1025.5,1197.3L1025.5,1197.3z"/>
<path class="st1" d="M1022.9,1194.7c1.2,0,2.2,1,2.2,2.2l0,0v46.8l0,0c0,1.2-1,2.2-2.2,2.2l0,0l0,0H889.2l0,0c-1.2,0-2.2-1-2.2-2.2
	l0,0v-46.8c0-1.2,1-2.2,2.2-2.2l0,0H1022.9L1022.9,1194.7L1022.9,1194.7z"/>
<path class="st2" d="M1022.9,1194.7c1.2,0,2.2,1,2.2,2.2l0,0v46.8l0,0c0,1.2-1,2.2-2.2,2.2l0,0l0,0H889.2l0,0c-1.2,0-2.2-1-2.2-2.2
	l0,0v-46.8c0-1.2,1-2.2,2.2-2.2l0,0H1022.9L1022.9,1194.7L1022.9,1194.7z"/>
<text transform="matrix(0.85 0 0 1 919.1406 1212.0442)" class="st3 st4">«FeatureType»</text>
<text transform="matrix(0.85 0 0 1 892.2344 1226.7786)" class="st5 st4">bldg::InteriorWallSurface</text>
<path class="st0" d="M272,469.8c1.2,0,2.2,1,2.2,2.2l0,0v85.7l0,0c0,1.2-1,2.2-2.2,2.2l0,0l0,0H101.8l0,0c-1.2,0-2.2-1-2.2-2.2l0,0
	V472c0-1.2,1-2.2,2.2-2.2l0,0H272L272,469.8L272,469.8z"/>
<path class="st1" d="M269.4,467.2c1.2,0,2.2,1,2.2,2.2l0,0v85.7l0,0c0,1.2-1,2.2-2.2,2.2l0,0l0,0H99.2l0,0c-1.2,0-2.2-1-2.2-2.2l0,0
	v-85.7c0-1.2,1-2.2,2.2-2.2l0,0H269.4L269.4,467.2L269.4,467.2z"/>
<path class="st2" d="M269.4,467.2c1.2,0,2.2,1,2.2,2.2l0,0v85.7l0,0c0,1.2-1,2.2-2.2,2.2l0,0l0,0H99.2l0,0c-1.2,0-2.2-1-2.2-2.2l0,0
	v-85.7c0-1.2,1-2.2,2.2-2.2l0,0H269.4L269.4,467.2L269.4,467.2z"/>
<text transform="matrix(0.85 0 0 1 147.4072 484.4816)" class="st3 st4">«FeatureType»</text>
<text transform="matrix(0.85 0 0 1 124.8125 499.216)" class="st5 st4">bldg::BuildingFurniture</text>
<line class="st2" x1="97.1" y1="506.1" x2="271.5" y2="506.1"/>
<text transform="matrix(0.85 0 0 1 101.3765 521.7316)" class="st3 st4">+ class: gml::CodeType [0..1]</text>
<text transform="matrix(0.85 0 0 1 101.3765 536.466)" class="st3 st4">+ function: gml::CodeType [0..*]</text>
<text transform="matrix(0.85 0 0 1 101.3765 551.1848)" class="st3 st4">+ usage: gml::CodeType [0..*]</text>
<path class="st0" d="M584.5,391.8c1.2,0,2.2,1,2.2,2.2l0,0v100.5l0,0c0,1.2-1,2.2-2.2,2.2l0,0l0,0H414.3l0,0c-1.2,0-2.2-1-2.2-2.2
	l0,0V394c0-1.2,1-2.2,2.2-2.2l0,0H584.5L584.5,391.8L584.5,391.8z"/>
<path class="st1" d="M581.9,389.2c1.2,0,2.2,1,2.2,2.2l0,0v100.5l0,0c0,1.2-1,2.2-2.2,2.2l0,0l0,0H411.7l0,0c-1.2,0-2.2-1-2.2-2.2
	l0,0V391.4c0-1.2,1-2.2,2.2-2.2l0,0L581.9,389.2L581.9,389.2L581.9,389.2z"/>
<path class="st2" d="M581.9,389.2c1.2,0,2.2,1,2.2,2.2l0,0v100.5l0,0c0,1.2-1,2.2-2.2,2.2l0,0l0,0H411.7l0,0c-1.2,0-2.2-1-2.2-2.2
	l0,0V391.4c0-1.2,1-2.2,2.2-2.2l0,0L581.9,389.2L581.9,389.2L581.9,389.2z"/>
<text transform="matrix(0.85 0 0 1 459.9219 406.5275)" class="st3 st4">«FeatureType»</text>
<text transform="matrix(0.85 0 0 1 425.1875 421.2619)" class="st5 st4">bldg::IntBuildingInstallation</text>
<line class="st2" x1="409.6" y1="428.2" x2="584.1" y2="428.2"/>
<text transform="matrix(0.85 0 0 1 413.9072 443.7775)" class="st3 st4">+ class: gml::CodeType [0..1]</text>
<text transform="matrix(0.85 0 0 1 413.9072 458.5119)" class="st3 st4">+ function: gml::CodeType [0..*]</text>
<text transform="matrix(0.85 0 0 1 413.9072 473.2316)" class="st3 st4">+ usage: gml::CodeType [0..*]</text>
<path class="st0" d="M245.9,634.3c1.2,0,2.2,1,2.2,2.2l0,0v85.7l0,0c0,1.2-1,2.2-2.2,2.2l0,0l0,0H75.8l0,0c-1.2,0-2.2-1-2.2-2.2l0,0
	v-85.7c0-1.2,1-2.2,2.2-2.2l0,0H245.9L245.9,634.3L245.9,634.3z"/>
<path class="st1" d="M243.3,631.7c1.2,0,2.2,1,2.2,2.2l0,0v85.7l0,0c0,1.2-1,2.2-2.2,2.2l0,0l0,0H73.2l0,0c-1.2,0-2.2-1-2.2-2.2l0,0
	v-85.7c0-1.2,1-2.2,2.2-2.2l0,0H243.3L243.3,631.7L243.3,631.7z"/>
<path class="st2" d="M243.3,631.7c1.2,0,2.2,1,2.2,2.2l0,0v85.7l0,0c0,1.2-1,2.2-2.2,2.2l0,0l0,0H73.2l0,0c-1.2,0-2.2-1-2.2-2.2l0,0
	v-85.7c0-1.2,1-2.2,2.2-2.2l0,0H243.3L243.3,631.7L243.3,631.7z"/>
<text transform="matrix(0.85 0 0 1 121.3604 649.0598)" class="st3 st4">«FeatureType»</text>
<text transform="matrix(0.85 0 0 1 128.2974 663.7785)" class="st5 st4">bldg::Room</text>
<line class="st2" x1="71" y1="670.7" x2="245.5" y2="670.7"/>
<text transform="matrix(0.85 0 0 1 75.3447 686.3098)" class="st3 st4">+ class: gml::CodeType [0..1]</text>
<text transform="matrix(0.85 0 0 1 75.3447 701.0285)" class="st3 st4">+ function: gml::CodeType [0..*]</text>
<text transform="matrix(0.85 0 0 1 75.3447 715.7473)" class="st3 st4">+ usage: gml::CodeType [0..*]</text>
<path class="st0" d="M1121,1266.6c1.2,0,2.2,1,2.2,2.2l0,0v46.8l0,0c0,1.2-1,2.2-2.2,2.2l0,0l0,0h-107.6l0,0c-1.2,0-2.2-1-2.2-2.2
	l0,0v-46.8c0-1.2,1-2.2,2.2-2.2l0,0H1121L1121,1266.6L1121,1266.6z"/>
<path class="st1" d="M1118.4,1264c1.2,0,2.2,1,2.2,2.2l0,0v46.8l0,0c0,1.2-1,2.2-2.2,2.2l0,0l0,0h-107.6l0,0c-1.2,0-2.2-1-2.2-2.2
	l0,0v-46.8c0-1.2,1-2.2,2.2-2.2l0,0H1118.4L1118.4,1264L1118.4,1264z"/>
<path class="st2" d="M1118.4,1264c1.2,0,2.2,1,2.2,2.2l0,0v46.8l0,0c0,1.2-1,2.2-2.2,2.2l0,0l0,0h-107.6l0,0c-1.2,0-2.2-1-2.2-2.2
	l0,0v-46.8c0-1.2,1-2.2,2.2-2.2l0,0H1118.4L1118.4,1264L1118.4,1264z"/>
<text transform="matrix(0.85 0 0 1 1027.6562 1281.3411)" class="st3 st4">«FeatureType»</text>
<text transform="matrix(0.85 0 0 1 1018.1094 1296.0598)" class="st5 st4">bldg::FloorSurface</text>
<path class="st0" d="M600.1,1188.7c1.2,0,2.2,1,2.2,2.2l0,0v46.8l0,0c0,1.2-1,2.2-2.2,2.2l0,0l0,0H483.8l0,0c-1.2,0-2.2-1-2.2-2.2
	l0,0v-46.8c0-1.2,1-2.2,2.2-2.2l0,0H600.1L600.1,1188.7L600.1,1188.7z"/>
<path class="st1" d="M597.5,1186.1c1.2,0,2.2,1,2.2,2.2l0,0v46.8l0,0c0,1.2-1,2.2-2.2,2.2l0,0l0,0H481.2l0,0c-1.2,0-2.2-1-2.2-2.2
	l0,0v-46.8c0-1.2,1-2.2,2.2-2.2l0,0H597.5L597.5,1186.1L597.5,1186.1z"/>
<path class="st2" d="M597.5,1186.1c1.2,0,2.2,1,2.2,2.2l0,0v46.8l0,0c0,1.2-1,2.2-2.2,2.2l0,0l0,0H481.2l0,0c-1.2,0-2.2-1-2.2-2.2
	l0,0v-46.8c0-1.2,1-2.2,2.2-2.2l0,0H597.5L597.5,1186.1L597.5,1186.1z"/>
<text transform="matrix(0.85 0 0 1 502.4531 1203.3879)" class="st3 st4">«FeatureType»</text>
<text transform="matrix(0.85 0 0 1 494.6416 1218.0911)" class="st5 st4">bldg::WallSurface</text>
<path class="st15" d="M931.3,25.4c1.4,0,2.6,1.2,2.6,2.6l0,0v80.6l0,0c0,1.4-1.2,2.6-2.6,2.6l0,0l0,0h-145l0,0
	c-1.4,0-2.6-1.2-2.6-2.6V28c0-1.4,1.2-2.6,2.6-2.6l0,0H931.3L931.3,25.4L931.3,25.4z"/>
<path class="st16" d="M931.3,25.4c1.4,0,2.6,1.2,2.6,2.6l0,0v80.6l0,0c0,1.4-1.2,2.6-2.6,2.6l0,0l0,0h-145l0,0
	c-1.4,0-2.6-1.2-2.6-2.6V28c0-1.4,1.2-2.6,2.6-2.6l0,0H931.3L931.3,25.4L931.3,25.4z"/>
<path class="st11" d="M804.1,51.4c1.2,0,2.2,1,2.2,2.2l0,0v9.5l0,0c0,1.2-1,2.2-2.2,2.2l0,0l0,0h-9.6l0,0c-1.2,0-2.2-1-2.2-2.2l0,0
	v-9.5c0-1.2,1-2.2,2.2-2.2l0,0H804.1L804.1,51.4L804.1,51.4z"/>
<path class="st17" d="M804.1,51.4c1.2,0,2.2,1,2.2,2.2l0,0v9.5l0,0c0,1.2-1,2.2-2.2,2.2l0,0l0,0h-9.6l0,0c-1.2,0-2.2-1-2.2-2.2l0,0
	v-9.5c0-1.2,1-2.2,2.2-2.2l0,0H804.1L804.1,51.4L804.1,51.4z"/>
<text transform="matrix(0.85 0 0 1 811.5 62.6848)" class="st18 st3 st6">GMLに定義されたクラス</text>
<path class="st1" d="M804.1,67.9c1.2,0,2.2,1,2.2,2.2l0,0v9.5l0,0c0,1.2-1,2.2-2.2,2.2l0,0l0,0h-9.6l0,0c-1.2,0-2.2-1-2.2-2.2l0,0
	V70c0-1.2,1-2.2,2.2-2.2l0,0L804.1,67.9L804.1,67.9L804.1,67.9z"/>
<path class="st17" d="M804.1,67.9c1.2,0,2.2,1,2.2,2.2l0,0v9.5l0,0c0,1.2-1,2.2-2.2,2.2l0,0l0,0h-9.6l0,0c-1.2,0-2.2-1-2.2-2.2l0,0
	V70c0-1.2,1-2.2,2.2-2.2l0,0L804.1,67.9L804.1,67.9L804.1,67.9z"/>
<text transform="matrix(0.85 0 0 1 811.5 79.1369)" class="st18 st3 st6">CityGMLに定義されたクラス</text>
<path class="st19" d="M804.1,84.3c1.2,0,2.2,1,2.2,2.2l0,0V96l0,0c0,1.2-1,2.2-2.2,2.2l0,0l0,0h-9.6l0,0c-1.2,0-2.2-1-2.2-2.2l0,0
	v-9.5c0-1.2,1-2.2,2.2-2.2l0,0H804.1L804.1,84.3L804.1,84.3z"/>
<path class="st17" d="M804.1,84.3c1.2,0,2.2,1,2.2,2.2l0,0V96l0,0c0,1.2-1,2.2-2.2,2.2l0,0l0,0h-9.6l0,0c-1.2,0-2.2-1-2.2-2.2l0,0
	v-9.5c0-1.2,1-2.2,2.2-2.2l0,0H804.1L804.1,84.3L804.1,84.3z"/>
<text transform="matrix(0.85 0 0 1 811.5 95.591)" class="st18 st3 st6">i-URに定義されたクラス</text>
<text transform="matrix(0.85 0 0 1 845.375 43.6223)" class="st18 st20 st21">凡例</text>
<text transform="matrix(0.85 0 0 1 845.375 43.6223)" class="st22 st20 st21">凡例</text>
<line class="st23" x1="308.9" y1="112.9" x2="452.1" y2="112.9"/>
<polyline class="st24" points="443.4,117.2 452.1,112.9 443.4,108.6 434.7,112.9 443.4,117.2 "/>
<polygon class="st23" points="443.4,117.2 452.1,112.9 443.4,108.6 434.7,112.9 "/>
<path class="st23" d="M308.9,112.9l13,5.2 M308.9,112.9l13-5.2"/>
<line class="st23" x1="538.1" y1="1185.2" x2="538.1" y2="1163.5"/>
<line class="st23" x1="1104.1" y1="1163.5" x2="1104.1" y2="1121.1"/>
<polyline class="st25" points="1109.3,1135 1098.9,1135 1104.1,1121.1 1109.3,1135 "/>
<polygon class="st23" points="1109.3,1135 1098.9,1135 1104.1,1121.1 "/>
<line class="st23" x1="695.2" y1="301.7" x2="333.2" y2="301.7"/>
<path class="st23" d="M333.2,301.7l13-5.2 M333.2,301.7l13,5.2"/>
<line class="st23" x1="765.5" y1="292.2" x2="765.5" y2="205.6"/>
<line class="st23" x1="584.1" y1="205.6" x2="584.1" y2="163.1"/>
<polyline class="st25" points="589.3,177 578.9,177 584.1,163.1 589.3,177 "/>
<polyline class="st23" points="589.3,177 578.9,177 584.1,163.1 "/>
<line class="st23" x1="1007.7" y1="1079.5" x2="549.3" y2="1079.5"/>
<line class="st23" x1="549.3" y1="1079.5" x2="549.3" y2="902"/>
<path class="st23" d="M549.3,902l5.2,13 M549.3,902l-5.2,13"/>
<line class="st23" x1="1172.6" y1="1029.3" x2="1172.6" y2="205.6"/>
<line class="st23" x1="1172.6" y1="205.6" x2="584.1" y2="205.6"/>
<line class="st23" x1="1007.7" y1="1079.5" x2="577.1" y2="1079.5"/>
<line class="st23" x1="577.1" y1="1079.5" x2="577.1" y2="902"/>
<path class="st23" d="M577.1,902l5.2,13 M577.1,902l-5.2,13"/>
<line class="st23" x1="1007.7" y1="1079.5" x2="530.2" y2="1079.5"/>
<line class="st23" x1="530.2" y1="1079.5" x2="530.2" y2="902"/>
<path class="st23" d="M530.2,902l5.2,13 M530.2,902l-5.2,13"/>
<line class="st23" x1="334" y1="1185.2" x2="334" y2="1163.5"/>
<line class="st23" x1="334" y1="1163.5" x2="1104.1" y2="1163.5"/>
<line class="st23" x1="750.7" y1="1185.2" x2="750.7" y2="1163.5"/>
<line class="st23" x1="222.1" y1="1271.8" x2="222.1" y2="1135"/>
<path class="st23" d="M222.1,1271.8l5.2-13 M222.1,1271.8l-5.2-13"/>
<line class="st23" x1="695.2" y1="325.1" x2="333.2" y2="325.1"/>
<path class="st23" d="M333.2,325.1l13-5.2 M333.2,325.1l13,5.2"/>
<line class="st23" x1="864.5" y1="1263.1" x2="864.5" y2="1163.5"/>
<line class="st23" x1="695.2" y1="348.5" x2="333.2" y2="348.5"/>
<path class="st23" d="M333.2,348.5l13-5.2 M333.2,348.5l13,5.2"/>
<line class="st23" x1="210.8" y1="975.6" x2="506.8" y2="975.6"/>
<line class="st23" x1="506.8" y1="975.6" x2="506.8" y2="1094.3"/>
<line class="st23" x1="506.8" y1="1094.3" x2="1007.7" y2="1094.3"/>
<polyline class="st25" points="999,1098.6 1007.7,1094.3 999,1089.9 990.3,1094.3 999,1098.6 "/>
<polygon class="st23" points="999,1098.6 1007.7,1094.3 999,1089.9 990.3,1094.3 "/>
<path class="st23" d="M210.8,975.6l13,5.2 M210.8,975.6l13-5.2"/>
<line class="st23" x1="104.9" y1="969.5" x2="25.9" y2="969.5"/>
<line class="st23" x1="25.9" y1="969.5" x2="25.9" y2="206.5"/>
<line class="st23" x1="25.9" y1="206.5" x2="584.1" y2="206.5"/>
<line class="st23" x1="584.1" y1="206.5" x2="584.1" y2="163.1"/>
<polyline class="st25" points="589.3,177 578.9,177 584.1,163.1 589.3,177 "/>
<polyline class="st23" points="589.3,177 578.9,177 584.1,163.1 "/>
<line class="st23" x1="157.8" y1="943.5" x2="157.8" y2="866.5"/>
<line class="st23" x1="157.8" y1="866.5" x2="505.1" y2="866.5"/>
<path class="st23" d="M505.1,866.5l-13,5.2 M505.1,866.5l-13-5.2"/>
<line class="st23" x1="157.8" y1="942.7" x2="157.8" y2="920.2"/>
<line class="st23" x1="157.8" y1="920.2" x2="157.8" y2="890.7"/>
<line class="st23" x1="157.8" y1="890.7" x2="504.2" y2="890.7"/>
<path class="st23" d="M504.2,890.7l-13,5.2 M504.2,890.7l-13-5.2"/>
<line class="st23" x1="79.7" y1="1089.9" x2="79.7" y2="1047.5"/>
<line class="st23" x1="79.7" y1="1047.5" x2="157.8" y2="1047.5"/>
<line class="st23" x1="157.8" y1="1047.5" x2="157.8" y2="1005"/>
<polyline class="st25" points="163,1018.9 152.6,1018.9 157.8,1005 163,1018.9 "/>
<polygon class="st23" points="163,1018.9 152.6,1018.9 157.8,1005 "/>
<line class="st23" x1="209.9" y1="1089.9" x2="209.9" y2="1047.5"/>
<line class="st23" x1="209.9" y1="1047.5" x2="157.8" y2="1047.5"/>
<line class="st23" x1="1147.5" y1="1193.9" x2="1147.5" y2="1163.5"/>
<line class="st23" x1="1147.5" y1="1163.5" x2="1104.1" y2="1163.5"/>
<line class="st23" x1="955.6" y1="1193.9" x2="955.6" y2="1163.5"/>
<line class="st23" x1="152.6" y1="559" x2="152.6" y2="630.9"/>
<polyline class="st25" points="148.3,622.2 152.6,630.9 157,622.2 152.6,613.5 148.3,622.2 "/>
<polygon class="st23" points="148.3,622.2 152.6,630.9 157,622.2 152.6,613.5 "/>
<path class="st23" d="M152.6,559l-5.2,13 M152.6,559l5.2,13"/>
<line class="st23" x1="96.2" y1="510.5" x2="25.9" y2="510.5"/>
<line class="st23" x1="25.9" y1="510.5" x2="25.9" y2="206.5"/>
<line class="st23" x1="25.9" y1="206.5" x2="584.1" y2="206.5"/>
<line class="st23" x1="584.1" y1="206.5" x2="584.1" y2="163.1"/>
<polyline class="st25" points="589.3,177 578.9,177 584.1,163.1 589.3,177 "/>
<polyline class="st23" points="589.3,177 578.9,177 584.1,163.1 "/>
<line class="st23" x1="201.2" y1="466.3" x2="201.2" y2="466.3"/>
<line class="st23" x1="201.2" y1="466.3" x2="201.2" y2="302.6"/>
<line class="st23" x1="201.2" y1="302.6" x2="243.8" y2="302.6"/>
<path class="st23" d="M243.8,302.6l-13,5.2 M243.8,302.6l-13-5.2"/>
<line class="st23" x1="647.4" y1="1263.1" x2="647.4" y2="1163.5"/>
<line class="st23" x1="1022.5" y1="547.7" x2="1108.4" y2="547.7"/>
<line class="st23" x1="1108.4" y1="547.7" x2="1108.4" y2="1029.3"/>
<polyline class="st25" points="1031.1,543.4 1022.5,547.7 1031.1,552 1039.8,547.7 1031.1,543.4 "/>
<polygon class="st23" points="1031.1,543.4 1022.5,547.7 1031.1,552 1039.8,547.7 "/>
<path class="st23" d="M1108.4,1029.3l-5.2-13 M1108.4,1029.3l5.2-13"/>
<line class="st23" x1="408.7" y1="415.2" x2="283.7" y2="415.2"/>
<line class="st23" x1="283.7" y1="415.2" x2="283.7" y2="373.6"/>
<path class="st23" d="M283.7,373.6l5.2,13 M283.7,373.6l-5.2,13"/>
<line class="st23" x1="585.8" y1="412.6" x2="610.1" y2="410.9"/>
<line class="st23" x1="610.1" y1="410.9" x2="762" y2="410.9"/>
<line class="st23" x1="762" y1="410.9" x2="762" y2="483.6"/>
<polyline class="st25" points="757.7,475 762,483.6 766.4,475 762,466.3 757.7,475 "/>
<polygon class="st23" points="757.7,475 762,483.6 766.4,475 762,466.3 "/>
<path class="st23" d="M585.8,412.6l13,4.3 M585.8,412.6l13-6.1"/>
<path class="st23" d="M408.7,455H205.6c0-3.5-1.7-5.2-4.3-5.2c-3.5,0-5.2,1.7-5.2,5.2H26.7"/>
<line class="st23" x1="26.7" y1="455" x2="26.7" y2="206.5"/>
<line class="st23" x1="26.7" y1="206.5" x2="584.1" y2="206.5"/>
<line class="st23" x1="584.1" y1="206.5" x2="584.1" y2="163.1"/>
<polyline class="st25" points="589.3,177 578.9,177 584.1,163.1 589.3,177 "/>
<polyline class="st23" points="589.3,177 578.9,177 584.1,163.1 "/>
<line class="st23" x1="247.2" y1="675.9" x2="294.1" y2="675.9"/>
<line class="st23" x1="294.1" y1="675.9" x2="294.1" y2="591.9"/>
<line class="st23" x1="294.1" y1="591.9" x2="703.9" y2="591.9"/>
<polyline class="st25" points="695.2,596.2 703.9,591.9 695.2,587.6 686.5,591.9 695.2,596.2 "/>
<polygon class="st23" points="695.2,596.2 703.9,591.9 695.2,587.6 686.5,591.9 "/>
<path class="st23" d="M247.2,675.9l13,5.2 M247.2,675.9l13-5.2"/>
<line class="st23" x1="158.7" y1="722.7" x2="158.7" y2="757.3"/>
<line class="st23" x1="158.7" y1="757.3" x2="383.5" y2="757.3"/>
<path class="st23" d="M383.5,757.3l-13,5.2 M383.5,757.3l-13-5.2"/>
<line class="st23" x1="70.1" y1="676.8" x2="26.7" y2="676.8"/>
<line class="st23" x1="26.7" y1="676.8" x2="26.7" y2="206.5"/>
<line class="st23" x1="26.7" y1="206.5" x2="584.1" y2="206.5"/>
<line class="st23" x1="584.1" y1="206.5" x2="584.1" y2="163.1"/>
<polyline class="st25" points="589.3,177 578.9,177 584.1,163.1 589.3,177 "/>
<polygon class="st23" points="589.3,177 578.9,177 584.1,163.1 "/>
<line class="st23" x1="158.7" y1="723.5" x2="158.7" y2="843.9"/>
<line class="st23" x1="158.7" y1="843.9" x2="504.2" y2="843.9"/>
<path class="st23" d="M504.2,843.9l-13,5.2 M504.2,843.9l-13-5.2"/>
<line class="st23" x1="1064.1" y1="1263.1" x2="1064.1" y2="1163.5"/>
<line class="st23" x1="446" y1="1263.1" x2="446" y2="1163.5"/>
<line class="st23" x1="863.6" y1="339.8" x2="1094.5" y2="339.8"/>
<line class="st23" x1="1094.5" y1="339.8" x2="1129.2" y2="339.8"/>
<line class="st23" x1="1129.2" y1="339.8" x2="1129.2" y2="1029.3"/>
<polyline class="st25" points="872.3,335.5 863.6,339.8 872.3,344.2 881,339.8 872.3,335.5 "/>
<polygon class="st23" points="872.3,335.5 863.6,339.8 872.3,344.2 881,339.8 "/>
<path class="st23" d="M1129.2,1029.3l-5.2-13 M1129.2,1029.3l5.2-13"/>
<line class="st23" x1="766.4" y1="693.2" x2="766.4" y2="742.6"/>
<line class="st23" x1="766.4" y1="742.6" x2="552.8" y2="742.6"/>
<line class="st23" x1="552.8" y1="742.6" x2="552.8" y2="830.9"/>
<path class="st23" d="M552.8,830.9l-5.2-13 M552.8,830.9l5.2-13"/>
<line class="st23" x1="504.2" y1="495.7" x2="504.2" y2="577.2"/>
<line class="st23" x1="504.2" y1="577.2" x2="194.3" y2="577.2"/>
<line class="st23" x1="194.3" y1="577.2" x2="194.3" y2="630.9"/>
<polyline class="st25" points="189.9,622.2 194.3,630.9 198.6,622.2 194.3,613.5 189.9,622.2 "/>
<polygon class="st23" points="189.9,622.2 194.3,630.9 198.6,622.2 194.3,613.5 "/>
<path class="st23" d="M504.2,495.7l-5.2,13 M504.2,495.7l5.2,13"/>
<line class="st23" x1="703.9" y1="649.9" x2="448.6" y2="649.9"/>
<line class="st23" x1="448.6" y1="649.9" x2="448.6" y2="717.5"/>
<path class="st23" d="M448.6,717.5l-5.2-13 M448.6,717.5l5.2-13"/>
<path class="st23" d="M1022.5,515.7H1124l0,0c0,2.6,1.7,4.3,5.2,4.3c2.6,0,4.3-1.7,4.3-4.3l0,0h33.9l0,0c0,2.6,1.7,4.3,5.2,4.3
	c2.6,0,4.3-1.7,4.3-4.3l0,0h39.1"/>
<line class="st23" x1="1216" y1="515.7" x2="1229.1" y2="1329"/>
<line class="st23" x1="1229.1" y1="1329" x2="271.5" y2="1329"/>
<path class="st23" d="M271.5,1329l13-5.2 M271.5,1329l13,5.2"/>
<line class="st23" x1="703.9" y1="630.9" x2="703.9" y2="630.9"/>
<line class="st23" x1="703.9" y1="630.9" x2="448.6" y2="630.9"/>
<line class="st23" x1="448.6" y1="630.9" x2="448.6" y2="717.5"/>
<path class="st23" d="M448.6,717.5l-5.2-13 M448.6,717.5l5.2-13"/>
<line class="st23" x1="765.5" y1="693.2" x2="765.5" y2="742.6"/>
<line class="st23" x1="765.5" y1="742.6" x2="582.3" y2="742.6"/>
<line class="st23" x1="582.3" y1="742.6" x2="582.3" y2="830.9"/>
<path class="st23" d="M582.3,830.9l-5.2-13 M582.3,830.9l5.2-13"/>
<line class="st23" x1="703.9" y1="675" x2="703.9" y2="675"/>
<line class="st23" x1="703.9" y1="675" x2="448.6" y2="675"/>
<line class="st23" x1="448.6" y1="675" x2="448.6" y2="717.5"/>
<path class="st23" d="M448.6,717.5l-5.2-13 M448.6,717.5l5.2-13"/>
<line class="st23" x1="766.4" y1="693.2" x2="766.4" y2="743.5"/>
<line class="st23" x1="766.4" y1="743.5" x2="611.8" y2="743.5"/>
<line class="st23" x1="611.8" y1="743.5" x2="611.8" y2="830.9"/>
<path class="st23" d="M611.8,830.9l-5.2-13 M611.8,830.9l5.2-13"/>
<line class="st23" x1="825.4" y1="811.9" x2="825.4" y2="735.7"/>
<line class="st23" x1="825.4" y1="735.7" x2="862.7" y2="735.7"/>
<line class="st23" x1="862.7" y1="735.7" x2="862.7" y2="693.2"/>
<polyline class="st25" points="867.9,707.1 857.5,707.1 862.7,693.2 867.9,707.1 "/>
<polygon class="st23" points="867.9,707.1 857.5,707.1 862.7,693.2 "/>
<line class="st23" x1="1009.4" y1="843.1" x2="1065" y2="843.1"/>
<line class="st23" x1="1065" y1="843.1" x2="1065" y2="588.4"/>
<line class="st23" x1="1065" y1="588.4" x2="1022.5" y2="588.4"/>
<polyline class="st25" points="1031.1,584.1 1022.5,588.4 1031.1,592.8 1039.8,588.4 1031.1,584.1 "/>
<polygon class="st23" points="1031.1,584.1 1022.5,588.4 1031.1,592.8 1039.8,588.4 "/>
<path class="st23" d="M1009.4,843.1l13,5.2 M1009.4,843.1l13-5.2"/>
<line class="st23" x1="947.8" y1="811.9" x2="947.8" y2="735.7"/>
<line class="st23" x1="947.8" y1="735.7" x2="862.7" y2="735.7"/>
<line class="st23" x1="821.9" y1="376.2" x2="821.9" y2="483.6"/>
<polyline class="st25" points="817.6,475 821.9,483.6 826.3,475 821.9,466.3 817.6,475 "/>
<polygon class="st23" points="817.6,475 821.9,483.6 826.3,475 821.9,466.3 "/>
<path class="st23" d="M821.9,376.2l-5.2,13 M821.9,376.2l5.2,13"/>
<line class="st23" x1="703.9" y1="612.7" x2="703.9" y2="612.7"/>
<line class="st23" x1="703.9" y1="612.7" x2="447.8" y2="612.7"/>
<line class="st23" x1="447.8" y1="612.7" x2="447.8" y2="717.5"/>
<path class="st23" d="M447.8,717.5l-5.2-13 M447.8,717.5l5.2-13"/>
<text transform="matrix(0.85 0 0 1 584.9375 959.1379)" class="st12 st13">+lod2MultiSurface</text>
<text transform="matrix(0.85 0 0 1 670.875 960.0129)" class="st12 st13">0..1</text>
<text transform="matrix(0.85 0 0 1 1047.625 982.5129)" class="st12 st13">+boundedBy</text>
<text transform="matrix(0.85 0 0 1 1083.2188 999.8566)" class="st12 st13">0..*</text>
<text transform="matrix(0.85 0 0 1 324.4854 105.9963)" class="st12 st13">+_genericAttribute</text>
<text transform="matrix(0.85 0 0 1 311.4697 125.9025)" class="st12 st13">0..*</text>
<text transform="matrix(0.85 0 0 1 619.6406 811.8879)" class="st12 st13">+lod4MultiSurface</text>
<text transform="matrix(0.85 0 0 1 720.3438 811.8879)" class="st12 st13">0..1</text>
<text transform="matrix(0.85 0 0 1 584.0625 915.841)" class="st12 st13">+lod4MultiSurface</text>
<text transform="matrix(0.85 0 0 1 673.4688 919.2941)" class="st12 st13">0..1</text>
<text transform="matrix(0.85 0 0 1 355.7515 338.9816)" class="st12 st13">+lod4Geometry</text>
<text transform="matrix(0.85 0 0 1 435.6104 341.5754)" class="st12 st13">0..1</text>
<text transform="matrix(0.85 0 0 1 452.1104 625.6848)" class="st12 st13">+lod2Solid</text>
<text transform="matrix(0.85 0 0 1 509.4072 642.9816)" class="st12 st13">0..1</text>
<text transform="matrix(0.85 0 0 1 685.625 389.216)" class="st12 st13">+outerBuildingInstallation</text>
<text transform="matrix(0.85 0 0 1 841.8906 392.6682)" class="st12 st13">0..*</text>
<text transform="matrix(0.85 0 0 1 385.2671 836.9973)" class="st12 st13">+lod4MultSurface</text>
<text transform="matrix(0.85 0 0 1 485.9697 856.9348)" class="st12 st13">0..1</text>
<text transform="matrix(0.85 0 0 1 290.6421 1315.9973)" class="st12 st13">+address</text>
<text transform="matrix(0.85 0 0 1 274.1421 1341.9661)" class="st12 st13">0..*</text>
<text transform="matrix(0.85 0 0 1 353.1421 316.466)" class="st12 st13">+lod3Geometry</text>
<text transform="matrix(0.85 0 0 1 429.5322 317.3098)" class="st12 st13">0..1</text>
<text transform="matrix(0.85 0 0 1 233.3447 953.0598)" class="st12 st13">+opening</text>
<text transform="matrix(0.85 0 0 1 231.6104 994.6535)" class="st12 st13">0..*</text>
<text transform="matrix(0.85 0 0 1 964.2969 794.591)" class="st12 st13">+consistsOfBuildingPart</text>
<text transform="matrix(0.85 0 0 1 1043.2969 856.0598)" class="st12 st13">0..*</text>
<text transform="matrix(0.85 0 0 1 305.3921 604.9035)" class="st12 st13">+interiorRoom</text>
<text transform="matrix(0.85 0 0 1 249.8447 688.9035)" class="st12 st13">0..*</text>
<text transform="matrix(0.85 0 0 1 537.1875 730.4816)" class="st12 st13">+lod0RoofEdge</text>
<text transform="matrix(0.85 0 0 1 556.2822 776.3723)" class="st12 st13">0..1</text>
<text transform="matrix(0.85 0 0 1 584.9375 935.7473)" class="st12 st13">+lod3MultiSurface</text>
<text transform="matrix(0.85 0 0 1 671.7344 936.6223)" class="st12 st13">0..1</text>
<text transform="matrix(0.85 0 0 1 163.8916 1264.9036)" class="st12 st13">+address</text>
<text transform="matrix(0.85 0 0 1 186.4697 1245.8411)" class="st12 st13">0..*</text>
<text transform="matrix(0.85 0 0 1 604.0156 436.841)" class="st12 st13">+interiorBuildingInstallation</text>
<text transform="matrix(0.85 0 0 1 624 406.5275)" class="st12 st13">0..*</text>
<text transform="matrix(0.85 0 0 1 57.1104 574.591)" class="st12 st13">+interiorFurniture</text>
<text transform="matrix(1.0023 0 0 1 169.9697 571.1066)" class="st12 st13">0</text>
<text transform="matrix(1.0023 0 0 1 175.1724 571.1066)" class="st12 st13">.</text>
<text transform="matrix(1.0023 0 0 1 177.7744 571.1066)" class="st12 st13">.</text>
<text transform="matrix(1.0023 0 0 1 180.3765 571.1066)" class="st12 st13">*</text>
<text transform="matrix(0.85 0 0 1 455.5781 666.3723)" class="st12 st13">+lod4Solid</text>
<text transform="matrix(0.85 0 0 1 505.9375 665.5285)" class="st12 st13">0..1</text>
<g class="st26">
	<text transform="matrix(0.85 0 0 1 1133.5625 996.3723)" class="st27 st12 st13">+boundedBy</text>
	<text transform="matrix(0.85 0 0 1 1133.5625 996.3723)" class="st12 st13">+boundedBy</text>
</g>
<text transform="matrix(0.85 0 0 1 1156.1562 1016.3098)" class="st12 st13">0..*</text>
<text transform="matrix(0.85 0 0 1 351.4072 294.8098)" class="st12 st13">+lod2Geometry</text>
<text transform="matrix(0.85 0 0 1 426.0625 292.2004)" class="st12 st13">0..1</text>
<text transform="matrix(0.85 0 0 1 452.1104 642.1223)" class="st12 st13">+lod3Solid</text>
<text transform="matrix(0.85 0 0 1 507.6719 605.7473)" class="st12 st13">0..1</text>
<text transform="matrix(0.85 0 0 1 384.3921 886.3723)" class="st12 st13">+lod4MultSurface</text>
<text transform="matrix(0.85 0 0 1 485.9697 903.7004)" class="st12 st13">0..1</text>
<text transform="matrix(0.85 0 0 1 385.2671 862.1223)" class="st12 st13">+lod3MultSurface</text>
<text transform="matrix(0.85 0 0 1 486.8281 879.4504)" class="st12 st13">0..1</text>
<text transform="matrix(0.85 0 0 1 213.3765 386.6213)" class="st12 st13">+lod4Geometry</text>
<text transform="matrix(0.85 0 0 1 294.1265 386.6213)" class="st12 st13">0..1</text>
<text transform="matrix(0.85 0 0 1 598.8281 729.6223)" class="st12 st13">+lod0FootPrint</text>
<text transform="matrix(0.85 0 0 1 589.2822 777.2473)" class="st12 st13">0..1</text>
<text transform="matrix(0.85 0 0 1 338.3921 750.4035)" class="st12 st13">+lod4Solid</text>
<text transform="matrix(0.85 0 0 1 365.2822 770.3254)" class="st12 st13">0..1</text>
<text transform="matrix(0.85 0 0 1 174.3125 295.6848)" class="st12 st13">+lod4Geometry</text>
<text transform="matrix(0.85 0 0 1 217.7197 321.6525)" class="st12 st13">0..1</text>
<text transform="matrix(0.85 0 0 1 450.376 605.7473)" class="st12 st13">+lod1Solid</text>
<text transform="matrix(0.85 0 0 1 508.5322 625.6848)" class="st12 st13">0..1</text>
<text transform="matrix(0.85 0 0 1 407.8281 507.8713)" class="st12 st13">+roomInstallation</text>
<text transform="matrix(0.85 0 0 1 519.8125 508.7463)" class="st12 st13">0..*</text>
</svg>
