<?xml version="1.0" encoding="utf-8"?>
<!-- Generator: Adobe Illustrator 27.5.0, SVG Export Plug-In . SVG Version: 6.00 Build 0)  -->
<svg version="1.1" id="レイヤー_1" xmlns="http://www.w3.org/2000/svg" xmlns:xlink="http://www.w3.org/1999/xlink" x="0px"
	 y="0px" viewBox="0 0 558.9786987 369.0212708" style="enable-background:new 0 0 558.9786987 369.0212708;" xml:space="preserve">
<style type="text/css">
	.st0{fill-rule:evenodd;clip-rule:evenodd;fill:#FFFFCC;}
	.st1{fill:none;stroke:#000000;stroke-width:1.0285715;stroke-linecap:round;stroke-linejoin:bevel;stroke-miterlimit:10;}
	.st2{font-family:'YuGothicUI-Regular';}
	.st3{font-size:6.6857147px;}
	.st4{font-family:'YuGothicUI-Bold';}
	.st5{fill-rule:evenodd;clip-rule:evenodd;fill:#FFCCFF;}
	.st6{stroke:#000000;stroke-width:0.1910204;stroke-miterlimit:10;}
	.st7{font-size:7.0386257px;}
	.st8{fill-rule:evenodd;clip-rule:evenodd;fill:#F0F0F0;}
	.st9{fill:none;stroke:#D7D7D7;stroke-width:0.5142857;stroke-linecap:square;stroke-miterlimit:10;}
	.st10{fill-rule:evenodd;clip-rule:evenodd;fill:#CCFFCC;}
	.st11{fill:none;stroke:#000000;stroke-width:0.5142857;stroke-linecap:square;stroke-miterlimit:10;}
	.st12{fill:#003060;}
	.st13{font-size:8.2285719px;}
	.st14{fill-rule:evenodd;clip-rule:evenodd;}
	.st15{fill-rule:evenodd;clip-rule:evenodd;fill:#FFFFFF;}
</style>
<polygon class="st0" points="229.0745544,227.8820953 290.0194397,227.8820953 290.0194397,186.739212 229.0745544,186.739212 
	229.0745544,227.8820953 "/>
<polygon class="st1" points="229.0745544,227.8820953 290.0194397,227.8820953 290.0194397,186.739212 229.0745544,186.739212 
	229.0745544,227.8820953 "/>
<text transform="matrix(0.85 0 0 1 237.7110291 197.0288239)"><tspan x="0" y="0" class="st2 st3">«</tspan><tspan x="3.5960476" y="0" class="st2 st3">F</tspan><tspan x="6.6865807" y="0" class="st2 st3">e</tspan><tspan x="10.2832031" y="0" class="st2 st3">a</tspan><tspan x="13.8786764" y="0" class="st2 st3">t</tspan><tspan x="15.9369249" y="0" class="st2 st3">u</tspan><tspan x="19.5398655" y="0" class="st2 st3">r</tspan><tspan x="22.1053524" y="0" class="st2 st3">e</tspan><tspan x="25.7014008" y="0" class="st2 st3">T</tspan><tspan x="29.2980232" y="0" class="st2 st3">y</tspan><tspan x="32.3862572" y="0" class="st2 st3">p</tspan><tspan x="36.4970131" y="0" class="st2 st3">e</tspan><tspan x="40.0936356" y="0" class="st2 st3">»</tspan></text>
<text transform="matrix(0.85 0 0 1 243.2969666 205.7710114)"><tspan x="0" y="0" class="st4 st3">t</tspan><tspan x="2.5695083" y="0" class="st4 st3">r</tspan><tspan x="5.1378675" y="0" class="st4 st3">a</tspan><tspan x="8.7344894" y="0" class="st4 st3">n</tspan><tspan x="12.8429451" y="0" class="st4 st3">::</tspan><tspan x="15.9340525" y="0" class="st4 st3">T</tspan><tspan x="19.5364189" y="0" class="st4 st3">r</tspan><tspan x="22.1042042" y="0" class="st4 st3">a</tspan><tspan x="25.7008266" y="0" class="st4 st3">c</tspan><tspan x="28.7913589" y="0" class="st4 st3">k</tspan></text>
<polygon class="st0" points="208.7595825,156.3963776 311.3501282,156.3963776 311.3501282,104.4535141 208.7595825,104.4535141 
	208.7595825,156.3963776 "/>
<polygon class="st1" points="208.7595825,156.3963776 311.3501282,156.3963776 311.3501282,104.4535141 208.7595825,104.4535141 
	208.7595825,156.3963776 "/>
<text transform="matrix(0.85 0 0 1 238.2188416 114.739769)"><tspan x="0" y="0" class="st2 st3">«</tspan><tspan x="3.5960476" y="0" class="st2 st3">F</tspan><tspan x="6.6865807" y="0" class="st2 st3">e</tspan><tspan x="10.2832031" y="0" class="st2 st3">a</tspan><tspan x="13.8786764" y="0" class="st2 st3">t</tspan><tspan x="15.9369249" y="0" class="st2 st3">u</tspan><tspan x="19.5398655" y="0" class="st2 st3">r</tspan><tspan x="22.1053524" y="0" class="st2 st3">e</tspan><tspan x="25.7014008" y="0" class="st2 st3">T</tspan><tspan x="29.2980232" y="0" class="st2 st3">y</tspan><tspan x="32.3862572" y="0" class="st2 st3">p</tspan><tspan x="36.4970131" y="0" class="st2 st3">e</tspan><tspan x="40.0936356" y="0" class="st2 st3">»</tspan></text>
<text transform="matrix(0.85 0 0 1 229.5860291 123.489769)"><tspan x="0" y="0" class="st4 st3">t</tspan><tspan x="2.5695083" y="0" class="st4 st3">r</tspan><tspan x="5.1378675" y="0" class="st4 st3">a</tspan><tspan x="8.7344894" y="0" class="st4 st3">n</tspan><tspan x="12.8429451" y="0" class="st4 st3">::</tspan><tspan x="15.9340525" y="0" class="st4 st3">T</tspan><tspan x="19.5364189" y="0" class="st4 st3">r</tspan><tspan x="22.1042042" y="0" class="st4 st3">a</tspan><tspan x="25.7008266" y="0" class="st4 st3">ffi</tspan><tspan x="32.2122002" y="0" class="st4 st3">c</tspan><tspan x="35.3027344" y="0" class="st4 st3">C</tspan><tspan x="39.4215279" y="0" class="st4 st3">o</tspan><tspan x="43.5345802" y="0" class="st4 st3">m</tspan><tspan x="49.7035828" y="0" class="st4 st3">p</tspan><tspan x="53.8120384" y="0" class="st4 st3">l</tspan><tspan x="55.3578796" y="0" class="st4 st3">e</tspan><tspan x="58.9567986" y="0" class="st4 st3">x</tspan></text>
<line class="st1" x1="208.7595825" y1="127.5963364" x2="310.8422546" y2="127.5963364"/>
<text transform="matrix(0.85 0 0 1 211.2969666 136.8569489)" class="st2 st3">+ class: gml::CodeType [0..1]</text>
<text transform="matrix(0.85 0 0 1 211.2969666 145.5991364)" class="st2 st3">+ function: gml::CodeType [0..*]</text>
<text transform="matrix(0.85 0 0 1 211.2969666 154.3413239)" class="st2 st3">+ usage: gml::CodeType [0..*]</text>
<polygon class="st5" points="203.6808472,352.8535156 324.0469666,352.8535156 324.0469666,263.8820801 203.6808472,263.8820801 
	203.6808472,352.8535156 "/>
<polygon class="st1" points="203.6808472,352.8535156 324.0469666,352.8535156 324.0469666,263.8820801 203.6808472,263.8820801 
	203.6808472,352.8535156 "/>
<text transform="matrix(0.85 0 0 1 246.3438416 274.1694641)"><tspan x="0" y="0" class="st2 st3">«</tspan><tspan x="3.5960476" y="0" class="st2 st3">D</tspan><tspan x="8.2301235" y="0" class="st2 st3">a</tspan><tspan x="11.8255968" y="0" class="st2 st3">t</tspan><tspan x="13.8838463" y="0" class="st2 st3">a</tspan><tspan x="17.4793186" y="0" class="st2 st3">T</tspan><tspan x="21.0759411" y="0" class="st2 st3">y</tspan><tspan x="24.1641769" y="0" class="st2 st3">p</tspan><tspan x="28.274931" y="0" class="st2 st3">e</tspan><tspan x="31.8715515" y="0" class="st2 st3">»</tspan></text>
<text transform="matrix(0.85 0 0 1 234.6641541 282.9116516)"><tspan x="0" y="0" class="st4 st3">u</tspan><tspan x="4.1084557" y="0" class="st4 st3">r</tspan><tspan x="6.6762404" y="0" class="st4 st3">o</tspan><tspan x="10.7892923" y="0" class="st4 st3">::</tspan><tspan x="13.8809738" y="0" class="st4 st3">T</tspan><tspan x="17.4827652" y="0" class="st4 st3">r</tspan><tspan x="20.0511246" y="0" class="st4 st3">a</tspan><tspan x="23.647747" y="0" class="st4 st3">c</tspan><tspan x="26.7377052" y="0" class="st4 st3">k</tspan><tspan x="30.3343277" y="0" class="st4 st3">A</tspan><tspan x="34.9563408" y="0" class="st4 st3">tt</tspan><tspan x="40.095356" y="0" class="st4 st3">r</tspan><tspan x="42.6637154" y="0" class="st4 st3">i</tspan><tspan x="44.2095566" y="0" class="st4 st3">b</tspan><tspan x="48.3180122" y="0" class="st4 st3">u</tspan><tspan x="52.4264679" y="0" class="st4 st3">t</tspan><tspan x="54.9965515" y="0" class="st4 st3">e</tspan></text>
<line class="st1" x1="203.6808472" y1="287.0249634" x2="323.539093" y2="287.0249634"/>
<text transform="matrix(0.85 0 0 1 206.2188416 296.2788391)" class="st2 st3">+ alternativeName: xs::string [0..*]</text>
<text transform="matrix(0.85 0 0 1 206.2188416 305.0210266)" class="st2 st3">+ adminType: gml::CodeType [0..1]</text>
<text transform="matrix(0.85 0 0 1 206.2188416 313.7710266)" class="st2 st3">+ relativeLevel: xs::integer [0..1]</text>
<text transform="matrix(0.85 0 0 1 206.2188416 322.5132141)" class="st2 st3">+ widthType: gml::CodeType [0..1]</text>
<text transform="matrix(0.85 0 0 1 206.2188416 331.2475891)" class="st2 st3">+ structureType: gml::CodeType [0..1]</text>
<text transform="matrix(0.85 0 0 1 206.2188416 339.9975891)" class="st2 st3">+ isTollRoad: xs::boolean [0..1]</text>
<text transform="matrix(0.85 0 0 1 206.2188416 348.7397766)" class="st2 st3">+ separator: gml::LengthType [0..1]</text>
<polygon class="st5" points="31.0036469,159.9963531 168.6375275,159.9963531 168.6375275,88.510643 31.0036469,88.510643 
	31.0036469,159.9963531 "/>
<polygon class="st1" points="31.0036469,159.9963531 168.6375275,159.9963531 168.6375275,88.510643 31.0036469,88.510643 
	31.0036469,159.9963531 "/>
<text transform="matrix(0.85 0 0 1 82.2969589 98.802269)"><tspan x="0" y="0" class="st2 st3">«</tspan><tspan x="3.5960476" y="0" class="st2 st3">D</tspan><tspan x="8.2301235" y="0" class="st2 st3">a</tspan><tspan x="11.8255968" y="0" class="st2 st3">t</tspan><tspan x="13.8838463" y="0" class="st2 st3">a</tspan><tspan x="17.4793186" y="0" class="st2 st3">T</tspan><tspan x="21.0759411" y="0" class="st2 st3">y</tspan><tspan x="24.1641769" y="0" class="st2 st3">p</tspan><tspan x="28.274931" y="0" class="st2 st3">e</tspan><tspan x="31.8715515" y="0" class="st2 st3">»</tspan></text>
<text transform="matrix(0.85 0 0 1 38.1094589 107.5444565)"><tspan x="0" y="0" class="st4 st3">u</tspan><tspan x="4.1084557" y="0" class="st4 st3">r</tspan><tspan x="6.6762404" y="0" class="st4 st3">o</tspan><tspan x="10.7892923" y="0" class="st4 st3">::</tspan><tspan x="13.8809738" y="0" class="st4 st3">T</tspan><tspan x="17.4827652" y="0" class="st4 st3">r</tspan><tspan x="20.0511246" y="0" class="st4 st3">a</tspan><tspan x="23.647747" y="0" class="st4 st3">n</tspan><tspan x="27.7562027" y="0" class="st4 st3">s</tspan><tspan x="30.8392677" y="0" class="st4 st3">p</tspan><tspan x="34.9477234" y="0" class="st4 st3">o</tspan><tspan x="39.0607758" y="0" class="st4 st3">r</tspan><tspan x="41.6285591" y="0" class="st4 st3">t</tspan><tspan x="44.1980667" y="0" class="st4 st3">a</tspan><tspan x="47.7946892" y="0" class="st4 st3">t</tspan><tspan x="50.3642006" y="0" class="st4 st3">i</tspan><tspan x="51.910614" y="0" class="st4 st3">o</tspan><tspan x="56.0230904" y="0" class="st4 st3">n</tspan><tspan x="60.131546" y="0" class="st4 st3">D</tspan><tspan x="64.7667694" y="0" class="st4 st3">a</tspan><tspan x="68.3633957" y="0" class="st4 st3">t</tspan><tspan x="70.9328995" y="0" class="st4 st3">a</tspan><tspan x="74.5295258" y="0" class="st4 st3">Q</tspan><tspan x="79.669693" y="0" class="st4 st3">u</tspan><tspan x="83.7781448" y="0" class="st4 st3">a</tspan><tspan x="87.3747711" y="0" class="st4 st3">li</tspan><tspan x="90.4670258" y="0" class="st4 st3">t</tspan><tspan x="93.0365295" y="0" class="st4 st3">y</tspan><tspan x="96.6354523" y="0" class="st4 st3">A</tspan><tspan x="101.2574615" y="0" class="st4 st3">tt</tspan><tspan x="106.3964844" y="0" class="st4 st3">r</tspan><tspan x="108.9648438" y="0" class="st4 st3">i</tspan><tspan x="110.5106812" y="0" class="st4 st3">b</tspan><tspan x="114.6191406" y="0" class="st4 st3">u</tspan><tspan x="118.7275925" y="0" class="st4 st3">t</tspan><tspan x="121.2971039" y="0" class="st4 st3">e</tspan></text>
<line class="st1" x1="31.0036469" y1="111.6535263" x2="168.1296539" y2="111.6535263"/>
<text transform="matrix(0.85 0 0 1 33.5391464 120.911644)" class="st2 st3">+ srcScale: gml::CodeType [0..*]</text>
<text transform="matrix(0.85 0 0 1 33.5391464 129.6538239)" class="st2 st3">+ geometrySrcDesc: gml::CodeType [0..*]</text>
<text transform="matrix(0.85 0 0 1 33.5391464 138.4038239)" class="st2 st3">+ thematicSrcDesc: gml::CodeType [0..*]</text>
<text transform="matrix(0.85 0 0 1 33.5391464 147.1381989)" class="st2 st3">+ appearanceSrcDesc: gml::CodeType [0..*]</text>
<text transform="matrix(0.85 0 0 1 33.5391464 155.8803864)" class="st2 st3">+ lodType: gml::CodeType [0..1]</text>
<polygon class="st5" points="416.9879456,336.3963928 526.6887817,336.3963928 526.6887817,212.4535065 416.9879456,212.4535065 
	416.9879456,336.3963928 "/>
<polygon class="st1" points="416.9879456,336.3963928 526.6887817,336.3963928 526.6887817,212.4535065 416.9879456,212.4535065 
	416.9879456,336.3963928 "/>
<text transform="matrix(0.85 0 0 1 454.0625916 222.7319489)"><tspan x="0" y="0" class="st2 st3">«</tspan><tspan x="3.5960476" y="0" class="st2 st3">D</tspan><tspan x="8.2306986" y="0" class="st2 st3">a</tspan><tspan x="11.8255968" y="0" class="st2 st3">t</tspan><tspan x="13.8844204" y="0" class="st2 st3">a</tspan><tspan x="17.4793186" y="0" class="st2 st3">T</tspan><tspan x="21.0765152" y="0" class="st2 st3">y</tspan><tspan x="24.1636028" y="0" class="st2 st3">p</tspan><tspan x="28.2755051" y="0" class="st2 st3">e</tspan><tspan x="31.8715515" y="0" class="st2 st3">»</tspan></text>
<text transform="matrix(0.85 0 0 1 437.2969666 231.4819489)"><tspan x="0" y="0" class="st4 st3">u</tspan><tspan x="4.1084557" y="0" class="st4 st3">r</tspan><tspan x="6.6762404" y="0" class="st4 st3">o</tspan><tspan x="10.7892923" y="0" class="st4 st3">::</tspan><tspan x="13.8809738" y="0" class="st4 st3">F</tspan><tspan x="17.4804688" y="0" class="st4 st3">a</tspan><tspan x="21.0776653" y="0" class="st4 st3">c</tspan><tspan x="24.1681976" y="0" class="st4 st3">ili</tspan><tspan x="28.8051472" y="0" class="st4 st3">t</tspan><tspan x="31.3752289" y="0" class="st4 st3">y</tspan><tspan x="34.9735756" y="0" class="st4 st3">I</tspan><tspan x="37.0301018" y="0" class="st4 st3">d</tspan><tspan x="41.1385574" y="0" class="st4 st3">A</tspan><tspan x="45.7605667" y="0" class="st4 st3">tt</tspan><tspan x="50.8995857" y="0" class="st4 st3">r</tspan><tspan x="53.4673691" y="0" class="st4 st3">i</tspan><tspan x="55.0137863" y="0" class="st4 st3">b</tspan><tspan x="59.122242" y="0" class="st4 st3">u</tspan><tspan x="63.2306976" y="0" class="st4 st3">t</tspan><tspan x="65.8007812" y="0" class="st4 st3">e</tspan></text>
<line class="st1" x1="416.9879456" y1="235.5963593" x2="526.1809082" y2="235.5963593"/>
<text transform="matrix(0.85 0 0 1 419.5313416 244.8569489)" class="st2 st3">+ id: xs::string [0..1]</text>
<text transform="matrix(0.85 0 0 1 419.5313416 253.5913239)" class="st2 st3">+ partId: xs::string [0..1]</text>
<text transform="matrix(0.85 0 0 1 419.5313416 262.3413391)" class="st2 st3">+ branchId: xs::string [0..1]</text>
<text transform="matrix(0.85 0 0 1 419.5313416 271.0835266)" class="st2 st3">+ prefecture: gml::CodeType [0..*]</text>
<text transform="matrix(0.85 0 0 1 419.5313416 279.8257141)" class="st2 st3">+ city: gml::CodeType [0..*]</text>
<text transform="matrix(0.85 0 0 1 419.5313416 288.5757141)" class="st2 st3">+ route: xs::string [0..1]</text>
<text transform="matrix(0.85 0 0 1 419.5313416 297.3179016)" class="st2 st3">+ startPost: xs::string [0..1]</text>
<text transform="matrix(0.85 0 0 1 419.5313416 306.0600891)" class="st2 st3">+ endPost: xs::string [0..1]</text>
<text transform="matrix(0.85 0 0 1 419.5313416 314.7944641)" class="st2 st3">+ startLat: xs::double [0..1]</text>
<text transform="matrix(0.85 0 0 1 419.5313416 323.5366516)" class="st2 st3">+ startLong: xs::double [0..1]</text>
<text transform="matrix(0.85 0 0 1 419.5313416 332.2866516)" class="st2 st3">+ alternativeName: xs::string [0..*]</text>
<polygon class="st5" points="416.9879456,175.424942 519.5784912,175.424942 519.5784912,130.1678009 416.9879456,130.1678009 
	416.9879456,175.424942 "/>
<polygon class="st1" points="416.9879456,175.424942 519.5784912,175.424942 519.5784912,130.1678009 416.9879456,130.1678009 
	416.9879456,175.424942 "/>
<text transform="matrix(0.85 0 0 1 450.5079041 140.4506989)"><tspan x="0" y="0" class="st2 st3">«</tspan><tspan x="3.5960476" y="0" class="st2 st3">D</tspan><tspan x="8.2306986" y="0" class="st2 st3">a</tspan><tspan x="11.8255968" y="0" class="st2 st3">t</tspan><tspan x="13.8844204" y="0" class="st2 st3">a</tspan><tspan x="17.4793186" y="0" class="st2 st3">T</tspan><tspan x="21.0765152" y="0" class="st2 st3">y</tspan><tspan x="24.1636028" y="0" class="st2 st3">p</tspan><tspan x="28.2755051" y="0" class="st2 st3">e</tspan><tspan x="31.8715515" y="0" class="st2 st3">»</tspan></text>
<text transform="matrix(0.85 0 0 1 429.6875916 149.2006989)"><tspan x="0" y="0" class="st4 st3">u</tspan><tspan x="4.1084557" y="0" class="st4 st3">r</tspan><tspan x="6.6762404" y="0" class="st4 st3">o</tspan><tspan x="10.7892923" y="0" class="st4 st3">::</tspan><tspan x="13.8809738" y="0" class="st4 st3">F</tspan><tspan x="17.4804688" y="0" class="st4 st3">a</tspan><tspan x="21.0776653" y="0" class="st4 st3">c</tspan><tspan x="24.1681976" y="0" class="st4 st3">ili</tspan><tspan x="28.8051472" y="0" class="st4 st3">t</tspan><tspan x="31.3752289" y="0" class="st4 st3">y</tspan><tspan x="34.9735756" y="0" class="st4 st3">T</tspan><tspan x="38.575367" y="0" class="st4 st3">y</tspan><tspan x="42.1748619" y="0" class="st4 st3">p</tspan><tspan x="46.2833176" y="0" class="st4 st3">e</tspan><tspan x="49.8816605" y="0" class="st4 st3">A</tspan><tspan x="54.5048256" y="0" class="st4 st3">tt</tspan><tspan x="59.6438408" y="0" class="st4 st3">r</tspan><tspan x="62.2116241" y="0" class="st4 st3">i</tspan><tspan x="63.7568932" y="0" class="st4 st3">b</tspan><tspan x="67.8664932" y="0" class="st4 st3">u</tspan><tspan x="71.9749527" y="0" class="st4 st3">t</tspan><tspan x="74.5438843" y="0" class="st4 st3">e</tspan></text>
<line class="st1" x1="416.9879456" y1="153.3106232" x2="519.0706177" y2="153.3106232"/>
<text transform="matrix(0.85 0 0 1 419.5313416 162.5678864)" class="st2 st3">+ class: gml::CodeType [0..1]</text>
<text transform="matrix(0.85 0 0 1 419.5313416 171.3100739)" class="st2 st3">+ function: gml::CodeType [0..*]</text>
<polygon class="st5" points="411.9092102,114.7392197 497.2320251,114.7392197 497.2320251,73.5963364 411.9092102,73.5963364 
	411.9092102,114.7392197 "/>
<polygon class="st1" points="411.9092102,114.7392197 497.2320251,114.7392197 497.2320251,73.5963364 411.9092102,73.5963364 
	411.9092102,114.7392197 "/>
<text transform="matrix(0.85 0 0 1 436.7969666 83.8882065)"><tspan x="0" y="0" class="st2 st3">«</tspan><tspan x="3.5960476" y="0" class="st2 st3">D</tspan><tspan x="8.2306986" y="0" class="st2 st3">a</tspan><tspan x="11.8255968" y="0" class="st2 st3">t</tspan><tspan x="13.8844204" y="0" class="st2 st3">a</tspan><tspan x="17.4793186" y="0" class="st2 st3">T</tspan><tspan x="21.0765152" y="0" class="st2 st3">y</tspan><tspan x="24.1636028" y="0" class="st2 st3">p</tspan><tspan x="28.2755051" y="0" class="st2 st3">e</tspan><tspan x="31.8715515" y="0" class="st2 st3">»</tspan></text>
<text transform="matrix(0.85 0 -0.3126727 0.9498609 423.0911865 92.6285782)"><tspan x="0" y="0" class="st6 st2 st7">u</tspan><tspan x="4.3278952" y="0" class="st6 st2 st7">r</tspan><tspan x="7.0289521" y="0" class="st6 st2 st7">o</tspan><tspan x="11.3568468" y="0" class="st6 st2 st7">::</tspan><tspan x="14.5921412" y="0" class="st6 st2 st7">F</tspan><tspan x="18.3800545" y="0" class="st6 st2 st7">a</tspan><tspan x="22.1656704" y="0" class="st6 st2 st7">c</tspan><tspan x="25.4170494" y="0" class="st6 st2 st7">ili</tspan><tspan x="30.2987118" y="0" class="st6 st2 st7">t</tspan><tspan x="33.0009193" y="0" class="st6 st2 st7">y</tspan><tspan x="36.7865334" y="0" class="st6 st2 st7">A</tspan><tspan x="41.657856" y="0" class="st6 st2 st7">tt</tspan><tspan x="47.0611191" y="0" class="st6 st2 st7">r</tspan><tspan x="49.7621765" y="0" class="st6 st2 st7">i</tspan><tspan x="51.3890152" y="0" class="st6 st2 st7">b</tspan><tspan x="55.7169113" y="0" class="st6 st2 st7">u</tspan><tspan x="60.0448036" y="0" class="st6 st2 st7">t</tspan><tspan x="62.7470093" y="0" class="st6 st2 st7">e</tspan></text>
<line class="st1" x1="411.9092102" y1="96.7392197" x2="496.7241516" y2="96.7392197"/>
<text transform="matrix(0.85 0 0 1 414.4532166 105.9975815)" class="st2 st3">+ facilityId: xs::string [0..1]</text>
<polygon class="st0" points="208.7595825,58.1678085 310.3343811,58.1678085 310.3343811,17.0249233 208.7595825,17.0249233 
	208.7595825,58.1678085 "/>
<polygon class="st1" points="208.7595825,58.1678085 310.3343811,58.1678085 310.3343811,17.0249233 208.7595825,17.0249233 
	208.7595825,58.1678085 "/>
<text transform="matrix(0.85 0 -0.3126727 0.9498609 276.3089294 25.7746964)"><tspan x="0" y="0" class="st2 st7">_</tspan><tspan x="2.710248" y="0" class="st2 st7">C</tspan><tspan x="7.0473342" y="0" class="st2 st7">i</tspan><tspan x="8.6741724" y="0" class="st2 st7">t</tspan><tspan x="10.840992" y="0" class="st2 st7">y</tspan><tspan x="14.092371" y="0" class="st2 st7">O</tspan><tspan x="19.5036755" y="0" class="st2 st7">b</tspan><tspan x="23.8327198" y="0" class="st2 st7">j</tspan><tspan x="25.4595585" y="0" class="st2 st7">e</tspan><tspan x="29.2463226" y="0" class="st2 st7">ct</tspan></text>
<text transform="matrix(0.85 0 -0.3126727 0.9498609 217.3895721 36.0673294)"><tspan x="0" y="0" class="st6 st2 st7">t</tspan><tspan x="2.7022059" y="0" class="st6 st2 st7">r</tspan><tspan x="5.4021139" y="0" class="st6 st2 st7">a</tspan><tspan x="9.1877298" y="0" class="st6 st2 st7">n</tspan><tspan x="13.515625" y="0" class="st6 st2 st7">::</tspan><tspan x="16.7509193" y="0" class="st6 st2 st7">_</tspan><tspan x="19.4611664" y="0" class="st6 st2 st7">T</tspan><tspan x="23.2467823" y="0" class="st6 st2 st7">r</tspan><tspan x="25.9478397" y="0" class="st6 st2 st7">a</tspan><tspan x="29.7323055" y="0" class="st6 st2 st7">n</tspan><tspan x="34.0613518" y="0" class="st6 st2 st7">s</tspan><tspan x="37.3081322" y="0" class="st6 st2 st7">p</tspan><tspan x="41.6360283" y="0" class="st6 st2 st7">o</tspan><tspan x="45.9639244" y="0" class="st6 st2 st7">r</tspan><tspan x="48.6649818" y="0" class="st6 st2 st7">t</tspan><tspan x="51.3660355" y="0" class="st6 st2 st7">a</tspan><tspan x="55.1516533" y="0" class="st6 st2 st7">t</tspan><tspan x="57.8538589" y="0" class="st6 st2 st7">i</tspan><tspan x="59.4806976" y="0" class="st6 st2 st7">o</tspan><tspan x="63.809742" y="0" class="st6 st2 st7">n</tspan><tspan x="68.1376343" y="0" class="st6 st2 st7">O</tspan><tspan x="73.5489426" y="0" class="st6 st2 st7">b</tspan><tspan x="77.8768387" y="0" class="st6 st2 st7">j</tspan><tspan x="79.5048218" y="0" class="st6 st2 st7">e</tspan><tspan x="83.2904358" y="0" class="st6 st2 st7">ct</tspan></text>
<polygon class="st5" points="36.0823898,62.2820663 147.8146973,62.2820663 147.8146973,17.0249233 36.0823898,17.0249233 
	36.0823898,62.2820663 "/>
<polygon class="st1" points="36.0823898,62.2820663 147.8146973,62.2820663 147.8146973,17.0249233 36.0823898,17.0249233 
	36.0823898,62.2820663 "/>
<text transform="matrix(0.85 0 0 1 74.1719589 27.3178921)"><tspan x="0" y="0" class="st2 st3">«</tspan><tspan x="3.5960476" y="0" class="st2 st3">D</tspan><tspan x="8.2301235" y="0" class="st2 st3">a</tspan><tspan x="11.8255968" y="0" class="st2 st3">t</tspan><tspan x="13.8838463" y="0" class="st2 st3">a</tspan><tspan x="17.4793186" y="0" class="st2 st3">T</tspan><tspan x="21.0759411" y="0" class="st2 st3">y</tspan><tspan x="24.1641769" y="0" class="st2 st3">p</tspan><tspan x="28.274931" y="0" class="st2 st3">e</tspan><tspan x="31.8715515" y="0" class="st2 st3">»</tspan></text>
<text transform="matrix(0.85 0 -0.3126727 0.9498609 65.5380096 36.0673294)"><tspan x="0" y="0" class="st6 st2 st7">u</tspan><tspan x="4.3278952" y="0" class="st6 st2 st7">r</tspan><tspan x="7.0289521" y="0" class="st6 st2 st7">o</tspan><tspan x="11.3568468" y="0" class="st6 st2 st7">::</tspan><tspan x="14.5921412" y="0" class="st6 st2 st7">D</tspan><tspan x="19.4703579" y="0" class="st6 st2 st7">m</tspan><tspan x="25.9627743" y="0" class="st6 st2 st7">A</tspan><tspan x="30.8340988" y="0" class="st6 st2 st7">tt</tspan><tspan x="36.2373619" y="0" class="st6 st2 st7">r</tspan><tspan x="38.9372673" y="0" class="st6 st2 st7">i</tspan><tspan x="40.565258" y="0" class="st6 st2 st7">b</tspan><tspan x="44.8931503" y="0" class="st6 st2 st7">u</tspan><tspan x="49.2210464" y="0" class="st6 st2 st7">t</tspan><tspan x="51.9232521" y="0" class="st6 st2 st7">e</tspan></text>
<line class="st1" x1="36.0823898" y1="40.1678085" x2="147.3068237" y2="40.1678085"/>
<text transform="matrix(0.85 0 0 1 38.6172714 49.427269)"><tspan x="0" y="0" class="st2 st3">+</tspan><tspan x="4.627183" y="0" class="st2 st3"> </tspan></text>
<text transform="matrix(0.85 0 0 1 49.7969589 49.427269)"><tspan x="0" y="0" class="st2 st3">d</tspan><tspan x="4.1107535" y="0" class="st2 st3">m</tspan><tspan x="9.7690716" y="0" class="st2 st3">C</tspan><tspan x="13.888442" y="0" class="st2 st3">o</tspan><tspan x="17.9997692" y="0" class="st2 st3">d</tspan><tspan x="22.1105232" y="0" class="st2 st3">e</tspan><tspan x="25.7071457" y="0" class="st2 st3">:</tspan><tspan x="27.2432213" y="0" class="st2 st3"> </tspan><tspan x="29.2957249" y="0" class="st2 st3">g</tspan><tspan x="33.4064789" y="0" class="st2 st3">m</tspan><tspan x="39.0647964" y="0" class="st2 st3">l</tspan><tspan x="40.6100616" y="0" class="st2 st3">::</tspan><tspan x="43.6827888" y="0" class="st2 st3">C</tspan><tspan x="47.8021584" y="0" class="st2 st3">o</tspan><tspan x="51.9134865" y="0" class="st2 st3">d</tspan><tspan x="56.0242386" y="0" class="st2 st3">e</tspan><tspan x="59.6208611" y="0" class="st2 st3">T</tspan><tspan x="63.2174835" y="0" class="st2 st3">y</tspan><tspan x="66.3051453" y="0" class="st2 st3">p</tspan><tspan x="70.4164734" y="0" class="st2 st3">e</tspan></text>
<text transform="matrix(0.85 0 0 1 38.6172714 58.1694565)"><tspan x="0" y="0" class="st2 st3">+</tspan><tspan x="4.627183" y="0" class="st2 st3"> </tspan></text>
<text transform="matrix(0.85 0 0 1 49.7969589 58.1694565)"><tspan x="0" y="0" class="st2 st3">m</tspan><tspan x="5.658318" y="0" class="st2 st3">e</tspan><tspan x="9.25494" y="0" class="st2 st3">s</tspan><tspan x="12.3391542" y="0" class="st2 st3">h</tspan><tspan x="15.9420948" y="0" class="st2 st3">C</tspan><tspan x="20.0614662" y="0" class="st2 st3">o</tspan><tspan x="24.1727943" y="0" class="st2 st3">d</tspan><tspan x="28.2835464" y="0" class="st2 st3">e</tspan><tspan x="31.8801689" y="0" class="st2 st3">:</tspan><tspan x="33.4162445" y="0" class="st2 st3"> </tspan><tspan x="35.46875" y="0" class="st2 st3">g</tspan><tspan x="39.5795021" y="0" class="st2 st3">m</tspan><tspan x="45.2378197" y="0" class="st2 st3">l</tspan><tspan x="46.7830887" y="0" class="st2 st3">::</tspan><tspan x="49.8558121" y="0" class="st2 st3">C</tspan><tspan x="53.9751816" y="0" class="st2 st3">o</tspan><tspan x="58.0865097" y="0" class="st2 st3">d</tspan><tspan x="62.1972656" y="0" class="st2 st3">e</tspan><tspan x="65.7938843" y="0" class="st2 st3">T</tspan><tspan x="69.3905106" y="0" class="st2 st3">y</tspan><tspan x="72.4781723" y="0" class="st2 st3">p</tspan><tspan x="76.5895004" y="0" class="st2 st3">e</tspan><tspan x="80.1861191" y="0" class="st2 st3"> </tspan><tspan x="82.2380524" y="0" class="st2 st3">[</tspan><tspan x="84.2888336" y="0" class="st2 st3">0</tspan><tspan x="87.8929214" y="0" class="st2 st3">..</tspan><tspan x="90.9656448" y="0" class="st2 st3">1]</tspan></text>
<path class="st8" d="M132.578476,176.4535065c0.8414612,0,1.5236053,0.6907959,1.5236053,1.5428467h0.0000153v58.1142883
	l-0.0000153,0.0000305c0,0.8520813-0.6821442,1.5428467-1.5236206,1.5428467l0,0h0.0000153H37.6060104h-0.0000076
	c-0.8414688,0-1.5236206-0.6907654-1.5236206-1.5428772h0.0000076v-58.1142883c0-0.8520508,0.6821442-1.5428467,1.5236206-1.5428467
	l0,0H132.578476L132.578476,176.4535065L132.578476,176.4535065z"/>
<path class="st9" d="M132.578476,176.4535065c0.8414612,0,1.5236053,0.6907959,1.5236053,1.5428467h0.0000153v58.1142883
	l-0.0000153,0.0000305c0,0.8520813-0.6821442,1.5428467-1.5236206,1.5428467l0,0h0.0000153H37.6060104h-0.0000076
	c-0.8414688,0-1.5236206-0.6907654-1.5236206-1.5428772h0.0000076v-58.1142883c0-0.8520508,0.6821442-1.5428467,1.5236206-1.5428467
	l0,0H132.578476L132.578476,176.4535065L132.578476,176.4535065z"/>
<polygon class="st10" points="41.1611328,200.6248932 49.7949905,200.6248932 49.7949905,191.8820953 41.1611328,191.8820953 
	41.1611328,200.6248932 "/>
<polygon class="st11" points="41.1611328,200.6248932 49.7949905,200.6248932 49.7949905,191.8820953 41.1611328,191.8820953 
	41.1611328,200.6248932 "/>
<text transform="matrix(0.85 0 0 1 52.3360214 199.0835114)" class="st12 st2 st3">GMLに定義されたクラス</text>
<polygon class="st0" points="41.1611328,210.3963776 49.7949905,210.3963776 49.7949905,201.6535187 41.1611328,201.6535187 
	41.1611328,210.3963776 "/>
<polygon class="st11" points="41.1611328,210.3963776 49.7949905,210.3963776 49.7949905,201.6535187 41.1611328,201.6535187 
	41.1611328,210.3963776 "/>
<text transform="matrix(0.85 0 0 1 52.3360214 208.8569489)" class="st12 st2 st3">CityGMLに定義されたクラス</text>
<polygon class="st5" points="41.1611328,220.1678009 49.7949905,220.1678009 49.7949905,211.424942 41.1611328,211.424942 
	41.1611328,220.1678009 "/>
<polygon class="st11" points="41.1611328,220.1678009 49.7949905,220.1678009 49.7949905,211.424942 41.1611328,211.424942 
	41.1611328,220.1678009 "/>
<text transform="matrix(0.85 0 0 1 52.3360214 218.6225739)" class="st12 st2 st3">i-URに定義されたクラス</text>
<text transform="matrix(0.85 0 0 1 77.2188339 188.8022614)" class="st12 st4 st13">凡例</text>
<line class="st1" x1="148.3225708" y1="38.6249008" x2="208.251709" y2="38.1106186"/>
<polyline class="st14" points="203.1729736,40.6820908 208.251709,38.1106186 203.1729736,35.5392075 198.0942383,38.1106186 
	203.1729736,40.6820908 "/>
<polygon class="st1" points="203.1729736,40.6820908 208.251709,38.1106186 203.1729736,35.5392075 198.0942383,38.1106186 "/>
<polyline class="st1" points="155.9406738,41.7106552 148.3225708,38.6249008 155.9406738,35.5392075 "/>
<line class="st1" x1="411.4013367" y1="93.6535263" x2="336.7438049" y2="93.6535263"/>
<line class="st1" x1="336.7438049" y1="93.6535263" x2="336.7438049" y2="130.1678009"/>
<line class="st1" x1="336.7438049" y1="130.1678009" x2="311.8580017" y2="130.1678009"/>
<polyline class="st14" points="316.9367371,127.5963364 311.8580017,130.1678009 316.9367371,132.739212 322.0154724,130.1678009 
	316.9367371,127.5963364 "/>
<polyline class="st1" points="316.9367371,127.5963364 311.8580017,130.1678009 316.9367371,132.739212 322.0154724,130.1678009 "/>
<polyline class="st1" points="403.7832336,90.5677719 411.4013367,93.6535263 403.7832336,96.7392197 "/>
<line class="st1" x1="416.480072" y1="152.2820587" x2="336.7438049" y2="152.2820587"/>
<polyline class="st14" points="316.9367371,127.5963364 311.8580017,130.1678009 316.9367371,132.739212 322.0154724,130.1678009 
	316.9367371,127.5963364 "/>
<polyline class="st1" points="316.9367371,127.5963364 311.8580017,130.1678009 316.9367371,132.739212 322.0154724,130.1678009 "/>
<polyline class="st1" points="408.861969,149.1963654 416.480072,152.2820587 408.861969,155.3678131 "/>
<line class="st1" x1="416.480072" y1="273.6535339" x2="336.7438049" y2="273.6535339"/>
<line class="st1" x1="336.7438049" y1="273.6535339" x2="336.7438049" y2="130.1678009"/>
<polyline class="st14" points="316.9367371,127.5963364 311.8580017,130.1678009 316.9367371,132.739212 322.0154724,130.1678009 
	316.9367371,127.5963364 "/>
<polygon class="st1" points="322.0154724,130.1678009 316.9367371,132.739212 311.8580017,130.1678009 316.9367371,127.5963364 "/>
<polyline class="st1" points="408.861969,270.5678101 416.480072,273.6535339 408.861969,276.7392273 "/>
<line class="st1" x1="262.5942383" y1="263.3677979" x2="262.5942383" y2="228.3963776"/>
<polyline class="st14" points="265.133606,233.5391998 262.5942383,228.3963776 260.0548706,233.5391998 262.5942383,238.6820831 
	265.133606,233.5391998 "/>
<polygon class="st1" points="262.5942383,238.6820831 260.0548706,233.5391998 262.5942383,228.3963776 265.133606,233.5391998 "/>
<polyline class="st1" points="265.6414795,255.6535187 262.5942383,263.3677979 259.5469971,255.6535187 "/>
<line class="st1" x1="255.4840088" y1="103.9392319" x2="255.4840088" y2="58.6820908"/>
<polyline class="st15" points="258.53125,66.9106674 252.4367676,66.9106674 255.4840088,58.6820908 258.53125,66.9106674 "/>
<polygon class="st1" points="258.53125,66.9106674 252.4367676,66.9106674 255.4840088,58.6820908 "/>
<line class="st1" x1="259.5469971" y1="186.2249298" x2="259.5469971" y2="156.9106598"/>
<polyline class="st15" points="262.5942383,165.1392365 256.4997559,165.1392365 259.5469971,156.9106598 262.5942383,165.1392365 
	"/>
<polygon class="st1" points="262.5942383,165.1392365 256.4997559,165.1392365 259.5469971,156.9106598 "/>
<line class="st1" x1="169.145401" y1="125.0249252" x2="208.251709" y2="125.0249252"/>
<polyline class="st14" points="203.1729736,127.5963364 208.251709,125.0249252 203.1729736,122.4535141 198.0942383,125.0249252 
	203.1729736,127.5963364 "/>
<polygon class="st1" points="203.1729736,127.5963364 208.251709,125.0249252 203.1729736,122.4535141 198.0942383,125.0249252 "/>
<polyline class="st1" points="176.7635193,128.110611 169.145401,125.0249252 176.7635193,121.9392319 "/>
<text transform="matrix(0.85 0 0 1 340.8047791 184.1694489)"><tspan x="0" y="0" class="st2 st3">+</tspan><tspan x="4.6266084" y="0" class="st2 st3">t</tspan><tspan x="6.685432" y="0" class="st2 st3">r</tspan><tspan x="9.2509184" y="0" class="st2 st3">a</tspan><tspan x="12.8458176" y="0" class="st2 st3">n</tspan><tspan x="16.4487591" y="0" class="st2 st3">F</tspan><tspan x="19.5392914" y="0" class="st2 st3">a</tspan><tspan x="23.1353397" y="0" class="st2 st3">c</tspan><tspan x="26.2235737" y="0" class="st2 st3">ili</tspan><tspan x="30.8605232" y="0" class="st2 st3">t</tspan><tspan x="32.9181976" y="0" class="st2 st3">y</tspan><tspan x="36.0064316" y="0" class="st2 st3">T</tspan><tspan x="39.6024818" y="0" class="st2 st3">y</tspan><tspan x="42.6907158" y="0" class="st2 st3">p</tspan><tspan x="46.8014679" y="0" class="st2 st3">e</tspan><tspan x="50.3986664" y="0" class="st2 st3">A</tspan><tspan x="54.5174599" y="0" class="st2 st3">tt</tspan><tspan x="58.6339607" y="0" class="st2 st3">r</tspan><tspan x="61.1982994" y="0" class="st2 st3">i</tspan><tspan x="62.7447128" y="0" class="st2 st3">b</tspan><tspan x="66.8554688" y="0" class="st2 st3">u</tspan><tspan x="70.4584045" y="0" class="st2 st3">t</tspan><tspan x="72.5160828" y="0" class="st2 st3">e</tspan></text>
<text transform="matrix(0.85 0 0 1 403.7813416 165.1381989)"><tspan x="0" y="0" class="st2 st3">0</tspan><tspan x="3.60409" y="0" class="st2 st3">..</tspan><tspan x="6.6762404" y="0" class="st2 st3">*</tspan></text>
<text transform="matrix(0.85 0 0 1 346.3907166 267.4819641)"><tspan x="0" y="0" class="st2 st3">+</tspan><tspan x="4.6266084" y="0" class="st2 st3">t</tspan><tspan x="6.685432" y="0" class="st2 st3">r</tspan><tspan x="9.2509184" y="0" class="st2 st3">a</tspan><tspan x="12.8458176" y="0" class="st2 st3">n</tspan><tspan x="16.4487591" y="0" class="st2 st3">F</tspan><tspan x="19.5392914" y="0" class="st2 st3">a</tspan><tspan x="23.1353397" y="0" class="st2 st3">c</tspan><tspan x="26.2235737" y="0" class="st2 st3">ili</tspan><tspan x="30.8605232" y="0" class="st2 st3">t</tspan><tspan x="32.9181976" y="0" class="st2 st3">y</tspan><tspan x="36.0064316" y="0" class="st2 st3">I</tspan><tspan x="37.5517006" y="0" class="st2 st3">d</tspan><tspan x="41.6624527" y="0" class="st2 st3">A</tspan><tspan x="45.78125" y="0" class="st2 st3">tt</tspan><tspan x="49.897747" y="0" class="st2 st3">r</tspan><tspan x="52.4632339" y="0" class="st2 st3">i</tspan><tspan x="54.0084991" y="0" class="st2 st3">b</tspan><tspan x="58.1192551" y="0" class="st2 st3">u</tspan><tspan x="61.7221947" y="0" class="st2 st3">t</tspan><tspan x="63.7810173" y="0" class="st2 st3">e</tspan></text>
<text transform="matrix(0.85 0 0 1 395.6563416 288.0600891)"><tspan x="0" y="0" class="st2 st3">0</tspan><tspan x="3.60409" y="0" class="st2 st3">..</tspan><tspan x="6.6762404" y="0" class="st2 st3">1</tspan></text>
<text transform="matrix(0.85 0 0 1 162.0391541 80.802269)"><tspan x="0" y="0" class="st2 st3">+</tspan><tspan x="4.627183" y="0" class="st2 st3">t</tspan><tspan x="6.685432" y="0" class="st2 st3">r</tspan><tspan x="9.2503443" y="0" class="st2 st3">a</tspan><tspan x="12.8458176" y="0" class="st2 st3">n</tspan><tspan x="16.4487591" y="0" class="st2 st3">D</tspan><tspan x="21.0834103" y="0" class="st2 st3">a</tspan><tspan x="24.6788826" y="0" class="st2 st3">t</tspan><tspan x="26.7371311" y="0" class="st2 st3">a</tspan><tspan x="30.3326054" y="0" class="st2 st3">Q</tspan><tspan x="35.4733429" y="0" class="st2 st3">u</tspan><tspan x="39.0762863" y="0" class="st2 st3">a</tspan><tspan x="42.6717606" y="0" class="st2 st3">li</tspan><tspan x="45.762867" y="0" class="st2 st3">t</tspan><tspan x="47.8211136" y="0" class="st2 st3">y</tspan><tspan x="50.9093513" y="0" class="st2 st3">A</tspan><tspan x="55.0281448" y="0" class="st2 st3">tt</tspan><tspan x="59.1446457" y="0" class="st2 st3">r</tspan><tspan x="61.7095566" y="0" class="st2 st3">i</tspan><tspan x="63.2553978" y="0" class="st2 st3">b</tspan><tspan x="67.3661499" y="0" class="st2 st3">u</tspan><tspan x="70.9690933" y="0" class="st2 st3">t</tspan><tspan x="73.0273438" y="0" class="st2 st3">e</tspan></text>
<text transform="matrix(0.85 0 0 1 177.7813416 139.9428864)"><tspan x="0" y="0" class="st2 st3">0</tspan><tspan x="3.60409" y="0" class="st2 st3">..</tspan><tspan x="6.676815" y="0" class="st2 st3">1</tspan></text>
<text transform="matrix(0.85 0 0 1 340.2969666 89.5444565)"><tspan x="0" y="0" class="st2 st3">+</tspan><tspan x="4.6266084" y="0" class="st2 st3">t</tspan><tspan x="6.685432" y="0" class="st2 st3">r</tspan><tspan x="9.2509184" y="0" class="st2 st3">a</tspan><tspan x="12.8458176" y="0" class="st2 st3">n</tspan><tspan x="16.4487591" y="0" class="st2 st3">F</tspan><tspan x="19.5392914" y="0" class="st2 st3">a</tspan><tspan x="23.1353397" y="0" class="st2 st3">c</tspan><tspan x="26.2235737" y="0" class="st2 st3">ili</tspan><tspan x="30.8605232" y="0" class="st2 st3">t</tspan><tspan x="32.9181976" y="0" class="st2 st3">y</tspan><tspan x="36.0064316" y="0" class="st2 st3">A</tspan><tspan x="40.1252289" y="0" class="st2 st3">tt</tspan><tspan x="44.2417259" y="0" class="st2 st3">r</tspan><tspan x="46.8072128" y="0" class="st2 st3">i</tspan><tspan x="48.3524818" y="0" class="st2 st3">b</tspan><tspan x="52.4632339" y="0" class="st2 st3">u</tspan><tspan x="56.0661736" y="0" class="st2 st3">t</tspan><tspan x="58.125" y="0" class="st2 st3">e</tspan></text>
<text transform="matrix(0.85 0 0 1 398.7032166 105.489769)"><tspan x="0" y="0" class="st2 st3">0</tspan><tspan x="3.60409" y="0" class="st2 st3">..</tspan><tspan x="6.6762404" y="0" class="st2 st3">*</tspan></text>
<text transform="matrix(0.85 0 0 1 213.8360291 249.9975739)"><tspan x="0" y="0" class="st2 st3">+</tspan><tspan x="4.627183" y="0" class="st2 st3">t</tspan><tspan x="6.685432" y="0" class="st2 st3">r</tspan><tspan x="9.2503443" y="0" class="st2 st3">a</tspan><tspan x="12.8458176" y="0" class="st2 st3">c</tspan><tspan x="15.9340525" y="0" class="st2 st3">k</tspan><tspan x="19.0234375" y="0" class="st2 st3">A</tspan><tspan x="23.1416588" y="0" class="st2 st3">tt</tspan><tspan x="27.2587299" y="0" class="st2 st3">r</tspan><tspan x="29.8236427" y="0" class="st2 st3">i</tspan><tspan x="31.3689098" y="0" class="st2 st3">b</tspan><tspan x="35.4802399" y="0" class="st2 st3">u</tspan><tspan x="39.0831795" y="0" class="st2 st3">t</tspan><tspan x="41.1414299" y="0" class="st2 st3">e</tspan></text>
<text transform="matrix(0.85 0 0 1 269.7032166 249.9975739)"><tspan x="0" y="0" class="st2 st3">0</tspan><tspan x="3.60409" y="0" class="st2 st3">..</tspan><tspan x="6.676815" y="0" class="st2 st3">1</tspan></text>
<text transform="matrix(0.85 0 0 1 149.8516541 29.8882046)"><tspan x="0" y="0" class="st2 st3">+</tspan><tspan x="4.627183" y="0" class="st2 st3">t</tspan><tspan x="6.685432" y="0" class="st2 st3">r</tspan><tspan x="9.2503443" y="0" class="st2 st3">a</tspan><tspan x="12.8458176" y="0" class="st2 st3">n</tspan><tspan x="16.4487591" y="0" class="st2 st3">D</tspan><tspan x="21.0834103" y="0" class="st2 st3">m</tspan><tspan x="26.7417278" y="0" class="st2 st3">A</tspan><tspan x="30.8599491" y="0" class="st2 st3">tt</tspan><tspan x="34.9764481" y="0" class="st2 st3">r</tspan><tspan x="37.541935" y="0" class="st2 st3">i</tspan><tspan x="39.0872002" y="0" class="st2 st3">b</tspan><tspan x="43.1985283" y="0" class="st2 st3">u</tspan><tspan x="46.8014679" y="0" class="st2 st3">t</tspan><tspan x="48.8597183" y="0" class="st2 st3">e</tspan></text>
<text transform="matrix(0.85 0 0 1 156.9610291 55.0757065)"><tspan x="0" y="0" class="st2 st3">0</tspan><tspan x="3.60409" y="0" class="st2 st3">..</tspan><tspan x="6.676815" y="0" class="st2 st3">*</tspan></text>
</svg>
