<?xml version="1.0" encoding="utf-8"?>
<!-- Generator: Adobe Illustrator 27.5.0, SVG Export Plug-In . SVG Version: 6.00 Build 0)  -->
<svg version="1.1" id="レイヤー_1" xmlns="http://www.w3.org/2000/svg" xmlns:xlink="http://www.w3.org/1999/xlink" x="0px"
	 y="0px" viewBox="0 0 812.7244263 490" style="enable-background:new 0 0 812.7244263 490;" xml:space="preserve">
<style type="text/css">
	.st0{opacity:0.5019608;fill-rule:evenodd;clip-rule:evenodd;fill:#969696;enable-background:new    ;}
	.st1{fill-rule:evenodd;clip-rule:evenodd;fill:#FFCCFF;}
	.st2{fill:none;stroke:#000000;stroke-width:1.5013124;stroke-linecap:round;stroke-linejoin:round;stroke-miterlimit:10;}
	.st3{font-family:'YuGothicUI-Regular';}
	.st4{font-size:10.2875204px;}
	.st5{font-size:9.7585306px;}
	.st6{fill:none;stroke:#000000;stroke-width:0.2788152;stroke-miterlimit:10;}
	.st7{font-family:'YuGothicUI-Bold';}
	.st8{fill-rule:evenodd;clip-rule:evenodd;fill:#F0F0F0;}
	.st9{fill:none;stroke:#D7D7D7;stroke-width:0.7506562;stroke-linecap:square;stroke-miterlimit:10;}
	.st10{fill-rule:evenodd;clip-rule:evenodd;fill:#CCFFCC;}
	.st11{fill:none;stroke:#000000;stroke-width:0.7506562;stroke-linecap:square;stroke-miterlimit:10;}
	.st12{fill:#003060;}
	.st13{font-family:'Meiryo';}
	.st14{font-size:7.5065618px;}
	.st15{fill-rule:evenodd;clip-rule:evenodd;fill:#FFFFCC;}
	.st16{font-family:'Meiryo-Bold';}
	.st17{font-size:12.010499px;}
	.st18{letter-spacing:-2.352941;}
	.st19{fill:none;stroke:#000000;stroke-width:1.5013124;stroke-linecap:round;stroke-linejoin:bevel;stroke-miterlimit:10;}
	.st20{fill-rule:evenodd;clip-rule:evenodd;fill:#FFFFFF;}
	.st21{fill-rule:evenodd;clip-rule:evenodd;}
</style>
<path class="st0" d="M750.2040405,35.0026703c1.0375366,0,1.8786621,0.8401489,1.8786621,1.8766479h0.000061V381.430481
	l-0.000061,0.000061c0,1.036377-0.8411255,1.8766479-1.8786621,1.8765869c0,0.000061,0,0,0,0l0,0H496.9565125l-0.0000305,0.000061
	c-1.0375671-0.000061-1.8786926-0.840271-1.8786926-1.876709h0.0000305V36.8793182
	c0-1.036499,0.841095-1.876709,1.8786926-1.8766479v-0.000061h253.2475281V35.0026703L750.2040405,35.0026703z"/>
<path class="st1" d="M747.949646,32.7507172c1.0375366,0,1.8786011,0.8401489,1.8786011,1.8766479l0.000061-0.000061v344.5512085
	l-0.000061,0.000061c0,1.036377-0.8410645,1.8765869-1.8786621,1.8765869l0,0h0.000061H494.7020874h-0.0000305
	c-1.0375671,0-1.8786926-0.84021-1.8786926-1.8766479h0.0000305V34.6273041c0-1.036438,0.841095-1.8766479,1.8786926-1.8765869
	v-0.000061H747.949646V32.7507172L747.949646,32.7507172z"/>
<path class="st2" d="M747.949646,32.7507172c1.0375366,0,1.8786011,0.8401489,1.8786011,1.8766479l0.000061-0.000061v344.5512085
	l-0.000061,0.000061c0,1.036377-0.8410645,1.8765869-1.8786621,1.8765869l0,0h0.000061H494.7020874h-0.0000305
	c-1.0375671,0-1.8786926-0.84021-1.8786926-1.8766479h0.0000305V34.6273041c0-1.036438,0.841095-1.8766479,1.8786926-1.8765869
	v-0.000061H747.949646V32.7507172L747.949646,32.7507172z"/>
<text transform="matrix(0.85 0 -0.3165385 0.9485797 691.71875 45.5281105)" class="st3 st4">_CityObject</text>
<text transform="matrix(0.85 0 0 1 589.7568359 62.777832)" class="st3 st5">«FeatureType»</text>
<text transform="matrix(0.85 0 -0.3165385 0.9485797 576.9859619 75.5491791)" class="st3 st4">u</text>
<text transform="matrix(0.85 0 -0.3165385 0.9485797 576.9859619 75.5491791)" class="st6 st3 st4">u</text>
<text transform="matrix(0.85 0 -0.3165385 0.9485797 582.9927979 75.5491791)" class="st3 st4">r</text>
<text transform="matrix(0.85 0 -0.3165385 0.9485797 582.9927979 75.5491791)" class="st6 st3 st4">r</text>
<text transform="matrix(0.85 0 -0.3165385 0.9485797 586.7408447 75.5491791)" class="st3 st4">f</text>
<text transform="matrix(0.85 0 -0.3165385 0.9485797 586.7408447 75.5491791)" class="st6 st3 st4">f</text>
<text transform="matrix(0.85 0 -0.3165385 0.9485797 589.7496338 75.5491791)" class="st3 st4">::</text>
<text transform="matrix(0.85 0 -0.3165385 0.9485797 589.7496338 75.5491791)" class="st6 st3 st4">::</text>
<text transform="matrix(0.85 0 -0.3165385 0.9485797 594.2398682 75.5491791)" class="st3 st4">_</text>
<text transform="matrix(0.85 0 -0.3165385 0.9485797 594.2398682 75.5491791)" class="st6 st3 st4">_</text>
<text transform="matrix(0.85 0 -0.3165385 0.9485797 598.0015869 75.5491791)" class="st3 st4">U</text>
<text transform="matrix(0.85 0 -0.3165385 0.9485797 598.0015869 75.5491791)" class="st6 st3 st4">U</text>
<text transform="matrix(0.85 0 -0.3165385 0.9485797 604.7613525 75.5491791)" class="st3 st4">r</text>
<text transform="matrix(0.85 0 -0.3165385 0.9485797 604.7613525 75.5491791)" class="st6 st3 st4">r</text>
<text transform="matrix(0.85 0 -0.3165385 0.9485797 608.5093994 75.5491791)" class="st3 st4">b</text>
<text transform="matrix(0.85 0 -0.3165385 0.9485797 608.5093994 75.5491791)" class="st6 st3 st4">b</text>
<text transform="matrix(0.85 0 -0.3165385 0.9485797 614.5172119 75.5491791)" class="st3 st4">a</text>
<text transform="matrix(0.85 0 -0.3165385 0.9485797 614.5172119 75.5491791)" class="st6 st3 st4">a</text>
<text transform="matrix(0.85 0 -0.3165385 0.9485797 619.7701416 75.5491791)" class="st3 st4">n</text>
<text transform="matrix(0.85 0 -0.3165385 0.9485797 619.7701416 75.5491791)" class="st6 st3 st4">n</text>
<text transform="matrix(0.85 0 -0.3165385 0.9485797 625.7779541 75.5491791)" class="st3 st4">F</text>
<text transform="matrix(0.85 0 -0.3165385 0.9485797 625.7779541 75.5491791)" class="st6 st3 st4">F</text>
<text transform="matrix(0.85 0 -0.3165385 0.9485797 631.0367432 75.5491791)" class="st3 st4">un</text>
<text transform="matrix(0.85 0 -0.3165385 0.9485797 631.0367432 75.5491791)" class="st6 st3 st4">un</text>
<text transform="matrix(0.85 0 -0.3165385 0.9485797 643.050415 75.5491791)" class="st3 st4">c</text>
<text transform="matrix(0.85 0 -0.3165385 0.9485797 643.050415 75.5491791)" class="st6 st3 st4">c</text>
<text transform="matrix(0.85 0 -0.3165385 0.9485797 647.5631104 75.5491791)" class="st3 st4">t</text>
<text transform="matrix(0.85 0 -0.3165385 0.9485797 647.5631104 75.5491791)" class="st6 st3 st4">t</text>
<text transform="matrix(0.85 0 -0.3165385 0.9485797 651.3131104 75.5491791)" class="st3 st4">i</text>
<text transform="matrix(0.85 0 -0.3165385 0.9485797 651.3131104 75.5491791)" class="st6 st3 st4">i</text>
<text transform="matrix(0.85 0 -0.3165385 0.9485797 653.5718994 75.5491791)" class="st3 st4">o</text>
<text transform="matrix(0.85 0 -0.3165385 0.9485797 653.5718994 75.5491791)" class="st6 st3 st4">o</text>
<text transform="matrix(0.85 0 -0.3165385 0.9485797 659.5797119 75.5491791)" class="st3 st4">n</text>
<text transform="matrix(0.85 0 -0.3165385 0.9485797 659.5797119 75.5491791)" class="st6 st3 st4">n</text>
<line class="st2" x1="492.8233948" y1="81.5433197" x2="749.8283081" y2="81.5433197"/>
<text transform="matrix(0.85 0 0 1 496.5771484 95.0512695)" class="st3 st5">+ </text>
<text transform="matrix(0.85 0 0 1 513.1083984 95.0512695)" class="st3 st5">areaClassificationType: gml::CodeType [0..1]</text>
<text transform="matrix(0.85 0 0 1 496.5771484 107.8168945)" class="st3 st5">+ </text>
<text transform="matrix(0.85 0 0 1 513.1083984 107.8168945)" class="st3 st5">city: gml::CodeType [0..1]</text>
<text transform="matrix(0.85 0 0 1 496.5771484 120.5825195)" class="st3 st5">+ </text>
<text transform="matrix(0.85 0 0 1 513.1083984 120.5825195)" class="st3 st5">class: gml::CodeType [0..1]</text>
<text transform="matrix(0.85 0 0 1 496.5771484 133.3481445)" class="st3 st5">+ </text>
<text transform="matrix(0.85 0 0 1 513.1083984 133.3481445)" class="st3 st5">custodian: xs::string [0..1]</text>
<text transform="matrix(0.85 0 0 1 496.5771484 146.0981445)" class="st3 st5">+ </text>
<text transform="matrix(0.85 0 0 1 513.1083984 146.0981445)" class="st3 st5">enactmentFiscalYear: xs::gYear [0..1]</text>
<text transform="matrix(0.85 0 0 1 496.5771484 158.8637695)" class="st3 st5">+ </text>
<text transform="matrix(0.85 0 0 1 513.1083984 158.8637695)" class="st3 st5">expirationFiscalYear: xs::gYear [0..1]</text>
<text transform="matrix(0.85 0 0 1 496.5771484 171.6293945)" class="st3 st5">+ </text>
<text transform="matrix(0.85 0 0 1 513.1083984 171.6293945)" class="st3 st5">finalNotificationDate: xs::date [0..1]</text>
<text transform="matrix(0.85 0 0 1 496.5771484 184.3950195)" class="st3 st5">+ </text>
<text transform="matrix(0.85 0 0 1 513.1083984 184.3950195)" class="st3 st5">finalNotificationNumber: xs::string [0..1]</text>
<text transform="matrix(0.85 0 0 1 496.5771484 197.1450195)" class="st3 st5">+ </text>
<text transform="matrix(0.85 0 0 1 513.1083984 197.1450195)" class="st3 st5">function: gml::CodeType [0..*]</text>
<text transform="matrix(0.85 0 0 1 496.5771484 209.9106445)" class="st3 st5">+ </text>
<text transform="matrix(0.85 0 0 1 513.1083984 209.9106445)" class="st3 st5">legalGrounds: xs::string [0..1]</text>
<text transform="matrix(0.85 0 0 1 496.5771484 222.6762695)" class="st3 st5">+ </text>
<text transform="matrix(0.85 0 0 1 513.1083984 222.6762695)" class="st3 st5">nominalArea: gml::MeasureType [0..1]</text>
<text transform="matrix(0.85 0 0 1 496.5771484 235.4262695)" class="st3 st5">+ </text>
<text transform="matrix(0.85 0 0 1 513.1083984 235.4262695)" class="st3 st5">note: gml:StringOrRefType [0..1]</text>
<text transform="matrix(0.85 0 0 1 496.5771484 248.1918945)" class="st3 st5">+ </text>
<text transform="matrix(0.85 0 0 1 513.1083984 248.1918945)" class="st3 st5">notificationNumber: xs::string [0..1]</text>
<text transform="matrix(0.85 0 0 1 496.5771484 260.9575195)" class="st3 st5">+ </text>
<text transform="matrix(0.85 0 0 1 513.1083984 260.9575195)" class="st3 st5">prefecture: gml::CodeType [0..1]</text>
<text transform="matrix(0.85 0 0 1 496.5771484 273.715332)" class="st3 st5">+ </text>
<text transform="matrix(0.85 0 0 1 513.1083984 273.715332)" class="st3 st5">reason: gml:StringOrRefType [0..1]</text>
<text transform="matrix(0.85 0 0 1 496.5771484 286.4731445)" class="st3 st5">+ </text>
<text transform="matrix(0.85 0 0 1 513.1083984 286.4731445)" class="st3 st5">reference: xs::anyURI [0..1]</text>
<text transform="matrix(0.85 0 0 1 496.5771484 299.2387695)" class="st3 st5">+ </text>
<text transform="matrix(0.85 0 0 1 513.1083984 299.2387695)" class="st3 st5">surveyYear: xs::gYear [0..1]</text>
<text transform="matrix(0.85 0 0 1 496.5771484 311.996582)" class="st3 st5">+ </text>
<text transform="matrix(0.85 0 0 1 513.1083984 311.996582)" class="st3 st5">urbanPlanType: gml::CodeType [0..1]</text>
<text transform="matrix(0.85 0 0 1 496.5771484 324.762207)" class="st3 st5">+ </text>
<text transform="matrix(0.85 0 0 1 513.1083984 324.762207)" class="st3 st5">usage: gml::CodeType [0..*]</text>
<text transform="matrix(0.85 0 0 1 496.5771484 337.5200195)" class="st3 st5">+ </text>
<text transform="matrix(0.85 0 0 1 513.1083984 337.5200195)" class="st3 st5">validFrom: xs::date [0..1]</text>
<text transform="matrix(0.85 0 0 1 496.5771484 350.277832)" class="st3 st5">+ </text>
<text transform="matrix(0.85 0 0 1 513.1083984 350.277832)" class="st3 st5">validFromType: gml::CodeType [0..1]</text>
<text transform="matrix(0.85 0 0 1 496.5771484 363.043457)" class="st3 st5">+ </text>
<text transform="matrix(0.85 0 0 1 513.1083984 363.043457)" class="st3 st5">validTo: xs::date [0..1]</text>
<text transform="matrix(0.85 0 0 1 496.5771484 375.809082)" class="st3 st5">+ </text>
<text transform="matrix(0.85 0 0 1 513.1083984 375.809082)" class="st3 st5">validToType: gml::CodeType [0..1]</text>
<path class="st0" d="M369.2055054,116.0735321c1.0375977,0,1.8786926,0.84021,1.8786926,1.8766479v-0.000061v49.543335v0.0000305
	c0,1.036438-0.841095,1.8766479-1.8786926,1.8766174c0,0.0000305,0,0,0,0l0,0H247.4663391l-0.0000305,0.0000305
	c-1.0375671-0.0000305-1.8786926-0.84021-1.8786926-1.8766785h0.0000305v-49.543335
	c0-1.036377,0.841095-1.8765869,1.8786926-1.8765869l0,0H369.2055054L369.2055054,116.0735321L369.2055054,116.0735321z"/>
<path class="st1" d="M366.9510803,113.821579c1.0375671,0,1.8786926,0.84021,1.8786926,1.8765869l0,0v49.543335l0,0
	c0,1.036438-0.8411255,1.8766479-1.8786926,1.8766174c0,0.0000305,0,0,0,0l0,0H245.2118988l-0.0000153,0.0000305
	c-1.0375671-0.0000305-1.8786926-0.84021-1.8786926-1.8766479h0.0000153v-49.543335
	c0-1.036377,0.8411102-1.8765869,1.8786926-1.8765869l0,0H366.9510803L366.9510803,113.821579L366.9510803,113.821579z"/>
<path class="st2" d="M366.9510803,113.821579c1.0375671,0,1.8786926,0.84021,1.8786926,1.8765869l0,0v49.543335l0,0
	c0,1.036438-0.8411255,1.8766479-1.8786926,1.8766174c0,0.0000305,0,0,0,0l0,0H245.2118988l-0.0000153,0.0000305
	c-1.0375671-0.0000305-1.8786926-0.84021-1.8786926-1.8766479h0.0000153v-49.543335
	c0-1.036377,0.8411102-1.8765869,1.8786926-1.8765869l0,0H366.9510803L366.9510803,113.821579L366.9510803,113.821579z"/>
<text transform="matrix(0.85 0 0 1 274.1396484 128.8325195)" class="st3 st5">«FeatureType»</text>
<text transform="matrix(0.85 0 0 1 286.1630859 141.5981445)" class="st7 st5">urf::Zone</text>
<line class="st2" x1="243.3332062" y1="147.601059" x2="368.8297729" y2="147.601059"/>
<text transform="matrix(0.85 0 0 1 247.0927734 161.121582)" class="st3 st5">+ </text>
<text transform="matrix(0.85 0 0 1 263.6240234 161.121582)" class="st3 st5">location: xs::string [0..1]</text>
<path class="st0" d="M379.7261963,281.217926c1.0375671,0,1.8786621,0.8401794,1.8786621,1.8766479l0.0000305-0.000061v53.2966003
	l-0.0000305,0.000061c0,1.0364075-0.841095,1.8766174-1.8786926,1.8765869c0,0.0000305,0,0,0,0h0.0000305h-145.786438
	l-0.0000305,0.0000305c-1.0375671-0.0000305-1.8786926-0.84021-1.8786926-1.8766785h0.0000305v-53.2966003
	c0-1.0364075,0.841095-1.8766174,1.8786926-1.8765869v-0.0000305h145.786438V281.217926L379.7261963,281.217926z"/>
<path class="st1" d="M377.4717712,278.9659729c1.0375671,0,1.8786621,0.8401794,1.8786621,1.8766174l0.0000305-0.0000305v53.2966003
	l-0.0000305,0.0000305c0,1.0364075-0.841095,1.8766479-1.8786926,1.8765869c0,0.000061,0,0,0,0h0.0000305h-145.786438
	l-0.0000305,0.000061c-1.0375671-0.000061-1.8786926-0.8402405-1.8786926-1.8766785h0.0000305v-53.2966003
	c0-1.0364075,0.841095-1.8766479,1.8786926-1.8765869v-0.000061h145.786438V278.9659729L377.4717712,278.9659729z"/>
<path class="st2" d="M377.4717712,278.9659729c1.0375671,0,1.8786621,0.8401794,1.8786621,1.8766174l0.0000305-0.0000305v53.2966003
	l-0.0000305,0.0000305c0,1.0364075-0.841095,1.8766479-1.8786926,1.8765869c0,0.000061,0,0,0,0h0.0000305h-145.786438
	l-0.0000305,0.000061c-1.0375671-0.000061-1.8786926-0.8402405-1.8786926-1.8766785h0.0000305v-53.2966003
	c0-1.0364075,0.841095-1.8766479,1.8786926-1.8765869v-0.000061h145.786438V278.9659729L377.4717712,278.9659729z"/>
<text transform="matrix(0.85 0 0 1 272.6396484 293.980957)" class="st3 st5">«FeatureType»</text>
<text transform="matrix(0.85 0 0 1 241.0771484 306.746582)" class="st7 st5">urf::OpenSpaceForPublicUse</text>
<path class="st0" d="M368.4540405,198.6457062c1.0375671,0,1.8786621,0.8401794,1.8786621,1.8766479l0.0000305-0.0000305v48.7926636
	l-0.0000305,0.0000305c0,1.036438-0.841095,1.8766479-1.8786926,1.8766174c0,0.0000305,0,0,0,0h0.0000305H248.217804
	l-0.0000153,0.0000305c-1.0375671-0.0000305-1.8786926-0.84021-1.8786926-1.8766785h0.0000153v-48.7926636
	c0-1.036438,0.8411102-1.8766479,1.8786926-1.8766174v-0.0000305h120.2362366V198.6457062L368.4540405,198.6457062z"/>
<path class="st1" d="M366.1996155,196.3937531c1.0375671,0,1.8786621,0.8401794,1.8786621,1.8766174h0.0000305v48.7926331
	l-0.0000305,0.000061c0,1.0364075-0.841095,1.8766479-1.8786926,1.8765869c0,0.000061,0,0,0,0h0.0000305H245.9633789
	l-0.0000153,0.000061c-1.0375824-0.000061-1.8786926-0.8402405-1.8786926-1.876709h0.0000153v-48.7926331
	c0-1.036438,0.841095-1.8766479,1.8786926-1.8766174v-0.0000305h120.2362366V196.3937531L366.1996155,196.3937531z"/>
<path class="st2" d="M366.1996155,196.3937531c1.0375671,0,1.8786621,0.8401794,1.8786621,1.8766174h0.0000305v48.7926331
	l-0.0000305,0.000061c0,1.0364075-0.841095,1.8766479-1.8786926,1.8765869c0,0.000061,0,0,0,0h0.0000305H245.9633789
	l-0.0000153,0.000061c-1.0375824-0.000061-1.8786926-0.8402405-1.8786926-1.876709h0.0000153v-48.7926331
	c0-1.036438,0.841095-1.8766479,1.8786926-1.8766174v-0.0000305h120.2362366V196.3937531L366.1996155,196.3937531z"/>
<text transform="matrix(0.85 0 0 1 274.1396484 211.4106445)" class="st3 st5">«FeatureType»</text>
<text transform="matrix(0.85 0 0 1 268.1318359 224.168457)" class="st7 st5">urf::UrbanFacility</text>
<line class="st2" x1="244.0846863" y1="230.1732635" x2="368.0783081" y2="230.1732635"/>
<text transform="matrix(0.85 0 0 1 247.8427734 243.6918945)" class="st3 st5">+ </text>
<text transform="matrix(0.85 0 0 1 264.3740234 243.6918945)" class="st3 st5">number: xs::string [0..1]</text>
<path class="st0" d="M402.2704773,378.8032227c1.0375671,0,1.8786621,0.84021,1.8786621,1.8766479l0.0000305-0.000061v74.3150024
	h-0.0000305c0,1.036438-0.841095,1.8766479-1.8786926,1.8766479l0,0h0.0000305H211.395462h-0.0000153
	c-1.0375671,0-1.8786926-0.84021-1.8786926-1.8766479h0.0000153v-74.3150024c0-1.036377,0.8411102-1.8766479,1.8786926-1.8765869
	v-0.000061h190.8750153V378.8032227L402.2704773,378.8032227z"/>
<path class="st1" d="M400.0160522,376.5512695c1.0375671,0,1.8786621,0.8401489,1.8786621,1.8766479l0.0000305-0.000061v74.3149414
	l-0.0000305,0.000061c0,1.036438-0.841095,1.8766479-1.8786926,1.8765869c0,0.000061,0,0,0,0h0.0000305H209.141037
	l-0.0000153,0.000061c-1.0375671-0.000061-1.8786926-0.84021-1.8786926-1.876709h0.0000153v-74.3149414
	c0-1.036438,0.8411102-1.8766479,1.8786926-1.8765869v-0.000061h190.8750153V376.5512695L400.0160522,376.5512695z"/>
<path class="st2" d="M400.0160522,376.5512695c1.0375671,0,1.8786621,0.8401489,1.8786621,1.8766479l0.0000305-0.000061v74.3149414
	l-0.0000305,0.000061c0,1.036438-0.841095,1.8766479-1.8786926,1.8765869c0,0.000061,0,0,0,0h0.0000305H209.141037
	l-0.0000153,0.000061c-1.0375671-0.000061-1.8786926-0.84021-1.8786926-1.876709h0.0000153v-74.3149414
	c0-1.036438,0.8411102-1.8766479,1.8786926-1.8765869v-0.000061h190.8750153V376.5512695L400.0160522,376.5512695z"/>
<text transform="matrix(0.85 0 0 1 278.6552734 391.5668945)" class="st3 st5">«DataType»</text>
<text transform="matrix(0.85 0 0 1 265.1240234 404.3325195)" class="st7 st5">urf::ParkAttribute</text>
<line class="st2" x1="207.2623444" y1="410.3307495" x2="401.8947449" y2="410.3307495"/>
<text transform="matrix(0.85 0 0 1 211.0146484 423.8481445)" class="st3 st5">+ </text>
<text transform="matrix(0.85 0 0 1 227.5458984 423.8481445)" class="st3 st5">parkSerialNumber: xs::string [0..1]</text>
<text transform="matrix(0.85 0 0 1 211.0146484 436.605957)" class="st3 st5">+ </text>
<text transform="matrix(0.85 0 0 1 227.5458984 436.605957)" class="st3 st5">parkSizeNumber: gml::CodeType [0..1]</text>
<text transform="matrix(0.85 0 0 1 211.0146484 449.371582)" class="st3 st5">+ </text>
<text transform="matrix(0.85 0 0 1 227.5458984 449.371582)" class="st3 st5">parkTypeNumber: gml::CodeType [0..1]</text>
<path class="st8" d="M208.7652893,52.267746c1.2450867,0,2.254425,1.0082397,2.254425,2.2519531h0.0000153v66.0577393h-0.0000153
	c0,1.2437744-1.0093384,2.2520142-2.254425,2.2519531c0,0.000061,0,0,0,0l0,0H74.2509995v0.000061
	c-1.2450867-0.000061-2.2544327-1.0082397-2.254425-2.2520142V54.5196991c0-1.2437134,1.0093384-2.2519531,2.254425-2.2519531l0,0
	H208.7652893L208.7652893,52.267746L208.7652893,52.267746z"/>
<path class="st9" d="M208.7652893,52.267746c1.2450867,0,2.254425,1.0082397,2.254425,2.2519531h0.0000153v66.0577393h-0.0000153
	c0,1.2437744-1.0093384,2.2520142-2.254425,2.2519531c0,0.000061,0,0,0,0l0,0H74.2509995v0.000061
	c-1.2450867-0.000061-2.2544327-1.0082397-2.254425-2.2520142V54.5196991c0-1.2437134,1.0093384-2.2519531,2.254425-2.2519531l0,0
	H208.7652893L208.7652893,52.267746L208.7652893,52.267746z"/>
<path class="st10" d="M89.6562653,74.7874603c1.0375748,0,1.878685,0.8401489,1.878685,1.8766479l0.0000076-0.000061v8.2572632
	h-0.0000076c0,1.036438-0.8411102,1.8765869-1.878685,1.8765869l0,0l0,0h-8.2662354h-0.0000076
	c-1.0375671,0-1.8786926-0.8401489-1.8786926-1.8765869h0.0000076v-8.2572632c0-1.036438,0.8411179-1.8766479,1.8786926-1.8765869
	v-0.000061h8.2662354V74.7874603L89.6562653,74.7874603z"/>
<path class="st11" d="M89.6562653,74.7874603c1.0375748,0,1.878685,0.8401489,1.878685,1.8766479l0.0000076-0.000061v8.2572632
	h-0.0000076c0,1.036438-0.8411102,1.8765869-1.878685,1.8765869l0,0l0,0h-8.2662354h-0.0000076
	c-1.0375671,0-1.8786926-0.8401489-1.8786926-1.8765869h0.0000076v-8.2572632c0-1.036438,0.8411179-1.8766479,1.8786926-1.8765869
	v-0.000061h8.2662354V74.7874603L89.6562653,74.7874603z"/>
<text transform="matrix(0.85 0 0 1 96.0454102 83.793457)" class="st12 st13 st14">GMLに定義されたクラス</text>
<path class="st15" d="M89.6562653,89.0499115c1.0375748,0,1.878685,0.8401489,1.878685,1.8766479h0.0000076v8.2572021h-0.0000076
	c0,1.036438-0.8411102,1.8766479-1.878685,1.8765869c0,0.000061,0,0,0,0l0,0h-8.2662354l-0.0000076,0.000061
	c-1.0375671-0.000061-1.8786926-0.84021-1.8786926-1.8766479h0.0000076v-8.2572021
	c0-1.036499,0.8411179-1.876709,1.8786926-1.8766479v-0.000061h8.2662354V89.0499115L89.6562653,89.0499115z"/>
<path class="st11" d="M89.6562653,89.0499115c1.0375748,0,1.878685,0.8401489,1.878685,1.8766479h0.0000076v8.2572021h-0.0000076
	c0,1.036438-0.8411102,1.8766479-1.878685,1.8765869c0,0.000061,0,0,0,0l0,0h-8.2662354l-0.0000076,0.000061
	c-1.0375671-0.000061-1.8786926-0.84021-1.8786926-1.8766479h0.0000076v-8.2572021
	c0-1.036499,0.8411179-1.876709,1.8786926-1.8766479v-0.000061h8.2662354V89.0499115L89.6562653,89.0499115z"/>
<text transform="matrix(0.85 0 0 1 96.0454102 98.0512695)" class="st12 st13 st14">CityGMLに定義されたクラス</text>
<path class="st1" d="M89.6562653,103.3123627c1.0375748,0,1.878685,0.84021,1.878685,1.8766479h0.0000076v8.2572021h-0.0000076
	c0,1.036499-0.8411102,1.8766479-1.878685,1.8766479l0,0l0,0h-8.2662354h-0.0000076
	c-1.0375671,0-1.8786926-0.8401489-1.8786926-1.8766479h0.0000076v-8.2572021c0-1.036438,0.8411179-1.8766479,1.8786926-1.8766479
	l0,0H89.6562653L89.6562653,103.3123627L89.6562653,103.3123627z"/>
<path class="st11" d="M89.6562653,103.3123627c1.0375748,0,1.878685,0.84021,1.878685,1.8766479h0.0000076v8.2572021h-0.0000076
	c0,1.036499-0.8411102,1.8766479-1.878685,1.8766479l0,0l0,0h-8.2662354h-0.0000076
	c-1.0375671,0-1.8786926-0.8401489-1.8786926-1.8766479h0.0000076v-8.2572021c0-1.036438,0.8411179-1.8766479,1.8786926-1.8766479
	l0,0H89.6562653L89.6562653,103.3123627L89.6562653,103.3123627z"/>
<text transform="matrix(0.85 0 0 1 96.0454102 112.3168945)" class="st12 st13 st14">i-URに定義されたクラス</text>
<text transform="matrix(0.85 0 0 1 128.3505859 70.5214844)" class="st12 st16 st17 st18">凡例</text>
<line class="st19" x1="370.3327332" y1="138.5931854" x2="492.0719299" y2="138.5931854"/>
<polyline class="st20" points="480.0483093,143.0971222 480.0483093,134.0892487 492.0719299,138.5931854 480.0483093,143.0971222 
	"/>
<polygon class="st19" points="492.0719299,138.5931854 480.0483093,134.0892487 480.0483093,143.0971222 "/>
<line class="st19" x1="305.7057495" y1="278.215271" x2="306.4572449" y2="250.4409637"/>
<polyline class="st20" points="310.966095,262.4514771 301.9483643,262.4514771 306.4572449,250.4409637 310.966095,262.4514771 "/>
<polygon class="st19" points="310.966095,262.4514771 301.9483643,262.4514771 306.4572449,250.4409637 "/>
<line class="st19" x1="308.7116699" y1="195.6430511" x2="308.7116699" y2="168.6194305"/>
<polyline class="st20" points="313.22052,180.6299286 304.2028198,180.6299286 308.7116699,168.6194305 313.22052,180.6299286 "/>
<polygon class="st19" points="313.22052,180.6299286 304.2028198,180.6299286 308.7116699,168.6194305 "/>
<line class="st19" x1="304.2028198" y1="375.8005371" x2="303.4513245" y2="337.5170898"/>
<polyline class="st21" points="307.2087097,345.0236816 303.4513245,337.5170898 299.6939392,345.0236816 303.4513245,352.5302124 
	307.2087097,345.0236816 "/>
<polygon class="st19" points="303.4513245,352.5302124 299.6939392,345.0236816 303.4513245,337.5170898 307.2087097,345.0236816 
	"/>
<path class="st19" d="M304.2028198,375.8005371l4.5088501-11.2598267 M304.2028198,375.8005371l-4.5088806-11.2598267"/>
<text transform="matrix(0.85 0 0 1 220.0375977 365.2856445)" class="st13 st14">+parkAttribute</text>
<text transform="matrix(0.85 0 0 1 311.7172852 369.0356445)" class="st13 st14">0..1</text>
</svg>
