<?xml version="1.0" encoding="UTF-8" standalone="no"?>
<!DOCTYPE svg PUBLIC "-//W3C//DTD SVG 1.0//EN" "http://www.w3.org/TR/2001/REC-SVG-20010904/DTD/svg10.dtd">

<svg xmlns="http://www.w3.org/2000/svg" xmlns:xlink="http://www.w3.org/1999/xlink" width="17.78cm" height="2.65cm" viewBox="0 0 672 100">
<title></title>
<desc>Created with Enterprise Architect (Build: 1628) 2</desc>

<g style="fill:#FFFFFF;fill-opacity:1.00;">
	 <rect x="0" y="0" width="672" height="100" shape-rendering="auto"/>
</g><g style="stroke-width:1;stroke-linecap:round;stroke-linejoin:bevel; fill:#FFFFFF;fill-opacity:1.00; stroke:#000000; stroke-opacity:1.00">
  <polygon points="183 46 316 46 316 90 183 90 183 46" shape-rendering="auto"   style="fill-rule:evenodd;"/>
  <polygon points="183 10 288 10 288 46 183 46 183 10" shape-rendering="auto"   style="fill-rule:evenodd;"/>
</g>
<g style="stroke-width:1;stroke-linecap:round;stroke-linejoin:bevel; fill:#000000;fill-opacity:1.00; stroke:#000000; stroke-opacity:0.00">
	<text x="188.00" y="23.00" textLength="86" style="font-family:Calibri; font-weight:0; font-style:normal; font-size:10px; fill:#000000;fill-opacity:1.00; stroke:#000000; stroke-opacity:0.00 stroke-width:0; white-space: pre;" xml:space="preserve" transform="rotate(-0.00 188.00 23.00)">«ApplicationSchema»</text>
	<text x="188.00" y="36.00" textLength="12" style="font-family:Calibri; font-weight:700; font-style:normal; font-size:10px; fill:#000000;fill-opacity:1.00; stroke:#000000; stroke-opacity:0.00 stroke-width:0; white-space: pre;" xml:space="preserve" transform="rotate(-0.00 188.00 36.00)">urf</text>
</g>
<g style="stroke-width:1;stroke-linecap:round;stroke-linejoin:bevel; fill:#FFFFFF;fill-opacity:1.00; stroke:#000000; stroke-opacity:1.00">
  <polygon points="10 46 143 46 143 90 10 90 10 46" shape-rendering="auto"   style="fill-rule:evenodd;"/>
  <polygon points="10 10 115 10 115 46 10 46 10 10" shape-rendering="auto"   style="fill-rule:evenodd;"/>
</g>
<g style="stroke-width:1;stroke-linecap:round;stroke-linejoin:bevel; fill:#000000;fill-opacity:1.00; stroke:#000000; stroke-opacity:0.00">
	<text x="15.00" y="23.00" textLength="86" style="font-family:Calibri; font-weight:0; font-style:normal; font-size:10px; fill:#000000;fill-opacity:1.00; stroke:#000000; stroke-opacity:0.00 stroke-width:0; white-space: pre;" xml:space="preserve" transform="rotate(-0.00 15.00 23.00)">«ApplicationSchema»</text>
	<text x="15.00" y="36.00" textLength="14" style="font-family:Calibri; font-weight:700; font-style:normal; font-size:10px; fill:#000000;fill-opacity:1.00; stroke:#000000; stroke-opacity:0.00 stroke-width:0; white-space: pre;" xml:space="preserve" transform="rotate(-0.00 15.00 36.00)">uro</text>
</g>
<g style="stroke-width:1;stroke-linecap:round;stroke-linejoin:bevel; fill:#FFFFFF;fill-opacity:1.00; stroke:#000000; stroke-opacity:1.00">
  <polygon points="529 46 662 46 662 90 529 90 529 46" shape-rendering="auto"   style="fill-rule:evenodd;"/>
  <polygon points="529 10 634 10 634 46 529 46 529 10" shape-rendering="auto"   style="fill-rule:evenodd;"/>
</g>
<g style="stroke-width:1;stroke-linecap:round;stroke-linejoin:bevel; fill:#000000;fill-opacity:1.00; stroke:#000000; stroke-opacity:0.00">
	<text x="534.00" y="23.00" textLength="86" style="font-family:Calibri; font-weight:0; font-style:normal; font-size:10px; fill:#000000;fill-opacity:1.00; stroke:#000000; stroke-opacity:0.00 stroke-width:0; white-space: pre;" xml:space="preserve" transform="rotate(-0.00 534.00 23.00)">«ApplicationSchema»</text>
	<text x="534.00" y="36.00" textLength="12" style="font-family:Calibri; font-weight:700; font-style:normal; font-size:10px; fill:#000000;fill-opacity:1.00; stroke:#000000; stroke-opacity:0.00 stroke-width:0; white-space: pre;" xml:space="preserve" transform="rotate(-0.00 534.00 36.00)">urt</text>
</g>
<g style="stroke-width:1;stroke-linecap:round;stroke-linejoin:bevel; fill:#FFFFFF;fill-opacity:1.00; stroke:#000000; stroke-opacity:1.00">
  <polygon points="356 46 489 46 489 90 356 90 356 46" shape-rendering="auto"   style="fill-rule:evenodd;"/>
  <polygon points="356 10 461 10 461 46 356 46 356 10" shape-rendering="auto"   style="fill-rule:evenodd;"/>
</g>
<g style="stroke-width:1;stroke-linecap:round;stroke-linejoin:bevel; fill:#000000;fill-opacity:1.00; stroke:#000000; stroke-opacity:0.00">
	<text x="361.00" y="23.00" textLength="86" style="font-family:Calibri; font-weight:0; font-style:normal; font-size:10px; fill:#000000;fill-opacity:1.00; stroke:#000000; stroke-opacity:0.00 stroke-width:0; white-space: pre;" xml:space="preserve" transform="rotate(-0.00 361.00 23.00)">«ApplicationSchema»</text>
	<text x="361.00" y="36.00" textLength="14" style="font-family:Calibri; font-weight:700; font-style:normal; font-size:10px; fill:#000000;fill-opacity:1.00; stroke:#000000; stroke-opacity:0.00 stroke-width:0; white-space: pre;" xml:space="preserve" transform="rotate(-0.00 361.00 36.00)">urg</text>
</g>
</svg>
