<?xml version="1.0" encoding="UTF-8" standalone="no"?>
<!DOCTYPE svg PUBLIC "-//W3C//DTD SVG 1.0//EN" "http://www.w3.org/TR/2001/REC-SVG-20010904/DTD/svg10.dtd">

<svg xmlns="http://www.w3.org/2000/svg" xmlns:xlink="http://www.w3.org/1999/xlink" width="16.40cm" height="3.52cm" viewBox="0 0 620 133">
<title></title>
<desc>Created with Enterprise Architect (Build: 1628) 2</desc>

<g style="fill:#FFFFFF;fill-opacity:1.00;">
	 <rect x="0" y="0" width="620" height="133" shape-rendering="auto"/>
</g><g style="stroke-width:1;stroke-linecap:round;stroke-linejoin:bevel; fill:#FFFFFF;fill-opacity:1.00; stroke:#000000; stroke-opacity:1.00">
  <polygon points="10 34 170 34 170 100 10 100 10 34" shape-rendering="auto"   style="fill-rule:evenodd;"/>
  <polygon points="10 10 116 10 116 34 10 34 10 10" shape-rendering="auto"   style="fill-rule:evenodd;"/>
</g>
<g style="stroke-width:1;stroke-linecap:round;stroke-linejoin:bevel; fill:#000000;fill-opacity:1.00; stroke:#000000; stroke-opacity:0.00">
	<text x="15.00" y="27.00" textLength="91" style="font-family:Yu Gothic UI; font-weight:700; font-style:normal; font-size:13px; fill:#000000;fill-opacity:1.00; stroke:#000000; stroke-opacity:0.00 stroke-width:0; white-space: pre;" xml:space="preserve" transform="rotate(-0.00 15.00 27.00)">都市計画基本図</text>
</g>
<g style="stroke-width:1;stroke-linecap:round;stroke-linejoin:bevel; fill:#FFFFFF;fill-opacity:1.00; stroke:#000000; stroke-opacity:1.00">
  <polygon points="400 34 610 34 610 100 400 100 400 34" shape-rendering="auto"   style="fill-rule:evenodd;"/>
  <polygon points="400 10 551 10 551 34 400 34 400 10" shape-rendering="auto"   style="fill-rule:evenodd;"/>
</g>
<g style="stroke-width:1;stroke-linecap:round;stroke-linejoin:bevel; fill:#000000;fill-opacity:1.00; stroke:#000000; stroke-opacity:0.00">
	<text x="405.00" y="27.00" textLength="136" style="font-family:Yu Gothic UI; font-weight:700; font-style:normal; font-size:13px; fill:#000000;fill-opacity:1.00; stroke:#000000; stroke-opacity:0.00 stroke-width:0; white-space: pre;" xml:space="preserve" transform="rotate(-0.00 405.00 27.00)">都市計画決定情報モデル</text>
	<text x="448.00" y="119.00" textLength="113" style="font-family:Yu Gothic UI; font-weight:400; font-style:italic; font-size:13px; fill:#000000;fill-opacity:1.00; stroke:#000000; stroke-opacity:0.00 stroke-width:0; white-space: pre;" xml:space="preserve" transform="rotate(-0.00 448.00 119.00)">(from 3D都市モデル)</text>
</g>
<g style="stroke-width:1;stroke-linecap:round;stroke-linejoin:bevel; fill:#FFFFFF;fill-opacity:1.00; stroke:#000000; stroke-opacity:1.00">
  <polygon points="190 34 380 34 380 100 190 100 190 34" shape-rendering="auto"   style="fill-rule:evenodd;"/>
  <polygon points="190 10 309 10 309 34 190 34 190 10" shape-rendering="auto"   style="fill-rule:evenodd;"/>
</g>
<g style="stroke-width:1;stroke-linecap:round;stroke-linejoin:bevel; fill:#000000;fill-opacity:1.00; stroke:#000000; stroke-opacity:0.00">
	<text x="195.00" y="27.00" textLength="104" style="font-family:Yu Gothic UI; font-weight:700; font-style:normal; font-size:13px; fill:#000000;fill-opacity:1.00; stroke:#000000; stroke-opacity:0.00 stroke-width:0; white-space: pre;" xml:space="preserve" transform="rotate(-0.00 195.00 27.00)">都市計画基礎調査</text>
</g>
</svg>
