<?xml version="1.0" encoding="UTF-8" standalone="no"?>
<!DOCTYPE svg PUBLIC "-//W3C//DTD SVG 1.0//EN" "http://www.w3.org/TR/2001/REC-SVG-20010904/DTD/svg10.dtd">

<svg xmlns="http://www.w3.org/2000/svg" xmlns:xlink="http://www.w3.org/1999/xlink" width="20.24cm" height="14.29cm" viewBox="0 0 765 540">
<title></title>
<desc>Created with Enterprise Architect (Build: 1628) 2</desc>

<g style="fill:#FFFFFF;fill-opacity:1.00;">
	 <rect x="0" y="0" width="765" height="540" shape-rendering="auto"/>
</g><g style="stroke-width:1;stroke-linecap:round;stroke-linejoin:bevel; fill:#FFFFFF;fill-opacity:1.00; stroke:#000000; stroke-opacity:1.00">
  <polygon points="10 34 150 34 150 100 10 100 10 34" shape-rendering="auto"   style="fill-rule:evenodd;"/>
  <polygon points="10 10 115 10 115 34 10 34 10 10" shape-rendering="auto"   style="fill-rule:evenodd;"/>
</g>
<g style="stroke-width:1;stroke-linecap:round;stroke-linejoin:bevel; fill:#000000;fill-opacity:1.00; stroke:#000000; stroke-opacity:0.00">
	<text x="15.00" y="27.00" textLength="71" style="font-family:Yu Gothic UI; font-weight:700; font-style:normal; font-size:13px; fill:#000000;fill-opacity:1.00; stroke:#000000; stroke-opacity:0.00 stroke-width:0; white-space: pre;" xml:space="preserve" transform="rotate(-0.00 15.00 27.00)">建築物モデル</text>
</g>
<g style="stroke-width:1;stroke-linecap:round;stroke-linejoin:bevel; fill:#FFFFFF;fill-opacity:1.00; stroke:#000000; stroke-opacity:1.00">
  <polygon points="10 244 176 244 176 310 10 310 10 244" shape-rendering="auto"   style="fill-rule:evenodd;"/>
  <polygon points="10 220 161 220 161 244 10 244 10 220" shape-rendering="auto"   style="fill-rule:evenodd;"/>
</g>
<g style="stroke-width:1;stroke-linecap:round;stroke-linejoin:bevel; fill:#000000;fill-opacity:1.00; stroke:#000000; stroke-opacity:0.00">
	<text x="15.00" y="237.00" textLength="136" style="font-family:Yu Gothic UI; font-weight:700; font-style:normal; font-size:13px; fill:#000000;fill-opacity:1.00; stroke:#000000; stroke-opacity:0.00 stroke-width:0; white-space: pre;" xml:space="preserve" transform="rotate(-0.00 15.00 237.00)">都市計画決定情報モデル</text>
</g>
<g style="stroke-width:1;stroke-linecap:round;stroke-linejoin:bevel; fill:#FFFFFF;fill-opacity:1.00; stroke:#000000; stroke-opacity:1.00">
  <polygon points="10 343 178 343 178 409 10 409 10 343" shape-rendering="auto"   style="fill-rule:evenodd;"/>
  <polygon points="10 319 115 319 115 343 10 343 10 319" shape-rendering="auto"   style="fill-rule:evenodd;"/>
</g>
<g style="stroke-width:1;stroke-linecap:round;stroke-linejoin:bevel; fill:#000000;fill-opacity:1.00; stroke:#000000; stroke-opacity:0.00">
	<text x="15.00" y="336.00" textLength="84" style="font-family:Yu Gothic UI; font-weight:700; font-style:normal; font-size:13px; fill:#000000;fill-opacity:1.00; stroke:#000000; stroke-opacity:0.00 stroke-width:0; white-space: pre;" xml:space="preserve" transform="rotate(-0.00 15.00 336.00)">都市設備モデル</text>
</g>
<g style="stroke-width:1;stroke-linecap:round;stroke-linejoin:bevel; fill:#FFFFFF;fill-opacity:1.00; stroke:#000000; stroke-opacity:1.00">
  <polygon points="590 354 730 354 730 420 590 420 590 354" shape-rendering="auto"   style="fill-rule:evenodd;"/>
  <polygon points="590 330 695 330 695 354 590 354 590 330" shape-rendering="auto"   style="fill-rule:evenodd;"/>
</g>
<g style="stroke-width:1;stroke-linecap:round;stroke-linejoin:bevel; fill:#000000;fill-opacity:1.00; stroke:#000000; stroke-opacity:0.00">
	<text x="595.00" y="347.00" textLength="58" style="font-family:Yu Gothic UI; font-weight:700; font-style:normal; font-size:13px; fill:#000000;fill-opacity:1.00; stroke:#000000; stroke-opacity:0.00 stroke-width:0; white-space: pre;" xml:space="preserve" transform="rotate(-0.00 595.00 347.00)">植生モデル</text>
</g>
<g style="stroke-width:1;stroke-linecap:round;stroke-linejoin:bevel; fill:#FFFFFF;fill-opacity:1.00; stroke:#000000; stroke-opacity:1.00">
  <polygon points="590 144 755 144 755 210 590 210 590 144" shape-rendering="auto"   style="fill-rule:evenodd;"/>
  <polygon points="590 120 695 120 695 144 590 144 590 120" shape-rendering="auto"   style="fill-rule:evenodd;"/>
</g>
<g style="stroke-width:1;stroke-linecap:round;stroke-linejoin:bevel; fill:#000000;fill-opacity:1.00; stroke:#000000; stroke-opacity:0.00">
	<text x="595.00" y="137.00" textLength="87" style="font-family:Yu Gothic UI; font-weight:700; font-style:normal; font-size:13px; fill:#000000;fill-opacity:1.00; stroke:#000000; stroke-opacity:0.00 stroke-width:0; white-space: pre;" xml:space="preserve" transform="rotate(-0.00 595.00 137.00)">災害リスクモデル</text>
</g>
<g style="stroke-width:1;stroke-linecap:round;stroke-linejoin:bevel; fill:#FFFFFF;fill-opacity:1.00; stroke:#000000; stroke-opacity:1.00">
  <polygon points="10 464 150 464 150 530 10 530 10 464" shape-rendering="auto"   style="fill-rule:evenodd;"/>
  <polygon points="10 440 115 440 115 464 10 464 10 440" shape-rendering="auto"   style="fill-rule:evenodd;"/>
</g>
<g style="stroke-width:1;stroke-linecap:round;stroke-linejoin:bevel; fill:#000000;fill-opacity:1.00; stroke:#000000; stroke-opacity:0.00">
	<text x="15.00" y="457.00" textLength="58" style="font-family:Yu Gothic UI; font-weight:700; font-style:normal; font-size:13px; fill:#000000;fill-opacity:1.00; stroke:#000000; stroke-opacity:0.00 stroke-width:0; white-space: pre;" xml:space="preserve" transform="rotate(-0.00 15.00 457.00)">地形モデル</text>
</g>
<g style="stroke-width:1;stroke-linecap:round;stroke-linejoin:bevel; fill:#FFFFFF;fill-opacity:1.00; stroke:#000000; stroke-opacity:1.00">
  <polygon points="220 34 360 34 360 100 220 100 220 34" shape-rendering="auto"   style="fill-rule:evenodd;"/>
  <polygon points="220 10 345 10 345 34 220 34 220 10" shape-rendering="auto"   style="fill-rule:evenodd;"/>
</g>
<g style="stroke-width:1;stroke-linecap:round;stroke-linejoin:bevel; fill:#000000;fill-opacity:1.00; stroke:#000000; stroke-opacity:0.00">
	<text x="225.00" y="27.00" textLength="110" style="font-family:Yu Gothic UI; font-weight:700; font-style:normal; font-size:13px; fill:#000000;fill-opacity:1.00; stroke:#000000; stroke-opacity:0.00 stroke-width:0; white-space: pre;" xml:space="preserve" transform="rotate(-0.00 225.00 27.00)">交通（道路）モデル</text>
</g>
<g style="stroke-width:1;stroke-linecap:round;stroke-linejoin:bevel; fill:#FFFFFF;fill-opacity:1.00; stroke:#000000; stroke-opacity:1.00">
  <polygon points="410 144 550 144 550 210 410 210 410 144" shape-rendering="auto"   style="fill-rule:evenodd;"/>
  <polygon points="410 120 515 120 515 144 410 144 410 120" shape-rendering="auto"   style="fill-rule:evenodd;"/>
</g>
<g style="stroke-width:1;stroke-linecap:round;stroke-linejoin:bevel; fill:#000000;fill-opacity:1.00; stroke:#000000; stroke-opacity:0.00">
	<text x="415.00" y="137.00" textLength="84" style="font-family:Yu Gothic UI; font-weight:700; font-style:normal; font-size:13px; fill:#000000;fill-opacity:1.00; stroke:#000000; stroke-opacity:0.00 stroke-width:0; white-space: pre;" xml:space="preserve" transform="rotate(-0.00 415.00 137.00)">土地利用モデル</text>
</g>
<g style="stroke-width:1;stroke-linecap:round;stroke-linejoin:bevel; fill:#FFFFFF;fill-opacity:1.00; stroke:#000000; stroke-opacity:1.00">
  <polygon points="220 244 360 244 360 310 220 310 220 244" shape-rendering="auto"   style="fill-rule:evenodd;"/>
  <polygon points="220 220 325 220 325 244 220 244 220 220" shape-rendering="auto"   style="fill-rule:evenodd;"/>
</g>
<g style="stroke-width:1;stroke-linecap:round;stroke-linejoin:bevel; fill:#000000;fill-opacity:1.00; stroke:#000000; stroke-opacity:0.00">
	<text x="225.00" y="237.00" textLength="58" style="font-family:Yu Gothic UI; font-weight:700; font-style:normal; font-size:13px; fill:#000000;fill-opacity:1.00; stroke:#000000; stroke-opacity:0.00 stroke-width:0; white-space: pre;" xml:space="preserve" transform="rotate(-0.00 225.00 237.00)">橋梁モデル</text>
</g>
<g style="stroke-width:1;stroke-linecap:round;stroke-linejoin:bevel; fill:#FFFFFF;fill-opacity:1.00; stroke:#000000; stroke-opacity:1.00">
  <polygon points="410 244 550 244 550 310 410 310 410 244" shape-rendering="auto"   style="fill-rule:evenodd;"/>
  <polygon points="410 220 515 220 515 244 410 244 410 220" shape-rendering="auto"   style="fill-rule:evenodd;"/>
</g>
<g style="stroke-width:1;stroke-linecap:round;stroke-linejoin:bevel; fill:#000000;fill-opacity:1.00; stroke:#000000; stroke-opacity:0.00">
	<text x="415.00" y="237.00" textLength="73" style="font-family:Yu Gothic UI; font-weight:700; font-style:normal; font-size:13px; fill:#000000;fill-opacity:1.00; stroke:#000000; stroke-opacity:0.00 stroke-width:0; white-space: pre;" xml:space="preserve" transform="rotate(-0.00 415.00 237.00)">トンネルモデル</text>
</g>
<g style="stroke-width:1;stroke-linecap:round;stroke-linejoin:bevel; fill:#FFFFFF;fill-opacity:1.00; stroke:#000000; stroke-opacity:1.00">
  <polygon points="590 244 736 244 736 310 590 310 590 244" shape-rendering="auto"   style="fill-rule:evenodd;"/>
  <polygon points="590 220 721 220 721 244 590 244 590 220" shape-rendering="auto"   style="fill-rule:evenodd;"/>
</g>
<g style="stroke-width:1;stroke-linecap:round;stroke-linejoin:bevel; fill:#000000;fill-opacity:1.00; stroke:#000000; stroke-opacity:0.00">
	<text x="595.00" y="237.00" textLength="116" style="font-family:Yu Gothic UI; font-weight:700; font-style:normal; font-size:13px; fill:#000000;fill-opacity:1.00; stroke:#000000; stroke-opacity:0.00 stroke-width:0; white-space: pre;" xml:space="preserve" transform="rotate(-0.00 595.00 237.00)">その他の構造物モデル</text>
</g>
<g style="stroke-width:1;stroke-linecap:round;stroke-linejoin:bevel; fill:#FFFFFF;fill-opacity:1.00; stroke:#000000; stroke-opacity:1.00">
  <polygon points="410 354 550 354 550 420 410 420 410 354" shape-rendering="auto"   style="fill-rule:evenodd;"/>
  <polygon points="410 330 515 330 515 354 410 354 410 330" shape-rendering="auto"   style="fill-rule:evenodd;"/>
</g>
<g style="stroke-width:1;stroke-linecap:round;stroke-linejoin:bevel; fill:#000000;fill-opacity:1.00; stroke:#000000; stroke-opacity:0.00">
	<text x="415.00" y="347.00" textLength="71" style="font-family:Yu Gothic UI; font-weight:700; font-style:normal; font-size:13px; fill:#000000;fill-opacity:1.00; stroke:#000000; stroke-opacity:0.00 stroke-width:0; white-space: pre;" xml:space="preserve" transform="rotate(-0.00 415.00 347.00)">地下街モデル</text>
</g>
<g style="stroke-width:1;stroke-linecap:round;stroke-linejoin:bevel; fill:#FFFFFF;fill-opacity:1.00; stroke:#000000; stroke-opacity:1.00">
  <polygon points="220 354 360 354 360 420 220 420 220 354" shape-rendering="auto"   style="fill-rule:evenodd;"/>
  <polygon points="220 330 332 330 332 354 220 354 220 330" shape-rendering="auto"   style="fill-rule:evenodd;"/>
</g>
<g style="stroke-width:1;stroke-linecap:round;stroke-linejoin:bevel; fill:#000000;fill-opacity:1.00; stroke:#000000; stroke-opacity:0.00">
	<text x="225.00" y="347.00" textLength="97" style="font-family:Yu Gothic UI; font-weight:700; font-style:normal; font-size:13px; fill:#000000;fill-opacity:1.00; stroke:#000000; stroke-opacity:0.00 stroke-width:0; white-space: pre;" xml:space="preserve" transform="rotate(-0.00 225.00 347.00)">地下埋設物モデル</text>
</g>
<g style="stroke-width:1;stroke-linecap:round;stroke-linejoin:bevel; fill:#FFFFFF;fill-opacity:1.00; stroke:#000000; stroke-opacity:1.00">
  <polygon points="410 34 550 34 550 100 410 100 410 34" shape-rendering="auto"   style="fill-rule:evenodd;"/>
  <polygon points="410 10 535 10 535 34 410 34 410 10" shape-rendering="auto"   style="fill-rule:evenodd;"/>
</g>
<g style="stroke-width:1;stroke-linecap:round;stroke-linejoin:bevel; fill:#000000;fill-opacity:1.00; stroke:#000000; stroke-opacity:0.00">
	<text x="415.00" y="27.00" textLength="110" style="font-family:Yu Gothic UI; font-weight:700; font-style:normal; font-size:13px; fill:#000000;fill-opacity:1.00; stroke:#000000; stroke-opacity:0.00 stroke-width:0; white-space: pre;" xml:space="preserve" transform="rotate(-0.00 415.00 27.00)">交通（鉄道）モデル</text>
</g>
<g style="stroke-width:1;stroke-linecap:round;stroke-linejoin:bevel; fill:#FFFFFF;fill-opacity:1.00; stroke:#000000; stroke-opacity:1.00">
  <polygon points="590 34 743 34 743 100 590 100 590 34" shape-rendering="auto"   style="fill-rule:evenodd;"/>
  <polygon points="590 10 728 10 728 34 590 34 590 10" shape-rendering="auto"   style="fill-rule:evenodd;"/>
</g>
<g style="stroke-width:1;stroke-linecap:round;stroke-linejoin:bevel; fill:#000000;fill-opacity:1.00; stroke:#000000; stroke-opacity:0.00">
	<text x="595.00" y="27.00" textLength="123" style="font-family:Yu Gothic UI; font-weight:700; font-style:normal; font-size:13px; fill:#000000;fill-opacity:1.00; stroke:#000000; stroke-opacity:0.00 stroke-width:0; white-space: pre;" xml:space="preserve" transform="rotate(-0.00 595.00 27.00)">交通（徒歩道）モデル</text>
</g>
<g style="stroke-width:1;stroke-linecap:round;stroke-linejoin:bevel; fill:#FFFFFF;fill-opacity:1.00; stroke:#000000; stroke-opacity:1.00">
  <polygon points="10 144 150 144 150 210 10 210 10 144" shape-rendering="auto"   style="fill-rule:evenodd;"/>
  <polygon points="10 120 135 120 135 144 10 144 10 120" shape-rendering="auto"   style="fill-rule:evenodd;"/>
</g>
<g style="stroke-width:1;stroke-linecap:round;stroke-linejoin:bevel; fill:#000000;fill-opacity:1.00; stroke:#000000; stroke-opacity:0.00">
	<text x="15.00" y="137.00" textLength="110" style="font-family:Yu Gothic UI; font-weight:700; font-style:normal; font-size:13px; fill:#000000;fill-opacity:1.00; stroke:#000000; stroke-opacity:0.00 stroke-width:0; white-space: pre;" xml:space="preserve" transform="rotate(-0.00 15.00 137.00)">交通（広場）モデル</text>
</g>
<g style="stroke-width:1;stroke-linecap:round;stroke-linejoin:bevel; fill:#FFFFFF;fill-opacity:1.00; stroke:#000000; stroke-opacity:1.00">
  <polygon points="220 144 360 144 360 210 220 210 220 144" shape-rendering="auto"   style="fill-rule:evenodd;"/>
  <polygon points="220 120 345 120 345 144 220 144 220 120" shape-rendering="auto"   style="fill-rule:evenodd;"/>
</g>
<g style="stroke-width:1;stroke-linecap:round;stroke-linejoin:bevel; fill:#000000;fill-opacity:1.00; stroke:#000000; stroke-opacity:0.00">
	<text x="225.00" y="137.00" textLength="110" style="font-family:Yu Gothic UI; font-weight:700; font-style:normal; font-size:13px; fill:#000000;fill-opacity:1.00; stroke:#000000; stroke-opacity:0.00 stroke-width:0; white-space: pre;" xml:space="preserve" transform="rotate(-0.00 225.00 137.00)">交通（航路）モデル</text>
</g>
<g style="stroke-width:1;stroke-linecap:round;stroke-linejoin:bevel; fill:#FFFFFF;fill-opacity:1.00; stroke:#000000; stroke-opacity:1.00">
  <polygon points="220 464 360 464 360 530 220 530 220 464" shape-rendering="auto"   style="fill-rule:evenodd;"/>
  <polygon points="220 440 325 440 325 464 220 464 220 440" shape-rendering="auto"   style="fill-rule:evenodd;"/>
</g>
<g style="stroke-width:1;stroke-linecap:round;stroke-linejoin:bevel; fill:#000000;fill-opacity:1.00; stroke:#000000; stroke-opacity:0.00">
	<text x="225.00" y="457.00" textLength="58" style="font-family:Yu Gothic UI; font-weight:700; font-style:normal; font-size:13px; fill:#000000;fill-opacity:1.00; stroke:#000000; stroke-opacity:0.00 stroke-width:0; white-space: pre;" xml:space="preserve" transform="rotate(-0.00 225.00 457.00)">水部モデル</text>
</g>
<g style="stroke-width:1;stroke-linecap:round;stroke-linejoin:bevel; fill:#FFFFFF;fill-opacity:1.00; stroke:#000000; stroke-opacity:1.00">
  <polygon points="410 464 550 464 550 530 410 530 410 464" shape-rendering="auto"   style="fill-rule:evenodd;"/>
  <polygon points="410 440 515 440 515 464 410 464 410 440" shape-rendering="auto"   style="fill-rule:evenodd;"/>
</g>
<g style="stroke-width:1;stroke-linecap:round;stroke-linejoin:bevel; fill:#000000;fill-opacity:1.00; stroke:#000000; stroke-opacity:0.00">
	<text x="415.00" y="457.00" textLength="58" style="font-family:Yu Gothic UI; font-weight:700; font-style:normal; font-size:13px; fill:#000000;fill-opacity:1.00; stroke:#000000; stroke-opacity:0.00 stroke-width:0; white-space: pre;" xml:space="preserve" transform="rotate(-0.00 415.00 457.00)">区域モデル</text>
</g>
<g style="stroke-width:1;stroke-linecap:round;stroke-linejoin:bevel; fill:#FFFFFF;fill-opacity:1.00; stroke:#000000; stroke-opacity:1.00">
  <polygon points="600 464 740 464 740 530 600 530 600 464" shape-rendering="auto"   style="fill-rule:evenodd;"/>
  <polygon points="600 440 725 440 725 464 600 464 600 440" shape-rendering="auto"   style="fill-rule:evenodd;"/>
</g>
<g style="stroke-width:1;stroke-linecap:round;stroke-linejoin:bevel; fill:#000000;fill-opacity:1.00; stroke:#000000; stroke-opacity:0.00">
	<text x="605.00" y="457.00" textLength="110" style="font-family:Yu Gothic UI; font-weight:700; font-style:normal; font-size:13px; fill:#000000;fill-opacity:1.00; stroke:#000000; stroke-opacity:0.00 stroke-width:0; white-space: pre;" xml:space="preserve" transform="rotate(-0.00 605.00 457.00)">汎用都市オブジェクト</text>
</g>
</svg>
