<?xml version="1.0" encoding="utf-8"?>
<!-- Generator: Adobe Illustrator 27.5.0, SVG Export Plug-In . SVG Version: 6.00 Build 0)  -->
<svg version="1.1" id="レイヤー_1" xmlns="http://www.w3.org/2000/svg" xmlns:xlink="http://www.w3.org/1999/xlink" x="0px"
	 y="0px" viewBox="0 0 537.5319214 408.8510742" style="enable-background:new 0 0 537.5319214 408.8510742;" xml:space="preserve">
<style type="text/css">
	.st0{fill-rule:evenodd;clip-rule:evenodd;fill:#FFCCFF;}
	.st1{fill:none;stroke:#000000;stroke-width:1.0285715;stroke-linecap:round;stroke-linejoin:bevel;stroke-miterlimit:10;}
	.st2{font-family:'YuGothicUI-Regular';}
	.st3{font-size:6.6857147px;}
	.st4{font-family:'YuGothicUI-Bold';}
	.st5{fill-rule:evenodd;clip-rule:evenodd;fill:#FFFFCC;}
	.st6{stroke:#000000;stroke-width:0.1910204;stroke-miterlimit:10;}
	.st7{font-size:7.0386257px;}
	.st8{fill-rule:evenodd;clip-rule:evenodd;fill:#F0F0F0;}
	.st9{fill:none;stroke:#D7D7D7;stroke-width:0.5142857;stroke-linecap:square;stroke-miterlimit:10;}
	.st10{fill-rule:evenodd;clip-rule:evenodd;fill:#CCFFCC;}
	.st11{fill:none;stroke:#000000;stroke-width:0.5142857;stroke-linecap:square;stroke-miterlimit:10;}
	.st12{fill:#003060;}
	.st13{font-size:8.2285719px;}
	.st14{fill-rule:evenodd;clip-rule:evenodd;}
	.st15{fill-rule:evenodd;clip-rule:evenodd;fill:#FFFFFF;}
</style>
<polygon class="st0" points="61.4810333,390.7398682 171.181839,390.7398682 171.181839,266.7969971 61.4810333,266.7969971 
	61.4810333,390.7398682 "/>
<polygon class="st1" points="61.4810333,390.7398682 171.181839,390.7398682 171.181839,266.7969971 61.4810333,266.7969971 
	61.4810333,390.7398682 "/>
<text transform="matrix(0.85 0 0 1 98.559227 277.0931396)"><tspan x="0" y="0" class="st2 st3">«</tspan><tspan x="3.5960476" y="0" class="st2 st3">D</tspan><tspan x="8.2301235" y="0" class="st2 st3">a</tspan><tspan x="11.8255968" y="0" class="st2 st3">t</tspan><tspan x="13.8838463" y="0" class="st2 st3">a</tspan><tspan x="17.4793186" y="0" class="st2 st3">T</tspan><tspan x="21.0759411" y="0" class="st2 st3">y</tspan><tspan x="24.1641769" y="0" class="st2 st3">p</tspan><tspan x="28.274931" y="0" class="st2 st3">e</tspan><tspan x="31.8715515" y="0" class="st2 st3">»</tspan></text>
<text transform="matrix(0.85 0 0 1 81.8014145 285.8275146)"><tspan x="0" y="0" class="st4 st3">u</tspan><tspan x="4.1084557" y="0" class="st4 st3">r</tspan><tspan x="6.6762404" y="0" class="st4 st3">o</tspan><tspan x="10.7892923" y="0" class="st4 st3">::</tspan><tspan x="13.8809738" y="0" class="st4 st3">F</tspan><tspan x="17.4804688" y="0" class="st4 st3">a</tspan><tspan x="21.0776653" y="0" class="st4 st3">c</tspan><tspan x="24.1676235" y="0" class="st4 st3">ili</tspan><tspan x="28.8057213" y="0" class="st4 st3">t</tspan><tspan x="31.3752289" y="0" class="st4 st3">y</tspan><tspan x="34.9741478" y="0" class="st4 st3">I</tspan><tspan x="37.0295258" y="0" class="st4 st3">d</tspan><tspan x="41.1385574" y="0" class="st4 st3">A</tspan><tspan x="45.7605667" y="0" class="st4 st3">tt</tspan><tspan x="50.8995857" y="0" class="st4 st3">r</tspan><tspan x="53.4679451" y="0" class="st4 st3">i</tspan><tspan x="55.0137863" y="0" class="st4 st3">b</tspan><tspan x="59.122242" y="0" class="st4 st3">u</tspan><tspan x="63.2306976" y="0" class="st4 st3">t</tspan><tspan x="65.8002014" y="0" class="st4 st3">e</tspan></text>
<line class="st1" x1="61.4810333" y1="289.9398499" x2="170.6739655" y2="289.9398499"/>
<text transform="matrix(0.85 0 0 1 64.0201645 299.2025146)" class="st2 st3">+ id: xs::string [0..1]</text>
<text transform="matrix(0.85 0 0 1 64.0201645 307.9368896)" class="st2 st3">+ partId: xs::string [0..1]</text>
<text transform="matrix(0.85 0 0 1 64.0201645 316.6790771)" class="st2 st3">+ branchId: xs::string [0..1]</text>
<text transform="matrix(0.85 0 0 1 64.0201645 325.4290771)" class="st2 st3">+ prefecture: gml::CodeType [0..*]</text>
<text transform="matrix(0.85 0 0 1 64.0201645 334.1712646)" class="st2 st3">+ city: gml::CodeType [0..*]</text>
<text transform="matrix(0.85 0 0 1 64.0201645 342.9056396)" class="st2 st3">+ route: xs::string [0..1]</text>
<text transform="matrix(0.85 0 0 1 64.0201645 351.6556396)" class="st2 st3">+ startPost: xs::string [0..1]</text>
<text transform="matrix(0.85 0 0 1 64.0201645 360.3978271)" class="st2 st3">+ endPost: xs::string [0..1]</text>
<text transform="matrix(0.85 0 0 1 64.0201645 369.1400146)" class="st2 st3">+ startLat: xs::double [0..1]</text>
<text transform="matrix(0.85 0 0 1 64.0201645 377.8900146)" class="st2 st3">+ startLong: xs::double [0..1]</text>
<text transform="matrix(0.85 0 0 1 64.0201645 386.6322021)" class="st2 st3">+ alternativeName: xs::string [0..*]</text>
<polygon class="st0" points="194.0361786,312.0541382 296.6267395,312.0541382 296.6267395,266.7969971 194.0361786,266.7969971 
	194.0361786,312.0541382 "/>
<polygon class="st1" points="194.0361786,312.0541382 296.6267395,312.0541382 296.6267395,266.7969971 194.0361786,266.7969971 
	194.0361786,312.0541382 "/>
<text transform="matrix(0.85 0 0 1 227.5592346 277.0931396)"><tspan x="0" y="0" class="st2 st3">«</tspan><tspan x="3.5960476" y="0" class="st2 st3">D</tspan><tspan x="8.2301235" y="0" class="st2 st3">a</tspan><tspan x="11.8255968" y="0" class="st2 st3">t</tspan><tspan x="13.8838463" y="0" class="st2 st3">a</tspan><tspan x="17.4793186" y="0" class="st2 st3">T</tspan><tspan x="21.0759411" y="0" class="st2 st3">y</tspan><tspan x="24.1641769" y="0" class="st2 st3">p</tspan><tspan x="28.274931" y="0" class="st2 st3">e</tspan><tspan x="31.8715515" y="0" class="st2 st3">»</tspan></text>
<text transform="matrix(0.85 0 0 1 206.7311096 285.8275146)"><tspan x="0" y="0" class="st4 st3">u</tspan><tspan x="4.1084557" y="0" class="st4 st3">r</tspan><tspan x="6.6762404" y="0" class="st4 st3">o</tspan><tspan x="10.7892923" y="0" class="st4 st3">::</tspan><tspan x="13.8809738" y="0" class="st4 st3">F</tspan><tspan x="17.4804688" y="0" class="st4 st3">a</tspan><tspan x="21.0776653" y="0" class="st4 st3">c</tspan><tspan x="24.1676235" y="0" class="st4 st3">ili</tspan><tspan x="28.8057213" y="0" class="st4 st3">t</tspan><tspan x="31.3752289" y="0" class="st4 st3">y</tspan><tspan x="34.9741478" y="0" class="st4 st3">T</tspan><tspan x="38.5759392" y="0" class="st4 st3">y</tspan><tspan x="42.1748619" y="0" class="st4 st3">p</tspan><tspan x="46.2833176" y="0" class="st4 st3">e</tspan><tspan x="49.8822365" y="0" class="st4 st3">A</tspan><tspan x="54.5042496" y="0" class="st4 st3">tt</tspan><tspan x="59.6432648" y="0" class="st4 st3">r</tspan><tspan x="62.2116241" y="0" class="st4 st3">i</tspan><tspan x="63.7574654" y="0" class="st4 st3">b</tspan><tspan x="67.865921" y="0" class="st4 st3">u</tspan><tspan x="71.9743805" y="0" class="st4 st3">t</tspan><tspan x="74.5438843" y="0" class="st4 st3">e</tspan></text>
<line class="st1" x1="194.0361786" y1="289.9398499" x2="296.118866" y2="289.9398499"/>
<text transform="matrix(0.85 0 0 1 196.5748596 299.2025146)" class="st2 st3">+ class: gml::CodeType [0..1]</text>
<text transform="matrix(0.85 0 0 1 196.5748596 307.9368896)" class="st2 st3">+ function: gml::CodeType [0..*]</text>
<polygon class="st5" points="366.7133484,61.0827026 435.7842407,61.0827026 435.7842407,19.9398174 366.7133484,19.9398174 
	366.7133484,61.0827026 "/>
<polygon class="st1" points="366.7133484,61.0827026 435.7842407,61.0827026 435.7842407,19.9398174 366.7133484,19.9398174 
	366.7133484,61.0827026 "/>
<text transform="matrix(0.85 0 0 1 379.4107971 30.2337627)"><tspan x="0" y="0" class="st2 st3">«</tspan><tspan x="3.5960476" y="0" class="st2 st3">F</tspan><tspan x="6.6865807" y="0" class="st2 st3">e</tspan><tspan x="10.2837772" y="0" class="st2 st3">a</tspan><tspan x="13.8786764" y="0" class="st2 st3">t</tspan><tspan x="15.9375" y="0" class="st2 st3">u</tspan><tspan x="19.5404415" y="0" class="st2 st3">r</tspan><tspan x="22.1047783" y="0" class="st2 st3">e</tspan><tspan x="25.7019749" y="0" class="st2 st3">T</tspan><tspan x="29.2980232" y="0" class="st2 st3">y</tspan><tspan x="32.3862572" y="0" class="st2 st3">p</tspan><tspan x="36.4970131" y="0" class="st2 st3">e</tspan><tspan x="40.0942078" y="0" class="st2 st3">»</tspan></text>
<text transform="matrix(0.85 0 0 1 385.5045471 38.9759521)"><tspan x="0" y="0" class="st4 st3">t</tspan><tspan x="2.5689337" y="0" class="st4 st3">r</tspan><tspan x="5.1378675" y="0" class="st4 st3">a</tspan><tspan x="8.7339153" y="0" class="st4 st3">n</tspan><tspan x="12.842371" y="0" class="st4 st3">::</tspan><tspan x="15.9340525" y="0" class="st4 st3">R</tspan><tspan x="20.0494022" y="0" class="st4 st3">o</tspan><tspan x="24.1624527" y="0" class="st4 st3">a</tspan><tspan x="27.7596493" y="0" class="st4 st3">d</tspan></text>
<polygon class="st5" points="199.1149139,192.2255859 306.7842102,192.2255859 306.7842102,127.9398193 199.1149139,127.9398193 
	199.1149139,192.2255859 "/>
<polygon class="st1" points="199.1149139,192.2255859 306.7842102,192.2255859 306.7842102,127.9398193 199.1149139,127.9398193 
	199.1149139,192.2255859 "/>
<text transform="matrix(0.85 0 0 1 231.1139221 138.2181396)"><tspan x="0" y="0" class="st2 st3">«</tspan><tspan x="3.5960476" y="0" class="st2 st3">F</tspan><tspan x="6.6865807" y="0" class="st2 st3">e</tspan><tspan x="10.2832031" y="0" class="st2 st3">a</tspan><tspan x="13.8786764" y="0" class="st2 st3">t</tspan><tspan x="15.9369249" y="0" class="st2 st3">u</tspan><tspan x="19.5398655" y="0" class="st2 st3">r</tspan><tspan x="22.1053524" y="0" class="st2 st3">e</tspan><tspan x="25.7014008" y="0" class="st2 st3">T</tspan><tspan x="29.2980232" y="0" class="st2 st3">y</tspan><tspan x="32.3862572" y="0" class="st2 st3">p</tspan><tspan x="36.4970131" y="0" class="st2 st3">e</tspan><tspan x="40.0936356" y="0" class="st2 st3">»</tspan></text>
<text transform="matrix(0.85 0 0 1 222.4811096 146.9681396)"><tspan x="0" y="0" class="st4 st3">t</tspan><tspan x="2.5695083" y="0" class="st4 st3">r</tspan><tspan x="5.1378675" y="0" class="st4 st3">a</tspan><tspan x="8.7344894" y="0" class="st4 st3">n</tspan><tspan x="12.8429451" y="0" class="st4 st3">::</tspan><tspan x="15.9340525" y="0" class="st4 st3">T</tspan><tspan x="19.5364189" y="0" class="st4 st3">r</tspan><tspan x="22.1042042" y="0" class="st4 st3">a</tspan><tspan x="25.7008266" y="0" class="st4 st3">ffi</tspan><tspan x="32.2122002" y="0" class="st4 st3">c</tspan><tspan x="35.3027344" y="0" class="st4 st3">C</tspan><tspan x="39.4215279" y="0" class="st4 st3">o</tspan><tspan x="43.5345802" y="0" class="st4 st3">m</tspan><tspan x="49.7035828" y="0" class="st4 st3">p</tspan><tspan x="53.8120384" y="0" class="st4 st3">l</tspan><tspan x="55.3584557" y="0" class="st4 st3">e</tspan><tspan x="58.9567986" y="0" class="st4 st3">x</tspan></text>
<line class="st1" x1="199.1149139" y1="151.0827026" x2="306.2763367" y2="151.0827026"/>
<text transform="matrix(0.85 0 0 1 201.6529846 160.3431396)" class="st2 st3">+ class: gml::CodeType [0..1]</text>
<text transform="matrix(0.85 0 0 1 201.6529846 169.0775146)" class="st2 st3">+ function: gml::CodeType [0..*]</text>
<text transform="matrix(0.85 0 0 1 201.6529846 177.8275146)" class="st2 st3">+ usage: gml::CodeType [0..*]</text>
<polygon class="st5" points="366.7133484,199.4255371 427.6582642,199.4255371 427.6582642,158.2827148 366.7133484,158.2827148 
	366.7133484,199.4255371 "/>
<polygon class="st1" points="366.7133484,199.4255371 427.6582642,199.4255371 427.6582642,158.2827148 366.7133484,158.2827148 
	366.7133484,199.4255371 "/>
<text transform="matrix(0.85 0 0 1 375.3482971 168.5775146)"><tspan x="0" y="0" class="st2 st3">«</tspan><tspan x="3.5960476" y="0" class="st2 st3">F</tspan><tspan x="6.6865807" y="0" class="st2 st3">e</tspan><tspan x="10.2837772" y="0" class="st2 st3">a</tspan><tspan x="13.8786764" y="0" class="st2 st3">t</tspan><tspan x="15.9375" y="0" class="st2 st3">u</tspan><tspan x="19.5404415" y="0" class="st2 st3">r</tspan><tspan x="22.1047783" y="0" class="st2 st3">e</tspan><tspan x="25.7019749" y="0" class="st2 st3">T</tspan><tspan x="29.2980232" y="0" class="st2 st3">y</tspan><tspan x="32.3862572" y="0" class="st2 st3">p</tspan><tspan x="36.4970131" y="0" class="st2 st3">e</tspan><tspan x="40.0942078" y="0" class="st2 st3">»</tspan></text>
<text transform="matrix(0.85 0 0 1 380.9342346 177.3118896)"><tspan x="0" y="0" class="st4 st3">t</tspan><tspan x="2.5689337" y="0" class="st4 st3">r</tspan><tspan x="5.1378675" y="0" class="st4 st3">a</tspan><tspan x="8.7339153" y="0" class="st4 st3">n</tspan><tspan x="12.842371" y="0" class="st4 st3">::</tspan><tspan x="15.9340525" y="0" class="st4 st3">T</tspan><tspan x="19.5358448" y="0" class="st4 st3">r</tspan><tspan x="22.1047783" y="0" class="st4 st3">a</tspan><tspan x="25.7008266" y="0" class="st4 st3">c</tspan><tspan x="28.7913589" y="0" class="st4 st3">k</tspan></text>
<polygon class="st5" points="366.7133484,107.3684082 427.6582642,107.3684082 427.6582642,66.2255859 366.7133484,66.2255859 
	366.7133484,107.3684082 "/>
<polygon class="st1" points="366.7133484,107.3684082 427.6582642,107.3684082 427.6582642,66.2255859 366.7133484,66.2255859 
	366.7133484,107.3684082 "/>
<text transform="matrix(0.85 0 0 1 375.3482971 76.5150146)"><tspan x="0" y="0" class="st2 st3">«</tspan><tspan x="3.5960476" y="0" class="st2 st3">F</tspan><tspan x="6.6865807" y="0" class="st2 st3">e</tspan><tspan x="10.2837772" y="0" class="st2 st3">a</tspan><tspan x="13.8786764" y="0" class="st2 st3">t</tspan><tspan x="15.9375" y="0" class="st2 st3">u</tspan><tspan x="19.5404415" y="0" class="st2 st3">r</tspan><tspan x="22.1047783" y="0" class="st2 st3">e</tspan><tspan x="25.7019749" y="0" class="st2 st3">T</tspan><tspan x="29.2980232" y="0" class="st2 st3">y</tspan><tspan x="32.3862572" y="0" class="st2 st3">p</tspan><tspan x="36.4970131" y="0" class="st2 st3">e</tspan><tspan x="40.0942078" y="0" class="st2 st3">»</tspan></text>
<text transform="matrix(0.85 0 0 1 377.8873596 85.2493896)"><tspan x="0" y="0" class="st4 st3">t</tspan><tspan x="2.5689337" y="0" class="st4 st3">r</tspan><tspan x="5.1378675" y="0" class="st4 st3">a</tspan><tspan x="8.7339153" y="0" class="st4 st3">n</tspan><tspan x="12.842371" y="0" class="st4 st3">::</tspan><tspan x="15.9340525" y="0" class="st4 st3">R</tspan><tspan x="20.0494022" y="0" class="st4 st3">a</tspan><tspan x="23.6465988" y="0" class="st4 st3">il</tspan><tspan x="26.7382812" y="0" class="st4 st3">w</tspan><tspan x="31.875" y="0" class="st4 st3">a</tspan><tspan x="35.4721947" y="0" class="st4 st3">y</tspan></text>
<polygon class="st5" points="366.7133484,153.6541748 427.6582642,153.6541748 427.6582642,112.5112915 366.7133484,112.5112915 
	366.7133484,153.6541748 "/>
<polygon class="st1" points="366.7133484,153.6541748 427.6582642,153.6541748 427.6582642,112.5112915 366.7133484,112.5112915 
	366.7133484,153.6541748 "/>
<text transform="matrix(0.85 0 0 1 375.3482971 122.8040771)"><tspan x="0" y="0" class="st2 st3">«</tspan><tspan x="3.5960476" y="0" class="st2 st3">F</tspan><tspan x="6.6865807" y="0" class="st2 st3">e</tspan><tspan x="10.2837772" y="0" class="st2 st3">a</tspan><tspan x="13.8786764" y="0" class="st2 st3">t</tspan><tspan x="15.9375" y="0" class="st2 st3">u</tspan><tspan x="19.5404415" y="0" class="st2 st3">r</tspan><tspan x="22.1047783" y="0" class="st2 st3">e</tspan><tspan x="25.7019749" y="0" class="st2 st3">T</tspan><tspan x="29.2980232" y="0" class="st2 st3">y</tspan><tspan x="32.3862572" y="0" class="st2 st3">p</tspan><tspan x="36.4970131" y="0" class="st2 st3">e</tspan><tspan x="40.0942078" y="0" class="st2 st3">»</tspan></text>
<text transform="matrix(0.85 0 0 1 378.3951721 131.5462646)"><tspan x="0" y="0" class="st4 st3">t</tspan><tspan x="2.5689337" y="0" class="st4 st3">r</tspan><tspan x="5.1378675" y="0" class="st4 st3">a</tspan><tspan x="8.7339153" y="0" class="st4 st3">n</tspan><tspan x="12.842371" y="0" class="st4 st3">::</tspan><tspan x="15.9340525" y="0" class="st4 st3">S</tspan><tspan x="19.5404415" y="0" class="st4 st3">q</tspan><tspan x="23.6488972" y="0" class="st4 st3">u</tspan><tspan x="27.7573528" y="0" class="st4 st3">a</tspan><tspan x="31.3545494" y="0" class="st4 st3">r</tspan><tspan x="33.9223328" y="0" class="st4 st3">e</tspan></text>
<polygon class="st0" points="321.0046997,307.9398499 406.3275452,307.9398499 406.3275452,266.7969971 321.0046997,266.7969971 
	321.0046997,307.9398499 "/>
<polygon class="st1" points="321.0046997,307.9398499 406.3275452,307.9398499 406.3275452,266.7969971 321.0046997,266.7969971 
	321.0046997,307.9398499 "/>
<text transform="matrix(0.85 0 0 1 345.8873596 277.0931396)"><tspan x="0" y="0" class="st2 st3">«</tspan><tspan x="3.5960476" y="0" class="st2 st3">D</tspan><tspan x="8.2306986" y="0" class="st2 st3">a</tspan><tspan x="11.8255968" y="0" class="st2 st3">t</tspan><tspan x="13.8844204" y="0" class="st2 st3">a</tspan><tspan x="17.4793186" y="0" class="st2 st3">T</tspan><tspan x="21.0765152" y="0" class="st2 st3">y</tspan><tspan x="24.1636028" y="0" class="st2 st3">p</tspan><tspan x="28.2755051" y="0" class="st2 st3">e</tspan><tspan x="31.8715515" y="0" class="st2 st3">»</tspan></text>
<text transform="matrix(0.85 0 -0.3126727 0.9498609 332.184845 285.8297119)"><tspan x="0" y="0" class="st6 st2 st7">u</tspan><tspan x="4.3278952" y="0" class="st6 st2 st7">r</tspan><tspan x="7.0289521" y="0" class="st6 st2 st7">o</tspan><tspan x="11.3568468" y="0" class="st6 st2 st7">::</tspan><tspan x="14.5921412" y="0" class="st6 st2 st7">F</tspan><tspan x="18.3800545" y="0" class="st6 st2 st7">a</tspan><tspan x="22.1656704" y="0" class="st6 st2 st7">c</tspan><tspan x="25.4170494" y="0" class="st6 st2 st7">ili</tspan><tspan x="30.2987118" y="0" class="st6 st2 st7">t</tspan><tspan x="33.0009193" y="0" class="st6 st2 st7">y</tspan><tspan x="36.7865334" y="0" class="st6 st2 st7">A</tspan><tspan x="41.657856" y="0" class="st6 st2 st7">tt</tspan><tspan x="47.0611191" y="0" class="st6 st2 st7">r</tspan><tspan x="49.7621765" y="0" class="st6 st2 st7">i</tspan><tspan x="51.3890152" y="0" class="st6 st2 st7">b</tspan><tspan x="55.7169113" y="0" class="st6 st2 st7">u</tspan><tspan x="60.0448036" y="0" class="st6 st2 st7">t</tspan><tspan x="62.7470093" y="0" class="st6 st2 st7">e</tspan></text>
<line class="st1" x1="321.0046997" y1="289.9398499" x2="405.8196716" y2="289.9398499"/>
<text transform="matrix(0.85 0 0 1 323.5436096 299.2025146)" class="st2 st3">+ facilityId: xs::string [0..1]</text>
<polygon class="st5" points="229.5873566,76.5112915 310.847229,76.5112915 310.847229,35.3684082 229.5873566,35.3684082 
	229.5873566,76.5112915 "/>
<polygon class="st1" points="229.5873566,76.5112915 310.847229,76.5112915 310.847229,35.3684082 229.5873566,35.3684082 
	229.5873566,76.5112915 "/>
<text transform="matrix(0.85 0 -0.3126727 0.9498609 276.8308411 44.1123543)"><tspan x="0" y="0" class="st2 st7">_</tspan><tspan x="2.710248" y="0" class="st2 st7">C</tspan><tspan x="7.0473342" y="0" class="st2 st7">i</tspan><tspan x="8.6741724" y="0" class="st2 st7">t</tspan><tspan x="10.840992" y="0" class="st2 st7">y</tspan><tspan x="14.092371" y="0" class="st2 st7">O</tspan><tspan x="19.5036755" y="0" class="st2 st7">b</tspan><tspan x="23.8327198" y="0" class="st2 st7">j</tspan><tspan x="25.4595585" y="0" class="st2 st7">e</tspan><tspan x="29.2463226" y="0" class="st2 st7">ct</tspan></text>
<text transform="matrix(0.85 0 -0.3126727 0.9498609 262.098999 54.4049873)"><tspan x="0" y="0" class="st6 st2 st7">t</tspan><tspan x="2.7022059" y="0" class="st6 st2 st7">r</tspan><tspan x="5.4021139" y="0" class="st6 st2 st7">a</tspan><tspan x="9.1877298" y="0" class="st6 st2 st7">n</tspan><tspan x="13.515625" y="0" class="st6 st2 st7">:</tspan><tspan x="15.1332712" y="0" class="st6 st2 st7">:</tspan></text>
<text transform="matrix(0.85 0 -0.3126727 0.9498609 236.192627 63.1392555)"><tspan x="0" y="0" class="st6 st2 st7">_</tspan><tspan x="2.710248" y="0" class="st6 st2 st7">T</tspan><tspan x="6.4958639" y="0" class="st6 st2 st7">r</tspan><tspan x="9.1969204" y="0" class="st6 st2 st7">a</tspan><tspan x="12.9825363" y="0" class="st6 st2 st7">n</tspan><tspan x="17.3104324" y="0" class="st6 st2 st7">s</tspan><tspan x="20.5572147" y="0" class="st6 st2 st7">p</tspan><tspan x="24.8851089" y="0" class="st6 st2 st7">o</tspan><tspan x="29.2130051" y="0" class="st6 st2 st7">r</tspan><tspan x="31.9140625" y="0" class="st6 st2 st7">t</tspan><tspan x="34.6162682" y="0" class="st6 st2 st7">a</tspan><tspan x="38.4007339" y="0" class="st6 st2 st7">t</tspan><tspan x="41.1029396" y="0" class="st6 st2 st7">i</tspan><tspan x="42.7297783" y="0" class="st6 st2 st7">o</tspan><tspan x="47.0588226" y="0" class="st6 st2 st7">n</tspan><tspan x="51.3867188" y="0" class="st6 st2 st7">O</tspan><tspan x="56.7991714" y="0" class="st6 st2 st7">b</tspan><tspan x="61.1270676" y="0" class="st6 st2 st7">j</tspan><tspan x="62.7539062" y="0" class="st6 st2 st7">e</tspan><tspan x="66.5406723" y="0" class="st6 st2 st7">ct</tspan></text>
<polygon class="st0" points="21.358984,80.6255493 133.0912933,80.6255493 133.0912933,35.3684082 21.358984,35.3684082 
	21.358984,80.6255493 "/>
<polygon class="st1" points="21.358984,80.6255493 133.0912933,80.6255493 133.0912933,35.3684082 21.358984,35.3684082 
	21.358984,80.6255493 "/>
<text transform="matrix(0.85 0 0 1 59.449852 45.6556396)"><tspan x="0" y="0" class="st2 st3">«</tspan><tspan x="3.5960476" y="0" class="st2 st3">D</tspan><tspan x="8.2301235" y="0" class="st2 st3">a</tspan><tspan x="11.8255968" y="0" class="st2 st3">t</tspan><tspan x="13.8838463" y="0" class="st2 st3">a</tspan><tspan x="17.4793186" y="0" class="st2 st3">T</tspan><tspan x="21.0759411" y="0" class="st2 st3">y</tspan><tspan x="24.1641769" y="0" class="st2 st3">p</tspan><tspan x="28.274931" y="0" class="st2 st3">e</tspan><tspan x="31.8715515" y="0" class="st2 st3">»</tspan></text>
<text transform="matrix(0.85 0 -0.3126727 0.9498609 50.8255577 54.4049873)"><tspan x="0" y="0" class="st6 st2 st7">u</tspan><tspan x="4.3278952" y="0" class="st6 st2 st7">r</tspan><tspan x="7.0289521" y="0" class="st6 st2 st7">o</tspan><tspan x="11.3568468" y="0" class="st6 st2 st7">::</tspan><tspan x="14.5921412" y="0" class="st6 st2 st7">D</tspan><tspan x="19.4703579" y="0" class="st6 st2 st7">m</tspan><tspan x="25.9627743" y="0" class="st6 st2 st7">A</tspan><tspan x="30.8340988" y="0" class="st6 st2 st7">tt</tspan><tspan x="36.2373619" y="0" class="st6 st2 st7">r</tspan><tspan x="38.9372673" y="0" class="st6 st2 st7">i</tspan><tspan x="40.565258" y="0" class="st6 st2 st7">b</tspan><tspan x="44.8931503" y="0" class="st6 st2 st7">u</tspan><tspan x="49.2210464" y="0" class="st6 st2 st7">t</tspan><tspan x="51.9232521" y="0" class="st6 st2 st7">e</tspan></text>
<line class="st1" x1="21.358984" y1="58.5112915" x2="132.5834198" y2="58.5112915"/>
<text transform="matrix(0.85 0 0 1 23.902977 67.7728271)" class="st2 st3">+ dmCode: gml::CodeType</text>
<text transform="matrix(0.85 0 0 1 23.902977 76.5150146)" class="st2 st3">+ meshCode: gml::CodeType [0..1]</text>
<path class="st8" d="M519.0755615,204.5684814c0.8414307,0,1.5235596,0.6907349,1.5235596,1.5428467l0.000061-0.000061v58.1143188
	h-0.000061c0,0.8520508-0.6821289,1.5428467-1.5236206,1.5428467l0,0h0.000061h-94.9724426h-0.0000305
	c-0.8414307,0-1.5236206-0.6907959-1.5236206-1.5428467h0.0000305v-58.1143188c0-0.8520508,0.6821594-1.5428467,1.5236206-1.5427856
	v-0.000061h94.9724426V204.5684814L519.0755615,204.5684814z"/>
<path class="st9" d="M519.0755615,204.5684814c0.8414307,0,1.5235596,0.6907349,1.5235596,1.5428467l0.000061-0.000061v58.1143188
	h-0.000061c0,0.8520508-0.6821289,1.5428467-1.5236206,1.5428467l0,0h0.000061h-94.9724426h-0.0000305
	c-0.8414307,0-1.5236206-0.6907959-1.5236206-1.5428467h0.0000305v-58.1143188c0-0.8520508,0.6821594-1.5428467,1.5236206-1.5427856
	v-0.000061h94.9724426V204.5684814L519.0755615,204.5684814z"/>
<polygon class="st10" points="427.6582642,228.7398682 436.2921143,228.7398682 436.2921143,219.9970093 427.6582642,219.9970093 
	427.6582642,228.7398682 "/>
<polygon class="st11" points="427.6582642,228.7398682 436.2921143,228.7398682 436.2921143,219.9970093 427.6582642,219.9970093 
	427.6582642,228.7398682 "/>
<text transform="matrix(0.85 0 0 1 438.8326721 227.1947021)" class="st12 st2 st3">GMLに定義されたクラス</text>
<polygon class="st5" points="427.6582642,238.5112915 436.2921143,238.5112915 436.2921143,229.7684326 427.6582642,229.7684326 
	427.6582642,238.5112915 "/>
<polygon class="st11" points="427.6582642,238.5112915 436.2921143,238.5112915 436.2921143,229.7684326 427.6582642,229.7684326 
	427.6582642,238.5112915 "/>
<text transform="matrix(0.85 0 0 1 438.8326721 236.9681396)" class="st12 st2 st3">CityGMLに定義されたクラス</text>
<polygon class="st0" points="427.6582642,248.2827148 436.2921143,248.2827148 436.2921143,239.539856 427.6582642,239.539856 
	427.6582642,248.2827148 "/>
<polygon class="st11" points="427.6582642,248.2827148 436.2921143,248.2827148 436.2921143,239.539856 427.6582642,239.539856 
	427.6582642,248.2827148 "/>
<text transform="matrix(0.85 0 0 1 438.8326721 246.7337646)" class="st12 st2 st3">i-URに定義されたクラス</text>
<text transform="matrix(0.85 0 0 1 463.7154846 216.9134521)" class="st12 st4 st13">凡例</text>
<polygon class="st0" points="16.2802429,195.8255615 153.9141235,195.8255615 153.9141235,124.3398438 16.2802429,124.3398438 
	16.2802429,195.8255615 "/>
<polygon class="st1" points="16.2802429,195.8255615 153.9141235,195.8255615 153.9141235,124.3398438 16.2802429,124.3398438 
	16.2802429,195.8255615 "/>
<text transform="matrix(0.85 0 0 1 67.574852 134.6243896)"><tspan x="0" y="0" class="st2 st3">«</tspan><tspan x="3.5960476" y="0" class="st2 st3">D</tspan><tspan x="8.2301235" y="0" class="st2 st3">a</tspan><tspan x="11.8255968" y="0" class="st2 st3">t</tspan><tspan x="13.8838463" y="0" class="st2 st3">a</tspan><tspan x="17.4793186" y="0" class="st2 st3">T</tspan><tspan x="21.0759411" y="0" class="st2 st3">y</tspan><tspan x="24.1641769" y="0" class="st2 st3">p</tspan><tspan x="28.274931" y="0" class="st2 st3">e</tspan><tspan x="31.8715515" y="0" class="st2 st3">»</tspan></text>
<text transform="matrix(0.85 0 0 1 23.387352 143.3665771)"><tspan x="0" y="0" class="st4 st3">u</tspan><tspan x="4.1084557" y="0" class="st4 st3">r</tspan><tspan x="6.6762404" y="0" class="st4 st3">o</tspan><tspan x="10.7892923" y="0" class="st4 st3">::</tspan><tspan x="13.8809738" y="0" class="st4 st3">T</tspan><tspan x="17.4827652" y="0" class="st4 st3">r</tspan><tspan x="20.0511246" y="0" class="st4 st3">a</tspan><tspan x="23.647747" y="0" class="st4 st3">n</tspan><tspan x="27.7562027" y="0" class="st4 st3">s</tspan><tspan x="30.8392677" y="0" class="st4 st3">p</tspan><tspan x="34.9477234" y="0" class="st4 st3">o</tspan><tspan x="39.0607758" y="0" class="st4 st3">r</tspan><tspan x="41.6285591" y="0" class="st4 st3">t</tspan><tspan x="44.1980667" y="0" class="st4 st3">a</tspan><tspan x="47.7946892" y="0" class="st4 st3">t</tspan><tspan x="50.3642006" y="0" class="st4 st3">i</tspan><tspan x="51.910614" y="0" class="st4 st3">o</tspan><tspan x="56.0230904" y="0" class="st4 st3">n</tspan><tspan x="60.131546" y="0" class="st4 st3">D</tspan><tspan x="64.7667694" y="0" class="st4 st3">a</tspan><tspan x="68.3633957" y="0" class="st4 st3">t</tspan><tspan x="70.9328995" y="0" class="st4 st3">a</tspan><tspan x="74.5295258" y="0" class="st4 st3">Q</tspan><tspan x="79.669693" y="0" class="st4 st3">u</tspan><tspan x="83.7781448" y="0" class="st4 st3">a</tspan><tspan x="87.3747711" y="0" class="st4 st3">li</tspan><tspan x="90.4670258" y="0" class="st4 st3">t</tspan><tspan x="93.0365295" y="0" class="st4 st3">y</tspan><tspan x="96.6354523" y="0" class="st4 st3">A</tspan><tspan x="101.2574615" y="0" class="st4 st3">tt</tspan><tspan x="106.3964844" y="0" class="st4 st3">r</tspan><tspan x="108.9648438" y="0" class="st4 st3">i</tspan><tspan x="110.5106812" y="0" class="st4 st3">b</tspan><tspan x="114.6191406" y="0" class="st4 st3">u</tspan><tspan x="118.7275925" y="0" class="st4 st3">t</tspan><tspan x="121.2971039" y="0" class="st4 st3">e</tspan></text>
<line class="st1" x1="16.2802429" y1="147.4827271" x2="153.40625" y2="147.4827271"/>
<text transform="matrix(0.85 0 0 1 18.824852 156.7337646)" class="st2 st3">+ srcScale: gml::CodeType [0..*]</text>
<text transform="matrix(0.85 0 0 1 18.824852 165.4837646)" class="st2 st3">+ geometrySrcDesc: gml::CodeType [0..*]</text>
<text transform="matrix(0.85 0 0 1 18.824852 174.2259521)" class="st2 st3">+ thematicSrcDesc: gml::CodeType [0..*]</text>
<text transform="matrix(0.85 0 0 1 18.824852 182.9681396)" class="st2 st3">+ appearanceSrcDesc: gml::CodeType [0..*]</text>
<text transform="matrix(0.85 0 0 1 18.824852 191.7181396)" class="st2 st3">+ lodType: gml::CodeType [0..1]</text>
<line class="st1" x1="154.4219971" y1="159.8255615" x2="198.6070404" y2="159.8255615"/>
<polyline class="st14" points="193.5283051,162.3969727 198.6070404,159.8255615 193.5283051,157.2541504 188.4495697,159.8255615 
	193.5283051,162.3969727 "/>
<polygon class="st1" points="193.5283051,162.3969727 198.6070404,159.8255615 193.5283051,157.2541504 188.4495697,159.8255615 "/>
<polyline class="st1" points="162.0401154,162.9112549 154.4219971,159.8255615 162.0401154,156.7398682 "/>
<line class="st1" x1="133.5991669" y1="63.1398315" x2="229.079483" y2="63.1398315"/>
<polyline class="st14" points="224.0007477,65.7113037 229.079483,63.1398315 224.0007477,60.5684204 218.9220123,63.1398315 
	224.0007477,65.7113037 "/>
<polygon class="st1" points="224.0007477,65.7113037 229.079483,63.1398315 224.0007477,60.5684204 218.9220123,63.1398315 "/>
<polyline class="st1" points="141.2172699,66.2255859 133.5991669,63.1398315 141.2172699,60.0541382 "/>
<line class="st1" x1="363.1582336" y1="266.2827148" x2="363.1582336" y2="217.9398804"/>
<line class="st1" x1="363.1582336" y1="217.9398804" x2="252.9495697" y2="217.9398804"/>
<line class="st1" x1="252.9495697" y1="217.9398804" x2="252.9495697" y2="192.7398682"/>
<polyline class="st14" points="255.4889374,197.8826904 252.9495697,192.7398682 250.410202,197.8826904 252.9495697,203.0255737 
	255.4889374,197.8826904 "/>
<polyline class="st1" points="255.4889374,197.8826904 252.9495697,192.7398682 250.410202,197.8826904 252.9495697,203.0255737 "/>
<polyline class="st1" points="366.2054749,258.5684204 363.1582336,266.2827148 360.1109924,258.5684204 "/>
<line class="st1" x1="366.2054749" y1="132.5684204" x2="332.1779175" y2="132.5684204"/>
<line class="st1" x1="332.1779175" y1="159.8255615" x2="307.2920837" y2="159.8255615"/>
<polyline class="st15" points="315.4180908,156.7398682 315.4180908,162.9112549 307.2920837,159.8255615 315.4180908,156.7398682 
	"/>
<polygon class="st1" points="315.4180908,156.7398682 315.4180908,162.9112549 307.2920837,159.8255615 "/>
<line class="st1" x1="366.2054749" y1="86.2827148" x2="332.1779175" y2="86.2827148"/>
<line class="st1" x1="366.2054749" y1="178.3398438" x2="332.1779175" y2="178.3398438"/>
<line class="st1" x1="332.1779175" y1="178.3398438" x2="332.1779175" y2="159.8255615"/>
<line class="st1" x1="280.3747559" y1="127.4255371" x2="280.3747559" y2="77.0255737"/>
<polyline class="st15" points="283.4220276,85.2541504 277.3275146,85.2541504 280.3747559,77.0255737 283.4220276,85.2541504 "/>
<polygon class="st1" points="283.4220276,85.2541504 277.3275146,85.2541504 280.3747559,77.0255737 "/>
<line class="st1" x1="366.2054749" y1="39.4827271" x2="332.1779175" y2="39.4827271"/>
<line class="st1" x1="332.1779175" y1="39.4827271" x2="332.1779175" y2="159.8255615"/>
<line class="st1" x1="245.3314667" y1="266.2827148" x2="245.3314667" y2="217.9398804"/>
<polyline class="st14" points="255.4889374,197.8826904 252.9495697,192.7398682 250.410202,197.8826904 252.9495697,203.0255737 
	255.4889374,197.8826904 "/>
<polyline class="st1" points="255.4889374,197.8826904 252.9495697,192.7398682 250.410202,197.8826904 252.9495697,203.0255737 "/>
<polyline class="st1" points="248.3787079,258.5684204 245.3314667,266.2827148 242.2842102,258.5684204 "/>
<line class="st1" x1="115.3156891" y1="266.2827148" x2="115.3156891" y2="217.9398804"/>
<line class="st1" x1="115.3156891" y1="217.9398804" x2="252.9495697" y2="217.9398804"/>
<polyline class="st14" points="255.4889374,197.8826904 252.9495697,192.7398682 250.410202,197.8826904 252.9495697,203.0255737 
	255.4889374,197.8826904 "/>
<polygon class="st1" points="252.9495697,203.0255737 250.410202,197.8826904 252.9495697,192.7398682 255.4889374,197.8826904 "/>
<polyline class="st1" points="118.3629379,258.5684204 115.3156891,266.2827148 112.2684479,258.5684204 "/>
<text transform="matrix(0.85 0 0 1 45.231102 260.6243896)"><tspan x="0" y="0" class="st2 st3">+</tspan><tspan x="4.627183" y="0" class="st2 st3">t</tspan><tspan x="6.685432" y="0" class="st2 st3">r</tspan><tspan x="9.2503443" y="0" class="st2 st3">a</tspan><tspan x="12.8458176" y="0" class="st2 st3">n</tspan><tspan x="16.4487591" y="0" class="st2 st3">F</tspan><tspan x="19.5398655" y="0" class="st2 st3">a</tspan><tspan x="23.1353397" y="0" class="st2 st3">c</tspan><tspan x="26.2235737" y="0" class="st2 st3">ili</tspan><tspan x="30.8605232" y="0" class="st2 st3">t</tspan><tspan x="32.9187737" y="0" class="st2 st3">y</tspan><tspan x="36.0064316" y="0" class="st2 st3">I</tspan><tspan x="37.5517006" y="0" class="st2 st3">d</tspan><tspan x="41.6624527" y="0" class="st2 st3">A</tspan><tspan x="45.78125" y="0" class="st2 st3">tt</tspan><tspan x="49.897747" y="0" class="st2 st3">r</tspan><tspan x="52.4626579" y="0" class="st2 st3">i</tspan><tspan x="54.0084991" y="0" class="st2 st3">b</tspan><tspan x="58.1192551" y="0" class="st2 st3">u</tspan><tspan x="61.7221947" y="0" class="st2 st3">t</tspan><tspan x="63.7804451" y="0" class="st2 st3">e</tspan></text>
<text transform="matrix(0.85 0 0 1 123.949852 262.1712646)"><tspan x="0" y="0" class="st2 st3">0</tspan><tspan x="3.60409" y="0" class="st2 st3">..</tspan><tspan x="6.676815" y="0" class="st2 st3">1</tspan></text>
<text transform="matrix(0.85 0 0 1 292.0514221 262.6868896)"><tspan x="0" y="0" class="st2 st3">+</tspan><tspan x="4.6266084" y="0" class="st2 st3">t</tspan><tspan x="6.685432" y="0" class="st2 st3">r</tspan><tspan x="9.2509184" y="0" class="st2 st3">a</tspan><tspan x="12.8458176" y="0" class="st2 st3">n</tspan><tspan x="16.4487591" y="0" class="st2 st3">F</tspan><tspan x="19.5392914" y="0" class="st2 st3">a</tspan><tspan x="23.1353397" y="0" class="st2 st3">c</tspan><tspan x="26.2235737" y="0" class="st2 st3">ili</tspan><tspan x="30.8605232" y="0" class="st2 st3">t</tspan><tspan x="32.9181976" y="0" class="st2 st3">y</tspan><tspan x="36.0064316" y="0" class="st2 st3">A</tspan><tspan x="40.1252289" y="0" class="st2 st3">tt</tspan><tspan x="44.2417259" y="0" class="st2 st3">r</tspan><tspan x="46.8072128" y="0" class="st2 st3">i</tspan><tspan x="48.3524818" y="0" class="st2 st3">b</tspan><tspan x="52.4632339" y="0" class="st2 st3">u</tspan><tspan x="56.0661736" y="0" class="st2 st3">t</tspan><tspan x="58.125" y="0" class="st2 st3">e</tspan></text>
<text transform="matrix(0.85 0 0 1 371.7936096 263.7103271)"><tspan x="0" y="0" class="st2 st3">0</tspan><tspan x="3.60409" y="0" class="st2 st3">..</tspan><tspan x="6.6762404" y="0" class="st2 st3">*</tspan></text>
<text transform="matrix(0.85 0 0 1 144.2623596 116.6322021)"><tspan x="0" y="0" class="st2 st3">+</tspan><tspan x="4.627183" y="0" class="st2 st3">t</tspan><tspan x="6.685432" y="0" class="st2 st3">r</tspan><tspan x="9.2503443" y="0" class="st2 st3">a</tspan><tspan x="12.8458176" y="0" class="st2 st3">n</tspan><tspan x="16.4487591" y="0" class="st2 st3">D</tspan><tspan x="21.0834103" y="0" class="st2 st3">a</tspan><tspan x="24.6788826" y="0" class="st2 st3">t</tspan><tspan x="26.7371311" y="0" class="st2 st3">a</tspan><tspan x="30.3326054" y="0" class="st2 st3">Q</tspan><tspan x="35.4733429" y="0" class="st2 st3">u</tspan><tspan x="39.0762863" y="0" class="st2 st3">a</tspan><tspan x="42.6717606" y="0" class="st2 st3">li</tspan><tspan x="45.762867" y="0" class="st2 st3">t</tspan><tspan x="47.8211136" y="0" class="st2 st3">y</tspan><tspan x="50.9093513" y="0" class="st2 st3">A</tspan><tspan x="55.0281448" y="0" class="st2 st3">tt</tspan><tspan x="59.1446457" y="0" class="st2 st3">r</tspan><tspan x="61.7095566" y="0" class="st2 st3">i</tspan><tspan x="63.2553978" y="0" class="st2 st3">b</tspan><tspan x="67.3661499" y="0" class="st2 st3">u</tspan><tspan x="70.9690933" y="0" class="st2 st3">t</tspan><tspan x="73.0273438" y="0" class="st2 st3">e</tspan></text>
<text transform="matrix(0.85 0 0 1 155.9498596 169.6009521)"><tspan x="0" y="0" class="st2 st3">0</tspan><tspan x="3.60409" y="0" class="st2 st3">..</tspan><tspan x="6.676815" y="0" class="st2 st3">1</tspan></text>
<text transform="matrix(0.85 0 0 1 162.0436096 261.6556396)"><tspan x="0" y="0" class="st2 st3">+</tspan><tspan x="4.627183" y="0" class="st2 st3">t</tspan><tspan x="6.685432" y="0" class="st2 st3">r</tspan><tspan x="9.2503443" y="0" class="st2 st3">a</tspan><tspan x="12.8458176" y="0" class="st2 st3">n</tspan><tspan x="16.4487591" y="0" class="st2 st3">F</tspan><tspan x="19.5398655" y="0" class="st2 st3">a</tspan><tspan x="23.1353397" y="0" class="st2 st3">c</tspan><tspan x="26.2235737" y="0" class="st2 st3">ili</tspan><tspan x="30.8605232" y="0" class="st2 st3">t</tspan><tspan x="32.9187737" y="0" class="st2 st3">y</tspan><tspan x="36.0064316" y="0" class="st2 st3">T</tspan><tspan x="39.603054" y="0" class="st2 st3">y</tspan><tspan x="42.6912918" y="0" class="st2 st3">p</tspan><tspan x="46.8020439" y="0" class="st2 st3">e</tspan><tspan x="50.3986664" y="0" class="st2 st3">A</tspan><tspan x="54.5168877" y="0" class="st2 st3">tt</tspan><tspan x="58.6339607" y="0" class="st2 st3">r</tspan><tspan x="61.1988716" y="0" class="st2 st3">i</tspan><tspan x="62.7441406" y="0" class="st2 st3">b</tspan><tspan x="66.8554688" y="0" class="st2 st3">u</tspan><tspan x="70.4584045" y="0" class="st2 st3">t</tspan><tspan x="72.516655" y="0" class="st2 st3">e</tspan></text>
<text transform="matrix(0.85 0 0 1 259.5514221 261.1400146)"><tspan x="0" y="0" class="st2 st3">0</tspan><tspan x="3.60409" y="0" class="st2 st3">..</tspan><tspan x="6.676815" y="0" class="st2 st3">*</tspan></text>
<text transform="matrix(0.85 0 0 1 135.1217346 59.0228271)"><tspan x="0" y="0" class="st2 st3">+</tspan><tspan x="4.627183" y="0" class="st2 st3">t</tspan><tspan x="6.685432" y="0" class="st2 st3">r</tspan><tspan x="9.2503443" y="0" class="st2 st3">a</tspan><tspan x="12.8458176" y="0" class="st2 st3">n</tspan><tspan x="16.4487591" y="0" class="st2 st3">D</tspan><tspan x="21.0834103" y="0" class="st2 st3">m</tspan><tspan x="26.7417278" y="0" class="st2 st3">A</tspan><tspan x="30.8599491" y="0" class="st2 st3">tt</tspan><tspan x="34.9764481" y="0" class="st2 st3">r</tspan><tspan x="37.541935" y="0" class="st2 st3">i</tspan><tspan x="39.0872002" y="0" class="st2 st3">b</tspan><tspan x="43.1985283" y="0" class="st2 st3">u</tspan><tspan x="46.8014679" y="0" class="st2 st3">t</tspan><tspan x="48.8597183" y="0" class="st2 st3">e</tspan></text>
<text transform="matrix(0.85 0 0 1 135.1217346 72.9056396)"><tspan x="0" y="0" class="st2 st3">0</tspan><tspan x="3.60409" y="0" class="st2 st3">..</tspan><tspan x="6.676815" y="0" class="st2 st3">*</tspan></text>
</svg>
