<?xml version="1.0" encoding="utf-8"?>
<!-- Generator: Adobe Illustrator 27.5.0, SVG Export Plug-In . SVG Version: 6.00 Build 0)  -->
<svg version="1.1" id="レイヤー_1" xmlns="http://www.w3.org/2000/svg" xmlns:xlink="http://www.w3.org/1999/xlink" x="0px"
	 y="0px" viewBox="0 0 908.2553101 1442.9333496" style="enable-background:new 0 0 908.2553101 1442.9333496;"
	 xml:space="preserve">
<style type="text/css">
	.st0{opacity:0.5019608;fill-rule:evenodd;clip-rule:evenodd;fill:#969696;enable-background:new    ;}
	.st1{fill-rule:evenodd;clip-rule:evenodd;fill:#FFCCFF;}
	.st2{fill:none;stroke:#000000;stroke-width:1.5013124;stroke-linecap:round;stroke-linejoin:round;stroke-miterlimit:10;}
	.st3{font-family:'Calibri';}
	.st4{font-size:9.7585306px;}
	.st5{font-family:'Calibri-Bold';}
	.st6{font-family:'Calibri-Italic';}
	.st7{font-family:'Calibri-BoldItalic';}
	.st8{fill-rule:evenodd;clip-rule:evenodd;fill:#F0F0F0;}
	.st9{fill:none;stroke:#D7D7D7;stroke-width:0.7506562;stroke-linecap:square;stroke-miterlimit:10;}
	.st10{fill-rule:evenodd;clip-rule:evenodd;fill:#CCFFCC;}
	.st11{fill:none;stroke:#000000;stroke-width:0.7506562;stroke-linecap:square;stroke-miterlimit:10;}
	.st12{enable-background:new    ;}
	.st13{fill:#003060;}
	.st14{font-family:'KozGoPr6N-Regular-90ms-RKSJ-H';}
	.st15{fill-rule:evenodd;clip-rule:evenodd;fill:#FFFFCC;}
	.st16{font-family:'Meiryo-Bold';}
	.st17{font-size:12.010499px;}
	.st18{letter-spacing:-2.352941;}
	.st19{fill:none;stroke:#000000;stroke-width:1.5013124;stroke-linecap:round;stroke-linejoin:bevel;stroke-miterlimit:10;}
	.st20{fill-rule:evenodd;clip-rule:evenodd;fill:#FFFFFF;}
</style>
<path class="st0" d="M541.9859619,156.508728c1.0375366,0,1.8786011,0.8400879,1.8786011,1.8765869h0.000061v49.543335h-0.000061
	c0,1.036377-0.8410645,1.8765869-1.8786621,1.8765869l0,0h0.000061H393.193573h-0.000061
	c-1.0375366,0-1.8786621-0.84021-1.8786621-1.8765869l0,0v-49.543335c0-1.036499,0.8411255-1.876709,1.8787231-1.8765869v-0.0001221
	h148.7923889V156.508728L541.9859619,156.508728z"/>
<path class="st1" d="M539.7315063,154.2566528c1.0375366,0,1.8786621,0.84021,1.8786621,1.876709h0.000061v49.543335h-0.000061
	c0,1.036377-0.8411255,1.8765869-1.8787231,1.8765869l0,0h0.000061H390.9391174l0,0
	c-1.0375977,0-1.8787231-0.84021-1.8787231-1.8765869h0.000061v-49.543335c0-1.036499,0.8410645-1.876709,1.8786621-1.876709l0,0
	H539.7315063L539.7315063,154.2566528L539.7315063,154.2566528z"/>
<path class="st2" d="M539.7315063,154.2566528c1.0375366,0,1.8786621,0.84021,1.8786621,1.876709h0.000061v49.543335h-0.000061
	c0,1.036377-0.8411255,1.8765869-1.8787231,1.8765869l0,0h0.000061H390.9391174l0,0
	c-1.0375977,0-1.8787231-0.84021-1.8787231-1.8765869h0.000061v-49.543335c0-1.036499,0.8410645-1.876709,1.8786621-1.876709l0,0
	H539.7315063L539.7315063,154.2566528L539.7315063,154.2566528z"/>
<text transform="matrix(0.85 0 0 1 435.6445312 167.7714844)" class="st3 st4">«FeatureType»</text>
<text transform="matrix(0.85 0 0 1 446.1679688 179.0371094)" class="st5 st4">urf::Zone</text>
<line class="st2" x1="389.0604553" y1="185.0336304" x2="541.6102295" y2="185.0336304"/>
<text transform="matrix(0.85 0 0 1 392.8164062 197.0527344)" class="st3 st4">+ </text>
<text transform="matrix(0.85 0 0 1 408.5976562 197.0527344)" class="st3 st4">location: xs::string [0..1]</text>
<path class="st0" d="M822.2866821,111.4692993c1.0374756,0,1.8786011,0.84021,1.8786011,1.8765869h0.000061v305.5170898h-0.000061
	c0,1.036499-0.8411255,1.876709-1.8787231,1.876709l0,0h0.0001221H602.1040649h-0.000061
	c-1.0375366,0-1.8786621-0.84021-1.8786621-1.876709l0,0V113.3458862c0-1.036377,0.8411255-1.8765869,1.8787231-1.8765869l0,0
	H822.2866821L822.2866821,111.4692993L822.2866821,111.4692993z"/>
<path class="st1" d="M820.0322266,109.2173462c1.0374756,0,1.8786011,0.84021,1.8786011,1.8765869h0.0001221v305.5170898h-0.0001221
	c0,1.036499-0.8411255,1.876709-1.8786621,1.876709l0,0h0.000061H599.8496094l0,0
	c-1.0375977,0-1.8787231-0.84021-1.8787231-1.876709h0.000061V111.0939331c0-1.036377,0.8410645-1.8765869,1.8786621-1.8765869l0,0
	H820.0322266L820.0322266,109.2173462L820.0322266,109.2173462z"/>
<path class="st2" d="M820.0322266,109.2173462c1.0374756,0,1.8786011,0.84021,1.8786011,1.8765869h0.0001221v305.5170898h-0.0001221
	c0,1.036499-0.8411255,1.876709-1.8786621,1.876709l0,0h0.000061H599.8496094l0,0
	c-1.0375977,0-1.8787231-0.84021-1.8787231-1.876709h0.000061V111.0939331c0-1.036377,0.8410645-1.8765869,1.8786621-1.8765869l0,0
	H820.0322266L820.0322266,109.2173462L820.0322266,109.2173462z"/>
<text transform="matrix(0.85 0 0 1 775.3164062 120.4746094)" class="st6 st4">_CityObject</text>
<text transform="matrix(0.85 0 0 1 679.8789062 136.2480469)" class="st3 st4">«FeatureType»</text>
<text transform="matrix(0.85 0 0 1 668.6054688 147.5058594)" class="st7 st4">urf::_UrbanFunction</text>
<line class="st2" x1="597.9709473" y1="153.5060425" x2="821.9109497" y2="153.5060425"/>
<text transform="matrix(0.85 0 0 1 601.7304688 165.5214844)" class="st3 st4">+ </text>
<text transform="matrix(0.85 0 0 1 617.5117188 165.5214844)" class="st3 st4">areaClassificationType: gml::CodeType [0..1]</text>
<text transform="matrix(0.85 0 0 1 601.7304688 176.7792969)" class="st3 st4">+ </text>
<text transform="matrix(0.85 0 0 1 617.5117188 176.7792969)" class="st3 st4">city: gml::CodeType [0..1]</text>
<text transform="matrix(0.85 0 0 1 601.7304688 188.0371094)" class="st3 st4">+ </text>
<text transform="matrix(0.85 0 0 1 617.5117188 188.0371094)" class="st3 st4">class: gml::CodeType [0..1]</text>
<text transform="matrix(0.85 0 0 1 601.7304688 199.2949219)" class="st3 st4">+ </text>
<text transform="matrix(0.85 0 0 1 617.5117188 199.2949219)" class="st3 st4">custodian: xs::string [0..1]</text>
<text transform="matrix(0.85 0 0 1 601.7304688 210.5527344)" class="st3 st4">+ </text>
<text transform="matrix(0.85 0 0 1 617.5117188 210.5527344)" class="st3 st4">enactmentFiscalYear: xs::gYear [0..1]</text>
<text transform="matrix(0.85 0 0 1 601.7304688 221.8183594)" class="st3 st4">+ </text>
<text transform="matrix(0.85 0 0 1 617.5117188 221.8183594)" class="st3 st4">expirationFiscalYear: xs::gYear [0..1]</text>
<text transform="matrix(0.85 0 0 1 601.7304688 233.0761719)" class="st3 st4">+ </text>
<text transform="matrix(0.85 0 0 1 617.5117188 233.0761719)" class="st3 st4">finalNotificationDate: xs::date [0..1]</text>
<text transform="matrix(0.85 0 0 1 601.7304688 244.3339844)" class="st3 st4">+ </text>
<text transform="matrix(0.85 0 0 1 617.5117188 244.3339844)" class="st3 st4">finalNotificationNumber: xs::string [0..1]</text>
<text transform="matrix(0.85 0 0 1 601.7304688 255.5996094)" class="st3 st4">+ </text>
<text transform="matrix(0.85 0 0 1 617.5117188 255.5996094)" class="st3 st4">function: gml::CodeType [0..*]</text>
<text transform="matrix(0.85 0 0 1 601.7304688 266.8574219)" class="st3 st4">+ </text>
<text transform="matrix(0.85 0 0 1 617.5117188 266.8574219)" class="st3 st4">legalGrounds: xs::string [0..1]</text>
<text transform="matrix(0.85 0 0 1 601.7304688 278.1152344)" class="st3 st4">+ </text>
<text transform="matrix(0.85 0 0 1 617.5117188 278.1152344)" class="st3 st4">nominalArea: gml::MeasureType [0..1]</text>
<text transform="matrix(0.85 0 0 1 601.7304688 289.3730469)" class="st3 st4">+ </text>
<text transform="matrix(0.85 0 0 1 617.5117188 289.3730469)" class="st3 st4">note: gml:StringOrRefType [0..1]</text>
<text transform="matrix(0.85 0 0 1 601.7304688 300.6308594)" class="st3 st4">+ </text>
<text transform="matrix(0.85 0 0 1 617.5117188 300.6308594)" class="st3 st4">notificationNumber: xs::string [0..1]</text>
<text transform="matrix(0.85 0 0 1 601.7304688 311.8964844)" class="st3 st4">+ </text>
<text transform="matrix(0.85 0 0 1 617.5117188 311.8964844)" class="st3 st4">prefecture: gml::CodeType [0..1]</text>
<text transform="matrix(0.85 0 0 1 601.7304688 323.1542969)" class="st3 st4">+ </text>
<text transform="matrix(0.85 0 0 1 617.5117188 323.1542969)" class="st3 st4">reason: gml:StringOrRefType [0..1]</text>
<text transform="matrix(0.85 0 0 1 601.7304688 334.4121094)" class="st3 st4">+ </text>
<text transform="matrix(0.85 0 0 1 617.5117188 334.4121094)" class="st3 st4">reference: xs::anyURI [0..1]</text>
<text transform="matrix(0.85 0 0 1 601.7304688 345.6777344)" class="st3 st4">+ </text>
<text transform="matrix(0.85 0 0 1 617.5117188 345.6777344)" class="st3 st4">surveyYear: xs::gYear [0..1]</text>
<text transform="matrix(0.85 0 0 1 601.7304688 356.9433594)" class="st3 st4">+ </text>
<text transform="matrix(0.85 0 0 1 617.5117188 356.9433594)" class="st3 st4">urbanPlanType: gml::CodeType [0..1]</text>
<text transform="matrix(0.85 0 0 1 601.7304688 368.2011719)" class="st3 st4">+ </text>
<text transform="matrix(0.85 0 0 1 617.5117188 368.2011719)" class="st3 st4">usage: gml::CodeType [0..*]</text>
<text transform="matrix(0.85 0 0 1 601.7304688 379.4589844)" class="st3 st4">+ </text>
<text transform="matrix(0.85 0 0 1 617.5117188 379.4589844)" class="st3 st4">validFrom: xs::date [0..1]</text>
<text transform="matrix(0.85 0 0 1 601.7304688 390.7246094)" class="st3 st4">+ </text>
<text transform="matrix(0.85 0 0 1 617.5117188 390.7246094)" class="st3 st4">validFromType: gml::CodeType [0..1]</text>
<text transform="matrix(0.85 0 0 1 601.7304688 401.9824219)" class="st3 st4">+ </text>
<text transform="matrix(0.85 0 0 1 617.5117188 401.9824219)" class="st3 st4">validTo: xs::date [0..1]</text>
<text transform="matrix(0.85 0 0 1 601.7304688 413.2402344)" class="st3 st4">+ </text>
<text transform="matrix(0.85 0 0 1 617.5117188 413.2402344)" class="st3 st4">validToType: gml::CodeType [0..1]</text>
<path class="st0" d="M312.0341187,264.6032104c1.0375366,0,1.8786316,0.8400879,1.8786316,1.8765869h0.000061V400.847229h-0.000061
	c0,1.036499-0.841095,1.876709-1.8786926,1.8765869c0,0.0001221,0,0,0,0h0.000061H46.0114479l-0.0000153,0.0001221
	c-1.0375671-0.0001221-1.8786926-0.84021-1.8786926-1.876709h0.0000153V266.4797974
	c0-1.036499,0.8411102-1.8765869,1.8786926-1.8765869l0,0H312.0341187L312.0341187,264.6032104L312.0341187,264.6032104z"/>
<path class="st1" d="M309.7796936,262.3512573c1.0375366,0,1.8786316,0.8400879,1.8786316,1.8765869h0.000061v134.3674316h-0.000061
	c0,1.036499-0.841095,1.876709-1.8786926,1.8765869c0,0.0001221,0,0,0,0h0.000061H43.7570076v0.0001221
	c-1.0375671-0.0001221-1.8786926-0.84021-1.8786926-1.876709h0.0000153V264.2278442
	c0-1.036499,0.8411102-1.876709,1.8786774-1.8765869v-0.0001221h266.0226746V262.3512573L309.7796936,262.3512573z"/>
<path class="st2" d="M309.7796936,262.3512573c1.0375366,0,1.8786316,0.8400879,1.8786316,1.8765869h0.000061v134.3674316h-0.000061
	c0,1.036499-0.841095,1.876709-1.8786926,1.8765869c0,0.0001221,0,0,0,0h0.000061H43.7570076v0.0001221
	c-1.0375671-0.0001221-1.8786926-0.84021-1.8786926-1.876709h0.0000153V264.2278442
	c0-1.036499,0.8411102-1.876709,1.8786774-1.8765869v-0.0001221h266.0226746V262.3512573L309.7796936,262.3512573z"/>
<text transform="matrix(0.85 0 0 1 147.0820312 275.8652344)" class="st3 st4">«FeatureType»</text>
<text transform="matrix(0.85 0 0 1 145.5820312 287.1308594)" class="st5 st4">urf::UseDistrict</text>
<line class="st2" x1="41.8783302" y1="293.1281128" x2="311.6583862" y2="293.1281128"/>
<text transform="matrix(0.85 0 0 1 45.6367188 305.1464844)" class="st3 st4">+ </text>
<text transform="matrix(0.85 0 0 1 61.4179688 305.1464844)" class="st3 st4">buildingCoverageRate: xs::double [0..1]</text>
<text transform="matrix(0.85 0 0 1 45.6367188 316.4042969)" class="st3 st4">+ </text>
<text transform="matrix(0.85 0 0 1 61.4179688 316.4042969)" class="st3 st4">buildingHeightLimits: gml::LengthType [0..1]</text>
<text transform="matrix(0.85 0 0 1 45.6367188 327.6621094)" class="st3 st4">+ </text>
<text transform="matrix(0.85 0 0 1 61.4179688 327.6621094)" class="st3 st4">buildingRestrictions: gml:StringOrRefType [0..1]</text>
<text transform="matrix(0.85 0 0 1 45.6367188 338.9277344)" class="st3 st4">+ </text>
<text transform="matrix(0.85 0 0 1 61.4179688 338.9277344)" class="st3 st4">floorAreaRate: xs::double</text>
<text transform="matrix(0.85 0 0 1 45.6367188 350.1855469)" class="st3 st4">+ </text>
<text transform="matrix(0.85 0 0 1 61.4179688 350.1855469)" class="st3 st4">minimumSiteArea: gml::MeasureType [0..1]</text>
<text transform="matrix(0.85 0 0 1 45.6367188 361.4433594)" class="st3 st4">+ </text>
<text transform="matrix(0.85 0 0 1 61.4179688 361.4433594)" class="st3 st4">otherRestrictions: gml:StringOrRefType [0..1]</text>
<text transform="matrix(0.85 0 0 1 45.6367188 372.7089844)" class="st3 st4">+ </text>
<text transform="matrix(0.85 0 0 1 61.4179688 372.7089844)" class="st3 st4">setbackRestrictions: gml:StringOrRefType [0..1]</text>
<text transform="matrix(0.85 0 0 1 45.6367188 383.9667969)" class="st3 st4">+ </text>
<text transform="matrix(0.85 0 0 1 61.4179688 383.9667969)" class="st3 st4">shadeRegulation: gml:StringOrRefType [0..1]</text>
<text transform="matrix(0.85 0 0 1 45.6367188 395.2246094)" class="st3 st4">+ </text>
<text transform="matrix(0.85 0 0 1 61.4179688 395.2246094)" class="st3 st4">wallSetbackDistance: gml:StringOrRefType [0..1]</text>
<path class="st0" d="M551.755127,257.0966187c1.0375366,0,1.8786621,0.84021,1.8786621,1.8765869h0.000061v44.2886963h-0.000061
	c0,1.036499-0.8411255,1.876709-1.8787231,1.876709l0,0h0.000061H384.1758423h-0.0000305
	c-1.0375671,0-1.8786926-0.84021-1.8786926-1.876709h0.0000305v-44.2886963c0-1.036377,0.841095-1.8765869,1.8786926-1.8765869l0,0
	H551.755127L551.755127,257.0966187L551.755127,257.0966187z"/>
<path class="st1" d="M549.5007324,254.8446655c1.0375366,0,1.8786011,0.84021,1.8786011,1.8765869h0.000061v44.2886963h-0.000061
	c0,1.036499-0.8410645,1.876709-1.8786621,1.876709l0,0h0.000061H381.9214172h-0.0000305
	c-1.0375671,0-1.8786926-0.84021-1.8786926-1.876709h0.0000305v-44.2886963c0-1.036377,0.841095-1.8765869,1.8786926-1.8765869l0,0
	H549.5007324L549.5007324,254.8446655L549.5007324,254.8446655z"/>
<path class="st2" d="M549.5007324,254.8446655c1.0375366,0,1.8786011,0.84021,1.8786011,1.8765869h0.000061v44.2886963h-0.000061
	c0,1.036499-0.8410645,1.876709-1.8786621,1.876709l0,0h0.000061H381.9214172h-0.0000305
	c-1.0375671,0-1.8786926-0.84021-1.8786926-1.876709h0.0000305v-44.2886963c0-1.036377,0.841095-1.8765869,1.8786926-1.8765869l0,0
	H549.5007324L549.5007324,254.8446655L549.5007324,254.8446655z"/>
<text transform="matrix(0.85 0 0 1 435.6445312 268.3574219)" class="st3 st4">«FeatureType»</text>
<text transform="matrix(0.85 0 0 1 419.8632812 279.6152344)" class="st5 st4">urf::DistrictsAndZones</text>
<line class="st2" x1="380.0427246" y1="285.621521" x2="551.3793945" y2="285.621521"/>
<text transform="matrix(0.85 0 0 1 383.7929688 297.6386719)" class="st3 st4">+ </text>
<text transform="matrix(0.85 0 0 1 399.5742188 297.6386719)" class="st3 st4">areaInTotal: gml::MeasureType [0..1]</text>
<path class="st0" d="M311.2826233,414.734436c1.0375671,0,1.8786621,0.84021,1.8786621,1.8765869h0.0000305v55.548584h-0.0000305
	c0,1.036377-0.841095,1.876709-1.8786926,1.8765869c0,0.0001221,0,0,0,0h0.0000305H46.0114479l-0.0000153,0.0001221
	c-1.0375671-0.0001221-1.8786926-0.840332-1.8786926-1.876709h0.0000153v-55.548584
	c0-1.036377,0.8411102-1.8765869,1.8786926-1.8765869l0,0H311.2826233L311.2826233,414.734436L311.2826233,414.734436z"/>
<path class="st1" d="M309.0281982,412.4824829c1.0375366,0,1.8786621,0.84021,1.8786621,1.8765869h0.0000305v55.548584h-0.0000305
	c0,1.036377-0.8411255,1.876709-1.8786926,1.8765869c0,0.0001221,0,0,0,0h0.0000305H43.7570076v0.0001221
	c-1.0375671-0.0001221-1.8786926-0.840332-1.8786926-1.876709h0.0000153v-55.548584
	c0-1.036377,0.8411102-1.876709,1.8786774-1.8765869v-0.0001221h265.2711792V412.4824829L309.0281982,412.4824829z"/>
<path class="st2" d="M309.0281982,412.4824829c1.0375366,0,1.8786621,0.84021,1.8786621,1.8765869h0.0000305v55.548584h-0.0000305
	c0,1.036377-0.8411255,1.876709-1.8786926,1.8765869c0,0.0001221,0,0,0,0h0.0000305H43.7570076v0.0001221
	c-1.0375671-0.0001221-1.8786926-0.840332-1.8786926-1.876709h0.0000153v-55.548584
	c0-1.036377,0.8411102-1.876709,1.8786774-1.8765869v-0.0001221h265.2711792V412.4824829L309.0281982,412.4824829z"/>
<text transform="matrix(0.85 0 0 1 146.3320312 425.9980469)" class="st3 st4">«FeatureType»</text>
<text transform="matrix(0.85 0 0 1 131.3007812 437.2558594)" class="st5 st4">urf::SpecialUseDistrict</text>
<line class="st2" x1="41.8783302" y1="443.2593384" x2="310.9068909" y2="443.2593384"/>
<text transform="matrix(0.85 0 0 1 45.6367188 455.2714844)" class="st3 st4">+ </text>
<text transform="matrix(0.85 0 0 1 61.4179688 455.2714844)" class="st3 st4">buildingRestrictions: gml:StringOrRefType [0..1]</text>
<text transform="matrix(0.85 0 0 1 45.6367188 466.5371094)" class="st3 st4">+ </text>
<text transform="matrix(0.85 0 0 1 61.4179688 466.5371094)" class="st3 st4">otherRestrictions: gml:StringOrRefType [0..1]</text>
<path class="st0" d="M311.2826233,489.7999878c1.0375671,0,1.8786621,0.84021,1.8786621,1.876709h0.0000305v55.548584h-0.0000305
	c0,1.036377-0.841095,1.8765869-1.8786926,1.8765869l0,0h0.0000305H46.0114479h-0.0000153
	c-1.0375671,0-1.8786926-0.84021-1.8786926-1.8765869h0.0000153v-55.548584c0-1.036499,0.8411102-1.876709,1.8786926-1.876709l0,0
	H311.2826233L311.2826233,489.7999878L311.2826233,489.7999878z"/>
<path class="st1" d="M309.0281982,487.5480347c1.0375366,0,1.8786621,0.84021,1.8786621,1.876709h0.0000305v55.548584h-0.0000305
	c0,1.036377-0.8411255,1.8765869-1.8786926,1.8764648c0,0.0001221,0,0,0,0h0.0000305H43.7570076v0.0001221
	c-1.0375671-0.0001221-1.8786926-0.84021-1.8786926-1.8765869h0.0000153v-55.548584
	c0-1.036499,0.8411102-1.876709,1.8786774-1.876709l0,0H309.0281982L309.0281982,487.5480347L309.0281982,487.5480347z"/>
<path class="st2" d="M309.0281982,487.5480347c1.0375366,0,1.8786621,0.84021,1.8786621,1.876709h0.0000305v55.548584h-0.0000305
	c0,1.036377-0.8411255,1.8765869-1.8786926,1.8764648c0,0.0001221,0,0,0,0h0.0000305H43.7570076v0.0001221
	c-1.0375671-0.0001221-1.8786926-0.84021-1.8786926-1.8765869h0.0000153v-55.548584
	c0-1.036499,0.8411102-1.876709,1.8786774-1.876709l0,0H309.0281982L309.0281982,487.5480347L309.0281982,487.5480347z"/>
<text transform="matrix(0.85 0 0 1 146.3320312 501.0683594)" class="st3 st4">«FeatureType»</text>
<text transform="matrix(0.85 0 0 1 109.5117188 512.3261719)" class="st5 st4">urf::SpecialUseRestrictionDistrict</text>
<line class="st2" x1="41.8783302" y1="518.3248901" x2="310.9068909" y2="518.3248901"/>
<text transform="matrix(0.85 0 0 1 45.6367188 530.3417969)" class="st3 st4">+ </text>
<text transform="matrix(0.85 0 0 1 61.4179688 530.3417969)" class="st3 st4">buildingRestrictions: gml:StringOrRefType [0..1]</text>
<text transform="matrix(0.85 0 0 1 45.6367188 541.5996094)" class="st3 st4">+ </text>
<text transform="matrix(0.85 0 0 1 61.4179688 541.5996094)" class="st3 st4">otherRestrictions: gml:StringOrRefType [0..1]</text>
<path class="st0" d="M242.8982849,564.8656616c1.0375671,0,1.8786621,0.84021,1.8786621,1.876709l0.0000305-0.0001221v44.2886963
	h-0.0000305c0,1.036499-0.841095,1.876709-1.8786926,1.876709l0,0h0.0000305H46.0114479h-0.0000153
	c-1.0375671,0-1.8786926-0.84021-1.8786926-1.876709h0.0000153v-44.2886963c0-1.036377,0.8411102-1.8765869,1.8786926-1.8765869l0,0
	H242.8982849L242.8982849,564.8656616L242.8982849,564.8656616z"/>
<path class="st1" d="M240.6438599,562.6137085c1.0375671,0,1.8786621,0.8400879,1.8786621,1.876709v-0.0001221v44.2886963l0,0
	c0,1.036499-0.841095,1.876709-1.8786926,1.876709l0,0h0.0000305H43.7570076l0,0c-1.0375671,0-1.8786926-0.84021-1.8786926-1.876709
	h0.0000153v-44.2886963c0-1.036499,0.8411102-1.8765869,1.8786774-1.8765869l0,0H240.6438599L240.6438599,562.6137085
	L240.6438599,562.6137085z"/>
<path class="st2" d="M240.6438599,562.6137085c1.0375671,0,1.8786621,0.8400879,1.8786621,1.876709v-0.0001221v44.2886963l0,0
	c0,1.036499-0.841095,1.876709-1.8786926,1.876709l0,0h0.0000305H43.7570076l0,0c-1.0375671,0-1.8786926-0.84021-1.8786926-1.876709
	h0.0000153v-44.2886963c0-1.036499,0.8411102-1.8765869,1.8786774-1.8765869l0,0H240.6438599L240.6438599,562.6137085
	L240.6438599,562.6137085z"/>
<text transform="matrix(0.85 0 0 1 112.5117188 576.1308594)" class="st3 st4">«FeatureType»</text>
<text transform="matrix(0.85 0 0 1 65.9179688 587.3964844)" class="st5 st4">urf::ExceptionalFloorAreaRateDistrict</text>
<line class="st2" x1="41.8783302" y1="593.390564" x2="242.522522" y2="593.390564"/>
<text transform="matrix(0.85 0 0 1 45.6367188 605.4121094)" class="st3 st4">+ </text>
<text transform="matrix(0.85 0 0 1 61.4179688 605.4121094)" class="st3 st4">buildingHeightLimits: gml::LengthType [0..1]</text>
<path class="st0" d="M428.51297,617.4115601c1.0375366,0,1.8786621,0.84021,1.8786621,1.876709l0,0v70.5615234v0.0001221
	c0,1.036499-0.8411255,1.8765869-1.8787231,1.8765869l0,0h0.000061H211.3362732h-0.0000305
	c-1.0375671,0-1.8786926-0.8400879-1.8786926-1.876709h0.0000305V619.288269c0-1.036499,0.841095-1.876709,1.8786926-1.876709l0,0
	H428.51297L428.51297,617.4115601L428.51297,617.4115601z"/>
<path class="st1" d="M426.2585144,615.1596069c1.0375366,0,1.8786621,0.84021,1.8786621,1.876709h0.000061v70.5615234
	l-0.000061,0.0001221c0,1.036499-0.8411255,1.8765869-1.8786621,1.8765869l0,0l0,0H209.0818481h-0.0000305
	c-1.0375671,0-1.8786926-0.8400879-1.8786926-1.876709h0.0000305v-70.5615234c0-1.036499,0.841095-1.876709,1.8786926-1.876709l0,0
	H426.2585144L426.2585144,615.1596069L426.2585144,615.1596069z"/>
<path class="st2" d="M426.2585144,615.1596069c1.0375366,0,1.8786621,0.84021,1.8786621,1.876709h0.000061v70.5615234
	l-0.000061,0.0001221c0,1.036499-0.8411255,1.8765869-1.8786621,1.8765869l0,0l0,0H209.0818481h-0.0000305
	c-1.0375671,0-1.8786926-0.8400879-1.8786926-1.876709h0.0000305v-70.5615234c0-1.036499,0.841095-1.876709,1.8786926-1.876709l0,0
	H426.2585144L426.2585144,615.1596069L426.2585144,615.1596069z"/>
<text transform="matrix(0.85 0 0 1 287.6132812 628.6699219)" class="st3 st4">«FeatureType»</text>
<text transform="matrix(0.85 0 0 1 233.5039062 639.9277344)" class="st5 st4">urf::HighRiseResidentialAttractionDistrict</text>
<line class="st2" x1="207.2031555" y1="645.9364624" x2="428.1372375" y2="645.9364624"/>
<text transform="matrix(0.85 0 0 1 210.9570312 657.9511719)" class="st3 st4">+ </text>
<text transform="matrix(0.85 0 0 1 226.7382812 657.9511719)" class="st3 st4">floorAreaRate: xs::double</text>
<text transform="matrix(0.85 0 0 1 210.9570312 669.2089844)" class="st3 st4">+ </text>
<text transform="matrix(0.85 0 0 1 226.7382812 669.2089844)" class="st3 st4">maximumBuildingCoverageRate: xs::double [0..1]</text>
<text transform="matrix(0.85 0 0 1 210.9570312 680.4667969)" class="st3 st4">+ </text>
<text transform="matrix(0.85 0 0 1 226.7382812 680.4667969)" class="st3 st4">minimumSiteArea: gml::MeasureType [0..1]</text>
<path class="st0" d="M257.9277954,699.9838257c1.0375671,0,1.8786621,0.8400879,1.8786621,1.8765869l0.0000305-0.0001221v55.548584
	l-0.0000305,0.0001221c0,1.036377-0.841095,1.8766479-1.8786621,1.8765869c0,0.000061,0,0,0,0l0,0H46.0114479l-0.0000153,0.000061
	c-1.0375671-0.000061-1.8786926-0.840271-1.8786926-1.87677h0.0000153v-55.548584
	c0-1.036377,0.8411102-1.8764648,1.8786926-1.8764648l0,0H257.9277954L257.9277954,699.9838257L257.9277954,699.9838257z"/>
<path class="st1" d="M255.6733704,697.7318726c1.0375671,0,1.8786621,0.8400879,1.8786621,1.8765869l0.0000305-0.0001221v55.548584
	l-0.0000305,0.0001221c0,1.036377-0.841095,1.8765869-1.8786926,1.8765869l0,0h0.0000305H43.7570076l0,0
	c-1.0375671,0-1.8786926-0.84021-1.8786926-1.876709h0.0000153v-55.548584c0-1.036377,0.8411102-1.8765869,1.8786774-1.8764648
	v-0.0001221h211.9163666V697.7318726L255.6733704,697.7318726z"/>
<path class="st2" d="M255.6733704,697.7318726c1.0375671,0,1.8786621,0.8400879,1.8786621,1.8765869l0.0000305-0.0001221v55.548584
	l-0.0000305,0.0001221c0,1.036377-0.841095,1.8765869-1.8786926,1.8765869l0,0h0.0000305H43.7570076l0,0
	c-1.0375671,0-1.8786926-0.84021-1.8786926-1.876709h0.0000153v-55.548584c0-1.036377,0.8411102-1.8765869,1.8786774-1.8764648
	v-0.0001221h211.9163666V697.7318726L255.6733704,697.7318726z"/>
<text transform="matrix(0.85 0 0 1 120.0273438 711.2480469)" class="st3 st4">«FeatureType»</text>
<text transform="matrix(0.85 0 0 1 97.4804688 722.5058594)" class="st5 st4">urf::HeightControlDistrict</text>
<line class="st2" x1="41.8783302" y1="728.508728" x2="257.552063" y2="728.508728"/>
<text transform="matrix(0.85 0 0 1 45.6367188 740.5292969)" class="st3 st4">+ </text>
<text transform="matrix(0.85 0 0 1 61.4179688 740.5292969)" class="st3 st4">maximumBuildingHeight: gml::LengthType [0..1]</text>
<text transform="matrix(0.85 0 0 1 45.6367188 751.7871094)" class="st3 st4">+ </text>
<text transform="matrix(0.85 0 0 1 61.4179688 751.7871094)" class="st3 st4">minimumBuildingHeight: gml::LengthType [0..1]</text>
<path class="st0" d="M447.2998962,775.0493774c1.0375366,0,1.8786011,0.84021,1.8786011,1.8766479h0.000061v89.328064
	l-0.000061,0.000061c0,1.036377-0.8410645,1.8766479-1.8786621,1.8765869c0,0.000061,0,0,0,0h0.000061H226.3657837v0.000061
	c-1.0375977-0.000061-1.8786926-0.840271-1.8786926-1.876709l0,0v-89.328064c0-1.036438,0.841095-1.8766479,1.8786926-1.8766479l0,0
	H447.2998962L447.2998962,775.0493774L447.2998962,775.0493774z"/>
<path class="st1" d="M445.0454407,772.7974243c1.0375366,0,1.8786621,0.84021,1.8786621,1.8766479l0.000061-0.000061v89.328125
	l-0.000061,0.000061c0,1.036377-0.8411255,1.8766479-1.8787231,1.8765869c0,0.000061,0,0,0,0h0.000061h-220.934082
	l-0.0000305,0.000061c-1.0375671-0.000061-1.8786926-0.840271-1.8786926-1.876709h0.0000305v-89.328125
	c0-1.036377,0.841095-1.8766479,1.8786926-1.8765869v-0.000061h220.934082V772.7974243L445.0454407,772.7974243z"/>
<path class="st2" d="M445.0454407,772.7974243c1.0375366,0,1.8786621,0.84021,1.8786621,1.8766479l0.000061-0.000061v89.328125
	l-0.000061,0.000061c0,1.036377-0.8411255,1.8766479-1.8787231,1.8765869c0,0.000061,0,0,0,0h0.000061h-220.934082
	l-0.0000305,0.000061c-1.0375671-0.000061-1.8786926-0.840271-1.8786926-1.876709h0.0000305v-89.328125
	c0-1.036377,0.841095-1.8766479,1.8786926-1.8765869v-0.000061h220.934082V772.7974243L445.0454407,772.7974243z"/>
<text transform="matrix(0.85 0 0 1 304.8867188 786.3183594)" class="st3 st4">«FeatureType»</text>
<text transform="matrix(0.85 0 0 1 283.8476562 797.5761719)" class="st5 st4">urf::HighLevelUseDistrict</text>
<line class="st2" x1="222.232666" y1="803.5742798" x2="446.9241638" y2="803.5742798"/>
<text transform="matrix(0.85 0 0 1 225.9882812 815.5839844)" class="st3 st4">+ </text>
<text transform="matrix(0.85 0 0 1 241.7695312 815.5839844)" class="st3 st4">maximumBuildingCoverageRate: xs::double [1..*]</text>
<text transform="matrix(0.85 0 0 1 225.9882812 826.8496094)" class="st3 st4">+ </text>
<text transform="matrix(0.85 0 0 1 241.7695312 826.8496094)" class="st3 st4">maximumFloorAreaRate: xs::double [1..*]</text>
<text transform="matrix(0.85 0 0 1 225.9882812 838.1074219)" class="st3 st4">+ </text>
<text transform="matrix(0.85 0 0 1 241.7695312 838.1074219)" class="st3 st4">minimumBuildingArea: gml::MeasureType [1..*]</text>
<text transform="matrix(0.85 0 0 1 225.9882812 849.3652344)" class="st3 st4">+ </text>
<text transform="matrix(0.85 0 0 1 241.7695312 849.3652344)" class="st3 st4">minimumFloorAreaRate: xs::double [1..*]</text>
<text transform="matrix(0.85 0 0 1 225.9882812 860.6230469)" class="st3 st4">+ </text>
<text transform="matrix(0.85 0 0 1 241.7695312 860.6230469)" class="st3 st4">setbackSize: gml:StringOrRefType [0..1]</text>
<path class="st0" d="M243.6497498,880.1412964c1.0375671,0,1.8786621,0.84021,1.8786621,1.8766479l0.0000305-0.000061v70.5616455
	l-0.0000305,0.0001221c0,1.036377-0.841095,1.8766479-1.8786926,1.8765259c0,0.0001221,0,0,0,0h0.0000305H53.5262032v0.0001221
	c-1.0375671-0.0001221-1.8786926-0.840271-1.8786926-1.87677l0,0v-70.5616455c0-1.036377,0.8411255-1.8766479,1.8786926-1.8765869
	v-0.000061h190.1235504V880.1412964L243.6497498,880.1412964z"/>
<path class="st1" d="M241.3953247,877.8893433c1.0375671,0,1.8786621,0.84021,1.8786621,1.8766479l0.0000305-0.0001221v70.5617065
	l-0.0000305,0.0001221c0,1.0363159-0.841095,1.8765869-1.8786926,1.8765259c0,0.000061,0,0,0,0h0.0000305H51.2717781
	l-0.0000153,0.000061c-1.0375671-0.000061-1.8786926-0.840271-1.8786926-1.876709h0.0000153v-70.5617065
	c0-1.0363159,0.8411102-1.8765869,1.8786926-1.8765259v-0.000061h190.1235504V877.8893433L241.3953247,877.8893433z"/>
<path class="st2" d="M241.3953247,877.8893433c1.0375671,0,1.8786621,0.84021,1.8786621,1.8766479l0.0000305-0.0001221v70.5617065
	l-0.0000305,0.0001221c0,1.0363159-0.841095,1.8765869-1.8786926,1.8765259c0,0.000061,0,0,0,0h0.0000305H51.2717781
	l-0.0000153,0.000061c-1.0375671-0.000061-1.8786926-0.840271-1.8786926-1.876709h0.0000153v-70.5617065
	c0-1.0363159,0.8411102-1.8765869,1.8786926-1.8765259v-0.000061h190.1235504V877.8893433L241.3953247,877.8893433z"/>
<text transform="matrix(0.85 0 0 1 116.2695312 891.4042969)" class="st3 st4">«FeatureType»</text>
<text transform="matrix(0.85 0 0 1 108.7617188 902.6621094)" class="st5 st4">urf::SpecifiedBlock</text>
<line class="st2" x1="49.3930855" y1="908.6661377" x2="243.2740173" y2="908.6661377"/>
<text transform="matrix(0.85 0 0 1 53.1445312 920.6855469)" class="st3 st4">+ </text>
<text transform="matrix(0.85 0 0 1 68.9257812 920.6855469)" class="st3 st4">floorAreaRate: xs::double</text>
<text transform="matrix(0.85 0 0 1 53.1445312 931.9433594)" class="st3 st4">+ </text>
<text transform="matrix(0.85 0 0 1 68.9257812 931.9433594)" class="st3 st4">maximumBuildingHeight: gml::LengthType</text>
<text transform="matrix(0.85 0 0 1 53.1445312 943.2011719)" class="st3 st4">+ </text>
<text transform="matrix(0.85 0 0 1 68.9257812 943.2011719)" class="st3 st4">setbackSize: gml:StringOrRefType</text>
<path class="st0" d="M432.2703552,961.9628296c1.0375366,0,1.8786621,0.84021,1.8786621,1.8766479v-0.000061v123.107605v0.0001221
	c0,1.036377-0.8411255,1.876709-1.8787231,1.8765869c0,0.0001221,0,0,0,0h0.000061H188.7919617l-0.0000305,0.0001221
	c-1.0375671-0.0001221-1.8786621-0.840332-1.8786621-1.8768311l0,0v-123.107605c0-1.036377,0.841095-1.8766479,1.8786926-1.8765869
	v-0.000061h243.4783936V961.9628296L432.2703552,961.9628296z"/>
<path class="st1" d="M430.0158997,959.7108765c1.0375366,0,1.8786621,0.8401489,1.8786621,1.8766479l0.000061-0.0001221v123.107666
	l-0.000061,0.0001221c0,1.036377-0.8411255,1.8765869-1.8787231,1.8765869l0,0h0.000061h-243.478363h-0.0000305
	c-1.0375671,0-1.8786926-0.84021-1.8786926-1.876709h0.0000305v-123.107666c0-1.036377,0.841095-1.8766479,1.8786926-1.8765259
	v-0.0001221h243.478363V959.7108765L430.0158997,959.7108765z"/>
<path class="st2" d="M430.0158997,959.7108765c1.0375366,0,1.8786621,0.8401489,1.8786621,1.8766479l0.000061-0.0001221v123.107666
	l-0.000061,0.0001221c0,1.036377-0.8411255,1.8765869-1.8787231,1.8765869l0,0h0.000061h-243.478363h-0.0000305
	c-1.0375671,0-1.8786926-0.84021-1.8786926-1.876709h0.0000305v-123.107666c0-1.036377,0.841095-1.8766479,1.8786926-1.8765259
	v-0.0001221h243.478363V959.7108765L430.0158997,959.7108765z"/>
<text transform="matrix(0.85 0 0 1 278.5898438 973.2246094)" class="st3 st4">«FeatureType»</text>
<text transform="matrix(0.85 0 0 1 234.2539062 984.4824219)" class="st5 st4">urf::SpecialUrbanRenaissanceDistrict</text>
<line class="st2" x1="184.658844" y1="990.4876709" x2="431.8946228" y2="990.4876709"/>
<text transform="matrix(0.85 0 0 1 188.4101562 1002.4980469)" class="st3 st4">+ </text>
<text transform="matrix(0.85 0 0 1 204.1914062 1002.4980469)" class="st3 st4">maximumBuildingCoverageRate: xs::double</text>
<text transform="matrix(0.85 0 0 1 188.4101562 1013.7558594)" class="st3 st4">+ </text>
<text transform="matrix(0.85 0 0 1 204.1914062 1013.7558594)" class="st3 st4">maximumBuildingHeight: gml:StringOrRefType</text>
<text transform="matrix(0.85 0 0 1 188.4101562 1025.0214844)" class="st3 st4">+ </text>
<text transform="matrix(0.85 0 0 1 204.1914062 1025.0214844)" class="st3 st4">maximumFloorAreaRate: xs::double</text>
<text transform="matrix(0.85 0 0 1 188.4101562 1036.2792969)" class="st3 st4">+ </text>
<text transform="matrix(0.85 0 0 1 204.1914062 1036.2792969)" class="st3 st4">minimumBuildingArea: gml::MeasureType</text>
<text transform="matrix(0.85 0 0 1 188.4101562 1047.5371094)" class="st3 st4">+ </text>
<text transform="matrix(0.85 0 0 1 204.1914062 1047.5371094)" class="st3 st4">minimumFloorAreaRate: xs::double</text>
<text transform="matrix(0.85 0 0 1 188.4101562 1058.8027344)" class="st3 st4">+ </text>
<text transform="matrix(0.85 0 0 1 204.1914062 1058.8027344)" class="st3 st4">otherRestrictions: gml:StringOrRefType [0..1]</text>
<text transform="matrix(0.85 0 0 1 188.4101562 1070.0605469)" class="st3 st4">+ </text>
<text transform="matrix(0.85 0 0 1 204.1914062 1070.0605469)" class="st3 st4">setbackSize: gml:StringOrRefType</text>
<text transform="matrix(0.85 0 0 1 188.4101562 1081.3183594)" class="st3 st4">+ </text>
<text transform="matrix(0.85 0 0 1 204.1914062 1081.3183594)" class="st3 st4">useToBeInduced: gml:StringOrRefType</text>
<path class="st0" d="M154.2240601,1067.8054199c1.0375671,0,1.8786621,0.84021,1.8786621,1.8765869h0.0000305v49.543335h-0.0000305
	c0,1.036377-0.841095,1.876709-1.8786926,1.8765869c0,0.0001221,0,0,0,0h0.0000305H53.5262032v0.0001221
	c-1.0375671-0.0001221-1.8786926-0.840332-1.8786926-1.876709l0,0v-49.543335c0-1.036377,0.8411255-1.876709,1.8786926-1.8765869
	v-0.0001221h100.6978607V1067.8054199L154.2240601,1067.8054199z"/>
<path class="st1" d="M151.969635,1065.5534668c1.0375671,0,1.8786621,0.84021,1.8786621,1.8765869h0.0000305v49.5432129
	l-0.0000305,0.0001221c0,1.036377-0.841095,1.876709-1.8786926,1.8765869c0,0.0001221,0,0,0,0h0.0000305H51.2717781
	l-0.0000153,0.0001221c-1.0375671-0.0001221-1.8786926-0.840332-1.8786926-1.8768311h0.0000153v-49.5432129
	c0-1.036377,0.8411102-1.876709,1.8786926-1.8765869v-0.0001221H151.969635V1065.5534668L151.969635,1065.5534668z"/>
<path class="st2" d="M151.969635,1065.5534668c1.0375671,0,1.8786621,0.84021,1.8786621,1.8765869h0.0000305v49.5432129
	l-0.0000305,0.0001221c0,1.036377-0.841095,1.876709-1.8786926,1.8765869c0,0.0001221,0,0,0,0h0.0000305H51.2717781
	l-0.0000153,0.0001221c-1.0375671-0.0001221-1.8786926-0.840332-1.8786926-1.8768311h0.0000153v-49.5432129
	c0-1.036377,0.8411102-1.876709,1.8786926-1.8765869v-0.0001221H151.969635V1065.5534668L151.969635,1065.5534668z"/>
<text transform="matrix(0.85 0 0 1 71.9335938 1079.0683594)" class="st3 st4">«FeatureType»</text>
<text transform="matrix(0.85 0 0 1 92.9804688 1090.3339844)" class="st5 st4">urf::</text>
<text transform="matrix(0.85 0 0 1 60.6601562 1101.5917969)" class="st5 st4">HousingControlArea</text>
<path class="st0" d="M432.2703552,1112.8448486c1.0375366,0,1.8786621,0.8400879,1.8786621,1.8765869v-0.0001221v100.5880127l0,0
	c0,1.036377-0.8411255,1.876709-1.8787231,1.8765869c0,0.0001221,0,0,0,0h0.000061H173.7624512l-0.0000305,0.0001221
	c-1.0375671-0.0001221-1.8786926-0.840332-1.8786926-1.876709h0.0000305v-100.5880127
	c0-1.036377,0.841095-1.8765869,1.8786926-1.8764648v-0.0001221h258.5079041V1112.8448486L432.2703552,1112.8448486z"/>
<path class="st1" d="M430.0158997,1110.5927734c1.0375366,0,1.8786621,0.84021,1.8786621,1.876709l0.000061-0.0001221v100.5878906
	l-0.000061,0.0001221c0,1.036377-0.8411255,1.876709-1.8787231,1.8765869c0,0.0001221,0,0,0,0h0.000061H171.5079956v0.0001221
	c-1.0375671-0.0001221-1.8786926-0.840332-1.8786926-1.8768311h0.0000305v-100.5878906
	c0-1.036377,0.841095-1.8765869,1.8786621-1.8765869l0,0H430.0158997L430.0158997,1110.5927734L430.0158997,1110.5927734z"/>
<path class="st2" d="M430.0158997,1110.5927734c1.0375366,0,1.8786621,0.84021,1.8786621,1.876709l0.000061-0.0001221v100.5878906
	l-0.000061,0.0001221c0,1.036377-0.8411255,1.876709-1.8787231,1.8765869c0,0.0001221,0,0,0,0h0.000061H171.5079956v0.0001221
	c-1.0375671-0.0001221-1.8786926-0.840332-1.8786926-1.8768311h0.0000305v-100.5878906
	c0-1.036377,0.841095-1.8765869,1.8786621-1.8765869l0,0H430.0158997L430.0158997,1110.5927734L430.0158997,1110.5927734z"/>
<text transform="matrix(0.85 0 0 1 271.0742188 1124.1152344)" class="st3 st4">«FeatureType»</text>
<text transform="matrix(0.85 0 0 1 199.6835938 1135.3730469)" class="st5 st4">urf::ResidentialEnvironmentImprovementDistrict</text>
<line class="st2" x1="169.6293335" y1="1141.3696289" x2="431.8946228" y2="1141.3696289"/>
<text transform="matrix(0.85 0 0 1 173.3789062 1153.3886719)" class="st3 st4">+ </text>
<text transform="matrix(0.85 0 0 1 189.1601562 1153.3886719)" class="st3 st4">maximumBuildingCoverageRate: xs::double [0..1]</text>
<text transform="matrix(0.85 0 0 1 173.3789062 1164.6464844)" class="st3 st4">+ </text>
<text transform="matrix(0.85 0 0 1 189.1601562 1164.6464844)" class="st3 st4">maximumBuildingHeight: gml:StringOrRefType [0..1]</text>
<text transform="matrix(0.85 0 0 1 173.3789062 1175.9121094)" class="st3 st4">+ </text>
<text transform="matrix(0.85 0 0 1 189.1601562 1175.9121094)" class="st3 st4">maximumFloorAreaRate: xs::double [0..1]</text>
<text transform="matrix(0.85 0 0 1 173.3789062 1187.1699219)" class="st3 st4">+ </text>
<text transform="matrix(0.85 0 0 1 189.1601562 1187.1699219)" class="st3 st4">otherRestrictions: gml:StringOrRefType [0..1]</text>
<text transform="matrix(0.85 0 0 1 173.3789062 1198.4277344)" class="st3 st4">+ </text>
<text transform="matrix(0.85 0 0 1 189.1601562 1198.4277344)" class="st3 st4">setbackSize: gml:StringOrRefType [0..1]</text>
<text transform="matrix(0.85 0 0 1 173.3789062 1209.6855469)" class="st3 st4">+ </text>
<text transform="matrix(0.85 0 0 1 189.1601562 1209.6855469)" class="st3 st4">useToBeInduced: gml:StringOrRefType [0..1]</text>
<path class="st0" d="M357.1227112,1225.4432373c1.0375366,0,1.8786316,0.84021,1.8786316,1.8765869h0.000061v100.5878906
	l-0.000061,0.0001221c0,1.036377-0.841095,1.8765869-1.8786926,1.8764648c0,0.0001221,0,0,0,0h0.000061H68.555748
	l-0.0000153,0.0001221c-1.0375671-0.0001221-1.8786926-0.84021-1.8786926-1.876709h0.0000153v-100.5878906
	c0-1.036377,0.8411102-1.876709,1.8786926-1.8765869v-0.0001221h288.5669556V1225.4432373L357.1227112,1225.4432373z"/>
<path class="st1" d="M354.8682556,1223.1912842c1.0375671,0,1.8786621,0.84021,1.8786621,1.8765869l0.0000305-0.0001221v100.5880127
	l-0.0000305,0.0001221c0,1.0362549-0.841095,1.8765869-1.8786926,1.8764648c0,0.0001221,0,0,0,0h0.0000305H66.3013077v0.0001221
	c-1.0375824-0.0001221-1.8786926-0.840332-1.8786926-1.876709l0,0V1225.067749c0-1.0362549,0.8411102-1.8765869,1.8786926-1.8764648
	v-0.0001221h288.5669556V1223.1912842L354.8682556,1223.1912842z"/>
<path class="st2" d="M354.8682556,1223.1912842c1.0375671,0,1.8786621,0.84021,1.8786621,1.8765869l0.0000305-0.0001221v100.5880127
	l-0.0000305,0.0001221c0,1.0362549-0.841095,1.8765869-1.8786926,1.8764648c0,0.0001221,0,0,0,0h0.0000305H66.3013077v0.0001221
	c-1.0375824-0.0001221-1.8786926-0.840332-1.8786926-1.876709l0,0V1225.067749c0-1.0362549,0.8411102-1.8765869,1.8786926-1.8764648
	v-0.0001221h288.5669556V1223.1912842L354.8682556,1223.1912842z"/>
<text transform="matrix(0.85 0 0 1 180.8945312 1236.7089844)" class="st3 st4">«FeatureType»</text>
<text transform="matrix(0.85 0 0 1 144.8242188 1247.9667969)" class="st5 st4">urf::SpecialUseAttractionDistrict</text>
<line class="st2" x1="64.4226151" y1="1253.9680176" x2="356.7469482" y2="1253.9680176"/>
<text transform="matrix(0.85 0 0 1 68.1757812 1265.9902344)" class="st3 st4">+ </text>
<text transform="matrix(0.85 0 0 1 83.9570312 1265.9902344)" class="st3 st4">maximumBuildingHeight: gml:StringOrRefType [0..1]</text>
<text transform="matrix(0.85 0 0 1 68.1757812 1277.2480469)" class="st3 st4">+ </text>
<text transform="matrix(0.85 0 0 1 83.9570312 1277.2480469)" class="st3 st4">maximumFloorAreaRate: xs::double</text>
<text transform="matrix(0.85 0 0 1 68.1757812 1288.5058594)" class="st3 st4">+ </text>
<text transform="matrix(0.85 0 0 1 83.9570312 1288.5058594)" class="st3 st4">minimumBuildingArea: gml::MeasureType [0..1]</text>
<text transform="matrix(0.85 0 0 1 68.1757812 1299.7636719)" class="st3 st4">+ </text>
<text transform="matrix(0.85 0 0 1 83.9570312 1299.7636719)" class="st3 st4">minimumFloorAreaRate: xs::double [0..1]</text>
<text transform="matrix(0.85 0 0 1 68.1757812 1311.0214844)" class="st3 st4">+ </text>
<text transform="matrix(0.85 0 0 1 83.9570312 1311.0214844)" class="st3 st4">otherRestrictions: gml:StringOrRefType [0..1]</text>
<text transform="matrix(0.85 0 0 1 68.1757812 1322.2871094)" class="st3 st4">+ </text>
<text transform="matrix(0.85 0 0 1 83.9570312 1322.2871094)" class="st3 st4">useToBeInduced: gml:StringOrRefType</text>
<path class="st0" d="M819.2807617,437.2540894c1.0374756,0,1.8786011,0.84021,1.8786011,1.876709l0.000061-0.0001221v40.5355225
	h-0.000061c0,1.036377-0.8411255,1.876709-1.8787231,1.8765869c0,0.0001221,0,0,0,0h0.0001221H662.222168l-0.000061,0.0001221
	c-1.0375366-0.0001221-1.8787231-0.840332-1.8787231-1.876709h0.0001221v-40.5355225
	c0-1.036377,0.8410645-1.8765869,1.8786621-1.8765869l0,0H819.2807617L819.2807617,437.2540894L819.2807617,437.2540894z"/>
<path class="st1" d="M817.0263062,435.0021362c1.0375366,0,1.8786011,0.84021,1.8786011,1.876709l0.0001221-0.0001221v40.5355225
	h-0.0001221c0,1.036377-0.8410645,1.8765869-1.8786621,1.8765869l0,0h0.000061H659.9677734h-0.0001221
	c-1.0374756,0-1.8786621-0.84021-1.8786621-1.8765869h0.000061v-40.5355225c0-1.036377,0.8411255-1.8765869,1.8787231-1.8765869l0,0
	H817.0263062L817.0263062,435.0021362L817.0263062,435.0021362z"/>
<path class="st2" d="M817.0263062,435.0021362c1.0375366,0,1.8786011,0.84021,1.8786011,1.876709l0.0001221-0.0001221v40.5355225
	h-0.0001221c0,1.036377-0.8410645,1.8765869-1.8786621,1.8765869l0,0h0.000061H659.9677734h-0.0001221
	c-1.0374756,0-1.8786621-0.84021-1.8786621-1.8765869h0.000061v-40.5355225c0-1.036377,0.8411255-1.8765869,1.8787231-1.8765869l0,0
	H817.0263062L817.0263062,435.0021362L817.0263062,435.0021362z"/>
<text transform="matrix(0.85 0 0 1 708.4335938 448.5136719)" class="st3 st4">«FeatureType»</text>
<text transform="matrix(0.85 0 0 1 684.3867188 459.7714844)" class="st5 st4">urf::FirePreventionDistrict</text>
<path class="st0" d="M747.8905029,489.7999878c1.0374756,0,1.8786011,0.84021,1.8786011,1.876709h0.000061v85.574707
	l-0.000061,0.0001221c0,1.036377-0.8411255,1.8765869-1.8787231,1.8765869l0,0h0.0001221H496.8973083h-0.000061
	c-1.0375366,0-1.8786621-0.84021-1.8786621-1.876709h0.000061v-85.574707c0-1.036499,0.8410645-1.876709,1.8786621-1.876709l0,0
	H747.8905029L747.8905029,489.7999878L747.8905029,489.7999878z"/>
<path class="st1" d="M745.6360474,487.5480347c1.0375366,0,1.8786011,0.84021,1.8786011,1.876709h0.0001221v85.574707h-0.0001221
	c0,1.036499-0.8410645,1.876709-1.8786621,1.876709l0,0h0.000061H494.6429138h-0.000061
	c-1.0375366,0-1.8787231-0.84021-1.8787231-1.876709h0.000061v-85.574707c0-1.036499,0.8411255-1.876709,1.8787231-1.876709l0,0
	H745.6360474L745.6360474,487.5480347L745.6360474,487.5480347z"/>
<path class="st2" d="M745.6360474,487.5480347c1.0375366,0,1.8786011,0.84021,1.8786011,1.876709h0.0001221v85.574707h-0.0001221
	c0,1.036499-0.8410645,1.876709-1.8786621,1.876709l0,0h0.000061H494.6429138h-0.000061
	c-1.0375366,0-1.8787231-0.84021-1.8787231-1.876709h0.000061v-85.574707c0-1.036499,0.8411255-1.876709,1.8787231-1.876709l0,0
	H745.6360474L745.6360474,487.5480347L745.6360474,487.5480347z"/>
<text transform="matrix(0.85 0 0 1 590.4492188 501.0683594)" class="st3 st4">«FeatureType»</text>
<text transform="matrix(0.85 0 0 1 504.0273438 512.3261719)" class="st5 st4">urf::SpecifiedDisasterPreventionBlockImprovementZone</text>
<line class="st2" x1="492.7641907" y1="518.3248901" x2="747.5147705" y2="518.3248901"/>
<text transform="matrix(0.85 0 0 1 496.5195312 530.3417969)" class="st3 st4">+ </text>
<text transform="matrix(0.85 0 0 1 512.3007812 530.3417969)" class="st3 st4">minimumBuildingHeight: gml::LengthType [0..1]</text>
<text transform="matrix(0.85 0 0 1 496.5195312 541.5996094)" class="st3 st4">+ </text>
<text transform="matrix(0.85 0 0 1 512.3007812 541.5996094)" class="st3 st4">minimumFrontageRate: xs::double [0..1]</text>
<text transform="matrix(0.85 0 0 1 496.5195312 552.8652344)" class="st3 st4">+ </text>
<text transform="matrix(0.85 0 0 1 512.3007812 552.8652344)" class="st3 st4">minimumSiteArea: gml::MeasureType</text>
<text transform="matrix(0.85 0 0 1 496.5195312 564.1230469)" class="st3 st4">+ </text>
<text transform="matrix(0.85 0 0 1 512.3007812 564.1230469)" class="st3 st4">setbackSize: gml:StringOrRefType [0..1]</text>
<path class="st0" d="M821.5351562,587.385437c1.0375366,0,1.8786011,0.8400879,1.8786011,1.8765869l0.0001221-0.0001221v89.328125
	h-0.0001221c0,1.036499-0.8410645,1.876709-1.8786621,1.876709l0,0h0.000061H587.0745239h-0.000061
	c-1.0375366,0-1.8786621-0.84021-1.8786621-1.876709h0.000061v-89.328125c0-1.036377,0.8410645-1.8765869,1.8786621-1.8764648
	v-0.0001221h234.4606323V587.385437L821.5351562,587.385437z"/>
<path class="st1" d="M819.2807617,585.1333618c1.0374756,0,1.8786011,0.84021,1.8786011,1.8765869h0.000061v89.328125h-0.000061
	c0,1.036377-0.8411255,1.876709-1.8787231,1.876709l0,0h0.0001221H584.8200684l0,0
	c-1.0375366,0-1.8787231-0.840332-1.8787231-1.876709h0.000061v-89.328125c0-1.036377,0.8411255-1.8765869,1.8786621-1.8765869l0,0
	H819.2807617L819.2807617,585.1333618L819.2807617,585.1333618z"/>
<path class="st2" d="M819.2807617,585.1333618c1.0374756,0,1.8786011,0.84021,1.8786011,1.8765869h0.000061v89.328125h-0.000061
	c0,1.036377-0.8411255,1.876709-1.8787231,1.876709l0,0h0.0001221H584.8200684l0,0
	c-1.0375366,0-1.8787231-0.840332-1.8787231-1.876709h0.000061v-89.328125c0-1.036377,0.8411255-1.8765869,1.8786621-1.8765869l0,0
	H819.2807617L819.2807617,585.1333618L819.2807617,585.1333618z"/>
<text transform="matrix(0.85 0 0 1 672.3632812 598.6542969)" class="st3 st4">«FeatureType»</text>
<text transform="matrix(0.85 0 0 1 661.8398438 609.9121094)" class="st5 st4">urf::LandscapeZone</text>
<line class="st2" x1="582.9414062" y1="615.9103394" x2="821.1594238" y2="615.9103394"/>
<text transform="matrix(0.85 0 0 1 586.6992188 627.9277344)" class="st3 st4">+ </text>
<text transform="matrix(0.85 0 0 1 602.4804688 627.9277344)" class="st3 st4">buildingDesignRestriction: gml:StringOrRefType [0..1]</text>
<text transform="matrix(0.85 0 0 1 586.6992188 639.1933594)" class="st3 st4">+ </text>
<text transform="matrix(0.85 0 0 1 602.4804688 639.1933594)" class="st3 st4">maximumBuildingHeight: gml::LengthType [0..1]</text>
<text transform="matrix(0.85 0 0 1 586.6992188 650.4511719)" class="st3 st4">+ </text>
<text transform="matrix(0.85 0 0 1 602.4804688 650.4511719)" class="st3 st4">minimumBuildingHeight: gml::LengthType [0..1]</text>
<text transform="matrix(0.85 0 0 1 586.6992188 661.7089844)" class="st3 st4">+ </text>
<text transform="matrix(0.85 0 0 1 602.4804688 661.7089844)" class="st3 st4">minimumSiteArea: gml::MeasureType [0..1]</text>
<text transform="matrix(0.85 0 0 1 586.6992188 672.9667969)" class="st3 st4">+ </text>
<text transform="matrix(0.85 0 0 1 602.4804688 672.9667969)" class="st3 st4">setbackSize: gml:StringOrRefType [0..1]</text>
<path class="st0" d="M771.9377441,692.4772339c1.0374756,0,1.8786011,0.8400879,1.8786011,1.876709l0.000061-0.0001221v78.0682373
	l-0.000061,0.000061c0,1.036377-0.8411255,1.8766479-1.8787231,1.8765869c0,0.000061,0,0,0,0h0.0001221H496.8973083
	l-0.000061,0.000061c-1.0375366-0.000061-1.8786621-0.840271-1.8786621-1.876709h0.000061v-78.0682373
	c0-1.036499,0.8410645-1.8765869,1.8786621-1.8765869l0,0H771.9377441L771.9377441,692.4772339L771.9377441,692.4772339z"/>
<path class="st1" d="M769.6832886,690.2252808c1.0375366,0,1.8786011,0.8400879,1.8786011,1.8765869h0.0001221v78.0682373
	l-0.0001221,0.000061c0,1.036377-0.8410645,1.8765869-1.8786621,1.8765869l0,0h0.000061H494.6429138h-0.000061
	c-1.0375366,0-1.8787231-0.84021-1.8787231-1.8766479h0.000061v-78.0682373c0-1.036499,0.8411255-1.8765869,1.8787231-1.8765869l0,0
	H769.6832886L769.6832886,690.2252808L769.6832886,690.2252808z"/>
<path class="st2" d="M769.6832886,690.2252808c1.0375366,0,1.8786011,0.8400879,1.8786011,1.8765869h0.0001221v78.0682373
	l-0.0001221,0.000061c0,1.036377-0.8410645,1.8765869-1.8786621,1.8765869l0,0h0.000061H494.6429138h-0.000061
	c-1.0375366,0-1.8787231-0.84021-1.8787231-1.8766479h0.000061v-78.0682373c0-1.036499,0.8411255-1.8765869,1.8787231-1.8765869l0,0
	H769.6832886L769.6832886,690.2252808L769.6832886,690.2252808z"/>
<text transform="matrix(0.85 0 0 1 602.4804688 703.7402344)" class="st3 st4">«FeatureType»</text>
<text transform="matrix(0.85 0 0 1 596.4648438 714.9980469)" class="st5 st4">urf::ScenicDistrict</text>
<line class="st2" x1="492.7641907" y1="721.0021362" x2="771.5620117" y2="721.0021362"/>
<text transform="matrix(0.85 0 0 1 496.5195312 733.0214844)" class="st3 st4">+ </text>
<text transform="matrix(0.85 0 0 1 512.3007812 733.0214844)" class="st3 st4">buildingCoverageRate: xs::double [0..1]</text>
<text transform="matrix(0.85 0 0 1 496.5195312 744.2792969)" class="st3 st4">+ </text>
<text transform="matrix(0.85 0 0 1 512.3007812 744.2792969)" class="st3 st4">buildingHeightLimits: gml::LengthType [0..1]</text>
<text transform="matrix(0.85 0 0 1 496.5195312 755.5371094)" class="st3 st4">+ </text>
<text transform="matrix(0.85 0 0 1 512.3007812 755.5371094)" class="st3 st4">wallSetbackDistanceWithRoad: gml::LengthType [0..1]</text>
<text transform="matrix(0.85 0 0 1 496.5195312 766.7949219)" class="st3 st4">+ </text>
<text transform="matrix(0.85 0 0 1 512.3007812 766.7949219)" class="st3 st4">wallSetbaskDistanceWithAdjoiningLand: gml::LengthType [0..1]</text>
<path class="st0" d="M815.5233765,812.5822754c1.0374756,0,1.8786011,0.8401489,1.8786011,1.8766479l0.000061-0.0001221v39.78479
	l-0.000061,0.000061c0,1.036377-0.8411255,1.8766479-1.8787231,1.8765869c0,0.000061,0,0,0,0h0.0001221H662.222168
	l-0.000061,0.000061c-1.0375366-0.000061-1.8787231-0.840271-1.8787231-1.876709h0.0001221v-39.78479
	c0-1.036377,0.8410645-1.8766479,1.8786621-1.8765259v-0.0001221h153.3012085V812.5822754L815.5233765,812.5822754z"/>
<path class="st1" d="M813.2689209,810.3303223c1.0375366,0,1.8786011,0.8401489,1.8786011,1.8765869l0.0001221-0.000061v39.78479
	l-0.0001221,0.000061c0,1.036377-0.8410645,1.8766479-1.8786621,1.8765869c0,0.000061,0,0,0,0h0.000061H659.9677734
	l-0.0001221,0.000061c-1.0374756-0.000061-1.8786621-0.840271-1.8786621-1.876709h0.000061v-39.78479
	c0-1.036377,0.8411255-1.8766479,1.8787231-1.8765259v-0.0001221h153.3011475V810.3303223L813.2689209,810.3303223z"/>
<path class="st2" d="M813.2689209,810.3303223c1.0375366,0,1.8786011,0.8401489,1.8786011,1.8765869l0.0001221-0.000061v39.78479
	l-0.0001221,0.000061c0,1.036377-0.8410645,1.8766479-1.8786621,1.8765869c0,0.000061,0,0,0,0h0.000061H659.9677734
	l-0.0001221,0.000061c-1.0374756-0.000061-1.8786621-0.840271-1.8786621-1.876709h0.000061v-39.78479
	c0-1.036377,0.8411255-1.8766479,1.8787231-1.8765259v-0.0001221h153.3011475V810.3303223L813.2689209,810.3303223z"/>
<text transform="matrix(0.85 0 0 1 706.9335938 823.8496094)" class="st3 st4">«FeatureType»</text>
<text transform="matrix(0.85 0 0 1 664.0976562 835.1074219)" class="st5 st4">urf::ParkingPlaceDevelopmentZone</text>
<path class="st0" d="M641.1808472,782.5559692c1.0375366,0,1.8786011,0.84021,1.8786011,1.8766479l0.000061-0.000061v42.0367432
	l-0.000061,0.0001221c0,1.036377-0.8410645,1.8766479-1.8786621,1.8765259c0,0.0001221,0,0,0,0h0.000061H496.8973083
	l-0.000061,0.0001221c-1.0375366-0.0001221-1.8786621-0.840271-1.8786621-1.87677h0.000061v-42.0367432
	c0-1.036377,0.8410645-1.8766479,1.8786621-1.8765869v-0.000061h144.2835388V782.5559692L641.1808472,782.5559692z"/>
<path class="st1" d="M638.9263916,780.3040161c1.0375366,0,1.8786621,0.8401489,1.8786621,1.8766479l0.000061-0.000061v42.0367432
	l-0.000061,0.000061c0,1.036377-0.8411255,1.8766479-1.8787231,1.8765869c0,0.000061,0,0,0,0h0.000061H494.6429138
	l-0.000061,0.000061c-1.0375366-0.000061-1.8787231-0.840271-1.8787231-1.876709h0.000061V782.180603
	c0-1.036438,0.8411255-1.8766479,1.8787231-1.8765869v-0.000061h144.2834778V780.3040161L638.9263916,780.3040161z"/>
<path class="st2" d="M638.9263916,780.3040161c1.0375366,0,1.8786621,0.8401489,1.8786621,1.8766479l0.000061-0.000061v42.0367432
	l-0.000061,0.000061c0,1.036377-0.8411255,1.8766479-1.8787231,1.8765869c0,0.000061,0,0,0,0h0.000061H494.6429138
	l-0.000061,0.000061c-1.0375366-0.000061-1.8787231-0.840271-1.8787231-1.876709h0.000061V782.180603
	c0-1.036438,0.8411255-1.8766479,1.8787231-1.8765869v-0.000061h144.2834778V780.3040161L638.9263916,780.3040161z"/>
<text transform="matrix(0.85 0 0 1 537.0976562 793.8183594)" class="st3 st4">«FeatureType»</text>
<text transform="matrix(0.85 0 0 1 538.6054688 805.0761719)" class="st5 st4">urf::PortZone</text>
<line class="st2" x1="492.7641907" y1="811.0808716" x2="640.8051147" y2="811.0808716"/>
<text transform="matrix(0.85 0 0 1 496.5195312 823.0996094)" class="st3 st4">+ </text>
<text transform="matrix(0.85 0 0 1 512.3007812 823.0996094)" class="st3 st4">floorAreaRate: xs::double [0..1]</text>
<path class="st0" d="M837.3161621,918.4248047c1.0375366,0,1.8786011,0.8401489,1.8786011,1.8766479l0.0001221-0.0001221v39.78479
	l-0.0001221,0.000061c0,1.036377-0.8410645,1.8766479-1.8786621,1.8765869c0,0.000061,0,0,0,0h0.000061H609.6188354
	l-0.000061,0.000061c-1.0375366-0.000061-1.8786621-0.840271-1.8786621-1.876709l0,0v-39.78479
	c0-1.036377,0.8411255-1.8766479,1.8787231-1.8765259v-0.0001221h227.6973267V918.4248047L837.3161621,918.4248047z"/>
<path class="st1" d="M835.0617676,916.1727905c1.0374756,0,1.8786011,0.84021,1.8786011,1.8766479l0.000061-0.000061v39.78479
	l-0.000061,0.000061c0,1.036377-0.8411255,1.8766479-1.8787231,1.8765259c0,0.0001221,0,0,0,0h0.0001221H607.3643799
	l-0.000061,0.0001221c-1.0375366-0.0001221-1.8786621-0.840271-1.8786621-1.876709h0.000061v-39.78479
	c0-1.036377,0.8410645-1.8766479,1.8786621-1.8765869v-0.000061h227.6973877V916.1727905L835.0617676,916.1727905z"/>
<path class="st2" d="M835.0617676,916.1727905c1.0374756,0,1.8786011,0.84021,1.8786011,1.8766479l0.000061-0.000061v39.78479
	l-0.000061,0.000061c0,1.036377-0.8411255,1.8766479-1.8787231,1.8765259c0,0.0001221,0,0,0,0h0.0001221H607.3643799
	l-0.000061,0.0001221c-1.0375366-0.0001221-1.8786621-0.840271-1.8786621-1.876709h0.000061v-39.78479
	c0-1.036377,0.8410645-1.8766479,1.8786621-1.8765869v-0.000061h227.6973877V916.1727905L835.0617676,916.1727905z"/>
<text transform="matrix(0.85 0 0 1 691.1523438 929.6855469)" class="st3 st4">«FeatureType»</text>
<text transform="matrix(0.85 0 0 1 610.7460938 940.9433594)" class="st5 st4">urf::SpecialZoneForPreservationOfHistoricalLandscape</text>
<path class="st0" d="M695.2871094,865.1281738c1.0375366,0,1.8786011,0.84021,1.8786011,1.8766479l0.0001221-0.000061v39.78479
	l-0.0001221,0.000061c0,1.036377-0.8410645,1.8766479-1.8786621,1.8765259c0,0.0001221,0,0,0,0h0.000061h-198.389801
	l-0.000061,0.0001221c-1.0375366-0.0001221-1.8786621-0.840271-1.8786621-1.876709h0.000061v-39.78479
	c0-1.036377,0.8410645-1.8766479,1.8786621-1.8765869v-0.000061h198.389801V865.1281738L695.2871094,865.1281738z"/>
<path class="st1" d="M693.0327148,862.8762207c1.0374756,0,1.8786011,0.84021,1.8786011,1.8766479l0.000061-0.0001221v39.78479
	l-0.000061,0.0001221c0,1.036377-0.8411255,1.8766479-1.8787231,1.8765259c0,0.0001221,0,0,0,0h0.0001221h-198.389801
	l-0.000061,0.0001221c-1.0375366-0.0001221-1.8787231-0.840271-1.8787231-1.87677h0.000061v-39.78479
	c0-1.0363159,0.8411255-1.8765869,1.8787231-1.8765259v-0.000061h198.389801V862.8762207L693.0327148,862.8762207z"/>
<path class="st2" d="M693.0327148,862.8762207c1.0374756,0,1.8786011,0.84021,1.8786011,1.8766479l0.000061-0.0001221v39.78479
	l-0.000061,0.0001221c0,1.036377-0.8411255,1.8766479-1.8787231,1.8765259c0,0.0001221,0,0,0,0h0.0001221h-198.389801
	l-0.000061,0.0001221c-1.0375366-0.0001221-1.8787231-0.840271-1.8787231-1.87677h0.000061v-39.78479
	c0-1.0363159,0.8411255-1.8765869,1.8787231-1.8765259v-0.000061h198.389801V862.8762207L693.0327148,862.8762207z"/>
<text transform="matrix(0.85 0 0 1 564.1523438 876.3964844)" class="st3 st4">«FeatureType»</text>
<text transform="matrix(0.85 0 0 1 497.2695312 887.6542969)" class="st5 st4">urf::ZoneForPreservationOfHistoricalLandscape</text>
<path class="st0" d="M667.4824829,977.7266235c1.0375366,0,1.8786011,0.84021,1.8786011,1.8766479l0.0001221-0.0001221v39.78479
	l-0.0001221,0.0001221c0,1.036377-0.8410645,1.8766479-1.8786621,1.8765259c0,0.0001221,0,0,0,0h0.000061H496.8973083
	l-0.000061,0.0001221c-1.0375366-0.0001221-1.8786621-0.840271-1.8786621-1.87677h0.000061v-39.78479
	c0-1.0363159,0.8410645-1.8766479,1.8786621-1.8765259v-0.0001221h170.5851746V977.7266235L667.4824829,977.7266235z"/>
<path class="st1" d="M665.2280884,975.4746704c1.0374756,0,1.8786011,0.8401489,1.8786011,1.8766479l0.000061-0.0001221v39.78479
	l-0.000061,0.000061c0,1.036377-0.8411255,1.8766479-1.8787231,1.8765869c0,0.000061,0,0,0,0h0.0001221H494.6429138
	l-0.000061,0.000061c-1.0375366-0.000061-1.8787231-0.840271-1.8787231-1.876709h0.000061v-39.78479
	c0-1.036377,0.8411255-1.8766479,1.8787231-1.8765259v-0.0001221h170.5851746V975.4746704L665.2280884,975.4746704z"/>
<path class="st2" d="M665.2280884,975.4746704c1.0374756,0,1.8786011,0.8401489,1.8786011,1.8766479l0.000061-0.0001221v39.78479
	l-0.000061,0.000061c0,1.036377-0.8411255,1.8766479-1.8787231,1.8765869c0,0.000061,0,0,0,0h0.0001221H494.6429138
	l-0.000061,0.000061c-1.0375366-0.000061-1.8787231-0.840271-1.8787231-1.876709h0.000061v-39.78479
	c0-1.036377,0.8411255-1.8766479,1.8787231-1.8765259v-0.0001221h170.5851746V975.4746704L665.2280884,975.4746704z"/>
<text transform="matrix(0.85 0 0 1 549.8710938 988.9902344)" class="st3 st4">«FeatureType»</text>
<text transform="matrix(0.85 0 0 1 504.7851562 1000.2558594)" class="st5 st4">urf::GreenSpaceConservationDistrict</text>
<path class="st0" d="M695.2871094,1195.4169922c1.0375366,0,1.8786011,0.84021,1.8786011,1.8765869h0.0001221v48.0419922h-0.0001221
	c0,1.036377-0.8410645,1.876709-1.8786621,1.8765869c0,0.0001221,0,0,0,0h0.000061h-198.389801l-0.000061,0.0001221
	c-1.0375366-0.0001221-1.8786621-0.840332-1.8786621-1.876709h0.000061v-48.0419922
	c0-1.036377,0.8410645-1.876709,1.8786621-1.8765869v-0.0001221h198.389801V1195.4169922L695.2871094,1195.4169922z"/>
<path class="st1" d="M693.0327148,1193.1650391c1.0374756,0,1.8786011,0.84021,1.8786011,1.8765869l0.000061-0.0001221v48.0419922
	l-0.000061,0.0001221c0,1.036377-0.8411255,1.876709-1.8787231,1.8765869c0,0.0001221,0,0,0,0h0.0001221h-198.389801
	l-0.000061,0.0001221c-1.0375366-0.0001221-1.8787231-0.840332-1.8787231-1.8768311h0.000061v-48.0419922
	c0-1.0362549,0.8411255-1.8765869,1.8787231-1.8764648v-0.0001221h198.389801V1193.1650391L693.0327148,1193.1650391z"/>
<path class="st2" d="M693.0327148,1193.1650391c1.0374756,0,1.8786011,0.84021,1.8786011,1.8765869l0.000061-0.0001221v48.0419922
	l-0.000061,0.0001221c0,1.036377-0.8411255,1.876709-1.8787231,1.8765869c0,0.0001221,0,0,0,0h0.0001221h-198.389801
	l-0.000061,0.0001221c-1.0375366-0.0001221-1.8787231-0.840332-1.8787231-1.8768311h0.000061v-48.0419922
	c0-1.0362549,0.8411255-1.8765869,1.8787231-1.8764648v-0.0001221h198.389801V1193.1650391L693.0327148,1193.1650391z"/>
<text transform="matrix(0.85 0 0 1 564.1523438 1206.6777344)" class="st3 st4">«FeatureType»</text>
<text transform="matrix(0.85 0 0 1 504.7851562 1217.9433594)" class="st5 st4">urf::SpecialGreenSpaceConservationDistrict</text>
<line class="st2" x1="492.7641907" y1="1223.9417725" x2="694.911377" y2="1223.9417725"/>
<text transform="matrix(0.85 0 0 1 496.5195312 1235.9589844)" class="st3 st4">+ </text>
<text transform="matrix(0.85 0 0 1 512.3007812 1235.9589844)" class="st3 st4">requirement: gml::CodeType [0..1]</text>
<path class="st0" d="M841.0735474,1031.0231934c1.0375366,0,1.8786011,0.84021,1.8786011,1.876709l0.0001221-0.0001221v48.0419922
	l-0.0001221,0.0001221c0,1.036377-0.8410645,1.876709-1.8786621,1.8765869c0,0.0001221,0,0,0,0h0.000061H669.7369385
	l-0.0001221,0.0001221c-1.0374756-0.0001221-1.8786621-0.840332-1.8786621-1.8768311h0.0001221v-48.0419922
	c0-1.036377,0.8410645-1.8765869,1.8786621-1.8765869l0,0H841.0735474L841.0735474,1031.0231934L841.0735474,1031.0231934z"/>
<path class="st1" d="M838.8191528,1028.7712402c1.0374756,0,1.8786011,0.84021,1.8786011,1.876709l0.000061-0.0001221v48.0419922
	l-0.000061,0.0001221c0,1.036377-0.8411255,1.8765869-1.8787231,1.8765869l0,0h0.0001221H667.4824829h-0.000061
	c-1.0374756,0-1.8787231-0.84021-1.8787231-1.876709h0.0001221v-48.0419922c0-1.036377,0.8411255-1.8765869,1.8786621-1.8765869l0,0
	H838.8191528L838.8191528,1028.7712402L838.8191528,1028.7712402z"/>
<path class="st2" d="M838.8191528,1028.7712402c1.0374756,0,1.8786011,0.84021,1.8786011,1.876709l0.000061-0.0001221v48.0419922
	l-0.000061,0.0001221c0,1.036377-0.8411255,1.8765869-1.8787231,1.8765869l0,0h0.0001221H667.4824829h-0.000061
	c-1.0374756,0-1.8787231-0.84021-1.8787231-1.876709h0.0001221v-48.0419922c0-1.036377,0.8411255-1.8765869,1.8786621-1.8765869l0,0
	H838.8191528L838.8191528,1028.7712402L838.8191528,1028.7712402z"/>
<text transform="matrix(0.85 0 0 1 723.4648438 1042.2871094)" class="st3 st4">«FeatureType»</text>
<text transform="matrix(0.85 0 0 1 703.9257812 1053.5449219)" class="st5 st4">urf::TreePlantingDistrict</text>
<line class="st2" x1="665.6038208" y1="1059.5480957" x2="840.6978149" y2="1059.5480957"/>
<text transform="matrix(0.85 0 0 1 669.3554688 1071.5605469)" class="st3 st4">+ </text>
<text transform="matrix(0.85 0 0 1 685.1367188 1071.5605469)" class="st3 st4">minimumGreeningRatio: xs::double</text>
<path class="st0" d="M679.5061035,1090.3250732c1.0375366,0,1.8786011,0.84021,1.8786011,1.876709l0.0001221-0.0001221v48.7926025
	l-0.0001221,0.0001221c0,1.036377-0.8410645,1.876709-1.8786621,1.8765869c0,0.0001221,0,0,0,0h0.000061H496.8973083
	l-0.000061,0.0001221c-1.0375366-0.0001221-1.8786621-0.840332-1.8786621-1.8768311h0.000061v-48.7926025
	c0-1.036377,0.8410645-1.8765869,1.8786621-1.8765869l0,0H679.5061035L679.5061035,1090.3250732L679.5061035,1090.3250732z"/>
<path class="st1" d="M677.251709,1088.0731201c1.0374756,0,1.8786011,0.84021,1.8786011,1.876709l0.000061-0.0001221v48.7926025
	l-0.000061,0.0001221c0,1.036377-0.8411255,1.8765869-1.8787231,1.8765869l0,0h0.0001221H494.6429138h-0.000061
	c-1.0375366,0-1.8787231-0.84021-1.8787231-1.876709h0.000061v-48.7926025c0-1.036377,0.8411255-1.876709,1.8787231-1.8765869
	v-0.0001221H677.251709V1088.0731201L677.251709,1088.0731201z"/>
<path class="st2" d="M677.251709,1088.0731201c1.0374756,0,1.8786011,0.84021,1.8786011,1.876709l0.000061-0.0001221v48.7926025
	l-0.000061,0.0001221c0,1.036377-0.8411255,1.8765869-1.8787231,1.8765869l0,0h0.0001221H494.6429138h-0.000061
	c-1.0375366,0-1.8787231-0.84021-1.8787231-1.876709h0.000061v-48.7926025c0-1.036377,0.8411255-1.876709,1.8787231-1.8765869
	v-0.0001221H677.251709V1088.0731201L677.251709,1088.0731201z"/>
<text transform="matrix(0.85 0 0 1 555.8867188 1101.5917969)" class="st3 st4">«FeatureType»</text>
<text transform="matrix(0.85 0 0 1 525.0742188 1112.8496094)" class="st5 st4">urf::DistributionBusinessZone</text>
<line class="st2" x1="492.7641907" y1="1118.8499756" x2="679.1303711" y2="1118.8499756"/>
<text transform="matrix(0.85 0 0 1 496.5195312 1130.8652344)" class="st3 st4">+ </text>
<text transform="matrix(0.85 0 0 1 512.3007812 1130.8652344)" class="st3 st4">guidelinePublicationDate: xs::date [0..1]</text>
<path class="st0" d="M864.3693237,1121.1020508c1.0375366,0,1.8786011,0.8400879,1.8786011,1.8765869l0.0001221-0.0001221v55.548584
	l-0.0001221,0.0001221c0,1.036377-0.8410645,1.8765869-1.8786621,1.8765869l0,0h0.000061H699.7960205h-0.0001221
	c-1.0374756,0-1.8786621-0.84021-1.8786621-1.876709h0.000061v-55.548584c0-1.036377,0.8411255-1.8765869,1.8787231-1.8764648
	v-0.0001221h164.5733032V1121.1020508L864.3693237,1121.1020508z"/>
<path class="st1" d="M862.1149292,1118.8500977c1.0374756,0,1.8786011,0.8400879,1.8786011,1.8765869l0.000061-0.0001221v55.548584
	l-0.000061,0.0001221c0,1.036377-0.8411255,1.8765869-1.8787231,1.8764648c0,0.0001221,0,0,0,0h0.0001221H697.5415649
	l-0.000061,0.0001221c-1.0375366-0.0001221-1.8787231-0.84021-1.8787231-1.876709h0.0001221v-55.548584
	c0-1.036377,0.8410645-1.8765869,1.8786621-1.8764648v-0.0001221h164.5733643V1118.8500977L862.1149292,1118.8500977z"/>
<path class="st2" d="M862.1149292,1118.8500977c1.0374756,0,1.8786011,0.8400879,1.8786011,1.8765869l0.000061-0.0001221v55.548584
	l-0.000061,0.0001221c0,1.036377-0.8411255,1.8765869-1.8787231,1.8764648c0,0.0001221,0,0,0,0h0.0001221H697.5415649
	l-0.000061,0.0001221c-1.0375366-0.0001221-1.8787231-0.84021-1.8787231-1.876709h0.0001221v-55.548584
	c0-1.036377,0.8410645-1.8765869,1.8786621-1.8764648v-0.0001221h164.5733643V1118.8500977L862.1149292,1118.8500977z"/>
<text transform="matrix(0.85 0 0 1 749.7695312 1132.3652344)" class="st3 st4">«FeatureType»</text>
<text transform="matrix(0.85 0 0 1 725.7226562 1143.6230469)" class="st5 st4">urf::ProductiveGreenZone</text>
<line class="st2" x1="695.6629028" y1="1149.6268311" x2="863.9935913" y2="1149.6268311"/>
<text transform="matrix(0.85 0 0 1 699.4179688 1161.6386719)" class="st3 st4">+ </text>
<text transform="matrix(0.85 0 0 1 715.1992188 1161.6386719)" class="st3 st4">specificication: gml::CodeType [0..1]</text>
<text transform="matrix(0.85 0 0 1 699.4179688 1172.8964844)" class="st3 st4">+ </text>
<text transform="matrix(0.85 0 0 1 715.1992188 1172.8964844)" class="st3 st4">zoneNumber: xs::string [0..1]</text>
<path class="st0" d="M747.8905029,1293.0023193c1.0374756,0,1.8786011,0.8400879,1.8786011,1.8765869l0.000061-0.0001221v40.5355225
	h-0.000061c0,1.036377-0.8411255,1.876709-1.8787231,1.8765869c0,0.0001221,0,0,0,0h0.0001221H496.8973083l-0.000061,0.0001221
	c-1.0375366-0.0001221-1.8786621-0.840332-1.8786621-1.876709h0.000061v-40.5355225
	c0-1.036377,0.8410645-1.8765869,1.8786621-1.8764648v-0.0001221h250.9931946V1293.0023193L747.8905029,1293.0023193z"/>
<path class="st1" d="M745.6360474,1290.7503662c1.0375366,0,1.8786011,0.8400879,1.8786011,1.8765869l0.0001221-0.0001221
	v40.5355225h-0.0001221c0,1.036377-0.8410645,1.876709-1.8786621,1.8765869c0,0.0001221,0,0,0,0h0.000061H494.6429138
	l-0.000061,0.0001221c-1.0375366-0.0001221-1.8787231-0.840332-1.8787231-1.876709h0.000061v-40.5355225
	c0-1.036377,0.8411255-1.8765869,1.8787231-1.8764648v-0.0001221h250.9931335V1290.7503662L745.6360474,1290.7503662z"/>
<path class="st2" d="M745.6360474,1290.7503662c1.0375366,0,1.8786011,0.8400879,1.8786011,1.8765869l0.0001221-0.0001221
	v40.5355225h-0.0001221c0,1.036377-0.8410645,1.876709-1.8786621,1.8765869c0,0.0001221,0,0,0,0h0.000061H494.6429138
	l-0.000061,0.0001221c-1.0375366-0.0001221-1.8787231-0.840332-1.8787231-1.876709h0.000061v-40.5355225
	c0-1.036377,0.8411255-1.8765869,1.8787231-1.8764648v-0.0001221h250.9931335V1290.7503662L745.6360474,1290.7503662z"/>
<text transform="matrix(0.85 0 0 1 590.4492188 1304.2714844)" class="st3 st4">«FeatureType»</text>
<text transform="matrix(0.85 0 0 1 502.5351562 1315.5292969)" class="st5 st4">urf::ConservationZoneForClustersOfTraditionalStructures</text>
<path class="st0" d="M860.6119385,1233.7004395c1.0375366,0,1.8786011,0.84021,1.8786011,1.8765869h0.0001221v40.5354004
	l-0.0001221,0.0001221c0,1.036377-0.8410645,1.8765869-1.8786621,1.8764648c0,0.0001221,0,0,0,0h0.000061h-145.786438
	l-0.000061,0.0001221c-1.0374756-0.0001221-1.8787231-0.84021-1.8787231-1.876709h0.0001221v-40.5354004
	c0-1.036377,0.8411255-1.876709,1.8786621-1.8765869v-0.0001221h145.786438V1233.7004395L860.6119385,1233.7004395z"/>
<path class="st1" d="M858.3575439,1231.4484863c1.0374756,0,1.8786011,0.84021,1.8786011,1.8765869h0.000061v40.5354004
	l-0.000061,0.0001221c0,1.036377-0.8411255,1.8765869-1.8787231,1.8764648c0,0.0001221,0,0,0,0h0.0001221H712.571106
	l-0.0001221,0.0001221c-1.0374756-0.0001221-1.8786621-0.84021-1.8786621-1.876709h0.000061v-40.5354004
	c0-1.036377,0.8411255-1.876709,1.8787231-1.8765869v-0.0001221h145.786438V1231.4484863L858.3575439,1231.4484863z"/>
<path class="st2" d="M858.3575439,1231.4484863c1.0374756,0,1.8786011,0.84021,1.8786011,1.8765869h0.000061v40.5354004
	l-0.000061,0.0001221c0,1.036377-0.8411255,1.8765869-1.8787231,1.8764648c0,0.0001221,0,0,0,0h0.0001221H712.571106
	l-0.0001221,0.0001221c-1.0374756-0.0001221-1.8786621-0.84021-1.8786621-1.876709h0.000061v-40.5354004
	c0-1.036377,0.8411255-1.876709,1.8787231-1.8765869v-0.0001221h145.786438V1231.4484863L858.3575439,1231.4484863z"/>
<text transform="matrix(0.85 0 0 1 755.7773438 1244.9589844)" class="st3 st4">«FeatureType»</text>
<text transform="matrix(0.85 0 0 1 724.2148438 1256.2246094)" class="st5 st4">urf::AircraftNoiseControlZone</text>
<path class="st8" d="M238.7651672,172.2723999c1.2450562,0,2.2543945,1.0083008,2.2543945,2.2520752l0.0000305-0.0001221v66.0578613
	h-0.0000305c0,1.2436523-1.0093384,2.2519531-2.254425,2.2519531l0,0h0.0000305H104.2508774h-0.0000305
	c-1.2450714,0-2.254425-1.0083008-2.2543945-2.2519531V174.524353c0-1.2436523,1.0093231-2.2519531,2.254425-2.2519531l0,0
	H238.7651672L238.7651672,172.2723999L238.7651672,172.2723999z"/>
<path class="st9" d="M238.7651672,172.2723999c1.2450562,0,2.2543945,1.0083008,2.2543945,2.2520752l0.0000305-0.0001221v66.0578613
	h-0.0000305c0,1.2436523-1.0093384,2.2519531-2.254425,2.2519531l0,0h0.0000305H104.2508774h-0.0000305
	c-1.2450714,0-2.254425-1.0083008-2.2543945-2.2519531V174.524353c0-1.2436523,1.0093231-2.2519531,2.254425-2.2519531l0,0
	H238.7651672L238.7651672,172.2723999L238.7651672,172.2723999z"/>
<path class="st10" d="M119.6561356,194.7921753c1.0375824,0,1.8786774,0.8400879,1.8786774,1.8765869h0.0000153v8.2572021
	h-0.0000153c0,1.036499-0.841095,1.876709-1.8786926,1.876709l0,0h0.0000153h-8.2662354h-0.0000153
	c-1.0375824,0-1.8786926-0.84021-1.8786926-1.876709h0.0000153v-8.2572021c0-1.036499,0.841095-1.8765869,1.8786926-1.8765869l0,0
	H119.6561356L119.6561356,194.7921753L119.6561356,194.7921753z"/>
<path class="st11" d="M119.6561356,194.7921753c1.0375824,0,1.8786774,0.8400879,1.8786774,1.8765869h0.0000153v8.2572021
	h-0.0000153c0,1.036499-0.841095,1.876709-1.8786926,1.876709l0,0h0.0000153h-8.2662354h-0.0000153
	c-1.0375824,0-1.8786926-0.84021-1.8786926-1.876709h0.0000153v-8.2572021c0-1.036499,0.841095-1.8765869,1.8786926-1.8765869l0,0
	H119.6561356L119.6561356,194.7921753L119.6561356,194.7921753z"/>
<text transform="matrix(0.85 0 0 1 126.0429688 205.1777344)" class="st12"><tspan x="0" y="0" class="st13 st3 st4">GML</tspan><tspan x="18.6023655" y="0" class="st13 st14 st4">に定義されたクラス</tspan></text>
<path class="st15" d="M119.6561356,209.0546265c1.0375824,0,1.8786774,0.84021,1.8786774,1.8765869h0.0000153v8.2572021h-0.0000153
	c0,1.036499-0.841095,1.876709-1.8786926,1.876709l0,0h0.0000153h-8.2662354h-0.0000153
	c-1.0375824,0-1.8786926-0.84021-1.8786926-1.876709h0.0000153v-8.2572021c0-1.036377,0.841095-1.8765869,1.8786926-1.8765869l0,0
	H119.6561356L119.6561356,209.0546265L119.6561356,209.0546265z"/>
<path class="st11" d="M119.6561356,209.0546265c1.0375824,0,1.8786774,0.84021,1.8786774,1.8765869h0.0000153v8.2572021h-0.0000153
	c0,1.036499-0.841095,1.876709-1.8786926,1.876709l0,0h0.0000153h-8.2662354h-0.0000153
	c-1.0375824,0-1.8786926-0.84021-1.8786926-1.876709h0.0000153v-8.2572021c0-1.036377,0.841095-1.8765869,1.8786926-1.8765869l0,0
	H119.6561356L119.6561356,209.0546265L119.6561356,209.0546265z"/>
<text transform="matrix(0.85 0 0 1 126.0429688 219.4433594)" class="st12"><tspan x="0" y="0" class="st13 st3 st4">CityGML</tspan><tspan x="33.7304688" y="0" class="st13 st14 st4">に定義されたクラス</tspan></text>
<path class="st1" d="M119.6561356,223.3170776c1.0375824,0,1.8786774,0.84021,1.8786774,1.876709l0.0000153-0.0001221v8.2572021
	l-0.0000153,0.0001221c0,1.036377-0.841095,1.8765869-1.8786926,1.8765869l0,0h0.0000153h-8.2662354h-0.0000153
	c-1.0375824,0-1.8786926-0.84021-1.8786926-1.876709h0.0000153v-8.2572021c0-1.036377,0.841095-1.8765869,1.8786926-1.8765869l0,0
	H119.6561356L119.6561356,223.3170776L119.6561356,223.3170776z"/>
<path class="st11" d="M119.6561356,223.3170776c1.0375824,0,1.8786774,0.84021,1.8786774,1.876709l0.0000153-0.0001221v8.2572021
	l-0.0000153,0.0001221c0,1.036377-0.841095,1.8765869-1.8786926,1.8765869l0,0h0.0000153h-8.2662354h-0.0000153
	c-1.0375824,0-1.8786926-0.84021-1.8786926-1.876709h0.0000153v-8.2572021c0-1.036377,0.841095-1.8765869,1.8786926-1.8765869l0,0
	H119.6561356L119.6561356,223.3170776L119.6561356,223.3170776z"/>
<text transform="matrix(0.85 0 0 1 126.0429688 233.7011719)" class="st12"><tspan x="0" y="0" class="st13 st3 st4">i-UR</tspan><tspan x="16.7865353" y="0" class="st13 st14 st4">に定義されたクラス</tspan></text>
<text transform="matrix(0.85 0 0 1 158.3554688 190.53125)" class="st13 st16 st17 st18">凡例</text>
<line class="st19" x1="357.4984436" y1="1275.7370605" x2="465.7110291" y2="1275.7370605"/>
<line class="st19" x1="492.7641907" y1="1313.2698975" x2="465.7110291" y2="1313.2698975"/>
<line class="st19" x1="465.7110291" y1="1313.2698975" x2="465.7110291" y2="303.6372681"/>
<polyline class="st20" points="470.2198792,315.6477661 461.202179,315.6477661 465.7110291,303.6372681 470.2198792,315.6477661 
	"/>
<polygon class="st19" points="470.2198792,315.6477661 461.202179,315.6477661 465.7110291,303.6372681 "/>
<line class="st19" x1="695.6629028" y1="1148.8762207" x2="465.7110291" y2="1148.8762207"/>
<line class="st19" x1="492.7641907" y1="1114.3460693" x2="465.7110291" y2="1114.3460693"/>
<line class="st19" x1="665.6038208" y1="1055.0441895" x2="465.7110291" y2="1055.0441895"/>
<line class="st19" x1="492.7641907" y1="1219.4378662" x2="465.7110291" y2="1219.4378662"/>
<line class="st19" x1="492.7641907" y1="997.2435913" x2="465.7110291" y2="997.2435913"/>
<line class="st19" x1="492.7641907" y1="884.6451416" x2="465.7110291" y2="884.6451416"/>
<line class="st19" x1="605.4857178" y1="937.9417725" x2="465.7110291" y2="937.9417725"/>
<line class="st19" x1="492.7641907" y1="803.5742798" x2="465.7110291" y2="803.5742798"/>
<line class="st19" x1="658.0890503" y1="832.0992432" x2="465.7110291" y2="832.0992432"/>
<line class="st19" x1="492.7641907" y1="731.5112915" x2="465.7110291" y2="731.5112915"/>
<line class="st19" x1="582.9414062" y1="631.6740112" x2="465.7110291" y2="631.6740112"/>
<line class="st19" x1="710.6923828" y1="1253.9680176" x2="465.7110291" y2="1253.9680176"/>
<line class="st19" x1="658.0890503" y1="457.5217896" x2="465.7110291" y2="457.5217896"/>
<line class="st19" x1="543.1131592" y1="173.0231323" x2="597.2194824" y2="173.0231323"/>
<polyline class="st20" points="585.1958618,177.5270386 585.1958618,168.5192261 597.2194824,173.0231323 585.1958618,177.5270386 
	"/>
<polygon class="st19" points="585.1958618,177.5270386 585.1958618,168.5192261 597.2194824,173.0231323 "/>
<line class="st19" x1="432.6460876" y1="1163.1386719" x2="465.7110291" y2="1163.1386719"/>
<line class="st19" x1="154.5997925" y1="1092.5770264" x2="465.7110291" y2="1092.5770264"/>
<line class="st19" x1="432.6460876" y1="1023.5165405" x2="465.7110291" y2="1023.5165405"/>
<line class="st19" x1="244.0254822" y1="915.4220581" x2="465.7110291" y2="915.4220581"/>
<line class="st19" x1="447.6756287" y1="819.3380737" x2="465.7110291" y2="819.3380737"/>
<line class="st19" x1="258.3035278" y1="727.7579956" x2="465.7110291" y2="727.7579956"/>
<line class="st19" x1="428.8887024" y1="652.6923218" x2="465.7110291" y2="652.6923218"/>
<line class="st19" x1="243.2740173" y1="586.6347046" x2="465.7110291" y2="586.6347046"/>
<line class="st19" x1="311.6583862" y1="517.5742798" x2="465.7110291" y2="517.5742798"/>
<line class="st19" x1="311.6583862" y1="442.508728" x2="465.7110291" y2="442.508728"/>
<line class="st19" x1="465.7110291" y1="254.0939331" x2="465.7110291" y2="209.0546265"/>
<polyline class="st20" points="470.2198792,221.0651245 461.202179,221.0651245 465.7110291,209.0546265 470.2198792,221.0651245 
	"/>
<polygon class="st19" points="470.2198792,221.0651245 461.202179,221.0651245 465.7110291,209.0546265 "/>
<line class="st19" x1="312.4098511" y1="331.4115601" x2="465.7110291" y2="331.4115601"/>
<line class="st19" x1="492.7641907" y1="532.5873413" x2="465.7110291" y2="532.5873413"/>
</svg>
