<?xml version="1.0" encoding="utf-8"?>
<!-- Generator: Adobe Illustrator 26.5.2, SVG Export Plug-In . SVG Version: 6.00 Build 0)  -->
<svg version="1.1" id="レイヤー_1" xmlns="http://www.w3.org/2000/svg" xmlns:xlink="http://www.w3.org/1999/xlink" x="0px"
	 y="0px" viewBox="0 0 619.9 491.7" style="enable-background:new 0 0 619.9 491.7;" xml:space="preserve">
<style type="text/css">
	.st0{fill-rule:evenodd;clip-rule:evenodd;fill:#CFD1D8;}
	.st1{fill-rule:evenodd;clip-rule:evenodd;fill:#FFFFCC;}
	.st2{fill:none;stroke:#000000;stroke-width:1.7322;stroke-linecap:round;stroke-linejoin:round;stroke-miterlimit:10;}
	.st3{font-family:'YuGothicUI-Regular';}
	.st4{font-size:11.2598px;}
	.st5{font-family:'YuGothicUI-Bold';}
	.st6{font-size:11.8721px;}
	.st7{fill:none;stroke:#000000;stroke-width:0.3218;stroke-miterlimit:10;}
	.st8{fill-rule:evenodd;clip-rule:evenodd;fill:#CCFFCC;}
	.st9{fill-rule:evenodd;clip-rule:evenodd;fill:#F0F0F0;}
	.st10{fill:none;stroke:#D7D7D7;stroke-width:0.8662;stroke-linecap:square;stroke-miterlimit:10;}
	.st11{fill:none;stroke:#000000;stroke-width:0.8662;stroke-linecap:square;stroke-miterlimit:10;}
	.st12{fill:#003060;}
	.st13{fill-rule:evenodd;clip-rule:evenodd;fill:#FFCCFF;}
	.st14{font-family:'MS-PGothic';}
	.st15{font-size:13.8582px;}
	.st16{fill:none;stroke:#003060;stroke-width:0.396;stroke-miterlimit:10;}
	.st17{fill:none;stroke:#000000;stroke-width:1.7322;stroke-linecap:round;stroke-linejoin:bevel;stroke-miterlimit:10;}
	.st18{fill-rule:evenodd;clip-rule:evenodd;fill:#FFFFFF;}
	.st19{font-family:'Calibri';}
	.st20{font-size:9.5276px;}
</style>
<g>
	<path class="st0" d="M295.4,332.5c1.2,0,2.2,1,2.2,2.2l0,0v129.9l0,0c0,1.2-1,2.2-2.2,2.2l0,0l0,0H74l0,0c-1.2,0-2.2-1-2.2-2.2l0,0
		V334.6c0-1.2,1-2.2,2.2-2.2l0,0H295.4L295.4,332.5L295.4,332.5z"/>
	<path class="st1" d="M292.8,329.9c1.2,0,2.2,1,2.2,2.2l0,0V462l0,0c0,1.2-1,2.2-2.2,2.2l0,0l0,0H71.4l0,0c-1.2,0-2.2-1-2.2-2.2l0,0
		V332c0-1.2,1-2.2,2.2-2.2l0,0H292.8L292.8,329.9L292.8,329.9z"/>
	<path class="st2" d="M292.8,329.9c1.2,0,2.2,1,2.2,2.2l0,0V462l0,0c0,1.2-1,2.2-2.2,2.2l0,0l0,0H71.4l0,0c-1.2,0-2.2-1-2.2-2.2l0,0
		V332c0-1.2,1-2.2,2.2-2.2l0,0H292.8L292.8,329.9L292.8,329.9z"/>
	<text transform="matrix(1.0023 0 0 1 146.5335 347.2161)" class="st3 st4">«</text>
	<text transform="matrix(1.0023 0 0 1 152.6038 347.2161)" class="st3 st4">f</text>
	<text transform="matrix(1.0023 0 0 1 156.0794 347.2161)" class="st3 st4">e</text>
	<text transform="matrix(1.0023 0 0 1 162.1507 347.2161)" class="st3 st4">a</text>
	<text transform="matrix(1.0023 0 0 1 168.2191 347.2161)" class="st3 st4">t</text>
	<text transform="matrix(1.0023 0 0 1 171.6937 347.2161)" class="st3 st4">u</text>
	<text transform="matrix(1.0023 0 0 1 177.7757 347.2161)" class="st3 st4">r</text>
	<text transform="matrix(1.0023 0 0 1 182.1058 347.2161)" class="st3 st4">e</text>
	<text transform="matrix(1.0023 0 0 1 188.1761 347.2161)" class="st3 st4">T</text>
	<text transform="matrix(1.0023 0 0 1 194.2474 347.2161)" class="st3 st4">y</text>
	<text transform="matrix(1.0023 0 0 1 199.4593 347.2161)" class="st3 st4">p</text>
	<text transform="matrix(1.0023 0 0 1 206.3988 347.2161)" class="st3 st4">e</text>
	<text transform="matrix(1.0023 0 0 1 212.47 347.2161)" class="st3 st4">»</text>
	<text transform="matrix(1.0023 0 0 1 137.846 361.9192)" class="st5 st4">f</text>
	<text transform="matrix(1.0023 0 0 1 141.3187 361.9192)" class="st5 st4">r</text>
	<text transform="matrix(1.0023 0 0 1 145.6536 361.9192)" class="st5 st4">n</text>
	<text transform="matrix(1.0023 0 0 1 152.5882 361.9192)" class="st5 st4">:</text>
	<text transform="matrix(1.0023 0 0 1 155.1976 361.9192)" class="st5 st4">:</text>
	<text transform="matrix(1.0023 0 0 1 157.807 361.9192)" class="st5 st4">C</text>
	<text transform="matrix(1.0023 0 0 1 164.7601 361.9192)" class="st5 st4">i</text>
	<text transform="matrix(1.0023 0 0 1 167.3695 361.9192)" class="st5 st4">t</text>
	<text transform="matrix(1.0023 0 0 1 171.7074 361.9192)" class="st5 st4">y</text>
	<text transform="matrix(1.0023 0 0 1 177.7816 361.9192)" class="st5 st4">F</text>
	<text transform="matrix(1.0023 0 0 1 183.8587 361.9192)" class="st5 st4">u</text>
	<text transform="matrix(1.0023 0 0 1 190.7933 361.9192)" class="st5 st4">r</text>
	<text transform="matrix(1.0023 0 0 1 195.1283 361.9192)" class="st5 st4">n</text>
	<text transform="matrix(1.0023 0 0 1 202.0628 361.9192)" class="st5 st4">i</text>
	<text transform="matrix(1.0023 0 0 1 204.6722 361.9192)" class="st5 st4">t</text>
	<text transform="matrix(1.0023 0 0 1 209.0101 361.9192)" class="st5 st4">u</text>
	<text transform="matrix(1.0023 0 0 1 215.9447 361.9192)" class="st5 st4">r</text>
	<text transform="matrix(1.0023 0 0 1 220.2796 361.9192)" class="st5 st4">e</text>
	<line class="st2" x1="69.3" y1="368.9" x2="295" y2="368.9"/>
	<text transform="matrix(1.0023 0 0 1 73.6116 384.4348)" class="st3 st4">+</text>
	<text transform="matrix(1.0023 0 0 1 81.4222 384.4348)" class="st3 st4"> </text>
	<text transform="matrix(1.0023 0 0 1 92.7054 384.4348)" class="st3 st4">c</text>
	<text transform="matrix(1.0023 0 0 1 97.9183 384.4348)" class="st3 st4">l</text>
	<text transform="matrix(1.0023 0 0 1 100.5277 384.4348)" class="st3 st4">a</text>
	<text transform="matrix(1.0023 0 0 1 106.596 384.4348)" class="st3 st4">s</text>
	<text transform="matrix(1.0023 0 0 1 111.803 384.4348)" class="st3 st4">s</text>
	<text transform="matrix(1.0023 0 0 1 117.0091 384.4348)" class="st3 st4">:</text>
	<text transform="matrix(1.0023 0 0 1 119.6019 384.4348)" class="st3 st4"> </text>
	<text transform="matrix(1.0023 0 0 1 123.0657 384.4348)" class="st3 st4">g</text>
	<text transform="matrix(1.0023 0 0 1 130.0052 384.4348)" class="st3 st4">m</text>
	<text transform="matrix(1.0023 0 0 1 139.556 384.4348)" class="st3 st4">l</text>
	<text transform="matrix(1.0023 0 0 1 142.1654 384.4348)" class="st3 st4">:</text>
	<text transform="matrix(1.0023 0 0 1 144.7581 384.4348)" class="st3 st4">:</text>
	<text transform="matrix(1.0023 0 0 1 147.3519 384.4348)" class="st3 st4">C</text>
	<text transform="matrix(1.0023 0 0 1 154.305 384.4348)" class="st3 st4">o</text>
	<text transform="matrix(1.0023 0 0 1 161.2454 384.4348)" class="st3 st4">d</text>
	<text transform="matrix(1.0023 0 0 1 168.1839 384.4348)" class="st3 st4">e</text>
	<text transform="matrix(1.0023 0 0 1 174.2552 384.4348)" class="st3 st4">T</text>
	<text transform="matrix(1.0023 0 0 1 180.3255 384.4348)" class="st3 st4">y</text>
	<text transform="matrix(1.0023 0 0 1 185.5384 384.4348)" class="st3 st4">p</text>
	<text transform="matrix(1.0023 0 0 1 192.4779 384.4348)" class="st3 st4">e</text>
	<text transform="matrix(1.0023 0 0 1 198.5482 384.4348)" class="st3 st4"> </text>
	<text transform="matrix(1.0023 0 0 1 202.012 384.4348)" class="st3 st4">[</text>
	<text transform="matrix(1.0023 0 0 1 205.474 384.4348)" class="st3 st4">0</text>
	<text transform="matrix(1.0023 0 0 1 211.5579 384.4348)" class="st3 st4">.</text>
	<text transform="matrix(1.0023 0 0 1 214.1507 384.4348)" class="st3 st4">.</text>
	<text transform="matrix(1.0023 0 0 1 216.7445 384.4348)" class="st3 st4">1</text>
	<text transform="matrix(1.0023 0 0 1 222.8284 384.4348)" class="st3 st4">]</text>
	<text transform="matrix(1.0023 0 0 1 73.6116 399.1692)" class="st3 st4">+</text>
	<text transform="matrix(1.0023 0 0 1 81.4222 399.1692)" class="st3 st4"> </text>
	<text transform="matrix(1.0023 0 0 1 92.7054 399.1692)" class="st3 st4">f</text>
	<text transform="matrix(1.0023 0 0 1 96.181 399.1692)" class="st3 st4">u</text>
	<text transform="matrix(1.0023 0 0 1 102.263 399.1692)" class="st3 st4">n</text>
	<text transform="matrix(1.0023 0 0 1 108.345 399.1692)" class="st3 st4">c</text>
	<text transform="matrix(1.0023 0 0 1 113.5579 399.1692)" class="st3 st4">t</text>
	<text transform="matrix(1.0023 0 0 1 117.0325 399.1692)" class="st3 st4">i</text>
	<text transform="matrix(1.0023 0 0 1 119.6409 399.1692)" class="st3 st4">o</text>
	<text transform="matrix(1.0023 0 0 1 126.5814 399.1692)" class="st3 st4">n</text>
	<text transform="matrix(1.0023 0 0 1 132.6634 399.1692)" class="st3 st4">:</text>
	<text transform="matrix(1.0023 0 0 1 135.2562 399.1692)" class="st3 st4"> </text>
	<text transform="matrix(1.0023 0 0 1 138.72 399.1692)" class="st3 st4">g</text>
	<text transform="matrix(1.0023 0 0 1 145.6595 399.1692)" class="st3 st4">m</text>
	<text transform="matrix(1.0023 0 0 1 155.2103 399.1692)" class="st3 st4">l</text>
	<text transform="matrix(1.0023 0 0 1 157.8197 399.1692)" class="st3 st4">:</text>
	<text transform="matrix(1.0023 0 0 1 160.4124 399.1692)" class="st3 st4">:</text>
	<text transform="matrix(1.0023 0 0 1 163.0062 399.1692)" class="st3 st4">C</text>
	<text transform="matrix(1.0023 0 0 1 169.9593 399.1692)" class="st3 st4">o</text>
	<text transform="matrix(1.0023 0 0 1 176.8997 399.1692)" class="st3 st4">d</text>
	<text transform="matrix(1.0023 0 0 1 183.8382 399.1692)" class="st3 st4">e</text>
	<text transform="matrix(1.0023 0 0 1 189.9095 399.1692)" class="st3 st4">T</text>
	<text transform="matrix(1.0023 0 0 1 195.9798 399.1692)" class="st3 st4">y</text>
	<text transform="matrix(1.0023 0 0 1 201.1927 399.1692)" class="st3 st4">p</text>
	<text transform="matrix(1.0023 0 0 1 208.1322 399.1692)" class="st3 st4">e</text>
	<text transform="matrix(1.0023 0 0 1 214.2025 399.1692)" class="st3 st4"> </text>
	<text transform="matrix(1.0023 0 0 1 217.6663 399.1692)" class="st3 st4">[</text>
	<text transform="matrix(1.0023 0 0 1 221.1283 399.1692)" class="st3 st4">0</text>
	<text transform="matrix(1.0023 0 0 1 227.2122 399.1692)" class="st3 st4">.</text>
	<text transform="matrix(1.0023 0 0 1 229.805 399.1692)" class="st3 st4">.</text>
	<text transform="matrix(1.0023 0 0 1 232.3988 399.1692)" class="st3 st4">*</text>
	<text transform="matrix(1.0023 0 0 1 236.7435 399.1692)" class="st3 st4">]</text>
	<text transform="matrix(1.0023 0 0 1 73.6116 413.9036)" class="st3 st4">+</text>
	<text transform="matrix(1.0023 0 0 1 81.4222 413.9036)" class="st3 st4"> </text>
	<text transform="matrix(1.0023 0 0 1 92.7054 413.9036)" class="st3 st4">u</text>
	<text transform="matrix(1.0023 0 0 1 98.7874 413.9036)" class="st3 st4">s</text>
	<text transform="matrix(1.0023 0 0 1 103.9935 413.9036)" class="st3 st4">a</text>
	<text transform="matrix(1.0023 0 0 1 110.0628 413.9036)" class="st3 st4">g</text>
	<text transform="matrix(1.0023 0 0 1 117.0013 413.9036)" class="st3 st4">e</text>
	<text transform="matrix(1.0023 0 0 1 123.0726 413.9036)" class="st3 st4">:</text>
	<text transform="matrix(1.0023 0 0 1 125.6663 413.9036)" class="st3 st4"> </text>
	<text transform="matrix(1.0023 0 0 1 129.1302 413.9036)" class="st3 st4">g</text>
	<text transform="matrix(1.0023 0 0 1 136.0687 413.9036)" class="st3 st4">m</text>
	<text transform="matrix(1.0023 0 0 1 145.6195 413.9036)" class="st3 st4">l</text>
	<text transform="matrix(1.0023 0 0 1 148.2288 413.9036)" class="st3 st4">:</text>
	<text transform="matrix(1.0023 0 0 1 150.8226 413.9036)" class="st3 st4">:</text>
	<text transform="matrix(1.0023 0 0 1 153.4154 413.9036)" class="st3 st4">C</text>
	<text transform="matrix(1.0023 0 0 1 160.3695 413.9036)" class="st3 st4">o</text>
	<text transform="matrix(1.0023 0 0 1 167.3089 413.9036)" class="st3 st4">d</text>
	<text transform="matrix(1.0023 0 0 1 174.2484 413.9036)" class="st3 st4">e</text>
	<text transform="matrix(1.0023 0 0 1 180.3187 413.9036)" class="st3 st4">T</text>
	<text transform="matrix(1.0023 0 0 1 186.39 413.9036)" class="st3 st4">y</text>
	<text transform="matrix(1.0023 0 0 1 191.6019 413.9036)" class="st3 st4">p</text>
	<text transform="matrix(1.0023 0 0 1 198.5413 413.9036)" class="st3 st4">e</text>
	<text transform="matrix(1.0023 0 0 1 204.6126 413.9036)" class="st3 st4"> </text>
	<text transform="matrix(1.0023 0 0 1 208.0765 413.9036)" class="st3 st4">[</text>
	<text transform="matrix(1.0023 0 0 1 211.5384 413.9036)" class="st3 st4">0</text>
	<text transform="matrix(1.0023 0 0 1 217.6214 413.9036)" class="st3 st4">.</text>
	<text transform="matrix(1.0023 0 0 1 220.2152 413.9036)" class="st3 st4">.</text>
	<text transform="matrix(1.0023 0 0 1 222.8079 413.9036)" class="st3 st4">*</text>
	<text transform="matrix(1.0023 0 0 1 227.1527 413.9036)" class="st3 st4">]</text>
	<path class="st0" d="M314.5,176.6c1.2,0,2.2,1,2.2,2.2l0,0v117.8l0,0c0,1.2-1,2.2-2.2,2.2l0,0l0,0H30.6l0,0c-1.2,0-2.2-1-2.2-2.2
		l0,0V178.7c0-1.2,1-2.2,2.2-2.2l0,0H314.5L314.5,176.6L314.5,176.6z"/>
	<path class="st1" d="M311.9,174c1.2,0,2.2,1,2.2,2.2l0,0v117.8l0,0c0,1.2-1,2.2-2.2,2.2l0,0l0,0H28l0,0c-1.2,0-2.2-1-2.2-2.2l0,0
		V176.1c0-1.2,1-2.2,2.2-2.2l0,0H311.9L311.9,174L311.9,174z"/>
	<path class="st2" d="M311.9,174c1.2,0,2.2,1,2.2,2.2l0,0v117.8l0,0c0,1.2-1,2.2-2.2,2.2l0,0l0,0H28l0,0c-1.2,0-2.2-1-2.2-2.2l0,0
		V176.1c0-1.2,1-2.2,2.2-2.2l0,0H311.9L311.9,174L311.9,174z"/>
	<text transform="matrix(1.0023 0 0 1 133.5179 191.2932)" class="st3 st4">«</text>
	<text transform="matrix(1.0023 0 0 1 139.5882 191.2932)" class="st3 st4">F</text>
	<text transform="matrix(1.0023 0 0 1 144.805 191.2932)" class="st3 st4">e</text>
	<text transform="matrix(1.0023 0 0 1 150.8763 191.2932)" class="st3 st4">a</text>
	<text transform="matrix(1.0023 0 0 1 156.9447 191.2932)" class="st3 st4">t</text>
	<text transform="matrix(1.0023 0 0 1 160.4193 191.2932)" class="st3 st4">u</text>
	<text transform="matrix(1.0023 0 0 1 166.5013 191.2932)" class="st3 st4">r</text>
	<text transform="matrix(1.0023 0 0 1 170.8314 191.2932)" class="st3 st4">e</text>
	<text transform="matrix(1.0023 0 0 1 176.9017 191.2932)" class="st3 st4">T</text>
	<text transform="matrix(1.0023 0 0 1 182.973 191.2932)" class="st3 st4">y</text>
	<text transform="matrix(1.0023 0 0 1 188.1849 191.2932)" class="st3 st4">p</text>
	<text transform="matrix(1.0023 0 0 1 195.1243 191.2932)" class="st3 st4">e</text>
	<text transform="matrix(1.0023 0 0 1 201.1956 191.2932)" class="st3 st4">»</text>
	<text transform="matrix(0.9506 0 -0.3169 0.9485 127.4253 206.0199)" class="st3 st6">c</text>
	<text transform="matrix(0.9506 0 -0.3169 0.9485 127.4253 206.0199)" class="st7 st3 st6">c</text>
	<text transform="matrix(0.9506 0 -0.3169 0.9485 132.6382 206.0199)" class="st3 st6">o</text>
	<text transform="matrix(0.9506 0 -0.3169 0.9485 132.6382 206.0199)" class="st7 st3 st6">o</text>
	<text transform="matrix(0.9506 0 -0.3169 0.9485 139.5776 206.0199)" class="st3 st6">r</text>
	<text transform="matrix(0.9506 0 -0.3169 0.9485 139.5776 206.0199)" class="st7 st3 st6">r</text>
	<text transform="matrix(0.9506 0 -0.3169 0.9485 143.9077 206.0199)" class="st3 st6">e</text>
	<text transform="matrix(0.9506 0 -0.3169 0.9485 143.9077 206.0199)" class="st7 st3 st6">e</text>
	<text transform="matrix(0.9506 0 -0.3169 0.9485 149.978 206.0199)" class="st3 st6">:</text>
	<text transform="matrix(0.9506 0 -0.3169 0.9485 149.978 206.0199)" class="st7 st3 st6">:</text>
	<text transform="matrix(0.9506 0 -0.3169 0.9485 152.5718 206.0199)" class="st3 st6">:</text>
	<text transform="matrix(0.9506 0 -0.3169 0.9485 152.5718 206.0199)" class="st7 st3 st6">:</text>
	<text transform="matrix(0.9506 0 -0.3169 0.9485 155.1655 206.0199)" class="st3 st6">_</text>
	<text transform="matrix(0.9506 0 -0.3169 0.9485 155.1655 206.0199)" class="st7 st3 st6">_</text>
	<text transform="matrix(0.9506 0 -0.3169 0.9485 159.5112 206.0199)" class="st3 st6">C</text>
	<text transform="matrix(0.9506 0 -0.3169 0.9485 159.5112 206.0199)" class="st7 st3 st6">C</text>
	<text transform="matrix(0.9506 0 -0.3169 0.9485 166.4644 206.0199)" class="st3 st6">i</text>
	<text transform="matrix(0.9506 0 -0.3169 0.9485 166.4644 206.0199)" class="st7 st3 st6">i</text>
	<text transform="matrix(0.9506 0 -0.3169 0.9485 169.0737 206.0199)" class="st3 st6">t</text>
	<text transform="matrix(0.9506 0 -0.3169 0.9485 169.0737 206.0199)" class="st7 st3 st6">t</text>
	<text transform="matrix(0.9506 0 -0.3169 0.9485 173.4058 206.0199)" class="st3 st6">y</text>
	<text transform="matrix(0.9506 0 -0.3169 0.9485 173.4058 206.0199)" class="st7 st3 st6">y</text>
	<text transform="matrix(0.9506 0 -0.3169 0.9485 179.4761 206.0199)" class="st3 st6">O</text>
	<text transform="matrix(0.9506 0 -0.3169 0.9485 179.4761 206.0199)" class="st7 st3 st6">O</text>
	<text transform="matrix(0.9506 0 -0.3169 0.9485 188.1538 206.0199)" class="st3 st6">b</text>
	<text transform="matrix(0.9506 0 -0.3169 0.9485 188.1538 206.0199)" class="st7 st3 st6">b</text>
	<text transform="matrix(0.9506 0 -0.3169 0.9485 195.0913 206.0199)" class="st3 st6">j</text>
	<text transform="matrix(0.9506 0 -0.3169 0.9485 195.0913 206.0199)" class="st7 st3 st6">j</text>
	<text transform="matrix(0.9506 0 -0.3169 0.9485 197.7007 206.0199)" class="st3 st6">e</text>
	<text transform="matrix(0.9506 0 -0.3169 0.9485 197.7007 206.0199)" class="st7 st3 st6">e</text>
	<text transform="matrix(0.9506 0 -0.3169 0.9485 203.7729 206.0199)" class="st3 st6">c</text>
	<text transform="matrix(0.9506 0 -0.3169 0.9485 203.7729 206.0199)" class="st7 st3 st6">c</text>
	<text transform="matrix(0.9506 0 -0.3169 0.9485 208.9858 206.0199)" class="st3 st6">t</text>
	<text transform="matrix(0.9506 0 -0.3169 0.9485 208.9858 206.0199)" class="st7 st3 st6">t</text>
	<line class="st2" x1="25.9" y1="213" x2="314.1" y2="213"/>
	<text transform="matrix(1.0023 0 0 1 30.2054 228.5432)" class="st3 st4">+</text>
	<text transform="matrix(1.0023 0 0 1 38.0159 228.5432)" class="st3 st4"> </text>
	<text transform="matrix(1.0023 0 0 1 49.2991 228.5432)" class="st3 st4">c</text>
	<text transform="matrix(1.0023 0 0 1 54.512 228.5432)" class="st3 st4">r</text>
	<text transform="matrix(1.0023 0 0 1 58.8421 228.5432)" class="st3 st4">e</text>
	<text transform="matrix(1.0023 0 0 1 64.9124 228.5432)" class="st3 st4">a</text>
	<text transform="matrix(1.0023 0 0 1 70.9818 228.5432)" class="st3 st4">t</text>
	<text transform="matrix(1.0023 0 0 1 74.4564 228.5432)" class="st3 st4">i</text>
	<text transform="matrix(1.0023 0 0 1 77.0657 228.5432)" class="st3 st4">o</text>
	<text transform="matrix(1.0023 0 0 1 84.0052 228.5432)" class="st3 st4">n</text>
	<text transform="matrix(1.0023 0 0 1 90.0872 228.5432)" class="st3 st4">D</text>
	<text transform="matrix(1.0023 0 0 1 97.9095 228.5432)" class="st3 st4">a</text>
	<text transform="matrix(1.0023 0 0 1 103.9788 228.5432)" class="st3 st4">t</text>
	<text transform="matrix(1.0023 0 0 1 107.4534 228.5432)" class="st3 st4">e</text>
	<text transform="matrix(1.0023 0 0 1 113.5247 228.5432)" class="st3 st4">:</text>
	<text transform="matrix(1.0023 0 0 1 116.1175 228.5432)" class="st3 st4"> </text>
	<text transform="matrix(1.0023 0 0 1 119.5814 228.5432)" class="st3 st4">x</text>
	<text transform="matrix(1.0023 0 0 1 124.7835 228.5432)" class="st3 st4">s</text>
	<text transform="matrix(1.0023 0 0 1 129.9896 228.5432)" class="st3 st4">:</text>
	<text transform="matrix(1.0023 0 0 1 132.5833 228.5432)" class="st3 st4">:</text>
	<text transform="matrix(1.0023 0 0 1 135.1771 228.5432)" class="st3 st4">d</text>
	<text transform="matrix(1.0023 0 0 1 142.1156 228.5432)" class="st3 st4">a</text>
	<text transform="matrix(1.0023 0 0 1 148.1849 228.5432)" class="st3 st4">t</text>
	<text transform="matrix(1.0023 0 0 1 151.6595 228.5432)" class="st3 st4">e</text>
	<text transform="matrix(1.0023 0 0 1 157.7298 228.5432)" class="st3 st4"> </text>
	<text transform="matrix(1.0023 0 0 1 161.1937 228.5432)" class="st3 st4">[</text>
	<text transform="matrix(1.0023 0 0 1 164.6556 228.5432)" class="st3 st4">0</text>
	<text transform="matrix(1.0023 0 0 1 170.7396 228.5432)" class="st3 st4">.</text>
	<text transform="matrix(1.0023 0 0 1 173.3324 228.5432)" class="st3 st4">.</text>
	<text transform="matrix(1.0023 0 0 1 175.9261 228.5432)" class="st3 st4">1</text>
	<text transform="matrix(1.0023 0 0 1 182.0101 228.5432)" class="st3 st4">]</text>
	<text transform="matrix(1.0023 0 0 1 30.2054 243.2776)" class="st3 st4">+</text>
	<text transform="matrix(1.0023 0 0 1 38.0159 243.2776)" class="st3 st4"> </text>
	<text transform="matrix(1.0023 0 0 1 49.2991 243.2776)" class="st3 st4">t</text>
	<text transform="matrix(1.0023 0 0 1 52.7738 243.2776)" class="st3 st4">e</text>
	<text transform="matrix(1.0023 0 0 1 58.8441 243.2776)" class="st3 st4">r</text>
	<text transform="matrix(1.0023 0 0 1 63.1741 243.2776)" class="st3 st4">m</text>
	<text transform="matrix(1.0023 0 0 1 72.7249 243.2776)" class="st3 st4">i</text>
	<text transform="matrix(1.0023 0 0 1 75.3343 243.2776)" class="st3 st4">n</text>
	<text transform="matrix(1.0023 0 0 1 81.4163 243.2776)" class="st3 st4">a</text>
	<text transform="matrix(1.0023 0 0 1 87.4857 243.2776)" class="st3 st4">t</text>
	<text transform="matrix(1.0023 0 0 1 90.9603 243.2776)" class="st3 st4">i</text>
	<text transform="matrix(1.0023 0 0 1 93.5687 243.2776)" class="st3 st4">o</text>
	<text transform="matrix(1.0023 0 0 1 100.5091 243.2776)" class="st3 st4">n</text>
	<text transform="matrix(1.0023 0 0 1 106.5911 243.2776)" class="st3 st4">D</text>
	<text transform="matrix(1.0023 0 0 1 114.4134 243.2776)" class="st3 st4">a</text>
	<text transform="matrix(1.0023 0 0 1 120.4827 243.2776)" class="st3 st4">t</text>
	<text transform="matrix(1.0023 0 0 1 123.9573 243.2776)" class="st3 st4">e</text>
	<text transform="matrix(1.0023 0 0 1 130.0277 243.2776)" class="st3 st4">:</text>
	<text transform="matrix(1.0023 0 0 1 132.6214 243.2776)" class="st3 st4"> </text>
	<text transform="matrix(1.0023 0 0 1 136.0853 243.2776)" class="st3 st4">x</text>
	<text transform="matrix(1.0023 0 0 1 141.2874 243.2776)" class="st3 st4">s</text>
	<text transform="matrix(1.0023 0 0 1 146.4935 243.2776)" class="st3 st4">:</text>
	<text transform="matrix(1.0023 0 0 1 149.0872 243.2776)" class="st3 st4">:</text>
	<text transform="matrix(1.0023 0 0 1 151.68 243.2776)" class="st3 st4">d</text>
	<text transform="matrix(1.0023 0 0 1 158.6195 243.2776)" class="st3 st4">a</text>
	<text transform="matrix(1.0023 0 0 1 164.6888 243.2776)" class="st3 st4">t</text>
	<text transform="matrix(1.0023 0 0 1 168.1624 243.2776)" class="st3 st4">e</text>
	<text transform="matrix(1.0023 0 0 1 174.2337 243.2776)" class="st3 st4"> </text>
	<text transform="matrix(1.0023 0 0 1 177.6976 243.2776)" class="st3 st4">[</text>
	<text transform="matrix(1.0023 0 0 1 181.1595 243.2776)" class="st3 st4">0</text>
	<text transform="matrix(1.0023 0 0 1 187.2435 243.2776)" class="st3 st4">.</text>
	<text transform="matrix(1.0023 0 0 1 189.8363 243.2776)" class="st3 st4">.</text>
	<text transform="matrix(1.0023 0 0 1 192.43 243.2776)" class="st3 st4">1</text>
	<text transform="matrix(1.0023 0 0 1 198.513 243.2776)" class="st3 st4">]</text>
	<text transform="matrix(1.0023 0 0 1 30.2054 257.9973)" class="st3 st4">+</text>
	<text transform="matrix(1.0023 0 0 1 38.0159 257.9973)" class="st3 st4"> </text>
	<text transform="matrix(1.0023 0 0 1 49.2991 257.9973)" class="st3 st4">r</text>
	<text transform="matrix(1.0023 0 0 1 53.6292 257.9973)" class="st3 st4">e</text>
	<text transform="matrix(1.0023 0 0 1 59.6995 257.9973)" class="st3 st4">l</text>
	<text transform="matrix(1.0023 0 0 1 62.3089 257.9973)" class="st3 st4">a</text>
	<text transform="matrix(1.0023 0 0 1 68.3782 257.9973)" class="st3 st4">t</text>
	<text transform="matrix(1.0023 0 0 1 71.8529 257.9973)" class="st3 st4">i</text>
	<text transform="matrix(1.0023 0 0 1 74.4613 257.9973)" class="st3 st4">v</text>
	<text transform="matrix(1.0023 0 0 1 79.6751 257.9973)" class="st3 st4">e</text>
	<text transform="matrix(1.0023 0 0 1 85.7464 257.9973)" class="st3 st4">T</text>
	<text transform="matrix(1.0023 0 0 1 91.8167 257.9973)" class="st3 st4">o</text>
	<text transform="matrix(1.0023 0 0 1 98.7571 257.9973)" class="st3 st4">T</text>
	<text transform="matrix(1.0023 0 0 1 104.8275 257.9973)" class="st3 st4">e</text>
	<text transform="matrix(1.0023 0 0 1 110.8988 257.9973)" class="st3 st4">r</text>
	<text transform="matrix(1.0023 0 0 1 115.2279 257.9973)" class="st3 st4">r</text>
	<text transform="matrix(1.0023 0 0 1 119.5579 257.9973)" class="st3 st4">a</text>
	<text transform="matrix(1.0023 0 0 1 125.6273 257.9973)" class="st3 st4">i</text>
	<text transform="matrix(1.0023 0 0 1 128.2366 257.9973)" class="st3 st4">n</text>
	<text transform="matrix(1.0023 0 0 1 134.3177 257.9973)" class="st3 st4">:</text>
	<text transform="matrix(1.0023 0 0 1 136.9115 257.9973)" class="st3 st4"> </text>
	<text transform="matrix(1.0023 0 0 1 140.3753 257.9973)" class="st3 st4">c</text>
	<text transform="matrix(1.0023 0 0 1 145.5882 257.9973)" class="st3 st4">o</text>
	<text transform="matrix(1.0023 0 0 1 152.5277 257.9973)" class="st3 st4">r</text>
	<text transform="matrix(1.0023 0 0 1 156.8577 257.9973)" class="st3 st4">e</text>
	<text transform="matrix(1.0023 0 0 1 162.929 257.9973)" class="st3 st4">:</text>
	<text transform="matrix(1.0023 0 0 1 165.5218 257.9973)" class="st3 st4">:</text>
	<text transform="matrix(1.0023 0 0 1 168.1156 257.9973)" class="st3 st4">R</text>
	<text transform="matrix(1.0023 0 0 1 175.0579 257.9973)" class="st3 st4">e</text>
	<text transform="matrix(1.0023 0 0 1 181.1283 257.9973)" class="st3 st4">l</text>
	<text transform="matrix(1.0023 0 0 1 183.7376 257.9973)" class="st3 st4">a</text>
	<text transform="matrix(1.0023 0 0 1 189.807 257.9973)" class="st3 st4">t</text>
	<text transform="matrix(1.0023 0 0 1 193.2816 257.9973)" class="st3 st4">i</text>
	<text transform="matrix(1.0023 0 0 1 195.89 257.9973)" class="st3 st4">v</text>
	<text transform="matrix(1.0023 0 0 1 201.1038 257.9973)" class="st3 st4">e</text>
	<text transform="matrix(1.0023 0 0 1 207.1751 257.9973)" class="st3 st4">T</text>
	<text transform="matrix(1.0023 0 0 1 213.2454 257.9973)" class="st3 st4">o</text>
	<text transform="matrix(1.0023 0 0 1 220.1859 257.9973)" class="st3 st4">T</text>
	<text transform="matrix(1.0023 0 0 1 226.2562 257.9973)" class="st3 st4">e</text>
	<text transform="matrix(1.0023 0 0 1 232.3275 257.9973)" class="st3 st4">r</text>
	<text transform="matrix(1.0023 0 0 1 236.6566 257.9973)" class="st3 st4">r</text>
	<text transform="matrix(1.0023 0 0 1 240.9866 257.9973)" class="st3 st4">a</text>
	<text transform="matrix(1.0023 0 0 1 247.056 257.9973)" class="st3 st4">i</text>
	<text transform="matrix(1.0023 0 0 1 249.6654 257.9973)" class="st3 st4">n</text>
	<text transform="matrix(1.0023 0 0 1 255.7464 257.9973)" class="st3 st4">T</text>
	<text transform="matrix(1.0023 0 0 1 261.8177 257.9973)" class="st3 st4">y</text>
	<text transform="matrix(1.0023 0 0 1 267.0306 257.9973)" class="st3 st4">p</text>
	<text transform="matrix(1.0023 0 0 1 273.9691 257.9973)" class="st3 st4">e</text>
	<text transform="matrix(1.0023 0 0 1 280.0403 257.9973)" class="st3 st4"> </text>
	<text transform="matrix(1.0023 0 0 1 283.5042 257.9973)" class="st3 st4">[</text>
	<text transform="matrix(1.0023 0 0 1 286.9671 257.9973)" class="st3 st4">0</text>
	<text transform="matrix(1.0023 0 0 1 293.0491 257.9973)" class="st3 st4">.</text>
	<text transform="matrix(1.0023 0 0 1 295.6429 257.9973)" class="st3 st4">.</text>
	<text transform="matrix(1.0023 0 0 1 298.2366 257.9973)" class="st3 st4">1</text>
	<text transform="matrix(1.0023 0 0 1 304.3206 257.9973)" class="st3 st4">]</text>
	<text transform="matrix(1.0023 0 0 1 30.2054 272.7161)" class="st3 st4">+</text>
	<text transform="matrix(1.0023 0 0 1 38.0159 272.7161)" class="st3 st4"> </text>
	<text transform="matrix(1.0023 0 0 1 49.2991 272.7161)" class="st3 st4">r</text>
	<text transform="matrix(1.0023 0 0 1 53.6292 272.7161)" class="st3 st4">e</text>
	<text transform="matrix(1.0023 0 0 1 59.6995 272.7161)" class="st3 st4">l</text>
	<text transform="matrix(1.0023 0 0 1 62.3089 272.7161)" class="st3 st4">a</text>
	<text transform="matrix(1.0023 0 0 1 68.3782 272.7161)" class="st3 st4">t</text>
	<text transform="matrix(1.0023 0 0 1 71.8529 272.7161)" class="st3 st4">i</text>
	<text transform="matrix(1.0023 0 0 1 74.4613 272.7161)" class="st3 st4">v</text>
	<text transform="matrix(1.0023 0 0 1 79.6751 272.7161)" class="st3 st4">e</text>
	<text transform="matrix(1.0023 0 0 1 85.7464 272.7161)" class="st3 st4">T</text>
	<text transform="matrix(1.0023 0 0 1 91.8167 272.7161)" class="st3 st4">o</text>
	<text transform="matrix(1.0023 0 0 1 98.7571 272.7161)" class="st3 st4">W</text>
	<text transform="matrix(1.0023 0 0 1 109.1741 272.7161)" class="st3 st4">a</text>
	<text transform="matrix(1.0023 0 0 1 115.2435 272.7161)" class="st3 st4">t</text>
	<text transform="matrix(1.0023 0 0 1 118.7181 272.7161)" class="st3 st4">e</text>
	<text transform="matrix(1.0023 0 0 1 124.7884 272.7161)" class="st3 st4">r</text>
	<text transform="matrix(1.0023 0 0 1 129.1185 272.7161)" class="st3 st4">:</text>
	<text transform="matrix(1.0023 0 0 1 131.7122 272.7161)" class="st3 st4"> </text>
	<text transform="matrix(1.0023 0 0 1 135.1761 272.7161)" class="st3 st4">c</text>
	<text transform="matrix(1.0023 0 0 1 140.389 272.7161)" class="st3 st4">o</text>
	<text transform="matrix(1.0023 0 0 1 147.3284 272.7161)" class="st3 st4">r</text>
	<text transform="matrix(1.0023 0 0 1 151.6585 272.7161)" class="st3 st4">e</text>
	<text transform="matrix(1.0023 0 0 1 157.7288 272.7161)" class="st3 st4">:</text>
	<text transform="matrix(1.0023 0 0 1 160.3226 272.7161)" class="st3 st4">:</text>
	<text transform="matrix(1.0023 0 0 1 162.9154 272.7161)" class="st3 st4">R</text>
	<text transform="matrix(1.0023 0 0 1 169.8577 272.7161)" class="st3 st4">e</text>
	<text transform="matrix(1.0023 0 0 1 175.929 272.7161)" class="st3 st4">l</text>
	<text transform="matrix(1.0023 0 0 1 178.5384 272.7161)" class="st3 st4">a</text>
	<text transform="matrix(1.0023 0 0 1 184.6068 272.7161)" class="st3 st4">t</text>
	<text transform="matrix(1.0023 0 0 1 188.0814 272.7161)" class="st3 st4">i</text>
	<text transform="matrix(1.0023 0 0 1 190.6908 272.7161)" class="st3 st4">v</text>
	<text transform="matrix(1.0023 0 0 1 195.9046 272.7161)" class="st3 st4">e</text>
	<text transform="matrix(1.0023 0 0 1 201.9759 272.7161)" class="st3 st4">T</text>
	<text transform="matrix(1.0023 0 0 1 208.0462 272.7161)" class="st3 st4">o</text>
	<text transform="matrix(1.0023 0 0 1 214.9857 272.7161)" class="st3 st4">W</text>
	<text transform="matrix(1.0023 0 0 1 225.4036 272.7161)" class="st3 st4">a</text>
	<text transform="matrix(1.0023 0 0 1 231.473 272.7161)" class="st3 st4">t</text>
	<text transform="matrix(1.0023 0 0 1 234.9466 272.7161)" class="st3 st4">e</text>
	<text transform="matrix(1.0023 0 0 1 241.0179 272.7161)" class="st3 st4">r</text>
	<text transform="matrix(1.0023 0 0 1 245.348 272.7161)" class="st3 st4">T</text>
	<text transform="matrix(1.0023 0 0 1 251.4183 272.7161)" class="st3 st4">y</text>
	<text transform="matrix(1.0023 0 0 1 256.6312 272.7161)" class="st3 st4">p</text>
	<text transform="matrix(1.0023 0 0 1 263.5706 272.7161)" class="st3 st4">e</text>
	<text transform="matrix(1.0023 0 0 1 269.6409 272.7161)" class="st3 st4"> </text>
	<text transform="matrix(1.0023 0 0 1 273.1048 272.7161)" class="st3 st4">[</text>
	<text transform="matrix(1.0023 0 0 1 276.5667 272.7161)" class="st3 st4">0</text>
	<text transform="matrix(1.0023 0 0 1 282.6507 272.7161)" class="st3 st4">.</text>
	<text transform="matrix(1.0023 0 0 1 285.2444 272.7161)" class="st3 st4">.</text>
	<text transform="matrix(1.0023 0 0 1 287.8382 272.7161)" class="st3 st4">1</text>
	<text transform="matrix(1.0023 0 0 1 293.9202 272.7161)" class="st3 st4">]</text>
	<path class="st0" d="M563.7,331.6c1.2,0,2.2,1,2.2,2.2l0,0v98.7l0,0c0,1.2-1,2.2-2.2,2.2l0,0l0,0h-81.6l0,0c-1.2,0-2.2-1-2.2-2.2
		l0,0v-98.7c0-1.2,1-2.2,2.2-2.2l0,0H563.7L563.7,331.6L563.7,331.6z"/>
	<path class="st8" d="M561.1,329c1.2,0,2.2,1,2.2,2.2l0,0v98.7l0,0c0,1.2-1,2.2-2.2,2.2l0,0l0,0h-81.6l0,0c-1.2,0-2.2-1-2.2-2.2l0,0
		v-98.7c0-1.2,1-2.2,2.2-2.2l0,0H561.1L561.1,329L561.1,329z"/>
	<path class="st2" d="M561.1,329c1.2,0,2.2,1,2.2,2.2l0,0v98.7l0,0c0,1.2-1,2.2-2.2,2.2l0,0l0,0h-81.6l0,0c-1.2,0-2.2-1-2.2-2.2l0,0
		v-98.7c0-1.2,1-2.2,2.2-2.2l0,0H561.1L561.1,329L561.1,329z"/>
	<text transform="matrix(1.0023 0 0 1 502.4554 346.3411)" class="st3 st4">«</text>
	<text transform="matrix(1.0023 0 0 1 508.5257 346.3411)" class="st3 st4">T</text>
	<text transform="matrix(1.0023 0 0 1 514.596 346.3411)" class="st3 st4">y</text>
	<text transform="matrix(1.0023 0 0 1 519.8089 346.3411)" class="st3 st4">p</text>
	<text transform="matrix(1.0023 0 0 1 526.7484 346.3411)" class="st3 st4">e</text>
	<text transform="matrix(1.0023 0 0 1 532.8187 346.3411)" class="st3 st4">»</text>
	<text transform="matrix(0.9506 0 -0.3169 0.9485 479.876 361.0639)" class="st3 st6">g</text>
	<text transform="matrix(0.9506 0 -0.3169 0.9485 479.876 361.0639)" class="st7 st3 st6">g</text>
	<text transform="matrix(0.9506 0 -0.3169 0.9485 486.8155 361.0639)" class="st3 st6">m</text>
	<text transform="matrix(0.9506 0 -0.3169 0.9485 486.8155 361.0639)" class="st7 st3 st6">m</text>
	<text transform="matrix(0.9506 0 -0.3169 0.9485 497.2237 361.0639)" class="st3 st6">l</text>
	<text transform="matrix(0.9506 0 -0.3169 0.9485 497.2237 361.0639)" class="st7 st3 st6">l</text>
	<text transform="matrix(0.9506 0 -0.3169 0.9485 499.833 361.0639)" class="st3 st6">:</text>
	<text transform="matrix(0.9506 0 -0.3169 0.9485 499.833 361.0639)" class="st7 st3 st6">:</text>
	<text transform="matrix(0.9506 0 -0.3169 0.9485 502.4268 361.0639)" class="st3 st6">:</text>
	<text transform="matrix(0.9506 0 -0.3169 0.9485 502.4268 361.0639)" class="st7 st3 st6">:</text>
	<text transform="matrix(0.9506 0 -0.3169 0.9485 505.0205 361.0639)" class="st3 st6">_</text>
	<text transform="matrix(0.9506 0 -0.3169 0.9485 505.0205 361.0639)" class="st7 st3 st6">_</text>
	<text transform="matrix(0.9506 0 -0.3169 0.9485 509.3643 361.0639)" class="st3 st6">G</text>
	<text transform="matrix(0.9506 0 -0.3169 0.9485 509.3643 361.0639)" class="st7 st3 st6">G</text>
	<text transform="matrix(0.9506 0 -0.3169 0.9485 517.1749 361.0639)" class="st3 st6">e</text>
	<text transform="matrix(0.9506 0 -0.3169 0.9485 517.1749 361.0639)" class="st7 st3 st6">e</text>
	<text transform="matrix(0.9506 0 -0.3169 0.9485 523.2452 361.0639)" class="st3 st6">o</text>
	<text transform="matrix(0.9506 0 -0.3169 0.9485 523.2452 361.0639)" class="st7 st3 st6">o</text>
	<text transform="matrix(0.9506 0 -0.3169 0.9485 530.1866 361.0639)" class="st3 st6">m</text>
	<text transform="matrix(0.9506 0 -0.3169 0.9485 530.1866 361.0639)" class="st7 st3 st6">m</text>
	<text transform="matrix(0.9506 0 -0.3169 0.9485 540.5948 361.0639)" class="st3 st6">e</text>
	<text transform="matrix(0.9506 0 -0.3169 0.9485 540.5948 361.0639)" class="st7 st3 st6">e</text>
	<text transform="matrix(0.9506 0 -0.3169 0.9485 546.6651 361.0639)" class="st3 st6">t</text>
	<text transform="matrix(0.9506 0 -0.3169 0.9485 546.6651 361.0639)" class="st7 st3 st6">t</text>
	<text transform="matrix(0.9506 0 -0.3169 0.9485 550.9971 361.0639)" class="st3 st6">r</text>
	<text transform="matrix(0.9506 0 -0.3169 0.9485 550.9971 361.0639)" class="st7 st3 st6">r</text>
	<text transform="matrix(0.9506 0 -0.3169 0.9485 555.3272 361.0639)" class="st3 st6">y</text>
	<text transform="matrix(0.9506 0 -0.3169 0.9485 555.3272 361.0639)" class="st7 st3 st6">y</text>
	<path class="st0" d="M285.9,28.5c1.2,0,2.2,1,2.2,2.2l0,0v100.5l0,0c0,1.2-1,2.2-2.2,2.2l0,0l0,0H65.4l0,0c-1.2,0-2.2-1-2.2-2.2
		l0,0V30.6c0-1.2,1-2.2,2.2-2.2l0,0L285.9,28.5L285.9,28.5L285.9,28.5z"/>
	<path class="st8" d="M283.3,25.9c1.2,0,2.2,1,2.2,2.2l0,0v100.5l0,0c0,1.2-1,2.2-2.2,2.2l0,0l0,0H62.8l0,0c-1.2,0-2.2-1-2.2-2.2
		l0,0V28c0-1.2,1-2.2,2.2-2.2l0,0H283.3L283.3,25.9L283.3,25.9z"/>
	<path class="st2" d="M283.3,25.9c1.2,0,2.2,1,2.2,2.2l0,0v100.5l0,0c0,1.2-1,2.2-2.2,2.2l0,0l0,0H62.8l0,0c-1.2,0-2.2-1-2.2-2.2
		l0,0V28c0-1.2,1-2.2,2.2-2.2l0,0H283.3L283.3,25.9L283.3,25.9z"/>
	<text transform="matrix(1.0023 0 0 1 136.1116 43.1839)" class="st3 st4">«</text>
	<text transform="matrix(1.0023 0 0 1 142.182 43.1839)" class="st3 st4">F</text>
	<text transform="matrix(1.0023 0 0 1 147.3988 43.1839)" class="st3 st4">e</text>
	<text transform="matrix(1.0023 0 0 1 153.47 43.1839)" class="st3 st4">a</text>
	<text transform="matrix(1.0023 0 0 1 159.5384 43.1839)" class="st3 st4">t</text>
	<text transform="matrix(1.0023 0 0 1 163.013 43.1839)" class="st3 st4">u</text>
	<text transform="matrix(1.0023 0 0 1 169.095 43.1839)" class="st3 st4">r</text>
	<text transform="matrix(1.0023 0 0 1 173.4251 43.1839)" class="st3 st4">e</text>
	<text transform="matrix(1.0023 0 0 1 179.4954 43.1839)" class="st3 st4">T</text>
	<text transform="matrix(1.0023 0 0 1 185.5667 43.1839)" class="st3 st4">y</text>
	<text transform="matrix(1.0023 0 0 1 190.7786 43.1839)" class="st3 st4">p</text>
	<text transform="matrix(1.0023 0 0 1 197.7181 43.1839)" class="st3 st4">e</text>
	<text transform="matrix(1.0023 0 0 1 203.7894 43.1839)" class="st3 st4">»</text>
	<text transform="matrix(0.9506 0 -0.3169 0.9485 138.6836 57.9263)" class="st3 st6">g</text>
	<text transform="matrix(0.9506 0 -0.3169 0.9485 138.6836 57.9263)" class="st7 st3 st6">g</text>
	<text transform="matrix(0.9506 0 -0.3169 0.9485 145.6231 57.9263)" class="st3 st6">m</text>
	<text transform="matrix(0.9506 0 -0.3169 0.9485 145.6231 57.9263)" class="st7 st3 st6">m</text>
	<text transform="matrix(0.9506 0 -0.3169 0.9485 156.0313 57.9263)" class="st3 st6">l</text>
	<text transform="matrix(0.9506 0 -0.3169 0.9485 156.0313 57.9263)" class="st7 st3 st6">l</text>
	<text transform="matrix(0.9506 0 -0.3169 0.9485 158.6407 57.9263)" class="st3 st6">:</text>
	<text transform="matrix(0.9506 0 -0.3169 0.9485 158.6407 57.9263)" class="st7 st3 st6">:</text>
	<text transform="matrix(0.9506 0 -0.3169 0.9485 161.2344 57.9263)" class="st3 st6">:</text>
	<text transform="matrix(0.9506 0 -0.3169 0.9485 161.2344 57.9263)" class="st7 st3 st6">:</text>
	<text transform="matrix(0.9506 0 -0.3169 0.9485 163.8282 57.9263)" class="st3 st6">_</text>
	<text transform="matrix(0.9506 0 -0.3169 0.9485 163.8282 57.9263)" class="st7 st3 st6">_</text>
	<text transform="matrix(0.9506 0 -0.3169 0.9485 168.1719 57.9263)" class="st3 st6">F</text>
	<text transform="matrix(0.9506 0 -0.3169 0.9485 168.1719 57.9263)" class="st7 st3 st6">F</text>
	<text transform="matrix(0.9506 0 -0.3169 0.9485 174.2481 57.9263)" class="st3 st6">e</text>
	<text transform="matrix(0.9506 0 -0.3169 0.9485 174.2481 57.9263)" class="st7 st3 st6">e</text>
	<text transform="matrix(0.9506 0 -0.3169 0.9485 180.3184 57.9263)" class="st3 st6">a</text>
	<text transform="matrix(0.9506 0 -0.3169 0.9485 180.3184 57.9263)" class="st7 st3 st6">a</text>
	<text transform="matrix(0.9506 0 -0.3169 0.9485 186.3867 57.9263)" class="st3 st6">t</text>
	<text transform="matrix(0.9506 0 -0.3169 0.9485 186.3867 57.9263)" class="st7 st3 st6">t</text>
	<text transform="matrix(0.9506 0 -0.3169 0.9485 190.7188 57.9263)" class="st3 st6">u</text>
	<text transform="matrix(0.9506 0 -0.3169 0.9485 190.7188 57.9263)" class="st7 st3 st6">u</text>
	<text transform="matrix(0.9506 0 -0.3169 0.9485 197.6582 57.9263)" class="st3 st6">r</text>
	<text transform="matrix(0.9506 0 -0.3169 0.9485 197.6582 57.9263)" class="st7 st3 st6">r</text>
	<text transform="matrix(0.9506 0 -0.3169 0.9485 201.9883 57.9263)" class="st3 st6">e</text>
	<text transform="matrix(0.9506 0 -0.3169 0.9485 201.9883 57.9263)" class="st7 st3 st6">e</text>
	<line class="st2" x1="60.6" y1="64.8" x2="285.4" y2="64.8"/>
	<text transform="matrix(1.0023 0 0 1 64.9241 80.4339)" class="st3 st4">+</text>
	<text transform="matrix(1.0023 0 0 1 72.7347 80.4339)" class="st3 st4"> </text>
	<text transform="matrix(1.0023 0 0 1 84.0179 80.4339)" class="st3 st4">d</text>
	<text transform="matrix(1.0023 0 0 1 90.9573 80.4339)" class="st3 st4">e</text>
	<text transform="matrix(1.0023 0 0 1 97.0277 80.4339)" class="st3 st4">s</text>
	<text transform="matrix(1.0023 0 0 1 102.2337 80.4339)" class="st3 st4">c</text>
	<text transform="matrix(1.0023 0 0 1 107.4466 80.4339)" class="st3 st4">r</text>
	<text transform="matrix(1.0023 0 0 1 111.7767 80.4339)" class="st3 st4">i</text>
	<text transform="matrix(1.0023 0 0 1 114.3861 80.4339)" class="st3 st4">p</text>
	<text transform="matrix(1.0023 0 0 1 121.3245 80.4339)" class="st3 st4">t</text>
	<text transform="matrix(1.0023 0 0 1 124.7991 80.4339)" class="st3 st4">i</text>
	<text transform="matrix(1.0023 0 0 1 127.4085 80.4339)" class="st3 st4">o</text>
	<text transform="matrix(1.0023 0 0 1 134.348 80.4339)" class="st3 st4">n</text>
	<text transform="matrix(1.0023 0 0 1 140.43 80.4339)" class="st3 st4">:</text>
	<text transform="matrix(1.0023 0 0 1 143.0238 80.4339)" class="st3 st4"> </text>
	<text transform="matrix(1.0023 0 0 1 146.4876 80.4339)" class="st3 st4">g</text>
	<text transform="matrix(1.0023 0 0 1 153.4261 80.4339)" class="st3 st4">m</text>
	<text transform="matrix(1.0023 0 0 1 162.9779 80.4339)" class="st3 st4">l</text>
	<text transform="matrix(1.0023 0 0 1 165.5863 80.4339)" class="st3 st4">:</text>
	<text transform="matrix(1.0023 0 0 1 168.18 80.4339)" class="st3 st4">:</text>
	<text transform="matrix(1.0023 0 0 1 170.7728 80.4339)" class="st3 st4">S</text>
	<text transform="matrix(1.0023 0 0 1 176.848 80.4339)" class="st3 st4">t</text>
	<text transform="matrix(1.0023 0 0 1 180.3216 80.4339)" class="st3 st4">r</text>
	<text transform="matrix(1.0023 0 0 1 184.6517 80.4339)" class="st3 st4">i</text>
	<text transform="matrix(1.0023 0 0 1 187.2611 80.4339)" class="st3 st4">n</text>
	<text transform="matrix(1.0023 0 0 1 193.3431 80.4339)" class="st3 st4">g</text>
	<text transform="matrix(1.0023 0 0 1 200.2816 80.4339)" class="st3 st4">O</text>
	<text transform="matrix(1.0023 0 0 1 208.9593 80.4339)" class="st3 st4">r</text>
	<text transform="matrix(1.0023 0 0 1 213.2884 80.4339)" class="st3 st4">R</text>
	<text transform="matrix(1.0023 0 0 1 220.2308 80.4339)" class="st3 st4">e</text>
	<text transform="matrix(1.0023 0 0 1 226.3021 80.4339)" class="st3 st4">f</text>
	<text transform="matrix(1.0023 0 0 1 229.7777 80.4339)" class="st3 st4">T</text>
	<text transform="matrix(1.0023 0 0 1 235.848 80.4339)" class="st3 st4">y</text>
	<text transform="matrix(1.0023 0 0 1 241.0609 80.4339)" class="st3 st4">p</text>
	<text transform="matrix(1.0023 0 0 1 248.0003 80.4339)" class="st3 st4">e</text>
	<text transform="matrix(1.0023 0 0 1 254.0716 80.4339)" class="st3 st4"> </text>
	<text transform="matrix(1.0023 0 0 1 257.5355 80.4339)" class="st3 st4">[</text>
	<text transform="matrix(1.0023 0 0 1 260.9974 80.4339)" class="st3 st4">0</text>
	<text transform="matrix(1.0023 0 0 1 267.0804 80.4339)" class="st3 st4">.</text>
	<text transform="matrix(1.0023 0 0 1 269.6741 80.4339)" class="st3 st4">.</text>
	<text transform="matrix(1.0023 0 0 1 272.2669 80.4339)" class="st3 st4">1</text>
	<text transform="matrix(1.0023 0 0 1 278.3509 80.4339)" class="st3 st4">]</text>
	<text transform="matrix(1.0023 0 0 1 64.9241 95.1526)" class="st3 st4">+</text>
	<text transform="matrix(1.0023 0 0 1 72.7347 95.1526)" class="st3 st4"> </text>
	<text transform="matrix(1.0023 0 0 1 84.0179 95.1526)" class="st3 st4">n</text>
	<text transform="matrix(1.0023 0 0 1 90.0999 95.1526)" class="st3 st4">a</text>
	<text transform="matrix(1.0023 0 0 1 96.1693 95.1526)" class="st3 st4">m</text>
	<text transform="matrix(1.0023 0 0 1 105.72 95.1526)" class="st3 st4">e</text>
	<text transform="matrix(1.0023 0 0 1 111.7913 95.1526)" class="st3 st4">:</text>
	<text transform="matrix(1.0023 0 0 1 114.3841 95.1526)" class="st3 st4"> </text>
	<text transform="matrix(1.0023 0 0 1 117.848 95.1526)" class="st3 st4">g</text>
	<text transform="matrix(1.0023 0 0 1 124.7874 95.1526)" class="st3 st4">m</text>
	<text transform="matrix(1.0023 0 0 1 134.3382 95.1526)" class="st3 st4">l</text>
	<text transform="matrix(1.0023 0 0 1 136.9476 95.1526)" class="st3 st4">:</text>
	<text transform="matrix(1.0023 0 0 1 139.5404 95.1526)" class="st3 st4">:</text>
	<text transform="matrix(1.0023 0 0 1 142.1341 95.1526)" class="st3 st4">C</text>
	<text transform="matrix(1.0023 0 0 1 149.0872 95.1526)" class="st3 st4">o</text>
	<text transform="matrix(1.0023 0 0 1 156.0277 95.1526)" class="st3 st4">d</text>
	<text transform="matrix(1.0023 0 0 1 162.9661 95.1526)" class="st3 st4">e</text>
	<text transform="matrix(1.0023 0 0 1 169.0374 95.1526)" class="st3 st4">T</text>
	<text transform="matrix(1.0023 0 0 1 175.1077 95.1526)" class="st3 st4">y</text>
	<text transform="matrix(1.0023 0 0 1 180.3206 95.1526)" class="st3 st4">p</text>
	<text transform="matrix(1.0023 0 0 1 187.2601 95.1526)" class="st3 st4">e</text>
	<text transform="matrix(1.0023 0 0 1 193.3314 95.1526)" class="st3 st4"> </text>
	<text transform="matrix(1.0023 0 0 1 196.7943 95.1526)" class="st3 st4">[</text>
	<text transform="matrix(1.0023 0 0 1 200.2562 95.1526)" class="st3 st4">0</text>
	<text transform="matrix(1.0023 0 0 1 206.3402 95.1526)" class="st3 st4">.</text>
	<text transform="matrix(1.0023 0 0 1 208.9339 95.1526)" class="st3 st4">.</text>
	<text transform="matrix(1.0023 0 0 1 211.5267 95.1526)" class="st3 st4">1</text>
	<text transform="matrix(1.0023 0 0 1 217.6107 95.1526)" class="st3 st4">]</text>
	<text transform="matrix(1.0023 0 0 1 64.9241 109.8714)" class="st3 st4">+</text>
	<text transform="matrix(1.0023 0 0 1 72.7347 109.8714)" class="st3 st4"> </text>
	<text transform="matrix(1.0023 0 0 1 84.0179 109.8714)" class="st3 st4">b</text>
	<text transform="matrix(1.0023 0 0 1 90.9573 109.8714)" class="st3 st4">o</text>
	<text transform="matrix(1.0023 0 0 1 97.8968 109.8714)" class="st3 st4">u</text>
	<text transform="matrix(1.0023 0 0 1 103.9788 109.8714)" class="st3 st4">n</text>
	<text transform="matrix(1.0023 0 0 1 110.0609 109.8714)" class="st3 st4">d</text>
	<text transform="matrix(1.0023 0 0 1 117.0003 109.8714)" class="st3 st4">e</text>
	<text transform="matrix(1.0023 0 0 1 123.0706 109.8714)" class="st3 st4">d</text>
	<text transform="matrix(1.0023 0 0 1 130.0101 109.8714)" class="st3 st4">B</text>
	<text transform="matrix(1.0023 0 0 1 136.095 109.8714)" class="st3 st4">y</text>
	<text transform="matrix(1.0023 0 0 1 141.3079 109.8714)" class="st3 st4">:</text>
	<text transform="matrix(1.0023 0 0 1 143.9017 109.8714)" class="st3 st4"> </text>
	<text transform="matrix(1.0023 0 0 1 147.3656 109.8714)" class="st3 st4">g</text>
	<text transform="matrix(1.0023 0 0 1 154.304 109.8714)" class="st3 st4">m</text>
	<text transform="matrix(1.0023 0 0 1 163.8558 109.8714)" class="st3 st4">l</text>
	<text transform="matrix(1.0023 0 0 1 166.4642 109.8714)" class="st3 st4">:</text>
	<text transform="matrix(1.0023 0 0 1 169.0579 109.8714)" class="st3 st4">:</text>
	<text transform="matrix(1.0023 0 0 1 171.6507 109.8714)" class="st3 st4">E</text>
	<text transform="matrix(1.0023 0 0 1 177.721 109.8714)" class="st3 st4">n</text>
	<text transform="matrix(1.0023 0 0 1 183.8031 109.8714)" class="st3 st4">v</text>
	<text transform="matrix(1.0023 0 0 1 189.0169 109.8714)" class="st3 st4">e</text>
	<text transform="matrix(1.0023 0 0 1 195.0882 109.8714)" class="st3 st4">l</text>
	<text transform="matrix(1.0023 0 0 1 197.6966 109.8714)" class="st3 st4">o</text>
	<text transform="matrix(1.0023 0 0 1 204.637 109.8714)" class="st3 st4">p</text>
	<text transform="matrix(1.0023 0 0 1 211.5755 109.8714)" class="st3 st4">e</text>
	<text transform="matrix(1.0023 0 0 1 217.6468 109.8714)" class="st3 st4"> </text>
	<text transform="matrix(1.0023 0 0 1 221.1107 109.8714)" class="st3 st4">[</text>
	<text transform="matrix(1.0023 0 0 1 224.5726 109.8714)" class="st3 st4">0</text>
	<text transform="matrix(1.0023 0 0 1 230.6566 109.8714)" class="st3 st4">.</text>
	<text transform="matrix(1.0023 0 0 1 233.2493 109.8714)" class="st3 st4">.</text>
	<text transform="matrix(1.0023 0 0 1 235.8431 109.8714)" class="st3 st4">1</text>
	<text transform="matrix(1.0023 0 0 1 241.9261 109.8714)" class="st3 st4">]</text>
	<path class="st9" d="M591.9,25.9c1.4,0,2.6,1.2,2.6,2.6l0,0v97.9l0,0c0,1.4-1.2,2.6-2.6,2.6l0,0l0,0H436.5l0,0
		c-1.4,0-2.6-1.2-2.6-2.6V28.5c0-1.4,1.2-2.6,2.6-2.6l0,0H591.9L591.9,25.9L591.9,25.9z"/>
	<path class="st10" d="M591.9,25.9c1.4,0,2.6,1.2,2.6,2.6l0,0v97.9l0,0c0,1.4-1.2,2.6-2.6,2.6l0,0l0,0H436.5l0,0
		c-1.4,0-2.6-1.2-2.6-2.6V28.5c0-1.4,1.2-2.6,2.6-2.6l0,0H591.9L591.9,25.9L591.9,25.9z"/>
	<path class="st8" d="M454.3,51.9c1.2,0,2.2,1,2.2,2.2l0,0v9.5l0,0c0,1.2-1,2.2-2.2,2.2l0,0l0,0h-9.5l0,0c-1.2,0-2.2-1-2.2-2.2l0,0
		V54c0-1.2,1-2.2,2.2-2.2l0,0H454.3L454.3,51.9L454.3,51.9z"/>
	<path class="st11" d="M454.3,51.9c1.2,0,2.2,1,2.2,2.2l0,0v9.5l0,0c0,1.2-1,2.2-2.2,2.2l0,0l0,0h-9.5l0,0c-1.2,0-2.2-1-2.2-2.2l0,0
		V54c0-1.2,1-2.2,2.2-2.2l0,0H454.3L454.3,51.9L454.3,51.9z"/>
	<text transform="matrix(1.0023 0 0 1 461.6585 63.9651)" class="st12 st3 st4">G</text>
	<text transform="matrix(1.0023 0 0 1 469.4691 63.9651)" class="st12 st3 st4">M</text>
	<text transform="matrix(1.0023 0 0 1 479.8851 63.9651)" class="st12 st3 st4">L</text>
	<text transform="matrix(1.0023 0 0 1 485.0941 63.9651)" class="st12 st3 st4">に</text>
	<text transform="matrix(1.0023 0 0 1 493.7816 63.9651)" class="st12 st3 st4">定</text>
	<text transform="matrix(1.0023 0 0 1 505.0667 63.9651)" class="st12 st3 st4">義</text>
	<text transform="matrix(1.0023 0 0 1 516.3538 63.9651)" class="st12 st3 st4">さ</text>
	<text transform="matrix(1.0023 0 0 1 524.1605 63.9651)" class="st12 st3 st4">れ</text>
	<text transform="matrix(1.0023 0 0 1 534.5687 63.9651)" class="st12 st3 st4">た</text>
	<text transform="matrix(1.0023 0 0 1 543.2601 63.9651)" class="st12 st3 st4">ク</text>
	<text transform="matrix(1.0023 0 0 1 551.9378 63.9651)" class="st12 st3 st4">ラ</text>
	<text transform="matrix(1.0023 0 0 1 559.7464 63.9651)" class="st12 st3 st4">ス</text>
	<path class="st1" d="M454.3,68.3c1.2,0,2.2,1,2.2,2.2l0,0V80l0,0c0,1.2-1,2.2-2.2,2.2l0,0l0,0h-9.5l0,0c-1.2,0-2.2-1-2.2-2.2l0,0
		v-9.5c0-1.2,1-2.2,2.2-2.2l0,0H454.3L454.3,68.3L454.3,68.3z"/>
	<path class="st11" d="M454.3,68.3c1.2,0,2.2,1,2.2,2.2l0,0V80l0,0c0,1.2-1,2.2-2.2,2.2l0,0l0,0h-9.5l0,0c-1.2,0-2.2-1-2.2-2.2l0,0
		v-9.5c0-1.2,1-2.2,2.2-2.2l0,0H454.3L454.3,68.3L454.3,68.3z"/>
	<text transform="matrix(1.0023 0 0 1 461.6585 80.4339)" class="st12 st3 st4">C</text>
	<text transform="matrix(1.0023 0 0 1 468.6116 80.4339)" class="st12 st3 st4">i</text>
	<text transform="matrix(1.0023 0 0 1 471.221 80.4339)" class="st12 st3 st4">t</text>
	<text transform="matrix(1.0023 0 0 1 474.6956 80.4339)" class="st12 st3 st4">y</text>
	<text transform="matrix(1.0023 0 0 1 479.9085 80.4339)" class="st12 st3 st4">G</text>
	<text transform="matrix(1.0023 0 0 1 487.7171 80.4339)" class="st12 st3 st4">M</text>
	<text transform="matrix(1.0023 0 0 1 498.1331 80.4339)" class="st12 st3 st4">L</text>
	<text transform="matrix(1.0023 0 0 1 503.3441 80.4339)" class="st12 st3 st4">に</text>
	<text transform="matrix(1.0023 0 0 1 512.0316 80.4339)" class="st12 st3 st4">定</text>
	<text transform="matrix(1.0023 0 0 1 523.3167 80.4339)" class="st12 st3 st4">義</text>
	<text transform="matrix(1.0023 0 0 1 534.6019 80.4339)" class="st12 st3 st4">さ</text>
	<text transform="matrix(1.0023 0 0 1 542.4105 80.4339)" class="st12 st3 st4">れ</text>
	<text transform="matrix(1.0023 0 0 1 552.8167 80.4339)" class="st12 st3 st4">た</text>
	<text transform="matrix(1.0023 0 0 1 561.5081 80.4339)" class="st12 st3 st4">ク</text>
	<text transform="matrix(1.0023 0 0 1 570.1878 80.4339)" class="st12 st3 st4">ラ</text>
	<text transform="matrix(1.0023 0 0 1 577.9964 80.4339)" class="st12 st3 st4">ス</text>
	<path class="st13" d="M454.3,84.8c1.2,0,2.2,1,2.2,2.2l0,0v9.5l0,0c0,1.2-1,2.2-2.2,2.2l0,0l0,0h-9.5l0,0c-1.2,0-2.2-1-2.2-2.2l0,0
		v-9.5c0-1.2,1-2.2,2.2-2.2l0,0H454.3L454.3,84.8L454.3,84.8z"/>
	<path class="st11" d="M454.3,84.8c1.2,0,2.2,1,2.2,2.2l0,0v9.5l0,0c0,1.2-1,2.2-2.2,2.2l0,0l0,0h-9.5l0,0c-1.2,0-2.2-1-2.2-2.2l0,0
		v-9.5c0-1.2,1-2.2,2.2-2.2l0,0H454.3L454.3,84.8L454.3,84.8z"/>
	<text transform="matrix(1.0023 0 0 1 461.6585 96.887)" class="st12 st3 st4">i</text>
	<text transform="matrix(1.0023 0 0 1 464.2679 96.887)" class="st12 st3 st4">-</text>
	<text transform="matrix(1.0023 0 0 1 468.6116 96.887)" class="st12 st3 st4">U</text>
	<text transform="matrix(1.0023 0 0 1 476.4202 96.887)" class="st12 st3 st4">R</text>
	<text transform="matrix(1.0023 0 0 1 483.3636 96.887)" class="st12 st3 st4">に</text>
	<text transform="matrix(1.0023 0 0 1 492.0511 96.887)" class="st12 st3 st4">定</text>
	<text transform="matrix(1.0023 0 0 1 503.3362 96.887)" class="st12 st3 st4">義</text>
	<text transform="matrix(1.0023 0 0 1 514.6214 96.887)" class="st12 st3 st4">さ</text>
	<text transform="matrix(1.0023 0 0 1 522.428 96.887)" class="st12 st3 st4">れ</text>
	<text transform="matrix(1.0023 0 0 1 532.8362 96.887)" class="st12 st3 st4">た</text>
	<text transform="matrix(1.0023 0 0 1 541.5276 96.887)" class="st12 st3 st4">ク</text>
	<text transform="matrix(1.0023 0 0 1 550.2073 96.887)" class="st12 st3 st4">ラ</text>
	<text transform="matrix(1.0023 0 0 1 558.0159 96.887)" class="st12 st3 st4">ス</text>
	<text transform="matrix(1.0023 0 0 1 500.721 44.0589)" class="st12 st14 st15">凡例</text>
	<text transform="matrix(1.0023 0 0 1 500.721 44.0589)" class="st16 st14 st15">凡例</text>
	<line class="st17" x1="178.7" y1="173.1" x2="178.7" y2="132.4"/>
	<polyline class="st18" points="183.9,146.3 173.4,146.3 178.7,132.4 183.9,146.3 	"/>
	<polygon class="st17" points="183.9,146.3 173.4,146.3 178.7,132.4 	"/>
	<line class="st17" x1="296.7" y1="400" x2="476.4" y2="400"/>
	<path class="st17" d="M476.4,400l-13,5.2 M476.4,400l-13-5.2"/>
	<line class="st17" x1="296.7" y1="375.8" x2="476.4" y2="375.8"/>
	<path class="st17" d="M476.4,375.8l-13,5.2 M476.4,375.8l-13-5.2"/>
	<line class="st17" x1="296.7" y1="352.4" x2="476.4" y2="352.4"/>
	<path class="st17" d="M476.4,352.4l-13,5.2 M476.4,352.4l-13-5.2"/>
	<line class="st17" x1="179.5" y1="329" x2="179.5" y2="297.8"/>
	<polyline class="st18" points="184.7,311.7 174.3,311.7 179.5,297.8 184.7,311.7 	"/>
	<polygon class="st17" points="184.7,311.7 174.3,311.7 179.5,297.8 	"/>
	<text transform="matrix(1.0023 0 0 1 363.5648 393.1223)" class="st19 st20">+</text>
	<text transform="matrix(1.0023 0 0 1 367.9105 393.1223)" class="st19 st20">l</text>
	<text transform="matrix(1.0023 0 0 1 370.512 393.1223)" class="st19 st20">o</text>
	<text transform="matrix(1.0023 0 0 1 375.7191 393.1223)" class="st19 st20">d</text>
	<text transform="matrix(1.0023 0 0 1 380.928 393.1223)" class="st19 st20">3</text>
	<text transform="matrix(1.0023 0 0 1 386.1312 393.1223)" class="st19 st20">G</text>
	<text transform="matrix(1.0023 0 0 1 392.2034 393.1223)" class="st19 st20">e</text>
	<text transform="matrix(1.0023 0 0 1 397.4026 393.1223)" class="st19 st20">o</text>
	<text transform="matrix(1.0023 0 0 1 402.6097 393.1223)" class="st19 st20">m</text>
	<text transform="matrix(1.0023 0 0 1 410.4105 393.1223)" class="st19 st20">e</text>
	<text transform="matrix(1.0023 0 0 1 415.6097 393.1223)" class="st19 st20">t</text>
	<text transform="matrix(1.0023 0 0 1 419.0765 393.1223)" class="st19 st20">r</text>
	<text transform="matrix(1.0023 0 0 1 422.5491 393.1223)" class="st19 st20">y</text>
	<text transform="matrix(1.0023 0 0 1 439.0804 410.4348)" class="st19 st20">0</text>
	<text transform="matrix(1.0023 0 0 1 444.2835 410.4348)" class="st19 st20">.</text>
	<text transform="matrix(1.0023 0 0 1 446.8851 410.4348)" class="st19 st20">.</text>
	<text transform="matrix(1.0023 0 0 1 449.4866 410.4348)" class="st19 st20">1</text>
	<text transform="matrix(1.0023 0 0 1 364.4241 344.5911)" class="st19 st20">+</text>
	<text transform="matrix(1.0023 0 0 1 368.7698 344.5911)" class="st19 st20">l</text>
	<text transform="matrix(1.0023 0 0 1 371.3714 344.5911)" class="st19 st20">o</text>
	<text transform="matrix(1.0023 0 0 1 376.5784 344.5911)" class="st19 st20">d</text>
	<text transform="matrix(1.0023 0 0 1 381.7874 344.5911)" class="st19 st20">1</text>
	<text transform="matrix(1.0023 0 0 1 386.9905 344.5911)" class="st19 st20">G</text>
	<text transform="matrix(1.0023 0 0 1 393.0628 344.5911)" class="st19 st20">e</text>
	<text transform="matrix(1.0023 0 0 1 398.262 344.5911)" class="st19 st20">o</text>
	<text transform="matrix(1.0023 0 0 1 403.4691 344.5911)" class="st19 st20">m</text>
	<text transform="matrix(1.0023 0 0 1 411.2698 344.5911)" class="st19 st20">e</text>
	<text transform="matrix(1.0023 0 0 1 416.4691 344.5911)" class="st19 st20">t</text>
	<text transform="matrix(1.0023 0 0 1 419.9359 344.5911)" class="st19 st20">r</text>
	<text transform="matrix(1.0023 0 0 1 423.4085 344.5911)" class="st19 st20">y</text>
	<text transform="matrix(1.0023 0 0 1 440.8148 363.6536)" class="st19 st20">0</text>
	<text transform="matrix(1.0023 0 0 1 446.0179 363.6536)" class="st19 st20">.</text>
	<text transform="matrix(1.0023 0 0 1 448.6194 363.6536)" class="st19 st20">.</text>
	<text transform="matrix(1.0023 0 0 1 451.221 363.6536)" class="st19 st20">1</text>
	<text transform="matrix(1.0023 0 0 1 362.6898 369.7161)" class="st19 st20">+</text>
	<text transform="matrix(1.0023 0 0 1 367.0355 369.7161)" class="st19 st20">l</text>
	<text transform="matrix(1.0023 0 0 1 369.637 369.7161)" class="st19 st20">o</text>
	<text transform="matrix(1.0023 0 0 1 374.8441 369.7161)" class="st19 st20">d</text>
	<text transform="matrix(1.0023 0 0 1 380.053 369.7161)" class="st19 st20">2</text>
	<text transform="matrix(1.0023 0 0 1 385.2562 369.7161)" class="st19 st20">G</text>
	<text transform="matrix(1.0023 0 0 1 391.3284 369.7161)" class="st19 st20">e</text>
	<text transform="matrix(1.0023 0 0 1 396.5276 369.7161)" class="st19 st20">o</text>
	<text transform="matrix(1.0023 0 0 1 401.7347 369.7161)" class="st19 st20">m</text>
	<text transform="matrix(1.0023 0 0 1 409.5355 369.7161)" class="st19 st20">e</text>
	<text transform="matrix(1.0023 0 0 1 414.7347 369.7161)" class="st19 st20">t</text>
	<text transform="matrix(1.0023 0 0 1 418.2015 369.7161)" class="st19 st20">r</text>
	<text transform="matrix(1.0023 0 0 1 421.6741 369.7161)" class="st19 st20">y</text>
	<text transform="matrix(1.0023 0 0 1 439.9554 386.1848)" class="st19 st20">0</text>
	<text transform="matrix(1.0023 0 0 1 445.1585 386.1848)" class="st19 st20">.</text>
	<text transform="matrix(1.0023 0 0 1 447.7601 386.1848)" class="st19 st20">.</text>
	<text transform="matrix(1.0023 0 0 1 450.3616 386.1848)" class="st19 st20">1</text>
</g>
</svg>
