<?xml version="1.0" encoding="utf-8"?>
<!-- Generator: Adobe Illustrator 27.4.1, SVG Export Plug-In . SVG Version: 6.00 Build 0)  -->
<svg version="1.1" id="レイヤー_1" xmlns="http://www.w3.org/2000/svg" xmlns:xlink="http://www.w3.org/1999/xlink" x="0px"
	 y="0px" viewBox="0 0 391.5 458" style="enable-background:new 0 0 391.5 458;" xml:space="preserve">
<style type="text/css">
	.st0{fill-rule:evenodd;clip-rule:evenodd;fill:#CFD1D8;}
	.st1{fill-rule:evenodd;clip-rule:evenodd;fill:#FFFFCC;}
	.st2{fill:none;stroke:#000000;stroke-width:0.8661;stroke-linecap:round;stroke-linejoin:round;stroke-miterlimit:10;}
	.st3{font-family:'YuGothicUI-Regular';}
	.st4{font-size:5.9358px;}
	.st5{font-size:5.6299px;}
	.st6{font-family:'YuGothicUI-Bold';}
	.st7{fill-rule:evenodd;clip-rule:evenodd;fill:#FFCCFF;}
	.st8{stroke:#000000;stroke-width:0.1609;stroke-miterlimit:10;}
	.st9{fill-rule:evenodd;clip-rule:evenodd;fill:#F0F0F0;}
	.st10{fill:none;stroke:#D7D7D7;stroke-width:0.4331;stroke-linecap:square;stroke-miterlimit:10;}
	.st11{fill-rule:evenodd;clip-rule:evenodd;fill:#A0FFC0;}
	.st12{fill:none;stroke:#000000;stroke-width:0.4331;stroke-linecap:square;stroke-miterlimit:10;}
	.st13{fill:#003060;}
	.st14{fill:#003060;stroke:#003060;stroke-width:0.198;stroke-miterlimit:10;}
	.st15{font-family:'MS-PGothic';}
	.st16{font-size:6.9291px;}
	.st17{fill:none;stroke:#000000;stroke-width:0.8661;stroke-linecap:round;stroke-linejoin:bevel;stroke-miterlimit:10;}
	.st18{fill-rule:evenodd;clip-rule:evenodd;}
	.st19{fill-rule:evenodd;clip-rule:evenodd;fill:#FFFFFF;}
	.st20{font-family:'Calibri';}
	.st21{font-size:4.7638px;}
</style>
<path class="st0" d="M205.3,13c0.6,0,1.1,0.5,1.1,1.1h0v51.5h0c0,0.6-0.5,1.1-1.1,1.1c0,0,0,0,0,0h0h-85.1l0,0
	c-0.6,0-1.1-0.5-1.1-1.1h0V14.1c0-0.6,0.5-1.1,1.1-1.1l0,0H205.3L205.3,13L205.3,13z"/>
<path class="st1" d="M204,11.7c0.6,0,1.1,0.5,1.1,1.1h0v51.5l0,0c0,0.6-0.5,1.1-1.1,1.1l0,0h0h-85.1h0c-0.6,0-1.1-0.5-1.1-1.1h0
	V12.8c0-0.6,0.5-1.1,1.1-1.1l0,0H204L204,11.7L204,11.7z"/>
<path class="st2" d="M204,11.7c0.6,0,1.1,0.5,1.1,1.1h0v51.5l0,0c0,0.6-0.5,1.1-1.1,1.1l0,0h0h-85.1h0c-0.6,0-1.1-0.5-1.1-1.1h0
	V12.8c0-0.6,0.5-1.1,1.1-1.1l0,0H204L204,11.7L204,11.7z"/>
<text transform="matrix(0.85 0 -0.3169 0.9485 169.9314 19.1032)" class="st3 st4">_WaterObject</text>
<text transform="matrix(0.85 0 0 1 143.0182 29.0585)" class="st3 st5">«FeatureType»</text>
<text transform="matrix(0.85 0 0 1 141.2838 36.4257)" class="st6 st5">wtr::WaterBody</text>
<line class="st2" x1="117.9" y1="39.9" x2="205.1" y2="39.9"/>
<text transform="matrix(0.85 0 0 1 120.0182 47.6835)" class="st3 st5">+ class: gml::CodeType [0..1]</text>
<text transform="matrix(0.85 0 0 1 120.0182 55.0429)" class="st3 st5">+ function: gml::CodeType [0..*]</text>
<text transform="matrix(0.85 0 0 1 120.0182 62.41)" class="st3 st5">+ usage: gml::CodeType [0..*]</text>
<path class="st0" d="M104.6,104c0.6,0,1.1,0.5,1.1,1.1l0,0v35.5l0,0c0,0.6-0.5,1.1-1.1,1.1l0,0h0H11.7h0c-0.6,0-1.1-0.5-1.1-1.1l0,0
	v-35.5c0-0.6,0.5-1.1,1.1-1.1l0,0H104.6L104.6,104L104.6,104z"/>
<path class="st7" d="M103.3,102.7c0.6,0,1.1,0.5,1.1,1.1h0v35.5l0,0c0,0.6-0.5,1.1-1.1,1.1l0,0h0H10.4h0c-0.6,0-1.1-0.5-1.1-1.1h0
	v-35.5c0-0.6,0.5-1.1,1.1-1.1l0,0H103.3L103.3,102.7L103.3,102.7z"/>
<path class="st2" d="M103.3,102.7c0.6,0,1.1,0.5,1.1,1.1h0v35.5l0,0c0,0.6-0.5,1.1-1.1,1.1l0,0h0H10.4h0c-0.6,0-1.1-0.5-1.1-1.1h0
	v-35.5c0-0.6,0.5-1.1,1.1-1.1l0,0H103.3L103.3,102.7L103.3,102.7z"/>
<text transform="matrix(0.85 0 0 1 41.8854 111.3475)" class="st3 st5">«DataType»</text>
<text transform="matrix(0.85 0 -0.3169 0.9485 34.5063 118.7072)" class="st8 st3 st4">uro::DmAttribute</text>
<line class="st2" x1="9.3" y1="122.2" x2="104.4" y2="122.2"/>
<text transform="matrix(0.85 0 0 1 11.5104 129.9647)" class="st3 st5">+ dmCode: gml::CodeType</text>
<text transform="matrix(0.85 0 0 1 11.5104 137.3319)" class="st3 st5">+ meshCode: gml::CodeType [0..1]</text>
<path class="st0" d="M175.8,155.9c0.6,0,1.1,0.5,1.1,1.1l0,0v101.8h0c0,0.6-0.5,1.1-1.1,1.1l0,0h0H46.4h0c-0.6,0-1.1-0.5-1.1-1.1h0
	V157c0-0.6,0.5-1.1,1.1-1.1l0,0H175.8L175.8,155.9L175.8,155.9z"/>
<path class="st7" d="M174.5,154.7c0.6,0,1.1,0.5,1.1,1.1l0,0v101.8l0,0c0,0.6-0.5,1.1-1.1,1.1c0,0,0,0,0,0h0H45.1l0,0
	c-0.6,0-1.1-0.5-1.1-1.1h0V155.7c0-0.6,0.5-1.1,1.1-1.1v0L174.5,154.7L174.5,154.7L174.5,154.7z"/>
<path class="st2" d="M174.5,154.7c0.6,0,1.1,0.5,1.1,1.1l0,0v101.8l0,0c0,0.6-0.5,1.1-1.1,1.1c0,0,0,0,0,0h0H45.1l0,0
	c-0.6,0-1.1-0.5-1.1-1.1h0V155.7c0-0.6,0.5-1.1,1.1-1.1v0L174.5,154.7L174.5,154.7L174.5,154.7z"/>
<text transform="matrix(0.85 0 0 1 94.8385 163.3085)" class="st3 st5">«DataType»</text>
<text transform="matrix(0.85 0 0 1 70.1041 170.6679)" class="st6 st5">uro::WaterBodyDetailAttribute</text>
<line class="st2" x1="44.1" y1="174.1" x2="175.6" y2="174.1"/>
<text transform="matrix(0.85 0 0 1 46.2291 181.9335)" class="st3 st5">+ kana: xs::string [0..1]</text>
<text transform="matrix(0.85 0 0 1 46.2291 189.2929)" class="st3 st5">+ waterSystemCode: gml::CodeType [0..1]</text>
<text transform="matrix(0.85 0 0 1 46.2291 196.66)" class="st3 st5">+ riverCode: gml::CodeType [0..1]</text>
<text transform="matrix(0.85 0 0 1 46.2291 204.0194)" class="st3 st5">+ adminType: gml::CodeType [0..1]</text>
<text transform="matrix(0.85 0 0 1 46.2291 211.3866)" class="st3 st5">+ flowDirection: xs::boolean [0..1]</text>
<text transform="matrix(0.85 0 0 1 46.2291 218.746)" class="st3 st5">+ maximumDepth: gml::LengthType [0..1]</text>
<text transform="matrix(0.85 0 0 1 46.2291 226.1132)" class="st3 st5">+ waterSurfaceElevation: gml::LengthType [0..1]</text>
<text transform="matrix(0.85 0 0 1 46.2291 233.4647)" class="st3 st5">+ area: gml::MeasureType [0..1]</text>
<text transform="matrix(0.85 0 0 1 46.2291 240.8241)" class="st3 st5">+ measurementYearMonth: xs::gYearMonth [0..1]</text>
<text transform="matrix(0.85 0 0 1 46.2291 248.1913)" class="st3 st5">+ prefecture: gml::CodeType [0..1]</text>
<text transform="matrix(0.85 0 0 1 46.2291 255.5585)" class="st3 st5">+ city: gml::CodeType [0..1]</text>
<path class="st9" d="M314,16.1c0.7,0,1.3,0.6,1.3,1.3h0v38.1h0c0,0.7-0.6,1.3-1.3,1.3c0,0,0,0,0,0l0,0h-77.7l0,0
	c-0.7,0-1.3-0.6-1.3-1.3V17.4c0-0.7,0.6-1.3,1.3-1.3l0,0H314L314,16.1L314,16.1z"/>
<path class="st10" d="M314,16.1c0.7,0,1.3,0.6,1.3,1.3h0v38.1h0c0,0.7-0.6,1.3-1.3,1.3c0,0,0,0,0,0l0,0h-77.7l0,0
	c-0.7,0-1.3-0.6-1.3-1.3V17.4c0-0.7,0.6-1.3,1.3-1.3l0,0H314L314,16.1L314,16.1z"/>
<path class="st11" d="M245.2,29.1c0.6,0,1.1,0.5,1.1,1.1h0v4.8h0c0,0.6-0.5,1.1-1.1,1.1l0,0h0h-4.8h0c-0.6,0-1.1-0.5-1.1-1.1h0v-4.8
	c0-0.6,0.5-1.1,1.1-1.1l0,0H245.2L245.2,29.1L245.2,29.1z"/>
<path class="st12" d="M245.2,29.1c0.6,0,1.1,0.5,1.1,1.1h0v4.8h0c0,0.6-0.5,1.1-1.1,1.1l0,0h0h-4.8h0c-0.6,0-1.1-0.5-1.1-1.1h0v-4.8
	c0-0.6,0.5-1.1,1.1-1.1l0,0H245.2L245.2,29.1L245.2,29.1z"/>
<text transform="matrix(0.85 0 0 1 248.9323 35.121)" class="st13 st3 st5">GMLで定義されたクラス</text>
<path class="st1" d="M245.2,37.3c0.6,0,1.1,0.5,1.1,1.1h0v4.8h0c0,0.6-0.5,1.1-1.1,1.1l0,0h0h-4.8h0c-0.6,0-1.1-0.5-1.1-1.1h0v-4.8
	c0-0.6,0.5-1.1,1.1-1.1l0,0H245.2L245.2,37.3L245.2,37.3z"/>
<path class="st12" d="M245.2,37.3c0.6,0,1.1,0.5,1.1,1.1h0v4.8h0c0,0.6-0.5,1.1-1.1,1.1l0,0h0h-4.8h0c-0.6,0-1.1-0.5-1.1-1.1h0v-4.8
	c0-0.6,0.5-1.1,1.1-1.1l0,0H245.2L245.2,37.3L245.2,37.3z"/>
<text transform="matrix(0.85 0 0 1 248.9323 43.3475)" class="st13 st3 st5">CityGMLで定義されたクラス</text>
<path class="st7" d="M245.2,45.5c0.6,0,1.1,0.5,1.1,1.1h0v4.8h0c0,0.6-0.5,1.1-1.1,1.1l0,0h0h-4.8h0c-0.6,0-1.1-0.5-1.1-1.1h0v-4.8
	c0-0.6,0.5-1.1,1.1-1.1l0,0H245.2L245.2,45.5L245.2,45.5z"/>
<path class="st12" d="M245.2,45.5c0.6,0,1.1,0.5,1.1,1.1h0v4.8h0c0,0.6-0.5,1.1-1.1,1.1l0,0h0h-4.8h0c-0.6,0-1.1-0.5-1.1-1.1h0v-4.8
	c0-0.6,0.5-1.1,1.1-1.1l0,0H245.2L245.2,45.5L245.2,45.5z"/>
<text transform="matrix(0.85 0 0 1 248.9323 51.5819)" class="st13 st3 st5">i-URで定義されたクラス</text>
<text transform="matrix(0.85 0 0 1 268.4713 25.1679)" class="st14 st15 st16">凡例</text>
<path class="st0" d="M280.8,177.6c0.6,0,1.1,0.5,1.1,1.1h0v101.8h0c0,0.6-0.5,1.1-1.1,1.1c0,0,0,0,0,0h0h-91.2l0,0
	c-0.6,0-1.1-0.5-1.1-1.1h0V178.7c0-0.6,0.5-1.1,1.1-1.1v0L280.8,177.6L280.8,177.6L280.8,177.6z"/>
<path class="st7" d="M279.5,176.3c0.6,0,1.1,0.5,1.1,1.1h0v101.8h0c0,0.6-0.5,1.1-1.1,1.1l0,0h0h-91.2l0,0c-0.6,0-1.1-0.5-1.1-1.1h0
	V177.4c0-0.6,0.5-1.1,1.1-1.1l0,0H279.5L279.5,176.3L279.5,176.3z"/>
<path class="st2" d="M279.5,176.3c0.6,0,1.1,0.5,1.1,1.1h0v101.8h0c0,0.6-0.5,1.1-1.1,1.1l0,0h0h-91.2l0,0c-0.6,0-1.1-0.5-1.1-1.1h0
	V177.4c0-0.6,0.5-1.1,1.1-1.1l0,0H279.5L279.5,176.3L279.5,176.3z"/>
<text transform="matrix(0.85 0 0 1 218.9791 184.9647)" class="st3 st5">«DataType»</text>
<text transform="matrix(0.85 0 0 1 204.6588 192.3319)" class="st6 st5">uro::FacilityIdAttribute</text>
<line class="st2" x1="187.3" y1="195.8" x2="280.6" y2="195.8"/>
<text transform="matrix(0.85 0 0 1 189.4635 203.5819)" class="st3 st5">+ id: xs::string [0..1]</text>
<text transform="matrix(0.85 0 0 1 189.4635 210.9491)" class="st3 st5">+ partId: xs::string [0..1]</text>
<text transform="matrix(0.85 0 0 1 189.4635 218.3085)" class="st3 st5">+ branchId: xs::string [0..1]</text>
<text transform="matrix(0.85 0 0 1 189.4635 225.6679)" class="st3 st5">+ prefecture: gml::CodeType [0..*]</text>
<text transform="matrix(0.85 0 0 1 189.4635 233.035)" class="st3 st5">+ city: gml::CodeType [0..*]</text>
<text transform="matrix(0.85 0 0 1 189.4635 240.4022)" class="st3 st5">+ route: xs::string [0..1]</text>
<text transform="matrix(0.85 0 0 1 189.4635 247.7616)" class="st3 st5">+ startPost: xs::string [0..1]</text>
<text transform="matrix(0.85 0 0 1 189.4635 255.121)" class="st3 st5">+ endPost: xs::string [0..1]</text>
<text transform="matrix(0.85 0 0 1 189.4635 262.4882)" class="st3 st5">+ startLat: xs::double [0..1]</text>
<text transform="matrix(0.85 0 0 1 189.4635 269.8553)" class="st3 st5">+ startLong: xs::double [0..1]</text>
<text transform="matrix(0.85 0 0 1 189.4635 277.2147)" class="st3 st5">+ alternativeName: xs::string [0..*]</text>
<path class="st0" d="M286.5,316.2c0.6,0,1.1,0.5,1.1,1.1h0v131.2l0,0c0,0.6-0.5,1.1-1.1,1.1c0,0,0,0,0,0l0,0H172.3l0,0
	c-0.6,0-1.1-0.5-1.1-1.1h0V317.3c0-0.6,0.5-1.1,1.1-1.1v0L286.5,316.2L286.5,316.2L286.5,316.2z"/>
<path class="st7" d="M285.2,314.9c0.6,0,1.1,0.5,1.1,1.1h0v131.2h0c0,0.6-0.5,1.1-1.1,1.1c0,0,0,0,0,0h0H171l0,0
	c-0.6,0-1.1-0.5-1.1-1.1h0V316c0-0.6,0.5-1.1,1.1-1.1v0L285.2,314.9L285.2,314.9L285.2,314.9z"/>
<path class="st2" d="M285.2,314.9c0.6,0,1.1,0.5,1.1,1.1h0v131.2h0c0,0.6-0.5,1.1-1.1,1.1c0,0,0,0,0,0h0H171l0,0
	c-0.6,0-1.1-0.5-1.1-1.1h0V316c0-0.6,0.5-1.1,1.1-1.1v0L285.2,314.9L285.2,314.9L285.2,314.9z"/>
<text transform="matrix(0.85 0 0 1 213.3385 323.5428)" class="st3 st5">«DataType»</text>
<text transform="matrix(0.85 0 0 1 192.5026 330.9022)" class="st6 st5">uro::RiverFacilityIdAttribute</text>
<line class="st2" x1="169.9" y1="334.4" x2="286.3" y2="334.4"/>
<text transform="matrix(0.85 0 0 1 172.1041 342.1757)" class="st3 st5">+ riverCode: gml::CodeType</text>
<text transform="matrix(0.85 0 0 1 172.1041 349.5272)" class="st3 st5">+ riverName: xs::string [0..1]</text>
<text transform="matrix(0.85 0 0 1 172.1041 356.8944)" class="st3 st5">+ sideType: gml::CodeType</text>
<text transform="matrix(0.85 0 0 1 172.1041 364.2538)" class="st3 st5">+ leftPost: gml::LengthType [0..1]</text>
<text transform="matrix(0.85 0 0 1 172.1041 371.621)" class="st3 st5">+ leftDistance: gml::LengthType [0..1]</text>
<text transform="matrix(0.85 0 0 1 172.1041 378.9803)" class="st3 st5">+ rightPost: gml::LengthType [0..1]</text>
<text transform="matrix(0.85 0 0 1 172.1041 386.3475)" class="st3 st5">+ rightDistance: gml::LengthType [0..1]</text>
<text transform="matrix(0.85 0 0 1 172.1041 393.7069)" class="st3 st5">+ leftStartPost: gml::LengthType [0..1]</text>
<text transform="matrix(0.85 0 0 1 172.1041 401.0585)" class="st3 st5">+ leftStartDistance: gml::LengthType [0..1]</text>
<text transform="matrix(0.85 0 0 1 172.1041 408.4257)" class="st3 st5">+ leftEndPost: gml::LengthType [0..1]</text>
<text transform="matrix(0.85 0 0 1 172.1041 415.7928)" class="st3 st5">+ leftEndDistance: gml::LengthType [0..1]</text>
<text transform="matrix(0.85 0 0 1 172.1041 423.1522)" class="st3 st5">+ rightStartPost: gml::LengthType [0..1]</text>
<text transform="matrix(0.85 0 0 1 172.1041 430.5116)" class="st3 st5">+ rightStartDistance: gml::LengthType [0..1]</text>
<text transform="matrix(0.85 0 0 1 172.1041 437.8788)" class="st3 st5">+ rightEndPost: gml::LengthType [0..1]</text>
<text transform="matrix(0.85 0 0 1 172.1041 445.246)" class="st3 st5">+ rightEndDistance: gml::LengthType [0..1]</text>
<path class="st0" d="M339.9,121.3c0.6,0,1.1,0.5,1.1,1.1h0v35.5h0c0,0.6-0.5,1.1-1.1,1.1l0,0h0h-85.1h0c-0.6,0-1.1-0.5-1.1-1.1h0
	v-35.5c0-0.6,0.5-1.1,1.1-1.1l0,0H339.9L339.9,121.3L339.9,121.3z"/>
<path class="st7" d="M338.6,120c0.6,0,1.1,0.5,1.1,1.1l0,0v35.5l0,0c0,0.6-0.5,1.1-1.1,1.1c0,0,0,0,0,0h0h-85.1v0
	c-0.6,0-1.1-0.5-1.1-1.1h0v-35.5c0-0.6,0.5-1.1,1.1-1.1l0,0H338.6L338.6,120L338.6,120z"/>
<path class="st2" d="M338.6,120c0.6,0,1.1,0.5,1.1,1.1l0,0v35.5l0,0c0,0.6-0.5,1.1-1.1,1.1c0,0,0,0,0,0h0h-85.1v0
	c-0.6,0-1.1-0.5-1.1-1.1h0v-35.5c0-0.6,0.5-1.1,1.1-1.1l0,0H338.6L338.6,120L338.6,120z"/>
<text transform="matrix(0.85 0 0 1 281.0495 128.6679)" class="st3 st5">«DataType»</text>
<text transform="matrix(0.85 0 0 1 263.2526 136.0272)" class="st6 st5">uro::FacilityTypeAttribute</text>
<line class="st2" x1="252.4" y1="139.5" x2="339.7" y2="139.5"/>
<text transform="matrix(0.85 0 0 1 254.5729 147.2929)" class="st3 st5">+ class: gml::CodeType [0..1]</text>
<text transform="matrix(0.85 0 0 1 254.5729 154.6522)" class="st3 st5">+ function: gml::CodeType [0..*]</text>
<path class="st0" d="M382,177.6c0.6,0,1.1,0.5,1.1,1.1h0v32h0c0,0.6-0.5,1.1-1.1,1.1l0,0l0,0h-70.8h0c-0.6,0-1.1-0.5-1.1-1.1h0v-32
	c0-0.6,0.5-1.1,1.1-1.1v0L382,177.6L382,177.6L382,177.6z"/>
<path class="st7" d="M380.7,176.3c0.6,0,1.1,0.5,1.1,1.1h0v32h0c0,0.6-0.5,1.1-1.1,1.1c0,0,0,0,0,0h0h-70.8l0,0
	c-0.6,0-1.1-0.5-1.1-1.1h0v-32c0-0.6,0.5-1.1,1.1-1.1l0,0H380.7L380.7,176.3L380.7,176.3z"/>
<path class="st2" d="M380.7,176.3c0.6,0,1.1,0.5,1.1,1.1h0v32h0c0,0.6-0.5,1.1-1.1,1.1c0,0,0,0,0,0h0h-70.8l0,0
	c-0.6,0-1.1-0.5-1.1-1.1h0v-32c0-0.6,0.5-1.1,1.1-1.1l0,0H380.7L380.7,176.3L380.7,176.3z"/>
<text transform="matrix(0.85 0 0 1 330.5338 184.9647)" class="st3 st5">«DataType»</text>
<text transform="matrix(0.85 0 -0.3169 0.9485 318.8127 192.3394)" class="st8 st3 st4">uro::FacilityAttribute</text>
<line class="st2" x1="308.8" y1="195.8" x2="381.8" y2="195.8"/>
<text transform="matrix(0.85 0 0 1 310.9948 203.5819)" class="st3 st5">+ facilityId: xs::string [0..1]</text>
<line class="st17" x1="110.9" y1="154.2" x2="110.9" y2="87.5"/>
<line class="st17" x1="161.7" y1="87.5" x2="161.7" y2="66.3"/>
<polyline class="st18" points="163.9,70.6 161.7,66.3 159.5,70.6 161.7,75 163.9,70.6 "/>
<polyline class="st17" points="163.9,70.6 161.7,66.3 159.5,70.6 161.7,75 "/>
<path class="st17" d="M110.9,154.2l2.6-6.5 M110.9,154.2l-2.6-6.5"/>
<line class="st17" x1="57.1" y1="102.2" x2="57.1" y2="87.5"/>
<line class="st17" x1="57.1" y1="87.5" x2="161.7" y2="87.5"/>
<polyline class="st18" points="163.9,70.6 161.7,66.3 159.5,70.6 161.7,75 163.9,70.6 "/>
<polyline class="st17" points="163.9,70.6 161.7,66.3 159.5,70.6 161.7,75 "/>
<path class="st17" d="M57.1,102.2l2.6-6.5 M57.1,102.2l-2.6-6.5"/>
<line class="st17" x1="354.4" y1="175.9" x2="354.4" y2="87.5"/>
<line class="st17" x1="354.4" y1="87.5" x2="161.7" y2="87.5"/>
<polyline class="st18" points="163.9,70.6 161.7,66.3 159.5,70.6 161.7,75 163.9,70.6 "/>
<polyline class="st17" points="163.9,70.6 161.7,66.3 159.5,70.6 161.7,75 "/>
<path class="st17" d="M354.4,175.9l2.6-6.5 M354.4,175.9l-2.6-6.5"/>
<line class="st17" x1="311.9" y1="119.6" x2="311.9" y2="87.5"/>
<polyline class="st18" points="163.9,70.6 161.7,66.3 159.5,70.6 161.7,75 163.9,70.6 "/>
<polyline class="st17" points="163.9,70.6 161.7,66.3 159.5,70.6 161.7,75 "/>
<path class="st17" d="M311.9,119.6l2.6-6.5 M311.9,119.6l-2.6-6.5"/>
<line class="st17" x1="229" y1="314.5" x2="229" y2="281.1"/>
<polyline class="st19" points="231.6,288 226.4,288 229,281.1 231.6,288 "/>
<polygon class="st17" points="231.6,288 226.4,288 229,281.1 "/>
<line class="st17" x1="232.4" y1="175.9" x2="232.4" y2="87.5"/>
<polyline class="st18" points="163.9,70.6 161.7,66.3 159.5,70.6 161.7,75 163.9,70.6 "/>
<polygon class="st17" points="161.7,75 159.5,70.6 161.7,66.3 163.9,70.6 "/>
<path class="st17" d="M232.4,175.9l2.6-6.5 M232.4,175.9l-2.6-6.5"/>
<polyline class="st19" points="2.8,1064.2 2.8,1077.2 95.7,1077.2 95.7,1064.2 2.8,1064.2 "/>
<text transform="matrix(0.85 0 0 1 301.4557 173.2694)"><tspan x="0" y="0" class="st20 st21">+</tspan><tspan x="2.2" y="0" class="st20 st21">w</tspan><tspan x="5.6" y="0" class="st20 st21">t</tspan><tspan x="7.4" y="0" class="st20 st21">r</tspan><tspan x="9.1" y="0" class="st20 st21">F</tspan><tspan x="11.3" y="0" class="st20 st21">a</tspan><tspan x="13.9" y="0" class="st20 st21">c</tspan><tspan x="16" y="0" class="st20 st21">ili</tspan><tspan x="19.9" y="0" class="st20 st21">t</tspan><tspan x="21.6" y="0" class="st20 st21">y</tspan><tspan x="23.8" y="0" class="st20 st21">A</tspan><tspan x="26.4" y="0" class="st20 st21">tt</tspan><tspan x="29.6" y="0" class="st20 st21">r</tspan><tspan x="31.3" y="0" class="st20 st21">i</tspan><tspan x="32.6" y="0" class="st20 st21">bu</tspan><tspan x="37.8" y="0" class="st20 st21">t</tspan><tspan x="39.5" y="0" class="st20 st21">e</tspan></text>
<polyline class="st19" points="2.8,1064.2 2.8,1077.2 19.4,1077.2 19.4,1064.2 2.8,1064.2 "/>
<text transform="matrix(0.85 0 0 1 360.4948 172.8397)" class="st20 st21">0..*</text>
<polyline class="st19" points="2.8,1064.2 2.8,1077.2 117.3,1077.2 117.3,1064.2 2.8,1064.2 "/>
<text transform="matrix(0.85 0 0 1 253.7135 116.5429)" class="st20 st21">+wtrFacilityTypeAttribute</text>
<polyline class="st19" points="2.8,1064.2 2.8,1077.2 19.4,1077.2 19.4,1064.2 2.8,1064.2 "/>
<text transform="matrix(0.85 0 0 1 317.9479 117.41)" class="st20 st21">0..*</text>
<polyline class="st19" points="2.8,1064.2 2.8,1077.2 104.3,1077.2 104.3,1064.2 2.8,1064.2 "/>
<text transform="matrix(0.85 0 0 1 179.487 172.8397)" class="st20 st21">+wtrFacilityIdAttribute</text>
<polyline class="st19" points="2.8,1064.2 2.8,1077.2 19.5,1077.2 19.5,1064.2 2.8,1064.2 "/>
<text transform="matrix(0.85 0 0 1 239.8151 174.1366)" class="st20 st21">0..1</text>
<polyline class="st19" points="2.8,1064.2 2.8,1077.2 124,1077.2 124,1064.2 2.8,1064.2 "/>
<text transform="matrix(0.85 0 0 1 116.1198 149.0194)" class="st20 st21">+waterBodyDetailAttribute</text>
<polyline class="st19" points="2.8,1064.2 2.8,1077.2 19.5,1077.2 19.5,1064.2 2.8,1064.2 "/>
<text transform="matrix(0.85 0 0 1 119.151 134.3085)" class="st20 st21">0..1</text>
<polyline class="st19" points="2.8,1064.2 2.8,1077.2 80.1,1077.2 80.1,1064.2 2.8,1064.2 "/>
<text transform="matrix(0.85 0 0 1 12.3776 97.9179)" class="st20 st21">+wtrDmAttribute</text>
<polyline class="st19" points="2.8,1064.2 2.8,1077.2 19.4,1077.2 19.4,1064.2 2.8,1064.2 "/>
<text transform="matrix(0.85 0 0 1 62.7291 99.6522)" class="st20 st21">0..*</text>
</svg>
