<?xml version="1.0" encoding="utf-8"?>
<!-- Generator: Adobe Illustrator 27.5.0, SVG Export Plug-In . SVG Version: 6.00 Build 0)  -->
<svg version="1.1" id="レイヤー_1" xmlns="http://www.w3.org/2000/svg" xmlns:xlink="http://www.w3.org/1999/xlink" x="0px"
	 y="0px" viewBox="0 0 786.7244263 905.8898315" style="enable-background:new 0 0 786.7244263 905.8898315;" xml:space="preserve">
<style type="text/css">
	.st0{opacity:0.5019608;fill-rule:evenodd;clip-rule:evenodd;fill:#969696;enable-background:new    ;}
	.st1{fill-rule:evenodd;clip-rule:evenodd;fill:#FFCCFF;}
	.st2{fill:none;stroke:#000000;stroke-width:1.5013124;stroke-linecap:round;stroke-linejoin:round;stroke-miterlimit:10;}
	.st3{font-family:'YuGothicUI-Regular';}
	.st4{font-size:9.7585306px;}
	.st5{font-family:'YuGothicUI-Bold';}
	.st6{font-size:10.2875204px;}
	.st7{fill:none;stroke:#000000;stroke-width:0.2788152;stroke-miterlimit:10;}
	.st8{fill:none;stroke:#000000;stroke-width:1.5013124;stroke-linecap:round;stroke-linejoin:bevel;stroke-miterlimit:10;}
	.st9{fill-rule:evenodd;clip-rule:evenodd;fill:#FFFFFF;}
</style>
<path class="st0" d="M352.2165222,185.7795258c1.0375671,0,1.8786621,0.84021,1.8786621,1.876709l0.0000305-0.000061v49.5432739
	l-0.0000305,0.000061c0,1.036438-0.841095,1.8766479-1.8786926,1.8766479l0,0h0.0000305H230.4773254h-0.0000153
	c-1.0375671,0-1.8786926-0.84021-1.8786926-1.876709h0.0000153v-49.5432739c0-1.036438,0.8411102-1.8766479,1.8786926-1.8766479l0,0
	H352.2165222L352.2165222,185.7795258L352.2165222,185.7795258z"/>
<path class="st1" d="M349.9620972,183.5275726c1.0375671,0,1.8786621,0.84021,1.8786621,1.8766479h0.0000305v49.5432739h-0.0000305
	c0,1.036499-0.841095,1.876709-1.8786926,1.8766479c0,0.000061,0,0,0,0h0.0000305h-121.739212v0.000061
	c-1.0375824-0.000061-1.8786926-0.84021-1.8786926-1.876709l0,0v-49.5432739c0-1.036438,0.8411102-1.8766479,1.8786926-1.8766479
	l0,0H349.9620972L349.9620972,183.5275726L349.9620972,183.5275726z"/>
<path class="st2" d="M349.9620972,183.5275726c1.0375671,0,1.8786621,0.84021,1.8786621,1.8766479h0.0000305v49.5432739h-0.0000305
	c0,1.036499-0.841095,1.876709-1.8786926,1.8766479c0,0.000061,0,0,0,0h0.0000305h-121.739212v0.000061
	c-1.0375824-0.000061-1.8786926-0.84021-1.8786926-1.876709l0,0v-49.5432739c0-1.036438,0.8411102-1.8766479,1.8786926-1.8766479
	l0,0H349.9620972L349.9620972,183.5275726L349.9620972,183.5275726z"/>
<text transform="matrix(0.85 0 0 1 257.1523438 198.5371094)" class="st3 st4">«FeatureType»</text>
<text transform="matrix(0.85 0 0 1 269.1757812 211.3027344)" class="st5 st4">urf::Zone</text>
<line class="st2" x1="226.3441925" y1="217.3071136" x2="351.8407898" y2="217.3071136"/>
<text transform="matrix(0.85 0 0 1 230.1054688 230.8261719)" class="st3 st4">+ </text>
<text transform="matrix(0.85 0 0 1 246.6367188 230.8261719)" class="st3 st4">location: xs::string [0..1]</text>
<path class="st0" d="M413.8375854,283.3648682c1.0375671,0,1.8786621,0.84021,1.8786621,1.876709l0.0000305-0.0001221v61.553833
	l-0.0000305,0.000061c0,1.036438-0.841095,1.8766479-1.8786926,1.8765869c0,0.000061,0,0,0,0h0.0000305H162.8444366
	l-0.0000153,0.000061c-1.0375671-0.000061-1.8786926-0.84021-1.8786926-1.876709h0.0000153v-61.553833
	c0-1.036377,0.8411102-1.8765869,1.8786926-1.8765869l0,0H413.8375854L413.8375854,283.3648682L413.8375854,283.3648682z"/>
<path class="st1" d="M411.5831604,281.112915c1.0375671,0,1.8786621,0.84021,1.8786621,1.8766479l0.0000305-0.000061v61.553833
	h-0.0000305c0,1.036499-0.841095,1.876709-1.8786926,1.8766479c0,0.000061,0,0,0,0h0.0000305H160.5900116l-0.0000153,0.000061
	c-1.0375671-0.000061-1.8786926-0.84021-1.8786926-1.876709h0.0000153v-61.553833
	c0-1.036377,0.8411102-1.8765869,1.8786926-1.8765869l0,0H411.5831604L411.5831604,281.112915L411.5831604,281.112915z"/>
<path class="st2" d="M411.5831604,281.112915c1.0375671,0,1.8786621,0.84021,1.8786621,1.8766479l0.0000305-0.000061v61.553833
	h-0.0000305c0,1.036499-0.841095,1.876709-1.8786926,1.8766479c0,0.000061,0,0,0,0h0.0000305H160.5900116l-0.0000153,0.000061
	c-1.0375671-0.000061-1.8786926-0.84021-1.8786926-1.876709h0.0000153v-61.553833
	c0-1.036377,0.8411102-1.8765869,1.8786926-1.8765869l0,0H411.5831604L411.5831604,281.112915L411.5831604,281.112915z"/>
<text transform="matrix(0.85 0 0 1 254.1523438 296.1308594)" class="st3 st4">«FeatureType»</text>
<text transform="matrix(0.85 0 0 1 175.9960938 308.8964844)" class="st5 st4">urf::ScheduledAreaForUrbanDevelopmentProject</text>
<line class="st2" x1="158.711319" y1="314.8924561" x2="413.461853" y2="314.8924561"/>
<text transform="matrix(0.85 0 0 1 162.4648438 328.4042969)" class="st3 st4">+ </text>
<text transform="matrix(0.85 0 0 1 178.9960938 328.4042969)" class="st3 st4">scheduledExecutor: xs::string</text>
<path class="st0" d="M709.1678467,28.8924408c1.0375366,0,1.8786621,0.8400879,1.8786621,1.8765869l0,0v344.5512085v0.000061
	c0,1.036377-0.8411255,1.8765869-1.8787231,1.8765869l0,0h0.000061H455.9202881h-0.000061
	c-1.0375366,0-1.8786926-0.84021-1.8786926-1.8766479h0.000061V30.7690277c0-1.036499,0.841095-1.8765869,1.8786926-1.8765869l0,0
	H709.1678467L709.1678467,28.8924408L709.1678467,28.8924408z"/>
<path class="st1" d="M706.9133911,26.6404877c1.0375977,0,1.8786621,0.8400879,1.8786621,1.8765869h0.000061v344.5511475
	l-0.000061,0.0001221c0,1.036377-0.8410645,1.8765869-1.8786621,1.8765869l0,0l0,0H453.6658325h-0.0000305
	c-1.0375366,0-1.8786926-0.84021-1.8786926-1.876709h0.0000305V28.5170746c0-1.036499,0.8411255-1.8765869,1.8786926-1.8765869l0,0
	H706.9133911L706.9133911,26.6404877L706.9133911,26.6404877z"/>
<path class="st2" d="M706.9133911,26.6404877c1.0375977,0,1.8786621,0.8400879,1.8786621,1.8765869h0.000061v344.5511475
	l-0.000061,0.0001221c0,1.036377-0.8410645,1.8765869-1.8786621,1.8765869l0,0l0,0H453.6658325h-0.0000305
	c-1.0375366,0-1.8786926-0.84021-1.8786926-1.876709h0.0000305V28.5170746c0-1.036499,0.8411255-1.8765869,1.8786926-1.8765869l0,0
	H706.9133911L706.9133911,26.6404877L706.9133911,26.6404877z"/>
<text transform="matrix(0.85 0 -0.3165385 0.9485797 659.1828003 39.4142189)" class="st3 st6">_CityObject</text>
<text transform="matrix(0.85 0 0 1 548.7226562 56.6621094)" class="st3 st4">«FeatureType»</text>
<text transform="matrix(0.85 0 -0.3165385 0.9485797 535.9436035 69.4426956)" class="st3 st6">u</text>
<text transform="matrix(0.85 0 -0.3165385 0.9485797 535.9436035 69.4426956)" class="st7 st3 st6">u</text>
<text transform="matrix(0.85 0 -0.3165385 0.9485797 541.9494629 69.4426956)" class="st3 st6">r</text>
<text transform="matrix(0.85 0 -0.3165385 0.9485797 541.9494629 69.4426956)" class="st7 st3 st6">r</text>
<text transform="matrix(0.85 0 -0.3165385 0.9485797 545.6975098 69.4426956)" class="st3 st6">f</text>
<text transform="matrix(0.85 0 -0.3165385 0.9485797 545.6975098 69.4426956)" class="st7 st3 st6">f</text>
<text transform="matrix(0.85 0 -0.3165385 0.9485797 548.7072754 69.4426956)" class="st3 st6">::</text>
<text transform="matrix(0.85 0 -0.3165385 0.9485797 548.7072754 69.4426956)" class="st7 st3 st6">::</text>
<text transform="matrix(0.85 0 -0.3165385 0.9485797 553.1975098 69.4426956)" class="st3 st6">_</text>
<text transform="matrix(0.85 0 -0.3165385 0.9485797 553.1975098 69.4426956)" class="st7 st3 st6">_</text>
<text transform="matrix(0.85 0 -0.3165385 0.9485797 556.9592285 69.4426956)" class="st3 st6">U</text>
<text transform="matrix(0.85 0 -0.3165385 0.9485797 556.9592285 69.4426956)" class="st7 st3 st6">U</text>
<text transform="matrix(0.85 0 -0.3165385 0.9485797 563.7189941 69.4426956)" class="st3 st6">r</text>
<text transform="matrix(0.85 0 -0.3165385 0.9485797 563.7189941 69.4426956)" class="st7 st3 st6">r</text>
<text transform="matrix(0.85 0 -0.3165385 0.9485797 567.467041 69.4426956)" class="st3 st6">b</text>
<text transform="matrix(0.85 0 -0.3165385 0.9485797 567.467041 69.4426956)" class="st7 st3 st6">b</text>
<text transform="matrix(0.85 0 -0.3165385 0.9485797 573.4748535 69.4426956)" class="st3 st6">a</text>
<text transform="matrix(0.85 0 -0.3165385 0.9485797 573.4748535 69.4426956)" class="st7 st3 st6">a</text>
<text transform="matrix(0.85 0 -0.3165385 0.9485797 578.7268066 69.4426956)" class="st3 st6">n</text>
<text transform="matrix(0.85 0 -0.3165385 0.9485797 578.7268066 69.4426956)" class="st7 st3 st6">n</text>
<text transform="matrix(0.85 0 -0.3165385 0.9485797 584.7346191 69.4426956)" class="st3 st6">F</text>
<text transform="matrix(0.85 0 -0.3165385 0.9485797 584.7346191 69.4426956)" class="st7 st3 st6">F</text>
<text transform="matrix(0.85 0 -0.3165385 0.9485797 589.9943848 69.4426956)" class="st3 st6">un</text>
<text transform="matrix(0.85 0 -0.3165385 0.9485797 589.9943848 69.4426956)" class="st7 st3 st6">un</text>
<text transform="matrix(0.85 0 -0.3165385 0.9485797 602.0080566 69.4426956)" class="st3 st6">c</text>
<text transform="matrix(0.85 0 -0.3165385 0.9485797 602.0080566 69.4426956)" class="st7 st3 st6">c</text>
<text transform="matrix(0.85 0 -0.3165385 0.9485797 606.5197754 69.4426956)" class="st3 st6">t</text>
<text transform="matrix(0.85 0 -0.3165385 0.9485797 606.5197754 69.4426956)" class="st7 st3 st6">t</text>
<text transform="matrix(0.85 0 -0.3165385 0.9485797 610.2697754 69.4426956)" class="st3 st6">i</text>
<text transform="matrix(0.85 0 -0.3165385 0.9485797 610.2697754 69.4426956)" class="st7 st3 st6">i</text>
<text transform="matrix(0.85 0 -0.3165385 0.9485797 612.529541 69.4426956)" class="st3 st6">o</text>
<text transform="matrix(0.85 0 -0.3165385 0.9485797 612.529541 69.4426956)" class="st7 st3 st6">o</text>
<text transform="matrix(0.85 0 -0.3165385 0.9485797 618.5373535 69.4426956)" class="st3 st6">n</text>
<text transform="matrix(0.85 0 -0.3165385 0.9485797 618.5373535 69.4426956)" class="st7 st3 st6">n</text>
<line class="st2" x1="451.7871399" y1="75.4330902" x2="708.7921143" y2="75.4330902"/>
<text transform="matrix(0.85 0 0 1 455.5429688 88.9511719)" class="st3 st4">+ </text>
<text transform="matrix(0.85 0 0 1 472.0742188 88.9511719)" class="st3 st4">areaClassificationType: gml::CodeType [0..1]</text>
<text transform="matrix(0.85 0 0 1 455.5429688 101.7089844)" class="st3 st4">+ </text>
<text transform="matrix(0.85 0 0 1 472.0742188 101.7089844)" class="st3 st4">city: gml::CodeType [0..1]</text>
<text transform="matrix(0.85 0 0 1 455.5429688 114.4667969)" class="st3 st4">+ </text>
<text transform="matrix(0.85 0 0 1 472.0742188 114.4667969)" class="st3 st4">class: gml::CodeType [0..1]</text>
<text transform="matrix(0.85 0 0 1 455.5429688 127.2324219)" class="st3 st4">+ </text>
<text transform="matrix(0.85 0 0 1 472.0742188 127.2324219)" class="st3 st4">custodian: xs::string [0..1]</text>
<text transform="matrix(0.85 0 0 1 455.5429688 139.9980469)" class="st3 st4">+ </text>
<text transform="matrix(0.85 0 0 1 472.0742188 139.9980469)" class="st3 st4">enactmentFiscalYear: xs::gYear [0..1]</text>
<text transform="matrix(0.85 0 0 1 455.5429688 152.7480469)" class="st3 st4">+ </text>
<text transform="matrix(0.85 0 0 1 472.0742188 152.7480469)" class="st3 st4">expirationFiscalYear: xs::gYear [0..1]</text>
<text transform="matrix(0.85 0 0 1 455.5429688 165.5136719)" class="st3 st4">+ </text>
<text transform="matrix(0.85 0 0 1 472.0742188 165.5136719)" class="st3 st4">finalNotificationDate: xs::date [0..1]</text>
<text transform="matrix(0.85 0 0 1 455.5429688 178.2792969)" class="st3 st4">+ </text>
<text transform="matrix(0.85 0 0 1 472.0742188 178.2792969)" class="st3 st4">finalNotificationNumber: xs::string [0..1]</text>
<text transform="matrix(0.85 0 0 1 455.5429688 191.0371094)" class="st3 st4">+ </text>
<text transform="matrix(0.85 0 0 1 472.0742188 191.0371094)" class="st3 st4">function: gml::CodeType [0..*]</text>
<text transform="matrix(0.85 0 0 1 455.5429688 203.7949219)" class="st3 st4">+ </text>
<text transform="matrix(0.85 0 0 1 472.0742188 203.7949219)" class="st3 st4">legalGrounds: xs::string [0..1]</text>
<text transform="matrix(0.85 0 0 1 455.5429688 216.5605469)" class="st3 st4">+ </text>
<text transform="matrix(0.85 0 0 1 472.0742188 216.5605469)" class="st3 st4">nominalArea: gml::MeasureType [0..1]</text>
<text transform="matrix(0.85 0 0 1 455.5429688 229.3183594)" class="st3 st4">+ </text>
<text transform="matrix(0.85 0 0 1 472.0742188 229.3183594)" class="st3 st4">note: gml:StringOrRefType [0..1]</text>
<text transform="matrix(0.85 0 0 1 455.5429688 242.0839844)" class="st3 st4">+ </text>
<text transform="matrix(0.85 0 0 1 472.0742188 242.0839844)" class="st3 st4">notificationNumber: xs::string [0..1]</text>
<text transform="matrix(0.85 0 0 1 455.5429688 254.8417969)" class="st3 st4">+ </text>
<text transform="matrix(0.85 0 0 1 472.0742188 254.8417969)" class="st3 st4">prefecture: gml::CodeType [0..1]</text>
<text transform="matrix(0.85 0 0 1 455.5429688 267.5996094)" class="st3 st4">+ </text>
<text transform="matrix(0.85 0 0 1 472.0742188 267.5996094)" class="st3 st4">reason: gml:StringOrRefType [0..1]</text>
<text transform="matrix(0.85 0 0 1 455.5429688 280.3652344)" class="st3 st4">+ </text>
<text transform="matrix(0.85 0 0 1 472.0742188 280.3652344)" class="st3 st4">reference: xs::anyURI [0..1]</text>
<text transform="matrix(0.85 0 0 1 455.5429688 293.1308594)" class="st3 st4">+ </text>
<text transform="matrix(0.85 0 0 1 472.0742188 293.1308594)" class="st3 st4">surveyYear: xs::gYear [0..1]</text>
<text transform="matrix(0.85 0 0 1 455.5429688 305.8808594)" class="st3 st4">+ </text>
<text transform="matrix(0.85 0 0 1 472.0742188 305.8808594)" class="st3 st4">urbanPlanType: gml::CodeType [0..1]</text>
<text transform="matrix(0.85 0 0 1 455.5429688 318.6464844)" class="st3 st4">+ </text>
<text transform="matrix(0.85 0 0 1 472.0742188 318.6464844)" class="st3 st4">usage: gml::CodeType [0..*]</text>
<text transform="matrix(0.85 0 0 1 455.5429688 331.4121094)" class="st3 st4">+ </text>
<text transform="matrix(0.85 0 0 1 472.0742188 331.4121094)" class="st3 st4">validFrom: xs::date [0..1]</text>
<text transform="matrix(0.85 0 0 1 455.5429688 344.1777344)" class="st3 st4">+ </text>
<text transform="matrix(0.85 0 0 1 472.0742188 344.1777344)" class="st3 st4">validFromType: gml::CodeType [0..1]</text>
<text transform="matrix(0.85 0 0 1 455.5429688 356.9277344)" class="st3 st4">+ </text>
<text transform="matrix(0.85 0 0 1 472.0742188 356.9277344)" class="st3 st4">validTo: xs::date [0..1]</text>
<text transform="matrix(0.85 0 0 1 455.5429688 369.6933594)" class="st3 st4">+ </text>
<text transform="matrix(0.85 0 0 1 472.0742188 369.6933594)" class="st3 st4">validToType: gml::CodeType [0..1]</text>
<path class="st0" d="M353.7194824,427.4909058c1.0375671,0,1.8786621,0.8401489,1.8786621,1.8766479l0.0000305-0.000061v53.2965698
	l-0.0000305,0.000061c0,1.036438-0.841095,1.8766479-1.8786926,1.8765869c0,0.000061,0,0,0,0h0.0000305H42.6082039
	l-0.0000038,0.000061c-1.037571-0.000061-1.8786888-0.84021-1.8786888-1.876709l0,0v-53.2965698
	c0-1.036438,0.8411217-1.8766479,1.8786926-1.8765869v-0.000061h311.1112671V427.4909058L353.7194824,427.4909058z"/>
<path class="st1" d="M351.4650574,425.2388916c1.0375671,0,1.8786621,0.84021,1.8786621,1.8766479h0.0000305v53.2965698
	l-0.0000305,0.000061c0,1.036377-0.841095,1.8766479-1.8786926,1.8765869c0,0.000061,0,0,0,0h0.0000305H40.353775
	l-0.0000038,0.000061c-1.037571-0.000061-1.8786888-0.840271-1.8786888-1.876709v-53.2965698l0,0
	c0-1.036438,0.8411217-1.8766479,1.8786926-1.8766479l0,0H351.4650574L351.4650574,425.2388916L351.4650574,425.2388916z"/>
<path class="st2" d="M351.4650574,425.2388916c1.0375671,0,1.8786621,0.84021,1.8786621,1.8766479h0.0000305v53.2965698
	l-0.0000305,0.000061c0,1.036377-0.841095,1.8766479-1.8786926,1.8765869c0,0.000061,0,0,0,0h0.0000305H40.353775
	l-0.0000038,0.000061c-1.037571-0.000061-1.8786888-0.840271-1.8786888-1.876709v-53.2965698l0,0
	c0-1.036438,0.8411217-1.8766479,1.8786926-1.8766479l0,0H351.4650574L351.4650574,425.2388916L351.4650574,425.2388916z"/>
<text transform="matrix(0.85 0 0 1 163.9648438 440.2558594)" class="st3 st4">«FeatureType»</text>
<text transform="matrix(0.85 0 0 1 45.2382812 453.0136719)" class="st5 st4">urf::ScheduledAreaForNewHousingAndUrbanDevelopmentProjects</text>
<path class="st0" d="M422.1038208,501.0551758c1.0375671,0,1.8786621,0.84021,1.8786621,1.8766479l0.0000305-0.000061v53.2966309
	l-0.0000305,0.000061c0,1.036377-0.841095,1.8765869-1.8786621,1.8765869l0,0l0,0H140.3001404h-0.0000153
	c-1.0375671,0-1.8786926-0.84021-1.8786926-1.8766479h0.0000153v-53.2966309c0-1.036377,0.8411102-1.8765869,1.8786926-1.8765869
	l0,0H422.1038208L422.1038208,501.0551758L422.1038208,501.0551758z"/>
<path class="st1" d="M419.8493958,498.8032227c1.0375671,0,1.8786621,0.84021,1.8786621,1.8766479l0.0000305-0.000061v53.2966309
	h-0.0000305c0,1.036438-0.841095,1.8766479-1.8786621,1.8765869c0,0.000061,0,0,0,0l0,0H138.0457153l-0.0000153,0.000061
	c-1.0375671-0.000061-1.8786926-0.84021-1.8786926-1.8766479h0.0000153v-53.2966309
	c0-1.036377,0.8411102-1.8766479,1.8786926-1.8765869v-0.000061h281.8036804V498.8032227L419.8493958,498.8032227z"/>
<path class="st2" d="M419.8493958,498.8032227c1.0375671,0,1.8786621,0.84021,1.8786621,1.8766479l0.0000305-0.000061v53.2966309
	h-0.0000305c0,1.036438-0.841095,1.8766479-1.8786621,1.8765869c0,0.000061,0,0,0,0l0,0H138.0457153l-0.0000153,0.000061
	c-1.0375671-0.000061-1.8786926-0.84021-1.8786926-1.8766479h0.0000153v-53.2966309
	c0-1.036377,0.8411102-1.8766479,1.8786926-1.8765869v-0.000061h281.8036804V498.8032227L419.8493958,498.8032227z"/>
<text transform="matrix(0.85 0 0 1 247.3789062 513.8261719)" class="st3 st4">«FeatureType»</text>
<text transform="matrix(0.85 0 0 1 148.9414062 526.5761719)" class="st5 st4">urf::ScheduledAreaForIndustrialParkDevelopmentProjects</text>
<path class="st0" d="M483.7249146,583.6273804c1.0375366,0,1.8786316,0.8401489,1.8786316,1.8766479l0.000061-0.000061v53.2965698
	l-0.000061,0.000061c0,1.036438-0.841095,1.8766479-1.8786926,1.8765869c0,0.000061,0,0,0,0h0.000061H222.9625549
	l-0.0000153,0.000061c-1.0375671-0.000061-1.8786926-0.84021-1.8786926-1.876709h0.0000153v-53.2965698
	c0-1.036438,0.8411102-1.8766479,1.8786926-1.8765869v-0.000061h260.7623596V583.6273804L483.7249146,583.6273804z"/>
<path class="st1" d="M481.4704895,581.3754272c1.0375366,0,1.8786316,0.8401489,1.8786316,1.8766479l0.0000305-0.000061v53.2965698
	l-0.0000305,0.000061c0,1.036377-0.841095,1.8766479-1.8786926,1.8765869c0,0.000061,0,0,0,0h0.000061H220.7081299
	l-0.0000153,0.000061c-1.0375671-0.000061-1.8786926-0.840271-1.8786926-1.876709h0.0000153v-53.2965698
	c0-1.036438,0.8411102-1.8766479,1.8786926-1.8765869v-0.000061h260.7623596V581.3754272L481.4704895,581.3754272z"/>
<path class="st2" d="M481.4704895,581.3754272c1.0375366,0,1.8786316,0.8401489,1.8786316,1.8766479l0.0000305-0.000061v53.2965698
	l-0.0000305,0.000061c0,1.036377-0.841095,1.8766479-1.8786926,1.8765869c0,0.000061,0,0,0,0h0.000061H220.7081299
	l-0.0000153,0.000061c-1.0375671-0.000061-1.8786926-0.840271-1.8786926-1.876709h0.0000153v-53.2965698
	c0-1.036438,0.8411102-1.8766479,1.8786926-1.8765869v-0.000061h260.7623596V581.3754272L481.4704895,581.3754272z"/>
<text transform="matrix(0.85 0 0 1 319.5273438 596.3964844)" class="st3 st4">«FeatureType»</text>
<text transform="matrix(0.85 0 0 1 227.8476562 609.1542969)" class="st5 st4">urf::ScheduledAreaForNewUrbanInfrastructureProjects</text>
<path class="st0" d="M541.588562,658.6930542c1.0375366,0,1.8786621,0.8401489,1.8786621,1.8766479l0.000061-0.0001221v53.2965698
	l-0.000061,0.0001221c0,1.036377-0.8411255,1.8766479-1.8787231,1.8765259c0,0.0001221,0,0,0,0h0.000061H313.13974
	l-0.0000305,0.0001221c-1.0375671-0.0001221-1.8786621-0.840271-1.8786621-1.87677l0,0v-53.2965698
	c0-1.036377,0.841095-1.8766479,1.8786926-1.8765259v-0.0001221h228.448822V658.6930542L541.588562,658.6930542z"/>
<path class="st1" d="M539.3341675,656.4411011c1.0375366,0,1.8786011,0.8401489,1.8786011,1.8765869l0.000061-0.000061v53.2965698
	l-0.000061,0.0001221c0,1.036377-0.8410645,1.8766479-1.8786621,1.8765259c0,0.0001221,0,0,0,0h0.000061H310.8853149
	l-0.0000305,0.0001221c-1.0375671-0.0001221-1.8786926-0.840271-1.8786926-1.87677h0.0000305V658.317627
	c0-1.036377,0.841095-1.8766479,1.8786926-1.8765259v-0.0001221h228.4488525V656.4411011L539.3341675,656.4411011z"/>
<path class="st2" d="M539.3341675,656.4411011c1.0375366,0,1.8786011,0.8401489,1.8786011,1.8765869l0.000061-0.000061v53.2965698
	l-0.000061,0.0001221c0,1.036377-0.8410645,1.8766479-1.8786621,1.8765259c0,0.0001221,0,0,0,0h0.000061H310.8853149
	l-0.0000305,0.0001221c-1.0375671-0.0001221-1.8786926-0.840271-1.8786926-1.87677h0.0000305V658.317627
	c0-1.036377,0.841095-1.8766479,1.8786926-1.8765259v-0.0001221h228.4488525V656.4411011L539.3341675,656.4411011z"/>
<text transform="matrix(0.85 0 0 1 393.1679688 671.4589844)" class="st3 st4">«FeatureType»</text>
<text transform="matrix(0.85 0 0 1 315.7695312 684.2167969)" class="st5 st4">urf::ScheduledAreaForCollectiveHousingFacilities</text>
<path class="st0" d="M646.7952881,741.2651978c1.0375366,0,1.8786621,0.84021,1.8786621,1.8766479l0.000061-0.000061v53.2965698
	l-0.000061,0.0001221c0,1.0363159-0.8411255,1.8765869-1.8787231,1.8765259c0,0.000061,0,0,0,0h0.000061H313.13974
	l-0.0000305,0.000061c-1.0375671-0.000061-1.8786621-0.840271-1.8786621-1.876709l0,0v-53.2965698
	c0-1.036377,0.841095-1.8766479,1.8786926-1.8765869v-0.000061h333.6555481V741.2651978L646.7952881,741.2651978z"/>
<path class="st1" d="M644.5408936,739.0132446c1.0375366,0,1.8786011,0.84021,1.8786011,1.8766479l0.000061-0.000061v53.2965698
	l-0.000061,0.000061c0,1.036377-0.8410645,1.8766479-1.8786621,1.8765869c0,0.000061,0,0,0,0h0.000061H310.8853149
	l-0.0000305,0.000061c-1.0375671-0.000061-1.8786926-0.840271-1.8786926-1.876709h0.0000305v-53.2965698
	c0-1.036377,0.841095-1.8766479,1.8786926-1.8765869v-0.000061h333.6555786V739.0132446L644.5408936,739.0132446z"/>
<path class="st2" d="M644.5408936,739.0132446c1.0375366,0,1.8786011,0.84021,1.8786011,1.8766479l0.000061-0.000061v53.2965698
	l-0.000061,0.000061c0,1.036377-0.8410645,1.8766479-1.8786621,1.8765869c0,0.000061,0,0,0,0h0.000061H310.8853149
	l-0.0000305,0.000061c-1.0375671-0.000061-1.8786926-0.840271-1.8786926-1.876709h0.0000305v-53.2965698
	c0-1.036377,0.841095-1.8766479,1.8786926-1.8765869v-0.000061h333.6555786V739.0132446L644.5408936,739.0132446z"/>
<text transform="matrix(0.85 0 0 1 445.7773438 754.0292969)" class="st3 st4">«FeatureType»</text>
<text transform="matrix(0.85 0 0 1 323.2851562 766.7949219)" class="st5 st4">urf::ScheduledAreaForCollectiveGovernmentAndPublicOfficeFacilities</text>
<path class="st0" d="M744.4872437,823.8374023c1.0375366,0,1.8786621,0.84021,1.8786621,1.8766479v-0.0001221v53.2966309v0.000061
	c0,1.036377-0.8411255,1.8766479-1.8787231,1.8765869c0,0.000061,0,0,0,0h0.000061h-235.963623l-0.0000305,0.000061
	c-1.0375671-0.000061-1.8786926-0.840271-1.8786926-1.876709h0.0000305v-53.2966309
	c0-1.0363159,0.841095-1.8766479,1.8786926-1.8765259v-0.0001221h235.963623V823.8374023L744.4872437,823.8374023z"/>
<path class="st1" d="M742.2327881,821.5854492c1.0375366,0,1.8786621,0.8401489,1.8786621,1.8766479l0.000061-0.0001221v53.2965698
	l-0.000061,0.0001221c0,1.036377-0.8411255,1.8766479-1.8786621,1.8765259c0,0.0001221,0,0,0,0l0,0H506.2691956
	l-0.0000305,0.0001221c-1.0375671-0.0001221-1.8786926-0.840271-1.8786926-1.87677h0.0000305v-53.2965698
	c0-1.036377,0.841095-1.8766479,1.8786926-1.8765259v-0.0001221h235.9635925V821.5854492L742.2327881,821.5854492z"/>
<path class="st2" d="M742.2327881,821.5854492c1.0375366,0,1.8786621,0.8401489,1.8786621,1.8766479l0.000061-0.0001221v53.2965698
	l-0.000061,0.0001221c0,1.036377-0.8411255,1.8766479-1.8786621,1.8765259c0,0.0001221,0,0,0,0l0,0H506.2691956
	l-0.0000305,0.0001221c-1.0375671-0.0001221-1.8786926-0.840271-1.8786926-1.87677h0.0000305v-53.2965698
	c0-1.036377,0.841095-1.8766479,1.8786926-1.8765259v-0.0001221h235.9635925V821.5854492L742.2327881,821.5854492z"/>
<text transform="matrix(0.85 0 0 1 592.3164062 836.5996094)" class="st3 st4">«FeatureType»</text>
<text transform="matrix(0.85 0 0 1 517.9179688 849.3652344)" class="st5 st4">urf::ScheduledAreaForDistributionBusinessPark</text>
<line class="st8" x1="353.34375" y1="196.288681" x2="451.035675" y2="196.288681"/>
<polyline class="st9" points="439.0120544,200.7926483 439.0120544,191.7847748 451.035675,196.288681 439.0120544,200.7926483 "/>
<polygon class="st8" points="451.035675,196.288681 439.0120544,191.7847748 439.0120544,200.7926483 "/>
<line class="st8" x1="294.7285767" y1="280.3622437" x2="294.7285767" y2="238.3254242"/>
<polyline class="st9" points="299.2374268,250.3359222 290.219696,250.3359222 294.7285767,238.3254242 299.2374268,250.3359222 "/>
<polygon class="st8" points="299.2374268,250.3359222 290.219696,250.3359222 294.7285767,238.3254242 "/>
<line class="st8" x1="196.285141" y1="424.4882202" x2="196.285141" y2="384.7034302"/>
<line class="st8" x1="196.285141" y1="384.7034302" x2="286.4623108" y2="384.7034302"/>
<line class="st8" x1="286.4623108" y1="384.7034302" x2="286.4623108" y2="347.9212646"/>
<polyline class="st9" points="290.9711914,359.9317627 281.9534607,359.9317627 286.4623108,347.9212646 290.9711914,359.9317627 
	"/>
<polygon class="st8" points="290.9711914,359.9317627 281.9534607,359.9317627 286.4623108,347.9212646 "/>
<line class="st8" x1="378.8939514" y1="498.0525513" x2="378.8939514" y2="384.7034302"/>
<line class="st8" x1="426.9884338" y1="580.6246948" x2="426.9884338" y2="384.7034302"/>
<line class="st8" x1="498.3786926" y1="655.6903076" x2="498.3786926" y2="384.7034302"/>
<line class="st8" x1="569.7689819" y1="738.2625122" x2="569.7689819" y2="384.7034302"/>
<line class="st8" x1="701.2773438" y1="820.8346558" x2="701.2773438" y2="384.7034302"/>
<line class="st8" x1="701.2773438" y1="384.7034302" x2="286.4623108" y2="384.7034302"/>
</svg>
