<?xml version="1.0" encoding="utf-8"?>
<!-- Generator: Adobe Illustrator 27.5.0, SVG Export Plug-In . SVG Version: 6.00 Build 0)  -->
<svg version="1.1" id="レイヤー_1" xmlns="http://www.w3.org/2000/svg" xmlns:xlink="http://www.w3.org/1999/xlink" x="0px"
	 y="0px" viewBox="0 0 1138.7971191 1472.9885254" style="enable-background:new 0 0 1138.7971191 1472.9885254;"
	 xml:space="preserve">
<style type="text/css">
	.st0{opacity:0.5019608;fill-rule:evenodd;clip-rule:evenodd;fill:#969696;enable-background:new    ;}
	.st1{fill-rule:evenodd;clip-rule:evenodd;fill:#FFCCFF;}
	.st2{fill:none;stroke:#000000;stroke-width:1.5013124;stroke-linecap:round;stroke-linejoin:round;stroke-miterlimit:10;}
	.st3{font-family:'YuGothicUI-Regular';}
	.st4{font-size:10.2875204px;}
	.st5{font-size:9.7585306px;}
	.st6{fill:none;stroke:#000000;stroke-width:0.2788152;stroke-miterlimit:10;}
	.st7{font-family:'YuGothicUI-Bold';}
	.st8{fill-rule:evenodd;clip-rule:evenodd;fill:#F0F0F0;}
	.st9{fill:none;stroke:#D7D7D7;stroke-width:0.7506562;stroke-linecap:square;stroke-miterlimit:10;}
	.st10{fill-rule:evenodd;clip-rule:evenodd;fill:#CCFFCC;}
	.st11{fill:none;stroke:#000000;stroke-width:0.7506562;stroke-linecap:square;stroke-miterlimit:10;}
	.st12{fill:#003060;}
	.st13{fill-rule:evenodd;clip-rule:evenodd;fill:#FFFFCC;}
	.st14{font-family:'Meiryo-Bold';}
	.st15{font-size:12.010499px;}
	.st16{letter-spacing:-2.352941;}
	.st17{fill:none;stroke:#000000;stroke-width:1.5013124;stroke-linecap:round;stroke-linejoin:bevel;stroke-miterlimit:10;}
	.st18{fill-rule:evenodd;clip-rule:evenodd;fill:#FFFFFF;}
	.st19{font-family:'Meiryo';}
	.st20{font-size:7.5065618px;}
</style>
<path class="st0" d="M612.9451294,98.9912109c1.0375366,0,1.8786621,0.8400879,1.8786621,1.8765869l0,0v344.5511475v0.0001221
	c0,1.036377-0.8411255,1.8765869-1.8787231,1.8765869l0,0h0.000061H401.7802429h-0.000061
	c-1.0375366,0-1.8786926-0.84021-1.8786926-1.876709h0.000061V100.8677979c0-1.036499,0.841095-1.8765869,1.8786926-1.8765869l0,0
	H612.9451294L612.9451294,98.9912109L612.9451294,98.9912109z"/>
<path class="st1" d="M610.6906738,96.7391357c1.0375366,0,1.8786621,0.84021,1.8786621,1.876709h0.000061v344.5511475h-0.000061
	c0,1.036499-0.8411255,1.876709-1.8787231,1.8765869c0,0.0001221,0,0,0,0h0.000061H399.5257874l-0.0000305,0.0001221
	c-1.0375366-0.0001221-1.8786926-0.84021-1.8786926-1.876709h0.000061V98.6158447c0-1.036499,0.841095-1.876709,1.8786621-1.876709
	l0,0H610.6906738L610.6906738,96.7391357L610.6906738,96.7391357z"/>
<path class="st2" d="M610.6906738,96.7391357c1.0375366,0,1.8786621,0.84021,1.8786621,1.876709h0.000061v344.5511475h-0.000061
	c0,1.036499-0.8411255,1.876709-1.8787231,1.8765869c0,0.0001221,0,0,0,0h0.000061H399.5257874l-0.0000305,0.0001221
	c-1.0375366-0.0001221-1.8786926-0.84021-1.8786926-1.876709h0.000061V98.6158447c0-1.036499,0.841095-1.876709,1.8786621-1.876709
	l0,0H610.6906738L610.6906738,96.7391357L610.6906738,96.7391357z"/>
<text transform="matrix(0.85 0 -0.3165385 0.9485797 554.4624634 109.5141678)" class="st3 st4">_CityObject</text>
<text transform="matrix(0.85 0 0 1 473.5458984 126.7753906)" class="st3 st5">«FeatureType»</text>
<text transform="matrix(0.85 0 -0.3165385 0.9485797 460.766449 139.5421753)" class="st3 st4">u</text>
<text transform="matrix(0.85 0 -0.3165385 0.9485797 460.766449 139.5421753)" class="st6 st3 st4">u</text>
<text transform="matrix(0.85 0 -0.3165385 0.9485797 466.7732849 139.5421753)" class="st3 st4">r</text>
<text transform="matrix(0.85 0 -0.3165385 0.9485797 466.7732849 139.5421753)" class="st6 st3 st4">r</text>
<text transform="matrix(0.85 0 -0.3165385 0.9485797 470.5213318 139.5421753)" class="st3 st4">f</text>
<text transform="matrix(0.85 0 -0.3165385 0.9485797 470.5213318 139.5421753)" class="st6 st3 st4">f</text>
<text transform="matrix(0.85 0 -0.3165385 0.9485797 473.5301208 139.5421753)" class="st3 st4">::</text>
<text transform="matrix(0.85 0 -0.3165385 0.9485797 473.5301208 139.5421753)" class="st6 st3 st4">::</text>
<text transform="matrix(0.85 0 -0.3165385 0.9485797 478.0203552 139.5421753)" class="st3 st4">_</text>
<text transform="matrix(0.85 0 -0.3165385 0.9485797 478.0203552 139.5421753)" class="st6 st3 st4">_</text>
<text transform="matrix(0.85 0 -0.3165385 0.9485797 481.782074 139.5421753)" class="st3 st4">U</text>
<text transform="matrix(0.85 0 -0.3165385 0.9485797 481.782074 139.5421753)" class="st6 st3 st4">U</text>
<text transform="matrix(0.85 0 -0.3165385 0.9485797 488.5418396 139.5421753)" class="st3 st4">r</text>
<text transform="matrix(0.85 0 -0.3165385 0.9485797 488.5418396 139.5421753)" class="st6 st3 st4">r</text>
<text transform="matrix(0.85 0 -0.3165385 0.9485797 492.2898865 139.5421753)" class="st3 st4">b</text>
<text transform="matrix(0.85 0 -0.3165385 0.9485797 492.2898865 139.5421753)" class="st6 st3 st4">b</text>
<text transform="matrix(0.85 0 -0.3165385 0.9485797 498.297699 139.5421753)" class="st3 st4">a</text>
<text transform="matrix(0.85 0 -0.3165385 0.9485797 498.297699 139.5421753)" class="st6 st3 st4">a</text>
<text transform="matrix(0.85 0 -0.3165385 0.9485797 503.5506287 139.5421753)" class="st3 st4">n</text>
<text transform="matrix(0.85 0 -0.3165385 0.9485797 503.5506287 139.5421753)" class="st6 st3 st4">n</text>
<text transform="matrix(0.85 0 -0.3165385 0.9485797 509.5584412 139.5421753)" class="st3 st4">F</text>
<text transform="matrix(0.85 0 -0.3165385 0.9485797 509.5584412 139.5421753)" class="st6 st3 st4">F</text>
<text transform="matrix(0.85 0 -0.3165385 0.9485797 514.8172607 139.5421753)" class="st3 st4">un</text>
<text transform="matrix(0.85 0 -0.3165385 0.9485797 514.8172607 139.5421753)" class="st6 st3 st4">un</text>
<text transform="matrix(0.85 0 -0.3165385 0.9485797 526.8309326 139.5421753)" class="st3 st4">c</text>
<text transform="matrix(0.85 0 -0.3165385 0.9485797 526.8309326 139.5421753)" class="st6 st3 st4">c</text>
<text transform="matrix(0.85 0 -0.3165385 0.9485797 531.3436279 139.5421753)" class="st3 st4">t</text>
<text transform="matrix(0.85 0 -0.3165385 0.9485797 531.3436279 139.5421753)" class="st6 st3 st4">t</text>
<text transform="matrix(0.85 0 -0.3165385 0.9485797 535.0936279 139.5421753)" class="st3 st4">i</text>
<text transform="matrix(0.85 0 -0.3165385 0.9485797 535.0936279 139.5421753)" class="st6 st3 st4">i</text>
<text transform="matrix(0.85 0 -0.3165385 0.9485797 537.352417 139.5421753)" class="st3 st4">o</text>
<text transform="matrix(0.85 0 -0.3165385 0.9485797 537.352417 139.5421753)" class="st6 st3 st4">o</text>
<text transform="matrix(0.85 0 -0.3165385 0.9485797 543.3602295 139.5421753)" class="st3 st4">n</text>
<text transform="matrix(0.85 0 -0.3165385 0.9485797 543.3602295 139.5421753)" class="st6 st3 st4">n</text>
<line class="st2" x1="397.6471252" y1="145.5318604" x2="612.569397" y2="145.5318604"/>
<text transform="matrix(0.85 0 0 1 401.4052734 159.0488281)" class="st3 st5">+ </text>
<text transform="matrix(0.85 0 0 1 417.9365234 159.0488281)" class="st3 st5">areaClassificationType: gml::CodeType [0..1]</text>
<text transform="matrix(0.85 0 0 1 401.4052734 171.8144531)" class="st3 st5">+ </text>
<text transform="matrix(0.85 0 0 1 417.9365234 171.8144531)" class="st3 st5">city: gml::CodeType [0..1]</text>
<text transform="matrix(0.85 0 0 1 401.4052734 184.5644531)" class="st3 st5">+ </text>
<text transform="matrix(0.85 0 0 1 417.9365234 184.5644531)" class="st3 st5">class: gml::CodeType [0..1]</text>
<text transform="matrix(0.85 0 0 1 401.4052734 197.3300781)" class="st3 st5">+ </text>
<text transform="matrix(0.85 0 0 1 417.9365234 197.3300781)" class="st3 st5">custodian: xs::string [0..1]</text>
<text transform="matrix(0.85 0 0 1 401.4052734 210.0957031)" class="st3 st5">+ </text>
<text transform="matrix(0.85 0 0 1 417.9365234 210.0957031)" class="st3 st5">enactmentFiscalYear: xs::gYear [0..1]</text>
<text transform="matrix(0.85 0 0 1 401.4052734 222.8613281)" class="st3 st5">+ </text>
<text transform="matrix(0.85 0 0 1 417.9365234 222.8613281)" class="st3 st5">expirationFiscalYear: xs::gYear [0..1]</text>
<text transform="matrix(0.85 0 0 1 401.4052734 235.6113281)" class="st3 st5">+ </text>
<text transform="matrix(0.85 0 0 1 417.9365234 235.6113281)" class="st3 st5">finalNotificationDate: xs::date [0..1]</text>
<text transform="matrix(0.85 0 0 1 401.4052734 248.3769531)" class="st3 st5">+ </text>
<text transform="matrix(0.85 0 0 1 417.9365234 248.3769531)" class="st3 st5">finalNotificationNumber: xs::string [0..1]</text>
<text transform="matrix(0.85 0 0 1 401.4052734 261.1425781)" class="st3 st5">+ </text>
<text transform="matrix(0.85 0 0 1 417.9365234 261.1425781)" class="st3 st5">function: gml::CodeType [0..*]</text>
<text transform="matrix(0.85 0 0 1 401.4052734 273.8925781)" class="st3 st5">+ </text>
<text transform="matrix(0.85 0 0 1 417.9365234 273.8925781)" class="st3 st5">legalGrounds: xs::string [0..1]</text>
<text transform="matrix(0.85 0 0 1 401.4052734 286.6582031)" class="st3 st5">+ </text>
<text transform="matrix(0.85 0 0 1 417.9365234 286.6582031)" class="st3 st5">nominalArea: gml::MeasureType [0..1]</text>
<text transform="matrix(0.85 0 0 1 401.4052734 299.4238281)" class="st3 st5">+ </text>
<text transform="matrix(0.85 0 0 1 417.9365234 299.4238281)" class="st3 st5">note: gml:StringOrRefType [0..1]</text>
<text transform="matrix(0.85 0 0 1 401.4052734 312.1816406)" class="st3 st5">+ </text>
<text transform="matrix(0.85 0 0 1 417.9365234 312.1816406)" class="st3 st5">notificationNumber: xs::string [0..1]</text>
<text transform="matrix(0.85 0 0 1 401.4052734 324.9394531)" class="st3 st5">+ </text>
<text transform="matrix(0.85 0 0 1 417.9365234 324.9394531)" class="st3 st5">prefecture: gml::CodeType [0..1]</text>
<text transform="matrix(0.85 0 0 1 401.4052734 337.7050781)" class="st3 st5">+ </text>
<text transform="matrix(0.85 0 0 1 417.9365234 337.7050781)" class="st3 st5">reason: gml:StringOrRefType [0..1]</text>
<text transform="matrix(0.85 0 0 1 401.4052734 350.4628906)" class="st3 st5">+ </text>
<text transform="matrix(0.85 0 0 1 417.9365234 350.4628906)" class="st3 st5">reference: xs::anyURI [0..1]</text>
<text transform="matrix(0.85 0 0 1 401.4052734 363.2285156)" class="st3 st5">+ </text>
<text transform="matrix(0.85 0 0 1 417.9365234 363.2285156)" class="st3 st5">surveyYear: xs::gYear [0..1]</text>
<text transform="matrix(0.85 0 0 1 401.4052734 375.9863281)" class="st3 st5">+ </text>
<text transform="matrix(0.85 0 0 1 417.9365234 375.9863281)" class="st3 st5">urbanPlanType: gml::CodeType [0..1]</text>
<text transform="matrix(0.85 0 0 1 401.4052734 388.7441406)" class="st3 st5">+ </text>
<text transform="matrix(0.85 0 0 1 417.9365234 388.7441406)" class="st3 st5">usage: gml::CodeType [0..*]</text>
<text transform="matrix(0.85 0 0 1 401.4052734 401.5097656)" class="st3 st5">+ </text>
<text transform="matrix(0.85 0 0 1 417.9365234 401.5097656)" class="st3 st5">validFrom: xs::date [0..1]</text>
<text transform="matrix(0.85 0 0 1 401.4052734 414.2753906)" class="st3 st5">+ </text>
<text transform="matrix(0.85 0 0 1 417.9365234 414.2753906)" class="st3 st5">validFromType: gml::CodeType [0..1]</text>
<text transform="matrix(0.85 0 0 1 401.4052734 427.0253906)" class="st3 st5">+ </text>
<text transform="matrix(0.85 0 0 1 417.9365234 427.0253906)" class="st3 st5">validTo: xs::date [0..1]</text>
<text transform="matrix(0.85 0 0 1 401.4052734 439.7910156)" class="st3 st5">+ </text>
<text transform="matrix(0.85 0 0 1 417.9365234 439.7910156)" class="st3 st5">validToType: gml::CodeType [0..1]</text>
<path class="st0" d="M346.1709595,243.1171875c1.0375671,0,1.8786926,0.84021,1.8786926,1.8765869l0,0v55.548584l0,0
	c0,1.036377-0.8411255,1.876709-1.8786926,1.8765869c0,0.0001221,0,0,0,0l0,0H224.4317627l-0.0000153,0.0001221
	c-1.0375671-0.0001221-1.8786926-0.840332-1.8786926-1.876709h0.0000305v-55.548584
	c0-1.036377,0.841095-1.8765869,1.8786774-1.8765869l0,0H346.1709595L346.1709595,243.1171875L346.1709595,243.1171875z"/>
<path class="st1" d="M343.9165344,240.8652344c1.0375671,0,1.8786621,0.8400879,1.8786621,1.8765869h0.0000305v55.548584h-0.0000305
	c0,1.036377-0.841095,1.8765869-1.8786621,1.8765869l0,0l0,0H222.1773376h-0.0000153
	c-1.0375671,0-1.8786926-0.84021-1.8786926-1.8765869h0.0000153v-55.548584c0-1.036499,0.8411102-1.876709,1.8786926-1.8765869
	v-0.0001221h121.7391968V240.8652344L343.9165344,240.8652344z"/>
<path class="st2" d="M343.9165344,240.8652344c1.0375671,0,1.8786621,0.8400879,1.8786621,1.8765869h0.0000305v55.548584h-0.0000305
	c0,1.036377-0.841095,1.8765869-1.8786621,1.8765869l0,0l0,0H222.1773376h-0.0000153
	c-1.0375671,0-1.8786926-0.84021-1.8786926-1.8765869h0.0000153v-55.548584c0-1.036499,0.8411102-1.876709,1.8786926-1.8765869
	v-0.0001221h121.7391968V240.8652344L343.9165344,240.8652344z"/>
<text transform="matrix(0.85 0 0 1 251.1083984 255.8847656)" class="st3 st5">«FeatureType»</text>
<text transform="matrix(0.85 0 0 1 263.1318359 268.6425781)" class="st7 st5">urf::Zone</text>
<line class="st2" x1="220.298645" y1="274.6446533" x2="345.7952271" y2="274.6446533"/>
<text transform="matrix(0.85 0 0 1 224.0537109 288.1582031)" class="st3 st5">+ </text>
<text transform="matrix(0.85 0 0 1 240.5927734 288.1582031)" class="st3 st5">location: xs::string [0..1]</text>
<path class="st0" d="M308.5971069,123.012207c1.0375977,0,1.8787231,0.8400879,1.8787231,1.8765869l0,0v61.553833l0,0
	c0,1.036377-0.8411255,1.8765869-1.8787231,1.8765869l0,0l0,0H111.7102966l0,0c-1.0375671,0-1.8786926-0.84021-1.8786926-1.8765869
	h0.0000153v-61.553833c0-1.036499,0.8411102-1.8765869,1.8786774-1.8765869l0,0H308.5971069L308.5971069,123.012207
	L308.5971069,123.012207z"/>
<path class="st1" d="M306.3427124,120.7601318c1.0375366,0,1.8786621,0.84021,1.8786621,1.876709l0,0v61.553833l0,0
	c0,1.036377-0.8411255,1.8765869-1.8787231,1.8765869l0,0h0.000061H109.4558716h-0.0000153
	c-1.0375671,0-1.8786774-0.84021-1.8786774-1.8765869l0,0v-61.553833c0-1.036499,0.8411102-1.876709,1.8786926-1.876709l0,0
	H306.3427124L306.3427124,120.7601318L306.3427124,120.7601318z"/>
<path class="st2" d="M306.3427124,120.7601318c1.0375366,0,1.8786621,0.84021,1.8786621,1.876709l0,0v61.553833l0,0
	c0,1.036377-0.8411255,1.8765869-1.8787231,1.8765869l0,0h0.000061H109.4558716h-0.0000153
	c-1.0375671,0-1.8786774-0.84021-1.8786774-1.8765869l0,0v-61.553833c0-1.036499,0.8411102-1.876709,1.8786926-1.876709l0,0
	H306.3427124L306.3427124,120.7601318L306.3427124,120.7601318z"/>
<text transform="matrix(0.85 0 0 1 175.9599609 135.7753906)" class="st3 st5">«FeatureType»</text>
<text transform="matrix(0.85 0 0 1 144.3974609 148.5410156)" class="st7 st5">urf::ThreeDimensionalExtent</text>
<line class="st2" x1="107.577179" y1="154.5396729" x2="308.2213745" y2="154.5396729"/>
<text transform="matrix(0.85 0 0 1 111.3271484 168.0488281)" class="st3 st5">+ </text>
<text transform="matrix(0.85 0 0 1 127.8662109 168.0488281)" class="st3 st5">maximumLoad: gml::MeasureType [0..1]</text>
<text transform="matrix(0.85 0 0 1 111.3271484 180.8144531)" class="st3 st5">+ </text>
<text transform="matrix(0.85 0 0 1 127.8662109 180.8144531)" class="st3 st5">minimumDistance: gml::LengthType [0..1]</text>
<path class="st0" d="M345.4194946,378.2352295c1.0375671,0,1.8786621,0.84021,1.8786621,1.876709h0.0000305v55.548584h-0.0000305
	c0,1.036377-0.841095,1.8765869-1.8786926,1.8765869l0,0h0.0000305H224.4317627h-0.0000153
	c-1.0375671,0-1.8786926-0.84021-1.8786926-1.8765869h0.0000305v-55.548584c0-1.036499,0.841095-1.876709,1.8786774-1.876709l0,0
	H345.4194946L345.4194946,378.2352295L345.4194946,378.2352295z"/>
<path class="st1" d="M343.1650696,375.9832764c1.0375671,0,1.8786621,0.84021,1.8786621,1.876709h0.0000305v55.5484619
	l-0.0000305,0.0001221c0,1.036377-0.841095,1.8765869-1.8786926,1.8765869l0,0h0.0000305H222.1773376h-0.0000153
	c-1.0375671,0-1.8786926-0.84021-1.8786926-1.876709h0.0000153v-55.5484619c0-1.036499,0.8411102-1.876709,1.8786926-1.876709l0,0
	H343.1650696L343.1650696,375.9832764L343.1650696,375.9832764z"/>
<path class="st2" d="M343.1650696,375.9832764c1.0375671,0,1.8786621,0.84021,1.8786621,1.876709h0.0000305v55.5484619
	l-0.0000305,0.0001221c0,1.036377-0.841095,1.8765869-1.8786926,1.8765869l0,0h0.0000305H222.1773376h-0.0000153
	c-1.0375671,0-1.8786926-0.84021-1.8786926-1.876709h0.0000153v-55.5484619c0-1.036499,0.8411102-1.876709,1.8786926-1.876709l0,0
	H343.1650696L343.1650696,375.9832764L343.1650696,375.9832764z"/>
<text transform="matrix(0.85 0 0 1 251.1083984 391.0019531)" class="st3 st5">«FeatureType»</text>
<text transform="matrix(0.85 0 0 1 245.0927734 403.7675781)" class="st7 st5">urf::UrbanFacility</text>
<line class="st2" x1="220.298645" y1="409.7628174" x2="345.0437622" y2="409.7628174"/>
<text transform="matrix(0.85 0 0 1 224.0537109 423.2753906)" class="st3 st5">+ </text>
<text transform="matrix(0.85 0 0 1 240.5927734 423.2753906)" class="st3 st5">number: xs::string [0..1]</text>
<path class="st0" d="M232.6980133,454.0515137c1.0375671,0,1.8786621,0.84021,1.8786621,1.876709l0.0000305-0.0001221v99.8374023
	h-0.0000305c0,1.036377-0.841095,1.8765869-1.8786926,1.8765869l0,0h0.0000305H89.1660156h-0.0000153
	c-1.0375671,0-1.8786926-0.84021-1.8786926-1.8765869h0.0000153v-99.8374023c0-1.036377,0.8411102-1.8765869,1.8786926-1.8765869
	l0,0H232.6980133L232.6980133,454.0515137L232.6980133,454.0515137z"/>
<path class="st1" d="M230.4435883,451.7995605c1.0375671,0,1.8786621,0.84021,1.8786621,1.8765869h0.0000153v99.8372803
	l-0.0000153,0.0001221c0,1.036377-0.841095,1.8765869-1.8786926,1.8765869l0,0h0.0000305H86.9115753l0,0
	c-1.0375671,0-1.8786926-0.84021-1.8786926-1.876709l0,0v-99.8372803c0-1.036377,0.8411255-1.8765869,1.8786926-1.8765869l0,0
	H230.4435883L230.4435883,451.7995605L230.4435883,451.7995605z"/>
<path class="st2" d="M230.4435883,451.7995605c1.0375671,0,1.8786621,0.84021,1.8786621,1.8765869h0.0000153v99.8372803
	l-0.0000153,0.0001221c0,1.036377-0.841095,1.8765869-1.8786926,1.8765869l0,0h0.0000305H86.9115753l0,0
	c-1.0375671,0-1.8786926-0.84021-1.8786926-1.876709l0,0v-99.8372803c0-1.036377,0.8411255-1.8765869,1.8786926-1.8765869l0,0
	H230.4435883L230.4435883,451.7995605L230.4435883,451.7995605z"/>
<text transform="matrix(0.85 0 0 1 127.1083984 466.8144531)" class="st3 st5">«FeatureType»</text>
<text transform="matrix(0.85 0 0 1 121.1005859 479.5800781)" class="st7 st5">urf::TrafficFacility</text>
<line class="st2" x1="85.0328827" y1="485.5791016" x2="232.3222656" y2="485.5791016"/>
<text transform="matrix(0.85 0 0 1 88.7880859 499.0957031)" class="st3 st5">+ </text>
<text transform="matrix(0.85 0 0 1 105.3193359 499.0957031)" class="st3 st5">endLocation: xs::string [0..1]</text>
<text transform="matrix(0.85 0 0 1 88.7880859 511.8535156)" class="st3 st5">+ </text>
<text transform="matrix(0.85 0 0 1 105.3193359 511.8535156)" class="st3 st5">length: gml::LengthType [0..1]</text>
<text transform="matrix(0.85 0 0 1 88.7880859 524.6113281)" class="st3 st5">+ </text>
<text transform="matrix(0.85 0 0 1 105.3193359 524.6113281)" class="st3 st5">startLocation: xs::string [0..1]</text>
<text transform="matrix(0.85 0 0 1 88.7880859 537.3769531)" class="st3 st5">+ </text>
<text transform="matrix(0.85 0 0 1 105.3193359 537.3769531)" class="st3 st5">viaLocations: xs::string [0..1]</text>
<text transform="matrix(0.85 0 0 1 88.7880859 550.1425781)" class="st3 st5">+ </text>
<text transform="matrix(0.85 0 0 1 105.3193359 550.1425781)" class="st3 st5">width: gml::LengthType [0..1]</text>
<path class="st0" d="M227.4376831,581.6630859c1.0375671,0,1.8786621,0.84021,1.8786621,1.876709l0.0000153-0.0001221v40.5354004
	l-0.0000153,0.0001221c0,1.036499-0.841095,1.8765869-1.8786926,1.8765869l0,0h0.0000305H89.1660156h-0.0000153
	c-1.0375671,0-1.8786926-0.8400879-1.8786926-1.876709h0.0000153v-40.5354004c0-1.036377,0.8411102-1.8765869,1.8786926-1.8765869
	l0,0H227.4376831L227.4376831,581.6630859L227.4376831,581.6630859z"/>
<path class="st1" d="M225.1832428,579.4111328c1.0375671,0,1.8786774,0.84021,1.8786774,1.876709l0.0000153-0.0001221v40.5354004
	l-0.0000153,0.0001221c0,1.036377-0.8411102,1.8765869-1.8786926,1.8765869l0,0h0.0000153H86.9115753l0,0
	c-1.0375671,0-1.8786926-0.84021-1.8786926-1.876709l0,0v-40.5354004c0-1.036377,0.8411255-1.8765869,1.8786926-1.8765869l0,0
	H225.1832428L225.1832428,579.4111328L225.1832428,579.4111328z"/>
<path class="st2" d="M225.1832428,579.4111328c1.0375671,0,1.8786774,0.84021,1.8786774,1.876709l0.0000153-0.0001221v40.5354004
	l-0.0000153,0.0001221c0,1.036377-0.8411102,1.8765869-1.8786926,1.8765869l0,0h0.0000153H86.9115753l0,0
	c-1.0375671,0-1.8786926-0.84021-1.8786926-1.876709l0,0v-40.5354004c0-1.036377,0.8411255-1.8765869,1.8786926-1.8765869l0,0
	H225.1832428L225.1832428,579.4111328L225.1832428,579.4111328z"/>
<text transform="matrix(0.85 0 0 1 124.1083984 594.4316406)" class="st3 st5">«FeatureType»</text>
<text transform="matrix(0.85 0 0 1 92.5458984 607.1894531)" class="st7 st5">urf::OpenSpaceForPublicUse</text>
<path class="st0" d="M227.4376831,694.2615967c1.0375671,0,1.8786621,0.8400879,1.8786621,1.8765869l0.0000153-0.0001221v32.2783203
	h-0.0000153c0,1.036377-0.841095,1.876709-1.8786926,1.876709l0,0h0.0000305H89.1660156h-0.0000153
	c-1.0375671,0-1.8786926-0.840332-1.8786926-1.876709h0.0000153v-32.2783203c0-1.036377,0.8411102-1.8764648,1.8786926-1.8764648
	l0,0H227.4376831L227.4376831,694.2615967L227.4376831,694.2615967z"/>
<path class="st1" d="M225.1832428,692.0096436c1.0375671,0,1.8786774,0.8400879,1.8786774,1.8765869l0.0000153-0.0001221v32.2783203
	h-0.0000153c0,1.036377-0.8411102,1.876709-1.8786926,1.8765869c0,0.0001221,0,0,0,0h0.0000153H86.9115753v0.0001221
	c-1.0375671-0.0001221-1.8786926-0.840332-1.8786926-1.876709l0,0v-32.2783203c0-1.036377,0.8411255-1.8765869,1.8786926-1.8764648
	v-0.0001221h138.2716675V692.0096436L225.1832428,692.0096436z"/>
<path class="st2" d="M225.1832428,692.0096436c1.0375671,0,1.8786774,0.8400879,1.8786774,1.8765869l0.0000153-0.0001221v32.2783203
	h-0.0000153c0,1.036377-0.8411102,1.876709-1.8786926,1.8765869c0,0.0001221,0,0,0,0h0.0000153H86.9115753v0.0001221
	c-1.0375671-0.0001221-1.8786926-0.840332-1.8786926-1.876709l0,0v-32.2783203c0-1.036377,0.8411255-1.8765869,1.8786926-1.8764648
	v-0.0001221h138.2716675V692.0096436L225.1832428,692.0096436z"/>
<text transform="matrix(0.85 0 0 1 124.1083984 707.0253906)" class="st3 st5">«FeatureType»</text>
<text transform="matrix(0.85 0 0 1 116.5927734 719.7910156)" class="st7 st5">urf::SupplyFacility</text>
<path class="st0" d="M227.4376831,634.9597168c1.0375671,0,1.8786621,0.84021,1.8786621,1.8765869h0.0000153v40.5354004h-0.0000153
	c0,1.036499-0.841095,1.876709-1.8786926,1.876709l0,0h0.0000305H89.1660156h-0.0000153
	c-1.0375671,0-1.8786926-0.84021-1.8786926-1.876709h0.0000153v-40.5354004c0-1.036377,0.8411102-1.876709,1.8786926-1.8765869
	v-0.0001221h138.2716675V634.9597168L227.4376831,634.9597168z"/>
<path class="st1" d="M225.1832428,632.7077637c1.0375671,0,1.8786774,0.84021,1.8786774,1.8765869h0.0000153v40.5354004h-0.0000153
	c0,1.036499-0.8411102,1.876709-1.8786926,1.876709l0,0h0.0000153H86.9115753l0,0
	c-1.0375671,0-1.8786926-0.84021-1.8786926-1.876709l0,0v-40.5354004c0-1.036377,0.8411255-1.876709,1.8786926-1.8765869v-0.0001221
	h138.2716675V632.7077637L225.1832428,632.7077637z"/>
<path class="st2" d="M225.1832428,632.7077637c1.0375671,0,1.8786774,0.84021,1.8786774,1.8765869h0.0000153v40.5354004h-0.0000153
	c0,1.036499-0.8411102,1.876709-1.8786926,1.876709l0,0h0.0000153H86.9115753l0,0
	c-1.0375671,0-1.8786926-0.84021-1.8786926-1.876709l0,0v-40.5354004c0-1.036377,0.8411255-1.876709,1.8786926-1.8765869v-0.0001221
	h138.2716675V632.7077637L225.1832428,632.7077637z"/>
<text transform="matrix(0.85 0 0 1 124.1083984 647.7207031)" class="st3 st5">«FeatureType»</text>
<text transform="matrix(0.85 0 0 1 108.3271484 660.4863281)" class="st7 st5">urf::TreatmentFacility</text>
<path class="st0" d="M241.7157288,761.8206787c1.0375671,0,1.8786621,0.8400879,1.8786621,1.8765869l0.0000305-0.0001221v99.8374023
	h-0.0000305c0,1.036377-0.841095,1.876709-1.8786926,1.8765869c0,0.0001221,0,0,0,0h0.0000305H89.1660156l-0.0000153,0.0001221
	c-1.0375671-0.0001221-1.8786926-0.840332-1.8786926-1.876709h0.0000153v-99.8374023
	c0-1.036377,0.8411102-1.8765869,1.8786926-1.8764648v-0.0001221h152.5497131V761.8206787L241.7157288,761.8206787z"/>
<path class="st1" d="M239.4613037,759.5687256c1.0375671,0,1.8786621,0.8400879,1.8786621,1.8765869l0.0000305-0.0001221v99.8374023
	h-0.0000305c0,1.036377-0.841095,1.876709-1.8786926,1.8765869c0,0.0001221,0,0,0,0h0.0000305H86.9115753v0.0001221
	c-1.0375671-0.0001221-1.8786926-0.840332-1.8786926-1.876709l0,0v-99.8374023c0-1.036377,0.8411255-1.8765869,1.8786926-1.8764648
	v-0.0001221h152.5497284V759.5687256L239.4613037,759.5687256z"/>
<path class="st2" d="M239.4613037,759.5687256c1.0375671,0,1.8786621,0.8400879,1.8786621,1.8765869l0.0000305-0.0001221v99.8374023
	h-0.0000305c0,1.036377-0.841095,1.876709-1.8786926,1.8765869c0,0.0001221,0,0,0,0h0.0000305H86.9115753v0.0001221
	c-1.0375671-0.0001221-1.8786926-0.840332-1.8786926-1.876709l0,0v-99.8374023c0-1.036377,0.8411255-1.8765869,1.8786926-1.8764648
	v-0.0001221h152.5497284V759.5687256L239.4613037,759.5687256z"/>
<text transform="matrix(0.85 0 0 1 131.6240234 774.5878906)" class="st3 st5">«FeatureType»</text>
<text transform="matrix(0.85 0 0 1 131.6240234 787.3457031)" class="st7 st5">urf::Waterway</text>
<line class="st2" x1="85.0328827" y1="793.3481445" x2="241.3399963" y2="793.3481445"/>
<text transform="matrix(0.85 0 0 1 88.7880859 806.8613281)" class="st3 st5">+ </text>
<text transform="matrix(0.85 0 0 1 105.3193359 806.8613281)" class="st3 st5">endLocation: xs::string [0..1]</text>
<text transform="matrix(0.85 0 0 1 88.7880859 819.6269531)" class="st3 st5">+ </text>
<text transform="matrix(0.85 0 0 1 105.3193359 819.6269531)" class="st3 st5">length: gml::LengthType [0..1]</text>
<text transform="matrix(0.85 0 0 1 88.7880859 832.3925781)" class="st3 st5">+ </text>
<text transform="matrix(0.85 0 0 1 105.3193359 832.3925781)" class="st3 st5">startLocation: xs::string [0..1]</text>
<text transform="matrix(0.85 0 0 1 88.7880859 845.1425781)" class="st3 st5">+ </text>
<text transform="matrix(0.85 0 0 1 105.3193359 845.1425781)" class="st3 st5">structure: gml::CodeType [0..1]</text>
<text transform="matrix(0.85 0 0 1 88.7880859 857.9082031)" class="st3 st5">+ </text>
<text transform="matrix(0.85 0 0 1 105.3193359 857.9082031)" class="st3 st5">width: gml::LengthType [0..1]</text>
<path class="st0" d="M475.4249268,612.4400635c1.0375366,0,1.8786316,0.8400879,1.8786316,1.8765869h0.000061v40.5354004
	l-0.000061,0.0001221c0,1.036377-0.841095,1.8765869-1.8786926,1.8764648c0,0.0001221,0,0,0,0h0.000061H307.0941772v0.0001221
	c-1.0375977-0.0001221-1.8787231-0.84021-1.8787231-1.876709h0.000061v-40.5354004
	c0-1.036499,0.8410645-1.8765869,1.8786621-1.8765869l0,0H475.4249268L475.4249268,612.4400635L475.4249268,612.4400635z"/>
<path class="st1" d="M473.1705017,610.1881104c1.0375366,0,1.8786316,0.8400879,1.8786316,1.8765869l0.000061-0.0001221v40.5355225
	l-0.000061,0.0001221c0,1.036377-0.841095,1.8764648-1.8786926,1.8764648l0,0h0.000061h-168.33078l0,0
	c-1.0375366,0-1.8786621-0.8400879-1.8786621-1.8765869l0,0v-40.5355225c0-1.036377,0.8411255-1.8765869,1.8786621-1.8764648
	v-0.0001221h168.33078V610.1881104L473.1705017,610.1881104z"/>
<path class="st2" d="M473.1705017,610.1881104c1.0375366,0,1.8786316,0.8400879,1.8786316,1.8765869l0.000061-0.0001221v40.5355225
	l-0.000061,0.0001221c0,1.036377-0.841095,1.8764648-1.8786926,1.8764648l0,0h0.000061h-168.33078l0,0
	c-1.0375366,0-1.8786621-0.8400879-1.8786621-1.8765869l0,0v-40.5355225c0-1.036377,0.8411255-1.8765869,1.8786621-1.8764648
	v-0.0001221h168.33078V610.1881104L473.1705017,610.1881104z"/>
<text transform="matrix(0.85 0 0 1 357.0615234 625.2050781)" class="st3 st5">«FeatureType»</text>
<text transform="matrix(0.85 0 0 1 311.9755859 637.9628906)" class="st7 st5">urf::EducationalAndCulturalFacility</text>
<path class="st0" d="M422.8215637,499.8416748c1.0375671,0,1.8786621,0.8400879,1.8786621,1.8765869l0.0000305-0.0001221v40.5355225
	h-0.0000305c0,1.036499-0.841095,1.8765869-1.8786926,1.8765869l0,0h0.0000305H307.0941772l0,0
	c-1.0375977,0-1.8787231-0.8400879-1.8787231-1.8765869h0.000061v-40.5355225c0-1.036377,0.8410645-1.8765869,1.8786621-1.8764648
	v-0.0001221h115.7273865V499.8416748L422.8215637,499.8416748z"/>
<path class="st1" d="M420.5671387,497.5895996c1.0375366,0,1.8786621,0.84021,1.8786621,1.876709l0.0000305-0.0001221v40.5354004
	l-0.0000305,0.0001221c0,1.036377-0.8411255,1.8765869-1.8786926,1.8765869l0,0h0.0000305h-115.727417l0,0
	c-1.0375366,0-1.8786621-0.84021-1.8786621-1.876709l0,0v-40.5354004c0-1.036377,0.8411255-1.8765869,1.8786621-1.8765869l0,0
	H420.5671387L420.5671387,497.5895996L420.5671387,497.5895996z"/>
<path class="st2" d="M420.5671387,497.5895996c1.0375366,0,1.8786621,0.84021,1.8786621,1.876709l0.0000305-0.0001221v40.5354004
	l-0.0000305,0.0001221c0,1.036377-0.8411255,1.8765869-1.8786926,1.8765869l0,0h0.0000305h-115.727417l0,0
	c-1.0375366,0-1.8786621-0.84021-1.8786621-1.876709l0,0v-40.5354004c0-1.036377,0.8411255-1.8765869,1.8786621-1.8765869l0,0
	H420.5671387L420.5671387,497.5895996L420.5671387,497.5895996z"/>
<text transform="matrix(0.85 0 0 1 330.7646484 512.6035156)" class="st3 st5">«FeatureType»</text>
<text transform="matrix(0.85 0 0 1 321.7490234 525.3691406)" class="st7 st5">urf::MedicalFacility</text>
<path class="st0" d="M415.3067932,559.1434326c1.0375671,0,1.8786621,0.84021,1.8786621,1.876709l0.0000305-0.0001221v40.5355225
	h-0.0000305c0,1.036377-0.841095,1.8765869-1.8786926,1.8765869l0,0h0.0000305h-108.212616l0,0
	c-1.0375977,0-1.8787231-0.84021-1.8787231-1.8765869h0.000061v-40.5355225c0-1.036377,0.8410645-1.8765869,1.8786621-1.8765869l0,0
	H415.3067932L415.3067932,559.1434326L415.3067932,559.1434326z"/>
<path class="st1" d="M413.0523682,556.8914795c1.0375671,0,1.8786621,0.84021,1.8786621,1.8765869h0.0000305v40.5355225h-0.0000305
	c0,1.036377-0.841095,1.8765869-1.8786926,1.8764648c0,0.0001221,0,0,0,0h0.0000305H304.8397217v0.0001221
	c-1.0375366-0.0001221-1.8786621-0.84021-1.8786621-1.8765869l0,0v-40.5355225c0-1.036377,0.8411255-1.8765869,1.8786621-1.8765869
	l0,0H413.0523682L413.0523682,556.8914795L413.0523682,556.8914795z"/>
<path class="st2" d="M413.0523682,556.8914795c1.0375671,0,1.8786621,0.84021,1.8786621,1.8765869h0.0000305v40.5355225h-0.0000305
	c0,1.036377-0.841095,1.8765869-1.8786926,1.8764648c0,0.0001221,0,0,0,0h0.0000305H304.8397217v0.0001221
	c-1.0375366-0.0001221-1.8786621-0.84021-1.8786621-1.8765869l0,0v-40.5355225c0-1.036377,0.8411255-1.8765869,1.8786621-1.8765869
	l0,0H413.0523682L413.0523682,556.8914795L413.0523682,556.8914795z"/>
<text transform="matrix(0.85 0 0 1 327.0068359 571.9082031)" class="st3 st5">«FeatureType»</text>
<text transform="matrix(0.85 0 0 1 350.3037109 584.6738281)" class="st7 st5">urf::</text>
<text transform="matrix(0.85 0 0 1 313.4833984 597.4238281)" class="st7 st5">SocialWelfareFacility</text>
<path class="st0" d="M497.9692078,671.7418213c1.0375671,0,1.8786621,0.84021,1.8786621,1.876709h0.0000305v40.5354004h-0.0000305
	c0,1.036377-0.841095,1.876709-1.8786926,1.8765869c0,0.0001221,0,0,0,0h0.0000305H307.0941772v0.0001221
	c-1.0375977-0.0001221-1.8787231-0.840332-1.8787231-1.876709h0.000061v-40.5354004
	c0-1.036499,0.8410645-1.876709,1.8786621-1.876709l0,0H497.9692078L497.9692078,671.7418213L497.9692078,671.7418213z"/>
<path class="st1" d="M495.7147827,669.4898682c1.0375671,0,1.8786621,0.84021,1.8786621,1.876709h0.0000305v40.5354004h-0.0000305
	c0,1.036377-0.841095,1.876709-1.8786926,1.8765869c0,0.0001221,0,0,0,0h0.0000305h-190.875061v0.0001221
	c-1.0375366-0.0001221-1.8786621-0.840332-1.8786621-1.876709l0,0v-40.5354004c0-1.036499,0.8411255-1.876709,1.8786621-1.876709
	l0,0H495.7147827L495.7147827,669.4898682L495.7147827,669.4898682z"/>
<path class="st2" d="M495.7147827,669.4898682c1.0375671,0,1.8786621,0.84021,1.8786621,1.876709h0.0000305v40.5354004h-0.0000305
	c0,1.036377-0.841095,1.876709-1.8786926,1.8765869c0,0.0001221,0,0,0,0h0.0000305h-190.875061v0.0001221
	c-1.0375366-0.0001221-1.8786621-0.840332-1.8786621-1.876709l0,0v-40.5354004c0-1.036499,0.8411255-1.876709,1.8786621-1.876709
	l0,0H495.7147827L495.7147827,669.4898682L495.7147827,669.4898682z"/>
<text transform="matrix(0.85 0 0 1 368.3349609 684.5097656)" class="st3 st5">«FeatureType»</text>
<text transform="matrix(0.85 0 0 1 310.4677734 697.2675781)" class="st7 st5">urf::MarketsSlaughterhousesCrematoria</text>
<path class="st0" d="M358.9460754,933.7209473c1.0375671,0,1.8786621,0.8401489,1.8786621,1.8765869l0.0000305-0.000061v138.1207886
	l-0.0000305,0.0001221c0,1.036377-0.841095,1.8765869-1.8786926,1.8764648c0,0.0001221,0,0,0,0h0.0000305H89.1660156
	l-0.0000153,0.0001221c-1.0375671-0.0001221-1.8786926-0.84021-1.8786926-1.876709h0.0000153V935.5974731
	c0-1.036377,0.8411102-1.8766479,1.8786926-1.8765259v-0.0001221h269.7800598V933.7209473L358.9460754,933.7209473z"/>
<path class="st1" d="M356.6916504,931.4689331c1.0375671,0,1.8786621,0.84021,1.8786621,1.8766479l0.0000305-0.000061v138.1207886
	h-0.0000305c0,1.036377-0.841095,1.876709-1.8786926,1.8765869c0,0.0001221,0,0,0,0h0.0000305H86.9115753v0.0001221
	c-1.0375671-0.0001221-1.8786926-0.840332-1.8786926-1.876709l0,0V933.34552c0-1.036377,0.8411255-1.8766479,1.8786926-1.8765869
	v-0.000061h269.7800903V931.4689331L356.6916504,931.4689331z"/>
<path class="st2" d="M356.6916504,931.4689331c1.0375671,0,1.8786621,0.84021,1.8786621,1.8766479l0.0000305-0.000061v138.1207886
	h-0.0000305c0,1.036377-0.841095,1.876709-1.8786926,1.8765869c0,0.0001221,0,0,0,0h0.0000305H86.9115753v0.0001221
	c-1.0375671-0.0001221-1.8786926-0.840332-1.8786926-1.876709l0,0V933.34552c0-1.036377,0.8411255-1.8766479,1.8786926-1.8765869
	v-0.000061h269.7800903V931.4689331L356.6916504,931.4689331z"/>
<text transform="matrix(0.85 0 0 1 190.2333984 946.4863281)" class="st3 st5">«FeatureType»</text>
<text transform="matrix(0.85 0 0 1 154.1708984 959.2441406)" class="st7 st5">urf::CollectiveHousingFacilities</text>
<line class="st2" x1="85.0328827" y1="965.2484131" x2="358.570343" y2="965.2484131"/>
<text transform="matrix(0.85 0 0 1 88.7880859 978.7675781)" class="st3 st5">+ </text>
<text transform="matrix(0.85 0 0 1 105.3193359 978.7675781)" class="st3 st5">buildingCoverageRate: xs::double [0..1]</text>
<text transform="matrix(0.85 0 0 1 88.7880859 991.5332031)" class="st3 st5">+ </text>
<text transform="matrix(0.85 0 0 1 105.3193359 991.5332031)" class="st3 st5">floorAreaRate: xs::double [0..1]</text>
<text transform="matrix(0.85 0 0 1 88.7880859 1004.2832031)" class="st3 st5">+ </text>
<text transform="matrix(0.85 0 0 1 105.3193359 1004.2832031)" class="st3 st5">numberOfHighRiseHousing: xs::integer [0..1]</text>
<text transform="matrix(0.85 0 0 1 88.7880859 1017.0488281)" class="st3 st5">+ </text>
<text transform="matrix(0.85 0 0 1 105.3193359 1017.0488281)" class="st3 st5">numberOfLowRiseHousing: xs::integer [0..1]</text>
<text transform="matrix(0.85 0 0 1 88.7880859 1029.8144531)" class="st3 st5">+ </text>
<text transform="matrix(0.85 0 0 1 105.3193359 1029.8144531)" class="st3 st5">numberOfMiddleRiseHousing: xs::integer [0..1]</text>
<text transform="matrix(0.85 0 0 1 88.7880859 1042.5644531)" class="st3 st5">+ </text>
<text transform="matrix(0.85 0 0 1 105.3193359 1042.5644531)" class="st3 st5">publicFacilitiesAllocationPolicy: gml:StringOrRefType [0..1]</text>
<text transform="matrix(0.85 0 0 1 88.7880859 1055.3300781)" class="st3 st5">+ </text>
<text transform="matrix(0.85 0 0 1 105.3193359 1055.3300781)" class="st3 st5">scheduledExecutor: xs::string [0..1]</text>
<text transform="matrix(0.85 0 0 1 88.7880859 1068.0957031)" class="st3 st5">+ </text>
<text transform="matrix(0.85 0 0 1 105.3193359 1068.0957031)" class="st3 st5">totalNumberOfHousing: xs::integer [0..1]</text>
<path class="st0" d="M494.2118225,1272.2668457c1.0375671,0,1.8786621,0.84021,1.8786621,1.876709l0.0000305-0.0001221v87.0760498
	l-0.0000305,0.0001221c0,1.036377-0.841095,1.876709-1.8786926,1.8765869c0,0.0001221,0,0,0,0h0.0000305H224.4317627
	l-0.0000153,0.0001221c-1.0375671-0.0001221-1.8786926-0.840332-1.8786926-1.8768311h0.0000305v-87.0760498
	c0-1.036377,0.841095-1.876709,1.8786774-1.8765869v-0.0001221h269.7800598V1272.2668457L494.2118225,1272.2668457z"/>
<path class="st1" d="M491.9573975,1270.0148926c1.0375671,0,1.8786621,0.84021,1.8786621,1.8765869h0.0000305v87.0760498
	l-0.0000305,0.0001221c0,1.036377-0.841095,1.8765869-1.8786926,1.8765869l0,0h0.0000305H222.1773376h-0.0000153
	c-1.0375671,0-1.8786926-0.84021-1.8786926-1.876709h0.0000153v-87.0760498c0-1.036377,0.8411102-1.876709,1.8786926-1.8765869
	v-0.0001221h269.7800598V1270.0148926L491.9573975,1270.0148926z"/>
<path class="st2" d="M491.9573975,1270.0148926c1.0375671,0,1.8786621,0.84021,1.8786621,1.8765869h0.0000305v87.0760498
	l-0.0000305,0.0001221c0,1.036377-0.841095,1.8765869-1.8786926,1.8765869l0,0h0.0000305H222.1773376h-0.0000153
	c-1.0375671,0-1.8786926-0.84021-1.8786926-1.876709h0.0000153v-87.0760498c0-1.036377,0.8411102-1.876709,1.8786926-1.8765869
	v-0.0001221h269.7800598V1270.0148926L491.9573975,1270.0148926z"/>
<text transform="matrix(0.85 0 0 1 325.4990234 1285.0332031)" class="st3 st5">«FeatureType»</text>
<text transform="matrix(0.85 0 0 1 244.3427734 1297.7910156)" class="st7 st5">urf::CollectiveGovernmentAndPublicOfficeFacilities</text>
<line class="st2" x1="220.298645" y1="1303.7943115" x2="493.8360901" y2="1303.7943115"/>
<text transform="matrix(0.85 0 0 1 224.0537109 1317.3144531)" class="st3 st5">+ </text>
<text transform="matrix(0.85 0 0 1 240.5927734 1317.3144531)" class="st3 st5">buildingCoverageRate: xs::double [0..1]</text>
<text transform="matrix(0.85 0 0 1 224.0537109 1330.0722656)" class="st3 st5">+ </text>
<text transform="matrix(0.85 0 0 1 240.5927734 1330.0722656)" class="st3 st5">floorAreaRate: xs::double [0..1]</text>
<text transform="matrix(0.85 0 0 1 224.0537109 1342.8300781)" class="st3 st5">+ </text>
<text transform="matrix(0.85 0 0 1 240.5927734 1342.8300781)" class="st3 st5">publicFacilitiesAllocationPolicy: gml:StringOrRefType [0..1]</text>
<text transform="matrix(0.85 0 0 1 224.0537109 1355.5957031)" class="st3 st5">+ </text>
<text transform="matrix(0.85 0 0 1 240.5927734 1355.5957031)" class="st3 st5">scheduledExecutor: xs::string [0..1]</text>
<path class="st0" d="M792.5479736,934.4715576c1.0375366,0,1.8786011,0.84021,1.8786011,1.8766479l0.0001221-0.000061v112.5983887
	l-0.0001221,0.0001221c0,1.036377-0.8410645,1.876709-1.8786621,1.8765869c0,0.0001221,0,0,0,0h0.000061H517.5075684v0.0001221
	c-1.0375977-0.0001221-1.8786621-0.840332-1.8786621-1.8768311l0,0V936.3481445c0-1.036377,0.8410645-1.8766479,1.8786621-1.8765869
	v-0.000061h275.0404053V934.4715576L792.5479736,934.4715576z"/>
<path class="st1" d="M790.2935791,932.2196045c1.0374756,0,1.8786011,0.84021,1.8786011,1.8766479l0.000061-0.0001221v112.5984497
	l-0.000061,0.0001221c0,1.036377-0.8411255,1.876709-1.8787231,1.8765869c0,0.0001221,0,0,0,0h0.0001221H515.2531738v0.0001221
	c-1.0375977-0.0001221-1.8787231-0.840332-1.8787231-1.8768311h0.000061V934.0961304
	c0-1.0363159,0.8410645-1.8765869,1.8786621-1.8765259v-0.000061h275.0404053V932.2196045L790.2935791,932.2196045z"/>
<path class="st2" d="M790.2935791,932.2196045c1.0374756,0,1.8786011,0.84021,1.8786011,1.8766479l0.000061-0.0001221v112.5984497
	l-0.000061,0.0001221c0,1.036377-0.8411255,1.876709-1.8787231,1.8765869c0,0.0001221,0,0,0,0h0.0001221H515.2531738v0.0001221
	c-1.0375977-0.0001221-1.8787231-0.840332-1.8787231-1.8768311h0.000061V934.0961304
	c0-1.0363159,0.8410645-1.8765869,1.8786621-1.8765259v-0.000061h275.0404053V932.2196045L790.2935791,932.2196045z"/>
<text transform="matrix(0.85 0 0 1 620.8349609 947.2363281)" class="st3 st5">«FeatureType»</text>
<text transform="matrix(0.85 0 0 1 547.1865234 959.9941406)" class="st7 st5">urf::CollectiveUrbanDisasterPreventionFacilities</text>
<line class="st2" x1="513.3745117" y1="965.9990234" x2="792.1722412" y2="965.9990234"/>
<text transform="matrix(0.85 0 0 1 517.1318359 979.5175781)" class="st3 st5">+ </text>
<text transform="matrix(0.85 0 0 1 533.6630859 979.5175781)" class="st3 st5">maximumBuildingCoverageRate: xs::double [0..1]</text>
<text transform="matrix(0.85 0 0 1 517.1318359 992.2675781)" class="st3 st5">+ </text>
<text transform="matrix(0.85 0 0 1 533.6630859 992.2675781)" class="st3 st5">maximumBuildingHeight: gml::LengthType [0..1]</text>
<text transform="matrix(0.85 0 0 1 517.1318359 1005.0332031)" class="st3 st5">+ </text>
<text transform="matrix(0.85 0 0 1 533.6630859 1005.0332031)" class="st3 st5">maximumFloorAreaRate: xs::double [0..1]</text>
<text transform="matrix(0.85 0 0 1 517.1318359 1017.7988281)" class="st3 st5">+ </text>
<text transform="matrix(0.85 0 0 1 533.6630859 1017.7988281)" class="st3 st5">minimumBuildingHeight: gml::LengthType [0..1]</text>
<text transform="matrix(0.85 0 0 1 517.1318359 1030.5644531)" class="st3 st5">+ </text>
<text transform="matrix(0.85 0 0 1 533.6630859 1030.5644531)" class="st3 st5">minimumFloorAreaRate: xs::double [0..1]</text>
<text transform="matrix(0.85 0 0 1 517.1318359 1043.3144531)" class="st3 st5">+ </text>
<text transform="matrix(0.85 0 0 1 533.6630859 1043.3144531)" class="st3 st5">specificUtilityAndPublicFacilities: gml:StringOrRefType [0..1]</text>
<path class="st0" d="M702.3707886,1099.6159668c1.0375977,0,1.8786621,0.84021,1.8786621,1.8765869h0.000061v138.1207275h-0.000061
	c0,1.036377-0.8410645,1.876709-1.8786621,1.8765869c0,0.0001221,0,0,0,0l0,0H457.3894958l-0.000061,0.0001221
	c-1.0375366-0.0001221-1.8786926-0.840332-1.8786926-1.876709h0.000061v-138.1207275
	c0-1.036377,0.841095-1.876709,1.8786926-1.8765869v-0.0001221h244.9812927V1099.6159668L702.3707886,1099.6159668z"/>
<path class="st1" d="M700.116394,1097.3640137c1.0375366,0,1.8786621,0.84021,1.8786621,1.8765869l0,0v138.1206055v0.0001221
	c0,1.036377-0.8411255,1.876709-1.8787231,1.8765869c0,0.0001221,0,0,0,0h0.000061H455.1350708l-0.000061,0.0001221
	c-1.0375366-0.0001221-1.8786926-0.840332-1.8786926-1.8768311h0.000061v-138.1206055
	c0-1.036377,0.841095-1.876709,1.8786926-1.8765869v-0.0001221H700.116394V1097.3640137L700.116394,1097.3640137z"/>
<path class="st2" d="M700.116394,1097.3640137c1.0375366,0,1.8786621,0.84021,1.8786621,1.8765869l0,0v138.1206055v0.0001221
	c0,1.036377-0.8411255,1.876709-1.8787231,1.8765869c0,0.0001221,0,0,0,0h0.000061H455.1350708l-0.000061,0.0001221
	c-1.0375366-0.0001221-1.8786926-0.840332-1.8786926-1.8768311h0.000061v-138.1206055
	c0-1.036377,0.841095-1.876709,1.8786926-1.8765869v-0.0001221H700.116394V1097.3640137L700.116394,1097.3640137z"/>
<text transform="matrix(0.85 0 0 1 545.6865234 1112.3769531)" class="st3 st5">«FeatureType»</text>
<text transform="matrix(0.85 0 0 1 512.6240234 1125.1425781)" class="st7 st5">urf::DistributionBusinessPark</text>
<line class="st2" x1="453.2563782" y1="1131.1434326" x2="701.9950562" y2="1131.1434326"/>
<text transform="matrix(0.85 0 0 1 457.0068359 1144.6582031)" class="st3 st5">+ </text>
<text transform="matrix(0.85 0 0 1 473.5458984 1144.6582031)" class="st3 st5">buildingCoverageRate: xs::double [0..1]</text>
<text transform="matrix(0.85 0 0 1 457.0068359 1157.4160156)" class="st3 st5">+ </text>
<text transform="matrix(0.85 0 0 1 473.5458984 1157.4160156)" class="st3 st5">distributionBusinessPark: gml:StringOrRefType [0..1]</text>
<text transform="matrix(0.85 0 0 1 457.0068359 1170.1816406)" class="st3 st5">+ </text>
<text transform="matrix(0.85 0 0 1 473.5458984 1170.1816406)" class="st3 st5">floorAreaRate: xs::double [0..1]</text>
<text transform="matrix(0.85 0 0 1 457.0068359 1182.9472656)" class="st3 st5">+ </text>
<text transform="matrix(0.85 0 0 1 473.5458984 1182.9472656)" class="st3 st5">maximumBuildingHeight: gml::LengthType [0..1]</text>
<text transform="matrix(0.85 0 0 1 457.0068359 1195.6972656)" class="st3 st5">+ </text>
<text transform="matrix(0.85 0 0 1 473.5458984 1195.6972656)" class="st3 st5">minimumBuildingHeight: gml::LengthType [0..1]</text>
<text transform="matrix(0.85 0 0 1 457.0068359 1208.4628906)" class="st3 st5">+ </text>
<text transform="matrix(0.85 0 0 1 473.5458984 1208.4628906)" class="st3 st5">publicAndUtilityFacilities: gml:StringOrRefType [0..1]</text>
<text transform="matrix(0.85 0 0 1 457.0068359 1221.2285156)" class="st3 st5">+ </text>
<text transform="matrix(0.85 0 0 1 473.5458984 1221.2285156)" class="st3 st5">scheduledExecutor: xs::string [0..1]</text>
<text transform="matrix(0.85 0 0 1 457.0068359 1233.9863281)" class="st3 st5">+ </text>
<text transform="matrix(0.85 0 0 1 473.5458984 1233.9863281)" class="st3 st5">setbackSize: gml:StringOrRefType [0..1]</text>
<path class="st0" d="M978.1626587,1084.6029053c1.0375366,0,1.8786011,0.8400879,1.8786011,1.8765869l0.0001221-0.0001221
	v150.8818359l-0.0001221,0.0001221c0,1.036377-0.8410645,1.876709-1.8786621,1.8765869c0,0.0001221,0,0,0,0h0.000061H727.9210205
	l-0.000061,0.0001221c-1.0375366-0.0001221-1.8786621-0.840332-1.8786621-1.8768311l0,0v-150.8818359
	c0-1.036377,0.8411255-1.8765869,1.8787231-1.8764648v-0.0001221h250.2416382V1084.6029053L978.1626587,1084.6029053z"/>
<path class="st1" d="M975.9082642,1082.3508301c1.0374756,0,1.8786011,0.84021,1.8786011,1.876709l0.000061-0.0001221v150.8818359
	l-0.000061,0.0001221c0,1.036377-0.8411255,1.876709-1.8787231,1.8765869c0,0.0001221,0,0,0,0h0.0001221H725.6665649v0.0001221
	c-1.0375977-0.0001221-1.8787231-0.840332-1.8787231-1.8768311h0.000061V1084.227417
	c0-1.036377,0.8410645-1.8765869,1.8786621-1.8765869l0,0H975.9082642L975.9082642,1082.3508301L975.9082642,1082.3508301z"/>
<path class="st2" d="M975.9082642,1082.3508301c1.0374756,0,1.8786011,0.84021,1.8786011,1.876709l0.000061-0.0001221v150.8818359
	l-0.000061,0.0001221c0,1.036377-0.8411255,1.876709-1.8787231,1.8765869c0,0.0001221,0,0,0,0h0.0001221H725.6665649v0.0001221
	c-1.0375977-0.0001221-1.8787231-0.840332-1.8787231-1.8768311h0.000061V1084.227417
	c0-1.036377,0.8410645-1.8765869,1.8786621-1.8765869l0,0H975.9082642L975.9082642,1082.3508301L975.9082642,1082.3508301z"/>
<text transform="matrix(0.85 0 0 1 819.2177734 1097.3691406)" class="st3 st5">«FeatureType»</text>
<text transform="matrix(0.85 0 0 1 732.8037109 1110.1347656)" class="st7 st5">urf::CollectiveFacilitiesForTsunamiDisasterPrevention</text>
<line class="st2" x1="723.7879028" y1="1116.130249" x2="977.7869263" y2="1116.130249"/>
<text transform="matrix(0.85 0 0 1 727.5458984 1129.6425781)" class="st3 st5">+ </text>
<text transform="matrix(0.85 0 0 1 744.0771484 1129.6425781)" class="st3 st5">housingFacilities: gml:StringOrRefType [0..1]</text>
<text transform="matrix(0.85 0 0 1 727.5458984 1142.4082031)" class="st3 st5">+ </text>
<text transform="matrix(0.85 0 0 1 744.0771484 1142.4082031)" class="st3 st5">maximumBuildingCoverageRate: xs::double [0..1]</text>
<text transform="matrix(0.85 0 0 1 727.5458984 1155.1738281)" class="st3 st5">+ </text>
<text transform="matrix(0.85 0 0 1 744.0771484 1155.1738281)" class="st3 st5">maximumBuildingHeight: gml::LengthType [0..1]</text>
<text transform="matrix(0.85 0 0 1 727.5458984 1167.9238281)" class="st3 st5">+ </text>
<text transform="matrix(0.85 0 0 1 744.0771484 1167.9238281)" class="st3 st5">maximumFloorAreaRate: xs::double [0..1]</text>
<text transform="matrix(0.85 0 0 1 727.5458984 1180.6894531)" class="st3 st5">+ </text>
<text transform="matrix(0.85 0 0 1 744.0771484 1180.6894531)" class="st3 st5">minimumBuildingHeight: gml::LengthType [0..1]</text>
<text transform="matrix(0.85 0 0 1 727.5458984 1193.4550781)" class="st3 st5">+ </text>
<text transform="matrix(0.85 0 0 1 744.0771484 1193.4550781)" class="st3 st5">minimumFloorAreaRate: xs::double [0..1]</text>
<text transform="matrix(0.85 0 0 1 727.5458984 1206.2207031)" class="st3 st5">+ </text>
<text transform="matrix(0.85 0 0 1 744.0771484 1206.2207031)" class="st3 st5">publicFacilities: gml:StringOrRefType [0..1]</text>
<text transform="matrix(0.85 0 0 1 727.5458984 1218.9707031)" class="st3 st5">+ </text>
<text transform="matrix(0.85 0 0 1 744.0771484 1218.9707031)" class="st3 st5">supecificBusinessFacilities: gml:StringOrRefType [0..1]</text>
<text transform="matrix(0.85 0 0 1 727.5458984 1231.7363281)" class="st3 st5">+ </text>
<text transform="matrix(0.85 0 0 1 744.0771484 1231.7363281)" class="st3 st5">utilityFacilities: gml:StringOrRefType [0..1]</text>
<path class="st0" d="M1061.5765381,1257.2537842c1.0374756,0,1.8786621,0.8400879,1.8786621,1.8765869v-0.0001221v163.6430664
	v0.0001221c0,1.036377-0.8411865,1.8765869-1.8786621,1.8765869l0,0l0,0H795.553894h-0.000061
	c-1.0375366,0-1.8787231-0.84021-1.8787231-1.876709h0.0001221V1259.130249c0-1.036377,0.8410645-1.8765869,1.8786621-1.8764648
	v-0.0001221h266.022644V1257.2537842L1061.5765381,1257.2537842z"/>
<path class="st1" d="M1059.3221436,1255.0018311c1.0374756,0,1.87854,0.8400879,1.87854,1.8765869l0.0001221-0.0001221v163.6430664
	l-0.0001221,0.0001221c0,1.036377-0.8410645,1.8765869-1.8786621,1.8764648c0,0.0001221,0,0,0,0h0.0001221h-266.022644
	l-0.0001221,0.0001221c-1.0374756-0.0001221-1.8786621-0.84021-1.8786621-1.876709h0.000061v-163.6430664
	c0-1.036377,0.8411255-1.8765869,1.8787231-1.8764648v-0.0001221h266.022644V1255.0018311L1059.3221436,1255.0018311z"/>
<path class="st2" d="M1059.3221436,1255.0018311c1.0374756,0,1.87854,0.8400879,1.87854,1.8765869l0.0001221-0.0001221v163.6430664
	l-0.0001221,0.0001221c0,1.036377-0.8410645,1.8765869-1.8786621,1.8764648c0,0.0001221,0,0,0,0h0.0001221h-266.022644
	l-0.0001221,0.0001221c-1.0374756-0.0001221-1.8786621-0.84021-1.8786621-1.876709h0.000061v-163.6430664
	c0-1.036377,0.8411255-1.8765869,1.8787231-1.8764648v-0.0001221h266.022644V1255.0018311L1059.3221436,1255.0018311z"/>
<text transform="matrix(0.85 0 0 1 894.3740234 1270.0175781)" class="st3 st5">«FeatureType»</text>
<text transform="matrix(0.85 0 0 1 796.6787109 1282.7832031)" class="st7 st5">urf::CollectiveFacilitiesForReconstructionAndRevitalization</text>
<line class="st2" x1="791.4207764" y1="1288.78125" x2="1061.2008057" y2="1288.78125"/>
<text transform="matrix(0.85 0 0 1 795.1787109 1302.2988281)" class="st3 st5">+ </text>
<text transform="matrix(0.85 0 0 1 811.7099609 1302.2988281)" class="st3 st5">housingFacilities: gml:StringOrRefType [0..1]</text>
<text transform="matrix(0.85 0 0 1 795.1787109 1315.0566406)" class="st3 st5">+ </text>
<text transform="matrix(0.85 0 0 1 811.7099609 1315.0566406)" class="st3 st5">maximumBuildingCoverageRate: xs::double [0..1]</text>
<text transform="matrix(0.85 0 0 1 795.1787109 1327.8144531)" class="st3 st5">+ </text>
<text transform="matrix(0.85 0 0 1 811.7099609 1327.8144531)" class="st3 st5">maximumBuildingHeight: gml::LengthType [0..1]</text>
<text transform="matrix(0.85 0 0 1 795.1787109 1340.5800781)" class="st3 st5">+ </text>
<text transform="matrix(0.85 0 0 1 811.7099609 1340.5800781)" class="st3 st5">maximumFloorAreaRate: xs::double [0..1]</text>
<text transform="matrix(0.85 0 0 1 795.1787109 1353.3457031)" class="st3 st5">+ </text>
<text transform="matrix(0.85 0 0 1 811.7099609 1353.3457031)" class="st3 st5">minimumBuildingHeight: gml::LengthType [0..1]</text>
<text transform="matrix(0.85 0 0 1 795.1787109 1366.0957031)" class="st3 st5">+ </text>
<text transform="matrix(0.85 0 0 1 811.7099609 1366.0957031)" class="st3 st5">minimumFloorAreaRate: xs::double [0..1]</text>
<text transform="matrix(0.85 0 0 1 795.1787109 1378.8613281)" class="st3 st5">+ </text>
<text transform="matrix(0.85 0 0 1 811.7099609 1378.8613281)" class="st3 st5">publicFacilities: gml:StringOrRefType [0..1]</text>
<text transform="matrix(0.85 0 0 1 795.1787109 1391.6269531)" class="st3 st5">+ </text>
<text transform="matrix(0.85 0 0 1 811.7099609 1391.6269531)" class="st3 st5">supecificBusinessFacilities: gml:StringOrRefType [0..1]</text>
<text transform="matrix(0.85 0 0 1 795.1787109 1404.3769531)" class="st3 st5">+ </text>
<text transform="matrix(0.85 0 0 1 811.7099609 1404.3769531)" class="st3 st5">utilityFacilities: gml:StringOrRefType [0..1]</text>
<path class="st0" d="M407.0405579,1099.6159668c1.0375671,0,1.8786621,0.84021,1.8786621,1.8765869h0.0000305v150.8818359
	l-0.0000305,0.0001221c0,1.036377-0.841095,1.8765869-1.8786926,1.8764648c0,0.0001221,0,0,0,0h0.0000305H156.7988892
	l-0.0000153,0.0001221c-1.0375671-0.0001221-1.8786926-0.84021-1.8786926-1.876709h0.0000153v-150.8818359
	c0-1.036377,0.8411102-1.876709,1.8786926-1.8765869v-0.0001221h250.2416687V1099.6159668L407.0405579,1099.6159668z"/>
<path class="st1" d="M404.7861328,1097.3640137c1.0375366,0,1.8786621,0.84021,1.8786621,1.8765869h0.0000305v150.8818359
	l-0.0000305,0.0001221c0,1.0362549-0.8411255,1.8765869-1.8786926,1.8764648c0,0.0001221,0,0,0,0h0.0000305H154.5444641
	l-0.0000153,0.0001221c-1.0375671-0.0001221-1.8786926-0.840332-1.8786926-1.876709h0.0000153v-150.8818359
	c0-1.036377,0.8411102-1.876709,1.8786926-1.8765869v-0.0001221h250.2416687V1097.3640137L404.7861328,1097.3640137z"/>
<path class="st2" d="M404.7861328,1097.3640137c1.0375366,0,1.8786621,0.84021,1.8786621,1.8765869h0.0000305v150.8818359
	l-0.0000305,0.0001221c0,1.0362549-0.8411255,1.8765869-1.8786926,1.8764648c0,0.0001221,0,0,0,0h0.0000305H154.5444641
	l-0.0000153,0.0001221c-1.0375671-0.0001221-1.8786926-0.840332-1.8786926-1.876709h0.0000153v-150.8818359
	c0-1.036377,0.8411102-1.876709,1.8786926-1.8765869v-0.0001221h250.2416687V1097.3640137L404.7861328,1097.3640137z"/>
<text transform="matrix(0.85 0 0 1 248.1005859 1112.3769531)" class="st3 st5">«FeatureType»</text>
<text transform="matrix(0.85 0 0 1 189.4833984 1125.1425781)" class="st7 st5">urf::CollectiveFacilitiesForReconstruction</text>
<line class="st2" x1="152.6657715" y1="1131.1434326" x2="406.6648254" y2="1131.1434326"/>
<text transform="matrix(0.85 0 0 1 156.4208984 1144.6582031)" class="st3 st5">+ </text>
<text transform="matrix(0.85 0 0 1 172.9521484 1144.6582031)" class="st3 st5">housingFacilities: gml:StringOrRefType [0..1]</text>
<text transform="matrix(0.85 0 0 1 156.4208984 1157.4160156)" class="st3 st5">+ </text>
<text transform="matrix(0.85 0 0 1 172.9521484 1157.4160156)" class="st3 st5">maximumBuildingCoverageRate: xs::double [0..1]</text>
<text transform="matrix(0.85 0 0 1 156.4208984 1170.1816406)" class="st3 st5">+ </text>
<text transform="matrix(0.85 0 0 1 172.9521484 1170.1816406)" class="st3 st5">maximumBuildingHeight: gml::LengthType [0..1]</text>
<text transform="matrix(0.85 0 0 1 156.4208984 1182.9472656)" class="st3 st5">+ </text>
<text transform="matrix(0.85 0 0 1 172.9521484 1182.9472656)" class="st3 st5">maximumFloorAreaRate: xs::double [0..1]</text>
<text transform="matrix(0.85 0 0 1 156.4208984 1195.6972656)" class="st3 st5">+ </text>
<text transform="matrix(0.85 0 0 1 172.9521484 1195.6972656)" class="st3 st5">minimumBuildingHeight: gml::LengthType [0..1]</text>
<text transform="matrix(0.85 0 0 1 156.4208984 1208.4628906)" class="st3 st5">+ </text>
<text transform="matrix(0.85 0 0 1 172.9521484 1208.4628906)" class="st3 st5">minimumFloorAreaRate: xs::double [0..1]</text>
<text transform="matrix(0.85 0 0 1 156.4208984 1221.2285156)" class="st3 st5">+ </text>
<text transform="matrix(0.85 0 0 1 172.9521484 1221.2285156)" class="st3 st5">publicFacilities: gml:StringOrRefType [0..1]</text>
<text transform="matrix(0.85 0 0 1 156.4208984 1233.9863281)" class="st3 st5">+ </text>
<text transform="matrix(0.85 0 0 1 172.9521484 1233.9863281)" class="st3 st5">supecificBusinessFacilities: gml:StringOrRefType [0..1]</text>
<text transform="matrix(0.85 0 0 1 156.4208984 1246.7441406)" class="st3 st5">+ </text>
<text transform="matrix(0.85 0 0 1 172.9521484 1246.7441406)" class="st3 st5">utilityFacilities: gml:StringOrRefType [0..1]</text>
<path class="st0" d="M921.0504761,499.8416748c1.0374756,0,1.8786011,0.8400879,1.8786011,1.8765869l0.000061-0.0001221v77.317627
	h-0.000061c0,1.036499-0.8411255,1.876709-1.8787231,1.876709l0,0h0.0001221H712.8914795h-0.000061
	c-1.0375366,0-1.8786621-0.84021-1.8786621-1.876709h0.000061v-77.317627c0-1.036377,0.8410645-1.8765869,1.8786621-1.8764648
	v-0.0001221h208.1589966V499.8416748L921.0504761,499.8416748z"/>
<path class="st1" d="M918.7960205,497.5895996c1.0375366,0,1.8786011,0.84021,1.8786011,1.876709l0.0001221-0.0001221v77.317627
	h-0.0001221c0,1.036499-0.8410645,1.876709-1.8786621,1.876709l0,0h0.000061H710.637085h-0.000061
	c-1.0375366,0-1.8787231-0.84021-1.8787231-1.876709h0.000061v-77.317627c0-1.036377,0.8411255-1.8765869,1.8787231-1.8765869l0,0
	H918.7960205L918.7960205,497.5895996L918.7960205,497.5895996z"/>
<path class="st2" d="M918.7960205,497.5895996c1.0375366,0,1.8786011,0.84021,1.8786011,1.876709l0.0001221-0.0001221v77.317627
	h-0.0001221c0,1.036499-0.8410645,1.876709-1.8786621,1.876709l0,0h0.000061H710.637085h-0.000061
	c-1.0375366,0-1.8787231-0.84021-1.8787231-1.876709h0.000061v-77.317627c0-1.036377,0.8411255-1.8765869,1.8787231-1.8765869l0,0
	H918.7960205L918.7960205,497.5895996L918.7960205,497.5895996z"/>
<text transform="matrix(0.85 0 0 1 783.1552734 512.6035156)" class="st3 st5">«FeatureType»</text>
<text transform="matrix(0.85 0 0 1 717.7802734 525.3691406)" class="st7 st5">urf::UrbanFacilityStipulatedByCabinetOrder</text>
<line class="st2" x1="708.7583618" y1="531.3691406" x2="920.6747437" y2="531.3691406"/>
<text transform="matrix(0.85 0 0 1 712.5146484 544.8925781)" class="st3 st5">+ </text>
<text transform="matrix(0.85 0 0 1 729.0458984 544.8925781)" class="st3 st5">length: gml::LengthType [0..1]</text>
<text transform="matrix(0.85 0 0 1 712.5146484 557.6425781)" class="st3 st5">+ </text>
<text transform="matrix(0.85 0 0 1 729.0458984 557.6425781)" class="st3 st5">width: gml::LengthType [0..1]</text>
<path class="st0" d="M693.3530884,657.4793701c1.0375366,0,1.8786621,0.84021,1.8786621,1.876709h0.000061v40.5354004h-0.000061
	c0,1.036377-0.8411255,1.876709-1.8787231,1.8765869c0,0.0001221,0,0,0,0h0.000061h-145.786438v0.0001221
	c-1.0375977-0.0001221-1.8787231-0.840332-1.8787231-1.876709h0.000061v-40.5354004
	c0-1.036499,0.8410645-1.876709,1.8786621-1.876709l0,0H693.3530884L693.3530884,657.4793701L693.3530884,657.4793701z"/>
<path class="st1" d="M691.0986938,655.227417c1.0375366,0,1.8786011,0.84021,1.8786011,1.876709l0.000061-0.0001221v40.5355225
	h-0.000061c0,1.036377-0.8410645,1.876709-1.8786621,1.8765869c0,0.0001221,0,0,0,0h0.000061h-145.786438l-0.000061,0.0001221
	c-1.0375366-0.0001221-1.8787231-0.840332-1.8787231-1.876709h0.000061v-40.5355225
	c0-1.036377,0.8411255-1.8765869,1.8787231-1.8765869l0,0H691.0986938L691.0986938,655.227417L691.0986938,655.227417z"/>
<path class="st2" d="M691.0986938,655.227417c1.0375366,0,1.8786011,0.84021,1.8786011,1.876709l0.000061-0.0001221v40.5355225
	h-0.000061c0,1.036377-0.8410645,1.876709-1.8786621,1.8765869c0,0.0001221,0,0,0,0h0.000061h-145.786438l-0.000061,0.0001221
	c-1.0375366-0.0001221-1.8787231-0.840332-1.8787231-1.876709h0.000061v-40.5355225
	c0-1.036377,0.8411255-1.8765869,1.8787231-1.8765869l0,0H691.0986938L691.0986938,655.227417L691.0986938,655.227417z"/>
<text transform="matrix(0.85 0 0 1 586.2646484 670.2363281)" class="st3 st5">«FeatureType»</text>
<text transform="matrix(0.85 0 0 1 550.1943359 683.0019531)" class="st7 st5">urf::TelecommunicationFacility</text>
<path class="st0" d="M738.4417114,716.78125c1.0375366,0,1.8786011,0.84021,1.8786011,1.8765869h0.000061v40.5354004h-0.000061
	c0,1.036499-0.8410645,1.876709-1.8786621,1.876709l0,0h0.000061h-145.786438h-0.000061
	c-1.0375366,0-1.8787231-0.84021-1.8787231-1.876709h0.000061v-40.5354004c0-1.036377,0.8411255-1.876709,1.8787231-1.8765869
	v-0.0001221h145.786438V716.78125L738.4417114,716.78125z"/>
<path class="st1" d="M736.1872559,714.5292969c1.0375366,0,1.8786621,0.84021,1.8786621,1.8765869h0.000061v40.5354004h-0.000061
	c0,1.036499-0.8411255,1.876709-1.8787231,1.876709l0,0h0.000061h-145.786438h-0.000061
	c-1.0375366,0-1.8786621-0.84021-1.8786621-1.876709h0.000061v-40.5354004c0-1.036377,0.8410645-1.876709,1.8786621-1.8765869
	v-0.0001221h145.786438V714.5292969L736.1872559,714.5292969z"/>
<path class="st2" d="M736.1872559,714.5292969c1.0375366,0,1.8786621,0.84021,1.8786621,1.8765869h0.000061v40.5354004h-0.000061
	c0,1.036499-0.8411255,1.876709-1.8787231,1.876709l0,0h0.000061h-145.786438h-0.000061
	c-1.0375366,0-1.8786621-0.84021-1.8786621-1.876709h0.000061v-40.5354004c0-1.036377,0.8410645-1.876709,1.8786621-1.8765869
	v-0.0001221h145.786438V714.5292969L736.1872559,714.5292969z"/>
<text transform="matrix(0.85 0 0 1 631.3583984 729.5488281)" class="st3 st5">«FeatureType»</text>
<text transform="matrix(0.85 0 0 1 607.3115234 742.3144531)" class="st7 st5">urf::FireProtectionFacility</text>
<path class="st0" d="M903.7665405,649.222168c1.0374756,0,1.87854,0.84021,1.87854,1.8765869h0.0001221v40.5354004
	l-0.0001221,0.0001221c0,1.036377-0.8410645,1.8765869-1.8786621,1.8765869l0,0h0.0001221H765.494812l0,0
	c-1.0375366,0-1.8787231-0.84021-1.8787231-1.876709h0.000061v-40.5354004c0-1.036377,0.8411255-1.876709,1.8786621-1.8765869
	v-0.0001221h138.2717285V649.222168L903.7665405,649.222168z"/>
<path class="st1" d="M901.512085,646.9702148c1.0374756,0,1.8786011,0.84021,1.8786011,1.8765869h0.000061v40.5354004h-0.000061
	c0,1.036499-0.8411255,1.876709-1.8787231,1.876709l0,0h0.0001221H763.2404175h-0.000061
	c-1.0375366,0-1.8786621-0.84021-1.8786621-1.876709l0,0v-40.5354004c0-1.036377,0.8411255-1.876709,1.8787231-1.8765869v-0.0001221
	H901.512085V646.9702148L901.512085,646.9702148z"/>
<path class="st2" d="M901.512085,646.9702148c1.0374756,0,1.8786011,0.84021,1.8786011,1.8765869h0.000061v40.5354004h-0.000061
	c0,1.036499-0.8411255,1.876709-1.8787231,1.876709l0,0h0.0001221H763.2404175h-0.000061
	c-1.0375366,0-1.8786621-0.84021-1.8786621-1.876709l0,0v-40.5354004c0-1.036377,0.8411255-1.876709,1.8787231-1.8765869v-0.0001221
	H901.512085V646.9702148L901.512085,646.9702148z"/>
<text transform="matrix(0.85 0 0 1 800.4365234 661.9863281)" class="st3 st5">«FeatureType»</text>
<text transform="matrix(0.85 0 0 1 772.6318359 674.7519531)" class="st7 st5">urf::WindProtectionFacility</text>
<path class="st0" d="M782.7788086,784.34021c1.0374756,0,1.8786011,0.840332,1.8786011,1.876709h0.000061v40.5354004h-0.000061
	c0,1.036377-0.8411255,1.876709-1.8787231,1.876709l0,0h0.0001221H637.7438354h-0.000061
	c-1.0375366,0-1.8786621-0.840332-1.8786621-1.876709h0.000061v-40.5354004c0-1.036377,0.8410645-1.876709,1.8786621-1.876709l0,0
	H782.7788086L782.7788086,784.34021L782.7788086,784.34021z"/>
<path class="st1" d="M780.524353,782.0882568c1.0375366,0,1.8786011,0.840332,1.8786011,1.876709h0.0001221v40.5354004h-0.0001221
	c0,1.036377-0.8410645,1.876709-1.8786621,1.876709l0,0h0.000061H635.4894409h-0.000061
	c-1.0375366,0-1.8787231-0.840332-1.8787231-1.876709h0.000061v-40.5354004c0-1.036377,0.8411255-1.876709,1.8787231-1.876709l0,0
	H780.524353L780.524353,782.0882568L780.524353,782.0882568z"/>
<path class="st2" d="M780.524353,782.0882568c1.0375366,0,1.8786011,0.840332,1.8786011,1.876709h0.0001221v40.5354004h-0.0001221
	c0,1.036377-0.8410645,1.876709-1.8786621,1.876709l0,0h0.000061H635.4894409h-0.000061
	c-1.0375366,0-1.8787231-0.840332-1.8787231-1.876709h0.000061v-40.5354004c0-1.036377,0.8411255-1.876709,1.8787231-1.876709l0,0
	H780.524353L780.524353,782.0882568L780.524353,782.0882568z"/>
<text transform="matrix(0.85 0 0 1 676.4443359 797.1035156)" class="st3 st5">«FeatureType»</text>
<text transform="matrix(0.85 0 0 1 646.3818359 809.8691406)" class="st7 st5">urf::FloodPreventionFacility</text>
<path class="st0" d="M986.428894,761.8206787c1.0375366,0,1.8786011,0.8400879,1.8786011,1.8765869l0.0001221-0.0001221v40.5355225
	h-0.0001221c0,1.036499-0.8410645,1.8765869-1.8786621,1.8765869l0,0h0.000061H863.1867676h-0.000061
	c-1.0375366,0-1.8787231-0.8400879-1.8787231-1.8765869h0.0001221v-40.5355225c0-1.036377,0.8410645-1.8765869,1.8786621-1.8764648
	v-0.0001221H986.428894V761.8206787L986.428894,761.8206787z"/>
<path class="st1" d="M984.1744995,759.5687256c1.0374756,0,1.8786011,0.8400879,1.8786011,1.8765869l0.000061-0.0001221v40.5354004
	l-0.000061,0.0001221c0,1.036499-0.8411255,1.8765869-1.8787231,1.8765869l0,0h0.0001221H860.932373h-0.0001221
	c-1.0374756,0-1.8786621-0.8400879-1.8786621-1.876709h0.000061v-40.5354004c0-1.036377,0.8411255-1.8765869,1.8787231-1.8764648
	v-0.0001221h123.2421265V759.5687256L984.1744995,759.5687256z"/>
<path class="st2" d="M984.1744995,759.5687256c1.0374756,0,1.8786011,0.8400879,1.8786011,1.8765869l0.000061-0.0001221v40.5354004
	l-0.000061,0.0001221c0,1.036499-0.8411255,1.8765869-1.8787231,1.8765869l0,0h0.0001221H860.932373h-0.0001221
	c-1.0374756,0-1.8786621-0.8400879-1.8786621-1.876709h0.000061v-40.5354004c0-1.036377,0.8411255-1.8765869,1.8787231-1.8764648
	v-0.0001221h123.2421265V759.5687256L984.1744995,759.5687256z"/>
<text transform="matrix(0.85 0 0 1 890.6162109 774.5878906)" class="st3 st5">«FeatureType»</text>
<text transform="matrix(0.85 0 0 1 870.3271484 787.3457031)" class="st7 st5">urf::SandControlFacility</text>
<path class="st0" d="M948.8551025,709.2746582c1.0374756,0,1.8786011,0.84021,1.8786011,1.8765869h0.000061v40.5354004
	l-0.000061,0.0001221c0,1.036377-0.8411255,1.8765869-1.8787231,1.8765869l0,0h0.0001221h-130.756897h-0.0001221
	c-1.0374756,0-1.8786621-0.84021-1.8786621-1.876709h0.000061v-40.5354004c0-1.036377,0.8411255-1.8765869,1.8787231-1.8765869l0,0
	H948.8551025L948.8551025,709.2746582L948.8551025,709.2746582z"/>
<path class="st1" d="M946.600647,707.0227051c1.0375366,0,1.8786011,0.84021,1.8786011,1.8765869h0.0001221v40.5354004h-0.0001221
	c0,1.036499-0.8410645,1.876709-1.8786621,1.876709l0,0h0.000061H815.84375h-0.000061
	c-1.0375366,0-1.8787231-0.84021-1.8787231-1.876709h0.0001221V708.899292c0-1.036377,0.8410645-1.876709,1.8786621-1.8765869
	v-0.0001221h130.756897V707.0227051L946.600647,707.0227051z"/>
<path class="st2" d="M946.600647,707.0227051c1.0375366,0,1.8786011,0.84021,1.8786011,1.8765869h0.0001221v40.5354004h-0.0001221
	c0,1.036499-0.8410645,1.876709-1.8786621,1.876709l0,0h0.000061H815.84375h-0.000061
	c-1.0375366,0-1.8787231-0.84021-1.8787231-1.876709h0.0001221V708.899292c0-1.036377,0.8410645-1.876709,1.8786621-1.8765869
	v-0.0001221h130.756897V707.0227051L946.600647,707.0227051z"/>
<text transform="matrix(0.85 0 0 1 849.2802734 722.0332031)" class="st3 st5">«FeatureType»</text>
<text transform="matrix(0.85 0 0 1 821.4755859 734.7988281)" class="st7 st5">urf::SnowProtectionFacility</text>
<path class="st0" d="M1054.0617676,814.3665771c1.0374756,0,1.8786621,0.8400879,1.8786621,1.8765869h0.0001221v40.5354004
	l-0.0001221,0.0001221c0,1.036377-0.8411865,1.876709-1.8786621,1.8764648c0,0.0002441,0,0,0,0l0,0H953.3639526l-0.000061,0.0002441
	c-1.0375366-0.0002441-1.8787231-0.840332-1.8787231-1.8768311h0.0001221v-40.5354004
	c0-1.036499,0.8410645-1.8765869,1.8786621-1.8765869l0,0H1054.0617676L1054.0617676,814.3665771L1054.0617676,814.3665771z"/>
<path class="st1" d="M1051.807373,812.114624c1.0374756,0,1.8786621,0.8400879,1.8786621,1.8765869v-0.0001221v40.5355225v0.0001221
	c0,1.036377-0.8411865,1.8765869-1.8787842,1.8764648c0,0.0001221,0,0,0,0h0.0001221H951.1095581l-0.0001221,0.0001221
	c-1.0374756-0.0001221-1.8786621-0.84021-1.8786621-1.876709h0.000061v-40.5355225
	c0-1.036377,0.8411255-1.8765869,1.8787231-1.8764648v-0.0001221h100.6978149V812.114624L1051.807373,812.114624z"/>
<path class="st2" d="M1051.807373,812.114624c1.0374756,0,1.8786621,0.8400879,1.8786621,1.8765869v-0.0001221v40.5355225v0.0001221
	c0,1.036377-0.8411865,1.8765869-1.8787842,1.8764648c0,0.0001221,0,0,0,0h0.0001221H951.1095581l-0.0001221,0.0001221
	c-1.0374756-0.0001221-1.8786621-0.84021-1.8786621-1.876709h0.000061v-40.5355225
	c0-1.036377,0.8411255-1.8765869,1.8787231-1.8764648v-0.0001221h100.6978149V812.114624L1051.807373,812.114624z"/>
<text transform="matrix(0.85 0 0 1 969.5224609 827.1347656)" class="st3 st5">«FeatureType»</text>
<text transform="matrix(0.85 0 0 1 968.0146484 839.8925781)" class="st7 st5">urf::TideFacility</text>
<path class="st8" d="M807.9532471,249.1224365c1.2449951,0,2.2543335,1.0081787,2.2543335,2.2519531h0.0001221v84.8240967
	h-0.0001221c0,1.2437744-1.0093384,2.2520752-2.2543945,2.2519531c0,0.0001221,0,0,0,0h0.000061H673.4389648l-0.000061,0.0001221
	c-1.2449951-0.0001221-2.2543945-1.0083008-2.2543335-2.2520752v-84.8240967c0-1.2437744,1.0093384-2.2519531,2.2543945-2.2519531
	l0,0H807.9532471L807.9532471,249.1224365L807.9532471,249.1224365z"/>
<path class="st9" d="M807.9532471,249.1224365c1.2449951,0,2.2543335,1.0081787,2.2543335,2.2519531h0.0001221v84.8240967
	h-0.0001221c0,1.2437744-1.0093384,2.2520752-2.2543945,2.2519531c0,0.0001221,0,0,0,0h0.000061H673.4389648l-0.000061,0.0001221
	c-1.2449951-0.0001221-2.2543945-1.0083008-2.2543335-2.2520752v-84.8240967c0-1.2437744,1.0093384-2.2519531,2.2543945-2.2519531
	l0,0H807.9532471L807.9532471,249.1224365L807.9532471,249.1224365z"/>
<path class="st10" d="M688.8442383,271.6420898c1.0375366,0,1.8786621,0.84021,1.8786621,1.8765869h0.000061v8.2573242h-0.000061
	c0,1.036377-0.8411255,1.8765869-1.8787231,1.8765869l0,0h0.000061h-8.2662354h-0.000061
	c-1.0375366,0-1.8786621-0.84021-1.8786621-1.8765869l0,0v-8.2573242c0-1.036377,0.8411255-1.8765869,1.8787231-1.8765869l0,0
	H688.8442383L688.8442383,271.6420898L688.8442383,271.6420898z"/>
<path class="st11" d="M688.8442383,271.6420898c1.0375366,0,1.8786621,0.84021,1.8786621,1.8765869h0.000061v8.2573242h-0.000061
	c0,1.036377-0.8411255,1.8765869-1.8787231,1.8765869l0,0h0.000061h-8.2662354h-0.000061
	c-1.0375366,0-1.8786621-0.84021-1.8786621-1.8765869l0,0v-8.2573242c0-1.036377,0.8411255-1.8765869,1.8787231-1.8765869l0,0
	H688.8442383L688.8442383,271.6420898L688.8442383,271.6420898z"/>
<text transform="matrix(0.85 0 0 1 695.2255859 282.1582031)" class="st12 st3 st5">GMLに定義されたクラス</text>
<path class="st13" d="M688.8442383,285.904541c1.0375366,0,1.8786621,0.84021,1.8786621,1.876709l0.000061-0.0001221v8.2573242
	h-0.000061c0,1.036377-0.8411255,1.8765869-1.8787231,1.8765869l0,0h0.000061h-8.2662354h-0.000061
	c-1.0375366,0-1.8786621-0.84021-1.8786621-1.8765869l0,0v-8.2573242c0-1.036377,0.8411255-1.8765869,1.8787231-1.8765869l0,0
	H688.8442383L688.8442383,285.904541L688.8442383,285.904541z"/>
<path class="st11" d="M688.8442383,285.904541c1.0375366,0,1.8786621,0.84021,1.8786621,1.876709l0.000061-0.0001221v8.2573242
	h-0.000061c0,1.036377-0.8411255,1.8765869-1.8787231,1.8765869l0,0h0.000061h-8.2662354h-0.000061
	c-1.0375366,0-1.8786621-0.84021-1.8786621-1.8765869l0,0v-8.2573242c0-1.036377,0.8411255-1.8765869,1.8787231-1.8765869l0,0
	H688.8442383L688.8442383,285.904541L688.8442383,285.904541z"/>
<text transform="matrix(0.85 0 0 1 695.2255859 296.4238281)" class="st12 st3 st5">CityGMLに定義されたクラス</text>
<path class="st1" d="M688.8442383,300.1669922c1.0375366,0,1.8786621,0.84021,1.8786621,1.876709h0.000061v8.2572021h-0.000061
	c0,1.036377-0.8411255,1.8765869-1.8787231,1.8765869l0,0h0.000061h-8.2662354h-0.000061
	c-1.0375366,0-1.8786621-0.84021-1.8786621-1.8765869l0,0v-8.2572021c0-1.036499,0.8411255-1.876709,1.8787231-1.876709l0,0
	H688.8442383L688.8442383,300.1669922L688.8442383,300.1669922z"/>
<path class="st11" d="M688.8442383,300.1669922c1.0375366,0,1.8786621,0.84021,1.8786621,1.876709h0.000061v8.2572021h-0.000061
	c0,1.036377-0.8411255,1.8765869-1.8787231,1.8765869l0,0h0.000061h-8.2662354h-0.000061
	c-1.0375366,0-1.8786621-0.84021-1.8786621-1.8765869l0,0v-8.2572021c0-1.036499,0.8411255-1.876709,1.8787231-1.876709l0,0
	H688.8442383L688.8442383,300.1669922L688.8442383,300.1669922z"/>
<text transform="matrix(0.85 0 0 1 695.2255859 310.6816406)" class="st12 st3 st5">i-URに定義されたクラス</text>
<text transform="matrix(0.85 0 0 1 732.8037109 267.378418)" class="st12 st14 st15 st16">凡例</text>
<line class="st17" x1="430.7120667" y1="1269.2641602" x2="430.7120667" y2="872.1671143"/>
<line class="st17" x1="430.7120667" y1="872.1671143" x2="522.3922119" y2="872.1671143"/>
<line class="st17" x1="522.3922119" y1="872.1671143" x2="522.3922119" y2="472.8179932"/>
<line class="st17" x1="522.3922119" y1="472.8179932" x2="282.6712036" y2="472.8179932"/>
<line class="st17" x1="282.6712036" y1="472.8179932" x2="282.6712036" y2="436.786499"/>
<polyline class="st18" points="287.1800537,448.7969971 278.1623535,448.7969971 282.6712036,436.786499 287.1800537,448.7969971 
	"/>
<polyline class="st17" points="287.1800537,448.7969971 278.1623535,448.7969971 282.6712036,436.786499 "/>
<line class="st17" x1="309.7243652" y1="174.0567627" x2="396.8956299" y2="174.0567627"/>
<polyline class="st18" points="384.8720093,178.5606689 384.8720093,169.5528564 396.8956299,174.0567627 384.8720093,178.5606689 
	"/>
<path class="st17" d="M396.8956299,174.0567627l-12.0236206-4.5039062v9.0078125
	C385.3462524,178.3830261,396.8956299,174.0567627,396.8956299,174.0567627z"/>
<line class="st17" x1="170.7012024" y1="187.5686035" x2="170.7012024" y2="404.5081787"/>
<line class="st17" x1="170.7012024" y1="404.5081787" x2="219.5471802" y2="404.5081787"/>
<polyline class="st18" points="212.0324097,408.2614746 219.5471802,404.5081787 212.0324097,400.7550049 204.5176392,404.5081787 
	212.0324097,408.2614746 "/>
<polygon class="st17" points="204.5176392,404.5081787 212.0324097,400.7550049 219.5471802,404.5081787 212.0324097,408.2614746 
	"/>
<path class="st17" d="M170.7012024,187.5686035l-4.5088654,11.2597656 M170.7012024,187.5686035l4.5088654,11.2597656"/>
<line class="st17" x1="282.6712036" y1="375.232666" x2="282.6712036" y2="301.668335"/>
<polyline class="st18" points="287.1800537,313.678833 278.1623535,313.678833 282.6712036,301.668335 287.1800537,313.678833 "/>
<polygon class="st17" points="287.1800537,313.678833 278.1623535,313.678833 282.6712036,301.668335 "/>
<line class="st17" x1="233.0737457" y1="503.5948486" x2="282.6712036" y2="503.5948486"/>
<line class="st17" x1="227.8134155" y1="601.9307861" x2="282.6712036" y2="601.9307861"/>
<line class="st17" x1="227.8134155" y1="710.0252686" x2="282.6712036" y2="710.0252686"/>
<line class="st17" x1="227.8134155" y1="655.227417" x2="282.6712036" y2="655.227417"/>
<line class="st17" x1="242.0914612" y1="811.3638916" x2="282.6712036" y2="811.3638916"/>
<line class="st17" x1="282.6712036" y1="811.3638916" x2="282.6712036" y2="436.0357666"/>
<polyline class="st18" points="287.1800537,448.0462646 278.1623535,448.0462646 282.6712036,436.0357666 287.1800537,448.0462646 
	"/>
<line class="st17" x1="302.9610596" y1="632.7076416" x2="282.6712036" y2="632.7076416"/>
<line class="st17" x1="302.9610596" y1="520.1092529" x2="282.6712036" y2="520.1092529"/>
<line class="st17" x1="302.9610596" y1="579.4111328" x2="282.6712036" y2="579.4111328"/>
<line class="st17" x1="347.2981873" y1="281.4006348" x2="396.8956299" y2="281.4006348"/>
<polyline class="st18" points="384.8720093,285.904541 384.8720093,276.8966064 396.8956299,281.4006348 384.8720093,285.904541 "/>
<polygon class="st17" points="396.8956299,281.4006348 384.8720093,276.8966064 384.8720093,285.904541 "/>
<line class="st17" x1="266.8901978" y1="930.7182007" x2="266.8901978" y2="871.4163818"/>
<line class="st17" x1="266.8901978" y1="871.4163818" x2="521.6407471" y2="871.4163818"/>
<line class="st17" x1="521.6407471" y1="871.4163818" x2="521.6407471" y2="473.5686035"/>
<line class="st17" x1="521.6407471" y1="473.5686035" x2="282.6712036" y2="473.5686035"/>
<line class="st17" x1="282.6712036" y1="473.5686035" x2="282.6712036" y2="436.786499"/>
<polyline class="st18" points="287.1800537,448.7969971 278.1623535,448.7969971 282.6712036,436.786499 287.1800537,448.7969971 
	"/>
<polyline class="st17" points="287.1800537,448.7969971 278.1623535,448.7969971 282.6712036,436.786499 "/>
<line class="st17" x1="1023.6270142" y1="811.3638916" x2="1023.6270142" y2="616.9439697"/>
<line class="st17" x1="1023.6270142" y1="616.9439697" x2="814.7165527" y2="616.9439697"/>
<line class="st17" x1="814.7165527" y1="616.9439697" x2="814.7165527" y2="580.1617432"/>
<polyline class="st18" points="819.2254028,592.1722412 810.2077026,592.1722412 814.7165527,580.1617432 819.2254028,592.1722412 
	"/>
<polygon class="st17" points="819.2254028,592.1722412 810.2077026,592.1722412 814.7165527,580.1617432 "/>
<line class="st17" x1="587.019165" y1="931.4688721" x2="587.019165" y2="870.6656494"/>
<line class="st17" x1="587.019165" y1="870.6656494" x2="521.6407471" y2="870.6656494"/>
<line class="st17" x1="521.6407471" y1="870.6656494" x2="521.6407471" y2="473.5686035"/>
<line class="st17" x1="521.6407471" y1="473.5686035" x2="282.6712036" y2="473.5686035"/>
<line class="st17" x1="282.6712036" y1="473.5686035" x2="282.6712036" y2="436.786499"/>
<polyline class="st18" points="287.1800537,448.7969971 278.1623535,448.7969971 282.6712036,436.786499 287.1800537,448.7969971 
	"/>
<polyline class="st17" points="287.1800537,448.7969971 278.1623535,448.7969971 282.6712036,436.786499 "/>
<line class="st17" x1="487.0728149" y1="1096.6132812" x2="487.0728149" y2="872.1671143"/>
<line class="st17" x1="487.0728149" y1="872.1671143" x2="523.1436768" y2="872.1671143"/>
<line class="st17" x1="523.1436768" y1="872.1671143" x2="523.1436768" y2="472.8179932"/>
<line class="st17" x1="523.1436768" y1="472.8179932" x2="282.6712036" y2="472.8179932"/>
<line class="st17" x1="282.6712036" y1="472.8179932" x2="282.6712036" y2="436.786499"/>
<polyline class="st18" points="287.1800537,448.7969971 278.1623535,448.7969971 282.6712036,436.786499 287.1800537,448.7969971 
	"/>
<polyline class="st17" points="287.1800537,448.7969971 278.1623535,448.7969971 282.6712036,436.786499 "/>
<line class="st17" x1="825.9887085" y1="1081.6000977" x2="825.9887085" y2="870.6656494"/>
<line class="st17" x1="825.9887085" y1="870.6656494" x2="521.6407471" y2="870.6656494"/>
<line class="st17" x1="521.6407471" y1="870.6656494" x2="521.6407471" y2="472.8179932"/>
<line class="st17" x1="521.6407471" y1="472.8179932" x2="282.6712036" y2="472.8179932"/>
<line class="st17" x1="282.6712036" y1="472.8179932" x2="282.6712036" y2="436.786499"/>
<polyline class="st18" points="287.1800537,448.7969971 278.1623535,448.7969971 282.6712036,436.786499 287.1800537,448.7969971 
	"/>
<polyline class="st17" points="287.1800537,448.7969971 278.1623535,448.7969971 282.6712036,436.786499 "/>
<line class="st17" x1="998.8283081" y1="1254.2509766" x2="998.8283081" y2="870.6656494"/>
<line class="st17" x1="998.8283081" y1="870.6656494" x2="520.8892822" y2="870.6656494"/>
<line class="st17" x1="520.8892822" y1="870.6656494" x2="520.8892822" y2="473.5686035"/>
<line class="st17" x1="520.8892822" y1="473.5686035" x2="282.6712036" y2="473.5686035"/>
<line class="st17" x1="282.6712036" y1="473.5686035" x2="282.6712036" y2="436.786499"/>
<polyline class="st18" points="287.1800537,448.7969971 278.1623535,448.7969971 282.6712036,436.786499 287.1800537,448.7969971 
	"/>
<polyline class="st17" points="287.1800537,448.7969971 278.1623535,448.7969971 282.6712036,436.786499 "/>
<line class="st17" x1="375.1028137" y1="1096.6132812" x2="375.1028137" y2="871.4163818"/>
<line class="st17" x1="375.1028137" y1="871.4163818" x2="522.3922119" y2="871.4163818"/>
<line class="st17" x1="522.3922119" y1="871.4163818" x2="522.3922119" y2="472.8179932"/>
<line class="st17" x1="522.3922119" y1="472.8179932" x2="282.6712036" y2="472.8179932"/>
<line class="st17" x1="282.6712036" y1="472.8179932" x2="282.6712036" y2="436.786499"/>
<polyline class="st18" points="287.1800537,448.7969971 278.1623535,448.7969971 282.6712036,436.786499 287.1800537,448.7969971 
	"/>
<polygon class="st17" points="282.6712036,436.786499 278.1623535,448.7969971 287.1800537,448.7969971 "/>
<line class="st17" x1="800.4384766" y1="496.8389893" x2="800.4384766" y2="473.5686035"/>
<line class="st17" x1="800.4384766" y1="473.5686035" x2="282.6712036" y2="473.5686035"/>
<line class="st17" x1="623.0900269" y1="654.4766846" x2="623.0900269" y2="616.9439697"/>
<line class="st17" x1="623.0900269" y1="616.9439697" x2="814.7165527" y2="616.9439697"/>
<line class="st17" x1="708.7583618" y1="713.7785645" x2="708.7583618" y2="616.9439697"/>
<line class="st17" x1="793.6752319" y1="646.2194824" x2="793.6752319" y2="616.9439697"/>
<line class="st17" x1="752.3439941" y1="781.3376465" x2="752.3439941" y2="616.9439697"/>
<line class="st17" x1="976.2839966" y1="758.8179932" x2="976.2839966" y2="616.9439697"/>
<line class="st17" x1="917.6688232" y1="706.2720947" x2="917.6688232" y2="616.9439697"/>
<line class="st17" x1="302.9610596" y1="692.0095215" x2="282.6712036" y2="692.0095215"/>
<text transform="matrix(0.85 0 0 1 185.7329102 225.8457031)" class="st19 st20">+threeDimensionalExtent</text>
<text transform="matrix(0.85 0 0 1 189.4829102 205.5800781)" class="st19 st20">0..*</text>
</svg>
