<?xml version="1.0" encoding="utf-8"?>
<!-- Generator: Adobe Illustrator 27.4.1, SVG Export Plug-In . SVG Version: 6.00 Build 0)  -->
<svg version="1.1" id="レイヤー_1" xmlns="http://www.w3.org/2000/svg" xmlns:xlink="http://www.w3.org/1999/xlink" x="0px"
	 y="0px" viewBox="0 0 333.9 392.9" style="enable-background:new 0 0 333.9 392.9;" xml:space="preserve">
<style type="text/css">
	.st0{fill-rule:evenodd;clip-rule:evenodd;fill:#F0F0F0;}
	.st1{fill:none;stroke:#D7D7D7;stroke-width:0.4331;stroke-linecap:square;stroke-miterlimit:10;}
	.st2{fill-rule:evenodd;clip-rule:evenodd;fill:#A0FFC0;}
	.st3{fill:none;stroke:#000000;stroke-width:0.4331;stroke-linecap:square;stroke-miterlimit:10;}
	.st4{fill:#003060;}
	.st5{font-family:'YuGothicUI-Regular';}
	.st6{font-size:5.6299px;}
	.st7{fill-rule:evenodd;clip-rule:evenodd;fill:#FFFFCC;}
	.st8{fill-rule:evenodd;clip-rule:evenodd;fill:#FFCCFF;}
	.st9{fill:#003060;stroke:#003060;stroke-width:0.198;stroke-miterlimit:10;}
	.st10{font-family:'MS-PGothic';}
	.st11{font-size:6.9291px;}
	.st12{fill-rule:evenodd;clip-rule:evenodd;fill:#CFD1D8;}
	.st13{fill:none;stroke:#000000;stroke-width:0.4331;stroke-linecap:round;stroke-linejoin:round;stroke-miterlimit:10;}
	.st14{font-size:5.9358px;}
	.st15{font-family:'YuGothicUI-Bold';}
	.st16{stroke:#000000;stroke-width:0.1609;stroke-miterlimit:10;}
	.st17{fill:none;stroke:#000000;stroke-width:0.4331;stroke-linecap:round;stroke-linejoin:bevel;stroke-miterlimit:10;}
	.st18{fill-rule:evenodd;clip-rule:evenodd;}
	.st19{fill-rule:evenodd;clip-rule:evenodd;fill:#FFFFFF;}
	.st20{font-family:'Calibri';}
	.st21{font-size:4.7638px;}
</style>
<path class="st0" d="M90.8,110.1c0.7,0,1.3,0.6,1.3,1.3h0v38.1h0c0,0.7-0.6,1.3-1.3,1.3l0,0h0H13.2h0c-0.7,0-1.3-0.6-1.3-1.3v-38.1
	c0-0.7,0.6-1.3,1.3-1.3v0L90.8,110.1L90.8,110.1L90.8,110.1z"/>
<path class="st1" d="M90.8,110.1c0.7,0,1.3,0.6,1.3,1.3h0v38.1h0c0,0.7-0.6,1.3-1.3,1.3l0,0h0H13.2h0c-0.7,0-1.3-0.6-1.3-1.3v-38.1
	c0-0.7,0.6-1.3,1.3-1.3v0L90.8,110.1L90.8,110.1L90.8,110.1z"/>
<path class="st2" d="M22,123.1c0.6,0,1.1,0.5,1.1,1.1h0v4.8h0c0,0.6-0.5,1.1-1.1,1.1c0,0,0,0,0,0h0h-4.8l0,0c-0.6,0-1.1-0.5-1.1-1.1
	h0v-4.8c0-0.6,0.5-1.1,1.1-1.1v0L22,123.1L22,123.1L22,123.1z"/>
<path class="st3" d="M22,123.1c0.6,0,1.1,0.5,1.1,1.1h0v4.8h0c0,0.6-0.5,1.1-1.1,1.1c0,0,0,0,0,0h0h-4.8l0,0c-0.6,0-1.1-0.5-1.1-1.1
	h0v-4.8c0-0.6,0.5-1.1,1.1-1.1v0L22,123.1L22,123.1L22,123.1z"/>
<text transform="matrix(0.85 0 0 1 25.7306 129.1764)" class="st4 st5 st6">GMLで定義されたクラス</text>
<path class="st7" d="M22,131.3c0.6,0,1.1,0.5,1.1,1.1h0v4.8h0c0,0.6-0.5,1.1-1.1,1.1c0,0,0,0,0,0h0h-4.8l0,0c-0.6,0-1.1-0.5-1.1-1.1
	h0v-4.8c0-0.6,0.5-1.1,1.1-1.1l0,0H22L22,131.3L22,131.3z"/>
<path class="st3" d="M22,131.3c0.6,0,1.1,0.5,1.1,1.1h0v4.8h0c0,0.6-0.5,1.1-1.1,1.1c0,0,0,0,0,0h0h-4.8l0,0c-0.6,0-1.1-0.5-1.1-1.1
	h0v-4.8c0-0.6,0.5-1.1,1.1-1.1l0,0H22L22,131.3L22,131.3z"/>
<text transform="matrix(0.85 0 0 1 25.7306 137.403)" class="st4 st5 st6">CityGMLで定義されたクラス</text>
<path class="st8" d="M22,139.6c0.6,0,1.1,0.5,1.1,1.1h0v4.8l0,0c0,0.6-0.5,1.1-1.1,1.1l0,0h0h-4.8h0c-0.6,0-1.1-0.5-1.1-1.1h0v-4.8
	c0-0.6,0.5-1.1,1.1-1.1l0,0H22L22,139.6L22,139.6z"/>
<path class="st3" d="M22,139.6c0.6,0,1.1,0.5,1.1,1.1h0v4.8l0,0c0,0.6-0.5,1.1-1.1,1.1l0,0h0h-4.8h0c-0.6,0-1.1-0.5-1.1-1.1h0v-4.8
	c0-0.6,0.5-1.1,1.1-1.1l0,0H22L22,139.6L22,139.6z"/>
<text transform="matrix(0.85 0 0 1 25.7306 145.6296)" class="st4 st5 st6">i-URで定義されたクラス</text>
<text transform="matrix(0.85 0 0 1 45.2697 119.2155)" class="st9 st10 st11">凡例</text>
<path class="st12" d="M325,11.8c0.6,0,1.1,0.5,1.1,1.1h0v51.5h0c0,0.6-0.5,1.1-1.1,1.1l0,0h0h-85.1l0,0c-0.6,0-1.1-0.5-1.1-1.1h0
	V12.9c0-0.6,0.5-1.1,1.1-1.1l0,0H325L325,11.8L325,11.8z"/>
<path class="st7" d="M323.7,10.5c0.6,0,1.1,0.5,1.1,1.1h0v51.5h0c0,0.6-0.5,1.1-1.1,1.1l0,0h0h-85.1h0c-0.6,0-1.1-0.5-1.1-1.1h0
	V11.6c0-0.6,0.5-1.1,1.1-1.1l0,0H323.7L323.7,10.5L323.7,10.5z"/>
<path class="st13" d="M323.7,10.5c0.6,0,1.1,0.5,1.1,1.1h0v51.5h0c0,0.6-0.5,1.1-1.1,1.1l0,0h0h-85.1h0c-0.6,0-1.1-0.5-1.1-1.1h0
	V11.6c0-0.6,0.5-1.1,1.1-1.1l0,0H323.7L323.7,10.5L323.7,10.5z"/>
<text transform="matrix(0.85 0 -0.3169 0.9485 295.7083 17.8814)" class="st5 st14">_CityObject</text>
<text transform="matrix(0.85 0 0 1 262.7306 27.8249)" class="st5 st6">«FeatureType»</text>
<text transform="matrix(0.85 0 0 1 245.3634 35.1921)" class="st15 st6">bldg::IntBuildingInstallation</text>
<line class="st13" x1="237.6" y1="38.7" x2="324.8" y2="38.7"/>
<text transform="matrix(0.85 0 0 1 239.7228 46.4655)" class="st5 st6">+ class: gml::CodeType [0..1]</text>
<text transform="matrix(0.85 0 0 1 239.7228 53.8171)" class="st5 st6">+ function: gml::CodeType [0..*]</text>
<text transform="matrix(0.85 0 0 1 239.7228 61.1764)" class="st5 st6">+ usage: gml::CodeType [0..*]</text>
<path class="st12" d="M103.7,7.5c0.6,0,1.1,0.5,1.1,1.1h0v51.5h0c0,0.6-0.5,1.1-1.1,1.1c0,0,0,0,0,0h0H18.6l0,0
	c-0.6,0-1.1-0.5-1.1-1.1h0V8.6c0-0.6,0.5-1.1,1.1-1.1l0,0H103.7L103.7,7.5L103.7,7.5z"/>
<path class="st7" d="M102.3,6.2c0.6,0,1.1,0.5,1.1,1.1h0v51.5l0,0c0,0.6-0.5,1.1-1.1,1.1l0,0h0H17.3h0c-0.6,0-1.1-0.5-1.1-1.1h0V7.3
	c0-0.6,0.5-1.1,1.1-1.1l0,0H102.3L102.3,6.2L102.3,6.2z"/>
<path class="st13" d="M102.3,6.2c0.6,0,1.1,0.5,1.1,1.1h0v51.5l0,0c0,0.6-0.5,1.1-1.1,1.1l0,0h0H17.3h0c-0.6,0-1.1-0.5-1.1-1.1h0
	V7.3c0-0.6,0.5-1.1,1.1-1.1l0,0H102.3L102.3,6.2L102.3,6.2z"/>
<text transform="matrix(0.85 0 -0.3169 0.9485 74.344 13.5466)" class="st5 st14">_CityObject</text>
<text transform="matrix(0.85 0 0 1 41.3634 23.5046)" class="st5 st6">«FeatureType»</text>
<text transform="matrix(0.85 0 0 1 27.4728 30.8639)" class="st15 st6">bldg::BuildingInstallation</text>
<line class="st13" x1="16.2" y1="34.3" x2="103.4" y2="34.3"/>
<text transform="matrix(0.85 0 0 1 18.3634 42.1217)" class="st5 st6">+ class: gml::CodeType [0..1]</text>
<text transform="matrix(0.85 0 0 1 18.3634 49.4889)" class="st5 st6">+ function: gml::CodeType [0..*]</text>
<text transform="matrix(0.85 0 0 1 18.3634 56.8561)" class="st5 st6">+ usage: gml::CodeType [0..*]</text>
<path class="st12" d="M180.9,76.8c0.6,0,1.1,0.5,1.1,1.1h0v32h0c0,0.6-0.5,1.1-1.1,1.1l0,0h0h-40.8h0c-0.6,0-1.1-0.5-1.1-1.1l0,0
	v-32c0-0.6,0.5-1.1,1.1-1.1l0,0H180.9L180.9,76.8L180.9,76.8z"/>
<path class="st8" d="M179.6,75.5c0.6,0,1.1,0.5,1.1,1.1h0v32l0,0c0,0.6-0.5,1.1-1.1,1.1l0,0h0h-40.8h0c-0.6,0-1.1-0.5-1.1-1.1h0v-32
	c0-0.6,0.5-1.1,1.1-1.1l0,0H179.6L179.6,75.5L179.6,75.5z"/>
<path class="st13" d="M179.6,75.5c0.6,0,1.1,0.5,1.1,1.1h0v32l0,0c0,0.6-0.5,1.1-1.1,1.1l0,0h0h-40.8h0c-0.6,0-1.1-0.5-1.1-1.1h0
	v-32c0-0.6,0.5-1.1,1.1-1.1l0,0H179.6L179.6,75.5L179.6,75.5z"/>
<text transform="matrix(0.85 0 0 1 144.2306 84.1374)" class="st5 st6">«DataType»</text>
<text transform="matrix(0.85 0 -0.3169 0.9485 153.3321 91.4988)" class="st16 st5 st14">uro::</text>
<text transform="matrix(0.85 0 -0.3169 0.9485 144.2229 98.8642)" class="st16 st5 st14">IfcAttribute</text>
<path class="st12" d="M194.4,133.1c0.6,0,1.1,0.5,1.1,1.1h0V177h0c0,0.6-0.5,1.1-1.1,1.1c0,0,0,0,0,0h0h-80.3l0,0
	c-0.6,0-1.1-0.5-1.1-1.1h0v-42.9c0-0.6,0.5-1.1,1.1-1.1l0,0H194.4L194.4,133.1L194.4,133.1z"/>
<path class="st8" d="M193.1,131.8c0.6,0,1.1,0.5,1.1,1.1l0,0v42.9l0,0c0,0.6-0.5,1.1-1.1,1.1l0,0h0h-80.3h0c-0.6,0-1.1-0.5-1.1-1.1
	h0v-42.9c0-0.6,0.5-1.1,1.1-1.1l0,0H193.1L193.1,131.8L193.1,131.8z"/>
<path class="st13" d="M193.1,131.8c0.6,0,1.1,0.5,1.1,1.1l0,0v42.9l0,0c0,0.6-0.5,1.1-1.1,1.1l0,0h0h-80.3h0c-0.6,0-1.1-0.5-1.1-1.1
	h0v-42.9c0-0.6,0.5-1.1,1.1-1.1l0,0H193.1L193.1,131.8L193.1,131.8z"/>
<text transform="matrix(0.85 0 0 1 138.1525 140.4342)" class="st5 st6">«DataType»</text>
<text transform="matrix(0.85 0 -0.3169 0.9485 137.7126 147.7918)" class="st16 st5 st14">uro::IfcRoot</text>
<line class="st13" x1="111.7" y1="151.3" x2="194.2" y2="151.3"/>
<text transform="matrix(0.85 0 0 1 113.8478 159.0592)" class="st5 st6">+ globalId: xs::string [0..1]</text>
<text transform="matrix(0.85 0 0 1 113.8478 166.4186)" class="st5 st6">+ name: xs::string [0..1]</text>
<text transform="matrix(0.85 0 0 1 113.8478 173.778)" class="st5 st6">+ description: xs::string [0..1]</text>
<path class="st12" d="M271.6,137.4c0.6,0,1.1,0.5,1.1,1.1h0v30.7h0c0,0.6-0.5,1.1-1.1,1.1l0,0h0h-49h0c-0.6,0-1.1-0.5-1.1-1.1h0
	v-30.7c0-0.6,0.5-1.1,1.1-1.1l0,0H271.6L271.6,137.4L271.6,137.4z"/>
<path class="st8" d="M270.3,136.1c0.6,0,1.1,0.5,1.1,1.1l0,0v30.7l0,0c0,0.6-0.5,1.1-1.1,1.1l0,0h0h-49h0c-0.6,0-1.1-0.5-1.1-1.1h0
	v-30.7c0-0.6,0.5-1.1,1.1-1.1l0,0H270.3L270.3,136.1L270.3,136.1z"/>
<path class="st13" d="M270.3,136.1c0.6,0,1.1,0.5,1.1,1.1l0,0v30.7l0,0c0,0.6-0.5,1.1-1.1,1.1l0,0h0h-49h0c-0.6,0-1.1-0.5-1.1-1.1h0
	v-30.7c0-0.6,0.5-1.1,1.1-1.1l0,0H270.3L270.3,136.1L270.3,136.1z"/>
<text transform="matrix(0.85 0 0 1 231.0431 144.7624)" class="st5 st6">«DataType»</text>
<text transform="matrix(0.85 0 -0.3169 0.9485 240.1526 152.134)" class="st16 st5 st14">uro::</text>
<text transform="matrix(0.85 0 -0.3169 0.9485 221.9234 159.4846)" class="st16 st5 st14">IfcObjectDefinition</text>
<path class="st12" d="M287.7,185c0.6,0,1.1,0.5,1.1,1.1h0v32h0c0,0.6-0.5,1.1-1.1,1.1l0,0l0,0h-78.1h0c-0.6,0-1.1-0.5-1.1-1.1h0v-32
	c0-0.6,0.5-1.1,1.1-1.1l0,0H287.7L287.7,185L287.7,185z"/>
<path class="st8" d="M286.4,183.7c0.6,0,1.1,0.5,1.1,1.1h0v32h0c0,0.6-0.5,1.1-1.1,1.1c0,0,0,0,0,0h0h-78.1l0,0
	c-0.6,0-1.1-0.5-1.1-1.1h0v-32c0-0.6,0.5-1.1,1.1-1.1l0,0H286.4L286.4,183.7L286.4,183.7z"/>
<path class="st13" d="M286.4,183.7c0.6,0,1.1,0.5,1.1,1.1h0v32h0c0,0.6-0.5,1.1-1.1,1.1c0,0,0,0,0,0h0h-78.1l0,0
	c-0.6,0-1.1-0.5-1.1-1.1h0v-32c0-0.6,0.5-1.1,1.1-1.1l0,0H286.4L286.4,183.7L286.4,183.7z"/>
<text transform="matrix(0.85 0 0 1 232.3478 192.403)" class="st5 st6">«DataType»</text>
<text transform="matrix(0.85 0 -0.3169 0.9485 230.177 199.7649)" class="st16 st5 st14">uro::IfcObject</text>
<line class="st13" x1="207.2" y1="203.2" x2="287.5" y2="203.2"/>
<text transform="matrix(0.85 0 0 1 209.34 211.0202)" class="st5 st6">+ objectType: xs::string [0..1]</text>
<path class="st12" d="M172.2,189.4c0.6,0,1.1,0.5,1.1,1.1h0v19.5h0c0,0.6-0.5,1.1-1.1,1.1l0,0h0h-40.8h0c-0.6,0-1.1-0.5-1.1-1.1h0
	v-19.5c0-0.6,0.5-1.1,1.1-1.1l0,0H172.2L172.2,189.4L172.2,189.4z"/>
<path class="st8" d="M170.9,188.1c0.6,0,1.1,0.5,1.1,1.1l0,0v19.5v0c0,0.6-0.5,1.1-1.1,1.1l0,0h0h-40.8h0c-0.6,0-1.1-0.5-1.1-1.1h0
	v-19.5c0-0.6,0.5-1.1,1.1-1.1l0,0H170.9L170.9,188.1L170.9,188.1z"/>
<path class="st13" d="M170.9,188.1c0.6,0,1.1,0.5,1.1,1.1l0,0v19.5v0c0,0.6-0.5,1.1-1.1,1.1l0,0h0h-40.8h0c-0.6,0-1.1-0.5-1.1-1.1h0
	v-19.5c0-0.6,0.5-1.1,1.1-1.1l0,0H170.9L170.9,188.1L170.9,188.1z"/>
<text transform="matrix(0.85 0 0 1 135.5509 196.7311)" class="st5 st6">«DataType»</text>
<text transform="matrix(0.85 0 -0.3169 0.9485 131.2079 204.0923)" class="st16 st5 st14">uro::IfcProduct</text>
<path class="st12" d="M181.3,232.7c0.6,0,1.1,0.5,1.1,1.1h0v32h0c0,0.6-0.5,1.1-1.1,1.1c0,0,0,0,0,0l0,0h-58.6l0,0
	c-0.6,0-1.1-0.5-1.1-1.1h0v-32c0-0.6,0.5-1.1,1.1-1.1v0L181.3,232.7L181.3,232.7L181.3,232.7z"/>
<path class="st8" d="M180,231.4c0.6,0,1.1,0.5,1.1,1.1h0v32h0c0,0.6-0.5,1.1-1.1,1.1l0,0h0h-58.6h0c-0.6,0-1.1-0.5-1.1-1.1h0v-32
	c0-0.6,0.5-1.1,1.1-1.1l0,0H180L180,231.4L180,231.4z"/>
<path class="st13" d="M180,231.4c0.6,0,1.1,0.5,1.1,1.1h0v32h0c0,0.6-0.5,1.1-1.1,1.1l0,0h0h-58.6h0c-0.6,0-1.1-0.5-1.1-1.1h0v-32
	c0-0.6,0.5-1.1,1.1-1.1l0,0H180L180,231.4L180,231.4z"/>
<text transform="matrix(0.85 0 0 1 135.9884 240.0358)" class="st5 st6">«DataType»</text>
<text transform="matrix(0.85 0 -0.3169 0.9485 131.2147 247.4031)" class="st16 st5 st14">uro::IfcElement</text>
<line class="st13" x1="120.4" y1="250.9" x2="181.1" y2="250.9"/>
<text transform="matrix(0.85 0 0 1 122.5275 258.6608)" class="st5 st6">+ tag: xs::string [0..1]</text>
<path class="st12" d="M229.5,289c0.6,0,1.1,0.5,1.1,1.1h0v94.4l0,0c0,0.6-0.5,1.1-1.1,1.1c0,0,0,0,0,0h0H88l0,0
	c-0.6,0-1.1-0.5-1.1-1.1h0v-94.4c0-0.6,0.5-1.1,1.1-1.1l0,0H229.5L229.5,289L229.5,289z"/>
<path class="st8" d="M228.2,287.7c0.6,0,1.1,0.5,1.1,1.1h0v94.4h0c0,0.6-0.5,1.1-1.1,1.1c0,0,0,0,0,0h0H86.7v0
	c-0.6,0-1.1-0.5-1.1-1.1h0v-94.4c0-0.6,0.5-1.1,1.1-1.1v0L228.2,287.7L228.2,287.7L228.2,287.7z"/>
<path class="st13" d="M228.2,287.7c0.6,0,1.1,0.5,1.1,1.1h0v94.4h0c0,0.6-0.5,1.1-1.1,1.1c0,0,0,0,0,0h0H86.7v0
	c-0.6,0-1.1-0.5-1.1-1.1h0v-94.4c0-0.6,0.5-1.1,1.1-1.1v0L228.2,287.7L228.2,287.7L228.2,287.7z"/>
<text transform="matrix(0.85 0 0 1 142.4962 296.3327)" class="st5 st6">«DataType»</text>
<text transform="matrix(0.85 0 0 1 127.3009 303.6999)" class="st15 st6">uro::IfcBuildingElement</text>
<line class="st13" x1="85.6" y1="307.2" x2="229.3" y2="307.2"/>
<text transform="matrix(0.85 0 0 1 87.8009 314.9577)" class="st5 st6">+ elementType: gml::CodeType [0..1]</text>
<text transform="matrix(0.85 0 0 1 87.8009 322.3249)" class="st5 st6">+ predefinedType: gml::CodeType [0..1]</text>
<text transform="matrix(0.85 0 0 1 87.8009 329.6842)" class="st5 st6">+ shapeType: gml::CodeType [0..1]</text>
<text transform="matrix(0.85 0 0 1 87.8009 337.0436)" class="st5 st6">+ numberOfRiser: xs::integer [0..1]</text>
<text transform="matrix(0.85 0 0 1 87.8009 344.4108)" class="st5 st6">+ numberOfTreads: xs::integer [0..1]</text>
<text transform="matrix(0.85 0 0 1 87.8009 351.778)" class="st5 st6">+ riserHeight: gml::LengthType [0..1]</text>
<text transform="matrix(0.85 0 0 1 87.8009 359.1374)" class="st5 st6">+ treadLength: gml::LengthType [0..1]</text>
<text transform="matrix(0.85 0 0 1 87.8009 366.4967)" class="st5 st6">+ operationType: IfcTransportElementTypeEnum [0..1]</text>
<text transform="matrix(0.85 0 0 1 87.8009 373.8639)" class="st5 st6">+ capacityByWeight: gml::MeasureType [0..1]</text>
<text transform="matrix(0.85 0 0 1 87.8009 381.2155)" class="st5 st6">+ capacityByNumber: xs::integer [0..1]</text>
<line class="st17" x1="181.1" y1="92.8" x2="281.4" y2="92.8"/>
<line class="st17" x1="281.4" y1="92.8" x2="281.4" y2="64.6"/>
<polyline class="st18" points="283.6,69 281.4,64.6 279.2,69 281.4,73.3 283.6,69 "/>
<polygon class="st17" points="281.4,73.3 279.2,69 281.4,64.6 283.6,69 "/>
<path class="st17" d="M181.1,92.8l6.5,2.6 M181.1,92.8l6.5-2.6"/>
<line class="st17" x1="137.7" y1="92.8" x2="60" y2="92.8"/>
<line class="st17" x1="60" y1="92.8" x2="60" y2="60.3"/>
<polyline class="st18" points="62.2,64.6 60,60.3 57.9,64.6 60,69 62.2,64.6 "/>
<polygon class="st17" points="62.2,64.6 60,60.3 57.9,64.6 60,69 "/>
<path class="st17" d="M137.7,92.8l-6.5-2.6 M137.7,92.8l-6.5,2.6"/>
<line class="st17" x1="158.6" y1="131.8" x2="158.6" y2="110.1"/>
<polyline class="st19" points="161.2,117 156,117 158.6,110.1 161.2,117 "/>
<polygon class="st17" points="161.2,117 156,117 158.6,110.1 "/>
<line class="st17" x1="220.2" y1="153.9" x2="194.6" y2="154.3"/>
<polyline class="st19" points="201.5,151.7 201.5,156.9 194.6,154.3 201.5,151.7 "/>
<polygon class="st17" points="201.5,151.7 201.5,156.9 194.6,154.3 "/>
<line class="st17" x1="249.7" y1="183.7" x2="250.1" y2="169.4"/>
<polyline class="st19" points="252.7,176.4 247.5,176.4 250.1,169.4 252.7,176.4 "/>
<polygon class="st17" points="250.1,169.4 247.5,176.4 252.7,176.4 "/>
<line class="st17" x1="172.4" y1="202.8" x2="207.2" y2="202.8"/>
<polyline class="st19" points="200.2,205.4 200.2,200.2 207.2,202.8 200.2,205.4 "/>
<polygon class="st17" points="207.2,202.8 200.2,200.2 200.2,205.4 "/>
<line class="st17" x1="156.8" y1="231.4" x2="156.4" y2="210.2"/>
<polyline class="st19" points="159,217.1 153.8,217.1 156.4,210.2 159,217.1 "/>
<polygon class="st17" points="159,217.1 153.8,217.1 156.4,210.2 "/>
<line class="st17" x1="154.7" y1="287.7" x2="154.2" y2="266"/>
<polyline class="st19" points="156.8,273 151.6,273 154.2,266 156.8,273 "/>
<polygon class="st17" points="156.8,273 151.6,273 154.2,266 "/>
<text transform="matrix(0.85 0 0 1 183.7306 81.5436)" class="st20 st21">+ifcIntBuildingInstallationAttribute</text>
<text transform="matrix(0.85 0 0 1 191.9806 99.2936)" class="st20 st21">0..*</text>
<text transform="matrix(0.85 0 0 1 66.5353 84.5671)" class="st20 st21">+ifcBuildingInstallationAttribute</text>
<text transform="matrix(0.85 0 0 1 114.715 98.8639)" class="st20 st21">0..*</text>
</svg>
