<?xml version="1.0" encoding="utf-8"?>
<!-- Generator: Adobe Illustrator 27.5.0, SVG Export Plug-In . SVG Version: 6.00 Build 0)  -->
<svg version="1.1" id="レイヤー_1" xmlns="http://www.w3.org/2000/svg" xmlns:xlink="http://www.w3.org/1999/xlink" x="0px"
	 y="0px" viewBox="0 0 595.2755737 392.1101685" style="enable-background:new 0 0 595.2755737 392.1101685;" xml:space="preserve">
<style type="text/css">
	.st0{opacity:0.5019608;fill-rule:evenodd;clip-rule:evenodd;fill:#969696;enable-background:new    ;}
	.st1{fill-rule:evenodd;clip-rule:evenodd;fill:#FFCCFF;}
	.st2{fill:none;stroke:#000000;stroke-width:1.5013124;stroke-linecap:round;stroke-linejoin:round;stroke-miterlimit:10;}
	.st3{font-family:'YuGothicUI-Regular';}
	.st4{font-size:9.7585306px;}
	.st5{font-family:'YuGothicUI-Bold';}
	.st6{font-size:10.2875204px;}
	.st7{fill:none;stroke:#000000;stroke-width:0.2788152;stroke-miterlimit:10;}
	.st8{fill-rule:evenodd;clip-rule:evenodd;fill:#F0F0F0;}
	.st9{fill:none;stroke:#D7D7D7;stroke-width:0.7506562;stroke-linecap:square;stroke-miterlimit:10;}
	.st10{fill-rule:evenodd;clip-rule:evenodd;fill:#CCFFCC;}
	.st11{fill:none;stroke:#000000;stroke-width:0.7506562;stroke-linecap:square;stroke-miterlimit:10;}
	.st12{fill:#003060;}
	.st13{fill-rule:evenodd;clip-rule:evenodd;fill:#FFFFCC;}
	.st14{font-family:'Meiryo-Bold';}
	.st15{font-size:12.010499px;}
	.st16{letter-spacing:-2.352941;}
	.st17{fill:none;stroke:#000000;stroke-width:1.5013124;stroke-linecap:round;stroke-linejoin:bevel;stroke-miterlimit:10;}
	.st18{fill-rule:evenodd;clip-rule:evenodd;fill:#FFFFFF;}
</style>
<path class="st0" d="M221.9423676,308.5013428c1.0375671,0,1.8786621,0.8401794,1.8786621,1.8766479l0.0000305-0.0000305v30.0262451
	l-0.0000305,0.0000305c0,1.036438-0.841095,1.8766479-1.8786926,1.8766174c0,0.0000305,0,0,0,0h0.0000305H64.8838043
	l-0.0000305,0.0000305c-1.0375671-0.0000305-1.8786926-0.84021-1.8786926-1.8766785h0.0000305v-30.0262451
	c0-1.036438,0.841095-1.8766479,1.8786926-1.8766174v-0.0000305h157.0585632V308.5013428L221.9423676,308.5013428z"/>
<path class="st1" d="M219.6879425,306.2493896c1.0375366,0,1.8786621,0.8401794,1.8786621,1.8766174h0.0000305v30.0262451
	h-0.0000305c0,1.036438-0.8411255,1.8766479-1.8786926,1.8766174c0,0.0000305,0,0,0,0h0.0000305H62.6293488v0.0000305
	c-1.0375671-0.0000305-1.8786926-0.84021-1.8786926-1.8766479h0.0000305v-30.0262451
	c0-1.036438,0.841095-1.8766479,1.8786621-1.8766174v-0.0000305h157.0585938V306.2493896L219.6879425,306.2493896z"/>
<path class="st2" d="M219.6879425,306.2493896c1.0375366,0,1.8786621,0.8401794,1.8786621,1.8766174h0.0000305v30.0262451
	h-0.0000305c0,1.036438-0.8411255,1.8766479-1.8786926,1.8766174c0,0.0000305,0,0,0,0h0.0000305H62.6293488v0.0000305
	c-1.0375671-0.0000305-1.8786926-0.84021-1.8786926-1.8766479h0.0000305v-30.0262451
	c0-1.036438,0.841095-1.8766479,1.8786621-1.8766174v-0.0000305h157.0585938V306.2493896L219.6879425,306.2493896z"/>
<text transform="matrix(0.85 0 0 1 109.5957031 321.2651367)" class="st3 st4">«FeatureType»</text>
<text transform="matrix(0.85 0 0 1 69.7675781 334.0229492)" class="st5 st4">UnusedLandUsePromotionArea</text>
<path class="st0" d="M532.3021851,24.0026093c1.0375366,0,1.8786011,0.84021,1.8786011,1.8766479h0.000061V370.430481
	l-0.000061,0.000061c0,1.0364075-0.8410645,1.8766479-1.8786621,1.8765869c0,0.000061,0,0,0,0h0.000061H279.0545959
	l-0.0000305,0.000061c-1.0375671-0.000061-1.8786926-0.8402405-1.8786926-1.876709h0.0000305V25.8792572
	c0-1.036438,0.841095-1.8766479,1.8786926-1.8766479l0,0H532.3021851L532.3021851,24.0026093L532.3021851,24.0026093z"/>
<path class="st1" d="M530.0477295,21.7506561c1.0375366,0,1.8786621,0.8401794,1.8786621,1.8766479l0.000061-0.0000305v344.5512085
	l-0.000061,0.0000305c0,1.0364075-0.8411255,1.8766479-1.8787231,1.8766174c0,0.0000305,0,0,0,0h0.000061H276.8001709
	l-0.0000305,0.0000305c-1.0375671-0.0000305-1.8786926-0.8402405-1.8786926-1.8766785h0.0000305V23.6272736
	c0-1.036438,0.841095-1.8766174,1.8786926-1.8766174l0,0H530.0477295L530.0477295,21.7506561L530.0477295,21.7506561z"/>
<path class="st2" d="M530.0477295,21.7506561c1.0375366,0,1.8786621,0.8401794,1.8786621,1.8766479l0.000061-0.0000305v344.5512085
	l-0.000061,0.0000305c0,1.0364075-0.8411255,1.8766479-1.8787231,1.8766174c0,0.0000305,0,0,0,0h0.000061H276.8001709
	l-0.0000305,0.0000305c-1.0375671-0.0000305-1.8786926-0.8402405-1.8786926-1.8766785h0.0000305V23.6272736
	c0-1.036438,0.841095-1.8766174,1.8786926-1.8766174l0,0H530.0477295L530.0477295,21.7506561L530.0477295,21.7506561z"/>
<text transform="matrix(0.85 0 -0.3165385 0.9485797 473.8172913 34.5305176)" class="st3 st6">_CityObject</text>
<text transform="matrix(0.85 0 0 1 371.8613281 51.7807617)" class="st3 st4">«FeatureType»</text>
<text transform="matrix(0.85 0 -0.3165385 0.9485797 368.0923767 64.5515823)" class="st3 st6">_</text>
<text transform="matrix(0.85 0 -0.3165385 0.9485797 368.0923767 64.5515823)" class="st7 st3 st6">_</text>
<text transform="matrix(0.85 0 -0.3165385 0.9485797 371.8540955 64.5515823)" class="st3 st6">U</text>
<text transform="matrix(0.85 0 -0.3165385 0.9485797 371.8540955 64.5515823)" class="st7 st3 st6">U</text>
<text transform="matrix(0.85 0 -0.3165385 0.9485797 378.6138611 64.5515823)" class="st3 st6">r</text>
<text transform="matrix(0.85 0 -0.3165385 0.9485797 378.6138611 64.5515823)" class="st7 st3 st6">r</text>
<text transform="matrix(0.85 0 -0.3165385 0.9485797 382.361908 64.5515823)" class="st3 st6">b</text>
<text transform="matrix(0.85 0 -0.3165385 0.9485797 382.361908 64.5515823)" class="st7 st3 st6">b</text>
<text transform="matrix(0.85 0 -0.3165385 0.9485797 388.3697205 64.5515823)" class="st3 st6">a</text>
<text transform="matrix(0.85 0 -0.3165385 0.9485797 388.3697205 64.5515823)" class="st7 st3 st6">a</text>
<text transform="matrix(0.85 0 -0.3165385 0.9485797 393.6226501 64.5515823)" class="st3 st6">n</text>
<text transform="matrix(0.85 0 -0.3165385 0.9485797 393.6226501 64.5515823)" class="st7 st3 st6">n</text>
<text transform="matrix(0.85 0 -0.3165385 0.9485797 399.6304626 64.5515823)" class="st3 st6">F</text>
<text transform="matrix(0.85 0 -0.3165385 0.9485797 399.6304626 64.5515823)" class="st7 st3 st6">F</text>
<text transform="matrix(0.85 0 -0.3165385 0.9485797 404.8892517 64.5515823)" class="st3 st6">un</text>
<text transform="matrix(0.85 0 -0.3165385 0.9485797 404.8892517 64.5515823)" class="st7 st3 st6">un</text>
<text transform="matrix(0.85 0 -0.3165385 0.9485797 416.9029236 64.5515823)" class="st3 st6">c</text>
<text transform="matrix(0.85 0 -0.3165385 0.9485797 416.9029236 64.5515823)" class="st7 st3 st6">c</text>
<text transform="matrix(0.85 0 -0.3165385 0.9485797 421.4156189 64.5515823)" class="st3 st6">t</text>
<text transform="matrix(0.85 0 -0.3165385 0.9485797 421.4156189 64.5515823)" class="st7 st3 st6">t</text>
<text transform="matrix(0.85 0 -0.3165385 0.9485797 425.1656189 64.5515823)" class="st3 st6">i</text>
<text transform="matrix(0.85 0 -0.3165385 0.9485797 425.1656189 64.5515823)" class="st7 st3 st6">i</text>
<text transform="matrix(0.85 0 -0.3165385 0.9485797 427.424408 64.5515823)" class="st3 st6">o</text>
<text transform="matrix(0.85 0 -0.3165385 0.9485797 427.424408 64.5515823)" class="st7 st3 st6">o</text>
<text transform="matrix(0.85 0 -0.3165385 0.9485797 433.4322205 64.5515823)" class="st3 st6">n</text>
<text transform="matrix(0.85 0 -0.3165385 0.9485797 433.4322205 64.5515823)" class="st7 st3 st6">n</text>
<line class="st2" x1="274.9214783" y1="70.5432892" x2="531.9264526" y2="70.5432892"/>
<text transform="matrix(0.85 0 0 1 278.6816406 84.0541992)" class="st3 st4">+ </text>
<text transform="matrix(0.85 0 0 1 295.2050781 84.0541992)" class="st3 st4">areaClassificationType: gml::CodeType [0..1]</text>
<text transform="matrix(0.85 0 0 1 278.6816406 96.8198242)" class="st3 st4">+ </text>
<text transform="matrix(0.85 0 0 1 295.2050781 96.8198242)" class="st3 st4">city: gml::CodeType [0..1]</text>
<text transform="matrix(0.85 0 0 1 278.6816406 109.5776367)" class="st3 st4">+ </text>
<text transform="matrix(0.85 0 0 1 295.2050781 109.5776367)" class="st3 st4">class: gml::CodeType [0..1]</text>
<text transform="matrix(0.85 0 0 1 278.6816406 122.3432617)" class="st3 st4">+ </text>
<text transform="matrix(0.85 0 0 1 295.2050781 122.3432617)" class="st3 st4">custodian: xs::string [0..1]</text>
<text transform="matrix(0.85 0 0 1 278.6816406 135.1010742)" class="st3 st4">+ </text>
<text transform="matrix(0.85 0 0 1 295.2050781 135.1010742)" class="st3 st4">enactmentFiscalYear: xs::gYear [0..1]</text>
<text transform="matrix(0.85 0 0 1 278.6816406 147.8588867)" class="st3 st4">+ </text>
<text transform="matrix(0.85 0 0 1 295.2050781 147.8588867)" class="st3 st4">expirationFiscalYear: xs::gYear [0..1]</text>
<text transform="matrix(0.85 0 0 1 278.6816406 160.6245117)" class="st3 st4">+ </text>
<text transform="matrix(0.85 0 0 1 295.2050781 160.6245117)" class="st3 st4">finalNotificationDate: xs::date [0..1]</text>
<text transform="matrix(0.85 0 0 1 278.6816406 173.3901367)" class="st3 st4">+ </text>
<text transform="matrix(0.85 0 0 1 295.2050781 173.3901367)" class="st3 st4">finalNotificationNumber: xs::string [0..1]</text>
<text transform="matrix(0.85 0 0 1 278.6816406 186.1401367)" class="st3 st4">+ </text>
<text transform="matrix(0.85 0 0 1 295.2050781 186.1401367)" class="st3 st4">function: gml::CodeType [0..*]</text>
<text transform="matrix(0.85 0 0 1 278.6816406 198.9057617)" class="st3 st4">+ </text>
<text transform="matrix(0.85 0 0 1 295.2050781 198.9057617)" class="st3 st4">legalGrounds: xs::string [0..1]</text>
<text transform="matrix(0.85 0 0 1 278.6816406 211.6713867)" class="st3 st4">+ </text>
<text transform="matrix(0.85 0 0 1 295.2050781 211.6713867)" class="st3 st4">nominalArea: gml::MeasureType [0..1]</text>
<text transform="matrix(0.85 0 0 1 278.6816406 224.4370117)" class="st3 st4">+ </text>
<text transform="matrix(0.85 0 0 1 295.2050781 224.4370117)" class="st3 st4">note: gml:StringOrRefType [0..1]</text>
<text transform="matrix(0.85 0 0 1 278.6816406 237.1870117)" class="st3 st4">+ </text>
<text transform="matrix(0.85 0 0 1 295.2050781 237.1870117)" class="st3 st4">notificationNumber: xs::string [0..1]</text>
<text transform="matrix(0.85 0 0 1 278.6816406 249.9526367)" class="st3 st4">+ </text>
<text transform="matrix(0.85 0 0 1 295.2050781 249.9526367)" class="st3 st4">prefecture: gml::CodeType [0..1]</text>
<text transform="matrix(0.85 0 0 1 278.6816406 262.7182617)" class="st3 st4">+ </text>
<text transform="matrix(0.85 0 0 1 295.2050781 262.7182617)" class="st3 st4">reason: gml:StringOrRefType [0..1]</text>
<text transform="matrix(0.85 0 0 1 278.6816406 275.4838867)" class="st3 st4">+ </text>
<text transform="matrix(0.85 0 0 1 295.2050781 275.4838867)" class="st3 st4">reference: xs::anyURI [0..1]</text>
<text transform="matrix(0.85 0 0 1 278.6816406 288.2338867)" class="st3 st4">+ </text>
<text transform="matrix(0.85 0 0 1 295.2050781 288.2338867)" class="st3 st4">surveyYear: xs::gYear [0..1]</text>
<text transform="matrix(0.85 0 0 1 278.6816406 300.9995117)" class="st3 st4">+ </text>
<text transform="matrix(0.85 0 0 1 295.2050781 300.9995117)" class="st3 st4">urbanPlanType: gml::CodeType [0..1]</text>
<text transform="matrix(0.85 0 0 1 278.6816406 313.7651367)" class="st3 st4">+ </text>
<text transform="matrix(0.85 0 0 1 295.2050781 313.7651367)" class="st3 st4">usage: gml::CodeType [0..*]</text>
<text transform="matrix(0.85 0 0 1 278.6816406 326.5151367)" class="st3 st4">+ </text>
<text transform="matrix(0.85 0 0 1 295.2050781 326.5151367)" class="st3 st4">validFrom: xs::date [0..1]</text>
<text transform="matrix(0.85 0 0 1 278.6816406 339.2807617)" class="st3 st4">+ </text>
<text transform="matrix(0.85 0 0 1 295.2050781 339.2807617)" class="st3 st4">validFromType: gml::CodeType [0..1]</text>
<text transform="matrix(0.85 0 0 1 278.6816406 352.0463867)" class="st3 st4">+ </text>
<text transform="matrix(0.85 0 0 1 295.2050781 352.0463867)" class="st3 st4">validTo: xs::date [0..1]</text>
<text transform="matrix(0.85 0 0 1 278.6816406 364.8041992)" class="st3 st4">+ </text>
<text transform="matrix(0.85 0 0 1 295.2050781 364.8041992)" class="st3 st4">validToType: gml::CodeType [0..1]</text>
<path class="st0" d="M212.173172,210.9160309c1.0375671,0,1.8786621,0.8401794,1.8786621,1.8766479l0.0000305-0.0000305v49.5433197
	l-0.0000305,0.0000305c0,1.036438-0.841095,1.8766479-1.8786926,1.8766174c0,0.0000305,0,0,0,0h0.0000305H72.3985443v0.0000305
	c-1.0375671-0.0000305-1.8786926-0.84021-1.8786926-1.8766785l0,0v-49.5433197c0-1.036438,0.8411255-1.8766479,1.8786926-1.8766174
	v-0.0000305H212.173172V210.9160309L212.173172,210.9160309z"/>
<path class="st1" d="M209.9187469,208.6640778c1.0375366,0,1.8786621,0.8401489,1.8786621,1.8766174l0.0000305-0.0000305v49.5433502
	h-0.0000305c0,1.036438-0.8411255,1.8766479-1.8786926,1.8766174c0,0.0000305,0,0,0,0h0.0000305H70.1441193v0.0000305
	c-1.0375977-0.0000305-1.8786926-0.84021-1.8786926-1.8766479l0,0v-49.5433502c0-1.036438,0.841095-1.8766479,1.8786926-1.8765869
	v-0.000061h139.7746277V208.6640778L209.9187469,208.6640778z"/>
<path class="st2" d="M209.9187469,208.6640778c1.0375366,0,1.8786621,0.8401489,1.8786621,1.8766174l0.0000305-0.0000305v49.5433502
	h-0.0000305c0,1.036438-0.8411255,1.8766479-1.8786926,1.8766174c0,0.0000305,0,0,0,0h0.0000305H70.1441193v0.0000305
	c-1.0375977-0.0000305-1.8786926-0.84021-1.8786926-1.8766479l0,0v-49.5433502c0-1.036438,0.841095-1.8766479,1.8786926-1.8765869
	v-0.000061h139.7746277V208.6640778L209.9187469,208.6640778z"/>
<text transform="matrix(0.85 0 0 1 108.0957031 223.6870117)" class="st3 st4">«FeatureType»</text>
<text transform="matrix(0.85 0 0 1 128.3769531 236.4370117)" class="st5 st4">Zone</text>
<line class="st2" x1="68.2654266" y1="242.4435577" x2="211.7974396" y2="242.4435577"/>
<text transform="matrix(0.85 0 0 1 72.0175781 255.9604492)" class="st3 st4">+ </text>
<text transform="matrix(0.85 0 0 1 88.5488281 255.9604492)" class="st3 st4">location: xs::string [0..1]</text>
<path class="st8" d="M197.5193939,58.5327911c1.2450562,0,2.254364,1.0082397,2.254364,2.2519836h0.000061v69.8110046
	l-0.000061,0.0000305c0,1.2437134-1.0093079,2.2519836-2.254425,2.2519531c0,0.0000305,0,0,0,0h0.000061H63.0051117
	l-0.0000305,0.0000305c-1.2450562-0.0000305-2.254425-1.0082703-2.2543945-2.2520142V60.7847748
	c0-1.2437439,1.0093384-2.2519836,2.254425-2.2519836l0,0H197.5193939L197.5193939,58.5327911L197.5193939,58.5327911z"/>
<path class="st9" d="M197.5193939,58.5327911c1.2450562,0,2.254364,1.0082397,2.254364,2.2519836h0.000061v69.8110046
	l-0.000061,0.0000305c0,1.2437134-1.0093079,2.2519836-2.254425,2.2519531c0,0.0000305,0,0,0,0h0.000061H63.0051117
	l-0.0000305,0.0000305c-1.2450562-0.0000305-2.254425-1.0082703-2.2543945-2.2520142V60.7847748
	c0-1.2437439,1.0093384-2.2519836,2.254425-2.2519836l0,0H197.5193939L197.5193939,58.5327911L197.5193939,58.5327911z"/>
<path class="st10" d="M78.4103546,81.0525055c1.0375977,0,1.8786926,0.8401794,1.8786926,1.8766479v-0.0000305v8.2572327l0,0
	c0,1.036438-0.841095,1.8766479-1.8786926,1.8766174c0,0.0000305,0,0,0,0l0,0h-8.2662354v0.0000305
	c-1.0375977-0.0000305-1.8786926-0.84021-1.8786926-1.8766479l0,0v-8.2572327c0-1.036438,0.841095-1.8766479,1.8786926-1.8766174
	V81.052475h8.2662354V81.0525055L78.4103546,81.0525055z"/>
<path class="st11" d="M78.4103546,81.0525055c1.0375977,0,1.8786926,0.8401794,1.8786926,1.8766479v-0.0000305v8.2572327l0,0
	c0,1.036438-0.841095,1.8766479-1.8786926,1.8766174c0,0.0000305,0,0,0,0l0,0h-8.2662354v0.0000305
	c-1.0375977-0.0000305-1.8786926-0.84021-1.8786926-1.8766479l0,0v-8.2572327c0-1.036438,0.841095-1.8766479,1.8786926-1.8766174
	V81.052475h8.2662354V81.0525055L78.4103546,81.0525055z"/>
<text transform="matrix(0.85 0 0 1 84.7988281 91.5620117)" class="st12 st3 st4">GMLに定義されたクラス</text>
<path class="st13" d="M78.4103546,95.3149567c1.0375977,0,1.8786926,0.84021,1.8786926,1.8766479l0,0v8.2572021l0,0
	c0,1.036438-0.841095,1.8766479-1.8786926,1.8766479l0,0l0,0h-8.2662354l0,0c-1.0375977,0-1.8786926-0.84021-1.8786926-1.8766479
	l0,0v-8.2572021c0-1.036438,0.841095-1.8766479,1.8786926-1.8766479l0,0H78.4103546L78.4103546,95.3149567L78.4103546,95.3149567z"
	/>
<path class="st11" d="M78.4103546,95.3149567c1.0375977,0,1.8786926,0.84021,1.8786926,1.8766479l0,0v8.2572021l0,0
	c0,1.036438-0.841095,1.8766479-1.8786926,1.8766479l0,0l0,0h-8.2662354l0,0c-1.0375977,0-1.8786926-0.84021-1.8786926-1.8766479
	l0,0v-8.2572021c0-1.036438,0.841095-1.8766479,1.8786926-1.8766479l0,0H78.4103546L78.4103546,95.3149567L78.4103546,95.3149567z"
	/>
<text transform="matrix(0.85 0 0 1 84.7988281 105.8276367)" class="st12 st3 st4">CityGMLに定義されたクラス</text>
<path class="st1" d="M78.4103546,109.5774078c1.0375977,0,1.8786926,0.84021,1.8786926,1.8766479l0,0v8.2572021v0.0000305
	c0,1.036438-0.841095,1.8766479-1.8786926,1.8766174c0,0.0000305,0,0,0,0l0,0h-8.2662354v0.0000305
	c-1.0375977-0.0000305-1.8786926-0.84021-1.8786926-1.8766785l0,0v-8.2572021c0-1.036438,0.841095-1.8766479,1.8786926-1.8766479
	l0,0H78.4103546L78.4103546,109.5774078L78.4103546,109.5774078z"/>
<path class="st11" d="M78.4103546,109.5774078c1.0375977,0,1.8786926,0.84021,1.8786926,1.8766479l0,0v8.2572021v0.0000305
	c0,1.036438-0.841095,1.8766479-1.8786926,1.8766174c0,0.0000305,0,0,0,0l0,0h-8.2662354v0.0000305
	c-1.0375977-0.0000305-1.8786926-0.84021-1.8786926-1.8766785l0,0v-8.2572021c0-1.036438,0.841095-1.8766479,1.8786926-1.8766479
	l0,0H78.4103546L78.4103546,109.5774078L78.4103546,109.5774078z"/>
<text transform="matrix(0.85 0 0 1 84.7988281 120.0932617)" class="st12 st3 st4">i-URに定義されたクラス</text>
<text transform="matrix(0.85 0 0 1 122.3691406 76.7905273)" class="st12 st14 st15 st16">凡例</text>
<line class="st17" x1="144.9160309" y1="305.4986877" x2="144.9160309" y2="263.4619446"/>
<polyline class="st18" points="149.424881,275.4724426 140.4071808,275.4724426 144.9160309,263.4619446 149.424881,275.4724426 "/>
<polygon class="st17" points="149.424881,275.4724426 140.4071808,275.4724426 144.9160309,263.4619446 "/>
<line class="st17" x1="213.3003998" y1="229.6824188" x2="274.1700134" y2="229.6824188"/>
<polyline class="st18" points="262.1463928,234.1863556 262.1463928,225.1784821 274.1700134,229.6824188 262.1463928,234.1863556 
	"/>
<polygon class="st17" points="274.1700134,229.6824188 262.1463928,225.1784821 262.1463928,234.1863556 "/>
</svg>
