<?xml version="1.0" encoding="utf-8"?>
<!-- Generator: Adobe Illustrator 28.1.0, SVG Export Plug-In . SVG Version: 6.00 Build 0)  -->
<svg version="1.1" id="レイヤー_1" xmlns="http://www.w3.org/2000/svg" xmlns:xlink="http://www.w3.org/1999/xlink" x="0px"
	 y="0px" viewBox="0 0 703.3 674.1" style="enable-background:new 0 0 703.3 674.1;" xml:space="preserve">
<style type="text/css">
	.st0{fill-rule:evenodd;clip-rule:evenodd;fill:#FFCCFF;}
	.st1{fill:none;stroke:#000000;stroke-width:1.0286;stroke-linecap:round;stroke-linejoin:bevel;stroke-miterlimit:10;}
	.st2{font-family:'YuGothicUI-Regular';}
	.st3{font-size:6.6857px;}
	.st4{font-family:'YuGothicUI-Bold';}
	.st5{font-size:7.0386px;}
	.st6{fill:none;stroke:#000000;stroke-width:0.191;stroke-miterlimit:10;}
	.st7{fill-rule:evenodd;clip-rule:evenodd;}
	.st8{fill-rule:evenodd;clip-rule:evenodd;fill:#FFFFFF;}
</style>
<polygon class="st0" points="298.1,482.2 434.7,482.2 434.7,323.3 298.1,323.3 "/>
<polygon class="st1" points="298.1,482.2 434.7,482.2 434.7,323.3 298.1,323.3 "/>
<text transform="matrix(0.85 0 0 1 348.8569 333.5383)" class="st2 st3">«DataType»</text>
<text transform="matrix(0.85 0 0 1 324.4819 342.2814)" class="st4 st3">uro::RiverFacilityIdAttribute</text>
<line class="st1" x1="298.1" y1="346.4" x2="434.2" y2="346.4"/>
<text transform="matrix(0.85 0 0 1 300.6069 355.6642)" class="st2 st3">+</text>
<text transform="matrix(0.85 0 0 1 305.1763 355.6642)" class="st2 st3"> </text>
<text transform="matrix(0.85 0 0 1 311.7866 355.6642)" class="st2 st3">riverCode: gml::CodeType</text>
<text transform="matrix(0.85 0 0 1 300.6069 364.3986)" class="st2 st3">+</text>
<text transform="matrix(0.85 0 0 1 305.1763 364.3986)" class="st2 st3"> </text>
<text transform="matrix(0.85 0 0 1 311.7866 364.3986)" class="st2 st3">riverName: xs::string [0..1]</text>
<text transform="matrix(0.85 0 0 1 300.6069 373.1408)" class="st2 st3">+</text>
<text transform="matrix(0.85 0 0 1 305.1763 373.1408)" class="st2 st3"> </text>
<text transform="matrix(0.85 0 0 1 311.7866 373.1408)" class="st2 st3">sideType: gml::CodeType</text>
<text transform="matrix(0.85 0 0 1 300.6069 381.883)" class="st2 st3">+</text>
<text transform="matrix(0.85 0 0 1 305.1763 381.883)" class="st2 st3"> </text>
<text transform="matrix(0.85 0 0 1 311.7866 381.883)" class="st2 st3">leftPost: gml::LengthType [0..1]</text>
<text transform="matrix(0.85 0 0 1 300.6069 390.6174)" class="st2 st3">+</text>
<text transform="matrix(0.85 0 0 1 305.1763 390.6174)" class="st2 st3"> </text>
<text transform="matrix(0.85 0 0 1 311.7866 390.6174)" class="st2 st3">leftDistance: gml::LengthType [0..1]</text>
<text transform="matrix(0.85 0 0 1 300.6069 399.3674)" class="st2 st3">+</text>
<text transform="matrix(0.85 0 0 1 305.1763 399.3674)" class="st2 st3"> </text>
<text transform="matrix(0.85 0 0 1 311.7866 399.3674)" class="st2 st3">rightPost: gml::LengthType [0..1]</text>
<text transform="matrix(0.85 0 0 1 300.6069 408.1096)" class="st2 st3">+</text>
<text transform="matrix(0.85 0 0 1 305.1763 408.1096)" class="st2 st3"> </text>
<text transform="matrix(0.85 0 0 1 311.7866 408.1096)" class="st2 st3">rightDistance: gml::LengthType [0..1]</text>
<text transform="matrix(0.85 0 0 1 300.6069 416.8517)" class="st2 st3">+</text>
<text transform="matrix(0.85 0 0 1 305.1763 416.8517)" class="st2 st3"> </text>
<text transform="matrix(0.85 0 0 1 311.7866 416.8517)" class="st2 st3">leftStartPost: gml::LengthType [0..1]</text>
<text transform="matrix(0.85 0 0 1 300.6069 425.6017)" class="st2 st3">+</text>
<text transform="matrix(0.85 0 0 1 305.1763 425.6017)" class="st2 st3"> </text>
<text transform="matrix(0.85 0 0 1 311.7866 425.6017)" class="st2 st3">leftStartDistance: gml::LengthType [0..1]</text>
<text transform="matrix(0.85 0 0 1 300.6069 434.3439)" class="st2 st3">+</text>
<text transform="matrix(0.85 0 0 1 305.1763 434.3439)" class="st2 st3"> </text>
<text transform="matrix(0.85 0 0 1 311.7866 434.3439)" class="st2 st3">leftEndPost: gml::LengthType [0..1]</text>
<text transform="matrix(0.85 0 0 1 300.6069 443.0861)" class="st2 st3">+</text>
<text transform="matrix(0.85 0 0 1 305.1763 443.0861)" class="st2 st3"> </text>
<text transform="matrix(0.85 0 0 1 311.7866 443.0861)" class="st2 st3">leftEndDistance: gml::LengthType [0..1]</text>
<text transform="matrix(0.85 0 0 1 300.6069 451.8361)" class="st2 st3">+</text>
<text transform="matrix(0.85 0 0 1 305.1763 451.8361)" class="st2 st3"> </text>
<text transform="matrix(0.85 0 0 1 311.7866 451.8361)" class="st2 st3">rightStartPost: gml::LengthType [0..1]</text>
<text transform="matrix(0.85 0 0 1 300.6069 460.5705)" class="st2 st3">+</text>
<text transform="matrix(0.85 0 0 1 305.1763 460.5705)" class="st2 st3"> </text>
<text transform="matrix(0.85 0 0 1 311.7866 460.5705)" class="st2 st3">rightStartDistance: gml::LengthType [0..1]</text>
<text transform="matrix(0.85 0 0 1 300.6069 469.3127)" class="st2 st3">+</text>
<text transform="matrix(0.85 0 0 1 305.1763 469.3127)" class="st2 st3"> </text>
<text transform="matrix(0.85 0 0 1 311.7866 469.3127)" class="st2 st3">rightEndPost: gml::LengthType [0..1]</text>
<text transform="matrix(0.85 0 0 1 300.6069 478.0549)" class="st2 st3">+</text>
<text transform="matrix(0.85 0 0 1 305.1763 478.0549)" class="st2 st3"> </text>
<text transform="matrix(0.85 0 0 1 311.7866 478.0549)" class="st2 st3">rightEndDistance: gml::LengthType [0..1]</text>
<polygon class="st0" points="401.2,89.3 503.8,89.3 503.8,37.3 401.2,37.3 "/>
<polygon class="st1" points="401.2,89.3 503.8,89.3 503.8,37.3 401.2,37.3 "/>
<text transform="matrix(0.85 0 0 1 430.6221 47.5934)" class="st2 st3">«FeatureType»</text>
<text transform="matrix(0.85 0 0 1 416.9111 56.3434)" class="st4 st3">uro::OtherConstruction</text>
<line class="st1" x1="401.2" y1="60.5" x2="503.3" y2="60.5"/>
<text transform="matrix(0.85 0 0 1 403.708 69.7106)" class="st2 st3">+</text>
<text transform="matrix(0.85 0 0 1 408.2773 69.7106)" class="st2 st3"> </text>
<text transform="matrix(0.85 0 0 1 414.8799 69.7106)" class="st2 st3">class: gml::CodeType [0..1]</text>
<text transform="matrix(0.85 0 0 1 403.708 78.4528)" class="st2 st3">+</text>
<text transform="matrix(0.85 0 0 1 408.2773 78.4528)" class="st2 st3"> </text>
<text transform="matrix(0.85 0 0 1 414.8799 78.4528)" class="st2 st3">function: gml::CodeType [0..*]</text>
<text transform="matrix(0.85 0 0 1 403.708 87.2028)" class="st2 st3">+</text>
<text transform="matrix(0.85 0 0 1 408.2773 87.2028)" class="st2 st3"> </text>
<text transform="matrix(0.85 0 0 1 414.8799 87.2028)" class="st2 st3">usage: gml::CodeType [0..*]</text>
<polygon class="st0" points="302.6,297.5 412.3,297.5 412.3,173.6 302.6,173.6 "/>
<polygon class="st1" points="302.6,297.5 412.3,297.5 412.3,173.6 302.6,173.6 "/>
<text transform="matrix(0.85 0 0 1 339.7163 183.8825)" class="st2 st3">«DataType»</text>
<text transform="matrix(0.85 0 0 1 322.9585 192.6325)" class="st4 st3">uro::FacilityIdAttribute</text>
<line class="st1" x1="302.6" y1="196.7" x2="411.8" y2="196.7"/>
<text transform="matrix(0.85 0 0 1 305.1772 205.9919)" class="st2 st3">+</text>
<text transform="matrix(0.85 0 0 1 309.7466 205.9919)" class="st2 st3"> </text>
<text transform="matrix(0.85 0 0 1 316.3569 205.9919)" class="st2 st3">id: xs::string [0..1]</text>
<text transform="matrix(0.85 0 0 1 305.1772 214.7419)" class="st2 st3">+</text>
<text transform="matrix(0.85 0 0 1 309.7466 214.7419)" class="st2 st3"> </text>
<text transform="matrix(0.85 0 0 1 316.3569 214.7419)" class="st2 st3">partId: xs::string [0..1]</text>
<text transform="matrix(0.85 0 0 1 305.1772 223.4841)" class="st2 st3">+</text>
<text transform="matrix(0.85 0 0 1 309.7466 223.4841)" class="st2 st3"> </text>
<text transform="matrix(0.85 0 0 1 316.3569 223.4841)" class="st2 st3">branchId: xs::string [0..1]</text>
<text transform="matrix(0.85 0 0 1 305.1772 232.2263)" class="st2 st3">+</text>
<text transform="matrix(0.85 0 0 1 309.7466 232.2263)" class="st2 st3"> </text>
<text transform="matrix(0.85 0 0 1 316.3569 232.2263)" class="st2 st3">prefecture: gml::CodeType [0..*]</text>
<text transform="matrix(0.85 0 0 1 305.1772 240.9763)" class="st2 st3">+</text>
<text transform="matrix(0.85 0 0 1 309.7466 240.9763)" class="st2 st3"> </text>
<text transform="matrix(0.85 0 0 1 316.3569 240.9763)" class="st2 st3">city: gml::CodeType [0..*]</text>
<text transform="matrix(0.85 0 0 1 305.1772 249.7106)" class="st2 st3">+</text>
<text transform="matrix(0.85 0 0 1 309.7466 249.7106)" class="st2 st3"> </text>
<text transform="matrix(0.85 0 0 1 316.3569 249.7106)" class="st2 st3">route: xs::string [0..1]</text>
<text transform="matrix(0.85 0 0 1 305.1772 258.4528)" class="st2 st3">+</text>
<text transform="matrix(0.85 0 0 1 309.7466 258.4528)" class="st2 st3"> </text>
<text transform="matrix(0.85 0 0 1 316.3569 258.4528)" class="st2 st3">startPost: xs::string [0..1]</text>
<text transform="matrix(0.85 0 0 1 305.1772 267.2028)" class="st2 st3">+</text>
<text transform="matrix(0.85 0 0 1 309.7466 267.2028)" class="st2 st3"> </text>
<text transform="matrix(0.85 0 0 1 316.3569 267.2028)" class="st2 st3">endPost: xs::string [0..1]</text>
<text transform="matrix(0.85 0 0 1 305.1772 275.945)" class="st2 st3">+</text>
<text transform="matrix(0.85 0 0 1 309.7466 275.945)" class="st2 st3"> </text>
<text transform="matrix(0.85 0 0 1 316.3569 275.945)" class="st2 st3">startLat: xs::double [0..1]</text>
<text transform="matrix(0.85 0 0 1 305.1772 284.6794)" class="st2 st3">+</text>
<text transform="matrix(0.85 0 0 1 309.7466 284.6794)" class="st2 st3"> </text>
<text transform="matrix(0.85 0 0 1 316.3569 284.6794)" class="st2 st3">startLong: xs::double [0..1]</text>
<text transform="matrix(0.85 0 0 1 305.1772 293.4216)" class="st2 st3">+</text>
<text transform="matrix(0.85 0 0 1 309.7466 293.4216)" class="st2 st3"> </text>
<text transform="matrix(0.85 0 0 1 316.3569 293.4216)" class="st2 st3">alternativeName: xs::string [0..*]</text>
<polygon class="st0" points="28.4,323.3 153.8,323.3 153.8,173.1 28.4,173.1 "/>
<polygon class="st1" points="28.4,323.3 153.8,323.3 153.8,173.1 28.4,173.1 "/>
<text transform="matrix(0.85 0 0 1 73.5913 183.3747)" class="st2 st3">«DataType»</text>
<text transform="matrix(0.85 0 0 1 43.1147 192.1169)" class="st4 st3">uro::ConstructionBaseAttribute</text>
<line class="st1" x1="28.4" y1="196.2" x2="153.3" y2="196.2"/>
<text transform="matrix(0.85 0 0 1 30.9272 205.4841)" class="st2 st3">+</text>
<text transform="matrix(0.85 0 0 1 35.4966 205.4841)" class="st2 st3"> </text>
<text transform="matrix(0.85 0 0 1 42.0991 205.4841)" class="st2 st3">adminType: gml::CodeType [0..1]</text>
<text transform="matrix(0.85 0 0 1 30.9272 214.2263)" class="st2 st3">+</text>
<text transform="matrix(0.85 0 0 1 35.4966 214.2263)" class="st2 st3"> </text>
<text transform="matrix(0.85 0 0 1 42.0991 214.2263)" class="st2 st3">administrator: xs::string [0..1]</text>
<text transform="matrix(0.85 0 0 1 30.9272 222.9606)" class="st2 st3">+</text>
<text transform="matrix(0.85 0 0 1 35.4966 222.9606)" class="st2 st3"> </text>
<text transform="matrix(0.85 0 0 1 42.0991 222.9606)" class="st2 st3">adminOffice: xs::string [0..1]</text>
<text transform="matrix(0.85 0 0 1 30.9272 231.7106)" class="st2 st3">+</text>
<text transform="matrix(0.85 0 0 1 35.4966 231.7106)" class="st2 st3"> </text>
<text transform="matrix(0.85 0 0 1 42.0991 231.7106)" class="st2 st3">operatorType: gml::CodeType [0..1]</text>
<text transform="matrix(0.85 0 0 1 30.9272 240.4528)" class="st2 st3">+</text>
<text transform="matrix(0.85 0 0 1 35.4966 240.4528)" class="st2 st3"> </text>
<text transform="matrix(0.85 0 0 1 42.0991 240.4528)" class="st2 st3">installerType: gml::CodeType [0..1]</text>
<text transform="matrix(0.85 0 0 1 30.9272 249.195)" class="st2 st3">+</text>
<text transform="matrix(0.85 0 0 1 35.4966 249.195)" class="st2 st3"> </text>
<text transform="matrix(0.85 0 0 1 42.0991 249.195)" class="st2 st3">installer: xs::string [0..1]</text>
<text transform="matrix(0.85 0 0 1 30.9272 257.945)" class="st2 st3">+</text>
<text transform="matrix(0.85 0 0 1 35.4966 257.945)" class="st2 st3"> </text>
<text transform="matrix(0.85 0 0 1 42.0991 257.945)" class="st2 st3">structureOrdinance: xs::string [0..1]</text>
<text transform="matrix(0.85 0 0 1 30.9272 266.6872)" class="st2 st3">+</text>
<text transform="matrix(0.85 0 0 1 35.4966 266.6872)" class="st2 st3"> </text>
<text transform="matrix(0.85 0 0 1 42.0991 266.6872)" class="st2 st3">specification: xs::string [0..1]</text>
<text transform="matrix(0.85 0 0 1 30.9272 275.4294)" class="st2 st3">+</text>
<text transform="matrix(0.85 0 0 1 35.4966 275.4294)" class="st2 st3"> </text>
<text transform="matrix(0.85 0 0 1 42.0991 275.4294)" class="st2 st3">kana: xs::string [0..1]</text>
<text transform="matrix(0.85 0 0 1 30.9272 284.1638)" class="st2 st3">+</text>
<text transform="matrix(0.85 0 0 1 35.4966 284.1638)" class="st2 st3"> </text>
<text transform="matrix(0.85 0 0 1 42.0991 284.1638)" class="st2 st3">constructionStartYear: xs::gYear [0..1]</text>
<text transform="matrix(0.85 0 0 1 30.9272 292.9138)" class="st2 st3">+</text>
<text transform="matrix(0.85 0 0 1 35.4966 292.9138)" class="st2 st3"> </text>
<text transform="matrix(0.85 0 0 1 42.0991 292.9138)" class="st2 st3">completionYear: xs::gYear [0..1]</text>
<text transform="matrix(0.85 0 0 1 30.9272 301.6555)" class="st2 st3">+</text>
<text transform="matrix(0.85 0 0 1 35.4966 301.6555)" class="st2 st3"> </text>
<text transform="matrix(0.85 0 0 1 42.0991 301.6555)" class="st2 st3">facilityAge: xs::integer [0..1]</text>
<text transform="matrix(0.85 0 0 1 30.9272 310.3976)" class="st2 st3">+</text>
<text transform="matrix(0.85 0 0 1 35.4966 310.3976)" class="st2 st3"> </text>
<text transform="matrix(0.85 0 0 1 42.0991 310.3976)" class="st2 st3">update: xs::date [0..1]</text>
<text transform="matrix(0.85 0 0 1 30.9272 319.132)" class="st2 st3">+</text>
<text transform="matrix(0.85 0 0 1 35.4966 319.132)" class="st2 st3"> </text>
<text transform="matrix(0.85 0 0 1 42.0991 319.132)" class="st2 st3">purpose: gml::CodeType [0..1]</text>
<polygon class="st0" points="90.9,493 211.2,493 211.2,421.5 90.9,421.5 "/>
<polygon class="st1" points="90.9,493 211.2,493 211.2,421.5 90.9,421.5 "/>
<text transform="matrix(0.85 0 0 1 133.521 431.7736)" class="st2 st3">«DataType»</text>
<text transform="matrix(0.85 0 0 1 95.9351 440.5158)" class="st4 st3">uro::ConstructionStructureAttribute</text>
<line class="st1" x1="90.9" y1="444.6" x2="210.7" y2="444.6"/>
<text transform="matrix(0.85 0 0 1 93.396 453.883)" class="st2 st3">+</text>
<text transform="matrix(0.85 0 0 1 97.9653 453.883)" class="st2 st3"> </text>
<text transform="matrix(0.85 0 0 1 104.5679 453.883)" class="st2 st3">structureType: gml::CodeType [0..1]</text>
<text transform="matrix(0.85 0 0 1 93.396 462.633)" class="st2 st3">+</text>
<text transform="matrix(0.85 0 0 1 97.9653 462.633)" class="st2 st3"> </text>
<text transform="matrix(0.85 0 0 1 104.5679 462.633)" class="st2 st3">length: gml::LengthType [0..1]</text>
<text transform="matrix(0.85 0 0 1 93.396 471.3752)" class="st2 st3">+</text>
<text transform="matrix(0.85 0 0 1 97.9653 471.3752)" class="st2 st3"> </text>
<text transform="matrix(0.85 0 0 1 104.5679 471.3752)" class="st2 st3">width: gml::LengthType [0..1]</text>
<text transform="matrix(0.85 0 0 1 93.396 480.1174)" class="st2 st3">+</text>
<text transform="matrix(0.85 0 0 1 97.9653 480.1174)" class="st2 st3"> </text>
<text transform="matrix(0.85 0 0 1 104.5679 480.1174)" class="st2 st3">depth: gml::LengthType [0..1]</text>
<text transform="matrix(0.85 0 0 1 93.396 488.8517)" class="st2 st3">+</text>
<text transform="matrix(0.85 0 0 1 97.9653 488.8517)" class="st2 st3"> </text>
<text transform="matrix(0.85 0 0 1 104.5679 488.8517)" class="st2 st3">volume: gml::MeasureType [0..1]</text>
<polygon class="st0" points="4.5,617.9 153.3,617.9 153.3,563.9 4.5,563.9 "/>
<polygon class="st1" points="4.5,617.9 153.3,617.9 153.3,563.9 4.5,563.9 "/>
<text transform="matrix(0.85 0 0 1 61.396 574.2267)" class="st2 st3">«DataType»</text>
<text transform="matrix(0.85 0 0 1 37.5288 582.9611)" class="st4 st3">uro::EmbankmentAttribute</text>
<line class="st1" x1="4.5" y1="587.1" x2="152.8" y2="587.1"/>
<text transform="matrix(0.85 0 0 1 7.0601 596.3439)" class="st2 st3">+</text>
<text transform="matrix(0.85 0 0 1 11.6294 596.3439)" class="st2 st3"> </text>
<text transform="matrix(0.85 0 0 1 18.2319 596.3439)" class="st2 st3">mainPartLength: gml::LengthType [0..1]</text>
<text transform="matrix(0.85 0 0 1 7.0601 605.0861)" class="st2 st3">+</text>
<text transform="matrix(0.85 0 0 1 11.6294 605.0861)" class="st2 st3"> </text>
<text transform="matrix(0.85 0 0 1 18.2319 605.0861)" class="st2 st3">ceilingHeight: gml::LengthType [0..1]</text>
<text transform="matrix(0.85 0 0 1 7.0601 613.8205)" class="st2 st3">+</text>
<text transform="matrix(0.85 0 0 1 11.6294 613.8205)" class="st2 st3"> </text>
<text transform="matrix(0.85 0 0 1 18.2319 613.8205)" class="st2 st3">waveDissipatorLength: gml::LengthType [0..1]</text>
<polygon class="st0" points="158.4,609.2 303.1,609.2 303.1,563.9 158.4,563.9 "/>
<polygon class="st1" points="158.4,609.2 303.1,609.2 303.1,563.9 158.4,563.9 "/>
<text transform="matrix(0.85 0 0 1 213.2554 574.2267)" class="st2 st3">«DataType»</text>
<text transform="matrix(0.85 0 0 1 202.5835 582.9611)" class="st4 st3">uro::DamAttribute</text>
<line class="st1" x1="158.4" y1="587.1" x2="302.6" y2="587.1"/>
<text transform="matrix(0.85 0 0 1 160.9429 596.3439)" class="st2 st3">+</text>
<text transform="matrix(0.85 0 0 1 165.5122 596.3439)" class="st2 st3"> </text>
<text transform="matrix(0.85 0 0 1 172.1147 596.3439)" class="st2 st3">damCode: gml::CodeType [0..1]</text>
<text transform="matrix(0.85 0 0 1 160.9429 605.0861)" class="st2 st3">+</text>
<text transform="matrix(0.85 0 0 1 165.5122 605.0861)" class="st2 st3"> </text>
<text transform="matrix(0.85 0 0 1 172.1147 605.0861)" class="st2 st3">totalWaterStorage: gml::MeasureType [0..1]</text>
<polygon class="st0" points="170.6,107.8 367.1,107.8 367.1,8.5 170.6,8.5 "/>
<polygon class="st1" points="170.6,107.8 367.1,107.8 367.1,8.5 170.6,8.5 "/>
<text transform="matrix(0.85 0 -0.3127 0.9499 330.2799 17.2596)" class="st2 st5">_CityObject</text>
<text transform="matrix(0.85 0 0 1 247.2866 29.0778)" class="st2 st3">«FeatureType»</text>
<text transform="matrix(0.85 0 -0.3127 0.9499 228.9995 37.83)" class="st2 st5">u</text>
<text transform="matrix(0.85 0 -0.3127 0.9499 228.9995 37.83)" class="st6 st2 st5">u</text>
<text transform="matrix(0.85 0 -0.3127 0.9499 233.0581 37.83)" class="st2 st5">r</text>
<text transform="matrix(0.85 0 -0.3127 0.9499 233.0581 37.83)" class="st6 st2 st5">r</text>
<text transform="matrix(0.85 0 -0.3127 0.9499 235.5913 37.83)" class="st2 st5">o</text>
<text transform="matrix(0.85 0 -0.3127 0.9499 235.5913 37.83)" class="st6 st2 st5">o</text>
<text transform="matrix(0.85 0 -0.3127 0.9499 239.6518 37.83)" class="st2 st5">::</text>
<text transform="matrix(0.85 0 -0.3127 0.9499 239.6518 37.83)" class="st6 st2 st5">::</text>
<text transform="matrix(0.85 0 -0.3127 0.9499 242.687 37.83)" class="st2 st5">A</text>
<text transform="matrix(0.85 0 -0.3127 0.9499 242.687 37.83)" class="st6 st2 st5">A</text>
<text transform="matrix(0.85 0 -0.3127 0.9499 247.2553 37.83)" class="st2 st5">b</text>
<text transform="matrix(0.85 0 -0.3127 0.9499 247.2553 37.83)" class="st6 st2 st5">b</text>
<text transform="matrix(0.85 0 -0.3127 0.9499 251.3159 37.83)" class="st2 st5">s</text>
<text transform="matrix(0.85 0 -0.3127 0.9499 251.3159 37.83)" class="st6 st2 st5">s</text>
<text transform="matrix(0.85 0 -0.3127 0.9499 254.3608 37.83)" class="st2 st5">t</text>
<text transform="matrix(0.85 0 -0.3127 0.9499 254.3608 37.83)" class="st6 st2 st5">t</text>
<text transform="matrix(0.85 0 -0.3127 0.9499 256.896 37.83)" class="st2 st5">r</text>
<text transform="matrix(0.85 0 -0.3127 0.9499 256.896 37.83)" class="st6 st2 st5">r</text>
<text transform="matrix(0.85 0 -0.3127 0.9499 259.4292 37.83)" class="st2 st5">u</text>
<text transform="matrix(0.85 0 -0.3127 0.9499 259.4292 37.83)" class="st6 st2 st5">u</text>
<text transform="matrix(0.85 0 -0.3127 0.9499 263.4878 37.83)" class="st2 st5">c</text>
<text transform="matrix(0.85 0 -0.3127 0.9499 263.4878 37.83)" class="st6 st2 st5">c</text>
<text transform="matrix(0.85 0 -0.3127 0.9499 266.5385 37.83)" class="st2 st5">t</text>
<text transform="matrix(0.85 0 -0.3127 0.9499 266.5385 37.83)" class="st6 st2 st5">t</text>
<text transform="matrix(0.85 0 -0.3127 0.9499 269.0717 37.83)" class="st2 st5">C</text>
<text transform="matrix(0.85 0 -0.3127 0.9499 269.0717 37.83)" class="st6 st2 st5">C</text>
<text transform="matrix(0.85 0 -0.3127 0.9499 273.1401 37.83)" class="st2 st5">o</text>
<text transform="matrix(0.85 0 -0.3127 0.9499 273.1401 37.83)" class="st6 st2 st5">o</text>
<text transform="matrix(0.85 0 -0.3127 0.9499 277.2007 37.83)" class="st2 st5">n</text>
<text transform="matrix(0.85 0 -0.3127 0.9499 277.2007 37.83)" class="st6 st2 st5">n</text>
<text transform="matrix(0.85 0 -0.3127 0.9499 281.2592 37.83)" class="st2 st5">s</text>
<text transform="matrix(0.85 0 -0.3127 0.9499 281.2592 37.83)" class="st6 st2 st5">s</text>
<text transform="matrix(0.85 0 -0.3127 0.9499 284.3061 37.83)" class="st2 st5">t</text>
<text transform="matrix(0.85 0 -0.3127 0.9499 284.3061 37.83)" class="st6 st2 st5">t</text>
<text transform="matrix(0.85 0 -0.3127 0.9499 286.8413 37.83)" class="st2 st5">r</text>
<text transform="matrix(0.85 0 -0.3127 0.9499 286.8413 37.83)" class="st6 st2 st5">r</text>
<text transform="matrix(0.85 0 -0.3127 0.9499 289.3725 37.83)" class="st2 st5">u</text>
<text transform="matrix(0.85 0 -0.3127 0.9499 289.3725 37.83)" class="st6 st2 st5">u</text>
<text transform="matrix(0.85 0 -0.3127 0.9499 293.4331 37.83)" class="st2 st5">c</text>
<text transform="matrix(0.85 0 -0.3127 0.9499 293.4331 37.83)" class="st6 st2 st5">c</text>
<text transform="matrix(0.85 0 -0.3127 0.9499 296.4839 37.83)" class="st2 st5">t</text>
<text transform="matrix(0.85 0 -0.3127 0.9499 296.4839 37.83)" class="st6 st2 st5">t</text>
<text transform="matrix(0.85 0 -0.3127 0.9499 299.0171 37.83)" class="st2 st5">i</text>
<text transform="matrix(0.85 0 -0.3127 0.9499 299.0171 37.83)" class="st6 st2 st5">i</text>
<text transform="matrix(0.85 0 -0.3127 0.9499 300.5444 37.83)" class="st2 st5">o</text>
<text transform="matrix(0.85 0 -0.3127 0.9499 300.5444 37.83)" class="st6 st2 st5">o</text>
<text transform="matrix(0.85 0 -0.3127 0.9499 304.603 37.83)" class="st2 st5">n</text>
<text transform="matrix(0.85 0 -0.3127 0.9499 304.603 37.83)" class="st6 st2 st5">n</text>
<line class="st1" x1="170.6" y1="41.9" x2="366.6" y2="41.9"/>
<text transform="matrix(0.85 0 0 1 173.1304 51.195)" class="st2 st3">+</text>
<text transform="matrix(0.85 0 0 1 177.6997 51.195)" class="st2 st3"> </text>
<text transform="matrix(0.85 0 0 1 184.3022 51.195)" class="st2 st3">conditionOfConstruction: ConditionOfConstructionValue [0..1]</text>
<text transform="matrix(0.85 0 0 1 173.1304 59.9372)" class="st2 st3">+</text>
<text transform="matrix(0.85 0 0 1 177.6997 59.9372)" class="st2 st3"> </text>
<text transform="matrix(0.85 0 0 1 184.3022 59.9372)" class="st2 st3">dateOfConstruction: xs::date [0..1]</text>
<text transform="matrix(0.85 0 0 1 173.1304 68.6872)" class="st2 st3">+</text>
<text transform="matrix(0.85 0 0 1 177.6997 68.6872)" class="st2 st3"> </text>
<text transform="matrix(0.85 0 0 1 184.3022 68.6872)" class="st2 st3">dateOfDemolition: xs::date [0..1]</text>
<text transform="matrix(0.85 0 0 1 173.1304 77.4294)" class="st2 st3">+</text>
<text transform="matrix(0.85 0 0 1 177.6997 77.4294)" class="st2 st3"> </text>
<text transform="matrix(0.85 0 0 1 184.3022 77.4294)" class="st2 st3">constructionEvent: ConstructionEvent [0..*]</text>
<text transform="matrix(0.85 0 0 1 173.1304 86.1638)" class="st2 st3">+</text>
<text transform="matrix(0.85 0 0 1 177.6997 86.1638)" class="st2 st3"> </text>
<text transform="matrix(0.85 0 0 1 184.3022 86.1638)" class="st2 st3">elevation: Elevation [0..*]</text>
<text transform="matrix(0.85 0 0 1 173.1304 94.9138)" class="st2 st3">+</text>
<text transform="matrix(0.85 0 0 1 177.6997 94.9138)" class="st2 st3"> </text>
<text transform="matrix(0.85 0 0 1 184.3022 94.9138)" class="st2 st3">height: Height [0..*]</text>
<text transform="matrix(0.85 0 0 1 173.1304 103.6559)" class="st2 st3">+</text>
<text transform="matrix(0.85 0 0 1 177.6997 103.6559)" class="st2 st3"> </text>
<text transform="matrix(0.85 0 0 1 184.3022 103.6559)" class="st2 st3">occupancy: Occupancy [0..*]</text>
<polygon class="st0" points="512.4,666.8 666.8,666.8 666.8,551.6 512.4,551.6 "/>
<polygon class="st1" points="512.4,666.8 666.8,666.8 666.8,551.6 512.4,551.6 "/>
<text transform="matrix(0.85 0 0 1 571.8174 561.883)" class="st2 st3">«DataType»</text>
<text transform="matrix(0.85 0 0 1 532.2002 570.6174)" class="st4 st3">uro::PublicSuveyDataQualityAttribute</text>
<line class="st1" x1="512.4" y1="574.7" x2="666.3" y2="574.7"/>
<text transform="matrix(0.85 0 0 1 514.9268 584.0002)" class="st2 st3">+</text>
<text transform="matrix(0.85 0 0 1 519.4961 584.0002)" class="st2 st3"> </text>
<text transform="matrix(0.85 0 0 1 526.0986 584.0002)" class="st2 st3">srcScaleLod0: gml::CodeType [0..1]</text>
<text transform="matrix(0.85 0 0 1 514.9268 592.7424)" class="st2 st3">+</text>
<text transform="matrix(0.85 0 0 1 519.4961 592.7424)" class="st2 st3"> </text>
<text transform="matrix(0.85 0 0 1 526.0986 592.7424)" class="st2 st3">srcScaleLod1: gml::CodeType [0..1]</text>
<text transform="matrix(0.85 0 0 1 514.9268 601.4767)" class="st2 st3">+</text>
<text transform="matrix(0.85 0 0 1 519.4961 601.4767)" class="st2 st3"> </text>
<text transform="matrix(0.85 0 0 1 526.0986 601.4767)" class="st2 st3">srcScaleLod2: gml::CodeType [0..1]</text>
<text transform="matrix(0.85 0 0 1 514.9268 610.2267)" class="st2 st3">+</text>
<text transform="matrix(0.85 0 0 1 519.4961 610.2267)" class="st2 st3"> </text>
<text transform="matrix(0.85 0 0 1 526.0986 610.2267)" class="st2 st3">srcScaleLod3: gml::CodeType [0..1]</text>
<text transform="matrix(0.85 0 0 1 514.9268 618.9689)" class="st2 st3">+</text>
<text transform="matrix(0.85 0 0 1 519.4961 618.9689)" class="st2 st3"> </text>
<text transform="matrix(0.85 0 0 1 526.0986 618.9689)" class="st2 st3">srcScaleLod4: gml::CodeType [0..1]</text>
<text transform="matrix(0.85 0 0 1 514.9268 627.7111)" class="st2 st3">+</text>
<text transform="matrix(0.85 0 0 1 519.4961 627.7111)" class="st2 st3"> </text>
<text transform="matrix(0.85 0 0 1 526.0986 627.7111)" class="st2 st3">publicSurveySrcDescLod0: gml::CodeType [0..*]</text>
<text transform="matrix(0.85 0 0 1 514.9268 636.4611)" class="st2 st3">+</text>
<text transform="matrix(0.85 0 0 1 519.4961 636.4611)" class="st2 st3"> </text>
<text transform="matrix(0.85 0 0 1 526.0986 636.4611)" class="st2 st3">publicSurveySrcDescLod1: gml::CodeType [0..*]</text>
<text transform="matrix(0.85 0 0 1 514.9268 645.2033)" class="st2 st3">+</text>
<text transform="matrix(0.85 0 0 1 519.4961 645.2033)" class="st2 st3"> </text>
<text transform="matrix(0.85 0 0 1 526.0986 645.2033)" class="st2 st3">publicSurveySrcDescLod2: gml::CodeType [0..*]</text>
<text transform="matrix(0.85 0 0 1 514.9268 653.9455)" class="st2 st3">+</text>
<text transform="matrix(0.85 0 0 1 519.4961 653.9455)" class="st2 st3"> </text>
<text transform="matrix(0.85 0 0 1 526.0986 653.9455)" class="st2 st3">publicSurveySrcDescLod3: gml::CodeType [0..*]</text>
<text transform="matrix(0.85 0 0 1 514.9268 662.6799)" class="st2 st3">+</text>
<text transform="matrix(0.85 0 0 1 519.4961 662.6799)" class="st2 st3"> </text>
<text transform="matrix(0.85 0 0 1 526.0986 662.6799)" class="st2 st3">publicSurveySrcDescLod4: gml::CodeType [0..*]</text>
<polygon class="st0" points="475.3,280.6 561.1,280.6 561.1,239.4 475.3,239.4 "/>
<polygon class="st1" points="475.3,280.6 561.1,280.6 561.1,239.4 475.3,239.4 "/>
<text transform="matrix(0.85 0 0 1 500.708 249.7106)" class="st2 st3">«DataType»</text>
<text transform="matrix(0.85 0 -0.3127 0.9499 486.9979 258.4574)" class="st2 st5">u</text>
<text transform="matrix(0.85 0 -0.3127 0.9499 486.9979 258.4574)" class="st6 st2 st5">u</text>
<text transform="matrix(0.85 0 -0.3127 0.9499 491.0585 258.4574)" class="st2 st5">r</text>
<text transform="matrix(0.85 0 -0.3127 0.9499 491.0585 258.4574)" class="st6 st2 st5">r</text>
<text transform="matrix(0.85 0 -0.3127 0.9499 493.5917 258.4574)" class="st2 st5">o</text>
<text transform="matrix(0.85 0 -0.3127 0.9499 493.5917 258.4574)" class="st6 st2 st5">o</text>
<text transform="matrix(0.85 0 -0.3127 0.9499 497.6522 258.4574)" class="st2 st5">::</text>
<text transform="matrix(0.85 0 -0.3127 0.9499 497.6522 258.4574)" class="st6 st2 st5">::</text>
<text transform="matrix(0.85 0 -0.3127 0.9499 500.6854 258.4574)" class="st2 st5">F</text>
<text transform="matrix(0.85 0 -0.3127 0.9499 500.6854 258.4574)" class="st6 st2 st5">F</text>
<text transform="matrix(0.85 0 -0.3127 0.9499 504.2401 258.4574)" class="st2 st5">a</text>
<text transform="matrix(0.85 0 -0.3127 0.9499 504.2401 258.4574)" class="st6 st2 st5">a</text>
<text transform="matrix(0.85 0 -0.3127 0.9499 507.7909 258.4574)" class="st2 st5">c</text>
<text transform="matrix(0.85 0 -0.3127 0.9499 507.7909 258.4574)" class="st6 st2 st5">c</text>
<text transform="matrix(0.85 0 -0.3127 0.9499 510.8397 258.4574)" class="st2 st5">ili</text>
<text transform="matrix(0.85 0 -0.3127 0.9499 510.8397 258.4574)" class="st6 st2 st5">ili</text>
<text transform="matrix(0.85 0 -0.3127 0.9499 515.4188 258.4574)" class="st2 st5">t</text>
<text transform="matrix(0.85 0 -0.3127 0.9499 515.4188 258.4574)" class="st6 st2 st5">t</text>
<text transform="matrix(0.85 0 -0.3127 0.9499 517.953 258.4574)" class="st2 st5">y</text>
<text transform="matrix(0.85 0 -0.3127 0.9499 517.953 258.4574)" class="st6 st2 st5">y</text>
<text transform="matrix(0.85 0 -0.3127 0.9499 521.5048 258.4574)" class="st2 st5">A</text>
<text transform="matrix(0.85 0 -0.3127 0.9499 521.5048 258.4574)" class="st6 st2 st5">A</text>
<text transform="matrix(0.85 0 -0.3127 0.9499 526.0731 258.4574)" class="st2 st5">tt</text>
<text transform="matrix(0.85 0 -0.3127 0.9499 526.0731 258.4574)" class="st6 st2 st5">tt</text>
<text transform="matrix(0.85 0 -0.3127 0.9499 531.1425 258.4574)" class="st2 st5">r</text>
<text transform="matrix(0.85 0 -0.3127 0.9499 531.1425 258.4574)" class="st6 st2 st5">r</text>
<text transform="matrix(0.85 0 -0.3127 0.9499 533.6757 258.4574)" class="st2 st5">i</text>
<text transform="matrix(0.85 0 -0.3127 0.9499 533.6757 258.4574)" class="st6 st2 st5">i</text>
<text transform="matrix(0.85 0 -0.3127 0.9499 535.202 258.4574)" class="st2 st5">b</text>
<text transform="matrix(0.85 0 -0.3127 0.9499 535.202 258.4574)" class="st6 st2 st5">b</text>
<text transform="matrix(0.85 0 -0.3127 0.9499 539.2616 258.4574)" class="st2 st5">u</text>
<text transform="matrix(0.85 0 -0.3127 0.9499 539.2616 258.4574)" class="st6 st2 st5">u</text>
<text transform="matrix(0.85 0 -0.3127 0.9499 543.3212 258.4574)" class="st2 st5">t</text>
<text transform="matrix(0.85 0 -0.3127 0.9499 543.3212 258.4574)" class="st6 st2 st5">t</text>
<text transform="matrix(0.85 0 -0.3127 0.9499 545.8553 258.4574)" class="st2 st5">e</text>
<text transform="matrix(0.85 0 -0.3127 0.9499 545.8553 258.4574)" class="st6 st2 st5">e</text>
<line class="st1" x1="475.3" y1="262.6" x2="560.6" y2="262.6"/>
<text transform="matrix(0.85 0 0 1 477.8564 271.8356)" class="st2 st3">+</text>
<text transform="matrix(0.85 0 0 1 482.4258 271.8356)" class="st2 st3"> </text>
<text transform="matrix(0.85 0 0 1 489.0283 271.8356)" class="st2 st3">facilityId: xs::string [0..1]</text>
<polygon class="st0" points="422.5,218.9 525.1,218.9 525.1,173.6 422.5,173.6 "/>
<polygon class="st1" points="422.5,218.9 525.1,218.9 525.1,173.6 422.5,173.6 "/>
<text transform="matrix(0.85 0 0 1 456.0205 183.8825)" class="st2 st3">«DataType»</text>
<text transform="matrix(0.85 0 0 1 435.1924 192.6325)" class="st4 st3">uro::FacilityTypeAttribute</text>
<line class="st1" x1="422.5" y1="196.7" x2="524.6" y2="196.7"/>
<text transform="matrix(0.85 0 0 1 425.0361 205.9919)" class="st2 st3">+</text>
<text transform="matrix(0.85 0 0 1 429.6055 205.9919)" class="st2 st3"> </text>
<text transform="matrix(0.85 0 0 1 436.208 205.9919)" class="st2 st3">class: gml::CodeType [0..1]</text>
<text transform="matrix(0.85 0 0 1 425.0361 214.7419)" class="st2 st3">+</text>
<text transform="matrix(0.85 0 0 1 429.6055 214.7419)" class="st2 st3"> </text>
<text transform="matrix(0.85 0 0 1 436.208 214.7419)" class="st2 st3">function: gml::CodeType [0..*]</text>
<polygon class="st0" points="485.5,352.1 597.2,352.1 597.2,306.8 485.5,306.8 "/>
<polygon class="st1" points="485.5,352.1 597.2,352.1 597.2,306.8 485.5,306.8 "/>
<text transform="matrix(0.85 0 0 1 523.5596 317.0851)" class="st2 st3">«DataType»</text>
<text transform="matrix(0.85 0 -0.3127 0.9499 514.9305 325.8307)" class="st2 st5">u</text>
<text transform="matrix(0.85 0 -0.3127 0.9499 514.9305 325.8307)" class="st6 st2 st5">u</text>
<text transform="matrix(0.85 0 -0.3127 0.9499 518.9891 325.8307)" class="st2 st5">r</text>
<text transform="matrix(0.85 0 -0.3127 0.9499 518.9891 325.8307)" class="st6 st2 st5">r</text>
<text transform="matrix(0.85 0 -0.3127 0.9499 521.5223 325.8307)" class="st2 st5">o</text>
<text transform="matrix(0.85 0 -0.3127 0.9499 521.5223 325.8307)" class="st6 st2 st5">o</text>
<text transform="matrix(0.85 0 -0.3127 0.9499 525.5828 325.8307)" class="st2 st5">::</text>
<text transform="matrix(0.85 0 -0.3127 0.9499 525.5828 325.8307)" class="st6 st2 st5">::</text>
<text transform="matrix(0.85 0 -0.3127 0.9499 528.618 325.8307)" class="st2 st5">D</text>
<text transform="matrix(0.85 0 -0.3127 0.9499 528.618 325.8307)" class="st6 st2 st5">D</text>
<text transform="matrix(0.85 0 -0.3127 0.9499 533.1942 325.8307)" class="st2 st5">m</text>
<text transform="matrix(0.85 0 -0.3127 0.9499 533.1942 325.8307)" class="st6 st2 st5">m</text>
<text transform="matrix(0.85 0 -0.3127 0.9499 539.284 325.8307)" class="st2 st5">A</text>
<text transform="matrix(0.85 0 -0.3127 0.9499 539.284 325.8307)" class="st6 st2 st5">A</text>
<text transform="matrix(0.85 0 -0.3127 0.9499 543.8524 325.8307)" class="st2 st5">tt</text>
<text transform="matrix(0.85 0 -0.3127 0.9499 543.8524 325.8307)" class="st6 st2 st5">tt</text>
<text transform="matrix(0.85 0 -0.3127 0.9499 548.9207 325.8307)" class="st2 st5">r</text>
<text transform="matrix(0.85 0 -0.3127 0.9499 548.9207 325.8307)" class="st6 st2 st5">r</text>
<text transform="matrix(0.85 0 -0.3127 0.9499 551.4539 325.8307)" class="st2 st5">i</text>
<text transform="matrix(0.85 0 -0.3127 0.9499 551.4539 325.8307)" class="st6 st2 st5">i</text>
<text transform="matrix(0.85 0 -0.3127 0.9499 552.9813 325.8307)" class="st2 st5">b</text>
<text transform="matrix(0.85 0 -0.3127 0.9499 552.9813 325.8307)" class="st6 st2 st5">b</text>
<text transform="matrix(0.85 0 -0.3127 0.9499 557.0399 325.8307)" class="st2 st5">u</text>
<text transform="matrix(0.85 0 -0.3127 0.9499 557.0399 325.8307)" class="st6 st2 st5">u</text>
<text transform="matrix(0.85 0 -0.3127 0.9499 561.1004 325.8307)" class="st2 st5">t</text>
<text transform="matrix(0.85 0 -0.3127 0.9499 561.1004 325.8307)" class="st6 st2 st5">t</text>
<text transform="matrix(0.85 0 -0.3127 0.9499 563.6356 325.8307)" class="st2 st5">e</text>
<text transform="matrix(0.85 0 -0.3127 0.9499 563.6356 325.8307)" class="st6 st2 st5">e</text>
<line class="st1" x1="485.5" y1="329.9" x2="596.7" y2="329.9"/>
<text transform="matrix(0.85 0 0 1 488.0127 339.1955)" class="st2 st3">+</text>
<text transform="matrix(0.85 0 0 1 492.582 339.1955)" class="st2 st3"> </text>
<text transform="matrix(0.85 0 0 1 499.1846 339.1955)" class="st2 st3">dmCode: gml::CodeType</text>
<text transform="matrix(0.85 0 0 1 488.0127 347.9455)" class="st2 st3">+</text>
<text transform="matrix(0.85 0 0 1 492.582 347.9455)" class="st2 st3"> </text>
<text transform="matrix(0.85 0 0 1 499.1846 347.9455)" class="st2 st3">meshCode: gml::CodeType [0..1]</text>
<polygon class="st0" points="168.6,250.2 298.1,250.2 298.1,191.6 168.6,191.6 "/>
<polygon class="st1" points="168.6,250.2 298.1,250.2 298.1,191.6 168.6,191.6 "/>
<text transform="matrix(0.85 0 0 1 215.7944 201.8825)" class="st2 st3">«DataType»</text>
<text transform="matrix(0.85 0 0 1 192.4272 210.6169)" class="st4 st3">uro::KeyValuePairAttribute</text>
<line class="st1" x1="168.6" y1="214.7" x2="297.6" y2="214.7"/>
<text transform="matrix(0.85 0 0 1 171.0991 223.9997)" class="st2 st3">+</text>
<text transform="matrix(0.85 0 0 1 175.6685 223.9997)" class="st2 st3"> </text>
<text transform="matrix(0.85 0 0 1 182.271 223.9997)" class="st2 st3">key: gml::CodeType</text>
<text transform="matrix(0.85 0 0 1 171.0991 232.7419)" class="st2 st3">+</text>
<text transform="matrix(0.85 0 0 1 175.6685 232.7419)" class="st2 st3"> </text>
<text transform="matrix(0.85 0 0 1 182.271 232.7419)" class="st2 st3">codeValue: gml::CodeType [0..1]</text>
<polygon class="st0" points="544.9,513.5 697.3,513.5 697.3,363.4 544.9,363.4 "/>
<polygon class="st1" points="544.9,513.5 697.3,513.5 697.3,363.4 544.9,363.4 "/>
<text transform="matrix(0.85 0 0 1 603.3018 373.6564)" class="st2 st3">«DataType»</text>
<text transform="matrix(0.85 0 0 1 581.9736 382.3986)" class="st4 st3">uro::DataQualityAttribute</text>
<line class="st1" x1="544.9" y1="386.5" x2="696.8" y2="386.5"/>
<text transform="matrix(0.85 0 0 1 547.4346 395.7658)" class="st2 st3">+</text>
<text transform="matrix(0.85 0 0 1 552.0039 395.7658)" class="st2 st3"> </text>
<text transform="matrix(0.85 0 0 1 558.6143 395.7658)" class="st2 st3">geometrySrcDescLod0: gml::CodeType [0..*]</text>
<text transform="matrix(0.85 0 0 1 547.4346 404.508)" class="st2 st3">+</text>
<text transform="matrix(0.85 0 0 1 552.0039 404.508)" class="st2 st3"> </text>
<text transform="matrix(0.85 0 0 1 558.6143 404.508)" class="st2 st3">geometrySrcDescLod1: gml::CodeType [1..*]</text>
<text transform="matrix(0.85 0 0 1 547.4346 413.258)" class="st2 st3">+</text>
<text transform="matrix(0.85 0 0 1 552.0039 413.258)" class="st2 st3"> </text>
<text transform="matrix(0.85 0 0 1 558.6143 413.258)" class="st2 st3">geometrySrcDescLod2: gml::CodeType [0..*]</text>
<text transform="matrix(0.85 0 0 1 547.4346 422.0002)" class="st2 st3">+</text>
<text transform="matrix(0.85 0 0 1 552.0039 422.0002)" class="st2 st3"> </text>
<text transform="matrix(0.85 0 0 1 558.6143 422.0002)" class="st2 st3">geometrySrcDescLod3: gml::CodeType [0..*]</text>
<text transform="matrix(0.85 0 0 1 547.4346 430.7424)" class="st2 st3">+</text>
<text transform="matrix(0.85 0 0 1 552.0039 430.7424)" class="st2 st3"> </text>
<text transform="matrix(0.85 0 0 1 558.6143 430.7424)" class="st2 st3">geometrySrcDescLod4: gml::CodeType [0..*]</text>
<text transform="matrix(0.85 0 0 1 547.4346 439.4924)" class="st2 st3">+</text>
<text transform="matrix(0.85 0 0 1 552.0039 439.4924)" class="st2 st3"> </text>
<text transform="matrix(0.85 0 0 1 558.6143 439.4924)" class="st2 st3">thematicSrcDesc: gml::CodeType [0..*]</text>
<text transform="matrix(0.85 0 0 1 547.4346 448.2267)" class="st2 st3">+</text>
<text transform="matrix(0.85 0 0 1 552.0039 448.2267)" class="st2 st3"> </text>
<text transform="matrix(0.85 0 0 1 558.6143 448.2267)" class="st2 st3">appearanceSrcDescLod0: gml::CodeType [0..*]</text>
<text transform="matrix(0.85 0 0 1 547.4346 456.9689)" class="st2 st3">+</text>
<text transform="matrix(0.85 0 0 1 552.0039 456.9689)" class="st2 st3"> </text>
<text transform="matrix(0.85 0 0 1 558.6143 456.9689)" class="st2 st3">appearanceSrcDescLod1: gml::CodeType [0..*]</text>
<text transform="matrix(0.85 0 0 1 547.4346 465.7111)" class="st2 st3">+</text>
<text transform="matrix(0.85 0 0 1 552.0039 465.7111)" class="st2 st3"> </text>
<text transform="matrix(0.85 0 0 1 558.6143 465.7111)" class="st2 st3">appearanceSrcDescLod2: gml::CodeType [0..*]</text>
<text transform="matrix(0.85 0 0 1 547.4346 474.4611)" class="st2 st3">+</text>
<text transform="matrix(0.85 0 0 1 552.0039 474.4611)" class="st2 st3"> </text>
<text transform="matrix(0.85 0 0 1 558.6143 474.4611)" class="st2 st3">appearanceSrcDescLod3: gml::CodeType [0..*]</text>
<text transform="matrix(0.85 0 0 1 547.4346 483.1955)" class="st2 st3">+</text>
<text transform="matrix(0.85 0 0 1 552.0039 483.1955)" class="st2 st3"> </text>
<text transform="matrix(0.85 0 0 1 558.6143 483.1955)" class="st2 st3">appearanceSrcDescLod4: gml::CodeType [0..*]</text>
<text transform="matrix(0.85 0 0 1 547.4346 491.9377)" class="st2 st3">+</text>
<text transform="matrix(0.85 0 0 1 552.0039 491.9377)" class="st2 st3"> </text>
<text transform="matrix(0.85 0 0 1 558.6143 491.9377)" class="st2 st3">lodType: gml::CodeType [0..*]</text>
<text transform="matrix(0.85 0 0 1 547.4346 500.6799)" class="st2 st3">+</text>
<text transform="matrix(0.85 0 0 1 552.0039 500.6799)" class="st2 st3"> </text>
<text transform="matrix(0.85 0 0 1 558.6143 500.6799)" class="st2 st3">lod1HeightType: gml::CodeType [0..1]</text>
<text transform="matrix(0.85 0 0 1 547.4346 509.4299)" class="st2 st3">+</text>
<text transform="matrix(0.85 0 0 1 552.0039 509.4299)" class="st2 st3"> </text>
<text transform="matrix(0.85 0 0 1 558.6143 509.4299)" class="st2 st3">tranDataAcquisition: xs::string [0..1]</text>
<line class="st1" x1="574.4" y1="306.3" x2="574.4" y2="133.5"/>
<line class="st1" x1="268.6" y1="133.5" x2="268.6" y2="108.3"/>
<polyline class="st7" points="271.2,113.4 268.6,108.3 266.1,113.4 268.6,118.6 271.2,113.4 "/>
<polyline class="st1" points="271.2,113.4 268.6,108.3 266.1,113.4 268.6,118.6 "/>
<polyline class="st1" points="577.4,298.6 574.4,306.3 571.3,298.6 "/>
<line class="st1" x1="621.1" y1="362.9" x2="621.1" y2="133.5"/>
<line class="st1" x1="621.1" y1="133.5" x2="268.6" y2="133.5"/>
<polyline class="st7" points="271.2,113.4 268.6,108.3 266.1,113.4 268.6,118.6 271.2,113.4 "/>
<polyline class="st1" points="271.2,113.4 268.6,108.3 266.1,113.4 268.6,118.6 "/>
<polyline class="st1" points="624.1,355.1 621.1,362.9 618,355.1 "/>
<line class="st1" x1="359" y1="322.7" x2="359" y2="298.1"/>
<polyline class="st8" points="362.1,306.3 356,306.3 359,298.1 362.1,306.3 "/>
<polygon class="st1" points="362.1,306.3 356,306.3 359,298.1 "/>
<line class="st1" x1="473.3" y1="173.1" x2="473.3" y2="133.5"/>
<polyline class="st7" points="271.2,113.4 268.6,108.3 266.1,113.4 268.6,118.6 271.2,113.4 "/>
<polyline class="st1" points="271.2,113.4 268.6,108.3 266.1,113.4 268.6,118.6 "/>
<polyline class="st1" points="476.3,165.4 473.3,173.1 470.2,165.4 "/>
<line class="st1" x1="537.3" y1="238.9" x2="537.3" y2="133.5"/>
<polyline class="st7" points="271.2,113.4 268.6,108.3 266.1,113.4 268.6,118.6 271.2,113.4 "/>
<polyline class="st1" points="271.2,113.4 268.6,108.3 266.1,113.4 268.6,118.6 "/>
<polyline class="st1" points="540.3,231.2 537.3,238.9 534.2,231.2 "/>
<line class="st1" x1="620.1" y1="551.1" x2="620.1" y2="514.1"/>
<polyline class="st7" points="622.6,519.2 620.1,514.1 617.5,519.2 620.1,524.3 622.6,519.2 "/>
<polygon class="st1" points="622.6,519.2 620.1,514.1 617.5,519.2 620.1,524.3 "/>
<polyline class="st1" points="623.1,543.4 620.1,551.1 617,543.4 "/>
<line class="st1" x1="230" y1="563.4" x2="230" y2="518.7"/>
<line class="st1" x1="230" y1="518.7" x2="150.8" y2="518.7"/>
<line class="st1" x1="150.8" y1="518.7" x2="150.8" y2="493.5"/>
<polyline class="st8" points="153.8,501.7 147.7,501.7 150.8,493.5 153.8,501.7 "/>
<polygon class="st1" points="153.8,501.7 147.7,501.7 150.8,493.5 "/>
<line class="st1" x1="78.2" y1="563.4" x2="78.2" y2="518.7"/>
<line class="st1" x1="78.2" y1="518.7" x2="150.8" y2="518.7"/>
<line class="st1" x1="158.9" y1="421" x2="158.9" y2="133.5"/>
<polyline class="st7" points="271.2,113.4 268.6,108.3 266.1,113.4 268.6,118.6 271.2,113.4 "/>
<polyline class="st1" points="271.2,113.4 268.6,108.3 266.1,113.4 268.6,118.6 "/>
<polyline class="st1" points="162,413.3 158.9,421 155.9,413.3 "/>
<line class="st1" x1="90.9" y1="172.6" x2="90.9" y2="133.5"/>
<line class="st1" x1="90.9" y1="133.5" x2="268.6" y2="133.5"/>
<polyline class="st7" points="271.2,113.4 268.6,108.3 266.1,113.4 268.6,118.6 271.2,113.4 "/>
<polyline class="st1" points="271.2,113.4 268.6,108.3 266.1,113.4 268.6,118.6 "/>
<polyline class="st1" points="93.9,164.9 90.9,172.6 87.8,164.9 "/>
<line class="st1" x1="356.5" y1="173.1" x2="356.5" y2="133.5"/>
<polyline class="st7" points="271.2,113.4 268.6,108.3 266.1,113.4 268.6,118.6 271.2,113.4 "/>
<polyline class="st1" points="271.2,113.4 268.6,108.3 266.1,113.4 268.6,118.6 "/>
<polyline class="st1" points="359.5,165.4 356.5,173.1 353.4,165.4 "/>
<line class="st1" x1="400.7" y1="71.3" x2="367.6" y2="71.3"/>
<polyline class="st8" points="375.8,68.2 375.8,74.3 367.6,71.3 375.8,68.2 "/>
<polygon class="st1" points="375.8,68.2 375.8,74.3 367.6,71.3 "/>
<line class="st1" x1="262" y1="191.1" x2="262" y2="133.5"/>
<polyline class="st7" points="271.2,113.4 268.6,108.3 266.1,113.4 268.6,118.6 271.2,113.4 "/>
<polygon class="st1" points="271.2,113.4 268.6,108.3 266.1,113.4 268.6,118.6 "/>
<polyline class="st1" points="265.1,183.4 262,191.1 259,183.4 "/>
<text transform="matrix(0.85 0 0 1 170.0835 188.0075)" class="st2 st3">+consKeyValuePairAttribute</text>
<text transform="matrix(0.85 0 0 1 269.6304 188.0075)" class="st2 st3">0..*</text>
<text transform="matrix(0.85 0 0 1 530.6768 358.7424)" class="st2 st3">+consDataQualityAttribute</text>
<text transform="matrix(0.85 0 0 1 635.8096 359.258)" class="st2 st3">1</text>
<text transform="matrix(0.85 0 0 1 390.5049 154.57)" class="st2 st3">+consFacilityTypeAttribute</text>
<text transform="matrix(0.85 0 0 1 482.9346 170.5153)" class="st2 st3">0..*</text>
<text transform="matrix(0.85 0 0 1 503.2471 300.1164)" class="st2 st3">+consDmAttribute</text>
<text transform="matrix(0.85 0 0 1 559.1143 291.8825)" class="st2 st3">0..*</text>
<text transform="matrix(0.85 0 0 1 282.3179 162.2809)" class="st2 st3">+consFacilityIdAttribute</text>
<text transform="matrix(0.85 0 0 1 364.5986 168.4528)" class="st2 st3">0..1</text>
<text transform="matrix(0.85 0 0 1 459.0674 229.6559)" class="st2 st3">+consFacilityAttribute</text>
<text transform="matrix(0.85 0 0 1 546.9268 231.7106)" class="st2 st3">0..*</text>
<text transform="matrix(0.85 0 0 1 80.7007 412.7424)" class="st2 st3">+consStructureAttribute</text>
<text transform="matrix(0.85 0 0 1 169.0679 417.3674)" class="st2 st3">0..1</text>
<text transform="matrix(0.85 0 0 1 26.3569 168.9684)" class="st2 st3">+consBaseAttribute</text>
<text transform="matrix(0.85 0 0 1 99.9976 166.9138)" class="st2 st3">0..1</text>
<text transform="matrix(0.85 0 0 1 505.7861 547.4846)" class="st2 st3">+publicSurveyDataQualityAttribute</text>
<text transform="matrix(0.85 0 0 1 625.6455 547.4846)" class="st2 st3">0..1</text>
</svg>
