<?xml version="1.0" encoding="utf-8"?>
<!-- Generator: Adobe Illustrator 28.1.0, SVG Export Plug-In . SVG Version: 6.00 Build 0)  -->
<svg version="1.1" id="レイヤー_1" xmlns="http://www.w3.org/2000/svg" xmlns:xlink="http://www.w3.org/1999/xlink" x="0px"
	 y="0px" viewBox="0 0 558.2 704.1" style="enable-background:new 0 0 558.2 704.1;" xml:space="preserve">
<style type="text/css">
	.st0{fill-rule:evenodd;clip-rule:evenodd;fill:#FFFFCC;}
	.st1{fill:none;stroke:#000000;stroke-width:1.0286;stroke-linecap:round;stroke-linejoin:bevel;stroke-miterlimit:10;}
	.st2{font-family:'YuGothicUI-Regular';}
	.st3{font-size:7.0389px;}
	.st4{font-size:6.6857px;}
	.st5{fill:none;stroke:#000000;stroke-width:0.191;stroke-miterlimit:10;}
	.st6{fill-rule:evenodd;clip-rule:evenodd;fill:#FFCCFF;}
	.st7{font-family:'YuGothicUI-Bold';}
	.st8{fill-rule:evenodd;clip-rule:evenodd;}
	.st9{fill-rule:evenodd;clip-rule:evenodd;fill:#FFFFFF;}
</style>
<polygon class="st0" points="233.5,96 318.3,96 318.3,54.9 233.5,54.9 "/>
<polygon class="st1" points="233.5,96 318.3,96 318.3,54.9 233.5,54.9 "/>
<text transform="matrix(0.85 0 -0.3127 0.9499 281.4597 63.6272)" class="st2 st3">_CityObject</text>
<text transform="matrix(0.85 0 0 1 254.8374 75.4611)" class="st2 st4">«featureType»</text>
<text transform="matrix(0.85 0 -0.3127 0.9499 240.6162 84.1975)" class="st2 st3">v</text>
<text transform="matrix(0.85 0 -0.3127 0.9499 240.6162 84.1975)" class="st5 st2 st3">v</text>
<text transform="matrix(0.85 0 -0.3127 0.9499 244.1689 84.1975)" class="st2 st3">e</text>
<text transform="matrix(0.85 0 -0.3127 0.9499 244.1689 84.1975)" class="st5 st2 st3">e</text>
<text transform="matrix(0.85 0 -0.3127 0.9499 247.7197 84.1975)" class="st2 st3">g</text>
<text transform="matrix(0.85 0 -0.3127 0.9499 247.7197 84.1975)" class="st5 st2 st3">g</text>
<text transform="matrix(0.85 0 -0.3127 0.9499 251.7803 84.1975)" class="st2 st3">::</text>
<text transform="matrix(0.85 0 -0.3127 0.9499 251.7803 84.1975)" class="st5 st2 st3">::</text>
<text transform="matrix(0.85 0 -0.3127 0.9499 254.8154 84.1975)" class="st2 st3">_</text>
<text transform="matrix(0.85 0 -0.3127 0.9499 254.8154 84.1975)" class="st5 st2 st3">_</text>
<text transform="matrix(0.85 0 -0.3127 0.9499 257.3564 84.1975)" class="st2 st3">V</text>
<text transform="matrix(0.85 0 -0.3127 0.9499 257.3564 84.1975)" class="st5 st2 st3">V</text>
<text transform="matrix(0.85 0 -0.3127 0.9499 261.4248 84.1975)" class="st2 st3">e</text>
<text transform="matrix(0.85 0 -0.3127 0.9499 261.4248 84.1975)" class="st5 st2 st3">e</text>
<text transform="matrix(0.85 0 -0.3127 0.9499 264.9756 84.1975)" class="st2 st3">g</text>
<text transform="matrix(0.85 0 -0.3127 0.9499 264.9756 84.1975)" class="st5 st2 st3">g</text>
<text transform="matrix(0.85 0 -0.3127 0.9499 269.0361 84.1975)" class="st2 st3">e</text>
<text transform="matrix(0.85 0 -0.3127 0.9499 269.0361 84.1975)" class="st5 st2 st3">e</text>
<text transform="matrix(0.85 0 -0.3127 0.9499 272.5869 84.1975)" class="st2 st3">t</text>
<text transform="matrix(0.85 0 -0.3127 0.9499 272.5869 84.1975)" class="st5 st2 st3">t</text>
<text transform="matrix(0.85 0 -0.3127 0.9499 275.1221 84.1975)" class="st2 st3">a</text>
<text transform="matrix(0.85 0 -0.3127 0.9499 275.1221 84.1975)" class="st5 st2 st3">a</text>
<text transform="matrix(0.85 0 -0.3127 0.9499 278.6729 84.1975)" class="st2 st3">t</text>
<text transform="matrix(0.85 0 -0.3127 0.9499 278.6729 84.1975)" class="st5 st2 st3">t</text>
<text transform="matrix(0.85 0 -0.3127 0.9499 281.2061 84.1975)" class="st2 st3">i</text>
<text transform="matrix(0.85 0 -0.3127 0.9499 281.2061 84.1975)" class="st5 st2 st3">i</text>
<text transform="matrix(0.85 0 -0.3127 0.9499 282.7334 84.1975)" class="st2 st3">o</text>
<text transform="matrix(0.85 0 -0.3127 0.9499 282.7334 84.1975)" class="st5 st2 st3">o</text>
<text transform="matrix(0.85 0 -0.3127 0.9499 286.7939 84.1975)" class="st2 st3">n</text>
<text transform="matrix(0.85 0 -0.3127 0.9499 286.7939 84.1975)" class="st5 st2 st3">n</text>
<text transform="matrix(0.85 0 -0.3127 0.9499 290.8525 84.1975)" class="st2 st3">O</text>
<text transform="matrix(0.85 0 -0.3127 0.9499 290.8525 84.1975)" class="st5 st2 st3">O</text>
<text transform="matrix(0.85 0 -0.3127 0.9499 295.9307 84.1975)" class="st2 st3">b</text>
<text transform="matrix(0.85 0 -0.3127 0.9499 295.9307 84.1975)" class="st5 st2 st3">b</text>
<text transform="matrix(0.85 0 -0.3127 0.9499 299.9893 84.1975)" class="st2 st3">j</text>
<text transform="matrix(0.85 0 -0.3127 0.9499 299.9893 84.1975)" class="st5 st2 st3">j</text>
<text transform="matrix(0.85 0 -0.3127 0.9499 301.5166 84.1975)" class="st2 st3">e</text>
<text transform="matrix(0.85 0 -0.3127 0.9499 301.5166 84.1975)" class="st5 st2 st3">e</text>
<text transform="matrix(0.85 0 -0.3127 0.9499 305.0674 84.1975)" class="st2 st3">ct</text>
<text transform="matrix(0.85 0 -0.3127 0.9499 305.0674 84.1975)" class="st5 st2 st3">ct</text>
<polygon class="st6" points="39.5,370.7 149.2,370.7 149.2,246.7 39.5,246.7 "/>
<polygon class="st1" points="39.5,370.7 149.2,370.7 149.2,246.7 39.5,246.7 "/>
<text transform="matrix(0.85 0 0 1 76.5718 257.0002)" class="st2 st4">«DataType»</text>
<text transform="matrix(0.85 0 0 1 59.814 265.7424)" class="st7 st4">uro::FacilityIdAttribute</text>
<line class="st1" x1="39.5" y1="269.9" x2="148.7" y2="269.9"/>
<text transform="matrix(0.85 0 0 1 42.0327 279.1096)" class="st2 st4">+</text>
<text transform="matrix(0.85 0 0 1 46.6021 279.1096)" class="st2 st4"> </text>
<text transform="matrix(0.85 0 0 1 53.2124 279.1096)" class="st2 st4">id: xs::string [0..1]</text>
<text transform="matrix(0.85 0 0 1 42.0327 287.8596)" class="st2 st4">+</text>
<text transform="matrix(0.85 0 0 1 46.6021 287.8596)" class="st2 st4"> </text>
<text transform="matrix(0.85 0 0 1 53.2124 287.8596)" class="st2 st4">partId: xs::string [0..1]</text>
<text transform="matrix(0.85 0 0 1 42.0327 296.6017)" class="st2 st4">+</text>
<text transform="matrix(0.85 0 0 1 46.6021 296.6017)" class="st2 st4"> </text>
<text transform="matrix(0.85 0 0 1 53.2124 296.6017)" class="st2 st4">branchId: xs::string [0..1]</text>
<text transform="matrix(0.85 0 0 1 42.0327 305.3361)" class="st2 st4">+</text>
<text transform="matrix(0.85 0 0 1 46.6021 305.3361)" class="st2 st4"> </text>
<text transform="matrix(0.85 0 0 1 53.2124 305.3361)" class="st2 st4">prefecture: gml::CodeType [0..*]</text>
<text transform="matrix(0.85 0 0 1 42.0327 314.0783)" class="st2 st4">+</text>
<text transform="matrix(0.85 0 0 1 46.6021 314.0783)" class="st2 st4"> </text>
<text transform="matrix(0.85 0 0 1 53.2124 314.0783)" class="st2 st4">city: gml::CodeType [0..*]</text>
<text transform="matrix(0.85 0 0 1 42.0327 322.8205)" class="st2 st4">+</text>
<text transform="matrix(0.85 0 0 1 46.6021 322.8205)" class="st2 st4"> </text>
<text transform="matrix(0.85 0 0 1 53.2124 322.8205)" class="st2 st4">route: xs::string [0..1]</text>
<text transform="matrix(0.85 0 0 1 42.0327 331.5705)" class="st2 st4">+</text>
<text transform="matrix(0.85 0 0 1 46.6021 331.5705)" class="st2 st4"> </text>
<text transform="matrix(0.85 0 0 1 53.2124 331.5705)" class="st2 st4">startPost: xs::string [0..1]</text>
<text transform="matrix(0.85 0 0 1 42.0327 340.3127)" class="st2 st4">+</text>
<text transform="matrix(0.85 0 0 1 46.6021 340.3127)" class="st2 st4"> </text>
<text transform="matrix(0.85 0 0 1 53.2124 340.3127)" class="st2 st4">endPost: xs::string [0..1]</text>
<text transform="matrix(0.85 0 0 1 42.0327 349.0549)" class="st2 st4">+</text>
<text transform="matrix(0.85 0 0 1 46.6021 349.0549)" class="st2 st4"> </text>
<text transform="matrix(0.85 0 0 1 53.2124 349.0549)" class="st2 st4">startLat: xs::double [0..1]</text>
<text transform="matrix(0.85 0 0 1 42.0327 357.8049)" class="st2 st4">+</text>
<text transform="matrix(0.85 0 0 1 46.6021 357.8049)" class="st2 st4"> </text>
<text transform="matrix(0.85 0 0 1 53.2124 357.8049)" class="st2 st4">startLong: xs::double [0..1]</text>
<text transform="matrix(0.85 0 0 1 42.0327 366.5392)" class="st2 st4">+</text>
<text transform="matrix(0.85 0 0 1 46.6021 366.5392)" class="st2 st4"> </text>
<text transform="matrix(0.85 0 0 1 53.2124 366.5392)" class="st2 st4">alternativeName: xs::string [0..*]</text>
<polygon class="st6" points="110.6,235.4 213.2,235.4 213.2,190.1 110.6,190.1 "/>
<polygon class="st1" points="110.6,235.4 213.2,235.4 213.2,190.1 110.6,190.1 "/>
<text transform="matrix(0.85 0 0 1 144.1187 200.4299)" class="st2 st4">«DataType»</text>
<text transform="matrix(0.85 0 0 1 123.2905 209.1642)" class="st7 st4">uro::FacilityTypeAttribute</text>
<line class="st1" x1="110.6" y1="213.3" x2="212.7" y2="213.3"/>
<text transform="matrix(0.85 0 0 1 113.1343 222.5392)" class="st2 st4">+</text>
<text transform="matrix(0.85 0 0 1 117.7036 222.5392)" class="st2 st4"> </text>
<text transform="matrix(0.85 0 0 1 124.3062 222.5392)" class="st2 st4">class: gml::CodeType [0..1]</text>
<text transform="matrix(0.85 0 0 1 113.1343 231.2892)" class="st2 st4">+</text>
<text transform="matrix(0.85 0 0 1 117.7036 231.2892)" class="st2 st4"> </text>
<text transform="matrix(0.85 0 0 1 124.3062 231.2892)" class="st2 st4">function: gml::CodeType [0..*]</text>
<polygon class="st0" points="410.2,204 551.4,204 551.4,126.9 410.2,126.9 "/>
<polygon class="st1" points="410.2,204 551.4,204 551.4,126.9 410.2,126.9 "/>
<text transform="matrix(0.85 0 0 1 459.001 137.1642)" class="st2 st4">«FeatureType»</text>
<text transform="matrix(0.85 0 0 1 456.9697 145.9064)" class="st7 st4">veg::PlantCover</text>
<line class="st1" x1="410.2" y1="150" x2="550.9" y2="150"/>
<text transform="matrix(0.85 0 0 1 412.7822 159.2892)" class="st2 st4">+</text>
<text transform="matrix(0.85 0 0 1 417.3516 159.2892)" class="st2 st4"> </text>
<text transform="matrix(0.85 0 0 1 423.9541 159.2892)" class="st2 st4">class: gml::CodeType [0..1]</text>
<text transform="matrix(0.85 0 0 1 412.7822 168.0236)" class="st2 st4">+</text>
<text transform="matrix(0.85 0 0 1 417.3516 168.0236)" class="st2 st4"> </text>
<text transform="matrix(0.85 0 0 1 423.9541 168.0236)" class="st2 st4">function: gml::CodeType [0..*]</text>
<text transform="matrix(0.85 0 0 1 412.7822 176.7658)" class="st2 st4">+</text>
<text transform="matrix(0.85 0 0 1 417.3516 176.7658)" class="st2 st4"> </text>
<text transform="matrix(0.85 0 0 1 423.9541 176.7658)" class="st2 st4">usage: gml::CodeType [0..*]</text>
<text transform="matrix(0.85 0 0 1 412.7822 185.5158)" class="st2 st4">+</text>
<text transform="matrix(0.85 0 0 1 417.3516 185.5158)" class="st2 st4"> </text>
<text transform="matrix(0.85 0 0 1 423.9541 185.5158)" class="st2 st4">averageHeight: gml::LengthType [0..1]</text>
<polygon class="st0" points="410.8,113.5 551.4,113.5 551.4,5.5 410.8,5.5 "/>
<polygon class="st1" points="410.8,113.5 551.4,113.5 551.4,5.5 410.8,5.5 "/>
<text transform="matrix(0.85 0 0 1 459.5088 15.7971)" class="st2 st4">«FeatureType»</text>
<text transform="matrix(0.85 0 0 1 435.6338 24.5392)" class="st7 st4">veg::SolitaryVegetationObject</text>
<line class="st1" x1="410.8" y1="28.7" x2="550.9" y2="28.7"/>
<text transform="matrix(0.85 0 0 1 413.29 37.9142)" class="st2 st4">+</text>
<text transform="matrix(0.85 0 0 1 417.8594 37.9142)" class="st2 st4"> </text>
<text transform="matrix(0.85 0 0 1 424.4619 37.9142)" class="st2 st4">class: gml::CodeType [0..1]</text>
<text transform="matrix(0.85 0 0 1 413.29 46.6564)" class="st2 st4">+</text>
<text transform="matrix(0.85 0 0 1 417.8594 46.6564)" class="st2 st4"> </text>
<text transform="matrix(0.85 0 0 1 424.4619 46.6564)" class="st2 st4">function: gml::CodeType [0..*]</text>
<text transform="matrix(0.85 0 0 1 413.29 55.3986)" class="st2 st4">+</text>
<text transform="matrix(0.85 0 0 1 417.8594 55.3986)" class="st2 st4"> </text>
<text transform="matrix(0.85 0 0 1 424.4619 55.3986)" class="st2 st4">usage: gml::CodeType [0..*]</text>
<text transform="matrix(0.85 0 0 1 413.29 64.1408)" class="st2 st4">+</text>
<text transform="matrix(0.85 0 0 1 417.8594 64.1408)" class="st2 st4"> </text>
<text transform="matrix(0.85 0 0 1 424.4619 64.1408)" class="st2 st4">species: gml::CodeType [0..1]</text>
<text transform="matrix(0.85 0 0 1 413.29 72.883)" class="st2 st4">+</text>
<text transform="matrix(0.85 0 0 1 417.8594 72.883)" class="st2 st4"> </text>
<text transform="matrix(0.85 0 0 1 424.4619 72.883)" class="st2 st4">height: gml::LengthType [0..1]</text>
<text transform="matrix(0.85 0 0 1 413.29 81.633)" class="st2 st4">+</text>
<text transform="matrix(0.85 0 0 1 417.8594 81.633)" class="st2 st4"> </text>
<text transform="matrix(0.85 0 0 1 424.4619 81.633)" class="st2 st4">trunckDiamiter: gml::LengthType [0..1]</text>
<text transform="matrix(0.85 0 0 1 413.29 90.3674)" class="st2 st4">+</text>
<text transform="matrix(0.85 0 0 1 417.8594 90.3674)" class="st2 st4"> </text>
<text transform="matrix(0.85 0 0 1 424.4619 90.3674)" class="st2 st4">crownDiamiter: gml::LengthType [0..1]</text>
<polygon class="st6" points="237.6,252.9 323.4,252.9 323.4,211.7 237.6,211.7 "/>
<polygon class="st1" points="237.6,252.9 323.4,252.9 323.4,211.7 237.6,211.7 "/>
<text transform="matrix(0.85 0 0 1 262.9624 222.0314)" class="st2 st4">«DataType»</text>
<text transform="matrix(0.85 0 -0.3127 0.9499 249.2418 230.7723)" class="st2 st3">u</text>
<text transform="matrix(0.85 0 -0.3127 0.9499 249.2418 230.7723)" class="st5 st2 st3">u</text>
<text transform="matrix(0.85 0 -0.3127 0.9499 253.3024 230.7723)" class="st2 st3">r</text>
<text transform="matrix(0.85 0 -0.3127 0.9499 253.3024 230.7723)" class="st5 st2 st3">r</text>
<text transform="matrix(0.85 0 -0.3127 0.9499 255.8356 230.7723)" class="st2 st3">o</text>
<text transform="matrix(0.85 0 -0.3127 0.9499 255.8356 230.7723)" class="st5 st2 st3">o</text>
<text transform="matrix(0.85 0 -0.3127 0.9499 259.8961 230.7723)" class="st2 st3">::</text>
<text transform="matrix(0.85 0 -0.3127 0.9499 259.8961 230.7723)" class="st5 st2 st3">::</text>
<text transform="matrix(0.85 0 -0.3127 0.9499 262.9294 230.7723)" class="st2 st3">F</text>
<text transform="matrix(0.85 0 -0.3127 0.9499 262.9294 230.7723)" class="st5 st2 st3">F</text>
<text transform="matrix(0.85 0 -0.3127 0.9499 266.484 230.7723)" class="st2 st3">a</text>
<text transform="matrix(0.85 0 -0.3127 0.9499 266.484 230.7723)" class="st5 st2 st3">a</text>
<text transform="matrix(0.85 0 -0.3127 0.9499 270.0348 230.7723)" class="st2 st3">c</text>
<text transform="matrix(0.85 0 -0.3127 0.9499 270.0348 230.7723)" class="st5 st2 st3">c</text>
<text transform="matrix(0.85 0 -0.3127 0.9499 273.0836 230.7723)" class="st2 st3">ili</text>
<text transform="matrix(0.85 0 -0.3127 0.9499 273.0836 230.7723)" class="st5 st2 st3">ili</text>
<text transform="matrix(0.85 0 -0.3127 0.9499 277.6637 230.7723)" class="st2 st3">t</text>
<text transform="matrix(0.85 0 -0.3127 0.9499 277.6637 230.7723)" class="st5 st2 st3">t</text>
<text transform="matrix(0.85 0 -0.3127 0.9499 280.1969 230.7723)" class="st2 st3">y</text>
<text transform="matrix(0.85 0 -0.3127 0.9499 280.1969 230.7723)" class="st5 st2 st3">y</text>
<text transform="matrix(0.85 0 -0.3127 0.9499 283.7497 230.7723)" class="st2 st3">A</text>
<text transform="matrix(0.85 0 -0.3127 0.9499 283.7497 230.7723)" class="st5 st2 st3">A</text>
<text transform="matrix(0.85 0 -0.3127 0.9499 288.318 230.7723)" class="st2 st3">tt</text>
<text transform="matrix(0.85 0 -0.3127 0.9499 288.318 230.7723)" class="st5 st2 st3">tt</text>
<text transform="matrix(0.85 0 -0.3127 0.9499 293.3864 230.7723)" class="st2 st3">r</text>
<text transform="matrix(0.85 0 -0.3127 0.9499 293.3864 230.7723)" class="st5 st2 st3">r</text>
<text transform="matrix(0.85 0 -0.3127 0.9499 295.9196 230.7723)" class="st2 st3">i</text>
<text transform="matrix(0.85 0 -0.3127 0.9499 295.9196 230.7723)" class="st5 st2 st3">i</text>
<text transform="matrix(0.85 0 -0.3127 0.9499 297.4469 230.7723)" class="st2 st3">b</text>
<text transform="matrix(0.85 0 -0.3127 0.9499 297.4469 230.7723)" class="st5 st2 st3">b</text>
<text transform="matrix(0.85 0 -0.3127 0.9499 301.5055 230.7723)" class="st2 st3">u</text>
<text transform="matrix(0.85 0 -0.3127 0.9499 301.5055 230.7723)" class="st5 st2 st3">u</text>
<text transform="matrix(0.85 0 -0.3127 0.9499 305.5661 230.7723)" class="st2 st3">t</text>
<text transform="matrix(0.85 0 -0.3127 0.9499 305.5661 230.7723)" class="st5 st2 st3">t</text>
<text transform="matrix(0.85 0 -0.3127 0.9499 308.0993 230.7723)" class="st2 st3">e</text>
<text transform="matrix(0.85 0 -0.3127 0.9499 308.0993 230.7723)" class="st5 st2 st3">e</text>
<line class="st1" x1="237.6" y1="234.9" x2="322.9" y2="234.9"/>
<text transform="matrix(0.85 0 0 1 240.1108 244.1408)" class="st2 st4">+</text>
<text transform="matrix(0.85 0 0 1 244.6802 244.1408)" class="st2 st4"> </text>
<text transform="matrix(0.85 0 0 1 251.2827 244.1408)" class="st2 st4">facilityId: xs::string [0..1]</text>
<polygon class="st6" points="167.5,322.8 279.2,322.8 279.2,277.6 167.5,277.6 "/>
<polygon class="st1" points="167.5,322.8 279.2,322.8 279.2,277.6 167.5,277.6 "/>
<text transform="matrix(0.85 0 0 1 205.564 287.8596)" class="st2 st4">«DataType»</text>
<text transform="matrix(0.85 0 -0.3127 0.9499 196.9323 296.6028)" class="st2 st3">u</text>
<text transform="matrix(0.85 0 -0.3127 0.9499 196.9323 296.6028)" class="st5 st2 st3">u</text>
<text transform="matrix(0.85 0 -0.3127 0.9499 200.9919 296.6028)" class="st2 st3">r</text>
<text transform="matrix(0.85 0 -0.3127 0.9499 200.9919 296.6028)" class="st5 st2 st3">r</text>
<text transform="matrix(0.85 0 -0.3127 0.9499 203.5251 296.6028)" class="st2 st3">o</text>
<text transform="matrix(0.85 0 -0.3127 0.9499 203.5251 296.6028)" class="st5 st2 st3">o</text>
<text transform="matrix(0.85 0 -0.3127 0.9499 207.5866 296.6028)" class="st2 st3">::</text>
<text transform="matrix(0.85 0 -0.3127 0.9499 207.5866 296.6028)" class="st5 st2 st3">::</text>
<text transform="matrix(0.85 0 -0.3127 0.9499 210.6198 296.6028)" class="st2 st3">D</text>
<text transform="matrix(0.85 0 -0.3127 0.9499 210.6198 296.6028)" class="st5 st2 st3">D</text>
<text transform="matrix(0.85 0 -0.3127 0.9499 215.196 296.6028)" class="st2 st3">m</text>
<text transform="matrix(0.85 0 -0.3127 0.9499 215.196 296.6028)" class="st5 st2 st3">m</text>
<text transform="matrix(0.85 0 -0.3127 0.9499 221.2858 296.6028)" class="st2 st3">A</text>
<text transform="matrix(0.85 0 -0.3127 0.9499 221.2858 296.6028)" class="st5 st2 st3">A</text>
<text transform="matrix(0.85 0 -0.3127 0.9499 225.8561 296.6028)" class="st2 st3">tt</text>
<text transform="matrix(0.85 0 -0.3127 0.9499 225.8561 296.6028)" class="st5 st2 st3">tt</text>
<text transform="matrix(0.85 0 -0.3127 0.9499 230.9245 296.6028)" class="st2 st3">r</text>
<text transform="matrix(0.85 0 -0.3127 0.9499 230.9245 296.6028)" class="st5 st2 st3">r</text>
<text transform="matrix(0.85 0 -0.3127 0.9499 233.4577 296.6028)" class="st2 st3">i</text>
<text transform="matrix(0.85 0 -0.3127 0.9499 233.4577 296.6028)" class="st5 st2 st3">i</text>
<text transform="matrix(0.85 0 -0.3127 0.9499 234.9831 296.6028)" class="st2 st3">b</text>
<text transform="matrix(0.85 0 -0.3127 0.9499 234.9831 296.6028)" class="st5 st2 st3">b</text>
<text transform="matrix(0.85 0 -0.3127 0.9499 239.0436 296.6028)" class="st2 st3">u</text>
<text transform="matrix(0.85 0 -0.3127 0.9499 239.0436 296.6028)" class="st5 st2 st3">u</text>
<text transform="matrix(0.85 0 -0.3127 0.9499 243.1022 296.6028)" class="st2 st3">t</text>
<text transform="matrix(0.85 0 -0.3127 0.9499 243.1022 296.6028)" class="st5 st2 st3">t</text>
<text transform="matrix(0.85 0 -0.3127 0.9499 245.6374 296.6028)" class="st2 st3">e</text>
<text transform="matrix(0.85 0 -0.3127 0.9499 245.6374 296.6028)" class="st5 st2 st3">e</text>
<line class="st1" x1="167.5" y1="300.7" x2="278.7" y2="300.7"/>
<text transform="matrix(0.85 0 0 1 170.0171 309.9689)" class="st2 st4">+</text>
<text transform="matrix(0.85 0 0 1 174.5864 309.9689)" class="st2 st4"> </text>
<text transform="matrix(0.85 0 0 1 181.189 309.9689)" class="st2 st4">dmCode: gml::CodeType</text>
<text transform="matrix(0.85 0 0 1 170.0171 318.7111)" class="st2 st4">+</text>
<text transform="matrix(0.85 0 0 1 174.5864 318.7111)" class="st2 st4"> </text>
<text transform="matrix(0.85 0 0 1 181.189 318.7111)" class="st2 st4">meshCode: gml::CodeType [0..1]</text>
<polygon class="st6" points="5,700.3 159.4,700.3 159.4,585.1 5,585.1 "/>
<polygon class="st1" points="5,700.3 159.4,700.3 159.4,585.1 5,585.1 "/>
<text transform="matrix(0.85 0 0 1 64.3843 595.3986)" class="st2 st4">«DataType»</text>
<text transform="matrix(0.85 0 0 1 24.7671 604.1408)" class="st7 st4">uro::PublicSuveyDataQualityAttribute</text>
<line class="st1" x1="5" y1="608.3" x2="158.8" y2="608.3"/>
<text transform="matrix(0.85 0 0 1 7.5015 617.508)" class="st2 st4">+</text>
<text transform="matrix(0.85 0 0 1 12.0708 617.508)" class="st2 st4"> </text>
<text transform="matrix(0.85 0 0 1 18.6733 617.508)" class="st2 st4">srcScaleLod0: gml::CodeType [0..1]</text>
<text transform="matrix(0.85 0 0 1 7.5015 626.258)" class="st2 st4">+</text>
<text transform="matrix(0.85 0 0 1 12.0708 626.258)" class="st2 st4"> </text>
<text transform="matrix(0.85 0 0 1 18.6733 626.258)" class="st2 st4">srcScaleLod1: gml::CodeType [0..1]</text>
<text transform="matrix(0.85 0 0 1 7.5015 635.0002)" class="st2 st4">+</text>
<text transform="matrix(0.85 0 0 1 12.0708 635.0002)" class="st2 st4"> </text>
<text transform="matrix(0.85 0 0 1 18.6733 635.0002)" class="st2 st4">srcScaleLod2: gml::CodeType [0..1]</text>
<text transform="matrix(0.85 0 0 1 7.5015 643.7424)" class="st2 st4">+</text>
<text transform="matrix(0.85 0 0 1 12.0708 643.7424)" class="st2 st4"> </text>
<text transform="matrix(0.85 0 0 1 18.6733 643.7424)" class="st2 st4">srcScaleLod3: gml::CodeType [0..1]</text>
<text transform="matrix(0.85 0 0 1 7.5015 652.4924)" class="st2 st4">+</text>
<text transform="matrix(0.85 0 0 1 12.0708 652.4924)" class="st2 st4"> </text>
<text transform="matrix(0.85 0 0 1 18.6733 652.4924)" class="st2 st4">srcScaleLod4: gml::CodeType [0..1]</text>
<text transform="matrix(0.85 0 0 1 7.5015 661.2267)" class="st2 st4">+</text>
<text transform="matrix(0.85 0 0 1 12.0708 661.2267)" class="st2 st4"> </text>
<text transform="matrix(0.85 0 0 1 18.6733 661.2267)" class="st2 st4">publicSurveySrcDescLod0: gml::CodeType [0..*]</text>
<text transform="matrix(0.85 0 0 1 7.5015 669.9689)" class="st2 st4">+</text>
<text transform="matrix(0.85 0 0 1 12.0708 669.9689)" class="st2 st4"> </text>
<text transform="matrix(0.85 0 0 1 18.6733 669.9689)" class="st2 st4">publicSurveySrcDescLod1: gml::CodeType [0..*]</text>
<text transform="matrix(0.85 0 0 1 7.5015 678.7111)" class="st2 st4">+</text>
<text transform="matrix(0.85 0 0 1 12.0708 678.7111)" class="st2 st4"> </text>
<text transform="matrix(0.85 0 0 1 18.6733 678.7111)" class="st2 st4">publicSurveySrcDescLod2: gml::CodeType [0..*]</text>
<text transform="matrix(0.85 0 0 1 7.5015 687.4455)" class="st2 st4">+</text>
<text transform="matrix(0.85 0 0 1 12.0708 687.4455)" class="st2 st4"> </text>
<text transform="matrix(0.85 0 0 1 18.6733 687.4455)" class="st2 st4">publicSurveySrcDescLod3: gml::CodeType [0..*]</text>
<text transform="matrix(0.85 0 0 1 7.5015 696.1955)" class="st2 st4">+</text>
<text transform="matrix(0.85 0 0 1 12.0708 696.1955)" class="st2 st4"> </text>
<text transform="matrix(0.85 0 0 1 18.6733 696.1955)" class="st2 st4">publicSurveySrcDescLod4: gml::CodeType [0..*]</text>
<polygon class="st6" points="233.5,390.7 374.7,390.7 374.7,336.7 233.5,336.7 "/>
<polygon class="st1" points="233.5,390.7 374.7,390.7 374.7,336.7 233.5,336.7 "/>
<text transform="matrix(0.85 0 0 1 286.3213 347.0002)" class="st2 st4">«DataType»</text>
<text transform="matrix(0.85 0 0 1 263.4702 355.7424)" class="st7 st4">uro::KeyValuePairAttribute</text>
<line class="st1" x1="233.5" y1="359.9" x2="374.2" y2="359.9"/>
<text transform="matrix(0.85 0 0 1 236.0483 369.1096)" class="st2 st4">+</text>
<text transform="matrix(0.85 0 0 1 240.6177 369.1096)" class="st2 st4"> </text>
<text transform="matrix(0.85 0 0 1 247.2202 369.1096)" class="st2 st4">key: gml::CodeType</text>
<text transform="matrix(0.85 0 0 1 236.0483 377.8596)" class="st2 st4">+</text>
<text transform="matrix(0.85 0 0 1 240.6177 377.8596)" class="st2 st4"> </text>
<text transform="matrix(0.85 0 0 1 247.2202 377.8596)" class="st2 st4">codeValue: gml::CodeType [0..1]</text>
<polygon class="st6" points="6,545 158.3,545 158.3,394.8 6,394.8 "/>
<polygon class="st1" points="6,545 158.3,545 158.3,394.8 6,394.8 "/>
<text transform="matrix(0.85 0 0 1 64.3843 405.1174)" class="st2 st4">«DataType»</text>
<text transform="matrix(0.85 0 0 1 43.0483 413.8517)" class="st7 st4">uro::DataQualityAttribute</text>
<line class="st1" x1="6" y1="418" x2="157.8" y2="418"/>
<text transform="matrix(0.85 0 0 1 8.5171 427.2267)" class="st2 st4">+</text>
<text transform="matrix(0.85 0 0 1 13.0864 427.2267)" class="st2 st4"> </text>
<text transform="matrix(0.85 0 0 1 19.689 427.2267)" class="st2 st4">geometrySrcDescLod0: gml::CodeType [0..*]</text>
<text transform="matrix(0.85 0 0 1 8.5171 435.9611)" class="st2 st4">+</text>
<text transform="matrix(0.85 0 0 1 13.0864 435.9611)" class="st2 st4"> </text>
<text transform="matrix(0.85 0 0 1 19.689 435.9611)" class="st2 st4">geometrySrcDescLod1: gml::CodeType [1..*]</text>
<text transform="matrix(0.85 0 0 1 8.5171 444.7111)" class="st2 st4">+</text>
<text transform="matrix(0.85 0 0 1 13.0864 444.7111)" class="st2 st4"> </text>
<text transform="matrix(0.85 0 0 1 19.689 444.7111)" class="st2 st4">geometrySrcDescLod2: gml::CodeType [0..*]</text>
<text transform="matrix(0.85 0 0 1 8.5171 453.4533)" class="st2 st4">+</text>
<text transform="matrix(0.85 0 0 1 13.0864 453.4533)" class="st2 st4"> </text>
<text transform="matrix(0.85 0 0 1 19.689 453.4533)" class="st2 st4">geometrySrcDescLod3: gml::CodeType [0..*]</text>
<text transform="matrix(0.85 0 0 1 8.5171 462.1955)" class="st2 st4">+</text>
<text transform="matrix(0.85 0 0 1 13.0864 462.1955)" class="st2 st4"> </text>
<text transform="matrix(0.85 0 0 1 19.689 462.1955)" class="st2 st4">geometrySrcDescLod4: gml::CodeType [0..*]</text>
<text transform="matrix(0.85 0 0 1 8.5171 470.9455)" class="st2 st4">+</text>
<text transform="matrix(0.85 0 0 1 13.0864 470.9455)" class="st2 st4"> </text>
<text transform="matrix(0.85 0 0 1 19.689 470.9455)" class="st2 st4">thematicSrcDesc: gml::CodeType [0..*]</text>
<text transform="matrix(0.85 0 0 1 8.5171 479.6877)" class="st2 st4">+</text>
<text transform="matrix(0.85 0 0 1 13.0864 479.6877)" class="st2 st4"> </text>
<text transform="matrix(0.85 0 0 1 19.689 479.6877)" class="st2 st4">appearanceSrcDescLod0: gml::CodeType [0..*]</text>
<text transform="matrix(0.85 0 0 1 8.5171 488.4299)" class="st2 st4">+</text>
<text transform="matrix(0.85 0 0 1 13.0864 488.4299)" class="st2 st4"> </text>
<text transform="matrix(0.85 0 0 1 19.689 488.4299)" class="st2 st4">appearanceSrcDescLod1: gml::CodeType [0..*]</text>
<text transform="matrix(0.85 0 0 1 8.5171 497.1642)" class="st2 st4">+</text>
<text transform="matrix(0.85 0 0 1 13.0864 497.1642)" class="st2 st4"> </text>
<text transform="matrix(0.85 0 0 1 19.689 497.1642)" class="st2 st4">appearanceSrcDescLod2: gml::CodeType [0..*]</text>
<text transform="matrix(0.85 0 0 1 8.5171 505.9064)" class="st2 st4">+</text>
<text transform="matrix(0.85 0 0 1 13.0864 505.9064)" class="st2 st4"> </text>
<text transform="matrix(0.85 0 0 1 19.689 505.9064)" class="st2 st4">appearanceSrcDescLod3: gml::CodeType [0..*]</text>
<text transform="matrix(0.85 0 0 1 8.5171 514.6564)" class="st2 st4">+</text>
<text transform="matrix(0.85 0 0 1 13.0864 514.6564)" class="st2 st4"> </text>
<text transform="matrix(0.85 0 0 1 19.689 514.6564)" class="st2 st4">appearanceSrcDescLod4: gml::CodeType [0..*]</text>
<text transform="matrix(0.85 0 0 1 8.5171 523.3986)" class="st2 st4">+</text>
<text transform="matrix(0.85 0 0 1 13.0864 523.3986)" class="st2 st4"> </text>
<text transform="matrix(0.85 0 0 1 19.689 523.3986)" class="st2 st4">lodType: gml::CodeType [0..*]</text>
<text transform="matrix(0.85 0 0 1 8.5171 532.133)" class="st2 st4">+</text>
<text transform="matrix(0.85 0 0 1 13.0864 532.133)" class="st2 st4"> </text>
<text transform="matrix(0.85 0 0 1 19.689 532.133)" class="st2 st4">lod1HeightType: gml::CodeType [0..1]</text>
<text transform="matrix(0.85 0 0 1 8.5171 540.883)" class="st2 st4">+</text>
<text transform="matrix(0.85 0 0 1 13.0864 540.883)" class="st2 st4"> </text>
<text transform="matrix(0.85 0 0 1 19.689 540.883)" class="st2 st4">tranDataAcquisition: xs::string [0..1]</text>
<line class="st1" x1="29.8" y1="394.3" x2="29.8" y2="121.7"/>
<line class="st1" x1="29.8" y1="121.7" x2="275.7" y2="121.7"/>
<line class="st1" x1="275.7" y1="121.7" x2="275.7" y2="96.5"/>
<polyline class="st8" points="278.2,101.7 275.7,96.5 273.1,101.7 275.7,106.8 278.2,101.7 "/>
<polyline class="st1" points="278.2,101.7 275.7,96.5 273.1,101.7 275.7,106.8 "/>
<polyline class="st1" points="32.9,386.6 29.8,394.3 26.8,386.6 "/>
<line class="st1" x1="221.3" y1="277.1" x2="221.3" y2="121.7"/>
<polyline class="st8" points="278.2,101.7 275.7,96.5 273.1,101.7 275.7,106.8 278.2,101.7 "/>
<polyline class="st1" points="278.2,101.7 275.7,96.5 273.1,101.7 275.7,106.8 "/>
<polyline class="st1" points="224.4,269.3 221.3,277.1 218.3,269.3 "/>
<line class="st1" x1="291.9" y1="211.2" x2="291.9" y2="121.7"/>
<polyline class="st8" points="278.2,101.7 275.7,96.5 273.1,101.7 275.7,106.8 278.2,101.7 "/>
<polyline class="st1" points="278.2,101.7 275.7,96.5 273.1,101.7 275.7,106.8 "/>
<polyline class="st1" points="295,203.5 291.9,211.2 288.9,203.5 "/>
<line class="st1" x1="410.2" y1="58.5" x2="343.7" y2="58.5"/>
<line class="st1" x1="343.7" y1="58.5" x2="343.7" y2="75.5"/>
<line class="st1" x1="343.7" y1="75.5" x2="318.8" y2="75.5"/>
<polyline class="st9" points="327,72.4 327,78.5 318.8,75.5 327,72.4 "/>
<polygon class="st1" points="327,72.4 327,78.5 318.8,75.5 "/>
<line class="st1" x1="409.7" y1="164.4" x2="343.7" y2="164.4"/>
<line class="st1" x1="343.7" y1="164.4" x2="343.7" y2="75.5"/>
<line class="st1" x1="175.6" y1="189.6" x2="175.6" y2="121.7"/>
<polyline class="st8" points="278.2,101.7 275.7,96.5 273.1,101.7 275.7,106.8 278.2,101.7 "/>
<polyline class="st1" points="278.2,101.7 275.7,96.5 273.1,101.7 275.7,106.8 "/>
<polyline class="st1" points="178.7,181.9 175.6,189.6 172.6,181.9 "/>
<line class="st1" x1="94.3" y1="246.2" x2="94.3" y2="121.7"/>
<polyline class="st8" points="278.2,101.7 275.7,96.5 273.1,101.7 275.7,106.8 278.2,101.7 "/>
<polyline class="st1" points="278.2,101.7 275.7,96.5 273.1,101.7 275.7,106.8 "/>
<polyline class="st1" points="97.4,238.5 94.3,246.2 91.3,238.5 "/>
<line class="st1" x1="332" y1="336.2" x2="332" y2="121.7"/>
<line class="st1" x1="332" y1="121.7" x2="275.7" y2="121.7"/>
<polyline class="st8" points="278.2,101.7 275.7,96.5 273.1,101.7 275.7,106.8 278.2,101.7 "/>
<polygon class="st1" points="278.2,101.7 275.7,96.5 273.1,101.7 275.7,106.8 "/>
<polyline class="st1" points="335.1,328.5 332,336.2 329,328.5 "/>
<line class="st1" x1="138.5" y1="584.6" x2="138" y2="545.5"/>
<polyline class="st8" points="140.6,550.7 138,545.5 135.5,550.7 138,555.8 140.6,550.7 "/>
<polygon class="st1" points="140.6,550.7 138,545.5 135.5,550.7 138,555.8 "/>
<polyline class="st1" points="141.6,576.9 138.5,584.6 135.5,576.9 "/>
<text transform="matrix(0.85 0 0 1 226.3921 202.4924)" class="st2 st4">+vegFacilityAttribute</text>
<text transform="matrix(0.85 0 0 1 304.6025 204.0314)" class="st2 st4">0..*</text>
<text transform="matrix(0.85 0 0 1 160.3765 269.8517)" class="st2 st4">+vegDmAttribute</text>
<text transform="matrix(0.85 0 0 1 230.9624 275.0002)" class="st2 st4">0</text>
<text transform="matrix(0.85 0 0 1 234.5215 275.0002)" class="st2 st4">..</text>
<text transform="matrix(0.85 0 0 1 237.5557 275.0002)" class="st2 st4">*</text>
<text transform="matrix(0.85 0 0 1 96.3765 171.633)" class="st2 st4">+vegFacilityTypeAttribute</text>
<text transform="matrix(0.85 0 0 1 185.7671 186.0236)" class="st2 st4">0..*</text>
<text transform="matrix(0.85 0 0 1 25.2749 229.7424)" class="st2 st4">+vegFacilityIdAttribute</text>
<text transform="matrix(0.85 0 0 1 107.5483 243.1174)" class="st2 st4">0..1</text>
<text transform="matrix(0.85 0 0 1 240.6187 334.1408)" class="st2 st4">+vegKeyValuePairAttribute</text>
<text transform="matrix(0.85 0 0 1 340.1572 332.5939)" class="st2 st4">0..*</text>
<text transform="matrix(0.85 0 0 1 58.2905 389.1642)" class="st2 st4">+vegDataQualityAttribute</text>
<text transform="matrix(0.85 0 0 1 17.6577 389.1642)" class="st2 st4">1</text>
<text transform="matrix(0.85 0 0 1 21.2124 583.0549)" class="st2 st4">+publicSurveyDataQualityAttribute</text>
<text transform="matrix(0.85 0 0 1 143.6108 581.008)" class="st2 st4">0..1</text>
</svg>
