<?xml version="1.0" encoding="utf-8"?>
<!-- Generator: Adobe Illustrator 26.5.2, SVG Export Plug-In . SVG Version: 6.00 Build 0)  -->
<svg version="1.1" id="レイヤー_1" xmlns="http://www.w3.org/2000/svg" xmlns:xlink="http://www.w3.org/1999/xlink" x="0px"
	 y="0px" viewBox="0 0 585.2 365.3" style="enable-background:new 0 0 585.2 365.3;" xml:space="preserve">
<style type="text/css">
	.st0{fill-rule:evenodd;clip-rule:evenodd;fill:#CFD1D8;}
	.st1{fill-rule:evenodd;clip-rule:evenodd;fill:#FFFFCC;}
	.st2{fill:none;stroke:#000000;stroke-width:1.7322;stroke-linecap:round;stroke-linejoin:round;stroke-miterlimit:10;}
	.st3{font-family:'YuGothicUI-Regular';}
	.st4{font-size:11.2598px;}
	.st5{font-family:'YuGothicUI-Bold';}
	.st6{font-size:11.8721px;}
	.st7{fill:none;stroke:#000000;stroke-width:0.3218;stroke-miterlimit:10;}
	.st8{fill-rule:evenodd;clip-rule:evenodd;fill:#F0F0F0;}
	.st9{fill:none;stroke:#D7D7D7;stroke-width:0.8662;stroke-linecap:square;stroke-miterlimit:10;}
	.st10{fill-rule:evenodd;clip-rule:evenodd;fill:#CCFFCC;}
	.st11{fill:none;stroke:#000000;stroke-width:0.8662;stroke-linecap:square;stroke-miterlimit:10;}
	.st12{fill:#003060;}
	.st13{fill-rule:evenodd;clip-rule:evenodd;fill:#FFCCFF;}
	.st14{font-family:'MS-PGothic';}
	.st15{font-size:13.8582px;}
	.st16{fill:none;stroke:#003060;stroke-width:0.396;stroke-miterlimit:10;}
	.st17{fill:none;stroke:#000000;stroke-width:1.7322;stroke-linecap:round;stroke-linejoin:bevel;stroke-miterlimit:10;}
	.st18{fill-rule:evenodd;clip-rule:evenodd;fill:#FFFFFF;}
	.st19{font-family:'Calibri';}
	.st20{font-size:9.5276px;}
</style>
<g>
	<path class="st0" d="M252.9,236.3c1.2,0,2.2,1,2.2,2.2l0,0v99.6l0,0c0,1.2-1,2.2-2.2,2.2l0,0l0,0H82.7l0,0c-1.2,0-2.2-1-2.2-2.2
		l0,0v-99.6c0-1.2,1-2.2,2.2-2.2l0,0L252.9,236.3L252.9,236.3L252.9,236.3z"/>
	<path class="st1" d="M250.3,233.7c1.2,0,2.2,1,2.2,2.2l0,0v99.6l0,0c0,1.2-1,2.2-2.2,2.2l0,0l0,0H80.1l0,0c-1.2,0-2.2-1-2.2-2.2
		l0,0v-99.6c0-1.2,1-2.2,2.2-2.2l0,0L250.3,233.7L250.3,233.7L250.3,233.7z"/>
	<path class="st2" d="M250.3,233.7c1.2,0,2.2,1,2.2,2.2l0,0v99.6l0,0c0,1.2-1,2.2-2.2,2.2l0,0l0,0H80.1l0,0c-1.2,0-2.2-1-2.2-2.2
		l0,0v-99.6c0-1.2,1-2.2,2.2-2.2l0,0L250.3,233.7L250.3,233.7L250.3,233.7z"/>
	<text transform="matrix(1.0023 0 0 1 128.2978 251.0674)" class="st3 st4">«</text>
	<text transform="matrix(1.0023 0 0 1 134.3681 251.0674)" class="st3 st4">F</text>
	<text transform="matrix(1.0023 0 0 1 139.5849 251.0674)" class="st3 st4">e</text>
	<text transform="matrix(1.0023 0 0 1 145.6562 251.0674)" class="st3 st4">a</text>
	<text transform="matrix(1.0023 0 0 1 151.7246 251.0674)" class="st3 st4">t</text>
	<text transform="matrix(1.0023 0 0 1 155.1992 251.0674)" class="st3 st4">u</text>
	<text transform="matrix(1.0023 0 0 1 161.2812 251.0674)" class="st3 st4">r</text>
	<text transform="matrix(1.0023 0 0 1 165.6113 251.0674)" class="st3 st4">e</text>
	<text transform="matrix(1.0023 0 0 1 171.6816 251.0674)" class="st3 st4">T</text>
	<text transform="matrix(1.0023 0 0 1 177.7529 251.0674)" class="st3 st4">y</text>
	<text transform="matrix(1.0023 0 0 1 182.9648 251.0674)" class="st3 st4">p</text>
	<text transform="matrix(1.0023 0 0 1 189.9043 251.0674)" class="st3 st4">e</text>
	<text transform="matrix(1.0023 0 0 1 195.9756 251.0674)" class="st3 st4">»</text>
	<text transform="matrix(1.0023 0 0 1 110.0635 265.7862)" class="st5 st4">g</text>
	<text transform="matrix(1.0023 0 0 1 116.999 265.7862)" class="st5 st4">r</text>
	<text transform="matrix(1.0023 0 0 1 121.334 265.7862)" class="st5 st4">p</text>
	<text transform="matrix(1.0023 0 0 1 128.2685 265.7862)" class="st5 st4">:</text>
	<text transform="matrix(1.0023 0 0 1 130.8779 265.7862)" class="st5 st4">:</text>
	<text transform="matrix(1.0023 0 0 1 133.4873 265.7862)" class="st5 st4">C</text>
	<text transform="matrix(1.0023 0 0 1 140.4404 265.7862)" class="st5 st4">i</text>
	<text transform="matrix(1.0023 0 0 1 143.0498 265.7862)" class="st5 st4">t</text>
	<text transform="matrix(1.0023 0 0 1 147.3877 265.7862)" class="st5 st4">y</text>
	<text transform="matrix(1.0023 0 0 1 153.4619 265.7862)" class="st5 st4">O</text>
	<text transform="matrix(1.0023 0 0 1 162.1396 265.7862)" class="st5 st4">b</text>
	<text transform="matrix(1.0023 0 0 1 169.0742 265.7862)" class="st5 st4">j</text>
	<text transform="matrix(1.0023 0 0 1 171.6836 265.7862)" class="st5 st4">e</text>
	<text transform="matrix(1.0023 0 0 1 177.7588 265.7862)" class="st5 st4">c</text>
	<text transform="matrix(1.0023 0 0 1 182.9746 265.7862)" class="st5 st4">t</text>
	<text transform="matrix(1.0023 0 0 1 187.3115 265.7862)" class="st5 st4">G</text>
	<text transform="matrix(1.0023 0 0 1 195.1357 265.7862)" class="st5 st4">r</text>
	<text transform="matrix(1.0023 0 0 1 199.4707 265.7862)" class="st5 st4">o</text>
	<text transform="matrix(1.0023 0 0 1 206.4131 265.7862)" class="st5 st4">u</text>
	<text transform="matrix(1.0023 0 0 1 213.3476 265.7862)" class="st5 st4">p</text>
	<line class="st2" x1="78" y1="272.7" x2="252.4" y2="272.7"/>
	<text transform="matrix(1.0023 0 0 1 82.2822 288.3018)" class="st3 st4">+</text>
	<text transform="matrix(1.0023 0 0 1 90.0928 288.3018)" class="st3 st4"> </text>
	<text transform="matrix(1.0023 0 0 1 101.3916 288.3018)" class="st3 st4">c</text>
	<text transform="matrix(1.0023 0 0 1 106.6045 288.3018)" class="st3 st4">l</text>
	<text transform="matrix(1.0023 0 0 1 109.2138 288.3018)" class="st3 st4">a</text>
	<text transform="matrix(1.0023 0 0 1 115.2822 288.3018)" class="st3 st4">s</text>
	<text transform="matrix(1.0023 0 0 1 120.4892 288.3018)" class="st3 st4">s</text>
	<text transform="matrix(1.0023 0 0 1 125.6953 288.3018)" class="st3 st4">:</text>
	<text transform="matrix(1.0023 0 0 1 128.2881 288.3018)" class="st3 st4"> </text>
	<text transform="matrix(1.0023 0 0 1 131.7519 288.3018)" class="st3 st4">g</text>
	<text transform="matrix(1.0023 0 0 1 138.6914 288.3018)" class="st3 st4">m</text>
	<text transform="matrix(1.0023 0 0 1 148.2422 288.3018)" class="st3 st4">l</text>
	<text transform="matrix(1.0023 0 0 1 150.8515 288.3018)" class="st3 st4">:</text>
	<text transform="matrix(1.0023 0 0 1 153.4443 288.3018)" class="st3 st4">:</text>
	<text transform="matrix(1.0023 0 0 1 156.0381 288.3018)" class="st3 st4">C</text>
	<text transform="matrix(1.0023 0 0 1 162.9912 288.3018)" class="st3 st4">o</text>
	<text transform="matrix(1.0023 0 0 1 169.9316 288.3018)" class="st3 st4">d</text>
	<text transform="matrix(1.0023 0 0 1 176.8701 288.3018)" class="st3 st4">e</text>
	<text transform="matrix(1.0023 0 0 1 182.9414 288.3018)" class="st3 st4">T</text>
	<text transform="matrix(1.0023 0 0 1 189.0117 288.3018)" class="st3 st4">y</text>
	<text transform="matrix(1.0023 0 0 1 194.2246 288.3018)" class="st3 st4">p</text>
	<text transform="matrix(1.0023 0 0 1 201.164 288.3018)" class="st3 st4">e</text>
	<text transform="matrix(1.0023 0 0 1 207.2344 288.3018)" class="st3 st4"> </text>
	<text transform="matrix(1.0023 0 0 1 210.6982 288.3018)" class="st3 st4">[</text>
	<text transform="matrix(1.0023 0 0 1 214.1601 288.3018)" class="st3 st4">0</text>
	<text transform="matrix(1.0023 0 0 1 220.2441 288.3018)" class="st3 st4">.</text>
	<text transform="matrix(1.0023 0 0 1 222.8369 288.3018)" class="st3 st4">.</text>
	<text transform="matrix(1.0023 0 0 1 225.4306 288.3018)" class="st3 st4">1</text>
	<text transform="matrix(1.0023 0 0 1 231.5146 288.3018)" class="st3 st4">]</text>
	<text transform="matrix(1.0023 0 0 1 82.2822 303.0362)" class="st3 st4">+</text>
	<text transform="matrix(1.0023 0 0 1 90.0928 303.0362)" class="st3 st4"> </text>
	<text transform="matrix(1.0023 0 0 1 101.3916 303.0362)" class="st3 st4">f</text>
	<text transform="matrix(1.0023 0 0 1 104.8672 303.0362)" class="st3 st4">u</text>
	<text transform="matrix(1.0023 0 0 1 110.9492 303.0362)" class="st3 st4">n</text>
	<text transform="matrix(1.0023 0 0 1 117.0312 303.0362)" class="st3 st4">c</text>
	<text transform="matrix(1.0023 0 0 1 122.2441 303.0362)" class="st3 st4">t</text>
	<text transform="matrix(1.0023 0 0 1 125.7187 303.0362)" class="st3 st4">i</text>
	<text transform="matrix(1.0023 0 0 1 128.3271 303.0362)" class="st3 st4">o</text>
	<text transform="matrix(1.0023 0 0 1 135.2676 303.0362)" class="st3 st4">n</text>
	<text transform="matrix(1.0023 0 0 1 141.3496 303.0362)" class="st3 st4">:</text>
	<text transform="matrix(1.0023 0 0 1 143.9424 303.0362)" class="st3 st4"> </text>
	<text transform="matrix(1.0023 0 0 1 147.4062 303.0362)" class="st3 st4">g</text>
	<text transform="matrix(1.0023 0 0 1 154.3457 303.0362)" class="st3 st4">m</text>
	<text transform="matrix(1.0023 0 0 1 163.8965 303.0362)" class="st3 st4">l</text>
	<text transform="matrix(1.0023 0 0 1 166.5058 303.0362)" class="st3 st4">:</text>
	<text transform="matrix(1.0023 0 0 1 169.0986 303.0362)" class="st3 st4">:</text>
	<text transform="matrix(1.0023 0 0 1 171.6924 303.0362)" class="st3 st4">C</text>
	<text transform="matrix(1.0023 0 0 1 178.6455 303.0362)" class="st3 st4">o</text>
	<text transform="matrix(1.0023 0 0 1 185.5859 303.0362)" class="st3 st4">d</text>
	<text transform="matrix(1.0023 0 0 1 192.5244 303.0362)" class="st3 st4">e</text>
	<text transform="matrix(1.0023 0 0 1 198.5957 303.0362)" class="st3 st4">T</text>
	<text transform="matrix(1.0023 0 0 1 204.666 303.0362)" class="st3 st4">y</text>
	<text transform="matrix(1.0023 0 0 1 209.8789 303.0362)" class="st3 st4">p</text>
	<text transform="matrix(1.0023 0 0 1 216.8183 303.0362)" class="st3 st4">e</text>
	<text transform="matrix(1.0023 0 0 1 222.8887 303.0362)" class="st3 st4"> </text>
	<text transform="matrix(1.0023 0 0 1 226.3525 303.0362)" class="st3 st4">[</text>
	<text transform="matrix(1.0023 0 0 1 229.8144 303.0362)" class="st3 st4">0</text>
	<text transform="matrix(1.0023 0 0 1 235.8984 303.0362)" class="st3 st4">.</text>
	<text transform="matrix(1.0023 0 0 1 238.4912 303.0362)" class="st3 st4">.</text>
	<text transform="matrix(1.0023 0 0 1 241.0849 303.0362)" class="st3 st4">*</text>
	<text transform="matrix(1.0023 0 0 1 245.4297 303.0362)" class="st3 st4">]</text>
	<text transform="matrix(1.0023 0 0 1 82.2822 317.7554)" class="st3 st4">+</text>
	<text transform="matrix(1.0023 0 0 1 90.0928 317.7554)" class="st3 st4"> </text>
	<text transform="matrix(1.0023 0 0 1 101.3916 317.7554)" class="st3 st4">u</text>
	<text transform="matrix(1.0023 0 0 1 107.4736 317.7554)" class="st3 st4">s</text>
	<text transform="matrix(1.0023 0 0 1 112.6797 317.7554)" class="st3 st4">a</text>
	<text transform="matrix(1.0023 0 0 1 118.749 317.7554)" class="st3 st4">g</text>
	<text transform="matrix(1.0023 0 0 1 125.6875 317.7554)" class="st3 st4">e</text>
	<text transform="matrix(1.0023 0 0 1 131.7588 317.7554)" class="st3 st4">:</text>
	<text transform="matrix(1.0023 0 0 1 134.3525 317.7554)" class="st3 st4"> </text>
	<text transform="matrix(1.0023 0 0 1 137.8164 317.7554)" class="st3 st4">g</text>
	<text transform="matrix(1.0023 0 0 1 144.7549 317.7554)" class="st3 st4">m</text>
	<text transform="matrix(1.0023 0 0 1 154.3056 317.7554)" class="st3 st4">l</text>
	<text transform="matrix(1.0023 0 0 1 156.915 317.7554)" class="st3 st4">:</text>
	<text transform="matrix(1.0023 0 0 1 159.5088 317.7554)" class="st3 st4">:</text>
	<text transform="matrix(1.0023 0 0 1 162.1015 317.7554)" class="st3 st4">C</text>
	<text transform="matrix(1.0023 0 0 1 169.0556 317.7554)" class="st3 st4">o</text>
	<text transform="matrix(1.0023 0 0 1 175.9951 317.7554)" class="st3 st4">d</text>
	<text transform="matrix(1.0023 0 0 1 182.9346 317.7554)" class="st3 st4">e</text>
	<text transform="matrix(1.0023 0 0 1 189.0049 317.7554)" class="st3 st4">T</text>
	<text transform="matrix(1.0023 0 0 1 195.0762 317.7554)" class="st3 st4">y</text>
	<text transform="matrix(1.0023 0 0 1 200.2881 317.7554)" class="st3 st4">p</text>
	<text transform="matrix(1.0023 0 0 1 207.2275 317.7554)" class="st3 st4">e</text>
	<text transform="matrix(1.0023 0 0 1 213.2988 317.7554)" class="st3 st4"> </text>
	<text transform="matrix(1.0023 0 0 1 216.7627 317.7554)" class="st3 st4">[</text>
	<text transform="matrix(1.0023 0 0 1 220.2246 317.7554)" class="st3 st4">0</text>
	<text transform="matrix(1.0023 0 0 1 226.3076 317.7554)" class="st3 st4">.</text>
	<text transform="matrix(1.0023 0 0 1 228.9014 317.7554)" class="st3 st4">.</text>
	<text transform="matrix(1.0023 0 0 1 231.4941 317.7554)" class="st3 st4">*</text>
	<text transform="matrix(1.0023 0 0 1 235.8389 317.7554)" class="st3 st4">]</text>
	<path class="st0" d="M311.9,28.5c1.2,0,2.2,1,2.2,2.2l0,0v117.8l0,0c0,1.2-1,2.2-2.2,2.2l0,0l0,0H30.6l0,0c-1.2,0-2.2-1-2.2-2.2
		l0,0V30.6c0-1.2,1-2.2,2.2-2.2l0,0H311.9L311.9,28.5L311.9,28.5z"/>
	<path class="st1" d="M309.3,25.9c1.2,0,2.2,1,2.2,2.2l0,0v117.8l0,0c0,1.2-1,2.2-2.2,2.2l0,0l0,0H28l0,0c-1.2,0-2.2-1-2.2-2.2l0,0
		V28c0-1.2,1-2.2,2.2-2.2l0,0L309.3,25.9L309.3,25.9L309.3,25.9z"/>
	<path class="st2" d="M309.3,25.9c1.2,0,2.2,1,2.2,2.2l0,0v117.8l0,0c0,1.2-1,2.2-2.2,2.2l0,0l0,0H28l0,0c-1.2,0-2.2-1-2.2-2.2l0,0
		V28c0-1.2,1-2.2,2.2-2.2l0,0L309.3,25.9L309.3,25.9L309.3,25.9z"/>
	<text transform="matrix(0.9506 0 -0.3169 0.9485 267.1973 40.5969)" class="st3 st6">_</text>
	<text transform="matrix(0.9506 0 -0.3169 0.9485 271.543 40.5969)" class="st3 st6">F</text>
	<text transform="matrix(0.9506 0 -0.3169 0.9485 276.7598 40.5969)" class="st3 st6">e</text>
	<text transform="matrix(0.9506 0 -0.3169 0.9485 282.8301 40.5969)" class="st3 st6">a</text>
	<text transform="matrix(0.9506 0 -0.3169 0.9485 288.9004 40.5969)" class="st3 st6">t</text>
	<text transform="matrix(0.9506 0 -0.3169 0.9485 292.375 40.5969)" class="st3 st6">u</text>
	<text transform="matrix(0.9506 0 -0.3169 0.9485 298.4551 40.5969)" class="st3 st6">r</text>
	<text transform="matrix(0.9506 0 -0.3169 0.9485 302.7852 40.5969)" class="st3 st6">e</text>
	<text transform="matrix(1.0023 0 0 1 131.7666 60.5049)" class="st3 st4">«</text>
	<text transform="matrix(1.0023 0 0 1 137.8369 60.5049)" class="st3 st4">F</text>
	<text transform="matrix(1.0023 0 0 1 143.0537 60.5049)" class="st3 st4">e</text>
	<text transform="matrix(1.0023 0 0 1 149.125 60.5049)" class="st3 st4">a</text>
	<text transform="matrix(1.0023 0 0 1 155.1933 60.5049)" class="st3 st4">t</text>
	<text transform="matrix(1.0023 0 0 1 158.668 60.5049)" class="st3 st4">u</text>
	<text transform="matrix(1.0023 0 0 1 164.75 60.5049)" class="st3 st4">r</text>
	<text transform="matrix(1.0023 0 0 1 169.0801 60.5049)" class="st3 st4">e</text>
	<text transform="matrix(1.0023 0 0 1 175.1504 60.5049)" class="st3 st4">T</text>
	<text transform="matrix(1.0023 0 0 1 181.2217 60.5049)" class="st3 st4">y</text>
	<text transform="matrix(1.0023 0 0 1 186.4336 60.5049)" class="st3 st4">p</text>
	<text transform="matrix(1.0023 0 0 1 193.373 60.5049)" class="st3 st4">e</text>
	<text transform="matrix(1.0023 0 0 1 199.4443 60.5049)" class="st3 st4">»</text>
	<text transform="matrix(0.9506 0 -0.3169 0.9485 125.6904 75.2306)" class="st3 st6">c</text>
	<text transform="matrix(0.9506 0 -0.3169 0.9485 125.6904 75.2306)" class="st7 st3 st6">c</text>
	<text transform="matrix(0.9506 0 -0.3169 0.9485 130.9013 75.2306)" class="st3 st6">o</text>
	<text transform="matrix(0.9506 0 -0.3169 0.9485 130.9013 75.2306)" class="st7 st3 st6">o</text>
	<text transform="matrix(0.9506 0 -0.3169 0.9485 137.8427 75.2306)" class="st3 st6">r</text>
	<text transform="matrix(0.9506 0 -0.3169 0.9485 137.8427 75.2306)" class="st7 st3 st6">r</text>
	<text transform="matrix(0.9506 0 -0.3169 0.9485 142.1709 75.2306)" class="st3 st6">e</text>
	<text transform="matrix(0.9506 0 -0.3169 0.9485 142.1709 75.2306)" class="st7 st3 st6">e</text>
	<text transform="matrix(0.9506 0 -0.3169 0.9485 148.2412 75.2306)" class="st3 st6">:</text>
	<text transform="matrix(0.9506 0 -0.3169 0.9485 148.2412 75.2306)" class="st7 st3 st6">:</text>
	<text transform="matrix(0.9506 0 -0.3169 0.9485 150.8349 75.2306)" class="st3 st6">:</text>
	<text transform="matrix(0.9506 0 -0.3169 0.9485 150.8349 75.2306)" class="st7 st3 st6">:</text>
	<text transform="matrix(0.9506 0 -0.3169 0.9485 153.4287 75.2306)" class="st3 st6">_</text>
	<text transform="matrix(0.9506 0 -0.3169 0.9485 153.4287 75.2306)" class="st7 st3 st6">_</text>
	<text transform="matrix(0.9506 0 -0.3169 0.9485 157.7763 75.2306)" class="st3 st6">C</text>
	<text transform="matrix(0.9506 0 -0.3169 0.9485 157.7763 75.2306)" class="st7 st3 st6">C</text>
	<text transform="matrix(0.9506 0 -0.3169 0.9485 164.7295 75.2306)" class="st3 st6">i</text>
	<text transform="matrix(0.9506 0 -0.3169 0.9485 164.7295 75.2306)" class="st7 st3 st6">i</text>
	<text transform="matrix(0.9506 0 -0.3169 0.9485 167.3388 75.2306)" class="st3 st6">t</text>
	<text transform="matrix(0.9506 0 -0.3169 0.9485 167.3388 75.2306)" class="st7 st3 st6">t</text>
	<text transform="matrix(0.9506 0 -0.3169 0.9485 171.6709 75.2306)" class="st3 st6">y</text>
	<text transform="matrix(0.9506 0 -0.3169 0.9485 171.6709 75.2306)" class="st7 st3 st6">y</text>
	<text transform="matrix(0.9506 0 -0.3169 0.9485 177.7412 75.2306)" class="st3 st6">O</text>
	<text transform="matrix(0.9506 0 -0.3169 0.9485 177.7412 75.2306)" class="st7 st3 st6">O</text>
	<text transform="matrix(0.9506 0 -0.3169 0.9485 186.417 75.2306)" class="st3 st6">b</text>
	<text transform="matrix(0.9506 0 -0.3169 0.9485 186.417 75.2306)" class="st7 st3 st6">b</text>
	<text transform="matrix(0.9506 0 -0.3169 0.9485 193.3545 75.2306)" class="st3 st6">j</text>
	<text transform="matrix(0.9506 0 -0.3169 0.9485 193.3545 75.2306)" class="st7 st3 st6">j</text>
	<text transform="matrix(0.9506 0 -0.3169 0.9485 195.9638 75.2306)" class="st3 st6">e</text>
	<text transform="matrix(0.9506 0 -0.3169 0.9485 195.9638 75.2306)" class="st7 st3 st6">e</text>
	<text transform="matrix(0.9506 0 -0.3169 0.9485 202.0381 75.2306)" class="st3 st6">c</text>
	<text transform="matrix(0.9506 0 -0.3169 0.9485 202.0381 75.2306)" class="st7 st3 st6">c</text>
	<text transform="matrix(0.9506 0 -0.3169 0.9485 207.249 75.2306)" class="st3 st6">t</text>
	<text transform="matrix(0.9506 0 -0.3169 0.9485 207.249 75.2306)" class="st7 st3 st6">t</text>
	<line class="st2" x1="25.9" y1="82.2" x2="311.5" y2="82.2"/>
	<text transform="matrix(1.0023 0 0 1 30.2041 97.7549)" class="st3 st4">+</text>
	<text transform="matrix(1.0023 0 0 1 38.0146 97.7549)" class="st3 st4"> </text>
	<text transform="matrix(1.0023 0 0 1 49.2978 97.7549)" class="st3 st4">c</text>
	<text transform="matrix(1.0023 0 0 1 54.5107 97.7549)" class="st3 st4">r</text>
	<text transform="matrix(1.0023 0 0 1 58.8408 97.7549)" class="st3 st4">e</text>
	<text transform="matrix(1.0023 0 0 1 64.9111 97.7549)" class="st3 st4">a</text>
	<text transform="matrix(1.0023 0 0 1 70.9804 97.7549)" class="st3 st4">t</text>
	<text transform="matrix(1.0023 0 0 1 74.4551 97.7549)" class="st3 st4">i</text>
	<text transform="matrix(1.0023 0 0 1 77.0644 97.7549)" class="st3 st4">o</text>
	<text transform="matrix(1.0023 0 0 1 84.0039 97.7549)" class="st3 st4">n</text>
	<text transform="matrix(1.0023 0 0 1 90.0859 97.7549)" class="st3 st4">D</text>
	<text transform="matrix(1.0023 0 0 1 97.9082 97.7549)" class="st3 st4">a</text>
	<text transform="matrix(1.0023 0 0 1 103.9775 97.7549)" class="st3 st4">t</text>
	<text transform="matrix(1.0023 0 0 1 107.4521 97.7549)" class="st3 st4">e</text>
	<text transform="matrix(1.0023 0 0 1 113.5234 97.7549)" class="st3 st4">:</text>
	<text transform="matrix(1.0023 0 0 1 116.1162 97.7549)" class="st3 st4"> </text>
	<text transform="matrix(1.0023 0 0 1 119.5801 97.7549)" class="st3 st4">x</text>
	<text transform="matrix(1.0023 0 0 1 124.7822 97.7549)" class="st3 st4">s</text>
	<text transform="matrix(1.0023 0 0 1 129.9883 97.7549)" class="st3 st4">:</text>
	<text transform="matrix(1.0023 0 0 1 132.582 97.7549)" class="st3 st4">:</text>
	<text transform="matrix(1.0023 0 0 1 135.1758 97.7549)" class="st3 st4">d</text>
	<text transform="matrix(1.0023 0 0 1 142.1142 97.7549)" class="st3 st4">a</text>
	<text transform="matrix(1.0023 0 0 1 148.1836 97.7549)" class="st3 st4">t</text>
	<text transform="matrix(1.0023 0 0 1 151.6582 97.7549)" class="st3 st4">e</text>
	<text transform="matrix(1.0023 0 0 1 157.7285 97.7549)" class="st3 st4"> </text>
	<text transform="matrix(1.0023 0 0 1 161.1924 97.7549)" class="st3 st4">[</text>
	<text transform="matrix(1.0023 0 0 1 164.6543 97.7549)" class="st3 st4">0</text>
	<text transform="matrix(1.0023 0 0 1 170.7383 97.7549)" class="st3 st4">.</text>
	<text transform="matrix(1.0023 0 0 1 173.331 97.7549)" class="st3 st4">.</text>
	<text transform="matrix(1.0023 0 0 1 175.9248 97.7549)" class="st3 st4">1</text>
	<text transform="matrix(1.0023 0 0 1 182.0088 97.7549)" class="st3 st4">]</text>
	<text transform="matrix(1.0023 0 0 1 30.2041 112.4737)" class="st3 st4">+</text>
	<text transform="matrix(1.0023 0 0 1 38.0146 112.4737)" class="st3 st4"> </text>
	<text transform="matrix(1.0023 0 0 1 49.2978 112.4737)" class="st3 st4">t</text>
	<text transform="matrix(1.0023 0 0 1 52.7724 112.4737)" class="st3 st4">e</text>
	<text transform="matrix(1.0023 0 0 1 58.8428 112.4737)" class="st3 st4">r</text>
	<text transform="matrix(1.0023 0 0 1 63.1728 112.4737)" class="st3 st4">m</text>
	<text transform="matrix(1.0023 0 0 1 72.7236 112.4737)" class="st3 st4">i</text>
	<text transform="matrix(1.0023 0 0 1 75.333 112.4737)" class="st3 st4">n</text>
	<text transform="matrix(1.0023 0 0 1 81.415 112.4737)" class="st3 st4">a</text>
	<text transform="matrix(1.0023 0 0 1 87.4844 112.4737)" class="st3 st4">t</text>
	<text transform="matrix(1.0023 0 0 1 90.959 112.4737)" class="st3 st4">i</text>
	<text transform="matrix(1.0023 0 0 1 93.5674 112.4737)" class="st3 st4">o</text>
	<text transform="matrix(1.0023 0 0 1 100.5078 112.4737)" class="st3 st4">n</text>
	<text transform="matrix(1.0023 0 0 1 106.5898 112.4737)" class="st3 st4">D</text>
	<text transform="matrix(1.0023 0 0 1 114.4121 112.4737)" class="st3 st4">a</text>
	<text transform="matrix(1.0023 0 0 1 120.4814 112.4737)" class="st3 st4">t</text>
	<text transform="matrix(1.0023 0 0 1 123.956 112.4737)" class="st3 st4">e</text>
	<text transform="matrix(1.0023 0 0 1 130.0264 112.4737)" class="st3 st4">:</text>
	<text transform="matrix(1.0023 0 0 1 132.6201 112.4737)" class="st3 st4"> </text>
	<text transform="matrix(1.0023 0 0 1 136.084 112.4737)" class="st3 st4">x</text>
	<text transform="matrix(1.0023 0 0 1 141.2861 112.4737)" class="st3 st4">s</text>
	<text transform="matrix(1.0023 0 0 1 146.4922 112.4737)" class="st3 st4">:</text>
	<text transform="matrix(1.0023 0 0 1 149.0859 112.4737)" class="st3 st4">:</text>
	<text transform="matrix(1.0023 0 0 1 151.6787 112.4737)" class="st3 st4">d</text>
	<text transform="matrix(1.0023 0 0 1 158.6181 112.4737)" class="st3 st4">a</text>
	<text transform="matrix(1.0023 0 0 1 164.6875 112.4737)" class="st3 st4">t</text>
	<text transform="matrix(1.0023 0 0 1 168.1611 112.4737)" class="st3 st4">e</text>
	<text transform="matrix(1.0023 0 0 1 174.2324 112.4737)" class="st3 st4"> </text>
	<text transform="matrix(1.0023 0 0 1 177.6963 112.4737)" class="st3 st4">[</text>
	<text transform="matrix(1.0023 0 0 1 181.1582 112.4737)" class="st3 st4">0</text>
	<text transform="matrix(1.0023 0 0 1 187.2422 112.4737)" class="st3 st4">.</text>
	<text transform="matrix(1.0023 0 0 1 189.8349 112.4737)" class="st3 st4">.</text>
	<text transform="matrix(1.0023 0 0 1 192.4287 112.4737)" class="st3 st4">1</text>
	<text transform="matrix(1.0023 0 0 1 198.5117 112.4737)" class="st3 st4">]</text>
	<text transform="matrix(1.0023 0 0 1 30.2041 127.2081)" class="st3 st4">+</text>
	<text transform="matrix(1.0023 0 0 1 38.0146 127.2081)" class="st3 st4"> </text>
	<text transform="matrix(1.0023 0 0 1 49.2978 127.2081)" class="st3 st4">r</text>
	<text transform="matrix(1.0023 0 0 1 53.6279 127.2081)" class="st3 st4">e</text>
	<text transform="matrix(1.0023 0 0 1 59.6982 127.2081)" class="st3 st4">l</text>
	<text transform="matrix(1.0023 0 0 1 62.3076 127.2081)" class="st3 st4">a</text>
	<text transform="matrix(1.0023 0 0 1 68.3769 127.2081)" class="st3 st4">t</text>
	<text transform="matrix(1.0023 0 0 1 71.8515 127.2081)" class="st3 st4">i</text>
	<text transform="matrix(1.0023 0 0 1 74.4599 127.2081)" class="st3 st4">v</text>
	<text transform="matrix(1.0023 0 0 1 79.6738 127.2081)" class="st3 st4">e</text>
	<text transform="matrix(1.0023 0 0 1 85.7451 127.2081)" class="st3 st4">T</text>
	<text transform="matrix(1.0023 0 0 1 91.8154 127.2081)" class="st3 st4">o</text>
	<text transform="matrix(1.0023 0 0 1 98.7558 127.2081)" class="st3 st4">T</text>
	<text transform="matrix(1.0023 0 0 1 104.8261 127.2081)" class="st3 st4">e</text>
	<text transform="matrix(1.0023 0 0 1 110.8974 127.2081)" class="st3 st4">r</text>
	<text transform="matrix(1.0023 0 0 1 115.2265 127.2081)" class="st3 st4">r</text>
	<text transform="matrix(1.0023 0 0 1 119.5566 127.2081)" class="st3 st4">a</text>
	<text transform="matrix(1.0023 0 0 1 125.626 127.2081)" class="st3 st4">i</text>
	<text transform="matrix(1.0023 0 0 1 128.2353 127.2081)" class="st3 st4">n</text>
	<text transform="matrix(1.0023 0 0 1 134.3164 127.2081)" class="st3 st4">:</text>
	<text transform="matrix(1.0023 0 0 1 136.9101 127.2081)" class="st3 st4"> </text>
	<text transform="matrix(1.0023 0 0 1 140.374 127.2081)" class="st3 st4">c</text>
	<text transform="matrix(1.0023 0 0 1 145.5869 127.2081)" class="st3 st4">o</text>
	<text transform="matrix(1.0023 0 0 1 152.5264 127.2081)" class="st3 st4">r</text>
	<text transform="matrix(1.0023 0 0 1 156.8564 127.2081)" class="st3 st4">e</text>
	<text transform="matrix(1.0023 0 0 1 162.9277 127.2081)" class="st3 st4">:</text>
	<text transform="matrix(1.0023 0 0 1 165.5205 127.2081)" class="st3 st4">:</text>
	<text transform="matrix(1.0023 0 0 1 168.1142 127.2081)" class="st3 st4">R</text>
	<text transform="matrix(1.0023 0 0 1 175.0566 127.2081)" class="st3 st4">e</text>
	<text transform="matrix(1.0023 0 0 1 181.1269 127.2081)" class="st3 st4">l</text>
	<text transform="matrix(1.0023 0 0 1 183.7363 127.2081)" class="st3 st4">a</text>
	<text transform="matrix(1.0023 0 0 1 189.8056 127.2081)" class="st3 st4">t</text>
	<text transform="matrix(1.0023 0 0 1 193.2803 127.2081)" class="st3 st4">i</text>
	<text transform="matrix(1.0023 0 0 1 195.8887 127.2081)" class="st3 st4">v</text>
	<text transform="matrix(1.0023 0 0 1 201.1025 127.2081)" class="st3 st4">e</text>
	<text transform="matrix(1.0023 0 0 1 207.1738 127.2081)" class="st3 st4">T</text>
	<text transform="matrix(1.0023 0 0 1 213.2441 127.2081)" class="st3 st4">o</text>
	<text transform="matrix(1.0023 0 0 1 220.1846 127.2081)" class="st3 st4">T</text>
	<text transform="matrix(1.0023 0 0 1 226.2549 127.2081)" class="st3 st4">e</text>
	<text transform="matrix(1.0023 0 0 1 232.3262 127.2081)" class="st3 st4">r</text>
	<text transform="matrix(1.0023 0 0 1 236.6553 127.2081)" class="st3 st4">r</text>
	<text transform="matrix(1.0023 0 0 1 240.9853 127.2081)" class="st3 st4">a</text>
	<text transform="matrix(1.0023 0 0 1 247.0547 127.2081)" class="st3 st4">i</text>
	<text transform="matrix(1.0023 0 0 1 249.664 127.2081)" class="st3 st4">n</text>
	<text transform="matrix(1.0023 0 0 1 255.7451 127.2081)" class="st3 st4">T</text>
	<text transform="matrix(1.0023 0 0 1 261.8164 127.2081)" class="st3 st4">y</text>
	<text transform="matrix(1.0023 0 0 1 267.0293 127.2081)" class="st3 st4">p</text>
	<text transform="matrix(1.0023 0 0 1 273.9677 127.2081)" class="st3 st4">e</text>
	<text transform="matrix(1.0023 0 0 1 280.039 127.2081)" class="st3 st4"> </text>
	<text transform="matrix(1.0023 0 0 1 283.5029 127.2081)" class="st3 st4">[</text>
	<text transform="matrix(1.0023 0 0 1 286.9648 127.2081)" class="st3 st4">0</text>
	<text transform="matrix(1.0023 0 0 1 293.0468 127.2081)" class="st3 st4">.</text>
	<text transform="matrix(1.0023 0 0 1 295.6406 127.2081)" class="st3 st4">.</text>
	<text transform="matrix(1.0023 0 0 1 298.2343 127.2081)" class="st3 st4">1</text>
	<text transform="matrix(1.0023 0 0 1 304.3183 127.2081)" class="st3 st4">]</text>
	<text transform="matrix(1.0023 0 0 1 30.2041 141.9424)" class="st3 st4">+</text>
	<text transform="matrix(1.0023 0 0 1 38.0146 141.9424)" class="st3 st4"> </text>
	<text transform="matrix(1.0023 0 0 1 49.2978 141.9424)" class="st3 st4">r</text>
	<text transform="matrix(1.0023 0 0 1 53.6279 141.9424)" class="st3 st4">e</text>
	<text transform="matrix(1.0023 0 0 1 59.6982 141.9424)" class="st3 st4">l</text>
	<text transform="matrix(1.0023 0 0 1 62.3076 141.9424)" class="st3 st4">a</text>
	<text transform="matrix(1.0023 0 0 1 68.3769 141.9424)" class="st3 st4">t</text>
	<text transform="matrix(1.0023 0 0 1 71.8515 141.9424)" class="st3 st4">i</text>
	<text transform="matrix(1.0023 0 0 1 74.4599 141.9424)" class="st3 st4">v</text>
	<text transform="matrix(1.0023 0 0 1 79.6738 141.9424)" class="st3 st4">e</text>
	<text transform="matrix(1.0023 0 0 1 85.7451 141.9424)" class="st3 st4">T</text>
	<text transform="matrix(1.0023 0 0 1 91.8154 141.9424)" class="st3 st4">o</text>
	<text transform="matrix(1.0023 0 0 1 98.7558 141.9424)" class="st3 st4">W</text>
	<text transform="matrix(1.0023 0 0 1 109.1728 141.9424)" class="st3 st4">a</text>
	<text transform="matrix(1.0023 0 0 1 115.2422 141.9424)" class="st3 st4">t</text>
	<text transform="matrix(1.0023 0 0 1 118.7168 141.9424)" class="st3 st4">e</text>
	<text transform="matrix(1.0023 0 0 1 124.7871 141.9424)" class="st3 st4">r</text>
	<text transform="matrix(1.0023 0 0 1 129.1172 141.9424)" class="st3 st4">:</text>
	<text transform="matrix(1.0023 0 0 1 131.7109 141.9424)" class="st3 st4"> </text>
	<text transform="matrix(1.0023 0 0 1 135.1748 141.9424)" class="st3 st4">c</text>
	<text transform="matrix(1.0023 0 0 1 140.3877 141.9424)" class="st3 st4">o</text>
	<text transform="matrix(1.0023 0 0 1 147.3271 141.9424)" class="st3 st4">r</text>
	<text transform="matrix(1.0023 0 0 1 151.6572 141.9424)" class="st3 st4">e</text>
	<text transform="matrix(1.0023 0 0 1 157.7275 141.9424)" class="st3 st4">:</text>
	<text transform="matrix(1.0023 0 0 1 160.3213 141.9424)" class="st3 st4">:</text>
	<text transform="matrix(1.0023 0 0 1 162.914 141.9424)" class="st3 st4">R</text>
	<text transform="matrix(1.0023 0 0 1 169.8564 141.9424)" class="st3 st4">e</text>
	<text transform="matrix(1.0023 0 0 1 175.9277 141.9424)" class="st3 st4">l</text>
	<text transform="matrix(1.0023 0 0 1 178.5371 141.9424)" class="st3 st4">a</text>
	<text transform="matrix(1.0023 0 0 1 184.6055 141.9424)" class="st3 st4">t</text>
	<text transform="matrix(1.0023 0 0 1 188.0801 141.9424)" class="st3 st4">i</text>
	<text transform="matrix(1.0023 0 0 1 190.6894 141.9424)" class="st3 st4">v</text>
	<text transform="matrix(1.0023 0 0 1 195.9033 141.9424)" class="st3 st4">e</text>
	<text transform="matrix(1.0023 0 0 1 201.9746 141.9424)" class="st3 st4">T</text>
	<text transform="matrix(1.0023 0 0 1 208.0449 141.9424)" class="st3 st4">o</text>
	<text transform="matrix(1.0023 0 0 1 214.9844 141.9424)" class="st3 st4">W</text>
	<text transform="matrix(1.0023 0 0 1 225.4023 141.9424)" class="st3 st4">a</text>
	<text transform="matrix(1.0023 0 0 1 231.4717 141.9424)" class="st3 st4">t</text>
	<text transform="matrix(1.0023 0 0 1 234.9453 141.9424)" class="st3 st4">e</text>
	<text transform="matrix(1.0023 0 0 1 241.0166 141.9424)" class="st3 st4">r</text>
	<text transform="matrix(1.0023 0 0 1 245.3467 141.9424)" class="st3 st4">T</text>
	<text transform="matrix(1.0023 0 0 1 251.417 141.9424)" class="st3 st4">y</text>
	<text transform="matrix(1.0023 0 0 1 256.6299 141.9424)" class="st3 st4">p</text>
	<text transform="matrix(1.0023 0 0 1 263.5693 141.9424)" class="st3 st4">e</text>
	<text transform="matrix(1.0023 0 0 1 269.6396 141.9424)" class="st3 st4"> </text>
	<text transform="matrix(1.0023 0 0 1 273.1035 141.9424)" class="st3 st4">[</text>
	<text transform="matrix(1.0023 0 0 1 276.5654 141.9424)" class="st3 st4">0</text>
	<text transform="matrix(1.0023 0 0 1 282.6494 141.9424)" class="st3 st4">.</text>
	<text transform="matrix(1.0023 0 0 1 285.2422 141.9424)" class="st3 st4">.</text>
	<text transform="matrix(1.0023 0 0 1 287.8359 141.9424)" class="st3 st4">1</text>
	<text transform="matrix(1.0023 0 0 1 293.9179 141.9424)" class="st3 st4">]</text>
	<path class="st8" d="M557.2,25.9c1.4,0,2.6,1.2,2.6,2.6l0,0v97.9l0,0c0,1.4-1.2,2.6-2.6,2.6l0,0l0,0H401.8l0,0
		c-1.4,0-2.6-1.2-2.6-2.6V28.5c0-1.4,1.2-2.6,2.6-2.6l0,0H557.2L557.2,25.9L557.2,25.9z"/>
	<path class="st9" d="M557.2,25.9c1.4,0,2.6,1.2,2.6,2.6l0,0v97.9l0,0c0,1.4-1.2,2.6-2.6,2.6l0,0l0,0H401.8l0,0
		c-1.4,0-2.6-1.2-2.6-2.6V28.5c0-1.4,1.2-2.6,2.6-2.6l0,0H557.2L557.2,25.9L557.2,25.9z"/>
	<path class="st10" d="M419.6,51.9c1.2,0,2.2,1,2.2,2.2l0,0v9.5l0,0c0,1.2-1,2.2-2.2,2.2l0,0l0,0H410l0,0c-1.2,0-2.2-1-2.2-2.2l0,0
		V54c0-1.2,1-2.2,2.2-2.2l0,0H419.6L419.6,51.9L419.6,51.9z"/>
	<path class="st11" d="M419.6,51.9c1.2,0,2.2,1,2.2,2.2l0,0v9.5l0,0c0,1.2-1,2.2-2.2,2.2l0,0l0,0H410l0,0c-1.2,0-2.2-1-2.2-2.2l0,0
		V54c0-1.2,1-2.2,2.2-2.2l0,0H419.6L419.6,51.9L419.6,51.9z"/>
	<text transform="matrix(1.0023 0 0 1 426.9218 63.9737)" class="st12 st3 st4">G</text>
	<text transform="matrix(1.0023 0 0 1 434.7324 63.9737)" class="st12 st3 st4">M</text>
	<text transform="matrix(1.0023 0 0 1 445.1484 63.9737)" class="st12 st3 st4">L</text>
	<text transform="matrix(1.0023 0 0 1 450.3574 63.9737)" class="st12 st3 st4">に</text>
	<text transform="matrix(1.0023 0 0 1 459.0449 63.9737)" class="st12 st3 st4">定</text>
	<text transform="matrix(1.0023 0 0 1 470.33 63.9737)" class="st12 st3 st4">義</text>
	<text transform="matrix(1.0023 0 0 1 481.6172 63.9737)" class="st12 st3 st4">さ</text>
	<text transform="matrix(1.0023 0 0 1 489.4238 63.9737)" class="st12 st3 st4">れ</text>
	<text transform="matrix(1.0023 0 0 1 499.832 63.9737)" class="st12 st3 st4">た</text>
	<text transform="matrix(1.0023 0 0 1 508.5234 63.9737)" class="st12 st3 st4">ク</text>
	<text transform="matrix(1.0023 0 0 1 517.2012 63.9737)" class="st12 st3 st4">ラ</text>
	<text transform="matrix(1.0023 0 0 1 525.0098 63.9737)" class="st12 st3 st4">ス</text>
	<path class="st1" d="M419.6,68.3c1.2,0,2.2,1,2.2,2.2l0,0V80l0,0c0,1.2-1,2.2-2.2,2.2l0,0l0,0H410l0,0c-1.2,0-2.2-1-2.2-2.2l0,0
		v-9.5c0-1.2,1-2.2,2.2-2.2l0,0H419.6L419.6,68.3L419.6,68.3z"/>
	<path class="st11" d="M419.6,68.3c1.2,0,2.2,1,2.2,2.2l0,0V80l0,0c0,1.2-1,2.2-2.2,2.2l0,0l0,0H410l0,0c-1.2,0-2.2-1-2.2-2.2l0,0
		v-9.5c0-1.2,1-2.2,2.2-2.2l0,0H419.6L419.6,68.3L419.6,68.3z"/>
	<text transform="matrix(1.0023 0 0 1 426.9218 80.4258)" class="st12 st3 st4">C</text>
	<text transform="matrix(1.0023 0 0 1 433.875 80.4258)" class="st12 st3 st4">i</text>
	<text transform="matrix(1.0023 0 0 1 436.4843 80.4258)" class="st12 st3 st4">t</text>
	<text transform="matrix(1.0023 0 0 1 439.959 80.4258)" class="st12 st3 st4">y</text>
	<text transform="matrix(1.0023 0 0 1 445.1718 80.4258)" class="st12 st3 st4">G</text>
	<text transform="matrix(1.0023 0 0 1 452.9804 80.4258)" class="st12 st3 st4">M</text>
	<text transform="matrix(1.0023 0 0 1 463.3965 80.4258)" class="st12 st3 st4">L</text>
	<text transform="matrix(1.0023 0 0 1 468.6074 80.4258)" class="st12 st3 st4">に</text>
	<text transform="matrix(1.0023 0 0 1 477.2949 80.4258)" class="st12 st3 st4">定</text>
	<text transform="matrix(1.0023 0 0 1 488.58 80.4258)" class="st12 st3 st4">義</text>
	<text transform="matrix(1.0023 0 0 1 499.8652 80.4258)" class="st12 st3 st4">さ</text>
	<text transform="matrix(1.0023 0 0 1 507.6738 80.4258)" class="st12 st3 st4">れ</text>
	<text transform="matrix(1.0023 0 0 1 518.0801 80.4258)" class="st12 st3 st4">た</text>
	<text transform="matrix(1.0023 0 0 1 526.7715 80.4258)" class="st12 st3 st4">ク</text>
	<text transform="matrix(1.0023 0 0 1 535.4512 80.4258)" class="st12 st3 st4">ラ</text>
	<text transform="matrix(1.0023 0 0 1 543.2598 80.4258)" class="st12 st3 st4">ス</text>
	<path class="st13" d="M419.6,84.8c1.2,0,2.2,1,2.2,2.2l0,0v9.5l0,0c0,1.2-1,2.2-2.2,2.2l0,0l0,0H410l0,0c-1.2,0-2.2-1-2.2-2.2l0,0
		v-9.5c0-1.2,1-2.2,2.2-2.2l0,0H419.6L419.6,84.8L419.6,84.8z"/>
	<path class="st11" d="M419.6,84.8c1.2,0,2.2,1,2.2,2.2l0,0v9.5l0,0c0,1.2-1,2.2-2.2,2.2l0,0l0,0H410l0,0c-1.2,0-2.2-1-2.2-2.2l0,0
		v-9.5c0-1.2,1-2.2,2.2-2.2l0,0H419.6L419.6,84.8L419.6,84.8z"/>
	<text transform="matrix(1.0023 0 0 1 426.9218 96.8956)" class="st12 st3 st4">i</text>
	<text transform="matrix(1.0023 0 0 1 429.5312 96.8956)" class="st12 st3 st4">-</text>
	<text transform="matrix(1.0023 0 0 1 433.875 96.8956)" class="st12 st3 st4">U</text>
	<text transform="matrix(1.0023 0 0 1 441.6836 96.8956)" class="st12 st3 st4">R</text>
	<text transform="matrix(1.0023 0 0 1 448.6269 96.8956)" class="st12 st3 st4">に</text>
	<text transform="matrix(1.0023 0 0 1 457.3144 96.8956)" class="st12 st3 st4">定</text>
	<text transform="matrix(1.0023 0 0 1 468.5996 96.8956)" class="st12 st3 st4">義</text>
	<text transform="matrix(1.0023 0 0 1 479.8847 96.8956)" class="st12 st3 st4">さ</text>
	<text transform="matrix(1.0023 0 0 1 487.6914 96.8956)" class="st12 st3 st4">れ</text>
	<text transform="matrix(1.0023 0 0 1 498.0996 96.8956)" class="st12 st3 st4">た</text>
	<text transform="matrix(1.0023 0 0 1 506.791 96.8956)" class="st12 st3 st4">ク</text>
	<text transform="matrix(1.0023 0 0 1 515.4707 96.8956)" class="st12 st3 st4">ラ</text>
	<text transform="matrix(1.0023 0 0 1 523.2793 96.8956)" class="st12 st3 st4">ス</text>
	<text transform="matrix(1.0023 0 0 1 466 44.0362)" class="st12 st14 st15">凡例</text>
	<text transform="matrix(1.0023 0 0 1 466 44.0362)" class="st16 st14 st15">凡例</text>
	<line class="st17" x1="129.2" y1="149.7" x2="129.2" y2="232.9"/>
	<polyline class="st18" points="124.8,224.2 129.2,232.9 133.5,224.2 129.2,215.6 124.8,224.2 	"/>
	<polygon class="st17" points="124.8,224.2 129.2,232.9 133.5,224.2 129.2,215.6 	"/>
	<path class="st17" d="M129.2,149.7l-5.2,13 M129.2,149.7l5.2,13"/>
	<line class="st17" x1="179.5" y1="232.9" x2="179.5" y2="149.7"/>
	<polyline class="st18" points="184.7,163.6 174.3,163.6 179.5,149.7 184.7,163.6 	"/>
	<polygon class="st17" points="184.7,163.6 174.3,163.6 179.5,149.7 	"/>
	<line class="st17" x1="232.5" y1="232.9" x2="232.5" y2="149.7"/>
	<path class="st17" d="M232.5,149.7l5.2,13 M232.5,149.7l-5.2,13"/>
	<text transform="matrix(1.0023 0 0 1 59.7353 162.7237)" class="st19 st20">+</text>
	<text transform="matrix(1.0023 0 0 1 64.081 162.7237)" class="st19 st20">g</text>
	<text transform="matrix(1.0023 0 0 1 68.4228 162.7237)" class="st19 st20">r</text>
	<text transform="matrix(1.0023 0 0 1 71.8955 162.7237)" class="st19 st20">o</text>
	<text transform="matrix(1.0023 0 0 1 77.1025 162.7237)" class="st19 st20">u</text>
	<text transform="matrix(1.0023 0 0 1 82.3105 162.7237)" class="st19 st20">p</text>
	<text transform="matrix(1.0023 0 0 1 87.5185 162.7237)" class="st19 st20">M</text>
	<text transform="matrix(1.0023 0 0 1 95.3398 162.7237)" class="st19 st20">e</text>
	<text transform="matrix(1.0023 0 0 1 100.539 162.7237)" class="st19 st20">m</text>
	<text transform="matrix(1.0023 0 0 1 108.3496 162.7237)" class="st19 st20">b</text>
	<text transform="matrix(1.0023 0 0 1 113.5478 162.7237)" class="st19 st20">e</text>
	<text transform="matrix(1.0023 0 0 1 118.748 162.7237)" class="st19 st20">r</text>
	<text transform="matrix(1.0023 0 0 1 136.1103 162.7237)" class="st19 st20">0</text>
	<text transform="matrix(1.0023 0 0 1 141.3135 162.7237)" class="st19 st20">.</text>
	<text transform="matrix(1.0023 0 0 1 143.915 162.7237)" class="st19 st20">.</text>
	<text transform="matrix(1.0023 0 0 1 146.5166 162.7237)" class="st19 st20">*</text>
	<text transform="matrix(1.0023 0 0 1 193.4228 162.7237)" class="st19 st20">+</text>
	<text transform="matrix(1.0023 0 0 1 197.7685 162.7237)" class="st19 st20">p</text>
	<text transform="matrix(1.0023 0 0 1 202.9765 162.7237)" class="st19 st20">a</text>
	<text transform="matrix(1.0023 0 0 1 208.1806 162.7237)" class="st19 st20">r</text>
	<text transform="matrix(1.0023 0 0 1 211.6533 162.7237)" class="st19 st20">e</text>
	<text transform="matrix(1.0023 0 0 1 216.8535 162.7237)" class="st19 st20">n</text>
	<text transform="matrix(1.0023 0 0 1 222.0615 162.7237)" class="st19 st20">t</text>
	<text transform="matrix(1.0023 0 0 1 242.8916 162.7237)" class="st19 st20">0</text>
	<text transform="matrix(1.0023 0 0 1 248.0947 162.7237)" class="st19 st20">.</text>
	<text transform="matrix(1.0023 0 0 1 250.6963 162.7237)" class="st19 st20">.</text>
	<text transform="matrix(1.0023 0 0 1 253.2978 162.7237)" class="st19 st20">1</text>
</g>
</svg>
