<?xml version="1.0" encoding="utf-8"?>
<!-- Generator: Adobe Illustrator 26.5.2, SVG Export Plug-In . SVG Version: 6.00 Build 0)  -->
<svg version="1.1" id="レイヤー_1" xmlns="http://www.w3.org/2000/svg" xmlns:xlink="http://www.w3.org/1999/xlink" x="0px"
	 y="0px" viewBox="0 0 797.9 261.3" style="enable-background:new 0 0 797.9 261.3;" xml:space="preserve">
<style type="text/css">
	.st0{fill-rule:evenodd;clip-rule:evenodd;fill:#CFD1D8;}
	.st1{fill-rule:evenodd;clip-rule:evenodd;fill:#FFCCFF;}
	.st2{fill:none;stroke:#000000;stroke-width:1.7322;stroke-linecap:round;stroke-linejoin:round;stroke-miterlimit:10;}
	.st3{font-family:'YuGothicUI-Regular';}
	.st4{font-size:11.2598px;}
	.st5{font-family:'YuGothicUI-Bold';}
	.st6{font-size:11.8721px;}
	.st7{fill:none;stroke:#000000;stroke-width:0.3218;stroke-miterlimit:10;}
	.st8{fill-rule:evenodd;clip-rule:evenodd;fill:#F0F0F0;}
	.st9{fill:none;stroke:#D7D7D7;stroke-width:0.8662;stroke-linecap:square;stroke-miterlimit:10;}
	.st10{fill-rule:evenodd;clip-rule:evenodd;fill:#CCFFCC;}
	.st11{fill:none;stroke:#000000;stroke-width:0.8662;stroke-linecap:square;stroke-miterlimit:10;}
	.st12{fill:#003060;}
	.st13{fill-rule:evenodd;clip-rule:evenodd;fill:#FFFFCC;}
	.st14{font-family:'MS-PGothic';}
	.st15{font-size:13.8582px;}
	.st16{fill:none;stroke:#003060;stroke-width:0.396;stroke-miterlimit:10;}
</style>
<g>
	<path class="st0" d="M403.5,28.5c1.2,0,2.2,1,2.2,2.2l0,0v203.5l0,0c0,1.2-1,2.2-2.2,2.2l0,0l0,0H221.2l0,0c-1.2,0-2.2-1-2.2-2.2
		l0,0V30.6c0-1.2,1-2.2,2.2-2.2l0,0L403.5,28.5L403.5,28.5L403.5,28.5z"/>
	<path class="st1" d="M400.9,25.9c1.2,0,2.2,1,2.2,2.2l0,0v203.5l0,0c0,1.2-1,2.2-2.2,2.2l0,0l0,0H218.6l0,0c-1.2,0-2.2-1-2.2-2.2
		l0,0V28c0-1.2,1-2.2,2.2-2.2l0,0L400.9,25.9L400.9,25.9L400.9,25.9z"/>
	<path class="st2" d="M400.9,25.9c1.2,0,2.2,1,2.2,2.2l0,0v203.5l0,0c0,1.2-1,2.2-2.2,2.2l0,0l0,0H218.6l0,0c-1.2,0-2.2-1-2.2-2.2
		l0,0V28c0-1.2,1-2.2,2.2-2.2l0,0L400.9,25.9L400.9,25.9L400.9,25.9z"/>
	<text transform="matrix(1.0023 0 0 1 279.7797 43.1884)" class="st3 st4">«</text>
	<text transform="matrix(1.0023 0 0 1 285.8491 43.1884)" class="st3 st4">D</text>
	<text transform="matrix(1.0023 0 0 1 293.6723 43.1884)" class="st3 st4">a</text>
	<text transform="matrix(1.0023 0 0 1 299.7416 43.1884)" class="st3 st4">t</text>
	<text transform="matrix(1.0023 0 0 1 303.2162 43.1884)" class="st3 st4">a</text>
	<text transform="matrix(1.0023 0 0 1 309.2856 43.1884)" class="st3 st4">T</text>
	<text transform="matrix(1.0023 0 0 1 315.3559 43.1884)" class="st3 st4">y</text>
	<text transform="matrix(1.0023 0 0 1 320.5688 43.1884)" class="st3 st4">p</text>
	<text transform="matrix(1.0023 0 0 1 327.5073 43.1884)" class="st3 st4">e</text>
	<text transform="matrix(1.0023 0 0 1 333.5786 43.1884)" class="st3 st4">»</text>
	<text transform="matrix(1.0023 0 0 1 251.1391 57.9228)" class="st5 st4">u</text>
	<text transform="matrix(1.0023 0 0 1 258.0737 57.9228)" class="st5 st4">r</text>
	<text transform="matrix(1.0023 0 0 1 262.4086 57.9228)" class="st5 st4">o</text>
	<text transform="matrix(1.0023 0 0 1 269.351 57.9228)" class="st5 st4">:</text>
	<text transform="matrix(1.0023 0 0 1 271.9604 57.9228)" class="st5 st4">:</text>
	<text transform="matrix(1.0023 0 0 1 274.5698 57.9228)" class="st5 st4">F</text>
	<text transform="matrix(1.0023 0 0 1 280.6469 57.9228)" class="st5 st4">a</text>
	<text transform="matrix(1.0023 0 0 1 286.7172 57.9228)" class="st5 st4">c</text>
	<text transform="matrix(1.0023 0 0 1 291.934 57.9228)" class="st5 st4">i</text>
	<text transform="matrix(1.0023 0 0 1 294.5434 57.9228)" class="st5 st4">l</text>
	<text transform="matrix(1.0023 0 0 1 297.1528 57.9228)" class="st5 st4">i</text>
	<text transform="matrix(1.0023 0 0 1 299.7621 57.9228)" class="st5 st4">t</text>
	<text transform="matrix(1.0023 0 0 1 304.0991 57.9228)" class="st5 st4">y</text>
	<text transform="matrix(1.0023 0 0 1 310.1752 57.9228)" class="st5 st4">I</text>
	<text transform="matrix(1.0023 0 0 1 313.645 57.9228)" class="st5 st4">d</text>
	<text transform="matrix(1.0023 0 0 1 320.5805 57.9228)" class="st5 st4">A</text>
	<text transform="matrix(1.0023 0 0 1 328.3832 57.9228)" class="st5 st4">t</text>
	<text transform="matrix(1.0023 0 0 1 332.7202 57.9228)" class="st5 st4">t</text>
	<text transform="matrix(1.0023 0 0 1 337.058 57.9228)" class="st5 st4">r</text>
	<text transform="matrix(1.0023 0 0 1 341.392 57.9228)" class="st5 st4">i</text>
	<text transform="matrix(1.0023 0 0 1 344.0024 57.9228)" class="st5 st4">b</text>
	<text transform="matrix(1.0023 0 0 1 350.937 57.9228)" class="st5 st4">u</text>
	<text transform="matrix(1.0023 0 0 1 357.8725 57.9228)" class="st5 st4">t</text>
	<text transform="matrix(1.0023 0 0 1 362.2094 57.9228)" class="st5 st4">e</text>
	<line class="st2" x1="216.4" y1="64.8" x2="403.1" y2="64.8"/>
	<text transform="matrix(1.0023 0 0 1 220.7485 80.4384)" class="st3 st4">+</text>
	<text transform="matrix(1.0023 0 0 1 228.559 80.4384)" class="st3 st4"> </text>
	<text transform="matrix(1.0023 0 0 1 239.8422 80.4384)" class="st3 st4">i</text>
	<text transform="matrix(1.0023 0 0 1 242.4516 80.4384)" class="st3 st4">d</text>
	<text transform="matrix(1.0023 0 0 1 249.3901 80.4384)" class="st3 st4">:</text>
	<text transform="matrix(1.0023 0 0 1 251.9838 80.4384)" class="st3 st4"> </text>
	<text transform="matrix(1.0023 0 0 1 255.4477 80.4384)" class="st3 st4">x</text>
	<text transform="matrix(1.0023 0 0 1 260.6498 80.4384)" class="st3 st4">s</text>
	<text transform="matrix(1.0023 0 0 1 265.8559 80.4384)" class="st3 st4">:</text>
	<text transform="matrix(1.0023 0 0 1 268.4496 80.4384)" class="st3 st4">:</text>
	<text transform="matrix(1.0023 0 0 1 271.0424 80.4384)" class="st3 st4">s</text>
	<text transform="matrix(1.0023 0 0 1 276.2485 80.4384)" class="st3 st4">t</text>
	<text transform="matrix(1.0023 0 0 1 279.7231 80.4384)" class="st3 st4">r</text>
	<text transform="matrix(1.0023 0 0 1 284.0532 80.4384)" class="st3 st4">i</text>
	<text transform="matrix(1.0023 0 0 1 286.6616 80.4384)" class="st3 st4">n</text>
	<text transform="matrix(1.0023 0 0 1 292.7436 80.4384)" class="st3 st4">g</text>
	<text transform="matrix(1.0023 0 0 1 299.683 80.4384)" class="st3 st4"> </text>
	<text transform="matrix(1.0023 0 0 1 303.1469 80.4384)" class="st3 st4">[</text>
	<text transform="matrix(1.0023 0 0 1 306.6088 80.4384)" class="st3 st4">0</text>
	<text transform="matrix(1.0023 0 0 1 312.6909 80.4384)" class="st3 st4">.</text>
	<text transform="matrix(1.0023 0 0 1 315.2856 80.4384)" class="st3 st4">.</text>
	<text transform="matrix(1.0023 0 0 1 317.8784 80.4384)" class="st3 st4">1</text>
	<text transform="matrix(1.0023 0 0 1 323.9623 80.4384)" class="st3 st4">]</text>
	<text transform="matrix(1.0023 0 0 1 220.7485 95.1571)" class="st3 st4">+</text>
	<text transform="matrix(1.0023 0 0 1 228.559 95.1571)" class="st3 st4"> </text>
	<text transform="matrix(1.0023 0 0 1 239.8422 95.1571)" class="st3 st4">p</text>
	<text transform="matrix(1.0023 0 0 1 246.7817 95.1571)" class="st3 st4">a</text>
	<text transform="matrix(1.0023 0 0 1 252.851 95.1571)" class="st3 st4">r</text>
	<text transform="matrix(1.0023 0 0 1 257.1801 95.1571)" class="st3 st4">t</text>
	<text transform="matrix(1.0023 0 0 1 260.6547 95.1571)" class="st3 st4">I</text>
	<text transform="matrix(1.0023 0 0 1 263.2631 95.1571)" class="st3 st4">d</text>
	<text transform="matrix(1.0023 0 0 1 270.2016 95.1571)" class="st3 st4">:</text>
	<text transform="matrix(1.0023 0 0 1 272.7953 95.1571)" class="st3 st4"> </text>
	<text transform="matrix(1.0023 0 0 1 276.2592 95.1571)" class="st3 st4">x</text>
	<text transform="matrix(1.0023 0 0 1 281.4614 95.1571)" class="st3 st4">s</text>
	<text transform="matrix(1.0023 0 0 1 286.6674 95.1571)" class="st3 st4">:</text>
	<text transform="matrix(1.0023 0 0 1 289.2612 95.1571)" class="st3 st4">:</text>
	<text transform="matrix(1.0023 0 0 1 291.8539 95.1571)" class="st3 st4">s</text>
	<text transform="matrix(1.0023 0 0 1 297.06 95.1571)" class="st3 st4">t</text>
	<text transform="matrix(1.0023 0 0 1 300.5346 95.1571)" class="st3 st4">r</text>
	<text transform="matrix(1.0023 0 0 1 304.8647 95.1571)" class="st3 st4">i</text>
	<text transform="matrix(1.0023 0 0 1 307.4741 95.1571)" class="st3 st4">n</text>
	<text transform="matrix(1.0023 0 0 1 313.5551 95.1571)" class="st3 st4">g</text>
	<text transform="matrix(1.0023 0 0 1 320.4946 95.1571)" class="st3 st4"> </text>
	<text transform="matrix(1.0023 0 0 1 323.9584 95.1571)" class="st3 st4">[</text>
	<text transform="matrix(1.0023 0 0 1 327.4203 95.1571)" class="st3 st4">0</text>
	<text transform="matrix(1.0023 0 0 1 333.5034 95.1571)" class="st3 st4">.</text>
	<text transform="matrix(1.0023 0 0 1 336.0971 95.1571)" class="st3 st4">.</text>
	<text transform="matrix(1.0023 0 0 1 338.6909 95.1571)" class="st3 st4">1</text>
	<text transform="matrix(1.0023 0 0 1 344.7739 95.1571)" class="st3 st4">]</text>
	<text transform="matrix(1.0023 0 0 1 220.7485 109.8915)" class="st3 st4">+</text>
	<text transform="matrix(1.0023 0 0 1 228.559 109.8915)" class="st3 st4"> </text>
	<text transform="matrix(1.0023 0 0 1 239.8422 109.8915)" class="st3 st4">b</text>
	<text transform="matrix(1.0023 0 0 1 246.7817 109.8915)" class="st3 st4">r</text>
	<text transform="matrix(1.0023 0 0 1 251.1108 109.8915)" class="st3 st4">a</text>
	<text transform="matrix(1.0023 0 0 1 257.1801 109.8915)" class="st3 st4">n</text>
	<text transform="matrix(1.0023 0 0 1 263.2621 109.8915)" class="st3 st4">c</text>
	<text transform="matrix(1.0023 0 0 1 268.4741 109.8915)" class="st3 st4">h</text>
	<text transform="matrix(1.0023 0 0 1 274.5571 109.8915)" class="st3 st4">I</text>
	<text transform="matrix(1.0023 0 0 1 277.1655 109.8915)" class="st3 st4">d</text>
	<text transform="matrix(1.0023 0 0 1 284.1039 109.8915)" class="st3 st4">:</text>
	<text transform="matrix(1.0023 0 0 1 286.6977 109.8915)" class="st3 st4"> </text>
	<text transform="matrix(1.0023 0 0 1 290.1616 109.8915)" class="st3 st4">x</text>
	<text transform="matrix(1.0023 0 0 1 295.3637 109.8915)" class="st3 st4">s</text>
	<text transform="matrix(1.0023 0 0 1 300.5698 109.8915)" class="st3 st4">:</text>
	<text transform="matrix(1.0023 0 0 1 303.1635 109.8915)" class="st3 st4">:</text>
	<text transform="matrix(1.0023 0 0 1 305.7563 109.8915)" class="st3 st4">s</text>
	<text transform="matrix(1.0023 0 0 1 310.9623 109.8915)" class="st3 st4">t</text>
	<text transform="matrix(1.0023 0 0 1 314.437 109.8915)" class="st3 st4">r</text>
	<text transform="matrix(1.0023 0 0 1 318.767 109.8915)" class="st3 st4">i</text>
	<text transform="matrix(1.0023 0 0 1 321.3754 109.8915)" class="st3 st4">n</text>
	<text transform="matrix(1.0023 0 0 1 327.4575 109.8915)" class="st3 st4">g</text>
	<text transform="matrix(1.0023 0 0 1 334.3969 109.8915)" class="st3 st4"> </text>
	<text transform="matrix(1.0023 0 0 1 337.8608 109.8915)" class="st3 st4">[</text>
	<text transform="matrix(1.0023 0 0 1 341.3227 109.8915)" class="st3 st4">0</text>
	<text transform="matrix(1.0023 0 0 1 347.4057 109.8915)" class="st3 st4">.</text>
	<text transform="matrix(1.0023 0 0 1 349.9995 109.8915)" class="st3 st4">.</text>
	<text transform="matrix(1.0023 0 0 1 352.5932 109.8915)" class="st3 st4">1</text>
	<text transform="matrix(1.0023 0 0 1 358.6762 109.8915)" class="st3 st4">]</text>
	<text transform="matrix(1.0023 0 0 1 220.7485 124.6103)" class="st3 st4">+</text>
	<text transform="matrix(1.0023 0 0 1 228.559 124.6103)" class="st3 st4"> </text>
	<text transform="matrix(1.0023 0 0 1 239.8422 124.6103)" class="st3 st4">p</text>
	<text transform="matrix(1.0023 0 0 1 246.7817 124.6103)" class="st3 st4">r</text>
	<text transform="matrix(1.0023 0 0 1 251.1108 124.6103)" class="st3 st4">e</text>
	<text transform="matrix(1.0023 0 0 1 257.1821 124.6103)" class="st3 st4">f</text>
	<text transform="matrix(1.0023 0 0 1 260.6577 124.6103)" class="st3 st4">e</text>
	<text transform="matrix(1.0023 0 0 1 266.7289 124.6103)" class="st3 st4">c</text>
	<text transform="matrix(1.0023 0 0 1 271.9409 124.6103)" class="st3 st4">t</text>
	<text transform="matrix(1.0023 0 0 1 275.4164 124.6103)" class="st3 st4">u</text>
	<text transform="matrix(1.0023 0 0 1 281.4985 124.6103)" class="st3 st4">r</text>
	<text transform="matrix(1.0023 0 0 1 285.8276 124.6103)" class="st3 st4">e</text>
	<text transform="matrix(1.0023 0 0 1 291.8989 124.6103)" class="st3 st4">:</text>
	<text transform="matrix(1.0023 0 0 1 294.4926 124.6103)" class="st3 st4"> </text>
	<text transform="matrix(1.0023 0 0 1 297.9555 124.6103)" class="st3 st4">g</text>
	<text transform="matrix(1.0023 0 0 1 304.895 124.6103)" class="st3 st4">m</text>
	<text transform="matrix(1.0023 0 0 1 314.4457 124.6103)" class="st3 st4">l</text>
	<text transform="matrix(1.0023 0 0 1 317.0551 124.6103)" class="st3 st4">:</text>
	<text transform="matrix(1.0023 0 0 1 319.6489 124.6103)" class="st3 st4">:</text>
	<text transform="matrix(1.0023 0 0 1 322.2416 124.6103)" class="st3 st4">C</text>
	<text transform="matrix(1.0023 0 0 1 329.1957 124.6103)" class="st3 st4">o</text>
	<text transform="matrix(1.0023 0 0 1 336.1352 124.6103)" class="st3 st4">d</text>
	<text transform="matrix(1.0023 0 0 1 343.0737 124.6103)" class="st3 st4">e</text>
	<text transform="matrix(1.0023 0 0 1 349.145 124.6103)" class="st3 st4">T</text>
	<text transform="matrix(1.0023 0 0 1 355.2162 124.6103)" class="st3 st4">y</text>
	<text transform="matrix(1.0023 0 0 1 360.4282 124.6103)" class="st3 st4">p</text>
	<text transform="matrix(1.0023 0 0 1 367.3676 124.6103)" class="st3 st4">e</text>
	<text transform="matrix(1.0023 0 0 1 373.4389 124.6103)" class="st3 st4"> </text>
	<text transform="matrix(1.0023 0 0 1 376.9028 124.6103)" class="st3 st4">[</text>
	<text transform="matrix(1.0023 0 0 1 380.3647 124.6103)" class="st3 st4">0</text>
	<text transform="matrix(1.0023 0 0 1 386.4477 124.6103)" class="st3 st4">.</text>
	<text transform="matrix(1.0023 0 0 1 389.0414 124.6103)" class="st3 st4">.</text>
	<text transform="matrix(1.0023 0 0 1 391.6342 124.6103)" class="st3 st4">*</text>
	<text transform="matrix(1.0023 0 0 1 395.9789 124.6103)" class="st3 st4">]</text>
	<text transform="matrix(1.0023 0 0 1 220.7485 139.329)" class="st3 st4">+</text>
	<text transform="matrix(1.0023 0 0 1 228.559 139.329)" class="st3 st4"> </text>
	<text transform="matrix(1.0023 0 0 1 239.8422 139.329)" class="st3 st4">c</text>
	<text transform="matrix(1.0023 0 0 1 245.0551 139.329)" class="st3 st4">i</text>
	<text transform="matrix(1.0023 0 0 1 247.6645 139.329)" class="st3 st4">t</text>
	<text transform="matrix(1.0023 0 0 1 251.1381 139.329)" class="st3 st4">y</text>
	<text transform="matrix(1.0023 0 0 1 256.351 139.329)" class="st3 st4">:</text>
	<text transform="matrix(1.0023 0 0 1 258.9448 139.329)" class="st3 st4"> </text>
	<text transform="matrix(1.0023 0 0 1 262.4086 139.329)" class="st3 st4">g</text>
	<text transform="matrix(1.0023 0 0 1 269.3471 139.329)" class="st3 st4">m</text>
	<text transform="matrix(1.0023 0 0 1 278.8989 139.329)" class="st3 st4">l</text>
	<text transform="matrix(1.0023 0 0 1 281.5073 139.329)" class="st3 st4">:</text>
	<text transform="matrix(1.0023 0 0 1 284.101 139.329)" class="st3 st4">:</text>
	<text transform="matrix(1.0023 0 0 1 286.6938 139.329)" class="st3 st4">C</text>
	<text transform="matrix(1.0023 0 0 1 293.6479 139.329)" class="st3 st4">o</text>
	<text transform="matrix(1.0023 0 0 1 300.5873 139.329)" class="st3 st4">d</text>
	<text transform="matrix(1.0023 0 0 1 307.5268 139.329)" class="st3 st4">e</text>
	<text transform="matrix(1.0023 0 0 1 313.5971 139.329)" class="st3 st4">T</text>
	<text transform="matrix(1.0023 0 0 1 319.6684 139.329)" class="st3 st4">y</text>
	<text transform="matrix(1.0023 0 0 1 324.8803 139.329)" class="st3 st4">p</text>
	<text transform="matrix(1.0023 0 0 1 331.8198 139.329)" class="st3 st4">e</text>
	<text transform="matrix(1.0023 0 0 1 337.8911 139.329)" class="st3 st4"> </text>
	<text transform="matrix(1.0023 0 0 1 341.3549 139.329)" class="st3 st4">[</text>
	<text transform="matrix(1.0023 0 0 1 344.8159 139.329)" class="st3 st4">0</text>
	<text transform="matrix(1.0023 0 0 1 350.8998 139.329)" class="st3 st4">.</text>
	<text transform="matrix(1.0023 0 0 1 353.4936 139.329)" class="st3 st4">.</text>
	<text transform="matrix(1.0023 0 0 1 356.0864 139.329)" class="st3 st4">*</text>
	<text transform="matrix(1.0023 0 0 1 360.4321 139.329)" class="st3 st4">]</text>
	<text transform="matrix(1.0023 0 0 1 220.7485 154.0478)" class="st3 st4">+</text>
	<text transform="matrix(1.0023 0 0 1 228.559 154.0478)" class="st3 st4"> </text>
	<text transform="matrix(1.0023 0 0 1 239.8422 154.0478)" class="st3 st4">r</text>
	<text transform="matrix(1.0023 0 0 1 244.1723 154.0478)" class="st3 st4">o</text>
	<text transform="matrix(1.0023 0 0 1 251.1118 154.0478)" class="st3 st4">u</text>
	<text transform="matrix(1.0023 0 0 1 257.1938 154.0478)" class="st3 st4">t</text>
	<text transform="matrix(1.0023 0 0 1 260.6684 154.0478)" class="st3 st4">e</text>
	<text transform="matrix(1.0023 0 0 1 266.7387 154.0478)" class="st3 st4">:</text>
	<text transform="matrix(1.0023 0 0 1 269.3325 154.0478)" class="st3 st4"> </text>
	<text transform="matrix(1.0023 0 0 1 272.7963 154.0478)" class="st3 st4">x</text>
	<text transform="matrix(1.0023 0 0 1 277.9985 154.0478)" class="st3 st4">s</text>
	<text transform="matrix(1.0023 0 0 1 283.2045 154.0478)" class="st3 st4">:</text>
	<text transform="matrix(1.0023 0 0 1 285.7983 154.0478)" class="st3 st4">:</text>
	<text transform="matrix(1.0023 0 0 1 288.3911 154.0478)" class="st3 st4">s</text>
	<text transform="matrix(1.0023 0 0 1 293.5971 154.0478)" class="st3 st4">t</text>
	<text transform="matrix(1.0023 0 0 1 297.0717 154.0478)" class="st3 st4">r</text>
	<text transform="matrix(1.0023 0 0 1 301.4018 154.0478)" class="st3 st4">i</text>
	<text transform="matrix(1.0023 0 0 1 304.0102 154.0478)" class="st3 st4">n</text>
	<text transform="matrix(1.0023 0 0 1 310.0922 154.0478)" class="st3 st4">g</text>
	<text transform="matrix(1.0023 0 0 1 317.0317 154.0478)" class="st3 st4"> </text>
	<text transform="matrix(1.0023 0 0 1 320.4955 154.0478)" class="st3 st4">[</text>
	<text transform="matrix(1.0023 0 0 1 323.9575 154.0478)" class="st3 st4">0</text>
	<text transform="matrix(1.0023 0 0 1 330.0405 154.0478)" class="st3 st4">.</text>
	<text transform="matrix(1.0023 0 0 1 332.6342 154.0478)" class="st3 st4">.</text>
	<text transform="matrix(1.0023 0 0 1 335.227 154.0478)" class="st3 st4">1</text>
	<text transform="matrix(1.0023 0 0 1 341.311 154.0478)" class="st3 st4">]</text>
	<text transform="matrix(1.0023 0 0 1 220.7485 168.7665)" class="st3 st4">+</text>
	<text transform="matrix(1.0023 0 0 1 228.559 168.7665)" class="st3 st4"> </text>
	<text transform="matrix(1.0023 0 0 1 239.8422 168.7665)" class="st3 st4">s</text>
	<text transform="matrix(1.0023 0 0 1 245.0483 168.7665)" class="st3 st4">t</text>
	<text transform="matrix(1.0023 0 0 1 248.5229 168.7665)" class="st3 st4">a</text>
	<text transform="matrix(1.0023 0 0 1 254.5922 168.7665)" class="st3 st4">r</text>
	<text transform="matrix(1.0023 0 0 1 258.9213 168.7665)" class="st3 st4">t</text>
	<text transform="matrix(1.0023 0 0 1 262.3959 168.7665)" class="st3 st4">P</text>
	<text transform="matrix(1.0023 0 0 1 268.4799 168.7665)" class="st3 st4">o</text>
	<text transform="matrix(1.0023 0 0 1 275.4194 168.7665)" class="st3 st4">s</text>
	<text transform="matrix(1.0023 0 0 1 280.6254 168.7665)" class="st3 st4">t</text>
	<text transform="matrix(1.0023 0 0 1 284.0991 168.7665)" class="st3 st4">:</text>
	<text transform="matrix(1.0023 0 0 1 286.6928 168.7665)" class="st3 st4"> </text>
	<text transform="matrix(1.0023 0 0 1 290.1567 168.7665)" class="st3 st4">x</text>
	<text transform="matrix(1.0023 0 0 1 295.3598 168.7665)" class="st3 st4">s</text>
	<text transform="matrix(1.0023 0 0 1 300.5659 168.7665)" class="st3 st4">:</text>
	<text transform="matrix(1.0023 0 0 1 303.1586 168.7665)" class="st3 st4">:</text>
	<text transform="matrix(1.0023 0 0 1 305.7524 168.7665)" class="st3 st4">s</text>
	<text transform="matrix(1.0023 0 0 1 310.9584 168.7665)" class="st3 st4">t</text>
	<text transform="matrix(1.0023 0 0 1 314.433 168.7665)" class="st3 st4">r</text>
	<text transform="matrix(1.0023 0 0 1 318.7621 168.7665)" class="st3 st4">i</text>
	<text transform="matrix(1.0023 0 0 1 321.3715 168.7665)" class="st3 st4">n</text>
	<text transform="matrix(1.0023 0 0 1 327.4536 168.7665)" class="st3 st4">g</text>
	<text transform="matrix(1.0023 0 0 1 334.392 168.7665)" class="st3 st4"> </text>
	<text transform="matrix(1.0023 0 0 1 337.8559 168.7665)" class="st3 st4">[</text>
	<text transform="matrix(1.0023 0 0 1 341.3178 168.7665)" class="st3 st4">0</text>
	<text transform="matrix(1.0023 0 0 1 347.4018 168.7665)" class="st3 st4">.</text>
	<text transform="matrix(1.0023 0 0 1 349.9946 168.7665)" class="st3 st4">.</text>
	<text transform="matrix(1.0023 0 0 1 352.5883 168.7665)" class="st3 st4">1</text>
	<text transform="matrix(1.0023 0 0 1 358.6723 168.7665)" class="st3 st4">]</text>
	<text transform="matrix(1.0023 0 0 1 220.7485 183.5009)" class="st3 st4">+</text>
	<text transform="matrix(1.0023 0 0 1 228.559 183.5009)" class="st3 st4"> </text>
	<text transform="matrix(1.0023 0 0 1 239.8422 183.5009)" class="st3 st4">e</text>
	<text transform="matrix(1.0023 0 0 1 245.9135 183.5009)" class="st3 st4">n</text>
	<text transform="matrix(1.0023 0 0 1 251.9956 183.5009)" class="st3 st4">d</text>
	<text transform="matrix(1.0023 0 0 1 258.934 183.5009)" class="st3 st4">P</text>
	<text transform="matrix(1.0023 0 0 1 265.018 183.5009)" class="st3 st4">o</text>
	<text transform="matrix(1.0023 0 0 1 271.9575 183.5009)" class="st3 st4">s</text>
	<text transform="matrix(1.0023 0 0 1 277.1635 183.5009)" class="st3 st4">t</text>
	<text transform="matrix(1.0023 0 0 1 280.6381 183.5009)" class="st3 st4">:</text>
	<text transform="matrix(1.0023 0 0 1 283.2309 183.5009)" class="st3 st4"> </text>
	<text transform="matrix(1.0023 0 0 1 286.6948 183.5009)" class="st3 st4">x</text>
	<text transform="matrix(1.0023 0 0 1 291.8979 183.5009)" class="st3 st4">s</text>
	<text transform="matrix(1.0023 0 0 1 297.1039 183.5009)" class="st3 st4">:</text>
	<text transform="matrix(1.0023 0 0 1 299.6967 183.5009)" class="st3 st4">:</text>
	<text transform="matrix(1.0023 0 0 1 302.2905 183.5009)" class="st3 st4">s</text>
	<text transform="matrix(1.0023 0 0 1 307.4965 183.5009)" class="st3 st4">t</text>
	<text transform="matrix(1.0023 0 0 1 310.9711 183.5009)" class="st3 st4">r</text>
	<text transform="matrix(1.0023 0 0 1 315.3002 183.5009)" class="st3 st4">i</text>
	<text transform="matrix(1.0023 0 0 1 317.9096 183.5009)" class="st3 st4">n</text>
	<text transform="matrix(1.0023 0 0 1 323.9916 183.5009)" class="st3 st4">g</text>
	<text transform="matrix(1.0023 0 0 1 330.9301 183.5009)" class="st3 st4"> </text>
	<text transform="matrix(1.0023 0 0 1 334.394 183.5009)" class="st3 st4">[</text>
	<text transform="matrix(1.0023 0 0 1 337.8559 183.5009)" class="st3 st4">0</text>
	<text transform="matrix(1.0023 0 0 1 343.9399 183.5009)" class="st3 st4">.</text>
	<text transform="matrix(1.0023 0 0 1 346.5327 183.5009)" class="st3 st4">.</text>
	<text transform="matrix(1.0023 0 0 1 349.1264 183.5009)" class="st3 st4">1</text>
	<text transform="matrix(1.0023 0 0 1 355.2104 183.5009)" class="st3 st4">]</text>
	<text transform="matrix(1.0023 0 0 1 220.7485 198.2353)" class="st3 st4">+</text>
	<text transform="matrix(1.0023 0 0 1 228.559 198.2353)" class="st3 st4"> </text>
	<text transform="matrix(1.0023 0 0 1 239.8422 198.2353)" class="st3 st4">s</text>
	<text transform="matrix(1.0023 0 0 1 245.0483 198.2353)" class="st3 st4">t</text>
	<text transform="matrix(1.0023 0 0 1 248.5229 198.2353)" class="st3 st4">a</text>
	<text transform="matrix(1.0023 0 0 1 254.5922 198.2353)" class="st3 st4">r</text>
	<text transform="matrix(1.0023 0 0 1 258.9213 198.2353)" class="st3 st4">t</text>
	<text transform="matrix(1.0023 0 0 1 262.3959 198.2353)" class="st3 st4">L</text>
	<text transform="matrix(1.0023 0 0 1 267.6069 198.2353)" class="st3 st4">a</text>
	<text transform="matrix(1.0023 0 0 1 273.6752 198.2353)" class="st3 st4">t</text>
	<text transform="matrix(1.0023 0 0 1 277.1498 198.2353)" class="st3 st4">:</text>
	<text transform="matrix(1.0023 0 0 1 279.7436 198.2353)" class="st3 st4"> </text>
	<text transform="matrix(1.0023 0 0 1 283.2075 198.2353)" class="st3 st4">x</text>
	<text transform="matrix(1.0023 0 0 1 288.4096 198.2353)" class="st3 st4">s</text>
	<text transform="matrix(1.0023 0 0 1 293.6157 198.2353)" class="st3 st4">:</text>
	<text transform="matrix(1.0023 0 0 1 296.2094 198.2353)" class="st3 st4">:</text>
	<text transform="matrix(1.0023 0 0 1 298.8022 198.2353)" class="st3 st4">d</text>
	<text transform="matrix(1.0023 0 0 1 305.7416 198.2353)" class="st3 st4">o</text>
	<text transform="matrix(1.0023 0 0 1 312.6811 198.2353)" class="st3 st4">u</text>
	<text transform="matrix(1.0023 0 0 1 318.7631 198.2353)" class="st3 st4">b</text>
	<text transform="matrix(1.0023 0 0 1 325.7026 198.2353)" class="st3 st4">l</text>
	<text transform="matrix(1.0023 0 0 1 328.312 198.2353)" class="st3 st4">e</text>
	<text transform="matrix(1.0023 0 0 1 334.3823 198.2353)" class="st3 st4"> </text>
	<text transform="matrix(1.0023 0 0 1 337.8461 198.2353)" class="st3 st4">[</text>
	<text transform="matrix(1.0023 0 0 1 341.308 198.2353)" class="st3 st4">0</text>
	<text transform="matrix(1.0023 0 0 1 347.392 198.2353)" class="st3 st4">.</text>
	<text transform="matrix(1.0023 0 0 1 349.9848 198.2353)" class="st3 st4">.</text>
	<text transform="matrix(1.0023 0 0 1 352.5786 198.2353)" class="st3 st4">1</text>
	<text transform="matrix(1.0023 0 0 1 358.6616 198.2353)" class="st3 st4">]</text>
	<text transform="matrix(1.0023 0 0 1 220.7485 212.954)" class="st3 st4">+</text>
	<text transform="matrix(1.0023 0 0 1 228.559 212.954)" class="st3 st4"> </text>
	<text transform="matrix(1.0023 0 0 1 239.8422 212.954)" class="st3 st4">s</text>
	<text transform="matrix(1.0023 0 0 1 245.0483 212.954)" class="st3 st4">t</text>
	<text transform="matrix(1.0023 0 0 1 248.5229 212.954)" class="st3 st4">a</text>
	<text transform="matrix(1.0023 0 0 1 254.5922 212.954)" class="st3 st4">r</text>
	<text transform="matrix(1.0023 0 0 1 258.9213 212.954)" class="st3 st4">t</text>
	<text transform="matrix(1.0023 0 0 1 262.3959 212.954)" class="st3 st4">L</text>
	<text transform="matrix(1.0023 0 0 1 267.6069 212.954)" class="st3 st4">o</text>
	<text transform="matrix(1.0023 0 0 1 274.5463 212.954)" class="st3 st4">n</text>
	<text transform="matrix(1.0023 0 0 1 280.6284 212.954)" class="st3 st4">g</text>
	<text transform="matrix(1.0023 0 0 1 287.5659 212.954)" class="st3 st4">:</text>
	<text transform="matrix(1.0023 0 0 1 290.1606 212.954)" class="st3 st4"> </text>
	<text transform="matrix(1.0023 0 0 1 293.6245 212.954)" class="st3 st4">x</text>
	<text transform="matrix(1.0023 0 0 1 298.8266 212.954)" class="st3 st4">s</text>
	<text transform="matrix(1.0023 0 0 1 304.0327 212.954)" class="st3 st4">:</text>
	<text transform="matrix(1.0023 0 0 1 306.6264 212.954)" class="st3 st4">:</text>
	<text transform="matrix(1.0023 0 0 1 309.2192 212.954)" class="st3 st4">d</text>
	<text transform="matrix(1.0023 0 0 1 316.1586 212.954)" class="st3 st4">o</text>
	<text transform="matrix(1.0023 0 0 1 323.0981 212.954)" class="st3 st4">u</text>
	<text transform="matrix(1.0023 0 0 1 329.1801 212.954)" class="st3 st4">b</text>
	<text transform="matrix(1.0023 0 0 1 336.1196 212.954)" class="st3 st4">l</text>
	<text transform="matrix(1.0023 0 0 1 338.7289 212.954)" class="st3 st4">e</text>
	<text transform="matrix(1.0023 0 0 1 344.7993 212.954)" class="st3 st4"> </text>
	<text transform="matrix(1.0023 0 0 1 348.2631 212.954)" class="st3 st4">[</text>
	<text transform="matrix(1.0023 0 0 1 351.7241 212.954)" class="st3 st4">0</text>
	<text transform="matrix(1.0023 0 0 1 357.809 212.954)" class="st3 st4">.</text>
	<text transform="matrix(1.0023 0 0 1 360.4018 212.954)" class="st3 st4">.</text>
	<text transform="matrix(1.0023 0 0 1 362.9955 212.954)" class="st3 st4">1</text>
	<text transform="matrix(1.0023 0 0 1 369.0795 212.954)" class="st3 st4">]</text>
	<text transform="matrix(1.0023 0 0 1 220.7485 227.6728)" class="st3 st4">+</text>
	<text transform="matrix(1.0023 0 0 1 228.559 227.6728)" class="st3 st4"> </text>
	<text transform="matrix(1.0023 0 0 1 239.8422 227.6728)" class="st3 st4">a</text>
	<text transform="matrix(1.0023 0 0 1 245.9116 227.6728)" class="st3 st4">l</text>
	<text transform="matrix(1.0023 0 0 1 248.52 227.6728)" class="st3 st4">t</text>
	<text transform="matrix(1.0023 0 0 1 251.9946 227.6728)" class="st3 st4">e</text>
	<text transform="matrix(1.0023 0 0 1 258.0659 227.6728)" class="st3 st4">r</text>
	<text transform="matrix(1.0023 0 0 1 262.3959 227.6728)" class="st3 st4">n</text>
	<text transform="matrix(1.0023 0 0 1 268.477 227.6728)" class="st3 st4">a</text>
	<text transform="matrix(1.0023 0 0 1 274.5463 227.6728)" class="st3 st4">t</text>
	<text transform="matrix(1.0023 0 0 1 278.0209 227.6728)" class="st3 st4">i</text>
	<text transform="matrix(1.0023 0 0 1 280.6303 227.6728)" class="st3 st4">v</text>
	<text transform="matrix(1.0023 0 0 1 285.8442 227.6728)" class="st3 st4">e</text>
	<text transform="matrix(1.0023 0 0 1 291.9145 227.6728)" class="st3 st4">N</text>
	<text transform="matrix(1.0023 0 0 1 300.5942 227.6728)" class="st3 st4">a</text>
	<text transform="matrix(1.0023 0 0 1 306.6635 227.6728)" class="st3 st4">m</text>
	<text transform="matrix(1.0023 0 0 1 316.2143 227.6728)" class="st3 st4">e</text>
	<text transform="matrix(1.0023 0 0 1 322.2856 227.6728)" class="st3 st4">:</text>
	<text transform="matrix(1.0023 0 0 1 324.8784 227.6728)" class="st3 st4"> </text>
	<text transform="matrix(1.0023 0 0 1 328.3422 227.6728)" class="st3 st4">x</text>
	<text transform="matrix(1.0023 0 0 1 333.5444 227.6728)" class="st3 st4">s</text>
	<text transform="matrix(1.0023 0 0 1 338.7504 227.6728)" class="st3 st4">:</text>
	<text transform="matrix(1.0023 0 0 1 341.3442 227.6728)" class="st3 st4">:</text>
	<text transform="matrix(1.0023 0 0 1 343.9379 227.6728)" class="st3 st4">s</text>
	<text transform="matrix(1.0023 0 0 1 349.144 227.6728)" class="st3 st4">t</text>
	<text transform="matrix(1.0023 0 0 1 352.6186 227.6728)" class="st3 st4">r</text>
	<text transform="matrix(1.0023 0 0 1 356.9477 227.6728)" class="st3 st4">i</text>
	<text transform="matrix(1.0023 0 0 1 359.5571 227.6728)" class="st3 st4">n</text>
	<text transform="matrix(1.0023 0 0 1 365.6391 227.6728)" class="st3 st4">g</text>
	<text transform="matrix(1.0023 0 0 1 372.5776 227.6728)" class="st3 st4"> </text>
	<text transform="matrix(1.0023 0 0 1 376.0414 227.6728)" class="st3 st4">[</text>
	<text transform="matrix(1.0023 0 0 1 379.5034 227.6728)" class="st3 st4">0</text>
	<text transform="matrix(1.0023 0 0 1 385.5873 227.6728)" class="st3 st4">.</text>
	<text transform="matrix(1.0023 0 0 1 388.1801 227.6728)" class="st3 st4">.</text>
	<text transform="matrix(1.0023 0 0 1 390.7739 227.6728)" class="st3 st4">*</text>
	<text transform="matrix(1.0023 0 0 1 395.1186 227.6728)" class="st3 st4">]</text>
	<path class="st0" d="M770.7,28.5c1.2,0,2.2,1,2.2,2.2l0,0v64.1l0,0c0,1.2-1,2.2-2.2,2.2l0,0l0,0H629.2l0,0c-1.2,0-2.2-1-2.2-2.2
		l0,0V30.6c0-1.2,1-2.2,2.2-2.2l0,0L770.7,28.5L770.7,28.5L770.7,28.5z"/>
	<path class="st1" d="M768.1,25.9c1.2,0,2.2,1,2.2,2.2l0,0v64.1l0,0c0,1.2-1,2.2-2.2,2.2l0,0l0,0H626.6l0,0c-1.2,0-2.2-1-2.2-2.2
		l0,0V28c0-1.2,1-2.2,2.2-2.2l0,0H768.1L768.1,25.9L768.1,25.9z"/>
	<path class="st2" d="M768.1,25.9c1.2,0,2.2,1,2.2,2.2l0,0v64.1l0,0c0,1.2-1,2.2-2.2,2.2l0,0l0,0H626.6l0,0c-1.2,0-2.2-1-2.2-2.2
		l0,0V28c0-1.2,1-2.2,2.2-2.2l0,0H768.1L768.1,25.9L768.1,25.9z"/>
	<text transform="matrix(1.0023 0 0 1 667.8256 43.1884)" class="st3 st4">«</text>
	<text transform="matrix(1.0023 0 0 1 673.8959 43.1884)" class="st3 st4">D</text>
	<text transform="matrix(1.0023 0 0 1 681.7182 43.1884)" class="st3 st4">a</text>
	<text transform="matrix(1.0023 0 0 1 687.7866 43.1884)" class="st3 st4">t</text>
	<text transform="matrix(1.0023 0 0 1 691.2612 43.1884)" class="st3 st4">a</text>
	<text transform="matrix(1.0023 0 0 1 697.3315 43.1884)" class="st3 st4">T</text>
	<text transform="matrix(1.0023 0 0 1 703.4018 43.1884)" class="st3 st4">y</text>
	<text transform="matrix(1.0023 0 0 1 708.6147 43.1884)" class="st3 st4">p</text>
	<text transform="matrix(1.0023 0 0 1 715.5541 43.1884)" class="st3 st4">e</text>
	<text transform="matrix(1.0023 0 0 1 721.6245 43.1884)" class="st3 st4">»</text>
	<text transform="matrix(0.9506 0 -0.3169 0.9485 644.3821 57.9207)" class="st3 st6">u</text>
	<text transform="matrix(0.9506 0 -0.3169 0.9485 644.3821 57.9207)" class="st7 st3 st6">u</text>
	<text transform="matrix(0.9506 0 -0.3169 0.9485 651.3216 57.9207)" class="st3 st6">r</text>
	<text transform="matrix(0.9506 0 -0.3169 0.9485 651.3216 57.9207)" class="st7 st3 st6">r</text>
	<text transform="matrix(0.9506 0 -0.3169 0.9485 655.6517 57.9207)" class="st3 st6">o</text>
	<text transform="matrix(0.9506 0 -0.3169 0.9485 655.6517 57.9207)" class="st7 st3 st6">o</text>
	<text transform="matrix(0.9506 0 -0.3169 0.9485 662.5911 57.9207)" class="st3 st6">:</text>
	<text transform="matrix(0.9506 0 -0.3169 0.9485 662.5911 57.9207)" class="st7 st3 st6">:</text>
	<text transform="matrix(0.9506 0 -0.3169 0.9485 665.1849 57.9207)" class="st3 st6">:</text>
	<text transform="matrix(0.9506 0 -0.3169 0.9485 665.1849 57.9207)" class="st7 st3 st6">:</text>
	<text transform="matrix(0.9506 0 -0.3169 0.9485 667.7786 57.9207)" class="st3 st6">F</text>
	<text transform="matrix(0.9506 0 -0.3169 0.9485 667.7786 57.9207)" class="st7 st3 st6">F</text>
	<text transform="matrix(0.9506 0 -0.3169 0.9485 673.8528 57.9207)" class="st3 st6">a</text>
	<text transform="matrix(0.9506 0 -0.3169 0.9485 673.8528 57.9207)" class="st7 st3 st6">a</text>
	<text transform="matrix(0.9506 0 -0.3169 0.9485 679.9212 57.9207)" class="st3 st6">c</text>
	<text transform="matrix(0.9506 0 -0.3169 0.9485 679.9212 57.9207)" class="st7 st3 st6">c</text>
	<text transform="matrix(0.9506 0 -0.3169 0.9485 685.1341 57.9207)" class="st3 st6">i</text>
	<text transform="matrix(0.9506 0 -0.3169 0.9485 685.1341 57.9207)" class="st7 st3 st6">i</text>
	<text transform="matrix(0.9506 0 -0.3169 0.9485 687.7435 57.9207)" class="st3 st6">l</text>
	<text transform="matrix(0.9506 0 -0.3169 0.9485 687.7435 57.9207)" class="st7 st3 st6">l</text>
	<text transform="matrix(0.9506 0 -0.3169 0.9485 690.3528 57.9207)" class="st3 st6">i</text>
	<text transform="matrix(0.9506 0 -0.3169 0.9485 690.3528 57.9207)" class="st7 st3 st6">i</text>
	<text transform="matrix(0.9506 0 -0.3169 0.9485 692.9622 57.9207)" class="st3 st6">t</text>
	<text transform="matrix(0.9506 0 -0.3169 0.9485 692.9622 57.9207)" class="st7 st3 st6">t</text>
	<text transform="matrix(0.9506 0 -0.3169 0.9485 697.2943 57.9207)" class="st3 st6">y</text>
	<text transform="matrix(0.9506 0 -0.3169 0.9485 697.2943 57.9207)" class="st7 st3 st6">y</text>
	<text transform="matrix(0.9506 0 -0.3169 0.9485 703.3646 57.9207)" class="st3 st6">A</text>
	<text transform="matrix(0.9506 0 -0.3169 0.9485 703.3646 57.9207)" class="st7 st3 st6">A</text>
	<text transform="matrix(0.9506 0 -0.3169 0.9485 711.1732 57.9207)" class="st3 st6">t</text>
	<text transform="matrix(0.9506 0 -0.3169 0.9485 711.1732 57.9207)" class="st7 st3 st6">t</text>
	<text transform="matrix(0.9506 0 -0.3169 0.9485 715.5052 57.9207)" class="st3 st6">t</text>
	<text transform="matrix(0.9506 0 -0.3169 0.9485 715.5052 57.9207)" class="st7 st3 st6">t</text>
	<text transform="matrix(0.9506 0 -0.3169 0.9485 719.8372 57.9207)" class="st3 st6">r</text>
	<text transform="matrix(0.9506 0 -0.3169 0.9485 719.8372 57.9207)" class="st7 st3 st6">r</text>
	<text transform="matrix(0.9506 0 -0.3169 0.9485 724.1673 57.9207)" class="st3 st6">i</text>
	<text transform="matrix(0.9506 0 -0.3169 0.9485 724.1673 57.9207)" class="st7 st3 st6">i</text>
	<text transform="matrix(0.9506 0 -0.3169 0.9485 726.7767 57.9207)" class="st3 st6">b</text>
	<text transform="matrix(0.9506 0 -0.3169 0.9485 726.7767 57.9207)" class="st7 st3 st6">b</text>
	<text transform="matrix(0.9506 0 -0.3169 0.9485 733.7161 57.9207)" class="st3 st6">u</text>
	<text transform="matrix(0.9506 0 -0.3169 0.9485 733.7161 57.9207)" class="st7 st3 st6">u</text>
	<text transform="matrix(0.9506 0 -0.3169 0.9485 740.6556 57.9207)" class="st3 st6">t</text>
	<text transform="matrix(0.9506 0 -0.3169 0.9485 740.6556 57.9207)" class="st7 st3 st6">t</text>
	<text transform="matrix(0.9506 0 -0.3169 0.9485 744.9876 57.9207)" class="st3 st6">e</text>
	<text transform="matrix(0.9506 0 -0.3169 0.9485 744.9876 57.9207)" class="st7 st3 st6">e</text>
	<line class="st2" x1="624.4" y1="64.8" x2="770.3" y2="64.8"/>
	<text transform="matrix(1.0023 0 0 1 628.7475 80.4384)" class="st3 st4">+</text>
	<text transform="matrix(1.0023 0 0 1 636.558 80.4384)" class="st3 st4"> </text>
	<text transform="matrix(1.0023 0 0 1 647.8569 80.4384)" class="st3 st4">f</text>
	<text transform="matrix(1.0023 0 0 1 651.3334 80.4384)" class="st3 st4">a</text>
	<text transform="matrix(1.0023 0 0 1 657.4018 80.4384)" class="st3 st4">c</text>
	<text transform="matrix(1.0023 0 0 1 662.6147 80.4384)" class="st3 st4">i</text>
	<text transform="matrix(1.0023 0 0 1 665.2241 80.4384)" class="st3 st4">l</text>
	<text transform="matrix(1.0023 0 0 1 667.8334 80.4384)" class="st3 st4">i</text>
	<text transform="matrix(1.0023 0 0 1 670.4409 80.4384)" class="st3 st4">t</text>
	<text transform="matrix(1.0023 0 0 1 673.9155 80.4384)" class="st3 st4">y</text>
	<text transform="matrix(1.0023 0 0 1 679.1284 80.4384)" class="st3 st4">I</text>
	<text transform="matrix(1.0023 0 0 1 681.7377 80.4384)" class="st3 st4">d</text>
	<text transform="matrix(1.0023 0 0 1 688.6752 80.4384)" class="st3 st4">:</text>
	<text transform="matrix(1.0023 0 0 1 691.269 80.4384)" class="st3 st4"> </text>
	<text transform="matrix(1.0023 0 0 1 694.7338 80.4384)" class="st3 st4">x</text>
	<text transform="matrix(1.0023 0 0 1 699.935 80.4384)" class="st3 st4">s</text>
	<text transform="matrix(1.0023 0 0 1 705.142 80.4384)" class="st3 st4">:</text>
	<text transform="matrix(1.0023 0 0 1 707.7358 80.4384)" class="st3 st4">:</text>
	<text transform="matrix(1.0023 0 0 1 710.3276 80.4384)" class="st3 st4">s</text>
	<text transform="matrix(1.0023 0 0 1 715.5346 80.4384)" class="st3 st4">t</text>
	<text transform="matrix(1.0023 0 0 1 719.0092 80.4384)" class="st3 st4">r</text>
	<text transform="matrix(1.0023 0 0 1 723.3393 80.4384)" class="st3 st4">i</text>
	<text transform="matrix(1.0023 0 0 1 725.9467 80.4384)" class="st3 st4">n</text>
	<text transform="matrix(1.0023 0 0 1 732.0287 80.4384)" class="st3 st4">g</text>
	<text transform="matrix(1.0023 0 0 1 738.9682 80.4384)" class="st3 st4"> </text>
	<text transform="matrix(1.0023 0 0 1 742.433 80.4384)" class="st3 st4">[</text>
	<text transform="matrix(1.0023 0 0 1 745.894 80.4384)" class="st3 st4">0</text>
	<text transform="matrix(1.0023 0 0 1 751.978 80.4384)" class="st3 st4">.</text>
	<text transform="matrix(1.0023 0 0 1 754.5717 80.4384)" class="st3 st4">.</text>
	<text transform="matrix(1.0023 0 0 1 757.1635 80.4384)" class="st3 st4">1</text>
	<text transform="matrix(1.0023 0 0 1 763.2475 80.4384)" class="st3 st4">]</text>
	<path class="st0" d="M599.7,28.5c1.2,0,2.2,1,2.2,2.2l0,0v71l0,0c0,1.2-1,2.2-2.2,2.2l0,0l0,0H429.5l0,0c-1.2,0-2.2-1-2.2-2.2l0,0
		v-71c0-1.2,1-2.2,2.2-2.2l0,0L599.7,28.5L599.7,28.5L599.7,28.5z"/>
	<path class="st1" d="M597.1,25.9c1.2,0,2.2,1,2.2,2.2l0,0v71l0,0c0,1.2-1,2.2-2.2,2.2l0,0l0,0H426.9l0,0c-1.2,0-2.2-1-2.2-2.2l0,0
		V28c0-1.2,1-2.2,2.2-2.2l0,0H597.1L597.1,25.9L597.1,25.9z"/>
	<path class="st2" d="M597.1,25.9c1.2,0,2.2,1,2.2,2.2l0,0v71l0,0c0,1.2-1,2.2-2.2,2.2l0,0l0,0H426.9l0,0c-1.2,0-2.2-1-2.2-2.2l0,0
		V28c0-1.2,1-2.2,2.2-2.2l0,0H597.1L597.1,25.9L597.1,25.9z"/>
	<text transform="matrix(1.0023 0 0 1 482.06 43.1884)" class="st3 st4">«</text>
	<text transform="matrix(1.0023 0 0 1 488.1303 43.1884)" class="st3 st4">D</text>
	<text transform="matrix(1.0023 0 0 1 495.9526 43.1884)" class="st3 st4">a</text>
	<text transform="matrix(1.0023 0 0 1 502.0209 43.1884)" class="st3 st4">t</text>
	<text transform="matrix(1.0023 0 0 1 505.4955 43.1884)" class="st3 st4">a</text>
	<text transform="matrix(1.0023 0 0 1 511.5659 43.1884)" class="st3 st4">T</text>
	<text transform="matrix(1.0023 0 0 1 517.6362 43.1884)" class="st3 st4">y</text>
	<text transform="matrix(1.0023 0 0 1 522.8491 43.1884)" class="st3 st4">p</text>
	<text transform="matrix(1.0023 0 0 1 529.7885 43.1884)" class="st3 st4">e</text>
	<text transform="matrix(1.0023 0 0 1 535.8588 43.1884)" class="st3 st4">»</text>
	<text transform="matrix(1.0023 0 0 1 446.4662 57.9228)" class="st5 st4">u</text>
	<text transform="matrix(1.0023 0 0 1 453.4018 57.9228)" class="st5 st4">r</text>
	<text transform="matrix(1.0023 0 0 1 457.7358 57.9228)" class="st5 st4">o</text>
	<text transform="matrix(1.0023 0 0 1 464.6791 57.9228)" class="st5 st4">:</text>
	<text transform="matrix(1.0023 0 0 1 467.2885 57.9228)" class="st5 st4">:</text>
	<text transform="matrix(1.0023 0 0 1 469.8979 57.9228)" class="st5 st4">F</text>
	<text transform="matrix(1.0023 0 0 1 475.9741 57.9228)" class="st5 st4">a</text>
	<text transform="matrix(1.0023 0 0 1 482.0444 57.9228)" class="st5 st4">c</text>
	<text transform="matrix(1.0023 0 0 1 487.2612 57.9228)" class="st5 st4">i</text>
	<text transform="matrix(1.0023 0 0 1 489.8705 57.9228)" class="st5 st4">l</text>
	<text transform="matrix(1.0023 0 0 1 492.4799 57.9228)" class="st5 st4">i</text>
	<text transform="matrix(1.0023 0 0 1 495.0893 57.9228)" class="st5 st4">t</text>
	<text transform="matrix(1.0023 0 0 1 499.4272 57.9228)" class="st5 st4">y</text>
	<text transform="matrix(1.0023 0 0 1 505.5014 57.9228)" class="st5 st4">T</text>
	<text transform="matrix(1.0023 0 0 1 511.5815 57.9228)" class="st5 st4">y</text>
	<text transform="matrix(1.0023 0 0 1 517.6577 57.9228)" class="st5 st4">p</text>
	<text transform="matrix(1.0023 0 0 1 524.5932 57.9228)" class="st5 st4">e</text>
	<text transform="matrix(1.0023 0 0 1 530.6674 57.9228)" class="st5 st4">A</text>
	<text transform="matrix(1.0023 0 0 1 538.4702 57.9228)" class="st5 st4">t</text>
	<text transform="matrix(1.0023 0 0 1 542.8061 57.9228)" class="st5 st4">t</text>
	<text transform="matrix(1.0023 0 0 1 547.144 57.9228)" class="st5 st4">r</text>
	<text transform="matrix(1.0023 0 0 1 551.478 57.9228)" class="st5 st4">i</text>
	<text transform="matrix(1.0023 0 0 1 554.0873 57.9228)" class="st5 st4">b</text>
	<text transform="matrix(1.0023 0 0 1 561.0229 57.9228)" class="st5 st4">u</text>
	<text transform="matrix(1.0023 0 0 1 567.9584 57.9228)" class="st5 st4">t</text>
	<text transform="matrix(1.0023 0 0 1 572.2963 57.9228)" class="st5 st4">e</text>
	<line class="st2" x1="424.8" y1="64.8" x2="599.3" y2="64.8"/>
	<text transform="matrix(1.0023 0 0 1 429.0912 80.4384)" class="st3 st4">+</text>
	<text transform="matrix(1.0023 0 0 1 436.9018 80.4384)" class="st3 st4"> </text>
	<text transform="matrix(1.0023 0 0 1 448.185 80.4384)" class="st3 st4">c</text>
	<text transform="matrix(1.0023 0 0 1 453.3979 80.4384)" class="st3 st4">l</text>
	<text transform="matrix(1.0023 0 0 1 456.0073 80.4384)" class="st3 st4">a</text>
	<text transform="matrix(1.0023 0 0 1 462.0756 80.4384)" class="st3 st4">s</text>
	<text transform="matrix(1.0023 0 0 1 467.2827 80.4384)" class="st3 st4">s</text>
	<text transform="matrix(1.0023 0 0 1 472.4877 80.4384)" class="st3 st4">:</text>
	<text transform="matrix(1.0023 0 0 1 475.0815 80.4384)" class="st3 st4"> </text>
	<text transform="matrix(1.0023 0 0 1 478.5463 80.4384)" class="st3 st4">g</text>
	<text transform="matrix(1.0023 0 0 1 485.4838 80.4384)" class="st3 st4">m</text>
	<text transform="matrix(1.0023 0 0 1 495.0366 80.4384)" class="st3 st4">l</text>
	<text transform="matrix(1.0023 0 0 1 497.644 80.4384)" class="st3 st4">:</text>
	<text transform="matrix(1.0023 0 0 1 500.2377 80.4384)" class="st3 st4">:</text>
	<text transform="matrix(1.0023 0 0 1 502.8315 80.4384)" class="st3 st4">C</text>
	<text transform="matrix(1.0023 0 0 1 509.7846 80.4384)" class="st3 st4">o</text>
	<text transform="matrix(1.0023 0 0 1 516.7241 80.4384)" class="st3 st4">d</text>
	<text transform="matrix(1.0023 0 0 1 523.6635 80.4384)" class="st3 st4">e</text>
	<text transform="matrix(1.0023 0 0 1 529.7338 80.4384)" class="st3 st4">T</text>
	<text transform="matrix(1.0023 0 0 1 535.8061 80.4384)" class="st3 st4">y</text>
	<text transform="matrix(1.0023 0 0 1 541.017 80.4384)" class="st3 st4">p</text>
	<text transform="matrix(1.0023 0 0 1 547.9565 80.4384)" class="st3 st4">e</text>
	<text transform="matrix(1.0023 0 0 1 554.0287 80.4384)" class="st3 st4"> </text>
	<text transform="matrix(1.0023 0 0 1 557.4916 80.4384)" class="st3 st4">[</text>
	<text transform="matrix(1.0023 0 0 1 560.9545 80.4384)" class="st3 st4">0</text>
	<text transform="matrix(1.0023 0 0 1 567.0366 80.4384)" class="st3 st4">.</text>
	<text transform="matrix(1.0023 0 0 1 569.6303 80.4384)" class="st3 st4">.</text>
	<text transform="matrix(1.0023 0 0 1 572.2241 80.4384)" class="st3 st4">1</text>
	<text transform="matrix(1.0023 0 0 1 578.308 80.4384)" class="st3 st4">]</text>
	<text transform="matrix(1.0023 0 0 1 429.0912 95.1571)" class="st3 st4">+</text>
	<text transform="matrix(1.0023 0 0 1 436.9018 95.1571)" class="st3 st4"> </text>
	<text transform="matrix(1.0023 0 0 1 448.185 95.1571)" class="st3 st4">f</text>
	<text transform="matrix(1.0023 0 0 1 451.6616 95.1571)" class="st3 st4">u</text>
	<text transform="matrix(1.0023 0 0 1 457.7436 95.1571)" class="st3 st4">n</text>
	<text transform="matrix(1.0023 0 0 1 463.8237 95.1571)" class="st3 st4">c</text>
	<text transform="matrix(1.0023 0 0 1 469.0366 95.1571)" class="st3 st4">t</text>
	<text transform="matrix(1.0023 0 0 1 472.5112 95.1571)" class="st3 st4">i</text>
	<text transform="matrix(1.0023 0 0 1 475.1205 95.1571)" class="st3 st4">o</text>
	<text transform="matrix(1.0023 0 0 1 482.06 95.1571)" class="st3 st4">n</text>
	<text transform="matrix(1.0023 0 0 1 488.142 95.1571)" class="st3 st4">:</text>
	<text transform="matrix(1.0023 0 0 1 490.7358 95.1571)" class="st3 st4"> </text>
	<text transform="matrix(1.0023 0 0 1 494.2006 95.1571)" class="st3 st4">g</text>
	<text transform="matrix(1.0023 0 0 1 501.1381 95.1571)" class="st3 st4">m</text>
	<text transform="matrix(1.0023 0 0 1 510.6909 95.1571)" class="st3 st4">l</text>
	<text transform="matrix(1.0023 0 0 1 513.2983 95.1571)" class="st3 st4">:</text>
	<text transform="matrix(1.0023 0 0 1 515.892 95.1571)" class="st3 st4">:</text>
	<text transform="matrix(1.0023 0 0 1 518.4858 95.1571)" class="st3 st4">C</text>
	<text transform="matrix(1.0023 0 0 1 525.4389 95.1571)" class="st3 st4">o</text>
	<text transform="matrix(1.0023 0 0 1 532.3784 95.1571)" class="st3 st4">d</text>
	<text transform="matrix(1.0023 0 0 1 539.3178 95.1571)" class="st3 st4">e</text>
	<text transform="matrix(1.0023 0 0 1 545.3881 95.1571)" class="st3 st4">T</text>
	<text transform="matrix(1.0023 0 0 1 551.4604 95.1571)" class="st3 st4">y</text>
	<text transform="matrix(1.0023 0 0 1 556.6713 95.1571)" class="st3 st4">p</text>
	<text transform="matrix(1.0023 0 0 1 563.6108 95.1571)" class="st3 st4">e</text>
	<text transform="matrix(1.0023 0 0 1 569.683 95.1571)" class="st3 st4"> </text>
	<text transform="matrix(1.0023 0 0 1 573.1459 95.1571)" class="st3 st4">[</text>
	<text transform="matrix(1.0023 0 0 1 576.6088 95.1571)" class="st3 st4">0</text>
	<text transform="matrix(1.0023 0 0 1 582.6909 95.1571)" class="st3 st4">.</text>
	<text transform="matrix(1.0023 0 0 1 585.2846 95.1571)" class="st3 st4">.</text>
	<text transform="matrix(1.0023 0 0 1 587.8784 95.1571)" class="st3 st4">*</text>
	<text transform="matrix(1.0023 0 0 1 592.2241 95.1571)" class="st3 st4">]</text>
	<path class="st8" d="M190.4,25.9c1.4,0,2.6,1.2,2.6,2.6l0,0V109l0,0c0,1.4-1.2,2.6-2.6,2.6l0,0l0,0H28l0,0c-1.4,0-2.6-1.2-2.6-2.6
		V28.5c0-1.4,1.2-2.6,2.6-2.6l0,0H190.4L190.4,25.9L190.4,25.9z"/>
	<path class="st9" d="M190.4,25.9c1.4,0,2.6,1.2,2.6,2.6l0,0V109l0,0c0,1.4-1.2,2.6-2.6,2.6l0,0l0,0H28l0,0c-1.4,0-2.6-1.2-2.6-2.6
		V28.5c0-1.4,1.2-2.6,2.6-2.6l0,0H190.4L190.4,25.9L190.4,25.9z"/>
	<path class="st10" d="M45.8,51.9c1.2,0,2.2,1,2.2,2.2l0,0v9.5l0,0c0,1.2-1,2.2-2.2,2.2l0,0l0,0h-9.5l0,0c-1.2,0-2.2-1-2.2-2.2l0,0
		V54c0-1.2,1-2.2,2.2-2.2l0,0H45.8L45.8,51.9L45.8,51.9z"/>
	<path class="st11" d="M45.8,51.9c1.2,0,2.2,1,2.2,2.2l0,0v9.5l0,0c0,1.2-1,2.2-2.2,2.2l0,0l0,0h-9.5l0,0c-1.2,0-2.2-1-2.2-2.2l0,0
		V54c0-1.2,1-2.2,2.2-2.2l0,0H45.8L45.8,51.9L45.8,51.9z"/>
	<text transform="matrix(1.0023 0 0 1 53.2163 63.9696)" class="st12 st3 st4">G</text>
	<text transform="matrix(1.0023 0 0 1 61.0268 63.9696)" class="st12 st3 st4">M</text>
	<text transform="matrix(1.0023 0 0 1 71.4428 63.9696)" class="st12 st3 st4">L</text>
	<text transform="matrix(1.0023 0 0 1 76.6538 63.9696)" class="st12 st3 st4">に</text>
	<text transform="matrix(1.0023 0 0 1 85.3413 63.9696)" class="st12 st3 st4">定</text>
	<text transform="matrix(1.0023 0 0 1 96.6264 63.9696)" class="st12 st3 st4">義</text>
	<text transform="matrix(1.0023 0 0 1 107.9116 63.9696)" class="st12 st3 st4">さ</text>
	<text transform="matrix(1.0023 0 0 1 115.7192 63.9696)" class="st12 st3 st4">れ</text>
	<text transform="matrix(1.0023 0 0 1 126.1264 63.9696)" class="st12 st3 st4">た</text>
	<text transform="matrix(1.0023 0 0 1 134.8188 63.9696)" class="st12 st3 st4">ク</text>
	<text transform="matrix(1.0023 0 0 1 143.4965 63.9696)" class="st12 st3 st4">ラ</text>
	<text transform="matrix(1.0023 0 0 1 151.3051 63.9696)" class="st12 st3 st4">ス</text>
	<path class="st13" d="M45.8,68.3c1.2,0,2.2,1,2.2,2.2l0,0V80l0,0c0,1.2-1,2.2-2.2,2.2l0,0l0,0h-9.5l0,0c-1.2,0-2.2-1-2.2-2.2l0,0
		v-9.5c0-1.2,1-2.2,2.2-2.2l0,0H45.8L45.8,68.3L45.8,68.3z"/>
	<path class="st11" d="M45.8,68.3c1.2,0,2.2,1,2.2,2.2l0,0V80l0,0c0,1.2-1,2.2-2.2,2.2l0,0l0,0h-9.5l0,0c-1.2,0-2.2-1-2.2-2.2l0,0
		v-9.5c0-1.2,1-2.2,2.2-2.2l0,0H45.8L45.8,68.3L45.8,68.3z"/>
	<text transform="matrix(1.0023 0 0 1 53.2163 80.4384)" class="st12 st3 st4">C</text>
	<text transform="matrix(1.0023 0 0 1 60.1704 80.4384)" class="st12 st3 st4">i</text>
	<text transform="matrix(1.0023 0 0 1 62.7797 80.4384)" class="st12 st3 st4">t</text>
	<text transform="matrix(1.0023 0 0 1 66.2543 80.4384)" class="st12 st3 st4">y</text>
	<text transform="matrix(1.0023 0 0 1 71.4663 80.4384)" class="st12 st3 st4">G</text>
	<text transform="matrix(1.0023 0 0 1 79.2768 80.4384)" class="st12 st3 st4">M</text>
	<text transform="matrix(1.0023 0 0 1 89.6928 80.4384)" class="st12 st3 st4">L</text>
	<text transform="matrix(1.0023 0 0 1 94.9028 80.4384)" class="st12 st3 st4">に</text>
	<text transform="matrix(1.0023 0 0 1 103.5903 80.4384)" class="st12 st3 st4">定</text>
	<text transform="matrix(1.0023 0 0 1 114.8754 80.4384)" class="st12 st3 st4">義</text>
	<text transform="matrix(1.0023 0 0 1 126.1616 80.4384)" class="st12 st3 st4">さ</text>
	<text transform="matrix(1.0023 0 0 1 133.9682 80.4384)" class="st12 st3 st4">れ</text>
	<text transform="matrix(1.0023 0 0 1 144.3764 80.4384)" class="st12 st3 st4">た</text>
	<text transform="matrix(1.0023 0 0 1 153.0678 80.4384)" class="st12 st3 st4">ク</text>
	<text transform="matrix(1.0023 0 0 1 161.7465 80.4384)" class="st12 st3 st4">ラ</text>
	<text transform="matrix(1.0023 0 0 1 169.5551 80.4384)" class="st12 st3 st4">ス</text>
	<path class="st1" d="M45.8,84.8c1.2,0,2.2,1,2.2,2.2l0,0v9.5l0,0c0,1.2-1,2.2-2.2,2.2l0,0l0,0h-9.5l0,0c-1.2,0-2.2-1-2.2-2.2l0,0
		v-9.5c0-1.2,1-2.2,2.2-2.2l0,0H45.8L45.8,84.8L45.8,84.8z"/>
	<path class="st11" d="M45.8,84.8c1.2,0,2.2,1,2.2,2.2l0,0v9.5l0,0c0,1.2-1,2.2-2.2,2.2l0,0l0,0h-9.5l0,0c-1.2,0-2.2-1-2.2-2.2l0,0
		v-9.5c0-1.2,1-2.2,2.2-2.2l0,0H45.8L45.8,84.8L45.8,84.8z"/>
	<text transform="matrix(1.0023 0 0 1 53.2163 96.8915)" class="st12 st3 st4">i</text>
	<text transform="matrix(1.0023 0 0 1 55.8266 96.8915)" class="st12 st3 st4">-</text>
	<text transform="matrix(1.0023 0 0 1 60.1704 96.8915)" class="st12 st3 st4">U</text>
	<text transform="matrix(1.0023 0 0 1 67.9799 96.8915)" class="st12 st3 st4">R</text>
	<text transform="matrix(1.0023 0 0 1 74.9223 96.8915)" class="st12 st3 st4">に</text>
	<text transform="matrix(1.0023 0 0 1 83.6088 96.8915)" class="st12 st3 st4">定</text>
	<text transform="matrix(1.0023 0 0 1 94.895 96.8915)" class="st12 st3 st4">義</text>
	<text transform="matrix(1.0023 0 0 1 106.1801 96.8915)" class="st12 st3 st4">さ</text>
	<text transform="matrix(1.0023 0 0 1 113.9877 96.8915)" class="st12 st3 st4">れ</text>
	<text transform="matrix(1.0023 0 0 1 124.395 96.8915)" class="st12 st3 st4">た</text>
	<text transform="matrix(1.0023 0 0 1 133.0864 96.8915)" class="st12 st3 st4">ク</text>
	<text transform="matrix(1.0023 0 0 1 141.7651 96.8915)" class="st12 st3 st4">ラ</text>
	<text transform="matrix(1.0023 0 0 1 149.5737 96.8915)" class="st12 st3 st4">ス</text>
	<text transform="matrix(1.0023 0 0 1 92.2797 44.0478)" class="st12 st14 st15">凡例</text>
	<text transform="matrix(1.0023 0 0 1 92.2797 44.0478)" class="st16 st14 st15">凡例</text>
</g>
</svg>
