<?xml version="1.0" encoding="utf-8"?>
<!-- Generator: Adobe Illustrator 26.5.2, SVG Export Plug-In . SVG Version: 6.00 Build 0)  -->
<svg version="1.1" id="レイヤー_1" xmlns="http://www.w3.org/2000/svg" xmlns:xlink="http://www.w3.org/1999/xlink" x="0px"
	 y="0px" viewBox="0 0 476.7 571.4" style="enable-background:new 0 0 476.7 571.4;" xml:space="preserve">
<style type="text/css">
	.st0{fill-rule:evenodd;clip-rule:evenodd;fill:#CFD1D8;}
	.st1{fill-rule:evenodd;clip-rule:evenodd;fill:#FFCCFF;}
	.st2{fill:none;stroke:#000000;stroke-width:1.7322;stroke-linecap:round;stroke-linejoin:round;stroke-miterlimit:10;}
	.st3{font-family:'YuGothicUI-Regular';}
	.st4{font-size:11.2598px;}
	.st5{font-family:'YuGothicUI-Bold';}
	.st6{fill-rule:evenodd;clip-rule:evenodd;fill:#F0F0F0;}
	.st7{fill:none;stroke:#D7D7D7;stroke-width:0.8662;stroke-linecap:square;stroke-miterlimit:10;}
	.st8{fill-rule:evenodd;clip-rule:evenodd;fill:#CCFFCC;}
	.st9{fill:none;stroke:#000000;stroke-width:0.8662;stroke-linecap:square;stroke-miterlimit:10;}
	.st10{fill:#003060;}
	.st11{fill-rule:evenodd;clip-rule:evenodd;fill:#FFFFCC;}
	.st12{font-family:'MS-PGothic';}
	.st13{font-size:13.8582px;}
	.st14{fill:none;stroke:#003060;stroke-width:0.396;stroke-miterlimit:10;}
	.st15{fill:none;stroke:#000000;stroke-width:1.7322;stroke-linecap:round;stroke-linejoin:bevel;stroke-miterlimit:10;}
	.st16{fill-rule:evenodd;clip-rule:evenodd;fill:#FFFFFF;}
</style>
<g>
	<path class="st0" d="M429.5,28.5c1.2,0,2.2,1,2.2,2.2l0,0v203.5l0,0c0,1.2-1,2.2-2.2,2.2l0,0l0,0H247.2l0,0c-1.2,0-2.2-1-2.2-2.2
		l0,0V30.6c0-1.2,1-2.2,2.2-2.2l0,0L429.5,28.5L429.5,28.5L429.5,28.5z"/>
	<path class="st1" d="M426.9,25.9c1.2,0,2.2,1,2.2,2.2l0,0v203.5l0,0c0,1.2-1,2.2-2.2,2.2l0,0l0,0H244.6l0,0c-1.2,0-2.2-1-2.2-2.2
		l0,0V28c0-1.2,1-2.2,2.2-2.2l0,0L426.9,25.9L426.9,25.9L426.9,25.9z"/>
	<path class="st2" d="M426.9,25.9c1.2,0,2.2,1,2.2,2.2l0,0v203.5l0,0c0,1.2-1,2.2-2.2,2.2l0,0l0,0H244.6l0,0c-1.2,0-2.2-1-2.2-2.2
		l0,0V28c0-1.2,1-2.2,2.2-2.2l0,0L426.9,25.9L426.9,25.9L426.9,25.9z"/>
	<text transform="matrix(1.0023 0 0 1 305.8211 43.182)" class="st3 st4">«</text>
	<text transform="matrix(1.0023 0 0 1 311.8914 43.182)" class="st3 st4">D</text>
	<text transform="matrix(1.0023 0 0 1 319.7137 43.182)" class="st3 st4">a</text>
	<text transform="matrix(1.0023 0 0 1 325.782 43.182)" class="st3 st4">t</text>
	<text transform="matrix(1.0023 0 0 1 329.2566 43.182)" class="st3 st4">a</text>
	<text transform="matrix(1.0023 0 0 1 335.3269 43.182)" class="st3 st4">T</text>
	<text transform="matrix(1.0023 0 0 1 341.3972 43.182)" class="st3 st4">y</text>
	<text transform="matrix(1.0023 0 0 1 346.6101 43.182)" class="st3 st4">p</text>
	<text transform="matrix(1.0023 0 0 1 353.5496 43.182)" class="st3 st4">e</text>
	<text transform="matrix(1.0023 0 0 1 359.6199 43.182)" class="st3 st4">»</text>
	<text transform="matrix(1.0023 0 0 1 277.1805 57.9164)" class="st5 st4">u</text>
	<text transform="matrix(1.0023 0 0 1 284.116 57.9164)" class="st5 st4">r</text>
	<text transform="matrix(1.0023 0 0 1 288.45 57.9164)" class="st5 st4">o</text>
	<text transform="matrix(1.0023 0 0 1 295.3933 57.9164)" class="st5 st4">:</text>
	<text transform="matrix(1.0023 0 0 1 298.0027 57.9164)" class="st5 st4">:</text>
	<text transform="matrix(1.0023 0 0 1 300.6121 57.9164)" class="st5 st4">F</text>
	<text transform="matrix(1.0023 0 0 1 306.6883 57.9164)" class="st5 st4">a</text>
	<text transform="matrix(1.0023 0 0 1 312.7586 57.9164)" class="st5 st4">c</text>
	<text transform="matrix(1.0023 0 0 1 317.9754 57.9164)" class="st5 st4">i</text>
	<text transform="matrix(1.0023 0 0 1 320.5847 57.9164)" class="st5 st4">l</text>
	<text transform="matrix(1.0023 0 0 1 323.1941 57.9164)" class="st5 st4">i</text>
	<text transform="matrix(1.0023 0 0 1 325.8035 57.9164)" class="st5 st4">t</text>
	<text transform="matrix(1.0023 0 0 1 330.1414 57.9164)" class="st5 st4">y</text>
	<text transform="matrix(1.0023 0 0 1 336.2156 57.9164)" class="st5 st4">I</text>
	<text transform="matrix(1.0023 0 0 1 339.6863 57.9164)" class="st5 st4">d</text>
	<text transform="matrix(1.0023 0 0 1 346.6219 57.9164)" class="st5 st4">A</text>
	<text transform="matrix(1.0023 0 0 1 354.4246 57.9164)" class="st5 st4">t</text>
	<text transform="matrix(1.0023 0 0 1 358.7625 57.9164)" class="st5 st4">t</text>
	<text transform="matrix(1.0023 0 0 1 363.0984 57.9164)" class="st5 st4">r</text>
	<text transform="matrix(1.0023 0 0 1 367.4344 57.9164)" class="st5 st4">i</text>
	<text transform="matrix(1.0023 0 0 1 370.0437 57.9164)" class="st5 st4">b</text>
	<text transform="matrix(1.0023 0 0 1 376.9793 57.9164)" class="st5 st4">u</text>
	<text transform="matrix(1.0023 0 0 1 383.9129 57.9164)" class="st5 st4">t</text>
	<text transform="matrix(1.0023 0 0 1 388.2508 57.9164)" class="st5 st4">e</text>
	<line class="st2" x1="242.5" y1="64.8" x2="429.1" y2="64.8"/>
	<text transform="matrix(1.0023 0 0 1 246.7898 80.432)" class="st3 st4">+</text>
	<text transform="matrix(1.0023 0 0 1 254.6004 80.432)" class="st3 st4"> </text>
	<text transform="matrix(1.0023 0 0 1 265.8836 80.432)" class="st3 st4">i</text>
	<text transform="matrix(1.0023 0 0 1 268.493 80.432)" class="st3 st4">d</text>
	<text transform="matrix(1.0023 0 0 1 275.4324 80.432)" class="st3 st4">:</text>
	<text transform="matrix(1.0023 0 0 1 278.0242 80.432)" class="st3 st4"> </text>
	<text transform="matrix(1.0023 0 0 1 281.489 80.432)" class="st3 st4">x</text>
	<text transform="matrix(1.0023 0 0 1 286.6902 80.432)" class="st3 st4">s</text>
	<text transform="matrix(1.0023 0 0 1 291.8972 80.432)" class="st3 st4">:</text>
	<text transform="matrix(1.0023 0 0 1 294.491 80.432)" class="st3 st4">:</text>
	<text transform="matrix(1.0023 0 0 1 297.0847 80.432)" class="st3 st4">s</text>
	<text transform="matrix(1.0023 0 0 1 302.2898 80.432)" class="st3 st4">t</text>
	<text transform="matrix(1.0023 0 0 1 305.7644 80.432)" class="st3 st4">r</text>
	<text transform="matrix(1.0023 0 0 1 310.0945 80.432)" class="st3 st4">i</text>
	<text transform="matrix(1.0023 0 0 1 312.7039 80.432)" class="st3 st4">n</text>
	<text transform="matrix(1.0023 0 0 1 318.7859 80.432)" class="st3 st4">g</text>
	<text transform="matrix(1.0023 0 0 1 325.7234 80.432)" class="st3 st4"> </text>
	<text transform="matrix(1.0023 0 0 1 329.1883 80.432)" class="st3 st4">[</text>
	<text transform="matrix(1.0023 0 0 1 332.6492 80.432)" class="st3 st4">0</text>
	<text transform="matrix(1.0023 0 0 1 338.7332 80.432)" class="st3 st4">.</text>
	<text transform="matrix(1.0023 0 0 1 341.3269 80.432)" class="st3 st4">.</text>
	<text transform="matrix(1.0023 0 0 1 343.9207 80.432)" class="st3 st4">1</text>
	<text transform="matrix(1.0023 0 0 1 350.0027 80.432)" class="st3 st4">]</text>
	<text transform="matrix(1.0023 0 0 1 246.7898 95.1664)" class="st3 st4">+</text>
	<text transform="matrix(1.0023 0 0 1 254.6004 95.1664)" class="st3 st4"> </text>
	<text transform="matrix(1.0023 0 0 1 265.8836 95.1664)" class="st3 st4">p</text>
	<text transform="matrix(1.0023 0 0 1 272.823 95.1664)" class="st3 st4">a</text>
	<text transform="matrix(1.0023 0 0 1 278.8914 95.1664)" class="st3 st4">r</text>
	<text transform="matrix(1.0023 0 0 1 283.2215 95.1664)" class="st3 st4">t</text>
	<text transform="matrix(1.0023 0 0 1 286.6961 95.1664)" class="st3 st4">I</text>
	<text transform="matrix(1.0023 0 0 1 289.3035 95.1664)" class="st3 st4">d</text>
	<text transform="matrix(1.0023 0 0 1 296.243 95.1664)" class="st3 st4">:</text>
	<text transform="matrix(1.0023 0 0 1 298.8367 95.1664)" class="st3 st4"> </text>
	<text transform="matrix(1.0023 0 0 1 302.2996 95.1664)" class="st3 st4">x</text>
	<text transform="matrix(1.0023 0 0 1 307.5027 95.1664)" class="st3 st4">s</text>
	<text transform="matrix(1.0023 0 0 1 312.7097 95.1664)" class="st3 st4">:</text>
	<text transform="matrix(1.0023 0 0 1 315.3015 95.1664)" class="st3 st4">:</text>
	<text transform="matrix(1.0023 0 0 1 317.8953 95.1664)" class="st3 st4">s</text>
	<text transform="matrix(1.0023 0 0 1 323.1023 95.1664)" class="st3 st4">t</text>
	<text transform="matrix(1.0023 0 0 1 326.5769 95.1664)" class="st3 st4">r</text>
	<text transform="matrix(1.0023 0 0 1 330.9051 95.1664)" class="st3 st4">i</text>
	<text transform="matrix(1.0023 0 0 1 333.5144 95.1664)" class="st3 st4">n</text>
	<text transform="matrix(1.0023 0 0 1 339.5965 95.1664)" class="st3 st4">g</text>
	<text transform="matrix(1.0023 0 0 1 346.5359 95.1664)" class="st3 st4"> </text>
	<text transform="matrix(1.0023 0 0 1 349.9988 95.1664)" class="st3 st4">[</text>
	<text transform="matrix(1.0023 0 0 1 353.4617 95.1664)" class="st3 st4">0</text>
	<text transform="matrix(1.0023 0 0 1 359.5457 95.1664)" class="st3 st4">.</text>
	<text transform="matrix(1.0023 0 0 1 362.1375 95.1664)" class="st3 st4">.</text>
	<text transform="matrix(1.0023 0 0 1 364.7312 95.1664)" class="st3 st4">1</text>
	<text transform="matrix(1.0023 0 0 1 370.8152 95.1664)" class="st3 st4">]</text>
	<text transform="matrix(1.0023 0 0 1 246.7898 109.8851)" class="st3 st4">+</text>
	<text transform="matrix(1.0023 0 0 1 254.6004 109.8851)" class="st3 st4"> </text>
	<text transform="matrix(1.0023 0 0 1 265.8836 109.8851)" class="st3 st4">b</text>
	<text transform="matrix(1.0023 0 0 1 272.823 109.8851)" class="st3 st4">r</text>
	<text transform="matrix(1.0023 0 0 1 277.1531 109.8851)" class="st3 st4">a</text>
	<text transform="matrix(1.0023 0 0 1 283.2215 109.8851)" class="st3 st4">n</text>
	<text transform="matrix(1.0023 0 0 1 289.3035 109.8851)" class="st3 st4">c</text>
	<text transform="matrix(1.0023 0 0 1 294.5164 109.8851)" class="st3 st4">h</text>
	<text transform="matrix(1.0023 0 0 1 300.5984 109.8851)" class="st3 st4">I</text>
	<text transform="matrix(1.0023 0 0 1 303.2058 109.8851)" class="st3 st4">d</text>
	<text transform="matrix(1.0023 0 0 1 310.1453 109.8851)" class="st3 st4">:</text>
	<text transform="matrix(1.0023 0 0 1 312.739 109.8851)" class="st3 st4"> </text>
	<text transform="matrix(1.0023 0 0 1 316.2019 109.8851)" class="st3 st4">x</text>
	<text transform="matrix(1.0023 0 0 1 321.4051 109.8851)" class="st3 st4">s</text>
	<text transform="matrix(1.0023 0 0 1 326.6121 109.8851)" class="st3 st4">:</text>
	<text transform="matrix(1.0023 0 0 1 329.2039 109.8851)" class="st3 st4">:</text>
	<text transform="matrix(1.0023 0 0 1 331.7976 109.8851)" class="st3 st4">s</text>
	<text transform="matrix(1.0023 0 0 1 337.0047 109.8851)" class="st3 st4">t</text>
	<text transform="matrix(1.0023 0 0 1 340.4793 109.8851)" class="st3 st4">r</text>
	<text transform="matrix(1.0023 0 0 1 344.8074 109.8851)" class="st3 st4">i</text>
	<text transform="matrix(1.0023 0 0 1 347.4168 109.8851)" class="st3 st4">n</text>
	<text transform="matrix(1.0023 0 0 1 353.4988 109.8851)" class="st3 st4">g</text>
	<text transform="matrix(1.0023 0 0 1 360.4383 109.8851)" class="st3 st4"> </text>
	<text transform="matrix(1.0023 0 0 1 363.9012 109.8851)" class="st3 st4">[</text>
	<text transform="matrix(1.0023 0 0 1 367.364 109.8851)" class="st3 st4">0</text>
	<text transform="matrix(1.0023 0 0 1 373.448 109.8851)" class="st3 st4">.</text>
	<text transform="matrix(1.0023 0 0 1 376.0398 109.8851)" class="st3 st4">.</text>
	<text transform="matrix(1.0023 0 0 1 378.6336 109.8851)" class="st3 st4">1</text>
	<text transform="matrix(1.0023 0 0 1 384.7176 109.8851)" class="st3 st4">]</text>
	<text transform="matrix(1.0023 0 0 1 246.7898 124.6039)" class="st3 st4">+</text>
	<text transform="matrix(1.0023 0 0 1 254.6004 124.6039)" class="st3 st4"> </text>
	<text transform="matrix(1.0023 0 0 1 265.8836 124.6039)" class="st3 st4">p</text>
	<text transform="matrix(1.0023 0 0 1 272.823 124.6039)" class="st3 st4">r</text>
	<text transform="matrix(1.0023 0 0 1 277.1531 124.6039)" class="st3 st4">e</text>
	<text transform="matrix(1.0023 0 0 1 283.2234 124.6039)" class="st3 st4">f</text>
	<text transform="matrix(1.0023 0 0 1 286.7 124.6039)" class="st3 st4">e</text>
	<text transform="matrix(1.0023 0 0 1 292.7703 124.6039)" class="st3 st4">c</text>
	<text transform="matrix(1.0023 0 0 1 297.9832 124.6039)" class="st3 st4">t</text>
	<text transform="matrix(1.0023 0 0 1 301.4578 124.6039)" class="st3 st4">u</text>
	<text transform="matrix(1.0023 0 0 1 307.5398 124.6039)" class="st3 st4">r</text>
	<text transform="matrix(1.0023 0 0 1 311.8699 124.6039)" class="st3 st4">e</text>
	<text transform="matrix(1.0023 0 0 1 317.9402 124.6039)" class="st3 st4">:</text>
	<text transform="matrix(1.0023 0 0 1 320.534 124.6039)" class="st3 st4"> </text>
	<text transform="matrix(1.0023 0 0 1 323.9969 124.6039)" class="st3 st4">g</text>
	<text transform="matrix(1.0023 0 0 1 330.9363 124.6039)" class="st3 st4">m</text>
	<text transform="matrix(1.0023 0 0 1 340.4871 124.6039)" class="st3 st4">l</text>
	<text transform="matrix(1.0023 0 0 1 343.0965 124.6039)" class="st3 st4">:</text>
	<text transform="matrix(1.0023 0 0 1 345.6902 124.6039)" class="st3 st4">:</text>
	<text transform="matrix(1.0023 0 0 1 348.284 124.6039)" class="st3 st4">C</text>
	<text transform="matrix(1.0023 0 0 1 355.2371 124.6039)" class="st3 st4">o</text>
	<text transform="matrix(1.0023 0 0 1 362.1765 124.6039)" class="st3 st4">d</text>
	<text transform="matrix(1.0023 0 0 1 369.116 124.6039)" class="st3 st4">e</text>
	<text transform="matrix(1.0023 0 0 1 375.1863 124.6039)" class="st3 st4">T</text>
	<text transform="matrix(1.0023 0 0 1 381.2566 124.6039)" class="st3 st4">y</text>
	<text transform="matrix(1.0023 0 0 1 386.4695 124.6039)" class="st3 st4">p</text>
	<text transform="matrix(1.0023 0 0 1 393.409 124.6039)" class="st3 st4">e</text>
	<text transform="matrix(1.0023 0 0 1 399.4793 124.6039)" class="st3 st4"> </text>
	<text transform="matrix(1.0023 0 0 1 402.9441 124.6039)" class="st3 st4">[</text>
	<text transform="matrix(1.0023 0 0 1 406.4051 124.6039)" class="st3 st4">0</text>
	<text transform="matrix(1.0023 0 0 1 412.489 124.6039)" class="st3 st4">.</text>
	<text transform="matrix(1.0023 0 0 1 415.0828 124.6039)" class="st3 st4">.</text>
	<text transform="matrix(1.0023 0 0 1 417.6765 124.6039)" class="st3 st4">*</text>
	<text transform="matrix(1.0023 0 0 1 422.0203 124.6039)" class="st3 st4">]</text>
	<text transform="matrix(1.0023 0 0 1 246.7898 139.3383)" class="st3 st4">+</text>
	<text transform="matrix(1.0023 0 0 1 254.6004 139.3383)" class="st3 st4"> </text>
	<text transform="matrix(1.0023 0 0 1 265.8836 139.3383)" class="st3 st4">c</text>
	<text transform="matrix(1.0023 0 0 1 271.0965 139.3383)" class="st3 st4">i</text>
	<text transform="matrix(1.0023 0 0 1 273.7058 139.3383)" class="st3 st4">t</text>
	<text transform="matrix(1.0023 0 0 1 277.1805 139.3383)" class="st3 st4">y</text>
	<text transform="matrix(1.0023 0 0 1 282.3933 139.3383)" class="st3 st4">:</text>
	<text transform="matrix(1.0023 0 0 1 284.9851 139.3383)" class="st3 st4"> </text>
	<text transform="matrix(1.0023 0 0 1 288.45 139.3383)" class="st3 st4">g</text>
	<text transform="matrix(1.0023 0 0 1 295.3894 139.3383)" class="st3 st4">m</text>
	<text transform="matrix(1.0023 0 0 1 304.9402 139.3383)" class="st3 st4">l</text>
	<text transform="matrix(1.0023 0 0 1 307.5496 139.3383)" class="st3 st4">:</text>
	<text transform="matrix(1.0023 0 0 1 310.1414 139.3383)" class="st3 st4">:</text>
	<text transform="matrix(1.0023 0 0 1 312.7351 139.3383)" class="st3 st4">C</text>
	<text transform="matrix(1.0023 0 0 1 319.6883 139.3383)" class="st3 st4">o</text>
	<text transform="matrix(1.0023 0 0 1 326.6297 139.3383)" class="st3 st4">d</text>
	<text transform="matrix(1.0023 0 0 1 333.5672 139.3383)" class="st3 st4">e</text>
	<text transform="matrix(1.0023 0 0 1 339.6394 139.3383)" class="st3 st4">T</text>
	<text transform="matrix(1.0023 0 0 1 345.7097 139.3383)" class="st3 st4">y</text>
	<text transform="matrix(1.0023 0 0 1 350.9226 139.3383)" class="st3 st4">p</text>
	<text transform="matrix(1.0023 0 0 1 357.8621 139.3383)" class="st3 st4">e</text>
	<text transform="matrix(1.0023 0 0 1 363.9324 139.3383)" class="st3 st4"> </text>
	<text transform="matrix(1.0023 0 0 1 367.3953 139.3383)" class="st3 st4">[</text>
	<text transform="matrix(1.0023 0 0 1 370.8582 139.3383)" class="st3 st4">0</text>
	<text transform="matrix(1.0023 0 0 1 376.9422 139.3383)" class="st3 st4">.</text>
	<text transform="matrix(1.0023 0 0 1 379.534 139.3383)" class="st3 st4">.</text>
	<text transform="matrix(1.0023 0 0 1 382.1277 139.3383)" class="st3 st4">*</text>
	<text transform="matrix(1.0023 0 0 1 386.4734 139.3383)" class="st3 st4">]</text>
	<text transform="matrix(1.0023 0 0 1 246.7898 154.0726)" class="st3 st4">+</text>
	<text transform="matrix(1.0023 0 0 1 254.6004 154.0726)" class="st3 st4"> </text>
	<text transform="matrix(1.0023 0 0 1 265.8836 154.0726)" class="st3 st4">r</text>
	<text transform="matrix(1.0023 0 0 1 270.2137 154.0726)" class="st3 st4">o</text>
	<text transform="matrix(1.0023 0 0 1 277.1531 154.0726)" class="st3 st4">u</text>
	<text transform="matrix(1.0023 0 0 1 283.2351 154.0726)" class="st3 st4">t</text>
	<text transform="matrix(1.0023 0 0 1 286.7097 154.0726)" class="st3 st4">e</text>
	<text transform="matrix(1.0023 0 0 1 292.7801 154.0726)" class="st3 st4">:</text>
	<text transform="matrix(1.0023 0 0 1 295.3738 154.0726)" class="st3 st4"> </text>
	<text transform="matrix(1.0023 0 0 1 298.8367 154.0726)" class="st3 st4">x</text>
	<text transform="matrix(1.0023 0 0 1 304.0398 154.0726)" class="st3 st4">s</text>
	<text transform="matrix(1.0023 0 0 1 309.2469 154.0726)" class="st3 st4">:</text>
	<text transform="matrix(1.0023 0 0 1 311.8387 154.0726)" class="st3 st4">:</text>
	<text transform="matrix(1.0023 0 0 1 314.4324 154.0726)" class="st3 st4">s</text>
	<text transform="matrix(1.0023 0 0 1 319.6394 154.0726)" class="st3 st4">t</text>
	<text transform="matrix(1.0023 0 0 1 323.114 154.0726)" class="st3 st4">r</text>
	<text transform="matrix(1.0023 0 0 1 327.4422 154.0726)" class="st3 st4">i</text>
	<text transform="matrix(1.0023 0 0 1 330.0515 154.0726)" class="st3 st4">n</text>
	<text transform="matrix(1.0023 0 0 1 336.1336 154.0726)" class="st3 st4">g</text>
	<text transform="matrix(1.0023 0 0 1 343.073 154.0726)" class="st3 st4"> </text>
	<text transform="matrix(1.0023 0 0 1 346.5359 154.0726)" class="st3 st4">[</text>
	<text transform="matrix(1.0023 0 0 1 349.9988 154.0726)" class="st3 st4">0</text>
	<text transform="matrix(1.0023 0 0 1 356.0828 154.0726)" class="st3 st4">.</text>
	<text transform="matrix(1.0023 0 0 1 358.6746 154.0726)" class="st3 st4">.</text>
	<text transform="matrix(1.0023 0 0 1 361.2683 154.0726)" class="st3 st4">1</text>
	<text transform="matrix(1.0023 0 0 1 367.3523 154.0726)" class="st3 st4">]</text>
	<text transform="matrix(1.0023 0 0 1 246.7898 168.7914)" class="st3 st4">+</text>
	<text transform="matrix(1.0023 0 0 1 254.6004 168.7914)" class="st3 st4"> </text>
	<text transform="matrix(1.0023 0 0 1 265.8836 168.7914)" class="st3 st4">s</text>
	<text transform="matrix(1.0023 0 0 1 271.0906 168.7914)" class="st3 st4">t</text>
	<text transform="matrix(1.0023 0 0 1 274.5633 168.7914)" class="st3 st4">a</text>
	<text transform="matrix(1.0023 0 0 1 280.6336 168.7914)" class="st3 st4">r</text>
	<text transform="matrix(1.0023 0 0 1 284.9637 168.7914)" class="st3 st4">t</text>
	<text transform="matrix(1.0023 0 0 1 288.4383 168.7914)" class="st3 st4">P</text>
	<text transform="matrix(1.0023 0 0 1 294.5203 168.7914)" class="st3 st4">o</text>
	<text transform="matrix(1.0023 0 0 1 301.4597 168.7914)" class="st3 st4">s</text>
	<text transform="matrix(1.0023 0 0 1 306.6668 168.7914)" class="st3 st4">t</text>
	<text transform="matrix(1.0023 0 0 1 310.1414 168.7914)" class="st3 st4">:</text>
	<text transform="matrix(1.0023 0 0 1 312.7351 168.7914)" class="st3 st4"> </text>
	<text transform="matrix(1.0023 0 0 1 316.198 168.7914)" class="st3 st4">x</text>
	<text transform="matrix(1.0023 0 0 1 321.4012 168.7914)" class="st3 st4">s</text>
	<text transform="matrix(1.0023 0 0 1 326.6062 168.7914)" class="st3 st4">:</text>
	<text transform="matrix(1.0023 0 0 1 329.2 168.7914)" class="st3 st4">:</text>
	<text transform="matrix(1.0023 0 0 1 331.7937 168.7914)" class="st3 st4">s</text>
	<text transform="matrix(1.0023 0 0 1 336.9988 168.7914)" class="st3 st4">t</text>
	<text transform="matrix(1.0023 0 0 1 340.4734 168.7914)" class="st3 st4">r</text>
	<text transform="matrix(1.0023 0 0 1 344.8035 168.7914)" class="st3 st4">i</text>
	<text transform="matrix(1.0023 0 0 1 347.4129 168.7914)" class="st3 st4">n</text>
	<text transform="matrix(1.0023 0 0 1 353.4949 168.7914)" class="st3 st4">g</text>
	<text transform="matrix(1.0023 0 0 1 360.4344 168.7914)" class="st3 st4"> </text>
	<text transform="matrix(1.0023 0 0 1 363.8972 168.7914)" class="st3 st4">[</text>
	<text transform="matrix(1.0023 0 0 1 367.3601 168.7914)" class="st3 st4">0</text>
	<text transform="matrix(1.0023 0 0 1 373.4422 168.7914)" class="st3 st4">.</text>
	<text transform="matrix(1.0023 0 0 1 376.0359 168.7914)" class="st3 st4">.</text>
	<text transform="matrix(1.0023 0 0 1 378.6297 168.7914)" class="st3 st4">1</text>
	<text transform="matrix(1.0023 0 0 1 384.7137 168.7914)" class="st3 st4">]</text>
	<text transform="matrix(1.0023 0 0 1 246.7898 183.4945)" class="st3 st4">+</text>
	<text transform="matrix(1.0023 0 0 1 254.6004 183.4945)" class="st3 st4"> </text>
	<text transform="matrix(1.0023 0 0 1 265.8836 183.4945)" class="st3 st4">e</text>
	<text transform="matrix(1.0023 0 0 1 271.9539 183.4945)" class="st3 st4">n</text>
	<text transform="matrix(1.0023 0 0 1 278.0359 183.4945)" class="st3 st4">d</text>
	<text transform="matrix(1.0023 0 0 1 284.9754 183.4945)" class="st3 st4">P</text>
	<text transform="matrix(1.0023 0 0 1 291.0594 183.4945)" class="st3 st4">o</text>
	<text transform="matrix(1.0023 0 0 1 297.9988 183.4945)" class="st3 st4">s</text>
	<text transform="matrix(1.0023 0 0 1 303.2058 183.4945)" class="st3 st4">t</text>
	<text transform="matrix(1.0023 0 0 1 306.6785 183.4945)" class="st3 st4">:</text>
	<text transform="matrix(1.0023 0 0 1 309.2722 183.4945)" class="st3 st4"> </text>
	<text transform="matrix(1.0023 0 0 1 312.7371 183.4945)" class="st3 st4">x</text>
	<text transform="matrix(1.0023 0 0 1 317.9383 183.4945)" class="st3 st4">s</text>
	<text transform="matrix(1.0023 0 0 1 323.1453 183.4945)" class="st3 st4">:</text>
	<text transform="matrix(1.0023 0 0 1 325.739 183.4945)" class="st3 st4">:</text>
	<text transform="matrix(1.0023 0 0 1 328.3308 183.4945)" class="st3 st4">s</text>
	<text transform="matrix(1.0023 0 0 1 333.5379 183.4945)" class="st3 st4">t</text>
	<text transform="matrix(1.0023 0 0 1 337.0125 183.4945)" class="st3 st4">r</text>
	<text transform="matrix(1.0023 0 0 1 341.3426 183.4945)" class="st3 st4">i</text>
	<text transform="matrix(1.0023 0 0 1 343.9519 183.4945)" class="st3 st4">n</text>
	<text transform="matrix(1.0023 0 0 1 350.032 183.4945)" class="st3 st4">g</text>
	<text transform="matrix(1.0023 0 0 1 356.9715 183.4945)" class="st3 st4"> </text>
	<text transform="matrix(1.0023 0 0 1 360.4363 183.4945)" class="st3 st4">[</text>
	<text transform="matrix(1.0023 0 0 1 363.8972 183.4945)" class="st3 st4">0</text>
	<text transform="matrix(1.0023 0 0 1 369.9812 183.4945)" class="st3 st4">.</text>
	<text transform="matrix(1.0023 0 0 1 372.575 183.4945)" class="st3 st4">.</text>
	<text transform="matrix(1.0023 0 0 1 375.1687 183.4945)" class="st3 st4">1</text>
	<text transform="matrix(1.0023 0 0 1 381.2508 183.4945)" class="st3 st4">]</text>
	<text transform="matrix(1.0023 0 0 1 246.7898 198.2289)" class="st3 st4">+</text>
	<text transform="matrix(1.0023 0 0 1 254.6004 198.2289)" class="st3 st4"> </text>
	<text transform="matrix(1.0023 0 0 1 265.8836 198.2289)" class="st3 st4">s</text>
	<text transform="matrix(1.0023 0 0 1 271.0906 198.2289)" class="st3 st4">t</text>
	<text transform="matrix(1.0023 0 0 1 274.5633 198.2289)" class="st3 st4">a</text>
	<text transform="matrix(1.0023 0 0 1 280.6336 198.2289)" class="st3 st4">r</text>
	<text transform="matrix(1.0023 0 0 1 284.9637 198.2289)" class="st3 st4">t</text>
	<text transform="matrix(1.0023 0 0 1 288.4383 198.2289)" class="st3 st4">L</text>
	<text transform="matrix(1.0023 0 0 1 293.6472 198.2289)" class="st3 st4">a</text>
	<text transform="matrix(1.0023 0 0 1 299.7176 198.2289)" class="st3 st4">t</text>
	<text transform="matrix(1.0023 0 0 1 303.1922 198.2289)" class="st3 st4">:</text>
	<text transform="matrix(1.0023 0 0 1 305.784 198.2289)" class="st3 st4"> </text>
	<text transform="matrix(1.0023 0 0 1 309.2488 198.2289)" class="st3 st4">x</text>
	<text transform="matrix(1.0023 0 0 1 314.45 198.2289)" class="st3 st4">s</text>
	<text transform="matrix(1.0023 0 0 1 319.657 198.2289)" class="st3 st4">:</text>
	<text transform="matrix(1.0023 0 0 1 322.2508 198.2289)" class="st3 st4">:</text>
	<text transform="matrix(1.0023 0 0 1 324.8445 198.2289)" class="st3 st4">d</text>
	<text transform="matrix(1.0023 0 0 1 331.782 198.2289)" class="st3 st4">o</text>
	<text transform="matrix(1.0023 0 0 1 338.7234 198.2289)" class="st3 st4">u</text>
	<text transform="matrix(1.0023 0 0 1 344.8055 198.2289)" class="st3 st4">b</text>
	<text transform="matrix(1.0023 0 0 1 351.743 198.2289)" class="st3 st4">l</text>
	<text transform="matrix(1.0023 0 0 1 354.3523 198.2289)" class="st3 st4">e</text>
	<text transform="matrix(1.0023 0 0 1 360.4246 198.2289)" class="st3 st4"> </text>
	<text transform="matrix(1.0023 0 0 1 363.8875 198.2289)" class="st3 st4">[</text>
	<text transform="matrix(1.0023 0 0 1 367.3504 198.2289)" class="st3 st4">0</text>
	<text transform="matrix(1.0023 0 0 1 373.4324 198.2289)" class="st3 st4">.</text>
	<text transform="matrix(1.0023 0 0 1 376.0262 198.2289)" class="st3 st4">.</text>
	<text transform="matrix(1.0023 0 0 1 378.6199 198.2289)" class="st3 st4">1</text>
	<text transform="matrix(1.0023 0 0 1 384.7039 198.2289)" class="st3 st4">]</text>
	<text transform="matrix(1.0023 0 0 1 246.7898 212.9476)" class="st3 st4">+</text>
	<text transform="matrix(1.0023 0 0 1 254.6004 212.9476)" class="st3 st4"> </text>
	<text transform="matrix(1.0023 0 0 1 265.8836 212.9476)" class="st3 st4">s</text>
	<text transform="matrix(1.0023 0 0 1 271.0906 212.9476)" class="st3 st4">t</text>
	<text transform="matrix(1.0023 0 0 1 274.5633 212.9476)" class="st3 st4">a</text>
	<text transform="matrix(1.0023 0 0 1 280.6336 212.9476)" class="st3 st4">r</text>
	<text transform="matrix(1.0023 0 0 1 284.9637 212.9476)" class="st3 st4">t</text>
	<text transform="matrix(1.0023 0 0 1 288.4383 212.9476)" class="st3 st4">L</text>
	<text transform="matrix(1.0023 0 0 1 293.6472 212.9476)" class="st3 st4">o</text>
	<text transform="matrix(1.0023 0 0 1 300.5887 212.9476)" class="st3 st4">n</text>
	<text transform="matrix(1.0023 0 0 1 306.6687 212.9476)" class="st3 st4">g</text>
	<text transform="matrix(1.0023 0 0 1 313.6082 212.9476)" class="st3 st4">:</text>
	<text transform="matrix(1.0023 0 0 1 316.2019 212.9476)" class="st3 st4"> </text>
	<text transform="matrix(1.0023 0 0 1 319.6648 212.9476)" class="st3 st4">x</text>
	<text transform="matrix(1.0023 0 0 1 324.868 212.9476)" class="st3 st4">s</text>
	<text transform="matrix(1.0023 0 0 1 330.075 212.9476)" class="st3 st4">:</text>
	<text transform="matrix(1.0023 0 0 1 332.6668 212.9476)" class="st3 st4">:</text>
	<text transform="matrix(1.0023 0 0 1 335.2605 212.9476)" class="st3 st4">d</text>
	<text transform="matrix(1.0023 0 0 1 342.2 212.9476)" class="st3 st4">o</text>
	<text transform="matrix(1.0023 0 0 1 349.1394 212.9476)" class="st3 st4">u</text>
	<text transform="matrix(1.0023 0 0 1 355.2215 212.9476)" class="st3 st4">b</text>
	<text transform="matrix(1.0023 0 0 1 362.1609 212.9476)" class="st3 st4">l</text>
	<text transform="matrix(1.0023 0 0 1 364.7703 212.9476)" class="st3 st4">e</text>
	<text transform="matrix(1.0023 0 0 1 370.8406 212.9476)" class="st3 st4"> </text>
	<text transform="matrix(1.0023 0 0 1 374.3055 212.9476)" class="st3 st4">[</text>
	<text transform="matrix(1.0023 0 0 1 377.7664 212.9476)" class="st3 st4">0</text>
	<text transform="matrix(1.0023 0 0 1 383.8504 212.9476)" class="st3 st4">.</text>
	<text transform="matrix(1.0023 0 0 1 386.4441 212.9476)" class="st3 st4">.</text>
	<text transform="matrix(1.0023 0 0 1 389.0379 212.9476)" class="st3 st4">1</text>
	<text transform="matrix(1.0023 0 0 1 395.1199 212.9476)" class="st3 st4">]</text>
	<text transform="matrix(1.0023 0 0 1 246.7898 227.682)" class="st3 st4">+</text>
	<text transform="matrix(1.0023 0 0 1 254.6004 227.682)" class="st3 st4"> </text>
	<text transform="matrix(1.0023 0 0 1 265.8836 227.682)" class="st3 st4">a</text>
	<text transform="matrix(1.0023 0 0 1 271.9519 227.682)" class="st3 st4">l</text>
	<text transform="matrix(1.0023 0 0 1 274.5613 227.682)" class="st3 st4">t</text>
	<text transform="matrix(1.0023 0 0 1 278.0359 227.682)" class="st3 st4">e</text>
	<text transform="matrix(1.0023 0 0 1 284.1062 227.682)" class="st3 st4">r</text>
	<text transform="matrix(1.0023 0 0 1 288.4363 227.682)" class="st3 st4">n</text>
	<text transform="matrix(1.0023 0 0 1 294.5183 227.682)" class="st3 st4">a</text>
	<text transform="matrix(1.0023 0 0 1 300.5887 227.682)" class="st3 st4">t</text>
	<text transform="matrix(1.0023 0 0 1 304.0633 227.682)" class="st3 st4">i</text>
	<text transform="matrix(1.0023 0 0 1 306.6707 227.682)" class="st3 st4">v</text>
	<text transform="matrix(1.0023 0 0 1 311.8855 227.682)" class="st3 st4">e</text>
	<text transform="matrix(1.0023 0 0 1 317.9558 227.682)" class="st3 st4">N</text>
	<text transform="matrix(1.0023 0 0 1 326.6355 227.682)" class="st3 st4">a</text>
	<text transform="matrix(1.0023 0 0 1 332.7039 227.682)" class="st3 st4">m</text>
	<text transform="matrix(1.0023 0 0 1 342.2547 227.682)" class="st3 st4">e</text>
	<text transform="matrix(1.0023 0 0 1 348.3269 227.682)" class="st3 st4">:</text>
	<text transform="matrix(1.0023 0 0 1 350.9207 227.682)" class="st3 st4"> </text>
	<text transform="matrix(1.0023 0 0 1 354.3836 227.682)" class="st3 st4">x</text>
	<text transform="matrix(1.0023 0 0 1 359.5867 227.682)" class="st3 st4">s</text>
	<text transform="matrix(1.0023 0 0 1 364.7918 227.682)" class="st3 st4">:</text>
	<text transform="matrix(1.0023 0 0 1 367.3855 227.682)" class="st3 st4">:</text>
	<text transform="matrix(1.0023 0 0 1 369.9793 227.682)" class="st3 st4">s</text>
	<text transform="matrix(1.0023 0 0 1 375.1844 227.682)" class="st3 st4">t</text>
	<text transform="matrix(1.0023 0 0 1 378.659 227.682)" class="st3 st4">r</text>
	<text transform="matrix(1.0023 0 0 1 382.989 227.682)" class="st3 st4">i</text>
	<text transform="matrix(1.0023 0 0 1 385.5984 227.682)" class="st3 st4">n</text>
	<text transform="matrix(1.0023 0 0 1 391.6805 227.682)" class="st3 st4">g</text>
	<text transform="matrix(1.0023 0 0 1 398.6199 227.682)" class="st3 st4"> </text>
	<text transform="matrix(1.0023 0 0 1 402.0828 227.682)" class="st3 st4">[</text>
	<text transform="matrix(1.0023 0 0 1 405.5457 227.682)" class="st3 st4">0</text>
	<text transform="matrix(1.0023 0 0 1 411.6277 227.682)" class="st3 st4">.</text>
	<text transform="matrix(1.0023 0 0 1 414.2215 227.682)" class="st3 st4">.</text>
	<text transform="matrix(1.0023 0 0 1 416.8152 227.682)" class="st3 st4">*</text>
	<text transform="matrix(1.0023 0 0 1 421.159 227.682)" class="st3 st4">]</text>
	<path class="st0" d="M449.5,279.6c1.2,0,2.2,1,2.2,2.2l0,0v262.4l0,0c0,1.2-1,2.2-2.2,2.2l0,0l0,0H221.2l0,0c-1.2,0-2.2-1-2.2-2.2
		l0,0V281.8c0-1.2,1-2.2,2.2-2.2l0,0H449.5L449.5,279.6L449.5,279.6z"/>
	<path class="st1" d="M446.9,277c1.2,0,2.2,1,2.2,2.2l0,0v262.4l0,0c0,1.2-1,2.2-2.2,2.2l0,0l0,0H218.6l0,0c-1.2,0-2.2-1-2.2-2.2
		l0,0V279.2c0-1.2,1-2.2,2.2-2.2l0,0H446.9L446.9,277L446.9,277z"/>
	<path class="st2" d="M446.9,277c1.2,0,2.2,1,2.2,2.2l0,0v262.4l0,0c0,1.2-1,2.2-2.2,2.2l0,0l0,0H218.6l0,0c-1.2,0-2.2-1-2.2-2.2
		l0,0V279.2c0-1.2,1-2.2,2.2-2.2l0,0H446.9L446.9,277L446.9,277z"/>
	<text transform="matrix(1.0023 0 0 1 303.2273 294.3842)" class="st3 st4">«</text>
	<text transform="matrix(1.0023 0 0 1 309.2976 294.3842)" class="st3 st4">D</text>
	<text transform="matrix(1.0023 0 0 1 317.1199 294.3842)" class="st3 st4">a</text>
	<text transform="matrix(1.0023 0 0 1 323.1883 294.3842)" class="st3 st4">t</text>
	<text transform="matrix(1.0023 0 0 1 326.6629 294.3842)" class="st3 st4">a</text>
	<text transform="matrix(1.0023 0 0 1 332.7332 294.3842)" class="st3 st4">T</text>
	<text transform="matrix(1.0023 0 0 1 338.8035 294.3842)" class="st3 st4">y</text>
	<text transform="matrix(1.0023 0 0 1 344.0164 294.3842)" class="st3 st4">p</text>
	<text transform="matrix(1.0023 0 0 1 350.9558 294.3842)" class="st3 st4">e</text>
	<text transform="matrix(1.0023 0 0 1 357.0262 294.3842)" class="st3 st4">»</text>
	<text transform="matrix(1.0023 0 0 1 261.5555 309.1029)" class="st5 st4">u</text>
	<text transform="matrix(1.0023 0 0 1 268.491 309.1029)" class="st5 st4">r</text>
	<text transform="matrix(1.0023 0 0 1 272.825 309.1029)" class="st5 st4">o</text>
	<text transform="matrix(1.0023 0 0 1 279.7683 309.1029)" class="st5 st4">:</text>
	<text transform="matrix(1.0023 0 0 1 282.3777 309.1029)" class="st5 st4">:</text>
	<text transform="matrix(1.0023 0 0 1 284.9871 309.1029)" class="st5 st4">R</text>
	<text transform="matrix(1.0023 0 0 1 291.9324 309.1029)" class="st5 st4">i</text>
	<text transform="matrix(1.0023 0 0 1 294.5418 309.1029)" class="st5 st4">v</text>
	<text transform="matrix(1.0023 0 0 1 300.618 309.1029)" class="st5 st4">e</text>
	<text transform="matrix(1.0023 0 0 1 306.6922 309.1029)" class="st5 st4">r</text>
	<text transform="matrix(1.0023 0 0 1 311.0262 309.1029)" class="st5 st4">F</text>
	<text transform="matrix(1.0023 0 0 1 317.1043 309.1029)" class="st5 st4">a</text>
	<text transform="matrix(1.0023 0 0 1 323.1746 309.1029)" class="st5 st4">c</text>
	<text transform="matrix(1.0023 0 0 1 328.3914 309.1029)" class="st5 st4">i</text>
	<text transform="matrix(1.0023 0 0 1 331.0008 309.1029)" class="st5 st4">l</text>
	<text transform="matrix(1.0023 0 0 1 333.6101 309.1029)" class="st5 st4">i</text>
	<text transform="matrix(1.0023 0 0 1 336.2195 309.1029)" class="st5 st4">t</text>
	<text transform="matrix(1.0023 0 0 1 340.5574 309.1029)" class="st5 st4">y</text>
	<text transform="matrix(1.0023 0 0 1 346.6316 309.1029)" class="st5 st4">I</text>
	<text transform="matrix(1.0023 0 0 1 350.1023 309.1029)" class="st5 st4">d</text>
	<text transform="matrix(1.0023 0 0 1 357.0379 309.1029)" class="st5 st4">A</text>
	<text transform="matrix(1.0023 0 0 1 364.8406 309.1029)" class="st5 st4">t</text>
	<text transform="matrix(1.0023 0 0 1 369.1765 309.1029)" class="st5 st4">t</text>
	<text transform="matrix(1.0023 0 0 1 373.5144 309.1029)" class="st5 st4">r</text>
	<text transform="matrix(1.0023 0 0 1 377.8504 309.1029)" class="st5 st4">i</text>
	<text transform="matrix(1.0023 0 0 1 380.4597 309.1029)" class="st5 st4">b</text>
	<text transform="matrix(1.0023 0 0 1 387.3953 309.1029)" class="st5 st4">u</text>
	<text transform="matrix(1.0023 0 0 1 394.3289 309.1029)" class="st5 st4">t</text>
	<text transform="matrix(1.0023 0 0 1 398.6668 309.1029)" class="st5 st4">e</text>
	<line class="st2" x1="216.4" y1="316" x2="449.1" y2="316"/>
	<text transform="matrix(1.0023 0 0 1 220.7591 331.6029)" class="st3 st4">+</text>
	<text transform="matrix(1.0023 0 0 1 228.5696 331.6029)" class="st3 st4"> </text>
	<text transform="matrix(1.0023 0 0 1 239.8523 331.6029)" class="st3 st4">r</text>
	<text transform="matrix(1.0023 0 0 1 244.1824 331.6029)" class="st3 st4">i</text>
	<text transform="matrix(1.0023 0 0 1 246.7918 331.6029)" class="st3 st4">v</text>
	<text transform="matrix(1.0023 0 0 1 252.0047 331.6029)" class="st3 st4">e</text>
	<text transform="matrix(1.0023 0 0 1 258.0769 331.6029)" class="st3 st4">r</text>
	<text transform="matrix(1.0023 0 0 1 262.4051 331.6029)" class="st3 st4">C</text>
	<text transform="matrix(1.0023 0 0 1 269.3582 331.6029)" class="st3 st4">o</text>
	<text transform="matrix(1.0023 0 0 1 276.2996 331.6029)" class="st3 st4">d</text>
	<text transform="matrix(1.0023 0 0 1 283.2371 331.6029)" class="st3 st4">e</text>
	<text transform="matrix(1.0023 0 0 1 289.3094 331.6029)" class="st3 st4">:</text>
	<text transform="matrix(1.0023 0 0 1 291.9031 331.6029)" class="st3 st4"> </text>
	<text transform="matrix(1.0023 0 0 1 295.366 331.6029)" class="st3 st4">g</text>
	<text transform="matrix(1.0023 0 0 1 302.3055 331.6029)" class="st3 st4">m</text>
	<text transform="matrix(1.0023 0 0 1 311.8562 331.6029)" class="st3 st4">l</text>
	<text transform="matrix(1.0023 0 0 1 314.4656 331.6029)" class="st3 st4">:</text>
	<text transform="matrix(1.0023 0 0 1 317.0594 331.6029)" class="st3 st4">:</text>
	<text transform="matrix(1.0023 0 0 1 319.6512 331.6029)" class="st3 st4">C</text>
	<text transform="matrix(1.0023 0 0 1 326.6062 331.6029)" class="st3 st4">o</text>
	<text transform="matrix(1.0023 0 0 1 333.5457 331.6029)" class="st3 st4">d</text>
	<text transform="matrix(1.0023 0 0 1 340.4851 331.6029)" class="st3 st4">e</text>
	<text transform="matrix(1.0023 0 0 1 346.5555 331.6029)" class="st3 st4">T</text>
	<text transform="matrix(1.0023 0 0 1 352.6258 331.6029)" class="st3 st4">y</text>
	<text transform="matrix(1.0023 0 0 1 357.8387 331.6029)" class="st3 st4">p</text>
	<text transform="matrix(1.0023 0 0 1 364.7781 331.6029)" class="st3 st4">e</text>
	<text transform="matrix(1.0023 0 0 1 220.7591 346.3217)" class="st3 st4">+</text>
	<text transform="matrix(1.0023 0 0 1 228.5696 346.3217)" class="st3 st4"> </text>
	<text transform="matrix(1.0023 0 0 1 239.8523 346.3217)" class="st3 st4">r</text>
	<text transform="matrix(1.0023 0 0 1 244.1824 346.3217)" class="st3 st4">i</text>
	<text transform="matrix(1.0023 0 0 1 246.7918 346.3217)" class="st3 st4">v</text>
	<text transform="matrix(1.0023 0 0 1 252.0047 346.3217)" class="st3 st4">e</text>
	<text transform="matrix(1.0023 0 0 1 258.0769 346.3217)" class="st3 st4">r</text>
	<text transform="matrix(1.0023 0 0 1 262.4051 346.3217)" class="st3 st4">N</text>
	<text transform="matrix(1.0023 0 0 1 271.0847 346.3217)" class="st3 st4">a</text>
	<text transform="matrix(1.0023 0 0 1 277.1531 346.3217)" class="st3 st4">m</text>
	<text transform="matrix(1.0023 0 0 1 286.7058 346.3217)" class="st3 st4">e</text>
	<text transform="matrix(1.0023 0 0 1 292.7762 346.3217)" class="st3 st4">:</text>
	<text transform="matrix(1.0023 0 0 1 295.3699 346.3217)" class="st3 st4"> </text>
	<text transform="matrix(1.0023 0 0 1 298.8328 346.3217)" class="st3 st4">x</text>
	<text transform="matrix(1.0023 0 0 1 304.0359 346.3217)" class="st3 st4">s</text>
	<text transform="matrix(1.0023 0 0 1 309.241 346.3217)" class="st3 st4">:</text>
	<text transform="matrix(1.0023 0 0 1 311.8347 346.3217)" class="st3 st4">:</text>
	<text transform="matrix(1.0023 0 0 1 314.4285 346.3217)" class="st3 st4">s</text>
	<text transform="matrix(1.0023 0 0 1 319.6336 346.3217)" class="st3 st4">t</text>
	<text transform="matrix(1.0023 0 0 1 323.1082 346.3217)" class="st3 st4">r</text>
	<text transform="matrix(1.0023 0 0 1 327.4383 346.3217)" class="st3 st4">i</text>
	<text transform="matrix(1.0023 0 0 1 330.0476 346.3217)" class="st3 st4">n</text>
	<text transform="matrix(1.0023 0 0 1 336.1297 346.3217)" class="st3 st4">g</text>
	<text transform="matrix(1.0023 0 0 1 343.0691 346.3217)" class="st3 st4"> </text>
	<text transform="matrix(1.0023 0 0 1 346.532 346.3217)" class="st3 st4">[</text>
	<text transform="matrix(1.0023 0 0 1 349.9949 346.3217)" class="st3 st4">0</text>
	<text transform="matrix(1.0023 0 0 1 356.0769 346.3217)" class="st3 st4">.</text>
	<text transform="matrix(1.0023 0 0 1 358.6707 346.3217)" class="st3 st4">.</text>
	<text transform="matrix(1.0023 0 0 1 361.2644 346.3217)" class="st3 st4">1</text>
	<text transform="matrix(1.0023 0 0 1 367.3484 346.3217)" class="st3 st4">]</text>
	<text transform="matrix(1.0023 0 0 1 220.7591 361.056)" class="st3 st4">+</text>
	<text transform="matrix(1.0023 0 0 1 228.5696 361.056)" class="st3 st4"> </text>
	<text transform="matrix(1.0023 0 0 1 239.8523 361.056)" class="st3 st4">s</text>
	<text transform="matrix(1.0023 0 0 1 245.0594 361.056)" class="st3 st4">i</text>
	<text transform="matrix(1.0023 0 0 1 247.6668 361.056)" class="st3 st4">d</text>
	<text transform="matrix(1.0023 0 0 1 254.6062 361.056)" class="st3 st4">e</text>
	<text transform="matrix(1.0023 0 0 1 260.6765 361.056)" class="st3 st4">T</text>
	<text transform="matrix(1.0023 0 0 1 266.7488 361.056)" class="st3 st4">y</text>
	<text transform="matrix(1.0023 0 0 1 271.9617 361.056)" class="st3 st4">p</text>
	<text transform="matrix(1.0023 0 0 1 278.8992 361.056)" class="st3 st4">e</text>
	<text transform="matrix(1.0023 0 0 1 284.9715 361.056)" class="st3 st4">:</text>
	<text transform="matrix(1.0023 0 0 1 287.5652 361.056)" class="st3 st4"> </text>
	<text transform="matrix(1.0023 0 0 1 291.0281 361.056)" class="st3 st4">g</text>
	<text transform="matrix(1.0023 0 0 1 297.9676 361.056)" class="st3 st4">m</text>
	<text transform="matrix(1.0023 0 0 1 307.5183 361.056)" class="st3 st4">l</text>
	<text transform="matrix(1.0023 0 0 1 310.1277 361.056)" class="st3 st4">:</text>
	<text transform="matrix(1.0023 0 0 1 312.7215 361.056)" class="st3 st4">:</text>
	<text transform="matrix(1.0023 0 0 1 315.3133 361.056)" class="st3 st4">C</text>
	<text transform="matrix(1.0023 0 0 1 322.2683 361.056)" class="st3 st4">o</text>
	<text transform="matrix(1.0023 0 0 1 329.2078 361.056)" class="st3 st4">d</text>
	<text transform="matrix(1.0023 0 0 1 336.1472 361.056)" class="st3 st4">e</text>
	<text transform="matrix(1.0023 0 0 1 342.2176 361.056)" class="st3 st4">T</text>
	<text transform="matrix(1.0023 0 0 1 348.2879 361.056)" class="st3 st4">y</text>
	<text transform="matrix(1.0023 0 0 1 353.5008 361.056)" class="st3 st4">p</text>
	<text transform="matrix(1.0023 0 0 1 360.4402 361.056)" class="st3 st4">e</text>
	<text transform="matrix(1.0023 0 0 1 220.7591 375.7904)" class="st3 st4">+</text>
	<text transform="matrix(1.0023 0 0 1 228.5696 375.7904)" class="st3 st4"> </text>
	<text transform="matrix(1.0023 0 0 1 239.8523 375.7904)" class="st3 st4">l</text>
	<text transform="matrix(1.0023 0 0 1 242.4617 375.7904)" class="st3 st4">e</text>
	<text transform="matrix(1.0023 0 0 1 248.532 375.7904)" class="st3 st4">f</text>
	<text transform="matrix(1.0023 0 0 1 252.0086 375.7904)" class="st3 st4">t</text>
	<text transform="matrix(1.0023 0 0 1 255.4832 375.7904)" class="st3 st4">P</text>
	<text transform="matrix(1.0023 0 0 1 261.5652 375.7904)" class="st3 st4">o</text>
	<text transform="matrix(1.0023 0 0 1 268.5066 375.7904)" class="st3 st4">s</text>
	<text transform="matrix(1.0023 0 0 1 273.7117 375.7904)" class="st3 st4">t</text>
	<text transform="matrix(1.0023 0 0 1 277.1863 375.7904)" class="st3 st4">:</text>
	<text transform="matrix(1.0023 0 0 1 279.7801 375.7904)" class="st3 st4"> </text>
	<text transform="matrix(1.0023 0 0 1 283.243 375.7904)" class="st3 st4">g</text>
	<text transform="matrix(1.0023 0 0 1 290.1824 375.7904)" class="st3 st4">m</text>
	<text transform="matrix(1.0023 0 0 1 299.7332 375.7904)" class="st3 st4">l</text>
	<text transform="matrix(1.0023 0 0 1 302.3426 375.7904)" class="st3 st4">:</text>
	<text transform="matrix(1.0023 0 0 1 304.9363 375.7904)" class="st3 st4">:</text>
	<text transform="matrix(1.0023 0 0 1 307.5301 375.7904)" class="st3 st4">L</text>
	<text transform="matrix(1.0023 0 0 1 312.739 375.7904)" class="st3 st4">e</text>
	<text transform="matrix(1.0023 0 0 1 318.8113 375.7904)" class="st3 st4">n</text>
	<text transform="matrix(1.0023 0 0 1 324.8933 375.7904)" class="st3 st4">g</text>
	<text transform="matrix(1.0023 0 0 1 331.8328 375.7904)" class="st3 st4">t</text>
	<text transform="matrix(1.0023 0 0 1 335.3055 375.7904)" class="st3 st4">h</text>
	<text transform="matrix(1.0023 0 0 1 341.3875 375.7904)" class="st3 st4">T</text>
	<text transform="matrix(1.0023 0 0 1 347.4597 375.7904)" class="st3 st4">y</text>
	<text transform="matrix(1.0023 0 0 1 352.6707 375.7904)" class="st3 st4">p</text>
	<text transform="matrix(1.0023 0 0 1 359.6101 375.7904)" class="st3 st4">e</text>
	<text transform="matrix(1.0023 0 0 1 365.6824 375.7904)" class="st3 st4"> </text>
	<text transform="matrix(1.0023 0 0 1 369.1453 375.7904)" class="st3 st4">[</text>
	<text transform="matrix(1.0023 0 0 1 372.6082 375.7904)" class="st3 st4">0</text>
	<text transform="matrix(1.0023 0 0 1 378.6902 375.7904)" class="st3 st4">.</text>
	<text transform="matrix(1.0023 0 0 1 381.284 375.7904)" class="st3 st4">.</text>
	<text transform="matrix(1.0023 0 0 1 383.8777 375.7904)" class="st3 st4">1</text>
	<text transform="matrix(1.0023 0 0 1 389.9617 375.7904)" class="st3 st4">]</text>
	<text transform="matrix(1.0023 0 0 1 220.7591 390.5092)" class="st3 st4">+</text>
	<text transform="matrix(1.0023 0 0 1 228.5696 390.5092)" class="st3 st4"> </text>
	<text transform="matrix(1.0023 0 0 1 239.8523 390.5092)" class="st3 st4">l</text>
	<text transform="matrix(1.0023 0 0 1 242.4617 390.5092)" class="st3 st4">e</text>
	<text transform="matrix(1.0023 0 0 1 248.532 390.5092)" class="st3 st4">f</text>
	<text transform="matrix(1.0023 0 0 1 252.0086 390.5092)" class="st3 st4">t</text>
	<text transform="matrix(1.0023 0 0 1 255.4832 390.5092)" class="st3 st4">D</text>
	<text transform="matrix(1.0023 0 0 1 263.3055 390.5092)" class="st3 st4">i</text>
	<text transform="matrix(1.0023 0 0 1 265.9148 390.5092)" class="st3 st4">s</text>
	<text transform="matrix(1.0023 0 0 1 271.1199 390.5092)" class="st3 st4">t</text>
	<text transform="matrix(1.0023 0 0 1 274.5945 390.5092)" class="st3 st4">a</text>
	<text transform="matrix(1.0023 0 0 1 280.6648 390.5092)" class="st3 st4">n</text>
	<text transform="matrix(1.0023 0 0 1 286.7469 390.5092)" class="st3 st4">c</text>
	<text transform="matrix(1.0023 0 0 1 291.9597 390.5092)" class="st3 st4">e</text>
	<text transform="matrix(1.0023 0 0 1 298.0301 390.5092)" class="st3 st4">:</text>
	<text transform="matrix(1.0023 0 0 1 300.6238 390.5092)" class="st3 st4"> </text>
	<text transform="matrix(1.0023 0 0 1 304.0867 390.5092)" class="st3 st4">g</text>
	<text transform="matrix(1.0023 0 0 1 311.0262 390.5092)" class="st3 st4">m</text>
	<text transform="matrix(1.0023 0 0 1 320.5769 390.5092)" class="st3 st4">l</text>
	<text transform="matrix(1.0023 0 0 1 323.1863 390.5092)" class="st3 st4">:</text>
	<text transform="matrix(1.0023 0 0 1 325.7801 390.5092)" class="st3 st4">:</text>
	<text transform="matrix(1.0023 0 0 1 328.3738 390.5092)" class="st3 st4">L</text>
	<text transform="matrix(1.0023 0 0 1 333.5828 390.5092)" class="st3 st4">e</text>
	<text transform="matrix(1.0023 0 0 1 339.6551 390.5092)" class="st3 st4">n</text>
	<text transform="matrix(1.0023 0 0 1 345.7371 390.5092)" class="st3 st4">g</text>
	<text transform="matrix(1.0023 0 0 1 352.6746 390.5092)" class="st3 st4">t</text>
	<text transform="matrix(1.0023 0 0 1 356.1492 390.5092)" class="st3 st4">h</text>
	<text transform="matrix(1.0023 0 0 1 362.2312 390.5092)" class="st3 st4">T</text>
	<text transform="matrix(1.0023 0 0 1 368.3015 390.5092)" class="st3 st4">y</text>
	<text transform="matrix(1.0023 0 0 1 373.5144 390.5092)" class="st3 st4">p</text>
	<text transform="matrix(1.0023 0 0 1 380.4539 390.5092)" class="st3 st4">e</text>
	<text transform="matrix(1.0023 0 0 1 386.5242 390.5092)" class="st3 st4"> </text>
	<text transform="matrix(1.0023 0 0 1 389.989 390.5092)" class="st3 st4">[</text>
	<text transform="matrix(1.0023 0 0 1 393.45 390.5092)" class="st3 st4">0</text>
	<text transform="matrix(1.0023 0 0 1 399.534 390.5092)" class="st3 st4">.</text>
	<text transform="matrix(1.0023 0 0 1 402.1277 390.5092)" class="st3 st4">.</text>
	<text transform="matrix(1.0023 0 0 1 404.7215 390.5092)" class="st3 st4">1</text>
	<text transform="matrix(1.0023 0 0 1 410.8055 390.5092)" class="st3 st4">]</text>
	<text transform="matrix(1.0023 0 0 1 220.7591 405.2279)" class="st3 st4">+</text>
	<text transform="matrix(1.0023 0 0 1 228.5696 405.2279)" class="st3 st4"> </text>
	<text transform="matrix(1.0023 0 0 1 239.8523 405.2279)" class="st3 st4">r</text>
	<text transform="matrix(1.0023 0 0 1 244.1824 405.2279)" class="st3 st4">i</text>
	<text transform="matrix(1.0023 0 0 1 246.7918 405.2279)" class="st3 st4">g</text>
	<text transform="matrix(1.0023 0 0 1 253.7293 405.2279)" class="st3 st4">h</text>
	<text transform="matrix(1.0023 0 0 1 259.8113 405.2279)" class="st3 st4">t</text>
	<text transform="matrix(1.0023 0 0 1 263.2859 405.2279)" class="st3 st4">P</text>
	<text transform="matrix(1.0023 0 0 1 269.3699 405.2279)" class="st3 st4">o</text>
	<text transform="matrix(1.0023 0 0 1 276.3094 405.2279)" class="st3 st4">s</text>
	<text transform="matrix(1.0023 0 0 1 281.5164 405.2279)" class="st3 st4">t</text>
	<text transform="matrix(1.0023 0 0 1 284.991 405.2279)" class="st3 st4">:</text>
	<text transform="matrix(1.0023 0 0 1 287.5828 405.2279)" class="st3 st4"> </text>
	<text transform="matrix(1.0023 0 0 1 291.0476 405.2279)" class="st3 st4">g</text>
	<text transform="matrix(1.0023 0 0 1 297.9871 405.2279)" class="st3 st4">m</text>
	<text transform="matrix(1.0023 0 0 1 307.5379 405.2279)" class="st3 st4">l</text>
	<text transform="matrix(1.0023 0 0 1 310.1472 405.2279)" class="st3 st4">:</text>
	<text transform="matrix(1.0023 0 0 1 312.739 405.2279)" class="st3 st4">:</text>
	<text transform="matrix(1.0023 0 0 1 315.3328 405.2279)" class="st3 st4">L</text>
	<text transform="matrix(1.0023 0 0 1 320.5437 405.2279)" class="st3 st4">e</text>
	<text transform="matrix(1.0023 0 0 1 326.614 405.2279)" class="st3 st4">n</text>
	<text transform="matrix(1.0023 0 0 1 332.6961 405.2279)" class="st3 st4">g</text>
	<text transform="matrix(1.0023 0 0 1 339.6355 405.2279)" class="st3 st4">t</text>
	<text transform="matrix(1.0023 0 0 1 343.1101 405.2279)" class="st3 st4">h</text>
	<text transform="matrix(1.0023 0 0 1 349.1922 405.2279)" class="st3 st4">T</text>
	<text transform="matrix(1.0023 0 0 1 355.2625 405.2279)" class="st3 st4">y</text>
	<text transform="matrix(1.0023 0 0 1 360.4754 405.2279)" class="st3 st4">p</text>
	<text transform="matrix(1.0023 0 0 1 367.4148 405.2279)" class="st3 st4">e</text>
	<text transform="matrix(1.0023 0 0 1 373.4851 405.2279)" class="st3 st4"> </text>
	<text transform="matrix(1.0023 0 0 1 376.95 405.2279)" class="st3 st4">[</text>
	<text transform="matrix(1.0023 0 0 1 380.4109 405.2279)" class="st3 st4">0</text>
	<text transform="matrix(1.0023 0 0 1 386.4949 405.2279)" class="st3 st4">.</text>
	<text transform="matrix(1.0023 0 0 1 389.0887 405.2279)" class="st3 st4">.</text>
	<text transform="matrix(1.0023 0 0 1 391.6824 405.2279)" class="st3 st4">1</text>
	<text transform="matrix(1.0023 0 0 1 397.7644 405.2279)" class="st3 st4">]</text>
	<text transform="matrix(1.0023 0 0 1 220.7591 419.9623)" class="st3 st4">+</text>
	<text transform="matrix(1.0023 0 0 1 228.5696 419.9623)" class="st3 st4"> </text>
	<text transform="matrix(1.0023 0 0 1 239.8523 419.9623)" class="st3 st4">r</text>
	<text transform="matrix(1.0023 0 0 1 244.1824 419.9623)" class="st3 st4">i</text>
	<text transform="matrix(1.0023 0 0 1 246.7918 419.9623)" class="st3 st4">g</text>
	<text transform="matrix(1.0023 0 0 1 253.7293 419.9623)" class="st3 st4">h</text>
	<text transform="matrix(1.0023 0 0 1 259.8113 419.9623)" class="st3 st4">t</text>
	<text transform="matrix(1.0023 0 0 1 263.2859 419.9623)" class="st3 st4">D</text>
	<text transform="matrix(1.0023 0 0 1 271.1101 419.9623)" class="st3 st4">i</text>
	<text transform="matrix(1.0023 0 0 1 273.7176 419.9623)" class="st3 st4">s</text>
	<text transform="matrix(1.0023 0 0 1 278.9246 419.9623)" class="st3 st4">t</text>
	<text transform="matrix(1.0023 0 0 1 282.3992 419.9623)" class="st3 st4">a</text>
	<text transform="matrix(1.0023 0 0 1 288.4676 419.9623)" class="st3 st4">n</text>
	<text transform="matrix(1.0023 0 0 1 294.5496 419.9623)" class="st3 st4">c</text>
	<text transform="matrix(1.0023 0 0 1 299.7625 419.9623)" class="st3 st4">e</text>
	<text transform="matrix(1.0023 0 0 1 305.8328 419.9623)" class="st3 st4">:</text>
	<text transform="matrix(1.0023 0 0 1 308.4265 419.9623)" class="st3 st4"> </text>
	<text transform="matrix(1.0023 0 0 1 311.8914 419.9623)" class="st3 st4">g</text>
	<text transform="matrix(1.0023 0 0 1 318.8289 419.9623)" class="st3 st4">m</text>
	<text transform="matrix(1.0023 0 0 1 328.3816 419.9623)" class="st3 st4">l</text>
	<text transform="matrix(1.0023 0 0 1 330.991 419.9623)" class="st3 st4">:</text>
	<text transform="matrix(1.0023 0 0 1 333.5828 419.9623)" class="st3 st4">:</text>
	<text transform="matrix(1.0023 0 0 1 336.1765 419.9623)" class="st3 st4">L</text>
	<text transform="matrix(1.0023 0 0 1 341.3875 419.9623)" class="st3 st4">e</text>
	<text transform="matrix(1.0023 0 0 1 347.4578 419.9623)" class="st3 st4">n</text>
	<text transform="matrix(1.0023 0 0 1 353.5398 419.9623)" class="st3 st4">g</text>
	<text transform="matrix(1.0023 0 0 1 360.4793 419.9623)" class="st3 st4">t</text>
	<text transform="matrix(1.0023 0 0 1 363.9539 419.9623)" class="st3 st4">h</text>
	<text transform="matrix(1.0023 0 0 1 370.0359 419.9623)" class="st3 st4">T</text>
	<text transform="matrix(1.0023 0 0 1 376.1062 419.9623)" class="st3 st4">y</text>
	<text transform="matrix(1.0023 0 0 1 381.3191 419.9623)" class="st3 st4">p</text>
	<text transform="matrix(1.0023 0 0 1 388.2586 419.9623)" class="st3 st4">e</text>
	<text transform="matrix(1.0023 0 0 1 394.3289 419.9623)" class="st3 st4"> </text>
	<text transform="matrix(1.0023 0 0 1 397.7937 419.9623)" class="st3 st4">[</text>
	<text transform="matrix(1.0023 0 0 1 401.2547 419.9623)" class="st3 st4">0</text>
	<text transform="matrix(1.0023 0 0 1 407.3387 419.9623)" class="st3 st4">.</text>
	<text transform="matrix(1.0023 0 0 1 409.9324 419.9623)" class="st3 st4">.</text>
	<text transform="matrix(1.0023 0 0 1 412.5242 419.9623)" class="st3 st4">1</text>
	<text transform="matrix(1.0023 0 0 1 418.6082 419.9623)" class="st3 st4">]</text>
	<text transform="matrix(1.0023 0 0 1 220.7591 434.6967)" class="st3 st4">+</text>
	<text transform="matrix(1.0023 0 0 1 228.5696 434.6967)" class="st3 st4"> </text>
	<text transform="matrix(1.0023 0 0 1 239.8523 434.6967)" class="st3 st4">l</text>
	<text transform="matrix(1.0023 0 0 1 242.4617 434.6967)" class="st3 st4">e</text>
	<text transform="matrix(1.0023 0 0 1 248.532 434.6967)" class="st3 st4">f</text>
	<text transform="matrix(1.0023 0 0 1 252.0086 434.6967)" class="st3 st4">t</text>
	<text transform="matrix(1.0023 0 0 1 255.4832 434.6967)" class="st3 st4">S</text>
	<text transform="matrix(1.0023 0 0 1 261.5574 434.6967)" class="st3 st4">t</text>
	<text transform="matrix(1.0023 0 0 1 265.032 434.6967)" class="st3 st4">a</text>
	<text transform="matrix(1.0023 0 0 1 271.1004 434.6967)" class="st3 st4">r</text>
	<text transform="matrix(1.0023 0 0 1 275.4305 434.6967)" class="st3 st4">t</text>
	<text transform="matrix(1.0023 0 0 1 278.9051 434.6967)" class="st3 st4">P</text>
	<text transform="matrix(1.0023 0 0 1 284.9871 434.6967)" class="st3 st4">o</text>
	<text transform="matrix(1.0023 0 0 1 291.9285 434.6967)" class="st3 st4">s</text>
	<text transform="matrix(1.0023 0 0 1 297.1336 434.6967)" class="st3 st4">t</text>
	<text transform="matrix(1.0023 0 0 1 300.6082 434.6967)" class="st3 st4">:</text>
	<text transform="matrix(1.0023 0 0 1 303.2019 434.6967)" class="st3 st4"> </text>
	<text transform="matrix(1.0023 0 0 1 306.6648 434.6967)" class="st3 st4">g</text>
	<text transform="matrix(1.0023 0 0 1 313.6043 434.6967)" class="st3 st4">m</text>
	<text transform="matrix(1.0023 0 0 1 323.1551 434.6967)" class="st3 st4">l</text>
	<text transform="matrix(1.0023 0 0 1 325.7644 434.6967)" class="st3 st4">:</text>
	<text transform="matrix(1.0023 0 0 1 328.3582 434.6967)" class="st3 st4">:</text>
	<text transform="matrix(1.0023 0 0 1 330.9519 434.6967)" class="st3 st4">L</text>
	<text transform="matrix(1.0023 0 0 1 336.1629 434.6967)" class="st3 st4">e</text>
	<text transform="matrix(1.0023 0 0 1 342.2332 434.6967)" class="st3 st4">n</text>
	<text transform="matrix(1.0023 0 0 1 348.3152 434.6967)" class="st3 st4">g</text>
	<text transform="matrix(1.0023 0 0 1 355.2547 434.6967)" class="st3 st4">t</text>
	<text transform="matrix(1.0023 0 0 1 358.7273 434.6967)" class="st3 st4">h</text>
	<text transform="matrix(1.0023 0 0 1 364.8094 434.6967)" class="st3 st4">T</text>
	<text transform="matrix(1.0023 0 0 1 370.8816 434.6967)" class="st3 st4">y</text>
	<text transform="matrix(1.0023 0 0 1 376.0926 434.6967)" class="st3 st4">p</text>
	<text transform="matrix(1.0023 0 0 1 383.032 434.6967)" class="st3 st4">e</text>
	<text transform="matrix(1.0023 0 0 1 389.1043 434.6967)" class="st3 st4"> </text>
	<text transform="matrix(1.0023 0 0 1 392.5672 434.6967)" class="st3 st4">[</text>
	<text transform="matrix(1.0023 0 0 1 396.0301 434.6967)" class="st3 st4">0</text>
	<text transform="matrix(1.0023 0 0 1 402.1121 434.6967)" class="st3 st4">.</text>
	<text transform="matrix(1.0023 0 0 1 404.7058 434.6967)" class="st3 st4">.</text>
	<text transform="matrix(1.0023 0 0 1 407.2996 434.6967)" class="st3 st4">1</text>
	<text transform="matrix(1.0023 0 0 1 413.3836 434.6967)" class="st3 st4">]</text>
	<text transform="matrix(1.0023 0 0 1 220.7591 449.4154)" class="st3 st4">+</text>
	<text transform="matrix(1.0023 0 0 1 228.5696 449.4154)" class="st3 st4"> </text>
	<text transform="matrix(1.0023 0 0 1 239.8523 449.4154)" class="st3 st4">l</text>
	<text transform="matrix(1.0023 0 0 1 242.4617 449.4154)" class="st3 st4">e</text>
	<text transform="matrix(1.0023 0 0 1 248.532 449.4154)" class="st3 st4">f</text>
	<text transform="matrix(1.0023 0 0 1 252.0086 449.4154)" class="st3 st4">t</text>
	<text transform="matrix(1.0023 0 0 1 255.4832 449.4154)" class="st3 st4">S</text>
	<text transform="matrix(1.0023 0 0 1 261.5574 449.4154)" class="st3 st4">t</text>
	<text transform="matrix(1.0023 0 0 1 265.032 449.4154)" class="st3 st4">a</text>
	<text transform="matrix(1.0023 0 0 1 271.1004 449.4154)" class="st3 st4">r</text>
	<text transform="matrix(1.0023 0 0 1 275.4305 449.4154)" class="st3 st4">t</text>
	<text transform="matrix(1.0023 0 0 1 278.9051 449.4154)" class="st3 st4">D</text>
	<text transform="matrix(1.0023 0 0 1 286.7273 449.4154)" class="st3 st4">i</text>
	<text transform="matrix(1.0023 0 0 1 289.3367 449.4154)" class="st3 st4">s</text>
	<text transform="matrix(1.0023 0 0 1 294.5418 449.4154)" class="st3 st4">t</text>
	<text transform="matrix(1.0023 0 0 1 298.0164 449.4154)" class="st3 st4">a</text>
	<text transform="matrix(1.0023 0 0 1 304.0867 449.4154)" class="st3 st4">n</text>
	<text transform="matrix(1.0023 0 0 1 310.1687 449.4154)" class="st3 st4">c</text>
	<text transform="matrix(1.0023 0 0 1 315.3816 449.4154)" class="st3 st4">e</text>
	<text transform="matrix(1.0023 0 0 1 321.4519 449.4154)" class="st3 st4">:</text>
	<text transform="matrix(1.0023 0 0 1 324.0457 449.4154)" class="st3 st4"> </text>
	<text transform="matrix(1.0023 0 0 1 327.5086 449.4154)" class="st3 st4">g</text>
	<text transform="matrix(1.0023 0 0 1 334.448 449.4154)" class="st3 st4">m</text>
	<text transform="matrix(1.0023 0 0 1 343.9988 449.4154)" class="st3 st4">l</text>
	<text transform="matrix(1.0023 0 0 1 346.6082 449.4154)" class="st3 st4">:</text>
	<text transform="matrix(1.0023 0 0 1 349.2019 449.4154)" class="st3 st4">:</text>
	<text transform="matrix(1.0023 0 0 1 351.7957 449.4154)" class="st3 st4">L</text>
	<text transform="matrix(1.0023 0 0 1 357.0047 449.4154)" class="st3 st4">e</text>
	<text transform="matrix(1.0023 0 0 1 363.0769 449.4154)" class="st3 st4">n</text>
	<text transform="matrix(1.0023 0 0 1 369.159 449.4154)" class="st3 st4">g</text>
	<text transform="matrix(1.0023 0 0 1 376.0965 449.4154)" class="st3 st4">t</text>
	<text transform="matrix(1.0023 0 0 1 379.5711 449.4154)" class="st3 st4">h</text>
	<text transform="matrix(1.0023 0 0 1 385.6531 449.4154)" class="st3 st4">T</text>
	<text transform="matrix(1.0023 0 0 1 391.7234 449.4154)" class="st3 st4">y</text>
	<text transform="matrix(1.0023 0 0 1 396.9363 449.4154)" class="st3 st4">p</text>
	<text transform="matrix(1.0023 0 0 1 403.8758 449.4154)" class="st3 st4">e</text>
	<text transform="matrix(1.0023 0 0 1 409.948 449.4154)" class="st3 st4"> </text>
	<text transform="matrix(1.0023 0 0 1 413.4109 449.4154)" class="st3 st4">[</text>
	<text transform="matrix(1.0023 0 0 1 416.8738 449.4154)" class="st3 st4">0</text>
	<text transform="matrix(1.0023 0 0 1 422.9558 449.4154)" class="st3 st4">.</text>
	<text transform="matrix(1.0023 0 0 1 425.5496 449.4154)" class="st3 st4">.</text>
	<text transform="matrix(1.0023 0 0 1 428.1433 449.4154)" class="st3 st4">1</text>
	<text transform="matrix(1.0023 0 0 1 434.2273 449.4154)" class="st3 st4">]</text>
	<text transform="matrix(1.0023 0 0 1 220.7591 464.1342)" class="st3 st4">+</text>
	<text transform="matrix(1.0023 0 0 1 228.5696 464.1342)" class="st3 st4"> </text>
	<text transform="matrix(1.0023 0 0 1 239.8523 464.1342)" class="st3 st4">l</text>
	<text transform="matrix(1.0023 0 0 1 242.4617 464.1342)" class="st3 st4">e</text>
	<text transform="matrix(1.0023 0 0 1 248.532 464.1342)" class="st3 st4">f</text>
	<text transform="matrix(1.0023 0 0 1 252.0086 464.1342)" class="st3 st4">t</text>
	<text transform="matrix(1.0023 0 0 1 255.4832 464.1342)" class="st3 st4">E</text>
	<text transform="matrix(1.0023 0 0 1 261.5515 464.1342)" class="st3 st4">n</text>
	<text transform="matrix(1.0023 0 0 1 267.6336 464.1342)" class="st3 st4">d</text>
	<text transform="matrix(1.0023 0 0 1 274.573 464.1342)" class="st3 st4">P</text>
	<text transform="matrix(1.0023 0 0 1 280.657 464.1342)" class="st3 st4">o</text>
	<text transform="matrix(1.0023 0 0 1 287.5965 464.1342)" class="st3 st4">s</text>
	<text transform="matrix(1.0023 0 0 1 292.8035 464.1342)" class="st3 st4">t</text>
	<text transform="matrix(1.0023 0 0 1 296.2781 464.1342)" class="st3 st4">:</text>
	<text transform="matrix(1.0023 0 0 1 298.8699 464.1342)" class="st3 st4"> </text>
	<text transform="matrix(1.0023 0 0 1 302.3347 464.1342)" class="st3 st4">g</text>
	<text transform="matrix(1.0023 0 0 1 309.2742 464.1342)" class="st3 st4">m</text>
	<text transform="matrix(1.0023 0 0 1 318.825 464.1342)" class="st3 st4">l</text>
	<text transform="matrix(1.0023 0 0 1 321.4344 464.1342)" class="st3 st4">:</text>
	<text transform="matrix(1.0023 0 0 1 324.0262 464.1342)" class="st3 st4">:</text>
	<text transform="matrix(1.0023 0 0 1 326.6199 464.1342)" class="st3 st4">L</text>
	<text transform="matrix(1.0023 0 0 1 331.8308 464.1342)" class="st3 st4">e</text>
	<text transform="matrix(1.0023 0 0 1 337.9012 464.1342)" class="st3 st4">n</text>
	<text transform="matrix(1.0023 0 0 1 343.9832 464.1342)" class="st3 st4">g</text>
	<text transform="matrix(1.0023 0 0 1 350.9226 464.1342)" class="st3 st4">t</text>
	<text transform="matrix(1.0023 0 0 1 354.3972 464.1342)" class="st3 st4">h</text>
	<text transform="matrix(1.0023 0 0 1 360.4793 464.1342)" class="st3 st4">T</text>
	<text transform="matrix(1.0023 0 0 1 366.5496 464.1342)" class="st3 st4">y</text>
	<text transform="matrix(1.0023 0 0 1 371.7625 464.1342)" class="st3 st4">p</text>
	<text transform="matrix(1.0023 0 0 1 378.7019 464.1342)" class="st3 st4">e</text>
	<text transform="matrix(1.0023 0 0 1 384.7722 464.1342)" class="st3 st4"> </text>
	<text transform="matrix(1.0023 0 0 1 388.2371 464.1342)" class="st3 st4">[</text>
	<text transform="matrix(1.0023 0 0 1 391.698 464.1342)" class="st3 st4">0</text>
	<text transform="matrix(1.0023 0 0 1 397.782 464.1342)" class="st3 st4">.</text>
	<text transform="matrix(1.0023 0 0 1 400.3758 464.1342)" class="st3 st4">.</text>
	<text transform="matrix(1.0023 0 0 1 402.9676 464.1342)" class="st3 st4">1</text>
	<text transform="matrix(1.0023 0 0 1 409.0515 464.1342)" class="st3 st4">]</text>
	<text transform="matrix(1.0023 0 0 1 220.7591 478.8685)" class="st3 st4">+</text>
	<text transform="matrix(1.0023 0 0 1 228.5696 478.8685)" class="st3 st4"> </text>
	<text transform="matrix(1.0023 0 0 1 239.8523 478.8685)" class="st3 st4">l</text>
	<text transform="matrix(1.0023 0 0 1 242.4617 478.8685)" class="st3 st4">e</text>
	<text transform="matrix(1.0023 0 0 1 248.532 478.8685)" class="st3 st4">f</text>
	<text transform="matrix(1.0023 0 0 1 252.0086 478.8685)" class="st3 st4">t</text>
	<text transform="matrix(1.0023 0 0 1 255.4832 478.8685)" class="st3 st4">E</text>
	<text transform="matrix(1.0023 0 0 1 261.5515 478.8685)" class="st3 st4">n</text>
	<text transform="matrix(1.0023 0 0 1 267.6336 478.8685)" class="st3 st4">d</text>
	<text transform="matrix(1.0023 0 0 1 274.573 478.8685)" class="st3 st4">D</text>
	<text transform="matrix(1.0023 0 0 1 282.3953 478.8685)" class="st3 st4">i</text>
	<text transform="matrix(1.0023 0 0 1 285.0047 478.8685)" class="st3 st4">s</text>
	<text transform="matrix(1.0023 0 0 1 290.2117 478.8685)" class="st3 st4">t</text>
	<text transform="matrix(1.0023 0 0 1 293.6863 478.8685)" class="st3 st4">a</text>
	<text transform="matrix(1.0023 0 0 1 299.7547 478.8685)" class="st3 st4">n</text>
	<text transform="matrix(1.0023 0 0 1 305.8367 478.8685)" class="st3 st4">c</text>
	<text transform="matrix(1.0023 0 0 1 311.0496 478.8685)" class="st3 st4">e</text>
	<text transform="matrix(1.0023 0 0 1 317.1199 478.8685)" class="st3 st4">:</text>
	<text transform="matrix(1.0023 0 0 1 319.7137 478.8685)" class="st3 st4"> </text>
	<text transform="matrix(1.0023 0 0 1 323.1785 478.8685)" class="st3 st4">g</text>
	<text transform="matrix(1.0023 0 0 1 330.116 478.8685)" class="st3 st4">m</text>
	<text transform="matrix(1.0023 0 0 1 339.6687 478.8685)" class="st3 st4">l</text>
	<text transform="matrix(1.0023 0 0 1 342.2762 478.8685)" class="st3 st4">:</text>
	<text transform="matrix(1.0023 0 0 1 344.8699 478.8685)" class="st3 st4">:</text>
	<text transform="matrix(1.0023 0 0 1 347.4637 478.8685)" class="st3 st4">L</text>
	<text transform="matrix(1.0023 0 0 1 352.6746 478.8685)" class="st3 st4">e</text>
	<text transform="matrix(1.0023 0 0 1 358.7449 478.8685)" class="st3 st4">n</text>
	<text transform="matrix(1.0023 0 0 1 364.8269 478.8685)" class="st3 st4">g</text>
	<text transform="matrix(1.0023 0 0 1 371.7664 478.8685)" class="st3 st4">t</text>
	<text transform="matrix(1.0023 0 0 1 375.241 478.8685)" class="st3 st4">h</text>
	<text transform="matrix(1.0023 0 0 1 381.323 478.8685)" class="st3 st4">T</text>
	<text transform="matrix(1.0023 0 0 1 387.3933 478.8685)" class="st3 st4">y</text>
	<text transform="matrix(1.0023 0 0 1 392.6062 478.8685)" class="st3 st4">p</text>
	<text transform="matrix(1.0023 0 0 1 399.5457 478.8685)" class="st3 st4">e</text>
	<text transform="matrix(1.0023 0 0 1 405.616 478.8685)" class="st3 st4"> </text>
	<text transform="matrix(1.0023 0 0 1 409.0789 478.8685)" class="st3 st4">[</text>
	<text transform="matrix(1.0023 0 0 1 412.5418 478.8685)" class="st3 st4">0</text>
	<text transform="matrix(1.0023 0 0 1 418.6258 478.8685)" class="st3 st4">.</text>
	<text transform="matrix(1.0023 0 0 1 421.2195 478.8685)" class="st3 st4">.</text>
	<text transform="matrix(1.0023 0 0 1 423.8113 478.8685)" class="st3 st4">1</text>
	<text transform="matrix(1.0023 0 0 1 429.8953 478.8685)" class="st3 st4">]</text>
	<text transform="matrix(1.0023 0 0 1 220.7591 493.6029)" class="st3 st4">+</text>
	<text transform="matrix(1.0023 0 0 1 228.5696 493.6029)" class="st3 st4"> </text>
	<text transform="matrix(1.0023 0 0 1 239.8523 493.6029)" class="st3 st4">r</text>
	<text transform="matrix(1.0023 0 0 1 244.1824 493.6029)" class="st3 st4">i</text>
	<text transform="matrix(1.0023 0 0 1 246.7918 493.6029)" class="st3 st4">g</text>
	<text transform="matrix(1.0023 0 0 1 253.7293 493.6029)" class="st3 st4">h</text>
	<text transform="matrix(1.0023 0 0 1 259.8113 493.6029)" class="st3 st4">t</text>
	<text transform="matrix(1.0023 0 0 1 263.2859 493.6029)" class="st3 st4">S</text>
	<text transform="matrix(1.0023 0 0 1 269.3601 493.6029)" class="st3 st4">t</text>
	<text transform="matrix(1.0023 0 0 1 272.8347 493.6029)" class="st3 st4">a</text>
	<text transform="matrix(1.0023 0 0 1 278.9051 493.6029)" class="st3 st4">r</text>
	<text transform="matrix(1.0023 0 0 1 283.2332 493.6029)" class="st3 st4">t</text>
	<text transform="matrix(1.0023 0 0 1 286.7078 493.6029)" class="st3 st4">P</text>
	<text transform="matrix(1.0023 0 0 1 292.7918 493.6029)" class="st3 st4">o</text>
	<text transform="matrix(1.0023 0 0 1 299.7312 493.6029)" class="st3 st4">s</text>
	<text transform="matrix(1.0023 0 0 1 304.9383 493.6029)" class="st3 st4">t</text>
	<text transform="matrix(1.0023 0 0 1 308.4129 493.6029)" class="st3 st4">:</text>
	<text transform="matrix(1.0023 0 0 1 311.0047 493.6029)" class="st3 st4"> </text>
	<text transform="matrix(1.0023 0 0 1 314.4695 493.6029)" class="st3 st4">g</text>
	<text transform="matrix(1.0023 0 0 1 321.409 493.6029)" class="st3 st4">m</text>
	<text transform="matrix(1.0023 0 0 1 330.9597 493.6029)" class="st3 st4">l</text>
	<text transform="matrix(1.0023 0 0 1 333.5691 493.6029)" class="st3 st4">:</text>
	<text transform="matrix(1.0023 0 0 1 336.1629 493.6029)" class="st3 st4">:</text>
	<text transform="matrix(1.0023 0 0 1 338.7547 493.6029)" class="st3 st4">L</text>
	<text transform="matrix(1.0023 0 0 1 343.9656 493.6029)" class="st3 st4">e</text>
	<text transform="matrix(1.0023 0 0 1 350.0359 493.6029)" class="st3 st4">n</text>
	<text transform="matrix(1.0023 0 0 1 356.118 493.6029)" class="st3 st4">g</text>
	<text transform="matrix(1.0023 0 0 1 363.0574 493.6029)" class="st3 st4">t</text>
	<text transform="matrix(1.0023 0 0 1 366.532 493.6029)" class="st3 st4">h</text>
	<text transform="matrix(1.0023 0 0 1 372.614 493.6029)" class="st3 st4">T</text>
	<text transform="matrix(1.0023 0 0 1 378.6844 493.6029)" class="st3 st4">y</text>
	<text transform="matrix(1.0023 0 0 1 383.8972 493.6029)" class="st3 st4">p</text>
	<text transform="matrix(1.0023 0 0 1 390.8367 493.6029)" class="st3 st4">e</text>
	<text transform="matrix(1.0023 0 0 1 396.907 493.6029)" class="st3 st4"> </text>
	<text transform="matrix(1.0023 0 0 1 400.3719 493.6029)" class="st3 st4">[</text>
	<text transform="matrix(1.0023 0 0 1 403.8328 493.6029)" class="st3 st4">0</text>
	<text transform="matrix(1.0023 0 0 1 409.9168 493.6029)" class="st3 st4">.</text>
	<text transform="matrix(1.0023 0 0 1 412.5105 493.6029)" class="st3 st4">.</text>
	<text transform="matrix(1.0023 0 0 1 415.1043 493.6029)" class="st3 st4">1</text>
	<text transform="matrix(1.0023 0 0 1 421.1863 493.6029)" class="st3 st4">]</text>
	<text transform="matrix(1.0023 0 0 1 220.7591 508.306)" class="st3 st4">+</text>
	<text transform="matrix(1.0023 0 0 1 228.5696 508.306)" class="st3 st4"> </text>
	<text transform="matrix(1.0023 0 0 1 239.8523 508.306)" class="st3 st4">r</text>
	<text transform="matrix(1.0023 0 0 1 244.1824 508.306)" class="st3 st4">i</text>
	<text transform="matrix(1.0023 0 0 1 246.7918 508.306)" class="st3 st4">g</text>
	<text transform="matrix(1.0023 0 0 1 253.7293 508.306)" class="st3 st4">h</text>
	<text transform="matrix(1.0023 0 0 1 259.8113 508.306)" class="st3 st4">t</text>
	<text transform="matrix(1.0023 0 0 1 263.2859 508.306)" class="st3 st4">S</text>
	<text transform="matrix(1.0023 0 0 1 269.3601 508.306)" class="st3 st4">t</text>
	<text transform="matrix(1.0023 0 0 1 272.8347 508.306)" class="st3 st4">a</text>
	<text transform="matrix(1.0023 0 0 1 278.9051 508.306)" class="st3 st4">r</text>
	<text transform="matrix(1.0023 0 0 1 283.2332 508.306)" class="st3 st4">t</text>
	<text transform="matrix(1.0023 0 0 1 286.7078 508.306)" class="st3 st4">D</text>
	<text transform="matrix(1.0023 0 0 1 294.532 508.306)" class="st3 st4">i</text>
	<text transform="matrix(1.0023 0 0 1 297.1394 508.306)" class="st3 st4">s</text>
	<text transform="matrix(1.0023 0 0 1 302.3465 508.306)" class="st3 st4">t</text>
	<text transform="matrix(1.0023 0 0 1 305.8211 508.306)" class="st3 st4">a</text>
	<text transform="matrix(1.0023 0 0 1 311.8894 508.306)" class="st3 st4">n</text>
	<text transform="matrix(1.0023 0 0 1 317.9715 508.306)" class="st3 st4">c</text>
	<text transform="matrix(1.0023 0 0 1 323.1844 508.306)" class="st3 st4">e</text>
	<text transform="matrix(1.0023 0 0 1 329.2566 508.306)" class="st3 st4">:</text>
	<text transform="matrix(1.0023 0 0 1 331.8484 508.306)" class="st3 st4"> </text>
	<text transform="matrix(1.0023 0 0 1 335.3133 508.306)" class="st3 st4">g</text>
	<text transform="matrix(1.0023 0 0 1 342.2527 508.306)" class="st3 st4">m</text>
	<text transform="matrix(1.0023 0 0 1 351.8035 508.306)" class="st3 st4">l</text>
	<text transform="matrix(1.0023 0 0 1 354.4129 508.306)" class="st3 st4">:</text>
	<text transform="matrix(1.0023 0 0 1 357.0047 508.306)" class="st3 st4">:</text>
	<text transform="matrix(1.0023 0 0 1 359.5984 508.306)" class="st3 st4">L</text>
	<text transform="matrix(1.0023 0 0 1 364.8094 508.306)" class="st3 st4">e</text>
	<text transform="matrix(1.0023 0 0 1 370.8797 508.306)" class="st3 st4">n</text>
	<text transform="matrix(1.0023 0 0 1 376.9617 508.306)" class="st3 st4">g</text>
	<text transform="matrix(1.0023 0 0 1 383.9012 508.306)" class="st3 st4">t</text>
	<text transform="matrix(1.0023 0 0 1 387.3758 508.306)" class="st3 st4">h</text>
	<text transform="matrix(1.0023 0 0 1 393.4578 508.306)" class="st3 st4">T</text>
	<text transform="matrix(1.0023 0 0 1 399.5281 508.306)" class="st3 st4">y</text>
	<text transform="matrix(1.0023 0 0 1 404.741 508.306)" class="st3 st4">p</text>
	<text transform="matrix(1.0023 0 0 1 411.6805 508.306)" class="st3 st4">e</text>
	<text transform="matrix(1.0023 0 0 1 417.7508 508.306)" class="st3 st4"> </text>
	<text transform="matrix(1.0023 0 0 1 421.2156 508.306)" class="st3 st4">[</text>
	<text transform="matrix(1.0023 0 0 1 424.6765 508.306)" class="st3 st4">0</text>
	<text transform="matrix(1.0023 0 0 1 430.7605 508.306)" class="st3 st4">.</text>
	<text transform="matrix(1.0023 0 0 1 433.3543 508.306)" class="st3 st4">.</text>
	<text transform="matrix(1.0023 0 0 1 435.9461 508.306)" class="st3 st4">1</text>
	<text transform="matrix(1.0023 0 0 1 442.0301 508.306)" class="st3 st4">]</text>
	<text transform="matrix(1.0023 0 0 1 220.7591 523.0267)" class="st3 st4">+</text>
	<text transform="matrix(1.0023 0 0 1 228.5696 523.0267)" class="st3 st4"> </text>
	<text transform="matrix(1.0023 0 0 1 239.8523 523.0267)" class="st3 st4">r</text>
	<text transform="matrix(1.0023 0 0 1 244.1824 523.0267)" class="st3 st4">i</text>
	<text transform="matrix(1.0023 0 0 1 246.7918 523.0267)" class="st3 st4">g</text>
	<text transform="matrix(1.0023 0 0 1 253.7293 523.0267)" class="st3 st4">h</text>
	<text transform="matrix(1.0023 0 0 1 259.8113 523.0267)" class="st3 st4">t</text>
	<text transform="matrix(1.0023 0 0 1 263.2859 523.0267)" class="st3 st4">E</text>
	<text transform="matrix(1.0023 0 0 1 269.3562 523.0267)" class="st3 st4">n</text>
	<text transform="matrix(1.0023 0 0 1 275.4383 523.0267)" class="st3 st4">d</text>
	<text transform="matrix(1.0023 0 0 1 282.3777 523.0267)" class="st3 st4">P</text>
	<text transform="matrix(1.0023 0 0 1 288.4617 523.0267)" class="st3 st4">o</text>
	<text transform="matrix(1.0023 0 0 1 295.4012 523.0267)" class="st3 st4">s</text>
	<text transform="matrix(1.0023 0 0 1 300.6062 523.0267)" class="st3 st4">t</text>
	<text transform="matrix(1.0023 0 0 1 304.0808 523.0267)" class="st3 st4">:</text>
	<text transform="matrix(1.0023 0 0 1 306.6746 523.0267)" class="st3 st4"> </text>
	<text transform="matrix(1.0023 0 0 1 310.1375 523.0267)" class="st3 st4">g</text>
	<text transform="matrix(1.0023 0 0 1 317.0769 523.0267)" class="st3 st4">m</text>
	<text transform="matrix(1.0023 0 0 1 326.6277 523.0267)" class="st3 st4">l</text>
	<text transform="matrix(1.0023 0 0 1 329.2371 523.0267)" class="st3 st4">:</text>
	<text transform="matrix(1.0023 0 0 1 331.8308 523.0267)" class="st3 st4">:</text>
	<text transform="matrix(1.0023 0 0 1 334.4246 523.0267)" class="st3 st4">L</text>
	<text transform="matrix(1.0023 0 0 1 339.6355 523.0267)" class="st3 st4">e</text>
	<text transform="matrix(1.0023 0 0 1 345.7058 523.0267)" class="st3 st4">n</text>
	<text transform="matrix(1.0023 0 0 1 351.7879 523.0267)" class="st3 st4">g</text>
	<text transform="matrix(1.0023 0 0 1 358.7273 523.0267)" class="st3 st4">t</text>
	<text transform="matrix(1.0023 0 0 1 362.2019 523.0267)" class="st3 st4">h</text>
	<text transform="matrix(1.0023 0 0 1 368.282 523.0267)" class="st3 st4">T</text>
	<text transform="matrix(1.0023 0 0 1 374.3543 523.0267)" class="st3 st4">y</text>
	<text transform="matrix(1.0023 0 0 1 379.5672 523.0267)" class="st3 st4">p</text>
	<text transform="matrix(1.0023 0 0 1 386.5047 523.0267)" class="st3 st4">e</text>
	<text transform="matrix(1.0023 0 0 1 392.5769 523.0267)" class="st3 st4"> </text>
	<text transform="matrix(1.0023 0 0 1 396.0398 523.0267)" class="st3 st4">[</text>
	<text transform="matrix(1.0023 0 0 1 399.5027 523.0267)" class="st3 st4">0</text>
	<text transform="matrix(1.0023 0 0 1 405.5867 523.0267)" class="st3 st4">.</text>
	<text transform="matrix(1.0023 0 0 1 408.1785 523.0267)" class="st3 st4">.</text>
	<text transform="matrix(1.0023 0 0 1 410.7722 523.0267)" class="st3 st4">1</text>
	<text transform="matrix(1.0023 0 0 1 416.8562 523.0267)" class="st3 st4">]</text>
	<text transform="matrix(1.0023 0 0 1 220.7591 537.7592)" class="st3 st4">+</text>
	<text transform="matrix(1.0023 0 0 1 228.5696 537.7592)" class="st3 st4"> </text>
	<text transform="matrix(1.0023 0 0 1 239.8523 537.7592)" class="st3 st4">r</text>
	<text transform="matrix(1.0023 0 0 1 244.1824 537.7592)" class="st3 st4">i</text>
	<text transform="matrix(1.0023 0 0 1 246.7918 537.7592)" class="st3 st4">g</text>
	<text transform="matrix(1.0023 0 0 1 253.7293 537.7592)" class="st3 st4">h</text>
	<text transform="matrix(1.0023 0 0 1 259.8113 537.7592)" class="st3 st4">t</text>
	<text transform="matrix(1.0023 0 0 1 263.2859 537.7592)" class="st3 st4">E</text>
	<text transform="matrix(1.0023 0 0 1 269.3562 537.7592)" class="st3 st4">n</text>
	<text transform="matrix(1.0023 0 0 1 275.4383 537.7592)" class="st3 st4">d</text>
	<text transform="matrix(1.0023 0 0 1 282.3777 537.7592)" class="st3 st4">D</text>
	<text transform="matrix(1.0023 0 0 1 290.2 537.7592)" class="st3 st4">i</text>
	<text transform="matrix(1.0023 0 0 1 292.8094 537.7592)" class="st3 st4">s</text>
	<text transform="matrix(1.0023 0 0 1 298.0144 537.7592)" class="st3 st4">t</text>
	<text transform="matrix(1.0023 0 0 1 301.489 537.7592)" class="st3 st4">a</text>
	<text transform="matrix(1.0023 0 0 1 307.5594 537.7592)" class="st3 st4">n</text>
	<text transform="matrix(1.0023 0 0 1 313.6414 537.7592)" class="st3 st4">c</text>
	<text transform="matrix(1.0023 0 0 1 318.8543 537.7592)" class="st3 st4">e</text>
	<text transform="matrix(1.0023 0 0 1 324.9246 537.7592)" class="st3 st4">:</text>
	<text transform="matrix(1.0023 0 0 1 327.5183 537.7592)" class="st3 st4"> </text>
	<text transform="matrix(1.0023 0 0 1 330.9812 537.7592)" class="st3 st4">g</text>
	<text transform="matrix(1.0023 0 0 1 337.9207 537.7592)" class="st3 st4">m</text>
	<text transform="matrix(1.0023 0 0 1 347.4715 537.7592)" class="st3 st4">l</text>
	<text transform="matrix(1.0023 0 0 1 350.0808 537.7592)" class="st3 st4">:</text>
	<text transform="matrix(1.0023 0 0 1 352.6746 537.7592)" class="st3 st4">:</text>
	<text transform="matrix(1.0023 0 0 1 355.2683 537.7592)" class="st3 st4">L</text>
	<text transform="matrix(1.0023 0 0 1 360.4773 537.7592)" class="st3 st4">e</text>
	<text transform="matrix(1.0023 0 0 1 366.5496 537.7592)" class="st3 st4">n</text>
	<text transform="matrix(1.0023 0 0 1 372.6316 537.7592)" class="st3 st4">g</text>
	<text transform="matrix(1.0023 0 0 1 379.5691 537.7592)" class="st3 st4">t</text>
	<text transform="matrix(1.0023 0 0 1 383.0437 537.7592)" class="st3 st4">h</text>
	<text transform="matrix(1.0023 0 0 1 389.1258 537.7592)" class="st3 st4">T</text>
	<text transform="matrix(1.0023 0 0 1 395.198 537.7592)" class="st3 st4">y</text>
	<text transform="matrix(1.0023 0 0 1 400.409 537.7592)" class="st3 st4">p</text>
	<text transform="matrix(1.0023 0 0 1 407.3484 537.7592)" class="st3 st4">e</text>
	<text transform="matrix(1.0023 0 0 1 413.4207 537.7592)" class="st3 st4"> </text>
	<text transform="matrix(1.0023 0 0 1 416.8836 537.7592)" class="st3 st4">[</text>
	<text transform="matrix(1.0023 0 0 1 420.3465 537.7592)" class="st3 st4">0</text>
	<text transform="matrix(1.0023 0 0 1 426.4285 537.7592)" class="st3 st4">.</text>
	<text transform="matrix(1.0023 0 0 1 429.0222 537.7592)" class="st3 st4">.</text>
	<text transform="matrix(1.0023 0 0 1 431.616 537.7592)" class="st3 st4">1</text>
	<text transform="matrix(1.0023 0 0 1 437.7 537.7592)" class="st3 st4">]</text>
	<path class="st6" d="M203.4,43.2c1.4,0,2.6,1.2,2.6,2.6l0,0V122l0,0c0,1.4-1.2,2.6-2.6,2.6l0,0l0,0H28l0,0c-1.4,0-2.6-1.2-2.6-2.6
		V45.8c0-1.4,1.2-2.6,2.6-2.6l0,0H203.4L203.4,43.2L203.4,43.2z"/>
	<path class="st7" d="M203.4,43.2c1.4,0,2.6,1.2,2.6,2.6l0,0V122l0,0c0,1.4-1.2,2.6-2.6,2.6l0,0l0,0H28l0,0c-1.4,0-2.6-1.2-2.6-2.6
		V45.8c0-1.4,1.2-2.6,2.6-2.6l0,0H203.4L203.4,43.2L203.4,43.2z"/>
	<path class="st8" d="M45.8,69.2c1.2,0,2.2,1,2.2,2.2l0,0v9.5l0,0c0,1.2-1,2.2-2.2,2.2l0,0l0,0h-9.5l0,0c-1.2,0-2.2-1-2.2-2.2l0,0
		v-9.5c0-1.2,1-2.2,2.2-2.2l0,0L45.8,69.2L45.8,69.2L45.8,69.2z"/>
	<path class="st9" d="M45.8,69.2c1.2,0,2.2,1,2.2,2.2l0,0v9.5l0,0c0,1.2-1,2.2-2.2,2.2l0,0l0,0h-9.5l0,0c-1.2,0-2.2-1-2.2-2.2l0,0
		v-9.5c0-1.2,1-2.2,2.2-2.2l0,0L45.8,69.2L45.8,69.2L45.8,69.2z"/>
	<text transform="matrix(1.0023 0 0 1 53.2122 81.2914)" class="st10 st3 st4">G</text>
	<text transform="matrix(1.0023 0 0 1 61.0218 81.2914)" class="st10 st3 st4">M</text>
	<text transform="matrix(1.0023 0 0 1 71.4378 81.2914)" class="st10 st3 st4">L</text>
	<text transform="matrix(1.0023 0 0 1 76.6487 81.2914)" class="st10 st3 st4">に</text>
	<text transform="matrix(1.0023 0 0 1 85.3362 81.2914)" class="st10 st3 st4">定</text>
	<text transform="matrix(1.0023 0 0 1 96.6214 81.2914)" class="st10 st3 st4">義</text>
	<text transform="matrix(1.0023 0 0 1 107.9065 81.2914)" class="st10 st3 st4">さ</text>
	<text transform="matrix(1.0023 0 0 1 115.7141 81.2914)" class="st10 st3 st4">れ</text>
	<text transform="matrix(1.0023 0 0 1 126.1214 81.2914)" class="st10 st3 st4">た</text>
	<text transform="matrix(1.0023 0 0 1 134.8138 81.2914)" class="st10 st3 st4">ク</text>
	<text transform="matrix(1.0023 0 0 1 143.4915 81.2914)" class="st10 st3 st4">ラ</text>
	<text transform="matrix(1.0023 0 0 1 151.3001 81.2914)" class="st10 st3 st4">ス</text>
	<path class="st11" d="M45.8,85.6c1.2,0,2.2,1,2.2,2.2l0,0v9.5l0,0c0,1.2-1,2.2-2.2,2.2l0,0l0,0h-9.5l0,0c-1.2,0-2.2-1-2.2-2.2l0,0
		v-9.5c0-1.2,1-2.2,2.2-2.2l0,0L45.8,85.6L45.8,85.6L45.8,85.6z"/>
	<path class="st9" d="M45.8,85.6c1.2,0,2.2,1,2.2,2.2l0,0v9.5l0,0c0,1.2-1,2.2-2.2,2.2l0,0l0,0h-9.5l0,0c-1.2,0-2.2-1-2.2-2.2l0,0
		v-9.5c0-1.2,1-2.2,2.2-2.2l0,0L45.8,85.6L45.8,85.6L45.8,85.6z"/>
	<text transform="matrix(1.0023 0 0 1 53.2122 97.7601)" class="st10 st3 st4">C</text>
	<text transform="matrix(1.0023 0 0 1 60.1653 97.7601)" class="st10 st3 st4">i</text>
	<text transform="matrix(1.0023 0 0 1 62.7747 97.7601)" class="st10 st3 st4">t</text>
	<text transform="matrix(1.0023 0 0 1 66.2493 97.7601)" class="st10 st3 st4">y</text>
	<text transform="matrix(1.0023 0 0 1 71.4612 97.7601)" class="st10 st3 st4">G</text>
	<text transform="matrix(1.0023 0 0 1 79.2718 97.7601)" class="st10 st3 st4">M</text>
	<text transform="matrix(1.0023 0 0 1 89.6878 97.7601)" class="st10 st3 st4">L</text>
	<text transform="matrix(1.0023 0 0 1 94.8977 97.7601)" class="st10 st3 st4">に</text>
	<text transform="matrix(1.0023 0 0 1 103.5852 97.7601)" class="st10 st3 st4">定</text>
	<text transform="matrix(1.0023 0 0 1 114.8704 97.7601)" class="st10 st3 st4">義</text>
	<text transform="matrix(1.0023 0 0 1 126.1565 97.7601)" class="st10 st3 st4">さ</text>
	<text transform="matrix(1.0023 0 0 1 133.9632 97.7601)" class="st10 st3 st4">れ</text>
	<text transform="matrix(1.0023 0 0 1 144.3714 97.7601)" class="st10 st3 st4">た</text>
	<text transform="matrix(1.0023 0 0 1 153.0628 97.7601)" class="st10 st3 st4">ク</text>
	<text transform="matrix(1.0023 0 0 1 161.7415 97.7601)" class="st10 st3 st4">ラ</text>
	<text transform="matrix(1.0023 0 0 1 169.5501 97.7601)" class="st10 st3 st4">ス</text>
	<path class="st1" d="M45.8,102.1c1.2,0,2.2,1,2.2,2.2l0,0v9.5l0,0c0,1.2-1,2.2-2.2,2.2l0,0l0,0h-9.5l0,0c-1.2,0-2.2-1-2.2-2.2l0,0
		v-9.5c0-1.2,1-2.2,2.2-2.2l0,0L45.8,102.1L45.8,102.1L45.8,102.1z"/>
	<path class="st9" d="M45.8,102.1c1.2,0,2.2,1,2.2,2.2l0,0v9.5l0,0c0,1.2-1,2.2-2.2,2.2l0,0l0,0h-9.5l0,0c-1.2,0-2.2-1-2.2-2.2l0,0
		v-9.5c0-1.2,1-2.2,2.2-2.2l0,0L45.8,102.1L45.8,102.1L45.8,102.1z"/>
	<text transform="matrix(1.0023 0 0 1 53.2122 114.2289)" class="st10 st3 st4">i</text>
	<text transform="matrix(1.0023 0 0 1 55.8216 114.2289)" class="st10 st3 st4">-</text>
	<text transform="matrix(1.0023 0 0 1 60.1653 114.2289)" class="st10 st3 st4">U</text>
	<text transform="matrix(1.0023 0 0 1 67.9749 114.2289)" class="st10 st3 st4">R</text>
	<text transform="matrix(1.0023 0 0 1 74.9173 114.2289)" class="st10 st3 st4">に</text>
	<text transform="matrix(1.0023 0 0 1 83.6038 114.2289)" class="st10 st3 st4">定</text>
	<text transform="matrix(1.0023 0 0 1 94.8899 114.2289)" class="st10 st3 st4">義</text>
	<text transform="matrix(1.0023 0 0 1 106.1751 114.2289)" class="st10 st3 st4">さ</text>
	<text transform="matrix(1.0023 0 0 1 113.9827 114.2289)" class="st10 st3 st4">れ</text>
	<text transform="matrix(1.0023 0 0 1 124.3899 114.2289)" class="st10 st3 st4">た</text>
	<text transform="matrix(1.0023 0 0 1 133.0813 114.2289)" class="st10 st3 st4">ク</text>
	<text transform="matrix(1.0023 0 0 1 141.76 114.2289)" class="st10 st3 st4">ラ</text>
	<text transform="matrix(1.0023 0 0 1 149.5686 114.2289)" class="st10 st3 st4">ス</text>
	<text transform="matrix(1.0023 0 0 1 92.2747 61.3695)" class="st10 st12 st13">凡例</text>
	<text transform="matrix(1.0023 0 0 1 92.2747 61.3695)" class="st14 st12 st13">凡例</text>
	<line class="st15" x1="333.6" y1="276.2" x2="334.5" y2="235.5"/>
	<polyline class="st16" points="339.7,249.3 329.3,249.3 334.5,235.5 339.7,249.3 	"/>
	<polygon class="st15" points="339.7,249.3 329.3,249.3 334.5,235.5 	"/>
</g>
</svg>
