<?xml version="1.0" encoding="utf-8"?>
<!-- Generator: Adobe Illustrator 27.0.1, SVG Export Plug-In . SVG Version: 6.00 Build 0)  -->
<svg version="1.1" id="レイヤー_1" xmlns="http://www.w3.org/2000/svg" xmlns:xlink="http://www.w3.org/1999/xlink" x="0px"
	 y="0px" viewBox="0 0 337.4 273.29" style="enable-background:new 0 0 337.4 273.29;" xml:space="preserve">
<style type="text/css">
	.st0{fill-rule:evenodd;clip-rule:evenodd;fill:#CFD1D8;}
	.st1{fill-rule:evenodd;clip-rule:evenodd;fill:#FFFFE0;}
	.st2{fill:none;stroke:#000000;stroke-width:0.4331;stroke-linecap:round;stroke-linejoin:round;stroke-miterlimit:10;}
	.st3{font-family:'Calibri-Italic';}
	.st4{font-size:4.7638px;}
	.st5{font-family:'Calibri';}
	.st6{font-family:'Calibri-Bold';}
	.st7{font-family:'Calibri-BoldItalic';}
	.st8{fill:none;stroke:#000000;stroke-width:0.4331;stroke-linecap:round;stroke-linejoin:bevel;stroke-miterlimit:10;}
	.st9{fill-rule:evenodd;clip-rule:evenodd;fill:#FFFFFF;}
	.st10{fill:none;stroke:#000000;stroke-width:0.4331;stroke-linejoin:round;stroke-miterlimit:10;}
</style>
<g>
	<polygon class="st0" points="106.56,42.33 201.18,42.33 201.18,9.85 106.56,9.85 106.56,42.33 	"/>
	<polygon class="st1" points="105.26,41.03 199.88,41.03 199.88,8.55 105.26,8.55 105.26,41.03 	"/>
	<polygon class="st2" points="105.26,41.03 199.88,41.03 199.88,8.55 105.26,8.55 105.26,41.03 	"/>
	<text transform="matrix(1.0023 0 0 1 180.7858 14.1859)"><tspan x="0" y="0" class="st3 st4">_</tspan><tspan x="2.17" y="0" class="st3 st4">F</tspan><tspan x="4.34" y="0" class="st3 st4">e</tspan><tspan x="6.51" y="0" class="st3 st4">a</tspan><tspan x="9.1" y="0" class="st3 st4">t</tspan><tspan x="10.83" y="0" class="st3 st4">u</tspan><tspan x="13.43" y="0" class="st3 st4">r</tspan><tspan x="15.16" y="0" class="st3 st4">e</tspan></text>
	<text transform="matrix(1.0023 0 0 1 136.942 22.4203)"><tspan x="0" y="0" class="st5 st4">«</tspan><tspan x="2.6" y="0" class="st5 st4">F</tspan><tspan x="4.77" y="0" class="st5 st4">e</tspan><tspan x="7.36" y="0" class="st5 st4">a</tspan><tspan x="9.96" y="0" class="st5 st4">t</tspan><tspan x="11.69" y="0" class="st5 st4">u</tspan><tspan x="14.28" y="0" class="st5 st4">r</tspan><tspan x="16.02" y="0" class="st5 st4">e</tspan><tspan x="18.61" y="0" class="st5 st4">T</tspan><tspan x="20.78" y="0" class="st5 st4">y</tspan><tspan x="22.94" y="0" class="st5 st4">p</tspan><tspan x="25.54" y="0" class="st5 st4">e</tspan><tspan x="28.14" y="0" class="st5 st4">»</tspan></text>
	<text transform="matrix(1.0023 0 0 1 135.2076 28.0453)"><tspan x="0" y="0" class="st6 st4">a</tspan><tspan x="2.17" y="0" class="st6 st4">pp</tspan><tspan x="7.35" y="0" class="st6 st4">::</tspan><tspan x="9.95" y="0" class="st6 st4">A</tspan><tspan x="12.98" y="0" class="st6 st4">pp</tspan><tspan x="18.17" y="0" class="st6 st4">e</tspan><tspan x="20.77" y="0" class="st6 st4">a</tspan><tspan x="22.94" y="0" class="st6 st4">r</tspan><tspan x="24.67" y="0" class="st6 st4">a</tspan><tspan x="26.83" y="0" class="st6 st4">n</tspan><tspan x="29.43" y="0" class="st6 st4">c</tspan><tspan x="31.59" y="0" class="st6 st4">e</tspan></text>
	<line class="st2" x1="105.26" y1="31.51" x2="199.45" y2="31.51"/>
	<text transform="matrix(1.0023 0 0 1 107.4342 37.5765)"><tspan x="0" y="0" class="st5 st4">+</tspan><tspan x="2.17" y="0" class="st5 st4"> </tspan></text>
	<text transform="matrix(1.0023 0 0 1 114.8092 37.5765)"><tspan x="0" y="0" class="st5 st4">a</tspan><tspan x="2.6" y="0" class="st5 st4">pp</tspan><tspan x="7.79" y="0" class="st5 st4">::</tspan><tspan x="10.39" y="0" class="st5 st4">t</tspan><tspan x="12.12" y="0" class="st5 st4">h</tspan><tspan x="14.72" y="0" class="st5 st4">e</tspan><tspan x="17.31" y="0" class="st5 st4">m</tspan><tspan x="21.21" y="0" class="st5 st4">e</tspan><tspan x="23.8" y="0" class="st5 st4">:</tspan><tspan x="25.1" y="0" class="st5 st4"> </tspan><tspan x="25.97" y="0" class="st5 st4">x</tspan><tspan x="28.13" y="0" class="st5 st4">s</tspan><tspan x="30.29" y="0" class="st5 st4">::</tspan><tspan x="32.89" y="0" class="st5 st4">s</tspan><tspan x="35.05" y="0" class="st5 st4">t</tspan><tspan x="36.78" y="0" class="st5 st4">r</tspan><tspan x="38.52" y="0" class="st5 st4">i</tspan><tspan x="39.81" y="0" class="st5 st4">n</tspan><tspan x="42.41" y="0" class="st5 st4">g</tspan><tspan x="44.58" y="0" class="st5 st4"> </tspan><tspan x="45.44" y="0" class="st5 st4">[</tspan><tspan x="46.75" y="0" class="st5 st4">0</tspan><tspan x="49.34" y="0" class="st5 st4">..</tspan><tspan x="51.94" y="0" class="st5 st4">1</tspan><tspan x="54.54" y="0" class="st5 st4">]</tspan><tspan x="55.84" y="0" class="st5 st4"> =  </tspan><tspan x="60.6" y="0" class="st5 st4">r</tspan><tspan x="62.34" y="0" class="st5 st4">g</tspan><tspan x="64.5" y="0" class="st5 st4">b</tspan><tspan x="67.1" y="0" class="st5 st4">T</tspan><tspan x="69.27" y="0" class="st5 st4">e</tspan><tspan x="71.86" y="0" class="st5 st4">x</tspan><tspan x="74.03" y="0" class="st5 st4">t</tspan><tspan x="75.76" y="0" class="st5 st4">u</tspan><tspan x="78.35" y="0" class="st5 st4">r</tspan><tspan x="80.09" y="0" class="st5 st4">e</tspan></text>
	<polygon class="st0" points="24.09,83.47 110.47,83.47 110.47,53.16 24.09,53.16 24.09,83.47 	"/>
	<polygon class="st1" points="22.79,82.18 109.16,82.18 109.16,51.86 22.79,51.86 22.79,82.18 	"/>
	<polygon class="st2" points="22.79,82.18 109.16,82.18 109.16,51.86 22.79,51.86 22.79,82.18 	"/>
	<text transform="matrix(1.0023 0 0 1 50.567 58.7796)"><tspan x="0" y="0" class="st5 st4">«</tspan><tspan x="2.6" y="0" class="st5 st4">F</tspan><tspan x="4.77" y="0" class="st5 st4">e</tspan><tspan x="7.36" y="0" class="st5 st4">a</tspan><tspan x="9.96" y="0" class="st5 st4">t</tspan><tspan x="11.69" y="0" class="st5 st4">u</tspan><tspan x="14.28" y="0" class="st5 st4">r</tspan><tspan x="16.02" y="0" class="st5 st4">e</tspan><tspan x="18.61" y="0" class="st5 st4">T</tspan><tspan x="20.78" y="0" class="st5 st4">y</tspan><tspan x="22.94" y="0" class="st5 st4">p</tspan><tspan x="25.54" y="0" class="st5 st4">e</tspan><tspan x="28.14" y="0" class="st5 st4">»</tspan></text>
	<text transform="matrix(1.0023 0 0 1 47.0983 64.4203)"><tspan x="0" y="0" class="st7 st4">app</tspan><tspan x="7.79" y="0" class="st7 st4">::</tspan><tspan x="10.39" y="0" class="st7 st4">_</tspan><tspan x="12.55" y="0" class="st7 st4">S</tspan><tspan x="14.72" y="0" class="st7 st4">u</tspan><tspan x="17.32" y="0" class="st7 st4">r</tspan><tspan x="19.05" y="0" class="st7 st4">f</tspan><tspan x="20.35" y="0" class="st7 st4">a</tspan><tspan x="22.95" y="0" class="st7 st4">c</tspan><tspan x="25.11" y="0" class="st7 st4">e</tspan><tspan x="27.28" y="0" class="st7 st4">D</tspan><tspan x="30.3" y="0" class="st7 st4">at</tspan><tspan x="34.63" y="0" class="st7 st4">a</tspan></text>
	<line class="st2" x1="22.79" y1="67.88" x2="108.73" y2="67.88"/>
	<text transform="matrix(1.0023 0 0 1 24.9576 73.9359)"><tspan x="0" y="0" class="st5 st4">+</tspan><tspan x="2.17" y="0" class="st5 st4"> </tspan></text>
	<text transform="matrix(1.0023 0 0 1 32.3404 73.9359)"><tspan x="0" y="0" class="st5 st4">a</tspan><tspan x="2.6" y="0" class="st5 st4">pp</tspan><tspan x="7.79" y="0" class="st5 st4">::</tspan><tspan x="10.39" y="0" class="st5 st4">i</tspan><tspan x="11.69" y="0" class="st5 st4">s</tspan><tspan x="13.85" y="0" class="st5 st4">F</tspan><tspan x="16.02" y="0" class="st5 st4">r</tspan><tspan x="17.75" y="0" class="st5 st4">o</tspan><tspan x="20.35" y="0" class="st5 st4">n</tspan><tspan x="22.95" y="0" class="st5 st4">t</tspan><tspan x="24.68" y="0" class="st5 st4">:</tspan><tspan x="25.98" y="0" class="st5 st4"> </tspan><tspan x="26.84" y="0" class="st5 st4">x</tspan><tspan x="29.01" y="0" class="st5 st4">s</tspan><tspan x="31.17" y="0" class="st5 st4">::</tspan><tspan x="33.77" y="0" class="st5 st4">b</tspan><tspan x="36.37" y="0" class="st5 st4">oo</tspan><tspan x="41.56" y="0" class="st5 st4">l</tspan><tspan x="42.86" y="0" class="st5 st4">e</tspan><tspan x="45.45" y="0" class="st5 st4">a</tspan><tspan x="48.05" y="0" class="st5 st4">n</tspan><tspan x="50.65" y="0" class="st5 st4"> </tspan><tspan x="51.52" y="0" class="st5 st4">[</tspan><tspan x="52.82" y="0" class="st5 st4">0</tspan><tspan x="55.41" y="0" class="st5 st4">..</tspan><tspan x="58.01" y="0" class="st5 st4">1</tspan><tspan x="60.61" y="0" class="st5 st4">]</tspan><tspan x="61.91" y="0" class="st5 st4"> = </tspan><tspan x="65.81" y="0" class="st5 st4">t</tspan><tspan x="67.54" y="0" class="st5 st4">r</tspan><tspan x="69.27" y="0" class="st5 st4">u</tspan><tspan x="71.87" y="0" class="st5 st4">e</tspan></text>
	<polygon class="st0" points="19.75,144.54 115.24,144.54 115.24,96.47 19.75,96.47 19.75,144.54 	"/>
	<polygon class="st1" points="18.45,143.24 113.94,143.24 113.94,95.17 18.45,95.17 18.45,143.24 	"/>
	<polygon class="st2" points="18.45,143.24 113.94,143.24 113.94,95.17 18.45,95.17 18.45,143.24 	"/>
	<text transform="matrix(1.0023 0 0 1 50.567 102.0921)"><tspan x="0" y="0" class="st5 st4">«</tspan><tspan x="2.6" y="0" class="st5 st4">F</tspan><tspan x="4.77" y="0" class="st5 st4">e</tspan><tspan x="7.36" y="0" class="st5 st4">a</tspan><tspan x="9.96" y="0" class="st5 st4">t</tspan><tspan x="11.69" y="0" class="st5 st4">u</tspan><tspan x="14.28" y="0" class="st5 st4">r</tspan><tspan x="16.02" y="0" class="st5 st4">e</tspan><tspan x="18.61" y="0" class="st5 st4">T</tspan><tspan x="20.78" y="0" class="st5 st4">y</tspan><tspan x="22.94" y="0" class="st5 st4">p</tspan><tspan x="25.54" y="0" class="st5 st4">e</tspan><tspan x="28.14" y="0" class="st5 st4">»</tspan></text>
	<text transform="matrix(1.0023 0 0 1 52.3014 107.7328)"><tspan x="0" y="0" class="st7 st4">app</tspan><tspan x="7.79" y="0" class="st7 st4">::</tspan><tspan x="10.39" y="0" class="st7 st4">_</tspan><tspan x="12.55" y="0" class="st7 st4">T</tspan><tspan x="14.72" y="0" class="st7 st4">e</tspan><tspan x="16.89" y="0" class="st7 st4">x</tspan><tspan x="19.06" y="0" class="st7 st4">t</tspan><tspan x="20.79" y="0" class="st7 st4">u</tspan><tspan x="23.39" y="0" class="st7 st4">r</tspan><tspan x="25.12" y="0" class="st7 st4">e</tspan></text>
	<line class="st2" x1="18.45" y1="111.19" x2="113.51" y2="111.19"/>
	<text transform="matrix(1.0023 0 0 1 20.6217 117.2484)"><tspan x="0" y="0" class="st5 st4">+</tspan><tspan x="2.17" y="0" class="st5 st4"> </tspan></text>
	<text transform="matrix(1.0023 0 0 1 27.9967 117.2484)"><tspan x="0" y="0" class="st5 st4">a</tspan><tspan x="2.6" y="0" class="st5 st4">pp</tspan><tspan x="7.79" y="0" class="st5 st4">::</tspan><tspan x="10.39" y="0" class="st5 st4">i</tspan><tspan x="11.69" y="0" class="st5 st4">m</tspan><tspan x="15.58" y="0" class="st5 st4">a</tspan><tspan x="18.18" y="0" class="st5 st4">g</tspan><tspan x="20.35" y="0" class="st5 st4">e</tspan><tspan x="22.94" y="0" class="st5 st4">U</tspan><tspan x="25.97" y="0" class="st5 st4">R</tspan><tspan x="28.57" y="0" class="st5 st4">I</tspan><tspan x="29.86" y="0" class="st5 st4">:</tspan><tspan x="31.16" y="0" class="st5 st4"> </tspan><tspan x="32.03" y="0" class="st5 st4">x</tspan><tspan x="34.19" y="0" class="st5 st4">s</tspan><tspan x="36.36" y="0" class="st5 st4">::</tspan><tspan x="38.95" y="0" class="st5 st4">a</tspan><tspan x="41.55" y="0" class="st5 st4">n</tspan><tspan x="44.15" y="0" class="st5 st4">y</tspan><tspan x="46.31" y="0" class="st5 st4">U</tspan><tspan x="49.35" y="0" class="st5 st4">R</tspan><tspan x="51.95" y="0" class="st5 st4">I</tspan></text>
	<text transform="matrix(1.0023 0 0 1 20.6217 122.889)"><tspan x="0" y="0" class="st5 st4">+</tspan><tspan x="2.17" y="0" class="st5 st4"> </tspan></text>
	<text transform="matrix(1.0023 0 0 1 27.9967 122.889)"><tspan x="0" y="0" class="st5 st4">a</tspan><tspan x="2.6" y="0" class="st5 st4">pp</tspan><tspan x="7.79" y="0" class="st5 st4">::</tspan><tspan x="10.39" y="0" class="st5 st4">m</tspan><tspan x="14.29" y="0" class="st5 st4">i</tspan><tspan x="15.58" y="0" class="st5 st4">m</tspan><tspan x="19.48" y="0" class="st5 st4">e</tspan><tspan x="22.07" y="0" class="st5 st4">T</tspan><tspan x="24.24" y="0" class="st5 st4">y</tspan><tspan x="26.4" y="0" class="st5 st4">p</tspan><tspan x="29.01" y="0" class="st5 st4">e</tspan><tspan x="31.61" y="0" class="st5 st4">:</tspan><tspan x="32.91" y="0" class="st5 st4"> </tspan><tspan x="33.78" y="0" class="st5 st4">g</tspan><tspan x="35.95" y="0" class="st5 st4">m</tspan><tspan x="39.85" y="0" class="st5 st4">l</tspan><tspan x="41.16" y="0" class="st5 st4">::</tspan><tspan x="43.76" y="0" class="st5 st4">C</tspan><tspan x="46.36" y="0" class="st5 st4">o</tspan><tspan x="48.97" y="0" class="st5 st4">d</tspan><tspan x="51.57" y="0" class="st5 st4">e</tspan><tspan x="54.17" y="0" class="st5 st4">T</tspan><tspan x="56.34" y="0" class="st5 st4">y</tspan><tspan x="58.51" y="0" class="st5 st4">p</tspan><tspan x="61.12" y="0" class="st5 st4">e</tspan><tspan x="63.72" y="0" class="st5 st4"> </tspan><tspan x="64.6" y="0" class="st5 st4">[</tspan><tspan x="65.91" y="0" class="st5 st4">0</tspan><tspan x="68.51" y="0" class="st5 st4">..</tspan><tspan x="71.13" y="0" class="st5 st4">1</tspan><tspan x="73.73" y="0" class="st5 st4">]</tspan></text>
	<text transform="matrix(1.0023 0 0 1 20.6217 128.514)"><tspan x="0" y="0" class="st5 st4">+</tspan><tspan x="2.17" y="0" class="st5 st4"> </tspan></text>
	<text transform="matrix(1.0023 0 0 1 27.9967 128.514)"><tspan x="0" y="0" class="st5 st4">a</tspan><tspan x="2.6" y="0" class="st5 st4">pp</tspan><tspan x="7.79" y="0" class="st5 st4">::</tspan><tspan x="10.39" y="0" class="st5 st4">t</tspan><tspan x="12.12" y="0" class="st5 st4">e</tspan><tspan x="14.71" y="0" class="st5 st4">x</tspan><tspan x="16.88" y="0" class="st5 st4">t</tspan><tspan x="18.61" y="0" class="st5 st4">u</tspan><tspan x="21.2" y="0" class="st5 st4">r</tspan><tspan x="22.94" y="0" class="st5 st4">e</tspan><tspan x="25.53" y="0" class="st5 st4">T</tspan><tspan x="27.7" y="0" class="st5 st4">y</tspan><tspan x="29.86" y="0" class="st5 st4">p</tspan><tspan x="32.46" y="0" class="st5 st4">e</tspan><tspan x="35.06" y="0" class="st5 st4">:</tspan><tspan x="36.36" y="0" class="st5 st4"> </tspan><tspan x="37.24" y="0" class="st5 st4">T</tspan><tspan x="39.41" y="0" class="st5 st4">e</tspan><tspan x="42.01" y="0" class="st5 st4">x</tspan><tspan x="44.18" y="0" class="st5 st4">t</tspan><tspan x="45.91" y="0" class="st5 st4">u</tspan><tspan x="48.51" y="0" class="st5 st4">r</tspan><tspan x="50.25" y="0" class="st5 st4">e</tspan><tspan x="52.85" y="0" class="st5 st4">T</tspan><tspan x="55.02" y="0" class="st5 st4">y</tspan><tspan x="57.19" y="0" class="st5 st4">p</tspan><tspan x="59.8" y="0" class="st5 st4">e</tspan><tspan x="62.4" y="0" class="st5 st4">T</tspan><tspan x="64.58" y="0" class="st5 st4">y</tspan><tspan x="66.75" y="0" class="st5 st4">p</tspan><tspan x="69.36" y="0" class="st5 st4">e</tspan><tspan x="71.97" y="0" class="st5 st4"> </tspan><tspan x="72.85" y="0" class="st5 st4">[</tspan><tspan x="74.17" y="0" class="st5 st4">0</tspan><tspan x="76.78" y="0" class="st5 st4">..</tspan><tspan x="79.4" y="0" class="st5 st4">1</tspan><tspan x="82.01" y="0" class="st5 st4">]</tspan></text>
	<text transform="matrix(1.0023 0 0 1 20.6217 134.139)"><tspan x="0" y="0" class="st5 st4">+</tspan><tspan x="2.17" y="0" class="st5 st4"> </tspan></text>
	<text transform="matrix(1.0023 0 0 1 27.9967 134.139)"><tspan x="0" y="0" class="st5 st4">a</tspan><tspan x="2.6" y="0" class="st5 st4">pp</tspan><tspan x="7.79" y="0" class="st5 st4">::</tspan><tspan x="10.39" y="0" class="st5 st4">w</tspan><tspan x="13.85" y="0" class="st5 st4">r</tspan><tspan x="15.58" y="0" class="st5 st4">a</tspan><tspan x="18.18" y="0" class="st5 st4">p</tspan><tspan x="20.78" y="0" class="st5 st4">M</tspan><tspan x="24.68" y="0" class="st5 st4">o</tspan><tspan x="27.28" y="0" class="st5 st4">d</tspan><tspan x="29.88" y="0" class="st5 st4">e</tspan><tspan x="32.47" y="0" class="st5 st4">:</tspan><tspan x="33.77" y="0" class="st5 st4"> </tspan><tspan x="34.64" y="0" class="st5 st4">W</tspan><tspan x="38.96" y="0" class="st5 st4">r</tspan><tspan x="40.7" y="0" class="st5 st4">a</tspan><tspan x="43.29" y="0" class="st5 st4">p</tspan><tspan x="45.89" y="0" class="st5 st4">M</tspan><tspan x="49.79" y="0" class="st5 st4">o</tspan><tspan x="52.39" y="0" class="st5 st4">d</tspan><tspan x="54.99" y="0" class="st5 st4">e</tspan><tspan x="57.58" y="0" class="st5 st4">T</tspan><tspan x="59.75" y="0" class="st5 st4">y</tspan><tspan x="61.91" y="0" class="st5 st4">p</tspan><tspan x="64.52" y="0" class="st5 st4">e</tspan><tspan x="67.11" y="0" class="st5 st4"> </tspan><tspan x="67.99" y="0" class="st5 st4">[</tspan><tspan x="69.3" y="0" class="st5 st4">0</tspan><tspan x="71.9" y="0" class="st5 st4">..</tspan><tspan x="74.5" y="0" class="st5 st4">1</tspan><tspan x="77.1" y="0" class="st5 st4">]</tspan></text>
	<text transform="matrix(1.0023 0 0 1 20.6217 139.7796)"><tspan x="0" y="0" class="st5 st4">+</tspan><tspan x="2.17" y="0" class="st5 st4"> </tspan></text>
	<text transform="matrix(1.0023 0 0 1 27.9967 139.7796)"><tspan x="0" y="0" class="st5 st4">a</tspan><tspan x="2.6" y="0" class="st5 st4">pp</tspan><tspan x="7.79" y="0" class="st5 st4">::</tspan><tspan x="10.39" y="0" class="st5 st4">b</tspan><tspan x="12.99" y="0" class="st5 st4">o</tspan><tspan x="15.59" y="0" class="st5 st4">r</tspan><tspan x="17.32" y="0" class="st5 st4">d</tspan><tspan x="19.92" y="0" class="st5 st4">e</tspan><tspan x="22.51" y="0" class="st5 st4">r</tspan><tspan x="24.24" y="0" class="st5 st4">C</tspan><tspan x="26.84" y="0" class="st5 st4">o</tspan><tspan x="29.44" y="0" class="st5 st4">l</tspan><tspan x="30.74" y="0" class="st5 st4">o</tspan><tspan x="33.33" y="0" class="st5 st4">r</tspan><tspan x="35.07" y="0" class="st5 st4">:</tspan><tspan x="36.36" y="0" class="st5 st4"> </tspan><tspan x="37.23" y="0" class="st5 st4">C</tspan><tspan x="39.83" y="0" class="st5 st4">o</tspan><tspan x="42.43" y="0" class="st5 st4">l</tspan><tspan x="43.72" y="0" class="st5 st4">o</tspan><tspan x="46.32" y="0" class="st5 st4">r</tspan><tspan x="48.05" y="0" class="st5 st4">P</tspan><tspan x="50.65" y="0" class="st5 st4">l</tspan><tspan x="51.95" y="0" class="st5 st4">u</tspan><tspan x="54.55" y="0" class="st5 st4">s</tspan><tspan x="56.71" y="0" class="st5 st4">O</tspan><tspan x="59.74" y="0" class="st5 st4">p</tspan><tspan x="62.34" y="0" class="st5 st4">a</tspan><tspan x="64.94" y="0" class="st5 st4">c</tspan><tspan x="67.1" y="0" class="st5 st4">i</tspan><tspan x="68.4" y="0" class="st5 st4">t</tspan><tspan x="70.13" y="0" class="st5 st4">y</tspan><tspan x="72.29" y="0" class="st5 st4"> </tspan><tspan x="73.16" y="0" class="st5 st4">[</tspan><tspan x="74.47" y="0" class="st5 st4">0</tspan><tspan x="77.07" y="0" class="st5 st4">..</tspan><tspan x="79.67" y="0" class="st5 st4">1</tspan><tspan x="82.27" y="0" class="st5 st4">]</tspan></text>
	<polygon class="st0" points="28.43,174.42 106.56,174.42 106.56,157.1 28.43,157.1 28.43,174.42 	"/>
	<polygon class="st1" points="27.13,173.12 105.26,173.12 105.26,155.8 27.13,155.8 27.13,173.12 	"/>
	<polygon class="st2" points="27.13,173.12 105.26,173.12 105.26,155.8 27.13,155.8 27.13,173.12 	"/>
	<text transform="matrix(1.0023 0 0 1 50.567 162.7328)"><tspan x="0" y="0" class="st5 st4">«</tspan><tspan x="2.6" y="0" class="st5 st4">F</tspan><tspan x="4.77" y="0" class="st5 st4">e</tspan><tspan x="7.36" y="0" class="st5 st4">a</tspan><tspan x="9.96" y="0" class="st5 st4">t</tspan><tspan x="11.69" y="0" class="st5 st4">u</tspan><tspan x="14.28" y="0" class="st5 st4">r</tspan><tspan x="16.02" y="0" class="st5 st4">e</tspan><tspan x="18.61" y="0" class="st5 st4">T</tspan><tspan x="20.78" y="0" class="st5 st4">y</tspan><tspan x="22.94" y="0" class="st5 st4">p</tspan><tspan x="25.54" y="0" class="st5 st4">e</tspan><tspan x="28.14" y="0" class="st5 st4">»</tspan></text>
	<text transform="matrix(1.0023 0 0 1 38.4108 168.3578)"><tspan x="0" y="0" class="st6 st4">a</tspan><tspan x="2.17" y="0" class="st6 st4">pp</tspan><tspan x="7.35" y="0" class="st6 st4">::</tspan><tspan x="9.95" y="0" class="st6 st4">P</tspan><tspan x="12.55" y="0" class="st6 st4">a</tspan><tspan x="14.72" y="0" class="st6 st4">r</tspan><tspan x="16.45" y="0" class="st6 st4">a</tspan><tspan x="18.61" y="0" class="st6 st4">m</tspan><tspan x="22.51" y="0" class="st6 st4">e</tspan><tspan x="25.11" y="0" class="st6 st4">t</tspan><tspan x="26.84" y="0" class="st6 st4">e</tspan><tspan x="29.43" y="0" class="st6 st4">r</tspan><tspan x="31.17" y="0" class="st6 st4">i</tspan><tspan x="32.46" y="0" class="st6 st4">z</tspan><tspan x="34.2" y="0" class="st6 st4">e</tspan><tspan x="36.8" y="0" class="st6 st4">d</tspan><tspan x="39.39" y="0" class="st6 st4">T</tspan><tspan x="41.56" y="0" class="st6 st4">e</tspan><tspan x="44.16" y="0" class="st6 st4">x</tspan><tspan x="46.33" y="0" class="st6 st4">t</tspan><tspan x="48.06" y="0" class="st6 st4">ur</tspan><tspan x="52.38" y="0" class="st6 st4">e</tspan></text>
	<polygon class="st0" points="32.77,218.16 115.24,218.16 115.24,196.07 32.77,196.07 32.77,218.16 	"/>
	<polygon class="st1" points="31.47,216.86 113.94,216.86 113.94,194.77 31.47,194.77 31.47,216.86 	"/>
	<polygon class="st2" points="31.47,216.86 113.94,216.86 113.94,194.77 31.47,194.77 31.47,216.86 	"/>
	<text transform="matrix(1.0023 0 0 1 65.3248 201.7015)"><tspan x="0" y="0" class="st5 st4">«</tspan><tspan x="2.6" y="0" class="st5 st4">T</tspan><tspan x="4.77" y="0" class="st5 st4">y</tspan><tspan x="6.93" y="0" class="st5 st4">p</tspan><tspan x="9.53" y="0" class="st5 st4">e</tspan><tspan x="12.13" y="0" class="st5 st4">»</tspan></text>
	<text transform="matrix(1.0023 0 0 1 41.4576 207.3421)"><tspan x="0" y="0" class="st7 st4">app</tspan><tspan x="7.79" y="0" class="st7 st4">::</tspan><tspan x="10.39" y="0" class="st7 st4">_</tspan><tspan x="12.55" y="0" class="st7 st4">T</tspan><tspan x="14.72" y="0" class="st7 st4">e</tspan><tspan x="16.89" y="0" class="st7 st4">x</tspan><tspan x="19.06" y="0" class="st7 st4">t</tspan><tspan x="20.79" y="0" class="st7 st4">u</tspan><tspan x="23.39" y="0" class="st7 st4">r</tspan><tspan x="25.12" y="0" class="st7 st4">e</tspan><tspan x="27.28" y="0" class="st7 st4">P</tspan><tspan x="29.88" y="0" class="st7 st4">a</tspan><tspan x="32.48" y="0" class="st7 st4">r</tspan><tspan x="34.21" y="0" class="st7 st4">a</tspan><tspan x="36.8" y="0" class="st7 st4">m</tspan><tspan x="40.7" y="0" class="st7 st4">e</tspan><tspan x="42.87" y="0" class="st7 st4">t</tspan><tspan x="44.59" y="0" class="st7 st4">e</tspan><tspan x="46.76" y="0" class="st7 st4">r</tspan><tspan x="48.49" y="0" class="st7 st4">i</tspan><tspan x="49.79" y="0" class="st7 st4">z</tspan><tspan x="51.53" y="0" class="st7 st4">a</tspan><tspan x="54.12" y="0" class="st7 st4">ti</tspan><tspan x="57.04" y="0" class="st7 st4">o</tspan><tspan x="59.64" y="0" class="st7 st4">n</tspan></text>
	<polygon class="st0" points="11.07,265.36 138.25,265.36 138.25,235.05 11.07,235.05 11.07,265.36 	"/>
	<polygon class="st1" points="9.77,264.07 136.94,264.07 136.94,233.75 9.77,233.75 9.77,264.07 	"/>
	<polygon class="st2" points="9.77,264.07 136.94,264.07 136.94,233.75 9.77,233.75 9.77,264.07 	"/>
	<text transform="matrix(1.0023 0 0 1 65.7623 240.6781)"><tspan x="0" y="0" class="st5 st4">«</tspan><tspan x="2.6" y="0" class="st5 st4">T</tspan><tspan x="4.77" y="0" class="st5 st4">y</tspan><tspan x="6.93" y="0" class="st5 st4">p</tspan><tspan x="9.53" y="0" class="st5 st4">e</tspan><tspan x="12.13" y="0" class="st5 st4">»</tspan></text>
	<text transform="matrix(1.0023 0 0 1 55.3404 246.3031)"><tspan x="0" y="0" class="st6 st4">a</tspan><tspan x="2.17" y="0" class="st6 st4">pp</tspan><tspan x="7.35" y="0" class="st6 st4">::</tspan><tspan x="9.95" y="0" class="st6 st4">T</tspan><tspan x="12.12" y="0" class="st6 st4">e</tspan><tspan x="14.72" y="0" class="st6 st4">x</tspan><tspan x="16.89" y="0" class="st6 st4">C</tspan><tspan x="19.49" y="0" class="st6 st4">oord</tspan><tspan x="28.99" y="0" class="st6 st4">L</tspan><tspan x="31.16" y="0" class="st6 st4">i</tspan><tspan x="32.45" y="0" class="st6 st4">s</tspan><tspan x="34.19" y="0" class="st6 st4">t</tspan></text>
	<line class="st2" x1="9.77" y1="249.77" x2="136.51" y2="249.77"/>
	<text transform="matrix(1.0023 0 0 1 11.942 255.8343)"><tspan x="0" y="0" class="st5 st4">+</tspan><tspan x="2.17" y="0" class="st5 st4"> </tspan></text>
	<text transform="matrix(1.0023 0 0 1 19.317 255.8343)"><tspan x="0" y="0" class="st5 st4">a</tspan><tspan x="2.6" y="0" class="st5 st4">pp</tspan><tspan x="7.79" y="0" class="st5 st4">::</tspan><tspan x="10.39" y="0" class="st5 st4">t</tspan><tspan x="12.12" y="0" class="st5 st4">e</tspan><tspan x="14.71" y="0" class="st5 st4">x</tspan><tspan x="16.88" y="0" class="st5 st4">t</tspan><tspan x="18.61" y="0" class="st5 st4">u</tspan><tspan x="21.2" y="0" class="st5 st4">r</tspan><tspan x="22.94" y="0" class="st5 st4">e</tspan><tspan x="25.53" y="0" class="st5 st4">C</tspan><tspan x="28.13" y="0" class="st5 st4">oo</tspan><tspan x="33.32" y="0" class="st5 st4">r</tspan><tspan x="35.05" y="0" class="st5 st4">d</tspan><tspan x="37.65" y="0" class="st5 st4">i</tspan><tspan x="38.95" y="0" class="st5 st4">n</tspan><tspan x="41.55" y="0" class="st5 st4">a</tspan><tspan x="44.15" y="0" class="st5 st4">t</tspan><tspan x="45.87" y="0" class="st5 st4">e</tspan><tspan x="48.47" y="0" class="st5 st4">s</tspan><tspan x="50.63" y="0" class="st5 st4">:</tspan><tspan x="51.93" y="0" class="st5 st4"> </tspan><tspan x="52.8" y="0" class="st5 st4">g</tspan><tspan x="54.96" y="0" class="st5 st4">m</tspan><tspan x="58.86" y="0" class="st5 st4">l</tspan><tspan x="60.16" y="0" class="st5 st4">::</tspan><tspan x="62.75" y="0" class="st5 st4">d</tspan><tspan x="65.35" y="0" class="st5 st4">o</tspan><tspan x="67.95" y="0" class="st5 st4">ub</tspan><tspan x="73.15" y="0" class="st5 st4">l</tspan><tspan x="74.45" y="0" class="st5 st4">e</tspan><tspan x="77.04" y="0" class="st5 st4">L</tspan><tspan x="79.2" y="0" class="st5 st4">i</tspan><tspan x="80.5" y="0" class="st5 st4">s</tspan><tspan x="82.67" y="0" class="st5 st4">t</tspan><tspan x="84.39" y="0" class="st5 st4"> </tspan><tspan x="85.26" y="0" class="st5 st4">[</tspan><tspan x="86.57" y="0" class="st5 st4">1</tspan><tspan x="89.16" y="0" class="st5 st4">..</tspan><tspan x="91.76" y="0" class="st5 st4">*</tspan><tspan x="93.92" y="0" class="st5 st4">]</tspan><tspan x="95.23" y="0" class="st5 st4"> </tspan><tspan x="96.1" y="0" class="st5 st4">{</tspan><tspan x="97.4" y="0" class="st5 st4">o</tspan><tspan x="100" y="0" class="st5 st4">r</tspan><tspan x="101.73" y="0" class="st5 st4">d</tspan><tspan x="104.33" y="0" class="st5 st4">e</tspan><tspan x="106.92" y="0" class="st5 st4">r</tspan><tspan x="108.65" y="0" class="st5 st4">e</tspan><tspan x="111.25" y="0" class="st5 st4">d</tspan><tspan x="113.84" y="0" class="st5 st4">}</tspan></text>
	<text transform="matrix(1.0023 0 0 1 11.942 261.4594)"><tspan x="0" y="0" class="st5 st4">+</tspan><tspan x="2.17" y="0" class="st5 st4"> </tspan></text>
	<text transform="matrix(1.0023 0 0 1 19.317 261.4594)"><tspan x="0" y="0" class="st5 st4">a</tspan><tspan x="2.6" y="0" class="st5 st4">pp</tspan><tspan x="7.79" y="0" class="st5 st4">::</tspan><tspan x="10.39" y="0" class="st5 st4">r</tspan><tspan x="12.12" y="0" class="st5 st4">i</tspan><tspan x="13.42" y="0" class="st5 st4">n</tspan><tspan x="16.02" y="0" class="st5 st4">g</tspan><tspan x="18.18" y="0" class="st5 st4">:</tspan><tspan x="19.48" y="0" class="st5 st4"> </tspan><tspan x="20.35" y="0" class="st5 st4">x</tspan><tspan x="22.51" y="0" class="st5 st4">s</tspan><tspan x="24.68" y="0" class="st5 st4">::</tspan><tspan x="27.27" y="0" class="st5 st4">a</tspan><tspan x="29.87" y="0" class="st5 st4">n</tspan><tspan x="32.47" y="0" class="st5 st4">y</tspan><tspan x="34.63" y="0" class="st5 st4">U</tspan><tspan x="37.67" y="0" class="st5 st4">R</tspan><tspan x="40.27" y="0" class="st5 st4">I</tspan><tspan x="41.57" y="0" class="st5 st4"> </tspan><tspan x="42.44" y="0" class="st5 st4">[</tspan><tspan x="43.75" y="0" class="st5 st4">1</tspan><tspan x="46.35" y="0" class="st5 st4">..</tspan><tspan x="48.95" y="0" class="st5 st4">*</tspan><tspan x="51.13" y="0" class="st5 st4">]</tspan><tspan x="52.43" y="0" class="st5 st4"> </tspan><tspan x="53.31" y="0" class="st5 st4">{</tspan><tspan x="54.61" y="0" class="st5 st4">o</tspan><tspan x="57.22" y="0" class="st5 st4">r</tspan><tspan x="58.95" y="0" class="st5 st4">d</tspan><tspan x="61.56" y="0" class="st5 st4">e</tspan><tspan x="64.15" y="0" class="st5 st4">r</tspan><tspan x="65.89" y="0" class="st5 st4">e</tspan><tspan x="68.49" y="0" class="st5 st4">d</tspan><tspan x="71.09" y="0" class="st5 st4">}</tspan></text>
	<polygon class="st0" points="128.26,200.4 179.48,200.4 179.48,165.76 128.26,165.76 128.26,200.4 	"/>
	<polygon class="st1" points="126.96,199.1 178.18,199.1 178.18,164.46 126.96,164.46 126.96,199.1 	"/>
	<polygon class="st2" points="126.96,199.1 178.18,199.1 178.18,164.46 126.96,164.46 126.96,199.1 	"/>
	<text transform="matrix(1.0023 0 0 1 133.0358 172.6859)"><tspan x="0" y="0" class="st6 st4">T</tspan><tspan x="2.17" y="0" class="st6 st4">e</tspan><tspan x="4.77" y="0" class="st6 st4">x</tspan><tspan x="6.94" y="0" class="st6 st4">t</tspan><tspan x="8.66" y="0" class="st6 st4">ur</tspan><tspan x="12.99" y="0" class="st6 st4">e</tspan><tspan x="15.59" y="0" class="st6 st4">A</tspan><tspan x="18.62" y="0" class="st6 st4">ss</tspan><tspan x="22.09" y="0" class="st6 st4">o</tspan><tspan x="24.68" y="0" class="st6 st4">c</tspan><tspan x="26.84" y="0" class="st6 st4">i</tspan><tspan x="28.14" y="0" class="st6 st4">a</tspan><tspan x="30.31" y="0" class="st6 st4">ti</tspan><tspan x="33.23" y="0" class="st6 st4">o</tspan><tspan x="35.82" y="0" class="st6 st4">n</tspan></text>
	<line class="st2" x1="126.96" y1="176.15" x2="177.75" y2="176.15"/>
	<text transform="matrix(1.0023 0 0 1 129.1295 182.2093)"><tspan x="0" y="0" class="st5 st4">+</tspan><tspan x="2.17" y="0" class="st5 st4"> </tspan></text>
	<text transform="matrix(1.0023 0 0 1 136.5045 182.2093)"><tspan x="0" y="0" class="st5 st4">a</tspan><tspan x="2.6" y="0" class="st5 st4">pp</tspan><tspan x="7.79" y="0" class="st5 st4">::</tspan><tspan x="10.39" y="0" class="st5 st4">u</tspan><tspan x="12.99" y="0" class="st5 st4">r</tspan><tspan x="14.72" y="0" class="st5 st4">i</tspan><tspan x="16.02" y="0" class="st5 st4">:</tspan><tspan x="17.32" y="0" class="st5 st4"> </tspan><tspan x="18.18" y="0" class="st5 st4">x</tspan><tspan x="20.35" y="0" class="st5 st4">s</tspan><tspan x="22.51" y="0" class="st5 st4">::</tspan><tspan x="25.11" y="0" class="st5 st4">a</tspan><tspan x="27.7" y="0" class="st5 st4">n</tspan><tspan x="30.3" y="0" class="st5 st4">y</tspan><tspan x="32.46" y="0" class="st5 st4">U</tspan><tspan x="35.5" y="0" class="st5 st4">R</tspan><tspan x="38.1" y="0" class="st5 st4">I</tspan></text>
	<polygon class="st0" points="254.14,44.5 297.54,44.5 297.54,9.85 254.14,9.85 254.14,44.5 	"/>
	<polygon class="st1" points="252.84,43.2 296.24,43.2 296.24,8.55 252.84,8.55 252.84,43.2 	"/>
	<polygon class="st2" points="252.84,43.2 296.24,43.2 296.24,8.55 252.84,8.55 252.84,43.2 	"/>
	<text transform="matrix(1.0023 0 0 1 256.7389 14.1859)"><tspan x="0" y="0" class="st3 st4">_</tspan><tspan x="2.17" y="0" class="st3 st4">F</tspan><tspan x="4.34" y="0" class="st3 st4">e</tspan><tspan x="6.51" y="0" class="st3 st4">a</tspan><tspan x="9.1" y="0" class="st3 st4">t</tspan><tspan x="10.83" y="0" class="st3 st4">u</tspan><tspan x="13.43" y="0" class="st3 st4">r</tspan><tspan x="15.16" y="0" class="st3 st4">e</tspan><tspan x="17.33" y="0" class="st3 st4">C</tspan><tspan x="19.92" y="0" class="st3 st4">o</tspan><tspan x="22.52" y="0" class="st3 st4">ll</tspan><tspan x="25.12" y="0" class="st3 st4">e</tspan><tspan x="27.29" y="0" class="st3 st4">c</tspan><tspan x="29.45" y="0" class="st3 st4">ti</tspan><tspan x="32.31" y="0" class="st3 st4">o</tspan><tspan x="34.91" y="0" class="st3 st4">n</tspan></text>
	<text transform="matrix(1.0023 0 0 1 258.9186 22.4203)"><tspan x="0" y="0" class="st5 st4">«</tspan><tspan x="2.6" y="0" class="st5 st4">F</tspan><tspan x="4.77" y="0" class="st5 st4">e</tspan><tspan x="7.36" y="0" class="st5 st4">a</tspan><tspan x="9.96" y="0" class="st5 st4">t</tspan><tspan x="11.69" y="0" class="st5 st4">u</tspan><tspan x="14.28" y="0" class="st5 st4">r</tspan><tspan x="16.02" y="0" class="st5 st4">e</tspan><tspan x="18.61" y="0" class="st5 st4">T</tspan><tspan x="20.78" y="0" class="st5 st4">y</tspan><tspan x="22.94" y="0" class="st5 st4">p</tspan><tspan x="25.54" y="0" class="st5 st4">e</tspan><tspan x="28.14" y="0" class="st5 st4">»</tspan></text>
	<text transform="matrix(1.0023 0 0 1 258.0436 28.0453)"><tspan x="0" y="0" class="st6 st4">c</tspan><tspan x="2.17" y="0" class="st6 st4">or</tspan><tspan x="6.49" y="0" class="st6 st4">e</tspan><tspan x="9.08" y="0" class="st6 st4">::</tspan><tspan x="11.68" y="0" class="st6 st4">C</tspan><tspan x="14.28" y="0" class="st6 st4">i</tspan><tspan x="15.58" y="0" class="st6 st4">t</tspan><tspan x="17.31" y="0" class="st6 st4">y</tspan><tspan x="19.47" y="0" class="st6 st4">M</tspan><tspan x="23.8" y="0" class="st6 st4">od</tspan><tspan x="28.99" y="0" class="st6 st4">e</tspan><tspan x="31.59" y="0" class="st6 st4">l</tspan></text>
	<polygon class="st0" points="219.41,239.81 284.52,239.81 284.52,217.73 219.41,217.73 219.41,239.81 	"/>
	<polygon class="st1" points="218.11,238.51 283.22,238.51 283.22,216.43 218.11,216.43 218.11,238.51 	"/>
	<polygon class="st2" points="218.11,238.51 283.22,238.51 283.22,216.43 218.11,216.43 218.11,238.51 	"/>
	<text transform="matrix(1.0023 0 0 1 233.7389 223.3578)"><tspan x="0" y="0" class="st5 st4">«</tspan><tspan x="2.6" y="0" class="st5 st4">P</tspan><tspan x="5.19" y="0" class="st5 st4">r</tspan><tspan x="6.92" y="0" class="st5 st4">i</tspan><tspan x="8.22" y="0" class="st5 st4">m</tspan><tspan x="12.12" y="0" class="st5 st4">iti</tspan><tspan x="16.27" y="0" class="st5 st4">v</tspan><tspan x="18.44" y="0" class="st5 st4">e</tspan><tspan x="21.03" y="0" class="st5 st4">T</tspan><tspan x="23.2" y="0" class="st5 st4">y</tspan><tspan x="25.36" y="0" class="st5 st4">p</tspan><tspan x="27.96" y="0" class="st5 st4">e</tspan><tspan x="30.56" y="0" class="st5 st4">»</tspan></text>
	<text transform="matrix(1.0023 0 0 1 228.528 228.9828)"><tspan x="0" y="0" class="st6 st4">a</tspan><tspan x="2.17" y="0" class="st6 st4">pp</tspan><tspan x="7.35" y="0" class="st6 st4">::</tspan><tspan x="9.95" y="0" class="st6 st4">C</tspan><tspan x="12.55" y="0" class="st6 st4">o</tspan><tspan x="15.15" y="0" class="st6 st4">l</tspan><tspan x="16.45" y="0" class="st6 st4">or</tspan><tspan x="20.77" y="0" class="st6 st4">P</tspan><tspan x="23.36" y="0" class="st6 st4">l</tspan><tspan x="24.66" y="0" class="st6 st4">u</tspan><tspan x="27.26" y="0" class="st6 st4">s</tspan><tspan x="28.99" y="0" class="st6 st4">O</tspan><tspan x="32.03" y="0" class="st6 st4">p</tspan><tspan x="34.62" y="0" class="st6 st4">a</tspan><tspan x="36.79" y="0" class="st6 st4">c</tspan><tspan x="38.95" y="0" class="st6 st4">i</tspan><tspan x="40.25" y="0" class="st6 st4">t</tspan><tspan x="41.98" y="0" class="st6 st4">y</tspan></text>
	<polygon class="st0" points="228.1,200.4 276.71,200.4 276.71,179.18 228.1,179.18 228.1,200.4 	"/>
	<polygon class="st1" points="226.79,199.1 275.41,199.1 275.41,177.88 226.79,177.88 226.79,199.1 	"/>
	<polygon class="st2" points="226.79,199.1 275.41,199.1 275.41,177.88 226.79,177.88 226.79,199.1 	"/>
	<text transform="matrix(1.0023 0 0 1 234.1764 184.8187)"><tspan x="0" y="0" class="st5 st4">«</tspan><tspan x="2.6" y="0" class="st5 st4">P</tspan><tspan x="5.19" y="0" class="st5 st4">r</tspan><tspan x="6.92" y="0" class="st5 st4">i</tspan><tspan x="8.22" y="0" class="st5 st4">m</tspan><tspan x="12.12" y="0" class="st5 st4">iti</tspan><tspan x="16.27" y="0" class="st5 st4">v</tspan><tspan x="18.44" y="0" class="st5 st4">e</tspan><tspan x="21.03" y="0" class="st5 st4">T</tspan><tspan x="23.2" y="0" class="st5 st4">y</tspan><tspan x="25.36" y="0" class="st5 st4">p</tspan><tspan x="27.96" y="0" class="st5 st4">e</tspan><tspan x="30.56" y="0" class="st5 st4">»</tspan></text>
	<text transform="matrix(1.0023 0 0 1 245.0201 190.4437)"><tspan x="0" y="0" class="st6 st4">c</tspan><tspan x="2.17" y="0" class="st6 st4">or</tspan><tspan x="6.49" y="0" class="st6 st4">e</tspan><tspan x="9.08" y="0" class="st6 st4">:</tspan><tspan x="10.38" y="0" class="st6 st4">:</tspan></text>
	<text transform="matrix(1.0023 0 0 1 228.528 196.0687)"><tspan x="0" y="0" class="st6 st4">doub</tspan><tspan x="10.38" y="0" class="st6 st4">l</tspan><tspan x="11.68" y="0" class="st6 st4">e</tspan><tspan x="14.28" y="0" class="st6 st4">B</tspan><tspan x="16.88" y="0" class="st6 st4">e</tspan><tspan x="19.48" y="0" class="st6 st4">t</tspan><tspan x="21.2" y="0" class="st6 st4">w</tspan><tspan x="24.67" y="0" class="st6 st4">ee</tspan><tspan x="29.87" y="0" class="st6 st4">n</tspan><tspan x="32.46" y="0" class="st6 st4">0</tspan><tspan x="35.06" y="0" class="st6 st4">a</tspan><tspan x="37.22" y="0" class="st6 st4">nd</tspan><tspan x="42.41" y="0" class="st6 st4">1</tspan></text>
	<polygon class="st0" points="258.48,100.8 327.93,100.8 327.93,57.92 258.48,57.92 258.48,100.8 	"/>
	<polygon class="st1" points="257.18,99.5 326.63,99.5 326.63,56.62 257.18,56.62 257.18,99.5 	"/>
	<polygon class="st2" points="257.18,99.5 326.63,99.5 326.63,56.62 257.18,56.62 257.18,99.5 	"/>
	<text transform="matrix(1.0023 0 0 1 275.8483 63.5453)"><tspan x="0" y="0" class="st5 st4">«</tspan><tspan x="2.6" y="0" class="st5 st4">e</tspan><tspan x="5.19" y="0" class="st5 st4">num</tspan><tspan x="14.29" y="0" class="st5 st4">e</tspan><tspan x="16.88" y="0" class="st5 st4">r</tspan><tspan x="18.61" y="0" class="st5 st4">a</tspan><tspan x="21.21" y="0" class="st5 st4">ti</tspan><tspan x="24.07" y="0" class="st5 st4">o</tspan><tspan x="26.67" y="0" class="st5 st4">n</tspan><tspan x="29.27" y="0" class="st5 st4">»</tspan></text>
	<text transform="matrix(1.0023 0 0 1 269.3326 69.1859)"><tspan x="0" y="0" class="st6 st4">a</tspan><tspan x="2.17" y="0" class="st6 st4">pp</tspan><tspan x="7.35" y="0" class="st6 st4">::</tspan><tspan x="9.95" y="0" class="st6 st4">T</tspan><tspan x="12.12" y="0" class="st6 st4">e</tspan><tspan x="14.72" y="0" class="st6 st4">x</tspan><tspan x="16.89" y="0" class="st6 st4">t</tspan><tspan x="18.62" y="0" class="st6 st4">ur</tspan><tspan x="22.94" y="0" class="st6 st4">e</tspan><tspan x="25.54" y="0" class="st6 st4">T</tspan><tspan x="27.71" y="0" class="st6 st4">y</tspan><tspan x="29.88" y="0" class="st6 st4">p</tspan><tspan x="32.47" y="0" class="st6 st4">e</tspan><tspan x="35.07" y="0" class="st6 st4">T</tspan><tspan x="37.24" y="0" class="st6 st4">y</tspan><tspan x="39.4" y="0" class="st6 st4">p</tspan><tspan x="42" y="0" class="st6 st4">e</tspan></text>
	<line class="st2" x1="257.18" y1="72.65" x2="326.19" y2="72.65"/>
	<text transform="matrix(1.0023 0 0 1 259.3483 78.7015)" class="st5 st4"> </text>
	<text transform="matrix(1.0023 0 0 1 266.7311 78.7015)"><tspan x="0" y="0" class="st5 st4">s</tspan><tspan x="2.16" y="0" class="st5 st4">p</tspan><tspan x="4.76" y="0" class="st5 st4">e</tspan><tspan x="7.36" y="0" class="st5 st4">c</tspan><tspan x="9.52" y="0" class="st5 st4">ifi</tspan><tspan x="13.54" y="0" class="st5 st4">c</tspan></text>
	<text transform="matrix(1.0023 0 0 1 259.3483 84.3421)" class="st5 st4"> </text>
	<text transform="matrix(1.0023 0 0 1 266.7311 84.3421)"><tspan x="0" y="0" class="st5 st4">t</tspan><tspan x="1.73" y="0" class="st5 st4">y</tspan><tspan x="3.89" y="0" class="st5 st4">p</tspan><tspan x="6.49" y="0" class="st5 st4">i</tspan><tspan x="7.8" y="0" class="st5 st4">c</tspan><tspan x="9.96" y="0" class="st5 st4">a</tspan><tspan x="12.56" y="0" class="st5 st4">l</tspan></text>
	<text transform="matrix(1.0023 0 0 1 259.3483 89.975)" class="st5 st4"> </text>
	<text transform="matrix(1.0023 0 0 1 266.7311 89.975)"><tspan x="0" y="0" class="st5 st4">un</tspan><tspan x="5.2" y="0" class="st5 st4">k</tspan><tspan x="7.36" y="0" class="st5 st4">n</tspan><tspan x="9.96" y="0" class="st5 st4">o</tspan><tspan x="12.56" y="0" class="st5 st4">w</tspan><tspan x="16.02" y="0" class="st5 st4">n</tspan></text>
	<polygon class="st0" points="262.82,163.16 327.93,163.16 327.93,109.46 262.82,109.46 262.82,163.16 	"/>
	<polygon class="st1" points="261.52,161.86 326.63,161.86 326.63,108.16 261.52,108.16 261.52,161.86 	"/>
	<polygon class="st2" points="261.52,161.86 326.63,161.86 326.63,108.16 261.52,108.16 261.52,161.86 	"/>
	<text transform="matrix(1.0023 0 0 1 278.0123 115.0921)"><tspan x="0" y="0" class="st5 st4">«</tspan><tspan x="2.6" y="0" class="st5 st4">e</tspan><tspan x="5.19" y="0" class="st5 st4">num</tspan><tspan x="14.29" y="0" class="st5 st4">e</tspan><tspan x="16.88" y="0" class="st5 st4">r</tspan><tspan x="18.61" y="0" class="st5 st4">a</tspan><tspan x="21.21" y="0" class="st5 st4">ti</tspan><tspan x="24.07" y="0" class="st5 st4">o</tspan><tspan x="26.67" y="0" class="st5 st4">n</tspan><tspan x="29.27" y="0" class="st5 st4">»</tspan></text>
	<text transform="matrix(1.0023 0 0 1 272.8014 120.7171)"><tspan x="0" y="0" class="st6 st4">a</tspan><tspan x="2.17" y="0" class="st6 st4">pp</tspan><tspan x="7.35" y="0" class="st6 st4">::</tspan><tspan x="9.95" y="0" class="st6 st4">W</tspan><tspan x="14.28" y="0" class="st6 st4">r</tspan><tspan x="16.01" y="0" class="st6 st4">a</tspan><tspan x="18.18" y="0" class="st6 st4">p</tspan><tspan x="20.77" y="0" class="st6 st4">M</tspan><tspan x="25.1" y="0" class="st6 st4">od</tspan><tspan x="30.29" y="0" class="st6 st4">e</tspan><tspan x="32.89" y="0" class="st6 st4">T</tspan><tspan x="35.05" y="0" class="st6 st4">y</tspan><tspan x="37.22" y="0" class="st6 st4">p</tspan><tspan x="39.81" y="0" class="st6 st4">e</tspan></text>
	<line class="st2" x1="261.52" y1="124.18" x2="326.19" y2="124.18"/>
	<text transform="matrix(1.0023 0 0 1 263.692 130.2484)" class="st5 st4"> </text>
	<text transform="matrix(1.0023 0 0 1 271.067 130.2484)"><tspan x="0" y="0" class="st5 st4">n</tspan><tspan x="2.6" y="0" class="st5 st4">o</tspan><tspan x="5.2" y="0" class="st5 st4">n</tspan><tspan x="7.79" y="0" class="st5 st4">e</tspan></text>
	<text transform="matrix(1.0023 0 0 1 263.692 135.8734)" class="st5 st4"> </text>
	<text transform="matrix(1.0023 0 0 1 271.067 135.8734)"><tspan x="0" y="0" class="st5 st4">w</tspan><tspan x="3.46" y="0" class="st5 st4">r</tspan><tspan x="5.2" y="0" class="st5 st4">a</tspan><tspan x="7.79" y="0" class="st5 st4">p</tspan></text>
	<text transform="matrix(1.0023 0 0 1 263.692 141.4984)" class="st5 st4"> </text>
	<text transform="matrix(1.0023 0 0 1 271.067 141.4984)"><tspan x="0" y="0" class="st5 st4">m</tspan><tspan x="3.9" y="0" class="st5 st4">i</tspan><tspan x="5.19" y="0" class="st5 st4">rr</tspan><tspan x="8.66" y="0" class="st5 st4">o</tspan><tspan x="11.26" y="0" class="st5 st4">r</tspan></text>
	<text transform="matrix(1.0023 0 0 1 263.692 147.1312)" class="st5 st4"> </text>
	<text transform="matrix(1.0023 0 0 1 271.067 147.1312)"><tspan x="0" y="0" class="st5 st4">c</tspan><tspan x="2.16" y="0" class="st5 st4">l</tspan><tspan x="3.46" y="0" class="st5 st4">a</tspan><tspan x="6.06" y="0" class="st5 st4">m</tspan><tspan x="9.95" y="0" class="st5 st4">p</tspan></text>
	<text transform="matrix(1.0023 0 0 1 263.692 152.764)" class="st5 st4"> </text>
	<text transform="matrix(1.0023 0 0 1 271.067 152.764)"><tspan x="0" y="0" class="st5 st4">b</tspan><tspan x="2.6" y="0" class="st5 st4">o</tspan><tspan x="5.2" y="0" class="st5 st4">r</tspan><tspan x="6.93" y="0" class="st5 st4">d</tspan><tspan x="9.53" y="0" class="st5 st4">e</tspan><tspan x="12.12" y="0" class="st5 st4">r</tspan></text>
	<line class="st8" x1="199.88" y1="21.98" x2="252.84" y2="21.98"/>
	<polyline class="st9" points="248.5,24.14 252.84,21.98 248.5,19.81 244.16,21.98 248.5,24.14 	"/>
	<polyline class="st8" points="244.49,22.07 248.5,24.14 252.84,21.98 248.5,19.81 244.16,21.98 	"/>
	<path class="st8" d="M199.88,21.98l6.51,2.6 M199.88,21.98l6.51-2.6"/>
	<line class="st8" x1="75.31" y1="233.75" x2="75.31" y2="216.86"/>
	<polyline class="st9" points="77.91,223.79 72.7,223.79 75.31,216.86 77.91,223.79 	"/>
	<polygon class="st8" points="77.91,223.79 72.7,223.79 75.31,216.86 	"/>
	<line class="st8" x1="66.19" y1="95.17" x2="66.19" y2="82.18"/>
	<polyline class="st9" points="68.8,89.1 63.59,89.1 66.19,82.18 68.8,89.1 	"/>
	<polygon class="st8" points="68.8,89.1 63.59,89.1 66.19,82.18 	"/>
	<line class="st8" x1="69.67" y1="183.95" x2="69.67" y2="183.95"/>
	<path class="st10" d="M69.67,183.95h3.04 M74.44,183.95h3.04 M79.21,183.95h3.04 M83.99,183.95h3.04 M88.76,183.51h3.04
		 M93.54,183.51h3.04 M98.31,183.51h3.04 M103.09,183.51h3.04 M107.86,183.08h3.04 M112.64,183.08h3.04 M117.41,183.08h3.04
		 M122.19,183.08h3.04"/>
	<line class="st8" x1="69.67" y1="173.12" x2="69.67" y2="194.77"/>
	<polyline class="st9" points="71.84,177.45 69.67,173.12 67.5,177.45 69.67,181.78 71.84,177.45 	"/>
	<polygon class="st8" points="69.67,181.78 67.5,177.45 69.67,173.12 71.84,177.45 	"/>
	<path class="st8" d="M69.67,194.77l-2.6-6.5 M69.67,194.77l2.6-6.5"/>
	<line class="st8" x1="70.53" y1="155.8" x2="70.53" y2="143.24"/>
	<polyline class="st9" points="73.14,150.17 67.93,150.17 70.53,143.24 73.14,150.17 	"/>
	<polygon class="st8" points="73.14,150.17 67.93,150.17 70.53,143.24 	"/>
	<line class="st8" x1="152.57" y1="41.03" x2="152.57" y2="67.02"/>
	<line class="st8" x1="152.57" y1="67.02" x2="109.16" y2="67.02"/>
	<polyline class="st9" points="154.74,45.36 152.57,41.03 150.4,45.36 152.57,49.69 154.74,45.36 	"/>
	<polygon class="st8" points="152.57,49.69 150.4,45.36 152.57,41.03 154.74,45.36 	"/>
	<path class="st8" d="M109.16,67.02l6.51-2.6 M109.16,67.02l6.51,2.6"/>
	<line class="st8" x1="250.67" y1="216.43" x2="250.67" y2="199.1"/>
	<polyline class="st9" points="253.27,206.03 248.06,206.03 250.67,199.1 253.27,206.03 	"/>
	<polygon class="st8" points="253.27,206.03 248.06,206.03 250.67,199.1 	"/>
	<polyline class="st9" points="3.26,648.04 3.26,661.04 101.14,661.04 101.14,648.04 3.26,648.04 	"/>
	<text transform="matrix(1.0023 0 0 1 133.0358 73.9359)"><tspan x="0" y="0" class="st5 st4">+</tspan><tspan x="2.17" y="0" class="st5 st4">s</tspan><tspan x="4.33" y="0" class="st5 st4">u</tspan><tspan x="6.93" y="0" class="st5 st4">r</tspan><tspan x="8.66" y="0" class="st5 st4">f</tspan><tspan x="9.96" y="0" class="st5 st4">a</tspan><tspan x="12.56" y="0" class="st5 st4">c</tspan><tspan x="14.72" y="0" class="st5 st4">e</tspan><tspan x="17.32" y="0" class="st5 st4">D</tspan><tspan x="20.35" y="0" class="st5 st4">a</tspan><tspan x="22.94" y="0" class="st5 st4">t</tspan><tspan x="24.67" y="0" class="st5 st4">a</tspan><tspan x="27.27" y="0" class="st5 st4">M</tspan><tspan x="31.17" y="0" class="st5 st4">e</tspan><tspan x="33.76" y="0" class="st5 st4">mb</tspan><tspan x="40.25" y="0" class="st5 st4">e</tspan><tspan x="42.85" y="0" class="st5 st4">r</tspan></text>
	<polyline class="st9" points="3.26,648.04 3.26,661.04 19.86,661.04 19.86,648.04 3.26,648.04 	"/>
	<text transform="matrix(1.0023 0 0 1 116.9733 73.0765)"><tspan x="0" y="0" class="st5 st4">0</tspan><tspan x="2.6" y="0" class="st5 st4">..</tspan><tspan x="5.19" y="0" class="st5 st4">*</tspan></text>
	<polyline class="st9" points="3.26,648.04 3.26,661.04 100.06,661.04 100.06,648.04 3.26,648.04 	"/>
	<text transform="matrix(1.0023 0 0 1 201.1842 18.514)"><tspan x="0" y="0" class="st5 st4">+</tspan><tspan x="2.17" y="0" class="st5 st4">a</tspan><tspan x="4.76" y="0" class="st5 st4">pp</tspan><tspan x="9.96" y="0" class="st5 st4">e</tspan><tspan x="12.55" y="0" class="st5 st4">a</tspan><tspan x="15.15" y="0" class="st5 st4">r</tspan><tspan x="16.88" y="0" class="st5 st4">a</tspan><tspan x="19.48" y="0" class="st5 st4">n</tspan><tspan x="22.08" y="0" class="st5 st4">c</tspan><tspan x="24.24" y="0" class="st5 st4">e</tspan><tspan x="26.83" y="0" class="st5 st4">M</tspan><tspan x="30.73" y="0" class="st5 st4">e</tspan><tspan x="33.33" y="0" class="st5 st4">mb</tspan><tspan x="39.82" y="0" class="st5 st4">e</tspan><tspan x="42.41" y="0" class="st5 st4">r</tspan></text>
	<polyline class="st9" points="3.26,648.04 3.26,661.04 19.86,661.04 19.86,648.04 3.26,648.04 	"/>
	<text transform="matrix(1.0023 0 0 1 201.1842 28.4671)"><tspan x="0" y="0" class="st5 st4">0</tspan><tspan x="2.6" y="0" class="st5 st4">..</tspan><tspan x="5.19" y="0" class="st5 st4">*</tspan></text>
	<polyline class="st9" points="3.26,648.04 3.26,661.04 35.86,661.04 35.86,648.04 3.26,648.04 	"/>
	<text transform="matrix(1.0023 0 0 1 45.3639 190.014)"><tspan x="0" y="0" class="st5 st4">+</tspan><tspan x="2.17" y="0" class="st5 st4">t</tspan><tspan x="3.9" y="0" class="st5 st4">a</tspan><tspan x="6.49" y="0" class="st5 st4">r</tspan><tspan x="8.23" y="0" class="st5 st4">g</tspan><tspan x="10.39" y="0" class="st5 st4">e</tspan><tspan x="12.99" y="0" class="st5 st4">t</tspan></text>
	<polyline class="st9" points="3.26,648.04 3.26,661.04 19.86,661.04 19.86,648.04 3.26,648.04 	"/>
	<text transform="matrix(1.0023 0 0 1 81.817 190.8734)"><tspan x="0" y="0" class="st5 st4">0</tspan><tspan x="2.6" y="0" class="st5 st4">..</tspan><tspan x="5.19" y="0" class="st5 st4">*</tspan></text>
</g>
</svg>
